<?xml version="1.0" encoding="utf-8"?><!DOCTYPE svg PUBLIC "-//W3C//DTD SVG 1.1//EN" "http://www.w3.org/Graphics/SVG/1.1/DTD/svg11.dtd"><svg xmlns="http://www.w3.org/2000/svg" viewBox="0 0 181 181" shape-rendering="crispEdges"><path fill="#ffffff" d="M0 0h181v181H0z"/><path stroke="#000000" d="M4 4.5h7m5 0h2m1 0h2m1 0h3m1 0h3m1 0h2m1 0h1m1 0h2m2 0h1m1 0h4m1 0h1m1 0h3m2 0h1m1 0h3m3 0h2m3 0h1m1 0h2m1 0h2m3 0h1m3 0h1m2 0h2m1 0h1m2 0h1m1 0h1m2 0h4m1 0h2m3 0h4m4 0h2m8 0h1m1 0h4m3 0h1m1 0h2m1 0h1m1 0h1m3 0h3m1 0h2m1 0h3m2 0h1m1 0h4m5 0h2m3 0h7M4 5.5h1m5 0h1m1 0h3m1 0h6m1 0h1m2 0h3m1 0h6m1 0h1m1 0h3m1 0h1m1 0h1m1 0h1m3 0h2m2 0h1m3 0h1m1 0h1m5 0h1m1 0h3m1 0h1m1 0h1m1 0h1m1 0h1m1 0h2m1 0h2m2 0h1m1 0h1m2 0h1m2 0h1m1 0h1m1 0h1m1 0h1m1 0h1m2 0h1m2 0h1m4 0h2m1 0h1m2 0h2m1 0h2m1 0h1m4 0h2m2 0h1m2 0h2m4 0h1m2 0h2m7 0h1m2 0h1m1 0h1m7 0h1m5 0h1M4 6.5h1m1 0h3m1 0h1m2 0h1m1 0h2m5 0h1m4 0h2m1 0h3m1 0h1m2 0h1m1 0h2m2 0h1m2 0h1m1 0h2m1 0h2m2 0h1m1 0h1m4 0h1m1 0h3m4 0h1m1 0h2m1 0h2m7 0h1m1 0h3m1 0h4m1 0h1m2 0h1m1 0h1m6 0h1m1 0h1m3 0h1m4 0h1m1 0h1m2 0h2m2 0h3m4 0h2m1 0h2m1 0h1m3 0h1m1 0h2m2 0h1m2 0h2m1 0h1m5 0h1m1 0h2m1 0h1m1 0h1m1 0h3m1 0h1M4 7.5h1m1 0h3m1 0h1m1 0h2m4 0h3m2 0h2m2 0h3m1 0h6m2 0h2m1 0h4m1 0h5m1 0h6m3 0h2m2 0h2m1 0h1m2 0h1m1 0h1m1 0h1m2 0h1m1 0h1m1 0h1m2 0h3m2 0h1m1 0h1m1 0h1m1 0h1m2 0h1m5 0h1m2 0h1m1 0h3m4 0h1m1 0h1m6 0h2m1 0h1m1 0h2m1 0h1m4 0h4m2 0h3m1 0h1m2 0h1m2 0h7m2 0h1m1 0h1m2 0h1m1 0h3m1 0h1M4 8.5h1m1 0h3m1 0h1m5 0h1m1 0h2m8 0h5m4 0h2m1 0h1m1 0h1m1 0h1m1 0h1m1 0h1m1 0h1m3 0h1m1 0h5m4 0h3m1 0h5m1 0h1m1 0h1m2 0h1m1 0h7m2 0h1m1 0h2m2 0h1m1 0h1m1 0h1m1 0h5m4 0h5m4 0h2m1 0h1m1 0h2m1 0h1m1 0h1m2 0h1m1 0h1m1 0h7m2 0h1m2 0h1m2 0h2m1 0h1m1 0h1m2 0h8m1 0h1m1 0h3m1 0h1M4 9.5h1m5 0h1m1 0h6m1 0h2m2 0h2m2 0h2m3 0h5m1 0h3m6 0h1m1 0h1m1 0h2m3 0h1m3 0h1m7 0h1m1 0h1m2 0h1m2 0h1m2 0h2m1 0h1m1 0h1m3 0h1m1 0h1m4 0h1m1 0h2m2 0h4m2 0h1m1 0h2m1 0h1m3 0h2m1 0h1m1 0h1m2 0h1m1 0h1m5 0h1m2 0h1m1 0h4m3 0h1m3 0h2m4 0h2m1 0h1m1 0h2m1 0h1m2 0h1m2 0h1m1 0h1m5 0h1M4 10.5h7m1 0h1m1 0h1m1 0h1m1 0h1m1 0h1m1 0h1m1 0h1m1 0h1m1 0h1m1 0h1m1 0h1m1 0h1m1 0h1m1 0h1m1 0h1m1 0h1m1 0h1m1 0h1m1 0h1m1 0h1m1 0h1m1 0h1m1 0h1m1 0h1m1 0h1m1 0h1m1 0h1m1 0h1m1 0h1m1 0h1m1 0h1m1 0h1m1 0h1m1 0h1m1 0h1m1 0h1m1 0h1m1 0h1m1 0h1m1 0h1m1 0h1m1 0h1m1 0h1m1 0h1m1 0h1m1 0h1m1 0h1m1 0h1m1 0h1m1 0h1m1 0h1m1 0h1m1 0h1m1 0h1m1 0h1m1 0h1m1 0h1m1 0h1m1 0h1m1 0h1m1 0h1m1 0h1m1 0h1m1 0h1m1 0h1m1 0h1m1 0h1m1 0h1m1 0h1m1 0h1m1 0h1m1 0h1m1 0h1m1 0h1m1 0h1m1 0h1m1 0h1m1 0h1m1 0h1m1 0h7M13 11.5h1m4 0h2m2 0h2m2 0h1m1 0h1m3 0h2m1 0h2m2 0h3m2 0h1m1 0h1m8 0h2m3 0h1m2 0h5m3 0h1m2 0h4m1 0h1m1 0h1m2 0h1m3 0h3m2 0h1m2 0h1m1 0h1m3 0h1m1 0h2m2 0h1m2 0h2m3 0h3m1 0h3m2 0h1m4 0h7m1 0h1m1 0h1m3 0h1m3 0h1m3 0h1m1 0h3m3 0h1m2 0h1m2 0h1M4 12.5h5m1 0h3m4 0h8m1 0h9m4 0h1m1 0h3m1 0h1m1 0h1m4 0h1m1 0h9m2 0h5m4 0h4m4 0h7m1 0h2m2 0h1m2 0h5m1 0h1m7 0h6m1 0h1m1 0h2m1 0h2m2 0h2m1 0h1m1 0h1m7 0h5m3 0h1m1 0h2m4 0h4m2 0h1m1 0h2m3 0h1m1 0h1m1 0h1m1 0h1M6 13.5h1m2 0h1m1 0h1m1 0h1m1 0h2m2 0h2m1 0h3m1 0h2m1 0h1m1 0h2m2 0h4m1 0h5m3 0h1m6 0h1m1 0h3m1 0h1m1 0h1m1 0h1m1 0h1m1 0h5m1 0h6m1 0h2m2 0h1m6 0h3m2 0h1m1 0h2m3 0h2m2 0h1m1 0h1m1 0h1m1 0h1m1 0h1m4 0h3m1 0h2m5 0h7m1 0h2m1 0h1m1 0h2m1 0h1m1 0h4m1 0h1m1 0h2m1 0h2m1 0h3m1 0h1m2 0h2m1 0h3M4 14.5h1m1 0h2m2 0h1m2 0h2m1 0h1m4 0h1m4 0h1m1 0h1m1 0h1m1 0h1m1 0h2m1 0h4m2 0h1m1 0h1m5 0h3m2 0h4m1 0h1m1 0h1m1 0h1m1 0h2m1 0h1m2 0h1m1 0h1m3 0h4m5 0h1m1 0h2m5 0h1m1 0h2m3 0h1m4 0h4m2 0h3m1 0h4m2 0h3m6 0h3m2 0h7m2 0h1m11 0h2m1 0h1m1 0h2m1 0h1m1 0h2M5 15.5h1m1 0h1m3 0h1m3 0h2m1 0h2m3 0h1m1 0h4m1 0h2m1 0h1m1 0h4m1 0h1m2 0h5m5 0h1m1 0h2m2 0h1m2 0h1m1 0h4m3 0h4m1 0h1m1 0h1m2 0h1m1 0h2m4 0h1m1 0h3m2 0h1m1 0h1m2 0h5m1 0h1m3 0h4m3 0h1m2 0h1m1 0h1m1 0h1m1 0h6m5 0h2m1 0h1m2 0h1m3 0h1m2 0h1m2 0h1m5 0h1m5 0h1m2 0h1m3 0h1M7 16.5h1m1 0h2m1 0h1m2 0h1m3 0h2m1 0h1m2 0h2m1 0h2m1 0h1m2 0h2m2 0h1m1 0h3m1 0h1m5 0h2m2 0h1m3 0h1m1 0h5m1 0h1m5 0h2m1 0h4m3 0h1m1 0h4m1 0h1m5 0h1m1 0h1m2 0h1m1 0h2m1 0h1m1 0h1m1 0h1m2 0h7m1 0h2m6 0h3m1 0h2m3 0h1m3 0h1m4 0h2m2 0h2m1 0h1m3 0h2m1 0h3m1 0h1m2 0h1m2 0h1m1 0h4M4 17.5h1m2 0h1m3 0h2m2 0h1m2 0h2m4 0h4m1 0h5m1 0h1m1 0h2m3 0h3m3 0h8m7 0h1m5 0h5m6 0h2m5 0h1m1 0h1m4 0h1m1 0h1m2 0h2m4 0h3m1 0h1m4 0h1m1 0h1m4 0h4m1 0h2m6 0h1m1 0h1m1 0h1m2 0h3m1 0h3m1 0h5m2 0h1m1 0h1m3 0h3m2 0h1m5 0h3M4 18.5h1m1 0h1m3 0h1m4 0h1m1 0h1m1 0h2m2 0h5m1 0h2m1 0h4m1 0h3m3 0h1m2 0h2m4 0h1m6 0h1m1 0h1m1 0h1m1 0h1m2 0h1m1 0h4m1 0h1m1 0h1m1 0h2m1 0h1m2 0h4m1 0h1m4 0h2m1 0h3m1 0h1m2 0h1m2 0h1m1 0h1m1 0h2m1 0h2m2 0h1m1 0h1m1 0h3m3 0h1m1 0h1m1 0h1m1 0h4m1 0h1m2 0h1m1 0h1m2 0h1m1 0h1m3 0h1m2 0h1m2 0h1m5 0h7M4 19.5h3m4 0h2m2 0h2m2 0h2m5 0h1m3 0h2m8 0h2m1 0h2m1 0h4m1 0h3m2 0h3m2 0h4m1 0h1m4 0h1m1 0h4m4 0h1m1 0h1m1 0h1m1 0h3m2 0h1m1 0h1m1 0h1m1 0h2m2 0h4m1 0h1m2 0h1m1 0h1m1 0h2m1 0h3m2 0h1m3 0h2m2 0h1m1 0h1m6 0h1m1 0h2m1 0h2m2 0h2m3 0h3m3 0h3m2 0h3m2 0h2m2 0h1m1 0h1M4 20.5h1m1 0h2m1 0h3m3 0h1m3 0h1m2 0h4m1 0h1m1 0h1m1 0h1m4 0h1m1 0h2m4 0h2m2 0h3m1 0h3m3 0h3m1 0h4m2 0h4m1 0h1m2 0h4m2 0h1m1 0h3m4 0h1m5 0h2m1 0h3m3 0h2m3 0h2m1 0h1m2 0h2m1 0h2m5 0h4m1 0h2m1 0h3m1 0h1m2 0h1m3 0h2m2 0h1m4 0h7m2 0h1m2 0h1m4 0h3m1 0h1M4 21.5h3m1 0h2m4 0h1m1 0h2m3 0h3m1 0h1m1 0h1m3 0h1m1 0h1m6 0h6m1 0h1m1 0h1m1 0h1m2 0h2m3 0h1m4 0h1m3 0h1m1 0h1m1 0h1m4 0h1m1 0h1m2 0h1m3 0h2m1 0h1m1 0h1m2 0h2m4 0h1m5 0h1m1 0h2m3 0h2m2 0h1m3 0h2m1 0h1m1 0h2m2 0h1m3 0h5m1 0h3m2 0h1m3 0h1m2 0h1m1 0h1m1 0h1m4 0h1m1 0h1m1 0h1m3 0h1m4 0h3M5 22.5h1m2 0h1m1 0h3m7 0h1m1 0h3m2 0h4m1 0h1m1 0h1m1 0h2m1 0h1m3 0h1m1 0h3m1 0h4m3 0h2m6 0h1m2 0h2m1 0h1m1 0h2m3 0h1m1 0h2m1 0h2m1 0h1m2 0h1m1 0h1m5 0h4m2 0h4m1 0h2m1 0h1m1 0h1m2 0h4m2 0h7m2 0h1m1 0h1m3 0h1m1 0h3m3 0h1m2 0h3m1 0h1m1 0h3m1 0h1m1 0h2m1 0h1m2 0h1m2 0h3m1 0h2m1 0h1M4 23.5h1m2 0h1m1 0h1m4 0h1m5 0h2m1 0h2m2 0h1m4 0h2m2 0h1m1 0h3m2 0h2m1 0h1m2 0h1m2 0h1m2 0h2m3 0h8m5 0h4m1 0h2m1 0h1m1 0h1m3 0h2m1 0h4m2 0h1m2 0h1m1 0h6m1 0h3m1 0h3m2 0h2m2 0h1m1 0h1m3 0h2m1 0h3m2 0h1m3 0h1m1 0h5m5 0h1m1 0h5m1 0h3m1 0h5m1 0h1M4 24.5h2m1 0h1m1 0h4m2 0h1m1 0h5m3 0h1m3 0h1m1 0h3m1 0h3m1 0h4m1 0h1m2 0h2m1 0h3m1 0h2m1 0h5m3 0h2m3 0h2m1 0h1m3 0h2m1 0h1m3 0h2m4 0h2m1 0h2m5 0h1m2 0h1m1 0h2m4 0h1m3 0h4m1 0h2m5 0h1m1 0h5m3 0h1m1 0h2m1 0h2m1 0h4m1 0h3m3 0h3m3 0h3m2 0h1m2 0h3m1 0h3M4 25.5h1m1 0h1m1 0h2m2 0h3m1 0h1m3 0h2m4 0h1m3 0h2m1 0h1m1 0h2m1 0h1m1 0h1m2 0h4m1 0h1m1 0h1m2 0h1m2 0h1m9 0h1m1 0h1m3 0h1m1 0h1m1 0h1m1 0h2m1 0h2m2 0h1m3 0h1m3 0h3m1 0h1m1 0h3m1 0h1m2 0h1m1 0h1m4 0h2m1 0h1m2 0h1m2 0h5m7 0h3m1 0h1m3 0h1m3 0h3m2 0h4m1 0h4m1 0h2m1 0h1m1 0h2m3 0h4M5 26.5h2m1 0h1m1 0h8m2 0h2m1 0h1m2 0h1m3 0h1m3 0h2m6 0h2m2 0h1m5 0h1m1 0h2m3 0h1m1 0h1m1 0h1m4 0h3m1 0h2m1 0h1m3 0h2m1 0h1m3 0h5m4 0h1m1 0h2m1 0h1m2 0h2m4 0h2m1 0h2m2 0h1m2 0h1m1 0h1m1 0h1m1 0h1m3 0h1m1 0h3m1 0h1m1 0h1m2 0h1m2 0h1m1 0h1m1 0h5m1 0h1m1 0h1m1 0h1m1 0h3m1 0h1m4 0h1m1 0h5M4 27.5h2m1 0h1m5 0h3m2 0h1m1 0h4m2 0h1m1 0h2m4 0h1m2 0h2m1 0h1m4 0h3m8 0h1m1 0h1m3 0h3m1 0h1m4 0h1m1 0h4m1 0h2m4 0h2m2 0h1m2 0h2m1 0h1m1 0h4m1 0h3m2 0h3m1 0h6m2 0h1m1 0h1m1 0h1m1 0h2m2 0h3m1 0h2m1 0h1m1 0h1m1 0h1m4 0h2m2 0h2m4 0h4m1 0h2m2 0h2m1 0h1m3 0h2m1 0h1m2 0h1M4 28.5h1m1 0h8m2 0h1m1 0h3m1 0h3m2 0h9m1 0h2m1 0h6m1 0h2m1 0h2m2 0h8m1 0h1m1 0h2m2 0h1m1 0h2m1 0h1m2 0h3m2 0h1m1 0h5m4 0h1m1 0h1m3 0h2m8 0h1m2 0h5m1 0h4m1 0h1m3 0h2m1 0h1m1 0h2m1 0h1m4 0h5m1 0h1m3 0h1m1 0h1m3 0h3m1 0h1m1 0h2m4 0h5m1 0h2M4 29.5h5m3 0h1m2 0h1m1 0h1m1 0h1m4 0h2m2 0h1m3 0h1m1 0h3m1 0h2m2 0h3m1 0h1m1 0h1m1 0h1m2 0h4m3 0h2m2 0h1m4 0h2m2 0h1m1 0h1m2 0h2m2 0h3m3 0h1m2 0h2m1 0h2m5 0h1m1 0h1m1 0h2m2 0h1m1 0h2m3 0h2m3 0h7m1 0h1m3 0h2m1 0h1m1 0h3m3 0h1m5 0h3m1 0h1m1 0h1m4 0h1m2 0h5m3 0h3m1 0h1M4 30.5h5m1 0h1m1 0h1m1 0h1m2 0h1m2 0h2m4 0h1m1 0h1m1 0h1m1 0h1m1 0h1m1 0h1m8 0h3m1 0h1m2 0h2m2 0h1m1 0h1m1 0h1m2 0h3m1 0h4m1 0h1m3 0h2m2 0h1m1 0h1m1 0h1m1 0h1m1 0h1m1 0h2m1 0h1m2 0h1m1 0h2m2 0h1m1 0h1m2 0h1m2 0h1m1 0h1m1 0h1m1 0h3m1 0h1m1 0h1m1 0h1m3 0h4m2 0h4m2 0h1m1 0h1m1 0h2m2 0h4m2 0h1m2 0h1m1 0h2m1 0h1m3 0h3m1 0h1m1 0h1m2 0h1M6 31.5h3m3 0h7m1 0h1m1 0h1m1 0h3m1 0h1m3 0h2m1 0h1m1 0h1m1 0h1m1 0h1m4 0h2m3 0h2m2 0h2m3 0h3m1 0h2m1 0h1m1 0h1m1 0h1m2 0h3m1 0h2m4 0h1m3 0h2m3 0h2m1 0h4m1 0h6m1 0h1m3 0h1m3 0h1m1 0h4m1 0h1m3 0h1m4 0h4m1 0h1m2 0h1m3 0h1m2 0h2m2 0h1m2 0h1m5 0h1m4 0h2m1 0h1m3 0h1M4 32.5h1m1 0h7m2 0h1m1 0h5m1 0h2m2 0h6m1 0h1m2 0h1m2 0h2m3 0h3m1 0h2m2 0h15m2 0h1m1 0h1m1 0h1m2 0h2m1 0h11m2 0h2m3 0h3m5 0h1m2 0h1m1 0h8m1 0h2m2 0h2m2 0h1m1 0h4m2 0h1m2 0h6m1 0h1m2 0h2m4 0h1m2 0h3m1 0h2m3 0h8M7 33.5h2m2 0h4m1 0h1m2 0h1m3 0h6m4 0h3m1 0h1m1 0h1m1 0h1m1 0h1m2 0h3m2 0h1m1 0h3m2 0h2m1 0h1m2 0h1m1 0h3m5 0h2m1 0h1m1 0h1m2 0h1m1 0h4m1 0h1m4 0h2m3 0h3m1 0h1m2 0h2m4 0h1m1 0h1m1 0h2m4 0h3m1 0h2m3 0h1m1 0h4m1 0h1m2 0h2m2 0h2m2 0h2m3 0h4m1 0h1m2 0h3m1 0h2m1 0h8M4 34.5h2m2 0h1m1 0h1m3 0h1m6 0h2m3 0h3m1 0h1m1 0h1m1 0h2m1 0h3m2 0h1m1 0h3m5 0h1m6 0h1m1 0h1m3 0h4m1 0h3m4 0h1m1 0h5m2 0h1m3 0h1m1 0h1m3 0h2m2 0h1m3 0h1m4 0h2m4 0h3m1 0h1m1 0h2m1 0h2m3 0h2m2 0h1m3 0h1m1 0h4m1 0h3m1 0h1m8 0h2m1 0h1m2 0h1m1 0h2m1 0h2m1 0h2M5 35.5h3m1 0h1m4 0h1m2 0h1m1 0h5m1 0h2m1 0h1m6 0h2m1 0h2m3 0h4m4 0h2m2 0h4m3 0h3m8 0h2m1 0h1m1 0h2m3 0h3m2 0h1m2 0h3m1 0h3m1 0h4m1 0h2m1 0h7m2 0h1m1 0h4m1 0h2m3 0h5m2 0h1m3 0h1m8 0h1m2 0h1m2 0h2m3 0h1m3 0h1m1 0h2m3 0h1m2 0h1M5 36.5h1m3 0h3m3 0h3m4 0h2m1 0h3m2 0h1m2 0h1m1 0h2m3 0h3m1 0h2m4 0h10m1 0h1m2 0h3m1 0h1m1 0h1m1 0h2m2 0h1m2 0h1m1 0h1m6 0h2m1 0h1m5 0h5m1 0h1m2 0h1m3 0h1m3 0h2m2 0h4m3 0h1m1 0h7m7 0h1m1 0h4m1 0h1m1 0h4m1 0h1m1 0h3m2 0h1m5 0h1m2 0h2m1 0h2M5 37.5h2m1 0h1m2 0h1m2 0h3m3 0h1m1 0h1m4 0h2m2 0h1m3 0h1m2 0h2m1 0h1m2 0h2m2 0h1m1 0h1m3 0h1m2 0h2m1 0h1m2 0h1m1 0h1m3 0h3m1 0h2m1 0h2m2 0h4m1 0h4m5 0h1m6 0h1m1 0h1m2 0h3m3 0h2m5 0h1m1 0h2m1 0h3m6 0h2m1 0h1m1 0h1m1 0h1m1 0h1m7 0h3m3 0h4m1 0h2m1 0h4m1 0h1m1 0h2m2 0h2M5 38.5h3m1 0h3m4 0h1m2 0h2m1 0h3m2 0h3m3 0h2m4 0h1m1 0h3m1 0h1m1 0h1m3 0h4m1 0h1m4 0h1m3 0h1m2 0h1m1 0h1m1 0h1m4 0h1m2 0h1m1 0h1m2 0h3m1 0h3m1 0h1m1 0h5m2 0h1m2 0h1m2 0h3m5 0h4m2 0h2m1 0h4m2 0h1m1 0h1m1 0h2m1 0h7m3 0h2m3 0h3m4 0h1m1 0h1m2 0h2m5 0h1m1 0h2M4 39.5h1m1 0h1m1 0h2m4 0h2m8 0h1m1 0h1m1 0h1m2 0h2m5 0h1m1 0h2m3 0h2m4 0h2m2 0h2m1 0h2m2 0h1m1 0h1m1 0h1m4 0h1m1 0h1m2 0h4m1 0h1m1 0h1m2 0h3m1 0h4m2 0h3m2 0h5m1 0h5m1 0h1m2 0h5m4 0h2m2 0h3m1 0h3m1 0h1m2 0h1m1 0h4m1 0h3m1 0h5m1 0h1m3 0h1m1 0h2m1 0h1m1 0h3m2 0h1m2 0h1M4 40.5h1m5 0h2m1 0h1m1 0h2m2 0h3m1 0h1m2 0h5m2 0h1m1 0h3m1 0h2m7 0h1m3 0h1m1 0h3m3 0h1m2 0h2m1 0h1m2 0h1m1 0h1m2 0h3m1 0h2m1 0h1m3 0h1m2 0h2m4 0h1m4 0h3m1 0h1m3 0h1m1 0h1m1 0h2m1 0h1m3 0h1m1 0h2m1 0h1m1 0h1m1 0h2m1 0h4m8 0h8m2 0h2m2 0h1m1 0h1m1 0h1m1 0h1m1 0h2m1 0h5m2 0h3M8 41.5h1m2 0h1m1 0h1m1 0h1m1 0h1m1 0h1m1 0h5m2 0h3m3 0h4m1 0h2m1 0h4m1 0h2m1 0h2m1 0h2m3 0h3m2 0h3m1 0h1m2 0h4m1 0h2m2 0h2m1 0h3m1 0h2m4 0h1m1 0h1m1 0h2m2 0h2m3 0h3m1 0h1m5 0h1m3 0h1m2 0h1m1 0h1m1 0h1m6 0h2m1 0h3m10 0h2m1 0h1m3 0h4m1 0h1m1 0h2m1 0h4m2 0h1m2 0h2M5 42.5h1m3 0h5m2 0h1m1 0h1m2 0h2m1 0h2m2 0h2m13 0h1m5 0h1m2 0h1m1 0h1m1 0h2m3 0h1m6 0h1m1 0h1m1 0h2m6 0h3m1 0h1m1 0h1m1 0h1m1 0h3m3 0h4m1 0h2m1 0h2m1 0h1m1 0h2m2 0h1m1 0h2m1 0h1m1 0h1m1 0h1m1 0h2m2 0h4m5 0h1m1 0h4m2 0h1m1 0h2m1 0h1m2 0h2m4 0h4m2 0h2m2 0h1m1 0h1m1 0h3M5 43.5h3m1 0h1m2 0h1m1 0h1m1 0h3m4 0h1m4 0h4m2 0h4m3 0h1m1 0h4m2 0h1m2 0h2m1 0h1m1 0h3m1 0h2m1 0h4m1 0h1m1 0h1m2 0h1m1 0h1m1 0h2m5 0h1m1 0h1m1 0h4m4 0h1m1 0h5m1 0h2m1 0h5m2 0h3m2 0h2m1 0h1m3 0h2m1 0h4m1 0h1m3 0h1m3 0h2m2 0h1m3 0h1m2 0h1m1 0h2m2 0h1m2 0h5m1 0h2m2 0h1M4 44.5h3m1 0h4m1 0h2m3 0h1m3 0h2m1 0h1m1 0h1m3 0h1m3 0h1m1 0h2m1 0h1m1 0h1m1 0h2m1 0h2m1 0h2m2 0h1m1 0h5m7 0h1m2 0h1m1 0h1m2 0h2m1 0h1m1 0h2m1 0h2m7 0h3m3 0h3m3 0h2m2 0h1m1 0h4m2 0h4m2 0h3m1 0h2m1 0h3m2 0h1m3 0h3m1 0h4m3 0h3m2 0h1m1 0h2m3 0h2m5 0h1m4 0h2M4 45.5h1m3 0h2m3 0h1m1 0h4m5 0h1m6 0h1m1 0h1m1 0h2m2 0h1m1 0h4m4 0h1m3 0h2m3 0h1m2 0h1m2 0h1m2 0h8m2 0h1m2 0h1m5 0h2m6 0h1m2 0h1m2 0h1m2 0h1m2 0h1m8 0h1m3 0h1m1 0h1m1 0h5m5 0h2m1 0h5m4 0h1m2 0h1m3 0h1m1 0h1m1 0h2m1 0h1m2 0h3m1 0h3m1 0h1m1 0h2M6 46.5h1m1 0h3m1 0h1m2 0h1m1 0h2m2 0h1m2 0h4m2 0h1m3 0h3m1 0h3m2 0h1m2 0h2m1 0h1m1 0h2m1 0h1m2 0h1m1 0h1m1 0h1m1 0h1m3 0h2m1 0h1m1 0h1m4 0h1m3 0h2m2 0h1m3 0h2m1 0h2m1 0h1m1 0h2m2 0h2m1 0h1m3 0h6m2 0h1m1 0h2m2 0h4m3 0h1m3 0h1m1 0h3m1 0h1m2 0h1m3 0h3m1 0h2m1 0h2m2 0h2m1 0h1m2 0h1m1 0h1m3 0h1m1 0h3M4 47.5h1m2 0h2m4 0h1m3 0h2m4 0h2m4 0h1m3 0h2m1 0h1m1 0h3m4 0h3m1 0h1m1 0h5m1 0h2m2 0h6m4 0h1m1 0h4m1 0h1m4 0h3m1 0h2m1 0h1m1 0h2m2 0h4m2 0h1m2 0h1m2 0h1m1 0h1m2 0h1m2 0h4m3 0h1m1 0h1m3 0h12m2 0h2m3 0h1m4 0h3m1 0h1m2 0h1m3 0h3m3 0h1m2 0h1M4 48.5h4m2 0h1m1 0h3m1 0h1m1 0h9m2 0h3m1 0h1m6 0h3m4 0h2m1 0h2m4 0h1m1 0h1m1 0h2m1 0h4m2 0h1m1 0h1m1 0h1m1 0h2m2 0h1m2 0h1m4 0h1m3 0h1m1 0h1m6 0h3m8 0h1m2 0h2m2 0h4m1 0h1m3 0h2m1 0h3m10 0h1m2 0h2m1 0h2m1 0h2m1 0h1m2 0h2m1 0h3m1 0h1m1 0h1m1 0h2m3 0h1m1 0h1M5 49.5h1m1 0h1m3 0h1m2 0h1m1 0h4m2 0h1m1 0h3m1 0h1m1 0h2m7 0h3m1 0h8m2 0h1m4 0h1m1 0h1m1 0h1m3 0h1m1 0h1m1 0h3m2 0h1m4 0h3m1 0h2m1 0h2m3 0h4m1 0h1m2 0h2m1 0h1m2 0h1m2 0h1m2 0h1m3 0h1m5 0h3m1 0h1m6 0h2m1 0h1m1 0h1m3 0h2m1 0h2m2 0h6m1 0h1m1 0h1m4 0h3m2 0h2m1 0h3m1 0h2M4 50.5h2m2 0h3m3 0h1m2 0h3m1 0h2m2 0h6m11 0h1m3 0h2m1 0h5m5 0h1m5 0h1m1 0h2m1 0h4m1 0h1m3 0h5m1 0h2m1 0h6m2 0h1m1 0h2m1 0h1m1 0h1m4 0h1m1 0h1m2 0h1m1 0h5m4 0h2m1 0h3m1 0h2m2 0h2m1 0h2m1 0h3m1 0h1m2 0h1m2 0h1m2 0h1m2 0h1m1 0h2m1 0h1m8 0h4M4 51.5h1m2 0h3m1 0h2m1 0h2m1 0h2m3 0h2m2 0h1m6 0h1m1 0h1m1 0h1m1 0h1m3 0h2m1 0h1m1 0h2m1 0h1m3 0h2m3 0h5m1 0h2m1 0h1m5 0h2m1 0h1m4 0h1m2 0h5m2 0h1m1 0h1m1 0h1m1 0h1m4 0h2m2 0h1m2 0h2m3 0h2m3 0h1m1 0h1m1 0h1m1 0h1m3 0h3m3 0h1m1 0h2m3 0h1m2 0h3m1 0h1m1 0h2m4 0h1m1 0h1m1 0h1m1 0h2m1 0h1m1 0h3m2 0h1M4 52.5h3m1 0h1m1 0h3m1 0h1m1 0h2m2 0h1m2 0h1m4 0h2m2 0h2m1 0h1m3 0h1m2 0h1m1 0h1m2 0h4m1 0h3m2 0h1m1 0h3m1 0h1m2 0h1m3 0h2m4 0h3m2 0h2m1 0h1m3 0h2m7 0h4m1 0h1m8 0h5m1 0h5m5 0h2m1 0h1m1 0h1m4 0h1m1 0h1m1 0h2m1 0h1m1 0h4m1 0h1m3 0h3m4 0h1m1 0h1m2 0h4m2 0h2M5 53.5h2m1 0h1m5 0h1m1 0h1m4 0h2m1 0h1m1 0h4m1 0h2m2 0h3m2 0h1m2 0h1m1 0h4m1 0h4m1 0h6m7 0h1m1 0h1m3 0h2m1 0h1m1 0h2m1 0h1m1 0h4m3 0h3m1 0h1m3 0h3m3 0h2m1 0h2m2 0h2m2 0h1m2 0h1m1 0h4m1 0h1m2 0h1m1 0h1m2 0h4m3 0h1m1 0h1m2 0h1m2 0h4m1 0h1m1 0h1m1 0h1m5 0h4m2 0h4m1 0h2M4 54.5h4m1 0h4m2 0h3m1 0h2m2 0h1m3 0h1m3 0h2m3 0h1m2 0h1m1 0h2m3 0h2m3 0h2m3 0h3m4 0h1m3 0h2m1 0h1m1 0h2m2 0h2m2 0h1m1 0h1m1 0h1m2 0h1m2 0h2m2 0h1m2 0h2m1 0h1m1 0h1m1 0h2m1 0h2m1 0h1m3 0h4m2 0h2m2 0h2m1 0h2m1 0h1m3 0h2m2 0h3m1 0h1m2 0h2m1 0h1m2 0h1m1 0h3m1 0h2m1 0h2m3 0h2m6 0h1M9 55.5h1m3 0h1m2 0h1m1 0h1m1 0h3m1 0h1m3 0h2m1 0h5m5 0h1m1 0h1m1 0h4m4 0h1m1 0h2m3 0h5m1 0h2m1 0h1m3 0h3m2 0h2m3 0h1m4 0h1m2 0h3m2 0h2m3 0h4m3 0h1m1 0h3m3 0h7m2 0h1m2 0h1m3 0h2m1 0h1m3 0h1m4 0h1m2 0h3m3 0h2m1 0h2m1 0h2m2 0h1m2 0h2m1 0h4m2 0h2M4 56.5h3m1 0h6m1 0h1m1 0h1m1 0h2m2 0h2m1 0h7m3 0h1m1 0h5m1 0h1m1 0h1m2 0h3m2 0h7m1 0h1m1 0h2m1 0h3m3 0h1m4 0h2m4 0h5m1 0h1m3 0h2m3 0h3m1 0h1m1 0h1m3 0h1m1 0h6m1 0h1m1 0h1m4 0h1m1 0h2m1 0h2m7 0h6m1 0h1m1 0h1m1 0h1m1 0h1m1 0h1m3 0h1m3 0h3m3 0h7m1 0h1M7 57.5h2m3 0h5m2 0h1m3 0h1m3 0h2m3 0h1m1 0h1m2 0h1m1 0h1m1 0h5m2 0h2m1 0h1m1 0h4m3 0h1m2 0h1m1 0h1m2 0h1m2 0h1m3 0h1m1 0h2m1 0h2m1 0h2m3 0h1m2 0h1m1 0h3m1 0h1m2 0h1m2 0h1m1 0h2m4 0h2m3 0h2m1 0h1m1 0h2m1 0h1m1 0h1m4 0h1m2 0h3m1 0h3m3 0h5m3 0h2m2 0h2m1 0h1m1 0h4m1 0h3m3 0h1m1 0h3M6 58.5h3m1 0h1m1 0h1m3 0h1m2 0h10m1 0h1m1 0h1m1 0h4m2 0h1m2 0h1m1 0h2m5 0h1m2 0h2m1 0h1m1 0h2m1 0h1m5 0h4m2 0h1m3 0h2m1 0h3m1 0h1m1 0h1m1 0h1m4 0h5m1 0h4m3 0h1m1 0h1m1 0h1m1 0h1m1 0h3m2 0h2m1 0h1m1 0h1m1 0h1m1 0h3m1 0h1m3 0h1m1 0h1m1 0h1m1 0h5m2 0h1m3 0h1m4 0h1m2 0h1m1 0h4m1 0h1m1 0h2m1 0h1M5 59.5h1m1 0h2m3 0h1m2 0h1m1 0h4m2 0h1m1 0h4m3 0h1m3 0h2m1 0h1m5 0h3m5 0h1m2 0h1m3 0h3m1 0h3m7 0h5m2 0h1m2 0h1m3 0h5m1 0h6m1 0h5m2 0h2m2 0h1m3 0h1m1 0h3m1 0h2m1 0h7m3 0h1m1 0h4m3 0h2m1 0h2m2 0h1m1 0h2m1 0h2m2 0h2m1 0h1m1 0h2m1 0h1m3 0h1M4 60.5h1m3 0h7m1 0h4m1 0h1m1 0h4m1 0h5m1 0h1m1 0h1m4 0h3m3 0h2m1 0h1m1 0h3m1 0h7m4 0h1m3 0h2m1 0h1m2 0h3m4 0h5m1 0h2m1 0h1m4 0h1m1 0h1m2 0h1m3 0h1m2 0h1m1 0h7m1 0h1m6 0h2m1 0h4m5 0h6m1 0h2m2 0h1m1 0h1m2 0h5m4 0h3m1 0h9M4 61.5h1m1 0h1m4 0h2m4 0h2m1 0h1m1 0h2m1 0h1m10 0h1m2 0h6m1 0h1m1 0h3m2 0h2m2 0h3m1 0h1m1 0h1m4 0h3m2 0h2m1 0h2m1 0h2m1 0h1m2 0h1m3 0h1m1 0h1m1 0h3m4 0h1m2 0h1m2 0h1m4 0h1m1 0h3m2 0h2m2 0h1m1 0h4m1 0h1m4 0h5m4 0h1m3 0h1m3 0h3m2 0h3m2 0h1m2 0h8m1 0h4M4 62.5h1m1 0h11m2 0h2m1 0h1m2 0h2m2 0h4m4 0h3m2 0h2m5 0h1m2 0h1m1 0h2m2 0h1m1 0h1m4 0h1m1 0h1m2 0h1m1 0h1m4 0h1m1 0h5m1 0h2m1 0h1m1 0h3m6 0h1m2 0h3m2 0h5m2 0h8m1 0h2m2 0h1m2 0h2m2 0h3m1 0h3m1 0h2m1 0h4m5 0h1m2 0h1m2 0h2m1 0h1m1 0h2m1 0h2m2 0h1m2 0h1M4 63.5h1m1 0h1m4 0h2m1 0h1m3 0h4m1 0h2m1 0h2m2 0h2m1 0h1m1 0h2m1 0h2m4 0h1m1 0h1m2 0h1m1 0h1m4 0h1m2 0h1m1 0h5m7 0h2m1 0h1m1 0h2m5 0h2m4 0h2m4 0h2m3 0h1m1 0h1m1 0h5m1 0h2m1 0h1m2 0h1m1 0h1m1 0h1m2 0h1m1 0h3m1 0h4m2 0h2m1 0h1m1 0h1m8 0h1m2 0h4m1 0h3m2 0h1m1 0h1m1 0h2m1 0h1m1 0h1m1 0h1M5 64.5h4m1 0h5m1 0h1m3 0h1m1 0h1m6 0h5m3 0h3m2 0h2m1 0h1m2 0h1m1 0h3m1 0h1m3 0h2m1 0h2m1 0h4m5 0h3m3 0h3m1 0h1m3 0h3m1 0h1m2 0h2m4 0h2m1 0h1m7 0h1m4 0h1m1 0h1m1 0h2m1 0h1m3 0h1m2 0h1m1 0h2m2 0h1m2 0h1m3 0h5m2 0h1m1 0h2m3 0h3m2 0h2m1 0h1m1 0h1m1 0h3M5 65.5h2m1 0h1m3 0h11m1 0h1m1 0h5m1 0h1m2 0h2m1 0h9m1 0h1m2 0h3m1 0h1m1 0h3m3 0h3m2 0h1m1 0h1m1 0h1m3 0h2m2 0h1m2 0h3m1 0h2m5 0h1m4 0h2m3 0h4m1 0h1m4 0h2m3 0h1m1 0h2m1 0h1m1 0h1m6 0h8m1 0h1m3 0h1m1 0h6m2 0h2m5 0h3m5 0h1m1 0h1m1 0h2M8 66.5h4m2 0h1m1 0h1m1 0h1m1 0h1m1 0h2m3 0h3m4 0h4m1 0h3m3 0h3m3 0h2m1 0h1m3 0h1m2 0h1m1 0h1m4 0h1m1 0h1m1 0h2m1 0h1m3 0h3m1 0h1m1 0h7m1 0h1m1 0h6m1 0h1m1 0h7m3 0h2m2 0h1m1 0h2m1 0h5m1 0h2m3 0h1m1 0h1m1 0h1m1 0h4m1 0h4m2 0h1m5 0h2m1 0h4m1 0h1m2 0h3m1 0h2M4 67.5h1m3 0h1m2 0h1m1 0h1m5 0h2m1 0h1m5 0h1m3 0h2m1 0h2m3 0h1m2 0h4m2 0h1m1 0h3m1 0h1m1 0h4m1 0h1m1 0h1m1 0h2m3 0h1m1 0h6m3 0h3m5 0h1m1 0h2m2 0h3m2 0h2m1 0h2m2 0h3m1 0h3m1 0h2m1 0h9m1 0h3m1 0h1m1 0h1m1 0h2m1 0h1m1 0h2m4 0h2m2 0h1m1 0h1m1 0h2m3 0h1m2 0h1m1 0h1m1 0h2m1 0h1m1 0h1M4 68.5h1m1 0h3m1 0h1m1 0h2m2 0h2m1 0h1m2 0h1m2 0h1m1 0h1m1 0h1m1 0h4m4 0h1m2 0h1m1 0h1m2 0h1m1 0h3m2 0h4m2 0h1m3 0h1m1 0h4m4 0h2m5 0h1m2 0h1m3 0h2m1 0h1m1 0h2m3 0h3m1 0h2m1 0h2m4 0h1m1 0h1m1 0h2m1 0h1m1 0h2m3 0h1m1 0h2m1 0h4m5 0h1m3 0h4m1 0h1m1 0h3m4 0h3m1 0h4m5 0h1m1 0h3m1 0h1M4 69.5h1m1 0h2m1 0h1m1 0h1m1 0h1m1 0h1m2 0h1m2 0h1m1 0h2m1 0h2m1 0h1m1 0h5m1 0h4m3 0h1m3 0h1m1 0h1m4 0h1m3 0h3m1 0h1m1 0h1m1 0h1m1 0h3m1 0h1m1 0h1m1 0h1m2 0h1m1 0h1m1 0h1m3 0h1m3 0h1m1 0h2m1 0h1m8 0h1m2 0h1m1 0h2m1 0h2m5 0h2m1 0h3m4 0h1m1 0h4m1 0h1m2 0h4m1 0h2m1 0h1m1 0h3m1 0h2m1 0h2m1 0h5m2 0h3m5 0h1M4 70.5h2m4 0h1m1 0h3m3 0h3m3 0h1m1 0h5m2 0h1m1 0h2m2 0h3m3 0h1m1 0h1m3 0h3m1 0h4m1 0h1m4 0h1m3 0h4m7 0h3m3 0h3m1 0h3m2 0h2m1 0h2m5 0h1m3 0h2m2 0h1m1 0h1m3 0h3m3 0h1m2 0h1m1 0h1m2 0h1m2 0h2m1 0h1m1 0h1m3 0h1m2 0h1m1 0h1m2 0h2m4 0h5m3 0h3m2 0h2m1 0h1M4 71.5h1m2 0h3m1 0h1m2 0h3m2 0h1m1 0h2m1 0h1m4 0h3m7 0h1m4 0h4m1 0h1m3 0h1m1 0h1m1 0h1m3 0h2m1 0h1m1 0h2m3 0h1m1 0h1m1 0h5m5 0h2m4 0h3m2 0h2m1 0h1m1 0h4m2 0h2m1 0h1m1 0h2m1 0h4m3 0h4m2 0h1m2 0h2m1 0h2m1 0h1m1 0h2m1 0h1m1 0h2m1 0h2m2 0h1m1 0h4m4 0h1m2 0h1m1 0h3m4 0h1M5 72.5h3m2 0h2m2 0h5m1 0h1m2 0h1m1 0h2m1 0h3m1 0h4m5 0h1m1 0h2m2 0h1m1 0h3m2 0h4m4 0h2m1 0h2m3 0h14m1 0h1m1 0h4m3 0h2m1 0h4m1 0h2m2 0h2m3 0h2m2 0h6m7 0h6m2 0h1m2 0h1m6 0h1m3 0h1m1 0h2m1 0h2m1 0h2m2 0h1m1 0h2m1 0h1m2 0h1m1 0h1m1 0h1m1 0h1M6 73.5h1m1 0h1m5 0h3m1 0h1m2 0h1m1 0h1m3 0h2m3 0h3m2 0h2m2 0h4m4 0h2m3 0h1m2 0h2m1 0h4m2 0h2m1 0h4m1 0h1m2 0h2m1 0h1m1 0h4m1 0h1m5 0h2m1 0h1m8 0h2m2 0h1m2 0h1m1 0h1m2 0h3m1 0h2m1 0h1m1 0h1m4 0h1m1 0h6m2 0h2m1 0h1m1 0h2m2 0h1m4 0h2m2 0h1m3 0h2m1 0h1m1 0h1m2 0h2m1 0h3M5 74.5h1m1 0h1m1 0h2m3 0h4m2 0h4m7 0h3m3 0h4m2 0h1m1 0h4m3 0h1m1 0h2m1 0h4m1 0h1m4 0h7m3 0h1m1 0h2m1 0h1m2 0h2m1 0h1m1 0h3m3 0h4m2 0h3m2 0h2m1 0h2m3 0h1m1 0h1m1 0h3m1 0h2m1 0h2m1 0h1m1 0h1m1 0h1m2 0h3m1 0h4m1 0h1m1 0h3m4 0h1m4 0h4m4 0h3m1 0h4M8 75.5h1m2 0h3m4 0h3m2 0h5m2 0h2m5 0h1m2 0h2m1 0h4m1 0h2m1 0h1m3 0h2m1 0h2m1 0h1m2 0h1m1 0h2m5 0h2m1 0h1m1 0h2m3 0h3m1 0h1m1 0h1m2 0h2m1 0h4m4 0h2m2 0h2m1 0h1m1 0h1m1 0h1m1 0h1m1 0h1m3 0h1m4 0h1m2 0h4m1 0h1m4 0h1m1 0h3m9 0h1m2 0h1m1 0h1m5 0h5m2 0h1M4 76.5h2m3 0h2m1 0h1m6 0h2m6 0h3m2 0h2m2 0h2m1 0h1m2 0h2m3 0h5m2 0h3m1 0h1m1 0h1m4 0h1m1 0h2m4 0h1m2 0h1m1 0h4m2 0h3m1 0h2m1 0h1m6 0h1m1 0h4m1 0h1m1 0h1m4 0h1m2 0h2m1 0h3m2 0h1m1 0h1m1 0h7m1 0h1m1 0h1m3 0h1m1 0h2m1 0h2m2 0h1m1 0h1m2 0h2m1 0h1m1 0h1m1 0h1m1 0h1m4 0h3m1 0h2m1 0h1M8 77.5h2m1 0h1m4 0h1m2 0h4m2 0h1m1 0h3m1 0h2m1 0h2m1 0h2m2 0h2m1 0h2m1 0h2m1 0h2m2 0h2m1 0h1m1 0h2m2 0h1m1 0h3m2 0h3m1 0h1m2 0h1m2 0h1m1 0h4m3 0h1m1 0h1m1 0h2m5 0h1m4 0h5m2 0h1m1 0h1m2 0h1m1 0h1m1 0h5m8 0h1m1 0h1m4 0h1m2 0h3m3 0h1m1 0h1m2 0h2m4 0h2m3 0h2m1 0h1m4 0h2M5 78.5h1m1 0h1m1 0h2m1 0h1m1 0h2m1 0h3m1 0h1m2 0h2m2 0h1m1 0h1m1 0h1m2 0h4m1 0h1m2 0h1m2 0h2m1 0h2m1 0h2m3 0h4m2 0h1m3 0h2m1 0h3m2 0h1m1 0h1m1 0h5m1 0h2m1 0h11m2 0h2m1 0h1m4 0h2m1 0h1m2 0h1m1 0h2m2 0h1m2 0h1m2 0h1m1 0h2m3 0h1m1 0h1m4 0h2m2 0h1m2 0h1m5 0h1m3 0h4m3 0h4m1 0h1m1 0h1m3 0h1M4 79.5h2m1 0h3m5 0h4m6 0h2m2 0h2m1 0h1m2 0h2m1 0h2m1 0h1m1 0h1m2 0h3m3 0h1m2 0h1m3 0h1m1 0h2m1 0h1m1 0h2m3 0h1m2 0h1m1 0h1m1 0h2m2 0h2m2 0h1m2 0h4m3 0h1m1 0h1m2 0h4m3 0h1m2 0h4m1 0h5m1 0h2m1 0h1m1 0h2m3 0h3m2 0h4m1 0h1m1 0h2m2 0h2m1 0h2m1 0h3m3 0h2m2 0h1m1 0h4m1 0h3m1 0h2M4 80.5h1m1 0h2m1 0h7m1 0h1m1 0h3m1 0h1m4 0h1m2 0h1m1 0h1m1 0h1m8 0h1m4 0h6m1 0h1m1 0h1m6 0h3m1 0h1m1 0h1m4 0h4m5 0h2m1 0h1m2 0h1m1 0h1m5 0h2m1 0h2m3 0h1m1 0h4m2 0h2m1 0h1m1 0h1m2 0h1m3 0h2m1 0h1m1 0h1m12 0h2m3 0h1m1 0h2m3 0h1m1 0h3m1 0h1m5 0h3m2 0h3M6 81.5h4m1 0h2m1 0h1m3 0h3m4 0h1m2 0h1m1 0h1m2 0h3m1 0h1m1 0h1m1 0h2m1 0h1m2 0h5m2 0h2m1 0h1m1 0h3m2 0h1m2 0h2m1 0h2m3 0h1m4 0h1m1 0h4m1 0h1m5 0h3m9 0h2m2 0h1m1 0h2m1 0h1m2 0h1m1 0h1m2 0h1m1 0h1m1 0h2m6 0h3m1 0h3m3 0h1m1 0h1m4 0h2m1 0h1m1 0h1m2 0h1m1 0h7m2 0h2m2 0h1m1 0h1M4 82.5h1m3 0h3m1 0h1m7 0h1m2 0h2m2 0h2m3 0h1m1 0h2m1 0h1m5 0h1m1 0h1m1 0h1m4 0h2m4 0h1m1 0h2m3 0h1m2 0h1m1 0h3m4 0h1m1 0h1m1 0h2m2 0h6m4 0h1m2 0h2m2 0h3m3 0h3m3 0h1m2 0h1m1 0h1m1 0h2m3 0h1m3 0h1m3 0h4m2 0h1m1 0h1m3 0h3m1 0h1m2 0h1m1 0h1m4 0h2m3 0h1m4 0h5M4 83.5h1m4 0h1m3 0h1m2 0h1m2 0h2m3 0h1m2 0h1m2 0h1m1 0h5m1 0h1m2 0h1m4 0h2m1 0h1m2 0h1m6 0h1m1 0h5m5 0h1m2 0h3m8 0h1m3 0h1m2 0h2m1 0h4m2 0h4m3 0h1m1 0h3m3 0h1m1 0h2m3 0h1m4 0h1m2 0h1m2 0h3m1 0h5m5 0h1m3 0h4m1 0h1m2 0h2m2 0h1m1 0h1m1 0h1M8 84.5h5m1 0h2m1 0h1m1 0h1m2 0h2m3 0h6m2 0h5m3 0h1m1 0h1m2 0h4m2 0h7m2 0h2m2 0h1m4 0h1m2 0h3m5 0h6m1 0h1m3 0h2m1 0h1m2 0h1m2 0h1m1 0h1m4 0h9m1 0h1m3 0h2m1 0h2m1 0h4m1 0h1m1 0h1m2 0h5m1 0h2m1 0h2m1 0h1m2 0h2m1 0h1m3 0h3m2 0h6m1 0h2M5 85.5h2m1 0h1m3 0h3m1 0h1m4 0h1m1 0h4m1 0h1m3 0h2m1 0h1m3 0h1m1 0h2m1 0h3m1 0h1m1 0h1m2 0h1m2 0h1m3 0h2m4 0h3m4 0h1m1 0h1m4 0h1m1 0h3m3 0h1m4 0h5m2 0h2m2 0h1m1 0h3m3 0h1m3 0h1m2 0h1m1 0h5m1 0h1m6 0h1m1 0h1m2 0h2m3 0h2m3 0h5m2 0h1m1 0h1m3 0h4m2 0h1m3 0h5M6 86.5h3m1 0h1m1 0h2m2 0h1m4 0h1m1 0h1m4 0h1m1 0h1m1 0h1m1 0h1m1 0h3m3 0h2m5 0h2m1 0h1m1 0h3m1 0h1m1 0h1m2 0h2m2 0h4m1 0h2m1 0h1m3 0h2m1 0h1m1 0h1m1 0h1m1 0h1m1 0h2m2 0h3m1 0h1m1 0h1m1 0h4m4 0h3m1 0h1m1 0h2m2 0h1m1 0h1m1 0h2m1 0h3m1 0h1m2 0h1m1 0h1m3 0h1m1 0h1m1 0h1m3 0h2m1 0h1m2 0h1m2 0h1m2 0h4m2 0h3m1 0h1m1 0h2m1 0h1M5 87.5h1m1 0h2m3 0h1m1 0h4m3 0h1m2 0h3m1 0h1m3 0h2m1 0h2m1 0h1m1 0h1m2 0h1m1 0h2m3 0h1m4 0h2m3 0h5m1 0h2m5 0h2m1 0h1m1 0h2m3 0h2m3 0h2m1 0h2m3 0h1m1 0h1m3 0h3m1 0h4m1 0h2m3 0h1m1 0h1m2 0h1m9 0h1m1 0h1m6 0h1m3 0h2m2 0h2m1 0h4m2 0h1m1 0h3m3 0h4m3 0h2M4 88.5h3m1 0h6m1 0h3m1 0h1m1 0h2m3 0h1m1 0h7m1 0h1m2 0h1m2 0h1m4 0h3m2 0h9m1 0h1m3 0h1m3 0h5m9 0h5m5 0h2m1 0h1m2 0h2m3 0h2m2 0h1m2 0h7m1 0h1m7 0h3m1 0h1m2 0h1m3 0h6m1 0h2m2 0h1m1 0h3m3 0h1m3 0h3m3 0h9M4 89.5h1m3 0h2m1 0h1m6 0h1m1 0h4m2 0h3m1 0h3m1 0h5m1 0h5m2 0h3m2 0h1m2 0h1m1 0h1m3 0h3m1 0h1m3 0h2m1 0h1m1 0h1m2 0h1m1 0h4m1 0h1m3 0h2m1 0h4m2 0h1m1 0h1m3 0h1m2 0h1m1 0h1m2 0h1m3 0h2m2 0h1m1 0h2m1 0h1m1 0h2m3 0h1m1 0h2m1 0h1m1 0h1m2 0h2m1 0h2m1 0h1m1 0h2m1 0h2m1 0h2m1 0h1m2 0h6m1 0h1m1 0h2m2 0h3M8 90.5h1m1 0h1m4 0h4m9 0h3m3 0h1m1 0h2m4 0h1m3 0h1m3 0h4m1 0h1m4 0h1m6 0h2m1 0h3m4 0h1m1 0h2m1 0h1m1 0h2m1 0h2m1 0h1m1 0h1m3 0h1m1 0h2m1 0h2m1 0h1m4 0h2m3 0h1m2 0h1m1 0h1m3 0h2m1 0h1m1 0h2m2 0h1m1 0h5m2 0h4m2 0h2m5 0h2m2 0h3m1 0h2m1 0h4m5 0h2M4 91.5h3m2 0h1m2 0h1m3 0h3m1 0h1m1 0h4m1 0h3m1 0h2m2 0h2m1 0h4m1 0h1m2 0h2m4 0h1m3 0h6m1 0h2m1 0h2m1 0h3m1 0h2m1 0h3m4 0h2m3 0h6m2 0h1m2 0h7m2 0h2m6 0h1m1 0h1m1 0h1m3 0h1m1 0h4m1 0h1m1 0h4m2 0h5m1 0h1m1 0h3m1 0h1m2 0h1m5 0h2m2 0h1m1 0h1m2 0h1m2 0h2m2 0h1M4 92.5h1m2 0h2m1 0h5m2 0h2m3 0h1m1 0h1m1 0h2m1 0h2m1 0h1m1 0h1m1 0h1m1 0h1m1 0h1m1 0h1m1 0h1m3 0h1m1 0h3m1 0h2m8 0h1m2 0h1m1 0h1m1 0h1m3 0h5m2 0h2m1 0h1m1 0h2m1 0h2m2 0h1m5 0h1m1 0h2m2 0h2m2 0h2m2 0h8m1 0h1m3 0h4m1 0h1m4 0h1m1 0h2m1 0h1m3 0h1m3 0h4m1 0h3m1 0h2m2 0h1m1 0h1m1 0h1m5 0h2M5 93.5h1m1 0h1m3 0h4m1 0h2m1 0h3m1 0h1m1 0h1m1 0h6m2 0h2m3 0h2m1 0h2m2 0h3m3 0h1m1 0h3m2 0h1m2 0h2m3 0h3m1 0h2m4 0h1m1 0h3m1 0h1m1 0h10m1 0h1m1 0h3m1 0h4m2 0h1m3 0h1m2 0h1m1 0h1m2 0h4m1 0h2m5 0h6m2 0h1m1 0h1m1 0h2m2 0h1m1 0h3m1 0h2m1 0h1m4 0h2m1 0h2m1 0h1m1 0h1m1 0h4M4 94.5h3m1 0h1m1 0h1m1 0h1m3 0h1m1 0h1m1 0h3m2 0h3m3 0h2m1 0h1m1 0h2m1 0h1m6 0h1m4 0h4m3 0h4m1 0h1m3 0h2m1 0h3m4 0h1m1 0h1m2 0h1m1 0h2m6 0h2m1 0h4m1 0h1m1 0h1m4 0h4m3 0h1m2 0h2m1 0h1m1 0h1m1 0h4m1 0h3m3 0h2m1 0h1m3 0h1m1 0h1m1 0h3m2 0h1m6 0h4m1 0h1m1 0h3m1 0h5M5 95.5h1m5 0h1m1 0h2m1 0h2m1 0h3m1 0h1m4 0h3m1 0h1m2 0h1m2 0h2m1 0h1m2 0h4m4 0h1m4 0h2m1 0h3m1 0h4m5 0h2m1 0h1m1 0h1m1 0h2m1 0h5m1 0h2m1 0h1m1 0h2m1 0h1m1 0h2m2 0h2m3 0h2m2 0h2m1 0h1m5 0h2m4 0h1m1 0h4m4 0h1m1 0h2m8 0h1m1 0h2m1 0h2m1 0h1m1 0h2m2 0h2m1 0h1m3 0h3M4 96.5h4m2 0h1m3 0h2m1 0h3m2 0h1m2 0h7m6 0h2m2 0h1m4 0h5m1 0h7m1 0h2m1 0h2m2 0h1m1 0h4m1 0h6m2 0h1m1 0h2m6 0h3m3 0h2m4 0h2m4 0h1m6 0h1m2 0h1m3 0h1m1 0h4m1 0h2m1 0h1m4 0h1m1 0h2m1 0h3m1 0h1m7 0h2m3 0h1m1 0h1m7 0h1m1 0h3M4 97.5h1m1 0h1m1 0h1m2 0h2m2 0h1m6 0h2m2 0h3m1 0h1m3 0h1m6 0h2m3 0h4m3 0h3m5 0h1m5 0h1m2 0h3m3 0h2m2 0h3m1 0h2m2 0h2m1 0h1m1 0h3m4 0h1m5 0h1m1 0h2m1 0h1m1 0h1m1 0h2m2 0h1m1 0h2m1 0h3m2 0h1m3 0h2m1 0h1m1 0h3m3 0h1m1 0h1m6 0h1m1 0h4m3 0h1m1 0h1m4 0h3m1 0h4M4 98.5h1m2 0h4m3 0h2m1 0h3m1 0h2m1 0h1m1 0h3m3 0h3m3 0h1m1 0h1m1 0h1m2 0h2m5 0h1m4 0h1m2 0h1m4 0h1m1 0h4m1 0h2m5 0h2m1 0h1m2 0h1m4 0h1m1 0h2m1 0h1m3 0h1m2 0h3m4 0h2m1 0h2m1 0h1m5 0h1m2 0h2m2 0h3m3 0h1m1 0h1m1 0h1m2 0h1m2 0h1m3 0h3m3 0h1m5 0h4m1 0h5m5 0h1M4 99.5h1m2 0h1m9 0h3m1 0h2m1 0h1m1 0h2m4 0h3m3 0h2m1 0h1m3 0h2m4 0h2m3 0h1m1 0h1m1 0h2m2 0h1m1 0h2m2 0h2m2 0h3m1 0h2m4 0h3m1 0h2m2 0h1m1 0h2m3 0h1m1 0h6m1 0h1m3 0h2m1 0h3m1 0h2m3 0h1m2 0h1m1 0h1m1 0h1m3 0h1m1 0h3m2 0h2m4 0h2m3 0h5m2 0h1m2 0h1m2 0h1m2 0h1m2 0h2M6 100.5h2m1 0h4m1 0h4m6 0h5m1 0h2m1 0h3m6 0h1m4 0h2m1 0h8m3 0h1m5 0h1m1 0h1m3 0h3m1 0h1m3 0h5m1 0h1m1 0h1m5 0h1m4 0h1m4 0h3m1 0h1m2 0h2m1 0h7m1 0h1m3 0h6m4 0h1m3 0h2m1 0h3m1 0h1m1 0h2m4 0h7m1 0h1m2 0h1m1 0h1m2 0h5M5 101.5h1m3 0h1m1 0h3m1 0h6m1 0h4m5 0h1m2 0h1m4 0h1m1 0h6m1 0h1m1 0h1m1 0h1m2 0h2m1 0h1m1 0h3m2 0h1m1 0h3m1 0h2m1 0h1m4 0h4m5 0h2m1 0h2m1 0h1m2 0h1m1 0h2m2 0h2m1 0h1m2 0h1m1 0h1m4 0h1m2 0h1m1 0h2m1 0h4m3 0h1m2 0h3m1 0h3m4 0h1m3 0h2m1 0h1m1 0h1m1 0h1m1 0h2m4 0h1m4 0h8M5 102.5h1m2 0h3m1 0h1m2 0h2m1 0h1m2 0h3m5 0h2m1 0h1m4 0h1m2 0h1m4 0h1m3 0h1m1 0h4m4 0h1m1 0h1m2 0h1m2 0h4m1 0h2m5 0h7m1 0h4m1 0h2m1 0h4m1 0h3m1 0h1m3 0h3m1 0h3m7 0h1m3 0h1m2 0h1m6 0h3m2 0h5m1 0h2m8 0h2m1 0h2m3 0h3m1 0h3m2 0h2M5 103.5h1m2 0h1m2 0h1m2 0h1m1 0h2m4 0h1m1 0h2m4 0h2m7 0h3m1 0h1m2 0h1m4 0h2m5 0h1m1 0h5m1 0h2m1 0h1m4 0h1m1 0h1m1 0h2m1 0h1m1 0h1m1 0h8m3 0h6m1 0h4m1 0h3m1 0h1m1 0h3m1 0h6m3 0h1m1 0h2m4 0h1m3 0h1m2 0h2m1 0h1m3 0h1m4 0h2m1 0h1m2 0h1m2 0h1m2 0h1m2 0h4M5 104.5h1m1 0h1m2 0h3m1 0h1m1 0h3m1 0h4m2 0h2m1 0h7m2 0h2m1 0h1m6 0h1m2 0h1m2 0h3m4 0h2m2 0h1m2 0h1m4 0h1m1 0h6m1 0h2m2 0h2m5 0h3m1 0h1m1 0h2m2 0h1m2 0h2m1 0h6m1 0h6m3 0h1m1 0h2m1 0h1m1 0h2m1 0h1m1 0h1m1 0h4m2 0h3m1 0h1m3 0h1m3 0h3m1 0h2m1 0h1m2 0h1m1 0h1m1 0h2m1 0h3M5 105.5h1m1 0h1m4 0h1m1 0h4m3 0h2m1 0h2m1 0h1m1 0h1m1 0h2m1 0h1m1 0h2m3 0h1m2 0h1m1 0h4m1 0h1m1 0h2m1 0h1m1 0h3m1 0h2m6 0h1m1 0h5m1 0h2m1 0h2m1 0h1m2 0h3m1 0h1m1 0h2m1 0h2m1 0h3m4 0h2m1 0h1m1 0h3m1 0h1m5 0h2m1 0h1m1 0h1m2 0h1m1 0h1m1 0h2m1 0h1m1 0h1m5 0h1m2 0h1m2 0h2m1 0h1m1 0h2m4 0h4m4 0h2m1 0h1m2 0h2M4 106.5h2m2 0h1m1 0h4m1 0h1m1 0h3m3 0h1m1 0h5m1 0h1m2 0h1m1 0h2m2 0h1m5 0h2m1 0h4m1 0h1m1 0h1m3 0h2m6 0h1m1 0h1m1 0h2m3 0h2m1 0h1m1 0h1m2 0h1m2 0h1m1 0h1m1 0h1m2 0h4m3 0h1m4 0h2m1 0h1m3 0h1m2 0h1m2 0h1m1 0h1m1 0h3m2 0h1m1 0h1m2 0h1m1 0h3m4 0h2m1 0h1m1 0h2m4 0h1m5 0h1m1 0h2m1 0h4m1 0h1m3 0h2M5 107.5h4m2 0h2m2 0h1m2 0h1m1 0h1m2 0h1m1 0h3m1 0h2m5 0h2m1 0h1m6 0h3m9 0h1m1 0h1m1 0h1m1 0h1m1 0h2m6 0h3m4 0h1m1 0h1m2 0h2m1 0h3m1 0h1m2 0h2m1 0h1m4 0h5m1 0h1m1 0h1m1 0h2m1 0h4m2 0h2m2 0h2m2 0h2m1 0h1m4 0h5m3 0h2m3 0h1m1 0h4m3 0h1m1 0h1m2 0h1m4 0h3M4 108.5h2m2 0h3m1 0h3m2 0h2m1 0h3m4 0h2m1 0h2m1 0h4m4 0h5m1 0h5m2 0h2m6 0h1m2 0h1m1 0h1m1 0h1m1 0h1m3 0h1m1 0h3m1 0h5m2 0h1m1 0h1m1 0h1m2 0h1m3 0h5m1 0h2m2 0h1m1 0h3m2 0h5m2 0h1m1 0h1m2 0h1m1 0h3m4 0h1m4 0h1m2 0h3m2 0h1m1 0h2m4 0h2m1 0h1m7 0h1m1 0h2m1 0h1m1 0h1M4 109.5h1m1 0h1m4 0h2m1 0h1m2 0h2m1 0h2m2 0h1m2 0h3m2 0h5m5 0h6m5 0h1m5 0h1m3 0h1m4 0h1m1 0h1m1 0h2m1 0h2m3 0h3m2 0h1m1 0h3m1 0h4m2 0h1m2 0h1m5 0h1m1 0h2m1 0h2m2 0h2m5 0h1m1 0h1m2 0h1m6 0h3m1 0h1m5 0h1m1 0h1m3 0h1m1 0h2m1 0h2m1 0h2m4 0h2m1 0h1m1 0h2m4 0h2M4 110.5h1m1 0h3m1 0h1m2 0h1m2 0h1m4 0h1m5 0h1m2 0h2m1 0h1m1 0h1m2 0h6m3 0h1m1 0h2m1 0h5m1 0h2m3 0h1m1 0h1m2 0h4m1 0h1m3 0h1m1 0h6m5 0h1m1 0h3m1 0h1m2 0h1m2 0h3m4 0h2m2 0h3m1 0h3m1 0h9m2 0h1m1 0h1m2 0h1m3 0h1m2 0h2m2 0h2m3 0h2m2 0h1m2 0h2m1 0h1m2 0h2m3 0h1m2 0h1M6 111.5h4m1 0h1m1 0h3m4 0h1m1 0h6m6 0h1m1 0h3m2 0h1m1 0h4m6 0h1m4 0h4m2 0h1m1 0h2m2 0h1m2 0h2m1 0h1m1 0h1m2 0h1m1 0h2m1 0h1m2 0h5m2 0h2m2 0h5m3 0h1m1 0h1m1 0h5m1 0h3m2 0h1m2 0h2m2 0h6m3 0h1m2 0h2m3 0h2m3 0h1m1 0h1m2 0h1m7 0h2m1 0h2m1 0h2m2 0h2M4 112.5h2m2 0h9m2 0h2m2 0h1m4 0h6m4 0h3m1 0h1m1 0h2m1 0h4m1 0h1m1 0h12m3 0h1m1 0h1m2 0h4m5 0h6m5 0h1m2 0h4m4 0h2m5 0h5m1 0h1m2 0h1m6 0h5m6 0h6m5 0h2m1 0h1m2 0h4m1 0h5m2 0h5m1 0h1m1 0h1M8 113.5h1m3 0h3m2 0h1m1 0h1m1 0h1m2 0h1m2 0h2m3 0h1m2 0h4m1 0h1m2 0h2m1 0h3m1 0h1m1 0h1m3 0h1m3 0h1m6 0h1m2 0h1m2 0h1m5 0h4m1 0h1m3 0h2m2 0h4m1 0h1m2 0h1m2 0h4m5 0h1m3 0h1m2 0h1m1 0h7m3 0h1m2 0h1m1 0h1m1 0h3m3 0h2m3 0h1m2 0h1m1 0h2m1 0h3m2 0h7m3 0h1m2 0h2M6 114.5h3m1 0h1m1 0h1m3 0h1m2 0h1m2 0h1m1 0h1m1 0h1m1 0h1m1 0h1m1 0h3m1 0h2m1 0h1m1 0h3m1 0h2m2 0h1m1 0h1m1 0h4m1 0h1m1 0h2m3 0h1m1 0h4m1 0h1m6 0h4m1 0h1m1 0h1m1 0h1m1 0h2m3 0h1m1 0h3m1 0h2m1 0h3m1 0h1m2 0h2m1 0h1m1 0h1m1 0h1m3 0h1m3 0h1m1 0h1m4 0h1m2 0h1m3 0h1m1 0h1m1 0h3m1 0h2m3 0h3m2 0h1m1 0h2m3 0h2m1 0h1m1 0h1m1 0h4M7 115.5h2m3 0h1m1 0h4m1 0h2m1 0h3m2 0h2m3 0h1m1 0h4m3 0h1m1 0h1m2 0h2m7 0h2m3 0h5m1 0h1m2 0h3m1 0h7m1 0h4m3 0h1m1 0h1m1 0h1m3 0h1m5 0h3m1 0h1m1 0h3m1 0h1m3 0h1m1 0h7m2 0h5m3 0h3m2 0h1m3 0h2m6 0h4m1 0h1m1 0h2m2 0h2m1 0h1m1 0h1m3 0h1m3 0h1M5 116.5h1m2 0h5m1 0h1m6 0h6m1 0h6m1 0h1m3 0h2m1 0h1m1 0h2m2 0h4m1 0h9m1 0h6m2 0h2m1 0h2m3 0h2m3 0h5m2 0h1m2 0h1m3 0h1m1 0h2m3 0h1m1 0h1m2 0h1m1 0h9m2 0h1m1 0h1m2 0h1m1 0h1m1 0h2m6 0h5m1 0h3m1 0h1m4 0h1m2 0h3m1 0h2m3 0h6m1 0h1m1 0h1M4 117.5h1m2 0h2m5 0h1m2 0h6m1 0h1m3 0h2m2 0h1m1 0h1m2 0h1m2 0h1m2 0h2m3 0h2m4 0h3m6 0h1m1 0h1m4 0h1m2 0h1m1 0h3m1 0h1m1 0h1m1 0h1m2 0h2m3 0h1m1 0h2m4 0h1m1 0h1m1 0h2m1 0h2m4 0h1m3 0h2m3 0h6m2 0h1m1 0h1m2 0h1m1 0h4m2 0h1m2 0h2m3 0h7m1 0h1m2 0h4m4 0h1m3 0h4M6 118.5h1m3 0h1m2 0h3m1 0h5m2 0h1m5 0h2m2 0h7m1 0h1m2 0h2m2 0h1m1 0h5m1 0h3m9 0h2m1 0h1m2 0h1m1 0h1m3 0h2m1 0h3m1 0h1m1 0h1m1 0h1m4 0h6m4 0h7m1 0h3m3 0h5m1 0h1m1 0h1m1 0h2m1 0h4m3 0h1m1 0h2m2 0h2m2 0h1m1 0h1m3 0h1m1 0h5m1 0h1m2 0h1m1 0h2m3 0h1M5 119.5h1m3 0h1m1 0h4m3 0h2m1 0h1m2 0h2m1 0h1m3 0h1m2 0h6m6 0h2m1 0h1m1 0h1m1 0h1m1 0h1m2 0h1m2 0h2m1 0h3m2 0h1m3 0h6m6 0h1m2 0h1m1 0h1m1 0h1m1 0h1m1 0h3m4 0h2m2 0h2m1 0h1m3 0h1m5 0h1m2 0h2m3 0h2m1 0h1m3 0h1m1 0h1m1 0h1m2 0h4m1 0h1m3 0h1m1 0h3m1 0h1m1 0h3m1 0h1m1 0h3m2 0h1m2 0h1m1 0h1M4 120.5h2m1 0h1m2 0h1m2 0h3m3 0h3m2 0h1m2 0h1m5 0h1m3 0h3m1 0h4m2 0h2m1 0h2m1 0h1m1 0h5m5 0h3m1 0h1m1 0h1m1 0h6m1 0h2m1 0h1m1 0h4m1 0h2m1 0h3m3 0h5m2 0h1m2 0h7m1 0h2m1 0h2m1 0h1m4 0h1m1 0h1m1 0h1m6 0h2m2 0h1m2 0h1m3 0h1m1 0h1m2 0h2m1 0h2m1 0h2m5 0h1m3 0h1m1 0h3M5 121.5h2m2 0h1m1 0h1m1 0h3m1 0h1m2 0h4m1 0h1m1 0h1m2 0h4m1 0h1m1 0h4m2 0h2m2 0h1m1 0h1m3 0h1m2 0h1m2 0h1m4 0h1m1 0h1m5 0h4m2 0h3m1 0h5m4 0h1m1 0h2m1 0h2m2 0h1m3 0h1m1 0h1m7 0h1m1 0h1m1 0h2m2 0h6m1 0h1m3 0h4m1 0h1m3 0h2m1 0h1m3 0h2m1 0h2m1 0h2m1 0h1m2 0h2m2 0h1m1 0h1m3 0h4m1 0h1M4 122.5h1m1 0h1m1 0h3m4 0h3m3 0h4m3 0h1m1 0h2m1 0h1m3 0h1m3 0h1m1 0h1m1 0h3m1 0h1m2 0h1m1 0h1m2 0h2m1 0h2m5 0h2m1 0h1m1 0h1m7 0h1m1 0h3m3 0h1m1 0h3m2 0h5m2 0h1m1 0h1m3 0h6m1 0h3m4 0h1m2 0h3m1 0h1m1 0h1m2 0h2m2 0h2m4 0h3m1 0h4m2 0h2m1 0h4m5 0h2m1 0h2m3 0h2M4 123.5h1m1 0h4m1 0h1m1 0h2m3 0h1m1 0h2m1 0h2m1 0h1m1 0h3m1 0h1m5 0h1m4 0h1m1 0h3m1 0h1m9 0h1m1 0h4m1 0h1m4 0h1m1 0h2m1 0h1m1 0h2m3 0h1m4 0h3m1 0h3m1 0h1m1 0h2m1 0h1m1 0h2m2 0h5m1 0h2m2 0h5m1 0h3m5 0h1m1 0h1m2 0h1m2 0h3m1 0h3m1 0h1m1 0h1m2 0h3m1 0h1m4 0h1m1 0h1m1 0h2m1 0h4m3 0h1M5 124.5h2m1 0h1m1 0h5m2 0h1m3 0h2m1 0h2m1 0h1m1 0h1m2 0h1m1 0h2m2 0h1m3 0h3m4 0h3m2 0h2m2 0h3m1 0h2m1 0h4m1 0h2m1 0h1m2 0h2m1 0h1m1 0h1m2 0h1m3 0h1m4 0h1m1 0h1m4 0h1m1 0h2m1 0h2m3 0h6m2 0h1m1 0h1m2 0h1m4 0h3m1 0h2m1 0h1m3 0h2m1 0h1m3 0h3m1 0h1m4 0h2m1 0h1m1 0h2m2 0h2m2 0h2m1 0h2m1 0h1m1 0h1M5 125.5h1m5 0h2m1 0h1m1 0h1m4 0h2m1 0h2m1 0h2m2 0h1m2 0h1m1 0h1m1 0h1m4 0h1m1 0h1m1 0h1m1 0h1m3 0h5m4 0h2m1 0h2m1 0h1m1 0h1m3 0h1m2 0h1m1 0h1m2 0h4m5 0h1m2 0h4m1 0h2m4 0h2m4 0h2m2 0h2m2 0h1m1 0h2m1 0h3m2 0h1m4 0h1m1 0h1m1 0h2m2 0h2m1 0h1m6 0h1m2 0h5m2 0h5m5 0h1m1 0h3M4 126.5h1m4 0h2m1 0h3m2 0h1m1 0h4m1 0h4m1 0h1m2 0h2m2 0h1m1 0h1m2 0h1m5 0h1m4 0h1m1 0h2m8 0h1m2 0h2m1 0h4m1 0h1m3 0h4m1 0h7m1 0h1m2 0h1m1 0h3m2 0h4m1 0h7m1 0h2m2 0h2m4 0h1m3 0h1m2 0h5m1 0h2m1 0h1m1 0h1m2 0h1m1 0h2m1 0h1m1 0h3m3 0h3m3 0h3m4 0h1M4 127.5h4m1 0h1m4 0h1m1 0h2m3 0h2m1 0h1m3 0h2m1 0h2m5 0h3m4 0h1m3 0h1m1 0h3m3 0h1m1 0h5m2 0h2m3 0h1m2 0h1m1 0h1m1 0h1m3 0h2m1 0h1m2 0h1m1 0h4m2 0h1m1 0h1m4 0h3m2 0h2m1 0h1m1 0h2m2 0h2m1 0h2m1 0h1m1 0h1m4 0h4m1 0h3m1 0h1m1 0h5m2 0h1m2 0h2m1 0h3m3 0h1m2 0h7m1 0h1m4 0h1M6 128.5h5m1 0h1m1 0h2m2 0h4m4 0h1m4 0h2m1 0h1m3 0h1m1 0h1m1 0h1m3 0h1m3 0h1m2 0h4m1 0h1m1 0h2m6 0h1m3 0h1m1 0h4m3 0h4m1 0h1m4 0h1m1 0h2m2 0h7m2 0h2m4 0h3m1 0h4m5 0h1m2 0h3m1 0h2m1 0h1m3 0h2m1 0h1m2 0h6m1 0h1m4 0h3m2 0h1m2 0h1m2 0h3m1 0h3m1 0h1M4 129.5h2m1 0h3m3 0h1m4 0h2m3 0h1m1 0h1m1 0h1m1 0h2m4 0h1m3 0h1m1 0h2m2 0h4m7 0h2m1 0h1m1 0h3m1 0h1m2 0h1m1 0h2m1 0h3m1 0h1m2 0h3m2 0h2m2 0h1m1 0h1m1 0h2m2 0h1m7 0h2m4 0h1m1 0h1m1 0h1m3 0h1m3 0h2m1 0h2m1 0h1m3 0h2m1 0h4m2 0h2m1 0h1m1 0h1m1 0h4m3 0h1m5 0h1m1 0h2m1 0h1m3 0h2m1 0h3M4 130.5h5m1 0h2m1 0h3m2 0h1m2 0h1m2 0h3m3 0h3m2 0h5m1 0h1m1 0h1m2 0h1m3 0h6m1 0h1m1 0h3m6 0h5m2 0h1m3 0h2m1 0h1m5 0h5m3 0h4m2 0h2m3 0h1m2 0h1m2 0h1m2 0h2m1 0h1m1 0h2m3 0h6m2 0h3m6 0h4m1 0h1m2 0h1m3 0h1m3 0h3m7 0h3m1 0h2M4 131.5h2m1 0h3m1 0h4m4 0h1m1 0h3m1 0h1m1 0h2m1 0h1m1 0h1m2 0h3m3 0h1m3 0h3m1 0h1m6 0h1m1 0h2m2 0h1m1 0h2m4 0h2m1 0h1m2 0h4m3 0h1m4 0h2m2 0h3m6 0h2m1 0h1m1 0h1m1 0h2m1 0h1m1 0h3m3 0h2m2 0h1m1 0h1m4 0h1m1 0h2m1 0h1m3 0h2m1 0h3m2 0h1m1 0h1m1 0h1m2 0h1m5 0h1m2 0h1m1 0h4m6 0h1M5 132.5h7m3 0h2m3 0h4m1 0h5m1 0h1m1 0h4m1 0h2m2 0h2m3 0h4m1 0h1m1 0h1m1 0h1m1 0h2m1 0h1m1 0h3m1 0h2m2 0h2m3 0h2m1 0h1m2 0h1m1 0h3m3 0h2m1 0h3m3 0h2m1 0h1m3 0h1m4 0h3m1 0h1m2 0h1m1 0h2m1 0h1m3 0h6m2 0h1m1 0h1m2 0h2m3 0h2m1 0h1m1 0h1m1 0h1m2 0h5m2 0h4m2 0h1m3 0h1m1 0h1m1 0h1M4 133.5h2m2 0h2m1 0h6m2 0h2m6 0h1m2 0h2m2 0h1m1 0h3m1 0h2m1 0h3m2 0h3m2 0h2m1 0h2m1 0h1m2 0h1m5 0h1m1 0h1m1 0h1m2 0h1m7 0h4m4 0h1m2 0h1m4 0h2m2 0h1m2 0h2m1 0h1m1 0h3m8 0h5m6 0h4m1 0h2m1 0h3m1 0h1m4 0h3m3 0h1m1 0h2m1 0h1m1 0h5m1 0h1m3 0h1m1 0h2M6 134.5h3m1 0h1m1 0h2m5 0h1m1 0h1m1 0h1m4 0h4m3 0h1m2 0h1m1 0h2m3 0h3m2 0h3m2 0h1m1 0h1m3 0h1m3 0h1m2 0h3m1 0h1m4 0h1m1 0h2m1 0h4m1 0h2m1 0h1m1 0h1m2 0h5m1 0h3m6 0h3m3 0h1m2 0h1m1 0h1m3 0h1m2 0h2m2 0h5m1 0h2m3 0h1m1 0h1m1 0h5m1 0h1m1 0h1m4 0h1m2 0h1m1 0h1m3 0h7M4 135.5h2m5 0h1m1 0h4m1 0h2m1 0h1m2 0h2m1 0h2m3 0h1m1 0h5m1 0h2m1 0h1m2 0h1m1 0h1m3 0h1m2 0h1m2 0h3m1 0h3m1 0h2m5 0h4m1 0h2m1 0h1m1 0h1m1 0h1m2 0h1m1 0h1m1 0h1m5 0h1m2 0h1m2 0h1m3 0h1m1 0h1m3 0h1m2 0h3m1 0h1m1 0h1m2 0h3m1 0h1m2 0h1m3 0h5m2 0h1m3 0h2m2 0h6m1 0h1m1 0h1m4 0h3m1 0h2m1 0h1M5 136.5h2m1 0h1m1 0h1m1 0h4m1 0h4m2 0h1m1 0h1m5 0h1m2 0h2m1 0h3m2 0h1m1 0h1m2 0h4m3 0h1m1 0h3m1 0h1m1 0h1m2 0h2m3 0h2m1 0h1m4 0h2m3 0h1m1 0h3m1 0h1m1 0h1m2 0h2m1 0h1m1 0h2m1 0h1m2 0h1m1 0h1m1 0h2m1 0h4m2 0h1m1 0h2m3 0h1m3 0h2m1 0h1m4 0h1m1 0h4m2 0h3m1 0h1m1 0h3m4 0h1m2 0h2m4 0h3m2 0h1m1 0h2M4 137.5h6m1 0h4m1 0h2m1 0h3m4 0h2m1 0h1m1 0h2m2 0h1m4 0h1m2 0h2m1 0h1m1 0h1m9 0h1m2 0h1m1 0h1m1 0h1m1 0h1m1 0h1m1 0h1m2 0h2m1 0h1m4 0h1m1 0h2m3 0h1m4 0h1m10 0h2m1 0h2m1 0h3m1 0h2m4 0h2m1 0h1m1 0h1m2 0h1m3 0h2m1 0h1m1 0h2m1 0h2m1 0h1m2 0h1m2 0h4m1 0h4m3 0h1m2 0h2m4 0h1m1 0h1m1 0h1M5 138.5h4m1 0h1m2 0h3m1 0h2m2 0h3m2 0h2m1 0h1m2 0h2m2 0h1m1 0h1m1 0h2m1 0h1m1 0h1m6 0h1m1 0h1m4 0h1m4 0h1m5 0h4m3 0h1m2 0h1m1 0h3m1 0h1m1 0h3m2 0h1m1 0h5m2 0h3m1 0h3m1 0h1m1 0h1m2 0h3m1 0h1m1 0h2m3 0h1m7 0h1m1 0h1m6 0h1m4 0h2m1 0h1m2 0h1m3 0h1m1 0h2m3 0h2m2 0h1m1 0h1M4 139.5h2m1 0h2m2 0h1m1 0h2m1 0h1m2 0h4m1 0h1m1 0h1m1 0h1m2 0h1m1 0h1m1 0h1m1 0h4m2 0h1m1 0h3m3 0h1m1 0h1m3 0h2m2 0h6m2 0h1m3 0h7m5 0h1m1 0h2m3 0h1m1 0h3m1 0h1m4 0h3m2 0h2m4 0h2m1 0h1m1 0h1m1 0h2m1 0h3m1 0h4m2 0h2m3 0h2m3 0h1m2 0h2m4 0h3m10 0h3m4 0h1M6 140.5h7m1 0h1m1 0h2m1 0h3m1 0h3m1 0h6m3 0h1m5 0h3m2 0h1m4 0h1m1 0h9m2 0h3m8 0h1m1 0h1m3 0h1m1 0h5m1 0h2m1 0h3m1 0h1m2 0h4m8 0h7m1 0h2m1 0h1m1 0h1m1 0h2m1 0h1m1 0h1m4 0h1m1 0h6m1 0h1m2 0h2m3 0h2m1 0h2m1 0h1m1 0h1m2 0h1m2 0h5m1 0h1m1 0h1M6 141.5h3m3 0h3m1 0h2m2 0h2m1 0h2m1 0h3m3 0h1m6 0h2m3 0h5m3 0h1m2 0h2m3 0h4m1 0h1m3 0h2m1 0h1m2 0h3m1 0h1m1 0h4m3 0h1m3 0h1m1 0h2m1 0h1m2 0h1m4 0h2m1 0h2m2 0h1m3 0h1m2 0h1m1 0h2m1 0h1m1 0h1m7 0h4m2 0h1m3 0h1m7 0h1m1 0h3m7 0h5m3 0h3m1 0h1M4 142.5h1m1 0h1m1 0h1m1 0h1m1 0h3m3 0h4m2 0h1m3 0h1m1 0h1m1 0h7m2 0h1m1 0h1m1 0h2m2 0h1m1 0h3m2 0h1m1 0h1m1 0h1m4 0h1m2 0h5m3 0h2m1 0h4m1 0h1m1 0h1m1 0h3m4 0h1m2 0h1m2 0h4m3 0h5m1 0h1m1 0h1m2 0h3m1 0h4m1 0h2m1 0h1m2 0h3m1 0h1m1 0h1m1 0h1m1 0h2m2 0h2m1 0h1m3 0h1m4 0h1m1 0h2m2 0h1m1 0h1m1 0h1m1 0h1m1 0h2M4 143.5h2m2 0h1m3 0h2m2 0h4m2 0h4m2 0h1m3 0h1m1 0h1m11 0h1m1 0h2m1 0h2m3 0h1m3 0h2m2 0h1m2 0h1m6 0h3m1 0h2m1 0h1m2 0h1m3 0h7m1 0h1m1 0h1m5 0h2m2 0h2m2 0h1m3 0h1m2 0h1m2 0h1m3 0h3m1 0h2m2 0h2m2 0h3m3 0h1m2 0h2m4 0h3m1 0h1m1 0h2m3 0h3m1 0h1m3 0h2M4 144.5h3m1 0h5m3 0h4m1 0h2m1 0h1m3 0h7m1 0h1m1 0h1m3 0h1m4 0h5m1 0h1m1 0h6m2 0h3m4 0h3m1 0h5m2 0h1m2 0h6m1 0h1m1 0h3m4 0h4m3 0h1m1 0h10m1 0h2m3 0h1m3 0h2m1 0h1m4 0h1m1 0h6m1 0h1m2 0h2m4 0h2m1 0h1m2 0h5m1 0h10M5 145.5h1m1 0h3m3 0h4m4 0h3m2 0h1m3 0h1m5 0h3m1 0h1m1 0h3m3 0h8m1 0h4m2 0h3m1 0h1m5 0h3m4 0h1m2 0h6m2 0h4m4 0h2m3 0h1m1 0h4m1 0h1m1 0h1m3 0h1m1 0h1m1 0h2m1 0h1m1 0h1m2 0h2m2 0h2m1 0h1m1 0h3m1 0h2m6 0h1m1 0h1m2 0h5m1 0h1m1 0h4m2 0h1m1 0h3m2 0h1M6 146.5h2m1 0h6m2 0h1m2 0h3m1 0h1m1 0h1m2 0h1m3 0h5m1 0h2m5 0h2m3 0h3m1 0h2m4 0h1m6 0h1m1 0h3m1 0h1m2 0h1m1 0h1m1 0h2m3 0h1m2 0h2m2 0h1m1 0h2m1 0h1m1 0h1m1 0h3m3 0h1m1 0h3m9 0h3m1 0h2m1 0h1m2 0h3m2 0h2m3 0h2m1 0h7m1 0h2m2 0h2m1 0h2m1 0h1m1 0h2m1 0h1m3 0h1M5 147.5h2m1 0h2m2 0h5m4 0h2m1 0h1m1 0h2m1 0h3m1 0h1m2 0h1m1 0h3m5 0h2m1 0h1m1 0h3m1 0h1m3 0h1m1 0h2m1 0h1m1 0h2m1 0h1m3 0h1m2 0h1m7 0h2m2 0h3m1 0h1m1 0h1m2 0h1m3 0h1m2 0h3m1 0h1m1 0h1m4 0h7m1 0h3m2 0h3m5 0h2m2 0h1m3 0h2m2 0h1m4 0h2m2 0h1m5 0h1m2 0h3m1 0h2M4 148.5h2m4 0h1m1 0h2m1 0h4m3 0h2m3 0h2m1 0h2m1 0h2m4 0h1m2 0h1m4 0h1m1 0h4m1 0h1m2 0h2m4 0h6m5 0h3m2 0h1m3 0h1m1 0h1m2 0h1m2 0h1m1 0h4m1 0h4m1 0h1m2 0h1m7 0h2m1 0h2m1 0h2m5 0h2m1 0h1m1 0h2m5 0h3m1 0h5m1 0h3m1 0h1m1 0h8m5 0h3m3 0h2M4 149.5h3m1 0h2m2 0h6m3 0h2m2 0h2m1 0h3m2 0h1m2 0h1m1 0h1m1 0h2m1 0h3m2 0h1m1 0h1m3 0h3m1 0h3m2 0h2m1 0h2m1 0h2m1 0h2m1 0h1m1 0h1m3 0h2m1 0h1m1 0h2m1 0h1m2 0h1m1 0h1m1 0h2m6 0h1m1 0h1m1 0h2m3 0h2m6 0h2m1 0h4m1 0h1m4 0h3m1 0h1m4 0h1m1 0h1m2 0h1m4 0h2m1 0h1m1 0h1m2 0h5m3 0h2m1 0h5M4 150.5h2m2 0h3m1 0h1m6 0h6m4 0h2m3 0h2m2 0h1m4 0h1m2 0h2m2 0h1m1 0h1m6 0h1m1 0h1m5 0h2m1 0h3m2 0h3m1 0h2m1 0h2m1 0h1m1 0h1m2 0h10m2 0h3m2 0h2m1 0h3m1 0h1m3 0h2m7 0h3m2 0h2m3 0h2m2 0h2m3 0h4m4 0h1m2 0h1m2 0h1m2 0h1m2 0h1m2 0h1m2 0h2M4 151.5h1m1 0h4m1 0h3m2 0h3m2 0h3m3 0h3m1 0h11m1 0h1m1 0h3m9 0h4m1 0h1m1 0h1m1 0h2m6 0h1m1 0h1m1 0h2m3 0h2m2 0h2m1 0h1m1 0h2m2 0h3m3 0h3m3 0h1m6 0h2m1 0h2m4 0h3m1 0h3m2 0h1m2 0h1m1 0h1m4 0h2m2 0h2m4 0h3m4 0h2m1 0h5m2 0h1M4 152.5h1m5 0h1m1 0h2m2 0h2m1 0h3m6 0h2m1 0h1m3 0h1m1 0h1m1 0h1m2 0h2m3 0h1m1 0h3m2 0h1m2 0h2m1 0h1m1 0h10m3 0h2m1 0h6m1 0h1m2 0h1m1 0h1m3 0h2m4 0h1m1 0h1m2 0h2m2 0h1m1 0h2m1 0h2m2 0h1m1 0h2m3 0h1m2 0h6m5 0h2m3 0h1m1 0h2m1 0h4m1 0h3m1 0h1m3 0h4m3 0h1m3 0h2M4 153.5h1m2 0h1m3 0h1m2 0h2m1 0h3m2 0h2m1 0h1m4 0h2m3 0h2m2 0h2m3 0h1m1 0h3m2 0h1m2 0h2m2 0h1m1 0h2m3 0h1m2 0h3m2 0h1m2 0h1m4 0h1m1 0h1m2 0h1m2 0h1m1 0h1m2 0h1m1 0h2m2 0h2m1 0h1m1 0h3m1 0h1m1 0h2m1 0h4m4 0h1m1 0h3m7 0h1m1 0h5m1 0h1m3 0h2m1 0h6m1 0h1m1 0h1m2 0h3m1 0h1m1 0h1m4 0h5M4 154.5h1m3 0h1m1 0h1m2 0h2m1 0h2m2 0h1m1 0h2m3 0h1m3 0h9m2 0h2m1 0h2m2 0h1m2 0h1m1 0h3m10 0h6m6 0h1m2 0h1m2 0h1m4 0h1m6 0h2m2 0h2m1 0h1m2 0h6m3 0h1m2 0h1m4 0h5m5 0h1m2 0h1m2 0h1m1 0h2m4 0h1m2 0h1m1 0h1m3 0h1m2 0h2m3 0h2m2 0h1m2 0h2m1 0h1M4 155.5h2m3 0h1m1 0h1m1 0h1m1 0h6m1 0h1m1 0h1m1 0h1m2 0h2m1 0h1m4 0h2m4 0h1m1 0h3m4 0h1m3 0h1m1 0h5m1 0h4m1 0h1m3 0h2m1 0h3m2 0h1m1 0h1m4 0h2m2 0h2m1 0h3m4 0h4m2 0h1m6 0h4m1 0h2m1 0h3m2 0h7m1 0h1m3 0h2m2 0h2m1 0h1m1 0h1m1 0h4m1 0h2m1 0h2m2 0h1m2 0h2m2 0h1M4 156.5h1m5 0h2m2 0h5m3 0h3m1 0h3m2 0h1m1 0h1m1 0h2m1 0h2m1 0h2m1 0h2m1 0h1m1 0h3m1 0h2m1 0h1m1 0h1m4 0h1m1 0h4m2 0h1m4 0h7m5 0h2m1 0h1m1 0h1m3 0h2m1 0h1m11 0h4m1 0h5m5 0h2m1 0h1m1 0h1m2 0h1m3 0h1m1 0h1m1 0h6m1 0h2m3 0h2m1 0h1m3 0h1m1 0h1m3 0h2m1 0h4M5 157.5h2m2 0h1m4 0h1m1 0h1m1 0h1m1 0h1m5 0h4m2 0h1m1 0h1m6 0h2m1 0h3m1 0h2m1 0h1m1 0h4m1 0h3m4 0h1m1 0h1m3 0h4m4 0h1m1 0h4m4 0h1m1 0h4m2 0h1m1 0h2m2 0h1m2 0h2m1 0h1m1 0h6m2 0h1m1 0h2m1 0h1m1 0h2m1 0h1m3 0h4m1 0h4m4 0h1m2 0h12m3 0h1m1 0h1m2 0h5m2 0h1M4 158.5h1m3 0h4m2 0h1m2 0h4m2 0h1m2 0h3m1 0h1m3 0h1m1 0h5m1 0h1m2 0h3m1 0h1m2 0h1m1 0h1m1 0h2m3 0h1m1 0h1m3 0h2m1 0h3m2 0h1m3 0h1m2 0h1m2 0h7m3 0h4m1 0h3m1 0h1m3 0h4m7 0h1m1 0h2m3 0h4m4 0h3m4 0h3m2 0h3m2 0h1m1 0h1m3 0h1m1 0h5m1 0h1m1 0h2m3 0h3M4 159.5h2m3 0h1m4 0h3m1 0h1m1 0h1m1 0h1m2 0h6m3 0h1m3 0h1m2 0h1m1 0h2m1 0h1m2 0h1m1 0h3m3 0h1m1 0h1m1 0h4m1 0h2m5 0h2m1 0h3m6 0h1m2 0h5m1 0h1m1 0h1m1 0h1m3 0h7m1 0h1m1 0h1m2 0h4m1 0h1m2 0h2m1 0h2m2 0h2m1 0h4m2 0h2m6 0h1m6 0h1m5 0h2m2 0h1m1 0h2m1 0h3m3 0h2M10 160.5h1m5 0h2m1 0h1m1 0h1m2 0h1m2 0h2m2 0h1m2 0h2m2 0h1m1 0h2m1 0h1m1 0h1m1 0h1m1 0h2m1 0h1m1 0h1m1 0h3m1 0h1m1 0h5m2 0h1m2 0h1m1 0h1m1 0h2m1 0h1m2 0h4m1 0h2m5 0h1m2 0h5m3 0h1m3 0h1m3 0h3m2 0h1m1 0h2m3 0h1m1 0h4m1 0h1m6 0h3m2 0h1m1 0h2m1 0h3m1 0h1m1 0h2m3 0h5m5 0h1m2 0h2m1 0h1M4 161.5h2m1 0h1m1 0h1m1 0h4m3 0h3m1 0h2m1 0h1m1 0h1m2 0h1m1 0h1m2 0h1m2 0h1m4 0h2m3 0h1m1 0h3m1 0h5m1 0h1m3 0h1m2 0h4m2 0h1m1 0h1m2 0h1m1 0h4m1 0h2m1 0h2m1 0h1m2 0h2m4 0h1m2 0h1m1 0h3m3 0h3m7 0h5m1 0h1m1 0h1m1 0h1m2 0h1m1 0h1m1 0h3m5 0h3m1 0h3m2 0h2m1 0h1m2 0h1m1 0h2m3 0h1m3 0h1m3 0h1M5 162.5h2m1 0h1m1 0h2m2 0h3m2 0h1m1 0h2m6 0h5m1 0h1m1 0h1m1 0h1m2 0h1m2 0h3m3 0h3m1 0h2m4 0h1m3 0h1m1 0h6m6 0h1m2 0h1m4 0h1m1 0h2m4 0h4m3 0h1m1 0h1m3 0h2m1 0h1m1 0h2m5 0h2m6 0h2m2 0h1m2 0h2m1 0h1m1 0h1m1 0h2m1 0h1m1 0h3m1 0h1m2 0h2m1 0h1m1 0h2m5 0h4m2 0h1m1 0h2M5 163.5h4m2 0h5m4 0h3m2 0h1m1 0h2m1 0h4m1 0h1m2 0h1m2 0h1m3 0h2m1 0h2m3 0h1m3 0h1m4 0h1m1 0h2m3 0h3m1 0h1m1 0h4m2 0h2m1 0h2m1 0h6m2 0h3m3 0h4m1 0h5m1 0h2m1 0h7m2 0h1m1 0h1m3 0h1m1 0h2m3 0h4m3 0h1m2 0h3m2 0h3m2 0h1m2 0h2m1 0h1m2 0h1m1 0h1m1 0h3m2 0h2M4 164.5h1m1 0h3m1 0h3m2 0h1m5 0h1m1 0h1m2 0h6m1 0h1m2 0h2m2 0h1m1 0h3m2 0h2m1 0h3m1 0h1m3 0h1m1 0h1m4 0h1m1 0h1m1 0h1m1 0h1m1 0h2m7 0h3m2 0h1m3 0h1m2 0h1m5 0h1m1 0h1m2 0h2m7 0h2m2 0h1m2 0h1m2 0h1m2 0h2m1 0h1m1 0h2m5 0h1m1 0h1m1 0h4m3 0h4m1 0h2m1 0h2m1 0h2m1 0h1m9 0h1M8 165.5h2m2 0h2m5 0h3m1 0h2m1 0h5m5 0h2m1 0h1m1 0h2m1 0h1m1 0h1m1 0h1m1 0h1m2 0h1m1 0h1m1 0h2m1 0h1m3 0h1m3 0h2m5 0h2m3 0h2m1 0h5m1 0h1m2 0h1m1 0h2m3 0h5m2 0h1m2 0h1m1 0h5m3 0h1m1 0h4m1 0h1m2 0h1m1 0h1m2 0h1m1 0h1m1 0h2m2 0h1m2 0h1m1 0h1m2 0h3m1 0h1m1 0h1m5 0h1m2 0h1m2 0h7m1 0h1M4 166.5h1m1 0h1m1 0h1m1 0h1m4 0h1m5 0h1m3 0h2m1 0h1m1 0h4m1 0h3m4 0h2m1 0h3m3 0h2m2 0h2m4 0h1m2 0h2m1 0h1m2 0h1m1 0h2m5 0h1m2 0h1m1 0h2m3 0h3m3 0h2m2 0h2m4 0h1m2 0h6m1 0h2m1 0h1m2 0h12m1 0h1m1 0h3m2 0h2m2 0h4m2 0h1m1 0h2m2 0h2m1 0h1m4 0h2m2 0h1m2 0h1m1 0h2M7 167.5h2m2 0h1m5 0h3m4 0h1m3 0h3m1 0h2m1 0h1m4 0h3m3 0h1m1 0h2m2 0h2m1 0h1m1 0h2m2 0h6m1 0h1m2 0h1m1 0h4m1 0h1m4 0h1m4 0h1m1 0h3m3 0h2m1 0h1m1 0h4m1 0h1m1 0h1m1 0h1m1 0h1m2 0h4m1 0h2m1 0h1m3 0h1m1 0h2m2 0h5m5 0h1m1 0h1m1 0h2m2 0h1m2 0h1m2 0h1m1 0h1m1 0h1m3 0h3m2 0h1m1 0h1M6 168.5h1m1 0h4m1 0h1m2 0h1m4 0h2m4 0h6m1 0h1m2 0h1m1 0h2m2 0h3m4 0h1m3 0h8m2 0h6m2 0h3m1 0h1m2 0h1m2 0h1m1 0h7m2 0h1m4 0h1m1 0h1m2 0h1m1 0h2m4 0h6m1 0h2m3 0h1m1 0h1m2 0h1m1 0h3m4 0h1m1 0h6m1 0h1m1 0h1m1 0h2m3 0h1m1 0h2m1 0h3m1 0h2m2 0h7M12 169.5h1m1 0h2m1 0h1m1 0h1m4 0h2m2 0h1m3 0h1m1 0h1m2 0h4m3 0h2m1 0h1m2 0h1m3 0h1m1 0h1m3 0h1m2 0h1m2 0h1m1 0h4m1 0h1m1 0h4m1 0h1m2 0h2m3 0h1m5 0h4m1 0h3m1 0h1m2 0h2m3 0h2m3 0h1m2 0h1m1 0h2m1 0h2m7 0h2m1 0h1m1 0h3m3 0h2m3 0h2m1 0h2m2 0h1m1 0h3m2 0h2m1 0h3m3 0h1m2 0h2M4 170.5h7m1 0h3m3 0h7m1 0h3m1 0h1m1 0h1m5 0h1m1 0h1m1 0h1m6 0h1m1 0h2m1 0h1m1 0h1m1 0h1m1 0h2m5 0h4m1 0h1m6 0h2m1 0h3m1 0h1m1 0h3m6 0h3m2 0h3m2 0h1m2 0h3m1 0h1m1 0h2m3 0h1m2 0h2m3 0h1m1 0h10m1 0h1m1 0h1m1 0h3m2 0h1m7 0h2m1 0h2m1 0h2m1 0h1m1 0h1m1 0h1m1 0h1M4 171.5h1m5 0h1m2 0h2m1 0h1m1 0h2m2 0h2m4 0h1m3 0h1m1 0h1m2 0h1m1 0h2m3 0h4m3 0h2m2 0h2m3 0h1m2 0h2m1 0h2m3 0h1m1 0h7m4 0h1m3 0h1m2 0h2m1 0h1m1 0h1m4 0h2m3 0h1m1 0h1m1 0h1m1 0h1m3 0h5m1 0h2m1 0h3m1 0h1m1 0h2m1 0h1m2 0h4m3 0h2m1 0h3m1 0h2m1 0h1m2 0h1m1 0h2m4 0h4m3 0h1M4 172.5h1m1 0h3m1 0h1m1 0h2m5 0h4m4 0h6m1 0h3m1 0h1m1 0h3m1 0h2m3 0h1m1 0h1m1 0h2m1 0h5m1 0h1m1 0h1m8 0h1m2 0h2m1 0h2m1 0h1m1 0h6m1 0h1m2 0h1m2 0h2m1 0h2m3 0h3m1 0h1m2 0h7m1 0h1m6 0h2m1 0h1m1 0h1m7 0h5m1 0h3m2 0h2m5 0h3m1 0h1m2 0h1m1 0h8M4 173.5h1m1 0h3m1 0h1m1 0h1m2 0h6m2 0h3m2 0h4m1 0h3m2 0h1m4 0h2m2 0h2m4 0h1m2 0h3m1 0h1m9 0h3m2 0h1m4 0h4m1 0h1m1 0h3m1 0h1m1 0h2m5 0h2m1 0h1m2 0h4m1 0h5m6 0h1m1 0h1m1 0h2m3 0h1m1 0h2m1 0h1m1 0h1m1 0h1m3 0h4m1 0h1m1 0h3m1 0h5m2 0h1m1 0h1m3 0h1m5 0h2M4 174.5h1m1 0h3m1 0h1m1 0h4m2 0h2m1 0h5m1 0h1m2 0h1m3 0h3m1 0h3m1 0h2m2 0h2m3 0h6m1 0h3m2 0h1m1 0h1m1 0h2m1 0h3m6 0h2m1 0h1m1 0h3m2 0h2m1 0h1m4 0h3m1 0h3m6 0h1m1 0h3m2 0h1m3 0h1m1 0h2m1 0h2m1 0h1m1 0h1m1 0h1m2 0h4m2 0h1m5 0h2m3 0h2m4 0h5m1 0h2m4 0h3m1 0h1M4 175.5h1m5 0h1m1 0h2m2 0h2m1 0h1m1 0h1m1 0h1m3 0h2m1 0h2m6 0h3m2 0h1m1 0h2m1 0h2m2 0h1m6 0h1m1 0h2m1 0h1m2 0h1m3 0h1m2 0h1m1 0h4m1 0h1m2 0h4m3 0h3m2 0h1m4 0h6m1 0h1m2 0h1m1 0h1m3 0h2m2 0h2m5 0h1m1 0h3m1 0h2m3 0h1m1 0h2m1 0h2m6 0h3m4 0h2m2 0h1m2 0h1m1 0h2m1 0h2m2 0h1M4 176.5h7m1 0h8m1 0h1m1 0h3m3 0h3m1 0h1m1 0h2m1 0h2m2 0h1m4 0h5m2 0h2m1 0h1m4 0h2m2 0h2m7 0h3m2 0h1m2 0h1m1 0h1m2 0h2m4 0h2m1 0h1m2 0h1m1 0h2m2 0h2m1 0h2m1 0h2m2 0h1m1 0h1m1 0h1m6 0h1m1 0h4m4 0h1m2 0h1m4 0h2m1 0h1m1 0h1m1 0h1m2 0h4m1 0h3m1 0h2m1 0h4m3 0h1"/></svg>
