<?xml version="1.0" encoding="utf-8"?><!DOCTYPE svg PUBLIC "-//W3C//DTD SVG 1.1//EN" "http://www.w3.org/Graphics/SVG/1.1/DTD/svg11.dtd"><svg xmlns="http://www.w3.org/2000/svg" viewBox="0 0 185 185" shape-rendering="crispEdges"><path fill="#ffffff" d="M0 0h185v185H0z"/><path stroke="#000000" d="M4 4.5h7m3 0h1m1 0h3m6 0h3m1 0h3m4 0h1m4 0h1m1 0h2m1 0h2m2 0h2m3 0h2m1 0h5m1 0h1m4 0h1m1 0h2m1 0h4m2 0h3m1 0h2m1 0h1m1 0h1m1 0h2m1 0h2m1 0h1m1 0h1m1 0h1m2 0h3m2 0h1m5 0h2m2 0h6m1 0h1m2 0h1m1 0h1m2 0h1m1 0h4m7 0h2m3 0h3m1 0h3m1 0h2m1 0h2m1 0h1m1 0h1m1 0h1m3 0h7M4 5.5h1m5 0h1m1 0h2m1 0h3m2 0h3m1 0h1m1 0h1m3 0h1m1 0h3m2 0h1m1 0h1m3 0h1m1 0h1m1 0h1m3 0h2m1 0h1m2 0h3m2 0h4m2 0h3m2 0h1m1 0h1m1 0h1m1 0h2m1 0h2m6 0h1m4 0h1m2 0h1m3 0h1m4 0h4m3 0h2m1 0h2m1 0h3m6 0h1m2 0h1m1 0h1m1 0h4m1 0h1m1 0h1m2 0h1m3 0h1m8 0h3m1 0h1m6 0h1m1 0h1m1 0h1m5 0h1M4 6.5h1m1 0h3m1 0h1m2 0h2m2 0h1m2 0h2m1 0h1m1 0h1m1 0h2m1 0h1m2 0h3m2 0h3m2 0h1m2 0h1m2 0h1m8 0h1m2 0h1m1 0h2m1 0h2m1 0h1m1 0h1m2 0h1m1 0h1m2 0h1m3 0h1m1 0h4m2 0h3m2 0h1m1 0h1m3 0h6m1 0h3m2 0h5m5 0h2m1 0h3m1 0h3m6 0h1m1 0h1m2 0h1m5 0h2m1 0h2m1 0h1m2 0h1m3 0h4m1 0h2m3 0h1m1 0h3m1 0h1M4 7.5h1m1 0h3m1 0h1m1 0h1m1 0h1m1 0h1m1 0h13m1 0h1m1 0h1m1 0h1m3 0h4m3 0h2m1 0h5m1 0h1m2 0h2m2 0h1m7 0h1m1 0h1m1 0h2m8 0h3m2 0h3m2 0h1m2 0h4m3 0h3m1 0h1m2 0h3m3 0h1m2 0h1m6 0h3m1 0h2m3 0h1m1 0h2m1 0h5m1 0h1m1 0h1m1 0h1m2 0h1m2 0h2m1 0h2m1 0h1m3 0h1m2 0h2m1 0h1m1 0h3m1 0h1M4 8.5h1m1 0h3m1 0h1m5 0h1m1 0h4m2 0h1m1 0h1m1 0h9m1 0h2m2 0h1m1 0h2m2 0h3m3 0h1m2 0h2m1 0h6m2 0h2m1 0h2m2 0h1m2 0h1m1 0h1m1 0h4m1 0h6m1 0h1m2 0h1m1 0h3m1 0h1m2 0h1m1 0h1m3 0h1m2 0h13m6 0h3m2 0h1m1 0h1m2 0h5m1 0h5m1 0h1m1 0h1m2 0h1m2 0h1m3 0h2m4 0h1m1 0h3m1 0h1M4 9.5h1m5 0h1m1 0h1m1 0h1m1 0h2m1 0h1m1 0h1m1 0h3m4 0h3m3 0h1m3 0h1m4 0h2m2 0h1m1 0h3m4 0h3m3 0h1m2 0h2m1 0h1m1 0h1m2 0h1m3 0h2m1 0h4m1 0h2m3 0h1m2 0h4m1 0h1m1 0h1m1 0h2m1 0h5m1 0h2m1 0h1m3 0h1m4 0h2m1 0h1m1 0h1m1 0h2m1 0h4m3 0h1m1 0h1m3 0h2m1 0h1m1 0h2m5 0h2m1 0h1m2 0h1m2 0h2m1 0h1m1 0h1m5 0h1M4 10.5h7m1 0h1m1 0h1m1 0h1m1 0h1m1 0h1m1 0h1m1 0h1m1 0h1m1 0h1m1 0h1m1 0h1m1 0h1m1 0h1m1 0h1m1 0h1m1 0h1m1 0h1m1 0h1m1 0h1m1 0h1m1 0h1m1 0h1m1 0h1m1 0h1m1 0h1m1 0h1m1 0h1m1 0h1m1 0h1m1 0h1m1 0h1m1 0h1m1 0h1m1 0h1m1 0h1m1 0h1m1 0h1m1 0h1m1 0h1m1 0h1m1 0h1m1 0h1m1 0h1m1 0h1m1 0h1m1 0h1m1 0h1m1 0h1m1 0h1m1 0h1m1 0h1m1 0h1m1 0h1m1 0h1m1 0h1m1 0h1m1 0h1m1 0h1m1 0h1m1 0h1m1 0h1m1 0h1m1 0h1m1 0h1m1 0h1m1 0h1m1 0h1m1 0h1m1 0h1m1 0h1m1 0h1m1 0h1m1 0h1m1 0h1m1 0h1m1 0h1m1 0h1m1 0h1m1 0h1m1 0h1m1 0h1m1 0h7M13 11.5h5m1 0h1m2 0h1m1 0h2m1 0h2m1 0h1m1 0h1m3 0h1m1 0h1m1 0h1m4 0h2m1 0h1m2 0h1m1 0h1m3 0h2m1 0h1m3 0h1m1 0h1m2 0h1m1 0h1m1 0h2m1 0h1m1 0h1m4 0h1m2 0h1m1 0h1m3 0h1m3 0h2m1 0h1m1 0h4m3 0h1m1 0h2m1 0h1m2 0h1m3 0h1m3 0h1m2 0h1m1 0h1m1 0h2m3 0h3m1 0h3m1 0h1m3 0h2m4 0h2m7 0h2m1 0h1m5 0h1M4 12.5h5m1 0h7m2 0h2m3 0h1m2 0h1m1 0h2m1 0h5m2 0h1m2 0h2m2 0h1m2 0h2m1 0h1m1 0h3m3 0h7m1 0h1m5 0h1m1 0h5m1 0h3m1 0h10m4 0h1m2 0h1m2 0h1m5 0h3m1 0h6m1 0h2m2 0h7m1 0h1m1 0h1m2 0h1m1 0h1m1 0h7m4 0h1m3 0h1m2 0h2m3 0h1m2 0h1m1 0h2m1 0h1m1 0h1m1 0h1M4 13.5h1m2 0h1m3 0h1m3 0h2m1 0h4m1 0h1m2 0h2m1 0h2m2 0h10m1 0h1m3 0h3m2 0h1m1 0h3m2 0h1m1 0h1m1 0h1m2 0h6m2 0h1m3 0h1m1 0h4m3 0h2m1 0h2m1 0h4m1 0h2m2 0h1m1 0h2m1 0h2m1 0h2m2 0h2m2 0h8m6 0h2m1 0h1m1 0h1m2 0h1m1 0h3m3 0h1m1 0h2m1 0h1m1 0h3m2 0h1m1 0h3m1 0h5m4 0h2m2 0h1M6 14.5h1m1 0h1m1 0h1m2 0h1m2 0h3m1 0h1m1 0h4m3 0h4m4 0h2m1 0h1m1 0h2m2 0h2m4 0h4m6 0h1m1 0h2m2 0h1m1 0h1m1 0h1m2 0h1m3 0h2m1 0h1m1 0h1m3 0h1m1 0h1m6 0h6m4 0h2m1 0h1m1 0h1m1 0h2m2 0h1m2 0h2m1 0h2m1 0h1m1 0h1m1 0h1m1 0h5m1 0h1m1 0h1m2 0h1m1 0h1m2 0h2m7 0h1m1 0h2m1 0h1m3 0h1m2 0h2m2 0h2m2 0h2M4 15.5h1m2 0h3m1 0h1m1 0h1m1 0h1m1 0h4m1 0h4m2 0h1m2 0h4m2 0h2m2 0h2m2 0h2m1 0h1m2 0h2m5 0h5m2 0h3m1 0h1m1 0h1m2 0h1m1 0h1m1 0h1m4 0h1m2 0h1m2 0h1m3 0h5m3 0h1m1 0h3m4 0h2m3 0h1m3 0h1m1 0h1m1 0h1m1 0h6m6 0h1m2 0h4m2 0h1m2 0h1m2 0h1m1 0h1m2 0h1m1 0h2m5 0h1m1 0h1m3 0h3m2 0h3M4 16.5h3m1 0h1m1 0h3m1 0h1m1 0h1m1 0h4m1 0h1m1 0h1m2 0h3m2 0h1m4 0h1m1 0h1m6 0h2m1 0h1m2 0h2m6 0h1m1 0h1m2 0h1m2 0h1m3 0h2m2 0h1m2 0h1m3 0h1m5 0h1m1 0h1m1 0h1m3 0h1m1 0h2m3 0h3m1 0h1m2 0h6m3 0h1m2 0h1m2 0h2m1 0h1m2 0h1m1 0h1m1 0h1m1 0h2m1 0h1m1 0h1m2 0h2m1 0h4m4 0h2m1 0h5m1 0h2m1 0h3m6 0h2M6 17.5h2m3 0h3m2 0h1m1 0h4m1 0h5m1 0h1m1 0h2m4 0h1m1 0h1m1 0h1m1 0h4m1 0h2m3 0h6m2 0h2m1 0h2m1 0h1m2 0h1m5 0h1m1 0h1m4 0h2m3 0h4m1 0h2m9 0h1m1 0h1m1 0h1m2 0h2m3 0h1m1 0h7m1 0h2m3 0h1m1 0h4m1 0h2m3 0h3m1 0h2m2 0h3m2 0h1m1 0h1m2 0h4m1 0h1m1 0h1m1 0h4m4 0h1m1 0h1M5 18.5h2m2 0h2m1 0h1m1 0h1m4 0h1m1 0h3m1 0h1m1 0h3m1 0h3m1 0h1m2 0h1m1 0h2m4 0h2m1 0h2m1 0h2m1 0h1m1 0h4m2 0h2m3 0h6m5 0h7m3 0h1m3 0h1m1 0h4m1 0h1m1 0h1m2 0h1m1 0h2m1 0h1m3 0h2m2 0h1m1 0h3m1 0h4m1 0h1m4 0h1m1 0h1m2 0h1m1 0h1m2 0h1m1 0h2m1 0h1m5 0h1m2 0h4m1 0h1m1 0h2m2 0h3m2 0h1m3 0h2M4 19.5h3m4 0h1m1 0h1m3 0h1m1 0h1m2 0h2m3 0h3m2 0h2m2 0h2m1 0h2m3 0h1m1 0h1m4 0h1m1 0h1m3 0h2m1 0h1m1 0h1m1 0h1m1 0h2m1 0h1m1 0h1m1 0h2m1 0h4m5 0h3m3 0h1m1 0h1m1 0h3m6 0h3m1 0h3m3 0h1m2 0h1m1 0h1m2 0h2m3 0h2m1 0h3m1 0h1m3 0h3m1 0h1m3 0h2m5 0h2m2 0h1m3 0h1m3 0h2m5 0h1m2 0h6M5 20.5h1m1 0h2m1 0h1m1 0h1m3 0h2m1 0h1m3 0h6m2 0h1m1 0h1m2 0h8m4 0h3m1 0h3m2 0h1m1 0h1m1 0h1m3 0h1m3 0h2m1 0h1m1 0h3m2 0h1m2 0h1m1 0h3m3 0h1m1 0h1m1 0h1m2 0h5m3 0h1m1 0h1m1 0h1m2 0h2m2 0h1m4 0h1m3 0h1m1 0h6m2 0h1m1 0h1m1 0h2m1 0h1m1 0h10m2 0h1m1 0h1m1 0h2m2 0h4m1 0h3m1 0h1m1 0h1M4 21.5h1m1 0h1m2 0h1m2 0h3m1 0h2m2 0h1m3 0h1m1 0h1m1 0h1m2 0h3m1 0h2m2 0h2m2 0h2m3 0h2m3 0h1m1 0h2m1 0h2m1 0h2m1 0h2m1 0h1m1 0h5m4 0h1m2 0h3m1 0h1m2 0h10m3 0h1m4 0h1m1 0h2m5 0h2m1 0h5m1 0h3m7 0h3m1 0h1m2 0h1m1 0h2m3 0h2m1 0h3m2 0h2m3 0h1m1 0h2m1 0h1m1 0h1m1 0h1m6 0h1m1 0h2M10 22.5h1m2 0h2m1 0h3m4 0h2m2 0h7m3 0h1m2 0h2m8 0h1m1 0h2m1 0h1m1 0h1m1 0h2m2 0h2m2 0h2m1 0h3m7 0h1m1 0h1m1 0h2m2 0h1m1 0h2m6 0h2m1 0h3m3 0h5m2 0h2m1 0h2m3 0h5m1 0h2m1 0h2m1 0h5m1 0h3m1 0h1m2 0h2m2 0h1m2 0h1m2 0h2m1 0h2m1 0h1m3 0h1m1 0h1m3 0h2m2 0h2M4 23.5h1m2 0h2m2 0h2m1 0h1m2 0h1m3 0h3m1 0h1m1 0h1m1 0h1m1 0h1m3 0h1m3 0h3m1 0h2m1 0h1m1 0h1m2 0h2m5 0h1m1 0h1m5 0h1m9 0h1m1 0h2m1 0h1m3 0h4m4 0h1m2 0h2m1 0h1m1 0h1m1 0h2m3 0h1m2 0h1m1 0h1m2 0h1m2 0h1m3 0h3m7 0h1m1 0h2m3 0h3m2 0h1m3 0h1m2 0h4m4 0h1m2 0h1m1 0h3m1 0h1m2 0h2m1 0h2m1 0h1m1 0h1M5 24.5h3m1 0h2m2 0h3m1 0h2m1 0h1m2 0h1m1 0h1m1 0h2m1 0h2m1 0h2m1 0h1m1 0h1m1 0h1m1 0h1m4 0h2m1 0h1m3 0h1m4 0h1m1 0h1m3 0h1m1 0h2m1 0h1m2 0h3m2 0h2m1 0h1m1 0h1m2 0h1m3 0h1m3 0h1m4 0h3m1 0h1m1 0h1m6 0h1m2 0h1m1 0h1m1 0h1m3 0h1m3 0h2m1 0h1m1 0h1m2 0h1m1 0h1m1 0h2m1 0h1m4 0h2m1 0h2m1 0h1m1 0h5m2 0h1m2 0h3m2 0h1m4 0h1m3 0h2M6 25.5h2m1 0h1m1 0h3m1 0h2m2 0h5m1 0h2m2 0h1m2 0h1m3 0h1m2 0h4m2 0h1m1 0h1m1 0h1m1 0h1m1 0h2m1 0h2m2 0h5m5 0h3m7 0h1m1 0h2m1 0h1m2 0h2m1 0h5m1 0h1m2 0h1m2 0h1m1 0h4m3 0h2m2 0h1m1 0h5m1 0h3m4 0h1m1 0h4m1 0h2m1 0h1m1 0h1m1 0h1m1 0h2m2 0h1m1 0h1m2 0h2m1 0h1m1 0h5m2 0h1m2 0h3m1 0h1m2 0h1m1 0h1M5 26.5h1m3 0h2m3 0h3m2 0h3m2 0h1m1 0h2m4 0h2m2 0h1m2 0h1m2 0h1m2 0h1m1 0h1m4 0h4m2 0h3m1 0h1m4 0h2m1 0h1m1 0h1m7 0h5m4 0h1m5 0h1m1 0h3m1 0h4m2 0h1m1 0h3m2 0h1m2 0h4m1 0h2m5 0h1m1 0h8m5 0h4m2 0h1m4 0h1m3 0h2m2 0h1m1 0h2m2 0h2m1 0h4m1 0h2M4 27.5h1m3 0h2m1 0h1m1 0h1m1 0h4m2 0h1m1 0h3m3 0h1m2 0h5m1 0h1m1 0h2m1 0h1m2 0h2m1 0h1m1 0h3m3 0h2m1 0h2m1 0h1m2 0h2m3 0h1m1 0h2m1 0h3m6 0h3m1 0h1m1 0h1m2 0h1m1 0h3m5 0h3m1 0h1m1 0h2m1 0h1m3 0h2m6 0h3m3 0h2m2 0h1m2 0h3m1 0h2m1 0h1m1 0h1m3 0h1m1 0h2m1 0h2m3 0h1m4 0h1m1 0h2m1 0h2m1 0h1m1 0h1m1 0h2M5 28.5h1m1 0h7m1 0h1m1 0h1m1 0h4m3 0h2m4 0h3m1 0h3m2 0h2m1 0h2m1 0h1m1 0h2m1 0h3m2 0h1m7 0h2m2 0h3m1 0h2m1 0h3m2 0h2m1 0h4m2 0h1m1 0h2m3 0h1m1 0h2m1 0h1m2 0h2m2 0h1m2 0h1m1 0h1m3 0h1m2 0h1m1 0h1m1 0h1m2 0h1m1 0h1m1 0h1m2 0h1m1 0h1m1 0h2m1 0h1m1 0h2m2 0h4m3 0h4m1 0h4m1 0h1m1 0h1m1 0h5m1 0h1m1 0h1m1 0h2M4 29.5h2m2 0h2m1 0h2m2 0h1m2 0h1m1 0h3m5 0h1m1 0h1m1 0h1m1 0h1m1 0h1m1 0h1m1 0h3m1 0h2m1 0h5m4 0h1m1 0h7m5 0h4m2 0h1m2 0h2m1 0h1m3 0h4m2 0h3m1 0h2m6 0h4m4 0h1m3 0h4m1 0h4m1 0h1m4 0h1m1 0h4m1 0h1m4 0h3m1 0h3m1 0h2m3 0h1m1 0h1m4 0h6m2 0h1m3 0h1m1 0h1m2 0h1M4 30.5h1m1 0h1m3 0h3m2 0h1m1 0h1m1 0h2m2 0h1m1 0h2m2 0h2m1 0h3m14 0h2m1 0h4m2 0h3m4 0h1m2 0h1m1 0h1m1 0h1m2 0h3m1 0h4m1 0h2m1 0h3m6 0h3m1 0h1m1 0h1m1 0h3m4 0h1m1 0h3m1 0h2m1 0h2m2 0h4m2 0h4m1 0h2m1 0h2m2 0h1m1 0h4m3 0h1m1 0h2m5 0h4m2 0h1m2 0h3m2 0h1m1 0h3M4 31.5h1m2 0h1m3 0h3m1 0h3m2 0h1m3 0h4m2 0h1m1 0h1m1 0h2m1 0h1m1 0h3m3 0h3m1 0h1m1 0h3m1 0h1m1 0h2m1 0h2m1 0h2m2 0h1m5 0h6m3 0h1m3 0h1m1 0h2m1 0h1m1 0h1m2 0h1m1 0h1m2 0h1m2 0h1m2 0h2m1 0h2m2 0h3m2 0h1m7 0h5m2 0h1m1 0h2m2 0h2m6 0h2m1 0h4m1 0h2m1 0h1m5 0h3m1 0h1m2 0h1m1 0h6M4 32.5h1m2 0h7m1 0h1m1 0h1m1 0h2m2 0h1m2 0h1m2 0h1m2 0h5m2 0h2m1 0h2m3 0h1m2 0h3m1 0h2m2 0h1m1 0h5m6 0h1m1 0h4m1 0h1m4 0h1m1 0h1m2 0h5m1 0h1m4 0h2m1 0h2m1 0h3m1 0h1m2 0h3m1 0h6m1 0h1m1 0h1m1 0h4m1 0h1m2 0h3m1 0h2m1 0h1m1 0h8m1 0h1m1 0h1m1 0h4m1 0h2m4 0h9m2 0h1M8 33.5h1m3 0h1m1 0h1m2 0h1m1 0h4m4 0h6m3 0h2m2 0h6m1 0h3m1 0h1m1 0h1m2 0h2m2 0h1m3 0h3m1 0h1m1 0h1m4 0h1m3 0h4m1 0h1m2 0h2m3 0h4m4 0h2m2 0h1m1 0h3m2 0h1m4 0h1m3 0h1m1 0h1m1 0h1m1 0h2m1 0h1m1 0h1m1 0h4m1 0h1m4 0h2m3 0h1m2 0h2m1 0h1m1 0h1m1 0h1m2 0h1m2 0h2m2 0h1m3 0h1m3 0h1m3 0h1M4 34.5h1m3 0h1m1 0h1m1 0h2m1 0h2m1 0h1m1 0h3m1 0h7m1 0h1m1 0h1m1 0h1m3 0h2m4 0h2m1 0h2m1 0h2m1 0h1m2 0h3m1 0h1m1 0h1m3 0h1m1 0h4m5 0h2m1 0h1m1 0h2m2 0h1m1 0h1m1 0h1m2 0h2m1 0h2m1 0h5m4 0h7m1 0h1m1 0h3m1 0h2m1 0h1m2 0h3m1 0h1m1 0h4m4 0h1m1 0h1m1 0h1m1 0h2m1 0h1m3 0h2m1 0h2m4 0h2m3 0h2m1 0h1m1 0h1m1 0h1M4 35.5h1m2 0h2m3 0h1m1 0h5m2 0h1m3 0h1m1 0h2m3 0h1m3 0h3m4 0h1m2 0h2m5 0h1m2 0h5m3 0h1m1 0h2m3 0h1m1 0h2m1 0h3m4 0h1m2 0h1m1 0h1m3 0h1m3 0h3m3 0h3m3 0h1m1 0h1m5 0h1m3 0h2m2 0h1m4 0h4m1 0h2m1 0h1m2 0h1m3 0h1m3 0h2m3 0h3m5 0h1m4 0h4m1 0h2m3 0h1m1 0h2M6 36.5h9m1 0h1m1 0h1m1 0h2m1 0h1m2 0h2m1 0h1m2 0h7m1 0h6m1 0h5m2 0h2m4 0h5m2 0h3m2 0h2m3 0h3m2 0h1m3 0h7m5 0h3m2 0h1m1 0h2m5 0h1m1 0h1m1 0h6m1 0h1m1 0h1m1 0h4m1 0h1m7 0h1m1 0h8m1 0h4m1 0h4m2 0h4m4 0h1m1 0h5m2 0h1M5 37.5h1m3 0h1m2 0h3m1 0h1m1 0h4m3 0h3m1 0h1m1 0h1m1 0h1m1 0h1m1 0h3m3 0h2m1 0h1m1 0h1m1 0h1m3 0h4m1 0h3m1 0h1m2 0h2m3 0h1m2 0h4m2 0h2m1 0h1m1 0h2m3 0h1m1 0h1m1 0h2m1 0h1m2 0h1m2 0h1m2 0h1m4 0h2m2 0h4m1 0h1m1 0h1m1 0h1m1 0h2m1 0h1m3 0h2m1 0h1m1 0h2m4 0h5m1 0h1m1 0h2m2 0h1m1 0h2m1 0h2m1 0h1m3 0h1m1 0h2m3 0h1m4 0h1M5 38.5h1m1 0h2m1 0h2m1 0h1m1 0h2m2 0h1m4 0h1m3 0h2m1 0h1m3 0h3m5 0h1m1 0h3m4 0h4m1 0h3m1 0h2m1 0h1m2 0h2m1 0h1m2 0h1m1 0h1m4 0h1m1 0h1m1 0h2m2 0h6m1 0h2m1 0h3m1 0h1m1 0h1m3 0h3m1 0h3m1 0h3m3 0h1m1 0h3m2 0h1m3 0h1m2 0h1m4 0h2m2 0h1m3 0h3m2 0h1m2 0h2m1 0h2m4 0h1m2 0h2m2 0h1m1 0h1m1 0h3M5 39.5h3m1 0h1m2 0h4m6 0h3m1 0h1m1 0h1m3 0h2m1 0h1m1 0h2m1 0h2m1 0h1m2 0h2m1 0h1m1 0h2m2 0h1m2 0h1m1 0h1m1 0h6m3 0h1m1 0h2m1 0h4m3 0h1m1 0h5m1 0h1m1 0h1m1 0h2m1 0h1m2 0h11m2 0h1m3 0h6m2 0h1m2 0h3m2 0h2m2 0h1m1 0h1m1 0h1m1 0h4m4 0h4m3 0h3m1 0h1m2 0h2m1 0h1m1 0h1m2 0h3m1 0h3M6 40.5h2m2 0h1m5 0h3m3 0h2m1 0h2m1 0h2m1 0h1m1 0h3m3 0h1m1 0h4m2 0h1m1 0h3m1 0h2m1 0h2m1 0h1m3 0h2m5 0h1m2 0h4m3 0h3m1 0h1m1 0h1m7 0h2m3 0h2m4 0h1m3 0h1m1 0h2m1 0h1m1 0h1m2 0h1m7 0h7m3 0h1m1 0h2m1 0h3m4 0h2m1 0h3m4 0h2m1 0h1m2 0h1m1 0h4m2 0h1m1 0h2m2 0h1M4 41.5h1m4 0h1m1 0h1m2 0h1m3 0h1m5 0h2m1 0h1m1 0h2m4 0h2m5 0h1m1 0h1m2 0h2m7 0h2m1 0h2m2 0h11m1 0h3m1 0h6m5 0h5m1 0h1m2 0h2m5 0h2m1 0h1m1 0h2m2 0h3m1 0h4m1 0h1m1 0h1m2 0h2m2 0h2m1 0h1m1 0h2m1 0h1m1 0h1m2 0h7m1 0h1m1 0h2m1 0h1m1 0h1m1 0h3m2 0h1m2 0h2m2 0h1m1 0h4M7 42.5h1m2 0h1m5 0h1m1 0h1m1 0h3m3 0h2m1 0h2m1 0h1m5 0h3m2 0h1m2 0h1m2 0h2m1 0h3m4 0h1m2 0h4m1 0h2m1 0h1m1 0h1m6 0h2m1 0h1m2 0h1m2 0h1m3 0h1m3 0h5m1 0h3m2 0h5m2 0h4m3 0h1m5 0h2m1 0h2m2 0h1m1 0h2m6 0h2m3 0h1m1 0h1m1 0h1m1 0h1m4 0h1m2 0h1m5 0h1m2 0h2m3 0h2M7 43.5h2m2 0h4m1 0h2m2 0h1m2 0h1m1 0h4m1 0h1m1 0h1m3 0h1m2 0h3m1 0h1m2 0h1m5 0h1m2 0h2m1 0h1m1 0h2m2 0h1m1 0h2m1 0h1m3 0h2m1 0h1m1 0h2m3 0h1m1 0h7m1 0h5m4 0h1m1 0h1m1 0h1m1 0h1m2 0h1m2 0h5m1 0h2m3 0h2m4 0h1m1 0h1m3 0h1m1 0h1m1 0h1m2 0h1m1 0h3m4 0h2m1 0h1m2 0h2m2 0h1m1 0h2m1 0h1m5 0h6M4 44.5h5m1 0h2m1 0h2m3 0h1m1 0h2m4 0h1m4 0h2m1 0h2m1 0h1m1 0h1m1 0h1m2 0h1m2 0h1m1 0h6m4 0h1m2 0h1m2 0h2m4 0h1m2 0h1m3 0h1m5 0h2m5 0h1m2 0h2m3 0h3m1 0h1m1 0h2m5 0h1m1 0h1m4 0h1m3 0h1m3 0h1m2 0h3m2 0h1m1 0h1m1 0h2m1 0h1m5 0h6m1 0h2m1 0h3m1 0h1m2 0h3m1 0h5m1 0h3m1 0h2M4 45.5h1m1 0h1m1 0h1m2 0h1m1 0h1m5 0h1m1 0h1m1 0h1m1 0h1m1 0h2m1 0h1m2 0h2m4 0h1m3 0h2m3 0h3m4 0h5m7 0h1m1 0h1m1 0h1m1 0h3m3 0h6m3 0h1m1 0h1m1 0h4m1 0h1m2 0h1m5 0h2m1 0h1m2 0h1m2 0h1m2 0h1m1 0h2m1 0h4m6 0h4m1 0h2m1 0h1m1 0h2m1 0h3m3 0h1m2 0h2m4 0h4m3 0h1m2 0h1m3 0h1m1 0h2m1 0h1M4 46.5h2m1 0h5m1 0h2m1 0h1m1 0h1m2 0h5m1 0h3m1 0h2m1 0h1m2 0h2m2 0h2m2 0h2m3 0h1m1 0h2m1 0h1m3 0h1m1 0h2m1 0h2m1 0h2m1 0h1m1 0h1m4 0h1m1 0h4m1 0h1m3 0h1m1 0h3m1 0h3m1 0h2m1 0h3m3 0h1m1 0h11m1 0h7m2 0h1m2 0h2m7 0h1m5 0h2m1 0h1m1 0h3m4 0h1m4 0h2m2 0h1m3 0h1m4 0h2M6 47.5h1m1 0h1m3 0h1m3 0h2m1 0h1m3 0h1m3 0h2m1 0h1m1 0h1m2 0h1m2 0h1m4 0h1m2 0h2m1 0h1m2 0h1m5 0h1m1 0h1m1 0h6m1 0h1m1 0h1m1 0h5m1 0h1m3 0h1m2 0h3m1 0h2m2 0h1m1 0h2m2 0h1m1 0h3m3 0h1m2 0h1m1 0h1m4 0h1m1 0h1m1 0h1m1 0h1m1 0h1m1 0h3m1 0h2m1 0h1m3 0h1m4 0h4m3 0h1m2 0h1m2 0h1m1 0h2m4 0h2m1 0h1m3 0h1m1 0h7M7 48.5h1m1 0h3m1 0h2m1 0h1m1 0h1m1 0h1m1 0h1m1 0h7m2 0h3m2 0h1m3 0h1m1 0h1m3 0h1m1 0h3m1 0h1m2 0h1m1 0h5m2 0h1m3 0h2m1 0h2m2 0h5m2 0h3m4 0h3m1 0h1m2 0h4m3 0h3m1 0h1m2 0h1m4 0h1m3 0h1m3 0h1m1 0h7m1 0h1m3 0h4m1 0h1m5 0h4m1 0h2m1 0h9m2 0h1m1 0h6m2 0h1M5 49.5h2m1 0h2m1 0h2m2 0h1m3 0h4m5 0h1m5 0h1m2 0h3m1 0h2m1 0h2m2 0h4m1 0h1m2 0h4m7 0h1m1 0h2m4 0h1m3 0h1m2 0h2m6 0h6m4 0h1m3 0h4m1 0h1m2 0h2m1 0h1m1 0h2m3 0h1m1 0h1m4 0h1m4 0h1m1 0h1m1 0h1m4 0h1m3 0h7m2 0h4m2 0h3m2 0h2m1 0h3m1 0h1m2 0h1m1 0h1M4 50.5h2m2 0h1m1 0h1m1 0h2m1 0h1m2 0h6m1 0h1m1 0h1m1 0h1m3 0h3m2 0h3m2 0h1m6 0h4m4 0h2m2 0h3m2 0h2m1 0h1m1 0h2m1 0h1m3 0h4m1 0h2m4 0h1m1 0h3m1 0h4m2 0h1m4 0h1m2 0h1m1 0h1m1 0h2m1 0h2m2 0h2m2 0h4m1 0h2m1 0h2m2 0h1m2 0h1m4 0h1m3 0h1m7 0h1m2 0h1m5 0h1m5 0h2m3 0h3M4 51.5h1m2 0h2m2 0h2m7 0h3m5 0h3m5 0h3m2 0h1m1 0h2m1 0h1m1 0h1m3 0h1m2 0h1m2 0h1m1 0h2m2 0h1m1 0h2m1 0h1m1 0h1m1 0h6m3 0h1m3 0h3m2 0h1m1 0h1m1 0h3m2 0h5m1 0h1m1 0h1m1 0h1m7 0h4m2 0h1m10 0h1m3 0h4m1 0h3m1 0h1m3 0h1m1 0h2m1 0h1m1 0h3m1 0h5m3 0h1m2 0h3m1 0h1M4 52.5h8m3 0h1m2 0h6m2 0h3m1 0h1m1 0h2m2 0h1m5 0h1m1 0h1m2 0h1m1 0h3m1 0h2m1 0h1m3 0h1m1 0h1m2 0h2m2 0h1m1 0h6m1 0h2m1 0h1m4 0h1m2 0h1m1 0h1m2 0h1m2 0h1m1 0h2m1 0h1m4 0h1m4 0h5m7 0h2m2 0h1m1 0h4m3 0h1m3 0h3m1 0h1m1 0h1m1 0h3m3 0h1m2 0h3m1 0h1m1 0h1m2 0h2m5 0h1m1 0h2M4 53.5h1m4 0h1m6 0h1m5 0h1m2 0h3m1 0h2m1 0h1m1 0h2m2 0h2m4 0h1m1 0h6m1 0h5m7 0h1m4 0h1m4 0h1m2 0h1m1 0h1m1 0h1m2 0h1m4 0h1m1 0h1m1 0h4m2 0h2m1 0h1m2 0h2m7 0h1m5 0h4m1 0h2m1 0h1m3 0h4m4 0h5m1 0h3m1 0h3m2 0h2m1 0h1m2 0h4m2 0h1m1 0h2m1 0h1m1 0h1m1 0h1m1 0h2M4 54.5h3m1 0h1m1 0h2m1 0h1m2 0h2m2 0h1m3 0h1m1 0h2m1 0h1m3 0h1m1 0h1m4 0h2m3 0h1m3 0h4m2 0h1m2 0h3m1 0h1m1 0h2m2 0h3m1 0h2m6 0h3m1 0h2m2 0h1m2 0h3m1 0h4m1 0h1m1 0h1m1 0h1m2 0h4m3 0h2m1 0h6m1 0h6m1 0h2m1 0h1m2 0h2m3 0h1m1 0h1m3 0h2m4 0h1m3 0h1m1 0h1m2 0h1m2 0h1m3 0h1m6 0h1M4 55.5h2m1 0h1m4 0h1m3 0h2m3 0h1m1 0h1m3 0h2m3 0h2m3 0h1m1 0h1m3 0h1m2 0h1m2 0h1m2 0h2m3 0h2m3 0h1m1 0h4m5 0h2m1 0h1m1 0h1m7 0h2m1 0h1m1 0h1m2 0h1m1 0h4m1 0h7m1 0h3m1 0h1m2 0h1m1 0h1m1 0h4m4 0h3m1 0h1m1 0h1m1 0h2m1 0h2m4 0h2m4 0h1m2 0h2m1 0h1m1 0h2m4 0h2m2 0h1m1 0h2m1 0h2m1 0h3M4 56.5h1m1 0h1m1 0h3m1 0h8m3 0h1m8 0h3m2 0h2m1 0h1m1 0h3m2 0h2m1 0h2m1 0h4m2 0h1m5 0h3m1 0h1m1 0h1m1 0h3m1 0h1m5 0h2m3 0h2m3 0h1m6 0h1m1 0h2m3 0h1m1 0h2m1 0h1m4 0h1m1 0h1m1 0h1m3 0h1m1 0h2m1 0h3m7 0h1m1 0h3m1 0h1m3 0h1m4 0h1m1 0h3m2 0h1m6 0h4m1 0h3m2 0h2M4 57.5h2m1 0h1m5 0h2m1 0h2m3 0h1m3 0h2m1 0h2m1 0h1m1 0h2m1 0h3m3 0h4m2 0h1m2 0h1m3 0h5m1 0h1m7 0h2m1 0h2m1 0h3m2 0h4m5 0h2m1 0h1m1 0h1m5 0h2m1 0h1m2 0h1m2 0h1m1 0h1m3 0h1m1 0h1m1 0h1m1 0h2m1 0h3m2 0h1m3 0h2m1 0h1m1 0h1m4 0h1m1 0h2m1 0h2m1 0h2m3 0h1m1 0h1m2 0h1m1 0h2m1 0h1m1 0h1m1 0h2m1 0h1m3 0h1m2 0h1M4 58.5h2m3 0h7m1 0h2m1 0h2m2 0h1m2 0h1m1 0h1m1 0h1m1 0h1m4 0h1m1 0h1m2 0h1m2 0h1m4 0h2m5 0h2m2 0h1m1 0h1m2 0h4m1 0h2m1 0h1m3 0h2m1 0h1m1 0h2m1 0h2m2 0h2m2 0h1m1 0h3m2 0h3m2 0h2m1 0h2m2 0h1m1 0h1m1 0h3m1 0h1m6 0h3m2 0h2m5 0h2m1 0h2m1 0h3m1 0h1m5 0h2m1 0h2m1 0h1m1 0h1m1 0h1m1 0h2m1 0h1m2 0h1M4 59.5h3m1 0h2m2 0h3m1 0h3m1 0h3m1 0h1m3 0h3m3 0h1m1 0h1m1 0h2m5 0h2m11 0h1m1 0h3m1 0h1m1 0h1m4 0h1m1 0h7m5 0h5m1 0h1m1 0h4m2 0h1m2 0h4m5 0h4m2 0h5m2 0h2m1 0h2m1 0h1m2 0h1m2 0h2m3 0h8m2 0h1m1 0h2m11 0h1m4 0h2m1 0h1m3 0h2M4 60.5h14m2 0h1m2 0h1m2 0h3m1 0h1m1 0h5m1 0h8m2 0h4m2 0h1m1 0h1m3 0h8m2 0h1m5 0h6m2 0h1m1 0h1m1 0h5m2 0h1m2 0h3m2 0h1m3 0h1m3 0h4m1 0h6m1 0h3m1 0h2m1 0h1m1 0h2m1 0h1m4 0h1m1 0h1m1 0h5m1 0h1m1 0h3m1 0h1m1 0h1m3 0h1m1 0h1m2 0h2m1 0h1m1 0h5M4 61.5h1m3 0h1m3 0h2m1 0h1m1 0h3m1 0h2m4 0h1m1 0h2m1 0h1m3 0h1m3 0h3m2 0h1m1 0h6m1 0h1m1 0h1m2 0h2m3 0h1m1 0h1m4 0h2m2 0h1m2 0h2m2 0h1m4 0h2m3 0h3m2 0h1m2 0h2m3 0h2m2 0h1m2 0h1m3 0h1m3 0h1m1 0h6m3 0h1m1 0h2m1 0h4m4 0h1m3 0h1m1 0h1m1 0h3m1 0h3m2 0h1m1 0h3m2 0h1m3 0h1m3 0h2M4 62.5h1m1 0h1m1 0h1m1 0h1m1 0h1m1 0h1m2 0h1m3 0h1m2 0h1m3 0h1m1 0h1m1 0h1m1 0h1m1 0h1m1 0h4m4 0h1m4 0h3m1 0h1m1 0h4m1 0h1m1 0h2m1 0h5m1 0h1m3 0h1m1 0h6m2 0h2m1 0h1m1 0h1m3 0h3m1 0h4m3 0h5m2 0h3m1 0h1m1 0h1m3 0h5m1 0h1m5 0h1m1 0h2m1 0h1m2 0h1m1 0h1m1 0h2m1 0h1m2 0h1m4 0h2m1 0h2m2 0h1m4 0h2m1 0h1m1 0h1m1 0h2M4 63.5h1m3 0h1m3 0h1m1 0h1m2 0h1m1 0h2m1 0h1m1 0h1m1 0h1m3 0h1m1 0h1m3 0h4m5 0h3m1 0h1m2 0h1m4 0h2m1 0h1m3 0h4m1 0h1m1 0h1m1 0h2m1 0h1m1 0h2m3 0h1m1 0h4m3 0h1m1 0h1m1 0h2m1 0h1m1 0h4m3 0h1m1 0h1m2 0h4m3 0h2m1 0h1m1 0h1m2 0h4m1 0h1m6 0h1m2 0h2m3 0h2m4 0h1m2 0h1m1 0h2m2 0h2m1 0h1m5 0h1m3 0h1m1 0h2M5 64.5h8m2 0h3m2 0h1m1 0h6m1 0h1m2 0h7m1 0h1m1 0h1m1 0h1m2 0h4m3 0h13m1 0h1m5 0h3m1 0h1m3 0h2m2 0h1m1 0h5m1 0h2m4 0h1m2 0h1m1 0h1m1 0h1m3 0h2m2 0h6m7 0h1m1 0h4m5 0h2m1 0h1m1 0h6m1 0h2m2 0h1m1 0h3m2 0h1m5 0h3m1 0h5m2 0h2M5 65.5h2m1 0h2m2 0h1m4 0h1m1 0h1m2 0h1m3 0h2m5 0h2m1 0h2m1 0h1m1 0h1m1 0h3m2 0h3m2 0h1m2 0h1m5 0h1m4 0h2m1 0h5m2 0h1m2 0h1m2 0h1m1 0h1m7 0h2m2 0h1m1 0h1m1 0h1m4 0h3m7 0h1m4 0h2m1 0h4m1 0h1m1 0h1m1 0h2m1 0h3m2 0h1m2 0h2m3 0h2m1 0h1m2 0h1m5 0h1m2 0h3m1 0h2m1 0h2m1 0h4m2 0h1M4 66.5h1m4 0h2m1 0h6m1 0h3m2 0h1m2 0h1m2 0h1m2 0h1m6 0h1m10 0h3m1 0h1m2 0h1m1 0h1m2 0h1m1 0h1m1 0h1m1 0h5m6 0h1m1 0h1m1 0h1m3 0h1m1 0h1m4 0h1m1 0h2m3 0h1m2 0h1m2 0h1m2 0h1m1 0h4m1 0h3m1 0h2m2 0h2m1 0h1m1 0h2m2 0h5m1 0h2m1 0h2m1 0h2m2 0h1m2 0h2m3 0h2m1 0h1m4 0h1m1 0h5m1 0h1m3 0h1M6 67.5h1m1 0h2m1 0h2m1 0h2m2 0h2m2 0h5m1 0h1m1 0h2m7 0h3m1 0h2m1 0h1m1 0h2m1 0h1m1 0h1m1 0h1m2 0h1m1 0h3m1 0h1m1 0h1m6 0h2m1 0h1m1 0h2m3 0h1m1 0h10m1 0h1m1 0h2m1 0h5m1 0h3m7 0h1m1 0h3m1 0h3m2 0h6m1 0h2m2 0h4m1 0h1m3 0h2m3 0h3m1 0h1m5 0h1m2 0h2m1 0h1m2 0h1m4 0h3M4 68.5h1m1 0h1m2 0h5m5 0h5m4 0h1m5 0h4m3 0h1m4 0h1m1 0h3m3 0h1m1 0h1m3 0h1m2 0h5m1 0h1m2 0h1m1 0h1m1 0h2m1 0h1m1 0h6m1 0h1m2 0h1m2 0h2m4 0h1m1 0h2m3 0h1m1 0h2m1 0h2m4 0h3m4 0h1m1 0h6m2 0h1m4 0h4m11 0h5m2 0h3m2 0h6m1 0h1m5 0h1M8 69.5h1m3 0h1m2 0h1m1 0h2m1 0h2m1 0h2m1 0h4m1 0h2m3 0h2m4 0h4m1 0h2m1 0h2m1 0h7m1 0h1m2 0h1m10 0h1m4 0h3m1 0h1m1 0h1m4 0h1m2 0h2m4 0h2m1 0h5m1 0h1m6 0h2m3 0h4m1 0h2m6 0h1m1 0h1m1 0h1m3 0h1m1 0h1m2 0h1m1 0h5m2 0h1m1 0h1m2 0h1m1 0h3m1 0h2m2 0h4m1 0h1m1 0h1m1 0h1M5 70.5h3m1 0h3m1 0h4m1 0h3m1 0h10m1 0h2m2 0h3m1 0h1m1 0h1m5 0h1m2 0h4m2 0h4m3 0h1m1 0h2m1 0h1m1 0h2m1 0h1m3 0h2m1 0h4m1 0h5m4 0h8m1 0h3m1 0h2m2 0h2m1 0h1m1 0h1m2 0h2m3 0h4m3 0h6m1 0h2m1 0h2m3 0h4m2 0h1m4 0h2m5 0h1m2 0h3m3 0h1m2 0h2M5 71.5h1m3 0h1m1 0h1m1 0h1m1 0h3m1 0h1m1 0h3m1 0h4m2 0h4m4 0h1m3 0h1m1 0h2m5 0h2m4 0h1m1 0h1m1 0h1m1 0h1m1 0h2m3 0h1m1 0h2m1 0h1m1 0h1m6 0h2m2 0h5m3 0h2m3 0h1m2 0h1m2 0h4m3 0h1m3 0h3m1 0h1m1 0h1m2 0h6m1 0h2m1 0h6m1 0h1m1 0h1m1 0h1m2 0h4m3 0h3m1 0h1m1 0h2m1 0h1m2 0h1m1 0h1m1 0h2m1 0h1M5 72.5h1m2 0h4m2 0h2m2 0h2m1 0h1m1 0h2m1 0h1m2 0h3m3 0h1m1 0h1m2 0h3m2 0h1m1 0h2m4 0h4m3 0h1m1 0h3m1 0h2m2 0h1m2 0h3m3 0h1m1 0h4m1 0h1m1 0h1m5 0h2m3 0h2m8 0h1m2 0h2m4 0h1m1 0h2m5 0h1m1 0h4m4 0h1m4 0h2m1 0h2m9 0h4m2 0h1m4 0h4m1 0h1m1 0h2m1 0h1m1 0h1M4 73.5h1m1 0h2m3 0h1m2 0h2m2 0h2m4 0h2m2 0h3m1 0h1m7 0h2m2 0h1m2 0h2m1 0h2m1 0h4m1 0h1m2 0h4m2 0h1m3 0h2m1 0h1m3 0h1m1 0h3m1 0h1m4 0h1m2 0h3m5 0h2m1 0h1m2 0h2m3 0h1m1 0h1m1 0h3m1 0h1m2 0h5m7 0h5m2 0h1m1 0h1m1 0h2m2 0h2m1 0h2m4 0h1m4 0h6m1 0h1m2 0h5m1 0h2M7 74.5h2m1 0h1m1 0h3m2 0h1m1 0h1m1 0h1m2 0h1m2 0h6m1 0h1m1 0h2m1 0h1m1 0h1m1 0h1m2 0h1m4 0h3m4 0h1m2 0h1m1 0h1m4 0h3m8 0h4m1 0h1m2 0h10m1 0h2m2 0h1m1 0h1m2 0h1m1 0h4m1 0h2m2 0h2m2 0h1m1 0h1m1 0h2m1 0h3m1 0h1m1 0h1m1 0h1m4 0h3m3 0h1m2 0h1m3 0h1m4 0h2m3 0h2m2 0h4m4 0h2M5 75.5h1m2 0h2m2 0h1m1 0h1m2 0h5m4 0h1m4 0h2m2 0h3m1 0h2m5 0h2m1 0h1m2 0h2m1 0h1m2 0h1m1 0h1m1 0h1m1 0h1m1 0h2m3 0h1m1 0h2m1 0h1m1 0h2m3 0h1m2 0h6m4 0h1m1 0h2m1 0h1m1 0h4m1 0h1m5 0h1m2 0h4m1 0h4m2 0h3m5 0h2m1 0h3m1 0h3m2 0h2m2 0h6m1 0h2m2 0h1m2 0h2m3 0h1m1 0h1m4 0h2M4 76.5h1m2 0h2m1 0h2m2 0h4m3 0h1m1 0h1m2 0h2m2 0h4m1 0h2m3 0h1m1 0h3m2 0h1m2 0h3m1 0h1m1 0h1m2 0h9m3 0h4m2 0h3m6 0h2m6 0h1m3 0h1m1 0h1m5 0h1m2 0h2m1 0h4m1 0h4m2 0h1m3 0h2m1 0h4m5 0h4m2 0h2m2 0h1m1 0h2m2 0h2m1 0h1m1 0h1m1 0h1m1 0h2m3 0h5m1 0h3m1 0h1M8 77.5h2m1 0h1m3 0h1m4 0h1m9 0h1m1 0h2m2 0h2m2 0h2m1 0h4m1 0h1m1 0h2m1 0h2m1 0h1m4 0h1m3 0h1m2 0h3m1 0h1m1 0h2m1 0h1m1 0h3m1 0h3m3 0h1m1 0h1m1 0h2m2 0h1m5 0h4m4 0h3m2 0h2m1 0h1m1 0h1m2 0h1m1 0h1m4 0h1m2 0h3m1 0h1m2 0h1m1 0h1m3 0h1m1 0h5m2 0h3m1 0h3m1 0h2m1 0h6m1 0h3M5 78.5h1m1 0h1m1 0h5m2 0h2m1 0h2m1 0h4m1 0h1m1 0h2m2 0h1m1 0h1m3 0h1m1 0h2m3 0h1m4 0h3m3 0h1m1 0h1m5 0h1m1 0h2m1 0h1m1 0h2m3 0h1m1 0h6m3 0h1m1 0h1m2 0h1m1 0h4m3 0h1m2 0h1m1 0h1m3 0h2m1 0h1m1 0h1m1 0h2m1 0h3m3 0h6m2 0h2m3 0h2m1 0h3m1 0h2m5 0h2m1 0h1m1 0h2m2 0h1m1 0h3m2 0h6m1 0h2m1 0h1M5 79.5h2m1 0h2m1 0h1m1 0h1m1 0h2m1 0h1m3 0h1m2 0h1m2 0h4m4 0h3m1 0h2m4 0h1m1 0h2m2 0h1m2 0h1m2 0h1m1 0h5m2 0h1m1 0h1m1 0h1m2 0h1m1 0h1m1 0h2m3 0h1m1 0h2m4 0h2m11 0h2m1 0h3m4 0h2m1 0h5m3 0h2m1 0h3m2 0h1m1 0h1m1 0h2m3 0h1m1 0h1m3 0h2m3 0h5m1 0h3m1 0h1m1 0h3m3 0h1m1 0h1m1 0h1m1 0h4M5 80.5h1m1 0h1m2 0h2m1 0h1m3 0h4m1 0h2m2 0h1m2 0h1m1 0h2m2 0h2m3 0h1m2 0h2m5 0h1m2 0h2m1 0h1m3 0h1m2 0h2m1 0h1m2 0h2m3 0h3m1 0h1m2 0h4m2 0h1m1 0h3m2 0h2m4 0h1m1 0h1m3 0h1m5 0h1m1 0h2m2 0h4m1 0h3m1 0h2m1 0h1m1 0h1m3 0h1m2 0h2m1 0h2m1 0h3m2 0h5m2 0h2m3 0h1m1 0h3m2 0h4m1 0h1m5 0h1M5 81.5h1m2 0h1m2 0h3m2 0h7m1 0h2m1 0h3m1 0h1m4 0h1m1 0h2m3 0h2m1 0h1m1 0h2m2 0h6m5 0h3m1 0h1m1 0h5m1 0h1m1 0h2m1 0h3m4 0h1m3 0h2m1 0h1m1 0h1m2 0h1m3 0h1m1 0h2m2 0h1m6 0h2m3 0h5m7 0h4m1 0h2m9 0h1m2 0h3m1 0h2m1 0h1m2 0h4m1 0h2m5 0h3m1 0h3M4 82.5h1m2 0h2m1 0h7m1 0h1m2 0h1m1 0h1m1 0h2m3 0h1m1 0h3m1 0h2m4 0h2m1 0h1m5 0h3m3 0h1m2 0h2m8 0h3m4 0h1m1 0h2m1 0h1m1 0h1m3 0h1m1 0h2m3 0h5m2 0h1m1 0h1m2 0h2m1 0h1m1 0h3m4 0h4m1 0h2m1 0h1m1 0h1m3 0h2m1 0h5m1 0h3m2 0h3m1 0h1m1 0h2m2 0h2m1 0h4m2 0h1m8 0h1m2 0h2M4 83.5h6m1 0h3m1 0h1m2 0h3m1 0h1m1 0h2m1 0h1m1 0h1m1 0h4m3 0h2m3 0h1m1 0h3m1 0h1m5 0h2m1 0h3m1 0h1m1 0h1m1 0h1m6 0h6m2 0h1m3 0h2m3 0h2m4 0h1m2 0h1m2 0h3m1 0h2m1 0h1m3 0h1m4 0h1m2 0h1m2 0h2m1 0h2m1 0h1m1 0h2m1 0h1m4 0h1m2 0h2m3 0h1m2 0h4m1 0h1m3 0h1m2 0h1m2 0h3m6 0h2m1 0h3M4 84.5h1m2 0h5m2 0h4m2 0h1m1 0h4m1 0h5m1 0h7m2 0h4m2 0h3m2 0h2m2 0h1m1 0h1m2 0h1m2 0h10m1 0h1m2 0h1m3 0h1m2 0h1m1 0h1m5 0h1m2 0h1m2 0h2m4 0h2m1 0h4m3 0h6m1 0h1m3 0h4m1 0h2m3 0h1m1 0h5m1 0h3m2 0h2m1 0h7m2 0h1m2 0h1m2 0h2m1 0h7m1 0h2M4 85.5h1m1 0h1m2 0h1m3 0h1m1 0h1m1 0h2m3 0h3m7 0h1m1 0h1m8 0h3m2 0h1m1 0h1m2 0h2m1 0h1m1 0h2m1 0h1m1 0h1m1 0h2m1 0h1m5 0h5m1 0h4m1 0h1m1 0h2m2 0h1m2 0h1m2 0h1m5 0h1m1 0h3m1 0h1m5 0h2m5 0h1m1 0h4m5 0h2m1 0h1m1 0h1m7 0h2m1 0h2m1 0h2m2 0h2m1 0h1m2 0h8m1 0h1m1 0h6m1 0h1M7 86.5h1m1 0h3m1 0h3m1 0h3m2 0h1m3 0h1m1 0h1m1 0h2m1 0h2m3 0h1m2 0h1m9 0h2m1 0h2m1 0h2m1 0h1m2 0h1m1 0h1m1 0h2m1 0h2m1 0h1m6 0h1m1 0h3m2 0h2m1 0h1m1 0h2m1 0h4m1 0h3m1 0h1m1 0h3m1 0h1m1 0h1m1 0h1m1 0h2m2 0h3m3 0h1m1 0h1m4 0h1m3 0h2m4 0h3m1 0h2m1 0h1m3 0h1m4 0h3m3 0h3m1 0h1m1 0h2m2 0h1m1 0h2M4 87.5h1m6 0h1m1 0h2m1 0h1m3 0h1m4 0h1m1 0h2m4 0h1m4 0h1m2 0h1m1 0h4m4 0h1m1 0h1m3 0h4m1 0h5m2 0h1m1 0h1m1 0h2m1 0h1m1 0h1m7 0h2m4 0h2m2 0h1m2 0h1m1 0h1m1 0h6m1 0h1m3 0h2m1 0h1m7 0h1m1 0h1m1 0h2m1 0h3m1 0h5m1 0h2m1 0h1m1 0h3m3 0h3m3 0h2m3 0h1m1 0h2m1 0h1m1 0h1m3 0h1m1 0h4M6 88.5h8m1 0h1m1 0h3m2 0h1m1 0h1m3 0h2m2 0h5m1 0h2m1 0h3m4 0h4m1 0h3m4 0h6m6 0h1m1 0h1m1 0h1m1 0h1m4 0h1m1 0h2m1 0h8m4 0h1m4 0h3m1 0h2m1 0h2m2 0h6m2 0h2m1 0h4m1 0h1m7 0h9m1 0h2m3 0h3m2 0h1m1 0h1m4 0h1m2 0h1m1 0h6M5 89.5h4m3 0h3m3 0h2m1 0h1m5 0h6m3 0h1m2 0h3m1 0h1m1 0h1m1 0h2m1 0h2m2 0h3m2 0h2m3 0h1m3 0h2m2 0h2m2 0h1m4 0h1m1 0h3m2 0h1m3 0h3m2 0h1m2 0h2m1 0h2m1 0h2m4 0h1m2 0h2m3 0h5m1 0h2m1 0h2m2 0h4m1 0h1m2 0h1m2 0h1m3 0h3m1 0h2m1 0h2m4 0h2m1 0h2m1 0h2m1 0h1m1 0h1m3 0h1m2 0h2M4 90.5h1m3 0h1m1 0h1m1 0h1m3 0h1m3 0h1m1 0h11m1 0h1m1 0h1m2 0h1m1 0h1m4 0h1m2 0h1m1 0h3m1 0h1m2 0h1m1 0h1m1 0h1m1 0h1m2 0h2m1 0h1m1 0h1m4 0h1m3 0h2m1 0h1m3 0h1m1 0h1m1 0h1m4 0h3m2 0h1m1 0h1m2 0h1m2 0h1m3 0h3m1 0h1m1 0h3m2 0h2m2 0h3m5 0h3m2 0h1m1 0h1m1 0h1m1 0h1m1 0h2m5 0h1m1 0h2m2 0h1m1 0h1m4 0h3m1 0h1m1 0h1M4 91.5h1m1 0h3m3 0h1m1 0h2m2 0h2m1 0h3m1 0h2m1 0h1m1 0h1m1 0h1m3 0h3m1 0h1m2 0h1m1 0h3m1 0h1m1 0h1m3 0h1m1 0h2m1 0h1m3 0h4m5 0h2m1 0h1m1 0h1m6 0h2m1 0h1m3 0h5m1 0h1m1 0h2m1 0h2m1 0h3m1 0h1m2 0h4m3 0h1m2 0h1m2 0h4m2 0h2m1 0h2m2 0h1m1 0h2m1 0h1m3 0h2m2 0h1m1 0h2m1 0h1m2 0h2m3 0h5m1 0h2m3 0h4M4 92.5h1m3 0h5m1 0h4m1 0h2m1 0h3m1 0h3m1 0h1m1 0h6m1 0h2m1 0h1m1 0h1m5 0h1m1 0h1m1 0h1m4 0h6m1 0h6m1 0h1m1 0h1m1 0h3m1 0h2m3 0h8m1 0h1m1 0h5m10 0h1m1 0h8m6 0h1m1 0h4m5 0h2m1 0h7m1 0h3m2 0h5m1 0h2m5 0h3m1 0h5m2 0h2M7 93.5h1m4 0h3m4 0h4m1 0h1m2 0h4m1 0h4m1 0h2m1 0h3m2 0h2m1 0h3m3 0h1m1 0h1m5 0h1m2 0h1m3 0h3m1 0h2m1 0h1m1 0h1m1 0h4m1 0h2m1 0h4m2 0h1m1 0h1m3 0h1m2 0h1m2 0h2m3 0h3m1 0h4m1 0h3m1 0h1m1 0h1m4 0h1m1 0h2m1 0h3m2 0h1m1 0h1m2 0h2m1 0h1m1 0h3m1 0h2m1 0h9m1 0h10m2 0h1M5 94.5h6m2 0h2m2 0h2m2 0h3m4 0h3m4 0h3m1 0h1m1 0h1m1 0h1m1 0h2m5 0h1m2 0h1m2 0h3m2 0h1m3 0h4m1 0h2m1 0h1m3 0h2m1 0h4m7 0h1m1 0h4m3 0h3m4 0h2m2 0h5m1 0h1m1 0h1m2 0h3m3 0h2m1 0h2m1 0h1m2 0h1m1 0h7m1 0h1m4 0h1m2 0h1m1 0h2m5 0h1m2 0h1m1 0h9M4 95.5h2m2 0h2m3 0h1m1 0h1m1 0h2m2 0h3m1 0h3m1 0h3m2 0h5m1 0h2m4 0h2m1 0h1m2 0h1m2 0h1m2 0h1m1 0h2m1 0h1m2 0h2m5 0h2m1 0h1m1 0h2m5 0h2m1 0h1m1 0h1m2 0h2m1 0h1m1 0h1m2 0h5m2 0h1m1 0h9m2 0h3m2 0h1m4 0h1m2 0h1m1 0h1m3 0h3m1 0h1m3 0h1m4 0h2m1 0h1m3 0h2m2 0h4m5 0h1m1 0h1m1 0h3M4 96.5h3m1 0h5m1 0h2m1 0h1m1 0h2m2 0h1m1 0h1m1 0h4m5 0h1m2 0h3m1 0h1m3 0h4m3 0h4m3 0h2m1 0h1m5 0h2m1 0h3m1 0h2m3 0h1m2 0h1m1 0h4m2 0h2m4 0h2m2 0h1m3 0h1m1 0h1m1 0h2m1 0h2m2 0h1m2 0h1m3 0h1m1 0h2m1 0h1m1 0h1m2 0h1m3 0h4m5 0h1m1 0h4m3 0h1m3 0h3m3 0h4m1 0h2m5 0h1M8 97.5h1m2 0h1m5 0h2m1 0h3m1 0h5m1 0h3m2 0h3m1 0h1m3 0h2m2 0h2m4 0h5m3 0h5m5 0h1m4 0h4m3 0h4m1 0h1m5 0h3m2 0h1m1 0h1m4 0h1m1 0h1m3 0h1m4 0h8m1 0h2m1 0h1m1 0h1m1 0h2m1 0h1m1 0h1m2 0h1m1 0h1m1 0h3m2 0h4m2 0h1m1 0h2m1 0h1m1 0h3m2 0h1m1 0h3m1 0h1m4 0h2M6 98.5h1m2 0h3m2 0h2m2 0h1m1 0h1m1 0h3m1 0h1m2 0h1m3 0h1m2 0h2m4 0h2m2 0h1m5 0h2m4 0h2m2 0h1m1 0h1m2 0h2m1 0h1m6 0h1m2 0h1m1 0h1m1 0h1m4 0h1m7 0h2m2 0h3m3 0h6m1 0h2m1 0h1m4 0h1m1 0h2m6 0h1m4 0h4m1 0h2m1 0h3m1 0h1m1 0h1m2 0h2m1 0h2m1 0h2m4 0h1m4 0h4m1 0h3M4 99.5h2m2 0h2m1 0h3m2 0h1m1 0h2m1 0h1m3 0h1m1 0h1m1 0h1m2 0h2m1 0h4m1 0h2m3 0h2m2 0h1m2 0h1m2 0h2m1 0h3m3 0h3m4 0h1m3 0h2m1 0h1m6 0h2m1 0h1m1 0h2m4 0h1m1 0h1m1 0h5m2 0h3m3 0h1m1 0h1m1 0h3m7 0h2m1 0h1m3 0h3m2 0h1m1 0h2m3 0h1m1 0h1m2 0h2m1 0h1m1 0h2m1 0h1m3 0h1m2 0h1m2 0h1m7 0h3M6 100.5h6m1 0h1m2 0h1m1 0h4m3 0h1m2 0h3m2 0h1m3 0h2m3 0h1m4 0h1m2 0h3m1 0h1m1 0h2m2 0h5m2 0h1m1 0h1m3 0h1m1 0h4m1 0h1m2 0h1m1 0h1m1 0h1m3 0h3m3 0h4m4 0h2m2 0h1m2 0h2m2 0h2m7 0h1m2 0h1m1 0h1m1 0h1m4 0h1m1 0h2m1 0h1m2 0h1m2 0h3m1 0h2m1 0h1m1 0h2m1 0h1m1 0h1m1 0h2m1 0h1m2 0h1m1 0h2m3 0h2M6 101.5h1m2 0h1m1 0h1m2 0h1m3 0h1m3 0h1m6 0h1m2 0h2m2 0h1m5 0h1m1 0h2m1 0h2m4 0h1m2 0h4m4 0h1m2 0h6m2 0h1m4 0h2m1 0h1m2 0h1m1 0h1m1 0h1m2 0h2m1 0h2m1 0h3m1 0h1m2 0h1m1 0h2m1 0h2m4 0h2m1 0h3m1 0h2m1 0h1m3 0h1m1 0h4m2 0h1m1 0h1m1 0h7m2 0h1m3 0h1m1 0h3m1 0h4m1 0h2m1 0h3m1 0h2m1 0h1m1 0h2M4 102.5h3m1 0h4m1 0h3m1 0h2m2 0h3m1 0h2m3 0h3m1 0h1m1 0h1m1 0h1m4 0h1m1 0h1m1 0h1m1 0h1m2 0h1m1 0h1m2 0h3m3 0h1m4 0h3m1 0h2m1 0h1m1 0h1m2 0h1m1 0h1m1 0h1m2 0h1m1 0h1m1 0h3m1 0h2m1 0h2m2 0h1m6 0h3m2 0h3m2 0h1m1 0h2m2 0h1m1 0h2m1 0h1m1 0h1m2 0h2m4 0h1m2 0h1m1 0h2m6 0h1m2 0h5m4 0h2m3 0h6m1 0h1M5 103.5h1m6 0h1m6 0h3m5 0h3m1 0h3m2 0h1m2 0h1m1 0h1m1 0h1m2 0h2m4 0h1m2 0h1m1 0h3m1 0h1m4 0h1m4 0h1m2 0h1m1 0h4m1 0h1m3 0h3m2 0h1m2 0h1m2 0h2m1 0h3m2 0h3m1 0h5m1 0h1m1 0h2m1 0h1m4 0h1m1 0h2m1 0h1m5 0h1m1 0h4m3 0h3m1 0h1m2 0h1m1 0h3m1 0h1m2 0h1m3 0h3m2 0h1m8 0h3M5 104.5h8m1 0h2m1 0h2m5 0h3m2 0h2m2 0h1m1 0h2m2 0h1m4 0h1m2 0h1m1 0h6m1 0h1m5 0h3m1 0h1m1 0h1m1 0h3m4 0h1m3 0h1m1 0h3m1 0h2m2 0h2m1 0h2m1 0h5m3 0h1m3 0h1m1 0h3m2 0h1m2 0h2m2 0h1m1 0h1m1 0h4m1 0h2m1 0h1m3 0h4m5 0h1m1 0h3m2 0h1m2 0h2m2 0h1m1 0h1m1 0h2m2 0h1m1 0h2m3 0h1m2 0h1M4 105.5h2m1 0h3m1 0h1m1 0h1m1 0h2m2 0h3m1 0h1m3 0h2m1 0h1m1 0h1m1 0h1m1 0h3m5 0h1m3 0h2m3 0h2m1 0h2m1 0h2m2 0h2m3 0h2m5 0h1m1 0h1m1 0h1m2 0h2m2 0h1m2 0h1m3 0h2m2 0h1m1 0h2m3 0h1m1 0h2m1 0h1m2 0h1m4 0h2m1 0h1m1 0h3m1 0h2m1 0h1m3 0h2m1 0h1m1 0h2m1 0h1m3 0h2m1 0h1m1 0h5m1 0h1m1 0h1m2 0h5m2 0h2m3 0h2m2 0h2m1 0h1M8 106.5h1m1 0h2m3 0h3m2 0h1m2 0h2m3 0h1m4 0h2m2 0h1m1 0h2m1 0h1m3 0h1m5 0h2m1 0h1m2 0h2m2 0h1m2 0h1m2 0h1m1 0h4m1 0h1m3 0h4m1 0h2m1 0h1m3 0h3m2 0h1m1 0h2m2 0h1m1 0h2m2 0h4m2 0h3m5 0h2m1 0h1m3 0h3m1 0h3m3 0h2m1 0h3m4 0h1m1 0h1m3 0h1m4 0h2m3 0h1m3 0h1m1 0h2m1 0h5M6 107.5h4m1 0h2m1 0h2m1 0h2m1 0h2m1 0h1m1 0h2m3 0h1m1 0h1m2 0h3m5 0h1m1 0h3m1 0h1m3 0h1m3 0h2m1 0h1m5 0h2m5 0h2m1 0h1m1 0h1m2 0h1m3 0h4m1 0h2m1 0h1m2 0h3m2 0h8m1 0h1m4 0h1m1 0h3m1 0h1m2 0h2m1 0h2m1 0h1m1 0h1m1 0h1m2 0h2m2 0h2m4 0h2m2 0h2m1 0h2m1 0h1m1 0h3m1 0h1m1 0h2m1 0h2m3 0h1m1 0h1m2 0h1m1 0h1M5 108.5h4m1 0h1m2 0h1m1 0h2m5 0h4m2 0h3m2 0h1m2 0h1m2 0h1m2 0h1m1 0h1m1 0h2m2 0h5m6 0h1m1 0h4m2 0h1m7 0h3m3 0h1m1 0h1m1 0h2m1 0h3m4 0h1m1 0h4m2 0h2m2 0h1m2 0h2m2 0h3m1 0h1m7 0h3m11 0h1m1 0h2m4 0h1m1 0h1m3 0h4m2 0h1m1 0h1m3 0h3m4 0h1m1 0h1M4 109.5h2m2 0h2m1 0h1m2 0h1m3 0h2m2 0h1m3 0h2m1 0h1m2 0h1m1 0h1m1 0h2m1 0h2m2 0h3m1 0h2m4 0h8m1 0h4m3 0h2m1 0h1m1 0h1m5 0h6m3 0h1m1 0h1m1 0h3m4 0h2m3 0h3m3 0h3m1 0h2m1 0h1m1 0h1m3 0h1m1 0h2m1 0h1m1 0h1m1 0h4m1 0h1m2 0h1m1 0h1m1 0h2m4 0h2m2 0h4m3 0h1m1 0h2m1 0h2m5 0h1m3 0h1m1 0h1M4 110.5h1m2 0h4m1 0h1m2 0h1m1 0h2m1 0h2m6 0h4m2 0h2m1 0h1m2 0h1m1 0h1m2 0h1m1 0h1m3 0h2m1 0h2m1 0h3m2 0h2m4 0h1m1 0h1m1 0h1m4 0h1m1 0h2m1 0h1m1 0h2m1 0h2m2 0h1m1 0h1m2 0h5m1 0h1m2 0h6m1 0h2m1 0h2m5 0h3m2 0h1m2 0h1m3 0h4m3 0h1m1 0h1m6 0h1m2 0h1m4 0h1m1 0h4m5 0h1m1 0h2m1 0h6M5 111.5h4m2 0h1m2 0h5m1 0h1m1 0h2m1 0h2m2 0h1m1 0h4m1 0h4m1 0h1m1 0h2m1 0h4m3 0h1m2 0h1m1 0h4m2 0h1m1 0h2m5 0h2m1 0h2m5 0h1m1 0h2m1 0h1m1 0h3m2 0h4m4 0h4m1 0h3m2 0h2m3 0h4m1 0h1m2 0h1m1 0h6m1 0h1m3 0h1m1 0h2m1 0h1m2 0h3m1 0h2m1 0h2m4 0h2m4 0h1m6 0h3m1 0h2m1 0h1M4 112.5h3m1 0h1m1 0h2m1 0h1m1 0h2m2 0h2m1 0h3m2 0h1m4 0h1m1 0h1m2 0h1m1 0h1m2 0h1m1 0h1m2 0h5m2 0h1m7 0h3m2 0h1m1 0h1m1 0h1m1 0h2m1 0h5m3 0h6m2 0h4m2 0h5m2 0h2m3 0h3m2 0h6m6 0h7m3 0h1m1 0h2m1 0h2m4 0h1m1 0h1m1 0h2m3 0h3m2 0h1m1 0h1m3 0h6m1 0h2m2 0h2M5 113.5h1m6 0h3m1 0h2m2 0h2m1 0h3m2 0h2m7 0h1m2 0h1m2 0h3m1 0h2m1 0h2m1 0h1m1 0h3m2 0h1m3 0h4m1 0h3m1 0h1m1 0h2m1 0h1m1 0h4m1 0h1m3 0h2m3 0h1m2 0h1m1 0h2m2 0h1m1 0h2m4 0h1m3 0h2m1 0h1m1 0h1m1 0h1m1 0h4m6 0h1m1 0h4m1 0h1m2 0h1m1 0h2m2 0h1m1 0h6m1 0h6m1 0h1m1 0h3m1 0h1m1 0h1m5 0h1M4 114.5h1m1 0h2m2 0h3m1 0h2m1 0h2m1 0h1m5 0h2m2 0h3m1 0h4m1 0h1m1 0h1m10 0h2m5 0h1m3 0h1m4 0h1m1 0h4m1 0h1m4 0h1m1 0h1m1 0h2m1 0h2m7 0h5m1 0h3m3 0h3m2 0h3m5 0h4m9 0h1m1 0h3m4 0h5m5 0h1m5 0h3m1 0h1m1 0h3m1 0h3m1 0h2m1 0h4M5 115.5h1m2 0h1m2 0h2m2 0h3m4 0h4m4 0h5m1 0h3m1 0h1m2 0h5m1 0h1m1 0h1m4 0h4m1 0h1m4 0h2m1 0h1m1 0h1m1 0h2m1 0h1m1 0h1m4 0h1m1 0h2m1 0h1m1 0h3m1 0h1m1 0h1m1 0h5m1 0h1m1 0h4m1 0h1m2 0h2m1 0h2m1 0h1m6 0h1m1 0h5m2 0h2m1 0h4m5 0h2m1 0h2m1 0h1m1 0h1m2 0h3m1 0h1m2 0h4m7 0h3M4 116.5h2m2 0h5m1 0h1m2 0h2m1 0h1m3 0h1m1 0h1m5 0h6m2 0h2m1 0h1m3 0h4m1 0h1m1 0h2m1 0h1m2 0h8m1 0h2m3 0h1m2 0h2m1 0h1m4 0h9m3 0h1m1 0h2m5 0h1m2 0h1m1 0h3m2 0h5m4 0h1m1 0h4m1 0h1m4 0h1m2 0h1m1 0h1m1 0h7m1 0h1m7 0h1m1 0h3m2 0h2m1 0h1m1 0h5m3 0h1M5 117.5h2m1 0h1m3 0h4m1 0h1m5 0h2m2 0h2m1 0h1m1 0h1m3 0h2m1 0h2m1 0h4m2 0h3m2 0h1m1 0h2m2 0h2m3 0h1m3 0h1m1 0h1m2 0h1m2 0h2m2 0h1m3 0h1m2 0h2m3 0h1m1 0h3m4 0h1m4 0h2m1 0h1m2 0h1m2 0h2m3 0h1m1 0h1m1 0h1m2 0h1m7 0h2m1 0h2m3 0h2m3 0h2m1 0h2m3 0h1m1 0h2m2 0h1m2 0h1m1 0h2m3 0h1m3 0h3m1 0h1M5 118.5h4m1 0h1m1 0h1m3 0h3m1 0h3m1 0h1m1 0h1m1 0h3m1 0h1m1 0h1m1 0h1m1 0h1m1 0h3m3 0h1m4 0h2m4 0h2m1 0h1m1 0h1m1 0h2m2 0h1m1 0h3m9 0h4m2 0h1m1 0h1m1 0h1m2 0h1m1 0h3m1 0h2m1 0h2m1 0h5m2 0h1m1 0h1m1 0h1m1 0h5m2 0h5m1 0h1m1 0h1m1 0h1m1 0h2m1 0h3m1 0h1m1 0h1m1 0h1m2 0h1m6 0h3m2 0h3m2 0h3m1 0h1m1 0h1m1 0h2M4 119.5h3m1 0h1m3 0h1m3 0h1m2 0h1m8 0h5m3 0h1m1 0h1m4 0h1m2 0h1m1 0h1m3 0h1m2 0h2m1 0h3m3 0h1m2 0h1m5 0h1m2 0h1m1 0h1m7 0h1m1 0h1m3 0h1m1 0h3m1 0h1m4 0h2m1 0h1m1 0h3m2 0h4m3 0h2m4 0h5m1 0h8m2 0h1m1 0h1m3 0h1m2 0h6m6 0h1m2 0h1m5 0h1m3 0h1m1 0h1M4 120.5h1m2 0h7m1 0h2m1 0h1m4 0h2m5 0h7m3 0h3m1 0h2m4 0h2m2 0h1m1 0h1m2 0h6m1 0h2m3 0h1m1 0h1m1 0h5m1 0h3m2 0h1m1 0h8m2 0h1m1 0h1m1 0h1m3 0h1m2 0h1m2 0h1m2 0h6m7 0h1m1 0h4m1 0h1m1 0h1m1 0h2m1 0h7m1 0h2m1 0h1m6 0h4m1 0h1m2 0h9m2 0h2M4 121.5h1m1 0h2m6 0h1m1 0h2m1 0h3m1 0h2m2 0h2m2 0h2m1 0h1m2 0h1m1 0h1m1 0h1m2 0h2m2 0h1m4 0h4m2 0h2m1 0h1m1 0h1m3 0h1m1 0h4m2 0h1m3 0h3m2 0h3m1 0h1m2 0h3m6 0h1m1 0h1m1 0h2m1 0h1m4 0h1m1 0h3m4 0h5m6 0h4m1 0h2m8 0h1m2 0h1m1 0h3m1 0h1m1 0h1m1 0h8m3 0h2m1 0h3m2 0h1M4 122.5h1m3 0h1m1 0h4m3 0h1m1 0h1m8 0h5m4 0h1m1 0h4m2 0h2m5 0h1m4 0h2m2 0h1m2 0h2m1 0h4m1 0h2m3 0h1m1 0h2m1 0h1m1 0h2m3 0h1m3 0h1m1 0h5m2 0h1m2 0h4m1 0h2m1 0h2m1 0h1m1 0h3m2 0h1m3 0h3m1 0h1m2 0h1m1 0h2m1 0h1m1 0h1m1 0h1m1 0h2m2 0h1m5 0h1m2 0h1m1 0h1m4 0h1m1 0h1m1 0h1m1 0h1m2 0h1m1 0h1m2 0h1M5 123.5h1m2 0h2m2 0h1m4 0h1m2 0h1m1 0h1m1 0h3m1 0h1m1 0h1m1 0h1m1 0h2m2 0h4m2 0h3m1 0h1m3 0h1m3 0h1m1 0h2m1 0h2m2 0h2m6 0h2m1 0h4m1 0h1m1 0h1m1 0h2m1 0h2m1 0h4m1 0h1m1 0h1m2 0h4m1 0h4m5 0h3m7 0h2m1 0h1m4 0h1m1 0h3m1 0h1m1 0h2m1 0h4m6 0h2m1 0h1m2 0h2m1 0h4m2 0h1m1 0h2m1 0h1m1 0h1m1 0h3M6 124.5h3m1 0h1m6 0h3m4 0h5m2 0h1m4 0h2m3 0h4m2 0h4m1 0h6m3 0h1m4 0h1m1 0h2m2 0h1m1 0h1m2 0h3m1 0h1m1 0h1m1 0h4m1 0h1m1 0h1m1 0h2m1 0h1m2 0h2m1 0h1m1 0h3m2 0h1m1 0h2m1 0h1m1 0h1m2 0h2m1 0h2m2 0h2m1 0h1m1 0h2m1 0h1m3 0h4m1 0h2m2 0h1m1 0h1m1 0h2m3 0h3m1 0h4m2 0h2m1 0h1m4 0h1m1 0h1m2 0h1M6 125.5h3m2 0h1m4 0h1m1 0h1m3 0h2m1 0h1m1 0h2m2 0h5m2 0h2m1 0h1m1 0h2m1 0h1m1 0h1m1 0h1m4 0h4m1 0h1m1 0h1m1 0h1m2 0h2m1 0h2m2 0h2m1 0h1m3 0h2m4 0h2m2 0h2m1 0h1m2 0h1m2 0h1m3 0h4m3 0h1m1 0h1m6 0h1m1 0h5m4 0h1m1 0h2m1 0h4m3 0h1m1 0h1m2 0h1m1 0h1m3 0h1m1 0h1m1 0h1m2 0h1m1 0h2m1 0h3m2 0h3m1 0h1m1 0h3M4 126.5h1m1 0h3m1 0h1m1 0h1m1 0h1m3 0h1m2 0h1m1 0h1m1 0h1m1 0h1m2 0h1m1 0h1m1 0h1m1 0h2m2 0h1m2 0h1m3 0h1m1 0h1m2 0h1m1 0h1m6 0h5m1 0h2m1 0h3m2 0h1m1 0h1m1 0h6m5 0h1m4 0h1m2 0h1m1 0h1m1 0h1m1 0h4m2 0h1m1 0h3m1 0h1m1 0h8m1 0h1m1 0h1m1 0h2m2 0h1m1 0h1m6 0h4m7 0h1m1 0h1m2 0h1m4 0h3m1 0h3m1 0h1m2 0h4M7 127.5h2m2 0h3m4 0h6m2 0h1m1 0h1m1 0h2m1 0h3m1 0h2m5 0h1m1 0h3m2 0h2m5 0h3m2 0h2m1 0h1m2 0h1m3 0h2m1 0h2m1 0h1m6 0h1m1 0h2m1 0h1m2 0h2m1 0h3m1 0h5m2 0h2m4 0h1m1 0h1m4 0h3m1 0h1m2 0h1m7 0h2m1 0h2m1 0h3m1 0h1m6 0h3m1 0h1m2 0h1m3 0h1m1 0h1m2 0h1m1 0h3m1 0h2m1 0h2M5 128.5h3m2 0h3m2 0h5m1 0h2m1 0h5m4 0h1m4 0h1m1 0h1m1 0h1m5 0h1m1 0h2m2 0h1m1 0h1m2 0h1m5 0h1m10 0h1m3 0h1m1 0h1m2 0h1m2 0h1m1 0h1m1 0h4m3 0h2m4 0h3m2 0h1m1 0h1m2 0h1m3 0h1m1 0h1m5 0h2m1 0h1m1 0h2m5 0h2m1 0h1m1 0h2m2 0h1m1 0h3m3 0h1m1 0h1m3 0h4m1 0h4m2 0h3m3 0h2M4 129.5h1m1 0h2m1 0h1m2 0h1m1 0h4m1 0h2m1 0h1m2 0h1m2 0h1m2 0h1m1 0h1m1 0h1m1 0h1m3 0h6m1 0h1m1 0h1m2 0h1m6 0h1m1 0h6m1 0h3m3 0h1m2 0h1m1 0h6m3 0h2m1 0h3m2 0h1m1 0h1m1 0h1m1 0h2m1 0h1m2 0h1m2 0h1m4 0h6m1 0h4m3 0h1m1 0h4m1 0h2m1 0h1m1 0h1m3 0h3m1 0h2m4 0h2m1 0h1m1 0h3m1 0h1m5 0h2m3 0h2m1 0h1M4 130.5h4m2 0h2m1 0h1m3 0h3m1 0h1m1 0h2m4 0h2m2 0h4m1 0h2m6 0h2m3 0h3m3 0h2m4 0h2m2 0h2m1 0h1m1 0h2m1 0h1m1 0h1m1 0h4m1 0h1m2 0h2m2 0h1m3 0h4m1 0h1m1 0h1m4 0h4m3 0h3m1 0h1m1 0h2m1 0h1m1 0h3m2 0h3m3 0h3m1 0h1m3 0h1m1 0h1m4 0h1m3 0h1m1 0h1m1 0h3m3 0h3m1 0h2m3 0h1m2 0h3M6 131.5h2m3 0h1m1 0h2m1 0h1m3 0h1m1 0h2m5 0h1m2 0h1m1 0h1m5 0h1m2 0h5m1 0h1m1 0h2m2 0h1m2 0h1m1 0h2m4 0h1m4 0h1m1 0h2m1 0h1m1 0h1m8 0h3m4 0h1m2 0h1m9 0h2m2 0h1m11 0h4m4 0h2m3 0h1m1 0h2m1 0h1m7 0h1m3 0h4m3 0h1m2 0h1m2 0h1m2 0h1m1 0h1m1 0h2m1 0h3M4 132.5h2m4 0h1m2 0h1m1 0h1m2 0h1m3 0h2m2 0h2m3 0h1m3 0h1m1 0h2m1 0h4m1 0h1m4 0h2m1 0h2m1 0h1m4 0h1m4 0h2m6 0h3m2 0h3m1 0h1m1 0h2m1 0h8m1 0h2m1 0h3m2 0h1m1 0h1m1 0h1m2 0h2m5 0h1m1 0h1m1 0h1m1 0h1m2 0h3m1 0h2m3 0h1m1 0h2m1 0h1m1 0h1m2 0h2m1 0h1m5 0h1m2 0h1m2 0h3m3 0h5m6 0h2M5 133.5h2m1 0h1m4 0h1m4 0h1m1 0h1m2 0h1m3 0h5m2 0h2m1 0h2m1 0h5m1 0h3m1 0h1m2 0h1m1 0h1m4 0h3m1 0h2m2 0h1m1 0h4m1 0h2m3 0h1m1 0h3m2 0h1m4 0h1m1 0h1m2 0h1m1 0h3m1 0h1m1 0h2m1 0h2m2 0h1m2 0h1m1 0h1m4 0h1m1 0h1m1 0h1m2 0h1m1 0h1m1 0h2m1 0h2m1 0h1m1 0h1m3 0h1m3 0h6m1 0h1m1 0h1m2 0h1m1 0h4m1 0h2m1 0h3m1 0h1m1 0h1m1 0h2M4 134.5h1m5 0h1m1 0h1m1 0h4m2 0h1m4 0h1m6 0h3m2 0h3m1 0h1m3 0h1m4 0h3m6 0h1m2 0h2m4 0h3m8 0h7m3 0h1m5 0h4m3 0h1m1 0h1m2 0h5m1 0h6m1 0h1m1 0h1m2 0h1m1 0h3m4 0h6m4 0h1m1 0h1m2 0h1m1 0h1m2 0h1m2 0h1m1 0h3m1 0h1m2 0h2m4 0h1m1 0h1m1 0h1m1 0h1M5 135.5h1m2 0h1m5 0h4m3 0h1m1 0h1m1 0h1m3 0h1m2 0h5m4 0h1m4 0h1m1 0h1m3 0h1m2 0h1m2 0h2m1 0h4m1 0h2m3 0h1m1 0h1m1 0h2m1 0h2m3 0h1m1 0h5m3 0h1m1 0h1m2 0h1m3 0h4m2 0h1m1 0h1m2 0h1m1 0h3m5 0h1m1 0h1m2 0h3m1 0h3m4 0h1m2 0h1m1 0h2m1 0h1m5 0h3m3 0h1m3 0h2m1 0h1m2 0h1m1 0h1m3 0h2m1 0h2M5 136.5h1m3 0h2m3 0h1m3 0h1m6 0h1m7 0h3m2 0h1m3 0h1m1 0h2m2 0h3m2 0h2m1 0h2m1 0h1m1 0h1m1 0h1m1 0h4m3 0h1m1 0h2m2 0h1m2 0h1m1 0h2m1 0h1m1 0h8m3 0h2m2 0h1m2 0h1m2 0h4m5 0h2m7 0h2m1 0h3m3 0h2m2 0h1m1 0h1m1 0h3m1 0h1m1 0h1m2 0h2m2 0h2m3 0h1m2 0h1m2 0h4m1 0h2m2 0h1m2 0h1M5 137.5h2m2 0h1m3 0h1m2 0h3m1 0h3m1 0h1m1 0h1m1 0h2m1 0h7m2 0h5m3 0h6m2 0h2m2 0h3m1 0h2m1 0h1m1 0h5m3 0h2m3 0h1m2 0h3m1 0h4m1 0h3m8 0h2m5 0h1m2 0h1m1 0h5m2 0h3m4 0h1m2 0h3m1 0h2m5 0h1m2 0h1m2 0h2m1 0h1m1 0h3m2 0h4m1 0h2m1 0h1m2 0h2m1 0h3m2 0h1M4 138.5h1m2 0h1m1 0h2m1 0h2m1 0h1m2 0h4m3 0h1m1 0h1m1 0h4m2 0h4m3 0h2m1 0h3m1 0h1m1 0h2m2 0h1m3 0h1m1 0h3m3 0h2m1 0h1m1 0h1m4 0h1m1 0h4m1 0h1m2 0h1m3 0h1m6 0h1m1 0h3m1 0h4m1 0h6m1 0h1m1 0h1m1 0h1m2 0h1m1 0h6m3 0h4m1 0h2m1 0h2m1 0h4m1 0h1m2 0h1m1 0h1m2 0h3m6 0h1m1 0h3m2 0h1m1 0h1m1 0h2M5 139.5h2m1 0h1m2 0h1m3 0h4m1 0h2m2 0h1m5 0h1m3 0h4m2 0h5m1 0h2m1 0h1m1 0h1m4 0h4m1 0h1m3 0h3m1 0h1m4 0h3m1 0h2m1 0h1m3 0h5m3 0h1m1 0h3m1 0h1m1 0h4m1 0h3m1 0h2m2 0h4m5 0h2m1 0h1m1 0h2m1 0h3m1 0h1m1 0h1m2 0h1m1 0h2m1 0h3m6 0h1m2 0h1m1 0h2m5 0h1m1 0h2m1 0h2m1 0h5m1 0h1M4 140.5h1m1 0h3m1 0h1m1 0h2m1 0h2m1 0h3m1 0h1m1 0h1m4 0h2m3 0h3m6 0h3m1 0h11m1 0h3m4 0h1m1 0h4m4 0h3m1 0h1m3 0h1m1 0h3m2 0h2m1 0h1m4 0h2m1 0h1m3 0h1m2 0h2m1 0h1m8 0h1m1 0h1m1 0h1m1 0h2m1 0h4m3 0h1m1 0h1m2 0h2m2 0h3m1 0h1m1 0h2m2 0h1m1 0h3m1 0h3m2 0h1m1 0h3m1 0h1m3 0h4M6 141.5h1m4 0h1m3 0h1m1 0h1m2 0h2m1 0h1m2 0h1m1 0h3m1 0h1m1 0h1m2 0h2m2 0h1m1 0h2m2 0h2m1 0h2m1 0h1m1 0h3m2 0h5m7 0h1m2 0h2m4 0h4m2 0h9m1 0h1m1 0h1m5 0h2m2 0h1m7 0h3m1 0h4m1 0h1m4 0h1m2 0h1m1 0h3m2 0h1m1 0h1m1 0h1m1 0h2m2 0h4m1 0h2m1 0h1m2 0h1m1 0h1m3 0h1m3 0h1m3 0h1m1 0h3M4 142.5h3m2 0h2m4 0h3m2 0h1m4 0h1m1 0h1m1 0h1m3 0h2m2 0h3m1 0h3m1 0h3m2 0h1m1 0h4m6 0h1m1 0h2m1 0h2m1 0h1m1 0h2m5 0h2m1 0h4m4 0h1m2 0h3m1 0h4m1 0h1m3 0h2m1 0h2m3 0h3m1 0h8m1 0h2m4 0h1m4 0h2m2 0h1m3 0h3m1 0h2m2 0h1m2 0h2m1 0h1m4 0h1m5 0h4m2 0h1M5 143.5h2m1 0h2m2 0h7m1 0h1m2 0h2m5 0h1m3 0h1m1 0h1m2 0h3m4 0h1m4 0h2m2 0h2m1 0h2m1 0h2m3 0h1m4 0h1m2 0h1m1 0h4m6 0h3m2 0h1m1 0h2m1 0h1m4 0h4m3 0h3m4 0h2m6 0h1m4 0h1m1 0h1m1 0h1m3 0h2m2 0h1m3 0h1m1 0h1m6 0h4m2 0h2m2 0h2m1 0h2m4 0h1m3 0h4M4 144.5h1m2 0h8m4 0h1m1 0h3m5 0h1m2 0h5m1 0h2m3 0h2m5 0h2m2 0h1m5 0h5m2 0h1m3 0h1m1 0h1m2 0h1m1 0h2m1 0h3m1 0h2m1 0h8m4 0h2m3 0h1m1 0h1m3 0h2m3 0h5m6 0h4m1 0h2m3 0h1m4 0h1m1 0h7m1 0h2m3 0h2m1 0h1m1 0h1m1 0h2m1 0h1m2 0h1m1 0h5M5 145.5h4m3 0h2m2 0h1m1 0h1m3 0h2m2 0h1m1 0h2m1 0h2m3 0h1m1 0h2m1 0h1m1 0h3m2 0h2m3 0h5m2 0h1m3 0h1m3 0h3m1 0h1m4 0h4m1 0h3m2 0h2m3 0h4m1 0h1m2 0h1m3 0h1m1 0h1m2 0h1m2 0h1m2 0h2m3 0h5m1 0h2m2 0h1m2 0h4m1 0h1m2 0h1m1 0h2m3 0h3m1 0h2m1 0h2m1 0h1m2 0h1m1 0h3m1 0h3m1 0h2m3 0h5M5 146.5h1m1 0h2m1 0h1m1 0h2m1 0h1m1 0h4m1 0h1m2 0h1m1 0h1m2 0h1m1 0h1m1 0h1m1 0h1m1 0h2m2 0h2m2 0h1m2 0h1m1 0h2m4 0h4m1 0h1m1 0h1m3 0h1m1 0h1m1 0h1m8 0h2m1 0h2m1 0h2m1 0h1m1 0h2m4 0h8m2 0h1m1 0h2m2 0h3m1 0h1m1 0h2m2 0h2m1 0h1m1 0h3m3 0h5m1 0h4m1 0h1m1 0h1m2 0h1m1 0h2m4 0h4m2 0h1m1 0h1m2 0h3m1 0h1m1 0h1m1 0h2M4 147.5h1m1 0h1m1 0h1m3 0h1m2 0h1m4 0h1m2 0h5m1 0h2m1 0h1m3 0h2m2 0h1m4 0h3m7 0h1m1 0h2m1 0h1m3 0h1m1 0h1m4 0h1m2 0h1m1 0h3m4 0h1m1 0h2m1 0h1m3 0h1m3 0h1m4 0h8m1 0h2m1 0h1m2 0h1m3 0h5m1 0h2m2 0h1m4 0h2m3 0h3m1 0h1m3 0h1m2 0h1m2 0h2m1 0h1m1 0h1m6 0h2m4 0h1m3 0h3m1 0h1M8 148.5h6m2 0h3m1 0h6m1 0h1m2 0h8m1 0h1m8 0h1m4 0h3m1 0h1m1 0h11m2 0h1m1 0h1m4 0h1m2 0h1m1 0h3m1 0h6m6 0h1m4 0h3m4 0h2m1 0h7m1 0h1m4 0h6m1 0h1m1 0h1m2 0h1m1 0h1m1 0h7m1 0h2m1 0h2m1 0h7m2 0h10m2 0h2M4 149.5h1m1 0h3m7 0h1m3 0h3m1 0h2m3 0h2m10 0h5m1 0h2m4 0h4m11 0h6m1 0h1m1 0h1m2 0h2m1 0h2m1 0h2m2 0h2m2 0h4m1 0h3m4 0h1m1 0h2m5 0h1m1 0h1m2 0h1m1 0h1m1 0h1m1 0h1m6 0h2m1 0h2m1 0h1m4 0h2m1 0h2m2 0h3m2 0h2m3 0h1m1 0h8m1 0h4m1 0h1m1 0h2M4 150.5h1m1 0h1m1 0h1m1 0h1m2 0h2m2 0h1m6 0h1m1 0h3m1 0h3m1 0h1m1 0h1m1 0h4m1 0h1m5 0h5m1 0h1m2 0h1m1 0h6m1 0h2m1 0h2m3 0h1m3 0h2m1 0h3m3 0h1m2 0h3m2 0h3m3 0h3m2 0h1m1 0h2m1 0h6m4 0h1m1 0h2m1 0h2m3 0h5m1 0h2m3 0h1m1 0h1m2 0h3m4 0h1m3 0h3m1 0h1m1 0h2m3 0h1m1 0h1M5 151.5h1m3 0h1m3 0h2m1 0h1m1 0h1m2 0h1m1 0h6m1 0h2m2 0h1m1 0h1m3 0h1m1 0h2m2 0h3m2 0h1m5 0h3m3 0h2m4 0h1m1 0h1m2 0h1m1 0h3m6 0h7m2 0h1m1 0h3m4 0h3m2 0h1m4 0h3m2 0h5m1 0h2m2 0h1m1 0h1m6 0h1m1 0h1m1 0h1m1 0h2m1 0h2m6 0h1m2 0h1m2 0h1m2 0h2m1 0h1m2 0h1m1 0h1m2 0h1m1 0h5M8 152.5h3m5 0h2m1 0h4m3 0h2m2 0h4m4 0h2m1 0h4m3 0h3m1 0h5m2 0h1m1 0h1m4 0h2m1 0h3m2 0h6m5 0h1m1 0h1m1 0h1m1 0h1m8 0h2m1 0h1m8 0h1m6 0h1m1 0h1m6 0h1m1 0h1m1 0h2m3 0h1m2 0h1m1 0h1m1 0h1m1 0h2m2 0h1m1 0h1m3 0h1m1 0h3m1 0h1m1 0h2m2 0h1m1 0h1m2 0h4m3 0h1M4 153.5h1m1 0h1m5 0h2m1 0h7m5 0h1m1 0h1m2 0h1m1 0h2m1 0h3m1 0h1m1 0h2m3 0h1m1 0h1m4 0h2m4 0h1m5 0h2m1 0h2m1 0h1m1 0h2m3 0h1m1 0h3m1 0h5m3 0h4m3 0h1m3 0h3m1 0h1m1 0h2m2 0h1m1 0h2m2 0h2m1 0h4m5 0h4m1 0h2m1 0h1m2 0h2m2 0h6m2 0h1m1 0h1m3 0h3m2 0h4m6 0h1m1 0h2M4 154.5h4m1 0h3m1 0h2m2 0h1m1 0h1m2 0h1m1 0h1m3 0h4m5 0h1m1 0h3m1 0h1m1 0h2m5 0h1m1 0h2m1 0h2m1 0h5m2 0h4m1 0h1m2 0h3m2 0h1m1 0h1m1 0h1m3 0h3m1 0h2m1 0h5m1 0h2m1 0h1m2 0h1m2 0h2m1 0h2m2 0h1m3 0h4m5 0h2m5 0h2m1 0h2m1 0h2m2 0h3m5 0h1m1 0h1m2 0h2m3 0h2m2 0h1m1 0h3m3 0h2M6 155.5h4m1 0h1m1 0h1m4 0h2m6 0h2m1 0h2m1 0h2m1 0h7m1 0h1m2 0h1m2 0h1m5 0h4m3 0h1m1 0h1m1 0h2m3 0h1m2 0h6m3 0h1m3 0h1m2 0h1m4 0h2m4 0h1m2 0h1m3 0h2m1 0h2m1 0h8m3 0h5m3 0h1m1 0h1m3 0h1m2 0h3m1 0h1m4 0h1m2 0h1m5 0h2m2 0h1m1 0h1m4 0h1m2 0h1m1 0h1m1 0h1m1 0h1M4 156.5h1m3 0h1m1 0h1m2 0h1m6 0h1m1 0h1m3 0h2m4 0h13m2 0h1m2 0h1m3 0h1m1 0h1m3 0h2m1 0h1m1 0h3m1 0h1m2 0h1m1 0h1m1 0h6m4 0h4m1 0h1m1 0h2m5 0h2m3 0h2m2 0h5m1 0h2m2 0h1m1 0h1m1 0h1m1 0h1m2 0h1m1 0h3m2 0h1m1 0h1m2 0h3m1 0h4m1 0h4m3 0h2m1 0h6m2 0h2m1 0h1m2 0h1m1 0h2M5 157.5h1m3 0h1m2 0h1m1 0h3m2 0h6m2 0h2m1 0h5m2 0h1m1 0h3m1 0h4m1 0h1m2 0h1m2 0h1m1 0h1m3 0h1m2 0h1m2 0h1m1 0h2m2 0h3m2 0h1m1 0h1m2 0h3m2 0h1m1 0h2m1 0h1m1 0h4m1 0h2m5 0h2m1 0h1m2 0h1m2 0h3m1 0h1m2 0h3m1 0h1m2 0h1m4 0h1m1 0h2m3 0h1m6 0h7m1 0h1m3 0h1m1 0h1m1 0h2m2 0h2m3 0h1m1 0h1m3 0h2M6 158.5h5m1 0h1m5 0h1m5 0h1m1 0h4m1 0h1m4 0h2m1 0h1m1 0h3m5 0h1m2 0h1m2 0h1m1 0h2m1 0h2m2 0h1m3 0h3m1 0h1m7 0h3m1 0h1m3 0h5m4 0h2m2 0h2m1 0h1m3 0h4m2 0h1m3 0h1m2 0h1m1 0h1m3 0h1m1 0h1m4 0h1m1 0h4m5 0h1m1 0h2m2 0h1m1 0h2m3 0h4m1 0h1m2 0h1m3 0h3m3 0h1m1 0h2M4 159.5h1m6 0h1m2 0h2m2 0h4m2 0h1m3 0h3m2 0h2m1 0h2m1 0h3m1 0h1m2 0h2m3 0h3m4 0h2m1 0h2m1 0h1m1 0h1m6 0h2m1 0h1m1 0h2m1 0h1m4 0h3m2 0h1m1 0h1m2 0h4m1 0h1m2 0h1m1 0h1m1 0h1m1 0h1m3 0h2m2 0h3m2 0h1m1 0h2m3 0h3m1 0h2m3 0h1m2 0h6m1 0h1m1 0h1m2 0h2m4 0h1m2 0h5m3 0h2m1 0h1m1 0h3m1 0h1M6 160.5h1m1 0h11m2 0h3m1 0h4m1 0h1m3 0h1m1 0h6m1 0h2m2 0h1m1 0h3m7 0h3m1 0h1m6 0h1m2 0h3m2 0h4m1 0h7m1 0h1m1 0h1m3 0h1m1 0h2m4 0h1m3 0h1m2 0h1m4 0h1m1 0h1m1 0h1m5 0h2m1 0h1m8 0h2m1 0h1m1 0h1m5 0h1m4 0h5m2 0h2m4 0h1m1 0h1m2 0h5m1 0h2M4 161.5h1m1 0h1m5 0h2m1 0h1m1 0h1m1 0h1m1 0h1m2 0h3m1 0h1m4 0h3m1 0h1m1 0h1m2 0h1m1 0h3m1 0h1m1 0h1m2 0h2m1 0h2m3 0h1m1 0h1m2 0h2m1 0h1m5 0h3m1 0h1m1 0h1m2 0h1m2 0h1m1 0h6m1 0h2m1 0h2m2 0h1m1 0h3m1 0h1m1 0h2m2 0h1m1 0h2m1 0h1m1 0h1m1 0h1m1 0h2m1 0h1m1 0h1m1 0h2m1 0h4m4 0h2m1 0h4m1 0h1m2 0h2m1 0h1m3 0h1m1 0h2m1 0h3m2 0h4m3 0h2M7 162.5h1m1 0h3m2 0h1m1 0h1m2 0h2m1 0h2m2 0h1m1 0h2m1 0h1m1 0h1m2 0h1m1 0h1m2 0h3m1 0h2m2 0h1m1 0h2m2 0h1m1 0h6m1 0h2m1 0h2m1 0h1m1 0h2m1 0h1m1 0h1m1 0h1m1 0h2m1 0h1m4 0h5m3 0h2m2 0h5m2 0h1m1 0h1m3 0h1m4 0h2m2 0h6m1 0h2m1 0h3m3 0h3m1 0h3m3 0h1m1 0h1m1 0h1m1 0h1m1 0h1m1 0h2m2 0h1m1 0h2m3 0h1m2 0h1m4 0h1M6 163.5h3m7 0h1m1 0h5m2 0h3m5 0h1m1 0h2m2 0h1m5 0h3m4 0h2m4 0h2m1 0h2m1 0h1m1 0h1m6 0h4m1 0h1m4 0h1m1 0h3m3 0h1m1 0h2m1 0h1m1 0h1m2 0h4m1 0h3m6 0h1m1 0h2m1 0h1m2 0h1m1 0h1m2 0h1m1 0h2m1 0h1m1 0h3m4 0h6m5 0h2m1 0h1m3 0h2m3 0h2m1 0h1m2 0h4m1 0h4M7 164.5h4m2 0h1m2 0h2m2 0h1m1 0h1m1 0h1m7 0h1m3 0h2m1 0h1m3 0h2m2 0h2m1 0h2m1 0h1m1 0h1m3 0h1m3 0h1m1 0h3m1 0h1m1 0h1m2 0h1m1 0h4m3 0h6m2 0h1m1 0h3m1 0h1m2 0h1m9 0h1m1 0h4m1 0h3m1 0h1m1 0h1m3 0h2m1 0h1m1 0h2m5 0h1m1 0h2m7 0h2m3 0h5m1 0h2m7 0h1m1 0h1m2 0h3m1 0h1M4 165.5h3m1 0h1m2 0h1m1 0h1m1 0h1m1 0h1m1 0h1m2 0h3m2 0h2m1 0h1m2 0h2m3 0h4m1 0h3m1 0h1m2 0h2m1 0h1m1 0h3m2 0h1m2 0h2m1 0h1m1 0h2m1 0h6m2 0h2m1 0h1m1 0h1m2 0h4m2 0h3m1 0h1m1 0h1m3 0h2m1 0h2m1 0h1m7 0h2m1 0h5m1 0h2m1 0h1m1 0h1m1 0h6m5 0h1m3 0h2m1 0h6m1 0h1m2 0h1m2 0h1m3 0h3m1 0h2m1 0h1m1 0h2m1 0h1M4 166.5h1m1 0h1m1 0h1m1 0h1m4 0h4m1 0h1m2 0h7m3 0h4m1 0h2m1 0h1m1 0h1m3 0h1m1 0h1m2 0h2m1 0h1m3 0h6m2 0h6m4 0h1m1 0h4m1 0h2m4 0h3m5 0h1m1 0h3m1 0h2m2 0h4m1 0h2m4 0h3m1 0h5m1 0h1m2 0h3m1 0h1m2 0h7m1 0h1m1 0h2m2 0h2m2 0h1m2 0h1m1 0h1m3 0h1m3 0h1m4 0h1m3 0h1M5 167.5h4m3 0h1m4 0h4m1 0h1m1 0h4m3 0h2m2 0h2m1 0h2m1 0h1m1 0h3m5 0h2m2 0h1m2 0h1m1 0h1m2 0h2m1 0h1m6 0h2m1 0h1m1 0h2m1 0h1m1 0h1m1 0h3m3 0h1m4 0h1m4 0h1m3 0h2m1 0h1m1 0h1m1 0h1m1 0h2m2 0h3m2 0h2m2 0h2m2 0h1m2 0h1m2 0h1m1 0h1m1 0h3m1 0h4m3 0h3m2 0h1m1 0h3m3 0h3m1 0h1m3 0h2m2 0h4M7 168.5h5m5 0h2m1 0h1m2 0h3m3 0h4m2 0h5m6 0h4m4 0h2m1 0h1m2 0h2m3 0h1m1 0h2m4 0h2m2 0h2m5 0h1m1 0h1m5 0h4m3 0h2m5 0h2m1 0h1m1 0h2m6 0h1m1 0h1m3 0h1m1 0h4m1 0h1m2 0h1m4 0h3m1 0h1m1 0h2m2 0h1m5 0h1m1 0h1m1 0h1m1 0h1m7 0h1m1 0h2m1 0h1M4 169.5h2m5 0h4m1 0h2m3 0h1m1 0h1m1 0h1m1 0h1m1 0h1m1 0h1m3 0h1m4 0h2m2 0h3m1 0h5m2 0h3m3 0h1m4 0h1m1 0h1m1 0h4m2 0h1m2 0h10m1 0h1m1 0h1m1 0h1m1 0h1m2 0h2m2 0h1m2 0h1m1 0h1m2 0h1m10 0h1m1 0h1m1 0h2m3 0h1m1 0h2m1 0h4m3 0h1m3 0h2m1 0h1m1 0h2m2 0h1m5 0h1m1 0h1m3 0h3m2 0h2m5 0h1M4 170.5h3m2 0h2m1 0h1m3 0h2m1 0h1m1 0h5m1 0h1m1 0h1m3 0h2m2 0h1m3 0h1m4 0h1m3 0h6m2 0h1m2 0h2m1 0h2m1 0h4m1 0h1m4 0h1m2 0h1m1 0h1m1 0h2m3 0h4m2 0h1m1 0h2m2 0h4m2 0h4m3 0h1m2 0h5m3 0h3m1 0h2m7 0h2m1 0h1m1 0h3m1 0h1m1 0h1m3 0h2m5 0h1m4 0h1m3 0h1m1 0h3m1 0h1m1 0h1m1 0h1M7 171.5h1m6 0h1m1 0h2m5 0h1m3 0h3m1 0h1m1 0h1m1 0h1m1 0h1m2 0h2m4 0h2m1 0h1m2 0h2m3 0h2m7 0h2m2 0h1m2 0h2m1 0h1m1 0h2m6 0h1m1 0h1m1 0h2m4 0h2m5 0h3m2 0h1m1 0h3m2 0h2m1 0h1m1 0h2m1 0h1m1 0h1m1 0h7m2 0h4m3 0h1m2 0h1m1 0h2m1 0h1m2 0h1m1 0h2m1 0h1m3 0h1m1 0h2m4 0h1m2 0h1m2 0h2m1 0h1M5 172.5h1m1 0h1m1 0h2m4 0h5m1 0h1m3 0h3m1 0h2m1 0h5m1 0h1m3 0h1m7 0h2m2 0h1m4 0h10m1 0h2m1 0h1m1 0h7m1 0h1m1 0h1m2 0h6m4 0h1m1 0h2m1 0h1m3 0h1m1 0h6m1 0h6m1 0h1m3 0h2m1 0h1m1 0h2m3 0h1m1 0h4m1 0h6m2 0h1m5 0h3m1 0h3m3 0h1m3 0h6m1 0h2M12 173.5h1m2 0h1m1 0h5m1 0h2m3 0h5m3 0h1m1 0h4m1 0h3m2 0h2m1 0h1m1 0h1m1 0h3m2 0h1m3 0h1m2 0h1m1 0h2m3 0h3m3 0h1m2 0h1m2 0h3m3 0h1m1 0h2m3 0h2m5 0h1m1 0h1m3 0h2m2 0h1m3 0h8m5 0h4m1 0h2m3 0h2m3 0h2m3 0h2m4 0h1m1 0h5m2 0h1m1 0h1m1 0h1m3 0h2m2 0h1M4 174.5h7m1 0h1m1 0h2m5 0h1m3 0h4m1 0h1m1 0h1m1 0h1m1 0h3m1 0h1m1 0h2m3 0h1m1 0h4m5 0h1m1 0h1m1 0h1m1 0h1m2 0h5m1 0h1m7 0h2m1 0h2m1 0h2m1 0h1m1 0h2m2 0h1m1 0h7m4 0h3m2 0h3m1 0h1m1 0h2m2 0h3m2 0h1m2 0h1m1 0h1m1 0h1m1 0h5m1 0h1m1 0h1m1 0h1m5 0h2m1 0h1m1 0h2m1 0h2m1 0h3m1 0h2m1 0h1m1 0h1m1 0h1m1 0h2M4 175.5h1m5 0h1m5 0h2m3 0h1m1 0h1m2 0h1m2 0h4m3 0h1m1 0h1m1 0h2m3 0h2m2 0h1m1 0h1m1 0h1m1 0h2m1 0h3m3 0h4m3 0h1m1 0h6m6 0h2m1 0h1m3 0h1m1 0h1m1 0h1m1 0h2m1 0h4m2 0h2m1 0h1m2 0h1m1 0h2m3 0h1m2 0h2m3 0h1m1 0h3m2 0h1m1 0h3m2 0h3m3 0h1m2 0h4m5 0h2m3 0h4m2 0h2m3 0h4M4 176.5h1m1 0h3m1 0h1m1 0h2m1 0h1m1 0h3m3 0h2m1 0h1m1 0h1m3 0h10m3 0h1m2 0h1m1 0h1m1 0h1m1 0h2m1 0h1m1 0h8m2 0h1m1 0h1m1 0h1m2 0h1m2 0h1m2 0h1m1 0h3m1 0h5m2 0h1m1 0h1m1 0h2m4 0h2m4 0h3m2 0h6m1 0h3m1 0h7m1 0h1m3 0h10m1 0h1m1 0h1m2 0h1m3 0h1m2 0h3m3 0h9m2 0h2M4 177.5h1m1 0h3m1 0h1m1 0h2m1 0h1m2 0h2m2 0h3m1 0h1m1 0h1m1 0h6m1 0h4m1 0h1m1 0h1m2 0h1m2 0h1m4 0h2m4 0h1m2 0h7m1 0h1m2 0h1m1 0h1m2 0h1m4 0h1m2 0h1m2 0h1m1 0h2m4 0h1m4 0h3m5 0h2m1 0h1m5 0h5m1 0h1m1 0h1m1 0h1m1 0h2m1 0h3m2 0h1m2 0h1m5 0h3m2 0h2m1 0h1m2 0h4m3 0h2m3 0h6M4 178.5h1m1 0h3m1 0h1m1 0h1m3 0h1m2 0h1m1 0h2m2 0h3m2 0h1m2 0h2m3 0h1m2 0h1m5 0h1m1 0h2m1 0h1m1 0h2m1 0h5m2 0h1m2 0h2m1 0h1m1 0h2m1 0h1m1 0h1m4 0h3m2 0h1m1 0h3m3 0h4m2 0h2m1 0h1m7 0h2m3 0h1m1 0h1m2 0h3m1 0h1m5 0h3m3 0h1m2 0h1m5 0h3m3 0h1m1 0h1m1 0h2m1 0h1m1 0h2m1 0h1m1 0h1m4 0h1m5 0h1M4 179.5h1m5 0h1m1 0h1m4 0h2m5 0h1m2 0h2m4 0h3m2 0h1m1 0h1m1 0h2m1 0h2m8 0h5m1 0h4m1 0h1m2 0h1m4 0h1m1 0h3m4 0h1m1 0h3m4 0h1m3 0h1m2 0h2m1 0h4m2 0h1m8 0h1m1 0h1m1 0h3m1 0h2m4 0h3m2 0h2m6 0h2m2 0h2m2 0h1m1 0h2m1 0h1m1 0h1m4 0h3m2 0h1m1 0h3m2 0h3M4 180.5h7m1 0h1m4 0h3m3 0h1m5 0h1m2 0h4m3 0h1m1 0h1m3 0h1m1 0h5m2 0h2m4 0h1m1 0h1m1 0h3m1 0h1m5 0h1m1 0h1m4 0h3m3 0h2m1 0h1m2 0h3m3 0h2m2 0h1m6 0h1m1 0h1m3 0h3m1 0h1m2 0h1m3 0h2m1 0h1m1 0h2m5 0h2m1 0h3m1 0h1m1 0h1m1 0h1m2 0h1m1 0h1m1 0h2m3 0h2m1 0h1m1 0h1m1 0h2m4 0h3m1 0h1"/></svg>
