<?xml version="1.0" encoding="utf-8"?><!DOCTYPE svg PUBLIC "-//W3C//DTD SVG 1.1//EN" "http://www.w3.org/Graphics/SVG/1.1/DTD/svg11.dtd"><svg xmlns="http://www.w3.org/2000/svg" viewBox="0 0 185 185" shape-rendering="crispEdges"><path fill="#ffffff" d="M0 0h185v185H0z"/><path stroke="#000000" d="M4 4.5h7m2 0h1m1 0h2m1 0h2m2 0h1m1 0h1m1 0h1m1 0h1m3 0h2m3 0h2m5 0h1m3 0h1m7 0h2m1 0h9m2 0h2m1 0h1m1 0h1m3 0h2m1 0h1m2 0h1m1 0h1m1 0h1m1 0h5m3 0h3m2 0h1m1 0h4m2 0h1m8 0h4m1 0h1m4 0h1m3 0h4m4 0h1m7 0h1m1 0h2m1 0h1m1 0h1m2 0h2m1 0h2m2 0h1m1 0h1m3 0h7M4 5.5h1m5 0h1m1 0h2m1 0h1m4 0h2m2 0h1m5 0h1m1 0h2m2 0h1m1 0h1m2 0h3m2 0h1m5 0h1m5 0h2m2 0h3m2 0h2m1 0h4m3 0h1m1 0h2m1 0h1m1 0h1m5 0h1m4 0h1m1 0h3m1 0h2m1 0h1m3 0h1m1 0h2m2 0h1m1 0h1m1 0h4m5 0h1m1 0h1m1 0h1m3 0h1m2 0h2m1 0h1m1 0h2m2 0h2m1 0h1m2 0h1m3 0h1m1 0h5m3 0h1m2 0h1m1 0h1m1 0h1m5 0h1M4 6.5h1m1 0h3m1 0h1m2 0h5m3 0h1m3 0h5m2 0h1m1 0h1m1 0h1m9 0h2m1 0h1m1 0h1m5 0h2m1 0h1m5 0h2m3 0h1m2 0h3m2 0h1m5 0h4m2 0h1m1 0h1m2 0h1m1 0h2m2 0h1m1 0h2m2 0h1m1 0h1m3 0h3m2 0h1m2 0h1m1 0h1m1 0h1m1 0h2m3 0h2m1 0h3m3 0h1m1 0h1m1 0h1m4 0h1m2 0h3m7 0h1m1 0h2m2 0h1m3 0h1m1 0h3m1 0h1M4 7.5h1m1 0h3m1 0h1m1 0h1m1 0h4m1 0h1m2 0h2m1 0h4m1 0h1m1 0h5m1 0h3m1 0h2m4 0h5m1 0h1m1 0h1m2 0h1m1 0h1m5 0h1m3 0h1m1 0h2m2 0h2m1 0h1m1 0h1m1 0h1m1 0h1m3 0h1m1 0h1m1 0h1m2 0h1m1 0h2m6 0h1m3 0h2m1 0h2m1 0h5m5 0h6m2 0h1m1 0h1m1 0h1m1 0h5m2 0h1m1 0h1m1 0h1m4 0h1m1 0h1m1 0h3m4 0h1m2 0h2m1 0h1m1 0h3m1 0h1M4 8.5h1m1 0h3m1 0h1m6 0h1m2 0h1m2 0h3m1 0h3m2 0h7m2 0h1m1 0h2m3 0h1m5 0h1m1 0h10m2 0h2m3 0h1m2 0h2m3 0h2m1 0h2m2 0h7m10 0h2m2 0h1m1 0h3m1 0h6m1 0h3m1 0h2m3 0h1m1 0h2m1 0h3m2 0h8m3 0h2m2 0h1m1 0h1m3 0h4m1 0h2m5 0h1m1 0h3m1 0h1M4 9.5h1m5 0h1m1 0h1m1 0h1m1 0h2m2 0h3m1 0h1m3 0h1m3 0h1m3 0h1m1 0h4m4 0h1m5 0h1m2 0h1m1 0h4m3 0h2m1 0h7m6 0h3m1 0h2m1 0h2m3 0h1m4 0h1m1 0h2m1 0h1m4 0h4m2 0h1m2 0h1m3 0h5m1 0h1m1 0h2m1 0h2m1 0h1m2 0h3m2 0h1m1 0h1m3 0h1m11 0h1m8 0h2m1 0h1m1 0h1m5 0h1M4 10.5h7m1 0h1m1 0h1m1 0h1m1 0h1m1 0h1m1 0h1m1 0h1m1 0h1m1 0h1m1 0h1m1 0h1m1 0h1m1 0h1m1 0h1m1 0h1m1 0h1m1 0h1m1 0h1m1 0h1m1 0h1m1 0h1m1 0h1m1 0h1m1 0h1m1 0h1m1 0h1m1 0h1m1 0h1m1 0h1m1 0h1m1 0h1m1 0h1m1 0h1m1 0h1m1 0h1m1 0h1m1 0h1m1 0h1m1 0h1m1 0h1m1 0h1m1 0h1m1 0h1m1 0h1m1 0h1m1 0h1m1 0h1m1 0h1m1 0h1m1 0h1m1 0h1m1 0h1m1 0h1m1 0h1m1 0h1m1 0h1m1 0h1m1 0h1m1 0h1m1 0h1m1 0h1m1 0h1m1 0h1m1 0h1m1 0h1m1 0h1m1 0h1m1 0h1m1 0h1m1 0h1m1 0h1m1 0h1m1 0h1m1 0h1m1 0h1m1 0h1m1 0h1m1 0h1m1 0h1m1 0h1m1 0h1m1 0h7M13 11.5h2m2 0h2m4 0h1m1 0h1m2 0h1m2 0h2m3 0h1m1 0h4m1 0h1m2 0h1m1 0h2m1 0h3m4 0h1m1 0h1m3 0h1m1 0h1m4 0h1m2 0h5m7 0h1m1 0h1m3 0h1m3 0h1m2 0h1m1 0h1m2 0h1m3 0h1m1 0h1m2 0h1m2 0h1m3 0h1m2 0h1m1 0h1m10 0h3m1 0h2m1 0h2m3 0h2m2 0h3m4 0h3m1 0h1m2 0h1m1 0h1m3 0h1M4 12.5h5m1 0h3m2 0h1m2 0h2m1 0h1m1 0h2m2 0h1m1 0h8m3 0h3m1 0h2m1 0h2m1 0h4m1 0h2m3 0h5m2 0h1m2 0h1m3 0h1m1 0h4m3 0h1m2 0h7m1 0h1m4 0h4m3 0h2m3 0h2m3 0h6m1 0h1m3 0h4m1 0h1m2 0h3m1 0h2m1 0h8m1 0h1m10 0h1m4 0h1m1 0h5m1 0h1m1 0h1m1 0h1M4 13.5h1m1 0h4m2 0h3m1 0h2m1 0h2m1 0h1m1 0h1m1 0h1m3 0h2m1 0h1m1 0h2m1 0h1m2 0h2m1 0h1m2 0h1m1 0h2m3 0h3m1 0h7m1 0h1m1 0h1m1 0h3m2 0h1m2 0h1m1 0h3m1 0h1m1 0h3m3 0h4m1 0h1m1 0h1m4 0h1m1 0h2m4 0h2m1 0h4m3 0h3m1 0h2m1 0h1m3 0h4m1 0h1m5 0h2m3 0h5m2 0h1m1 0h1m2 0h4m2 0h2m1 0h2m3 0h1m1 0h2m1 0h1M6 14.5h1m3 0h2m2 0h1m1 0h1m1 0h2m1 0h1m3 0h2m2 0h2m3 0h1m2 0h2m1 0h1m1 0h2m1 0h3m4 0h2m1 0h1m1 0h1m2 0h1m1 0h1m1 0h1m2 0h4m1 0h1m6 0h5m5 0h2m5 0h1m1 0h2m2 0h1m1 0h1m2 0h2m2 0h1m1 0h3m2 0h1m2 0h6m2 0h1m1 0h1m1 0h1m1 0h3m5 0h2m1 0h3m2 0h1m1 0h3m1 0h1m2 0h1m4 0h1m1 0h1m1 0h1m4 0h1m1 0h3M6 15.5h1m1 0h2m1 0h1m1 0h4m1 0h1m1 0h2m2 0h6m1 0h1m1 0h2m1 0h5m4 0h2m2 0h1m2 0h2m1 0h1m2 0h1m1 0h2m1 0h1m1 0h3m3 0h1m1 0h2m1 0h1m1 0h2m3 0h1m1 0h4m4 0h2m1 0h1m1 0h1m3 0h1m1 0h2m2 0h1m1 0h1m2 0h2m4 0h1m5 0h3m1 0h2m3 0h1m2 0h1m2 0h3m3 0h1m2 0h1m1 0h1m2 0h1m2 0h1m3 0h1m1 0h1m1 0h3m1 0h1m1 0h6m1 0h2M5 16.5h3m1 0h5m1 0h2m1 0h1m2 0h1m1 0h1m2 0h1m2 0h2m2 0h1m1 0h2m1 0h1m6 0h7m2 0h2m3 0h1m3 0h5m4 0h2m2 0h1m5 0h1m2 0h3m2 0h1m2 0h2m2 0h1m1 0h2m1 0h2m3 0h1m1 0h1m2 0h1m5 0h2m7 0h2m1 0h1m1 0h2m3 0h1m2 0h1m1 0h2m1 0h1m2 0h3m1 0h1m2 0h2m1 0h3m2 0h3m1 0h1m2 0h1m1 0h1m1 0h2m3 0h1M4 17.5h4m3 0h2m1 0h1m1 0h1m5 0h1m5 0h1m2 0h1m1 0h1m1 0h2m1 0h2m1 0h1m1 0h2m3 0h1m1 0h1m3 0h7m1 0h7m2 0h3m5 0h3m2 0h1m3 0h5m1 0h2m3 0h2m2 0h1m2 0h1m4 0h3m1 0h2m2 0h4m1 0h1m1 0h2m5 0h2m1 0h1m1 0h2m1 0h1m1 0h3m1 0h2m2 0h3m2 0h3m2 0h5m2 0h2m1 0h1m5 0h1m2 0h1M6 18.5h1m1 0h4m1 0h1m2 0h2m1 0h1m1 0h5m1 0h1m1 0h2m3 0h6m1 0h1m1 0h1m3 0h1m2 0h1m1 0h1m2 0h1m1 0h2m5 0h2m2 0h6m5 0h2m1 0h1m2 0h1m2 0h1m1 0h2m4 0h1m1 0h3m1 0h3m2 0h4m1 0h1m1 0h2m1 0h2m1 0h1m1 0h4m3 0h1m1 0h1m1 0h4m1 0h2m1 0h1m1 0h2m1 0h4m7 0h2m1 0h1m2 0h1m2 0h1m2 0h3m1 0h2m3 0h1M4 19.5h1m4 0h1m2 0h2m1 0h2m1 0h5m7 0h3m1 0h1m3 0h1m6 0h2m4 0h1m3 0h2m1 0h1m1 0h2m1 0h1m2 0h1m2 0h3m1 0h2m1 0h1m1 0h2m3 0h1m1 0h3m1 0h1m2 0h1m2 0h4m2 0h2m1 0h1m1 0h3m1 0h1m2 0h1m1 0h4m2 0h1m1 0h3m1 0h2m2 0h3m2 0h3m1 0h1m1 0h1m3 0h2m6 0h1m1 0h1m8 0h2m2 0h1m2 0h5m1 0h1M5 20.5h3m1 0h4m2 0h2m1 0h2m3 0h1m2 0h1m1 0h1m2 0h1m1 0h2m3 0h5m5 0h1m1 0h3m1 0h1m1 0h2m3 0h1m3 0h2m1 0h2m1 0h1m4 0h1m1 0h3m2 0h1m1 0h2m3 0h2m1 0h2m3 0h3m1 0h2m1 0h2m4 0h4m1 0h1m1 0h3m6 0h5m1 0h1m1 0h1m1 0h1m1 0h5m1 0h2m1 0h3m1 0h1m2 0h1m2 0h1m1 0h8m1 0h7m1 0h1m1 0h2M4 21.5h1m2 0h2m2 0h1m2 0h3m1 0h3m2 0h1m3 0h1m1 0h1m2 0h1m2 0h1m1 0h3m1 0h1m1 0h3m4 0h1m5 0h2m2 0h1m1 0h4m1 0h1m3 0h1m3 0h3m1 0h6m3 0h7m2 0h1m1 0h3m1 0h2m1 0h1m5 0h2m1 0h1m1 0h1m2 0h1m2 0h5m3 0h1m1 0h2m1 0h1m1 0h1m4 0h3m1 0h1m2 0h1m1 0h2m1 0h4m2 0h1m2 0h2m2 0h3m2 0h1m3 0h3M4 22.5h3m1 0h1m1 0h3m1 0h3m3 0h1m2 0h3m2 0h1m1 0h1m2 0h1m1 0h1m1 0h1m1 0h1m3 0h1m1 0h3m4 0h4m2 0h2m1 0h1m3 0h1m2 0h1m1 0h1m1 0h2m1 0h1m1 0h1m1 0h2m1 0h4m1 0h2m1 0h2m1 0h1m1 0h2m1 0h2m1 0h3m1 0h1m2 0h1m1 0h3m1 0h1m3 0h2m4 0h4m1 0h1m1 0h1m1 0h1m1 0h1m1 0h2m2 0h1m2 0h4m6 0h1m2 0h1m2 0h1m1 0h2m2 0h1m2 0h1m2 0h1m1 0h1m2 0h3M5 23.5h2m2 0h1m2 0h2m1 0h2m5 0h1m1 0h1m3 0h1m2 0h5m1 0h1m2 0h2m3 0h4m2 0h2m4 0h6m1 0h1m1 0h2m3 0h1m1 0h4m1 0h2m1 0h1m1 0h1m1 0h2m1 0h1m4 0h1m1 0h4m2 0h1m1 0h3m2 0h1m5 0h2m3 0h1m6 0h7m1 0h2m2 0h2m1 0h3m1 0h1m6 0h5m3 0h1m2 0h5m3 0h2m2 0h2m1 0h2M4 24.5h1m2 0h2m1 0h1m1 0h1m1 0h1m1 0h1m1 0h2m1 0h1m3 0h2m2 0h2m1 0h2m6 0h1m1 0h2m1 0h2m1 0h5m1 0h1m4 0h1m1 0h1m1 0h1m2 0h4m7 0h2m2 0h1m1 0h4m3 0h1m3 0h1m3 0h1m1 0h1m5 0h2m2 0h3m3 0h1m6 0h1m1 0h1m1 0h2m1 0h1m1 0h2m3 0h1m1 0h6m2 0h2m1 0h2m1 0h2m4 0h1m2 0h2m4 0h3m1 0h1m1 0h1M4 25.5h1m1 0h1m1 0h1m3 0h2m3 0h6m1 0h3m2 0h3m2 0h1m3 0h3m1 0h1m1 0h1m1 0h1m1 0h3m2 0h2m1 0h2m3 0h5m2 0h2m2 0h1m5 0h3m2 0h2m1 0h1m1 0h1m1 0h6m3 0h3m4 0h3m3 0h2m2 0h3m1 0h3m1 0h3m2 0h1m1 0h1m1 0h2m1 0h1m1 0h2m4 0h2m2 0h4m2 0h1m1 0h3m3 0h1m1 0h1m2 0h2m1 0h2m1 0h1m3 0h4M6 26.5h1m1 0h4m1 0h7m2 0h1m2 0h1m1 0h1m3 0h1m1 0h1m4 0h4m1 0h1m2 0h1m2 0h2m1 0h1m5 0h1m1 0h2m2 0h2m1 0h2m1 0h3m2 0h1m3 0h2m1 0h3m8 0h1m1 0h4m1 0h4m1 0h1m1 0h7m3 0h4m2 0h2m1 0h2m1 0h2m1 0h2m1 0h5m2 0h1m1 0h1m1 0h2m10 0h1m1 0h2m4 0h1m4 0h2m1 0h1m1 0h4M5 27.5h3m3 0h1m5 0h3m1 0h4m1 0h4m3 0h1m2 0h1m1 0h1m1 0h1m3 0h1m1 0h2m1 0h1m2 0h1m2 0h1m1 0h4m1 0h2m1 0h2m2 0h1m1 0h1m1 0h2m1 0h1m1 0h2m1 0h1m3 0h3m3 0h1m1 0h1m2 0h1m1 0h1m2 0h4m1 0h1m1 0h1m1 0h2m1 0h1m7 0h4m4 0h3m3 0h3m1 0h4m8 0h1m2 0h2m1 0h1m1 0h2m3 0h5m2 0h6m1 0h1M5 28.5h3m1 0h3m2 0h3m1 0h4m1 0h1m2 0h3m2 0h1m1 0h7m1 0h3m3 0h1m2 0h8m5 0h1m1 0h2m1 0h3m3 0h1m2 0h1m1 0h1m1 0h1m5 0h1m2 0h1m8 0h2m1 0h2m1 0h2m3 0h1m1 0h1m5 0h1m2 0h1m3 0h1m1 0h4m1 0h1m6 0h1m2 0h2m3 0h5m4 0h1m1 0h1m2 0h2m1 0h1m2 0h1m1 0h2m1 0h2m3 0h1m1 0h2M5 29.5h1m2 0h2m1 0h1m4 0h4m1 0h2m2 0h4m4 0h1m1 0h1m2 0h1m1 0h1m2 0h2m1 0h1m1 0h1m4 0h5m3 0h2m1 0h1m2 0h3m1 0h2m1 0h2m1 0h2m3 0h4m2 0h1m1 0h6m1 0h1m1 0h2m3 0h1m1 0h2m3 0h2m2 0h2m2 0h1m2 0h1m1 0h3m7 0h3m1 0h1m2 0h1m1 0h1m1 0h1m2 0h1m2 0h2m2 0h1m1 0h1m3 0h2m1 0h1m1 0h1m1 0h1m6 0h3m1 0h2M6 30.5h3m1 0h2m2 0h2m3 0h1m1 0h1m1 0h1m1 0h4m1 0h1m2 0h1m5 0h2m1 0h2m1 0h1m3 0h1m2 0h1m2 0h1m2 0h3m2 0h3m1 0h4m1 0h2m3 0h1m2 0h6m2 0h2m1 0h1m1 0h1m4 0h3m1 0h1m1 0h2m3 0h3m2 0h1m3 0h3m1 0h1m1 0h2m1 0h1m2 0h1m1 0h1m1 0h1m1 0h2m1 0h1m4 0h4m2 0h2m1 0h3m1 0h1m2 0h1m2 0h1m5 0h2m2 0h2M4 31.5h2m3 0h1m1 0h2m1 0h2m4 0h2m2 0h2m1 0h1m1 0h1m2 0h5m2 0h1m1 0h1m4 0h1m1 0h2m1 0h2m2 0h4m1 0h3m1 0h1m1 0h1m4 0h1m1 0h4m1 0h1m6 0h3m4 0h2m2 0h1m2 0h1m3 0h5m2 0h1m3 0h2m3 0h1m1 0h4m2 0h3m3 0h1m1 0h3m2 0h1m1 0h1m3 0h1m6 0h4m2 0h1m4 0h1m1 0h1m2 0h1m2 0h1m1 0h1m1 0h1m1 0h3M4 32.5h2m2 0h9m1 0h1m2 0h2m2 0h3m2 0h1m1 0h9m1 0h3m2 0h2m1 0h1m2 0h3m2 0h1m1 0h7m3 0h1m5 0h4m4 0h3m1 0h8m1 0h1m1 0h4m2 0h1m1 0h1m1 0h1m2 0h1m1 0h1m1 0h5m4 0h1m1 0h4m1 0h2m6 0h1m1 0h9m1 0h1m3 0h3m1 0h4m1 0h1m1 0h11m2 0h1M4 33.5h5m3 0h1m1 0h3m2 0h2m1 0h1m3 0h1m4 0h2m3 0h2m1 0h1m1 0h2m1 0h1m2 0h2m6 0h2m3 0h1m3 0h1m2 0h6m2 0h3m2 0h1m1 0h2m1 0h1m1 0h2m3 0h1m1 0h2m1 0h1m2 0h2m2 0h1m1 0h1m4 0h2m3 0h1m3 0h3m1 0h1m1 0h1m7 0h1m1 0h4m1 0h1m2 0h1m3 0h2m1 0h2m1 0h1m1 0h2m5 0h2m2 0h4m1 0h1m3 0h5M4 34.5h1m3 0h1m1 0h1m1 0h4m1 0h1m2 0h1m1 0h4m1 0h1m4 0h1m1 0h1m1 0h1m1 0h2m3 0h1m1 0h3m1 0h1m2 0h3m2 0h2m1 0h1m1 0h1m1 0h2m2 0h1m1 0h1m2 0h1m1 0h1m1 0h1m1 0h4m1 0h1m2 0h2m1 0h1m1 0h2m2 0h1m1 0h2m1 0h5m1 0h2m1 0h2m2 0h1m1 0h1m1 0h1m1 0h1m1 0h1m1 0h1m1 0h2m1 0h2m3 0h1m2 0h3m1 0h4m1 0h1m1 0h1m2 0h1m1 0h1m3 0h4m1 0h2m1 0h3m1 0h1m2 0h1m1 0h1m1 0h2M7 35.5h2m3 0h4m2 0h8m1 0h3m2 0h1m3 0h3m2 0h1m2 0h1m1 0h1m1 0h2m1 0h2m2 0h1m2 0h1m1 0h1m3 0h1m1 0h2m1 0h1m1 0h1m1 0h4m1 0h1m7 0h1m1 0h1m3 0h3m1 0h1m2 0h1m1 0h2m1 0h3m1 0h1m2 0h1m2 0h1m1 0h1m3 0h4m4 0h2m2 0h2m1 0h1m1 0h1m2 0h3m1 0h1m3 0h1m2 0h1m1 0h3m1 0h1m1 0h1m1 0h1m1 0h1m2 0h1m5 0h1m3 0h1m1 0h1M5 36.5h2m1 0h6m1 0h1m3 0h5m1 0h1m1 0h10m1 0h2m3 0h2m2 0h5m2 0h1m4 0h8m1 0h2m3 0h4m1 0h3m2 0h1m1 0h2m1 0h5m1 0h1m2 0h1m2 0h1m2 0h1m1 0h1m6 0h1m3 0h5m6 0h4m1 0h1m2 0h1m1 0h1m2 0h1m1 0h1m1 0h5m1 0h1m1 0h4m2 0h1m3 0h1m4 0h1m1 0h8M4 37.5h1m2 0h1m5 0h1m3 0h2m4 0h1m2 0h3m1 0h5m3 0h1m1 0h2m1 0h1m4 0h3m2 0h6m2 0h1m1 0h1m1 0h3m1 0h3m3 0h2m3 0h1m1 0h3m2 0h1m1 0h2m1 0h1m1 0h4m1 0h3m1 0h1m1 0h2m8 0h2m1 0h2m1 0h4m1 0h1m4 0h1m1 0h1m2 0h1m1 0h2m3 0h1m1 0h1m2 0h2m2 0h2m1 0h3m3 0h8m2 0h3m1 0h1m3 0h2M5 38.5h1m2 0h1m1 0h2m1 0h1m1 0h6m2 0h2m1 0h3m1 0h2m2 0h2m1 0h1m1 0h1m1 0h1m3 0h2m4 0h3m1 0h1m2 0h2m1 0h2m1 0h2m1 0h4m1 0h2m1 0h1m4 0h3m1 0h2m1 0h1m1 0h1m1 0h2m3 0h1m1 0h3m1 0h1m1 0h1m1 0h3m1 0h1m1 0h1m1 0h3m3 0h2m1 0h9m2 0h6m4 0h1m4 0h1m1 0h1m1 0h2m2 0h2m1 0h2m1 0h1m5 0h2m1 0h1m5 0h1M4 39.5h2m1 0h2m3 0h3m1 0h1m1 0h1m1 0h1m1 0h2m1 0h1m1 0h4m3 0h1m4 0h1m3 0h1m2 0h1m2 0h1m2 0h1m3 0h3m3 0h2m1 0h3m2 0h2m1 0h2m1 0h4m3 0h1m2 0h3m1 0h2m2 0h3m4 0h2m1 0h2m1 0h5m1 0h3m2 0h1m1 0h2m2 0h1m3 0h1m2 0h3m1 0h1m1 0h2m3 0h1m1 0h4m3 0h1m1 0h3m1 0h1m2 0h2m4 0h3m3 0h1m1 0h2m1 0h3M4 40.5h2m3 0h2m3 0h2m6 0h7m2 0h1m1 0h1m1 0h2m3 0h3m1 0h1m2 0h1m2 0h2m1 0h2m2 0h1m3 0h2m2 0h1m3 0h1m3 0h1m3 0h2m1 0h1m1 0h2m1 0h2m2 0h1m1 0h1m2 0h1m3 0h1m1 0h2m1 0h1m1 0h1m5 0h3m11 0h1m1 0h2m1 0h1m1 0h1m4 0h1m1 0h2m1 0h2m1 0h2m2 0h5m1 0h1m1 0h2m3 0h1m1 0h2m2 0h4m1 0h4M5 41.5h3m5 0h1m1 0h1m4 0h1m1 0h3m8 0h1m1 0h1m7 0h3m2 0h2m1 0h1m3 0h2m3 0h1m4 0h1m2 0h1m3 0h3m1 0h1m2 0h1m1 0h1m1 0h2m3 0h8m1 0h1m2 0h1m5 0h1m2 0h1m1 0h3m1 0h3m4 0h1m1 0h1m1 0h1m6 0h7m3 0h2m3 0h1m1 0h4m2 0h1m1 0h1m5 0h2m1 0h1m3 0h1m1 0h3m1 0h2m1 0h1M6 42.5h1m1 0h4m2 0h2m1 0h2m2 0h3m3 0h1m1 0h1m6 0h5m1 0h2m1 0h3m2 0h1m1 0h2m4 0h2m4 0h2m1 0h6m4 0h1m1 0h2m1 0h1m1 0h2m2 0h2m7 0h2m1 0h1m1 0h2m1 0h1m1 0h1m1 0h2m1 0h1m1 0h1m3 0h1m1 0h3m1 0h4m3 0h3m1 0h6m1 0h1m1 0h1m2 0h5m1 0h3m4 0h1m1 0h2m2 0h2m1 0h1m7 0h3M4 43.5h1m1 0h1m1 0h2m1 0h1m1 0h1m2 0h1m2 0h3m1 0h1m1 0h1m2 0h2m1 0h1m3 0h2m1 0h1m1 0h1m2 0h1m2 0h1m1 0h1m2 0h1m3 0h1m1 0h2m1 0h3m1 0h1m1 0h1m2 0h1m3 0h4m1 0h1m6 0h3m1 0h1m3 0h1m2 0h1m7 0h3m1 0h1m1 0h2m3 0h1m1 0h2m1 0h1m1 0h3m3 0h1m3 0h2m9 0h5m3 0h2m1 0h1m2 0h1m1 0h2m3 0h1m1 0h1m5 0h1m1 0h3m1 0h1M4 44.5h2m4 0h1m1 0h2m1 0h3m1 0h1m3 0h1m3 0h2m2 0h2m2 0h2m2 0h7m3 0h2m3 0h1m4 0h1m1 0h1m3 0h2m1 0h1m5 0h6m3 0h1m1 0h2m1 0h2m1 0h1m1 0h2m5 0h4m1 0h3m1 0h2m1 0h1m1 0h1m4 0h1m5 0h1m2 0h3m1 0h2m3 0h1m1 0h2m1 0h1m2 0h1m3 0h2m4 0h2m1 0h1m1 0h6m1 0h4m1 0h2m1 0h2m2 0h1M4 45.5h2m3 0h1m2 0h3m1 0h1m1 0h1m1 0h1m1 0h2m2 0h3m1 0h3m2 0h2m2 0h1m2 0h5m1 0h2m3 0h4m1 0h3m6 0h1m1 0h1m1 0h2m1 0h4m2 0h5m2 0h1m2 0h3m1 0h1m2 0h1m1 0h2m2 0h1m2 0h3m2 0h3m1 0h4m2 0h2m1 0h1m6 0h1m1 0h2m1 0h1m1 0h2m1 0h1m1 0h2m2 0h3m2 0h3m1 0h1m4 0h1m1 0h4m1 0h1m1 0h3m4 0h2m1 0h1M4 46.5h1m4 0h2m1 0h1m9 0h1m2 0h3m2 0h2m4 0h1m2 0h3m1 0h1m2 0h1m2 0h1m1 0h2m2 0h1m2 0h1m1 0h1m1 0h1m1 0h2m1 0h2m1 0h3m6 0h4m2 0h1m2 0h6m1 0h1m1 0h4m1 0h1m1 0h2m3 0h2m1 0h9m1 0h6m1 0h2m3 0h1m1 0h4m1 0h1m2 0h2m3 0h1m1 0h1m8 0h1m2 0h1m6 0h1m1 0h2m1 0h1m1 0h1M4 47.5h3m4 0h1m1 0h4m3 0h1m1 0h1m7 0h1m1 0h2m1 0h1m1 0h1m2 0h1m4 0h3m1 0h1m1 0h1m1 0h1m2 0h1m1 0h1m2 0h7m1 0h1m1 0h1m1 0h2m1 0h1m1 0h1m2 0h1m1 0h1m1 0h2m3 0h2m4 0h2m1 0h1m1 0h2m1 0h1m1 0h1m1 0h4m2 0h2m2 0h1m1 0h2m4 0h1m1 0h1m1 0h4m3 0h1m1 0h2m1 0h1m1 0h4m5 0h2m2 0h1m1 0h2m2 0h1m1 0h2m7 0h1m1 0h3m1 0h1M4 48.5h2m1 0h4m3 0h2m2 0h2m3 0h6m2 0h2m5 0h2m2 0h1m1 0h1m2 0h1m2 0h4m3 0h1m2 0h1m1 0h1m1 0h1m2 0h1m2 0h2m1 0h1m2 0h1m1 0h1m1 0h1m1 0h1m2 0h1m2 0h1m4 0h1m3 0h2m1 0h1m1 0h2m1 0h1m5 0h2m4 0h1m1 0h1m7 0h2m1 0h3m2 0h1m1 0h1m2 0h3m1 0h1m2 0h1m2 0h1m5 0h1m1 0h1m1 0h1m1 0h2m3 0h1m1 0h3m1 0h1m1 0h2m3 0h1M5 49.5h1m1 0h3m2 0h3m1 0h3m2 0h3m2 0h1m3 0h4m1 0h2m4 0h6m1 0h1m1 0h4m1 0h2m1 0h2m3 0h1m1 0h1m1 0h2m2 0h7m3 0h1m1 0h2m5 0h2m1 0h2m5 0h2m4 0h2m1 0h1m2 0h2m1 0h4m4 0h2m1 0h2m6 0h1m1 0h1m1 0h2m3 0h1m1 0h1m1 0h4m1 0h2m1 0h2m1 0h2m2 0h1m1 0h2m1 0h2m2 0h3m1 0h1m1 0h2m1 0h1M5 50.5h4m1 0h1m4 0h4m1 0h1m2 0h5m1 0h3m1 0h1m2 0h2m1 0h1m2 0h1m3 0h1m2 0h1m1 0h3m5 0h1m1 0h4m3 0h1m1 0h1m1 0h2m1 0h1m3 0h1m1 0h3m1 0h1m1 0h1m1 0h1m2 0h1m3 0h4m1 0h3m3 0h1m1 0h3m2 0h4m1 0h2m1 0h1m2 0h2m1 0h1m1 0h1m1 0h1m5 0h2m2 0h1m2 0h1m1 0h2m1 0h1m3 0h2m1 0h1m2 0h1m2 0h1m2 0h1m5 0h2m3 0h2M7 51.5h3m2 0h1m1 0h1m2 0h1m2 0h1m2 0h4m2 0h1m1 0h1m3 0h4m1 0h1m2 0h1m2 0h2m1 0h1m2 0h1m2 0h1m2 0h1m1 0h1m1 0h1m2 0h2m2 0h1m1 0h1m1 0h2m1 0h3m4 0h1m2 0h2m1 0h1m1 0h1m1 0h2m1 0h9m1 0h1m1 0h1m5 0h1m2 0h4m2 0h1m1 0h3m2 0h2m3 0h1m3 0h1m1 0h1m2 0h1m1 0h1m1 0h2m1 0h5m1 0h1m2 0h1m2 0h1m1 0h3m1 0h1m1 0h4m1 0h1m1 0h1M8 52.5h1m1 0h2m1 0h1m1 0h3m2 0h1m3 0h4m1 0h1m2 0h2m2 0h3m3 0h1m1 0h1m3 0h4m2 0h1m1 0h1m2 0h1m1 0h1m6 0h2m3 0h1m3 0h3m1 0h1m4 0h1m4 0h1m1 0h2m3 0h3m1 0h1m2 0h1m3 0h1m1 0h2m10 0h1m1 0h1m2 0h1m1 0h1m6 0h1m2 0h1m1 0h2m3 0h1m2 0h1m1 0h3m3 0h2m2 0h1m1 0h1m2 0h2m1 0h1m1 0h1m2 0h2m2 0h1M6 53.5h3m2 0h7m1 0h2m1 0h1m6 0h1m5 0h1m2 0h1m1 0h1m3 0h1m3 0h1m1 0h1m3 0h7m2 0h1m1 0h3m2 0h5m2 0h1m1 0h2m1 0h3m3 0h1m1 0h1m1 0h3m2 0h1m2 0h2m4 0h2m1 0h1m1 0h1m1 0h1m1 0h1m2 0h2m1 0h4m1 0h2m3 0h1m3 0h2m1 0h2m1 0h1m1 0h2m2 0h2m3 0h1m1 0h1m4 0h1m1 0h2m1 0h1m2 0h2m1 0h2m1 0h1m1 0h1m4 0h1M4 54.5h1m1 0h6m1 0h1m1 0h2m1 0h7m2 0h1m1 0h1m1 0h1m4 0h3m2 0h3m2 0h1m2 0h1m1 0h3m1 0h1m1 0h1m1 0h2m3 0h2m2 0h3m1 0h2m1 0h2m3 0h3m1 0h2m2 0h2m1 0h3m1 0h2m1 0h3m1 0h3m2 0h1m1 0h2m1 0h1m1 0h2m6 0h8m3 0h1m1 0h2m2 0h1m2 0h1m1 0h2m2 0h1m1 0h2m3 0h1m1 0h2m1 0h2m1 0h1m2 0h1m2 0h1m2 0h1m5 0h1M5 55.5h1m1 0h3m3 0h1m1 0h2m1 0h1m5 0h3m3 0h1m2 0h1m1 0h1m1 0h2m1 0h1m4 0h5m2 0h1m3 0h3m1 0h3m1 0h1m1 0h1m2 0h1m4 0h6m6 0h2m5 0h2m1 0h1m1 0h1m2 0h1m2 0h2m3 0h3m1 0h2m3 0h1m1 0h1m2 0h2m3 0h1m1 0h1m1 0h1m1 0h3m1 0h1m1 0h2m4 0h1m4 0h1m2 0h1m2 0h1m8 0h1m5 0h4m2 0h1m1 0h1M4 56.5h10m2 0h2m2 0h1m1 0h1m2 0h5m1 0h1m1 0h1m2 0h4m2 0h1m2 0h1m1 0h1m1 0h3m1 0h3m7 0h3m1 0h6m1 0h1m1 0h2m4 0h3m1 0h1m1 0h1m2 0h2m1 0h2m4 0h4m1 0h3m3 0h2m6 0h1m1 0h1m3 0h1m1 0h2m1 0h3m6 0h2m1 0h2m2 0h2m2 0h1m1 0h1m2 0h5m1 0h5m1 0h2m2 0h3m2 0h1M5 57.5h3m6 0h1m1 0h1m1 0h2m2 0h4m1 0h2m4 0h2m1 0h1m1 0h2m3 0h3m1 0h4m3 0h5m2 0h1m6 0h5m2 0h1m1 0h1m4 0h1m2 0h2m3 0h1m1 0h1m1 0h1m1 0h2m1 0h3m2 0h3m5 0h1m2 0h3m2 0h3m1 0h3m6 0h7m4 0h1m2 0h3m1 0h4m1 0h2m5 0h1m2 0h1m1 0h1m1 0h2m2 0h2m4 0h1M8 58.5h1m1 0h2m3 0h2m1 0h1m1 0h1m1 0h1m2 0h2m2 0h1m4 0h1m2 0h1m3 0h1m4 0h2m2 0h1m1 0h1m1 0h1m3 0h8m2 0h6m5 0h2m1 0h1m1 0h1m2 0h1m1 0h4m2 0h2m1 0h1m3 0h1m4 0h5m1 0h3m2 0h7m4 0h1m1 0h2m1 0h2m1 0h1m1 0h1m1 0h1m5 0h2m5 0h2m4 0h1m4 0h2m6 0h1m1 0h1m1 0h1m1 0h1M6 59.5h4m3 0h3m3 0h1m6 0h7m1 0h4m1 0h2m5 0h1m2 0h1m1 0h1m5 0h2m1 0h4m1 0h2m7 0h3m1 0h2m1 0h1m1 0h1m1 0h5m1 0h1m1 0h1m2 0h2m1 0h1m1 0h1m2 0h2m3 0h1m4 0h2m1 0h2m1 0h1m2 0h2m1 0h5m1 0h2m6 0h1m3 0h3m1 0h1m4 0h2m2 0h1m2 0h1m5 0h1m1 0h2m1 0h2m1 0h1m1 0h3m1 0h1M4 60.5h1m1 0h7m7 0h1m2 0h1m2 0h1m4 0h6m1 0h1m1 0h3m1 0h2m1 0h2m1 0h1m1 0h1m1 0h1m1 0h1m3 0h5m1 0h2m1 0h2m1 0h3m1 0h1m1 0h2m1 0h1m1 0h2m3 0h5m6 0h2m1 0h2m2 0h2m1 0h2m1 0h1m3 0h5m6 0h7m6 0h1m1 0h11m2 0h2m1 0h1m3 0h1m1 0h2m2 0h3m1 0h5m1 0h3M6 61.5h3m3 0h1m1 0h3m2 0h1m2 0h1m1 0h3m4 0h2m3 0h4m1 0h4m3 0h4m2 0h3m3 0h1m3 0h1m3 0h1m1 0h1m4 0h1m1 0h1m1 0h3m1 0h2m1 0h3m3 0h1m1 0h2m1 0h1m1 0h1m6 0h1m2 0h1m1 0h3m1 0h2m3 0h3m1 0h1m1 0h2m3 0h1m1 0h2m1 0h1m1 0h2m1 0h1m1 0h2m3 0h6m2 0h3m3 0h1m1 0h1m3 0h1m2 0h2m3 0h3m1 0h1M4 62.5h2m1 0h2m1 0h1m1 0h1m3 0h2m2 0h3m1 0h1m1 0h5m1 0h1m1 0h1m1 0h1m6 0h1m2 0h2m4 0h1m2 0h1m1 0h1m1 0h2m1 0h1m1 0h2m1 0h4m1 0h2m3 0h1m4 0h1m1 0h1m3 0h1m1 0h1m1 0h2m1 0h1m2 0h2m2 0h1m1 0h2m1 0h2m1 0h3m2 0h2m1 0h1m1 0h1m1 0h4m1 0h3m2 0h2m1 0h2m1 0h1m2 0h1m1 0h2m1 0h1m1 0h2m4 0h2m3 0h3m1 0h1m1 0h3m3 0h2m1 0h1m1 0h4M4 63.5h2m2 0h1m3 0h1m1 0h3m2 0h8m1 0h1m2 0h2m3 0h3m2 0h1m1 0h1m2 0h1m6 0h1m4 0h3m3 0h2m1 0h1m6 0h3m1 0h1m2 0h1m3 0h1m2 0h1m3 0h2m1 0h4m4 0h1m1 0h4m4 0h2m1 0h1m3 0h2m1 0h1m4 0h2m2 0h6m1 0h1m4 0h1m3 0h2m4 0h1m1 0h2m1 0h2m2 0h1m2 0h4m2 0h1m3 0h1m1 0h3M7 64.5h6m2 0h4m1 0h3m1 0h2m1 0h1m2 0h7m1 0h1m3 0h3m2 0h4m1 0h1m1 0h1m4 0h8m1 0h1m1 0h2m6 0h1m6 0h1m1 0h6m1 0h1m4 0h2m4 0h2m2 0h2m1 0h1m2 0h6m2 0h1m3 0h2m1 0h3m2 0h1m4 0h1m1 0h1m1 0h6m1 0h3m1 0h4m1 0h1m1 0h3m3 0h3m1 0h5m3 0h1M4 65.5h2m1 0h3m2 0h1m4 0h2m1 0h2m4 0h2m3 0h3m2 0h1m3 0h3m1 0h1m3 0h2m1 0h1m1 0h1m2 0h1m1 0h1m3 0h7m3 0h1m1 0h1m1 0h1m3 0h1m1 0h1m1 0h1m1 0h2m3 0h5m1 0h1m2 0h1m2 0h2m1 0h2m1 0h1m2 0h2m3 0h1m3 0h2m1 0h1m1 0h2m5 0h2m1 0h1m1 0h2m1 0h1m3 0h1m2 0h1m1 0h4m1 0h1m2 0h1m4 0h4m1 0h2m1 0h1m1 0h2m1 0h5M5 66.5h7m2 0h1m1 0h2m3 0h1m1 0h4m3 0h1m1 0h1m3 0h1m1 0h1m1 0h1m2 0h1m1 0h2m4 0h3m1 0h1m2 0h2m1 0h1m3 0h1m1 0h2m1 0h1m1 0h1m6 0h7m2 0h1m1 0h2m1 0h1m2 0h5m1 0h1m1 0h1m4 0h2m1 0h1m1 0h3m1 0h2m2 0h5m2 0h1m1 0h1m1 0h1m4 0h1m2 0h1m1 0h6m2 0h1m3 0h1m1 0h1m2 0h2m1 0h1m2 0h1m2 0h5m1 0h1m1 0h3M5 67.5h2m1 0h1m2 0h1m1 0h3m2 0h1m6 0h1m1 0h6m3 0h2m1 0h1m4 0h4m10 0h1m3 0h5m2 0h1m3 0h2m1 0h4m5 0h3m4 0h4m1 0h1m1 0h1m1 0h1m2 0h1m3 0h1m4 0h3m1 0h3m1 0h1m5 0h2m2 0h3m1 0h1m3 0h1m2 0h1m1 0h2m3 0h1m4 0h2m1 0h1m2 0h1m2 0h1m2 0h1m2 0h1m7 0h2m1 0h1M5 68.5h1m2 0h1m1 0h4m1 0h3m2 0h1m1 0h1m7 0h1m1 0h1m1 0h2m1 0h3m1 0h5m1 0h1m3 0h1m2 0h2m3 0h4m2 0h3m1 0h1m4 0h1m1 0h1m1 0h2m1 0h2m2 0h1m4 0h1m2 0h3m1 0h2m1 0h1m8 0h1m2 0h1m4 0h2m1 0h1m2 0h1m1 0h1m1 0h2m1 0h4m5 0h4m3 0h2m2 0h2m1 0h1m4 0h2m1 0h4m4 0h4m1 0h1m4 0h2M4 69.5h3m4 0h2m2 0h1m1 0h1m1 0h2m1 0h1m1 0h4m3 0h1m1 0h1m1 0h2m1 0h3m3 0h2m1 0h4m3 0h3m1 0h2m1 0h1m1 0h1m3 0h1m9 0h1m3 0h4m7 0h1m1 0h1m1 0h2m1 0h1m5 0h4m2 0h3m3 0h1m1 0h1m1 0h5m1 0h1m1 0h1m3 0h2m1 0h3m4 0h1m3 0h1m1 0h1m1 0h3m1 0h2m1 0h2m2 0h3m1 0h4m2 0h1m1 0h1m1 0h2m2 0h1M4 70.5h7m4 0h1m1 0h3m1 0h1m1 0h1m1 0h4m2 0h1m3 0h1m4 0h2m4 0h1m2 0h1m2 0h2m1 0h1m2 0h1m4 0h3m1 0h7m3 0h1m2 0h1m1 0h1m1 0h1m3 0h1m1 0h1m1 0h1m2 0h2m1 0h1m1 0h5m2 0h6m1 0h4m4 0h1m2 0h1m3 0h3m2 0h7m1 0h2m1 0h2m1 0h2m3 0h2m2 0h2m1 0h1m4 0h2m4 0h1m1 0h1M5 71.5h1m2 0h1m4 0h4m1 0h1m3 0h1m1 0h2m1 0h2m1 0h2m2 0h1m3 0h3m2 0h1m1 0h2m2 0h1m2 0h1m4 0h9m8 0h1m1 0h2m1 0h1m1 0h1m4 0h1m1 0h3m4 0h1m2 0h2m2 0h3m3 0h2m4 0h1m3 0h6m2 0h3m1 0h1m2 0h3m1 0h1m5 0h3m1 0h2m5 0h4m2 0h1m2 0h1m2 0h2m1 0h1m1 0h1m1 0h1m3 0h3M5 72.5h3m2 0h1m1 0h1m2 0h1m2 0h3m2 0h2m1 0h1m2 0h3m1 0h2m1 0h2m4 0h1m1 0h1m1 0h9m2 0h2m1 0h1m2 0h5m2 0h1m4 0h3m1 0h3m2 0h2m1 0h4m2 0h3m4 0h1m2 0h1m2 0h2m1 0h5m4 0h1m1 0h1m4 0h1m2 0h1m1 0h3m4 0h1m2 0h1m1 0h1m2 0h2m1 0h1m1 0h4m1 0h1m1 0h2m1 0h1m1 0h1m2 0h1m4 0h1m1 0h4m1 0h1m1 0h2M7 73.5h2m3 0h5m3 0h3m2 0h1m3 0h1m1 0h1m1 0h1m1 0h2m2 0h2m2 0h2m1 0h1m1 0h1m1 0h2m1 0h2m1 0h2m5 0h1m1 0h1m3 0h2m1 0h2m1 0h3m2 0h1m3 0h3m5 0h3m1 0h2m1 0h1m1 0h1m1 0h1m1 0h2m1 0h2m5 0h1m6 0h1m1 0h1m1 0h2m3 0h1m2 0h1m1 0h4m5 0h1m1 0h1m1 0h5m4 0h2m2 0h3m1 0h3m1 0h1m4 0h3m2 0h1M4 74.5h1m2 0h2m1 0h1m1 0h1m1 0h2m4 0h1m2 0h4m1 0h1m5 0h3m5 0h2m5 0h1m1 0h5m3 0h1m5 0h1m1 0h4m1 0h1m7 0h1m1 0h1m1 0h2m2 0h3m4 0h4m2 0h1m5 0h5m2 0h4m1 0h1m2 0h1m1 0h1m1 0h3m3 0h1m1 0h1m2 0h1m2 0h1m2 0h4m1 0h1m1 0h2m2 0h2m2 0h1m1 0h2m3 0h1m3 0h1m2 0h1m1 0h1m3 0h2M6 75.5h2m1 0h1m1 0h4m3 0h2m1 0h1m3 0h4m1 0h1m2 0h6m1 0h1m4 0h2m5 0h2m3 0h5m1 0h2m2 0h1m3 0h1m2 0h6m1 0h1m3 0h3m1 0h1m2 0h3m2 0h1m5 0h6m1 0h1m3 0h1m2 0h2m1 0h1m3 0h2m1 0h1m1 0h6m1 0h3m3 0h3m2 0h2m2 0h1m2 0h4m2 0h1m2 0h2m1 0h3m4 0h1m1 0h1m2 0h1m1 0h1M9 76.5h4m1 0h1m1 0h1m3 0h2m1 0h2m1 0h1m2 0h1m3 0h1m2 0h2m2 0h1m1 0h3m3 0h1m1 0h1m3 0h1m1 0h1m2 0h4m1 0h6m3 0h2m1 0h1m2 0h3m1 0h1m4 0h1m4 0h3m1 0h5m3 0h1m3 0h1m2 0h2m2 0h4m1 0h1m3 0h1m4 0h1m1 0h1m9 0h2m1 0h4m1 0h1m1 0h2m1 0h5m1 0h2m1 0h1m5 0h5m1 0h2m1 0h2M5 77.5h1m6 0h1m2 0h5m2 0h5m10 0h6m1 0h2m1 0h2m1 0h3m1 0h4m1 0h1m2 0h1m2 0h1m4 0h4m4 0h3m1 0h2m5 0h1m4 0h1m2 0h1m1 0h2m3 0h1m1 0h1m1 0h1m2 0h3m1 0h1m3 0h1m2 0h5m4 0h1m1 0h2m1 0h3m8 0h1m4 0h1m2 0h4m2 0h1m1 0h7m1 0h1m4 0h1M4 78.5h1m1 0h1m1 0h3m1 0h1m2 0h1m1 0h1m2 0h4m1 0h2m1 0h1m1 0h4m1 0h2m2 0h2m8 0h1m1 0h2m1 0h2m2 0h3m4 0h1m1 0h2m1 0h1m1 0h2m3 0h1m2 0h3m1 0h2m2 0h3m1 0h2m1 0h9m3 0h2m2 0h2m1 0h3m1 0h2m1 0h4m1 0h2m4 0h1m2 0h2m2 0h1m5 0h1m2 0h1m1 0h2m1 0h1m1 0h1m4 0h1m2 0h1m5 0h1m2 0h3m3 0h1m1 0h1M6 79.5h1m4 0h4m1 0h1m1 0h2m1 0h1m1 0h1m2 0h1m4 0h4m1 0h2m3 0h1m1 0h1m2 0h3m3 0h2m4 0h1m2 0h2m1 0h1m1 0h2m3 0h1m2 0h3m1 0h1m2 0h1m3 0h4m3 0h2m2 0h1m1 0h2m1 0h5m2 0h2m5 0h1m1 0h1m1 0h3m3 0h2m1 0h6m1 0h4m1 0h3m1 0h1m2 0h3m1 0h1m2 0h1m2 0h1m1 0h3m4 0h2m1 0h1m1 0h1m6 0h3M7 80.5h5m3 0h2m3 0h2m1 0h3m3 0h1m2 0h2m1 0h1m1 0h1m1 0h1m1 0h2m5 0h2m1 0h1m1 0h3m1 0h1m2 0h2m1 0h2m3 0h3m1 0h1m1 0h1m1 0h6m1 0h1m1 0h2m2 0h3m2 0h2m1 0h2m1 0h1m5 0h2m3 0h3m2 0h1m1 0h1m1 0h1m2 0h1m3 0h2m1 0h1m1 0h1m7 0h1m1 0h2m1 0h2m1 0h1m1 0h4m1 0h1m1 0h2m2 0h1m1 0h2m4 0h4m1 0h4m2 0h1M9 81.5h1m2 0h3m1 0h2m6 0h1m1 0h1m1 0h1m2 0h2m1 0h1m1 0h1m1 0h8m1 0h2m1 0h2m2 0h3m1 0h1m3 0h1m2 0h1m1 0h1m2 0h3m2 0h1m4 0h3m1 0h2m6 0h4m3 0h3m1 0h1m1 0h2m2 0h1m1 0h3m2 0h2m1 0h1m3 0h2m1 0h2m3 0h1m1 0h1m1 0h2m1 0h2m7 0h1m1 0h1m1 0h3m4 0h3m2 0h2m1 0h1m1 0h1m6 0h2m1 0h1m1 0h1M4 82.5h1m1 0h1m1 0h3m1 0h1m1 0h4m3 0h3m5 0h1m3 0h1m1 0h1m1 0h5m1 0h1m5 0h1m1 0h2m1 0h2m1 0h3m1 0h1m5 0h2m1 0h1m1 0h1m2 0h1m1 0h1m1 0h4m1 0h2m1 0h4m3 0h1m2 0h1m1 0h2m1 0h1m1 0h1m2 0h2m1 0h1m2 0h2m1 0h4m1 0h1m2 0h1m1 0h1m5 0h4m1 0h4m2 0h3m2 0h2m1 0h1m2 0h2m1 0h4m1 0h1m14 0h3M4 83.5h3m4 0h1m1 0h3m1 0h2m7 0h1m1 0h1m2 0h1m2 0h4m3 0h1m3 0h2m5 0h1m2 0h1m2 0h1m1 0h8m7 0h2m1 0h1m3 0h1m3 0h2m2 0h3m1 0h1m1 0h4m4 0h3m1 0h1m2 0h1m1 0h1m3 0h1m4 0h2m3 0h1m1 0h3m1 0h2m1 0h1m2 0h4m1 0h1m6 0h1m2 0h1m5 0h1m2 0h1m2 0h1m2 0h1m5 0h4m1 0h1M4 84.5h1m1 0h3m1 0h1m1 0h1m5 0h3m2 0h1m1 0h1m5 0h1m1 0h3m1 0h1m2 0h1m1 0h1m2 0h1m2 0h4m2 0h2m1 0h1m2 0h1m1 0h2m2 0h1m1 0h6m1 0h4m1 0h1m1 0h2m1 0h1m1 0h3m1 0h1m8 0h1m1 0h1m8 0h2m5 0h1m1 0h2m5 0h6m2 0h1m3 0h5m1 0h2m1 0h1m1 0h3m2 0h2m1 0h2m2 0h3m3 0h5m1 0h1m1 0h2m2 0h1M4 85.5h2m5 0h2m5 0h3m2 0h1m1 0h1m4 0h3m2 0h3m4 0h3m2 0h2m1 0h1m2 0h4m1 0h1m4 0h1m3 0h1m1 0h4m1 0h1m1 0h1m2 0h2m2 0h3m1 0h1m3 0h2m1 0h1m4 0h3m2 0h4m1 0h1m1 0h1m4 0h1m2 0h1m1 0h7m8 0h4m1 0h1m3 0h1m1 0h2m3 0h3m1 0h2m1 0h2m2 0h3m2 0h3m1 0h4m2 0h1m1 0h1M4 86.5h4m1 0h4m3 0h1m2 0h1m3 0h2m1 0h2m1 0h2m1 0h4m1 0h2m6 0h1m3 0h1m1 0h3m3 0h1m1 0h1m7 0h2m1 0h1m1 0h2m3 0h1m1 0h2m1 0h3m2 0h4m1 0h2m1 0h2m1 0h3m1 0h2m4 0h1m1 0h2m2 0h1m1 0h1m1 0h2m4 0h1m1 0h1m1 0h1m2 0h1m2 0h1m1 0h5m1 0h2m1 0h1m1 0h2m1 0h2m1 0h2m4 0h3m1 0h1m2 0h1m3 0h2m2 0h1m2 0h1M4 87.5h2m1 0h3m1 0h1m4 0h1m1 0h2m2 0h1m2 0h3m4 0h2m1 0h3m1 0h1m1 0h1m1 0h2m1 0h2m3 0h3m1 0h2m1 0h1m1 0h3m1 0h3m4 0h1m1 0h4m9 0h1m3 0h3m1 0h1m1 0h1m2 0h3m2 0h1m1 0h6m1 0h1m1 0h1m1 0h3m3 0h3m1 0h1m1 0h1m2 0h1m2 0h1m2 0h1m1 0h2m1 0h2m3 0h2m1 0h2m1 0h1m8 0h5m1 0h1m3 0h1m1 0h1m2 0h1m1 0h1M8 88.5h5m2 0h1m8 0h1m2 0h1m2 0h8m1 0h1m4 0h1m2 0h1m1 0h1m1 0h2m2 0h1m4 0h6m4 0h1m1 0h4m2 0h1m2 0h1m1 0h1m1 0h11m3 0h3m1 0h1m2 0h1m2 0h1m2 0h2m2 0h6m6 0h1m1 0h1m1 0h1m4 0h1m2 0h1m1 0h1m1 0h5m1 0h1m4 0h1m1 0h1m1 0h1m1 0h3m1 0h1m2 0h1m1 0h1m1 0h6m2 0h1M4 89.5h3m1 0h1m3 0h2m6 0h3m3 0h1m1 0h1m2 0h2m3 0h1m2 0h2m1 0h3m3 0h1m1 0h1m2 0h4m2 0h2m3 0h1m2 0h3m5 0h1m3 0h4m4 0h2m3 0h1m1 0h1m2 0h1m2 0h1m5 0h1m1 0h1m2 0h2m2 0h2m3 0h5m1 0h2m1 0h1m6 0h3m5 0h1m3 0h2m1 0h4m1 0h3m2 0h5m2 0h2m2 0h1m3 0h1m3 0h1M4 90.5h2m2 0h1m1 0h1m1 0h3m2 0h2m1 0h1m1 0h1m5 0h1m3 0h1m1 0h1m1 0h2m1 0h2m1 0h1m2 0h2m2 0h1m2 0h1m1 0h1m3 0h1m1 0h1m1 0h1m1 0h1m2 0h4m1 0h2m1 0h1m1 0h1m4 0h4m1 0h2m1 0h1m1 0h1m2 0h1m2 0h2m2 0h1m1 0h1m4 0h2m2 0h4m1 0h1m1 0h1m1 0h1m1 0h3m3 0h1m2 0h2m3 0h2m1 0h1m1 0h2m1 0h1m1 0h2m1 0h1m3 0h1m4 0h1m2 0h1m1 0h1m3 0h1m1 0h2m1 0h1m1 0h2m1 0h1M5 91.5h1m2 0h1m3 0h1m5 0h1m1 0h1m3 0h4m1 0h1m2 0h1m3 0h1m1 0h1m1 0h2m4 0h1m1 0h2m2 0h1m2 0h1m1 0h2m1 0h1m3 0h1m1 0h1m6 0h2m1 0h1m1 0h1m4 0h1m1 0h4m3 0h2m2 0h1m6 0h3m2 0h1m1 0h1m2 0h4m3 0h2m1 0h1m3 0h1m1 0h2m3 0h1m8 0h2m3 0h1m5 0h1m1 0h2m1 0h1m5 0h3m1 0h1m1 0h2m3 0h3M7 92.5h7m2 0h1m4 0h1m1 0h1m2 0h1m1 0h1m3 0h6m1 0h2m1 0h1m1 0h1m5 0h2m2 0h1m1 0h1m2 0h6m1 0h1m3 0h2m1 0h2m1 0h5m7 0h5m1 0h2m2 0h1m1 0h1m5 0h2m4 0h1m1 0h7m2 0h1m1 0h1m1 0h1m2 0h4m1 0h1m3 0h4m1 0h7m1 0h1m2 0h8m4 0h10m2 0h2M7 93.5h2m4 0h5m1 0h1m1 0h1m3 0h3m1 0h3m1 0h2m4 0h4m1 0h1m3 0h3m3 0h6m1 0h2m2 0h1m2 0h4m3 0h1m4 0h3m2 0h2m1 0h3m2 0h3m3 0h2m2 0h1m2 0h1m2 0h1m1 0h2m5 0h1m1 0h6m3 0h1m4 0h1m1 0h3m2 0h1m1 0h2m1 0h2m2 0h4m1 0h1m2 0h1m3 0h3m3 0h2m4 0h1m1 0h1m1 0h1m1 0h1M8 94.5h4m2 0h3m2 0h2m2 0h1m4 0h4m1 0h1m3 0h5m1 0h1m1 0h3m1 0h1m2 0h1m1 0h1m2 0h2m4 0h1m1 0h1m2 0h4m1 0h1m1 0h1m1 0h1m1 0h2m1 0h1m1 0h2m5 0h1m1 0h7m2 0h1m1 0h1m3 0h3m3 0h2m6 0h1m1 0h6m3 0h2m1 0h2m4 0h2m2 0h1m4 0h1m1 0h1m1 0h1m1 0h1m2 0h2m1 0h1m2 0h1m2 0h11M5 95.5h2m2 0h1m2 0h1m2 0h2m1 0h2m2 0h1m1 0h3m1 0h2m1 0h1m4 0h3m1 0h1m2 0h1m2 0h1m4 0h3m1 0h1m2 0h4m5 0h1m1 0h1m1 0h1m1 0h2m1 0h2m1 0h1m3 0h1m2 0h1m1 0h6m2 0h2m3 0h1m1 0h4m1 0h1m2 0h1m2 0h3m1 0h2m3 0h2m2 0h2m1 0h3m1 0h2m1 0h1m2 0h1m1 0h1m1 0h2m1 0h2m2 0h2m1 0h1m1 0h2m2 0h2m3 0h2m1 0h2m2 0h1m4 0h2M4 96.5h1m1 0h2m2 0h2m1 0h5m1 0h2m2 0h1m2 0h2m1 0h2m2 0h2m1 0h1m4 0h2m2 0h1m1 0h2m1 0h1m2 0h1m2 0h1m3 0h3m1 0h2m1 0h1m1 0h2m1 0h1m1 0h1m3 0h2m1 0h1m5 0h2m1 0h3m1 0h1m2 0h4m4 0h2m2 0h1m2 0h2m6 0h1m6 0h2m1 0h1m1 0h1m2 0h1m3 0h2m1 0h2m1 0h1m1 0h1m2 0h4m1 0h1m2 0h1m1 0h1m1 0h2m1 0h1m3 0h2m2 0h1m2 0h5M6 97.5h1m1 0h1m3 0h1m1 0h3m1 0h1m4 0h4m1 0h1m1 0h2m1 0h1m1 0h11m2 0h4m1 0h1m1 0h3m3 0h1m3 0h1m2 0h6m6 0h1m1 0h4m3 0h1m1 0h1m1 0h5m2 0h2m1 0h1m2 0h4m1 0h2m3 0h5m3 0h4m1 0h1m1 0h1m2 0h1m1 0h3m2 0h1m3 0h5m2 0h1m3 0h1m1 0h2m1 0h1m1 0h3m2 0h1m1 0h4m4 0h1m1 0h1M8 98.5h4m1 0h1m2 0h2m1 0h13m1 0h4m4 0h2m4 0h1m4 0h4m1 0h3m1 0h2m1 0h1m2 0h2m1 0h4m6 0h1m1 0h1m1 0h1m2 0h2m2 0h2m1 0h2m1 0h3m2 0h1m1 0h2m1 0h6m1 0h3m4 0h1m1 0h4m2 0h3m2 0h1m2 0h1m1 0h5m2 0h1m4 0h1m1 0h2m2 0h1m2 0h2m1 0h1m1 0h2m4 0h1m1 0h2m1 0h4M4 99.5h1m2 0h2m3 0h1m1 0h1m1 0h3m1 0h4m5 0h1m4 0h1m1 0h2m1 0h1m3 0h2m1 0h1m4 0h1m3 0h1m1 0h5m1 0h1m1 0h2m4 0h1m2 0h3m1 0h2m1 0h1m1 0h1m1 0h2m1 0h1m1 0h1m5 0h1m7 0h2m2 0h1m4 0h3m2 0h1m1 0h1m3 0h1m2 0h1m2 0h1m3 0h1m2 0h3m2 0h1m1 0h3m1 0h1m2 0h1m2 0h3m2 0h1m5 0h2m1 0h2m8 0h1m1 0h1M4 100.5h1m1 0h3m1 0h1m4 0h2m2 0h1m2 0h2m8 0h1m2 0h1m2 0h1m3 0h2m3 0h1m2 0h1m3 0h1m1 0h1m5 0h4m2 0h3m1 0h1m3 0h3m2 0h1m1 0h1m1 0h1m1 0h8m3 0h1m1 0h4m8 0h1m1 0h2m2 0h1m5 0h1m3 0h1m1 0h1m1 0h1m7 0h3m2 0h1m1 0h1m2 0h1m6 0h1m4 0h2m1 0h4m1 0h1m8 0h2M4 101.5h2m1 0h1m4 0h1m4 0h1m1 0h2m1 0h2m2 0h1m6 0h1m1 0h3m3 0h1m2 0h2m1 0h4m5 0h1m1 0h1m2 0h1m2 0h1m2 0h2m1 0h3m2 0h2m4 0h6m2 0h2m3 0h2m1 0h1m2 0h2m1 0h2m1 0h4m2 0h1m4 0h11m3 0h1m1 0h4m1 0h2m1 0h3m1 0h2m1 0h2m2 0h2m1 0h2m4 0h1m1 0h3m2 0h1m1 0h1m1 0h4m1 0h1m2 0h1M4 102.5h1m1 0h2m1 0h2m1 0h1m2 0h1m2 0h1m1 0h3m1 0h2m1 0h2m1 0h6m2 0h2m3 0h1m2 0h1m2 0h1m1 0h2m1 0h2m3 0h2m2 0h1m4 0h6m3 0h1m1 0h6m7 0h1m3 0h1m1 0h1m1 0h4m3 0h1m1 0h2m3 0h4m1 0h1m1 0h2m1 0h1m1 0h1m1 0h1m1 0h1m1 0h1m1 0h2m3 0h1m2 0h2m1 0h2m3 0h2m5 0h2m1 0h4m2 0h1m2 0h3m1 0h2m2 0h3M5 103.5h1m1 0h1m1 0h1m1 0h1m1 0h1m1 0h4m1 0h1m3 0h2m1 0h3m1 0h3m2 0h1m1 0h1m4 0h1m1 0h2m1 0h1m2 0h1m3 0h1m1 0h3m1 0h1m2 0h1m1 0h1m7 0h1m1 0h4m2 0h1m2 0h2m1 0h6m1 0h5m3 0h2m3 0h3m3 0h2m1 0h1m1 0h2m2 0h1m4 0h2m8 0h2m1 0h2m2 0h4m2 0h4m5 0h1m4 0h2m1 0h2m2 0h1m5 0h3M4 104.5h7m1 0h1m1 0h1m3 0h5m1 0h1m1 0h1m1 0h1m3 0h1m7 0h1m1 0h1m1 0h1m4 0h4m1 0h3m5 0h5m4 0h1m1 0h1m2 0h2m3 0h1m1 0h1m1 0h3m2 0h3m2 0h1m4 0h1m1 0h2m1 0h3m4 0h1m2 0h1m3 0h2m2 0h1m3 0h4m1 0h2m1 0h1m1 0h1m2 0h4m1 0h1m4 0h1m1 0h1m2 0h4m1 0h1m1 0h2m3 0h2m1 0h1m2 0h1m1 0h1m3 0h2M4 105.5h1m1 0h4m1 0h3m1 0h4m1 0h6m2 0h2m1 0h1m1 0h4m2 0h2m1 0h1m1 0h2m2 0h3m1 0h3m1 0h1m1 0h1m1 0h3m1 0h2m2 0h1m2 0h1m1 0h1m2 0h2m1 0h2m1 0h4m2 0h2m3 0h2m1 0h1m3 0h2m4 0h1m2 0h1m1 0h3m2 0h3m3 0h3m1 0h2m1 0h1m1 0h1m1 0h2m1 0h1m1 0h1m2 0h6m1 0h1m1 0h4m10 0h2m1 0h3m1 0h1m4 0h2m2 0h1M4 106.5h2m2 0h5m5 0h1m1 0h1m2 0h1m1 0h1m1 0h1m2 0h1m3 0h2m3 0h3m1 0h1m2 0h1m4 0h2m2 0h1m1 0h3m3 0h2m2 0h4m1 0h2m1 0h1m3 0h4m1 0h2m3 0h1m1 0h1m3 0h1m1 0h4m1 0h3m3 0h3m1 0h1m1 0h3m2 0h1m2 0h2m1 0h7m2 0h1m1 0h2m2 0h1m2 0h1m1 0h1m1 0h1m3 0h1m2 0h2m1 0h1m2 0h1m1 0h2m3 0h1m2 0h2m3 0h2m1 0h1M6 107.5h1m1 0h2m1 0h1m1 0h2m5 0h3m1 0h2m1 0h2m1 0h5m1 0h1m2 0h1m6 0h4m5 0h1m2 0h3m4 0h3m1 0h3m1 0h4m1 0h1m6 0h4m1 0h1m2 0h4m4 0h4m3 0h3m4 0h1m1 0h2m5 0h2m1 0h2m1 0h3m1 0h2m3 0h1m1 0h1m3 0h2m1 0h2m2 0h1m1 0h1m2 0h1m1 0h1m3 0h1m1 0h2m2 0h1m2 0h1m2 0h1m1 0h2m1 0h1M7 108.5h1m2 0h1m5 0h1m3 0h1m1 0h2m1 0h1m2 0h2m1 0h3m1 0h2m1 0h3m1 0h1m1 0h2m3 0h3m1 0h2m2 0h1m2 0h3m1 0h2m3 0h3m2 0h1m1 0h4m1 0h2m2 0h1m1 0h2m1 0h4m3 0h1m2 0h1m5 0h1m2 0h1m1 0h2m1 0h1m2 0h1m1 0h1m8 0h3m1 0h1m2 0h1m1 0h1m1 0h2m1 0h1m1 0h2m1 0h5m1 0h1m1 0h4m1 0h3m1 0h1m2 0h1m2 0h3m4 0h1m1 0h1M4 109.5h1m1 0h2m1 0h1m1 0h4m1 0h2m1 0h1m2 0h1m1 0h1m2 0h1m1 0h1m4 0h2m1 0h1m1 0h2m2 0h3m2 0h2m4 0h1m1 0h1m3 0h1m4 0h1m1 0h6m2 0h1m2 0h1m1 0h2m2 0h2m2 0h4m2 0h1m2 0h1m5 0h5m4 0h1m5 0h1m1 0h2m1 0h5m1 0h1m1 0h1m2 0h1m1 0h1m1 0h2m1 0h1m3 0h3m1 0h9m3 0h2m1 0h2m5 0h2m1 0h1m5 0h1M4 110.5h4m2 0h4m1 0h1m1 0h4m2 0h3m1 0h1m1 0h4m1 0h2m1 0h1m3 0h3m1 0h2m4 0h5m1 0h1m1 0h1m3 0h1m3 0h2m1 0h1m1 0h2m1 0h1m3 0h7m2 0h1m2 0h2m2 0h9m6 0h2m2 0h3m2 0h1m2 0h1m2 0h2m2 0h3m2 0h1m1 0h2m3 0h1m1 0h1m2 0h1m2 0h1m7 0h2m1 0h1m6 0h1m3 0h3m1 0h2m1 0h2M4 111.5h3m2 0h1m1 0h1m1 0h3m1 0h1m2 0h1m1 0h1m1 0h1m4 0h1m3 0h2m4 0h1m1 0h1m4 0h1m2 0h1m3 0h1m3 0h3m1 0h1m1 0h1m1 0h2m7 0h1m1 0h1m1 0h2m5 0h2m1 0h3m1 0h3m1 0h1m1 0h1m3 0h3m2 0h4m2 0h1m1 0h4m1 0h1m6 0h1m3 0h1m1 0h3m3 0h2m1 0h1m1 0h1m3 0h1m4 0h2m2 0h1m1 0h3m3 0h2m2 0h1m3 0h1m1 0h1m1 0h2m1 0h1M4 112.5h2m1 0h2m1 0h1m1 0h3m3 0h1m2 0h3m2 0h3m2 0h3m3 0h1m1 0h2m1 0h2m1 0h1m2 0h5m2 0h1m4 0h3m1 0h1m2 0h1m2 0h1m3 0h8m4 0h9m4 0h2m4 0h2m3 0h1m1 0h1m2 0h2m1 0h1m2 0h1m3 0h1m1 0h4m1 0h2m1 0h3m2 0h1m1 0h1m1 0h1m5 0h1m4 0h6m1 0h1m1 0h2m1 0h2m1 0h2m7 0h2M6 113.5h1m1 0h1m3 0h5m2 0h2m3 0h1m1 0h1m1 0h1m1 0h3m1 0h1m1 0h9m3 0h4m1 0h2m1 0h1m3 0h2m2 0h1m3 0h3m2 0h2m3 0h2m3 0h2m1 0h1m1 0h1m2 0h1m2 0h1m6 0h1m1 0h2m1 0h4m1 0h3m4 0h3m1 0h1m1 0h1m6 0h1m1 0h7m1 0h1m1 0h5m2 0h4m1 0h3m1 0h1m3 0h2m1 0h1m1 0h2m2 0h6m2 0h1M4 114.5h2m1 0h1m1 0h2m3 0h1m2 0h1m1 0h1m1 0h3m2 0h1m1 0h4m1 0h1m1 0h1m2 0h1m1 0h1m1 0h1m2 0h1m5 0h2m1 0h2m1 0h2m4 0h1m4 0h3m1 0h2m5 0h4m1 0h1m4 0h1m1 0h2m3 0h2m1 0h2m1 0h2m4 0h1m1 0h3m1 0h2m3 0h1m2 0h1m3 0h1m1 0h1m4 0h3m1 0h2m5 0h1m1 0h1m3 0h1m3 0h1m2 0h2m1 0h2m1 0h1m2 0h2m3 0h1m1 0h1m2 0h2m1 0h1M4 115.5h3m4 0h1m2 0h1m1 0h2m1 0h1m7 0h1m1 0h4m2 0h1m5 0h2m3 0h2m1 0h1m2 0h2m1 0h2m1 0h1m1 0h2m4 0h2m1 0h1m3 0h2m1 0h1m1 0h2m6 0h1m3 0h2m1 0h1m2 0h1m5 0h1m1 0h2m2 0h3m2 0h1m2 0h1m2 0h1m1 0h1m1 0h1m3 0h2m1 0h6m2 0h1m2 0h1m2 0h2m2 0h1m2 0h1m1 0h3m1 0h1m1 0h2m2 0h2m1 0h1m2 0h1m2 0h2m3 0h3M6 116.5h1m1 0h5m2 0h8m3 0h1m4 0h9m4 0h2m1 0h5m2 0h2m4 0h6m1 0h2m1 0h2m2 0h1m2 0h2m2 0h1m4 0h7m4 0h1m1 0h2m2 0h1m2 0h2m1 0h4m2 0h6m6 0h6m4 0h1m1 0h4m1 0h7m1 0h1m5 0h3m1 0h2m3 0h1m1 0h2m1 0h5m3 0h1M4 117.5h1m1 0h1m1 0h1m3 0h4m2 0h2m3 0h2m1 0h1m3 0h3m3 0h4m1 0h4m1 0h1m1 0h2m1 0h1m1 0h5m2 0h1m3 0h2m1 0h1m4 0h2m1 0h1m2 0h3m1 0h4m2 0h1m3 0h6m3 0h1m1 0h1m2 0h2m1 0h1m2 0h1m2 0h2m3 0h5m1 0h2m5 0h7m2 0h3m3 0h3m1 0h1m3 0h2m6 0h1m2 0h4m1 0h1m3 0h1m1 0h1m1 0h1M8 118.5h1m1 0h1m1 0h6m2 0h1m1 0h3m2 0h1m4 0h1m1 0h1m1 0h1m2 0h2m1 0h1m2 0h2m3 0h1m1 0h2m1 0h1m1 0h4m1 0h1m1 0h1m2 0h2m1 0h4m3 0h1m1 0h6m3 0h1m1 0h1m1 0h1m4 0h2m1 0h1m1 0h1m1 0h2m2 0h3m3 0h1m1 0h1m1 0h1m1 0h2m2 0h2m3 0h4m1 0h2m1 0h1m2 0h2m1 0h2m1 0h1m1 0h2m1 0h1m1 0h2m3 0h1m1 0h2m1 0h1m3 0h1m3 0h2m1 0h1m1 0h4M4 119.5h1m1 0h1m1 0h1m3 0h3m3 0h1m2 0h2m2 0h1m2 0h5m3 0h3m1 0h2m1 0h2m1 0h1m1 0h1m2 0h3m1 0h1m2 0h3m3 0h1m1 0h1m4 0h1m2 0h3m1 0h1m6 0h1m1 0h2m3 0h1m1 0h1m1 0h2m1 0h1m2 0h1m1 0h3m1 0h2m1 0h1m1 0h1m1 0h2m3 0h3m2 0h4m4 0h2m2 0h1m3 0h4m3 0h2m1 0h1m2 0h1m2 0h1m2 0h1m2 0h1m2 0h1m2 0h1m2 0h1m3 0h1m1 0h1M6 120.5h8m4 0h2m5 0h1m4 0h8m4 0h2m3 0h5m2 0h1m1 0h2m1 0h6m5 0h3m2 0h3m1 0h1m2 0h1m3 0h1m1 0h6m3 0h1m2 0h4m6 0h4m1 0h6m6 0h7m3 0h1m1 0h2m1 0h1m1 0h5m1 0h3m4 0h7m1 0h1m2 0h10m1 0h2M5 121.5h1m1 0h2m4 0h1m1 0h1m1 0h1m4 0h4m3 0h2m1 0h1m1 0h1m1 0h3m1 0h1m1 0h1m4 0h2m5 0h5m1 0h3m1 0h2m3 0h7m2 0h1m1 0h4m1 0h1m4 0h1m1 0h3m2 0h1m8 0h1m1 0h2m1 0h1m1 0h1m1 0h1m2 0h2m1 0h4m1 0h2m6 0h5m2 0h1m1 0h1m5 0h11m1 0h1m2 0h3m1 0h1m3 0h1m4 0h1M5 122.5h1m3 0h3m1 0h2m5 0h1m1 0h3m1 0h1m2 0h4m2 0h1m1 0h1m1 0h1m1 0h1m3 0h1m1 0h1m3 0h2m5 0h1m2 0h5m1 0h2m1 0h1m1 0h2m5 0h2m1 0h1m1 0h1m4 0h1m3 0h1m2 0h3m3 0h1m1 0h1m3 0h1m1 0h2m3 0h2m1 0h1m1 0h1m1 0h1m1 0h2m1 0h3m1 0h1m1 0h2m1 0h2m2 0h1m1 0h2m1 0h4m5 0h1m3 0h1m1 0h1m1 0h2m2 0h1m5 0h1m1 0h2m1 0h1m1 0h1M6 123.5h2m5 0h1m1 0h1m1 0h3m3 0h2m7 0h2m1 0h1m4 0h1m2 0h1m1 0h2m1 0h1m4 0h1m1 0h1m2 0h2m5 0h3m1 0h1m3 0h2m1 0h1m1 0h2m3 0h1m1 0h1m2 0h1m5 0h1m1 0h2m4 0h3m1 0h1m3 0h2m2 0h3m2 0h1m1 0h2m5 0h1m2 0h1m1 0h2m2 0h1m1 0h1m1 0h2m1 0h1m6 0h2m1 0h2m4 0h2m1 0h1m2 0h1m2 0h1m1 0h6m1 0h1M4 124.5h1m2 0h1m2 0h1m1 0h1m1 0h1m2 0h1m3 0h2m2 0h1m3 0h2m1 0h1m1 0h2m2 0h3m1 0h1m1 0h1m1 0h5m1 0h1m1 0h1m1 0h1m2 0h1m3 0h1m2 0h2m2 0h3m2 0h2m1 0h1m2 0h2m1 0h3m3 0h2m1 0h1m5 0h3m3 0h3m1 0h6m2 0h3m3 0h1m1 0h1m2 0h3m1 0h1m2 0h1m4 0h1m1 0h5m1 0h3m1 0h1m5 0h2m1 0h1m2 0h2m2 0h1m1 0h1m8 0h2M5 125.5h2m2 0h1m3 0h4m2 0h1m1 0h1m3 0h3m3 0h2m4 0h4m1 0h4m2 0h1m1 0h2m1 0h1m1 0h2m2 0h4m1 0h6m1 0h1m3 0h3m3 0h3m3 0h2m2 0h2m1 0h2m1 0h1m2 0h2m1 0h2m1 0h1m2 0h1m2 0h1m2 0h1m2 0h1m1 0h3m1 0h3m2 0h3m1 0h4m1 0h2m7 0h1m8 0h2m1 0h1m1 0h8m3 0h2m3 0h1m2 0h1M6 126.5h7m1 0h1m2 0h1m2 0h3m4 0h2m1 0h1m1 0h2m1 0h7m4 0h2m4 0h1m1 0h2m2 0h2m2 0h2m1 0h1m2 0h1m1 0h1m1 0h1m4 0h1m2 0h1m1 0h1m1 0h2m3 0h1m6 0h4m2 0h1m1 0h2m3 0h3m1 0h4m1 0h3m1 0h1m4 0h1m1 0h1m2 0h1m2 0h1m2 0h1m2 0h3m3 0h3m4 0h1m2 0h5m3 0h2m4 0h2m1 0h1m1 0h3M4 127.5h1m4 0h1m1 0h1m1 0h1m3 0h3m3 0h8m1 0h1m1 0h1m2 0h2m1 0h1m2 0h1m1 0h2m4 0h1m6 0h1m3 0h3m1 0h2m6 0h5m4 0h1m1 0h2m1 0h2m1 0h1m1 0h5m3 0h5m2 0h1m1 0h2m1 0h4m2 0h1m4 0h3m4 0h4m4 0h1m1 0h2m3 0h2m5 0h3m1 0h1m2 0h2m1 0h2m1 0h3m5 0h3m1 0h1M5 128.5h2m1 0h1m1 0h3m2 0h3m2 0h1m2 0h1m1 0h1m1 0h1m2 0h1m2 0h1m1 0h3m1 0h2m1 0h1m1 0h1m2 0h2m2 0h4m1 0h2m2 0h1m4 0h3m1 0h4m1 0h1m1 0h1m1 0h2m1 0h1m5 0h4m1 0h1m4 0h1m1 0h2m4 0h3m1 0h2m1 0h1m2 0h1m1 0h1m1 0h1m3 0h1m1 0h1m1 0h6m6 0h2m1 0h3m3 0h5m1 0h2m2 0h5m5 0h3m3 0h2M6 129.5h2m1 0h1m1 0h2m1 0h1m2 0h1m4 0h2m3 0h1m2 0h2m2 0h1m1 0h1m1 0h1m1 0h6m2 0h1m1 0h1m2 0h1m2 0h3m1 0h8m1 0h2m2 0h1m1 0h1m1 0h1m2 0h7m2 0h7m1 0h1m1 0h3m1 0h2m1 0h1m2 0h1m5 0h1m2 0h2m1 0h4m1 0h2m1 0h1m3 0h4m1 0h2m1 0h1m5 0h1m4 0h2m1 0h1m2 0h2m4 0h1m3 0h5m2 0h1m1 0h1m1 0h1M5 130.5h1m3 0h4m2 0h2m1 0h3m1 0h1m4 0h3m1 0h2m3 0h1m1 0h2m3 0h1m2 0h1m5 0h1m2 0h1m2 0h1m2 0h2m1 0h1m2 0h1m1 0h2m1 0h1m2 0h1m1 0h1m2 0h6m1 0h1m9 0h4m1 0h4m1 0h4m2 0h6m1 0h1m1 0h1m1 0h2m2 0h2m5 0h7m1 0h2m2 0h3m1 0h1m2 0h2m2 0h1m1 0h4m2 0h2m3 0h2m1 0h6M6 131.5h2m1 0h1m1 0h1m2 0h2m1 0h6m6 0h3m1 0h1m3 0h2m2 0h1m1 0h1m1 0h2m2 0h1m8 0h1m1 0h2m1 0h2m1 0h1m2 0h1m4 0h3m1 0h1m2 0h1m1 0h1m1 0h2m1 0h2m1 0h1m1 0h1m2 0h1m1 0h1m5 0h3m1 0h1m2 0h9m1 0h2m2 0h1m1 0h1m1 0h1m1 0h2m1 0h1m1 0h2m3 0h2m10 0h2m1 0h1m3 0h1m2 0h1m2 0h1m2 0h1m1 0h1m1 0h7M7 132.5h2m1 0h1m1 0h4m2 0h1m1 0h1m1 0h1m2 0h2m2 0h7m1 0h1m2 0h1m1 0h3m3 0h7m1 0h2m1 0h1m6 0h2m1 0h1m2 0h3m1 0h4m1 0h2m1 0h1m5 0h2m1 0h3m4 0h1m1 0h2m1 0h2m2 0h1m1 0h2m2 0h1m3 0h1m5 0h1m1 0h1m1 0h2m1 0h2m3 0h1m1 0h2m1 0h1m1 0h1m3 0h3m4 0h1m1 0h3m2 0h1m1 0h1m2 0h4m2 0h1m1 0h1m4 0h1M4 133.5h1m1 0h1m2 0h1m1 0h2m1 0h4m2 0h2m3 0h1m1 0h1m9 0h1m1 0h1m2 0h3m3 0h10m2 0h3m1 0h2m3 0h2m3 0h3m1 0h1m1 0h4m1 0h1m2 0h1m1 0h5m2 0h1m1 0h1m1 0h1m1 0h1m2 0h1m1 0h2m1 0h3m3 0h1m1 0h1m1 0h2m1 0h3m2 0h1m3 0h2m1 0h1m1 0h2m1 0h1m5 0h2m1 0h8m3 0h2m1 0h1m2 0h2m3 0h1m3 0h1m2 0h2M5 134.5h1m2 0h1m1 0h1m2 0h1m1 0h3m1 0h2m1 0h2m1 0h1m2 0h1m2 0h2m1 0h1m2 0h1m3 0h1m1 0h1m1 0h2m4 0h2m4 0h2m2 0h4m3 0h1m1 0h4m5 0h2m1 0h4m7 0h7m2 0h2m5 0h2m2 0h9m1 0h5m3 0h1m1 0h1m3 0h1m2 0h2m1 0h1m3 0h2m2 0h1m2 0h1m5 0h3m2 0h3m3 0h5m2 0h1M7 135.5h1m6 0h1m2 0h1m1 0h1m2 0h3m1 0h3m2 0h1m1 0h2m1 0h1m4 0h1m4 0h1m1 0h2m2 0h1m4 0h3m6 0h1m2 0h1m1 0h1m2 0h3m1 0h1m6 0h4m3 0h1m3 0h2m3 0h6m1 0h1m2 0h1m2 0h4m5 0h2m4 0h3m2 0h2m2 0h1m3 0h1m1 0h2m1 0h1m4 0h4m1 0h1m2 0h2m1 0h1m1 0h2m1 0h2m4 0h6M6 136.5h1m1 0h3m1 0h2m1 0h1m1 0h1m1 0h1m1 0h2m1 0h1m1 0h3m4 0h1m1 0h1m2 0h1m2 0h2m6 0h6m1 0h1m1 0h2m1 0h1m3 0h1m1 0h1m1 0h1m1 0h2m1 0h1m3 0h2m1 0h1m1 0h5m1 0h4m1 0h1m2 0h1m1 0h2m2 0h1m1 0h2m3 0h1m1 0h2m3 0h3m7 0h4m1 0h2m1 0h1m3 0h2m1 0h1m1 0h3m1 0h1m1 0h2m1 0h2m3 0h3m1 0h1m1 0h1m2 0h4m6 0h1m1 0h2M4 137.5h2m2 0h2m2 0h1m1 0h2m2 0h1m1 0h1m1 0h1m2 0h1m1 0h2m1 0h1m1 0h3m5 0h1m2 0h2m2 0h2m1 0h1m2 0h2m5 0h1m1 0h1m1 0h3m1 0h3m2 0h1m2 0h2m2 0h3m1 0h1m1 0h2m1 0h1m2 0h1m1 0h4m2 0h1m4 0h2m1 0h2m5 0h1m1 0h1m1 0h1m2 0h6m5 0h2m1 0h1m1 0h1m2 0h1m1 0h1m1 0h1m1 0h4m1 0h1m3 0h1m1 0h1m2 0h3m2 0h2m4 0h1m3 0h1m2 0h2M4 138.5h1m1 0h2m1 0h2m1 0h2m1 0h2m1 0h1m1 0h1m1 0h1m2 0h1m1 0h3m3 0h1m1 0h1m1 0h1m3 0h1m1 0h1m1 0h3m4 0h2m3 0h2m2 0h1m1 0h3m2 0h1m1 0h1m1 0h1m7 0h5m5 0h2m4 0h4m2 0h3m4 0h2m1 0h1m1 0h1m1 0h5m5 0h2m3 0h1m2 0h3m2 0h1m2 0h1m3 0h2m1 0h1m1 0h1m2 0h1m2 0h1m2 0h1m4 0h3m6 0h1m1 0h1m1 0h1M4 139.5h1m1 0h1m6 0h5m2 0h1m3 0h1m1 0h2m2 0h3m4 0h2m1 0h1m5 0h1m1 0h2m1 0h3m1 0h1m1 0h3m1 0h2m3 0h1m6 0h1m1 0h5m5 0h2m1 0h2m2 0h1m1 0h3m1 0h1m2 0h2m1 0h1m1 0h3m1 0h1m2 0h4m2 0h1m4 0h1m1 0h2m1 0h3m6 0h1m1 0h1m1 0h1m1 0h1m1 0h3m2 0h1m2 0h1m2 0h1m8 0h2m1 0h1m2 0h2m1 0h4M4 140.5h4m2 0h3m1 0h1m2 0h1m3 0h2m1 0h5m2 0h5m3 0h1m1 0h1m1 0h1m3 0h2m1 0h1m2 0h4m2 0h1m1 0h1m1 0h1m1 0h3m2 0h1m1 0h1m1 0h1m1 0h2m1 0h1m4 0h1m1 0h1m3 0h5m2 0h1m2 0h1m2 0h1m3 0h1m1 0h1m1 0h4m5 0h1m2 0h1m3 0h4m1 0h1m8 0h2m1 0h5m1 0h3m2 0h1m2 0h3m1 0h1m1 0h1m2 0h4m2 0h1m5 0h2M5 141.5h1m3 0h1m2 0h3m1 0h4m2 0h1m1 0h2m2 0h1m1 0h1m7 0h1m1 0h1m3 0h2m1 0h18m1 0h2m3 0h1m5 0h1m2 0h6m2 0h7m6 0h1m1 0h1m2 0h3m3 0h2m4 0h3m1 0h1m1 0h1m1 0h1m3 0h1m2 0h2m1 0h1m1 0h1m2 0h3m4 0h6m2 0h2m1 0h1m6 0h1m1 0h1m2 0h2m5 0h1m1 0h1M5 142.5h3m2 0h1m1 0h1m1 0h1m4 0h2m5 0h1m1 0h3m3 0h1m1 0h1m2 0h3m1 0h1m1 0h3m3 0h2m4 0h2m3 0h1m2 0h1m1 0h4m1 0h1m6 0h2m1 0h3m5 0h1m2 0h1m1 0h4m1 0h1m1 0h1m1 0h1m2 0h3m1 0h2m1 0h1m2 0h2m1 0h1m2 0h1m1 0h1m3 0h3m2 0h5m3 0h1m1 0h1m2 0h1m1 0h1m1 0h1m2 0h1m5 0h1m1 0h1m2 0h2m4 0h1m2 0h1m4 0h1M5 143.5h5m3 0h1m1 0h1m2 0h2m3 0h1m3 0h1m2 0h3m2 0h2m1 0h6m1 0h4m2 0h2m2 0h2m1 0h4m1 0h1m2 0h1m6 0h4m1 0h2m6 0h4m1 0h1m2 0h5m2 0h6m1 0h1m2 0h1m3 0h2m4 0h2m2 0h6m2 0h1m1 0h1m4 0h1m2 0h3m3 0h1m1 0h5m1 0h1m1 0h3m4 0h2m5 0h1m1 0h2m1 0h1m1 0h1M7 144.5h6m1 0h2m4 0h2m1 0h1m5 0h2m1 0h5m1 0h4m2 0h2m3 0h2m3 0h1m1 0h1m3 0h6m1 0h3m8 0h2m1 0h1m2 0h1m1 0h1m1 0h5m1 0h1m2 0h1m1 0h2m1 0h2m1 0h1m1 0h1m1 0h2m1 0h3m1 0h5m6 0h2m1 0h1m1 0h1m6 0h2m1 0h9m3 0h1m1 0h1m1 0h1m3 0h1m1 0h2m2 0h1m1 0h7m2 0h2M4 145.5h1m3 0h1m3 0h3m1 0h2m1 0h1m2 0h3m1 0h1m1 0h1m1 0h3m3 0h6m3 0h3m3 0h2m2 0h1m1 0h1m2 0h1m3 0h3m1 0h3m2 0h1m2 0h2m3 0h2m2 0h1m2 0h1m3 0h1m1 0h3m2 0h1m1 0h1m1 0h1m2 0h1m4 0h1m3 0h2m3 0h3m1 0h1m1 0h2m8 0h4m1 0h1m1 0h2m3 0h1m1 0h3m2 0h4m1 0h3m1 0h2m1 0h2m1 0h3m3 0h3M5 146.5h4m1 0h1m1 0h1m1 0h1m1 0h1m1 0h1m2 0h3m4 0h1m2 0h2m1 0h1m1 0h1m2 0h1m5 0h3m3 0h4m2 0h4m1 0h1m1 0h1m2 0h2m1 0h1m1 0h1m2 0h1m1 0h1m4 0h1m1 0h1m2 0h2m1 0h1m1 0h2m2 0h3m1 0h1m1 0h2m4 0h3m3 0h1m1 0h1m1 0h1m1 0h7m4 0h1m4 0h2m1 0h4m1 0h1m1 0h1m1 0h1m4 0h2m3 0h3m4 0h1m3 0h2m1 0h1m1 0h1m1 0h1m1 0h2M5 147.5h2m1 0h1m3 0h2m2 0h1m3 0h1m1 0h1m1 0h2m1 0h4m1 0h1m3 0h1m1 0h1m4 0h2m1 0h1m4 0h3m1 0h1m2 0h1m1 0h1m3 0h1m1 0h1m2 0h1m4 0h3m8 0h1m1 0h2m3 0h1m1 0h1m1 0h1m5 0h1m1 0h2m1 0h2m1 0h1m2 0h1m2 0h1m3 0h1m1 0h1m3 0h1m2 0h3m1 0h1m1 0h3m2 0h1m1 0h1m1 0h1m3 0h2m2 0h3m1 0h1m3 0h1m2 0h4m5 0h1m3 0h3M4 148.5h3m1 0h5m2 0h3m2 0h1m2 0h1m1 0h5m1 0h7m2 0h4m1 0h1m1 0h2m2 0h4m1 0h2m1 0h9m1 0h2m3 0h1m3 0h1m5 0h1m2 0h8m5 0h4m5 0h1m2 0h2m1 0h7m3 0h1m2 0h1m1 0h1m1 0h2m1 0h1m4 0h3m1 0h8m5 0h3m1 0h5m1 0h2m1 0h7m2 0h2M5 149.5h2m1 0h2m3 0h1m1 0h2m2 0h3m2 0h3m3 0h2m1 0h1m1 0h1m4 0h6m2 0h1m5 0h4m3 0h1m3 0h1m3 0h5m1 0h1m1 0h2m2 0h1m3 0h1m1 0h2m1 0h3m1 0h2m1 0h1m1 0h3m1 0h1m1 0h2m5 0h2m2 0h2m1 0h1m2 0h1m1 0h1m1 0h1m4 0h1m1 0h2m1 0h4m4 0h2m2 0h2m1 0h2m1 0h1m1 0h2m4 0h3m1 0h1m1 0h1m2 0h5m1 0h1m1 0h2M4 150.5h1m2 0h1m2 0h2m2 0h1m1 0h1m3 0h1m1 0h2m1 0h2m4 0h1m1 0h2m1 0h5m1 0h2m2 0h2m1 0h1m2 0h1m2 0h1m2 0h1m1 0h3m1 0h2m2 0h1m1 0h1m1 0h1m2 0h1m1 0h1m1 0h2m1 0h1m1 0h2m2 0h1m1 0h1m1 0h1m2 0h6m1 0h1m1 0h2m2 0h2m4 0h1m2 0h2m1 0h4m1 0h2m2 0h1m3 0h1m1 0h2m2 0h4m2 0h1m2 0h2m5 0h1m4 0h1m2 0h1m1 0h2m4 0h3m1 0h1M4 151.5h1m1 0h2m1 0h1m1 0h1m3 0h5m3 0h1m1 0h2m3 0h4m1 0h2m2 0h1m1 0h1m1 0h4m2 0h1m3 0h1m4 0h6m1 0h1m8 0h3m1 0h2m5 0h4m5 0h1m1 0h2m1 0h1m1 0h1m1 0h3m2 0h1m1 0h2m1 0h1m1 0h1m1 0h5m2 0h1m1 0h2m2 0h5m2 0h1m1 0h1m2 0h5m1 0h2m2 0h3m1 0h2m1 0h3m1 0h1m2 0h1m1 0h2m1 0h1m1 0h2m2 0h4M7 152.5h1m1 0h4m1 0h1m3 0h1m3 0h1m3 0h3m1 0h3m3 0h3m2 0h1m1 0h1m3 0h6m1 0h2m1 0h1m2 0h2m2 0h1m1 0h3m1 0h3m1 0h1m1 0h1m1 0h1m2 0h1m1 0h1m1 0h1m3 0h1m2 0h1m7 0h2m5 0h1m1 0h1m1 0h2m1 0h3m2 0h1m1 0h1m1 0h1m4 0h1m1 0h1m1 0h1m2 0h1m3 0h2m1 0h1m2 0h2m2 0h1m2 0h1m2 0h6m1 0h1m2 0h1m1 0h4m3 0h3M4 153.5h1m2 0h1m1 0h1m2 0h3m1 0h1m3 0h1m1 0h2m3 0h2m1 0h1m2 0h1m2 0h6m2 0h1m3 0h1m1 0h1m2 0h2m1 0h1m3 0h1m2 0h1m1 0h1m2 0h1m8 0h1m3 0h2m1 0h4m3 0h1m1 0h3m1 0h1m1 0h1m5 0h2m14 0h2m1 0h4m1 0h1m3 0h7m3 0h1m4 0h1m1 0h3m3 0h3m2 0h4m1 0h1m1 0h2m9 0h1M6 154.5h1m1 0h7m1 0h2m1 0h1m1 0h2m1 0h1m1 0h4m1 0h1m1 0h1m1 0h4m1 0h1m1 0h2m1 0h3m1 0h1m2 0h2m1 0h1m2 0h1m2 0h2m1 0h2m1 0h2m1 0h1m1 0h1m6 0h2m1 0h1m1 0h2m3 0h4m1 0h1m1 0h3m1 0h1m1 0h1m2 0h1m1 0h1m1 0h3m2 0h1m1 0h1m1 0h1m3 0h1m9 0h4m3 0h1m1 0h1m5 0h3m1 0h1m2 0h1m5 0h1m1 0h2m2 0h1m3 0h3m2 0h1m1 0h3M4 155.5h1m2 0h2m4 0h1m3 0h1m2 0h3m3 0h3m4 0h3m2 0h1m2 0h4m1 0h1m5 0h1m4 0h3m2 0h1m1 0h1m1 0h2m3 0h1m1 0h1m2 0h1m1 0h1m4 0h1m2 0h3m7 0h3m3 0h1m1 0h3m1 0h1m1 0h1m4 0h1m1 0h2m1 0h2m2 0h5m1 0h1m2 0h1m1 0h1m1 0h1m6 0h1m1 0h1m4 0h1m1 0h3m1 0h1m3 0h1m4 0h3m2 0h1m2 0h1m1 0h1m1 0h2M4 156.5h2m2 0h1m1 0h1m1 0h1m2 0h1m1 0h4m5 0h1m2 0h2m1 0h2m3 0h7m3 0h2m1 0h1m1 0h3m1 0h2m1 0h1m1 0h1m5 0h4m2 0h1m1 0h4m1 0h2m5 0h3m1 0h1m2 0h2m2 0h1m1 0h1m8 0h2m1 0h2m1 0h1m2 0h2m5 0h1m1 0h5m1 0h1m5 0h4m1 0h1m5 0h3m1 0h1m1 0h3m8 0h1m2 0h1m1 0h5m2 0h2M4 157.5h1m1 0h1m1 0h2m3 0h2m1 0h3m2 0h1m4 0h1m3 0h7m1 0h2m1 0h2m1 0h1m1 0h1m1 0h2m1 0h1m2 0h3m1 0h1m1 0h1m2 0h2m1 0h2m1 0h4m7 0h5m2 0h2m3 0h1m1 0h1m1 0h1m2 0h3m1 0h1m2 0h2m1 0h1m1 0h2m3 0h2m2 0h5m1 0h1m2 0h3m1 0h4m1 0h2m1 0h1m2 0h2m2 0h5m1 0h1m1 0h3m2 0h2m1 0h2m1 0h4m4 0h1m2 0h1m1 0h1M4 158.5h1m1 0h2m2 0h4m1 0h1m3 0h2m1 0h1m1 0h1m1 0h2m2 0h1m1 0h2m2 0h2m1 0h3m1 0h1m1 0h1m3 0h2m1 0h1m4 0h2m4 0h3m1 0h2m1 0h3m6 0h4m1 0h2m3 0h1m1 0h2m2 0h8m1 0h1m3 0h9m1 0h3m1 0h1m1 0h1m1 0h2m1 0h1m4 0h2m2 0h1m6 0h1m2 0h2m3 0h3m3 0h2m2 0h1m1 0h1m1 0h1m1 0h1m1 0h1m1 0h1m1 0h1m1 0h1M4 159.5h2m3 0h1m1 0h2m2 0h2m6 0h3m1 0h7m3 0h1m1 0h2m2 0h2m1 0h2m1 0h1m1 0h1m1 0h1m4 0h2m1 0h1m1 0h2m1 0h2m1 0h1m3 0h2m1 0h4m2 0h2m2 0h2m2 0h2m4 0h3m2 0h2m1 0h1m1 0h1m1 0h1m1 0h1m2 0h4m1 0h1m1 0h1m2 0h1m1 0h1m3 0h1m1 0h2m1 0h2m1 0h1m2 0h1m2 0h4m4 0h1m1 0h3m1 0h1m2 0h1m4 0h3m1 0h1m1 0h2m3 0h1m1 0h3M5 160.5h2m3 0h2m1 0h1m1 0h1m2 0h3m1 0h1m2 0h1m1 0h1m2 0h1m3 0h4m1 0h4m1 0h1m2 0h1m2 0h2m2 0h2m3 0h1m1 0h1m1 0h1m3 0h1m1 0h3m2 0h4m2 0h2m3 0h2m1 0h1m3 0h1m1 0h2m1 0h1m1 0h2m2 0h1m1 0h2m4 0h3m1 0h1m1 0h1m5 0h2m2 0h2m1 0h3m6 0h2m1 0h1m1 0h1m2 0h1m2 0h1m1 0h1m3 0h4m1 0h2m2 0h1m1 0h4m1 0h1m1 0h3M6 161.5h1m2 0h1m1 0h6m1 0h1m7 0h5m1 0h2m1 0h1m2 0h1m2 0h1m4 0h1m1 0h1m2 0h1m1 0h1m1 0h2m3 0h1m6 0h6m7 0h5m2 0h1m1 0h4m1 0h1m2 0h1m2 0h1m5 0h2m8 0h2m1 0h1m1 0h4m1 0h2m5 0h7m1 0h1m2 0h2m1 0h2m1 0h1m1 0h1m1 0h1m1 0h1m1 0h1m2 0h2m1 0h2m1 0h4m2 0h1m1 0h1m4 0h1M6 162.5h5m1 0h2m3 0h1m1 0h8m3 0h1m1 0h1m3 0h1m3 0h1m8 0h1m2 0h2m3 0h2m2 0h1m2 0h1m2 0h2m1 0h1m1 0h2m3 0h1m3 0h2m1 0h1m3 0h1m1 0h4m1 0h11m2 0h1m2 0h1m2 0h1m1 0h1m2 0h1m1 0h3m1 0h3m1 0h1m1 0h1m1 0h1m2 0h3m2 0h1m1 0h1m3 0h4m2 0h2m2 0h1m1 0h2m2 0h1m2 0h2m1 0h1m1 0h2m5 0h2M5 163.5h1m2 0h1m4 0h1m4 0h1m1 0h2m9 0h2m1 0h3m3 0h8m4 0h1m2 0h4m2 0h2m3 0h1m4 0h1m2 0h5m6 0h5m1 0h1m2 0h1m1 0h1m1 0h2m2 0h1m1 0h1m2 0h7m1 0h2m1 0h1m1 0h2m2 0h1m2 0h2m1 0h2m2 0h1m5 0h1m1 0h3m1 0h1m4 0h1m2 0h3m2 0h3m2 0h3m1 0h2m1 0h2m1 0h1m1 0h1m1 0h3M4 164.5h1m1 0h1m2 0h2m2 0h1m1 0h2m1 0h1m1 0h1m1 0h1m4 0h1m1 0h4m3 0h3m1 0h1m1 0h1m1 0h2m1 0h2m1 0h2m2 0h1m1 0h1m1 0h6m3 0h1m1 0h6m3 0h2m1 0h3m2 0h1m1 0h2m3 0h1m1 0h1m1 0h1m1 0h3m1 0h1m1 0h2m2 0h7m1 0h1m3 0h1m3 0h1m1 0h2m1 0h2m3 0h1m1 0h1m1 0h4m1 0h4m1 0h2m1 0h2m3 0h1m1 0h1m2 0h9m1 0h1m3 0h1m2 0h2M4 165.5h6m1 0h2m1 0h1m5 0h2m1 0h1m1 0h2m6 0h2m1 0h1m4 0h1m4 0h1m1 0h1m1 0h1m3 0h1m1 0h2m3 0h1m3 0h2m1 0h3m1 0h1m2 0h1m1 0h2m2 0h3m1 0h4m1 0h2m2 0h1m4 0h2m5 0h3m3 0h2m1 0h3m1 0h1m2 0h1m1 0h1m1 0h2m1 0h1m1 0h1m1 0h2m1 0h3m4 0h3m2 0h6m1 0h2m2 0h1m3 0h2m2 0h1m1 0h2m2 0h1m1 0h1m1 0h1m1 0h2M6 166.5h7m1 0h2m2 0h1m2 0h1m1 0h4m1 0h1m3 0h1m2 0h1m1 0h1m4 0h1m3 0h2m4 0h1m2 0h1m4 0h5m3 0h1m1 0h2m5 0h1m1 0h2m1 0h1m1 0h1m3 0h3m1 0h1m3 0h2m2 0h1m1 0h1m1 0h1m3 0h2m1 0h1m2 0h1m2 0h2m1 0h5m3 0h3m3 0h3m3 0h3m4 0h2m1 0h1m2 0h2m2 0h1m2 0h4m2 0h2m1 0h2m7 0h1M5 167.5h1m1 0h2m4 0h2m1 0h2m1 0h1m1 0h2m2 0h2m3 0h2m1 0h1m1 0h1m2 0h1m2 0h2m2 0h2m2 0h1m5 0h1m1 0h2m5 0h1m1 0h1m4 0h1m1 0h2m1 0h3m6 0h4m1 0h2m1 0h1m2 0h1m1 0h2m2 0h3m3 0h2m5 0h4m1 0h2m2 0h4m2 0h2m1 0h1m1 0h1m3 0h5m1 0h3m1 0h1m2 0h6m1 0h2m2 0h1m1 0h2m4 0h1m1 0h3m1 0h3M5 168.5h3m2 0h1m1 0h1m2 0h1m3 0h2m1 0h1m1 0h2m7 0h8m1 0h1m1 0h2m1 0h1m1 0h2m1 0h1m1 0h1m1 0h1m2 0h2m5 0h2m1 0h2m2 0h1m1 0h5m1 0h1m1 0h1m1 0h1m2 0h2m1 0h1m2 0h2m4 0h2m1 0h1m1 0h3m3 0h3m1 0h4m2 0h1m3 0h1m1 0h2m1 0h3m2 0h2m2 0h4m1 0h3m3 0h4m1 0h1m2 0h5m3 0h1m1 0h3m1 0h2m5 0h2M8 169.5h2m2 0h1m2 0h3m3 0h5m1 0h1m1 0h3m1 0h1m1 0h1m3 0h3m1 0h2m3 0h4m2 0h4m2 0h1m6 0h1m1 0h9m2 0h3m1 0h4m1 0h1m2 0h1m1 0h2m1 0h1m2 0h2m1 0h1m2 0h1m2 0h1m7 0h3m1 0h2m1 0h4m5 0h1m1 0h2m1 0h1m6 0h1m1 0h9m2 0h2m1 0h2m1 0h1m1 0h5m1 0h1m5 0h1m1 0h1M4 170.5h3m2 0h2m3 0h3m3 0h1m3 0h3m3 0h1m2 0h3m3 0h2m2 0h1m1 0h2m3 0h5m2 0h2m1 0h1m3 0h1m2 0h2m1 0h1m1 0h2m5 0h2m1 0h1m1 0h2m2 0h1m1 0h1m1 0h2m2 0h1m1 0h2m1 0h1m1 0h2m3 0h4m2 0h1m1 0h3m1 0h2m2 0h1m1 0h2m1 0h1m1 0h1m1 0h4m3 0h1m2 0h1m3 0h2m5 0h2m1 0h2m1 0h1m1 0h1m2 0h2m5 0h2m3 0h1m1 0h1M7 171.5h1m3 0h2m1 0h1m1 0h1m1 0h4m1 0h1m3 0h1m6 0h1m1 0h1m2 0h1m1 0h2m3 0h2m1 0h1m8 0h1m1 0h2m3 0h2m2 0h1m1 0h1m2 0h3m1 0h2m1 0h1m1 0h1m1 0h2m1 0h1m1 0h2m1 0h5m3 0h2m1 0h3m1 0h1m1 0h1m2 0h3m1 0h4m1 0h1m1 0h2m1 0h1m1 0h4m1 0h1m3 0h3m1 0h2m2 0h3m2 0h1m1 0h2m2 0h1m5 0h1m2 0h1m8 0h6M5 172.5h1m1 0h1m1 0h2m2 0h1m2 0h1m2 0h5m1 0h3m1 0h1m2 0h5m1 0h4m1 0h3m2 0h1m1 0h2m1 0h3m3 0h7m3 0h1m5 0h5m2 0h1m3 0h7m4 0h2m1 0h2m3 0h3m1 0h1m1 0h2m2 0h6m2 0h3m2 0h1m1 0h1m1 0h1m7 0h1m1 0h1m1 0h15m1 0h6m1 0h2m3 0h6m1 0h2M12 173.5h2m1 0h5m2 0h1m1 0h1m1 0h1m5 0h1m3 0h1m1 0h1m1 0h5m1 0h1m1 0h2m5 0h2m1 0h1m1 0h1m3 0h2m5 0h2m2 0h1m2 0h8m1 0h2m3 0h4m3 0h2m2 0h1m2 0h2m1 0h1m1 0h3m2 0h1m3 0h5m1 0h2m1 0h1m6 0h1m1 0h1m5 0h1m3 0h5m1 0h1m3 0h1m2 0h5m1 0h3m2 0h1m3 0h1m1 0h3M4 174.5h7m1 0h2m1 0h1m2 0h2m3 0h2m1 0h4m2 0h1m1 0h1m1 0h4m1 0h1m1 0h1m1 0h2m3 0h1m1 0h4m1 0h2m1 0h1m1 0h1m1 0h1m3 0h3m1 0h1m4 0h1m2 0h1m1 0h1m1 0h2m2 0h1m1 0h1m1 0h1m2 0h4m3 0h1m1 0h2m2 0h1m1 0h2m2 0h3m1 0h1m1 0h2m2 0h1m2 0h3m1 0h2m2 0h1m1 0h1m1 0h1m1 0h1m2 0h1m1 0h1m1 0h1m1 0h2m1 0h3m4 0h2m1 0h1m2 0h1m3 0h1m1 0h1m1 0h1m1 0h1M4 175.5h1m5 0h1m2 0h1m1 0h2m1 0h1m4 0h1m2 0h4m1 0h2m3 0h1m1 0h1m4 0h1m1 0h4m3 0h2m1 0h1m1 0h4m3 0h1m1 0h2m6 0h1m1 0h1m1 0h1m4 0h1m2 0h3m3 0h2m2 0h1m1 0h1m2 0h2m1 0h2m2 0h3m2 0h1m1 0h2m3 0h1m2 0h1m1 0h3m2 0h2m4 0h1m3 0h1m3 0h1m3 0h1m5 0h1m2 0h1m2 0h1m2 0h1m1 0h3m1 0h1m1 0h2m3 0h1m1 0h2M4 176.5h1m1 0h3m1 0h1m1 0h1m2 0h2m1 0h2m4 0h1m1 0h2m2 0h1m1 0h5m1 0h2m3 0h2m2 0h4m2 0h2m1 0h2m2 0h5m3 0h2m1 0h1m2 0h2m1 0h1m1 0h1m1 0h3m1 0h2m1 0h7m2 0h1m1 0h2m9 0h3m3 0h6m3 0h1m1 0h4m1 0h2m1 0h1m3 0h2m1 0h7m1 0h4m1 0h1m2 0h8m1 0h11m1 0h2M4 177.5h1m1 0h3m1 0h1m1 0h1m3 0h1m3 0h4m5 0h2m1 0h7m1 0h1m3 0h2m2 0h3m5 0h1m7 0h2m1 0h2m1 0h1m1 0h1m2 0h3m1 0h2m1 0h1m1 0h1m1 0h1m1 0h2m3 0h3m4 0h1m2 0h5m1 0h1m2 0h2m3 0h2m3 0h5m3 0h1m2 0h2m1 0h1m1 0h2m4 0h1m4 0h4m1 0h5m2 0h10m2 0h4m1 0h1M4 178.5h1m1 0h3m1 0h1m1 0h2m1 0h1m1 0h3m1 0h1m1 0h2m1 0h2m1 0h1m2 0h2m2 0h2m3 0h2m6 0h2m1 0h2m1 0h1m2 0h1m1 0h2m1 0h1m1 0h1m2 0h3m1 0h1m4 0h1m1 0h2m1 0h1m1 0h2m1 0h1m1 0h2m2 0h1m1 0h5m1 0h2m2 0h1m1 0h2m1 0h1m1 0h1m1 0h1m2 0h1m3 0h1m1 0h2m1 0h2m1 0h1m2 0h1m2 0h4m2 0h1m1 0h1m3 0h3m1 0h1m1 0h3m3 0h3m7 0h1m1 0h3m4 0h1M4 179.5h1m5 0h1m1 0h1m1 0h1m1 0h1m1 0h1m3 0h3m3 0h2m1 0h1m2 0h2m1 0h1m1 0h1m1 0h2m1 0h3m2 0h1m1 0h2m5 0h1m3 0h1m1 0h1m1 0h2m1 0h1m3 0h2m1 0h4m6 0h2m1 0h4m1 0h1m1 0h2m5 0h2m3 0h2m3 0h1m1 0h2m2 0h5m1 0h1m2 0h1m1 0h1m5 0h1m1 0h1m1 0h1m1 0h4m2 0h2m1 0h1m2 0h4m2 0h1m2 0h1m2 0h1m2 0h1m1 0h2m2 0h1m2 0h1M4 180.5h7m1 0h1m2 0h1m1 0h2m1 0h2m2 0h1m2 0h5m1 0h1m4 0h2m3 0h1m3 0h1m1 0h2m3 0h4m1 0h1m1 0h2m1 0h4m1 0h1m3 0h1m1 0h2m4 0h3m4 0h2m1 0h1m1 0h1m1 0h1m2 0h4m1 0h1m1 0h2m2 0h1m1 0h2m2 0h4m1 0h2m7 0h4m2 0h1m1 0h1m1 0h1m1 0h6m1 0h1m1 0h1m2 0h1m3 0h2m3 0h1m1 0h1m2 0h4m2 0h2m4 0h1"/></svg>
