<?xml version="1.0" encoding="utf-8"?><!DOCTYPE svg PUBLIC "-//W3C//DTD SVG 1.1//EN" "http://www.w3.org/Graphics/SVG/1.1/DTD/svg11.dtd"><svg xmlns="http://www.w3.org/2000/svg" viewBox="0 0 185 185" shape-rendering="crispEdges"><path fill="#ffffff" d="M0 0h185v185H0z"/><path stroke="#000000" d="M4 4.5h7m3 0h1m1 0h1m2 0h1m1 0h1m1 0h2m1 0h1m1 0h1m1 0h1m2 0h1m2 0h4m1 0h1m1 0h3m1 0h4m3 0h5m1 0h1m1 0h1m1 0h1m2 0h3m1 0h2m2 0h1m1 0h1m2 0h1m1 0h1m1 0h2m1 0h1m1 0h1m1 0h4m2 0h1m1 0h1m1 0h1m1 0h1m2 0h2m4 0h2m3 0h2m2 0h5m5 0h1m1 0h2m1 0h1m1 0h2m3 0h1m3 0h2m1 0h3m1 0h3m2 0h1m3 0h2m3 0h1m1 0h1m3 0h7M4 5.5h1m5 0h1m1 0h2m1 0h6m1 0h4m1 0h2m1 0h2m1 0h2m2 0h1m1 0h3m5 0h1m1 0h1m1 0h4m4 0h1m2 0h4m1 0h4m6 0h1m1 0h5m11 0h2m1 0h1m2 0h2m1 0h1m3 0h4m1 0h2m2 0h2m1 0h3m2 0h2m1 0h2m1 0h2m1 0h6m1 0h1m3 0h1m1 0h2m2 0h1m2 0h1m4 0h2m1 0h2m2 0h1m2 0h2m1 0h1m1 0h1m5 0h1M4 6.5h1m1 0h3m1 0h1m2 0h1m1 0h1m1 0h1m1 0h2m1 0h1m1 0h3m1 0h1m1 0h3m1 0h4m2 0h1m2 0h1m2 0h2m7 0h4m1 0h2m1 0h3m1 0h1m1 0h1m1 0h1m2 0h1m1 0h1m2 0h1m1 0h1m1 0h1m1 0h4m3 0h3m1 0h1m1 0h1m2 0h1m1 0h1m1 0h7m3 0h2m7 0h1m2 0h1m1 0h1m1 0h1m1 0h1m1 0h1m3 0h2m1 0h2m1 0h1m3 0h1m1 0h1m2 0h1m6 0h1m1 0h1m2 0h1m3 0h1m3 0h1m1 0h3m1 0h1M4 7.5h1m1 0h3m1 0h1m1 0h4m1 0h1m1 0h4m2 0h4m1 0h5m2 0h3m2 0h1m1 0h1m7 0h3m1 0h4m5 0h1m1 0h1m1 0h1m1 0h1m1 0h1m2 0h1m3 0h2m1 0h4m3 0h1m1 0h4m2 0h1m1 0h2m3 0h3m4 0h2m1 0h1m3 0h1m1 0h1m3 0h1m2 0h3m1 0h1m4 0h1m2 0h1m1 0h1m1 0h1m3 0h6m1 0h5m2 0h1m5 0h1m2 0h2m1 0h1m1 0h3m1 0h1M4 8.5h1m1 0h3m1 0h1m2 0h1m1 0h4m2 0h4m2 0h2m1 0h1m1 0h6m3 0h6m1 0h2m1 0h1m1 0h4m1 0h1m1 0h8m1 0h4m2 0h2m1 0h2m1 0h3m1 0h1m1 0h6m1 0h2m1 0h1m2 0h1m2 0h1m2 0h4m1 0h1m1 0h1m1 0h8m1 0h1m2 0h1m7 0h2m1 0h2m1 0h1m2 0h9m3 0h1m1 0h2m1 0h1m1 0h3m2 0h2m4 0h1m1 0h3m1 0h1M4 9.5h1m5 0h1m1 0h1m2 0h2m2 0h1m4 0h1m1 0h1m1 0h1m1 0h1m1 0h1m3 0h3m3 0h2m5 0h2m1 0h2m3 0h4m3 0h2m2 0h1m1 0h1m1 0h1m6 0h7m1 0h2m3 0h1m2 0h1m1 0h4m1 0h1m1 0h2m3 0h2m2 0h1m2 0h1m3 0h1m2 0h4m3 0h1m4 0h6m3 0h1m3 0h3m3 0h1m4 0h2m4 0h2m2 0h2m1 0h1m1 0h1m5 0h1M4 10.5h7m1 0h1m1 0h1m1 0h1m1 0h1m1 0h1m1 0h1m1 0h1m1 0h1m1 0h1m1 0h1m1 0h1m1 0h1m1 0h1m1 0h1m1 0h1m1 0h1m1 0h1m1 0h1m1 0h1m1 0h1m1 0h1m1 0h1m1 0h1m1 0h1m1 0h1m1 0h1m1 0h1m1 0h1m1 0h1m1 0h1m1 0h1m1 0h1m1 0h1m1 0h1m1 0h1m1 0h1m1 0h1m1 0h1m1 0h1m1 0h1m1 0h1m1 0h1m1 0h1m1 0h1m1 0h1m1 0h1m1 0h1m1 0h1m1 0h1m1 0h1m1 0h1m1 0h1m1 0h1m1 0h1m1 0h1m1 0h1m1 0h1m1 0h1m1 0h1m1 0h1m1 0h1m1 0h1m1 0h1m1 0h1m1 0h1m1 0h1m1 0h1m1 0h1m1 0h1m1 0h1m1 0h1m1 0h1m1 0h1m1 0h1m1 0h1m1 0h1m1 0h1m1 0h1m1 0h1m1 0h1m1 0h1m1 0h7M13 11.5h3m2 0h1m1 0h1m9 0h1m1 0h1m3 0h1m2 0h2m3 0h1m1 0h1m2 0h1m1 0h3m1 0h2m1 0h1m1 0h1m3 0h1m1 0h2m1 0h1m1 0h1m2 0h1m1 0h1m1 0h1m7 0h1m1 0h1m3 0h2m1 0h5m1 0h5m2 0h3m5 0h1m3 0h1m2 0h2m4 0h1m2 0h8m2 0h1m1 0h1m3 0h1m3 0h1m1 0h1m1 0h1m4 0h1m1 0h1m1 0h2m4 0h2M4 12.5h5m1 0h5m1 0h2m8 0h1m1 0h1m2 0h7m4 0h2m4 0h5m4 0h1m2 0h7m1 0h3m3 0h5m1 0h1m1 0h2m2 0h7m7 0h1m1 0h2m2 0h2m4 0h3m1 0h6m1 0h3m1 0h4m1 0h1m4 0h1m1 0h2m1 0h1m1 0h7m1 0h1m3 0h1m2 0h1m2 0h3m2 0h1m1 0h2m1 0h2m1 0h1m1 0h1m1 0h1M5 13.5h2m1 0h1m3 0h1m1 0h4m1 0h5m2 0h1m1 0h2m4 0h1m2 0h3m4 0h2m2 0h1m1 0h1m4 0h4m1 0h5m3 0h1m1 0h4m3 0h1m1 0h1m1 0h4m3 0h2m2 0h3m6 0h1m3 0h2m1 0h1m2 0h2m3 0h1m1 0h8m7 0h4m1 0h2m4 0h2m1 0h2m1 0h1m3 0h1m1 0h1m4 0h1m1 0h9m3 0h1m1 0h2m1 0h1M4 14.5h1m1 0h1m1 0h3m2 0h4m2 0h2m6 0h1m3 0h2m1 0h2m1 0h1m1 0h1m1 0h1m1 0h1m6 0h1m1 0h2m1 0h1m1 0h3m1 0h2m1 0h2m1 0h2m1 0h3m6 0h2m1 0h1m1 0h1m5 0h1m2 0h1m2 0h3m3 0h1m2 0h6m3 0h2m1 0h2m1 0h5m1 0h1m2 0h1m3 0h2m1 0h2m1 0h2m1 0h1m1 0h1m1 0h4m5 0h1m4 0h2m1 0h1m1 0h3m3 0h1m2 0h1m2 0h1M5 15.5h2m2 0h1m1 0h4m1 0h1m2 0h1m3 0h1m1 0h1m1 0h4m4 0h1m4 0h1m4 0h2m1 0h1m2 0h2m2 0h2m1 0h1m1 0h2m1 0h2m1 0h2m6 0h1m1 0h1m1 0h2m1 0h1m1 0h1m4 0h2m2 0h8m2 0h3m1 0h1m1 0h2m7 0h1m1 0h1m1 0h1m1 0h2m1 0h2m1 0h3m1 0h1m1 0h1m1 0h1m1 0h3m1 0h1m1 0h3m1 0h1m1 0h1m1 0h2m4 0h2m2 0h2m1 0h1m1 0h2m2 0h1m1 0h3m1 0h1m1 0h1M5 16.5h2m2 0h4m1 0h2m1 0h1m4 0h2m1 0h1m2 0h5m2 0h4m1 0h2m1 0h1m3 0h1m2 0h1m3 0h1m1 0h1m6 0h1m1 0h1m1 0h1m3 0h1m3 0h6m3 0h1m1 0h1m3 0h1m1 0h3m3 0h4m5 0h1m2 0h1m1 0h1m1 0h1m1 0h2m2 0h2m6 0h1m1 0h1m1 0h2m1 0h3m2 0h1m1 0h1m3 0h1m1 0h1m1 0h1m1 0h1m2 0h1m2 0h2m2 0h3m2 0h4m4 0h1m1 0h1m1 0h1M4 17.5h1m1 0h3m2 0h1m1 0h1m3 0h4m3 0h1m1 0h3m2 0h5m7 0h3m2 0h1m1 0h1m2 0h1m1 0h2m7 0h1m1 0h3m1 0h1m1 0h6m1 0h1m1 0h2m1 0h2m1 0h9m3 0h1m6 0h1m2 0h1m2 0h1m3 0h1m1 0h7m1 0h2m5 0h4m1 0h2m4 0h1m3 0h6m1 0h2m7 0h2m2 0h1m1 0h1m1 0h1m3 0h1m2 0h2M4 18.5h8m1 0h1m2 0h2m1 0h2m1 0h2m4 0h1m3 0h4m3 0h1m1 0h3m1 0h2m2 0h4m1 0h1m2 0h4m1 0h1m2 0h1m1 0h4m1 0h1m7 0h1m1 0h1m1 0h1m3 0h2m1 0h1m1 0h1m3 0h2m1 0h1m1 0h2m1 0h1m1 0h4m3 0h2m2 0h1m1 0h1m1 0h2m4 0h2m1 0h1m3 0h2m3 0h2m1 0h2m5 0h1m6 0h1m1 0h2m1 0h2m6 0h2m1 0h3m2 0h1M4 19.5h1m2 0h2m3 0h2m1 0h1m5 0h2m1 0h1m1 0h6m3 0h2m2 0h2m5 0h1m1 0h1m1 0h1m4 0h2m1 0h1m1 0h2m4 0h2m3 0h1m1 0h2m1 0h4m3 0h1m1 0h2m6 0h2m1 0h1m1 0h1m1 0h1m2 0h2m1 0h1m1 0h1m1 0h1m6 0h1m1 0h1m4 0h3m1 0h1m1 0h1m1 0h2m1 0h1m2 0h2m6 0h2m6 0h1m2 0h1m5 0h2m1 0h1m4 0h8M4 20.5h1m4 0h4m2 0h3m2 0h3m1 0h7m2 0h1m2 0h1m1 0h5m4 0h1m1 0h1m1 0h1m2 0h1m1 0h1m12 0h1m1 0h2m3 0h2m1 0h6m1 0h1m3 0h3m4 0h1m1 0h4m2 0h3m1 0h1m1 0h2m1 0h1m1 0h1m1 0h1m2 0h1m6 0h1m1 0h3m4 0h1m1 0h2m1 0h1m2 0h1m2 0h1m1 0h3m4 0h2m1 0h4m3 0h1m1 0h2m1 0h1m2 0h1M6 21.5h1m1 0h2m6 0h1m1 0h2m2 0h1m1 0h1m2 0h2m1 0h1m1 0h2m2 0h1m2 0h1m3 0h2m3 0h2m3 0h5m1 0h3m1 0h6m3 0h3m2 0h1m3 0h1m1 0h1m4 0h3m1 0h1m1 0h2m1 0h1m1 0h2m3 0h1m1 0h1m1 0h1m3 0h1m2 0h3m1 0h4m1 0h3m6 0h2m1 0h1m1 0h2m3 0h3m1 0h7m2 0h1m5 0h7m1 0h2m1 0h1m3 0h2m1 0h1M4 22.5h1m3 0h5m8 0h2m2 0h1m1 0h3m1 0h1m1 0h2m1 0h3m2 0h1m1 0h1m2 0h2m2 0h1m1 0h2m7 0h2m1 0h2m1 0h4m1 0h1m6 0h2m1 0h1m1 0h2m1 0h1m2 0h1m5 0h1m1 0h2m2 0h2m3 0h2m1 0h2m1 0h3m2 0h1m3 0h1m1 0h4m1 0h8m1 0h1m1 0h2m1 0h2m1 0h1m1 0h2m1 0h1m1 0h2m2 0h2m1 0h4m1 0h3m4 0h4m1 0h3M6 23.5h2m1 0h1m2 0h2m3 0h2m2 0h3m2 0h2m2 0h1m1 0h1m2 0h7m3 0h2m1 0h1m2 0h1m6 0h1m1 0h2m1 0h2m1 0h2m5 0h2m1 0h1m1 0h2m5 0h2m1 0h2m1 0h1m1 0h1m2 0h1m1 0h2m3 0h2m1 0h1m1 0h2m1 0h1m2 0h1m4 0h1m1 0h1m5 0h2m1 0h1m1 0h2m1 0h3m4 0h1m3 0h4m1 0h2m1 0h2m4 0h2m3 0h3m3 0h6m1 0h1m1 0h1M6 24.5h1m1 0h3m3 0h2m2 0h4m3 0h3m1 0h1m1 0h1m3 0h2m2 0h1m2 0h1m2 0h1m1 0h1m2 0h1m1 0h1m1 0h3m1 0h2m1 0h1m3 0h2m8 0h2m1 0h1m4 0h1m1 0h3m2 0h1m1 0h1m1 0h2m1 0h1m1 0h2m1 0h1m6 0h2m1 0h1m4 0h1m1 0h1m3 0h1m3 0h4m1 0h1m7 0h3m1 0h2m1 0h2m1 0h1m2 0h1m2 0h4m1 0h3m1 0h1m2 0h1m3 0h2m6 0h1M11 25.5h3m1 0h2m1 0h1m1 0h1m2 0h3m3 0h4m1 0h2m1 0h2m1 0h1m1 0h1m1 0h1m1 0h1m1 0h2m1 0h1m2 0h1m1 0h2m3 0h2m1 0h1m2 0h2m1 0h1m1 0h1m3 0h2m3 0h2m1 0h1m2 0h2m1 0h5m1 0h2m2 0h2m1 0h2m1 0h3m4 0h1m2 0h2m1 0h2m3 0h3m2 0h1m3 0h2m1 0h1m1 0h1m2 0h1m2 0h1m3 0h1m2 0h1m3 0h3m4 0h1m1 0h3m1 0h1m1 0h2m1 0h1m3 0h4M4 26.5h3m3 0h4m1 0h1m3 0h2m1 0h2m4 0h2m2 0h2m1 0h2m2 0h2m2 0h1m2 0h1m5 0h2m1 0h1m2 0h5m1 0h2m1 0h4m1 0h2m1 0h1m1 0h1m1 0h2m1 0h1m1 0h2m1 0h3m1 0h1m3 0h2m1 0h2m2 0h4m1 0h1m1 0h3m2 0h1m2 0h5m2 0h3m3 0h1m7 0h2m2 0h1m1 0h2m2 0h2m3 0h1m1 0h1m4 0h2m1 0h1m5 0h1m1 0h1m2 0h1m1 0h1m1 0h2M4 27.5h1m3 0h2m1 0h1m1 0h2m3 0h1m2 0h3m1 0h2m2 0h3m1 0h1m1 0h1m1 0h3m1 0h1m4 0h2m1 0h1m2 0h1m4 0h4m3 0h4m5 0h2m1 0h2m1 0h1m3 0h1m2 0h1m7 0h1m1 0h2m3 0h6m1 0h4m1 0h1m3 0h1m5 0h1m1 0h2m3 0h1m1 0h3m5 0h4m7 0h1m2 0h4m1 0h2m2 0h1m2 0h1m5 0h1m1 0h3m1 0h1M9 28.5h2m3 0h1m1 0h2m1 0h1m1 0h1m3 0h2m1 0h1m2 0h1m1 0h3m1 0h1m1 0h4m1 0h1m3 0h3m3 0h1m3 0h2m3 0h1m2 0h1m5 0h6m12 0h4m1 0h1m1 0h1m1 0h2m1 0h2m2 0h1m5 0h1m1 0h1m3 0h1m6 0h1m1 0h7m3 0h1m2 0h1m1 0h2m2 0h1m1 0h4m1 0h1m1 0h4m2 0h2m1 0h1m3 0h3m1 0h4m1 0h1m1 0h2M5 29.5h1m1 0h2m3 0h1m2 0h2m3 0h2m1 0h1m2 0h3m1 0h1m2 0h1m1 0h2m1 0h3m2 0h3m1 0h4m5 0h1m1 0h1m3 0h1m1 0h2m1 0h2m1 0h3m1 0h2m3 0h1m1 0h4m2 0h2m2 0h1m1 0h2m2 0h1m5 0h1m2 0h2m5 0h1m2 0h1m2 0h1m1 0h2m1 0h1m1 0h2m3 0h1m1 0h4m1 0h1m2 0h1m1 0h3m1 0h2m2 0h2m3 0h1m1 0h1m1 0h1m1 0h2m1 0h1m1 0h2m3 0h2m1 0h1m3 0h2M4 30.5h3m1 0h1m1 0h2m3 0h2m2 0h3m1 0h3m1 0h3m1 0h1m1 0h3m4 0h4m2 0h1m2 0h4m1 0h2m2 0h4m1 0h2m3 0h1m1 0h4m6 0h4m1 0h1m1 0h3m5 0h2m1 0h1m1 0h1m1 0h2m6 0h1m1 0h1m1 0h2m1 0h5m1 0h3m2 0h2m4 0h3m2 0h1m1 0h1m2 0h1m1 0h1m4 0h1m2 0h1m2 0h1m1 0h3m3 0h2m2 0h1m1 0h1m1 0h4m1 0h1M4 31.5h4m1 0h1m3 0h1m3 0h2m1 0h1m1 0h2m4 0h1m1 0h1m1 0h3m2 0h1m2 0h2m4 0h2m1 0h1m1 0h1m5 0h2m1 0h1m1 0h3m1 0h2m3 0h1m1 0h6m4 0h1m1 0h2m4 0h1m1 0h1m1 0h2m4 0h1m1 0h2m3 0h1m1 0h1m1 0h3m4 0h1m1 0h2m2 0h1m4 0h1m2 0h1m1 0h2m1 0h1m1 0h1m1 0h2m1 0h3m1 0h1m1 0h2m1 0h2m1 0h1m2 0h2m3 0h3m1 0h1m2 0h1m4 0h2M6 32.5h7m1 0h1m2 0h3m1 0h1m1 0h1m1 0h1m6 0h5m1 0h2m1 0h3m1 0h1m1 0h1m2 0h6m2 0h1m1 0h5m5 0h1m2 0h3m2 0h3m3 0h1m2 0h6m1 0h1m4 0h2m1 0h2m3 0h1m1 0h1m1 0h3m2 0h6m5 0h6m2 0h2m2 0h2m1 0h1m1 0h5m1 0h1m4 0h2m1 0h2m2 0h1m4 0h10m3 0h1M8 33.5h1m3 0h4m5 0h1m1 0h2m2 0h4m1 0h1m3 0h1m3 0h1m3 0h1m2 0h1m2 0h1m3 0h1m1 0h2m2 0h1m3 0h1m1 0h2m1 0h6m3 0h1m3 0h1m1 0h2m1 0h2m3 0h3m2 0h1m2 0h2m4 0h1m5 0h1m2 0h2m3 0h1m1 0h1m1 0h1m1 0h2m5 0h4m1 0h1m2 0h1m2 0h1m3 0h1m2 0h1m2 0h5m1 0h4m4 0h5m3 0h1m2 0h2M5 34.5h1m2 0h1m1 0h1m1 0h5m2 0h1m2 0h1m1 0h2m1 0h2m1 0h1m1 0h1m1 0h1m1 0h1m1 0h1m1 0h1m1 0h2m2 0h2m1 0h1m1 0h3m1 0h1m2 0h1m1 0h1m1 0h1m1 0h2m1 0h2m1 0h1m1 0h2m1 0h2m2 0h4m1 0h2m2 0h1m1 0h1m1 0h1m2 0h2m1 0h2m1 0h2m1 0h2m1 0h2m1 0h1m3 0h3m1 0h1m1 0h5m2 0h1m1 0h6m1 0h1m1 0h1m1 0h5m1 0h1m1 0h1m1 0h1m2 0h1m1 0h1m3 0h2m4 0h1m1 0h1m4 0h1m1 0h1m1 0h1m1 0h1M4 35.5h1m3 0h1m3 0h2m1 0h4m1 0h1m2 0h1m2 0h1m2 0h1m2 0h1m3 0h1m1 0h1m1 0h2m3 0h3m1 0h1m5 0h2m1 0h1m1 0h1m3 0h1m1 0h2m5 0h4m1 0h2m3 0h1m2 0h1m1 0h1m3 0h1m2 0h2m7 0h2m2 0h1m1 0h1m3 0h1m1 0h1m3 0h2m3 0h1m1 0h4m1 0h2m1 0h1m1 0h4m2 0h2m3 0h1m2 0h1m1 0h3m1 0h1m1 0h1m1 0h1m1 0h1m2 0h2m1 0h1m2 0h1m3 0h3M5 36.5h8m1 0h1m2 0h1m1 0h6m1 0h3m1 0h1m1 0h6m1 0h2m1 0h1m4 0h5m2 0h1m5 0h6m3 0h3m1 0h5m1 0h3m1 0h2m2 0h8m2 0h1m1 0h3m1 0h1m3 0h1m4 0h2m1 0h6m2 0h1m3 0h7m5 0h2m1 0h1m1 0h7m1 0h4m1 0h3m2 0h1m1 0h2m1 0h10m1 0h3M4 37.5h1m4 0h1m2 0h7m1 0h1m1 0h3m1 0h1m1 0h1m2 0h1m4 0h2m1 0h2m1 0h5m1 0h1m1 0h2m1 0h3m1 0h5m1 0h1m2 0h1m2 0h3m3 0h1m6 0h1m1 0h1m1 0h1m1 0h1m1 0h1m3 0h1m4 0h1m3 0h1m2 0h2m3 0h2m2 0h1m2 0h1m2 0h2m1 0h3m2 0h2m2 0h6m5 0h1m2 0h2m3 0h2m3 0h1m3 0h5m1 0h3m1 0h1m1 0h2m2 0h1m2 0h1M5 38.5h2m1 0h6m1 0h2m3 0h3m3 0h2m3 0h1m1 0h1m3 0h2m2 0h3m3 0h1m1 0h5m2 0h7m1 0h2m1 0h2m1 0h1m1 0h2m3 0h1m2 0h3m1 0h2m1 0h1m2 0h3m2 0h4m1 0h1m1 0h1m1 0h2m1 0h4m3 0h1m1 0h4m1 0h2m1 0h2m2 0h3m1 0h3m2 0h4m3 0h1m2 0h1m1 0h3m2 0h2m1 0h5m3 0h2m2 0h2m1 0h1m5 0h1M5 39.5h1m2 0h2m1 0h3m2 0h1m2 0h1m1 0h1m2 0h2m1 0h1m2 0h3m3 0h1m1 0h4m4 0h2m3 0h3m1 0h4m1 0h1m1 0h2m2 0h1m6 0h4m1 0h2m1 0h2m2 0h5m1 0h1m1 0h1m1 0h1m1 0h1m4 0h3m1 0h1m1 0h4m1 0h1m4 0h3m1 0h2m1 0h1m1 0h5m2 0h2m4 0h1m1 0h1m1 0h3m1 0h1m3 0h3m2 0h1m2 0h2m3 0h3m4 0h1m1 0h2m1 0h3M5 40.5h1m2 0h1m1 0h3m2 0h2m2 0h1m1 0h2m1 0h2m1 0h2m2 0h4m2 0h1m1 0h6m2 0h1m3 0h1m2 0h1m1 0h3m1 0h1m6 0h5m2 0h2m1 0h1m1 0h1m1 0h1m2 0h3m1 0h1m2 0h2m2 0h1m4 0h2m1 0h1m1 0h2m2 0h1m2 0h2m1 0h2m2 0h1m1 0h1m5 0h4m1 0h1m6 0h6m4 0h4m1 0h1m1 0h1m1 0h2m2 0h1m4 0h1m1 0h2m1 0h1m1 0h3m1 0h2M4 41.5h1m1 0h1m2 0h1m1 0h1m2 0h1m3 0h5m3 0h1m1 0h1m5 0h1m3 0h1m1 0h1m3 0h1m2 0h1m1 0h1m4 0h3m2 0h2m4 0h2m2 0h4m7 0h1m1 0h3m5 0h2m2 0h2m1 0h1m1 0h3m3 0h3m1 0h1m1 0h2m2 0h1m1 0h6m1 0h1m1 0h2m5 0h2m1 0h3m3 0h2m2 0h7m1 0h2m1 0h3m1 0h1m2 0h3m1 0h1m2 0h3m3 0h2m1 0h1M7 42.5h1m1 0h3m8 0h2m1 0h2m1 0h1m1 0h1m3 0h1m8 0h1m1 0h1m1 0h1m6 0h4m2 0h2m4 0h2m1 0h2m1 0h1m1 0h1m2 0h1m4 0h5m2 0h2m1 0h1m1 0h1m3 0h3m3 0h2m5 0h3m2 0h1m1 0h2m13 0h1m2 0h1m1 0h1m1 0h2m2 0h1m1 0h2m1 0h3m1 0h1m1 0h1m1 0h1m4 0h1m8 0h1m2 0h1m2 0h1m1 0h2M4 43.5h1m1 0h1m4 0h2m2 0h1m1 0h3m2 0h2m2 0h4m1 0h2m2 0h1m1 0h3m1 0h1m2 0h1m1 0h2m1 0h1m3 0h1m4 0h1m2 0h1m4 0h2m3 0h1m1 0h7m2 0h2m1 0h4m2 0h1m1 0h1m2 0h1m1 0h1m2 0h2m1 0h2m2 0h1m1 0h1m5 0h1m1 0h4m4 0h1m1 0h2m1 0h1m1 0h2m2 0h1m3 0h1m2 0h3m2 0h1m3 0h3m1 0h1m2 0h1m3 0h1m1 0h1m1 0h1m3 0h1m1 0h1m1 0h1m1 0h3M4 44.5h2m1 0h6m1 0h2m1 0h1m1 0h2m3 0h3m1 0h2m4 0h1m3 0h1m2 0h1m1 0h3m3 0h2m1 0h1m1 0h3m2 0h2m1 0h2m1 0h3m1 0h1m7 0h2m2 0h1m1 0h1m1 0h2m4 0h1m2 0h1m2 0h1m2 0h1m4 0h2m2 0h2m1 0h2m5 0h1m3 0h1m1 0h1m1 0h1m1 0h4m2 0h1m4 0h1m1 0h1m5 0h3m2 0h1m1 0h4m3 0h4m2 0h6m1 0h2M4 45.5h1m1 0h1m2 0h1m3 0h5m1 0h1m4 0h1m1 0h3m1 0h2m2 0h5m2 0h1m1 0h2m1 0h1m1 0h1m1 0h1m1 0h4m1 0h1m1 0h2m3 0h1m4 0h2m2 0h1m1 0h1m1 0h1m3 0h2m1 0h2m2 0h1m1 0h1m1 0h3m1 0h1m4 0h1m2 0h3m1 0h1m6 0h3m3 0h1m2 0h1m6 0h1m2 0h3m1 0h2m3 0h3m1 0h4m1 0h5m2 0h1m1 0h2m3 0h1m1 0h1m2 0h1m3 0h1m4 0h1M4 46.5h1m1 0h1m1 0h4m1 0h1m1 0h1m1 0h9m1 0h4m2 0h2m2 0h1m2 0h2m3 0h3m3 0h3m4 0h2m1 0h5m1 0h2m1 0h1m1 0h2m5 0h2m1 0h1m1 0h2m1 0h4m1 0h2m4 0h1m2 0h1m1 0h4m1 0h4m2 0h1m3 0h1m1 0h3m1 0h1m2 0h1m3 0h2m5 0h2m2 0h1m2 0h1m2 0h1m1 0h2m8 0h1m5 0h2m1 0h1m3 0h1m2 0h4M11 47.5h3m3 0h1m2 0h3m1 0h2m2 0h3m1 0h2m3 0h1m1 0h2m5 0h2m1 0h1m1 0h3m1 0h1m1 0h2m1 0h2m1 0h5m3 0h1m1 0h2m1 0h1m1 0h2m1 0h1m1 0h1m2 0h2m1 0h2m2 0h2m1 0h3m2 0h1m1 0h2m2 0h2m1 0h2m2 0h1m2 0h2m1 0h1m1 0h2m2 0h1m1 0h1m1 0h1m1 0h2m1 0h1m2 0h2m1 0h2m1 0h4m1 0h1m2 0h4m4 0h1m5 0h2m6 0h2m1 0h2M4 48.5h1m2 0h4m1 0h6m1 0h1m1 0h2m2 0h3m2 0h1m1 0h3m3 0h3m1 0h4m1 0h1m2 0h1m3 0h1m1 0h1m1 0h1m2 0h3m2 0h3m1 0h1m8 0h1m1 0h2m1 0h1m3 0h1m5 0h1m5 0h2m1 0h1m1 0h3m4 0h1m1 0h1m1 0h1m6 0h1m1 0h1m1 0h5m1 0h1m1 0h1m3 0h2m1 0h1m1 0h1m5 0h3m5 0h2m1 0h4m2 0h3m1 0h1m1 0h2m5 0h1M4 49.5h1m6 0h1m1 0h2m1 0h3m3 0h2m1 0h1m1 0h2m1 0h2m1 0h6m1 0h1m3 0h3m1 0h3m3 0h3m6 0h1m4 0h1m2 0h2m1 0h2m1 0h1m1 0h5m1 0h2m3 0h1m1 0h1m1 0h1m2 0h1m1 0h3m1 0h1m2 0h1m2 0h1m1 0h2m2 0h4m2 0h4m1 0h1m3 0h2m1 0h2m1 0h4m3 0h1m3 0h2m2 0h2m1 0h3m1 0h1m2 0h1m2 0h5m1 0h2m2 0h1m2 0h1m1 0h2M5 50.5h1m2 0h3m1 0h1m1 0h1m3 0h1m2 0h2m1 0h1m3 0h1m2 0h1m2 0h2m3 0h3m1 0h1m1 0h2m5 0h2m1 0h1m1 0h1m1 0h1m1 0h2m1 0h1m2 0h2m1 0h1m1 0h2m1 0h2m2 0h4m1 0h2m1 0h3m1 0h2m3 0h3m2 0h3m6 0h1m1 0h1m1 0h5m2 0h1m1 0h2m2 0h3m7 0h1m2 0h3m6 0h2m2 0h1m1 0h1m1 0h1m1 0h3m5 0h1m5 0h1m1 0h5M5 51.5h3m3 0h1m1 0h2m1 0h1m1 0h1m1 0h2m1 0h2m1 0h5m1 0h2m2 0h3m4 0h5m3 0h1m4 0h3m1 0h1m1 0h3m1 0h2m1 0h1m1 0h1m1 0h6m6 0h6m2 0h1m2 0h2m3 0h2m1 0h2m1 0h2m2 0h2m2 0h1m2 0h4m8 0h1m1 0h4m1 0h1m3 0h2m1 0h1m1 0h1m1 0h1m4 0h4m3 0h1m2 0h4m7 0h1m3 0h1M5 52.5h1m2 0h3m3 0h5m4 0h1m1 0h3m1 0h2m6 0h1m1 0h2m1 0h2m4 0h4m2 0h2m5 0h1m1 0h1m1 0h3m1 0h3m1 0h4m1 0h4m3 0h1m2 0h2m1 0h2m1 0h1m2 0h5m4 0h1m2 0h1m1 0h3m3 0h1m3 0h1m6 0h1m1 0h4m3 0h1m4 0h3m1 0h2m1 0h5m3 0h2m3 0h1m1 0h1m2 0h2m3 0h1m1 0h4m1 0h2M5 53.5h1m2 0h1m2 0h2m3 0h1m3 0h1m1 0h2m2 0h1m5 0h4m2 0h1m3 0h4m2 0h3m2 0h5m1 0h1m3 0h1m1 0h1m1 0h2m2 0h2m2 0h1m4 0h1m1 0h1m4 0h2m1 0h1m1 0h1m1 0h2m4 0h1m2 0h1m1 0h2m4 0h1m3 0h1m1 0h1m1 0h1m1 0h4m1 0h2m1 0h1m3 0h6m4 0h3m1 0h2m3 0h1m1 0h2m2 0h1m2 0h1m1 0h3m2 0h1m1 0h2m1 0h1m1 0h1m1 0h1m2 0h1M9 54.5h3m2 0h2m3 0h2m5 0h2m2 0h2m4 0h1m6 0h1m2 0h1m5 0h1m1 0h2m1 0h4m2 0h3m2 0h3m1 0h2m6 0h3m1 0h2m2 0h6m2 0h4m1 0h2m1 0h1m1 0h4m2 0h4m2 0h3m3 0h5m1 0h1m3 0h1m2 0h2m6 0h1m2 0h1m1 0h2m2 0h2m4 0h2m4 0h1m2 0h1m2 0h1m2 0h3M4 55.5h1m2 0h2m2 0h1m1 0h5m1 0h1m1 0h1m2 0h3m2 0h2m2 0h5m1 0h3m1 0h1m2 0h1m8 0h4m1 0h2m1 0h3m1 0h1m3 0h1m1 0h2m1 0h1m1 0h2m6 0h2m1 0h2m2 0h1m2 0h2m1 0h1m1 0h1m1 0h4m1 0h4m1 0h3m1 0h2m1 0h1m2 0h2m3 0h1m2 0h2m3 0h2m2 0h5m1 0h1m5 0h3m1 0h2m1 0h1m3 0h4m1 0h1m5 0h1m2 0h3M6 56.5h1m1 0h3m1 0h4m1 0h1m1 0h1m1 0h3m2 0h3m3 0h5m2 0h1m2 0h4m2 0h1m2 0h2m1 0h1m1 0h1m3 0h2m2 0h3m3 0h1m5 0h1m1 0h3m13 0h1m4 0h2m9 0h3m8 0h1m1 0h1m1 0h1m2 0h1m1 0h3m3 0h2m1 0h2m1 0h2m1 0h2m2 0h2m1 0h1m2 0h2m1 0h1m1 0h1m1 0h1m1 0h1m4 0h4m1 0h3m2 0h1M5 57.5h1m1 0h3m1 0h1m1 0h1m4 0h2m1 0h2m4 0h2m2 0h1m1 0h6m4 0h3m2 0h3m3 0h1m1 0h2m1 0h3m4 0h1m2 0h4m1 0h1m1 0h2m1 0h1m1 0h2m1 0h3m1 0h1m1 0h1m1 0h3m2 0h1m2 0h2m1 0h1m2 0h1m2 0h1m3 0h1m1 0h2m2 0h1m1 0h2m1 0h4m1 0h1m3 0h5m5 0h1m1 0h1m1 0h4m1 0h1m1 0h3m5 0h5m1 0h1m1 0h3m6 0h2M5 58.5h1m1 0h1m1 0h2m1 0h3m1 0h1m1 0h7m3 0h4m6 0h3m1 0h1m3 0h2m3 0h3m1 0h1m1 0h1m1 0h1m2 0h4m1 0h7m1 0h1m4 0h1m1 0h1m1 0h1m2 0h1m2 0h3m4 0h3m2 0h1m1 0h2m4 0h2m2 0h4m1 0h1m2 0h2m3 0h2m2 0h1m2 0h1m2 0h4m1 0h1m1 0h1m2 0h1m3 0h1m1 0h3m1 0h2m1 0h1m4 0h3m1 0h1m3 0h1m2 0h4M4 59.5h1m1 0h1m2 0h1m2 0h2m1 0h2m1 0h2m2 0h1m1 0h6m1 0h2m2 0h2m2 0h2m2 0h1m1 0h3m1 0h1m1 0h1m6 0h1m3 0h2m1 0h2m4 0h1m1 0h4m1 0h2m3 0h1m1 0h7m3 0h1m2 0h1m2 0h6m1 0h4m2 0h3m1 0h1m1 0h1m4 0h1m1 0h2m1 0h1m2 0h1m1 0h1m4 0h2m3 0h3m1 0h1m1 0h1m1 0h2m1 0h1m2 0h2m2 0h6m4 0h2m3 0h3M5 60.5h1m1 0h8m1 0h2m1 0h2m2 0h3m4 0h1m1 0h6m3 0h4m1 0h7m1 0h1m1 0h2m2 0h8m3 0h2m1 0h1m1 0h3m1 0h2m4 0h1m1 0h5m1 0h2m1 0h1m2 0h1m4 0h2m5 0h2m2 0h6m3 0h1m2 0h1m1 0h4m1 0h1m4 0h9m1 0h1m1 0h2m1 0h4m3 0h1m1 0h1m3 0h2m2 0h5M5 61.5h1m1 0h2m3 0h1m2 0h3m1 0h1m2 0h1m1 0h3m1 0h2m1 0h2m3 0h3m1 0h2m1 0h1m1 0h4m1 0h3m1 0h1m1 0h2m2 0h1m3 0h1m1 0h1m2 0h2m1 0h4m2 0h3m1 0h1m2 0h1m2 0h1m3 0h3m1 0h1m6 0h7m1 0h2m2 0h2m3 0h3m1 0h3m6 0h2m1 0h3m2 0h1m1 0h2m3 0h1m2 0h2m1 0h1m1 0h2m3 0h10m1 0h1m3 0h2m2 0h1M8 62.5h1m1 0h1m1 0h1m6 0h2m1 0h1m1 0h2m3 0h1m1 0h2m1 0h1m1 0h3m7 0h1m4 0h3m1 0h1m2 0h3m1 0h1m1 0h2m1 0h5m5 0h1m1 0h1m1 0h4m3 0h1m1 0h1m1 0h3m1 0h2m1 0h4m1 0h1m2 0h1m1 0h2m3 0h3m1 0h1m1 0h2m1 0h5m7 0h1m1 0h1m1 0h1m1 0h1m1 0h2m1 0h1m1 0h1m1 0h1m2 0h3m1 0h1m1 0h3m1 0h1m7 0h2m1 0h1m1 0h2m1 0h1M5 63.5h2m1 0h1m3 0h3m1 0h1m2 0h1m1 0h1m4 0h1m1 0h1m1 0h1m1 0h1m3 0h3m1 0h2m3 0h3m1 0h1m1 0h2m4 0h2m1 0h1m3 0h1m1 0h2m3 0h1m1 0h4m1 0h1m6 0h4m3 0h1m3 0h3m4 0h2m2 0h2m1 0h1m2 0h2m1 0h1m3 0h1m1 0h1m2 0h1m5 0h1m1 0h1m2 0h1m3 0h1m3 0h1m3 0h1m4 0h2m1 0h2m5 0h5m1 0h1m2 0h1m3 0h3m1 0h1M6 64.5h8m2 0h1m2 0h1m1 0h4m1 0h4m2 0h6m2 0h3m1 0h1m4 0h2m1 0h1m1 0h1m4 0h6m4 0h3m1 0h1m2 0h4m1 0h1m1 0h1m3 0h6m1 0h1m2 0h1m2 0h1m1 0h1m3 0h1m2 0h2m1 0h1m1 0h8m6 0h1m1 0h4m5 0h2m1 0h1m1 0h7m1 0h2m1 0h5m2 0h1m6 0h2m1 0h5M5 65.5h1m2 0h1m3 0h5m2 0h2m3 0h1m8 0h5m2 0h1m3 0h2m2 0h1m1 0h2m2 0h4m13 0h5m4 0h4m9 0h3m1 0h1m1 0h2m2 0h1m2 0h3m4 0h1m2 0h1m4 0h6m2 0h1m3 0h2m1 0h1m1 0h2m1 0h1m3 0h2m3 0h3m1 0h2m1 0h3m4 0h1m2 0h2m2 0h2m1 0h5m1 0h1M4 66.5h1m2 0h4m1 0h3m2 0h1m3 0h1m1 0h2m1 0h1m1 0h1m3 0h1m9 0h2m5 0h2m1 0h1m2 0h1m2 0h2m1 0h1m3 0h1m2 0h1m1 0h1m1 0h1m2 0h1m4 0h1m1 0h1m1 0h1m2 0h5m3 0h1m1 0h4m1 0h1m1 0h1m2 0h1m4 0h1m1 0h4m1 0h1m1 0h6m1 0h2m7 0h1m2 0h3m1 0h3m1 0h2m1 0h1m2 0h2m4 0h1m1 0h1m3 0h1m3 0h2m3 0h1m2 0h1M4 67.5h5m3 0h4m1 0h1m1 0h2m1 0h2m3 0h3m1 0h1m2 0h2m4 0h2m2 0h2m1 0h1m10 0h2m2 0h3m1 0h1m4 0h1m1 0h2m1 0h3m6 0h2m1 0h1m1 0h1m2 0h1m2 0h3m2 0h2m1 0h2m2 0h2m5 0h1m1 0h3m1 0h1m1 0h2m3 0h1m1 0h1m2 0h1m1 0h1m1 0h1m1 0h1m1 0h2m1 0h2m1 0h1m6 0h2m4 0h2m1 0h1m2 0h2m7 0h2m1 0h2M4 68.5h1m2 0h1m2 0h1m5 0h1m1 0h2m4 0h3m1 0h1m1 0h1m1 0h1m3 0h1m3 0h2m1 0h2m1 0h2m1 0h3m2 0h1m2 0h1m1 0h2m2 0h4m1 0h2m5 0h2m2 0h1m1 0h1m1 0h5m1 0h2m2 0h2m2 0h1m1 0h2m5 0h2m4 0h1m1 0h2m1 0h2m1 0h2m3 0h1m1 0h4m1 0h1m6 0h5m1 0h2m1 0h1m1 0h1m4 0h2m3 0h1m1 0h4m3 0h2m1 0h1m1 0h2m4 0h1M6 69.5h2m1 0h1m5 0h1m2 0h3m2 0h1m3 0h4m1 0h2m1 0h1m1 0h4m1 0h1m2 0h1m2 0h2m1 0h1m4 0h1m4 0h1m3 0h1m2 0h1m2 0h5m1 0h1m2 0h1m5 0h2m3 0h1m2 0h1m1 0h2m2 0h2m1 0h1m2 0h2m1 0h1m7 0h1m3 0h2m1 0h1m4 0h1m1 0h1m2 0h3m1 0h2m2 0h1m3 0h1m5 0h1m1 0h1m1 0h4m2 0h7m2 0h6m3 0h1M5 70.5h2m3 0h2m1 0h2m1 0h1m1 0h2m1 0h2m1 0h1m7 0h1m1 0h1m1 0h1m3 0h3m6 0h2m1 0h2m1 0h1m2 0h1m1 0h1m2 0h3m1 0h2m1 0h3m7 0h3m1 0h2m2 0h3m1 0h1m2 0h4m2 0h2m2 0h1m1 0h2m1 0h1m1 0h3m1 0h2m1 0h1m1 0h1m1 0h1m1 0h1m1 0h1m1 0h1m6 0h2m2 0h2m1 0h3m1 0h3m1 0h1m5 0h2m1 0h2m3 0h2m2 0h1m4 0h1m4 0h1M4 71.5h3m2 0h1m1 0h3m3 0h1m1 0h1m1 0h2m2 0h1m2 0h2m3 0h2m2 0h4m4 0h2m1 0h1m2 0h2m5 0h3m1 0h4m1 0h1m1 0h1m3 0h2m1 0h1m1 0h1m7 0h1m3 0h3m3 0h4m5 0h2m1 0h1m1 0h2m2 0h2m2 0h2m2 0h1m2 0h1m1 0h4m1 0h4m1 0h1m3 0h5m2 0h2m4 0h2m1 0h1m2 0h2m1 0h1m2 0h1m4 0h1m3 0h1m1 0h2M4 72.5h2m2 0h3m1 0h1m1 0h1m3 0h1m1 0h5m2 0h1m2 0h2m3 0h1m3 0h4m1 0h2m1 0h1m3 0h1m1 0h1m3 0h1m2 0h2m2 0h5m2 0h1m1 0h3m2 0h1m2 0h3m1 0h1m1 0h1m1 0h3m2 0h1m3 0h3m1 0h1m2 0h2m2 0h1m2 0h4m1 0h2m1 0h2m6 0h5m2 0h1m1 0h1m4 0h1m3 0h2m1 0h1m1 0h1m4 0h4m2 0h1m4 0h2m1 0h1m1 0h1m1 0h6M4 73.5h1m3 0h2m2 0h1m3 0h2m3 0h2m1 0h1m1 0h4m4 0h1m1 0h1m4 0h2m2 0h2m1 0h2m2 0h5m1 0h1m5 0h1m1 0h1m2 0h2m1 0h1m1 0h1m1 0h1m2 0h1m2 0h1m1 0h1m1 0h1m1 0h1m2 0h1m1 0h3m1 0h1m1 0h1m3 0h1m1 0h3m1 0h1m2 0h1m3 0h2m3 0h2m1 0h1m1 0h2m5 0h6m2 0h1m1 0h1m6 0h1m1 0h3m4 0h1m3 0h5m1 0h2m2 0h8M4 74.5h2m4 0h3m2 0h2m1 0h2m2 0h4m2 0h4m1 0h1m1 0h1m1 0h1m1 0h3m3 0h1m5 0h3m1 0h1m3 0h1m1 0h1m1 0h1m1 0h1m1 0h7m6 0h1m1 0h1m1 0h2m1 0h2m1 0h1m2 0h3m1 0h3m1 0h2m1 0h1m2 0h2m1 0h1m1 0h1m1 0h3m2 0h1m2 0h2m2 0h2m2 0h2m1 0h1m1 0h2m3 0h2m1 0h1m1 0h1m2 0h2m1 0h1m1 0h1m1 0h1m1 0h1m2 0h2m1 0h1m1 0h3m3 0h2m1 0h2m2 0h1M4 75.5h4m1 0h1m1 0h2m1 0h3m2 0h2m1 0h1m1 0h1m1 0h2m3 0h1m8 0h1m2 0h1m2 0h2m3 0h3m1 0h1m1 0h4m1 0h1m1 0h3m2 0h1m4 0h3m1 0h1m2 0h1m4 0h1m1 0h4m1 0h2m1 0h1m1 0h1m2 0h4m1 0h3m1 0h1m2 0h2m2 0h2m2 0h1m1 0h1m4 0h4m1 0h2m1 0h2m1 0h1m2 0h1m1 0h1m3 0h1m2 0h1m2 0h3m2 0h1m3 0h2m1 0h1m4 0h1m3 0h2m1 0h2M5 76.5h1m2 0h3m2 0h2m1 0h1m2 0h1m3 0h1m6 0h3m1 0h2m2 0h2m1 0h2m1 0h1m2 0h1m2 0h2m2 0h1m1 0h3m1 0h1m2 0h8m5 0h1m4 0h3m1 0h1m1 0h2m4 0h2m2 0h1m1 0h2m4 0h3m4 0h1m1 0h1m3 0h1m1 0h1m2 0h1m1 0h1m1 0h2m1 0h1m1 0h2m8 0h1m3 0h1m1 0h1m1 0h3m2 0h2m3 0h1m1 0h2m1 0h1m1 0h6m1 0h1m1 0h1m2 0h1M4 77.5h1m1 0h3m3 0h4m2 0h1m1 0h1m1 0h5m2 0h1m5 0h1m1 0h1m3 0h2m1 0h3m1 0h1m2 0h1m1 0h2m1 0h1m2 0h1m1 0h1m1 0h1m1 0h1m2 0h1m1 0h6m2 0h1m1 0h5m2 0h1m6 0h4m1 0h3m1 0h4m2 0h1m1 0h2m2 0h1m5 0h2m1 0h2m3 0h1m3 0h4m1 0h1m10 0h5m2 0h3m2 0h1m2 0h3m1 0h5m1 0h7M4 78.5h1m1 0h5m2 0h1m1 0h1m1 0h1m3 0h3m7 0h2m3 0h1m2 0h1m6 0h1m4 0h3m1 0h1m1 0h4m6 0h2m1 0h1m1 0h1m3 0h2m1 0h2m1 0h1m1 0h2m2 0h1m1 0h1m1 0h2m1 0h4m2 0h1m3 0h1m1 0h6m1 0h1m1 0h1m2 0h1m2 0h2m1 0h4m1 0h2m3 0h3m1 0h5m1 0h1m2 0h1m1 0h2m2 0h1m3 0h1m1 0h1m5 0h2m3 0h3m1 0h1m1 0h3M4 79.5h2m5 0h2m4 0h5m3 0h3m1 0h1m1 0h3m2 0h2m5 0h2m1 0h2m1 0h1m2 0h1m4 0h2m1 0h3m1 0h4m5 0h4m1 0h1m4 0h1m1 0h2m4 0h3m5 0h1m1 0h5m1 0h3m3 0h2m2 0h1m1 0h1m2 0h1m3 0h1m1 0h2m2 0h1m1 0h4m2 0h4m4 0h2m1 0h5m1 0h1m2 0h2m1 0h5m1 0h1m1 0h1m1 0h1m3 0h4M8 80.5h1m1 0h2m1 0h8m1 0h1m1 0h1m3 0h1m1 0h1m10 0h2m1 0h1m2 0h1m2 0h1m2 0h2m1 0h3m1 0h2m1 0h4m2 0h1m8 0h1m3 0h1m3 0h2m1 0h1m4 0h2m4 0h1m5 0h1m2 0h5m3 0h2m1 0h1m4 0h1m1 0h5m5 0h1m1 0h2m1 0h2m1 0h2m3 0h2m1 0h3m1 0h2m3 0h1m1 0h3m1 0h7m5 0h1M4 81.5h2m2 0h2m5 0h2m2 0h2m1 0h1m2 0h2m1 0h1m2 0h1m1 0h1m2 0h1m2 0h1m3 0h3m1 0h3m1 0h1m1 0h4m1 0h1m2 0h1m4 0h1m5 0h1m2 0h1m1 0h1m2 0h4m3 0h1m1 0h1m1 0h4m1 0h1m2 0h3m1 0h1m1 0h3m1 0h1m2 0h1m3 0h1m2 0h1m1 0h4m1 0h1m4 0h1m1 0h4m1 0h2m1 0h1m7 0h1m2 0h1m1 0h1m1 0h1m1 0h1m4 0h1m1 0h1m1 0h2m5 0h3m3 0h1M5 82.5h3m1 0h3m2 0h2m1 0h3m1 0h1m4 0h1m1 0h1m1 0h1m2 0h1m3 0h1m1 0h5m2 0h1m4 0h3m1 0h1m1 0h1m2 0h2m1 0h1m1 0h1m1 0h4m1 0h2m5 0h6m3 0h1m1 0h1m1 0h1m2 0h5m2 0h1m1 0h2m3 0h4m1 0h1m5 0h2m2 0h2m1 0h1m1 0h1m2 0h3m1 0h1m1 0h2m1 0h4m2 0h3m1 0h1m5 0h1m1 0h3m13 0h1m1 0h1m1 0h1M4 83.5h2m3 0h1m1 0h2m1 0h3m1 0h1m1 0h1m1 0h2m1 0h2m1 0h1m2 0h1m4 0h4m5 0h2m1 0h2m5 0h1m1 0h4m1 0h3m1 0h2m5 0h7m5 0h4m2 0h1m1 0h2m1 0h1m5 0h3m1 0h3m1 0h2m1 0h1m4 0h1m3 0h4m1 0h8m5 0h3m1 0h1m3 0h1m2 0h2m1 0h2m4 0h1m2 0h1m2 0h2m3 0h1m1 0h1m2 0h1m1 0h3M6 84.5h1m3 0h1m6 0h2m2 0h1m1 0h2m1 0h1m1 0h6m3 0h1m2 0h1m1 0h1m2 0h1m4 0h1m2 0h4m2 0h1m2 0h1m1 0h3m2 0h1m2 0h1m1 0h3m1 0h2m1 0h1m1 0h4m1 0h3m2 0h1m3 0h1m2 0h2m4 0h1m4 0h2m3 0h3m1 0h2m5 0h2m1 0h4m5 0h2m1 0h1m2 0h4m1 0h2m3 0h1m1 0h6m1 0h1m5 0h5m1 0h2M4 85.5h6m1 0h4m3 0h2m1 0h1m4 0h2m2 0h4m1 0h1m3 0h1m1 0h4m3 0h1m1 0h1m2 0h2m4 0h1m2 0h3m2 0h1m5 0h1m1 0h1m1 0h4m1 0h1m3 0h1m2 0h1m3 0h5m1 0h2m2 0h6m2 0h2m2 0h1m6 0h1m1 0h4m3 0h1m2 0h3m1 0h2m1 0h1m1 0h1m2 0h2m1 0h5m1 0h1m1 0h1m4 0h1m1 0h1m3 0h3m3 0h3m3 0h1M5 86.5h3m1 0h3m1 0h1m1 0h1m4 0h1m1 0h3m2 0h1m2 0h2m4 0h1m1 0h2m1 0h1m3 0h2m2 0h1m1 0h2m4 0h2m1 0h2m1 0h1m1 0h1m1 0h2m1 0h3m4 0h1m1 0h4m1 0h1m2 0h2m1 0h1m1 0h1m1 0h5m3 0h3m1 0h1m1 0h1m1 0h1m1 0h1m1 0h6m1 0h5m2 0h1m2 0h2m1 0h5m3 0h1m2 0h1m2 0h1m1 0h1m3 0h2m3 0h4m4 0h1m4 0h1m1 0h2m1 0h2M7 87.5h3m1 0h3m3 0h1m3 0h2m1 0h1m2 0h2m4 0h2m1 0h3m4 0h6m2 0h1m1 0h1m1 0h1m2 0h7m1 0h1m7 0h3m1 0h1m4 0h1m2 0h1m1 0h1m1 0h1m1 0h2m1 0h2m1 0h1m2 0h2m1 0h5m1 0h1m3 0h1m3 0h1m1 0h1m9 0h1m2 0h1m1 0h1m2 0h1m5 0h2m3 0h1m3 0h2m4 0h1m3 0h4m1 0h1m6 0h1m2 0h2M5 88.5h8m1 0h1m1 0h1m3 0h2m2 0h5m1 0h9m1 0h4m6 0h2m2 0h2m4 0h8m1 0h3m2 0h1m1 0h1m1 0h1m1 0h3m3 0h8m1 0h1m1 0h1m2 0h2m3 0h2m2 0h2m1 0h2m2 0h6m1 0h1m4 0h1m1 0h1m1 0h2m2 0h2m2 0h1m1 0h7m1 0h3m1 0h1m2 0h1m3 0h2m1 0h1m2 0h2m3 0h5M4 89.5h5m3 0h5m1 0h1m2 0h2m5 0h2m2 0h1m3 0h1m2 0h5m3 0h1m1 0h5m1 0h3m1 0h2m3 0h1m3 0h8m1 0h1m2 0h6m1 0h2m3 0h1m1 0h1m2 0h1m3 0h1m1 0h1m2 0h1m4 0h2m3 0h1m3 0h7m2 0h1m1 0h1m2 0h3m1 0h1m5 0h1m3 0h5m1 0h1m1 0h1m2 0h1m4 0h2m2 0h3m1 0h1m3 0h1m1 0h1m1 0h1M4 90.5h2m1 0h2m1 0h1m1 0h1m1 0h2m1 0h1m1 0h2m5 0h1m1 0h2m1 0h2m1 0h1m1 0h1m1 0h2m6 0h2m1 0h1m2 0h2m4 0h1m1 0h1m1 0h1m1 0h2m1 0h4m1 0h2m1 0h1m4 0h3m1 0h1m3 0h1m1 0h1m1 0h2m1 0h6m1 0h1m4 0h6m1 0h3m1 0h1m1 0h5m1 0h2m1 0h1m3 0h1m2 0h1m1 0h2m2 0h3m1 0h1m1 0h1m1 0h2m5 0h1m1 0h3m1 0h1m1 0h1m1 0h1m2 0h3m1 0h1m1 0h1M4 91.5h1m3 0h1m3 0h5m1 0h3m4 0h1m1 0h2m1 0h3m3 0h1m1 0h4m1 0h1m1 0h3m3 0h2m2 0h4m1 0h1m3 0h3m2 0h1m4 0h3m1 0h2m2 0h1m3 0h3m3 0h3m1 0h1m2 0h1m3 0h3m1 0h2m1 0h2m1 0h2m1 0h1m3 0h2m3 0h2m1 0h1m1 0h4m2 0h2m1 0h1m1 0h4m3 0h2m1 0h2m1 0h1m1 0h2m2 0h1m2 0h4m1 0h1m2 0h2m3 0h1m1 0h1m1 0h1M8 92.5h11m1 0h1m1 0h1m1 0h2m2 0h1m1 0h1m1 0h6m1 0h2m1 0h1m1 0h2m3 0h2m1 0h1m1 0h4m2 0h5m1 0h2m4 0h1m1 0h2m5 0h2m5 0h8m1 0h1m2 0h1m1 0h2m2 0h2m1 0h2m1 0h1m1 0h8m3 0h1m3 0h5m1 0h3m1 0h2m1 0h1m1 0h5m1 0h1m1 0h1m2 0h4m2 0h3m5 0h2m1 0h6m1 0h1M7 93.5h1m1 0h1m4 0h2m4 0h2m2 0h1m1 0h3m1 0h2m3 0h2m3 0h1m1 0h2m1 0h2m1 0h1m1 0h1m3 0h4m2 0h3m2 0h1m2 0h2m3 0h1m5 0h2m7 0h1m2 0h1m2 0h4m1 0h3m3 0h4m3 0h2m4 0h5m1 0h1m1 0h1m2 0h1m1 0h1m1 0h5m3 0h1m1 0h1m2 0h2m3 0h2m1 0h1m1 0h1m1 0h2m2 0h1m1 0h4m1 0h2m3 0h4m2 0h1M5 94.5h2m1 0h3m1 0h1m4 0h7m4 0h1m1 0h1m1 0h2m1 0h1m3 0h3m2 0h1m2 0h1m1 0h1m1 0h4m2 0h2m1 0h2m1 0h1m3 0h2m1 0h3m7 0h1m1 0h1m1 0h2m1 0h2m2 0h3m2 0h3m2 0h6m1 0h4m1 0h5m3 0h1m1 0h4m2 0h1m1 0h1m1 0h1m2 0h1m1 0h2m3 0h1m2 0h1m2 0h2m2 0h3m1 0h1m1 0h2m2 0h1m2 0h2m1 0h3m3 0h4M5 95.5h1m5 0h1m1 0h3m2 0h6m1 0h1m3 0h1m3 0h1m2 0h1m1 0h2m3 0h5m3 0h2m3 0h4m3 0h1m2 0h2m1 0h1m1 0h1m1 0h2m1 0h1m1 0h2m5 0h2m2 0h3m2 0h1m1 0h1m1 0h1m3 0h5m1 0h3m2 0h3m1 0h3m1 0h3m1 0h1m2 0h1m2 0h1m3 0h1m4 0h3m2 0h1m1 0h3m2 0h3m5 0h1m4 0h2m1 0h2m2 0h1m1 0h2m2 0h1m1 0h1M5 96.5h1m1 0h1m1 0h3m1 0h1m1 0h1m2 0h1m1 0h5m1 0h1m1 0h3m2 0h4m2 0h1m1 0h2m1 0h1m3 0h4m1 0h4m4 0h2m1 0h1m1 0h1m1 0h1m2 0h2m1 0h2m2 0h1m1 0h4m2 0h7m7 0h1m2 0h1m7 0h2m1 0h1m1 0h1m1 0h1m6 0h1m1 0h4m1 0h2m5 0h2m1 0h1m5 0h3m2 0h1m1 0h3m1 0h4m5 0h3m6 0h1m1 0h1M7 97.5h1m1 0h1m5 0h3m1 0h1m2 0h4m1 0h3m3 0h1m2 0h1m1 0h3m1 0h4m4 0h2m1 0h2m1 0h1m3 0h1m1 0h6m1 0h1m3 0h1m1 0h2m5 0h4m2 0h1m2 0h1m2 0h1m1 0h2m1 0h1m1 0h1m1 0h5m1 0h1m2 0h2m2 0h1m1 0h10m3 0h1m2 0h3m1 0h1m6 0h3m2 0h1m2 0h1m1 0h5m3 0h3m1 0h3m1 0h2m1 0h1m3 0h3M5 98.5h2m2 0h2m2 0h4m4 0h2m1 0h1m2 0h1m6 0h1m1 0h1m1 0h1m1 0h2m4 0h2m4 0h2m1 0h1m2 0h1m5 0h2m4 0h4m3 0h1m2 0h1m1 0h4m1 0h1m3 0h1m1 0h1m1 0h4m2 0h2m1 0h1m3 0h8m6 0h1m1 0h1m1 0h4m2 0h4m2 0h3m2 0h1m5 0h2m3 0h2m2 0h1m1 0h1m1 0h1m3 0h1m4 0h4m1 0h1M8 99.5h2m4 0h1m1 0h1m1 0h1m3 0h2m1 0h2m2 0h1m3 0h1m1 0h2m1 0h1m1 0h1m3 0h5m3 0h2m3 0h3m1 0h1m1 0h4m7 0h3m1 0h1m6 0h10m1 0h3m2 0h1m1 0h6m4 0h3m5 0h2m3 0h1m1 0h1m10 0h1m2 0h1m2 0h1m1 0h3m1 0h1m1 0h2m4 0h1m4 0h1m1 0h1m1 0h2m7 0h2M5 100.5h1m1 0h1m1 0h3m1 0h1m1 0h1m1 0h1m4 0h3m1 0h1m3 0h7m5 0h1m5 0h1m2 0h3m1 0h1m4 0h1m1 0h5m2 0h1m1 0h1m1 0h2m2 0h2m1 0h2m1 0h1m1 0h1m1 0h1m3 0h5m2 0h5m3 0h1m2 0h1m1 0h2m1 0h1m2 0h4m4 0h1m1 0h4m1 0h1m6 0h2m1 0h1m4 0h2m1 0h1m1 0h1m2 0h2m1 0h5m1 0h2m1 0h1m1 0h2m6 0h4M6 101.5h1m1 0h2m1 0h1m1 0h5m1 0h1m5 0h2m2 0h2m2 0h1m1 0h2m1 0h1m1 0h1m1 0h3m1 0h1m1 0h1m4 0h1m1 0h4m1 0h1m1 0h1m1 0h1m4 0h2m1 0h2m2 0h1m3 0h4m5 0h1m3 0h2m5 0h1m2 0h1m1 0h2m1 0h2m2 0h2m1 0h6m1 0h1m1 0h4m1 0h1m1 0h1m1 0h2m1 0h1m1 0h1m4 0h2m1 0h2m2 0h3m2 0h4m2 0h2m1 0h2m2 0h1m1 0h1m2 0h3m2 0h1m1 0h1M4 102.5h4m2 0h1m2 0h1m1 0h7m4 0h2m3 0h3m2 0h1m4 0h1m5 0h1m2 0h1m1 0h2m1 0h1m1 0h3m3 0h1m1 0h1m1 0h4m1 0h2m3 0h1m2 0h1m1 0h1m1 0h1m3 0h2m1 0h1m1 0h1m2 0h4m2 0h3m4 0h3m2 0h2m3 0h1m1 0h2m2 0h2m5 0h1m1 0h5m3 0h2m2 0h2m3 0h1m2 0h1m3 0h4m9 0h2m4 0h3M4 103.5h6m2 0h1m2 0h4m4 0h1m6 0h2m3 0h1m1 0h1m2 0h1m2 0h1m1 0h2m1 0h1m3 0h2m4 0h4m4 0h2m3 0h1m1 0h2m1 0h4m6 0h2m2 0h1m1 0h2m2 0h2m1 0h3m1 0h2m3 0h3m2 0h1m1 0h3m2 0h1m3 0h2m1 0h4m2 0h1m1 0h1m2 0h5m2 0h1m1 0h3m1 0h1m2 0h1m1 0h1m4 0h1m1 0h1m2 0h2m1 0h1m3 0h1m4 0h1m1 0h1M6 104.5h2m1 0h2m1 0h1m3 0h1m1 0h2m1 0h2m1 0h1m5 0h1m2 0h1m4 0h1m3 0h3m2 0h1m2 0h1m1 0h4m1 0h1m4 0h3m5 0h4m5 0h2m1 0h1m1 0h1m2 0h6m6 0h3m1 0h1m1 0h1m4 0h1m1 0h1m1 0h1m1 0h1m6 0h1m4 0h3m1 0h2m1 0h2m2 0h2m1 0h1m1 0h1m2 0h1m1 0h2m2 0h1m1 0h2m3 0h1m1 0h3m2 0h2m1 0h1m4 0h1m3 0h2M4 105.5h3m4 0h2m1 0h1m2 0h1m2 0h1m1 0h2m1 0h1m2 0h1m2 0h2m1 0h1m1 0h1m1 0h1m3 0h3m1 0h1m1 0h2m1 0h1m1 0h4m5 0h1m6 0h1m4 0h1m1 0h4m6 0h1m4 0h1m2 0h1m1 0h2m1 0h3m3 0h3m1 0h1m1 0h3m3 0h2m1 0h1m1 0h3m1 0h2m3 0h1m1 0h4m1 0h2m4 0h1m2 0h1m3 0h3m2 0h1m2 0h1m1 0h1m2 0h2m2 0h1m3 0h3m1 0h1m1 0h1m1 0h1M6 106.5h2m1 0h3m2 0h4m1 0h4m1 0h2m2 0h1m1 0h2m2 0h1m1 0h1m1 0h1m2 0h3m1 0h3m2 0h4m5 0h3m2 0h1m3 0h1m1 0h3m6 0h2m1 0h4m1 0h1m1 0h1m8 0h2m1 0h4m2 0h6m1 0h3m2 0h1m2 0h2m1 0h3m1 0h2m1 0h6m2 0h4m2 0h1m2 0h2m2 0h1m4 0h1m1 0h2m9 0h4m1 0h1m1 0h2M4 107.5h3m2 0h1m2 0h1m1 0h3m3 0h1m1 0h1m3 0h1m2 0h2m1 0h1m1 0h2m3 0h1m6 0h1m1 0h2m1 0h2m2 0h2m1 0h2m1 0h1m4 0h2m5 0h2m1 0h1m1 0h1m2 0h1m3 0h4m1 0h1m4 0h2m1 0h1m2 0h8m1 0h1m2 0h4m1 0h1m1 0h2m2 0h2m2 0h1m1 0h1m3 0h1m1 0h2m3 0h1m2 0h1m3 0h2m1 0h1m1 0h4m2 0h2m2 0h1m2 0h2m1 0h1m2 0h2m1 0h1m2 0h2M4 108.5h5m1 0h1m1 0h5m1 0h1m1 0h3m3 0h2m2 0h1m2 0h3m3 0h1m1 0h5m1 0h4m1 0h3m1 0h1m3 0h1m1 0h1m1 0h1m1 0h1m2 0h1m1 0h2m2 0h5m1 0h2m2 0h1m1 0h3m1 0h3m1 0h1m1 0h1m1 0h2m2 0h1m1 0h3m2 0h1m1 0h2m1 0h3m1 0h1m4 0h1m2 0h7m1 0h2m3 0h1m1 0h1m2 0h1m1 0h3m3 0h1m1 0h1m1 0h3m2 0h1m1 0h1m2 0h4m1 0h1m2 0h1m3 0h2M5 109.5h5m1 0h2m1 0h8m1 0h3m1 0h4m1 0h3m1 0h3m1 0h1m3 0h2m2 0h1m1 0h1m3 0h5m1 0h6m2 0h1m2 0h1m2 0h2m4 0h6m5 0h1m2 0h2m3 0h1m1 0h1m3 0h3m1 0h1m1 0h1m6 0h3m1 0h3m1 0h1m2 0h1m1 0h1m2 0h6m1 0h1m3 0h2m2 0h5m1 0h2m2 0h1m1 0h1m1 0h6m3 0h1m1 0h1m1 0h1m2 0h2M6 110.5h5m3 0h2m6 0h3m4 0h1m1 0h1m2 0h2m1 0h1m4 0h1m3 0h2m1 0h1m1 0h2m2 0h1m2 0h2m1 0h1m1 0h3m1 0h4m1 0h1m2 0h1m1 0h1m1 0h1m2 0h1m1 0h2m1 0h2m2 0h3m3 0h2m2 0h6m1 0h1m1 0h3m1 0h3m5 0h1m1 0h2m2 0h1m1 0h1m3 0h1m1 0h2m3 0h1m1 0h1m1 0h1m3 0h1m5 0h1m2 0h1m1 0h2m1 0h1m1 0h2m3 0h5m2 0h2M7 111.5h3m3 0h1m2 0h4m2 0h1m3 0h2m1 0h1m2 0h2m3 0h4m2 0h1m1 0h2m2 0h1m1 0h2m2 0h2m1 0h2m1 0h1m4 0h1m2 0h1m3 0h1m2 0h2m3 0h1m3 0h2m1 0h1m1 0h2m1 0h2m1 0h1m1 0h3m2 0h2m1 0h1m1 0h1m1 0h1m2 0h2m3 0h4m1 0h1m2 0h1m1 0h5m1 0h1m1 0h1m2 0h1m2 0h1m5 0h2m1 0h5m1 0h1m1 0h2m2 0h2m1 0h1m2 0h1m8 0h1M4 112.5h3m2 0h3m1 0h3m1 0h1m4 0h3m3 0h2m6 0h1m1 0h1m3 0h1m2 0h3m2 0h1m3 0h1m7 0h1m1 0h2m6 0h3m1 0h1m1 0h2m2 0h1m4 0h4m1 0h2m3 0h4m1 0h1m2 0h2m3 0h1m1 0h1m4 0h4m6 0h4m6 0h1m1 0h2m1 0h1m2 0h1m3 0h1m1 0h1m3 0h5m2 0h2m1 0h1m2 0h3m1 0h1m6 0h2M6 113.5h2m1 0h1m1 0h1m1 0h4m7 0h1m4 0h3m1 0h1m1 0h1m2 0h5m1 0h3m1 0h1m5 0h3m2 0h2m1 0h5m1 0h1m1 0h1m2 0h1m1 0h1m5 0h3m2 0h1m6 0h2m1 0h2m2 0h2m4 0h1m5 0h1m2 0h2m1 0h1m1 0h1m1 0h3m1 0h1m4 0h1m2 0h1m1 0h3m2 0h1m1 0h2m1 0h4m1 0h4m2 0h1m1 0h5m4 0h1m1 0h5m1 0h5M5 114.5h4m1 0h1m2 0h2m1 0h1m1 0h1m1 0h2m1 0h5m1 0h2m1 0h1m1 0h2m1 0h1m4 0h2m1 0h2m5 0h3m2 0h1m9 0h2m1 0h1m1 0h2m5 0h2m1 0h1m1 0h2m1 0h3m6 0h1m1 0h2m2 0h1m5 0h3m2 0h3m6 0h2m2 0h2m5 0h2m2 0h3m1 0h1m1 0h2m1 0h3m4 0h3m1 0h4m5 0h2m1 0h1m1 0h3m2 0h1m1 0h1M4 115.5h2m1 0h1m1 0h1m1 0h4m1 0h2m3 0h2m1 0h2m1 0h2m3 0h1m3 0h2m2 0h4m1 0h2m4 0h2m3 0h1m1 0h3m4 0h3m5 0h4m1 0h2m5 0h2m1 0h1m2 0h2m2 0h2m5 0h4m2 0h4m2 0h5m2 0h2m5 0h6m1 0h1m1 0h1m2 0h1m1 0h1m1 0h1m2 0h3m1 0h1m2 0h1m4 0h2m2 0h1m1 0h4m4 0h1m1 0h1m2 0h1M7 116.5h6m2 0h1m1 0h2m5 0h2m2 0h1m1 0h1m1 0h5m2 0h2m3 0h4m2 0h3m1 0h4m2 0h6m1 0h1m1 0h1m1 0h1m1 0h1m1 0h4m1 0h2m1 0h1m2 0h9m2 0h5m4 0h2m3 0h2m2 0h7m5 0h4m1 0h2m1 0h1m1 0h1m2 0h1m1 0h1m1 0h7m1 0h2m3 0h2m1 0h3m1 0h1m2 0h10m2 0h1M6 117.5h1m1 0h1m3 0h1m1 0h2m5 0h2m1 0h1m2 0h2m1 0h3m3 0h1m1 0h3m2 0h3m2 0h2m1 0h1m2 0h3m3 0h1m3 0h2m1 0h2m1 0h2m3 0h2m1 0h6m1 0h1m2 0h1m3 0h5m2 0h2m2 0h5m1 0h1m2 0h1m2 0h2m3 0h7m6 0h2m1 0h1m1 0h2m1 0h1m2 0h1m3 0h6m1 0h2m1 0h2m1 0h1m2 0h1m1 0h3m1 0h1m1 0h1m3 0h5M4 118.5h5m1 0h1m1 0h1m1 0h1m1 0h1m1 0h2m2 0h2m2 0h2m3 0h2m1 0h1m1 0h2m1 0h1m1 0h1m4 0h2m4 0h2m1 0h1m1 0h4m1 0h1m1 0h1m2 0h4m1 0h1m4 0h1m2 0h3m1 0h2m2 0h1m1 0h1m1 0h1m3 0h5m1 0h1m1 0h1m3 0h4m2 0h1m1 0h1m1 0h1m1 0h1m1 0h6m3 0h1m1 0h1m3 0h1m3 0h1m2 0h1m1 0h1m1 0h1m1 0h1m6 0h1m2 0h4m1 0h3m1 0h1m2 0h1m1 0h1m1 0h3M5 119.5h1m2 0h1m3 0h3m2 0h2m3 0h1m4 0h1m1 0h1m1 0h2m3 0h1m1 0h3m2 0h5m1 0h1m1 0h2m2 0h2m1 0h3m3 0h4m3 0h1m2 0h1m1 0h2m1 0h1m1 0h1m1 0h1m1 0h4m3 0h2m2 0h2m1 0h1m2 0h1m5 0h1m4 0h4m3 0h2m2 0h2m2 0h1m1 0h2m3 0h5m3 0h2m3 0h2m1 0h4m1 0h1m6 0h1m2 0h1m2 0h1m2 0h1m3 0h1m1 0h1m1 0h1M6 120.5h1m1 0h10m1 0h1m3 0h1m3 0h1m2 0h1m1 0h5m2 0h1m2 0h1m2 0h1m2 0h1m2 0h2m1 0h1m1 0h1m2 0h7m2 0h3m1 0h1m2 0h1m2 0h2m1 0h1m1 0h1m1 0h2m1 0h5m2 0h1m4 0h2m3 0h2m2 0h1m2 0h2m1 0h6m2 0h1m1 0h1m1 0h2m1 0h2m3 0h1m1 0h1m4 0h1m1 0h5m1 0h2m1 0h1m3 0h2m1 0h1m1 0h1m1 0h2m2 0h9M4 121.5h3m1 0h2m1 0h2m1 0h1m2 0h1m1 0h1m3 0h2m2 0h5m4 0h2m1 0h3m1 0h2m1 0h1m1 0h1m2 0h1m1 0h2m1 0h2m2 0h3m1 0h2m1 0h1m1 0h4m2 0h1m4 0h1m1 0h1m2 0h1m3 0h1m2 0h3m2 0h1m1 0h3m4 0h1m1 0h2m1 0h3m1 0h5m1 0h1m2 0h1m1 0h1m4 0h1m2 0h1m1 0h1m1 0h1m4 0h1m8 0h1m3 0h1m1 0h2m1 0h4m1 0h1m1 0h3m1 0h1m4 0h1m2 0h1M5 122.5h1m3 0h4m3 0h1m1 0h3m1 0h1m1 0h1m2 0h1m2 0h3m2 0h4m1 0h1m1 0h1m4 0h1m4 0h1m11 0h1m2 0h2m1 0h1m1 0h2m5 0h2m1 0h1m1 0h2m3 0h2m5 0h1m1 0h5m4 0h4m3 0h1m1 0h1m1 0h1m1 0h6m2 0h1m1 0h2m4 0h4m1 0h2m2 0h1m1 0h3m8 0h1m1 0h2m5 0h1m2 0h1m1 0h3m2 0h2M7 123.5h1m3 0h3m1 0h2m4 0h5m1 0h2m1 0h1m1 0h2m1 0h1m3 0h1m6 0h1m1 0h1m2 0h3m1 0h1m1 0h1m2 0h1m3 0h4m5 0h4m1 0h1m2 0h1m3 0h2m1 0h2m1 0h4m1 0h2m3 0h4m1 0h3m4 0h1m2 0h1m7 0h3m4 0h2m3 0h1m2 0h3m1 0h5m1 0h1m3 0h3m4 0h1m3 0h6m2 0h1m1 0h3m1 0h1m1 0h1M6 124.5h2m2 0h2m1 0h1m1 0h3m1 0h1m1 0h3m3 0h3m3 0h2m1 0h3m1 0h1m1 0h3m2 0h5m1 0h2m3 0h2m1 0h1m5 0h2m3 0h3m1 0h3m5 0h1m1 0h1m3 0h1m1 0h1m2 0h1m4 0h1m2 0h1m3 0h1m2 0h4m1 0h1m4 0h2m5 0h4m1 0h2m3 0h1m1 0h2m1 0h1m1 0h1m3 0h1m1 0h1m1 0h1m1 0h2m2 0h2m2 0h3m1 0h1m3 0h2m3 0h1m1 0h1M4 125.5h1m3 0h1m2 0h2m3 0h1m1 0h3m7 0h3m4 0h7m1 0h3m2 0h1m1 0h1m2 0h4m3 0h3m1 0h1m1 0h1m2 0h2m1 0h2m3 0h1m2 0h4m3 0h1m1 0h1m1 0h2m1 0h2m1 0h1m2 0h2m4 0h2m4 0h2m4 0h1m3 0h1m1 0h3m6 0h2m1 0h4m1 0h1m3 0h1m2 0h2m3 0h2m1 0h3m2 0h5m2 0h2m1 0h2m4 0h2m1 0h1M5 126.5h1m1 0h2m1 0h1m3 0h2m1 0h1m2 0h3m3 0h2m6 0h2m2 0h1m3 0h2m2 0h1m2 0h1m2 0h1m4 0h2m3 0h3m2 0h2m1 0h1m1 0h1m2 0h1m3 0h2m1 0h1m1 0h2m10 0h1m1 0h1m1 0h1m1 0h1m2 0h1m1 0h1m2 0h2m2 0h3m1 0h1m1 0h1m1 0h1m1 0h2m1 0h1m2 0h3m1 0h4m3 0h1m1 0h5m1 0h1m3 0h1m1 0h1m1 0h1m2 0h2m1 0h1m2 0h1m3 0h5m1 0h1M4 127.5h1m2 0h1m3 0h1m3 0h3m3 0h1m3 0h4m1 0h1m2 0h1m2 0h5m2 0h1m1 0h3m5 0h1m4 0h1m1 0h1m5 0h2m1 0h1m3 0h2m1 0h1m1 0h1m7 0h1m1 0h2m1 0h1m2 0h1m1 0h4m1 0h2m1 0h2m2 0h2m1 0h1m1 0h2m1 0h1m2 0h1m1 0h2m2 0h1m2 0h6m1 0h1m1 0h1m1 0h2m1 0h3m9 0h1m1 0h1m2 0h3m4 0h1m1 0h1m2 0h1m2 0h1m1 0h4M6 128.5h1m1 0h1m1 0h1m5 0h1m1 0h3m1 0h1m1 0h1m1 0h1m4 0h1m3 0h2m2 0h1m2 0h1m1 0h1m2 0h1m2 0h1m1 0h2m2 0h1m2 0h3m3 0h2m5 0h3m2 0h3m1 0h1m1 0h1m1 0h3m1 0h2m1 0h3m3 0h3m2 0h1m2 0h2m2 0h1m1 0h4m1 0h3m1 0h1m7 0h4m6 0h4m1 0h2m1 0h2m1 0h4m1 0h1m1 0h4m1 0h1m2 0h1m2 0h3m2 0h3m1 0h4M4 129.5h1m1 0h1m1 0h2m3 0h4m3 0h3m2 0h3m2 0h1m1 0h1m1 0h1m3 0h1m1 0h2m2 0h1m1 0h1m1 0h1m1 0h1m2 0h1m1 0h1m3 0h2m1 0h3m2 0h1m1 0h5m3 0h1m2 0h2m1 0h2m1 0h1m2 0h6m4 0h1m1 0h1m4 0h1m4 0h1m1 0h1m4 0h3m1 0h1m1 0h1m1 0h1m2 0h1m1 0h1m2 0h3m1 0h2m7 0h1m1 0h2m1 0h1m2 0h1m1 0h1m3 0h1m1 0h2m1 0h1m1 0h3m1 0h1m4 0h2m1 0h1M4 130.5h3m2 0h3m1 0h2m3 0h1m1 0h1m2 0h5m1 0h1m1 0h2m1 0h2m3 0h1m1 0h1m1 0h1m1 0h3m3 0h3m3 0h2m3 0h4m1 0h2m1 0h1m1 0h1m2 0h1m3 0h1m1 0h2m1 0h1m2 0h1m9 0h2m1 0h1m1 0h2m1 0h1m1 0h2m1 0h1m2 0h9m2 0h3m4 0h1m2 0h1m2 0h2m3 0h1m1 0h7m2 0h3m2 0h1m1 0h2m3 0h2m3 0h1m1 0h3m1 0h1m2 0h1M4 131.5h1m3 0h2m1 0h1m3 0h1m3 0h1m2 0h1m3 0h2m2 0h2m3 0h2m1 0h2m6 0h2m1 0h1m2 0h1m2 0h1m2 0h2m1 0h3m1 0h2m6 0h6m6 0h2m1 0h2m1 0h2m1 0h3m1 0h1m6 0h1m2 0h1m4 0h3m6 0h4m2 0h1m1 0h1m1 0h2m2 0h1m1 0h3m1 0h1m6 0h1m1 0h1m2 0h1m2 0h1m1 0h2m3 0h3m1 0h1m3 0h1m1 0h5M4 132.5h2m3 0h3m1 0h1m1 0h1m1 0h1m1 0h1m1 0h1m2 0h2m3 0h2m2 0h5m1 0h1m1 0h5m4 0h2m2 0h1m1 0h1m2 0h3m3 0h1m1 0h1m1 0h1m1 0h1m1 0h2m2 0h9m2 0h4m1 0h2m5 0h3m2 0h3m1 0h1m2 0h1m5 0h4m3 0h1m1 0h2m1 0h1m1 0h1m4 0h1m2 0h1m1 0h1m1 0h5m1 0h1m1 0h1m2 0h1m2 0h1m3 0h1m7 0h1m4 0h1m3 0h1M7 133.5h1m4 0h2m9 0h1m1 0h2m2 0h2m2 0h7m1 0h10m2 0h2m1 0h3m1 0h6m2 0h1m1 0h2m1 0h1m1 0h1m4 0h4m1 0h1m1 0h1m3 0h2m1 0h2m1 0h1m1 0h3m4 0h1m2 0h1m3 0h1m1 0h1m1 0h1m2 0h1m1 0h1m1 0h1m1 0h1m2 0h1m3 0h2m1 0h1m1 0h2m5 0h1m1 0h2m2 0h4m1 0h4m3 0h2m2 0h2m1 0h1m1 0h1m2 0h1m1 0h2m1 0h1M4 134.5h2m1 0h5m1 0h1m2 0h1m1 0h2m1 0h1m2 0h1m6 0h3m1 0h1m1 0h1m1 0h2m8 0h1m2 0h1m5 0h1m2 0h1m5 0h1m2 0h1m1 0h2m3 0h1m4 0h3m4 0h1m8 0h1m3 0h4m3 0h2m1 0h2m1 0h4m1 0h1m1 0h1m1 0h1m2 0h1m1 0h1m1 0h6m7 0h1m1 0h4m1 0h1m2 0h2m4 0h2m1 0h1m2 0h1m2 0h1m1 0h2m1 0h1m1 0h1m1 0h1M4 135.5h1m1 0h3m2 0h1m1 0h2m2 0h1m3 0h1m1 0h1m1 0h1m1 0h1m2 0h2m2 0h1m3 0h1m2 0h1m1 0h1m2 0h1m1 0h1m4 0h1m1 0h1m2 0h1m3 0h2m2 0h1m2 0h1m1 0h1m1 0h6m4 0h1m4 0h2m1 0h1m1 0h1m2 0h3m3 0h5m1 0h1m1 0h1m3 0h5m2 0h1m4 0h1m2 0h2m2 0h1m3 0h1m1 0h2m1 0h1m1 0h3m4 0h4m1 0h1m3 0h2m1 0h1m2 0h2m8 0h1m1 0h1M4 136.5h3m1 0h1m1 0h3m3 0h1m4 0h4m2 0h2m3 0h1m2 0h1m6 0h3m3 0h3m1 0h1m3 0h2m3 0h1m1 0h1m7 0h1m2 0h1m1 0h1m2 0h1m2 0h1m1 0h3m1 0h3m3 0h1m2 0h1m1 0h2m2 0h1m1 0h1m1 0h1m1 0h2m1 0h2m4 0h1m1 0h2m5 0h2m1 0h1m1 0h1m4 0h1m1 0h2m1 0h3m1 0h6m1 0h7m2 0h2m1 0h1m1 0h1m1 0h3m5 0h1m2 0h1M7 137.5h1m1 0h1m1 0h2m1 0h5m2 0h1m1 0h1m2 0h2m1 0h2m1 0h4m2 0h3m3 0h1m3 0h2m3 0h1m4 0h1m1 0h7m1 0h1m2 0h3m1 0h1m1 0h1m2 0h2m1 0h5m1 0h7m3 0h1m3 0h2m1 0h2m3 0h2m2 0h1m3 0h4m1 0h3m4 0h1m1 0h1m2 0h2m7 0h1m2 0h2m3 0h2m1 0h2m3 0h5m1 0h2m3 0h1m2 0h1m4 0h1M5 138.5h2m1 0h1m1 0h2m1 0h1m1 0h2m2 0h1m1 0h2m1 0h2m1 0h2m1 0h2m6 0h2m1 0h1m4 0h2m1 0h2m1 0h1m1 0h2m1 0h1m3 0h3m1 0h1m1 0h6m2 0h1m3 0h2m1 0h1m1 0h1m6 0h1m1 0h2m1 0h4m1 0h3m1 0h1m1 0h1m1 0h4m1 0h1m1 0h1m1 0h1m1 0h3m1 0h3m1 0h1m2 0h1m4 0h1m9 0h4m3 0h2m5 0h1m4 0h1m5 0h4m1 0h4M5 139.5h2m1 0h2m1 0h3m2 0h2m1 0h1m4 0h3m1 0h2m5 0h1m1 0h1m5 0h1m1 0h3m1 0h1m1 0h2m4 0h3m2 0h1m3 0h2m5 0h2m1 0h1m1 0h2m1 0h1m3 0h5m3 0h1m1 0h2m1 0h9m1 0h1m1 0h1m3 0h4m5 0h2m3 0h3m1 0h1m5 0h1m1 0h1m1 0h1m1 0h2m1 0h1m3 0h1m2 0h1m1 0h2m1 0h2m2 0h1m2 0h2m3 0h1m1 0h1m4 0h2M7 140.5h6m1 0h1m2 0h3m1 0h1m5 0h2m1 0h2m3 0h4m1 0h2m2 0h1m2 0h4m3 0h2m1 0h1m2 0h2m1 0h1m3 0h3m1 0h2m2 0h4m5 0h1m1 0h1m12 0h2m4 0h1m1 0h1m1 0h2m1 0h1m15 0h3m1 0h2m6 0h1m1 0h1m1 0h3m1 0h1m1 0h1m2 0h1m4 0h1m3 0h4m4 0h2m1 0h2m4 0h1M4 141.5h4m1 0h1m2 0h3m2 0h1m1 0h2m7 0h1m1 0h2m1 0h1m2 0h2m1 0h1m1 0h1m3 0h1m3 0h4m1 0h1m2 0h1m1 0h8m2 0h2m1 0h1m4 0h1m1 0h1m1 0h4m2 0h1m1 0h1m1 0h4m2 0h1m1 0h3m1 0h1m1 0h2m2 0h1m1 0h1m3 0h1m1 0h3m1 0h2m1 0h3m4 0h1m2 0h1m1 0h3m4 0h1m1 0h1m1 0h1m1 0h1m1 0h6m1 0h2m2 0h1m1 0h1m1 0h1m1 0h1m3 0h2m1 0h1m4 0h1M5 142.5h1m2 0h3m1 0h2m1 0h1m2 0h2m2 0h2m1 0h2m4 0h1m1 0h1m3 0h1m1 0h1m5 0h4m2 0h3m7 0h2m1 0h2m2 0h3m1 0h2m3 0h1m1 0h2m1 0h1m1 0h1m2 0h1m2 0h2m3 0h1m1 0h3m2 0h1m1 0h1m2 0h4m1 0h1m1 0h1m1 0h1m1 0h4m2 0h2m4 0h1m6 0h5m1 0h1m2 0h1m2 0h2m3 0h1m2 0h1m2 0h1m2 0h1m1 0h3m3 0h2m1 0h1m1 0h4M6 143.5h1m1 0h1m4 0h6m1 0h1m3 0h1m1 0h1m4 0h1m1 0h1m1 0h1m3 0h1m2 0h5m1 0h1m3 0h2m1 0h1m2 0h1m1 0h1m2 0h4m6 0h2m1 0h1m8 0h2m1 0h2m2 0h6m6 0h3m1 0h1m5 0h3m6 0h1m1 0h1m1 0h5m2 0h1m1 0h1m3 0h1m1 0h1m1 0h2m1 0h1m5 0h5m2 0h1m2 0h1m2 0h1m5 0h2m1 0h2m1 0h1M5 144.5h2m1 0h7m5 0h1m2 0h4m2 0h1m1 0h6m3 0h2m1 0h1m3 0h5m2 0h1m1 0h1m3 0h5m7 0h3m3 0h1m1 0h2m5 0h6m1 0h2m2 0h3m1 0h2m1 0h1m1 0h1m1 0h2m1 0h2m1 0h6m4 0h1m1 0h2m1 0h3m4 0h1m2 0h1m1 0h12m1 0h2m1 0h2m2 0h2m3 0h2m1 0h7m2 0h2M4 145.5h3m1 0h1m3 0h1m3 0h3m1 0h1m2 0h2m3 0h3m1 0h1m3 0h3m2 0h1m1 0h4m1 0h1m1 0h1m2 0h1m1 0h2m1 0h1m1 0h1m3 0h1m4 0h2m2 0h1m2 0h1m2 0h1m4 0h1m1 0h1m1 0h1m3 0h1m1 0h4m2 0h2m2 0h1m1 0h1m8 0h2m3 0h1m1 0h1m1 0h1m1 0h2m1 0h1m3 0h4m1 0h2m1 0h1m1 0h2m3 0h2m6 0h1m4 0h1m1 0h2m2 0h3m1 0h2m3 0h3m1 0h1M4 146.5h2m1 0h2m1 0h1m1 0h2m1 0h1m2 0h1m2 0h2m1 0h4m1 0h4m1 0h1m1 0h2m1 0h4m2 0h3m1 0h2m1 0h1m2 0h1m1 0h2m1 0h1m1 0h1m1 0h1m2 0h4m1 0h1m4 0h1m2 0h3m1 0h2m2 0h1m1 0h1m1 0h1m2 0h5m2 0h2m3 0h5m2 0h3m1 0h1m1 0h2m2 0h4m2 0h2m1 0h8m3 0h1m1 0h1m1 0h2m3 0h2m3 0h1m1 0h4m1 0h2m3 0h3m1 0h1m1 0h1m1 0h2M4 147.5h2m2 0h1m3 0h1m2 0h2m1 0h2m2 0h1m1 0h2m3 0h1m2 0h1m3 0h2m6 0h1m1 0h3m2 0h1m1 0h1m1 0h2m1 0h3m3 0h1m1 0h2m1 0h3m1 0h1m2 0h1m1 0h1m2 0h1m1 0h1m2 0h1m1 0h1m3 0h1m5 0h1m5 0h2m2 0h1m1 0h2m1 0h1m1 0h2m3 0h1m3 0h4m1 0h1m2 0h1m2 0h3m1 0h1m1 0h2m1 0h1m3 0h1m4 0h2m1 0h2m2 0h1m2 0h2m1 0h3m3 0h1m3 0h3m1 0h1M5 148.5h2m1 0h6m4 0h1m1 0h1m1 0h1m1 0h2m2 0h1m1 0h7m5 0h1m7 0h1m3 0h1m2 0h1m2 0h10m2 0h1m1 0h1m2 0h1m1 0h1m1 0h1m2 0h1m1 0h1m1 0h5m1 0h2m1 0h1m2 0h1m1 0h2m2 0h1m2 0h2m1 0h1m2 0h7m3 0h1m2 0h3m1 0h2m1 0h1m1 0h1m2 0h1m1 0h7m1 0h1m1 0h1m2 0h4m1 0h3m1 0h1m3 0h3m1 0h5m2 0h2M4 149.5h1m2 0h1m3 0h1m5 0h1m1 0h2m2 0h2m1 0h2m4 0h1m1 0h1m1 0h2m4 0h1m1 0h2m2 0h1m2 0h4m1 0h1m1 0h1m1 0h1m2 0h1m4 0h1m1 0h4m1 0h1m4 0h1m2 0h2m2 0h2m1 0h2m1 0h3m3 0h2m2 0h1m1 0h2m1 0h1m7 0h1m1 0h1m2 0h2m1 0h1m1 0h1m6 0h2m1 0h1m1 0h2m4 0h3m1 0h2m1 0h6m1 0h1m3 0h1m1 0h2m2 0h4m5 0h1m1 0h2M4 150.5h1m2 0h11m1 0h2m2 0h3m2 0h2m2 0h1m3 0h1m3 0h4m5 0h1m1 0h2m2 0h1m1 0h2m3 0h1m1 0h2m2 0h1m1 0h1m1 0h1m2 0h1m4 0h5m3 0h5m2 0h6m1 0h4m1 0h2m1 0h1m1 0h1m1 0h1m5 0h1m1 0h1m1 0h1m2 0h2m1 0h1m1 0h6m3 0h1m3 0h1m1 0h1m1 0h2m3 0h2m1 0h2m1 0h2m1 0h1m1 0h1m4 0h4m1 0h1M4 151.5h1m1 0h3m2 0h1m1 0h1m4 0h1m1 0h4m3 0h1m2 0h8m1 0h1m4 0h5m3 0h2m1 0h1m2 0h1m2 0h1m2 0h3m2 0h1m1 0h1m1 0h2m1 0h1m1 0h2m6 0h1m1 0h1m5 0h1m1 0h1m4 0h4m1 0h1m1 0h1m1 0h2m1 0h1m1 0h2m1 0h4m4 0h1m1 0h1m8 0h3m2 0h5m4 0h4m1 0h2m7 0h3m1 0h1m1 0h2m1 0h1m1 0h4M10 152.5h1m2 0h2m1 0h2m1 0h1m1 0h4m1 0h3m3 0h3m4 0h1m1 0h5m4 0h1m2 0h2m1 0h1m2 0h1m1 0h1m1 0h1m1 0h1m2 0h4m2 0h1m1 0h1m1 0h1m2 0h1m6 0h2m1 0h1m8 0h2m1 0h1m1 0h2m2 0h1m1 0h3m1 0h2m2 0h1m1 0h1m1 0h1m4 0h1m1 0h1m1 0h2m8 0h1m1 0h3m3 0h1m2 0h1m1 0h2m1 0h1m2 0h2m1 0h2m2 0h1m1 0h1m1 0h2m2 0h1m2 0h2M4 153.5h3m1 0h2m2 0h1m3 0h2m2 0h1m1 0h1m2 0h1m2 0h1m1 0h1m1 0h2m1 0h3m1 0h2m1 0h2m1 0h5m1 0h1m1 0h4m8 0h6m1 0h2m1 0h2m1 0h1m1 0h5m2 0h2m3 0h1m1 0h1m1 0h1m3 0h2m4 0h1m1 0h1m3 0h1m5 0h1m3 0h3m1 0h2m1 0h1m3 0h2m1 0h1m1 0h1m2 0h1m2 0h3m1 0h1m1 0h3m1 0h1m1 0h2m1 0h1m2 0h4m1 0h4m4 0h1m1 0h1m2 0h1M4 154.5h1m1 0h3m1 0h1m1 0h1m2 0h2m1 0h1m3 0h1m1 0h1m2 0h1m1 0h4m1 0h1m1 0h1m1 0h1m2 0h1m7 0h2m1 0h1m1 0h2m1 0h2m3 0h3m5 0h1m1 0h1m2 0h2m3 0h1m1 0h1m1 0h2m3 0h2m1 0h2m1 0h1m2 0h4m2 0h1m4 0h3m1 0h2m2 0h2m3 0h1m1 0h1m5 0h1m2 0h1m1 0h2m1 0h4m1 0h3m2 0h1m1 0h2m1 0h3m2 0h4m1 0h1m1 0h1m3 0h2m4 0h1m1 0h3M4 155.5h2m2 0h2m1 0h1m1 0h1m2 0h1m2 0h2m3 0h1m3 0h2m3 0h1m1 0h1m4 0h1m1 0h1m3 0h2m1 0h1m1 0h3m1 0h1m1 0h3m2 0h1m1 0h1m1 0h1m2 0h1m5 0h2m1 0h2m3 0h1m1 0h2m7 0h3m1 0h2m1 0h1m1 0h7m3 0h1m1 0h7m3 0h7m3 0h1m1 0h2m3 0h3m1 0h1m6 0h3m1 0h1m2 0h1m2 0h2m1 0h4m1 0h2m1 0h1m1 0h1m1 0h3M4 156.5h7m5 0h1m4 0h1m2 0h3m1 0h1m1 0h2m1 0h1m1 0h4m3 0h1m1 0h1m2 0h4m1 0h1m1 0h3m2 0h3m1 0h2m2 0h1m1 0h3m2 0h1m1 0h3m2 0h1m4 0h1m1 0h2m2 0h2m3 0h1m1 0h3m1 0h1m1 0h2m2 0h1m1 0h7m1 0h1m3 0h3m2 0h1m1 0h1m1 0h1m4 0h1m1 0h4m1 0h1m2 0h2m1 0h2m1 0h1m2 0h1m1 0h2m1 0h2m1 0h1m3 0h1m1 0h1m1 0h3m1 0h1M6 157.5h2m6 0h5m1 0h1m1 0h2m1 0h1m3 0h1m2 0h7m1 0h1m2 0h2m3 0h1m2 0h6m3 0h1m4 0h2m1 0h2m1 0h1m1 0h2m2 0h2m1 0h1m1 0h3m1 0h2m1 0h3m2 0h3m3 0h1m3 0h1m1 0h1m4 0h3m1 0h2m2 0h2m1 0h3m1 0h2m3 0h1m2 0h1m1 0h1m1 0h1m3 0h1m4 0h6m1 0h1m1 0h1m4 0h10m4 0h1m1 0h1m2 0h1M5 158.5h3m2 0h2m2 0h3m1 0h2m3 0h1m1 0h1m2 0h1m4 0h5m1 0h5m1 0h1m1 0h1m1 0h4m2 0h1m1 0h1m1 0h1m1 0h1m2 0h2m2 0h5m8 0h4m3 0h3m1 0h2m4 0h2m1 0h4m2 0h2m2 0h2m1 0h1m1 0h3m3 0h1m1 0h1m2 0h2m5 0h1m2 0h1m1 0h1m1 0h2m2 0h1m1 0h2m2 0h1m8 0h1m1 0h2m1 0h3m1 0h2m1 0h1m3 0h4M4 159.5h1m2 0h3m2 0h2m1 0h2m4 0h1m1 0h5m3 0h1m1 0h1m3 0h2m5 0h1m1 0h2m1 0h1m3 0h1m3 0h3m5 0h2m6 0h2m1 0h3m2 0h3m2 0h3m2 0h1m2 0h1m1 0h3m1 0h1m2 0h4m1 0h1m1 0h1m3 0h2m2 0h1m1 0h2m1 0h1m1 0h2m1 0h1m1 0h1m1 0h1m1 0h2m1 0h1m1 0h2m1 0h3m1 0h4m1 0h1m1 0h2m1 0h2m1 0h3m1 0h2m1 0h1m1 0h2m1 0h1m1 0h7M4 160.5h7m1 0h1m1 0h1m1 0h1m1 0h1m2 0h2m6 0h2m4 0h2m5 0h2m3 0h1m1 0h2m1 0h3m1 0h1m2 0h1m2 0h1m1 0h2m3 0h1m1 0h1m3 0h3m1 0h1m1 0h1m4 0h1m2 0h1m8 0h3m4 0h3m1 0h1m2 0h2m2 0h2m1 0h1m8 0h1m1 0h3m2 0h1m1 0h1m1 0h4m1 0h1m1 0h2m1 0h1m1 0h1m1 0h1m4 0h3m1 0h1m1 0h1m2 0h2m1 0h1m1 0h1m1 0h3m1 0h2M5 161.5h2m1 0h2m3 0h2m1 0h2m8 0h5m1 0h1m3 0h2m1 0h2m1 0h1m1 0h2m1 0h5m1 0h5m2 0h2m2 0h2m1 0h1m4 0h1m7 0h2m4 0h3m1 0h2m2 0h4m2 0h1m5 0h1m2 0h1m1 0h2m2 0h3m1 0h1m2 0h1m1 0h1m1 0h1m4 0h1m1 0h2m1 0h2m1 0h1m1 0h1m2 0h2m1 0h2m3 0h2m2 0h3m2 0h2m1 0h3m1 0h1m1 0h3m2 0h1m3 0h2M4 162.5h1m1 0h2m1 0h3m3 0h2m1 0h1m2 0h1m1 0h3m2 0h3m4 0h1m3 0h2m1 0h2m1 0h1m3 0h1m2 0h1m8 0h4m3 0h4m1 0h1m3 0h1m1 0h4m1 0h1m4 0h4m2 0h1m1 0h2m3 0h1m4 0h2m1 0h3m1 0h1m3 0h2m1 0h2m1 0h3m1 0h2m2 0h3m1 0h1m1 0h1m2 0h1m1 0h1m1 0h1m2 0h1m1 0h2m1 0h2m4 0h2m2 0h1m1 0h2m2 0h1m2 0h1m2 0h3m1 0h1M5 163.5h2m5 0h1m3 0h1m1 0h2m1 0h1m2 0h1m2 0h1m3 0h1m1 0h1m1 0h1m1 0h1m3 0h1m1 0h1m1 0h4m2 0h1m3 0h2m1 0h1m1 0h3m1 0h1m1 0h1m4 0h1m1 0h7m3 0h1m1 0h3m3 0h1m1 0h2m1 0h1m1 0h1m3 0h4m2 0h1m1 0h3m2 0h1m2 0h1m1 0h6m1 0h1m1 0h5m1 0h1m1 0h1m1 0h2m1 0h2m2 0h3m5 0h1m2 0h1m1 0h3m4 0h1m4 0h2m1 0h2m1 0h2M4 164.5h1m3 0h6m1 0h1m2 0h1m2 0h2m1 0h2m2 0h2m2 0h1m1 0h6m2 0h1m1 0h2m2 0h1m4 0h2m4 0h1m3 0h1m1 0h3m1 0h1m5 0h2m4 0h1m5 0h2m3 0h4m1 0h6m4 0h1m2 0h8m9 0h7m6 0h3m1 0h3m2 0h3m4 0h4m2 0h1m4 0h2m7 0h1m2 0h1M4 165.5h3m2 0h1m2 0h3m4 0h2m1 0h2m5 0h1m1 0h1m1 0h1m2 0h2m2 0h1m5 0h1m1 0h1m1 0h1m4 0h4m4 0h1m2 0h1m1 0h1m1 0h2m5 0h4m1 0h1m1 0h2m1 0h4m3 0h1m2 0h1m8 0h1m2 0h1m1 0h1m1 0h1m3 0h2m2 0h4m1 0h1m6 0h2m1 0h4m8 0h6m1 0h2m1 0h2m1 0h1m2 0h1m1 0h3m3 0h2m1 0h1m4 0h1M4 166.5h1m2 0h1m2 0h1m1 0h1m1 0h1m1 0h1m1 0h1m2 0h1m2 0h2m1 0h1m4 0h1m1 0h4m2 0h3m2 0h3m1 0h1m2 0h1m1 0h1m3 0h1m1 0h3m1 0h1m2 0h4m1 0h1m2 0h1m3 0h7m4 0h4m2 0h3m1 0h1m1 0h3m2 0h4m2 0h2m1 0h3m1 0h1m1 0h1m1 0h1m2 0h5m1 0h2m3 0h1m1 0h4m1 0h1m1 0h1m12 0h2m9 0h2m5 0h1M4 167.5h2m3 0h1m3 0h2m8 0h2m2 0h1m1 0h4m1 0h3m2 0h4m3 0h1m4 0h3m1 0h2m1 0h2m2 0h6m1 0h1m3 0h2m1 0h4m2 0h1m3 0h3m2 0h1m1 0h1m2 0h2m6 0h1m1 0h1m1 0h1m3 0h1m2 0h2m1 0h5m1 0h1m1 0h1m2 0h4m1 0h2m1 0h1m2 0h4m1 0h5m1 0h1m1 0h2m2 0h1m1 0h3m4 0h1m2 0h1m1 0h1m1 0h2m3 0h1m1 0h1M5 168.5h1m1 0h2m1 0h2m2 0h1m5 0h1m5 0h3m1 0h4m3 0h2m1 0h1m1 0h1m1 0h8m2 0h1m1 0h2m1 0h2m1 0h1m3 0h2m1 0h4m1 0h1m3 0h1m2 0h4m2 0h2m2 0h2m1 0h1m2 0h2m1 0h1m1 0h1m2 0h1m1 0h1m1 0h5m5 0h1m1 0h1m5 0h2m1 0h1m1 0h1m7 0h3m1 0h4m1 0h2m2 0h1m2 0h3m1 0h3m2 0h1m2 0h3m1 0h2m1 0h2m3 0h1M4 169.5h3m4 0h2m2 0h1m2 0h1m6 0h1m1 0h5m1 0h1m2 0h1m3 0h1m3 0h3m1 0h4m1 0h4m1 0h1m4 0h1m1 0h2m1 0h3m3 0h1m1 0h2m1 0h4m1 0h2m1 0h2m1 0h2m1 0h2m4 0h1m4 0h1m1 0h2m1 0h1m1 0h1m3 0h1m1 0h1m4 0h1m1 0h4m1 0h1m1 0h1m1 0h2m1 0h1m1 0h2m3 0h1m1 0h1m1 0h4m1 0h1m3 0h3m2 0h1m2 0h2m1 0h2m2 0h1m1 0h3m1 0h2m1 0h1M4 170.5h3m2 0h2m4 0h2m1 0h2m2 0h1m1 0h1m1 0h1m1 0h3m1 0h4m3 0h1m3 0h1m2 0h1m3 0h1m1 0h1m1 0h1m5 0h3m1 0h1m2 0h2m1 0h3m2 0h1m3 0h2m1 0h1m1 0h2m2 0h2m1 0h3m2 0h3m1 0h1m1 0h2m4 0h1m1 0h1m3 0h1m2 0h8m1 0h2m2 0h1m1 0h6m3 0h1m2 0h1m2 0h1m1 0h1m1 0h1m2 0h1m2 0h1m2 0h3m3 0h1m4 0h1m1 0h1m1 0h2m1 0h2M7 171.5h1m4 0h1m1 0h1m1 0h1m1 0h1m2 0h4m2 0h1m2 0h2m1 0h1m1 0h1m2 0h2m2 0h1m1 0h1m1 0h2m1 0h1m1 0h6m1 0h1m2 0h1m1 0h5m6 0h1m1 0h3m7 0h1m1 0h2m3 0h1m2 0h2m5 0h3m1 0h3m1 0h2m1 0h6m1 0h2m1 0h1m2 0h1m1 0h4m2 0h1m1 0h4m2 0h1m2 0h1m1 0h1m2 0h1m2 0h1m1 0h2m2 0h2m1 0h1m2 0h2m3 0h1m2 0h1m3 0h1m1 0h1M5 172.5h1m1 0h1m1 0h4m2 0h2m5 0h4m2 0h1m1 0h1m1 0h5m2 0h2m1 0h2m3 0h1m2 0h1m4 0h1m3 0h7m3 0h1m3 0h1m2 0h1m1 0h2m1 0h1m2 0h1m3 0h8m1 0h5m1 0h1m7 0h2m3 0h5m3 0h1m2 0h2m1 0h3m7 0h3m1 0h5m1 0h1m1 0h1m4 0h4m1 0h4m4 0h1m1 0h5m2 0h2M12 173.5h1m1 0h2m1 0h1m1 0h1m3 0h2m5 0h1m1 0h1m3 0h1m3 0h2m1 0h3m2 0h2m1 0h1m1 0h1m1 0h2m2 0h2m3 0h7m1 0h2m1 0h1m1 0h1m3 0h2m3 0h1m1 0h1m3 0h1m1 0h1m2 0h1m1 0h1m5 0h3m1 0h1m2 0h2m1 0h2m3 0h5m1 0h2m5 0h4m1 0h1m5 0h1m3 0h5m1 0h1m2 0h3m2 0h4m2 0h1m1 0h3m3 0h1m3 0h1M4 174.5h7m1 0h2m2 0h2m1 0h2m1 0h6m1 0h1m1 0h2m1 0h1m1 0h5m1 0h1m4 0h1m1 0h2m1 0h1m4 0h1m2 0h1m1 0h1m1 0h2m1 0h2m1 0h1m1 0h1m7 0h6m1 0h2m1 0h1m1 0h1m3 0h4m1 0h5m1 0h1m1 0h3m2 0h3m1 0h1m1 0h1m1 0h3m4 0h2m1 0h1m1 0h3m1 0h1m1 0h1m3 0h1m1 0h1m1 0h1m2 0h1m2 0h2m2 0h1m1 0h2m1 0h1m1 0h2m2 0h2m1 0h1m1 0h1m1 0h2m1 0h1M4 175.5h1m5 0h1m2 0h2m1 0h3m1 0h2m1 0h4m1 0h1m2 0h2m3 0h1m1 0h2m1 0h3m1 0h3m3 0h3m1 0h1m2 0h1m1 0h1m3 0h1m1 0h2m8 0h1m1 0h2m5 0h2m1 0h1m3 0h1m3 0h1m1 0h1m3 0h3m3 0h3m2 0h2m1 0h1m3 0h2m1 0h1m2 0h1m2 0h2m2 0h3m1 0h4m1 0h1m1 0h1m3 0h1m2 0h4m2 0h1m1 0h2m5 0h2m4 0h1m3 0h4M4 176.5h1m1 0h3m1 0h1m1 0h1m1 0h2m1 0h6m1 0h2m1 0h1m2 0h1m1 0h7m3 0h1m1 0h2m1 0h1m1 0h4m1 0h1m1 0h2m2 0h5m2 0h3m2 0h1m1 0h3m2 0h2m5 0h1m1 0h6m1 0h1m1 0h1m1 0h4m2 0h2m2 0h1m1 0h2m1 0h1m1 0h5m2 0h2m2 0h2m1 0h1m1 0h1m7 0h12m2 0h2m2 0h2m1 0h2m2 0h1m1 0h11m1 0h2M4 177.5h1m1 0h3m1 0h1m1 0h1m3 0h2m1 0h2m2 0h1m1 0h1m4 0h5m1 0h3m3 0h3m2 0h2m1 0h1m5 0h1m2 0h2m3 0h1m3 0h1m1 0h1m3 0h1m1 0h2m2 0h1m1 0h1m2 0h1m2 0h2m3 0h2m5 0h1m3 0h1m1 0h1m1 0h1m3 0h2m1 0h1m3 0h1m1 0h4m1 0h1m2 0h1m4 0h6m4 0h2m6 0h1m3 0h4m3 0h3m4 0h1m2 0h2m1 0h1M4 178.5h1m1 0h3m1 0h1m1 0h1m5 0h5m1 0h8m4 0h4m3 0h1m8 0h1m1 0h2m2 0h1m1 0h2m5 0h5m3 0h1m1 0h1m2 0h6m1 0h4m4 0h5m1 0h2m1 0h2m2 0h1m3 0h1m1 0h3m4 0h4m2 0h1m1 0h2m1 0h3m2 0h1m3 0h1m3 0h4m1 0h1m2 0h1m1 0h1m1 0h1m2 0h2m1 0h1m1 0h3m1 0h1m2 0h1m2 0h1m1 0h2M4 179.5h1m5 0h1m1 0h2m2 0h2m3 0h1m2 0h1m2 0h1m1 0h1m1 0h1m1 0h1m1 0h1m1 0h1m2 0h2m1 0h1m1 0h3m1 0h1m8 0h2m2 0h5m4 0h1m2 0h1m1 0h1m1 0h2m3 0h1m2 0h1m3 0h1m1 0h3m1 0h1m2 0h1m3 0h2m1 0h3m1 0h1m5 0h4m1 0h1m1 0h1m1 0h1m1 0h4m4 0h1m1 0h1m2 0h4m1 0h1m2 0h2m1 0h1m2 0h2m5 0h1m1 0h2m1 0h1m2 0h1m3 0h1m3 0h2M4 180.5h7m1 0h1m1 0h2m2 0h1m1 0h1m1 0h1m1 0h1m2 0h1m1 0h1m4 0h1m2 0h3m1 0h1m1 0h4m3 0h2m2 0h1m4 0h4m1 0h2m2 0h1m5 0h5m2 0h3m1 0h1m2 0h1m2 0h1m1 0h3m4 0h2m1 0h1m5 0h1m1 0h2m1 0h3m1 0h1m1 0h1m2 0h1m1 0h1m1 0h2m1 0h1m1 0h1m6 0h1m1 0h3m2 0h1m1 0h1m1 0h4m1 0h4m1 0h3m1 0h1m2 0h1m2 0h1m4 0h1m3 0h1"/></svg>
