<?xml version="1.0" encoding="utf-8"?><!DOCTYPE svg PUBLIC "-//W3C//DTD SVG 1.1//EN" "http://www.w3.org/Graphics/SVG/1.1/DTD/svg11.dtd"><svg xmlns="http://www.w3.org/2000/svg" viewBox="0 0 177 177" shape-rendering="crispEdges"><path fill="#ffffff" d="M0 0h177v177H0z"/><path stroke="#000000" d="M4 4.5h7m2 0h1m8 0h1m1 0h1m4 0h2m1 0h2m1 0h1m3 0h1m4 0h2m1 0h3m1 0h1m3 0h2m1 0h5m1 0h1m1 0h1m1 0h1m1 0h5m1 0h5m1 0h3m2 0h3m1 0h2m1 0h1m1 0h1m3 0h1m2 0h1m1 0h3m3 0h1m1 0h1m1 0h1m2 0h2m2 0h1m1 0h4m1 0h1m1 0h1m1 0h1m1 0h2m2 0h2m3 0h1m2 0h1m1 0h4m3 0h1m4 0h1m2 0h1m1 0h7M4 5.5h1m5 0h1m1 0h3m2 0h1m3 0h5m2 0h3m1 0h4m4 0h1m1 0h2m1 0h2m2 0h1m1 0h3m3 0h2m2 0h6m1 0h3m1 0h2m5 0h2m1 0h1m1 0h1m1 0h5m1 0h1m2 0h6m1 0h1m2 0h2m3 0h2m4 0h1m1 0h1m1 0h1m1 0h1m1 0h1m2 0h1m1 0h3m1 0h1m2 0h2m1 0h1m1 0h2m2 0h2m1 0h1m2 0h1m1 0h1m1 0h1m1 0h1m1 0h2m3 0h1m1 0h1m5 0h1M4 6.5h1m1 0h3m1 0h1m3 0h1m2 0h1m1 0h1m2 0h1m1 0h1m1 0h1m1 0h2m2 0h1m1 0h1m8 0h1m2 0h3m2 0h2m2 0h1m2 0h1m8 0h1m2 0h1m3 0h1m1 0h1m1 0h2m1 0h1m3 0h2m2 0h3m1 0h1m2 0h1m6 0h2m2 0h2m1 0h2m2 0h2m2 0h4m1 0h1m2 0h1m1 0h1m1 0h7m2 0h1m2 0h1m1 0h2m1 0h1m5 0h3m3 0h1m1 0h2m3 0h1m1 0h3m1 0h1M4 7.5h1m1 0h3m1 0h1m1 0h2m4 0h1m1 0h1m3 0h1m2 0h1m1 0h1m3 0h3m2 0h1m1 0h1m1 0h1m1 0h2m1 0h1m1 0h4m1 0h1m1 0h1m2 0h3m3 0h1m3 0h1m1 0h1m1 0h1m1 0h1m2 0h1m4 0h3m1 0h4m1 0h4m1 0h2m1 0h1m1 0h2m1 0h2m3 0h1m1 0h1m1 0h2m2 0h1m1 0h1m2 0h1m3 0h6m5 0h4m4 0h1m2 0h3m3 0h5m2 0h1m1 0h1m1 0h1m1 0h3m1 0h1M4 8.5h1m1 0h3m1 0h1m3 0h1m1 0h1m1 0h1m1 0h6m1 0h3m4 0h5m2 0h5m2 0h1m1 0h1m5 0h2m1 0h6m3 0h1m2 0h1m1 0h3m1 0h1m1 0h3m3 0h10m10 0h2m4 0h6m2 0h1m3 0h2m1 0h1m6 0h2m1 0h7m1 0h2m1 0h1m1 0h1m1 0h2m1 0h1m1 0h3m4 0h2m1 0h1m1 0h3m1 0h1M4 9.5h1m5 0h1m1 0h1m1 0h3m1 0h3m1 0h1m4 0h1m4 0h3m3 0h3m1 0h2m1 0h3m1 0h5m1 0h1m2 0h3m3 0h1m2 0h2m1 0h1m4 0h1m1 0h1m2 0h5m1 0h1m3 0h1m1 0h2m1 0h2m3 0h6m1 0h2m1 0h1m1 0h1m3 0h2m1 0h3m2 0h4m2 0h4m3 0h2m3 0h1m2 0h2m1 0h1m5 0h2m4 0h1m3 0h1m1 0h1m5 0h1M4 10.5h7m1 0h1m1 0h1m1 0h1m1 0h1m1 0h1m1 0h1m1 0h1m1 0h1m1 0h1m1 0h1m1 0h1m1 0h1m1 0h1m1 0h1m1 0h1m1 0h1m1 0h1m1 0h1m1 0h1m1 0h1m1 0h1m1 0h1m1 0h1m1 0h1m1 0h1m1 0h1m1 0h1m1 0h1m1 0h1m1 0h1m1 0h1m1 0h1m1 0h1m1 0h1m1 0h1m1 0h1m1 0h1m1 0h1m1 0h1m1 0h1m1 0h1m1 0h1m1 0h1m1 0h1m1 0h1m1 0h1m1 0h1m1 0h1m1 0h1m1 0h1m1 0h1m1 0h1m1 0h1m1 0h1m1 0h1m1 0h1m1 0h1m1 0h1m1 0h1m1 0h1m1 0h1m1 0h1m1 0h1m1 0h1m1 0h1m1 0h1m1 0h1m1 0h1m1 0h1m1 0h1m1 0h1m1 0h1m1 0h1m1 0h1m1 0h1m1 0h1m1 0h1m1 0h7M14 11.5h1m2 0h3m1 0h1m1 0h1m1 0h2m1 0h3m1 0h1m1 0h1m3 0h5m3 0h1m1 0h1m9 0h1m1 0h1m3 0h4m3 0h1m2 0h6m2 0h1m3 0h1m3 0h1m1 0h1m1 0h3m1 0h1m6 0h1m2 0h1m3 0h1m3 0h1m1 0h5m1 0h1m3 0h1m3 0h1m2 0h2m1 0h1m3 0h1m1 0h2m1 0h2m5 0h2m1 0h1m1 0h1m1 0h1m1 0h1M4 12.5h5m1 0h4m1 0h2m1 0h1m1 0h1m2 0h6m1 0h1m2 0h7m3 0h1m5 0h7m1 0h1m2 0h5m4 0h1m4 0h1m1 0h1m2 0h1m1 0h1m2 0h7m2 0h1m1 0h1m4 0h2m7 0h1m2 0h7m1 0h2m6 0h1m1 0h3m5 0h7m1 0h3m1 0h1m1 0h1m3 0h3m3 0h4m1 0h1m1 0h1m1 0h1M5 13.5h1m1 0h2m3 0h4m6 0h2m2 0h2m1 0h1m2 0h1m2 0h1m2 0h1m2 0h1m1 0h2m1 0h1m3 0h1m2 0h2m1 0h1m4 0h2m1 0h3m8 0h1m1 0h1m2 0h1m1 0h1m3 0h4m1 0h2m1 0h2m1 0h1m2 0h1m2 0h1m1 0h3m1 0h1m3 0h2m1 0h1m5 0h6m1 0h1m4 0h1m1 0h2m1 0h3m1 0h4m2 0h1m2 0h2m2 0h4m4 0h3m2 0h1M8 14.5h1m1 0h1m2 0h1m4 0h1m1 0h2m1 0h1m1 0h1m1 0h5m1 0h1m2 0h3m1 0h1m1 0h2m3 0h4m1 0h1m4 0h1m1 0h2m2 0h3m1 0h4m1 0h2m5 0h6m5 0h1m4 0h1m2 0h3m1 0h1m1 0h1m2 0h1m1 0h5m2 0h2m7 0h1m1 0h3m8 0h2m2 0h2m1 0h1m1 0h3m1 0h1m1 0h2m2 0h1m2 0h6m2 0h5M4 15.5h2m2 0h1m2 0h2m1 0h3m1 0h1m2 0h1m2 0h2m1 0h2m1 0h1m1 0h1m5 0h1m2 0h1m1 0h1m1 0h2m1 0h2m1 0h3m2 0h1m1 0h3m2 0h2m1 0h2m3 0h1m1 0h6m8 0h8m1 0h3m2 0h2m1 0h1m2 0h2m1 0h6m1 0h3m3 0h2m1 0h2m1 0h5m3 0h2m2 0h5m2 0h2m4 0h1m1 0h2m7 0h1m1 0h3m1 0h2M5 16.5h2m1 0h8m1 0h1m2 0h3m4 0h1m1 0h1m2 0h2m1 0h3m2 0h1m1 0h2m3 0h2m1 0h3m1 0h2m1 0h1m1 0h1m1 0h1m4 0h1m2 0h1m3 0h1m1 0h2m2 0h1m2 0h3m1 0h1m1 0h1m2 0h1m2 0h2m3 0h2m2 0h1m1 0h2m2 0h1m3 0h2m2 0h5m3 0h1m2 0h1m1 0h1m1 0h1m6 0h2m4 0h4m2 0h1m1 0h1m3 0h2m1 0h1m1 0h6m1 0h2M4 17.5h3m2 0h1m1 0h1m2 0h6m2 0h1m1 0h2m1 0h1m2 0h4m1 0h2m1 0h2m1 0h1m2 0h1m3 0h3m2 0h6m2 0h2m1 0h1m4 0h4m2 0h3m1 0h1m1 0h1m2 0h6m1 0h1m2 0h4m1 0h2m2 0h2m1 0h1m1 0h1m2 0h1m3 0h1m6 0h1m1 0h1m1 0h1m2 0h1m3 0h5m1 0h2m1 0h4m1 0h1m3 0h1m1 0h1m1 0h2m2 0h1m1 0h2m1 0h7M4 18.5h1m1 0h2m2 0h1m2 0h1m2 0h5m1 0h2m4 0h4m3 0h8m2 0h3m4 0h1m4 0h6m1 0h1m2 0h4m2 0h1m5 0h2m1 0h4m2 0h5m2 0h1m1 0h2m2 0h2m6 0h2m1 0h1m2 0h3m5 0h2m2 0h1m1 0h1m2 0h1m5 0h2m1 0h1m3 0h2m1 0h1m5 0h1m2 0h4m1 0h2m6 0h1m1 0h1M4 19.5h1m1 0h1m4 0h1m2 0h1m4 0h1m2 0h2m1 0h1m1 0h1m1 0h1m1 0h1m2 0h1m2 0h1m1 0h3m3 0h2m2 0h1m1 0h2m2 0h1m1 0h5m3 0h3m3 0h2m1 0h1m1 0h1m1 0h2m5 0h1m4 0h2m4 0h2m1 0h1m2 0h5m1 0h2m2 0h3m3 0h1m1 0h1m1 0h1m2 0h1m2 0h1m2 0h1m1 0h1m1 0h1m3 0h1m2 0h2m1 0h1m2 0h2m1 0h1m2 0h1m2 0h1m1 0h3m3 0h1m2 0h1M4 20.5h1m1 0h1m2 0h2m1 0h4m1 0h4m1 0h3m4 0h2m1 0h1m2 0h6m1 0h1m1 0h1m2 0h1m2 0h8m1 0h1m1 0h1m1 0h1m1 0h2m2 0h1m2 0h1m3 0h3m1 0h2m1 0h1m1 0h5m4 0h2m1 0h6m2 0h2m4 0h1m1 0h2m1 0h3m1 0h2m3 0h1m2 0h3m1 0h2m2 0h1m1 0h1m2 0h1m1 0h5m4 0h1m2 0h2m1 0h2m2 0h3m1 0h2m1 0h4M5 21.5h4m3 0h3m2 0h1m1 0h1m1 0h1m2 0h9m1 0h2m5 0h1m1 0h2m2 0h3m1 0h1m1 0h1m1 0h4m2 0h4m1 0h1m3 0h6m3 0h4m3 0h4m2 0h3m1 0h2m2 0h1m4 0h2m1 0h1m2 0h6m2 0h1m2 0h1m1 0h4m1 0h1m3 0h4m2 0h2m3 0h1m1 0h2m2 0h4m2 0h4m1 0h1m2 0h1m1 0h1m3 0h2M5 22.5h2m1 0h1m1 0h4m2 0h1m5 0h2m1 0h2m2 0h1m2 0h4m4 0h2m1 0h1m1 0h1m3 0h2m1 0h1m1 0h1m4 0h3m1 0h2m2 0h2m1 0h4m5 0h2m1 0h1m1 0h4m2 0h1m7 0h1m3 0h1m1 0h2m5 0h3m1 0h3m3 0h1m1 0h5m1 0h1m6 0h3m2 0h3m1 0h1m2 0h3m3 0h1m5 0h2m2 0h1m2 0h1m1 0h1m2 0h1M4 23.5h1m4 0h1m1 0h4m2 0h3m1 0h4m3 0h3m1 0h3m1 0h5m2 0h1m1 0h2m1 0h2m2 0h1m2 0h2m1 0h1m1 0h4m2 0h1m2 0h1m3 0h2m1 0h4m1 0h1m7 0h4m2 0h3m4 0h4m2 0h3m2 0h3m1 0h4m2 0h1m4 0h1m4 0h1m3 0h1m2 0h3m1 0h2m2 0h2m3 0h5m1 0h2m2 0h1m4 0h1m3 0h1M4 24.5h1m3 0h8m5 0h3m4 0h1m3 0h1m1 0h2m2 0h1m1 0h1m1 0h1m6 0h3m2 0h1m1 0h1m2 0h1m1 0h1m4 0h1m7 0h1m1 0h2m1 0h1m3 0h4m1 0h1m4 0h1m3 0h2m1 0h1m2 0h1m2 0h1m2 0h1m1 0h2m1 0h1m3 0h1m1 0h2m1 0h1m1 0h1m2 0h1m1 0h1m1 0h1m5 0h1m1 0h2m2 0h1m1 0h3m1 0h1m1 0h1m5 0h2m2 0h3m1 0h1m3 0h2M4 25.5h2m1 0h3m1 0h1m1 0h1m2 0h1m1 0h1m2 0h2m1 0h1m1 0h1m1 0h1m1 0h1m2 0h1m1 0h1m1 0h1m1 0h1m1 0h2m1 0h1m3 0h2m3 0h2m1 0h1m1 0h1m2 0h2m1 0h2m1 0h2m1 0h2m1 0h1m3 0h1m1 0h4m6 0h1m1 0h1m2 0h1m2 0h1m1 0h2m3 0h1m1 0h1m4 0h1m1 0h1m1 0h3m1 0h1m1 0h4m1 0h1m2 0h1m1 0h1m2 0h3m3 0h1m1 0h1m1 0h2m1 0h1m1 0h2m1 0h2m2 0h3m3 0h2m1 0h2m1 0h1M4 26.5h8m3 0h5m2 0h2m4 0h4m2 0h1m1 0h2m2 0h1m1 0h2m1 0h2m2 0h4m2 0h1m2 0h1m1 0h2m1 0h2m2 0h4m1 0h1m4 0h1m1 0h6m2 0h1m1 0h1m3 0h1m1 0h1m2 0h3m1 0h3m2 0h1m1 0h2m1 0h1m3 0h2m2 0h1m1 0h1m2 0h1m1 0h1m1 0h1m2 0h1m1 0h1m1 0h1m1 0h2m1 0h2m2 0h1m1 0h2m2 0h1m1 0h2m4 0h2m2 0h2m2 0h3m2 0h1M6 27.5h1m5 0h6m1 0h2m3 0h1m2 0h1m1 0h1m1 0h2m1 0h1m1 0h1m1 0h1m1 0h2m1 0h1m1 0h2m2 0h1m1 0h2m5 0h1m1 0h1m2 0h1m2 0h2m3 0h1m2 0h5m2 0h1m3 0h1m3 0h1m2 0h1m3 0h2m3 0h1m3 0h4m3 0h1m1 0h1m3 0h1m2 0h1m1 0h1m2 0h1m1 0h1m2 0h1m3 0h2m2 0h2m1 0h2m1 0h1m1 0h3m1 0h4m2 0h1m3 0h1m6 0h1m2 0h2M4 28.5h1m1 0h5m3 0h3m1 0h1m1 0h1m1 0h3m1 0h1m1 0h1m1 0h2m3 0h1m3 0h1m2 0h1m1 0h4m2 0h5m1 0h1m2 0h1m1 0h1m3 0h1m1 0h4m2 0h1m1 0h3m4 0h1m3 0h3m2 0h1m1 0h3m4 0h2m4 0h1m4 0h1m2 0h2m1 0h2m1 0h2m6 0h6m1 0h1m1 0h2m2 0h1m1 0h1m2 0h1m1 0h1m2 0h1m4 0h4m2 0h2m2 0h1m2 0h2m1 0h1M6 29.5h1m1 0h2m5 0h1m1 0h1m5 0h1m1 0h1m2 0h1m1 0h1m1 0h1m1 0h1m1 0h3m3 0h1m5 0h2m2 0h1m2 0h2m1 0h1m3 0h1m1 0h3m3 0h6m1 0h1m1 0h6m2 0h3m4 0h1m2 0h1m3 0h1m3 0h2m2 0h1m3 0h1m2 0h2m1 0h1m2 0h1m1 0h1m1 0h2m5 0h2m1 0h1m3 0h1m3 0h2m1 0h1m2 0h4m1 0h2m2 0h1m1 0h1m2 0h1m1 0h1m2 0h3M4 30.5h1m3 0h1m1 0h1m1 0h1m3 0h2m1 0h1m2 0h3m4 0h3m3 0h2m3 0h1m8 0h1m1 0h1m3 0h1m1 0h4m1 0h4m2 0h1m1 0h1m1 0h2m1 0h1m1 0h1m2 0h1m1 0h1m1 0h3m1 0h1m1 0h1m1 0h1m2 0h1m1 0h2m1 0h1m1 0h1m1 0h1m2 0h2m1 0h1m1 0h2m1 0h4m1 0h1m1 0h1m3 0h3m1 0h1m1 0h2m2 0h4m1 0h1m1 0h1m3 0h4m2 0h1m4 0h1m1 0h2m1 0h3m3 0h1m2 0h1M4 31.5h2m1 0h3m1 0h1m5 0h4m1 0h4m3 0h2m1 0h4m2 0h1m6 0h2m2 0h1m5 0h1m1 0h5m1 0h2m1 0h2m6 0h1m1 0h1m1 0h1m2 0h3m1 0h1m4 0h3m2 0h2m1 0h2m1 0h2m1 0h2m1 0h2m1 0h3m1 0h2m1 0h2m2 0h1m1 0h2m4 0h2m4 0h1m1 0h6m2 0h1m3 0h1m2 0h3m1 0h2m1 0h2m4 0h1m2 0h1m2 0h2M4 32.5h2m1 0h2m1 0h2m1 0h2m1 0h2m1 0h6m1 0h1m8 0h2m1 0h3m1 0h1m1 0h1m4 0h3m1 0h2m1 0h1m4 0h1m3 0h3m1 0h1m1 0h3m5 0h2m1 0h3m1 0h4m1 0h1m2 0h1m2 0h1m2 0h1m1 0h1m3 0h1m5 0h1m2 0h2m1 0h3m7 0h3m1 0h2m11 0h3m2 0h1m6 0h3m2 0h2m5 0h2m1 0h1M4 33.5h2m2 0h1m3 0h2m2 0h1m1 0h1m1 0h1m4 0h1m6 0h2m2 0h1m1 0h1m2 0h8m1 0h1m1 0h3m1 0h1m1 0h2m2 0h1m1 0h2m2 0h1m1 0h1m1 0h1m1 0h1m5 0h1m5 0h1m4 0h2m1 0h1m1 0h2m1 0h1m5 0h3m1 0h1m1 0h1m1 0h3m1 0h1m3 0h4m1 0h2m3 0h1m2 0h1m1 0h1m2 0h6m2 0h1m1 0h1m1 0h3m2 0h1m1 0h2m5 0h2m1 0h3M4 34.5h1m1 0h1m1 0h6m2 0h1m1 0h4m2 0h1m1 0h1m2 0h10m1 0h1m2 0h1m2 0h1m2 0h1m1 0h2m4 0h8m3 0h1m1 0h4m2 0h1m2 0h4m1 0h1m1 0h5m2 0h1m1 0h2m1 0h5m1 0h2m3 0h2m1 0h5m1 0h2m1 0h2m1 0h1m2 0h1m1 0h2m4 0h9m4 0h1m2 0h1m2 0h1m2 0h2m1 0h1m1 0h7m1 0h1m1 0h1M4 35.5h3m1 0h1m3 0h1m1 0h1m1 0h1m3 0h1m3 0h1m1 0h3m1 0h1m1 0h1m1 0h1m3 0h1m2 0h1m4 0h1m1 0h2m2 0h2m1 0h1m2 0h1m1 0h1m3 0h4m1 0h1m1 0h1m1 0h3m2 0h1m4 0h1m1 0h2m3 0h1m1 0h1m3 0h2m1 0h1m4 0h2m1 0h4m1 0h1m3 0h5m2 0h1m1 0h2m1 0h1m1 0h2m4 0h3m3 0h2m1 0h1m1 0h3m4 0h3m3 0h1m3 0h1m3 0h1m2 0h2M4 36.5h1m2 0h2m1 0h1m1 0h3m1 0h2m2 0h1m5 0h2m1 0h1m4 0h1m1 0h1m1 0h1m1 0h1m1 0h3m5 0h4m2 0h3m1 0h1m1 0h1m1 0h5m1 0h2m2 0h1m3 0h3m1 0h1m2 0h2m1 0h1m1 0h2m1 0h3m2 0h1m1 0h4m1 0h3m4 0h1m1 0h1m1 0h1m1 0h1m1 0h2m1 0h1m1 0h1m1 0h5m1 0h1m4 0h1m1 0h1m1 0h1m1 0h3m4 0h2m4 0h3m1 0h2m1 0h1m1 0h1m1 0h1m1 0h1M4 37.5h1m1 0h1m1 0h1m3 0h2m1 0h2m1 0h1m4 0h3m4 0h2m2 0h1m3 0h1m2 0h1m1 0h2m3 0h2m4 0h1m1 0h1m1 0h3m3 0h1m2 0h1m1 0h1m1 0h1m1 0h1m1 0h1m4 0h1m2 0h2m1 0h1m3 0h2m2 0h1m1 0h1m3 0h2m3 0h3m1 0h1m2 0h1m3 0h2m3 0h7m3 0h1m1 0h2m1 0h1m1 0h1m3 0h1m1 0h2m5 0h3m1 0h3m3 0h4m3 0h1m1 0h2M4 38.5h1m1 0h9m1 0h3m3 0h3m5 0h1m2 0h6m1 0h1m2 0h1m2 0h1m5 0h1m4 0h8m2 0h2m1 0h1m1 0h2m6 0h1m1 0h1m1 0h1m1 0h5m1 0h1m2 0h10m2 0h1m2 0h7m1 0h1m3 0h1m1 0h3m1 0h2m4 0h1m1 0h7m2 0h4m1 0h1m9 0h1m1 0h9m1 0h1M4 39.5h3m1 0h1m3 0h1m1 0h3m2 0h2m1 0h1m2 0h1m2 0h2m3 0h1m2 0h2m1 0h2m4 0h3m1 0h1m1 0h2m4 0h2m1 0h2m2 0h4m6 0h3m1 0h2m1 0h1m1 0h1m1 0h4m1 0h1m1 0h1m1 0h6m1 0h2m1 0h2m1 0h7m1 0h1m1 0h1m7 0h2m2 0h2m1 0h3m1 0h1m1 0h1m2 0h3m1 0h1m2 0h2m3 0h2m2 0h1m5 0h1m8 0h1M4 40.5h2m1 0h1m2 0h2m3 0h2m5 0h4m1 0h1m3 0h1m2 0h1m2 0h1m2 0h3m1 0h1m4 0h2m2 0h3m1 0h1m1 0h1m3 0h2m2 0h1m2 0h3m1 0h1m1 0h1m1 0h1m2 0h1m5 0h3m1 0h1m3 0h1m3 0h2m2 0h1m6 0h3m1 0h1m3 0h2m3 0h1m1 0h1m1 0h4m1 0h1m2 0h1m1 0h1m2 0h5m1 0h2m2 0h1m6 0h2m1 0h1m1 0h1m2 0h4m1 0h2M5 41.5h5m1 0h3m2 0h2m1 0h3m1 0h5m1 0h2m1 0h3m1 0h1m1 0h2m1 0h4m1 0h3m1 0h1m2 0h4m1 0h2m1 0h1m3 0h1m7 0h3m4 0h1m1 0h4m1 0h5m2 0h3m2 0h1m6 0h1m6 0h2m4 0h1m1 0h2m1 0h1m1 0h2m1 0h1m1 0h1m1 0h2m1 0h1m3 0h2m1 0h2m1 0h1m2 0h4m1 0h1m1 0h2m3 0h2m3 0h1m2 0h2M4 42.5h3m1 0h6m1 0h1m3 0h3m1 0h3m2 0h1m2 0h3m1 0h1m4 0h1m1 0h2m1 0h2m2 0h1m2 0h2m3 0h8m3 0h3m1 0h2m5 0h4m1 0h1m7 0h2m1 0h4m1 0h1m1 0h3m2 0h1m2 0h3m1 0h1m2 0h1m1 0h1m2 0h1m3 0h2m1 0h1m3 0h4m1 0h3m1 0h1m2 0h1m1 0h2m1 0h1m2 0h1m3 0h1m2 0h1m2 0h5m3 0h2M5 43.5h4m3 0h4m3 0h2m1 0h1m1 0h4m1 0h1m6 0h2m2 0h2m4 0h1m2 0h1m1 0h2m4 0h2m4 0h2m1 0h2m5 0h2m1 0h1m1 0h2m3 0h1m1 0h4m1 0h1m1 0h6m3 0h5m1 0h3m1 0h3m2 0h1m1 0h2m3 0h1m1 0h1m5 0h1m3 0h1m2 0h1m2 0h3m3 0h1m1 0h1m2 0h1m1 0h2m7 0h1m1 0h1m1 0h3M10 44.5h1m1 0h3m4 0h1m3 0h2m3 0h3m2 0h1m3 0h3m2 0h4m1 0h2m1 0h1m1 0h1m1 0h1m4 0h3m1 0h5m2 0h2m1 0h3m3 0h2m3 0h1m2 0h1m6 0h2m3 0h3m5 0h1m3 0h1m2 0h1m3 0h1m1 0h2m3 0h1m1 0h4m1 0h2m3 0h2m3 0h1m1 0h2m2 0h2m5 0h1m1 0h2m1 0h3m1 0h2m2 0h3M4 45.5h6m2 0h2m5 0h2m2 0h2m1 0h2m1 0h2m2 0h1m2 0h1m1 0h2m1 0h3m3 0h1m2 0h1m2 0h1m1 0h1m2 0h2m1 0h1m4 0h2m5 0h1m1 0h3m1 0h1m1 0h5m2 0h1m3 0h1m1 0h4m3 0h1m1 0h2m1 0h2m1 0h1m2 0h1m2 0h1m1 0h1m4 0h3m1 0h1m3 0h1m2 0h2m1 0h2m2 0h1m2 0h1m3 0h3m2 0h1m4 0h1m1 0h1m4 0h2m1 0h1m1 0h1m1 0h1M5 46.5h1m4 0h1m4 0h1m1 0h1m1 0h1m2 0h2m2 0h1m1 0h2m1 0h2m1 0h1m5 0h1m1 0h1m3 0h2m2 0h1m1 0h1m1 0h1m1 0h4m1 0h4m2 0h2m1 0h4m1 0h1m3 0h2m1 0h1m1 0h1m3 0h2m1 0h2m4 0h3m2 0h1m1 0h1m2 0h1m1 0h2m1 0h2m1 0h1m1 0h3m2 0h1m2 0h2m1 0h1m1 0h1m4 0h2m2 0h3m1 0h1m1 0h5m5 0h1m4 0h2m1 0h2m1 0h5m1 0h1M8 47.5h2m1 0h1m3 0h2m1 0h1m3 0h2m1 0h1m1 0h1m3 0h1m1 0h1m1 0h2m3 0h1m5 0h1m1 0h2m1 0h3m1 0h2m1 0h1m2 0h2m3 0h2m1 0h1m3 0h5m5 0h1m1 0h1m1 0h1m1 0h1m1 0h3m2 0h1m1 0h1m2 0h5m1 0h5m3 0h2m1 0h1m1 0h2m1 0h1m1 0h1m1 0h1m1 0h2m1 0h1m1 0h1m3 0h2m2 0h4m2 0h1m2 0h4m2 0h1m1 0h2m2 0h2m2 0h1m1 0h1m2 0h1M5 48.5h1m2 0h1m1 0h1m1 0h6m3 0h3m8 0h4m1 0h1m3 0h2m1 0h2m4 0h1m1 0h1m1 0h1m1 0h1m2 0h2m2 0h1m1 0h2m3 0h1m2 0h1m2 0h2m1 0h4m1 0h3m4 0h1m2 0h1m3 0h1m1 0h1m2 0h1m5 0h1m1 0h2m1 0h1m3 0h3m6 0h2m1 0h3m2 0h4m3 0h7m1 0h1m1 0h1m1 0h2m2 0h1m1 0h1m1 0h9M4 49.5h1m6 0h3m5 0h2m1 0h3m1 0h2m1 0h1m1 0h1m2 0h1m3 0h1m2 0h1m1 0h3m2 0h1m1 0h2m4 0h1m1 0h2m1 0h1m1 0h2m2 0h9m1 0h3m1 0h5m2 0h1m5 0h1m1 0h2m2 0h2m1 0h1m1 0h3m5 0h1m1 0h1m1 0h1m1 0h1m2 0h1m1 0h1m1 0h1m2 0h1m3 0h5m1 0h3m1 0h4m2 0h1m1 0h2m3 0h2m1 0h1m10 0h2M4 50.5h4m2 0h3m2 0h1m1 0h1m2 0h2m3 0h5m1 0h1m1 0h5m2 0h1m4 0h2m2 0h1m2 0h2m5 0h2m1 0h1m1 0h2m1 0h2m1 0h4m3 0h1m1 0h1m2 0h1m1 0h1m2 0h1m3 0h1m1 0h1m4 0h1m3 0h1m2 0h1m1 0h2m3 0h1m1 0h1m1 0h2m5 0h1m2 0h1m1 0h1m5 0h3m1 0h2m1 0h3m4 0h1m4 0h2m3 0h1m1 0h2m1 0h1m1 0h2m2 0h1m1 0h2M5 51.5h1m1 0h2m3 0h1m1 0h2m1 0h1m3 0h1m2 0h1m1 0h2m2 0h1m3 0h4m2 0h1m2 0h1m2 0h2m4 0h1m5 0h1m2 0h1m1 0h3m7 0h2m1 0h1m1 0h1m1 0h1m4 0h1m1 0h2m1 0h10m3 0h4m1 0h1m3 0h1m2 0h2m1 0h1m4 0h1m1 0h1m2 0h1m1 0h4m1 0h2m6 0h1m7 0h1m1 0h2m1 0h2m1 0h2m6 0h2m2 0h2M4 52.5h3m1 0h1m1 0h4m2 0h1m2 0h2m1 0h1m1 0h2m1 0h4m3 0h1m7 0h1m1 0h1m2 0h1m2 0h4m5 0h2m3 0h2m3 0h1m2 0h1m1 0h1m3 0h5m2 0h3m1 0h3m2 0h1m5 0h1m5 0h1m2 0h1m1 0h2m1 0h2m2 0h1m1 0h1m2 0h1m1 0h1m1 0h2m1 0h3m5 0h2m2 0h2m3 0h2m1 0h3m2 0h1m2 0h2m1 0h5m2 0h2m1 0h2M6 53.5h1m4 0h2m1 0h5m2 0h1m4 0h2m1 0h1m4 0h4m3 0h4m1 0h5m2 0h2m1 0h2m1 0h1m1 0h1m6 0h1m1 0h1m2 0h2m1 0h2m2 0h4m1 0h1m2 0h1m3 0h1m1 0h1m4 0h3m4 0h1m1 0h2m3 0h2m1 0h2m4 0h1m1 0h1m1 0h1m6 0h2m1 0h3m1 0h1m2 0h4m3 0h3m2 0h4m2 0h1m2 0h1m1 0h1m2 0h3M4 54.5h3m1 0h1m1 0h5m4 0h2m1 0h3m1 0h1m1 0h1m4 0h1m2 0h1m2 0h3m3 0h2m3 0h1m1 0h1m6 0h4m1 0h1m3 0h1m1 0h3m6 0h4m1 0h1m3 0h1m6 0h4m1 0h3m4 0h4m7 0h2m2 0h3m1 0h2m2 0h2m1 0h1m1 0h2m1 0h6m2 0h1m1 0h2m1 0h1m2 0h2m4 0h1m2 0h5m4 0h1M4 55.5h4m6 0h2m3 0h2m2 0h1m1 0h1m1 0h1m2 0h1m4 0h6m5 0h1m2 0h1m1 0h3m3 0h2m3 0h3m1 0h2m1 0h1m1 0h1m1 0h2m1 0h1m1 0h2m1 0h1m3 0h3m1 0h2m1 0h6m3 0h2m1 0h1m3 0h1m3 0h2m1 0h3m1 0h1m1 0h1m1 0h1m1 0h1m1 0h6m3 0h1m4 0h1m3 0h1m1 0h3m1 0h1m1 0h3m1 0h1m2 0h2m1 0h1m1 0h2m4 0h2M4 56.5h1m1 0h2m2 0h3m1 0h4m1 0h1m2 0h1m2 0h2m1 0h1m1 0h4m1 0h2m1 0h7m2 0h2m1 0h3m1 0h3m3 0h4m1 0h3m1 0h1m1 0h1m4 0h7m3 0h1m2 0h2m2 0h1m3 0h5m1 0h1m1 0h1m5 0h1m2 0h2m1 0h4m6 0h2m1 0h4m3 0h1m4 0h5m3 0h11m1 0h2m1 0h6m1 0h1M4 57.5h6m2 0h5m1 0h3m1 0h1m2 0h1m1 0h1m1 0h1m4 0h2m1 0h1m1 0h1m1 0h5m2 0h1m1 0h2m3 0h5m8 0h1m9 0h2m1 0h1m1 0h1m1 0h1m1 0h2m2 0h1m2 0h1m4 0h1m4 0h3m1 0h2m2 0h1m1 0h2m6 0h3m1 0h1m7 0h1m1 0h2m2 0h1m3 0h1m1 0h2m2 0h3m3 0h1m1 0h1m2 0h6M4 58.5h1m3 0h1m1 0h1m6 0h4m1 0h4m1 0h2m5 0h1m1 0h1m1 0h1m1 0h1m5 0h1m3 0h1m1 0h4m2 0h5m1 0h2m1 0h6m4 0h1m1 0h2m1 0h1m1 0h1m2 0h2m3 0h1m2 0h11m1 0h4m2 0h1m1 0h3m5 0h2m1 0h3m2 0h1m2 0h9m5 0h2m3 0h1m3 0h1m1 0h3m1 0h1m1 0h2m2 0h4M4 59.5h2m3 0h1m1 0h2m1 0h2m5 0h3m4 0h3m1 0h2m1 0h1m1 0h1m1 0h1m1 0h1m4 0h4m2 0h1m4 0h2m1 0h1m1 0h1m2 0h3m1 0h1m4 0h1m1 0h4m1 0h1m4 0h2m1 0h6m2 0h2m2 0h2m1 0h7m2 0h1m1 0h2m1 0h4m3 0h1m1 0h1m1 0h1m1 0h1m1 0h1m4 0h2m1 0h5m1 0h3m1 0h5m1 0h1m2 0h1m2 0h3m1 0h3m1 0h1M4 60.5h1m1 0h8m1 0h3m2 0h4m2 0h2m1 0h2m3 0h5m2 0h2m1 0h2m4 0h2m2 0h1m1 0h1m2 0h6m3 0h1m1 0h1m2 0h1m3 0h1m1 0h1m1 0h2m3 0h6m2 0h2m2 0h4m3 0h1m5 0h11m1 0h1m4 0h1m1 0h4m4 0h6m2 0h2m2 0h3m2 0h1m2 0h2m2 0h1m1 0h9M5 61.5h1m1 0h2m3 0h2m1 0h9m2 0h3m2 0h4m3 0h1m2 0h8m1 0h1m2 0h1m1 0h4m1 0h1m3 0h1m1 0h1m2 0h1m1 0h1m4 0h1m1 0h1m1 0h2m2 0h3m3 0h1m1 0h4m3 0h1m6 0h2m4 0h1m3 0h1m1 0h1m2 0h4m1 0h1m2 0h1m1 0h1m2 0h5m3 0h3m1 0h1m2 0h3m1 0h1m2 0h2m3 0h1m2 0h1m3 0h2M6 62.5h3m1 0h1m1 0h1m1 0h3m2 0h2m1 0h1m1 0h2m1 0h1m1 0h1m2 0h3m1 0h1m1 0h1m1 0h1m2 0h1m1 0h3m1 0h1m2 0h2m1 0h1m4 0h1m1 0h1m1 0h1m3 0h3m1 0h2m1 0h1m1 0h1m2 0h1m1 0h1m1 0h3m1 0h1m1 0h1m2 0h1m1 0h4m2 0h2m5 0h3m1 0h1m1 0h1m1 0h1m1 0h1m1 0h2m1 0h2m6 0h1m2 0h1m2 0h2m1 0h1m1 0h1m4 0h2m5 0h1m3 0h1m1 0h1m3 0h1m1 0h1m1 0h1m1 0h1m1 0h1M4 63.5h1m1 0h1m1 0h1m3 0h2m1 0h1m1 0h2m4 0h1m4 0h1m4 0h2m3 0h2m3 0h1m2 0h2m9 0h2m1 0h1m3 0h4m8 0h1m1 0h2m1 0h1m3 0h2m3 0h5m1 0h1m1 0h1m2 0h1m2 0h3m1 0h2m2 0h1m3 0h1m5 0h1m1 0h1m1 0h3m1 0h1m2 0h1m1 0h1m1 0h2m3 0h1m2 0h1m2 0h1m5 0h2m1 0h1m1 0h1m3 0h2m3 0h2m1 0h2M7 64.5h13m1 0h2m4 0h1m3 0h2m1 0h5m1 0h3m2 0h1m1 0h1m1 0h2m1 0h3m4 0h6m2 0h2m4 0h1m2 0h2m1 0h1m1 0h1m1 0h1m1 0h6m3 0h1m5 0h1m2 0h1m1 0h2m3 0h1m1 0h5m1 0h1m1 0h2m5 0h1m2 0h1m1 0h2m1 0h1m1 0h15m1 0h1m1 0h1m1 0h4m1 0h9M5 65.5h3m4 0h2m1 0h1m2 0h3m1 0h4m2 0h3m1 0h3m1 0h1m5 0h4m2 0h2m1 0h1m1 0h2m1 0h4m3 0h1m6 0h1m1 0h2m1 0h1m1 0h2m1 0h1m1 0h3m1 0h2m1 0h1m4 0h2m3 0h2m3 0h1m1 0h2m1 0h1m2 0h4m3 0h1m2 0h5m2 0h1m1 0h1m2 0h1m1 0h1m2 0h1m2 0h1m1 0h3m2 0h1m1 0h2m1 0h1m1 0h3m2 0h3m1 0h1m2 0h3M6 66.5h1m1 0h1m1 0h1m1 0h1m3 0h4m3 0h1m3 0h9m1 0h7m2 0h1m5 0h1m1 0h2m1 0h3m1 0h1m1 0h1m3 0h2m1 0h4m1 0h1m3 0h4m2 0h1m2 0h1m3 0h1m2 0h1m2 0h1m1 0h1m1 0h1m1 0h1m3 0h1m1 0h1m3 0h1m2 0h1m1 0h4m1 0h4m2 0h1m1 0h2m2 0h2m1 0h1m1 0h1m1 0h1m2 0h4m5 0h1m2 0h3m3 0h1m1 0h1m4 0h2M4 67.5h3m2 0h1m2 0h1m1 0h1m1 0h1m1 0h1m2 0h2m2 0h1m1 0h1m5 0h1m2 0h2m5 0h1m1 0h3m1 0h1m1 0h2m2 0h1m2 0h2m2 0h1m1 0h1m1 0h1m2 0h1m3 0h2m1 0h1m1 0h1m4 0h6m3 0h1m2 0h5m2 0h3m1 0h1m1 0h1m1 0h1m1 0h2m1 0h4m1 0h1m4 0h1m2 0h3m7 0h3m7 0h2m1 0h2m1 0h1m5 0h2m1 0h5m1 0h1M4 68.5h2m2 0h4m2 0h1m3 0h1m1 0h3m1 0h4m9 0h1m1 0h1m1 0h2m3 0h2m4 0h1m1 0h1m1 0h1m5 0h5m4 0h2m1 0h1m1 0h2m1 0h1m2 0h1m1 0h2m2 0h4m1 0h3m1 0h1m2 0h3m2 0h3m1 0h1m1 0h1m4 0h3m1 0h2m3 0h1m1 0h2m1 0h1m1 0h2m1 0h1m1 0h2m2 0h1m1 0h6m3 0h2m1 0h5m3 0h1m4 0h1m1 0h2M4 69.5h3m6 0h3m1 0h3m2 0h1m1 0h3m1 0h1m6 0h1m1 0h1m1 0h2m2 0h3m2 0h1m1 0h2m1 0h4m1 0h5m4 0h4m1 0h4m7 0h5m2 0h1m2 0h2m2 0h1m2 0h1m2 0h1m2 0h2m1 0h1m1 0h1m2 0h2m5 0h2m1 0h1m1 0h2m1 0h1m1 0h1m1 0h2m1 0h1m4 0h4m2 0h1m2 0h3m8 0h1m4 0h1m1 0h1m1 0h1M5 70.5h2m1 0h3m1 0h3m2 0h3m1 0h4m1 0h2m3 0h1m8 0h1m1 0h2m2 0h1m2 0h2m1 0h1m1 0h2m1 0h2m1 0h1m1 0h1m4 0h4m1 0h1m4 0h1m2 0h1m1 0h1m1 0h3m1 0h1m2 0h1m3 0h5m1 0h2m1 0h2m1 0h2m1 0h2m1 0h1m5 0h1m1 0h1m1 0h7m1 0h1m1 0h2m1 0h1m8 0h1m2 0h1m2 0h1m1 0h3m4 0h2m1 0h2m1 0h2m2 0h1m1 0h1M4 71.5h2m3 0h1m4 0h2m1 0h3m1 0h1m1 0h4m1 0h5m1 0h2m1 0h4m2 0h5m4 0h2m4 0h4m2 0h4m1 0h1m3 0h2m1 0h3m2 0h1m4 0h1m1 0h1m2 0h3m2 0h1m1 0h2m2 0h4m2 0h2m2 0h1m4 0h2m1 0h1m1 0h1m1 0h1m4 0h1m1 0h1m1 0h1m1 0h1m1 0h5m1 0h1m3 0h2m5 0h2m3 0h1m3 0h2m1 0h1m2 0h1m1 0h2M8 72.5h1m1 0h1m2 0h4m1 0h6m1 0h1m1 0h1m1 0h2m3 0h2m2 0h1m1 0h1m1 0h1m1 0h1m2 0h1m2 0h2m1 0h3m4 0h2m2 0h1m4 0h1m1 0h1m2 0h6m4 0h1m2 0h1m1 0h2m6 0h2m1 0h2m1 0h1m2 0h1m3 0h1m1 0h1m2 0h4m1 0h1m2 0h1m1 0h1m1 0h7m1 0h1m1 0h1m5 0h5m2 0h4m1 0h2m1 0h1m1 0h4m3 0h4m1 0h1M6 73.5h2m1 0h1m1 0h11m3 0h1m1 0h2m4 0h5m3 0h9m1 0h1m2 0h1m1 0h4m2 0h1m1 0h3m2 0h2m1 0h3m3 0h2m2 0h1m2 0h3m3 0h2m1 0h1m1 0h1m3 0h2m1 0h1m1 0h2m1 0h2m2 0h1m1 0h1m2 0h1m4 0h1m1 0h4m1 0h1m4 0h3m2 0h1m2 0h3m1 0h1m2 0h1m2 0h2m2 0h1m1 0h1m2 0h1m1 0h1m1 0h1m2 0h2M10 74.5h1m3 0h1m4 0h1m1 0h2m1 0h2m3 0h6m1 0h1m1 0h3m4 0h2m2 0h1m2 0h2m1 0h1m1 0h4m2 0h1m1 0h1m1 0h2m1 0h1m1 0h2m1 0h1m3 0h6m3 0h2m2 0h1m1 0h6m2 0h2m1 0h1m3 0h2m1 0h2m1 0h1m1 0h3m1 0h2m1 0h1m4 0h1m1 0h1m1 0h1m1 0h1m1 0h1m2 0h2m6 0h1m2 0h1m2 0h2m1 0h2m1 0h2m1 0h2m1 0h1m4 0h2M6 75.5h1m2 0h1m1 0h2m1 0h1m2 0h2m5 0h1m1 0h1m2 0h3m1 0h1m3 0h3m3 0h1m2 0h1m2 0h1m2 0h2m1 0h1m2 0h1m1 0h1m1 0h3m1 0h2m5 0h2m1 0h4m7 0h1m3 0h3m2 0h1m2 0h1m3 0h2m3 0h5m2 0h1m1 0h3m1 0h1m1 0h1m1 0h1m4 0h1m1 0h1m1 0h1m1 0h3m1 0h2m2 0h1m2 0h2m5 0h1m5 0h2m1 0h2m1 0h2m1 0h1m1 0h1M4 76.5h1m1 0h1m1 0h7m3 0h2m7 0h1m2 0h1m4 0h4m2 0h4m4 0h3m2 0h1m1 0h1m2 0h2m3 0h1m2 0h1m2 0h1m1 0h5m1 0h1m2 0h3m6 0h2m1 0h1m4 0h1m1 0h2m1 0h1m2 0h2m2 0h1m1 0h1m3 0h3m1 0h2m1 0h1m3 0h1m2 0h1m1 0h1m2 0h1m1 0h3m1 0h2m2 0h1m2 0h6m4 0h5m2 0h1m2 0h1m1 0h2M4 77.5h3m2 0h1m3 0h2m1 0h1m2 0h2m3 0h2m4 0h1m1 0h3m4 0h1m1 0h1m1 0h4m1 0h1m1 0h1m2 0h4m9 0h5m2 0h1m2 0h4m1 0h2m1 0h3m2 0h2m2 0h3m1 0h1m1 0h3m1 0h1m1 0h2m1 0h1m2 0h1m1 0h3m1 0h1m3 0h2m1 0h3m2 0h1m1 0h1m1 0h2m1 0h2m1 0h1m2 0h1m1 0h2m1 0h1m1 0h1m1 0h4m1 0h4m1 0h1m1 0h1m2 0h1m1 0h4M5 78.5h2m1 0h4m2 0h2m1 0h8m3 0h2m3 0h1m2 0h2m2 0h3m2 0h3m1 0h1m2 0h1m2 0h1m1 0h2m4 0h1m3 0h2m1 0h4m1 0h1m4 0h1m1 0h3m2 0h2m2 0h2m4 0h3m2 0h1m6 0h2m2 0h1m1 0h1m1 0h3m2 0h1m1 0h1m1 0h2m1 0h1m1 0h1m3 0h3m2 0h1m4 0h1m2 0h2m1 0h1m3 0h1m1 0h5m1 0h1m1 0h3m4 0h1M5 79.5h2m1 0h2m6 0h1m1 0h2m2 0h2m1 0h2m2 0h1m3 0h1m2 0h2m2 0h1m2 0h5m3 0h1m1 0h1m1 0h1m2 0h5m1 0h1m1 0h2m1 0h2m2 0h2m1 0h1m1 0h2m3 0h1m2 0h3m3 0h5m2 0h1m2 0h3m1 0h4m2 0h1m5 0h4m1 0h1m6 0h2m3 0h2m2 0h2m2 0h1m1 0h1m2 0h1m3 0h1m1 0h2m1 0h1m2 0h1m2 0h7m1 0h2M5 80.5h4m1 0h1m1 0h1m2 0h2m2 0h4m1 0h5m1 0h1m2 0h2m1 0h4m2 0h1m1 0h1m2 0h1m2 0h3m1 0h2m3 0h2m1 0h1m1 0h3m2 0h2m2 0h1m1 0h3m1 0h1m1 0h1m7 0h2m2 0h3m1 0h1m2 0h1m2 0h1m1 0h1m5 0h3m2 0h1m1 0h1m1 0h1m6 0h2m1 0h3m2 0h1m1 0h3m2 0h1m1 0h4m2 0h1m4 0h5m1 0h2m2 0h2m1 0h1m1 0h1M4 81.5h1m4 0h1m1 0h2m5 0h2m7 0h2m3 0h1m5 0h2m1 0h2m1 0h1m1 0h2m1 0h2m2 0h1m1 0h2m1 0h1m2 0h1m1 0h1m4 0h5m1 0h2m1 0h1m2 0h3m1 0h4m3 0h1m1 0h3m4 0h1m2 0h1m2 0h4m1 0h1m2 0h1m4 0h1m1 0h1m1 0h2m1 0h1m2 0h1m4 0h4m1 0h1m1 0h5m3 0h1m1 0h2m2 0h2m6 0h1m1 0h2m1 0h2m1 0h2M4 82.5h2m2 0h4m1 0h1m2 0h1m2 0h4m3 0h1m1 0h7m1 0h1m1 0h1m1 0h1m4 0h3m4 0h1m2 0h1m2 0h1m9 0h3m1 0h1m2 0h3m2 0h1m1 0h1m3 0h1m1 0h3m2 0h1m1 0h1m2 0h2m2 0h2m1 0h1m1 0h5m2 0h1m4 0h1m2 0h1m1 0h2m4 0h7m2 0h1m1 0h1m6 0h1m5 0h1m4 0h2m1 0h6m2 0h3M4 83.5h1m1 0h1m2 0h1m2 0h4m1 0h1m1 0h2m1 0h1m1 0h2m1 0h1m3 0h1m3 0h1m1 0h2m1 0h2m1 0h2m1 0h1m2 0h1m2 0h2m1 0h1m2 0h2m1 0h2m1 0h3m2 0h1m4 0h3m1 0h2m1 0h1m1 0h1m1 0h4m2 0h3m1 0h2m1 0h1m5 0h2m2 0h1m1 0h1m1 0h2m4 0h1m1 0h1m1 0h1m1 0h1m2 0h2m1 0h3m1 0h1m1 0h4m1 0h1m1 0h1m1 0h1m2 0h1m3 0h3m1 0h2m2 0h2m1 0h4m1 0h2M4 84.5h2m1 0h1m1 0h3m3 0h5m4 0h2m1 0h1m1 0h1m1 0h2m2 0h2m1 0h2m4 0h7m2 0h3m4 0h4m2 0h4m3 0h1m1 0h2m2 0h1m2 0h1m5 0h1m1 0h2m1 0h2m2 0h1m2 0h4m2 0h2m1 0h3m3 0h4m1 0h1m2 0h1m3 0h2m1 0h3m5 0h1m6 0h3m1 0h2m7 0h3m1 0h2m2 0h1m1 0h1m1 0h1M5 85.5h1m1 0h1m1 0h1m1 0h1m1 0h4m3 0h1m1 0h1m2 0h4m10 0h1m2 0h1m3 0h5m2 0h2m1 0h1m2 0h1m4 0h1m4 0h1m1 0h1m1 0h2m2 0h1m2 0h1m2 0h1m1 0h3m1 0h1m1 0h1m2 0h2m1 0h1m1 0h2m2 0h1m2 0h2m3 0h2m1 0h1m4 0h1m2 0h1m1 0h4m5 0h1m1 0h5m1 0h2m1 0h2m1 0h1m1 0h2m1 0h2m1 0h3m3 0h4m1 0h3m1 0h1M5 86.5h2m1 0h13m1 0h2m1 0h2m1 0h1m4 0h9m1 0h1m1 0h1m5 0h3m1 0h1m2 0h1m1 0h5m3 0h3m1 0h2m1 0h1m3 0h2m1 0h10m3 0h1m2 0h3m1 0h1m1 0h2m1 0h1m1 0h2m1 0h5m7 0h2m1 0h3m2 0h1m5 0h5m3 0h1m1 0h1m4 0h2m2 0h2m1 0h2m1 0h7m1 0h2M5 87.5h4m3 0h3m3 0h4m2 0h1m1 0h3m2 0h1m1 0h2m3 0h3m4 0h4m2 0h3m2 0h1m1 0h1m1 0h1m3 0h1m1 0h1m7 0h6m1 0h1m4 0h1m3 0h4m1 0h5m1 0h2m1 0h3m1 0h1m1 0h3m3 0h2m2 0h1m2 0h1m1 0h1m1 0h1m1 0h7m1 0h2m3 0h1m2 0h1m2 0h1m4 0h2m2 0h1m3 0h1m1 0h2m3 0h2m1 0h2M7 88.5h2m1 0h1m1 0h4m2 0h2m1 0h1m6 0h1m3 0h3m1 0h1m1 0h2m2 0h2m4 0h3m4 0h2m2 0h2m1 0h1m1 0h4m5 0h7m1 0h1m1 0h1m1 0h2m1 0h1m1 0h1m3 0h1m2 0h1m2 0h1m2 0h1m8 0h1m1 0h1m1 0h5m4 0h1m2 0h1m1 0h1m2 0h1m3 0h2m1 0h1m1 0h2m1 0h3m2 0h1m4 0h4m1 0h1m1 0h1m1 0h1m1 0h1m1 0h1m1 0h1M5 89.5h1m1 0h2m3 0h1m1 0h1m2 0h2m1 0h1m1 0h1m1 0h2m1 0h2m1 0h1m3 0h1m3 0h2m4 0h2m1 0h3m6 0h1m1 0h3m3 0h1m1 0h2m1 0h2m1 0h1m3 0h1m2 0h2m1 0h3m1 0h1m3 0h1m1 0h3m4 0h1m3 0h1m2 0h2m4 0h1m3 0h1m5 0h1m1 0h4m1 0h1m1 0h1m1 0h4m1 0h1m3 0h1m1 0h1m1 0h2m1 0h5m1 0h4m2 0h1m2 0h1m3 0h2M5 90.5h1m2 0h5m1 0h1m5 0h1m1 0h1m3 0h1m1 0h2m1 0h1m2 0h7m1 0h1m2 0h2m2 0h2m1 0h2m1 0h1m4 0h6m4 0h1m1 0h2m3 0h1m1 0h2m1 0h1m1 0h8m1 0h2m1 0h7m1 0h1m4 0h1m2 0h5m1 0h1m2 0h1m1 0h3m1 0h1m2 0h1m5 0h7m5 0h1m2 0h1m5 0h1m1 0h3m2 0h5m1 0h1m1 0h1M4 91.5h4m3 0h2m1 0h3m5 0h2m1 0h2m2 0h2m7 0h1m1 0h1m4 0h3m4 0h1m2 0h2m1 0h2m1 0h1m1 0h1m3 0h1m6 0h1m1 0h3m2 0h1m6 0h1m2 0h3m2 0h2m2 0h1m3 0h2m1 0h2m2 0h1m2 0h1m1 0h3m1 0h1m1 0h1m2 0h1m2 0h1m1 0h1m4 0h1m3 0h1m3 0h1m1 0h1m1 0h2m2 0h4m1 0h1m6 0h1m2 0h2m1 0h1m2 0h1M4 92.5h2m1 0h1m2 0h2m1 0h2m2 0h1m1 0h1m1 0h1m4 0h1m3 0h1m5 0h1m1 0h1m1 0h3m2 0h1m2 0h2m1 0h2m1 0h2m1 0h1m4 0h1m1 0h1m5 0h2m1 0h1m1 0h1m2 0h2m2 0h2m5 0h1m1 0h1m7 0h2m4 0h2m3 0h2m1 0h1m4 0h4m5 0h4m1 0h1m5 0h3m2 0h2m1 0h1m1 0h4m3 0h1m2 0h1m1 0h1m1 0h3m1 0h5m1 0h1M4 93.5h1m6 0h2m1 0h1m2 0h1m3 0h8m1 0h2m4 0h2m1 0h1m2 0h4m1 0h2m4 0h5m2 0h3m1 0h2m1 0h1m1 0h1m1 0h2m7 0h3m3 0h1m1 0h1m4 0h2m1 0h1m2 0h3m4 0h4m1 0h1m3 0h2m5 0h1m1 0h4m3 0h1m2 0h4m4 0h4m6 0h7m2 0h2m7 0h2M4 94.5h1m2 0h4m1 0h1m3 0h2m1 0h2m3 0h1m2 0h1m3 0h1m1 0h1m2 0h1m3 0h1m2 0h1m3 0h1m3 0h2m2 0h1m2 0h1m2 0h1m1 0h1m4 0h1m1 0h1m1 0h2m6 0h1m1 0h3m5 0h3m2 0h2m1 0h5m2 0h1m2 0h3m3 0h2m1 0h1m1 0h1m1 0h1m2 0h3m1 0h1m1 0h2m2 0h1m1 0h2m4 0h2m4 0h1m1 0h2m1 0h2m5 0h1m1 0h1m1 0h1m3 0h2m2 0h1M4 95.5h6m1 0h3m2 0h3m3 0h2m1 0h4m1 0h1m2 0h1m1 0h3m2 0h1m2 0h1m1 0h2m2 0h1m6 0h1m1 0h2m1 0h1m1 0h1m1 0h1m1 0h1m1 0h1m1 0h1m2 0h6m5 0h2m1 0h2m3 0h2m1 0h1m1 0h2m1 0h1m2 0h2m2 0h1m4 0h3m2 0h3m1 0h1m4 0h1m1 0h2m3 0h3m1 0h1m1 0h1m4 0h1m1 0h2m2 0h1m2 0h3m3 0h1m2 0h2m1 0h1m2 0h1M5 96.5h1m4 0h1m1 0h1m2 0h2m3 0h1m1 0h1m1 0h1m1 0h6m1 0h3m3 0h1m2 0h4m1 0h2m1 0h2m1 0h2m2 0h1m3 0h2m1 0h3m2 0h1m2 0h2m4 0h1m3 0h1m4 0h1m1 0h1m1 0h1m1 0h1m1 0h1m3 0h3m1 0h1m1 0h2m3 0h1m1 0h1m2 0h2m1 0h1m1 0h2m1 0h1m3 0h4m1 0h1m7 0h2m2 0h5m1 0h1m1 0h2m1 0h1m2 0h3m1 0h2m1 0h4m1 0h3M4 97.5h2m3 0h1m2 0h1m2 0h2m1 0h6m2 0h2m1 0h1m2 0h5m6 0h2m3 0h1m6 0h2m1 0h1m4 0h1m1 0h1m1 0h2m2 0h4m5 0h9m1 0h1m2 0h3m1 0h1m1 0h1m6 0h2m3 0h1m1 0h1m1 0h3m1 0h1m1 0h6m2 0h1m3 0h2m1 0h4m4 0h1m2 0h1m4 0h2m4 0h2m2 0h1m4 0h1m2 0h2M4 98.5h2m2 0h1m1 0h1m2 0h1m2 0h1m1 0h1m1 0h1m1 0h2m2 0h1m3 0h3m3 0h1m3 0h2m4 0h1m3 0h5m2 0h2m1 0h1m1 0h1m2 0h1m1 0h2m1 0h1m1 0h1m6 0h2m1 0h4m4 0h2m4 0h4m1 0h2m1 0h2m3 0h2m1 0h2m3 0h2m1 0h2m5 0h1m2 0h2m1 0h1m1 0h3m1 0h1m2 0h1m5 0h1m2 0h1m2 0h2m1 0h1m1 0h3m2 0h2m2 0h1m3 0h1M13 99.5h1m1 0h1m1 0h1m1 0h2m1 0h1m1 0h1m1 0h3m3 0h4m1 0h1m1 0h2m5 0h1m2 0h1m6 0h1m1 0h2m3 0h1m2 0h1m6 0h2m1 0h1m1 0h2m6 0h1m1 0h1m2 0h1m1 0h1m2 0h2m1 0h1m1 0h4m1 0h4m3 0h1m2 0h3m2 0h1m1 0h1m1 0h1m1 0h2m1 0h2m1 0h1m3 0h2m1 0h1m4 0h1m3 0h1m1 0h2m1 0h1m8 0h1m2 0h2m3 0h1M4 100.5h1m1 0h1m3 0h4m3 0h1m1 0h1m1 0h1m2 0h3m1 0h1m2 0h5m1 0h2m1 0h2m2 0h1m3 0h4m1 0h4m4 0h4m3 0h1m2 0h2m1 0h1m1 0h1m2 0h2m6 0h2m5 0h2m4 0h1m2 0h1m1 0h2m2 0h1m2 0h2m2 0h3m2 0h1m6 0h1m1 0h1m1 0h1m2 0h1m3 0h4m1 0h1m1 0h1m1 0h1m1 0h1m2 0h1m3 0h3m2 0h1m2 0h2m2 0h3M6 101.5h3m2 0h1m4 0h1m5 0h1m1 0h2m2 0h9m2 0h1m4 0h4m1 0h2m3 0h1m3 0h1m1 0h4m1 0h3m2 0h2m1 0h1m4 0h1m2 0h5m1 0h1m2 0h3m1 0h4m1 0h1m5 0h2m4 0h1m3 0h3m1 0h1m2 0h3m1 0h2m1 0h1m4 0h4m4 0h6m1 0h1m2 0h2m1 0h2m1 0h2m2 0h2m3 0h1m2 0h1m1 0h1M10 102.5h1m5 0h1m2 0h1m3 0h1m7 0h4m1 0h1m3 0h2m1 0h1m1 0h2m2 0h1m1 0h2m4 0h1m1 0h1m1 0h1m3 0h1m2 0h3m1 0h1m7 0h3m1 0h2m1 0h1m4 0h2m2 0h1m1 0h1m1 0h5m2 0h4m1 0h1m1 0h2m2 0h2m2 0h2m1 0h3m3 0h1m1 0h5m1 0h5m3 0h2m2 0h1m1 0h3m1 0h2m1 0h1m5 0h1m1 0h2m1 0h2M4 103.5h1m1 0h3m2 0h2m5 0h3m3 0h5m4 0h4m1 0h1m1 0h2m3 0h3m1 0h1m5 0h1m2 0h2m1 0h1m3 0h3m3 0h1m1 0h6m2 0h1m4 0h1m1 0h1m1 0h3m1 0h1m1 0h3m5 0h1m2 0h2m1 0h1m3 0h1m1 0h5m4 0h2m1 0h3m2 0h1m1 0h1m2 0h1m1 0h2m2 0h2m1 0h3m1 0h1m1 0h4m3 0h2m1 0h1m8 0h1M6 104.5h1m2 0h3m2 0h2m2 0h2m1 0h2m3 0h1m2 0h1m1 0h1m1 0h1m5 0h1m1 0h2m1 0h1m5 0h2m2 0h1m1 0h1m3 0h5m4 0h6m2 0h2m2 0h1m3 0h5m1 0h1m2 0h2m3 0h3m1 0h1m5 0h1m3 0h1m3 0h5m3 0h1m1 0h2m1 0h4m5 0h3m1 0h2m1 0h1m1 0h1m1 0h1m1 0h1m2 0h4m3 0h3m1 0h2m1 0h1m1 0h2M4 105.5h1m2 0h2m2 0h2m2 0h1m5 0h1m5 0h3m2 0h1m1 0h2m3 0h1m1 0h1m2 0h7m4 0h6m1 0h1m1 0h1m2 0h1m4 0h1m3 0h1m3 0h1m1 0h2m1 0h4m1 0h2m1 0h2m1 0h2m1 0h1m6 0h1m2 0h1m1 0h1m4 0h1m5 0h1m1 0h4m5 0h5m1 0h1m3 0h2m1 0h1m2 0h1m1 0h3m2 0h1m1 0h2m1 0h1m1 0h1m3 0h2m2 0h1M5 106.5h1m4 0h1m1 0h2m3 0h2m2 0h1m1 0h8m2 0h1m4 0h1m1 0h2m3 0h1m1 0h1m2 0h4m1 0h1m2 0h1m2 0h1m5 0h2m1 0h2m1 0h1m5 0h2m1 0h5m5 0h1m2 0h6m1 0h2m3 0h4m1 0h4m1 0h1m1 0h3m1 0h2m2 0h4m2 0h4m1 0h1m3 0h1m2 0h1m2 0h1m2 0h1m2 0h1m5 0h3m3 0h1m1 0h3m1 0h1M5 107.5h2m1 0h2m1 0h1m2 0h3m2 0h2m1 0h1m1 0h4m4 0h4m4 0h2m3 0h4m3 0h1m2 0h2m1 0h2m1 0h1m4 0h1m6 0h7m1 0h1m6 0h2m2 0h2m2 0h3m3 0h3m1 0h3m1 0h1m4 0h1m4 0h2m1 0h2m1 0h2m2 0h6m4 0h1m2 0h1m1 0h1m3 0h1m4 0h2m1 0h1m1 0h2m2 0h1m1 0h2m5 0h1M5 108.5h1m1 0h4m1 0h1m4 0h1m4 0h1m1 0h1m2 0h1m1 0h2m3 0h1m1 0h3m1 0h5m4 0h2m2 0h3m4 0h1m1 0h1m1 0h5m1 0h2m2 0h1m1 0h1m4 0h1m2 0h1m2 0h2m6 0h1m1 0h1m2 0h3m2 0h3m3 0h3m1 0h1m2 0h1m1 0h2m1 0h1m1 0h1m1 0h6m2 0h1m2 0h1m1 0h2m2 0h1m1 0h3m1 0h4m3 0h4m1 0h3m1 0h6M4 109.5h1m1 0h1m1 0h2m2 0h2m1 0h1m2 0h1m4 0h5m1 0h2m3 0h1m2 0h1m3 0h2m1 0h7m2 0h4m3 0h1m1 0h1m1 0h1m1 0h5m2 0h1m1 0h1m2 0h2m5 0h1m1 0h1m1 0h1m3 0h2m1 0h2m7 0h5m1 0h1m4 0h1m2 0h1m1 0h2m1 0h4m2 0h1m2 0h1m2 0h2m1 0h1m1 0h1m2 0h2m1 0h1m1 0h1m2 0h1m1 0h3m1 0h2m2 0h1m2 0h1m1 0h1m1 0h1M4 110.5h2m2 0h1m1 0h3m1 0h1m1 0h2m3 0h3m3 0h1m2 0h4m1 0h2m2 0h2m2 0h1m1 0h2m5 0h1m2 0h1m1 0h2m2 0h1m1 0h2m2 0h2m1 0h1m1 0h2m5 0h5m1 0h2m4 0h1m3 0h6m1 0h4m1 0h4m1 0h1m1 0h2m2 0h3m1 0h1m1 0h2m3 0h1m3 0h2m1 0h2m1 0h1m2 0h1m4 0h3m1 0h1m1 0h2m5 0h1m4 0h4m3 0h1M5 111.5h2m1 0h2m1 0h1m4 0h2m1 0h1m1 0h1m2 0h3m1 0h2m1 0h5m2 0h1m1 0h2m1 0h1m2 0h2m1 0h1m2 0h1m3 0h1m1 0h2m6 0h1m2 0h1m4 0h1m1 0h1m1 0h2m1 0h1m1 0h1m3 0h6m1 0h4m4 0h7m3 0h4m4 0h2m3 0h2m3 0h3m2 0h2m3 0h2m2 0h2m2 0h1m2 0h1m1 0h2m2 0h1m1 0h3m1 0h1m2 0h1m2 0h1m1 0h2M4 112.5h2m2 0h5m5 0h6m4 0h2m2 0h8m1 0h2m1 0h2m1 0h4m1 0h3m5 0h8m1 0h2m4 0h1m3 0h1m1 0h1m3 0h6m2 0h1m1 0h1m1 0h5m1 0h1m2 0h1m4 0h6m1 0h4m6 0h1m1 0h1m1 0h1m2 0h1m1 0h6m2 0h2m3 0h1m1 0h2m1 0h2m1 0h1m3 0h1m1 0h7m1 0h1M5 113.5h1m2 0h1m3 0h5m3 0h3m2 0h2m3 0h1m1 0h1m1 0h1m3 0h1m2 0h1m1 0h3m2 0h2m3 0h1m2 0h2m1 0h2m3 0h1m3 0h3m3 0h1m2 0h2m2 0h4m1 0h1m3 0h1m3 0h1m2 0h1m1 0h1m4 0h1m1 0h2m1 0h1m2 0h1m3 0h2m1 0h1m2 0h1m1 0h1m1 0h1m4 0h1m1 0h4m1 0h1m3 0h1m1 0h3m2 0h2m1 0h1m1 0h1m1 0h1m1 0h1m2 0h2m1 0h1m3 0h1m1 0h2M5 114.5h1m2 0h1m1 0h1m1 0h1m1 0h1m5 0h3m1 0h2m1 0h4m2 0h2m1 0h1m1 0h1m1 0h2m1 0h1m1 0h3m1 0h5m1 0h1m2 0h1m1 0h1m1 0h1m1 0h2m2 0h1m1 0h1m1 0h2m1 0h1m1 0h1m1 0h2m1 0h1m1 0h1m1 0h1m1 0h1m1 0h2m6 0h1m3 0h3m4 0h4m1 0h1m1 0h1m2 0h2m2 0h2m1 0h1m2 0h7m1 0h2m1 0h1m1 0h2m2 0h3m2 0h1m1 0h2m2 0h1m1 0h2m3 0h1m1 0h1m1 0h1m1 0h1m1 0h1M6 115.5h3m3 0h3m1 0h1m1 0h2m2 0h3m1 0h2m1 0h1m3 0h2m3 0h3m3 0h1m1 0h1m2 0h1m1 0h2m4 0h2m1 0h1m3 0h1m2 0h1m3 0h1m1 0h2m1 0h1m1 0h1m2 0h1m4 0h1m3 0h1m1 0h2m1 0h2m1 0h1m2 0h1m2 0h2m2 0h1m1 0h1m1 0h1m3 0h1m1 0h1m2 0h4m2 0h2m1 0h1m1 0h2m1 0h4m3 0h1m5 0h1m2 0h4m5 0h2m2 0h1m3 0h1m3 0h1M5 116.5h8m1 0h2m3 0h3m1 0h1m1 0h1m3 0h1m2 0h9m1 0h2m3 0h2m1 0h2m2 0h3m2 0h6m1 0h2m1 0h1m3 0h1m1 0h1m1 0h2m1 0h2m2 0h8m1 0h3m1 0h1m1 0h2m2 0h1m1 0h1m6 0h5m1 0h1m1 0h2m3 0h1m1 0h7m4 0h9m1 0h1m1 0h2m1 0h1m2 0h3m3 0h1m1 0h5m1 0h2M4 117.5h2m2 0h1m3 0h1m4 0h3m1 0h1m1 0h1m1 0h4m2 0h2m2 0h5m1 0h2m1 0h2m1 0h12m1 0h1m1 0h1m1 0h1m3 0h1m1 0h5m1 0h1m1 0h1m6 0h1m2 0h2m1 0h1m2 0h2m1 0h1m1 0h1m5 0h3m1 0h1m1 0h2m3 0h1m4 0h4m5 0h1m2 0h2m1 0h1m2 0h2m3 0h4m1 0h1m1 0h3m1 0h9m1 0h2m4 0h1M5 118.5h1m3 0h3m1 0h2m2 0h1m1 0h1m1 0h2m1 0h2m2 0h1m1 0h6m2 0h1m1 0h1m1 0h2m1 0h1m6 0h2m1 0h1m2 0h1m3 0h4m1 0h4m1 0h2m1 0h1m1 0h1m2 0h2m3 0h6m2 0h1m4 0h5m5 0h3m4 0h3m6 0h1m1 0h2m1 0h1m3 0h1m1 0h1m1 0h1m1 0h1m1 0h1m3 0h1m2 0h2m3 0h1m4 0h3m4 0h1m1 0h1m1 0h1m2 0h1M5 119.5h3m1 0h1m2 0h1m1 0h2m1 0h1m1 0h1m1 0h1m2 0h1m6 0h1m1 0h3m1 0h2m4 0h2m1 0h2m1 0h1m1 0h2m3 0h3m2 0h1m2 0h4m3 0h1m1 0h2m1 0h1m1 0h2m2 0h2m1 0h3m1 0h2m1 0h1m1 0h1m1 0h2m6 0h1m1 0h6m1 0h3m2 0h1m1 0h1m4 0h2m1 0h1m3 0h1m3 0h1m3 0h4m3 0h3m3 0h2m2 0h1m1 0h1m1 0h1m2 0h5m3 0h1M4 120.5h2m1 0h6m1 0h2m2 0h3m2 0h2m1 0h2m1 0h2m1 0h1m1 0h4m1 0h1m2 0h1m4 0h4m1 0h3m4 0h1m3 0h1m1 0h1m4 0h1m3 0h1m2 0h2m2 0h1m5 0h2m1 0h2m1 0h2m4 0h2m2 0h1m5 0h1m1 0h3m1 0h1m2 0h3m6 0h7m1 0h1m1 0h4m2 0h1m1 0h3m1 0h3m1 0h1m1 0h2m1 0h1m2 0h4m1 0h2m1 0h3M4 121.5h1m1 0h1m2 0h1m1 0h1m3 0h1m1 0h1m3 0h1m1 0h3m3 0h1m3 0h3m5 0h1m2 0h1m1 0h4m1 0h1m1 0h1m1 0h3m2 0h1m1 0h1m1 0h2m1 0h1m1 0h5m1 0h1m4 0h3m1 0h1m3 0h2m1 0h1m2 0h1m1 0h2m2 0h1m5 0h1m1 0h2m2 0h1m4 0h1m4 0h1m1 0h4m3 0h1m2 0h1m1 0h5m1 0h1m1 0h1m1 0h1m1 0h6m1 0h2m4 0h3m2 0h2m3 0h1M4 122.5h4m2 0h3m2 0h1m5 0h1m5 0h1m2 0h2m2 0h1m1 0h1m3 0h1m2 0h1m2 0h1m4 0h5m6 0h1m1 0h1m3 0h1m1 0h1m1 0h2m1 0h3m1 0h12m1 0h2m2 0h4m1 0h4m4 0h3m4 0h1m1 0h2m1 0h5m2 0h1m4 0h2m1 0h1m2 0h1m1 0h2m4 0h5m6 0h1m1 0h2m1 0h1m3 0h1m1 0h1m1 0h2M4 123.5h2m2 0h1m2 0h2m1 0h2m2 0h1m1 0h2m3 0h1m1 0h6m1 0h2m2 0h1m1 0h1m2 0h1m1 0h2m1 0h2m7 0h1m6 0h1m1 0h2m1 0h1m1 0h1m2 0h1m1 0h1m1 0h2m8 0h1m2 0h2m3 0h1m1 0h2m1 0h1m1 0h4m1 0h3m2 0h3m3 0h3m8 0h2m3 0h1m1 0h1m2 0h1m1 0h1m5 0h2m1 0h1m2 0h1m5 0h2m1 0h7m1 0h2M4 124.5h4m2 0h1m3 0h1m3 0h2m2 0h1m2 0h1m2 0h2m1 0h1m2 0h4m1 0h5m1 0h1m2 0h1m1 0h2m2 0h1m1 0h1m1 0h1m2 0h1m1 0h1m3 0h1m1 0h1m2 0h2m1 0h2m1 0h1m3 0h2m3 0h1m3 0h1m2 0h1m3 0h3m2 0h1m1 0h3m2 0h1m1 0h1m1 0h2m2 0h3m4 0h1m1 0h2m1 0h1m1 0h2m1 0h1m2 0h2m4 0h1m2 0h1m3 0h2m2 0h4m1 0h2m1 0h5m1 0h3M4 125.5h1m1 0h1m2 0h1m3 0h1m1 0h1m1 0h1m1 0h1m1 0h1m1 0h2m1 0h1m1 0h1m2 0h1m2 0h1m1 0h2m1 0h1m2 0h1m2 0h4m1 0h1m4 0h4m1 0h1m1 0h3m1 0h1m1 0h1m1 0h1m5 0h2m16 0h3m4 0h1m4 0h1m1 0h1m4 0h1m2 0h1m4 0h1m2 0h1m1 0h1m6 0h2m1 0h3m1 0h1m2 0h3m3 0h4m1 0h6m1 0h2m3 0h1m1 0h1M4 126.5h1m2 0h2m1 0h1m3 0h1m1 0h2m6 0h1m2 0h5m1 0h2m2 0h6m2 0h2m2 0h1m1 0h2m5 0h1m2 0h2m1 0h1m3 0h1m1 0h1m2 0h1m6 0h3m1 0h1m2 0h1m1 0h3m3 0h1m1 0h3m5 0h1m1 0h4m1 0h1m3 0h2m3 0h1m2 0h2m1 0h1m3 0h1m3 0h1m1 0h1m3 0h2m2 0h1m2 0h1m11 0h1m1 0h1m2 0h1m1 0h3m2 0h1M4 127.5h2m1 0h3m1 0h1m1 0h1m5 0h1m3 0h1m1 0h1m1 0h2m2 0h1m2 0h3m3 0h2m1 0h1m2 0h1m2 0h1m2 0h1m2 0h4m2 0h1m1 0h1m1 0h2m2 0h1m1 0h1m1 0h4m1 0h2m5 0h2m2 0h4m1 0h1m1 0h1m1 0h1m2 0h5m2 0h1m2 0h1m2 0h2m2 0h1m4 0h2m2 0h5m1 0h1m3 0h1m1 0h7m1 0h3m1 0h1m1 0h3m1 0h1m2 0h1m2 0h3m1 0h2m2 0h1M4 128.5h1m2 0h2m1 0h1m1 0h2m2 0h3m1 0h3m1 0h3m1 0h1m8 0h1m1 0h1m2 0h2m3 0h2m1 0h1m3 0h1m4 0h1m1 0h1m1 0h1m1 0h3m2 0h1m1 0h1m1 0h2m2 0h1m3 0h2m2 0h3m2 0h1m1 0h1m1 0h1m1 0h7m3 0h1m1 0h1m2 0h2m4 0h1m1 0h1m2 0h1m1 0h1m2 0h1m1 0h3m2 0h1m1 0h1m2 0h3m1 0h1m1 0h1m3 0h3m2 0h5m2 0h1m1 0h1m2 0h1m1 0h4M4 129.5h1m1 0h2m4 0h2m2 0h1m2 0h2m2 0h1m1 0h1m2 0h1m2 0h1m4 0h2m6 0h3m1 0h2m4 0h2m1 0h1m1 0h4m1 0h1m2 0h3m1 0h4m2 0h1m1 0h6m2 0h3m1 0h1m2 0h1m4 0h1m1 0h1m1 0h1m1 0h2m2 0h1m2 0h1m4 0h1m1 0h1m1 0h2m1 0h3m4 0h1m1 0h2m1 0h2m1 0h4m1 0h1m1 0h1m4 0h3m1 0h2m9 0h2m2 0h1M5 130.5h1m1 0h2m1 0h1m1 0h3m1 0h1m2 0h4m4 0h4m1 0h3m1 0h3m1 0h3m3 0h1m2 0h5m7 0h2m1 0h1m3 0h1m1 0h4m5 0h2m1 0h1m1 0h3m1 0h1m1 0h1m2 0h1m1 0h1m1 0h2m1 0h3m2 0h1m1 0h2m1 0h2m1 0h1m1 0h2m1 0h4m1 0h5m2 0h2m2 0h1m2 0h2m2 0h1m4 0h3m6 0h1m3 0h3m1 0h2m4 0h1m2 0h1M5 131.5h3m1 0h1m3 0h1m1 0h2m1 0h1m1 0h4m1 0h1m1 0h2m2 0h3m2 0h1m1 0h4m1 0h1m2 0h4m2 0h1m4 0h2m1 0h8m5 0h7m3 0h1m8 0h2m1 0h2m1 0h1m2 0h1m2 0h2m2 0h3m3 0h2m1 0h3m1 0h2m4 0h4m2 0h1m1 0h2m2 0h2m1 0h1m2 0h1m1 0h1m1 0h1m3 0h2m2 0h1m5 0h4m1 0h1M5 132.5h1m1 0h4m1 0h2m2 0h1m1 0h1m1 0h1m2 0h3m3 0h1m1 0h3m1 0h6m1 0h1m1 0h2m1 0h1m1 0h3m2 0h1m2 0h1m5 0h1m1 0h4m1 0h1m2 0h1m2 0h4m1 0h1m2 0h2m2 0h4m2 0h2m1 0h1m1 0h3m1 0h1m3 0h1m1 0h1m2 0h1m1 0h2m2 0h1m1 0h2m3 0h1m2 0h1m1 0h3m5 0h2m5 0h3m7 0h2m1 0h2m2 0h6m1 0h1m2 0h1M4 133.5h1m1 0h1m1 0h2m5 0h1m1 0h1m1 0h8m2 0h1m1 0h1m1 0h2m3 0h2m1 0h2m1 0h1m1 0h4m1 0h1m1 0h1m5 0h4m1 0h2m1 0h1m1 0h7m2 0h1m3 0h4m8 0h1m1 0h1m2 0h3m3 0h2m4 0h3m1 0h2m5 0h3m1 0h1m4 0h1m2 0h1m1 0h9m2 0h2m1 0h3m2 0h2m2 0h1m1 0h3m2 0h6M4 134.5h3m1 0h5m1 0h3m1 0h1m1 0h1m1 0h1m1 0h2m1 0h1m2 0h2m6 0h4m1 0h1m1 0h2m2 0h1m1 0h3m1 0h1m1 0h2m4 0h2m2 0h2m1 0h1m1 0h1m4 0h2m1 0h3m1 0h1m1 0h2m1 0h5m1 0h4m1 0h1m1 0h1m1 0h1m2 0h4m1 0h1m2 0h3m1 0h1m1 0h4m1 0h3m4 0h4m5 0h1m2 0h1m1 0h3m1 0h1m1 0h3m2 0h1m1 0h1m2 0h1m3 0h1m1 0h1m2 0h1M4 135.5h3m4 0h3m5 0h1m1 0h3m2 0h1m1 0h1m1 0h1m1 0h1m1 0h2m3 0h3m4 0h2m1 0h1m2 0h2m3 0h3m2 0h2m1 0h3m6 0h1m1 0h1m8 0h1m3 0h2m1 0h1m1 0h4m3 0h4m2 0h4m3 0h2m1 0h2m2 0h4m3 0h5m2 0h2m2 0h1m2 0h2m1 0h1m1 0h1m3 0h2m1 0h2m1 0h1m1 0h1m4 0h2m1 0h2M5 136.5h2m1 0h4m1 0h2m3 0h1m2 0h2m1 0h1m1 0h9m4 0h1m3 0h3m2 0h1m1 0h2m2 0h2m1 0h1m2 0h2m7 0h1m1 0h1m1 0h4m1 0h1m5 0h8m1 0h2m2 0h6m2 0h1m4 0h1m1 0h5m1 0h1m1 0h2m2 0h1m2 0h2m1 0h1m1 0h1m4 0h4m2 0h1m1 0h2m1 0h1m1 0h1m1 0h1m2 0h1m1 0h2m2 0h6m3 0h2M5 137.5h5m7 0h1m2 0h1m1 0h1m7 0h1m2 0h2m3 0h1m3 0h4m3 0h3m1 0h3m4 0h1m1 0h7m1 0h1m6 0h1m1 0h1m1 0h5m1 0h3m1 0h2m1 0h1m2 0h1m1 0h1m3 0h1m1 0h3m1 0h1m1 0h1m2 0h2m1 0h1m3 0h4m1 0h1m2 0h1m3 0h9m2 0h2m4 0h4m1 0h3m3 0h3m1 0h2m2 0h1M8 138.5h9m2 0h2m1 0h1m2 0h2m2 0h1m4 0h5m1 0h1m2 0h1m2 0h2m1 0h4m1 0h1m3 0h7m2 0h2m1 0h4m1 0h1m1 0h1m4 0h3m1 0h5m4 0h2m1 0h2m2 0h1m1 0h1m3 0h1m1 0h1m1 0h5m1 0h1m2 0h1m1 0h5m4 0h3m2 0h7m1 0h1m2 0h2m1 0h1m1 0h2m2 0h1m2 0h2m2 0h5m2 0h2M4 139.5h5m3 0h1m1 0h3m2 0h1m1 0h1m1 0h1m1 0h2m3 0h5m3 0h1m6 0h2m2 0h1m1 0h5m1 0h2m1 0h1m3 0h1m1 0h2m1 0h1m3 0h4m1 0h2m1 0h1m1 0h1m2 0h1m3 0h1m1 0h1m1 0h1m1 0h1m1 0h1m5 0h1m1 0h1m1 0h1m1 0h3m3 0h4m1 0h3m2 0h1m2 0h2m3 0h2m2 0h1m3 0h1m1 0h1m2 0h2m2 0h5m1 0h1m1 0h3m1 0h2m3 0h2m2 0h1M4 140.5h2m1 0h2m1 0h1m1 0h1m1 0h1m5 0h5m2 0h1m1 0h2m1 0h1m1 0h1m1 0h1m1 0h2m2 0h4m1 0h2m1 0h2m7 0h2m1 0h1m1 0h1m1 0h1m1 0h3m4 0h4m3 0h1m3 0h1m1 0h1m1 0h2m2 0h1m5 0h1m1 0h1m3 0h1m2 0h1m2 0h1m1 0h1m1 0h1m1 0h4m5 0h2m1 0h4m1 0h1m2 0h1m1 0h1m1 0h4m3 0h3m5 0h2m2 0h1m2 0h1m1 0h1m1 0h1m1 0h3M4 141.5h3m1 0h1m3 0h1m1 0h3m1 0h2m1 0h1m1 0h2m1 0h3m1 0h1m1 0h3m3 0h2m3 0h3m2 0h2m1 0h1m1 0h1m1 0h4m1 0h1m3 0h2m2 0h1m1 0h3m2 0h2m2 0h1m4 0h3m3 0h1m2 0h2m1 0h1m2 0h3m2 0h3m2 0h1m1 0h2m3 0h2m3 0h2m1 0h1m1 0h1m6 0h2m1 0h3m3 0h4m3 0h4m2 0h2m1 0h2m4 0h1m3 0h1m2 0h1M4 142.5h3m1 0h6m1 0h1m1 0h4m1 0h1m1 0h1m1 0h1m1 0h4m1 0h6m1 0h2m4 0h1m2 0h2m1 0h2m1 0h1m1 0h2m1 0h5m2 0h2m1 0h1m1 0h1m4 0h1m3 0h11m1 0h1m3 0h3m2 0h2m4 0h1m1 0h1m1 0h6m3 0h1m3 0h2m1 0h1m2 0h1m1 0h1m1 0h1m1 0h6m2 0h2m1 0h1m1 0h1m2 0h1m3 0h1m1 0h3m1 0h7m2 0h1M4 143.5h2m1 0h3m3 0h1m1 0h3m3 0h2m4 0h2m5 0h1m1 0h5m2 0h2m1 0h1m2 0h1m2 0h2m4 0h2m1 0h1m3 0h3m3 0h1m1 0h2m1 0h3m2 0h3m1 0h3m1 0h5m2 0h4m1 0h2m1 0h3m1 0h1m1 0h1m2 0h1m2 0h5m1 0h3m2 0h1m1 0h2m1 0h2m3 0h1m4 0h2m1 0h1m2 0h2m1 0h1m2 0h3m2 0h2m3 0h1m1 0h3m2 0h2M6 144.5h1m3 0h1m6 0h1m2 0h1m3 0h1m1 0h4m2 0h1m3 0h1m4 0h2m1 0h2m2 0h4m2 0h1m1 0h1m2 0h1m3 0h1m2 0h1m3 0h1m1 0h1m3 0h1m1 0h1m1 0h2m5 0h1m1 0h3m7 0h2m1 0h2m2 0h1m4 0h2m1 0h2m1 0h2m1 0h1m4 0h1m1 0h2m1 0h1m1 0h2m3 0h3m2 0h2m1 0h2m2 0h1m3 0h1m1 0h2m1 0h3m1 0h2m2 0h3m1 0h2M5 145.5h1m6 0h1m1 0h1m2 0h6m1 0h6m4 0h2m1 0h1m4 0h1m1 0h1m1 0h2m1 0h1m4 0h2m1 0h1m3 0h1m1 0h1m1 0h1m1 0h3m1 0h3m3 0h8m2 0h2m4 0h3m4 0h2m4 0h1m2 0h1m3 0h1m2 0h1m4 0h4m1 0h1m4 0h1m2 0h1m1 0h1m3 0h2m1 0h2m1 0h2m1 0h1m2 0h3m1 0h1m5 0h6m1 0h3M9 146.5h2m2 0h1m2 0h2m1 0h1m1 0h1m4 0h1m3 0h2m1 0h1m2 0h1m3 0h2m1 0h1m1 0h3m1 0h2m1 0h1m4 0h1m1 0h6m3 0h6m1 0h1m1 0h1m1 0h1m1 0h2m1 0h5m2 0h2m5 0h2m1 0h4m2 0h2m1 0h4m1 0h2m2 0h1m1 0h2m2 0h2m1 0h1m4 0h1m1 0h8m5 0h4m1 0h3m1 0h2m1 0h1m3 0h5m2 0h2M7 147.5h2m3 0h2m4 0h1m1 0h2m3 0h2m1 0h5m2 0h3m2 0h1m2 0h1m2 0h1m2 0h1m1 0h2m2 0h1m1 0h4m1 0h1m1 0h1m1 0h2m5 0h2m1 0h1m1 0h1m3 0h1m2 0h1m1 0h4m1 0h1m1 0h1m1 0h1m2 0h1m1 0h4m1 0h3m4 0h1m1 0h4m4 0h1m4 0h1m1 0h4m2 0h1m1 0h1m3 0h1m2 0h1m1 0h1m1 0h1m4 0h1m1 0h2m1 0h1m3 0h3m1 0h2M7 148.5h4m1 0h3m1 0h4m2 0h1m4 0h6m1 0h3m1 0h3m1 0h1m1 0h1m2 0h4m1 0h3m1 0h2m1 0h1m1 0h1m1 0h1m1 0h1m6 0h1m1 0h1m1 0h1m1 0h1m1 0h1m6 0h1m1 0h2m8 0h2m1 0h1m3 0h2m1 0h2m3 0h1m3 0h4m3 0h1m1 0h2m1 0h1m1 0h2m4 0h3m1 0h3m1 0h1m3 0h4m1 0h4m1 0h1m1 0h2m2 0h3m1 0h2M5 149.5h2m6 0h4m3 0h4m2 0h1m1 0h1m6 0h3m2 0h1m3 0h3m1 0h4m1 0h2m2 0h1m2 0h2m4 0h5m2 0h3m1 0h1m1 0h3m1 0h1m2 0h4m3 0h2m1 0h2m1 0h3m3 0h2m4 0h1m1 0h2m1 0h1m5 0h5m2 0h1m1 0h1m1 0h2m1 0h1m1 0h2m4 0h4m3 0h2m1 0h1m1 0h1m1 0h2m3 0h2m4 0h2M7 150.5h1m1 0h2m1 0h2m3 0h1m1 0h1m2 0h5m1 0h2m1 0h1m2 0h3m2 0h2m1 0h1m2 0h3m4 0h2m3 0h1m2 0h1m1 0h3m2 0h6m1 0h1m2 0h1m1 0h6m11 0h3m2 0h2m3 0h6m5 0h1m4 0h1m4 0h1m1 0h1m1 0h1m1 0h1m3 0h1m1 0h3m3 0h1m1 0h3m1 0h1m1 0h3m1 0h1m1 0h2m4 0h5m2 0h1M4 151.5h1m3 0h1m2 0h1m2 0h5m1 0h2m2 0h2m1 0h2m1 0h1m1 0h4m2 0h1m1 0h1m2 0h1m2 0h1m4 0h2m2 0h1m1 0h3m2 0h1m3 0h1m2 0h1m3 0h1m2 0h1m1 0h2m5 0h2m2 0h2m1 0h1m6 0h1m1 0h3m1 0h1m2 0h3m1 0h2m1 0h2m1 0h3m3 0h1m3 0h5m2 0h1m1 0h2m3 0h2m1 0h1m1 0h2m2 0h1m2 0h1m2 0h1m2 0h2m2 0h1m2 0h2m2 0h2M5 152.5h1m1 0h5m1 0h1m2 0h1m1 0h4m4 0h2m1 0h2m1 0h1m5 0h7m2 0h2m1 0h1m3 0h2m1 0h1m1 0h1m1 0h1m2 0h4m2 0h1m2 0h1m1 0h5m2 0h2m2 0h1m2 0h1m1 0h1m1 0h3m1 0h1m2 0h1m1 0h1m3 0h2m6 0h2m1 0h4m6 0h2m1 0h4m4 0h2m2 0h1m2 0h2m1 0h3m1 0h1m3 0h1m1 0h1m3 0h2m4 0h1m2 0h2M4 153.5h1m1 0h4m1 0h1m1 0h1m1 0h3m5 0h1m2 0h1m1 0h1m1 0h2m2 0h3m1 0h1m5 0h5m1 0h1m2 0h4m1 0h1m9 0h7m1 0h1m1 0h2m1 0h3m1 0h2m1 0h2m4 0h1m2 0h1m2 0h2m1 0h1m2 0h1m2 0h1m1 0h1m1 0h3m1 0h1m6 0h4m1 0h1m1 0h1m1 0h2m1 0h1m4 0h1m2 0h1m2 0h1m1 0h1m1 0h2m3 0h1m6 0h5m3 0h1M4 154.5h1m1 0h3m1 0h1m1 0h1m4 0h1m3 0h1m1 0h3m1 0h1m1 0h1m4 0h5m1 0h1m8 0h2m1 0h1m1 0h2m4 0h1m1 0h1m1 0h1m2 0h2m1 0h1m1 0h2m3 0h1m2 0h4m1 0h3m1 0h1m1 0h1m3 0h5m1 0h5m1 0h5m5 0h1m3 0h2m2 0h2m2 0h2m1 0h1m1 0h2m1 0h1m1 0h2m1 0h2m3 0h2m2 0h1m2 0h2m1 0h2m1 0h4m2 0h2m4 0h1M11 155.5h1m2 0h1m1 0h3m1 0h2m2 0h1m4 0h3m2 0h3m1 0h2m4 0h1m1 0h3m1 0h1m1 0h1m5 0h1m2 0h6m2 0h1m4 0h1m1 0h3m6 0h1m2 0h1m1 0h1m1 0h2m2 0h1m6 0h7m3 0h1m1 0h3m6 0h1m2 0h2m2 0h3m3 0h1m1 0h1m1 0h5m1 0h3m4 0h1m1 0h1m2 0h2m8 0h1m1 0h2M4 156.5h2m3 0h2m2 0h2m3 0h4m4 0h1m2 0h2m1 0h1m1 0h1m2 0h2m1 0h1m1 0h2m1 0h1m1 0h1m1 0h1m1 0h1m2 0h3m3 0h1m1 0h3m5 0h1m1 0h1m2 0h3m2 0h1m1 0h2m3 0h1m2 0h2m1 0h1m3 0h1m2 0h1m1 0h1m3 0h1m2 0h1m2 0h1m1 0h2m1 0h2m1 0h2m1 0h1m3 0h2m1 0h1m1 0h2m2 0h3m3 0h1m1 0h3m1 0h1m1 0h1m4 0h1m1 0h4m1 0h4m2 0h4M4 157.5h1m2 0h1m4 0h1m1 0h2m1 0h1m1 0h9m3 0h4m5 0h6m2 0h1m4 0h1m2 0h1m7 0h2m4 0h3m6 0h1m1 0h2m2 0h1m2 0h1m2 0h4m8 0h2m1 0h2m1 0h1m3 0h3m1 0h1m3 0h2m1 0h4m3 0h1m2 0h3m2 0h2m2 0h1m1 0h3m1 0h4m2 0h2m2 0h1m1 0h5m3 0h3M7 158.5h5m1 0h4m5 0h1m2 0h1m5 0h1m3 0h3m1 0h1m3 0h1m3 0h1m1 0h1m2 0h4m1 0h7m3 0h6m4 0h1m2 0h1m1 0h2m1 0h1m2 0h2m1 0h1m4 0h1m1 0h6m3 0h1m1 0h4m2 0h1m2 0h1m5 0h2m1 0h1m2 0h1m2 0h2m1 0h2m1 0h3m1 0h1m1 0h1m2 0h1m2 0h1m1 0h1m4 0h1m1 0h2m3 0h2m5 0h1M4 159.5h1m1 0h1m1 0h2m2 0h3m3 0h4m2 0h2m1 0h1m2 0h2m2 0h1m1 0h3m4 0h2m1 0h1m2 0h1m2 0h1m2 0h1m2 0h2m2 0h1m3 0h1m2 0h1m1 0h1m2 0h1m1 0h1m1 0h1m2 0h1m1 0h1m1 0h3m1 0h1m1 0h3m2 0h1m4 0h1m6 0h1m1 0h1m5 0h1m1 0h2m1 0h1m1 0h1m1 0h3m6 0h2m2 0h2m3 0h1m1 0h1m1 0h2m2 0h1m1 0h2m2 0h1m1 0h1m5 0h1m3 0h1m2 0h1M4 160.5h2m2 0h3m2 0h2m2 0h2m2 0h3m2 0h1m1 0h1m2 0h1m1 0h4m2 0h1m1 0h2m1 0h1m3 0h3m1 0h1m1 0h1m1 0h2m1 0h3m1 0h1m1 0h1m1 0h2m2 0h1m2 0h1m1 0h2m1 0h4m6 0h1m5 0h1m1 0h2m1 0h1m1 0h1m2 0h2m2 0h1m3 0h2m2 0h2m1 0h1m6 0h2m1 0h3m2 0h2m4 0h3m1 0h7m4 0h4m1 0h4m1 0h3m1 0h2M5 161.5h1m1 0h3m1 0h5m1 0h1m1 0h3m2 0h1m2 0h1m2 0h1m2 0h1m1 0h1m7 0h3m1 0h4m2 0h5m3 0h1m1 0h1m1 0h1m2 0h1m1 0h1m2 0h2m2 0h2m1 0h3m1 0h1m3 0h2m3 0h1m7 0h1m2 0h1m1 0h1m1 0h2m1 0h2m2 0h1m1 0h1m1 0h1m2 0h1m1 0h1m1 0h1m4 0h1m1 0h4m1 0h1m4 0h2m2 0h1m2 0h3m1 0h6m2 0h2m1 0h1M6 162.5h2m2 0h1m4 0h3m1 0h1m2 0h5m3 0h1m1 0h3m1 0h1m2 0h3m1 0h1m2 0h1m5 0h1m1 0h2m2 0h2m2 0h1m1 0h1m2 0h2m1 0h4m1 0h1m4 0h1m1 0h1m1 0h3m1 0h1m2 0h2m1 0h5m1 0h1m1 0h3m2 0h2m1 0h2m2 0h5m2 0h2m4 0h1m6 0h5m1 0h1m1 0h1m2 0h1m2 0h3m2 0h3m2 0h3m2 0h2m1 0h1m4 0h2M8 163.5h1m2 0h1m1 0h1m2 0h2m1 0h2m1 0h1m3 0h1m2 0h1m2 0h1m1 0h1m3 0h1m4 0h1m1 0h3m1 0h1m1 0h1m1 0h1m1 0h4m1 0h1m2 0h1m2 0h2m5 0h2m1 0h1m1 0h2m5 0h1m2 0h1m1 0h5m1 0h1m1 0h2m1 0h1m2 0h2m1 0h2m3 0h1m2 0h2m1 0h1m1 0h1m3 0h1m1 0h1m3 0h2m1 0h1m1 0h3m1 0h1m2 0h1m2 0h1m2 0h2m1 0h1m2 0h3m4 0h1m5 0h3m1 0h1M4 164.5h2m1 0h5m1 0h2m1 0h2m5 0h1m1 0h1m1 0h1m1 0h1m2 0h1m1 0h5m1 0h1m1 0h2m2 0h5m1 0h1m1 0h2m4 0h7m2 0h1m1 0h1m1 0h2m3 0h2m3 0h1m1 0h7m2 0h2m1 0h1m2 0h3m3 0h2m4 0h5m1 0h2m1 0h1m5 0h2m1 0h1m1 0h1m4 0h11m2 0h1m1 0h1m6 0h1m1 0h10m1 0h1M12 165.5h1m3 0h1m1 0h2m1 0h1m1 0h1m4 0h3m3 0h1m3 0h1m2 0h5m2 0h1m4 0h1m2 0h2m2 0h1m3 0h1m3 0h1m7 0h2m2 0h4m2 0h1m3 0h1m2 0h2m2 0h1m2 0h2m2 0h3m1 0h2m1 0h2m3 0h1m2 0h1m2 0h1m1 0h3m2 0h1m1 0h1m1 0h6m3 0h3m1 0h1m3 0h1m1 0h2m2 0h1m1 0h1m2 0h4m3 0h3M4 166.5h7m1 0h2m2 0h1m1 0h2m3 0h4m1 0h3m1 0h1m1 0h1m1 0h1m1 0h1m1 0h1m1 0h2m3 0h1m1 0h1m1 0h3m1 0h1m1 0h2m1 0h1m1 0h1m1 0h2m1 0h1m1 0h1m2 0h1m4 0h1m1 0h2m1 0h1m1 0h1m1 0h1m1 0h1m1 0h1m2 0h1m1 0h1m1 0h4m1 0h3m2 0h6m1 0h1m1 0h2m4 0h1m3 0h1m3 0h1m1 0h1m2 0h2m1 0h1m1 0h1m1 0h1m2 0h1m2 0h1m5 0h2m4 0h2m1 0h2m1 0h1m1 0h1m1 0h1m1 0h1M4 167.5h1m5 0h1m2 0h4m1 0h1m1 0h2m1 0h1m1 0h2m2 0h6m3 0h4m2 0h3m2 0h1m1 0h3m1 0h1m2 0h3m3 0h2m4 0h2m2 0h1m1 0h2m1 0h1m5 0h2m3 0h1m1 0h3m1 0h1m4 0h2m1 0h3m1 0h1m1 0h3m3 0h1m1 0h2m3 0h2m6 0h1m2 0h1m1 0h1m1 0h1m3 0h3m2 0h1m6 0h1m4 0h2m3 0h1m3 0h1M4 168.5h1m1 0h3m1 0h1m1 0h1m1 0h1m2 0h5m4 0h1m1 0h16m4 0h4m1 0h3m1 0h1m2 0h5m2 0h1m1 0h4m2 0h3m1 0h2m1 0h2m2 0h5m3 0h2m1 0h1m2 0h1m2 0h1m1 0h2m2 0h1m2 0h5m1 0h1m2 0h1m5 0h2m1 0h1m2 0h1m4 0h5m2 0h2m1 0h3m2 0h1m1 0h1m1 0h1m4 0h1m1 0h7m1 0h1M4 169.5h1m1 0h3m1 0h1m1 0h1m2 0h2m1 0h4m1 0h1m4 0h1m2 0h1m2 0h1m1 0h1m1 0h1m3 0h4m2 0h1m1 0h1m5 0h1m6 0h1m1 0h1m2 0h1m1 0h1m1 0h2m5 0h1m3 0h1m3 0h1m4 0h3m5 0h1m2 0h1m2 0h4m1 0h5m1 0h1m1 0h1m1 0h2m1 0h1m1 0h2m3 0h1m1 0h14m1 0h1m2 0h3m2 0h1m2 0h1m1 0h1m1 0h4m1 0h1m3 0h1M4 170.5h1m1 0h3m1 0h1m1 0h1m1 0h2m1 0h1m1 0h1m1 0h1m3 0h5m1 0h3m2 0h1m2 0h2m6 0h1m1 0h1m2 0h1m1 0h2m2 0h4m5 0h2m1 0h4m1 0h1m1 0h1m1 0h2m1 0h3m3 0h1m1 0h2m2 0h9m1 0h1m2 0h2m1 0h1m1 0h3m2 0h2m2 0h1m2 0h1m2 0h3m5 0h2m1 0h1m2 0h2m2 0h1m1 0h2m5 0h1m4 0h2m2 0h1m2 0h1m5 0h1M4 171.5h1m5 0h1m1 0h1m1 0h2m4 0h2m1 0h1m1 0h1m8 0h1m5 0h1m4 0h1m6 0h2m1 0h1m1 0h2m2 0h2m1 0h3m4 0h1m1 0h2m1 0h1m2 0h1m1 0h1m1 0h1m4 0h1m2 0h2m2 0h3m4 0h3m1 0h1m4 0h1m1 0h1m5 0h1m1 0h7m2 0h1m1 0h4m1 0h1m2 0h1m7 0h1m4 0h2m2 0h1m1 0h2m3 0h1m1 0h1m1 0h2m2 0h1M4 172.5h7m1 0h3m1 0h3m3 0h2m1 0h1m4 0h1m2 0h2m1 0h4m1 0h3m2 0h7m1 0h1m1 0h4m1 0h2m2 0h7m2 0h1m1 0h2m1 0h1m4 0h1m1 0h2m1 0h2m2 0h2m2 0h4m2 0h1m1 0h3m2 0h1m4 0h2m1 0h1m1 0h2m6 0h1m1 0h4m5 0h1m3 0h2m1 0h2m2 0h2m5 0h2m1 0h1m1 0h3m2 0h1m1 0h4"/></svg>
