<?xml version="1.0" encoding="utf-8"?><!DOCTYPE svg PUBLIC "-//W3C//DTD SVG 1.1//EN" "http://www.w3.org/Graphics/SVG/1.1/DTD/svg11.dtd"><svg xmlns="http://www.w3.org/2000/svg" viewBox="0 0 185 185" shape-rendering="crispEdges"><path fill="#ffffff" d="M0 0h185v185H0z"/><path stroke="#000000" d="M4 4.5h7m3 0h2m2 0h1m5 0h1m4 0h1m2 0h1m3 0h1m1 0h2m1 0h2m1 0h7m5 0h2m2 0h3m1 0h1m1 0h1m1 0h2m3 0h3m1 0h1m1 0h1m1 0h3m1 0h1m1 0h1m5 0h2m1 0h2m1 0h2m3 0h3m5 0h1m2 0h1m2 0h1m1 0h5m4 0h2m3 0h5m2 0h1m3 0h1m1 0h2m1 0h1m1 0h4m1 0h1m3 0h2m1 0h1m3 0h1m1 0h1m3 0h7M4 5.5h1m5 0h1m1 0h3m2 0h3m2 0h1m1 0h1m2 0h2m5 0h1m2 0h3m1 0h1m8 0h3m2 0h1m3 0h1m7 0h2m1 0h1m1 0h1m6 0h4m1 0h1m3 0h4m1 0h1m1 0h5m2 0h1m4 0h1m1 0h2m3 0h1m2 0h2m1 0h3m2 0h3m1 0h1m1 0h1m3 0h7m1 0h1m1 0h2m2 0h1m1 0h1m1 0h3m3 0h2m1 0h2m1 0h3m2 0h1m1 0h1m1 0h1m5 0h1M4 6.5h1m1 0h3m1 0h1m3 0h4m1 0h3m1 0h1m1 0h1m3 0h2m2 0h1m5 0h2m3 0h1m1 0h2m3 0h1m4 0h1m1 0h1m2 0h1m2 0h1m1 0h1m4 0h1m2 0h3m1 0h1m4 0h1m1 0h3m1 0h1m3 0h2m1 0h2m5 0h3m2 0h2m1 0h1m1 0h1m2 0h1m4 0h1m2 0h1m1 0h2m1 0h1m6 0h1m1 0h1m3 0h1m1 0h2m3 0h1m4 0h2m1 0h1m1 0h3m1 0h1m2 0h5m3 0h1m1 0h3m1 0h1M4 7.5h1m1 0h3m1 0h1m1 0h2m1 0h2m1 0h1m2 0h5m2 0h1m1 0h1m2 0h2m2 0h1m3 0h4m5 0h1m1 0h1m1 0h3m2 0h2m4 0h6m3 0h1m1 0h3m1 0h2m1 0h1m5 0h3m2 0h1m2 0h2m1 0h1m4 0h3m2 0h1m1 0h2m1 0h1m3 0h2m3 0h2m2 0h5m2 0h10m1 0h1m1 0h1m1 0h2m6 0h4m1 0h2m2 0h2m2 0h2m1 0h1m1 0h3m1 0h1M4 8.5h1m1 0h3m1 0h1m2 0h1m4 0h1m1 0h2m1 0h1m1 0h2m1 0h1m1 0h1m1 0h5m2 0h1m3 0h2m1 0h1m1 0h4m1 0h1m1 0h4m1 0h5m3 0h1m1 0h6m8 0h1m2 0h6m1 0h1m2 0h1m1 0h1m3 0h2m1 0h1m2 0h1m2 0h2m2 0h8m2 0h2m3 0h1m1 0h4m4 0h10m1 0h2m1 0h2m2 0h1m4 0h1m1 0h1m2 0h1m4 0h1m1 0h3m1 0h1M4 9.5h1m5 0h1m1 0h2m1 0h1m1 0h1m1 0h2m10 0h2m3 0h1m2 0h3m7 0h1m2 0h2m1 0h1m2 0h3m3 0h1m2 0h2m1 0h1m1 0h1m2 0h1m1 0h1m3 0h4m2 0h2m3 0h1m2 0h1m2 0h3m1 0h2m3 0h2m1 0h2m1 0h4m3 0h1m1 0h1m3 0h2m1 0h1m1 0h1m2 0h5m3 0h1m1 0h1m3 0h1m5 0h1m3 0h1m1 0h3m4 0h1m1 0h2m1 0h1m1 0h1m5 0h1M4 10.5h7m1 0h1m1 0h1m1 0h1m1 0h1m1 0h1m1 0h1m1 0h1m1 0h1m1 0h1m1 0h1m1 0h1m1 0h1m1 0h1m1 0h1m1 0h1m1 0h1m1 0h1m1 0h1m1 0h1m1 0h1m1 0h1m1 0h1m1 0h1m1 0h1m1 0h1m1 0h1m1 0h1m1 0h1m1 0h1m1 0h1m1 0h1m1 0h1m1 0h1m1 0h1m1 0h1m1 0h1m1 0h1m1 0h1m1 0h1m1 0h1m1 0h1m1 0h1m1 0h1m1 0h1m1 0h1m1 0h1m1 0h1m1 0h1m1 0h1m1 0h1m1 0h1m1 0h1m1 0h1m1 0h1m1 0h1m1 0h1m1 0h1m1 0h1m1 0h1m1 0h1m1 0h1m1 0h1m1 0h1m1 0h1m1 0h1m1 0h1m1 0h1m1 0h1m1 0h1m1 0h1m1 0h1m1 0h1m1 0h1m1 0h1m1 0h1m1 0h1m1 0h1m1 0h1m1 0h1m1 0h1m1 0h1m1 0h7M17 11.5h2m2 0h2m1 0h2m2 0h1m3 0h1m3 0h3m4 0h2m1 0h1m2 0h1m2 0h1m5 0h3m3 0h4m1 0h1m1 0h1m1 0h5m1 0h1m6 0h3m3 0h1m1 0h1m1 0h2m4 0h1m1 0h1m2 0h1m2 0h2m1 0h4m3 0h1m1 0h2m4 0h1m3 0h4m1 0h5m2 0h1m3 0h2m1 0h1m1 0h2m2 0h1m5 0h4m5 0h1M4 12.5h5m1 0h4m2 0h1m1 0h2m1 0h1m1 0h2m5 0h1m1 0h5m2 0h1m1 0h1m2 0h1m2 0h1m2 0h2m2 0h2m4 0h5m1 0h1m3 0h1m3 0h1m1 0h2m3 0h1m2 0h1m2 0h8m2 0h7m2 0h2m1 0h1m2 0h1m3 0h5m7 0h3m1 0h1m2 0h1m1 0h1m2 0h3m1 0h5m1 0h3m2 0h4m1 0h1m1 0h1m4 0h1m3 0h3m1 0h1m1 0h1m1 0h1M4 13.5h3m2 0h1m1 0h2m2 0h2m1 0h6m1 0h4m1 0h3m5 0h1m2 0h2m1 0h2m2 0h1m1 0h2m1 0h2m1 0h1m2 0h1m1 0h4m2 0h3m1 0h3m1 0h1m1 0h1m1 0h1m1 0h2m5 0h1m1 0h3m1 0h4m3 0h1m1 0h1m2 0h2m4 0h1m2 0h2m1 0h1m2 0h4m1 0h2m6 0h1m1 0h1m1 0h2m1 0h2m1 0h2m1 0h4m1 0h3m1 0h3m3 0h3m1 0h1m1 0h1m2 0h3m1 0h1m1 0h2m1 0h1M4 14.5h2m2 0h1m1 0h2m2 0h2m1 0h1m2 0h1m1 0h1m2 0h2m1 0h5m2 0h2m1 0h3m1 0h1m6 0h4m2 0h1m2 0h4m5 0h2m1 0h1m9 0h1m1 0h1m1 0h2m2 0h2m1 0h1m1 0h1m4 0h3m1 0h3m2 0h3m1 0h1m1 0h2m3 0h4m1 0h3m1 0h5m1 0h2m1 0h2m1 0h1m1 0h1m1 0h2m1 0h1m2 0h3m2 0h1m2 0h2m1 0h2m3 0h1m1 0h1m5 0h6M4 15.5h1m1 0h3m2 0h1m2 0h2m6 0h1m1 0h1m1 0h1m2 0h1m1 0h3m2 0h1m1 0h5m2 0h3m2 0h1m4 0h2m1 0h3m3 0h1m1 0h2m3 0h2m1 0h1m1 0h1m1 0h1m6 0h4m2 0h3m2 0h1m1 0h2m1 0h2m1 0h1m1 0h3m1 0h1m2 0h1m2 0h1m4 0h1m2 0h2m1 0h1m2 0h1m1 0h1m2 0h1m3 0h2m2 0h1m5 0h1m2 0h3m1 0h1m3 0h2m4 0h2m1 0h1m1 0h3m1 0h2m1 0h2M6 16.5h6m4 0h3m1 0h1m2 0h5m10 0h1m1 0h1m2 0h2m3 0h2m1 0h5m5 0h1m1 0h1m1 0h3m2 0h1m1 0h2m1 0h3m1 0h1m2 0h1m2 0h3m1 0h3m1 0h1m3 0h1m2 0h1m4 0h3m3 0h2m2 0h2m2 0h1m1 0h1m1 0h1m1 0h1m2 0h3m1 0h1m4 0h1m1 0h4m4 0h5m3 0h6m1 0h1m5 0h1m1 0h4m6 0h1M4 17.5h1m2 0h1m1 0h1m5 0h5m1 0h1m1 0h2m1 0h1m2 0h1m2 0h2m2 0h1m2 0h1m3 0h2m3 0h2m5 0h2m1 0h2m1 0h2m1 0h1m1 0h3m2 0h2m1 0h1m2 0h2m2 0h3m4 0h4m1 0h4m2 0h2m5 0h1m4 0h3m3 0h1m2 0h1m1 0h3m1 0h2m5 0h7m8 0h3m1 0h1m3 0h4m1 0h1m1 0h3m2 0h1m1 0h2m4 0h1m3 0h1M4 18.5h2m1 0h1m1 0h2m1 0h1m2 0h1m2 0h3m1 0h1m1 0h4m2 0h1m1 0h2m2 0h1m1 0h2m1 0h1m1 0h1m2 0h2m4 0h1m4 0h2m2 0h1m1 0h2m3 0h1m1 0h1m1 0h2m6 0h1m1 0h3m2 0h3m3 0h1m1 0h1m1 0h6m2 0h1m1 0h1m1 0h2m2 0h2m3 0h1m1 0h1m1 0h6m3 0h1m1 0h4m2 0h2m2 0h5m6 0h2m1 0h1m1 0h2m1 0h1m2 0h2m2 0h2m3 0h5M8 19.5h2m1 0h1m1 0h1m1 0h1m2 0h3m3 0h1m2 0h4m1 0h1m4 0h3m1 0h1m1 0h4m1 0h2m2 0h1m2 0h1m2 0h1m1 0h2m1 0h2m1 0h2m1 0h1m1 0h1m1 0h2m1 0h1m1 0h2m1 0h1m3 0h4m2 0h1m1 0h1m1 0h4m4 0h3m1 0h2m2 0h1m5 0h1m3 0h1m5 0h4m2 0h1m1 0h1m3 0h1m1 0h1m4 0h1m4 0h1m1 0h3m1 0h1m1 0h1m1 0h1m1 0h4m2 0h1m2 0h1m1 0h3m1 0h1m1 0h1M4 20.5h3m1 0h4m1 0h3m1 0h1m1 0h5m1 0h1m1 0h2m3 0h1m3 0h1m1 0h1m3 0h1m1 0h1m6 0h2m1 0h5m2 0h1m1 0h1m2 0h2m1 0h1m1 0h2m2 0h5m2 0h2m2 0h2m1 0h2m1 0h1m6 0h2m1 0h1m2 0h2m3 0h4m2 0h4m1 0h1m1 0h1m3 0h2m1 0h1m1 0h2m3 0h1m2 0h1m1 0h4m1 0h4m1 0h1m2 0h2m1 0h1m1 0h1m1 0h1m1 0h2m1 0h1m1 0h2m1 0h2m1 0h1m3 0h2M5 21.5h1m6 0h4m1 0h4m2 0h3m5 0h1m2 0h1m1 0h1m1 0h1m3 0h7m1 0h1m2 0h3m1 0h1m1 0h7m2 0h3m7 0h1m1 0h2m6 0h2m2 0h2m1 0h1m4 0h2m1 0h1m2 0h1m4 0h2m2 0h4m1 0h1m1 0h1m1 0h4m5 0h2m1 0h1m2 0h1m4 0h2m2 0h5m1 0h1m1 0h1m1 0h1m4 0h4m3 0h2m1 0h1m1 0h1m4 0h1M4 22.5h2m1 0h4m1 0h2m2 0h4m3 0h3m2 0h1m1 0h1m1 0h1m1 0h1m1 0h5m2 0h1m2 0h1m5 0h1m1 0h1m7 0h1m1 0h1m3 0h5m7 0h1m1 0h1m2 0h1m3 0h1m4 0h1m1 0h5m1 0h1m1 0h2m1 0h2m1 0h1m2 0h3m1 0h4m3 0h1m1 0h1m3 0h1m2 0h1m1 0h1m1 0h2m2 0h7m5 0h1m3 0h1m2 0h2m4 0h3m1 0h2m2 0h1m3 0h1M5 23.5h1m5 0h1m2 0h3m1 0h5m4 0h1m1 0h1m2 0h1m1 0h1m3 0h1m1 0h1m2 0h4m4 0h2m2 0h3m1 0h5m2 0h1m2 0h1m6 0h4m3 0h1m1 0h2m2 0h1m3 0h2m1 0h2m1 0h1m3 0h2m2 0h3m1 0h1m1 0h7m1 0h2m4 0h2m1 0h2m1 0h2m1 0h1m1 0h1m1 0h2m1 0h1m2 0h1m2 0h1m1 0h1m1 0h3m4 0h2m2 0h1m1 0h1m1 0h1m2 0h3m1 0h4M5 24.5h1m2 0h1m1 0h5m2 0h6m2 0h2m5 0h1m2 0h4m2 0h3m5 0h2m1 0h1m1 0h2m2 0h1m3 0h2m3 0h1m2 0h1m2 0h2m1 0h1m1 0h1m1 0h2m4 0h1m2 0h2m1 0h1m1 0h1m4 0h3m4 0h2m2 0h4m1 0h1m1 0h4m2 0h1m3 0h2m1 0h4m1 0h1m1 0h1m2 0h4m2 0h5m1 0h2m1 0h1m2 0h2m1 0h2m4 0h2m1 0h1m2 0h1m3 0h1m2 0h1M5 25.5h4m3 0h1m2 0h5m1 0h1m10 0h1m3 0h2m1 0h2m1 0h1m1 0h1m1 0h1m1 0h1m1 0h1m3 0h1m1 0h3m2 0h1m2 0h1m2 0h2m3 0h2m1 0h3m1 0h2m2 0h4m1 0h1m2 0h5m4 0h1m5 0h2m8 0h1m1 0h1m1 0h3m1 0h1m1 0h2m1 0h1m4 0h1m1 0h4m7 0h1m2 0h2m1 0h2m1 0h2m1 0h2m1 0h4m1 0h3m1 0h1m1 0h1m1 0h2m2 0h2M6 26.5h1m3 0h1m1 0h1m2 0h1m1 0h1m1 0h1m1 0h1m1 0h2m3 0h2m1 0h1m5 0h1m2 0h2m1 0h1m3 0h1m1 0h2m1 0h1m2 0h1m1 0h2m1 0h2m1 0h3m2 0h1m1 0h3m2 0h1m1 0h1m2 0h1m1 0h1m1 0h2m1 0h1m2 0h1m2 0h1m4 0h1m2 0h1m1 0h2m2 0h1m2 0h2m1 0h2m3 0h7m6 0h1m2 0h1m1 0h1m3 0h1m1 0h7m4 0h2m2 0h2m1 0h1m2 0h1m2 0h2m3 0h1m2 0h2m1 0h3M4 27.5h1m3 0h1m4 0h1m2 0h1m1 0h2m4 0h2m2 0h1m3 0h6m2 0h1m2 0h4m4 0h2m4 0h3m7 0h1m1 0h1m1 0h1m1 0h4m1 0h2m5 0h4m5 0h1m1 0h1m2 0h1m1 0h2m1 0h2m1 0h2m1 0h2m1 0h2m8 0h1m1 0h1m1 0h2m1 0h6m2 0h5m3 0h1m4 0h1m1 0h2m1 0h2m1 0h2m5 0h1m2 0h1m1 0h3m1 0h2m1 0h2M5 28.5h1m1 0h2m1 0h2m1 0h8m1 0h1m3 0h2m3 0h2m4 0h1m1 0h4m1 0h1m2 0h3m2 0h1m1 0h1m1 0h1m2 0h1m1 0h1m4 0h1m2 0h2m2 0h1m2 0h1m6 0h1m1 0h1m1 0h1m1 0h2m1 0h1m2 0h1m3 0h2m1 0h1m2 0h3m1 0h6m3 0h1m4 0h1m1 0h1m2 0h1m1 0h3m6 0h2m1 0h2m1 0h2m1 0h1m1 0h2m3 0h2m1 0h1m1 0h1m1 0h4m1 0h2m1 0h3m1 0h2M4 29.5h1m1 0h1m7 0h1m1 0h2m1 0h1m2 0h1m1 0h1m1 0h5m1 0h1m1 0h1m1 0h2m3 0h2m1 0h1m2 0h2m5 0h1m1 0h3m4 0h2m1 0h2m1 0h1m2 0h2m1 0h1m1 0h3m3 0h2m3 0h1m2 0h7m2 0h2m2 0h5m1 0h1m1 0h1m2 0h1m3 0h1m2 0h1m1 0h1m1 0h1m6 0h2m1 0h1m1 0h2m4 0h1m3 0h2m1 0h1m2 0h1m1 0h1m1 0h2m1 0h1m2 0h1m2 0h2m1 0h3m5 0h3M4 30.5h5m1 0h1m1 0h1m3 0h3m5 0h2m3 0h1m2 0h3m4 0h1m2 0h1m2 0h2m2 0h1m1 0h4m7 0h3m3 0h1m1 0h1m1 0h2m5 0h7m1 0h1m8 0h1m1 0h1m2 0h3m1 0h1m3 0h1m1 0h4m1 0h1m1 0h2m2 0h2m1 0h1m7 0h1m2 0h4m4 0h3m1 0h3m1 0h3m2 0h4m2 0h1m2 0h1m4 0h1m2 0h6M5 31.5h1m1 0h1m1 0h1m1 0h1m1 0h8m1 0h1m1 0h1m1 0h2m1 0h1m1 0h1m3 0h1m2 0h2m1 0h1m1 0h1m2 0h1m2 0h1m3 0h1m2 0h3m1 0h3m3 0h2m3 0h1m1 0h2m1 0h1m1 0h2m1 0h1m1 0h1m1 0h5m2 0h2m1 0h1m2 0h1m2 0h5m1 0h1m2 0h2m1 0h5m3 0h1m5 0h1m1 0h4m2 0h2m1 0h1m3 0h1m6 0h1m1 0h2m1 0h1m1 0h2m3 0h1m2 0h3m2 0h1m2 0h1m1 0h5M4 32.5h2m1 0h6m1 0h2m1 0h4m3 0h2m2 0h1m3 0h5m2 0h6m2 0h6m1 0h2m3 0h9m1 0h1m1 0h1m1 0h1m1 0h1m1 0h2m2 0h3m2 0h1m1 0h5m1 0h2m4 0h1m1 0h2m1 0h1m6 0h1m3 0h5m7 0h1m1 0h1m2 0h1m1 0h1m3 0h2m1 0h9m1 0h4m1 0h3m2 0h2m1 0h2m3 0h1m1 0h5M4 33.5h3m1 0h1m3 0h1m3 0h1m3 0h1m3 0h1m2 0h3m1 0h2m3 0h1m3 0h9m2 0h1m1 0h3m1 0h1m2 0h1m3 0h1m3 0h1m1 0h4m1 0h3m1 0h2m1 0h2m1 0h1m1 0h2m3 0h3m2 0h1m2 0h2m2 0h4m3 0h3m2 0h1m3 0h5m1 0h2m3 0h1m1 0h2m1 0h1m1 0h2m4 0h1m3 0h1m2 0h1m2 0h5m2 0h3m2 0h1m1 0h1m1 0h3m3 0h1m1 0h1m1 0h1M4 34.5h3m1 0h1m1 0h1m1 0h2m1 0h1m5 0h2m3 0h4m1 0h2m1 0h1m1 0h2m1 0h3m1 0h1m1 0h3m2 0h3m5 0h1m1 0h1m1 0h1m1 0h1m3 0h3m1 0h2m2 0h1m3 0h6m1 0h2m1 0h1m1 0h1m3 0h9m4 0h2m1 0h1m1 0h1m1 0h1m1 0h1m1 0h1m1 0h1m2 0h2m1 0h1m3 0h6m5 0h2m1 0h1m1 0h3m2 0h1m4 0h3m1 0h1m2 0h2m5 0h1m1 0h1m1 0h1m1 0h1M6 35.5h1m1 0h1m3 0h2m4 0h2m1 0h3m1 0h2m5 0h1m3 0h1m2 0h3m1 0h1m1 0h2m1 0h1m8 0h4m3 0h4m1 0h2m2 0h6m7 0h1m1 0h1m3 0h1m3 0h1m1 0h1m1 0h6m2 0h1m2 0h1m2 0h1m1 0h1m3 0h2m1 0h1m3 0h1m1 0h2m2 0h1m3 0h1m1 0h3m2 0h1m3 0h1m2 0h1m1 0h3m4 0h4m2 0h1m1 0h2m2 0h1m3 0h1m1 0h3M5 36.5h2m1 0h7m1 0h3m2 0h2m3 0h1m5 0h5m2 0h2m1 0h1m2 0h1m1 0h8m5 0h5m2 0h2m1 0h1m2 0h2m1 0h4m1 0h1m2 0h2m2 0h8m1 0h1m1 0h1m7 0h1m3 0h3m2 0h5m2 0h1m5 0h4m6 0h2m1 0h1m1 0h5m1 0h1m2 0h2m4 0h1m4 0h2m1 0h2m1 0h1m1 0h6M6 37.5h4m2 0h1m1 0h1m4 0h1m1 0h8m2 0h2m1 0h2m1 0h1m4 0h3m1 0h1m1 0h2m3 0h1m3 0h1m2 0h1m2 0h1m3 0h1m1 0h4m4 0h1m3 0h1m1 0h1m3 0h1m2 0h6m5 0h1m3 0h2m1 0h2m1 0h3m1 0h1m2 0h2m1 0h2m1 0h1m1 0h1m2 0h2m3 0h1m1 0h1m1 0h1m4 0h3m2 0h1m2 0h2m2 0h2m1 0h1m2 0h2m1 0h2m2 0h2m1 0h2m4 0h4M4 38.5h2m1 0h1m1 0h3m2 0h4m2 0h5m2 0h1m3 0h2m1 0h1m1 0h1m1 0h2m3 0h1m1 0h2m2 0h1m2 0h1m1 0h2m3 0h7m1 0h1m1 0h5m6 0h1m1 0h4m1 0h3m1 0h2m2 0h1m1 0h3m1 0h4m2 0h5m1 0h2m1 0h1m1 0h1m3 0h3m1 0h2m5 0h2m2 0h3m2 0h1m1 0h2m1 0h1m1 0h2m2 0h2m3 0h4m5 0h1m4 0h1M4 39.5h3m1 0h1m3 0h5m2 0h3m2 0h2m1 0h2m1 0h1m2 0h2m3 0h2m1 0h1m1 0h2m1 0h1m5 0h1m4 0h2m1 0h1m4 0h2m2 0h1m1 0h1m1 0h2m1 0h4m1 0h1m1 0h1m2 0h3m2 0h1m2 0h3m1 0h2m1 0h1m1 0h2m1 0h1m1 0h1m1 0h1m1 0h3m3 0h4m1 0h3m2 0h2m1 0h2m1 0h2m3 0h1m1 0h2m1 0h3m1 0h2m2 0h1m1 0h2m3 0h3m3 0h3m1 0h1m2 0h1m1 0h1m3 0h1m1 0h1M4 40.5h1m1 0h2m1 0h2m2 0h1m1 0h4m1 0h1m2 0h2m1 0h5m3 0h1m1 0h3m1 0h3m1 0h1m2 0h1m2 0h1m3 0h2m3 0h1m2 0h2m1 0h3m2 0h6m2 0h2m1 0h3m1 0h2m2 0h1m1 0h1m1 0h2m4 0h4m4 0h1m1 0h1m1 0h2m1 0h1m4 0h1m1 0h1m6 0h1m1 0h1m1 0h1m2 0h1m3 0h2m1 0h3m1 0h2m1 0h2m1 0h2m3 0h3m2 0h1m1 0h1m6 0h1m1 0h2m1 0h1M7 41.5h1m4 0h3m2 0h6m6 0h4m2 0h2m1 0h1m1 0h7m3 0h2m1 0h3m1 0h2m1 0h2m1 0h1m2 0h1m2 0h2m3 0h1m2 0h1m2 0h6m1 0h2m1 0h3m1 0h1m4 0h3m1 0h2m1 0h2m1 0h1m2 0h2m1 0h1m1 0h1m1 0h1m2 0h1m1 0h1m1 0h1m2 0h1m1 0h1m1 0h2m1 0h3m2 0h1m1 0h3m2 0h1m1 0h5m1 0h1m3 0h1m3 0h2m2 0h1m2 0h2m1 0h1m3 0h1m1 0h1M5 42.5h3m2 0h3m1 0h2m5 0h3m2 0h2m2 0h4m1 0h2m1 0h1m1 0h2m1 0h1m2 0h4m2 0h1m3 0h1m2 0h1m1 0h8m1 0h1m1 0h2m1 0h1m1 0h1m2 0h1m1 0h1m1 0h1m2 0h1m3 0h3m2 0h1m1 0h3m1 0h1m4 0h1m2 0h2m1 0h2m1 0h1m2 0h1m3 0h3m1 0h1m4 0h1m1 0h2m2 0h1m1 0h1m3 0h2m1 0h3m1 0h1m2 0h1m2 0h1m1 0h2m1 0h2m1 0h3m1 0h1m2 0h3m2 0h2M5 43.5h1m2 0h2m6 0h1m1 0h2m1 0h1m4 0h1m1 0h1m1 0h1m2 0h1m1 0h1m3 0h3m1 0h4m1 0h1m2 0h3m1 0h4m3 0h1m4 0h1m1 0h1m4 0h1m1 0h2m1 0h1m6 0h4m1 0h1m1 0h1m1 0h2m1 0h1m2 0h1m2 0h1m3 0h1m1 0h2m1 0h2m2 0h2m1 0h2m3 0h1m1 0h7m2 0h7m3 0h4m1 0h1m2 0h1m5 0h2m1 0h5m3 0h2m2 0h2m1 0h1M4 44.5h1m2 0h2m1 0h1m1 0h2m1 0h1m1 0h1m1 0h1m1 0h1m3 0h3m1 0h1m2 0h1m2 0h1m2 0h5m1 0h1m2 0h2m2 0h1m2 0h1m1 0h1m3 0h1m2 0h3m1 0h2m4 0h1m1 0h2m2 0h1m6 0h1m1 0h1m5 0h2m1 0h1m2 0h1m2 0h1m1 0h3m1 0h2m1 0h1m1 0h1m1 0h1m4 0h1m1 0h1m1 0h1m1 0h2m1 0h1m1 0h2m1 0h1m1 0h1m2 0h3m6 0h3m3 0h1m2 0h3m1 0h1m1 0h1m3 0h3m2 0h1m2 0h4M4 45.5h1m3 0h2m1 0h7m1 0h1m1 0h1m1 0h1m2 0h4m1 0h1m1 0h1m1 0h4m1 0h1m1 0h3m1 0h2m2 0h1m5 0h1m1 0h1m2 0h1m3 0h1m1 0h1m1 0h3m5 0h1m2 0h1m1 0h1m1 0h1m3 0h7m2 0h1m1 0h2m2 0h2m1 0h3m2 0h3m1 0h1m3 0h1m2 0h3m1 0h1m4 0h1m2 0h5m2 0h1m1 0h1m1 0h2m1 0h3m1 0h2m2 0h1m2 0h1m1 0h1m2 0h1m1 0h1m1 0h1m1 0h3m2 0h1m1 0h1m2 0h1M4 46.5h1m1 0h1m1 0h1m1 0h1m2 0h1m2 0h1m4 0h1m1 0h3m2 0h1m1 0h2m2 0h1m1 0h3m1 0h1m4 0h2m2 0h1m2 0h4m2 0h5m1 0h1m3 0h3m1 0h2m5 0h2m1 0h1m1 0h1m2 0h1m1 0h4m5 0h3m1 0h2m1 0h1m2 0h1m1 0h2m2 0h6m2 0h1m3 0h3m1 0h1m1 0h1m2 0h4m1 0h1m4 0h1m7 0h3m1 0h1m2 0h1m4 0h2m2 0h2m2 0h1m1 0h1m3 0h1M5 47.5h2m1 0h1m2 0h2m1 0h4m4 0h1m3 0h1m1 0h1m1 0h2m1 0h9m4 0h2m4 0h1m2 0h2m1 0h1m5 0h4m7 0h4m6 0h3m3 0h1m2 0h1m1 0h1m5 0h3m3 0h1m7 0h1m1 0h1m1 0h2m1 0h1m3 0h1m2 0h1m2 0h1m2 0h2m3 0h2m1 0h3m1 0h2m4 0h1m5 0h2m1 0h1m1 0h3m4 0h1m1 0h2m1 0h2M5 48.5h1m3 0h4m1 0h1m1 0h2m2 0h1m1 0h2m2 0h1m4 0h2m1 0h11m4 0h2m1 0h1m1 0h1m1 0h2m1 0h1m2 0h1m2 0h2m4 0h3m1 0h2m2 0h1m1 0h1m2 0h2m5 0h4m5 0h4m1 0h2m2 0h1m2 0h3m1 0h1m4 0h1m5 0h2m1 0h3m2 0h1m3 0h2m1 0h1m1 0h1m1 0h1m2 0h2m2 0h1m1 0h4m3 0h1m2 0h1m4 0h3m1 0h1m1 0h1m2 0h2M4 49.5h2m5 0h4m1 0h1m2 0h1m6 0h2m1 0h1m2 0h1m8 0h6m1 0h1m1 0h1m2 0h7m1 0h1m3 0h1m2 0h1m1 0h1m2 0h1m1 0h3m2 0h1m2 0h2m4 0h2m2 0h3m10 0h1m2 0h1m2 0h1m2 0h1m1 0h3m2 0h3m1 0h1m4 0h1m1 0h2m1 0h3m4 0h1m2 0h1m1 0h1m1 0h5m1 0h2m3 0h1m1 0h2m1 0h3m1 0h4m1 0h1m2 0h1m1 0h1M4 50.5h1m1 0h1m1 0h4m2 0h1m1 0h2m1 0h2m3 0h1m1 0h1m1 0h2m1 0h2m1 0h2m1 0h1m1 0h3m1 0h1m2 0h1m5 0h1m2 0h1m2 0h2m1 0h2m1 0h2m1 0h2m1 0h1m1 0h2m6 0h2m2 0h2m2 0h1m1 0h1m1 0h1m3 0h3m1 0h1m1 0h1m1 0h1m4 0h2m3 0h5m1 0h3m4 0h1m2 0h2m5 0h1m4 0h1m2 0h1m1 0h1m6 0h2m1 0h2m1 0h1m2 0h1m1 0h1m3 0h2m1 0h1m4 0h2M4 51.5h2m2 0h2m1 0h1m1 0h2m1 0h1m1 0h1m1 0h2m3 0h1m2 0h2m2 0h1m5 0h1m1 0h1m2 0h1m1 0h2m1 0h1m2 0h2m2 0h1m2 0h1m2 0h2m1 0h1m1 0h1m2 0h1m3 0h2m1 0h1m1 0h1m3 0h1m3 0h4m4 0h1m1 0h1m1 0h1m3 0h1m1 0h2m1 0h3m3 0h1m3 0h2m1 0h1m2 0h1m1 0h1m1 0h4m1 0h1m2 0h1m3 0h2m3 0h1m1 0h1m4 0h1m2 0h1m1 0h2m2 0h1m2 0h1m2 0h2m5 0h6M4 52.5h4m2 0h1m1 0h3m1 0h1m2 0h1m3 0h1m1 0h3m2 0h1m1 0h2m1 0h2m3 0h1m1 0h2m3 0h1m1 0h8m3 0h2m2 0h3m2 0h1m3 0h1m2 0h3m1 0h2m1 0h1m2 0h1m1 0h1m4 0h2m2 0h1m2 0h1m2 0h1m5 0h1m1 0h3m14 0h1m1 0h1m1 0h2m1 0h2m2 0h5m1 0h1m1 0h1m1 0h3m1 0h1m1 0h6m1 0h1m6 0h2m3 0h1m1 0h2m2 0h1M5 53.5h1m2 0h2m1 0h3m2 0h1m3 0h2m2 0h2m3 0h1m2 0h1m3 0h1m1 0h1m5 0h2m2 0h1m1 0h1m4 0h3m3 0h1m1 0h1m1 0h1m1 0h5m1 0h2m1 0h2m3 0h2m1 0h3m3 0h3m1 0h1m4 0h3m2 0h1m1 0h1m2 0h1m1 0h2m2 0h3m1 0h1m2 0h4m1 0h1m1 0h1m1 0h1m1 0h2m1 0h1m1 0h2m4 0h5m3 0h1m3 0h4m1 0h1m1 0h2m1 0h3m1 0h2m6 0h2M8 54.5h1m1 0h3m1 0h1m3 0h3m5 0h1m1 0h2m1 0h2m1 0h1m3 0h6m2 0h1m2 0h1m2 0h2m3 0h3m1 0h2m1 0h1m3 0h6m1 0h1m5 0h2m1 0h1m3 0h1m1 0h4m5 0h1m2 0h3m3 0h1m1 0h2m2 0h2m1 0h3m2 0h7m5 0h5m4 0h1m4 0h2m1 0h1m2 0h1m2 0h2m1 0h1m1 0h1m6 0h2m1 0h1m2 0h1m2 0h2M6 55.5h2m1 0h1m3 0h1m1 0h5m2 0h2m1 0h1m1 0h1m2 0h2m1 0h6m1 0h1m2 0h1m2 0h2m1 0h1m1 0h3m4 0h1m5 0h1m1 0h1m4 0h1m1 0h4m1 0h1m4 0h1m2 0h2m1 0h2m2 0h1m1 0h4m4 0h2m1 0h1m1 0h2m1 0h1m2 0h2m1 0h3m2 0h1m5 0h4m1 0h2m1 0h1m2 0h8m7 0h1m1 0h1m2 0h2m5 0h1m1 0h1m4 0h2m1 0h1m1 0h2M4 56.5h7m3 0h4m2 0h1m2 0h8m3 0h2m6 0h1m7 0h1m3 0h1m1 0h1m3 0h1m1 0h2m1 0h2m2 0h1m1 0h1m2 0h1m1 0h2m2 0h2m2 0h1m3 0h2m1 0h4m2 0h1m2 0h1m1 0h2m2 0h1m5 0h2m5 0h1m5 0h1m1 0h1m1 0h4m1 0h1m2 0h1m2 0h4m2 0h3m1 0h3m4 0h3m2 0h1m1 0h2m3 0h4m2 0h2m3 0h1M5 57.5h1m1 0h1m8 0h5m1 0h1m2 0h3m1 0h1m2 0h1m1 0h4m2 0h1m1 0h2m1 0h6m3 0h4m2 0h2m2 0h1m1 0h3m1 0h1m1 0h2m1 0h1m1 0h1m1 0h1m2 0h1m3 0h6m2 0h1m1 0h2m1 0h2m5 0h1m1 0h1m2 0h3m1 0h1m5 0h2m1 0h3m1 0h1m4 0h1m1 0h2m1 0h1m4 0h2m1 0h1m1 0h12m1 0h2m1 0h2m1 0h2m1 0h2m1 0h1m1 0h1m1 0h1m1 0h2M4 58.5h2m2 0h1m1 0h1m1 0h3m2 0h2m1 0h1m1 0h2m1 0h1m2 0h2m1 0h1m2 0h2m1 0h1m1 0h3m5 0h1m1 0h1m2 0h2m1 0h1m1 0h2m1 0h6m2 0h3m1 0h1m2 0h1m1 0h1m2 0h4m4 0h1m2 0h3m3 0h2m3 0h2m3 0h5m1 0h3m2 0h4m2 0h1m1 0h4m4 0h3m5 0h1m2 0h1m1 0h2m2 0h1m1 0h1m1 0h1m1 0h1m1 0h2m4 0h3m2 0h1m2 0h1m3 0h3M4 59.5h4m3 0h1m1 0h3m2 0h2m1 0h2m2 0h3m2 0h1m6 0h1m5 0h1m2 0h4m2 0h1m2 0h1m2 0h1m1 0h2m2 0h1m1 0h2m5 0h2m1 0h1m1 0h2m6 0h6m1 0h1m2 0h3m3 0h4m2 0h1m1 0h2m1 0h2m2 0h2m1 0h1m2 0h3m2 0h3m1 0h2m1 0h1m5 0h2m1 0h3m1 0h1m2 0h1m1 0h2m2 0h1m2 0h2m1 0h1m1 0h2m2 0h1m2 0h5m1 0h3M7 60.5h8m1 0h1m1 0h9m1 0h3m1 0h5m2 0h1m2 0h1m1 0h1m2 0h2m1 0h3m1 0h1m1 0h2m2 0h6m1 0h3m1 0h1m1 0h2m2 0h3m1 0h1m1 0h1m1 0h2m1 0h5m1 0h2m1 0h1m1 0h2m2 0h1m2 0h1m2 0h1m1 0h2m3 0h5m4 0h1m1 0h7m1 0h1m1 0h1m1 0h2m1 0h1m1 0h7m5 0h1m1 0h2m2 0h3m2 0h1m1 0h9m2 0h1M8 61.5h1m3 0h1m2 0h1m2 0h1m1 0h3m5 0h1m3 0h1m3 0h1m2 0h1m1 0h5m1 0h2m1 0h1m5 0h2m2 0h1m3 0h2m3 0h3m6 0h3m4 0h1m1 0h2m3 0h4m3 0h3m3 0h3m1 0h1m1 0h3m2 0h1m3 0h1m1 0h1m1 0h1m1 0h2m5 0h7m1 0h2m1 0h1m3 0h1m2 0h3m1 0h2m1 0h2m4 0h2m2 0h3m1 0h1m3 0h3m1 0h1M4 62.5h3m1 0h1m1 0h1m1 0h3m1 0h1m2 0h5m1 0h1m1 0h1m3 0h2m1 0h1m1 0h2m3 0h3m5 0h1m2 0h1m1 0h1m3 0h3m1 0h1m1 0h1m2 0h2m1 0h1m1 0h1m3 0h1m3 0h3m2 0h1m2 0h1m1 0h1m1 0h8m1 0h2m3 0h1m1 0h1m1 0h3m1 0h3m1 0h1m1 0h1m3 0h1m3 0h6m1 0h3m1 0h1m1 0h1m1 0h2m1 0h1m1 0h1m1 0h2m1 0h2m4 0h2m1 0h1m3 0h2m1 0h1m1 0h2m1 0h1m1 0h1m1 0h2M6 63.5h3m3 0h1m2 0h1m1 0h2m4 0h3m1 0h2m3 0h1m3 0h2m3 0h1m2 0h2m5 0h2m2 0h1m2 0h3m3 0h1m1 0h1m2 0h1m1 0h1m1 0h3m2 0h2m1 0h1m1 0h1m1 0h4m3 0h3m1 0h3m2 0h1m2 0h1m1 0h1m1 0h2m4 0h3m3 0h2m2 0h2m2 0h3m2 0h1m2 0h2m1 0h1m3 0h2m3 0h1m5 0h2m1 0h1m1 0h1m1 0h1m1 0h2m1 0h1m1 0h2m1 0h2m3 0h4M5 64.5h1m2 0h5m2 0h2m4 0h4m1 0h2m1 0h8m5 0h1m3 0h3m1 0h1m2 0h2m2 0h1m1 0h9m4 0h3m4 0h1m1 0h1m1 0h2m2 0h6m1 0h2m4 0h1m2 0h1m1 0h2m2 0h2m1 0h1m1 0h7m2 0h1m1 0h1m1 0h4m1 0h1m4 0h1m2 0h1m1 0h1m1 0h5m1 0h3m3 0h1m1 0h1m1 0h1m1 0h1m1 0h2m1 0h4m1 0h6m2 0h1M4 65.5h2m1 0h1m6 0h1m2 0h2m1 0h1m3 0h1m2 0h1m1 0h2m1 0h2m1 0h2m2 0h4m1 0h1m1 0h5m4 0h2m1 0h2m3 0h1m3 0h1m2 0h2m2 0h2m1 0h2m1 0h1m1 0h1m1 0h2m1 0h1m3 0h2m1 0h1m4 0h2m3 0h1m1 0h1m2 0h1m1 0h2m3 0h2m1 0h1m2 0h1m1 0h1m1 0h1m7 0h1m1 0h1m1 0h2m1 0h1m2 0h3m2 0h4m3 0h1m1 0h2m2 0h4m1 0h2m3 0h3m1 0h5M6 66.5h2m2 0h1m1 0h1m1 0h1m3 0h1m1 0h1m2 0h1m1 0h1m1 0h2m1 0h1m2 0h2m2 0h1m4 0h2m1 0h3m2 0h1m1 0h2m1 0h1m7 0h1m6 0h3m2 0h1m3 0h7m2 0h1m1 0h1m1 0h2m2 0h1m1 0h6m1 0h1m1 0h8m1 0h1m2 0h1m1 0h4m2 0h2m1 0h2m2 0h6m1 0h1m1 0h2m1 0h3m2 0h1m1 0h3m1 0h1m1 0h2m2 0h1m3 0h1m5 0h1m1 0h1m2 0h1M4 67.5h6m3 0h3m3 0h2m1 0h4m2 0h3m1 0h1m3 0h1m3 0h1m5 0h3m9 0h1m1 0h1m1 0h1m1 0h4m1 0h1m3 0h2m1 0h4m1 0h1m3 0h5m2 0h2m1 0h3m1 0h1m1 0h2m1 0h2m1 0h1m7 0h1m2 0h1m1 0h1m3 0h3m1 0h3m4 0h2m1 0h2m4 0h1m2 0h2m2 0h1m2 0h1m1 0h1m8 0h3m5 0h1m2 0h1m1 0h1M4 68.5h4m1 0h3m4 0h2m2 0h2m1 0h1m1 0h1m2 0h4m2 0h2m1 0h1m2 0h1m1 0h5m2 0h2m1 0h2m1 0h2m2 0h3m2 0h1m4 0h2m2 0h5m1 0h1m4 0h3m1 0h1m4 0h2m3 0h1m1 0h3m4 0h1m4 0h3m1 0h3m1 0h2m5 0h4m1 0h1m2 0h1m3 0h4m2 0h2m2 0h5m3 0h3m1 0h2m1 0h1m3 0h3m1 0h3m4 0h1M4 69.5h1m7 0h1m1 0h1m4 0h2m1 0h6m1 0h1m2 0h2m3 0h1m5 0h2m3 0h3m2 0h2m1 0h1m1 0h1m4 0h1m1 0h1m1 0h1m2 0h1m1 0h1m1 0h1m3 0h5m2 0h1m1 0h1m1 0h1m1 0h2m1 0h1m1 0h1m2 0h1m1 0h1m3 0h2m2 0h1m2 0h1m2 0h3m3 0h2m1 0h1m1 0h2m1 0h1m3 0h1m2 0h1m1 0h2m4 0h1m1 0h2m1 0h9m4 0h5m1 0h3m1 0h1m2 0h3m1 0h2M5 70.5h1m4 0h1m3 0h1m2 0h2m2 0h6m1 0h4m4 0h1m1 0h1m4 0h1m2 0h2m4 0h1m1 0h2m2 0h1m1 0h2m3 0h1m2 0h1m1 0h1m1 0h2m5 0h2m1 0h1m1 0h2m2 0h3m1 0h2m3 0h2m1 0h3m1 0h2m3 0h4m1 0h4m1 0h2m1 0h4m1 0h2m1 0h1m2 0h4m2 0h1m1 0h2m4 0h2m1 0h1m2 0h3m3 0h3m4 0h2m5 0h1m3 0h2M5 71.5h2m4 0h5m1 0h5m3 0h1m5 0h3m2 0h2m2 0h2m2 0h1m1 0h1m5 0h4m2 0h1m3 0h5m4 0h1m1 0h2m1 0h4m3 0h1m2 0h1m1 0h3m2 0h1m2 0h2m3 0h6m1 0h2m3 0h2m2 0h1m2 0h1m3 0h3m4 0h1m1 0h1m3 0h1m1 0h2m1 0h1m1 0h1m2 0h2m2 0h2m1 0h2m3 0h2m2 0h1m1 0h2m1 0h2m8 0h1M4 72.5h3m2 0h2m3 0h2m3 0h1m4 0h3m3 0h2m1 0h1m4 0h4m5 0h2m1 0h3m3 0h1m3 0h1m1 0h1m9 0h2m1 0h2m2 0h1m5 0h3m2 0h1m2 0h3m4 0h1m1 0h2m1 0h3m2 0h3m1 0h1m2 0h2m1 0h2m5 0h1m2 0h3m4 0h1m1 0h5m1 0h2m3 0h1m1 0h1m4 0h2m3 0h1m6 0h2m1 0h5m2 0h2M4 73.5h1m3 0h1m2 0h1m1 0h8m5 0h2m1 0h1m2 0h2m1 0h3m4 0h1m1 0h3m1 0h1m4 0h1m1 0h5m4 0h2m1 0h6m1 0h3m1 0h2m1 0h1m1 0h3m3 0h1m1 0h1m1 0h2m1 0h2m1 0h3m3 0h3m1 0h1m1 0h3m8 0h3m1 0h1m2 0h1m4 0h1m1 0h3m4 0h2m1 0h1m4 0h1m1 0h2m4 0h1m1 0h2m2 0h1m1 0h4m2 0h2m1 0h2m2 0h1M4 74.5h1m2 0h6m2 0h2m1 0h1m5 0h1m1 0h2m1 0h1m1 0h1m2 0h4m1 0h2m2 0h1m3 0h1m3 0h3m1 0h1m2 0h4m1 0h1m3 0h2m1 0h1m1 0h1m2 0h1m1 0h1m1 0h6m3 0h1m1 0h1m1 0h1m2 0h2m5 0h1m1 0h2m1 0h1m1 0h3m2 0h3m1 0h4m3 0h3m1 0h4m4 0h3m2 0h1m2 0h5m4 0h2m1 0h5m1 0h1m6 0h3m1 0h2m3 0h1M4 75.5h1m3 0h1m2 0h2m1 0h6m2 0h1m1 0h2m2 0h2m2 0h3m1 0h2m1 0h2m2 0h1m1 0h2m4 0h3m3 0h2m1 0h3m1 0h4m5 0h2m1 0h1m1 0h2m3 0h1m2 0h4m2 0h1m3 0h1m1 0h1m1 0h6m2 0h2m1 0h1m1 0h1m6 0h1m1 0h2m1 0h1m2 0h3m3 0h1m1 0h1m2 0h4m1 0h1m1 0h1m1 0h2m2 0h1m1 0h3m3 0h1m4 0h2m6 0h1m4 0h1m1 0h1M4 76.5h1m2 0h1m1 0h3m2 0h3m2 0h1m1 0h2m5 0h1m1 0h5m1 0h2m2 0h1m1 0h1m1 0h1m2 0h4m3 0h1m5 0h2m1 0h2m4 0h1m1 0h1m1 0h2m1 0h1m1 0h2m1 0h3m3 0h1m1 0h1m1 0h1m1 0h1m3 0h4m1 0h1m4 0h1m1 0h1m2 0h1m5 0h3m4 0h1m2 0h3m1 0h2m3 0h1m1 0h5m1 0h1m1 0h1m2 0h4m1 0h2m1 0h3m1 0h2m3 0h4m1 0h1m1 0h1m1 0h2m1 0h1M7 77.5h2m2 0h1m2 0h1m1 0h1m2 0h3m1 0h1m1 0h4m1 0h4m1 0h3m3 0h1m1 0h2m1 0h1m1 0h4m4 0h2m1 0h1m1 0h2m3 0h1m5 0h2m2 0h3m2 0h1m4 0h2m1 0h1m1 0h1m2 0h2m4 0h1m3 0h2m2 0h2m2 0h2m5 0h1m2 0h1m1 0h1m1 0h2m5 0h4m2 0h1m1 0h1m5 0h1m3 0h2m4 0h1m5 0h2m1 0h1m1 0h2m1 0h3m2 0h2m1 0h2M5 78.5h1m2 0h3m2 0h3m4 0h5m1 0h1m1 0h1m1 0h5m1 0h4m3 0h1m1 0h2m4 0h2m1 0h1m2 0h1m1 0h1m1 0h1m5 0h6m2 0h1m4 0h1m1 0h1m1 0h2m2 0h1m1 0h2m3 0h1m1 0h2m1 0h1m1 0h1m1 0h1m1 0h1m2 0h4m2 0h2m2 0h1m1 0h1m1 0h3m2 0h1m1 0h2m1 0h2m1 0h1m1 0h2m3 0h3m1 0h3m3 0h6m1 0h1m5 0h1m4 0h3m1 0h1m3 0h2M6 79.5h2m1 0h1m4 0h1m3 0h1m1 0h3m4 0h4m3 0h1m1 0h1m1 0h1m4 0h2m1 0h1m1 0h1m3 0h2m3 0h2m1 0h1m1 0h1m1 0h1m1 0h2m8 0h4m5 0h2m1 0h1m1 0h3m2 0h2m4 0h1m1 0h10m2 0h1m4 0h1m1 0h1m6 0h1m5 0h1m1 0h1m1 0h2m1 0h1m1 0h1m6 0h2m1 0h1m1 0h1m3 0h1m2 0h2m1 0h4m1 0h1m3 0h1m2 0h1m1 0h1M4 80.5h3m2 0h4m3 0h3m1 0h2m3 0h1m2 0h2m1 0h1m1 0h1m2 0h2m4 0h1m4 0h1m1 0h2m3 0h3m3 0h3m1 0h2m1 0h5m1 0h1m3 0h2m1 0h2m1 0h2m2 0h1m1 0h3m2 0h1m2 0h1m1 0h2m4 0h2m5 0h2m1 0h1m1 0h5m3 0h1m1 0h2m1 0h1m1 0h2m6 0h1m1 0h2m1 0h2m1 0h2m1 0h1m3 0h4m3 0h1m1 0h1m2 0h1m1 0h4m1 0h3m3 0h1M7 81.5h1m1 0h1m2 0h3m1 0h2m2 0h2m5 0h1m1 0h1m4 0h4m2 0h3m1 0h1m1 0h2m2 0h1m2 0h6m3 0h1m1 0h1m1 0h2m2 0h1m2 0h1m3 0h4m1 0h1m2 0h1m3 0h1m1 0h1m2 0h1m1 0h2m2 0h2m3 0h3m3 0h2m6 0h1m1 0h2m1 0h1m1 0h2m5 0h2m1 0h1m1 0h2m1 0h1m3 0h1m3 0h1m1 0h3m1 0h2m1 0h2m1 0h6m1 0h3m2 0h5M6 82.5h1m1 0h1m1 0h1m1 0h2m2 0h1m1 0h2m1 0h3m2 0h2m2 0h2m1 0h2m1 0h1m4 0h1m3 0h1m1 0h1m1 0h1m1 0h2m1 0h2m1 0h1m3 0h1m1 0h1m3 0h2m1 0h4m3 0h1m1 0h4m1 0h2m2 0h1m1 0h3m4 0h3m1 0h2m4 0h1m1 0h2m1 0h2m1 0h2m2 0h3m1 0h2m1 0h1m3 0h1m2 0h1m3 0h1m5 0h4m1 0h2m1 0h1m3 0h1m1 0h2m1 0h1m2 0h1m1 0h1m7 0h1m3 0h4M6 83.5h1m2 0h1m2 0h1m2 0h2m2 0h1m1 0h1m1 0h1m3 0h4m1 0h2m1 0h1m2 0h1m1 0h2m1 0h1m2 0h1m2 0h1m1 0h3m4 0h2m2 0h6m5 0h2m1 0h1m6 0h1m1 0h2m1 0h1m1 0h4m2 0h1m4 0h3m1 0h2m1 0h2m1 0h1m1 0h1m3 0h1m1 0h1m5 0h2m1 0h2m5 0h1m1 0h3m1 0h1m1 0h3m5 0h1m1 0h3m2 0h1m2 0h1m1 0h7m2 0h2m4 0h1m1 0h1M9 84.5h5m1 0h1m5 0h8m5 0h2m1 0h1m1 0h3m2 0h2m1 0h2m1 0h5m5 0h1m1 0h2m1 0h1m2 0h1m1 0h1m1 0h1m1 0h5m2 0h1m3 0h1m5 0h1m2 0h2m1 0h1m1 0h4m1 0h1m1 0h2m2 0h3m5 0h1m2 0h1m5 0h2m1 0h4m1 0h1m3 0h4m2 0h2m1 0h1m1 0h2m5 0h1m2 0h1m2 0h1m5 0h3m2 0h1m1 0h2m1 0h2M5 85.5h1m1 0h2m3 0h4m1 0h1m1 0h2m5 0h1m1 0h1m2 0h2m1 0h1m2 0h1m3 0h4m2 0h4m3 0h3m1 0h2m1 0h1m1 0h1m9 0h1m1 0h1m1 0h1m3 0h5m3 0h1m1 0h1m1 0h5m3 0h1m1 0h4m4 0h2m2 0h3m1 0h1m1 0h6m6 0h2m1 0h4m2 0h1m1 0h4m1 0h4m3 0h2m5 0h2m1 0h4m5 0h2m1 0h1M4 86.5h2m2 0h3m1 0h1m2 0h2m1 0h6m4 0h2m1 0h4m1 0h3m4 0h1m1 0h1m1 0h1m3 0h2m4 0h5m1 0h1m3 0h2m1 0h1m1 0h2m5 0h2m1 0h3m2 0h2m6 0h5m2 0h1m1 0h1m1 0h3m1 0h1m3 0h3m4 0h1m1 0h1m2 0h1m1 0h1m1 0h1m1 0h1m1 0h1m1 0h1m2 0h1m1 0h2m2 0h2m1 0h4m2 0h2m4 0h1m1 0h1m2 0h3m1 0h1m1 0h1m6 0h2M4 87.5h1m1 0h1m4 0h2m3 0h4m2 0h1m1 0h1m2 0h1m3 0h1m1 0h6m5 0h5m2 0h3m2 0h1m1 0h3m1 0h1m1 0h1m1 0h2m1 0h1m1 0h1m2 0h5m6 0h1m2 0h1m1 0h1m1 0h1m2 0h1m2 0h1m2 0h1m1 0h6m1 0h1m4 0h1m2 0h1m2 0h1m3 0h1m1 0h1m2 0h1m2 0h1m3 0h4m1 0h3m3 0h2m4 0h1m1 0h1m3 0h1m2 0h2m1 0h2m1 0h1m5 0h1m2 0h1M4 88.5h2m1 0h6m2 0h3m1 0h1m2 0h2m2 0h1m1 0h9m2 0h1m1 0h3m1 0h1m4 0h3m1 0h1m1 0h2m2 0h5m3 0h1m1 0h2m2 0h2m3 0h1m1 0h13m4 0h4m1 0h1m1 0h1m5 0h2m3 0h6m3 0h1m1 0h4m1 0h2m7 0h2m1 0h5m1 0h1m1 0h1m2 0h3m1 0h2m1 0h2m1 0h3m2 0h1m1 0h6m1 0h2M4 89.5h1m3 0h1m3 0h1m3 0h2m1 0h2m5 0h1m5 0h1m3 0h1m1 0h3m2 0h2m3 0h3m1 0h3m2 0h1m1 0h2m3 0h1m1 0h2m1 0h1m3 0h1m6 0h1m1 0h1m1 0h1m1 0h1m1 0h1m3 0h4m3 0h1m3 0h1m2 0h3m4 0h1m1 0h2m3 0h3m1 0h1m1 0h2m2 0h1m3 0h1m1 0h3m5 0h1m3 0h2m1 0h4m1 0h2m1 0h1m4 0h2m1 0h2m3 0h1m3 0h1m2 0h2M6 90.5h1m1 0h1m1 0h1m1 0h1m2 0h3m1 0h3m3 0h2m3 0h1m1 0h1m1 0h1m1 0h3m6 0h2m3 0h2m5 0h4m1 0h1m1 0h1m2 0h4m1 0h1m2 0h1m4 0h1m1 0h3m3 0h1m1 0h1m1 0h1m5 0h3m1 0h4m3 0h2m1 0h1m1 0h1m1 0h1m1 0h1m1 0h2m2 0h1m3 0h2m1 0h1m1 0h1m2 0h5m1 0h1m1 0h1m1 0h1m1 0h2m1 0h1m5 0h1m2 0h3m2 0h1m3 0h1m1 0h2m1 0h1m1 0h1m1 0h1M4 91.5h1m3 0h1m3 0h4m2 0h3m2 0h1m2 0h1m3 0h1m1 0h1m3 0h2m1 0h3m2 0h6m3 0h1m1 0h1m2 0h1m1 0h1m3 0h4m1 0h1m3 0h2m1 0h1m1 0h2m6 0h3m3 0h2m2 0h2m3 0h1m1 0h6m1 0h1m3 0h3m3 0h2m2 0h2m1 0h1m2 0h1m1 0h1m1 0h1m5 0h1m2 0h2m3 0h1m3 0h4m5 0h1m3 0h2m5 0h1m3 0h1m1 0h1m1 0h1M5 92.5h10m1 0h1m4 0h3m1 0h1m2 0h1m1 0h1m1 0h6m2 0h4m6 0h2m2 0h1m1 0h2m2 0h5m1 0h3m1 0h3m1 0h1m1 0h5m4 0h1m1 0h6m1 0h2m2 0h3m2 0h1m2 0h1m3 0h1m1 0h3m1 0h5m2 0h1m4 0h1m1 0h4m3 0h1m1 0h2m1 0h1m1 0h7m2 0h1m1 0h1m1 0h3m1 0h2m4 0h2m1 0h1m1 0h6M5 93.5h1m2 0h2m2 0h1m1 0h1m1 0h1m1 0h1m2 0h1m1 0h2m2 0h1m1 0h4m1 0h9m5 0h1m2 0h3m1 0h2m1 0h2m3 0h3m2 0h3m1 0h2m1 0h1m1 0h1m2 0h2m1 0h3m3 0h1m1 0h1m2 0h1m2 0h1m2 0h1m3 0h3m1 0h1m3 0h1m2 0h2m1 0h1m1 0h1m1 0h5m2 0h1m1 0h1m2 0h5m2 0h1m3 0h1m1 0h6m1 0h5m2 0h5m1 0h2m3 0h1m1 0h1m1 0h3m1 0h1M4 94.5h1m2 0h5m3 0h1m1 0h1m2 0h2m2 0h1m1 0h3m1 0h1m2 0h2m1 0h3m2 0h1m1 0h1m1 0h3m4 0h2m1 0h1m1 0h1m2 0h1m2 0h1m1 0h1m2 0h1m1 0h3m6 0h2m1 0h4m5 0h1m1 0h1m1 0h1m1 0h2m3 0h2m5 0h3m1 0h4m7 0h1m1 0h1m1 0h2m1 0h1m1 0h1m6 0h5m4 0h1m4 0h2m1 0h1m2 0h2m4 0h2m1 0h1m1 0h2m1 0h3m2 0h1M4 95.5h2m1 0h3m2 0h2m3 0h1m2 0h2m3 0h1m1 0h2m1 0h2m1 0h4m2 0h1m1 0h1m4 0h2m3 0h2m5 0h1m4 0h1m1 0h3m1 0h3m1 0h1m2 0h1m1 0h1m2 0h1m3 0h3m2 0h1m1 0h1m2 0h2m1 0h2m4 0h1m3 0h2m3 0h6m2 0h1m1 0h1m6 0h1m3 0h4m2 0h1m1 0h1m1 0h2m2 0h1m2 0h7m1 0h3m2 0h4m4 0h4m2 0h1m1 0h1M7 96.5h2m1 0h1m2 0h2m1 0h2m1 0h2m2 0h2m2 0h1m1 0h2m1 0h2m1 0h3m3 0h3m1 0h1m1 0h1m1 0h2m1 0h6m2 0h12m3 0h4m3 0h1m1 0h1m1 0h1m2 0h3m1 0h2m3 0h1m1 0h2m1 0h1m1 0h1m4 0h1m1 0h5m2 0h1m7 0h4m1 0h2m5 0h2m1 0h1m1 0h2m1 0h4m2 0h2m2 0h4m1 0h1m4 0h1m2 0h4m1 0h2m2 0h2M4 97.5h1m1 0h1m1 0h1m3 0h7m2 0h2m2 0h1m3 0h1m1 0h1m3 0h1m2 0h2m1 0h1m1 0h1m3 0h3m2 0h3m1 0h3m2 0h1m1 0h2m2 0h1m1 0h5m4 0h1m1 0h1m1 0h1m7 0h1m2 0h2m5 0h1m3 0h1m1 0h1m2 0h1m2 0h1m4 0h8m1 0h2m3 0h1m1 0h6m2 0h1m3 0h4m2 0h2m1 0h1m1 0h1m1 0h1m2 0h1m2 0h1m1 0h3m1 0h4m1 0h1m2 0h1m1 0h1M10 98.5h1m2 0h4m2 0h3m6 0h2m1 0h2m1 0h1m2 0h1m3 0h2m1 0h3m3 0h3m2 0h1m1 0h2m3 0h4m1 0h7m1 0h1m1 0h4m1 0h1m1 0h2m7 0h1m2 0h1m1 0h2m1 0h3m1 0h1m3 0h2m1 0h4m5 0h1m2 0h1m2 0h1m1 0h1m1 0h1m1 0h15m2 0h2m1 0h3m3 0h3m1 0h1m1 0h1m1 0h1m1 0h4m1 0h1m1 0h1M4 99.5h2m3 0h1m1 0h2m1 0h1m1 0h1m1 0h4m3 0h2m2 0h2m1 0h1m1 0h2m1 0h5m1 0h2m1 0h4m2 0h1m4 0h2m1 0h1m4 0h3m1 0h1m1 0h1m1 0h2m1 0h1m2 0h1m1 0h1m4 0h1m1 0h1m1 0h1m2 0h1m1 0h3m1 0h1m1 0h1m2 0h1m1 0h2m1 0h1m1 0h1m2 0h1m2 0h1m5 0h2m1 0h1m2 0h3m2 0h3m1 0h2m2 0h1m4 0h2m3 0h1m1 0h4m3 0h1m1 0h1m1 0h3m1 0h1m3 0h1m3 0h2M6 100.5h1m1 0h1m1 0h3m1 0h1m3 0h1m1 0h3m4 0h2m2 0h4m1 0h2m2 0h1m3 0h1m2 0h2m1 0h2m1 0h3m3 0h1m2 0h1m1 0h1m2 0h1m1 0h2m2 0h4m1 0h1m3 0h1m1 0h2m1 0h1m1 0h4m1 0h2m1 0h1m2 0h4m1 0h1m1 0h1m2 0h1m1 0h4m3 0h3m5 0h2m1 0h1m1 0h2m1 0h1m1 0h1m4 0h1m2 0h1m2 0h1m1 0h1m2 0h1m2 0h4m2 0h1m1 0h1m4 0h2m9 0h1M4 101.5h2m1 0h3m3 0h1m1 0h5m4 0h1m1 0h2m1 0h4m4 0h2m1 0h1m1 0h1m1 0h1m2 0h2m1 0h2m1 0h1m2 0h5m1 0h1m1 0h3m3 0h1m1 0h1m2 0h1m1 0h1m1 0h3m1 0h2m6 0h1m1 0h3m3 0h3m4 0h1m2 0h1m1 0h3m2 0h2m1 0h2m3 0h3m2 0h1m1 0h1m2 0h4m1 0h1m5 0h2m2 0h1m1 0h1m1 0h1m1 0h5m2 0h4m2 0h1m2 0h2m1 0h2m4 0h1M4 102.5h3m1 0h3m1 0h1m4 0h1m1 0h3m3 0h3m1 0h1m1 0h3m2 0h1m3 0h1m1 0h2m1 0h2m5 0h1m4 0h3m2 0h4m1 0h2m1 0h1m1 0h1m4 0h1m1 0h4m1 0h2m1 0h1m3 0h1m3 0h1m1 0h1m1 0h1m1 0h2m1 0h2m1 0h1m1 0h3m2 0h3m1 0h1m2 0h2m1 0h1m4 0h1m2 0h2m9 0h1m2 0h1m3 0h1m2 0h2m5 0h2m3 0h1m5 0h1m2 0h1m2 0h2M4 103.5h1m3 0h1m3 0h1m3 0h1m1 0h3m4 0h1m2 0h2m1 0h1m1 0h3m2 0h3m2 0h1m2 0h2m3 0h2m2 0h1m2 0h1m1 0h1m3 0h3m4 0h1m1 0h4m1 0h1m4 0h1m4 0h1m1 0h1m4 0h4m2 0h2m1 0h1m1 0h1m3 0h1m4 0h1m1 0h1m5 0h4m6 0h4m1 0h2m1 0h1m3 0h1m2 0h1m2 0h1m2 0h2m3 0h1m4 0h5m3 0h4m1 0h2M4 104.5h1m1 0h2m2 0h1m3 0h1m2 0h1m1 0h2m3 0h1m1 0h1m6 0h4m1 0h1m2 0h4m4 0h2m3 0h1m1 0h1m4 0h3m1 0h3m1 0h1m5 0h5m1 0h1m1 0h1m5 0h2m1 0h2m3 0h1m1 0h2m2 0h1m1 0h3m1 0h2m1 0h1m6 0h2m2 0h1m3 0h3m7 0h1m1 0h1m1 0h4m3 0h1m1 0h1m2 0h1m3 0h2m3 0h1m1 0h2m3 0h2m2 0h1m3 0h1m2 0h1M6 105.5h1m5 0h2m2 0h2m1 0h2m2 0h1m2 0h3m1 0h2m7 0h1m3 0h3m1 0h3m1 0h7m2 0h3m5 0h1m1 0h4m1 0h2m3 0h1m2 0h2m5 0h2m1 0h3m4 0h1m3 0h4m1 0h1m1 0h3m3 0h4m1 0h3m1 0h2m2 0h7m1 0h1m4 0h2m1 0h1m2 0h2m1 0h2m1 0h2m5 0h1m1 0h2m2 0h1m3 0h4m1 0h1m2 0h1M4 106.5h3m3 0h1m1 0h1m2 0h3m1 0h1m1 0h2m1 0h1m1 0h2m2 0h3m2 0h1m5 0h3m2 0h1m3 0h4m1 0h1m3 0h2m1 0h2m1 0h1m1 0h4m1 0h1m4 0h1m1 0h4m1 0h2m1 0h3m1 0h1m2 0h3m2 0h1m1 0h3m1 0h1m1 0h1m1 0h2m3 0h3m6 0h1m3 0h4m1 0h1m1 0h1m4 0h2m1 0h3m4 0h1m1 0h1m2 0h1m2 0h7m2 0h2m3 0h1m1 0h3M4 107.5h3m4 0h3m1 0h2m1 0h1m4 0h1m1 0h3m4 0h1m1 0h1m11 0h1m2 0h1m1 0h2m2 0h1m1 0h3m4 0h1m1 0h1m7 0h3m1 0h1m2 0h1m1 0h1m2 0h3m1 0h1m1 0h1m1 0h4m1 0h1m1 0h2m1 0h2m1 0h2m4 0h1m1 0h5m4 0h3m1 0h1m1 0h6m1 0h1m2 0h1m1 0h1m4 0h3m1 0h1m2 0h4m2 0h1m2 0h1m1 0h2m2 0h1m3 0h1m3 0h4M4 108.5h2m3 0h9m6 0h2m1 0h1m1 0h5m1 0h1m2 0h1m1 0h1m1 0h2m1 0h1m1 0h2m1 0h5m1 0h1m4 0h1m2 0h1m4 0h1m1 0h5m1 0h1m1 0h2m1 0h1m4 0h1m3 0h2m1 0h2m1 0h4m5 0h1m3 0h1m1 0h1m2 0h2m4 0h1m1 0h3m1 0h4m1 0h1m2 0h1m3 0h2m1 0h1m1 0h1m2 0h2m1 0h1m1 0h2m2 0h3m2 0h2m1 0h1m2 0h7M4 109.5h2m2 0h2m2 0h4m1 0h1m2 0h1m1 0h1m1 0h4m2 0h1m1 0h3m1 0h1m2 0h7m1 0h2m1 0h1m3 0h1m1 0h1m2 0h3m3 0h2m2 0h2m3 0h1m1 0h4m1 0h5m2 0h2m3 0h2m2 0h1m1 0h3m3 0h3m1 0h1m1 0h3m2 0h3m1 0h3m1 0h4m1 0h1m3 0h2m1 0h2m7 0h1m4 0h5m1 0h3m3 0h3m1 0h3m1 0h2m2 0h1m1 0h1m3 0h1M5 110.5h1m3 0h5m2 0h3m1 0h3m1 0h1m1 0h1m4 0h2m1 0h6m2 0h1m3 0h1m2 0h2m1 0h2m1 0h1m3 0h1m1 0h3m3 0h4m1 0h2m5 0h1m1 0h5m5 0h3m2 0h5m2 0h1m3 0h1m1 0h2m4 0h1m3 0h1m2 0h6m1 0h4m4 0h1m2 0h2m1 0h1m2 0h1m2 0h1m1 0h1m1 0h2m2 0h1m1 0h3m3 0h1m1 0h1m3 0h2m1 0h6M7 111.5h1m1 0h1m2 0h1m1 0h1m2 0h1m3 0h3m7 0h1m2 0h1m2 0h1m3 0h2m3 0h2m1 0h1m2 0h1m2 0h1m1 0h5m1 0h1m2 0h2m1 0h1m1 0h1m1 0h2m1 0h1m1 0h1m1 0h2m3 0h4m1 0h1m1 0h1m1 0h4m3 0h1m1 0h2m2 0h2m6 0h1m1 0h1m2 0h1m3 0h1m1 0h2m2 0h4m1 0h2m4 0h2m1 0h1m3 0h1m4 0h2m5 0h1m5 0h2m1 0h1m5 0h1m2 0h3M4 112.5h2m3 0h2m5 0h4m2 0h1m2 0h1m3 0h2m2 0h1m5 0h1m3 0h2m2 0h2m1 0h1m1 0h1m1 0h1m1 0h1m4 0h2m1 0h3m2 0h1m1 0h3m1 0h6m4 0h3m1 0h1m2 0h1m1 0h2m1 0h1m1 0h2m1 0h2m1 0h2m2 0h2m1 0h2m1 0h2m1 0h4m6 0h3m1 0h1m4 0h1m1 0h4m2 0h1m2 0h1m1 0h4m1 0h1m1 0h3m2 0h1m1 0h1m2 0h1m1 0h5m1 0h2m3 0h1M8 113.5h1m2 0h2m1 0h3m1 0h2m1 0h4m4 0h1m1 0h4m2 0h4m2 0h2m1 0h1m1 0h2m4 0h1m1 0h1m3 0h2m2 0h1m2 0h2m1 0h1m1 0h3m3 0h1m1 0h1m1 0h4m4 0h2m2 0h1m2 0h1m1 0h3m1 0h1m2 0h1m2 0h1m1 0h2m3 0h4m1 0h4m1 0h2m2 0h1m3 0h1m1 0h4m1 0h1m3 0h2m5 0h3m1 0h1m2 0h1m1 0h1m2 0h1m2 0h3m1 0h1m2 0h1m2 0h1m2 0h1M7 114.5h1m2 0h5m4 0h1m1 0h1m1 0h2m2 0h1m1 0h3m2 0h2m5 0h1m1 0h1m1 0h1m1 0h1m3 0h2m2 0h1m1 0h1m1 0h1m2 0h2m3 0h5m1 0h1m3 0h1m2 0h6m2 0h1m4 0h1m1 0h1m2 0h1m3 0h1m4 0h1m2 0h7m2 0h1m2 0h1m1 0h5m5 0h2m2 0h1m3 0h2m6 0h1m2 0h3m1 0h1m1 0h2m5 0h2m3 0h3m1 0h2m1 0h2M6 115.5h2m3 0h2m3 0h2m2 0h1m1 0h1m2 0h3m1 0h4m2 0h1m1 0h2m6 0h2m2 0h1m1 0h2m2 0h1m2 0h2m1 0h1m1 0h1m1 0h3m1 0h1m3 0h2m1 0h1m1 0h2m1 0h1m1 0h1m1 0h3m2 0h7m2 0h1m3 0h4m1 0h3m2 0h1m1 0h3m5 0h1m1 0h1m1 0h1m2 0h1m1 0h2m1 0h3m3 0h2m4 0h2m2 0h1m1 0h5m2 0h2m2 0h3m2 0h1m3 0h2m2 0h2M6 116.5h1m1 0h6m1 0h1m1 0h1m1 0h3m1 0h2m3 0h9m4 0h1m1 0h1m1 0h1m1 0h2m2 0h1m2 0h1m1 0h2m2 0h8m2 0h2m1 0h2m3 0h1m3 0h3m3 0h6m6 0h1m6 0h1m3 0h2m2 0h7m3 0h1m1 0h2m1 0h3m2 0h1m3 0h4m1 0h5m1 0h3m2 0h4m2 0h2m2 0h3m1 0h2m1 0h5m2 0h2M4 117.5h1m3 0h1m3 0h5m2 0h3m1 0h1m3 0h1m1 0h1m1 0h2m3 0h1m1 0h1m4 0h3m1 0h2m1 0h2m2 0h4m1 0h2m3 0h1m1 0h1m1 0h3m4 0h2m1 0h1m1 0h1m3 0h2m2 0h1m3 0h3m1 0h1m6 0h1m2 0h2m1 0h1m2 0h2m1 0h2m3 0h5m1 0h2m5 0h2m1 0h1m1 0h2m1 0h1m2 0h1m3 0h1m2 0h7m1 0h1m1 0h1m1 0h2m2 0h2m1 0h3m3 0h2m2 0h1M4 118.5h1m2 0h2m1 0h1m1 0h2m2 0h1m2 0h1m3 0h4m3 0h1m1 0h1m1 0h1m1 0h1m2 0h2m6 0h1m1 0h4m2 0h1m4 0h1m1 0h1m1 0h2m1 0h2m1 0h4m3 0h1m1 0h2m1 0h3m3 0h1m1 0h1m1 0h1m5 0h1m1 0h1m1 0h1m1 0h1m3 0h5m1 0h1m1 0h1m1 0h1m1 0h2m2 0h1m3 0h2m1 0h1m2 0h1m1 0h1m1 0h1m5 0h1m1 0h1m1 0h2m1 0h1m3 0h1m1 0h5m3 0h3m1 0h4m1 0h1m1 0h1m1 0h1M8 119.5h1m3 0h2m1 0h2m2 0h1m2 0h1m5 0h2m1 0h2m3 0h2m6 0h1m1 0h1m3 0h1m1 0h1m2 0h3m2 0h1m3 0h1m1 0h2m1 0h1m1 0h1m1 0h2m1 0h1m1 0h2m1 0h1m4 0h3m3 0h1m1 0h1m1 0h1m4 0h6m1 0h1m4 0h1m1 0h2m3 0h2m1 0h1m1 0h1m1 0h1m1 0h2m1 0h4m1 0h1m4 0h1m1 0h1m3 0h1m5 0h2m1 0h1m1 0h3m4 0h1m4 0h2m3 0h3m1 0h1M4 120.5h1m2 0h7m4 0h3m1 0h2m2 0h5m1 0h8m2 0h1m1 0h1m2 0h1m1 0h1m4 0h2m2 0h1m1 0h5m1 0h2m2 0h4m2 0h1m1 0h2m1 0h1m1 0h1m2 0h1m1 0h8m1 0h1m1 0h3m1 0h1m1 0h2m5 0h2m1 0h7m6 0h6m1 0h1m3 0h2m1 0h11m3 0h3m3 0h1m5 0h9m2 0h2M4 121.5h1m4 0h1m1 0h1m1 0h1m4 0h1m7 0h1m1 0h2m3 0h3m1 0h2m1 0h2m2 0h1m2 0h2m7 0h1m1 0h1m1 0h3m1 0h2m1 0h1m2 0h5m2 0h3m2 0h4m2 0h5m1 0h3m4 0h1m1 0h1m2 0h1m1 0h1m2 0h1m3 0h1m1 0h2m1 0h3m1 0h4m1 0h1m1 0h1m1 0h2m1 0h1m1 0h2m7 0h2m2 0h4m2 0h1m1 0h1m1 0h1m1 0h2m1 0h2m4 0h2m1 0h1m1 0h2m1 0h1M4 122.5h1m1 0h2m1 0h2m4 0h1m1 0h1m2 0h1m2 0h1m6 0h2m1 0h1m1 0h4m2 0h1m1 0h1m1 0h2m4 0h2m4 0h3m7 0h4m1 0h1m2 0h1m1 0h1m1 0h4m1 0h1m2 0h1m3 0h1m1 0h2m1 0h1m1 0h2m2 0h1m2 0h1m1 0h1m1 0h2m1 0h1m1 0h1m3 0h1m1 0h1m1 0h2m2 0h1m1 0h4m1 0h1m1 0h2m2 0h1m3 0h1m2 0h2m6 0h2m1 0h1m2 0h3m3 0h1m3 0h5m1 0h1m1 0h1M5 123.5h1m1 0h1m1 0h1m3 0h2m1 0h1m1 0h3m2 0h1m4 0h1m2 0h5m3 0h3m1 0h1m1 0h3m4 0h2m4 0h2m2 0h2m2 0h2m5 0h2m1 0h1m1 0h2m5 0h4m2 0h2m3 0h2m3 0h5m2 0h1m5 0h1m1 0h2m1 0h1m2 0h3m2 0h1m1 0h3m1 0h6m2 0h4m1 0h2m3 0h4m2 0h1m2 0h2m1 0h5m1 0h1m2 0h1m1 0h3m1 0h3M7 124.5h1m2 0h2m1 0h2m1 0h2m1 0h2m1 0h1m1 0h1m1 0h2m1 0h1m2 0h1m3 0h1m1 0h3m1 0h1m4 0h5m5 0h3m3 0h1m1 0h1m2 0h1m1 0h1m5 0h4m1 0h1m1 0h1m2 0h1m1 0h1m1 0h2m1 0h3m1 0h2m1 0h1m1 0h1m4 0h1m1 0h1m2 0h3m2 0h1m5 0h1m3 0h2m1 0h1m1 0h2m3 0h1m1 0h4m1 0h2m1 0h2m1 0h2m5 0h3m3 0h1m1 0h1m3 0h2M4 125.5h1m3 0h2m1 0h1m1 0h3m1 0h2m3 0h3m2 0h1m3 0h2m1 0h1m4 0h8m1 0h2m1 0h1m2 0h1m1 0h1m1 0h3m1 0h3m2 0h1m3 0h1m3 0h1m2 0h1m5 0h1m4 0h2m1 0h1m1 0h1m4 0h5m1 0h4m3 0h2m1 0h2m1 0h3m1 0h1m1 0h1m1 0h1m7 0h1m1 0h1m1 0h2m7 0h1m2 0h1m2 0h2m1 0h3m1 0h1m1 0h3m1 0h1m1 0h2m1 0h2m3 0h2m2 0h1M6 126.5h1m1 0h1m1 0h1m4 0h1m1 0h1m2 0h7m1 0h1m5 0h1m1 0h3m3 0h1m2 0h2m3 0h1m1 0h2m1 0h1m1 0h2m2 0h5m2 0h1m1 0h1m1 0h2m3 0h1m1 0h1m1 0h3m1 0h1m1 0h1m2 0h1m4 0h5m7 0h1m1 0h4m1 0h1m1 0h3m1 0h1m1 0h4m1 0h1m7 0h5m1 0h1m3 0h1m3 0h1m3 0h2m2 0h1m1 0h1m1 0h1m1 0h1m7 0h4m3 0h2M4 127.5h2m3 0h1m2 0h3m1 0h1m2 0h2m1 0h5m2 0h1m2 0h2m1 0h1m2 0h1m4 0h1m1 0h2m4 0h3m3 0h2m2 0h1m2 0h1m1 0h2m5 0h2m1 0h3m2 0h1m1 0h1m2 0h1m1 0h9m1 0h2m1 0h1m3 0h2m1 0h2m1 0h1m4 0h1m4 0h1m2 0h1m1 0h1m1 0h7m7 0h2m2 0h1m6 0h2m1 0h2m8 0h4m1 0h8m1 0h1M4 128.5h3m3 0h3m1 0h1m1 0h1m1 0h2m1 0h1m3 0h2m1 0h1m2 0h3m2 0h3m1 0h4m3 0h1m1 0h2m2 0h5m1 0h2m2 0h2m1 0h2m1 0h1m4 0h1m1 0h1m1 0h1m5 0h3m1 0h1m3 0h1m1 0h2m3 0h2m6 0h1m3 0h2m1 0h2m1 0h1m2 0h1m4 0h1m1 0h2m1 0h1m1 0h1m2 0h1m4 0h1m1 0h2m3 0h7m1 0h5m2 0h1m6 0h2m6 0h1m1 0h2M5 129.5h2m1 0h2m2 0h1m3 0h3m1 0h1m2 0h3m1 0h2m1 0h1m1 0h1m3 0h1m1 0h3m1 0h4m2 0h1m1 0h1m3 0h5m1 0h5m2 0h2m1 0h1m1 0h2m3 0h1m2 0h4m1 0h1m1 0h1m1 0h1m1 0h1m2 0h2m3 0h2m5 0h4m1 0h1m4 0h1m1 0h1m3 0h1m1 0h3m6 0h7m1 0h1m1 0h1m4 0h2m3 0h1m1 0h2m1 0h1m2 0h2m1 0h1m2 0h2m1 0h1m1 0h1m2 0h1m2 0h1m1 0h1M4 130.5h1m2 0h5m1 0h1m2 0h1m1 0h2m1 0h1m2 0h1m4 0h3m3 0h1m5 0h1m1 0h1m2 0h1m2 0h1m1 0h2m6 0h1m4 0h1m2 0h2m1 0h3m2 0h1m3 0h2m1 0h1m1 0h1m2 0h1m4 0h1m3 0h1m1 0h5m4 0h2m3 0h1m1 0h1m2 0h2m1 0h1m1 0h6m1 0h1m1 0h2m1 0h1m2 0h2m1 0h2m4 0h2m1 0h1m1 0h1m3 0h1m1 0h2m1 0h4m1 0h1m6 0h1m1 0h1m1 0h1M4 131.5h2m6 0h1m1 0h1m2 0h2m7 0h2m2 0h2m2 0h2m2 0h2m3 0h5m8 0h3m4 0h1m2 0h2m1 0h1m3 0h1m1 0h2m1 0h1m4 0h1m1 0h5m1 0h3m2 0h4m1 0h1m11 0h2m1 0h1m2 0h1m3 0h2m8 0h1m1 0h1m2 0h2m2 0h1m1 0h1m1 0h1m2 0h1m3 0h1m2 0h2m1 0h1m1 0h1m4 0h1m1 0h2m3 0h1m1 0h4m1 0h1M4 132.5h2m1 0h1m2 0h3m1 0h1m2 0h1m1 0h1m5 0h5m1 0h1m1 0h2m1 0h1m2 0h1m2 0h2m1 0h1m1 0h1m1 0h3m2 0h2m1 0h1m2 0h2m1 0h1m6 0h2m1 0h2m1 0h1m2 0h1m1 0h2m1 0h1m2 0h4m1 0h1m4 0h1m1 0h2m4 0h1m1 0h3m2 0h1m4 0h1m3 0h1m3 0h1m2 0h6m1 0h1m3 0h2m1 0h1m1 0h1m3 0h1m1 0h2m2 0h10m1 0h1m4 0h1m4 0h1m3 0h2M4 133.5h2m3 0h1m2 0h2m2 0h2m1 0h2m4 0h1m3 0h1m1 0h1m1 0h1m1 0h2m1 0h1m5 0h3m1 0h3m4 0h4m1 0h5m4 0h1m5 0h1m1 0h1m1 0h6m1 0h2m2 0h3m1 0h1m1 0h2m1 0h1m1 0h1m1 0h1m1 0h2m1 0h1m3 0h2m5 0h6m1 0h1m4 0h1m2 0h1m1 0h1m1 0h2m1 0h1m1 0h1m3 0h2m1 0h1m1 0h7m4 0h2m1 0h1m1 0h1m1 0h3m3 0h1m1 0h2M4 134.5h2m2 0h1m1 0h1m3 0h1m4 0h4m1 0h1m1 0h2m3 0h1m1 0h1m1 0h1m5 0h1m4 0h2m1 0h1m1 0h3m3 0h2m2 0h4m3 0h1m1 0h1m1 0h1m2 0h1m4 0h1m1 0h4m1 0h1m1 0h3m3 0h1m1 0h2m3 0h3m2 0h5m1 0h1m1 0h1m1 0h2m1 0h8m1 0h1m1 0h2m2 0h4m1 0h1m4 0h4m5 0h1m3 0h1m1 0h2m1 0h1m1 0h1m1 0h1m3 0h2m1 0h3m1 0h2M5 135.5h2m1 0h1m3 0h2m2 0h1m3 0h6m2 0h1m1 0h3m1 0h1m1 0h1m2 0h2m3 0h1m1 0h2m3 0h2m2 0h1m2 0h1m3 0h1m1 0h1m1 0h2m3 0h1m2 0h1m1 0h3m7 0h4m1 0h3m1 0h2m1 0h4m1 0h2m1 0h1m1 0h1m1 0h2m2 0h4m5 0h2m3 0h6m2 0h1m2 0h1m2 0h2m2 0h1m2 0h1m2 0h3m2 0h1m1 0h2m5 0h1m2 0h1m1 0h2m1 0h3m1 0h1M5 136.5h2m1 0h7m2 0h1m1 0h2m1 0h2m3 0h1m4 0h2m1 0h4m1 0h2m1 0h1m6 0h2m1 0h2m4 0h1m1 0h1m1 0h1m1 0h1m1 0h1m2 0h3m1 0h1m1 0h1m1 0h1m1 0h1m2 0h1m3 0h2m1 0h1m1 0h1m2 0h1m1 0h1m2 0h3m2 0h1m1 0h1m1 0h2m1 0h3m10 0h1m1 0h2m1 0h1m1 0h2m3 0h1m3 0h2m1 0h5m1 0h2m1 0h6m2 0h1m1 0h3m1 0h2m1 0h1m2 0h1m1 0h1m3 0h2M4 137.5h3m2 0h1m3 0h2m4 0h1m4 0h2m2 0h2m3 0h1m1 0h11m1 0h2m5 0h2m1 0h1m2 0h3m1 0h1m3 0h1m3 0h2m1 0h3m1 0h1m1 0h1m3 0h1m1 0h11m1 0h2m2 0h1m1 0h3m3 0h3m1 0h1m2 0h1m1 0h8m5 0h4m1 0h1m2 0h1m6 0h2m1 0h2m2 0h2m1 0h1m2 0h2m1 0h1m1 0h1m1 0h1m1 0h4m5 0h2M6 138.5h2m1 0h2m1 0h1m1 0h2m3 0h1m2 0h1m2 0h1m2 0h4m2 0h1m2 0h1m2 0h1m1 0h1m3 0h2m1 0h1m2 0h2m2 0h1m4 0h2m4 0h4m1 0h1m6 0h7m1 0h1m2 0h2m3 0h1m1 0h2m1 0h3m1 0h2m1 0h1m1 0h2m1 0h3m1 0h1m1 0h1m1 0h2m2 0h3m2 0h1m4 0h3m2 0h3m1 0h1m2 0h1m10 0h4m2 0h1m2 0h2m1 0h2m2 0h2m2 0h1M4 139.5h2m1 0h2m3 0h1m1 0h7m2 0h4m1 0h1m2 0h3m2 0h4m1 0h2m1 0h1m1 0h1m1 0h2m2 0h1m2 0h4m1 0h1m3 0h3m4 0h1m1 0h1m2 0h1m1 0h2m1 0h1m3 0h2m1 0h2m1 0h1m4 0h1m2 0h1m2 0h3m3 0h1m4 0h1m3 0h1m3 0h2m4 0h4m1 0h2m4 0h1m1 0h4m2 0h1m2 0h1m3 0h3m1 0h1m1 0h2m2 0h1m1 0h2m1 0h1m1 0h1m1 0h4m2 0h1M4 140.5h1m3 0h3m1 0h1m3 0h2m1 0h4m1 0h4m6 0h1m1 0h2m6 0h2m1 0h2m1 0h3m1 0h1m1 0h1m2 0h3m8 0h2m2 0h3m4 0h1m2 0h1m3 0h4m1 0h3m1 0h1m1 0h3m4 0h2m4 0h1m2 0h1m1 0h2m2 0h1m1 0h1m1 0h1m1 0h2m1 0h1m1 0h1m2 0h1m4 0h3m2 0h2m1 0h1m1 0h3m2 0h4m3 0h2m1 0h1m1 0h3m1 0h1m2 0h1m2 0h1m1 0h2M4 141.5h1m2 0h3m3 0h2m1 0h5m1 0h2m2 0h1m6 0h1m3 0h3m1 0h4m2 0h1m1 0h1m1 0h1m2 0h1m2 0h1m1 0h4m1 0h2m3 0h1m1 0h1m1 0h1m5 0h1m2 0h4m1 0h1m4 0h1m1 0h1m2 0h1m1 0h1m1 0h1m2 0h4m1 0h1m1 0h3m3 0h1m2 0h1m1 0h1m1 0h2m1 0h1m1 0h1m3 0h6m2 0h1m1 0h1m1 0h1m1 0h2m1 0h1m1 0h1m1 0h1m1 0h2m1 0h1m1 0h1m1 0h4m1 0h1m3 0h2m1 0h1m1 0h1m1 0h2M5 142.5h1m1 0h4m1 0h2m7 0h2m1 0h1m3 0h1m3 0h1m2 0h1m3 0h1m3 0h1m1 0h2m3 0h6m1 0h1m1 0h1m1 0h1m1 0h2m3 0h1m1 0h1m2 0h1m5 0h2m1 0h1m1 0h2m4 0h2m3 0h1m1 0h3m2 0h4m1 0h2m1 0h1m2 0h3m1 0h5m1 0h1m1 0h2m2 0h1m2 0h2m2 0h2m7 0h2m2 0h3m3 0h1m2 0h3m2 0h1m3 0h1m4 0h1m1 0h1m1 0h1m2 0h1M5 143.5h3m1 0h1m5 0h1m1 0h3m2 0h1m1 0h4m1 0h1m3 0h2m6 0h3m1 0h3m3 0h2m4 0h2m6 0h1m1 0h1m1 0h1m1 0h1m1 0h2m1 0h1m1 0h2m1 0h1m1 0h1m1 0h2m1 0h2m1 0h1m1 0h2m1 0h2m1 0h1m1 0h2m1 0h1m2 0h2m2 0h1m3 0h2m4 0h1m2 0h1m2 0h2m1 0h3m2 0h1m3 0h2m2 0h2m1 0h1m2 0h1m1 0h1m2 0h1m1 0h2m3 0h1m1 0h1m1 0h2m4 0h1m1 0h1m2 0h2M5 144.5h8m3 0h1m2 0h1m2 0h2m1 0h1m1 0h1m1 0h2m1 0h5m1 0h3m1 0h1m1 0h1m5 0h1m3 0h2m1 0h1m1 0h8m2 0h1m4 0h1m1 0h1m2 0h1m1 0h1m3 0h1m2 0h7m2 0h4m2 0h1m1 0h1m4 0h1m1 0h3m1 0h6m3 0h1m2 0h4m1 0h1m5 0h4m1 0h5m1 0h1m1 0h1m3 0h4m2 0h4m1 0h2m1 0h1m1 0h5m1 0h1m1 0h1M4 145.5h2m2 0h1m3 0h3m1 0h3m1 0h1m2 0h2m1 0h2m1 0h4m3 0h1m1 0h2m1 0h5m5 0h1m2 0h5m1 0h1m3 0h2m1 0h1m2 0h14m2 0h3m3 0h3m2 0h1m2 0h1m2 0h1m1 0h3m4 0h2m1 0h2m3 0h5m1 0h1m2 0h3m2 0h5m5 0h1m3 0h1m2 0h3m2 0h3m2 0h1m2 0h1m1 0h1m1 0h2m1 0h2m3 0h3m1 0h1M4 146.5h1m1 0h3m1 0h1m1 0h2m1 0h1m1 0h5m2 0h3m1 0h2m1 0h2m1 0h1m1 0h3m7 0h3m3 0h2m1 0h1m1 0h2m1 0h1m1 0h1m1 0h2m2 0h3m1 0h1m1 0h1m4 0h2m1 0h1m1 0h2m1 0h2m1 0h1m1 0h2m1 0h1m2 0h2m1 0h2m1 0h1m3 0h3m2 0h2m1 0h1m1 0h1m1 0h5m1 0h4m3 0h2m4 0h3m1 0h2m1 0h1m1 0h1m1 0h1m8 0h3m5 0h1m2 0h1m1 0h1m1 0h1m1 0h1m1 0h1M6 147.5h1m1 0h1m3 0h7m2 0h1m1 0h2m1 0h1m4 0h2m3 0h1m1 0h1m2 0h1m1 0h1m2 0h1m1 0h2m2 0h2m4 0h3m3 0h4m3 0h1m1 0h1m1 0h5m1 0h1m4 0h3m3 0h3m1 0h1m1 0h2m2 0h2m1 0h1m1 0h3m1 0h1m1 0h4m3 0h2m1 0h3m2 0h1m1 0h4m1 0h1m1 0h1m1 0h1m2 0h1m1 0h1m3 0h1m2 0h2m1 0h2m4 0h2m2 0h3m5 0h1m3 0h3M5 148.5h1m1 0h6m1 0h1m1 0h3m1 0h4m2 0h3m2 0h7m2 0h1m1 0h1m2 0h1m1 0h5m1 0h2m1 0h1m2 0h8m1 0h1m1 0h1m2 0h1m2 0h1m1 0h2m2 0h1m1 0h2m2 0h6m3 0h6m3 0h1m2 0h1m2 0h1m3 0h6m5 0h2m1 0h1m1 0h2m1 0h1m3 0h4m1 0h5m1 0h1m1 0h1m3 0h8m3 0h2m1 0h1m1 0h5m2 0h1M4 149.5h4m1 0h1m2 0h2m1 0h4m3 0h1m3 0h1m3 0h6m1 0h1m2 0h1m1 0h1m1 0h1m3 0h1m1 0h1m1 0h1m1 0h3m4 0h1m4 0h2m1 0h2m1 0h3m2 0h1m3 0h5m1 0h1m1 0h1m3 0h2m4 0h1m3 0h1m1 0h3m5 0h1m1 0h1m1 0h1m1 0h1m1 0h2m1 0h1m1 0h1m2 0h1m3 0h2m1 0h4m2 0h2m1 0h4m1 0h4m2 0h3m1 0h1m1 0h1m1 0h1m3 0h1m3 0h1m5 0h1m1 0h1M7 150.5h1m1 0h2m1 0h2m1 0h2m4 0h1m1 0h2m2 0h5m3 0h5m1 0h1m1 0h1m2 0h1m2 0h1m1 0h2m2 0h1m1 0h4m3 0h2m1 0h2m1 0h4m1 0h1m3 0h2m1 0h1m1 0h2m2 0h2m2 0h1m2 0h1m2 0h2m2 0h1m1 0h1m1 0h3m1 0h1m1 0h1m1 0h1m3 0h1m1 0h3m2 0h2m1 0h1m1 0h7m4 0h3m1 0h1m1 0h2m2 0h1m1 0h2m2 0h1m1 0h3m3 0h3m2 0h1m6 0h1M5 151.5h1m1 0h1m1 0h1m2 0h1m2 0h1m1 0h2m1 0h3m2 0h1m1 0h1m7 0h2m1 0h4m3 0h5m2 0h1m2 0h2m1 0h3m1 0h1m1 0h1m1 0h1m4 0h1m2 0h1m1 0h1m1 0h1m2 0h3m1 0h2m2 0h1m1 0h1m1 0h5m1 0h1m1 0h5m1 0h4m2 0h3m2 0h3m1 0h2m2 0h2m2 0h1m2 0h1m6 0h7m1 0h1m2 0h1m1 0h2m5 0h1m2 0h1m1 0h2m4 0h5m2 0h2M7 152.5h1m2 0h1m3 0h1m1 0h1m1 0h2m1 0h1m1 0h1m3 0h1m1 0h1m1 0h2m4 0h3m2 0h2m5 0h3m1 0h3m3 0h1m1 0h3m1 0h2m1 0h3m3 0h1m1 0h5m1 0h1m2 0h1m1 0h2m2 0h1m1 0h3m1 0h2m1 0h1m1 0h2m6 0h3m3 0h2m1 0h1m5 0h2m1 0h1m1 0h3m3 0h2m1 0h4m1 0h2m1 0h1m1 0h2m2 0h1m2 0h1m1 0h2m2 0h4m1 0h4m3 0h2m4 0h1M4 153.5h4m3 0h2m1 0h1m5 0h5m1 0h3m2 0h1m1 0h2m1 0h3m1 0h1m3 0h2m2 0h4m1 0h1m1 0h3m2 0h1m1 0h1m9 0h2m4 0h2m1 0h2m3 0h5m1 0h1m1 0h1m2 0h1m1 0h1m1 0h1m1 0h1m1 0h2m4 0h3m3 0h2m3 0h3m2 0h1m1 0h1m1 0h1m1 0h1m1 0h1m1 0h3m4 0h3m1 0h3m1 0h1m3 0h1m1 0h5m1 0h5m11 0h1M4 154.5h2m2 0h4m1 0h4m4 0h1m1 0h1m2 0h2m2 0h1m2 0h1m2 0h5m1 0h2m1 0h3m1 0h1m2 0h3m3 0h1m2 0h1m1 0h3m1 0h4m1 0h1m4 0h1m2 0h3m1 0h1m3 0h1m1 0h3m2 0h5m2 0h1m1 0h1m2 0h4m3 0h1m2 0h2m3 0h1m1 0h1m4 0h1m1 0h3m4 0h2m1 0h1m1 0h2m3 0h1m2 0h1m1 0h3m1 0h4m1 0h2m1 0h1m3 0h5m2 0h3M5 155.5h4m2 0h5m1 0h1m3 0h1m2 0h1m9 0h1m2 0h1m1 0h1m2 0h6m1 0h1m1 0h3m3 0h2m2 0h1m2 0h1m1 0h2m1 0h1m3 0h2m1 0h3m2 0h1m3 0h2m2 0h1m1 0h1m2 0h5m3 0h4m2 0h1m2 0h1m2 0h2m2 0h1m2 0h9m5 0h1m3 0h3m1 0h5m6 0h1m1 0h1m3 0h2m1 0h1m2 0h1m4 0h6m1 0h1M4 156.5h1m1 0h1m1 0h1m1 0h1m1 0h3m1 0h1m2 0h1m1 0h4m6 0h2m2 0h2m1 0h2m1 0h1m1 0h1m1 0h1m1 0h4m1 0h1m1 0h3m2 0h1m2 0h4m1 0h6m2 0h1m1 0h3m1 0h1m1 0h1m4 0h1m4 0h2m5 0h2m4 0h1m3 0h1m1 0h3m2 0h1m1 0h3m1 0h1m1 0h1m3 0h2m1 0h2m5 0h4m2 0h3m1 0h3m4 0h1m3 0h1m1 0h1m4 0h4m1 0h3m1 0h1m2 0h1M4 157.5h1m3 0h2m2 0h1m1 0h2m1 0h1m2 0h2m1 0h7m1 0h1m1 0h1m1 0h1m6 0h3m3 0h2m4 0h3m11 0h3m4 0h1m1 0h1m4 0h3m2 0h1m1 0h2m3 0h4m1 0h2m2 0h1m2 0h1m4 0h3m1 0h1m1 0h1m2 0h5m1 0h2m7 0h2m1 0h1m5 0h1m1 0h1m1 0h4m1 0h2m1 0h2m3 0h5m1 0h2m1 0h2m5 0h1m1 0h2M5 158.5h1m1 0h1m2 0h2m2 0h1m2 0h1m3 0h5m1 0h1m1 0h3m2 0h1m2 0h3m1 0h1m1 0h1m2 0h2m1 0h5m3 0h2m3 0h1m1 0h2m1 0h2m1 0h1m1 0h2m1 0h1m1 0h1m1 0h2m1 0h1m5 0h1m2 0h3m2 0h1m1 0h1m1 0h1m1 0h1m2 0h1m1 0h6m5 0h4m2 0h3m2 0h4m1 0h6m1 0h1m1 0h1m1 0h1m1 0h1m1 0h1m3 0h3m4 0h1m1 0h2m1 0h1m1 0h1m2 0h4m2 0h1M6 159.5h1m2 0h1m1 0h1m4 0h5m1 0h1m1 0h1m2 0h3m1 0h1m1 0h1m2 0h2m3 0h1m3 0h5m2 0h1m3 0h1m1 0h4m2 0h1m1 0h1m4 0h1m1 0h2m1 0h1m1 0h2m3 0h4m2 0h1m1 0h1m2 0h1m1 0h1m1 0h1m2 0h1m1 0h2m3 0h2m3 0h1m1 0h4m2 0h2m4 0h1m6 0h1m1 0h2m2 0h1m2 0h2m1 0h2m1 0h1m2 0h6m1 0h2m2 0h2m1 0h1m1 0h2m1 0h1m1 0h2m2 0h4M5 160.5h1m2 0h3m1 0h2m1 0h2m1 0h1m1 0h2m2 0h1m1 0h3m2 0h1m1 0h3m2 0h1m1 0h1m2 0h2m1 0h3m1 0h2m2 0h3m2 0h1m1 0h1m1 0h5m2 0h3m5 0h1m2 0h2m1 0h1m1 0h2m1 0h1m4 0h2m1 0h1m1 0h2m5 0h1m3 0h4m2 0h2m1 0h1m3 0h1m1 0h1m1 0h1m1 0h4m4 0h1m2 0h2m2 0h2m3 0h5m1 0h1m2 0h1m3 0h2m1 0h1m1 0h2m1 0h1m1 0h1m2 0h2m1 0h1M4 161.5h1m1 0h3m3 0h5m1 0h1m1 0h2m5 0h1m1 0h1m9 0h2m1 0h1m1 0h1m1 0h1m1 0h1m4 0h1m2 0h1m1 0h1m1 0h1m7 0h3m3 0h2m1 0h1m4 0h6m1 0h2m1 0h1m1 0h2m3 0h2m3 0h1m1 0h2m1 0h1m2 0h1m4 0h2m2 0h2m1 0h1m1 0h1m2 0h1m3 0h4m1 0h1m3 0h1m1 0h1m2 0h2m1 0h3m3 0h2m4 0h3m1 0h1m1 0h1m1 0h4m1 0h1m1 0h2m1 0h1M4 162.5h1m3 0h3m2 0h1m4 0h2m3 0h3m5 0h3m1 0h1m1 0h4m4 0h2m5 0h2m7 0h1m1 0h3m1 0h2m1 0h1m1 0h1m2 0h2m2 0h2m1 0h4m3 0h1m2 0h1m3 0h5m1 0h4m2 0h1m1 0h2m2 0h1m1 0h1m2 0h1m1 0h1m1 0h1m1 0h2m1 0h1m1 0h2m1 0h1m2 0h4m1 0h1m1 0h3m1 0h2m2 0h1m2 0h1m3 0h4m3 0h1m3 0h4m2 0h1m2 0h2M4 163.5h1m1 0h1m1 0h1m2 0h1m2 0h2m1 0h3m4 0h1m1 0h3m1 0h1m1 0h3m1 0h1m2 0h1m3 0h1m2 0h4m1 0h2m2 0h2m1 0h1m1 0h6m1 0h1m1 0h1m1 0h1m1 0h2m1 0h4m3 0h1m1 0h4m1 0h2m1 0h1m2 0h1m1 0h2m4 0h2m2 0h1m1 0h1m2 0h3m1 0h2m1 0h1m1 0h3m1 0h4m3 0h1m2 0h2m2 0h1m1 0h1m3 0h1m1 0h1m2 0h1m1 0h2m2 0h1m3 0h1m2 0h1m1 0h1m1 0h1m2 0h1m1 0h1m1 0h6M8 164.5h1m1 0h2m1 0h1m4 0h1m3 0h2m2 0h1m2 0h1m1 0h1m1 0h3m2 0h2m1 0h2m1 0h4m1 0h2m1 0h1m1 0h1m1 0h2m1 0h3m1 0h1m3 0h1m2 0h1m1 0h2m1 0h3m2 0h1m1 0h1m1 0h2m5 0h1m1 0h2m5 0h4m1 0h3m1 0h1m1 0h3m1 0h1m3 0h1m1 0h1m1 0h1m1 0h1m1 0h6m2 0h1m1 0h1m2 0h3m1 0h4m2 0h3m3 0h1m1 0h2m2 0h1m1 0h1m2 0h4m5 0h1m2 0h1M5 165.5h5m1 0h1m2 0h5m2 0h1m2 0h3m1 0h3m1 0h3m1 0h1m6 0h3m2 0h1m4 0h4m6 0h1m1 0h1m5 0h2m3 0h1m2 0h1m3 0h3m1 0h1m1 0h4m1 0h1m1 0h2m1 0h2m2 0h4m4 0h2m6 0h4m1 0h1m1 0h2m1 0h1m3 0h2m1 0h1m1 0h2m8 0h1m2 0h2m2 0h4m3 0h1m1 0h3m1 0h1m2 0h3m1 0h1m3 0h2M4 166.5h1m2 0h4m1 0h3m1 0h3m1 0h1m2 0h2m1 0h2m1 0h2m3 0h1m3 0h1m1 0h1m6 0h1m1 0h2m1 0h1m1 0h2m2 0h1m3 0h1m1 0h1m2 0h1m2 0h1m1 0h2m6 0h1m1 0h3m5 0h4m3 0h4m1 0h2m1 0h1m1 0h2m2 0h1m1 0h2m3 0h1m3 0h1m1 0h1m1 0h3m1 0h1m3 0h5m3 0h1m1 0h2m1 0h2m2 0h1m1 0h1m5 0h3m1 0h1m1 0h2m2 0h1m2 0h1m4 0h1m1 0h1M4 167.5h1m2 0h1m1 0h1m1 0h1m1 0h1m1 0h3m1 0h1m1 0h1m1 0h1m1 0h1m2 0h2m1 0h1m2 0h1m1 0h3m2 0h2m1 0h2m2 0h1m2 0h4m3 0h3m1 0h1m2 0h2m1 0h2m4 0h1m1 0h1m1 0h2m1 0h1m4 0h1m1 0h2m4 0h3m7 0h3m1 0h4m1 0h3m1 0h2m1 0h2m1 0h1m1 0h1m2 0h1m2 0h2m3 0h1m1 0h1m1 0h1m2 0h5m3 0h1m1 0h2m1 0h1m2 0h2m4 0h4m2 0h5m2 0h2M4 168.5h7m1 0h2m2 0h3m1 0h1m1 0h1m1 0h2m6 0h4m1 0h1m2 0h1m1 0h3m1 0h3m1 0h3m2 0h2m2 0h1m1 0h2m1 0h1m2 0h2m2 0h1m1 0h4m1 0h1m20 0h2m1 0h2m2 0h1m2 0h1m2 0h1m3 0h2m1 0h1m3 0h1m4 0h5m4 0h1m2 0h3m1 0h1m5 0h2m6 0h5m2 0h2m2 0h2m1 0h1m1 0h4m1 0h2M4 169.5h1m1 0h1m1 0h2m4 0h3m1 0h2m4 0h1m1 0h2m6 0h1m3 0h2m2 0h3m1 0h1m1 0h4m3 0h2m6 0h1m2 0h1m1 0h1m1 0h2m5 0h1m2 0h1m1 0h3m5 0h3m1 0h1m5 0h1m2 0h1m1 0h2m1 0h2m2 0h2m3 0h1m3 0h2m1 0h1m1 0h2m3 0h1m1 0h2m1 0h1m1 0h2m5 0h1m1 0h2m1 0h4m2 0h1m5 0h1m1 0h5m1 0h2m1 0h3m1 0h1m2 0h1M4 170.5h3m2 0h9m2 0h4m2 0h2m1 0h4m3 0h1m2 0h4m7 0h4m1 0h1m1 0h2m1 0h6m1 0h2m1 0h1m1 0h1m2 0h1m4 0h1m1 0h4m3 0h4m2 0h4m1 0h1m1 0h4m1 0h2m1 0h1m3 0h1m2 0h4m1 0h1m3 0h2m1 0h5m2 0h2m1 0h2m4 0h1m1 0h1m6 0h2m2 0h3m5 0h2m1 0h1m2 0h2m1 0h1M7 171.5h1m6 0h2m2 0h1m2 0h7m2 0h1m2 0h1m2 0h1m1 0h1m1 0h7m1 0h1m2 0h2m2 0h1m2 0h1m2 0h2m1 0h3m8 0h2m1 0h1m6 0h4m2 0h1m1 0h2m1 0h1m1 0h1m2 0h1m4 0h3m1 0h2m3 0h1m1 0h8m4 0h2m1 0h1m1 0h1m1 0h1m2 0h1m2 0h2m1 0h2m1 0h1m5 0h1m5 0h1m2 0h1m1 0h3m3 0h2m1 0h1m2 0h2M5 172.5h1m1 0h1m1 0h2m3 0h2m5 0h1m2 0h2m2 0h10m1 0h4m1 0h1m2 0h1m1 0h1m1 0h3m1 0h2m2 0h7m1 0h3m4 0h1m1 0h4m8 0h7m2 0h5m5 0h1m1 0h1m2 0h2m1 0h6m6 0h2m1 0h4m1 0h3m1 0h2m1 0h1m1 0h5m1 0h1m2 0h1m1 0h6m1 0h3m1 0h2m1 0h2m1 0h5M12 173.5h1m5 0h2m2 0h2m1 0h1m2 0h1m2 0h2m3 0h1m2 0h2m1 0h1m1 0h1m1 0h1m1 0h1m1 0h1m2 0h2m1 0h1m3 0h1m3 0h1m1 0h2m1 0h1m2 0h2m1 0h1m1 0h2m1 0h4m1 0h1m1 0h2m3 0h5m1 0h1m1 0h2m4 0h1m1 0h1m4 0h1m2 0h1m3 0h3m1 0h4m1 0h1m3 0h4m1 0h2m4 0h1m3 0h3m1 0h1m1 0h1m7 0h2m1 0h2m1 0h1m1 0h3m3 0h1m2 0h2M4 174.5h7m1 0h2m1 0h1m1 0h1m3 0h1m1 0h2m4 0h1m2 0h1m1 0h1m1 0h1m2 0h2m2 0h1m1 0h3m1 0h4m2 0h1m1 0h2m1 0h1m1 0h1m1 0h1m3 0h1m1 0h1m1 0h1m2 0h1m1 0h1m2 0h1m1 0h1m1 0h2m1 0h2m1 0h1m1 0h1m2 0h1m1 0h1m1 0h1m1 0h1m1 0h1m3 0h1m2 0h2m1 0h4m1 0h1m1 0h1m3 0h1m5 0h2m2 0h2m1 0h1m3 0h4m1 0h1m1 0h1m1 0h1m3 0h2m4 0h1m3 0h1m1 0h1m2 0h1m2 0h1m1 0h1m1 0h1m1 0h2M4 175.5h1m5 0h1m2 0h2m3 0h1m3 0h2m1 0h1m3 0h2m1 0h1m3 0h2m5 0h1m1 0h4m2 0h3m3 0h4m3 0h1m1 0h2m1 0h1m3 0h2m1 0h1m1 0h1m2 0h1m1 0h1m1 0h2m1 0h1m3 0h2m2 0h2m3 0h4m1 0h6m1 0h4m3 0h2m3 0h1m1 0h1m1 0h2m2 0h1m5 0h1m2 0h3m3 0h2m3 0h2m5 0h2m1 0h4m1 0h1m3 0h1m3 0h1m1 0h1m1 0h1M4 176.5h1m1 0h3m1 0h1m1 0h2m2 0h4m1 0h1m1 0h1m7 0h8m2 0h2m2 0h1m2 0h5m1 0h2m4 0h5m1 0h1m2 0h3m1 0h2m4 0h1m2 0h1m2 0h2m1 0h5m2 0h1m1 0h2m1 0h1m1 0h1m2 0h3m3 0h2m3 0h5m7 0h6m5 0h10m1 0h6m1 0h2m2 0h2m1 0h2m3 0h9m1 0h2M4 177.5h1m1 0h3m1 0h1m1 0h3m2 0h1m1 0h1m1 0h1m2 0h4m1 0h5m1 0h1m2 0h2m1 0h4m2 0h2m1 0h1m2 0h1m1 0h2m3 0h1m2 0h1m1 0h1m3 0h2m1 0h1m1 0h1m1 0h2m1 0h2m1 0h2m4 0h2m2 0h1m1 0h1m9 0h1m1 0h1m2 0h1m2 0h2m1 0h1m5 0h2m1 0h4m6 0h1m1 0h1m1 0h2m3 0h2m4 0h2m1 0h2m1 0h1m5 0h5m1 0h2m1 0h1m2 0h5M4 178.5h1m1 0h3m1 0h1m1 0h2m1 0h2m2 0h2m1 0h2m2 0h1m2 0h2m1 0h2m1 0h6m1 0h1m2 0h2m2 0h1m2 0h2m1 0h1m1 0h1m1 0h3m6 0h6m1 0h1m3 0h7m6 0h1m2 0h5m2 0h2m1 0h3m1 0h2m1 0h1m1 0h2m1 0h2m1 0h5m2 0h1m6 0h1m2 0h2m3 0h2m3 0h2m1 0h1m3 0h1m5 0h1m5 0h2m1 0h1m1 0h3m1 0h1m2 0h1M4 179.5h1m5 0h1m1 0h2m4 0h2m7 0h4m1 0h2m2 0h4m2 0h1m3 0h1m4 0h1m1 0h1m1 0h1m1 0h2m3 0h1m1 0h1m1 0h1m2 0h1m4 0h1m1 0h1m1 0h2m1 0h2m2 0h3m1 0h1m2 0h2m2 0h3m3 0h4m2 0h1m1 0h1m1 0h3m4 0h2m3 0h2m2 0h6m2 0h1m4 0h2m5 0h3m2 0h3m3 0h2m4 0h2m2 0h1m2 0h2m1 0h1m1 0h2M4 180.5h7m1 0h1m2 0h2m1 0h1m1 0h1m1 0h2m2 0h1m2 0h1m3 0h4m3 0h1m1 0h1m1 0h1m2 0h1m1 0h4m1 0h3m5 0h3m2 0h1m1 0h1m1 0h1m2 0h3m2 0h1m1 0h1m4 0h1m1 0h1m8 0h1m1 0h3m3 0h3m1 0h1m1 0h1m2 0h1m1 0h3m1 0h2m6 0h4m5 0h1m2 0h1m1 0h3m1 0h1m1 0h1m2 0h1m1 0h2m3 0h7m2 0h2m1 0h3m1 0h1m4 0h1"/></svg>
