<?xml version="1.0" encoding="utf-8"?><!DOCTYPE svg PUBLIC "-//W3C//DTD SVG 1.1//EN" "http://www.w3.org/Graphics/SVG/1.1/DTD/svg11.dtd"><svg xmlns="http://www.w3.org/2000/svg" viewBox="0 0 181 181" shape-rendering="crispEdges"><path fill="#ffffff" d="M0 0h181v181H0z"/><path stroke="#000000" d="M4 4.5h7m2 0h3m4 0h1m5 0h3m1 0h1m2 0h2m4 0h1m1 0h4m1 0h1m1 0h1m2 0h1m2 0h3m4 0h3m6 0h2m3 0h3m2 0h1m1 0h2m1 0h2m2 0h1m1 0h2m1 0h4m2 0h2m1 0h1m2 0h3m3 0h1m2 0h3m3 0h2m1 0h1m1 0h1m2 0h1m1 0h1m1 0h4m1 0h1m2 0h2m1 0h1m1 0h1m5 0h3m1 0h2m1 0h1m1 0h6m3 0h7M4 5.5h1m5 0h1m1 0h1m1 0h2m1 0h1m4 0h1m5 0h1m1 0h1m2 0h1m2 0h1m4 0h1m1 0h1m1 0h2m3 0h4m1 0h1m1 0h1m1 0h2m4 0h1m1 0h2m1 0h1m1 0h1m2 0h1m3 0h2m1 0h3m1 0h3m1 0h2m1 0h1m3 0h2m1 0h2m1 0h2m5 0h2m4 0h1m1 0h1m1 0h6m2 0h2m9 0h1m3 0h1m1 0h1m1 0h2m1 0h1m4 0h1m2 0h1m1 0h2m8 0h1m5 0h1M4 6.5h1m1 0h3m1 0h1m3 0h5m1 0h1m2 0h1m1 0h2m4 0h3m1 0h1m10 0h2m1 0h1m2 0h2m3 0h1m2 0h1m1 0h1m1 0h2m1 0h1m5 0h7m3 0h1m1 0h1m2 0h6m1 0h3m4 0h3m3 0h4m2 0h1m5 0h2m1 0h10m3 0h1m1 0h1m1 0h1m1 0h3m3 0h1m4 0h2m1 0h1m2 0h1m6 0h1m1 0h1m1 0h1m1 0h3m1 0h1M4 7.5h1m1 0h3m1 0h1m1 0h1m1 0h1m2 0h1m2 0h3m2 0h1m1 0h2m3 0h5m1 0h1m1 0h1m1 0h4m1 0h1m1 0h2m2 0h6m1 0h2m1 0h2m1 0h1m2 0h1m2 0h4m3 0h1m1 0h2m3 0h1m2 0h1m1 0h1m1 0h1m3 0h1m1 0h3m1 0h1m1 0h1m3 0h1m2 0h1m1 0h1m1 0h1m1 0h1m1 0h2m5 0h7m5 0h3m3 0h7m3 0h4m3 0h1m1 0h1m2 0h1m2 0h1m1 0h3m1 0h1M4 8.5h1m1 0h3m1 0h1m2 0h1m1 0h3m2 0h2m1 0h2m1 0h1m1 0h5m4 0h5m2 0h5m5 0h7m1 0h1m2 0h2m3 0h1m3 0h1m2 0h1m1 0h1m2 0h7m4 0h3m1 0h1m1 0h3m3 0h2m1 0h2m1 0h7m3 0h2m1 0h1m1 0h2m3 0h1m2 0h1m1 0h1m1 0h1m1 0h5m2 0h1m2 0h1m3 0h1m1 0h3m3 0h7m1 0h1m1 0h3m1 0h1M4 9.5h1m5 0h1m1 0h1m4 0h1m2 0h1m2 0h1m2 0h3m3 0h4m2 0h1m4 0h1m1 0h3m2 0h4m2 0h1m3 0h2m1 0h1m4 0h5m6 0h2m1 0h3m3 0h5m2 0h5m2 0h1m7 0h3m3 0h1m1 0h3m1 0h1m2 0h1m3 0h1m1 0h1m1 0h1m2 0h5m3 0h1m2 0h2m4 0h1m6 0h2m1 0h1m1 0h1m2 0h1m1 0h1m5 0h1M4 10.5h7m1 0h1m1 0h1m1 0h1m1 0h1m1 0h1m1 0h1m1 0h1m1 0h1m1 0h1m1 0h1m1 0h1m1 0h1m1 0h1m1 0h1m1 0h1m1 0h1m1 0h1m1 0h1m1 0h1m1 0h1m1 0h1m1 0h1m1 0h1m1 0h1m1 0h1m1 0h1m1 0h1m1 0h1m1 0h1m1 0h1m1 0h1m1 0h1m1 0h1m1 0h1m1 0h1m1 0h1m1 0h1m1 0h1m1 0h1m1 0h1m1 0h1m1 0h1m1 0h1m1 0h1m1 0h1m1 0h1m1 0h1m1 0h1m1 0h1m1 0h1m1 0h1m1 0h1m1 0h1m1 0h1m1 0h1m1 0h1m1 0h1m1 0h1m1 0h1m1 0h1m1 0h1m1 0h1m1 0h1m1 0h1m1 0h1m1 0h1m1 0h1m1 0h1m1 0h1m1 0h1m1 0h1m1 0h1m1 0h1m1 0h1m1 0h1m1 0h1m1 0h1m1 0h1m1 0h1m1 0h7M14 11.5h1m1 0h1m1 0h2m2 0h1m4 0h2m3 0h1m1 0h1m1 0h1m1 0h3m2 0h1m1 0h2m2 0h1m3 0h1m2 0h1m3 0h3m1 0h3m2 0h1m6 0h2m3 0h1m2 0h1m3 0h2m6 0h1m4 0h8m1 0h3m3 0h1m1 0h2m3 0h1m3 0h1m2 0h1m2 0h1m4 0h3m3 0h2m1 0h3m2 0h1m1 0h1m2 0h1m2 0h1m2 0h1m2 0h1M4 12.5h5m1 0h5m5 0h2m1 0h2m2 0h6m3 0h3m3 0h1m1 0h2m1 0h4m1 0h1m1 0h7m2 0h2m1 0h4m2 0h1m1 0h1m1 0h1m2 0h1m3 0h9m1 0h1m3 0h1m2 0h1m5 0h2m4 0h5m1 0h4m1 0h1m1 0h1m1 0h4m1 0h1m2 0h1m3 0h8m2 0h3m3 0h1m1 0h2m1 0h1m1 0h1m2 0h1m2 0h2m1 0h1m1 0h1m1 0h1M5 13.5h3m1 0h1m1 0h2m1 0h1m2 0h2m1 0h1m1 0h5m1 0h1m2 0h1m1 0h3m1 0h1m5 0h7m5 0h2m2 0h1m1 0h1m3 0h1m2 0h3m2 0h5m2 0h2m4 0h1m2 0h1m3 0h3m1 0h1m1 0h2m2 0h1m2 0h1m8 0h2m2 0h1m2 0h1m1 0h3m3 0h1m5 0h5m1 0h2m1 0h3m3 0h4m1 0h1m1 0h1m2 0h2m1 0h1m1 0h1m4 0h2m1 0h1m1 0h1M5 14.5h2m1 0h5m1 0h1m2 0h1m3 0h1m1 0h3m1 0h1m3 0h1m1 0h1m1 0h1m5 0h1m3 0h3m3 0h2m1 0h1m1 0h2m2 0h2m3 0h1m1 0h4m4 0h3m1 0h7m2 0h1m1 0h2m3 0h1m2 0h5m1 0h1m3 0h3m1 0h2m1 0h2m3 0h1m2 0h2m1 0h4m4 0h1m1 0h2m2 0h1m2 0h1m1 0h1m1 0h4m2 0h1m1 0h1m4 0h1m5 0h1m1 0h1m1 0h2m3 0h1M4 15.5h5m4 0h1m1 0h1m2 0h2m2 0h1m1 0h2m1 0h1m2 0h3m2 0h1m2 0h1m4 0h1m1 0h5m2 0h1m2 0h2m2 0h1m1 0h6m4 0h9m3 0h1m3 0h1m4 0h1m1 0h3m6 0h2m1 0h4m3 0h2m2 0h1m1 0h3m2 0h1m2 0h1m2 0h4m1 0h1m3 0h1m1 0h5m1 0h1m5 0h2m4 0h1m4 0h3m3 0h1m4 0h1M5 16.5h1m3 0h3m2 0h2m3 0h1m1 0h1m1 0h1m1 0h1m1 0h2m4 0h13m2 0h1m1 0h2m2 0h1m2 0h2m1 0h1m1 0h4m1 0h2m1 0h1m1 0h3m1 0h3m4 0h2m4 0h3m5 0h1m2 0h2m1 0h1m1 0h3m4 0h1m1 0h8m3 0h1m1 0h4m1 0h1m2 0h1m5 0h2m2 0h2m1 0h3m2 0h1m1 0h4m1 0h5m1 0h1m1 0h2m2 0h1m1 0h1m1 0h1M4 17.5h4m4 0h3m1 0h3m4 0h2m1 0h1m1 0h1m1 0h2m2 0h1m4 0h2m2 0h2m3 0h2m1 0h5m1 0h1m3 0h1m6 0h5m2 0h1m3 0h5m3 0h1m3 0h2m1 0h1m2 0h1m6 0h4m5 0h1m2 0h1m1 0h2m1 0h2m1 0h3m4 0h1m1 0h2m1 0h1m1 0h6m2 0h1m4 0h2m1 0h1m1 0h1m1 0h2m2 0h1m1 0h1m2 0h2m3 0h3M4 18.5h2m2 0h1m1 0h1m1 0h1m1 0h3m1 0h2m1 0h1m4 0h2m7 0h1m1 0h1m7 0h3m4 0h2m1 0h3m1 0h1m5 0h1m1 0h2m1 0h1m1 0h2m1 0h1m1 0h1m2 0h7m1 0h4m4 0h1m1 0h2m1 0h3m1 0h1m2 0h1m1 0h1m1 0h1m3 0h1m4 0h2m4 0h5m3 0h4m1 0h1m2 0h2m1 0h5m2 0h1m1 0h1m3 0h2m4 0h8M4 19.5h1m1 0h1m1 0h2m1 0h1m1 0h1m2 0h2m1 0h1m1 0h4m6 0h1m2 0h1m1 0h2m2 0h1m2 0h1m2 0h2m3 0h2m3 0h1m3 0h3m1 0h1m4 0h1m3 0h2m1 0h1m1 0h1m4 0h3m4 0h3m3 0h1m1 0h1m2 0h1m1 0h2m2 0h2m1 0h1m1 0h1m1 0h2m1 0h2m1 0h1m2 0h1m1 0h1m2 0h2m1 0h1m1 0h1m2 0h2m1 0h1m1 0h2m1 0h2m2 0h1m2 0h2m1 0h2m1 0h1m1 0h2m2 0h1m2 0h1m3 0h1m2 0h1m1 0h2M5 20.5h6m2 0h2m1 0h2m2 0h3m2 0h2m1 0h3m1 0h5m1 0h2m2 0h3m3 0h1m1 0h1m1 0h4m1 0h2m1 0h5m6 0h8m1 0h2m1 0h4m1 0h3m3 0h1m2 0h2m1 0h1m1 0h1m3 0h1m2 0h1m1 0h2m1 0h1m2 0h2m1 0h2m1 0h1m1 0h1m3 0h2m1 0h2m1 0h1m1 0h1m1 0h1m2 0h1m2 0h3m2 0h2m3 0h4m3 0h1m5 0h2m2 0h1m3 0h1M4 21.5h1m2 0h2m4 0h5m3 0h2m1 0h1m2 0h1m1 0h1m1 0h3m1 0h1m1 0h1m2 0h6m2 0h2m3 0h3m6 0h4m2 0h1m1 0h3m1 0h1m1 0h1m1 0h2m2 0h1m3 0h1m2 0h1m4 0h1m5 0h1m3 0h1m1 0h1m6 0h1m2 0h2m4 0h5m6 0h2m1 0h1m1 0h1m1 0h5m1 0h1m4 0h2m3 0h1m1 0h1m2 0h1m1 0h1m1 0h1m3 0h1m2 0h2m1 0h2M4 22.5h2m2 0h3m2 0h1m1 0h9m4 0h1m1 0h1m1 0h1m1 0h5m2 0h1m1 0h1m5 0h4m3 0h1m4 0h1m3 0h1m2 0h5m2 0h1m1 0h1m1 0h2m1 0h1m4 0h2m1 0h1m1 0h2m2 0h1m1 0h1m3 0h3m3 0h3m1 0h1m3 0h1m2 0h1m1 0h1m3 0h1m2 0h1m3 0h5m1 0h3m7 0h4m1 0h3m2 0h3m7 0h1m1 0h3M6 23.5h1m4 0h4m2 0h1m1 0h1m1 0h1m1 0h4m6 0h2m1 0h1m1 0h1m7 0h1m2 0h1m1 0h3m2 0h3m1 0h7m6 0h2m1 0h4m3 0h3m2 0h1m3 0h1m3 0h1m4 0h2m1 0h1m3 0h1m1 0h3m1 0h2m2 0h2m1 0h1m1 0h1m3 0h1m1 0h2m2 0h1m5 0h1m3 0h3m1 0h1m6 0h1m1 0h1m2 0h1m3 0h2m1 0h1m2 0h2m1 0h1m3 0h1M4 24.5h2m2 0h1m1 0h1m2 0h1m2 0h3m3 0h7m1 0h1m6 0h1m1 0h1m2 0h1m1 0h1m2 0h2m1 0h3m2 0h1m2 0h1m1 0h5m2 0h1m1 0h1m2 0h1m1 0h1m1 0h2m2 0h1m3 0h1m1 0h4m4 0h2m4 0h2m1 0h1m2 0h2m3 0h1m2 0h2m1 0h5m5 0h2m1 0h1m1 0h2m1 0h1m1 0h1m1 0h1m1 0h1m4 0h3m1 0h3m3 0h3m1 0h1m1 0h1m1 0h1m3 0h2m1 0h2m1 0h3M4 25.5h4m3 0h4m3 0h2m2 0h2m3 0h1m2 0h5m2 0h1m2 0h1m2 0h2m1 0h3m4 0h1m7 0h1m1 0h1m3 0h1m2 0h1m2 0h1m1 0h1m1 0h1m2 0h4m2 0h1m2 0h1m2 0h4m1 0h1m1 0h1m1 0h1m2 0h1m1 0h1m2 0h1m3 0h1m2 0h1m5 0h5m7 0h5m1 0h1m1 0h1m3 0h1m2 0h2m1 0h8m1 0h4m2 0h3m2 0h2m1 0h2M7 26.5h2m1 0h2m1 0h5m2 0h2m1 0h2m1 0h1m4 0h1m1 0h2m2 0h1m1 0h1m1 0h1m3 0h3m4 0h1m3 0h2m1 0h1m1 0h1m1 0h1m4 0h1m1 0h1m1 0h2m3 0h1m1 0h4m1 0h3m1 0h3m1 0h1m5 0h1m1 0h1m1 0h4m1 0h2m1 0h1m1 0h1m2 0h1m1 0h2m1 0h1m1 0h1m1 0h4m2 0h1m1 0h2m2 0h5m2 0h2m3 0h1m2 0h1m1 0h3m1 0h1m2 0h1m1 0h1m3 0h2m1 0h3m2 0h1M5 27.5h1m5 0h1m2 0h4m1 0h3m3 0h1m1 0h2m1 0h1m6 0h1m3 0h1m1 0h4m1 0h2m3 0h1m2 0h1m2 0h6m1 0h2m1 0h1m4 0h6m3 0h2m3 0h3m1 0h1m1 0h1m1 0h1m1 0h1m2 0h2m1 0h2m2 0h3m1 0h1m1 0h1m3 0h1m2 0h1m6 0h1m3 0h1m4 0h1m1 0h1m1 0h1m2 0h1m2 0h2m5 0h1m2 0h1m2 0h2m2 0h4m1 0h1M5 28.5h12m2 0h1m2 0h2m1 0h2m1 0h5m1 0h2m1 0h1m2 0h3m4 0h5m1 0h9m1 0h5m1 0h1m2 0h1m1 0h1m1 0h4m2 0h1m1 0h6m1 0h1m1 0h1m1 0h1m1 0h2m1 0h1m5 0h1m5 0h7m1 0h1m2 0h1m1 0h1m1 0h2m1 0h3m3 0h2m2 0h5m1 0h2m1 0h2m1 0h2m1 0h5m2 0h1m2 0h2m1 0h5m1 0h1M4 29.5h2m1 0h2m3 0h1m1 0h4m3 0h4m1 0h1m1 0h1m3 0h5m2 0h6m1 0h5m2 0h1m1 0h2m3 0h1m1 0h2m1 0h1m2 0h1m1 0h7m6 0h2m3 0h1m3 0h1m1 0h3m3 0h2m4 0h1m2 0h1m1 0h2m3 0h1m2 0h1m1 0h4m6 0h1m2 0h3m1 0h3m3 0h1m2 0h1m1 0h6m1 0h2m3 0h1m2 0h3m1 0h1m3 0h1m2 0h2M6 30.5h3m1 0h1m1 0h2m2 0h2m1 0h1m1 0h3m2 0h1m1 0h1m1 0h1m1 0h1m1 0h1m3 0h2m1 0h1m3 0h2m3 0h4m1 0h2m1 0h1m1 0h1m2 0h2m2 0h2m1 0h1m1 0h2m1 0h1m3 0h6m1 0h1m1 0h1m1 0h2m4 0h1m1 0h2m1 0h2m5 0h3m1 0h1m1 0h1m1 0h1m3 0h1m3 0h4m1 0h1m1 0h1m1 0h1m2 0h1m1 0h3m1 0h1m1 0h1m3 0h1m2 0h1m1 0h2m2 0h4m5 0h3m1 0h1m1 0h2M5 31.5h1m2 0h1m3 0h1m3 0h2m3 0h6m1 0h1m3 0h1m1 0h1m3 0h3m2 0h2m1 0h1m1 0h2m2 0h2m2 0h1m3 0h1m1 0h1m1 0h4m1 0h1m3 0h2m1 0h4m4 0h1m3 0h2m1 0h2m1 0h3m4 0h9m1 0h2m3 0h5m2 0h1m2 0h1m1 0h1m1 0h2m2 0h3m3 0h1m3 0h1m3 0h2m3 0h3m1 0h1m1 0h2m2 0h1m1 0h4m3 0h1M4 32.5h2m1 0h7m1 0h1m1 0h1m1 0h3m1 0h2m1 0h1m1 0h7m1 0h2m1 0h1m2 0h2m1 0h2m2 0h3m2 0h7m2 0h5m1 0h1m1 0h2m1 0h4m1 0h4m1 0h7m8 0h2m1 0h1m3 0h1m3 0h1m1 0h5m1 0h3m2 0h1m3 0h2m1 0h1m1 0h2m1 0h1m4 0h8m2 0h3m2 0h1m1 0h3m2 0h1m4 0h8m1 0h1M4 33.5h2m1 0h3m1 0h1m2 0h7m1 0h1m3 0h1m4 0h1m1 0h1m1 0h3m2 0h2m1 0h1m1 0h1m1 0h3m5 0h4m1 0h1m3 0h1m1 0h1m3 0h2m1 0h2m2 0h1m1 0h1m4 0h5m4 0h2m4 0h3m3 0h2m1 0h2m2 0h1m6 0h1m1 0h4m1 0h2m1 0h1m4 0h1m1 0h1m1 0h1m2 0h2m2 0h2m4 0h7m5 0h6m2 0h2m2 0h2M6 34.5h2m1 0h2m1 0h1m2 0h1m3 0h4m1 0h3m1 0h9m3 0h2m2 0h1m4 0h1m2 0h1m3 0h4m5 0h8m2 0h3m1 0h2m1 0h3m2 0h1m2 0h1m1 0h1m2 0h1m2 0h1m3 0h1m7 0h1m2 0h4m1 0h1m1 0h3m1 0h2m3 0h1m1 0h1m1 0h1m1 0h6m1 0h3m2 0h3m3 0h2m5 0h1m1 0h2m1 0h2m1 0h1m3 0h2M4 35.5h1m4 0h1m4 0h1m2 0h4m1 0h1m1 0h2m2 0h4m2 0h1m6 0h1m1 0h4m1 0h1m6 0h3m1 0h6m2 0h1m1 0h3m1 0h7m3 0h3m2 0h1m1 0h1m1 0h1m2 0h2m2 0h1m1 0h2m1 0h7m5 0h1m2 0h3m5 0h4m5 0h1m1 0h2m1 0h1m6 0h1m2 0h1m2 0h4m3 0h1m1 0h1m2 0h1m2 0h5m2 0h1M5 36.5h1m4 0h2m3 0h5m1 0h1m4 0h1m1 0h3m4 0h3m4 0h1m1 0h2m1 0h1m1 0h2m1 0h1m1 0h3m1 0h1m3 0h2m1 0h1m4 0h1m2 0h1m1 0h2m2 0h1m4 0h2m1 0h2m2 0h1m2 0h2m3 0h2m4 0h2m4 0h1m1 0h3m2 0h1m1 0h2m1 0h1m1 0h1m2 0h1m1 0h1m1 0h2m3 0h1m2 0h1m3 0h1m1 0h1m1 0h1m1 0h1m4 0h2m1 0h2m2 0h1m4 0h1m5 0h4M4 37.5h2m2 0h1m2 0h2m2 0h4m1 0h1m3 0h1m2 0h1m1 0h1m1 0h5m6 0h3m1 0h1m1 0h1m2 0h1m1 0h1m2 0h1m1 0h2m3 0h2m2 0h2m1 0h1m1 0h1m2 0h3m3 0h1m2 0h3m5 0h1m1 0h1m2 0h1m1 0h1m1 0h1m2 0h1m1 0h1m2 0h1m4 0h2m1 0h1m3 0h2m1 0h3m4 0h1m2 0h1m1 0h1m1 0h1m1 0h3m7 0h3m1 0h1m1 0h3m5 0h2m1 0h3m1 0h4m1 0h1M5 38.5h2m2 0h3m3 0h2m5 0h2m1 0h1m2 0h5m2 0h1m1 0h1m1 0h4m2 0h1m6 0h1m4 0h1m1 0h1m3 0h1m3 0h2m1 0h1m2 0h1m3 0h1m1 0h4m1 0h1m1 0h2m1 0h3m1 0h1m1 0h1m2 0h1m1 0h1m1 0h2m4 0h3m2 0h2m1 0h2m1 0h1m5 0h2m3 0h2m1 0h1m4 0h2m2 0h1m1 0h1m3 0h1m2 0h1m2 0h2m3 0h2m1 0h2m1 0h2m1 0h1m5 0h2M5 39.5h1m1 0h1m3 0h1m2 0h2m1 0h1m3 0h1m1 0h1m1 0h2m1 0h1m1 0h2m3 0h2m1 0h3m4 0h3m3 0h3m1 0h5m1 0h2m1 0h1m1 0h2m1 0h1m1 0h1m2 0h3m1 0h1m4 0h1m1 0h4m2 0h2m1 0h3m6 0h3m1 0h2m1 0h1m1 0h2m1 0h2m1 0h2m4 0h1m1 0h1m2 0h3m1 0h1m2 0h2m1 0h1m1 0h1m1 0h3m2 0h1m5 0h1m4 0h2m4 0h2m2 0h5m1 0h2M5 40.5h1m2 0h3m3 0h2m2 0h1m1 0h1m1 0h2m1 0h1m1 0h1m1 0h1m10 0h3m1 0h1m3 0h4m2 0h2m1 0h2m1 0h1m2 0h2m4 0h2m4 0h2m2 0h1m4 0h1m3 0h4m1 0h1m3 0h1m1 0h3m1 0h1m2 0h2m1 0h6m2 0h4m2 0h1m1 0h1m4 0h1m1 0h1m8 0h2m1 0h3m3 0h1m1 0h1m2 0h4m2 0h2m1 0h1m2 0h1m1 0h1m1 0h1m3 0h1M4 41.5h4m1 0h1m1 0h1m2 0h1m1 0h4m2 0h1m1 0h5m1 0h1m1 0h1m1 0h3m3 0h5m2 0h2m2 0h1m3 0h6m1 0h1m2 0h2m1 0h7m3 0h2m1 0h1m2 0h5m2 0h1m1 0h4m8 0h3m7 0h4m3 0h3m1 0h1m2 0h1m4 0h3m1 0h1m1 0h2m1 0h1m2 0h2m2 0h1m1 0h2m1 0h5m3 0h3m1 0h1m1 0h5m1 0h2M7 42.5h6m3 0h1m1 0h3m6 0h1m2 0h1m2 0h1m2 0h3m1 0h1m4 0h2m2 0h1m2 0h1m1 0h1m2 0h3m1 0h1m5 0h4m1 0h2m5 0h2m1 0h1m1 0h3m1 0h1m1 0h3m2 0h1m1 0h1m1 0h1m1 0h2m2 0h1m2 0h3m2 0h4m1 0h1m1 0h1m2 0h1m3 0h1m1 0h3m1 0h4m2 0h1m1 0h3m1 0h1m1 0h2m5 0h2m1 0h1m1 0h2m1 0h1m2 0h2m1 0h2m3 0h2M7 43.5h2m3 0h1m1 0h4m4 0h1m1 0h1m1 0h1m1 0h3m1 0h1m7 0h1m5 0h1m2 0h1m1 0h3m1 0h2m2 0h1m1 0h4m1 0h2m1 0h1m3 0h2m1 0h3m2 0h1m5 0h1m2 0h3m2 0h2m1 0h1m3 0h3m3 0h3m4 0h4m6 0h1m1 0h5m1 0h1m2 0h1m1 0h3m2 0h1m4 0h2m1 0h1m1 0h3m1 0h1m1 0h3m1 0h1m1 0h2m1 0h4m1 0h1m1 0h1M5 44.5h1m1 0h1m1 0h2m1 0h3m2 0h1m1 0h2m2 0h2m1 0h3m2 0h2m1 0h1m1 0h1m1 0h5m2 0h1m1 0h4m1 0h1m1 0h1m2 0h4m1 0h3m1 0h1m1 0h4m1 0h2m1 0h7m1 0h1m4 0h3m1 0h3m1 0h1m2 0h1m2 0h1m1 0h2m4 0h1m2 0h1m3 0h4m2 0h2m2 0h5m6 0h4m1 0h5m1 0h3m2 0h1m2 0h1m5 0h2m2 0h3m3 0h1m1 0h1M7 45.5h1m5 0h1m3 0h4m1 0h4m3 0h1m1 0h4m1 0h2m3 0h1m2 0h2m1 0h2m1 0h2m1 0h3m1 0h4m2 0h1m6 0h2m1 0h1m6 0h1m4 0h3m1 0h1m4 0h1m2 0h1m1 0h1m4 0h1m1 0h2m5 0h3m3 0h1m1 0h6m4 0h1m1 0h2m1 0h1m1 0h1m1 0h1m2 0h1m1 0h2m5 0h2m1 0h2m1 0h1m5 0h2m1 0h1m3 0h3m2 0h1M4 46.5h1m2 0h6m2 0h1m1 0h1m2 0h1m4 0h2m1 0h1m1 0h1m1 0h2m1 0h3m5 0h1m3 0h1m1 0h2m1 0h1m1 0h1m1 0h2m10 0h3m1 0h2m3 0h1m1 0h1m1 0h2m2 0h1m1 0h1m2 0h1m2 0h1m2 0h1m1 0h8m3 0h5m2 0h1m1 0h2m1 0h6m4 0h1m2 0h1m1 0h5m1 0h3m2 0h4m4 0h1m1 0h2m1 0h4m5 0h1m4 0h2M7 47.5h1m1 0h1m3 0h1m5 0h5m1 0h1m3 0h1m1 0h1m2 0h1m8 0h1m1 0h3m3 0h1m1 0h4m4 0h7m1 0h1m3 0h2m1 0h1m1 0h1m2 0h1m1 0h1m4 0h1m1 0h1m1 0h1m3 0h4m3 0h3m2 0h1m1 0h1m2 0h1m1 0h3m1 0h1m3 0h1m2 0h2m1 0h1m1 0h2m1 0h1m8 0h3m2 0h2m1 0h2m1 0h2m1 0h1m2 0h1m2 0h1m1 0h2m2 0h3m1 0h1m2 0h1M4 48.5h1m1 0h2m1 0h4m1 0h4m4 0h2m3 0h1m3 0h1m5 0h2m2 0h4m4 0h2m4 0h1m2 0h2m2 0h5m2 0h1m1 0h1m1 0h1m1 0h1m3 0h1m1 0h1m3 0h1m1 0h1m5 0h1m1 0h1m4 0h3m3 0h1m2 0h5m1 0h1m2 0h4m3 0h1m1 0h1m2 0h1m1 0h1m4 0h1m1 0h1m1 0h2m1 0h4m1 0h2m5 0h3m3 0h4m1 0h1m1 0h2m3 0h3M4 49.5h1m3 0h2m1 0h1m1 0h1m1 0h1m3 0h2m1 0h4m1 0h1m1 0h1m1 0h2m1 0h4m3 0h8m2 0h1m1 0h1m3 0h2m1 0h1m1 0h3m1 0h3m1 0h2m3 0h1m3 0h1m1 0h7m4 0h1m1 0h1m1 0h1m3 0h2m1 0h1m1 0h3m4 0h1m3 0h1m4 0h2m1 0h3m7 0h3m1 0h1m2 0h1m3 0h1m4 0h5m1 0h1m4 0h1m1 0h3m1 0h1m3 0h2m3 0h1M4 50.5h1m1 0h2m2 0h1m1 0h1m2 0h1m1 0h4m1 0h1m2 0h1m1 0h2m1 0h1m5 0h1m3 0h2m8 0h1m1 0h1m6 0h1m1 0h1m3 0h1m2 0h1m1 0h4m5 0h4m1 0h1m1 0h2m2 0h4m1 0h5m1 0h2m1 0h1m3 0h1m1 0h1m2 0h1m1 0h1m1 0h1m1 0h1m1 0h4m3 0h1m6 0h1m3 0h1m2 0h4m1 0h4m3 0h1m2 0h1m2 0h1m2 0h1m2 0h1m2 0h1m1 0h2m2 0h1M4 51.5h2m3 0h1m1 0h1m1 0h4m1 0h1m1 0h1m1 0h1m5 0h1m5 0h1m1 0h2m3 0h1m1 0h4m2 0h1m2 0h2m1 0h4m2 0h4m1 0h2m3 0h1m3 0h5m1 0h1m1 0h1m1 0h1m1 0h4m1 0h2m1 0h1m2 0h1m3 0h4m2 0h1m1 0h2m4 0h1m1 0h4m1 0h3m1 0h3m1 0h3m1 0h1m2 0h1m1 0h1m4 0h1m3 0h1m3 0h2m2 0h1m1 0h1m6 0h1m2 0h3m3 0h1M5 52.5h2m1 0h1m1 0h2m1 0h1m4 0h1m2 0h1m2 0h1m1 0h2m2 0h1m1 0h1m1 0h1m3 0h1m2 0h4m2 0h5m2 0h7m1 0h1m2 0h1m1 0h6m1 0h3m1 0h4m5 0h3m7 0h1m2 0h1m2 0h1m1 0h1m1 0h1m3 0h5m2 0h4m6 0h5m8 0h4m1 0h2m1 0h2m3 0h5m1 0h1m1 0h2m1 0h1m1 0h2m5 0h1m1 0h1M5 53.5h1m1 0h1m1 0h1m8 0h2m3 0h5m2 0h5m1 0h4m1 0h1m2 0h1m1 0h1m1 0h2m1 0h3m3 0h2m1 0h2m1 0h1m1 0h2m1 0h4m1 0h2m4 0h1m3 0h5m1 0h1m3 0h1m1 0h1m1 0h1m2 0h2m1 0h1m1 0h2m1 0h2m4 0h4m3 0h2m1 0h4m1 0h1m1 0h1m2 0h5m2 0h3m1 0h3m1 0h2m1 0h1m1 0h1m1 0h1m1 0h2m1 0h2m1 0h2m1 0h1m1 0h2m1 0h2m1 0h2M6 54.5h1m3 0h12m3 0h3m3 0h3m2 0h3m2 0h1m1 0h1m3 0h1m3 0h2m1 0h1m1 0h1m10 0h4m1 0h2m2 0h2m2 0h3m3 0h1m3 0h3m1 0h1m3 0h3m1 0h4m1 0h1m2 0h4m1 0h1m2 0h1m2 0h4m1 0h1m2 0h1m1 0h1m3 0h1m1 0h3m2 0h1m1 0h2m1 0h2m1 0h1m2 0h3m1 0h1m1 0h2m7 0h2m1 0h3m1 0h1M6 55.5h2m5 0h2m3 0h1m1 0h4m3 0h2m5 0h1m1 0h1m1 0h1m4 0h1m2 0h4m2 0h2m1 0h1m1 0h1m1 0h6m1 0h2m6 0h2m2 0h2m3 0h2m2 0h3m1 0h2m1 0h1m1 0h2m3 0h4m3 0h1m6 0h5m2 0h2m1 0h1m1 0h1m2 0h1m1 0h2m1 0h1m3 0h1m4 0h1m3 0h2m3 0h2m2 0h1m2 0h2m1 0h1m1 0h2m1 0h1m1 0h1M4 56.5h1m2 0h6m2 0h4m1 0h1m1 0h1m3 0h7m5 0h2m2 0h1m1 0h2m2 0h1m1 0h1m1 0h3m1 0h5m1 0h1m1 0h3m4 0h1m2 0h1m4 0h3m2 0h6m1 0h1m5 0h4m1 0h1m2 0h2m2 0h1m1 0h6m1 0h3m6 0h5m8 0h8m1 0h4m1 0h2m2 0h1m2 0h4m2 0h6m1 0h1M4 57.5h2m1 0h2m3 0h1m2 0h1m5 0h3m1 0h2m1 0h1m3 0h2m2 0h1m1 0h1m1 0h1m3 0h1m3 0h2m3 0h2m1 0h1m3 0h4m6 0h2m1 0h1m1 0h1m1 0h3m3 0h2m3 0h1m4 0h5m1 0h1m5 0h2m2 0h1m2 0h1m3 0h2m3 0h2m1 0h1m1 0h2m3 0h1m2 0h5m1 0h1m3 0h1m1 0h1m2 0h1m4 0h1m1 0h3m5 0h1m3 0h1m3 0h1m1 0h3M5 58.5h1m1 0h2m1 0h1m1 0h1m1 0h2m1 0h1m2 0h2m1 0h1m4 0h1m1 0h1m1 0h2m1 0h2m1 0h1m1 0h2m1 0h1m1 0h3m3 0h2m2 0h2m1 0h1m1 0h1m2 0h1m1 0h1m1 0h2m1 0h3m3 0h1m2 0h2m1 0h1m1 0h1m1 0h1m1 0h1m1 0h1m4 0h2m1 0h3m1 0h1m2 0h1m3 0h2m1 0h1m1 0h1m1 0h4m2 0h4m1 0h1m1 0h2m3 0h5m1 0h1m1 0h1m1 0h3m1 0h2m3 0h1m5 0h2m2 0h1m1 0h4m1 0h1m1 0h1m2 0h1M7 59.5h2m3 0h3m2 0h1m1 0h1m1 0h1m1 0h2m2 0h2m3 0h1m1 0h1m1 0h1m6 0h1m2 0h1m1 0h1m2 0h3m2 0h1m3 0h1m1 0h1m1 0h1m1 0h2m1 0h1m1 0h1m1 0h4m1 0h2m1 0h1m1 0h2m3 0h3m1 0h3m1 0h3m2 0h4m3 0h1m2 0h2m3 0h1m1 0h2m1 0h1m5 0h2m1 0h1m1 0h4m2 0h3m3 0h2m3 0h1m1 0h1m1 0h2m1 0h2m2 0h1m2 0h1m2 0h1m1 0h1m3 0h2m1 0h1M4 60.5h2m2 0h5m1 0h3m1 0h1m1 0h2m3 0h9m1 0h1m4 0h3m1 0h1m2 0h2m2 0h4m1 0h6m1 0h1m3 0h2m3 0h1m1 0h1m1 0h1m2 0h4m1 0h5m2 0h1m2 0h1m2 0h1m2 0h1m1 0h2m1 0h2m2 0h2m1 0h5m1 0h4m2 0h2m1 0h2m1 0h1m1 0h1m6 0h8m1 0h1m1 0h1m1 0h2m1 0h5m2 0h1m1 0h2m2 0h7M5 61.5h2m2 0h1m2 0h1m1 0h4m3 0h1m1 0h1m2 0h1m4 0h1m1 0h4m2 0h3m1 0h2m1 0h1m1 0h2m2 0h3m2 0h1m1 0h1m3 0h1m3 0h1m1 0h1m1 0h5m1 0h1m1 0h1m3 0h3m1 0h2m5 0h2m1 0h1m1 0h2m5 0h1m2 0h1m4 0h2m6 0h3m1 0h1m4 0h1m4 0h1m1 0h2m3 0h3m3 0h1m1 0h2m3 0h4m1 0h2m1 0h4m1 0h1m1 0h1m3 0h2M4 62.5h3m3 0h1m1 0h1m3 0h1m1 0h2m2 0h2m4 0h2m2 0h3m2 0h2m1 0h4m1 0h2m4 0h2m1 0h1m2 0h4m2 0h1m1 0h1m1 0h7m2 0h2m2 0h1m1 0h2m1 0h2m2 0h2m1 0h1m3 0h7m5 0h1m1 0h1m2 0h3m2 0h1m5 0h1m1 0h1m2 0h1m1 0h1m3 0h3m2 0h1m1 0h1m2 0h4m2 0h1m2 0h1m3 0h1m1 0h1m5 0h1m1 0h2m2 0h1M4 63.5h5m3 0h1m1 0h5m1 0h3m5 0h2m6 0h2m2 0h2m4 0h2m1 0h1m1 0h1m1 0h1m1 0h1m1 0h1m1 0h1m1 0h2m1 0h2m5 0h1m1 0h7m3 0h1m1 0h1m3 0h2m1 0h1m1 0h2m1 0h1m1 0h1m1 0h2m1 0h3m1 0h1m2 0h2m1 0h1m3 0h4m3 0h2m1 0h1m1 0h3m2 0h1m3 0h2m1 0h2m8 0h3m1 0h1m4 0h1m2 0h1m1 0h1m1 0h2m1 0h3m2 0h1M4 64.5h4m2 0h1m1 0h3m1 0h1m2 0h3m2 0h3m2 0h5m2 0h1m3 0h1m1 0h1m2 0h1m1 0h1m2 0h1m3 0h1m3 0h5m2 0h3m1 0h1m6 0h1m1 0h1m1 0h2m2 0h1m1 0h1m1 0h1m4 0h3m2 0h3m2 0h1m1 0h2m2 0h1m1 0h3m2 0h1m1 0h1m1 0h2m5 0h2m1 0h1m1 0h2m3 0h1m1 0h1m5 0h2m1 0h1m1 0h2m1 0h1m1 0h1m2 0h2m2 0h1m1 0h1m2 0h1m2 0h1m1 0h3M4 65.5h2m5 0h1m1 0h3m1 0h1m1 0h1m1 0h1m3 0h3m1 0h1m1 0h1m1 0h1m1 0h3m5 0h3m3 0h1m1 0h1m1 0h3m1 0h2m3 0h1m1 0h1m3 0h4m1 0h1m3 0h4m3 0h2m1 0h2m4 0h3m3 0h2m5 0h1m4 0h4m2 0h1m3 0h6m2 0h1m4 0h1m1 0h4m2 0h2m2 0h1m1 0h1m1 0h4m1 0h2m1 0h1m3 0h1m1 0h2m1 0h1m7 0h2M4 66.5h2m3 0h2m3 0h2m1 0h2m1 0h1m2 0h1m1 0h1m2 0h1m4 0h1m1 0h1m2 0h2m1 0h1m1 0h1m2 0h2m2 0h4m4 0h1m2 0h1m1 0h1m1 0h1m2 0h1m1 0h3m6 0h3m1 0h1m1 0h2m1 0h3m1 0h4m2 0h5m1 0h1m2 0h1m2 0h1m2 0h1m2 0h1m2 0h1m4 0h2m3 0h1m4 0h1m1 0h1m1 0h1m3 0h2m1 0h4m2 0h1m1 0h1m4 0h6m2 0h1m1 0h2m2 0h1m1 0h1M5 67.5h2m5 0h1m1 0h1m1 0h7m3 0h1m1 0h2m2 0h1m4 0h1m2 0h2m1 0h1m1 0h2m1 0h2m1 0h1m3 0h1m1 0h8m1 0h1m7 0h1m1 0h1m1 0h1m3 0h2m2 0h2m2 0h7m6 0h2m1 0h1m1 0h1m1 0h4m4 0h1m1 0h1m2 0h1m5 0h4m1 0h4m2 0h1m1 0h1m2 0h1m2 0h2m2 0h4m5 0h1m1 0h1m2 0h3m2 0h1m3 0h1M5 68.5h4m1 0h1m2 0h1m3 0h1m1 0h7m2 0h1m2 0h1m2 0h1m2 0h1m3 0h2m2 0h4m1 0h5m1 0h1m1 0h1m1 0h7m2 0h3m2 0h3m1 0h1m2 0h1m1 0h3m1 0h3m1 0h1m2 0h1m2 0h1m1 0h2m1 0h2m1 0h3m4 0h2m1 0h2m1 0h4m5 0h5m1 0h1m1 0h1m1 0h1m1 0h1m3 0h2m1 0h1m1 0h3m4 0h5m1 0h1m2 0h2m4 0h1m1 0h1m1 0h1m1 0h1M11 69.5h2m1 0h2m1 0h1m1 0h1m1 0h2m4 0h2m1 0h1m1 0h2m4 0h1m4 0h2m1 0h1m1 0h3m8 0h2m9 0h3m2 0h1m4 0h3m1 0h2m2 0h1m4 0h2m5 0h2m4 0h2m3 0h1m2 0h2m1 0h1m3 0h2m1 0h1m1 0h1m4 0h1m2 0h3m1 0h2m2 0h1m1 0h1m5 0h1m1 0h1m1 0h1m1 0h1m1 0h2m1 0h2m1 0h1m1 0h1m9 0h1M6 70.5h5m2 0h1m3 0h3m1 0h8m3 0h1m1 0h4m3 0h1m3 0h3m1 0h1m2 0h2m1 0h4m1 0h1m2 0h1m1 0h1m4 0h1m1 0h2m5 0h2m1 0h1m3 0h3m1 0h3m2 0h2m1 0h1m1 0h1m1 0h1m2 0h1m1 0h4m2 0h2m2 0h2m5 0h3m1 0h1m6 0h1m1 0h1m1 0h3m4 0h4m1 0h1m1 0h1m1 0h1m1 0h2m1 0h3m4 0h1m3 0h3m1 0h1M9 71.5h1m1 0h4m3 0h2m2 0h2m1 0h1m1 0h3m1 0h1m1 0h1m3 0h3m3 0h2m1 0h2m1 0h1m2 0h1m3 0h1m2 0h1m1 0h5m1 0h1m5 0h4m1 0h1m7 0h1m1 0h2m3 0h1m1 0h2m1 0h1m2 0h4m1 0h1m1 0h1m3 0h1m3 0h1m1 0h4m1 0h2m3 0h3m2 0h2m4 0h2m1 0h1m1 0h2m2 0h2m1 0h2m1 0h1m4 0h3m4 0h1m1 0h2m2 0h1m2 0h1M4 72.5h2m1 0h2m1 0h2m1 0h2m1 0h2m2 0h4m3 0h7m3 0h1m2 0h2m1 0h1m3 0h1m1 0h6m1 0h1m1 0h1m3 0h2m1 0h2m2 0h1m1 0h1m2 0h3m1 0h2m1 0h3m1 0h5m3 0h3m2 0h4m5 0h1m2 0h1m1 0h2m1 0h4m1 0h2m1 0h1m1 0h1m1 0h2m1 0h1m1 0h2m1 0h1m3 0h1m1 0h1m4 0h2m2 0h2m3 0h5m2 0h2m1 0h1m3 0h3m2 0h3M5 73.5h1m1 0h2m2 0h2m1 0h2m6 0h2m1 0h2m1 0h1m1 0h2m1 0h1m1 0h1m3 0h2m2 0h1m5 0h1m8 0h2m1 0h5m1 0h1m4 0h1m7 0h1m1 0h3m3 0h2m1 0h1m1 0h3m4 0h2m4 0h2m1 0h1m1 0h2m1 0h2m1 0h1m4 0h4m7 0h2m1 0h1m1 0h1m1 0h6m3 0h5m1 0h2m5 0h1m1 0h1m5 0h2m1 0h1m2 0h1M4 74.5h2m4 0h2m1 0h1m1 0h1m3 0h2m2 0h1m1 0h1m1 0h1m1 0h1m1 0h2m1 0h5m2 0h2m3 0h3m2 0h2m3 0h5m1 0h1m5 0h3m1 0h1m4 0h1m1 0h2m1 0h2m1 0h3m2 0h1m1 0h3m2 0h3m2 0h1m2 0h1m1 0h4m3 0h1m3 0h2m1 0h1m1 0h1m2 0h1m1 0h7m1 0h1m1 0h2m2 0h1m2 0h4m6 0h1m3 0h3m3 0h1m1 0h1m3 0h2M4 75.5h1m2 0h2m2 0h1m3 0h2m1 0h2m1 0h1m4 0h3m1 0h4m1 0h7m1 0h1m2 0h1m1 0h2m2 0h2m1 0h1m2 0h2m1 0h1m1 0h5m5 0h7m3 0h1m1 0h2m2 0h1m3 0h6m2 0h1m1 0h3m1 0h2m1 0h1m1 0h1m2 0h4m1 0h1m1 0h4m3 0h1m1 0h1m3 0h1m1 0h4m1 0h2m1 0h1m1 0h3m2 0h3m1 0h1m2 0h3m2 0h1m1 0h3m2 0h1m3 0h2M4 76.5h1m1 0h1m1 0h3m1 0h1m1 0h1m2 0h2m1 0h1m1 0h1m1 0h1m1 0h8m3 0h1m1 0h1m2 0h2m3 0h5m2 0h1m1 0h2m2 0h1m4 0h1m3 0h1m1 0h1m1 0h1m1 0h1m5 0h1m2 0h3m1 0h3m2 0h2m5 0h1m2 0h1m5 0h1m1 0h2m3 0h3m1 0h1m6 0h2m1 0h3m4 0h1m1 0h1m4 0h4m1 0h4m2 0h1m1 0h3m2 0h2m1 0h1m3 0h2m1 0h1m1 0h1m1 0h1M4 77.5h1m2 0h3m1 0h1m2 0h1m3 0h1m1 0h1m1 0h1m1 0h2m1 0h5m1 0h1m1 0h3m2 0h1m2 0h4m2 0h3m3 0h1m3 0h1m1 0h1m1 0h1m1 0h1m2 0h1m3 0h1m2 0h1m3 0h2m2 0h3m1 0h2m2 0h1m2 0h2m1 0h1m1 0h3m4 0h3m2 0h2m1 0h2m1 0h1m1 0h1m1 0h4m1 0h2m3 0h1m1 0h4m1 0h1m5 0h4m3 0h4m1 0h2m3 0h1m1 0h3m2 0h4m1 0h1m1 0h1M4 78.5h1m1 0h2m2 0h2m1 0h1m3 0h2m1 0h3m6 0h1m2 0h3m1 0h3m1 0h2m4 0h2m1 0h1m2 0h1m1 0h2m2 0h1m1 0h2m6 0h3m1 0h1m4 0h1m1 0h2m1 0h1m2 0h2m3 0h1m2 0h1m1 0h1m2 0h3m2 0h2m3 0h1m1 0h2m1 0h3m1 0h1m2 0h4m2 0h1m2 0h1m1 0h2m5 0h1m3 0h2m1 0h1m2 0h1m4 0h3m3 0h3m3 0h1m6 0h3m1 0h1M5 79.5h1m2 0h2m2 0h1m1 0h2m1 0h3m3 0h2m3 0h2m2 0h1m2 0h2m1 0h1m1 0h2m1 0h4m2 0h1m2 0h1m3 0h1m4 0h2m1 0h3m7 0h1m1 0h1m1 0h1m7 0h2m1 0h1m1 0h4m1 0h4m2 0h1m1 0h2m2 0h3m1 0h1m3 0h5m3 0h3m2 0h4m1 0h2m1 0h1m1 0h4m1 0h1m2 0h1m3 0h1m1 0h2m2 0h1m2 0h2m3 0h5m1 0h2m2 0h2M4 80.5h9m4 0h2m1 0h2m1 0h1m1 0h1m2 0h1m1 0h3m2 0h2m1 0h1m1 0h3m1 0h2m1 0h1m1 0h3m1 0h5m1 0h1m2 0h1m4 0h1m2 0h1m2 0h1m3 0h4m2 0h1m1 0h2m1 0h1m4 0h1m6 0h1m5 0h1m4 0h3m2 0h1m1 0h1m1 0h1m2 0h1m4 0h3m1 0h2m5 0h1m1 0h4m2 0h1m2 0h1m1 0h1m3 0h1m1 0h5m6 0h3m2 0h3M5 81.5h1m1 0h3m1 0h1m2 0h2m4 0h1m5 0h1m2 0h1m2 0h1m3 0h2m1 0h2m1 0h1m1 0h2m2 0h1m2 0h1m5 0h3m1 0h2m1 0h1m1 0h1m1 0h1m1 0h1m1 0h1m3 0h1m3 0h4m1 0h1m1 0h3m1 0h1m1 0h2m1 0h2m2 0h1m5 0h2m1 0h1m2 0h1m1 0h2m5 0h2m1 0h1m1 0h1m3 0h1m2 0h2m1 0h1m1 0h2m3 0h5m2 0h1m1 0h1m1 0h1m1 0h3m2 0h3m1 0h1m1 0h1m2 0h1m4 0h2M4 82.5h8m1 0h2m1 0h1m2 0h1m2 0h2m1 0h1m2 0h2m3 0h1m1 0h1m1 0h2m1 0h1m6 0h1m4 0h2m1 0h1m1 0h2m1 0h1m4 0h1m1 0h2m1 0h1m1 0h2m1 0h2m3 0h4m2 0h1m3 0h1m6 0h3m1 0h4m2 0h1m1 0h2m2 0h5m3 0h1m1 0h4m1 0h2m1 0h1m1 0h7m1 0h1m4 0h1m1 0h2m3 0h1m3 0h1m1 0h3m3 0h3m1 0h1m1 0h3M4 83.5h2m2 0h1m5 0h2m1 0h1m1 0h2m1 0h5m1 0h2m3 0h3m1 0h1m1 0h1m1 0h1m4 0h3m3 0h1m4 0h1m1 0h1m1 0h2m1 0h1m1 0h1m2 0h1m4 0h6m5 0h1m3 0h2m1 0h2m2 0h1m1 0h1m5 0h1m1 0h1m1 0h3m1 0h1m1 0h1m3 0h2m1 0h2m1 0h2m1 0h4m1 0h1m1 0h3m1 0h1m1 0h4m1 0h1m1 0h1m6 0h2m1 0h1m1 0h1m1 0h1m1 0h1m1 0h2m1 0h1m3 0h1m3 0h1M4 84.5h1m1 0h8m2 0h2m4 0h1m3 0h8m1 0h1m5 0h2m1 0h1m3 0h1m1 0h2m1 0h8m1 0h1m1 0h2m1 0h3m1 0h1m3 0h3m4 0h10m2 0h1m2 0h1m1 0h3m3 0h2m4 0h6m1 0h1m1 0h1m6 0h2m1 0h1m1 0h1m2 0h1m3 0h6m1 0h2m1 0h2m5 0h3m1 0h1m1 0h2m3 0h8m1 0h1M4 85.5h1m2 0h2m3 0h1m3 0h2m4 0h1m1 0h2m2 0h1m3 0h1m1 0h1m1 0h1m4 0h1m2 0h2m2 0h1m1 0h1m1 0h1m1 0h1m1 0h1m3 0h2m1 0h2m1 0h2m2 0h1m2 0h1m1 0h1m4 0h1m2 0h2m3 0h1m2 0h2m1 0h2m1 0h1m1 0h1m3 0h2m1 0h1m1 0h2m2 0h1m3 0h2m1 0h1m1 0h2m1 0h1m1 0h1m2 0h1m1 0h1m1 0h4m1 0h3m3 0h1m4 0h1m1 0h3m1 0h2m1 0h2m1 0h1m2 0h1m1 0h1m1 0h1m3 0h2m1 0h2M6 86.5h3m1 0h1m1 0h7m3 0h2m2 0h1m1 0h1m1 0h1m1 0h1m1 0h2m2 0h2m1 0h1m3 0h1m3 0h5m2 0h1m1 0h1m1 0h1m4 0h1m1 0h7m3 0h1m1 0h2m1 0h1m1 0h1m1 0h1m1 0h1m1 0h1m2 0h1m1 0h1m2 0h2m1 0h2m1 0h1m3 0h3m1 0h1m1 0h1m1 0h3m1 0h4m3 0h1m1 0h3m3 0h2m1 0h3m1 0h1m1 0h1m2 0h4m4 0h1m4 0h1m2 0h1m3 0h2m1 0h1m1 0h2M8 87.5h1m3 0h1m1 0h1m1 0h1m1 0h5m1 0h1m3 0h1m3 0h1m1 0h1m4 0h3m3 0h2m1 0h1m1 0h1m1 0h1m2 0h2m3 0h3m1 0h3m2 0h1m3 0h4m1 0h2m1 0h1m1 0h2m3 0h2m2 0h2m1 0h1m2 0h2m2 0h1m1 0h2m2 0h2m2 0h1m3 0h1m1 0h1m2 0h1m1 0h3m4 0h1m4 0h2m2 0h2m3 0h2m2 0h2m1 0h2m1 0h1m2 0h1m1 0h3m1 0h6m3 0h1m2 0h1M7 88.5h6m3 0h1m2 0h1m1 0h1m6 0h6m1 0h1m2 0h3m1 0h1m1 0h1m4 0h1m1 0h2m1 0h1m1 0h5m3 0h1m2 0h1m2 0h2m4 0h3m3 0h8m1 0h1m1 0h3m1 0h5m1 0h1m1 0h3m1 0h1m1 0h6m1 0h3m2 0h1m1 0h1m1 0h4m1 0h2m6 0h5m1 0h1m2 0h3m3 0h1m1 0h4m1 0h2m4 0h8M5 89.5h3m1 0h1m1 0h1m1 0h4m1 0h1m1 0h8m2 0h2m3 0h5m1 0h2m1 0h3m1 0h1m2 0h1m1 0h3m2 0h1m3 0h4m3 0h4m1 0h2m3 0h2m6 0h2m2 0h2m1 0h1m2 0h1m5 0h1m1 0h2m4 0h2m3 0h1m2 0h1m2 0h6m5 0h2m1 0h4m9 0h6m1 0h1m1 0h1m2 0h1m1 0h3m1 0h3m1 0h1m1 0h1m2 0h1M4 90.5h1m1 0h3m1 0h1m1 0h3m4 0h3m1 0h1m1 0h2m6 0h2m1 0h1m1 0h1m4 0h1m1 0h3m4 0h1m4 0h1m1 0h2m2 0h1m1 0h1m1 0h2m1 0h4m3 0h1m1 0h2m1 0h1m1 0h2m4 0h2m1 0h1m3 0h3m1 0h2m1 0h1m2 0h1m2 0h1m3 0h2m1 0h2m1 0h3m1 0h2m1 0h1m1 0h1m3 0h1m1 0h4m2 0h1m2 0h2m2 0h1m1 0h1m2 0h1m1 0h1m1 0h1m1 0h2m2 0h1m3 0h2m5 0h2M4 91.5h1m2 0h1m5 0h4m1 0h1m1 0h4m2 0h1m2 0h3m1 0h2m1 0h2m1 0h3m1 0h2m1 0h1m1 0h1m3 0h2m4 0h1m1 0h8m1 0h2m2 0h2m1 0h3m8 0h4m1 0h1m3 0h4m1 0h1m1 0h7m1 0h2m1 0h2m1 0h1m1 0h2m4 0h1m1 0h3m5 0h3m1 0h1m3 0h1m5 0h1m1 0h1m2 0h1m1 0h1m3 0h1m2 0h2m1 0h1m2 0h2m1 0h2m1 0h1M4 92.5h1m1 0h2m1 0h6m1 0h1m2 0h1m1 0h1m2 0h3m3 0h1m6 0h1m4 0h2m5 0h3m2 0h3m2 0h1m1 0h2m1 0h2m6 0h2m3 0h1m4 0h2m1 0h2m3 0h1m2 0h3m2 0h4m1 0h1m2 0h1m2 0h1m1 0h3m2 0h1m1 0h4m1 0h1m1 0h1m2 0h3m1 0h2m6 0h4m2 0h2m1 0h2m1 0h1m4 0h4m1 0h1m4 0h1m1 0h1m1 0h4m1 0h1M5 93.5h1m1 0h2m6 0h3m2 0h1m1 0h3m4 0h4m1 0h3m3 0h1m3 0h1m1 0h1m1 0h1m2 0h2m2 0h1m4 0h1m1 0h1m6 0h1m1 0h3m1 0h1m1 0h1m2 0h1m1 0h1m4 0h4m3 0h3m3 0h2m4 0h3m2 0h2m3 0h1m5 0h1m1 0h1m1 0h1m7 0h1m1 0h3m5 0h1m1 0h1m2 0h1m1 0h2m2 0h1m2 0h1m3 0h3m1 0h2m2 0h1m1 0h3m1 0h1M8 94.5h3m1 0h4m1 0h1m1 0h3m1 0h1m2 0h1m2 0h1m1 0h1m1 0h1m1 0h6m1 0h1m4 0h1m3 0h3m2 0h2m1 0h2m2 0h1m1 0h1m1 0h4m1 0h1m2 0h1m1 0h1m1 0h1m1 0h4m2 0h2m3 0h1m2 0h4m1 0h4m4 0h3m3 0h2m1 0h1m2 0h1m1 0h1m1 0h1m1 0h3m1 0h2m2 0h1m2 0h4m1 0h1m1 0h1m2 0h2m2 0h1m1 0h3m1 0h1m2 0h2m1 0h1m3 0h1m1 0h1m3 0h1M9 95.5h1m4 0h1m2 0h4m3 0h6m1 0h1m3 0h1m1 0h2m1 0h1m2 0h1m2 0h1m5 0h2m1 0h2m1 0h1m1 0h3m1 0h4m6 0h3m1 0h1m1 0h1m1 0h2m1 0h8m3 0h2m1 0h1m1 0h4m3 0h1m1 0h1m2 0h4m1 0h1m2 0h5m2 0h1m1 0h1m1 0h1m1 0h2m3 0h1m2 0h1m5 0h2m1 0h2m1 0h1m5 0h2m4 0h1m1 0h1m1 0h1m1 0h2m1 0h1M10 96.5h1m1 0h1m1 0h1m2 0h1m6 0h2m2 0h1m3 0h2m2 0h1m4 0h4m2 0h5m1 0h3m5 0h3m1 0h3m1 0h1m3 0h1m1 0h3m1 0h2m2 0h4m1 0h1m1 0h1m2 0h1m1 0h1m4 0h1m1 0h1m3 0h2m3 0h3m4 0h3m2 0h1m1 0h1m2 0h3m2 0h1m3 0h1m3 0h2m2 0h3m1 0h1m1 0h1m1 0h1m3 0h1m3 0h1m1 0h3m2 0h1m3 0h1m1 0h1m1 0h1M4 97.5h3m2 0h1m2 0h3m1 0h1m1 0h1m1 0h5m1 0h5m2 0h2m2 0h2m1 0h3m4 0h2m2 0h1m2 0h2m1 0h1m1 0h2m1 0h1m7 0h1m1 0h3m3 0h1m1 0h3m3 0h4m1 0h1m1 0h3m4 0h2m1 0h1m1 0h5m1 0h1m1 0h1m2 0h2m4 0h1m1 0h4m1 0h1m1 0h1m2 0h3m1 0h1m1 0h2m2 0h3m3 0h3m1 0h1m1 0h2m1 0h1m3 0h3m4 0h1m1 0h3m1 0h1M9 98.5h2m4 0h2m1 0h1m7 0h2m2 0h1m2 0h1m2 0h4m6 0h1m2 0h1m1 0h2m2 0h2m1 0h1m2 0h1m6 0h5m2 0h1m4 0h1m1 0h1m1 0h1m2 0h1m1 0h2m1 0h1m3 0h4m1 0h2m1 0h1m2 0h2m1 0h1m1 0h1m1 0h2m2 0h2m2 0h1m3 0h3m1 0h1m1 0h1m3 0h1m1 0h1m1 0h2m1 0h2m3 0h2m1 0h1m1 0h3m1 0h4m1 0h1m4 0h2m5 0h2M6 99.5h1m1 0h2m1 0h4m3 0h1m1 0h1m3 0h1m4 0h2m2 0h1m2 0h1m2 0h2m5 0h1m2 0h1m1 0h1m4 0h3m1 0h8m3 0h1m1 0h4m1 0h2m4 0h3m2 0h1m2 0h2m1 0h5m2 0h3m2 0h2m9 0h4m2 0h2m1 0h1m1 0h1m2 0h1m1 0h2m3 0h1m2 0h1m4 0h1m3 0h1m1 0h2m1 0h2m2 0h1m2 0h1m1 0h2m2 0h1m2 0h1m3 0h1M4 100.5h3m2 0h2m2 0h3m4 0h2m1 0h1m4 0h1m1 0h1m1 0h1m1 0h1m1 0h1m1 0h1m2 0h5m1 0h5m2 0h2m3 0h1m3 0h4m5 0h1m1 0h2m1 0h1m2 0h2m1 0h1m2 0h1m4 0h1m1 0h3m1 0h1m1 0h5m1 0h2m2 0h2m2 0h1m1 0h1m2 0h3m4 0h1m2 0h1m1 0h1m1 0h1m2 0h1m3 0h4m2 0h2m1 0h6m1 0h4m1 0h1m1 0h1m1 0h1m3 0h1m2 0h1m2 0h1m1 0h1M4 101.5h3m1 0h1m2 0h1m4 0h1m2 0h1m1 0h3m1 0h1m1 0h1m2 0h4m2 0h1m2 0h6m5 0h1m2 0h4m2 0h3m3 0h1m2 0h5m2 0h3m2 0h3m2 0h1m1 0h2m2 0h7m8 0h1m2 0h1m1 0h2m2 0h2m4 0h4m1 0h2m1 0h1m4 0h3m1 0h1m1 0h1m3 0h1m2 0h1m3 0h2m3 0h1m5 0h1m1 0h2m1 0h1m2 0h1m1 0h1m2 0h2M4 102.5h1m1 0h2m1 0h2m9 0h4m5 0h1m2 0h1m1 0h1m2 0h4m2 0h1m1 0h3m1 0h2m1 0h2m4 0h4m6 0h1m1 0h3m2 0h1m4 0h1m1 0h1m4 0h2m1 0h2m4 0h3m2 0h4m2 0h2m1 0h1m3 0h2m2 0h1m3 0h1m1 0h3m3 0h2m2 0h3m1 0h1m3 0h1m1 0h1m2 0h2m1 0h1m2 0h2m5 0h1m2 0h1m2 0h2m1 0h3m3 0h1M4 103.5h1m1 0h1m1 0h1m3 0h1m2 0h1m4 0h2m2 0h1m1 0h2m1 0h1m2 0h1m1 0h2m3 0h3m1 0h1m2 0h3m2 0h3m2 0h5m1 0h3m1 0h2m3 0h1m1 0h4m1 0h2m1 0h1m2 0h7m1 0h2m1 0h1m1 0h2m2 0h2m1 0h6m1 0h2m5 0h4m5 0h4m1 0h1m3 0h1m2 0h1m1 0h1m1 0h1m1 0h1m1 0h1m1 0h1m1 0h1m1 0h3m1 0h1m1 0h3m3 0h2m4 0h3M4 104.5h1m4 0h2m1 0h2m2 0h4m6 0h1m7 0h1m3 0h3m1 0h1m2 0h1m2 0h4m2 0h2m1 0h2m2 0h3m1 0h1m4 0h1m2 0h1m1 0h5m2 0h2m2 0h2m1 0h1m5 0h1m3 0h2m1 0h1m2 0h3m1 0h1m2 0h1m2 0h1m2 0h1m1 0h2m5 0h4m1 0h1m6 0h2m1 0h5m1 0h1m1 0h1m1 0h1m2 0h1m1 0h2m2 0h4m2 0h2m2 0h2m1 0h3M5 105.5h1m3 0h1m1 0h1m1 0h1m1 0h2m1 0h2m2 0h1m2 0h5m1 0h4m1 0h2m2 0h7m1 0h4m1 0h5m7 0h1m5 0h2m1 0h1m3 0h2m1 0h1m4 0h1m1 0h1m2 0h1m2 0h2m1 0h1m1 0h3m1 0h1m1 0h2m2 0h1m1 0h2m2 0h3m1 0h1m2 0h1m1 0h3m2 0h1m1 0h1m1 0h1m1 0h2m1 0h1m1 0h1m5 0h1m2 0h1m1 0h1m3 0h2m1 0h2m1 0h2m1 0h1m4 0h2m1 0h1m3 0h1M7 106.5h1m2 0h4m1 0h5m1 0h1m2 0h12m2 0h4m1 0h1m2 0h1m2 0h1m1 0h5m2 0h1m1 0h2m5 0h2m1 0h1m1 0h2m1 0h1m1 0h4m1 0h2m3 0h1m2 0h1m4 0h1m1 0h2m3 0h1m1 0h7m1 0h1m1 0h2m1 0h1m3 0h1m5 0h1m4 0h2m2 0h3m1 0h1m2 0h3m2 0h1m5 0h1m2 0h1m2 0h1m4 0h1m1 0h1m1 0h2m2 0h3M4 107.5h1m3 0h2m1 0h1m4 0h2m1 0h3m2 0h3m4 0h4m5 0h1m5 0h2m1 0h1m1 0h1m1 0h1m3 0h2m1 0h3m1 0h3m2 0h1m3 0h4m7 0h1m1 0h1m1 0h1m1 0h2m1 0h4m1 0h1m4 0h2m3 0h1m1 0h3m2 0h1m2 0h4m1 0h1m1 0h2m1 0h6m1 0h1m3 0h2m1 0h2m3 0h1m4 0h3m4 0h3m1 0h1m1 0h2m2 0h1m1 0h2m2 0h2M4 108.5h3m2 0h4m2 0h1m2 0h3m3 0h1m2 0h4m1 0h2m1 0h1m2 0h5m5 0h3m1 0h1m1 0h3m2 0h1m2 0h2m2 0h1m3 0h1m2 0h1m1 0h2m2 0h6m2 0h1m1 0h1m2 0h3m2 0h4m1 0h1m2 0h2m3 0h1m1 0h2m1 0h2m1 0h1m1 0h2m1 0h1m4 0h1m1 0h4m3 0h1m1 0h4m2 0h2m1 0h1m1 0h1m1 0h2m3 0h3m1 0h1m1 0h3m2 0h2m4 0h2M4 109.5h1m3 0h2m3 0h2m5 0h5m1 0h2m2 0h1m1 0h2m1 0h4m1 0h2m1 0h2m1 0h5m3 0h1m2 0h1m1 0h1m4 0h3m8 0h2m1 0h2m8 0h2m1 0h2m1 0h2m1 0h1m2 0h1m2 0h1m2 0h2m1 0h1m1 0h2m2 0h3m4 0h1m1 0h1m1 0h1m6 0h2m1 0h1m1 0h2m4 0h4m1 0h6m1 0h1m1 0h2m4 0h2m2 0h3m1 0h5M7 110.5h1m1 0h5m2 0h5m1 0h3m4 0h1m1 0h5m2 0h3m2 0h1m1 0h1m1 0h1m3 0h2m2 0h1m2 0h2m1 0h1m3 0h1m1 0h2m1 0h2m5 0h1m1 0h4m2 0h1m1 0h2m1 0h1m1 0h1m4 0h1m1 0h1m1 0h4m2 0h2m1 0h1m2 0h3m1 0h1m2 0h1m1 0h1m1 0h2m1 0h2m3 0h3m1 0h3m3 0h1m1 0h1m2 0h3m3 0h2m2 0h1m2 0h1m1 0h2m2 0h2m7 0h1M6 111.5h2m1 0h1m4 0h2m1 0h1m1 0h1m2 0h1m3 0h1m1 0h1m3 0h1m1 0h1m1 0h1m2 0h1m3 0h5m1 0h1m1 0h3m1 0h2m1 0h1m1 0h1m1 0h3m1 0h2m6 0h1m1 0h1m1 0h2m3 0h1m2 0h1m1 0h2m2 0h1m3 0h3m2 0h1m1 0h4m1 0h1m3 0h3m2 0h1m1 0h3m1 0h1m4 0h1m1 0h3m5 0h2m1 0h1m1 0h1m5 0h1m1 0h4m2 0h1m1 0h2m2 0h2m1 0h1m1 0h1m3 0h1M4 112.5h2m1 0h6m4 0h6m4 0h7m2 0h2m4 0h2m4 0h1m1 0h11m2 0h3m1 0h5m1 0h7m1 0h1m1 0h6m2 0h1m2 0h2m2 0h1m1 0h1m5 0h1m2 0h1m1 0h6m1 0h1m1 0h1m6 0h2m1 0h1m1 0h2m1 0h1m1 0h1m1 0h6m1 0h2m2 0h1m4 0h1m1 0h3m1 0h2m5 0h8M7 113.5h2m3 0h1m1 0h1m2 0h2m5 0h2m1 0h2m3 0h4m1 0h3m2 0h2m1 0h1m2 0h2m2 0h1m1 0h3m3 0h1m1 0h4m2 0h1m10 0h3m2 0h1m3 0h1m2 0h2m1 0h1m5 0h1m2 0h1m1 0h4m3 0h1m3 0h2m3 0h4m1 0h2m3 0h1m1 0h2m1 0h1m1 0h3m3 0h1m1 0h1m3 0h1m1 0h1m3 0h2m4 0h4m1 0h2m3 0h5M5 114.5h1m1 0h2m1 0h1m1 0h3m2 0h4m1 0h1m1 0h5m1 0h1m1 0h2m1 0h4m7 0h2m1 0h3m2 0h3m1 0h1m1 0h2m3 0h1m2 0h1m1 0h1m2 0h1m1 0h1m3 0h4m1 0h1m1 0h1m1 0h1m1 0h1m1 0h1m2 0h1m2 0h1m2 0h2m1 0h1m4 0h4m1 0h1m1 0h1m1 0h2m1 0h5m1 0h7m1 0h2m2 0h2m1 0h1m1 0h2m1 0h2m4 0h2m2 0h2m1 0h2m4 0h3m1 0h1m1 0h2M8 115.5h1m3 0h1m1 0h1m1 0h2m2 0h2m2 0h1m1 0h3m3 0h1m1 0h1m1 0h2m5 0h4m6 0h1m1 0h2m3 0h7m2 0h1m1 0h1m1 0h2m1 0h1m1 0h1m4 0h2m3 0h2m2 0h1m1 0h3m2 0h1m2 0h1m1 0h2m2 0h5m3 0h1m1 0h3m1 0h1m5 0h3m2 0h1m1 0h1m1 0h1m1 0h2m3 0h1m2 0h3m3 0h3m3 0h1m1 0h1m3 0h4m3 0h1M5 116.5h2m1 0h5m1 0h1m1 0h3m2 0h1m3 0h1m2 0h7m1 0h1m2 0h1m2 0h2m2 0h2m2 0h2m2 0h9m1 0h2m3 0h1m1 0h1m3 0h2m1 0h4m2 0h6m1 0h1m1 0h2m2 0h1m2 0h2m10 0h9m4 0h1m2 0h5m4 0h1m2 0h7m2 0h3m1 0h1m2 0h3m1 0h2m1 0h10m1 0h3M4 117.5h1m3 0h1m5 0h1m1 0h3m1 0h1m6 0h5m3 0h1m1 0h1m1 0h2m1 0h4m2 0h2m1 0h1m1 0h1m1 0h3m1 0h1m2 0h2m1 0h4m2 0h2m2 0h1m1 0h2m1 0h1m3 0h3m5 0h1m1 0h1m1 0h1m6 0h2m1 0h2m1 0h1m2 0h1m4 0h1m3 0h2m1 0h1m1 0h1m3 0h1m2 0h2m1 0h4m2 0h1m2 0h1m4 0h4m2 0h1m1 0h1m3 0h1m1 0h2m3 0h1m2 0h3m1 0h1M5 118.5h6m4 0h2m5 0h4m3 0h2m7 0h2m1 0h1m9 0h3m1 0h1m1 0h1m1 0h1m1 0h1m1 0h1m1 0h1m1 0h7m3 0h1m1 0h2m1 0h3m3 0h1m1 0h2m1 0h1m3 0h2m1 0h1m1 0h1m1 0h2m1 0h1m1 0h3m1 0h1m1 0h4m2 0h2m1 0h4m1 0h1m1 0h3m1 0h1m3 0h3m1 0h1m1 0h1m1 0h2m5 0h1m2 0h4m2 0h1m3 0h4M4 119.5h3m6 0h2m1 0h1m1 0h1m2 0h3m2 0h2m1 0h2m1 0h1m1 0h1m1 0h6m1 0h5m1 0h1m1 0h2m2 0h3m1 0h1m1 0h2m1 0h1m8 0h2m1 0h1m6 0h1m3 0h3m1 0h4m1 0h1m2 0h1m1 0h1m4 0h1m1 0h2m1 0h1m2 0h2m1 0h2m1 0h1m9 0h3m3 0h4m1 0h1m1 0h3m2 0h2m3 0h3m3 0h3m3 0h3m1 0h2m2 0h1M6 120.5h1m1 0h3m3 0h1m2 0h7m3 0h1m2 0h1m3 0h1m3 0h3m1 0h1m1 0h1m2 0h1m2 0h1m1 0h1m1 0h1m1 0h3m1 0h1m3 0h1m1 0h6m1 0h1m1 0h2m2 0h1m1 0h1m1 0h1m1 0h2m8 0h1m1 0h2m1 0h1m1 0h1m4 0h1m2 0h4m1 0h2m1 0h4m3 0h1m1 0h7m5 0h5m1 0h3m1 0h1m2 0h1m1 0h2m2 0h1m1 0h3m1 0h1m3 0h1m3 0h1m1 0h3M4 121.5h4m1 0h1m1 0h3m4 0h4m2 0h1m1 0h2m3 0h1m3 0h1m1 0h1m2 0h1m3 0h2m2 0h1m1 0h1m2 0h1m1 0h3m1 0h1m1 0h1m1 0h2m3 0h2m1 0h2m1 0h3m1 0h1m1 0h2m1 0h1m2 0h1m2 0h1m2 0h1m1 0h2m1 0h1m2 0h2m4 0h2m1 0h1m1 0h2m1 0h2m3 0h1m1 0h4m1 0h2m1 0h1m1 0h1m2 0h1m1 0h4m2 0h1m2 0h1m3 0h2m1 0h2m2 0h1m1 0h1m4 0h5m1 0h1m1 0h2m1 0h1m1 0h1M4 122.5h1m1 0h3m1 0h1m1 0h4m1 0h1m1 0h1m5 0h2m7 0h1m2 0h1m4 0h1m4 0h1m1 0h1m1 0h2m2 0h1m1 0h1m1 0h1m3 0h1m4 0h1m1 0h1m1 0h2m2 0h2m2 0h3m1 0h3m1 0h1m1 0h1m1 0h1m2 0h5m1 0h2m1 0h2m2 0h1m1 0h1m1 0h2m1 0h3m3 0h3m2 0h1m4 0h1m1 0h1m1 0h2m2 0h1m3 0h1m2 0h4m1 0h1m1 0h3m1 0h2m1 0h3m2 0h2m2 0h2m1 0h2M4 123.5h2m5 0h1m1 0h1m2 0h5m1 0h3m1 0h1m1 0h1m1 0h1m1 0h4m2 0h4m1 0h5m1 0h1m1 0h1m1 0h1m1 0h2m3 0h1m1 0h1m1 0h1m1 0h2m1 0h1m1 0h1m1 0h5m5 0h1m4 0h3m1 0h2m1 0h2m4 0h1m1 0h3m2 0h1m1 0h2m2 0h2m1 0h1m6 0h1m2 0h2m1 0h5m3 0h4m2 0h2m2 0h2m1 0h1m2 0h3m2 0h1m1 0h1m1 0h2m1 0h5m5 0h1M5 124.5h2m1 0h6m3 0h1m2 0h4m1 0h5m4 0h1m1 0h1m3 0h1m1 0h1m1 0h1m2 0h1m2 0h2m2 0h2m2 0h2m3 0h2m2 0h1m2 0h1m2 0h1m1 0h2m4 0h2m1 0h4m3 0h1m2 0h1m3 0h3m4 0h1m3 0h1m1 0h2m1 0h1m2 0h2m1 0h1m2 0h1m3 0h4m1 0h1m2 0h1m3 0h3m1 0h1m2 0h2m2 0h4m3 0h2m1 0h3m1 0h1m2 0h2m1 0h5M4 125.5h5m2 0h3m2 0h1m2 0h2m2 0h1m1 0h2m1 0h4m3 0h2m1 0h1m1 0h1m1 0h4m1 0h4m2 0h4m2 0h1m1 0h1m1 0h4m2 0h5m1 0h2m1 0h1m2 0h3m1 0h1m3 0h1m1 0h1m2 0h1m5 0h1m3 0h4m3 0h3m2 0h1m4 0h2m1 0h1m1 0h2m3 0h1m1 0h4m1 0h2m1 0h4m1 0h1m2 0h1m1 0h3m1 0h4m3 0h1m1 0h3m2 0h1m1 0h1m2 0h1m1 0h1M5 126.5h1m1 0h1m2 0h1m2 0h3m1 0h2m7 0h1m1 0h3m5 0h1m2 0h2m2 0h1m5 0h1m2 0h1m1 0h2m1 0h1m1 0h2m3 0h1m3 0h1m1 0h3m7 0h3m1 0h3m1 0h1m1 0h1m1 0h2m3 0h3m2 0h1m2 0h1m2 0h5m3 0h2m2 0h1m1 0h1m5 0h1m1 0h1m1 0h1m2 0h2m1 0h1m1 0h2m2 0h3m1 0h2m1 0h1m3 0h1m1 0h1m1 0h2m4 0h2m3 0h1m2 0h1M6 127.5h4m2 0h1m3 0h3m3 0h1m3 0h1m1 0h4m1 0h1m2 0h3m4 0h1m1 0h1m1 0h1m1 0h1m2 0h2m1 0h1m4 0h4m2 0h1m2 0h1m1 0h1m1 0h1m1 0h4m6 0h1m1 0h2m1 0h7m7 0h2m1 0h3m1 0h1m2 0h2m1 0h4m2 0h1m2 0h1m2 0h4m1 0h4m3 0h1m1 0h1m3 0h1m1 0h1m2 0h4m3 0h2m3 0h3m1 0h1m2 0h1m3 0h1M5 128.5h2m1 0h8m3 0h2m1 0h3m1 0h1m3 0h3m1 0h2m1 0h1m4 0h3m1 0h3m1 0h1m1 0h1m1 0h1m3 0h1m1 0h1m1 0h1m4 0h1m2 0h3m3 0h2m1 0h1m3 0h4m1 0h1m4 0h1m1 0h1m1 0h1m1 0h4m2 0h1m3 0h1m1 0h2m4 0h2m1 0h1m6 0h2m1 0h4m1 0h1m3 0h2m1 0h2m2 0h1m1 0h4m4 0h5m1 0h2m1 0h1m2 0h2m2 0h4M5 129.5h3m3 0h2m1 0h1m2 0h1m2 0h1m1 0h4m1 0h1m1 0h3m1 0h1m4 0h4m3 0h4m2 0h1m1 0h4m2 0h1m3 0h1m1 0h1m1 0h2m1 0h4m2 0h1m3 0h3m2 0h1m7 0h2m2 0h1m2 0h2m2 0h3m2 0h1m2 0h5m2 0h1m1 0h2m1 0h1m1 0h2m1 0h1m3 0h2m1 0h1m1 0h2m2 0h1m2 0h1m3 0h2m1 0h1m3 0h1m4 0h1m2 0h2m3 0h1m1 0h1m1 0h1m2 0h1M4 130.5h4m1 0h2m1 0h10m3 0h1m1 0h4m1 0h3m1 0h2m3 0h3m2 0h1m4 0h2m2 0h1m1 0h3m3 0h1m3 0h2m1 0h1m1 0h1m2 0h1m4 0h1m1 0h1m1 0h2m2 0h1m1 0h1m2 0h1m3 0h7m3 0h4m1 0h1m3 0h1m1 0h2m2 0h1m1 0h1m1 0h1m2 0h1m4 0h1m1 0h2m1 0h3m1 0h2m1 0h1m1 0h1m4 0h1m3 0h2m1 0h3m6 0h3m3 0h1M5 131.5h1m1 0h1m1 0h1m1 0h1m4 0h1m4 0h3m2 0h4m2 0h1m2 0h3m2 0h2m4 0h2m1 0h1m1 0h2m3 0h1m1 0h1m1 0h6m1 0h1m5 0h2m1 0h1m1 0h1m6 0h1m1 0h1m4 0h1m1 0h1m1 0h1m1 0h2m1 0h5m2 0h1m1 0h1m3 0h2m2 0h2m1 0h3m1 0h1m4 0h3m2 0h1m1 0h2m1 0h2m2 0h1m3 0h1m3 0h1m1 0h2m1 0h1m3 0h1m1 0h1m1 0h2m1 0h1m2 0h1m1 0h1M4 132.5h1m1 0h1m3 0h1m2 0h2m1 0h2m1 0h2m1 0h1m2 0h1m2 0h3m5 0h3m3 0h2m6 0h5m2 0h4m3 0h1m2 0h1m3 0h1m1 0h1m1 0h3m2 0h2m1 0h4m3 0h2m2 0h2m3 0h2m1 0h1m6 0h1m1 0h5m2 0h1m1 0h2m1 0h1m3 0h6m2 0h1m1 0h1m1 0h2m5 0h6m1 0h1m3 0h3m1 0h5m2 0h1m2 0h2m1 0h3M6 133.5h1m1 0h1m2 0h1m7 0h3m3 0h1m3 0h1m2 0h3m1 0h3m1 0h1m2 0h2m1 0h1m1 0h1m1 0h2m2 0h1m1 0h2m3 0h3m5 0h1m5 0h5m2 0h2m2 0h2m6 0h2m1 0h1m6 0h5m3 0h1m4 0h1m1 0h1m1 0h2m1 0h3m4 0h1m1 0h4m1 0h2m1 0h3m1 0h1m4 0h2m1 0h1m2 0h1m1 0h1m2 0h1m2 0h4m4 0h2m2 0h1M4 134.5h1m3 0h1m1 0h1m2 0h1m1 0h1m2 0h1m5 0h1m2 0h1m5 0h1m1 0h1m1 0h1m1 0h1m2 0h1m2 0h2m5 0h2m1 0h1m2 0h2m5 0h1m3 0h2m1 0h2m3 0h1m1 0h4m1 0h2m2 0h4m4 0h1m1 0h2m2 0h2m4 0h2m1 0h1m1 0h1m1 0h6m3 0h2m1 0h1m2 0h3m3 0h3m4 0h1m1 0h1m2 0h2m4 0h2m1 0h5m4 0h1m3 0h1m3 0h2M4 135.5h2m6 0h1m1 0h5m2 0h1m1 0h2m2 0h1m2 0h2m3 0h1m1 0h2m1 0h1m4 0h2m1 0h1m3 0h2m2 0h2m1 0h2m1 0h1m1 0h1m1 0h1m2 0h1m3 0h4m1 0h2m5 0h1m2 0h3m1 0h2m1 0h4m2 0h1m2 0h3m1 0h1m2 0h1m1 0h1m1 0h1m1 0h1m3 0h1m1 0h1m4 0h1m1 0h2m1 0h1m5 0h3m1 0h1m7 0h4m1 0h1m3 0h1m5 0h3m2 0h1m1 0h1m1 0h1M4 136.5h4m2 0h1m1 0h4m3 0h1m1 0h2m2 0h1m2 0h1m2 0h1m4 0h1m2 0h6m4 0h2m3 0h7m1 0h7m1 0h2m2 0h2m3 0h5m2 0h2m3 0h1m1 0h2m4 0h2m2 0h1m1 0h1m3 0h6m3 0h4m1 0h1m1 0h1m1 0h2m1 0h4m1 0h1m1 0h1m1 0h5m1 0h2m1 0h1m1 0h1m1 0h1m1 0h2m1 0h8m3 0h2m2 0h3m1 0h1M8 137.5h1m3 0h2m1 0h1m2 0h3m2 0h1m1 0h2m1 0h1m1 0h1m3 0h1m1 0h1m1 0h3m2 0h3m2 0h4m1 0h1m1 0h3m3 0h1m10 0h1m2 0h3m2 0h1m2 0h1m1 0h1m3 0h1m3 0h2m4 0h2m5 0h2m4 0h1m3 0h1m4 0h2m1 0h1m2 0h1m6 0h1m1 0h4m1 0h4m1 0h2m1 0h1m1 0h3m2 0h1m4 0h1m1 0h4m2 0h1m1 0h1m1 0h1m1 0h2M4 138.5h1m3 0h1m1 0h1m2 0h2m1 0h1m1 0h1m4 0h5m2 0h1m1 0h1m3 0h1m1 0h2m1 0h1m3 0h2m2 0h1m2 0h2m5 0h1m1 0h1m3 0h1m2 0h3m1 0h2m5 0h2m1 0h1m1 0h1m2 0h4m1 0h1m2 0h6m1 0h1m2 0h1m2 0h3m2 0h1m1 0h3m3 0h5m3 0h1m1 0h1m1 0h1m1 0h2m1 0h2m4 0h1m1 0h4m1 0h1m2 0h2m2 0h1m1 0h2m4 0h3m1 0h1m1 0h1m2 0h1M4 139.5h1m1 0h1m1 0h1m2 0h1m1 0h1m1 0h2m2 0h1m2 0h4m1 0h3m1 0h5m1 0h1m1 0h1m3 0h2m1 0h1m1 0h1m3 0h2m3 0h2m3 0h3m1 0h1m4 0h1m2 0h1m1 0h4m3 0h1m1 0h1m3 0h1m2 0h1m2 0h3m1 0h2m2 0h3m1 0h3m3 0h3m2 0h4m2 0h1m2 0h2m2 0h1m3 0h1m2 0h1m1 0h1m1 0h1m1 0h1m2 0h1m6 0h1m2 0h1m2 0h2m4 0h1m2 0h2m2 0h1M7 140.5h8m2 0h3m1 0h1m1 0h3m2 0h5m2 0h1m4 0h4m1 0h1m1 0h1m2 0h1m2 0h9m1 0h2m5 0h1m2 0h5m1 0h4m1 0h5m1 0h2m1 0h1m1 0h1m3 0h2m1 0h2m1 0h2m3 0h7m1 0h1m1 0h2m3 0h1m1 0h7m3 0h1m1 0h8m1 0h1m1 0h1m1 0h1m2 0h1m2 0h3m1 0h1m2 0h1m2 0h5m1 0h3M4 141.5h1m1 0h1m1 0h1m3 0h1m4 0h4m4 0h1m2 0h1m3 0h1m5 0h1m2 0h1m1 0h4m1 0h2m1 0h2m2 0h2m3 0h1m8 0h1m1 0h2m1 0h1m2 0h2m1 0h3m1 0h1m3 0h2m3 0h3m1 0h1m2 0h1m5 0h3m3 0h1m3 0h2m1 0h1m2 0h1m1 0h1m1 0h1m2 0h1m3 0h4m1 0h1m1 0h1m3 0h1m1 0h1m2 0h1m1 0h3m2 0h1m1 0h1m2 0h8m3 0h1m2 0h2M4 142.5h2m1 0h2m1 0h1m1 0h2m1 0h2m1 0h1m2 0h1m2 0h2m1 0h2m1 0h1m1 0h3m3 0h1m1 0h1m1 0h2m1 0h3m2 0h4m2 0h1m1 0h1m1 0h2m5 0h2m1 0h1m2 0h1m5 0h6m1 0h1m1 0h4m1 0h1m1 0h1m2 0h2m1 0h3m1 0h1m2 0h3m1 0h1m1 0h1m1 0h2m4 0h3m2 0h1m1 0h1m2 0h1m3 0h2m1 0h2m1 0h1m1 0h2m2 0h1m6 0h1m1 0h1m2 0h1m2 0h1m1 0h1m1 0h2m1 0h1m1 0h2m1 0h1M5 143.5h1m1 0h2m3 0h1m1 0h2m1 0h1m5 0h1m1 0h1m2 0h1m3 0h1m1 0h1m4 0h1m5 0h2m1 0h1m7 0h1m3 0h1m1 0h3m1 0h1m4 0h1m2 0h3m1 0h2m3 0h2m3 0h1m1 0h1m1 0h2m2 0h1m4 0h1m1 0h4m1 0h1m2 0h2m3 0h1m1 0h4m1 0h4m4 0h1m3 0h6m3 0h1m3 0h2m3 0h2m4 0h1m3 0h4m1 0h1m3 0h2m1 0h1M6 144.5h1m1 0h5m2 0h3m1 0h1m1 0h5m1 0h7m5 0h1m2 0h4m4 0h2m1 0h1m1 0h6m1 0h1m3 0h1m1 0h2m4 0h1m1 0h2m1 0h4m1 0h6m3 0h2m2 0h1m2 0h1m2 0h1m5 0h1m1 0h6m1 0h1m1 0h1m4 0h1m2 0h1m1 0h1m1 0h1m6 0h12m1 0h1m2 0h1m1 0h7m4 0h7m1 0h1M4 145.5h1m2 0h3m1 0h2m2 0h4m1 0h3m1 0h1m3 0h1m1 0h1m2 0h1m1 0h2m3 0h1m3 0h2m2 0h3m2 0h1m1 0h1m2 0h1m1 0h2m1 0h2m2 0h2m2 0h5m4 0h1m2 0h2m1 0h2m1 0h1m4 0h1m5 0h1m5 0h2m3 0h5m1 0h1m3 0h1m1 0h2m1 0h2m3 0h1m2 0h3m1 0h2m6 0h1m2 0h1m1 0h6m1 0h2m1 0h2m1 0h2m2 0h1m3 0h5M7 146.5h4m2 0h1m1 0h2m2 0h2m1 0h2m2 0h2m2 0h2m1 0h1m1 0h5m2 0h1m2 0h1m3 0h1m2 0h2m5 0h1m1 0h1m3 0h1m1 0h2m1 0h1m1 0h1m1 0h1m5 0h1m1 0h1m2 0h1m1 0h1m1 0h4m2 0h1m2 0h1m1 0h1m1 0h1m7 0h2m2 0h2m1 0h1m1 0h2m1 0h1m1 0h1m4 0h2m2 0h2m5 0h1m1 0h2m4 0h1m4 0h2m5 0h1m4 0h2m2 0h1m1 0h2m2 0h1M4 147.5h6m4 0h2m2 0h2m1 0h2m1 0h2m1 0h1m1 0h2m1 0h1m1 0h1m2 0h1m1 0h2m4 0h5m2 0h2m1 0h2m5 0h1m1 0h1m1 0h2m3 0h1m1 0h1m1 0h2m1 0h1m5 0h1m1 0h4m1 0h2m1 0h1m2 0h1m1 0h1m1 0h2m1 0h1m1 0h1m1 0h1m1 0h1m2 0h1m1 0h5m1 0h3m2 0h7m3 0h1m1 0h1m1 0h1m3 0h2m2 0h1m4 0h2m2 0h1m2 0h1m2 0h1m1 0h6M4 148.5h4m2 0h2m1 0h1m2 0h1m1 0h1m1 0h3m2 0h1m4 0h1m5 0h1m1 0h3m1 0h4m1 0h1m1 0h4m3 0h2m1 0h4m3 0h2m1 0h1m2 0h4m1 0h2m1 0h1m1 0h2m4 0h1m1 0h2m1 0h6m1 0h3m4 0h1m1 0h2m3 0h2m1 0h5m1 0h1m4 0h1m1 0h1m1 0h2m5 0h2m1 0h7m1 0h1m1 0h2m1 0h2m1 0h3m1 0h1m1 0h1m3 0h1m1 0h2m1 0h3M5 149.5h2m1 0h2m2 0h2m1 0h1m1 0h4m2 0h1m4 0h1m2 0h2m1 0h1m5 0h1m2 0h2m1 0h5m4 0h1m2 0h1m4 0h1m2 0h5m2 0h4m3 0h3m1 0h1m1 0h1m2 0h1m1 0h1m2 0h1m1 0h2m1 0h2m2 0h1m2 0h3m2 0h1m2 0h2m3 0h1m1 0h4m1 0h2m6 0h5m10 0h1m1 0h4m1 0h2m4 0h6m3 0h4m1 0h1M5 150.5h4m1 0h2m4 0h2m1 0h1m1 0h1m1 0h1m1 0h4m1 0h2m1 0h1m3 0h1m1 0h2m1 0h1m3 0h1m2 0h1m2 0h6m1 0h1m5 0h1m1 0h7m1 0h3m2 0h4m1 0h2m2 0h8m1 0h1m1 0h1m1 0h1m1 0h1m3 0h2m1 0h1m1 0h1m1 0h1m1 0h4m1 0h3m1 0h2m1 0h1m3 0h2m4 0h2m1 0h1m5 0h1m2 0h1m2 0h2m1 0h2m1 0h1m1 0h2m1 0h1m1 0h1m3 0h2m2 0h1M7 151.5h3m1 0h1m4 0h1m1 0h2m3 0h4m1 0h1m2 0h1m2 0h1m1 0h4m3 0h1m2 0h2m1 0h1m3 0h1m4 0h1m2 0h2m1 0h1m1 0h1m4 0h1m2 0h1m1 0h1m1 0h2m3 0h3m2 0h4m1 0h1m5 0h7m1 0h4m1 0h2m1 0h1m1 0h1m2 0h2m5 0h3m2 0h1m3 0h1m2 0h2m2 0h2m2 0h3m1 0h1m1 0h3m1 0h1m2 0h1m2 0h1m2 0h2m1 0h2m1 0h1M4 152.5h4m1 0h2m1 0h1m3 0h1m1 0h3m1 0h2m2 0h2m2 0h3m2 0h1m1 0h2m3 0h2m1 0h1m2 0h4m2 0h1m1 0h2m2 0h1m2 0h4m3 0h1m2 0h1m1 0h2m1 0h2m2 0h2m6 0h1m2 0h1m1 0h1m3 0h2m1 0h1m3 0h1m4 0h1m1 0h1m4 0h4m1 0h1m3 0h2m1 0h1m1 0h2m5 0h3m2 0h3m2 0h2m3 0h1m3 0h1m1 0h5m3 0h2m3 0h2M8 153.5h2m1 0h3m3 0h2m1 0h3m1 0h1m4 0h2m1 0h2m1 0h3m1 0h2m2 0h2m3 0h1m1 0h2m2 0h3m1 0h1m1 0h2m2 0h1m1 0h1m1 0h3m1 0h1m3 0h1m3 0h1m2 0h1m1 0h2m1 0h2m1 0h1m1 0h2m2 0h1m1 0h3m1 0h4m2 0h1m1 0h3m1 0h1m5 0h2m1 0h1m1 0h1m6 0h4m1 0h6m1 0h2m2 0h4m1 0h1m1 0h1m1 0h1m2 0h4m6 0h3m2 0h1M4 154.5h2m1 0h9m2 0h1m2 0h2m1 0h1m1 0h2m1 0h1m1 0h2m3 0h1m4 0h1m1 0h1m2 0h2m3 0h3m2 0h1m13 0h1m1 0h2m6 0h1m1 0h1m1 0h2m1 0h1m2 0h2m3 0h2m1 0h3m1 0h2m1 0h1m1 0h6m3 0h1m1 0h1m1 0h1m1 0h1m1 0h1m2 0h1m3 0h3m3 0h3m2 0h3m1 0h1m1 0h1m1 0h1m3 0h1m2 0h1m2 0h1m2 0h1m1 0h1m1 0h3M4 155.5h3m1 0h1m6 0h2m1 0h4m1 0h10m1 0h1m1 0h1m1 0h1m1 0h1m4 0h3m1 0h1m5 0h7m1 0h4m2 0h1m1 0h1m1 0h2m1 0h1m1 0h2m1 0h1m2 0h1m1 0h3m3 0h1m3 0h4m1 0h1m1 0h1m1 0h1m2 0h3m4 0h2m1 0h1m3 0h1m2 0h1m3 0h1m3 0h1m2 0h1m1 0h1m2 0h1m1 0h3m2 0h2m1 0h1m1 0h2m5 0h2m2 0h4m2 0h2M5 156.5h1m2 0h1m1 0h2m2 0h2m1 0h2m3 0h3m1 0h1m2 0h1m1 0h1m1 0h2m3 0h1m2 0h3m1 0h1m2 0h1m1 0h5m1 0h2m2 0h1m3 0h2m1 0h1m1 0h1m1 0h1m2 0h3m2 0h2m6 0h1m1 0h1m4 0h1m5 0h1m5 0h1m4 0h1m2 0h2m1 0h2m1 0h1m6 0h1m1 0h2m1 0h1m2 0h1m1 0h1m1 0h2m2 0h2m1 0h3m1 0h1m1 0h1m3 0h1m1 0h3m1 0h1m1 0h1m4 0h2m3 0h1M4 157.5h2m6 0h2m1 0h1m5 0h4m2 0h3m2 0h3m1 0h4m2 0h1m1 0h3m1 0h1m2 0h1m1 0h1m1 0h6m1 0h2m1 0h1m2 0h1m1 0h2m1 0h2m3 0h2m2 0h1m1 0h1m1 0h1m1 0h1m3 0h1m1 0h2m1 0h1m2 0h1m2 0h1m1 0h3m1 0h1m1 0h1m1 0h2m1 0h2m3 0h1m2 0h1m1 0h1m4 0h1m1 0h1m1 0h2m1 0h1m3 0h2m1 0h2m3 0h5m1 0h1m5 0h3m3 0h1m2 0h3m1 0h2M4 158.5h5m1 0h4m2 0h1m1 0h2m1 0h1m1 0h2m3 0h2m1 0h4m2 0h3m1 0h1m1 0h1m2 0h2m3 0h2m2 0h1m7 0h1m1 0h1m1 0h2m1 0h4m3 0h1m3 0h2m1 0h1m1 0h5m1 0h1m3 0h1m1 0h1m3 0h1m1 0h2m1 0h6m2 0h1m2 0h2m1 0h2m7 0h2m3 0h2m1 0h1m1 0h3m1 0h1m2 0h4m3 0h2m1 0h1m2 0h2m3 0h3m1 0h1m1 0h2M4 159.5h4m3 0h2m1 0h1m2 0h1m1 0h3m2 0h2m2 0h2m1 0h11m1 0h1m2 0h1m2 0h1m1 0h3m4 0h5m1 0h1m1 0h2m3 0h1m1 0h2m1 0h1m1 0h1m3 0h2m1 0h1m2 0h2m2 0h2m2 0h1m2 0h1m3 0h3m1 0h3m2 0h1m2 0h2m3 0h1m1 0h3m1 0h1m1 0h1m2 0h1m1 0h1m3 0h1m3 0h1m1 0h1m7 0h2m1 0h1m2 0h1m2 0h2m1 0h2m1 0h2m2 0h3M4 160.5h2m3 0h5m4 0h2m2 0h2m1 0h4m3 0h3m1 0h1m5 0h4m1 0h4m3 0h1m1 0h2m1 0h3m3 0h4m2 0h1m6 0h2m2 0h2m3 0h2m1 0h2m1 0h3m1 0h1m1 0h2m2 0h1m5 0h2m2 0h3m2 0h1m1 0h2m5 0h2m1 0h1m1 0h2m1 0h1m1 0h1m1 0h1m4 0h3m2 0h3m3 0h4m2 0h2m7 0h1m2 0h4M5 161.5h3m4 0h5m2 0h1m2 0h2m3 0h1m1 0h2m5 0h3m1 0h2m2 0h1m1 0h1m1 0h3m2 0h1m1 0h6m3 0h1m5 0h2m1 0h1m1 0h2m2 0h4m1 0h3m1 0h1m3 0h1m1 0h3m3 0h1m2 0h6m2 0h2m1 0h1m7 0h5m2 0h1m3 0h4m1 0h3m2 0h1m1 0h5m3 0h1m1 0h2m1 0h1m2 0h1m1 0h2m1 0h1m1 0h2m1 0h6M4 162.5h2m2 0h1m1 0h2m1 0h5m1 0h2m1 0h1m2 0h6m1 0h2m1 0h2m1 0h3m5 0h2m2 0h4m2 0h2m1 0h1m7 0h6m2 0h1m3 0h2m1 0h1m1 0h1m1 0h1m1 0h1m1 0h1m1 0h1m2 0h1m1 0h2m1 0h1m1 0h1m4 0h1m1 0h8m1 0h1m3 0h2m3 0h1m1 0h2m1 0h2m1 0h4m2 0h2m1 0h2m1 0h2m4 0h1m3 0h2m1 0h2m1 0h1m1 0h3m3 0h2m2 0h1M5 163.5h5m1 0h1m2 0h1m5 0h1m1 0h5m1 0h1m1 0h3m2 0h2m3 0h2m1 0h1m2 0h2m9 0h2m2 0h2m1 0h1m1 0h1m2 0h1m3 0h2m1 0h1m1 0h1m2 0h5m1 0h2m1 0h2m4 0h2m4 0h7m1 0h1m1 0h1m3 0h4m1 0h1m5 0h1m1 0h2m3 0h5m2 0h1m3 0h1m1 0h2m3 0h3m1 0h2m1 0h2m2 0h1m2 0h3m1 0h4m1 0h1M6 164.5h1m3 0h1m2 0h8m1 0h2m2 0h5m4 0h3m4 0h3m2 0h1m1 0h2m1 0h1m1 0h1m1 0h1m1 0h1m1 0h1m1 0h2m3 0h1m1 0h1m4 0h1m1 0h3m3 0h1m2 0h1m2 0h2m4 0h1m2 0h2m1 0h2m7 0h1m1 0h1m1 0h3m2 0h1m1 0h2m1 0h1m1 0h1m1 0h7m1 0h1m1 0h1m1 0h1m6 0h1m3 0h4m1 0h1m1 0h3m2 0h4m4 0h2m1 0h1M5 165.5h1m2 0h2m5 0h2m2 0h2m6 0h1m2 0h1m1 0h1m3 0h3m2 0h5m2 0h2m1 0h1m3 0h2m1 0h1m1 0h3m1 0h1m3 0h1m1 0h2m1 0h1m1 0h2m1 0h3m2 0h1m2 0h2m3 0h1m2 0h1m5 0h2m1 0h1m2 0h1m1 0h2m1 0h2m3 0h1m5 0h5m6 0h4m1 0h2m2 0h2m2 0h1m1 0h3m1 0h1m3 0h2m1 0h1m2 0h3m1 0h1m1 0h2m2 0h1m1 0h3M4 166.5h1m1 0h1m1 0h1m1 0h3m2 0h5m1 0h1m4 0h1m1 0h2m1 0h1m1 0h1m3 0h2m3 0h1m3 0h2m1 0h4m1 0h3m10 0h1m1 0h2m1 0h1m6 0h4m1 0h1m1 0h1m3 0h1m1 0h2m1 0h8m1 0h2m1 0h5m1 0h4m1 0h3m1 0h2m3 0h3m4 0h1m2 0h7m3 0h5m1 0h2m5 0h1m4 0h3m4 0h2m1 0h1M7 167.5h2m3 0h2m1 0h1m1 0h2m2 0h2m2 0h2m2 0h1m2 0h1m1 0h1m1 0h3m2 0h4m1 0h2m3 0h2m2 0h1m1 0h1m2 0h5m1 0h1m1 0h1m4 0h4m1 0h1m7 0h1m1 0h5m3 0h1m1 0h1m2 0h1m2 0h1m2 0h3m6 0h2m1 0h1m4 0h1m2 0h1m2 0h2m1 0h1m1 0h1m4 0h2m1 0h2m3 0h2m4 0h3m2 0h1m1 0h1m1 0h2m1 0h6m4 0h1M6 168.5h1m1 0h3m1 0h3m1 0h1m5 0h1m2 0h1m2 0h5m1 0h1m5 0h1m3 0h2m1 0h2m1 0h3m1 0h8m5 0h2m1 0h1m3 0h2m1 0h1m1 0h1m2 0h1m1 0h5m1 0h2m1 0h1m1 0h1m1 0h5m4 0h1m2 0h1m2 0h7m1 0h2m6 0h6m3 0h1m1 0h10m1 0h1m1 0h1m2 0h1m2 0h1m2 0h2m1 0h2m2 0h5m1 0h2M12 169.5h1m3 0h2m1 0h3m1 0h4m1 0h1m3 0h1m6 0h3m1 0h2m2 0h1m2 0h1m2 0h1m2 0h1m3 0h1m3 0h2m2 0h3m1 0h5m2 0h2m1 0h3m3 0h2m1 0h2m1 0h1m1 0h2m1 0h1m1 0h1m1 0h2m1 0h1m4 0h2m3 0h3m3 0h3m1 0h1m2 0h1m4 0h1m1 0h1m1 0h3m3 0h3m3 0h1m1 0h1m1 0h1m1 0h1m1 0h2m1 0h5m2 0h1m3 0h5M4 170.5h7m1 0h1m1 0h4m2 0h1m5 0h3m1 0h1m1 0h2m3 0h1m2 0h2m1 0h1m5 0h1m2 0h2m2 0h1m1 0h1m1 0h2m5 0h7m6 0h5m1 0h1m1 0h4m1 0h1m1 0h4m3 0h1m4 0h1m1 0h1m1 0h2m1 0h1m1 0h1m1 0h4m3 0h2m1 0h1m1 0h1m3 0h1m1 0h5m1 0h1m1 0h1m2 0h2m2 0h1m1 0h3m1 0h2m1 0h1m4 0h4m1 0h1m1 0h1M4 171.5h1m5 0h1m3 0h3m1 0h1m1 0h6m2 0h1m3 0h1m2 0h1m1 0h1m1 0h2m2 0h2m1 0h2m3 0h3m1 0h2m3 0h1m2 0h5m5 0h4m1 0h2m3 0h2m3 0h3m1 0h2m1 0h4m4 0h3m1 0h3m2 0h1m3 0h1m5 0h1m1 0h2m2 0h1m1 0h3m3 0h1m2 0h2m3 0h2m1 0h2m4 0h3m4 0h2m4 0h1m1 0h1m3 0h2M4 172.5h1m1 0h3m1 0h1m1 0h4m2 0h3m1 0h12m2 0h3m1 0h1m1 0h1m1 0h1m5 0h1m3 0h1m1 0h5m1 0h3m1 0h5m4 0h4m5 0h5m2 0h1m2 0h1m3 0h6m5 0h10m1 0h1m2 0h1m1 0h1m2 0h3m1 0h1m4 0h1m2 0h9m1 0h4m4 0h1m3 0h1m2 0h1m2 0h5m1 0h2M4 173.5h1m1 0h3m1 0h1m1 0h2m4 0h5m1 0h4m2 0h2m2 0h2m5 0h4m1 0h5m5 0h1m2 0h1m1 0h8m1 0h4m4 0h2m1 0h3m1 0h1m2 0h1m3 0h3m1 0h1m2 0h3m4 0h2m1 0h1m1 0h5m3 0h1m2 0h3m1 0h2m2 0h2m1 0h2m1 0h1m1 0h1m1 0h1m3 0h3m2 0h6m1 0h2m1 0h1m1 0h1m2 0h2m1 0h2m1 0h1m2 0h3M4 174.5h1m1 0h3m1 0h1m1 0h2m2 0h1m1 0h2m3 0h2m2 0h1m4 0h3m1 0h5m1 0h2m1 0h1m1 0h1m4 0h1m1 0h7m4 0h1m1 0h6m2 0h1m3 0h2m1 0h1m1 0h4m1 0h3m5 0h1m1 0h1m2 0h3m3 0h4m1 0h2m4 0h1m2 0h1m3 0h5m1 0h1m1 0h1m2 0h3m6 0h3m2 0h1m2 0h1m3 0h3m6 0h1m4 0h2m1 0h1M4 175.5h1m5 0h1m1 0h2m2 0h1m3 0h1m4 0h1m2 0h2m2 0h1m1 0h1m1 0h6m1 0h6m2 0h1m3 0h1m3 0h1m1 0h7m1 0h1m3 0h2m1 0h3m2 0h1m1 0h4m3 0h2m1 0h4m1 0h1m2 0h1m1 0h2m5 0h1m1 0h1m2 0h1m2 0h1m2 0h1m1 0h1m3 0h1m3 0h1m1 0h1m1 0h1m3 0h4m1 0h2m1 0h1m1 0h1m3 0h2m2 0h1m1 0h3m1 0h2m1 0h3m2 0h2m2 0h1M4 176.5h7m1 0h2m1 0h1m2 0h2m1 0h2m3 0h2m5 0h3m2 0h1m2 0h1m2 0h3m3 0h3m1 0h1m1 0h4m3 0h1m1 0h1m1 0h1m2 0h1m1 0h1m3 0h2m1 0h3m1 0h1m1 0h1m1 0h2m4 0h3m1 0h1m2 0h1m2 0h1m2 0h2m1 0h1m1 0h1m1 0h1m2 0h3m1 0h1m2 0h1m4 0h1m1 0h1m1 0h1m3 0h2m2 0h1m5 0h1m4 0h2m3 0h1m1 0h1m1 0h1m7 0h7"/></svg>
