<?xml version="1.0" encoding="utf-8"?><!DOCTYPE svg PUBLIC "-//W3C//DTD SVG 1.1//EN" "http://www.w3.org/Graphics/SVG/1.1/DTD/svg11.dtd"><svg xmlns="http://www.w3.org/2000/svg" viewBox="0 0 185 185" shape-rendering="crispEdges"><path fill="#ffffff" d="M0 0h185v185H0z"/><path stroke="#000000" d="M4 4.5h7m2 0h1m1 0h3m4 0h1m1 0h1m3 0h1m2 0h1m2 0h1m2 0h2m4 0h2m3 0h2m3 0h1m1 0h2m1 0h5m1 0h1m2 0h2m1 0h2m3 0h2m2 0h2m1 0h4m1 0h1m1 0h1m1 0h2m1 0h3m4 0h1m1 0h4m1 0h2m2 0h1m8 0h7m1 0h1m1 0h1m1 0h2m1 0h1m8 0h1m1 0h1m1 0h3m4 0h1m1 0h1m4 0h3m2 0h1m1 0h1m3 0h7M4 5.5h1m5 0h1m1 0h1m1 0h1m2 0h2m1 0h1m1 0h1m1 0h3m1 0h1m3 0h1m2 0h2m1 0h1m2 0h3m1 0h1m1 0h1m2 0h4m4 0h1m2 0h2m2 0h1m1 0h2m1 0h3m4 0h1m1 0h6m5 0h1m6 0h3m2 0h1m2 0h2m1 0h1m1 0h2m2 0h1m1 0h1m1 0h4m3 0h3m1 0h1m1 0h2m2 0h1m2 0h2m1 0h3m2 0h1m2 0h1m4 0h2m1 0h1m1 0h3m1 0h1m3 0h1m2 0h1m1 0h1m1 0h1m5 0h1M4 6.5h1m1 0h3m1 0h1m5 0h4m1 0h1m1 0h5m2 0h1m1 0h2m2 0h1m9 0h1m2 0h1m2 0h2m1 0h4m5 0h3m4 0h1m3 0h2m2 0h1m5 0h4m2 0h3m2 0h1m1 0h1m3 0h1m2 0h2m1 0h2m3 0h4m2 0h1m2 0h1m1 0h1m1 0h2m1 0h1m3 0h4m3 0h1m2 0h1m1 0h5m1 0h1m1 0h2m6 0h1m2 0h1m1 0h2m2 0h1m3 0h1m1 0h3m1 0h1M4 7.5h1m1 0h3m1 0h1m1 0h1m1 0h2m2 0h4m4 0h1m6 0h1m1 0h1m2 0h3m1 0h1m4 0h1m1 0h3m1 0h2m1 0h1m2 0h2m3 0h1m1 0h1m4 0h1m2 0h1m1 0h3m1 0h2m4 0h2m2 0h2m2 0h1m3 0h1m1 0h3m3 0h2m3 0h2m2 0h1m3 0h3m3 0h1m2 0h3m2 0h1m1 0h2m2 0h6m2 0h3m2 0h1m3 0h2m1 0h1m2 0h2m4 0h1m2 0h2m1 0h1m1 0h3m1 0h1M4 8.5h1m1 0h3m1 0h1m2 0h2m1 0h3m3 0h1m3 0h2m2 0h7m3 0h2m1 0h2m1 0h1m1 0h1m2 0h1m2 0h1m5 0h10m3 0h3m1 0h1m4 0h4m2 0h7m2 0h1m1 0h1m3 0h1m1 0h2m5 0h2m1 0h6m1 0h4m1 0h1m3 0h1m1 0h4m1 0h2m1 0h2m1 0h7m1 0h3m1 0h3m2 0h1m1 0h3m1 0h3m4 0h1m1 0h3m1 0h1M4 9.5h1m5 0h1m1 0h2m1 0h2m2 0h2m2 0h1m2 0h1m2 0h1m1 0h2m3 0h1m1 0h2m1 0h1m1 0h1m2 0h2m1 0h6m3 0h3m3 0h1m2 0h4m1 0h1m6 0h7m2 0h1m3 0h1m2 0h1m1 0h6m1 0h2m1 0h5m4 0h1m3 0h8m1 0h1m2 0h1m4 0h3m1 0h2m1 0h1m3 0h1m4 0h2m3 0h1m1 0h2m1 0h1m6 0h1m1 0h1m1 0h1m5 0h1M4 10.5h7m1 0h1m1 0h1m1 0h1m1 0h1m1 0h1m1 0h1m1 0h1m1 0h1m1 0h1m1 0h1m1 0h1m1 0h1m1 0h1m1 0h1m1 0h1m1 0h1m1 0h1m1 0h1m1 0h1m1 0h1m1 0h1m1 0h1m1 0h1m1 0h1m1 0h1m1 0h1m1 0h1m1 0h1m1 0h1m1 0h1m1 0h1m1 0h1m1 0h1m1 0h1m1 0h1m1 0h1m1 0h1m1 0h1m1 0h1m1 0h1m1 0h1m1 0h1m1 0h1m1 0h1m1 0h1m1 0h1m1 0h1m1 0h1m1 0h1m1 0h1m1 0h1m1 0h1m1 0h1m1 0h1m1 0h1m1 0h1m1 0h1m1 0h1m1 0h1m1 0h1m1 0h1m1 0h1m1 0h1m1 0h1m1 0h1m1 0h1m1 0h1m1 0h1m1 0h1m1 0h1m1 0h1m1 0h1m1 0h1m1 0h1m1 0h1m1 0h1m1 0h1m1 0h1m1 0h1m1 0h1m1 0h1m1 0h7M13 11.5h5m4 0h2m1 0h4m1 0h3m3 0h2m1 0h1m1 0h1m1 0h1m2 0h2m1 0h1m2 0h2m3 0h4m3 0h4m3 0h1m1 0h6m3 0h1m3 0h1m1 0h1m3 0h1m3 0h1m2 0h1m1 0h4m1 0h1m1 0h3m3 0h1m1 0h1m3 0h1m2 0h1m2 0h1m1 0h1m2 0h2m2 0h4m2 0h4m3 0h1m3 0h1m1 0h3m2 0h2m2 0h1m2 0h1m1 0h1m3 0h1M4 12.5h5m1 0h3m1 0h1m3 0h3m3 0h3m2 0h8m5 0h1m1 0h1m2 0h5m2 0h1m1 0h1m3 0h5m1 0h3m1 0h1m2 0h2m2 0h2m1 0h1m5 0h9m2 0h1m1 0h2m4 0h3m1 0h1m2 0h2m2 0h6m1 0h1m1 0h1m1 0h4m1 0h2m3 0h1m2 0h1m1 0h1m1 0h8m5 0h2m3 0h1m1 0h1m2 0h1m1 0h2m1 0h2m1 0h1m1 0h1m1 0h1M4 13.5h1m2 0h1m3 0h2m6 0h1m2 0h1m1 0h1m1 0h3m3 0h2m1 0h1m1 0h1m5 0h1m3 0h2m4 0h6m1 0h6m1 0h1m2 0h3m1 0h3m1 0h1m1 0h1m1 0h3m1 0h3m2 0h2m1 0h1m4 0h1m1 0h1m1 0h1m2 0h2m1 0h1m1 0h3m1 0h2m1 0h1m3 0h5m2 0h1m1 0h1m1 0h2m1 0h1m1 0h1m4 0h1m1 0h1m2 0h1m1 0h7m1 0h1m2 0h1m1 0h2m1 0h3m1 0h1m4 0h1m1 0h1m2 0h1M4 14.5h1m1 0h1m1 0h6m2 0h1m1 0h2m2 0h1m1 0h1m1 0h1m3 0h2m5 0h1m1 0h3m3 0h1m6 0h1m1 0h1m2 0h2m2 0h2m1 0h2m1 0h4m1 0h1m2 0h1m4 0h1m1 0h1m1 0h1m3 0h3m5 0h4m2 0h1m4 0h2m1 0h1m3 0h2m1 0h2m2 0h2m1 0h4m1 0h1m2 0h1m1 0h1m2 0h1m2 0h2m2 0h3m3 0h2m1 0h2m2 0h1m2 0h2m3 0h3m3 0h1m1 0h2m1 0h1m1 0h2M4 15.5h4m1 0h1m1 0h1m1 0h1m1 0h1m2 0h4m1 0h2m2 0h4m1 0h2m2 0h1m1 0h2m3 0h1m2 0h2m1 0h1m2 0h1m2 0h1m2 0h1m1 0h1m2 0h1m2 0h2m3 0h1m1 0h2m1 0h1m1 0h2m5 0h4m3 0h3m1 0h2m5 0h2m3 0h4m1 0h2m2 0h1m1 0h1m3 0h3m1 0h4m1 0h1m2 0h3m4 0h1m3 0h1m2 0h1m1 0h1m2 0h2m7 0h1m1 0h3m1 0h1m2 0h3m1 0h3m1 0h1M4 16.5h1m1 0h2m1 0h2m5 0h3m1 0h2m1 0h1m1 0h2m1 0h4m2 0h4m2 0h2m3 0h1m2 0h3m2 0h4m2 0h1m1 0h1m2 0h4m3 0h1m3 0h1m5 0h2m2 0h2m3 0h6m1 0h7m1 0h3m4 0h1m4 0h3m3 0h1m1 0h1m1 0h2m1 0h1m1 0h2m1 0h1m1 0h1m2 0h1m1 0h1m1 0h2m1 0h4m1 0h2m5 0h4m2 0h1m1 0h1m1 0h2m1 0h1m2 0h1m3 0h2M4 17.5h2m1 0h1m5 0h2m1 0h1m1 0h2m2 0h2m4 0h2m2 0h4m2 0h2m1 0h1m1 0h2m3 0h3m2 0h1m1 0h4m1 0h5m2 0h5m9 0h1m1 0h1m3 0h4m1 0h1m1 0h4m1 0h2m2 0h1m1 0h2m2 0h1m3 0h1m1 0h2m1 0h5m1 0h3m6 0h2m1 0h1m1 0h2m1 0h1m2 0h2m2 0h1m1 0h4m1 0h2m1 0h1m2 0h1m1 0h4m1 0h1m1 0h2m1 0h1m1 0h1m2 0h1m1 0h1M4 18.5h2m3 0h4m4 0h2m2 0h1m2 0h4m3 0h1m1 0h1m1 0h2m1 0h2m1 0h1m3 0h2m5 0h2m1 0h1m1 0h2m2 0h2m1 0h1m4 0h5m5 0h2m1 0h1m1 0h2m2 0h1m1 0h2m5 0h4m1 0h1m4 0h4m1 0h2m1 0h1m1 0h2m1 0h1m1 0h1m1 0h2m3 0h1m1 0h1m2 0h3m1 0h1m2 0h1m1 0h2m1 0h2m1 0h1m7 0h1m2 0h2m1 0h1m1 0h2m2 0h2m2 0h7M8 19.5h1m2 0h4m1 0h6m2 0h1m1 0h2m4 0h2m5 0h2m2 0h5m3 0h1m1 0h1m1 0h2m1 0h1m1 0h4m1 0h2m6 0h2m1 0h1m1 0h2m5 0h3m1 0h1m1 0h1m2 0h1m1 0h1m1 0h1m2 0h2m1 0h1m1 0h5m3 0h3m4 0h1m1 0h1m1 0h2m1 0h1m3 0h2m1 0h1m1 0h3m1 0h2m2 0h1m8 0h1m8 0h1m2 0h1m4 0h2m1 0h3m1 0h3M5 20.5h1m2 0h5m2 0h1m2 0h2m2 0h1m1 0h1m1 0h2m1 0h1m1 0h3m1 0h2m3 0h4m2 0h2m2 0h1m1 0h1m1 0h1m1 0h1m4 0h1m7 0h1m1 0h1m3 0h2m1 0h1m1 0h1m1 0h1m2 0h2m3 0h1m1 0h3m4 0h3m7 0h1m2 0h2m2 0h2m1 0h2m6 0h6m2 0h1m1 0h1m1 0h1m1 0h2m5 0h3m1 0h1m2 0h4m1 0h1m1 0h4m1 0h1m1 0h2m2 0h1m3 0h1m1 0h1M6 21.5h1m1 0h1m4 0h1m2 0h7m3 0h2m1 0h3m5 0h1m3 0h1m2 0h2m4 0h1m2 0h2m1 0h1m4 0h2m1 0h1m3 0h1m2 0h2m4 0h2m5 0h1m2 0h8m2 0h1m1 0h3m4 0h1m8 0h1m4 0h1m2 0h2m1 0h1m7 0h1m1 0h1m1 0h1m2 0h3m1 0h1m2 0h2m2 0h3m1 0h2m4 0h4m2 0h1m2 0h3m3 0h1m2 0h1M4 22.5h1m1 0h5m2 0h1m10 0h1m2 0h3m3 0h1m1 0h2m1 0h3m2 0h1m1 0h1m1 0h1m4 0h4m1 0h2m4 0h1m3 0h2m1 0h4m3 0h1m1 0h4m1 0h2m2 0h1m1 0h1m2 0h1m1 0h1m1 0h3m2 0h3m3 0h5m1 0h1m3 0h2m4 0h3m1 0h2m3 0h7m2 0h3m1 0h1m10 0h1m2 0h1m2 0h1m2 0h1m2 0h2m3 0h6M4 23.5h3m2 0h1m1 0h3m4 0h2m1 0h1m5 0h1m3 0h2m1 0h2m1 0h1m1 0h3m3 0h4m2 0h2m5 0h1m1 0h5m1 0h1m6 0h2m1 0h1m1 0h2m5 0h3m5 0h1m2 0h1m1 0h1m2 0h4m1 0h1m1 0h1m1 0h1m4 0h1m3 0h1m3 0h1m2 0h8m1 0h1m2 0h3m1 0h1m3 0h2m1 0h1m2 0h1m1 0h1m2 0h1m2 0h2m4 0h1m4 0h2m1 0h3m1 0h3M4 24.5h5m1 0h1m3 0h1m3 0h2m1 0h1m3 0h1m1 0h2m1 0h1m1 0h1m1 0h1m3 0h1m3 0h2m4 0h3m1 0h3m2 0h1m3 0h1m3 0h3m1 0h2m3 0h4m4 0h1m2 0h3m2 0h3m1 0h1m5 0h2m1 0h1m3 0h1m1 0h2m1 0h2m2 0h1m6 0h2m3 0h1m1 0h1m6 0h1m1 0h2m1 0h1m1 0h2m1 0h3m1 0h1m5 0h3m2 0h1m1 0h2m2 0h1m1 0h1m1 0h1m2 0h1M4 25.5h2m1 0h3m4 0h4m1 0h4m1 0h2m1 0h2m2 0h1m2 0h1m2 0h2m3 0h3m1 0h1m1 0h3m5 0h2m1 0h1m1 0h2m1 0h1m1 0h1m1 0h2m1 0h2m1 0h1m4 0h4m1 0h1m2 0h2m1 0h1m1 0h3m4 0h2m2 0h1m2 0h4m2 0h1m3 0h1m3 0h8m1 0h1m1 0h1m1 0h4m1 0h2m3 0h2m2 0h5m3 0h2m2 0h1m1 0h2m1 0h6m1 0h1m1 0h1m3 0h1m2 0h1M4 26.5h1m1 0h7m3 0h3m2 0h1m4 0h3m2 0h1m2 0h1m2 0h3m1 0h1m1 0h1m5 0h4m5 0h2m5 0h1m2 0h3m1 0h1m7 0h1m1 0h1m1 0h2m2 0h1m2 0h1m1 0h1m1 0h2m1 0h1m1 0h1m1 0h2m1 0h1m1 0h4m3 0h1m2 0h5m1 0h8m3 0h2m1 0h2m3 0h1m1 0h3m1 0h3m3 0h1m4 0h2m2 0h1m2 0h1m4 0h1m2 0h1m2 0h3M4 27.5h3m4 0h1m2 0h1m1 0h10m1 0h1m2 0h1m2 0h2m1 0h2m1 0h2m2 0h5m1 0h1m1 0h1m3 0h1m1 0h2m1 0h2m2 0h1m1 0h2m5 0h4m1 0h2m3 0h1m2 0h2m4 0h2m2 0h1m4 0h5m2 0h1m2 0h2m9 0h2m3 0h1m1 0h4m1 0h1m2 0h1m1 0h3m4 0h1m2 0h1m1 0h1m1 0h3m1 0h1m3 0h1m1 0h1m1 0h2m2 0h1m2 0h2m2 0h3m1 0h1M5 28.5h3m1 0h2m1 0h1m1 0h3m1 0h1m1 0h1m1 0h2m2 0h1m1 0h1m1 0h2m3 0h2m1 0h6m3 0h1m2 0h2m2 0h4m1 0h1m1 0h1m4 0h2m1 0h1m1 0h1m2 0h1m3 0h2m1 0h1m8 0h2m5 0h1m1 0h2m1 0h2m2 0h1m3 0h4m3 0h2m8 0h4m1 0h1m7 0h1m1 0h2m1 0h1m1 0h5m5 0h2m1 0h1m1 0h1m1 0h1m2 0h2m1 0h2m1 0h1m1 0h1m3 0h2M4 29.5h3m4 0h1m1 0h1m2 0h3m2 0h1m3 0h1m3 0h2m2 0h3m4 0h1m2 0h4m1 0h1m3 0h6m2 0h5m2 0h2m4 0h1m1 0h2m3 0h3m1 0h1m3 0h1m1 0h5m4 0h2m3 0h4m1 0h1m2 0h1m3 0h1m1 0h2m1 0h2m1 0h4m5 0h4m1 0h2m3 0h1m4 0h1m2 0h2m2 0h3m4 0h3m1 0h3m6 0h2m2 0h1M6 30.5h2m2 0h2m1 0h1m1 0h1m3 0h1m2 0h2m1 0h3m3 0h1m2 0h1m7 0h1m2 0h1m3 0h1m1 0h3m1 0h1m2 0h1m4 0h3m2 0h1m1 0h4m1 0h1m1 0h1m1 0h2m1 0h1m1 0h2m2 0h1m4 0h1m3 0h4m1 0h1m1 0h1m4 0h2m2 0h3m2 0h1m1 0h1m2 0h4m2 0h1m1 0h2m3 0h2m2 0h1m3 0h2m1 0h1m2 0h2m1 0h2m5 0h1m1 0h2m1 0h2m3 0h1m3 0h2m1 0h1m1 0h1M5 31.5h1m3 0h1m2 0h4m6 0h1m1 0h2m1 0h1m2 0h2m1 0h2m1 0h2m3 0h1m1 0h2m1 0h1m1 0h2m2 0h1m2 0h10m1 0h1m7 0h1m1 0h4m5 0h2m4 0h3m1 0h2m1 0h1m4 0h6m1 0h3m1 0h3m2 0h1m2 0h2m1 0h2m2 0h2m2 0h5m1 0h1m1 0h2m3 0h1m4 0h7m1 0h2m5 0h2m1 0h1m2 0h2m1 0h5M7 32.5h6m2 0h2m1 0h2m1 0h1m1 0h5m1 0h2m1 0h5m2 0h1m2 0h1m1 0h1m2 0h2m1 0h2m2 0h2m2 0h7m2 0h1m1 0h1m1 0h1m3 0h1m2 0h1m5 0h1m1 0h9m4 0h5m1 0h3m1 0h1m1 0h3m1 0h6m4 0h1m1 0h4m1 0h2m5 0h2m1 0h10m1 0h1m3 0h4m1 0h1m1 0h2m1 0h4m1 0h5m3 0h1M4 33.5h1m2 0h2m3 0h5m2 0h3m1 0h1m2 0h3m1 0h1m1 0h1m3 0h2m1 0h6m2 0h2m2 0h1m3 0h2m3 0h1m3 0h3m1 0h5m2 0h1m1 0h1m3 0h1m1 0h1m1 0h4m3 0h1m1 0h1m1 0h1m3 0h2m1 0h1m1 0h2m4 0h1m4 0h1m3 0h3m1 0h1m1 0h1m6 0h2m1 0h4m4 0h1m3 0h1m1 0h1m1 0h1m1 0h5m2 0h4m1 0h4m1 0h2m3 0h1m3 0h1M5 34.5h1m1 0h2m1 0h1m1 0h2m1 0h1m1 0h3m2 0h1m1 0h2m4 0h1m1 0h1m1 0h1m1 0h1m1 0h3m4 0h1m1 0h1m1 0h1m2 0h1m4 0h2m1 0h1m1 0h1m1 0h1m2 0h2m1 0h1m1 0h2m1 0h1m3 0h2m1 0h1m1 0h1m3 0h1m1 0h1m1 0h2m1 0h2m2 0h1m1 0h4m2 0h1m2 0h1m1 0h1m1 0h3m1 0h1m1 0h2m2 0h4m1 0h1m2 0h1m1 0h1m2 0h2m4 0h2m1 0h1m1 0h1m2 0h1m1 0h1m3 0h1m2 0h1m2 0h1m2 0h1m2 0h2m1 0h1m1 0h1m1 0h1m2 0h1M5 35.5h1m1 0h2m3 0h1m1 0h2m1 0h1m3 0h1m3 0h1m1 0h4m1 0h1m3 0h1m2 0h3m3 0h2m1 0h2m1 0h2m2 0h1m2 0h1m1 0h1m3 0h1m1 0h1m6 0h2m1 0h1m1 0h2m1 0h1m1 0h1m1 0h2m1 0h1m3 0h5m1 0h2m1 0h2m1 0h2m1 0h2m2 0h1m1 0h2m1 0h1m3 0h1m2 0h2m3 0h2m2 0h2m1 0h1m3 0h4m1 0h1m3 0h2m2 0h3m1 0h1m2 0h3m4 0h2m1 0h1m2 0h1m3 0h1m1 0h3M5 36.5h2m1 0h6m2 0h1m2 0h3m3 0h1m1 0h2m1 0h1m1 0h5m2 0h1m3 0h3m1 0h6m1 0h1m4 0h6m1 0h2m3 0h1m1 0h1m1 0h3m3 0h1m1 0h4m1 0h5m1 0h1m2 0h1m1 0h2m2 0h1m1 0h3m4 0h1m1 0h1m1 0h6m3 0h1m1 0h4m1 0h1m2 0h1m1 0h1m2 0h1m1 0h1m1 0h6m3 0h2m6 0h1m1 0h1m1 0h1m2 0h9m2 0h1M4 37.5h2m1 0h2m2 0h1m1 0h4m1 0h1m5 0h1m1 0h3m1 0h1m1 0h2m1 0h1m1 0h3m4 0h1m3 0h4m1 0h2m1 0h4m1 0h1m3 0h2m2 0h2m1 0h1m1 0h1m2 0h1m4 0h1m1 0h1m5 0h1m1 0h1m1 0h1m1 0h1m2 0h3m4 0h2m3 0h2m2 0h2m2 0h2m1 0h1m1 0h3m2 0h1m1 0h1m1 0h1m2 0h4m3 0h1m1 0h1m2 0h2m1 0h3m2 0h2m3 0h4m3 0h1m1 0h4m1 0h1m3 0h1M5 38.5h1m3 0h3m1 0h2m1 0h1m2 0h4m1 0h1m1 0h1m1 0h2m3 0h2m1 0h1m1 0h6m2 0h1m5 0h1m5 0h8m2 0h1m1 0h1m1 0h2m5 0h2m1 0h1m1 0h2m1 0h3m1 0h2m3 0h3m3 0h2m6 0h1m3 0h4m1 0h1m1 0h4m2 0h3m3 0h1m1 0h4m1 0h1m1 0h1m1 0h1m5 0h2m1 0h3m4 0h2m1 0h1m1 0h3m1 0h2m1 0h1m3 0h1m1 0h2M7 39.5h1m1 0h1m1 0h1m6 0h1m6 0h1m3 0h1m2 0h4m1 0h3m1 0h1m1 0h4m2 0h1m1 0h1m1 0h1m2 0h3m1 0h1m1 0h3m1 0h1m6 0h2m1 0h1m1 0h1m2 0h1m1 0h1m1 0h2m3 0h2m2 0h1m1 0h1m2 0h1m1 0h2m2 0h1m2 0h4m3 0h1m2 0h1m1 0h1m1 0h1m1 0h1m1 0h1m1 0h1m1 0h3m2 0h1m1 0h4m3 0h4m3 0h1m1 0h2m2 0h1m2 0h2m2 0h4m3 0h5m1 0h2M4 40.5h1m3 0h1m1 0h1m3 0h2m2 0h3m3 0h2m3 0h1m1 0h3m8 0h2m1 0h3m2 0h1m3 0h1m1 0h2m1 0h1m1 0h3m2 0h1m4 0h1m1 0h1m1 0h3m2 0h4m4 0h2m4 0h1m3 0h4m3 0h2m4 0h3m3 0h1m1 0h1m5 0h1m1 0h2m1 0h1m1 0h2m5 0h1m2 0h2m2 0h1m2 0h2m1 0h2m2 0h5m1 0h1m1 0h7m1 0h1m1 0h3m2 0h2M4 41.5h1m1 0h2m3 0h1m1 0h1m2 0h1m4 0h1m3 0h1m1 0h2m1 0h1m2 0h1m2 0h2m2 0h1m2 0h2m4 0h2m2 0h1m1 0h2m2 0h2m8 0h2m2 0h3m3 0h1m1 0h4m4 0h2m2 0h3m1 0h1m2 0h1m2 0h1m1 0h2m2 0h1m5 0h1m3 0h2m1 0h1m1 0h1m1 0h1m2 0h1m4 0h5m4 0h3m2 0h2m1 0h3m2 0h2m6 0h1m3 0h1m2 0h2m2 0h1m1 0h1m1 0h2M6 42.5h1m1 0h5m1 0h3m2 0h2m4 0h1m1 0h2m2 0h2m2 0h1m2 0h1m4 0h1m2 0h1m3 0h3m2 0h1m2 0h1m1 0h1m3 0h2m2 0h1m1 0h1m1 0h2m5 0h2m1 0h1m1 0h2m1 0h6m3 0h5m1 0h3m2 0h1m1 0h3m1 0h4m1 0h1m1 0h1m1 0h1m1 0h1m1 0h2m1 0h3m2 0h4m1 0h1m1 0h2m1 0h1m2 0h2m2 0h1m1 0h2m2 0h4m1 0h2m5 0h1m3 0h1M5 43.5h2m8 0h1m1 0h2m2 0h3m3 0h2m2 0h1m2 0h1m1 0h2m8 0h1m1 0h2m2 0h2m3 0h2m2 0h3m2 0h2m5 0h4m1 0h1m7 0h4m1 0h1m1 0h1m1 0h2m1 0h1m4 0h2m3 0h1m1 0h2m2 0h5m1 0h1m1 0h1m1 0h1m3 0h1m1 0h2m1 0h2m2 0h1m2 0h6m1 0h1m3 0h2m1 0h2m1 0h1m2 0h1m2 0h4m1 0h1m3 0h1m1 0h1m1 0h1m1 0h1M4 44.5h4m1 0h2m4 0h1m2 0h1m2 0h3m1 0h1m1 0h1m2 0h3m2 0h1m1 0h2m2 0h4m2 0h2m1 0h1m3 0h1m1 0h1m3 0h2m1 0h1m1 0h3m3 0h1m1 0h1m1 0h3m1 0h1m2 0h2m2 0h1m1 0h2m3 0h2m2 0h1m2 0h3m3 0h2m1 0h6m3 0h1m4 0h1m4 0h5m6 0h2m1 0h1m3 0h1m2 0h3m3 0h2m1 0h2m1 0h3m3 0h1m1 0h5m1 0h2m2 0h2M5 45.5h2m2 0h1m1 0h1m3 0h1m1 0h2m6 0h4m1 0h2m2 0h1m3 0h2m1 0h6m1 0h2m1 0h1m1 0h4m1 0h3m6 0h1m1 0h3m3 0h4m1 0h1m2 0h3m4 0h1m2 0h3m3 0h1m4 0h3m4 0h3m1 0h3m3 0h2m1 0h3m2 0h2m3 0h1m1 0h1m1 0h2m1 0h1m1 0h2m2 0h11m3 0h1m2 0h1m1 0h3m1 0h1m7 0h1m1 0h1M4 46.5h3m1 0h1m1 0h1m2 0h1m2 0h1m2 0h3m5 0h1m3 0h2m1 0h2m3 0h1m5 0h3m1 0h7m1 0h1m1 0h1m2 0h1m1 0h2m1 0h2m1 0h1m1 0h1m4 0h1m1 0h2m1 0h1m8 0h2m4 0h1m1 0h2m1 0h1m2 0h1m2 0h3m1 0h1m1 0h3m1 0h1m1 0h2m1 0h2m2 0h1m2 0h2m2 0h1m1 0h1m2 0h3m2 0h2m14 0h1m5 0h1m3 0h1m1 0h2m1 0h1m1 0h1M4 47.5h3m2 0h1m1 0h2m2 0h1m1 0h1m3 0h2m4 0h1m5 0h2m1 0h1m2 0h1m3 0h1m1 0h3m1 0h1m3 0h1m2 0h3m2 0h2m2 0h3m1 0h1m1 0h1m2 0h1m1 0h2m5 0h1m2 0h3m4 0h1m2 0h1m4 0h2m1 0h3m1 0h4m3 0h4m1 0h1m1 0h1m1 0h3m1 0h4m2 0h1m2 0h1m1 0h1m4 0h1m1 0h2m3 0h7m1 0h2m2 0h1m2 0h1m7 0h1m2 0h2M4 48.5h1m1 0h1m1 0h1m1 0h1m1 0h1m2 0h1m1 0h1m1 0h2m2 0h2m2 0h1m1 0h2m2 0h1m2 0h2m4 0h1m1 0h1m2 0h4m2 0h2m7 0h2m3 0h1m1 0h3m1 0h1m2 0h1m1 0h2m6 0h1m1 0h1m2 0h2m7 0h1m1 0h2m1 0h1m1 0h1m3 0h3m3 0h1m1 0h1m3 0h1m3 0h4m1 0h2m1 0h1m3 0h4m1 0h1m2 0h1m1 0h3m4 0h1m1 0h3m1 0h4m1 0h5m1 0h1m2 0h1m3 0h1M4 49.5h1m1 0h1m1 0h1m5 0h1m2 0h1m3 0h1m1 0h2m2 0h4m1 0h4m1 0h2m1 0h1m1 0h4m1 0h2m2 0h1m1 0h5m1 0h1m5 0h1m1 0h5m1 0h6m1 0h1m1 0h4m1 0h1m2 0h5m1 0h2m1 0h3m2 0h3m2 0h1m1 0h2m2 0h1m1 0h3m3 0h2m1 0h2m1 0h2m3 0h1m1 0h4m3 0h1m3 0h7m2 0h3m3 0h1m1 0h2m1 0h2m2 0h3m1 0h1m1 0h2m1 0h1M4 50.5h2m2 0h1m1 0h3m2 0h2m3 0h1m1 0h4m1 0h1m1 0h2m1 0h2m3 0h2m7 0h1m3 0h1m1 0h1m2 0h1m1 0h6m1 0h1m3 0h1m1 0h1m1 0h2m1 0h1m3 0h2m1 0h2m3 0h2m3 0h1m2 0h10m2 0h6m1 0h1m2 0h4m2 0h1m1 0h1m2 0h2m4 0h1m3 0h2m5 0h1m1 0h3m4 0h1m3 0h1m1 0h1m2 0h1m2 0h2m5 0h1m1 0h4M6 51.5h4m1 0h2m4 0h1m1 0h1m1 0h4m1 0h2m3 0h1m3 0h1m2 0h2m5 0h2m5 0h2m2 0h1m1 0h1m3 0h1m1 0h3m2 0h1m3 0h2m1 0h1m1 0h1m4 0h1m3 0h2m2 0h1m1 0h4m5 0h4m2 0h1m4 0h3m2 0h6m1 0h1m1 0h1m2 0h2m1 0h1m1 0h1m5 0h1m2 0h3m1 0h2m1 0h6m2 0h2m2 0h1m1 0h3m1 0h1m1 0h5m2 0h2M5 52.5h2m1 0h1m1 0h2m3 0h1m2 0h1m1 0h1m4 0h2m2 0h4m2 0h1m1 0h2m1 0h6m1 0h6m1 0h2m4 0h2m1 0h2m3 0h2m1 0h3m3 0h2m2 0h1m3 0h1m2 0h1m2 0h3m3 0h1m2 0h2m4 0h1m2 0h1m1 0h2m2 0h3m6 0h1m3 0h6m6 0h4m1 0h3m2 0h2m1 0h2m1 0h5m1 0h1m1 0h1m2 0h2m1 0h1m4 0h2m2 0h2M5 53.5h2m1 0h1m2 0h4m2 0h2m1 0h4m1 0h1m4 0h1m4 0h1m6 0h1m2 0h1m2 0h2m3 0h1m1 0h2m1 0h3m2 0h1m1 0h3m1 0h1m3 0h2m4 0h2m1 0h4m1 0h2m1 0h1m1 0h3m5 0h2m1 0h1m2 0h1m1 0h2m1 0h3m1 0h1m1 0h1m1 0h1m1 0h7m1 0h2m2 0h4m1 0h2m3 0h1m3 0h2m3 0h1m1 0h1m6 0h2m1 0h3m1 0h1m1 0h1m2 0h1m1 0h1m4 0h1M4 54.5h1m4 0h3m1 0h1m2 0h2m1 0h1m1 0h1m2 0h2m1 0h1m2 0h2m1 0h2m4 0h1m1 0h2m3 0h1m4 0h3m3 0h1m2 0h1m2 0h3m2 0h3m1 0h2m1 0h2m2 0h4m1 0h2m2 0h2m1 0h2m2 0h4m3 0h1m1 0h2m3 0h2m4 0h1m1 0h3m2 0h2m1 0h4m1 0h1m4 0h1m2 0h1m3 0h1m1 0h2m2 0h2m1 0h1m3 0h1m3 0h3m1 0h1m1 0h3m1 0h1m6 0h1m1 0h1M4 55.5h2m2 0h2m3 0h4m2 0h1m3 0h1m1 0h1m3 0h1m2 0h2m1 0h1m2 0h1m1 0h2m1 0h1m1 0h3m3 0h2m2 0h1m2 0h1m1 0h3m3 0h1m2 0h1m1 0h1m2 0h3m1 0h1m7 0h2m6 0h1m1 0h1m1 0h8m2 0h1m2 0h1m1 0h3m1 0h6m5 0h2m1 0h1m1 0h1m1 0h1m3 0h1m1 0h1m2 0h3m4 0h1m2 0h1m2 0h1m7 0h2m6 0h2m1 0h1m1 0h1m1 0h1M4 56.5h2m1 0h2m1 0h3m1 0h1m1 0h1m1 0h5m2 0h1m2 0h1m3 0h1m2 0h1m2 0h2m3 0h3m2 0h4m2 0h4m2 0h3m2 0h1m1 0h2m2 0h2m1 0h1m1 0h3m3 0h3m6 0h5m1 0h1m1 0h2m5 0h1m4 0h2m6 0h1m1 0h1m3 0h1m1 0h2m1 0h1m1 0h1m7 0h1m1 0h1m1 0h3m2 0h2m1 0h1m2 0h10m2 0h2m2 0h3m5 0h2M4 57.5h6m3 0h7m2 0h3m1 0h1m1 0h1m1 0h1m3 0h5m1 0h7m1 0h3m2 0h4m1 0h3m7 0h1m1 0h3m2 0h1m1 0h1m2 0h1m1 0h1m5 0h5m1 0h2m1 0h1m2 0h1m3 0h3m2 0h1m2 0h1m2 0h3m3 0h6m7 0h1m1 0h1m1 0h2m3 0h1m1 0h1m2 0h2m2 0h1m3 0h3m4 0h1m1 0h2m1 0h1m1 0h2m2 0h1m5 0h1M6 58.5h2m2 0h2m1 0h1m1 0h3m2 0h1m1 0h2m1 0h2m1 0h2m2 0h3m1 0h5m1 0h2m2 0h1m3 0h3m2 0h1m2 0h3m3 0h2m2 0h3m1 0h2m3 0h1m1 0h2m1 0h4m3 0h2m1 0h2m2 0h1m1 0h2m1 0h3m2 0h1m1 0h4m1 0h4m1 0h1m1 0h2m1 0h1m3 0h1m3 0h1m2 0h2m2 0h3m4 0h1m1 0h3m1 0h1m1 0h3m3 0h2m5 0h1m6 0h1m1 0h3m1 0h1M8 59.5h2m5 0h3m1 0h3m1 0h1m1 0h5m2 0h1m1 0h3m2 0h3m4 0h1m1 0h1m2 0h3m4 0h1m3 0h1m2 0h2m4 0h1m2 0h3m1 0h2m1 0h1m1 0h1m2 0h3m4 0h1m1 0h2m1 0h1m5 0h1m1 0h2m1 0h1m4 0h2m1 0h2m1 0h3m3 0h1m1 0h1m1 0h4m2 0h1m5 0h1m1 0h3m7 0h1m2 0h1m2 0h1m4 0h2m1 0h2m1 0h2m1 0h1m1 0h3m1 0h1M5 60.5h1m2 0h6m5 0h2m2 0h1m1 0h1m1 0h2m3 0h6m2 0h1m1 0h2m1 0h1m1 0h4m2 0h4m3 0h5m1 0h2m1 0h3m1 0h2m1 0h1m1 0h1m2 0h1m4 0h1m1 0h5m1 0h1m2 0h1m1 0h3m1 0h1m3 0h1m1 0h2m1 0h2m2 0h6m1 0h1m3 0h1m2 0h1m1 0h2m5 0h2m1 0h7m1 0h1m1 0h1m2 0h5m2 0h1m1 0h1m4 0h2m1 0h5m1 0h3M4 61.5h1m2 0h2m3 0h4m1 0h1m3 0h1m1 0h3m1 0h1m3 0h2m3 0h3m1 0h1m1 0h4m1 0h3m1 0h1m2 0h3m1 0h3m3 0h1m3 0h5m2 0h1m3 0h1m1 0h1m1 0h3m1 0h2m3 0h1m1 0h1m1 0h1m3 0h1m4 0h3m3 0h3m1 0h2m3 0h3m1 0h1m1 0h1m4 0h1m1 0h7m4 0h1m3 0h2m1 0h2m1 0h1m1 0h4m4 0h1m1 0h3m2 0h2m3 0h3m1 0h1M6 62.5h3m1 0h1m1 0h1m7 0h1m2 0h1m1 0h1m2 0h1m3 0h1m1 0h1m1 0h2m1 0h1m3 0h1m1 0h1m1 0h1m2 0h1m1 0h1m4 0h4m1 0h1m1 0h2m1 0h2m1 0h1m1 0h2m6 0h1m1 0h1m1 0h2m2 0h1m1 0h1m1 0h2m1 0h1m1 0h6m1 0h1m2 0h1m3 0h2m1 0h3m1 0h1m1 0h1m1 0h1m1 0h2m1 0h1m1 0h1m1 0h3m1 0h4m2 0h1m1 0h2m1 0h1m1 0h2m1 0h1m1 0h3m4 0h1m2 0h1m2 0h1m4 0h2m1 0h1m1 0h4M4 63.5h1m3 0h1m3 0h1m1 0h1m2 0h1m3 0h8m2 0h2m3 0h3m5 0h4m1 0h1m1 0h3m1 0h1m2 0h3m3 0h2m1 0h1m3 0h1m2 0h6m1 0h1m4 0h3m3 0h7m2 0h1m1 0h1m1 0h2m1 0h2m6 0h1m3 0h1m2 0h1m4 0h3m1 0h4m4 0h1m3 0h1m3 0h1m3 0h1m1 0h1m1 0h2m1 0h2m2 0h1m2 0h1m1 0h2m2 0h1m3 0h1m1 0h3M4 64.5h1m3 0h5m1 0h1m2 0h2m1 0h1m1 0h1m2 0h1m5 0h7m4 0h2m1 0h1m3 0h2m1 0h1m1 0h1m2 0h1m1 0h8m11 0h2m4 0h1m2 0h6m4 0h1m2 0h2m3 0h1m3 0h2m1 0h1m1 0h7m2 0h1m3 0h6m7 0h1m1 0h1m1 0h8m1 0h1m1 0h4m1 0h1m1 0h3m4 0h2m1 0h5m3 0h1M4 65.5h3m1 0h1m2 0h4m1 0h1m1 0h3m3 0h3m1 0h1m3 0h3m1 0h1m1 0h5m1 0h2m2 0h2m4 0h1m1 0h2m1 0h1m1 0h3m1 0h1m4 0h1m1 0h1m1 0h2m4 0h1m1 0h4m5 0h2m1 0h1m1 0h1m4 0h1m1 0h5m4 0h1m2 0h2m5 0h1m1 0h1m1 0h2m3 0h1m1 0h7m1 0h1m3 0h2m2 0h1m2 0h1m2 0h1m2 0h2m3 0h4m1 0h2m1 0h1m1 0h2m2 0h4M4 66.5h1m2 0h1m1 0h2m2 0h1m3 0h1m1 0h4m1 0h2m4 0h2m2 0h3m1 0h2m3 0h1m7 0h3m3 0h2m2 0h1m3 0h1m1 0h2m1 0h3m7 0h3m1 0h2m2 0h5m2 0h1m1 0h4m3 0h1m2 0h1m1 0h2m1 0h3m1 0h2m1 0h1m2 0h1m2 0h3m3 0h3m1 0h2m4 0h1m1 0h1m4 0h1m1 0h2m2 0h2m4 0h2m1 0h1m5 0h5m3 0h3M8 67.5h1m3 0h4m1 0h2m3 0h1m1 0h1m1 0h2m1 0h2m1 0h4m1 0h1m1 0h1m1 0h1m1 0h3m1 0h3m2 0h1m4 0h2m2 0h2m1 0h1m1 0h1m6 0h2m1 0h1m1 0h1m4 0h1m1 0h9m1 0h1m1 0h1m1 0h1m2 0h1m1 0h2m1 0h3m3 0h3m5 0h1m2 0h1m4 0h2m1 0h2m1 0h3m2 0h1m1 0h1m1 0h2m5 0h1m2 0h2m3 0h1m3 0h1m2 0h1m1 0h2m7 0h2m1 0h1M5 68.5h1m1 0h1m2 0h1m3 0h5m3 0h3m1 0h2m2 0h2m1 0h3m1 0h1m2 0h2m1 0h1m2 0h1m1 0h4m2 0h2m2 0h1m1 0h1m1 0h1m2 0h1m2 0h2m4 0h2m1 0h2m2 0h3m2 0h2m3 0h1m2 0h2m2 0h1m1 0h3m3 0h1m2 0h1m2 0h2m1 0h1m2 0h1m1 0h2m1 0h3m2 0h1m1 0h4m1 0h1m5 0h2m3 0h1m1 0h1m1 0h1m1 0h1m4 0h2m2 0h4m4 0h4m1 0h1m1 0h1m2 0h2M5 69.5h3m1 0h1m1 0h2m4 0h1m2 0h4m2 0h1m6 0h3m1 0h5m2 0h2m2 0h1m1 0h1m4 0h2m1 0h2m2 0h1m1 0h1m2 0h1m2 0h5m5 0h3m1 0h1m4 0h1m1 0h1m2 0h1m1 0h2m1 0h2m4 0h4m2 0h2m3 0h2m4 0h4m7 0h2m1 0h1m1 0h1m5 0h1m1 0h1m2 0h1m2 0h5m1 0h2m1 0h6m1 0h1m3 0h1m1 0h3m3 0h1M5 70.5h4m1 0h1m2 0h2m1 0h1m1 0h2m1 0h5m2 0h2m1 0h4m1 0h1m1 0h2m1 0h1m4 0h1m5 0h4m2 0h1m1 0h2m3 0h1m1 0h2m1 0h2m1 0h1m1 0h1m1 0h1m2 0h1m1 0h1m1 0h2m2 0h1m1 0h2m1 0h1m1 0h10m3 0h1m1 0h5m1 0h1m3 0h1m1 0h4m1 0h1m1 0h3m2 0h1m1 0h1m2 0h1m2 0h4m1 0h2m1 0h2m1 0h2m2 0h1m1 0h2m4 0h3m1 0h1m1 0h1m1 0h1m1 0h1m2 0h1M4 71.5h2m1 0h1m1 0h1m1 0h6m1 0h2m3 0h1m1 0h4m3 0h3m2 0h2m4 0h5m1 0h1m2 0h2m2 0h1m1 0h3m1 0h5m2 0h1m1 0h1m2 0h1m1 0h1m1 0h2m1 0h1m4 0h3m2 0h3m1 0h1m1 0h1m3 0h1m1 0h2m1 0h5m3 0h2m2 0h1m1 0h1m1 0h1m3 0h3m1 0h1m2 0h3m2 0h1m1 0h1m3 0h2m2 0h1m2 0h1m2 0h3m3 0h2m1 0h1m2 0h1m2 0h1m1 0h1m1 0h1m3 0h3M6 72.5h5m1 0h2m1 0h2m2 0h1m1 0h2m1 0h2m3 0h1m1 0h1m5 0h1m1 0h2m1 0h1m1 0h3m3 0h3m1 0h1m5 0h1m1 0h1m3 0h3m5 0h2m1 0h2m1 0h1m2 0h1m1 0h1m1 0h1m2 0h2m1 0h3m2 0h1m1 0h1m2 0h1m6 0h4m3 0h2m1 0h2m1 0h1m1 0h1m1 0h2m1 0h1m1 0h1m6 0h2m1 0h2m2 0h1m3 0h1m1 0h1m2 0h1m1 0h3m1 0h2m4 0h4m1 0h5m2 0h2M4 73.5h1m1 0h1m1 0h2m1 0h2m2 0h2m1 0h1m2 0h2m1 0h1m1 0h1m2 0h1m1 0h2m3 0h2m1 0h1m1 0h4m1 0h3m1 0h2m1 0h2m1 0h1m4 0h1m2 0h1m3 0h2m2 0h2m7 0h3m2 0h1m7 0h1m1 0h1m2 0h2m2 0h1m1 0h3m14 0h1m1 0h1m1 0h2m3 0h1m2 0h1m1 0h1m1 0h2m3 0h2m1 0h1m4 0h2m5 0h1m2 0h5m1 0h4m2 0h5m2 0h1M4 74.5h3m3 0h3m1 0h3m1 0h1m2 0h2m3 0h1m1 0h1m1 0h1m2 0h1m1 0h1m4 0h2m1 0h1m7 0h5m1 0h3m8 0h1m1 0h1m11 0h2m1 0h1m1 0h2m1 0h4m1 0h2m1 0h1m1 0h1m1 0h1m4 0h1m1 0h3m2 0h1m1 0h1m1 0h7m1 0h1m5 0h1m1 0h5m1 0h1m2 0h1m1 0h1m2 0h1m1 0h2m2 0h2m4 0h1m1 0h2m1 0h2m2 0h2m1 0h1m5 0h2M4 75.5h1m6 0h1m1 0h2m7 0h2m1 0h4m3 0h1m2 0h2m2 0h1m1 0h1m3 0h3m1 0h1m2 0h2m1 0h1m2 0h5m1 0h4m1 0h1m1 0h1m2 0h3m1 0h1m2 0h1m1 0h1m1 0h2m1 0h2m2 0h3m3 0h2m2 0h3m3 0h1m1 0h1m4 0h1m2 0h2m3 0h1m1 0h1m2 0h1m1 0h2m1 0h2m1 0h1m2 0h2m1 0h3m6 0h2m1 0h4m3 0h1m4 0h2m1 0h1m3 0h1m1 0h1m1 0h2m1 0h1M7 76.5h2m1 0h3m1 0h3m3 0h2m1 0h1m1 0h1m3 0h1m1 0h1m2 0h3m1 0h1m3 0h3m3 0h1m1 0h1m3 0h1m2 0h1m1 0h3m1 0h2m1 0h2m3 0h1m2 0h1m1 0h8m1 0h1m1 0h1m1 0h1m1 0h1m1 0h1m1 0h1m1 0h1m2 0h2m3 0h3m4 0h3m2 0h2m1 0h2m1 0h1m1 0h1m1 0h6m3 0h2m4 0h1m2 0h4m1 0h2m3 0h2m1 0h1m1 0h1m1 0h4m1 0h8m1 0h5M4 77.5h6m1 0h2m2 0h1m3 0h1m2 0h2m2 0h1m2 0h2m1 0h1m1 0h1m1 0h4m1 0h2m1 0h2m1 0h3m1 0h2m1 0h1m1 0h1m1 0h2m2 0h3m1 0h1m1 0h2m1 0h2m4 0h1m2 0h1m2 0h4m7 0h1m2 0h1m1 0h2m3 0h3m2 0h1m1 0h3m2 0h2m3 0h6m2 0h1m3 0h4m1 0h1m4 0h1m3 0h1m1 0h2m1 0h1m3 0h3m2 0h4m1 0h3m1 0h2m2 0h1m1 0h2M4 78.5h1m3 0h1m1 0h2m3 0h1m1 0h2m1 0h3m2 0h2m1 0h2m2 0h2m1 0h1m1 0h2m1 0h1m9 0h3m1 0h2m3 0h3m5 0h4m6 0h1m1 0h4m1 0h2m2 0h1m1 0h2m1 0h1m1 0h5m2 0h2m3 0h13m1 0h1m4 0h4m2 0h1m3 0h4m3 0h3m2 0h1m2 0h1m1 0h3m3 0h2m4 0h2m2 0h1m2 0h3m5 0h1M4 79.5h1m2 0h3m1 0h1m1 0h2m1 0h1m2 0h1m1 0h1m2 0h1m5 0h1m1 0h1m1 0h1m3 0h4m1 0h1m2 0h4m2 0h2m1 0h1m1 0h2m2 0h2m1 0h4m3 0h1m1 0h1m2 0h1m1 0h1m3 0h1m2 0h2m1 0h1m3 0h2m2 0h1m1 0h2m2 0h4m2 0h5m4 0h3m1 0h3m2 0h1m3 0h2m1 0h1m3 0h1m2 0h5m2 0h3m1 0h1m2 0h4m1 0h1m1 0h1m1 0h1m2 0h1m4 0h1m6 0h3M4 80.5h2m2 0h1m1 0h1m7 0h1m1 0h2m1 0h4m3 0h1m1 0h2m2 0h1m2 0h2m1 0h1m6 0h3m1 0h2m5 0h5m1 0h3m5 0h1m1 0h1m3 0h3m2 0h5m1 0h1m2 0h2m1 0h4m5 0h1m2 0h4m5 0h1m1 0h2m3 0h1m1 0h2m1 0h1m1 0h1m4 0h1m2 0h1m1 0h1m2 0h3m1 0h1m2 0h1m4 0h2m2 0h1m2 0h2m1 0h10m3 0h1M4 81.5h1m1 0h2m1 0h1m2 0h3m1 0h3m4 0h2m1 0h1m7 0h6m3 0h3m1 0h2m2 0h1m2 0h1m1 0h2m7 0h1m1 0h4m1 0h1m1 0h1m2 0h1m3 0h2m1 0h2m5 0h1m2 0h2m4 0h1m2 0h1m1 0h2m2 0h1m2 0h1m3 0h1m2 0h1m2 0h4m1 0h1m3 0h1m1 0h1m2 0h4m9 0h1m1 0h4m1 0h2m1 0h1m1 0h4m1 0h1m1 0h1m5 0h3m1 0h1m1 0h1M4 82.5h1m1 0h5m1 0h1m1 0h3m4 0h3m1 0h2m1 0h2m3 0h4m1 0h2m3 0h1m3 0h1m3 0h2m1 0h2m2 0h2m1 0h1m5 0h2m1 0h3m7 0h4m3 0h2m1 0h1m1 0h2m3 0h1m1 0h1m2 0h1m1 0h1m3 0h4m2 0h6m1 0h2m2 0h2m1 0h1m1 0h1m1 0h2m1 0h6m2 0h3m1 0h3m7 0h2m1 0h2m1 0h1m1 0h1m1 0h1m10 0h2M4 83.5h4m3 0h3m2 0h1m11 0h1m2 0h1m1 0h2m2 0h1m1 0h3m3 0h2m2 0h1m2 0h1m4 0h2m1 0h7m4 0h1m2 0h1m1 0h3m4 0h1m1 0h1m3 0h1m2 0h1m3 0h4m2 0h1m1 0h7m2 0h1m1 0h1m1 0h2m1 0h1m1 0h2m1 0h1m3 0h1m1 0h1m2 0h3m2 0h4m1 0h1m3 0h1m2 0h2m1 0h3m3 0h2m4 0h1m1 0h2m1 0h1m3 0h2m1 0h3M4 84.5h1m3 0h1m1 0h2m1 0h4m1 0h1m8 0h2m2 0h1m3 0h3m3 0h2m2 0h1m1 0h1m2 0h2m2 0h1m1 0h1m3 0h4m1 0h1m3 0h2m1 0h1m1 0h8m3 0h1m1 0h1m1 0h1m1 0h1m8 0h2m1 0h1m8 0h1m2 0h1m2 0h1m1 0h2m3 0h1m2 0h1m1 0h4m3 0h1m1 0h4m2 0h4m1 0h1m2 0h1m1 0h1m1 0h2m3 0h3m2 0h2m1 0h1m1 0h1m1 0h1m1 0h1m2 0h1M4 85.5h2m6 0h2m2 0h3m1 0h1m5 0h2m2 0h1m1 0h2m1 0h2m2 0h2m2 0h2m3 0h1m1 0h1m2 0h4m4 0h1m1 0h1m1 0h1m5 0h3m6 0h1m2 0h3m5 0h1m2 0h3m8 0h4m3 0h1m2 0h3m4 0h4m1 0h1m5 0h2m1 0h2m1 0h1m1 0h1m3 0h1m6 0h1m2 0h3m1 0h1m2 0h3m3 0h1m1 0h6m4 0h1M4 86.5h2m3 0h2m3 0h1m1 0h1m2 0h1m4 0h1m4 0h2m2 0h2m2 0h4m1 0h1m2 0h1m1 0h1m1 0h1m1 0h3m3 0h3m1 0h1m6 0h1m1 0h1m1 0h1m2 0h1m1 0h1m2 0h1m1 0h3m2 0h2m1 0h1m1 0h1m2 0h2m1 0h2m2 0h1m5 0h1m1 0h1m3 0h1m1 0h2m1 0h1m4 0h1m4 0h3m2 0h3m2 0h2m1 0h1m1 0h2m2 0h1m1 0h2m1 0h2m4 0h3m1 0h1m1 0h2m2 0h1m1 0h1m5 0h1M4 87.5h6m1 0h2m1 0h2m1 0h1m2 0h3m2 0h1m5 0h1m2 0h1m1 0h2m5 0h2m1 0h1m2 0h1m1 0h3m4 0h1m1 0h3m1 0h1m1 0h2m1 0h1m1 0h1m2 0h1m1 0h1m1 0h2m3 0h1m1 0h2m1 0h1m1 0h1m1 0h2m2 0h1m2 0h2m2 0h2m1 0h5m2 0h1m1 0h1m2 0h1m1 0h1m2 0h3m4 0h1m1 0h6m2 0h1m2 0h2m3 0h2m2 0h1m1 0h1m4 0h2m3 0h1m1 0h1m6 0h1m1 0h1m2 0h3M6 88.5h7m3 0h1m1 0h3m1 0h2m1 0h4m1 0h7m2 0h1m2 0h1m1 0h1m2 0h2m1 0h3m3 0h1m3 0h8m1 0h1m1 0h2m1 0h3m1 0h2m1 0h1m5 0h6m1 0h2m3 0h4m3 0h2m1 0h1m2 0h2m1 0h7m6 0h1m1 0h1m1 0h1m7 0h1m1 0h1m1 0h5m1 0h2m3 0h3m2 0h1m1 0h1m6 0h9m1 0h1M4 89.5h2m1 0h2m3 0h4m1 0h2m1 0h3m3 0h3m2 0h2m3 0h1m1 0h4m1 0h2m3 0h3m2 0h5m1 0h2m3 0h2m2 0h3m1 0h2m2 0h1m6 0h1m2 0h3m3 0h1m1 0h1m2 0h1m1 0h2m5 0h3m2 0h1m3 0h2m3 0h5m1 0h2m1 0h1m4 0h1m1 0h1m1 0h1m5 0h1m3 0h2m1 0h2m3 0h3m2 0h5m1 0h3m2 0h1m3 0h1m3 0h1M6 90.5h1m1 0h1m1 0h1m1 0h1m1 0h1m1 0h2m1 0h1m1 0h3m1 0h4m3 0h1m1 0h1m1 0h3m1 0h2m9 0h2m1 0h1m3 0h1m1 0h1m1 0h1m1 0h1m2 0h4m1 0h1m4 0h1m4 0h4m2 0h1m1 0h1m1 0h2m1 0h2m1 0h1m2 0h2m4 0h8m1 0h1m1 0h1m1 0h2m2 0h2m2 0h3m2 0h1m1 0h1m3 0h1m2 0h3m1 0h1m1 0h2m1 0h1m2 0h2m4 0h1m4 0h1m3 0h2m1 0h1m1 0h1m1 0h4M4 91.5h5m3 0h1m6 0h3m1 0h2m1 0h1m3 0h1m1 0h1m3 0h1m1 0h3m4 0h2m2 0h1m5 0h2m1 0h1m1 0h1m3 0h1m1 0h2m3 0h1m1 0h1m1 0h2m1 0h1m2 0h1m3 0h4m3 0h1m1 0h2m3 0h1m2 0h1m1 0h2m3 0h2m2 0h2m1 0h1m3 0h1m2 0h1m1 0h1m1 0h1m5 0h1m1 0h1m1 0h1m4 0h3m3 0h1m2 0h1m2 0h1m2 0h1m1 0h2m3 0h3m1 0h1m3 0h1m3 0h3M6 92.5h10m2 0h2m2 0h1m4 0h1m1 0h1m2 0h5m5 0h1m1 0h3m1 0h3m1 0h1m1 0h2m1 0h1m1 0h6m1 0h1m2 0h1m1 0h1m1 0h1m2 0h6m1 0h1m1 0h11m2 0h1m1 0h4m2 0h2m2 0h1m1 0h1m1 0h8m1 0h1m4 0h1m1 0h4m1 0h2m2 0h4m1 0h7m2 0h1m1 0h4m2 0h3m7 0h6m2 0h2M4 93.5h2m2 0h1m4 0h1m2 0h1m1 0h1m1 0h1m1 0h2m1 0h1m1 0h1m2 0h1m2 0h1m2 0h4m3 0h1m1 0h3m1 0h4m1 0h4m3 0h2m3 0h2m4 0h1m2 0h3m2 0h1m1 0h2m1 0h2m1 0h1m2 0h1m1 0h3m7 0h1m2 0h1m5 0h1m3 0h1m1 0h1m1 0h1m1 0h6m6 0h5m2 0h4m1 0h2m2 0h3m3 0h1m1 0h1m2 0h1m1 0h2m2 0h8m1 0h1m2 0h2M4 94.5h1m4 0h3m1 0h1m1 0h1m1 0h1m1 0h6m2 0h1m1 0h1m1 0h1m6 0h1m2 0h1m2 0h2m1 0h1m3 0h3m1 0h1m1 0h1m1 0h1m1 0h1m1 0h1m3 0h5m1 0h1m5 0h4m1 0h2m5 0h1m1 0h1m1 0h4m1 0h3m1 0h1m2 0h1m1 0h2m1 0h1m1 0h4m3 0h1m2 0h1m2 0h2m6 0h3m3 0h1m1 0h1m2 0h1m4 0h1m1 0h3m1 0h1m2 0h2m4 0h2m1 0h1m1 0h1m2 0h4m1 0h1M4 95.5h3m2 0h1m4 0h6m5 0h1m1 0h2m1 0h1m4 0h1m1 0h1m1 0h3m1 0h2m1 0h2m1 0h1m2 0h1m2 0h1m1 0h3m1 0h1m4 0h1m4 0h1m2 0h6m1 0h1m3 0h4m1 0h1m2 0h1m2 0h2m1 0h1m2 0h5m1 0h1m1 0h2m2 0h1m2 0h2m1 0h6m2 0h7m1 0h2m2 0h1m1 0h1m2 0h1m2 0h1m3 0h1m1 0h2m1 0h1m1 0h2m2 0h7m2 0h1m5 0h2M4 96.5h1m1 0h1m2 0h3m1 0h3m1 0h3m1 0h1m1 0h2m1 0h2m2 0h1m2 0h1m1 0h1m2 0h2m2 0h1m1 0h1m3 0h4m2 0h4m2 0h3m1 0h4m4 0h1m1 0h1m1 0h2m1 0h1m2 0h3m1 0h7m1 0h2m1 0h4m2 0h1m1 0h3m1 0h1m2 0h2m3 0h2m9 0h1m1 0h1m1 0h1m2 0h1m1 0h1m1 0h4m2 0h1m1 0h2m1 0h1m2 0h1m1 0h2m1 0h2m1 0h3m1 0h1m3 0h2m5 0h2m2 0h1M5 97.5h3m1 0h1m1 0h3m1 0h2m1 0h1m1 0h1m3 0h2m1 0h3m2 0h2m2 0h1m1 0h8m1 0h1m1 0h1m1 0h1m2 0h1m1 0h5m1 0h1m2 0h2m1 0h2m1 0h2m1 0h2m4 0h5m1 0h1m4 0h1m2 0h1m2 0h1m1 0h2m5 0h1m5 0h1m4 0h3m1 0h2m1 0h4m3 0h1m4 0h1m1 0h1m2 0h1m1 0h7m1 0h3m2 0h1m1 0h1m2 0h1m1 0h3m2 0h1m2 0h2m1 0h1m3 0h1m1 0h1M5 98.5h1m2 0h1m1 0h1m1 0h1m1 0h2m1 0h2m1 0h4m3 0h1m4 0h3m1 0h3m7 0h2m1 0h2m1 0h4m1 0h2m3 0h1m1 0h1m2 0h2m1 0h3m4 0h1m2 0h1m1 0h1m1 0h1m2 0h2m2 0h3m1 0h4m1 0h6m2 0h4m2 0h6m1 0h1m1 0h2m4 0h3m2 0h2m1 0h5m1 0h1m2 0h1m4 0h1m2 0h2m1 0h1m2 0h1m4 0h2m4 0h1m2 0h1m1 0h4M5 99.5h1m1 0h2m3 0h1m2 0h1m2 0h3m4 0h1m1 0h1m2 0h2m3 0h1m1 0h2m1 0h2m2 0h1m1 0h1m4 0h1m3 0h1m1 0h4m2 0h1m1 0h3m3 0h1m2 0h1m1 0h4m1 0h1m4 0h1m1 0h3m5 0h3m1 0h1m4 0h1m2 0h3m2 0h3m8 0h1m1 0h1m1 0h1m7 0h1m2 0h1m1 0h2m1 0h3m1 0h1m2 0h1m2 0h2m4 0h1m3 0h3m1 0h2m2 0h1m4 0h3M5 100.5h1m3 0h2m1 0h4m1 0h1m2 0h1m3 0h3m1 0h1m1 0h1m8 0h1m2 0h2m3 0h4m2 0h3m1 0h1m2 0h8m1 0h2m1 0h1m1 0h1m2 0h2m2 0h3m1 0h8m1 0h1m4 0h3m5 0h1m3 0h2m1 0h1m2 0h4m3 0h1m2 0h2m1 0h1m1 0h1m2 0h1m1 0h1m2 0h1m1 0h1m1 0h2m2 0h1m1 0h2m4 0h2m2 0h1m1 0h1m1 0h5m1 0h1m6 0h1m2 0h1M4 101.5h2m2 0h1m3 0h1m4 0h1m1 0h1m1 0h1m3 0h2m1 0h3m5 0h2m4 0h1m1 0h1m1 0h1m1 0h2m1 0h1m2 0h3m3 0h1m1 0h1m1 0h1m1 0h1m3 0h5m1 0h1m4 0h2m1 0h1m1 0h1m2 0h1m1 0h1m1 0h3m1 0h1m8 0h2m4 0h1m4 0h4m1 0h6m3 0h1m4 0h1m1 0h1m2 0h1m3 0h5m2 0h1m1 0h1m1 0h1m4 0h5m2 0h2m1 0h5m1 0h4M7 102.5h1m1 0h2m2 0h1m1 0h3m1 0h2m4 0h2m2 0h2m1 0h3m1 0h1m1 0h2m1 0h3m1 0h2m5 0h1m5 0h2m1 0h3m1 0h1m1 0h6m4 0h1m1 0h2m1 0h1m1 0h2m3 0h1m3 0h2m1 0h3m3 0h1m1 0h1m3 0h3m1 0h1m1 0h3m2 0h1m1 0h2m1 0h2m1 0h4m1 0h1m1 0h3m2 0h1m1 0h1m1 0h1m1 0h2m3 0h2m1 0h2m2 0h2m1 0h2m4 0h1m2 0h1m3 0h6M5 103.5h1m3 0h1m4 0h1m1 0h3m4 0h3m1 0h4m1 0h2m2 0h1m1 0h1m2 0h1m1 0h1m1 0h5m2 0h2m2 0h1m1 0h3m5 0h2m5 0h7m1 0h1m3 0h2m1 0h1m1 0h1m2 0h1m1 0h4m3 0h3m1 0h1m1 0h1m5 0h2m1 0h1m2 0h1m2 0h1m4 0h1m1 0h1m2 0h1m2 0h1m1 0h1m1 0h1m1 0h1m1 0h3m1 0h1m3 0h4m4 0h1m3 0h3m1 0h2m2 0h1m2 0h1m2 0h3M4 104.5h1m2 0h1m1 0h2m1 0h2m2 0h1m3 0h2m1 0h1m1 0h2m1 0h2m6 0h1m3 0h1m1 0h1m1 0h2m2 0h4m2 0h1m2 0h1m3 0h4m6 0h1m1 0h1m1 0h1m1 0h1m2 0h1m4 0h3m2 0h3m1 0h1m2 0h1m2 0h2m8 0h1m1 0h1m7 0h1m2 0h1m4 0h6m1 0h1m3 0h2m1 0h1m2 0h1m1 0h2m1 0h1m6 0h2m1 0h5m2 0h5m1 0h1m1 0h1m1 0h1m2 0h1M4 105.5h1m1 0h2m3 0h2m2 0h2m1 0h3m2 0h4m1 0h1m2 0h1m1 0h2m1 0h1m2 0h2m1 0h3m5 0h1m2 0h1m1 0h2m2 0h1m2 0h1m1 0h1m1 0h1m1 0h1m2 0h1m2 0h4m1 0h1m1 0h2m2 0h1m2 0h2m4 0h2m3 0h1m1 0h1m1 0h2m1 0h2m1 0h1m1 0h3m2 0h5m1 0h3m1 0h2m1 0h1m1 0h1m2 0h1m1 0h1m1 0h2m1 0h1m1 0h4m4 0h2m3 0h1m4 0h1m2 0h2m1 0h2m1 0h2m2 0h1m1 0h5M5 106.5h1m1 0h5m3 0h1m2 0h1m1 0h3m1 0h4m2 0h3m1 0h1m4 0h3m3 0h3m1 0h1m2 0h1m2 0h1m1 0h1m5 0h1m3 0h4m1 0h1m6 0h7m3 0h1m1 0h1m1 0h1m1 0h1m1 0h4m1 0h1m1 0h1m2 0h1m1 0h2m3 0h3m5 0h2m2 0h5m1 0h1m1 0h5m4 0h1m6 0h2m2 0h1m2 0h1m2 0h2m5 0h1m3 0h2m1 0h1m1 0h3M5 107.5h1m3 0h1m1 0h1m1 0h2m2 0h2m3 0h1m1 0h2m1 0h4m1 0h4m3 0h1m5 0h3m4 0h2m3 0h3m6 0h1m2 0h3m1 0h2m1 0h1m1 0h1m6 0h5m5 0h5m3 0h4m1 0h2m4 0h6m4 0h1m1 0h2m2 0h4m2 0h1m1 0h4m2 0h2m2 0h1m3 0h3m1 0h2m1 0h1m5 0h2m2 0h1m5 0h1m2 0h1M10 108.5h2m1 0h1m3 0h1m1 0h1m2 0h1m1 0h1m1 0h1m2 0h1m3 0h1m2 0h1m1 0h3m1 0h1m1 0h1m1 0h2m1 0h4m7 0h3m1 0h1m2 0h1m1 0h3m1 0h1m3 0h3m2 0h2m1 0h1m1 0h3m1 0h2m2 0h1m1 0h1m1 0h2m1 0h2m2 0h1m3 0h4m3 0h1m1 0h2m6 0h4m1 0h2m1 0h1m1 0h1m2 0h3m4 0h2m1 0h2m3 0h1m1 0h2m1 0h3m1 0h1m2 0h1m2 0h1m2 0h1m2 0h1m2 0h2M5 109.5h1m2 0h2m2 0h1m3 0h1m2 0h2m3 0h2m1 0h1m1 0h1m4 0h1m2 0h2m1 0h2m1 0h3m1 0h2m1 0h2m4 0h5m1 0h4m1 0h6m3 0h1m1 0h1m1 0h2m3 0h1m2 0h2m1 0h1m2 0h1m2 0h1m2 0h1m4 0h3m10 0h1m4 0h2m1 0h2m1 0h1m4 0h1m1 0h1m1 0h2m1 0h2m2 0h3m3 0h2m2 0h4m2 0h5m4 0h1m3 0h5m1 0h1M4 110.5h2m1 0h5m1 0h2m1 0h1m3 0h1m1 0h1m2 0h4m2 0h1m1 0h2m1 0h2m1 0h2m8 0h1m1 0h3m1 0h1m1 0h2m2 0h1m6 0h1m1 0h1m1 0h1m6 0h2m1 0h1m1 0h2m2 0h1m2 0h2m3 0h3m2 0h4m5 0h2m1 0h4m2 0h1m2 0h1m3 0h2m1 0h2m1 0h4m1 0h1m5 0h2m1 0h2m2 0h1m2 0h1m1 0h1m2 0h1m1 0h1m2 0h1m3 0h1m1 0h2m4 0h4M5 111.5h1m2 0h2m4 0h3m1 0h1m1 0h1m3 0h4m1 0h1m1 0h1m1 0h1m2 0h1m1 0h2m1 0h1m1 0h1m1 0h2m5 0h1m2 0h1m2 0h2m1 0h1m3 0h2m6 0h4m1 0h1m6 0h2m1 0h1m1 0h1m1 0h2m1 0h3m3 0h1m2 0h2m1 0h4m2 0h3m1 0h3m4 0h3m4 0h2m2 0h2m3 0h3m1 0h2m2 0h1m5 0h1m2 0h1m1 0h3m3 0h2m2 0h1m7 0h4M4 112.5h4m2 0h2m2 0h3m1 0h2m5 0h1m1 0h2m1 0h2m1 0h1m1 0h1m2 0h1m3 0h1m1 0h1m2 0h1m1 0h3m1 0h4m5 0h4m1 0h2m1 0h1m4 0h6m5 0h3m2 0h2m1 0h1m4 0h4m3 0h1m5 0h1m1 0h1m1 0h1m1 0h1m1 0h2m1 0h1m1 0h1m1 0h7m3 0h1m1 0h2m1 0h4m2 0h3m2 0h1m2 0h10m1 0h4m1 0h1m2 0h1m1 0h2M4 113.5h1m1 0h2m1 0h1m1 0h4m2 0h1m1 0h1m2 0h3m1 0h2m6 0h3m1 0h2m1 0h2m1 0h1m1 0h5m3 0h3m2 0h3m2 0h2m2 0h3m7 0h2m1 0h2m3 0h1m1 0h4m1 0h3m1 0h1m5 0h1m1 0h4m3 0h2m4 0h3m1 0h3m1 0h2m5 0h2m1 0h3m4 0h2m1 0h2m3 0h3m1 0h5m1 0h4m1 0h1m1 0h1m1 0h2m2 0h2m1 0h2m1 0h1M6 114.5h1m1 0h1m1 0h3m2 0h1m1 0h2m1 0h4m3 0h4m1 0h1m1 0h2m4 0h1m1 0h1m3 0h1m2 0h1m2 0h1m2 0h1m1 0h3m2 0h2m4 0h3m1 0h2m1 0h2m2 0h2m1 0h3m6 0h2m4 0h4m1 0h1m5 0h1m3 0h1m1 0h2m3 0h1m2 0h2m2 0h2m6 0h7m1 0h2m2 0h1m2 0h2m2 0h2m2 0h2m1 0h2m5 0h1m1 0h1m1 0h6m1 0h2M5 115.5h1m2 0h2m1 0h1m1 0h2m1 0h2m4 0h1m1 0h3m2 0h2m2 0h1m1 0h2m2 0h4m1 0h4m1 0h1m1 0h2m3 0h1m1 0h2m1 0h1m4 0h2m1 0h1m1 0h1m1 0h4m1 0h1m7 0h1m1 0h1m1 0h2m3 0h2m1 0h1m3 0h4m2 0h1m1 0h2m4 0h1m4 0h1m2 0h1m1 0h1m1 0h1m1 0h2m1 0h1m1 0h2m1 0h2m4 0h3m1 0h1m2 0h1m2 0h1m2 0h1m1 0h3m1 0h1m1 0h2m2 0h1m2 0h1m2 0h1m2 0h2M4 116.5h9m2 0h4m1 0h2m2 0h1m7 0h5m1 0h1m1 0h1m2 0h1m1 0h2m2 0h7m4 0h5m1 0h5m2 0h2m1 0h4m3 0h2m1 0h7m1 0h2m1 0h1m1 0h3m3 0h3m1 0h1m1 0h2m2 0h6m7 0h3m1 0h1m2 0h1m1 0h1m2 0h1m1 0h1m1 0h5m1 0h1m1 0h2m1 0h2m1 0h3m1 0h1m1 0h2m1 0h1m2 0h7m3 0h1M4 117.5h2m2 0h1m3 0h2m1 0h1m1 0h1m2 0h2m5 0h3m2 0h1m3 0h2m1 0h1m1 0h2m1 0h2m2 0h2m5 0h2m3 0h1m3 0h2m1 0h1m5 0h1m1 0h1m2 0h4m2 0h2m1 0h2m3 0h1m1 0h1m1 0h2m5 0h1m1 0h3m4 0h1m2 0h2m3 0h3m1 0h1m1 0h2m5 0h2m1 0h4m1 0h1m2 0h1m3 0h3m1 0h1m3 0h1m5 0h1m1 0h1m1 0h3m1 0h1m1 0h1m3 0h1m3 0h1M4 118.5h2m2 0h1m1 0h1m1 0h2m2 0h3m1 0h1m1 0h3m1 0h1m2 0h1m1 0h2m1 0h1m1 0h1m2 0h1m2 0h1m4 0h1m1 0h1m1 0h5m2 0h3m1 0h1m1 0h1m5 0h3m4 0h1m1 0h1m2 0h1m1 0h1m3 0h1m1 0h1m1 0h1m2 0h2m1 0h1m1 0h1m1 0h1m1 0h1m3 0h4m2 0h1m1 0h1m1 0h1m1 0h2m1 0h4m2 0h4m2 0h3m2 0h1m3 0h1m1 0h1m1 0h2m1 0h1m1 0h2m2 0h1m2 0h2m1 0h1m1 0h1m1 0h1m1 0h1m1 0h2m1 0h1m1 0h4M7 119.5h2m3 0h1m4 0h2m8 0h1m2 0h1m1 0h1m3 0h1m2 0h3m1 0h1m2 0h3m3 0h2m1 0h1m2 0h1m1 0h1m3 0h1m1 0h1m6 0h2m1 0h1m1 0h1m2 0h1m3 0h1m1 0h2m3 0h1m2 0h2m1 0h2m1 0h1m1 0h2m3 0h1m4 0h4m3 0h5m2 0h1m5 0h1m2 0h2m1 0h3m2 0h1m3 0h1m2 0h1m2 0h1m2 0h1m2 0h2m1 0h1m2 0h1m5 0h1m3 0h1m1 0h2M5 120.5h2m1 0h9m3 0h1m1 0h4m2 0h11m1 0h1m1 0h1m1 0h1m5 0h1m2 0h2m1 0h1m3 0h5m1 0h2m4 0h1m1 0h1m1 0h1m1 0h2m2 0h2m2 0h9m2 0h1m2 0h2m1 0h1m2 0h1m5 0h1m2 0h6m7 0h3m1 0h2m1 0h1m1 0h1m1 0h14m2 0h1m2 0h5m1 0h1m3 0h10M4 121.5h3m1 0h2m1 0h1m1 0h2m1 0h2m1 0h4m2 0h1m2 0h1m3 0h1m1 0h1m1 0h2m1 0h4m1 0h5m2 0h1m2 0h3m2 0h4m1 0h2m3 0h2m2 0h1m1 0h3m2 0h6m1 0h1m1 0h1m2 0h1m1 0h3m4 0h1m3 0h2m1 0h2m3 0h1m1 0h1m2 0h2m1 0h7m5 0h2m1 0h4m2 0h1m2 0h1m2 0h5m2 0h5m1 0h1m4 0h1m1 0h2m1 0h2m4 0h1m1 0h2M4 122.5h2m1 0h1m2 0h1m1 0h3m3 0h1m1 0h1m9 0h1m1 0h1m1 0h1m1 0h2m3 0h3m1 0h3m4 0h3m2 0h1m1 0h1m1 0h1m1 0h2m2 0h4m1 0h2m5 0h4m1 0h1m4 0h1m3 0h1m1 0h1m6 0h1m3 0h1m1 0h6m1 0h2m1 0h1m1 0h1m1 0h3m3 0h2m1 0h1m5 0h1m1 0h1m1 0h1m4 0h4m3 0h2m2 0h1m2 0h2m4 0h1m2 0h2m1 0h3m1 0h1m2 0h1M4 123.5h1m1 0h1m1 0h1m6 0h1m1 0h1m1 0h4m1 0h1m1 0h7m1 0h1m1 0h4m3 0h2m1 0h1m1 0h1m3 0h2m1 0h1m2 0h1m1 0h1m1 0h3m1 0h2m1 0h1m3 0h2m1 0h1m1 0h2m5 0h1m1 0h3m4 0h1m1 0h3m5 0h1m1 0h1m3 0h1m2 0h4m4 0h3m4 0h1m6 0h3m4 0h2m1 0h2m4 0h2m1 0h2m1 0h1m2 0h1m5 0h2m3 0h3m1 0h2m1 0h1M4 124.5h1m1 0h2m2 0h8m4 0h1m2 0h2m3 0h3m4 0h1m4 0h2m1 0h1m1 0h5m2 0h1m1 0h2m1 0h3m5 0h1m4 0h1m2 0h1m1 0h1m1 0h1m6 0h6m1 0h1m1 0h1m1 0h4m1 0h2m3 0h1m1 0h2m1 0h1m4 0h4m2 0h1m4 0h3m1 0h1m6 0h6m1 0h3m1 0h1m1 0h1m4 0h3m2 0h2m3 0h1m1 0h2m6 0h1m1 0h2M6 125.5h4m3 0h1m1 0h2m4 0h1m4 0h1m3 0h1m1 0h1m2 0h2m2 0h2m3 0h1m1 0h1m1 0h1m1 0h1m2 0h4m2 0h8m2 0h2m2 0h2m1 0h1m1 0h3m1 0h2m5 0h4m1 0h2m1 0h1m2 0h2m4 0h1m2 0h1m1 0h1m3 0h1m2 0h1m2 0h2m1 0h3m2 0h2m2 0h2m1 0h1m1 0h2m3 0h1m4 0h1m4 0h4m1 0h1m2 0h1m2 0h1m1 0h1m1 0h1m1 0h1m1 0h2m1 0h1m2 0h1m1 0h1M4 126.5h1m1 0h1m1 0h1m1 0h2m3 0h1m1 0h1m1 0h1m6 0h4m2 0h5m3 0h2m3 0h3m3 0h2m2 0h1m2 0h2m2 0h1m1 0h2m2 0h5m6 0h4m2 0h1m9 0h5m2 0h2m5 0h2m2 0h4m1 0h3m1 0h3m2 0h1m1 0h1m1 0h1m2 0h3m1 0h1m2 0h1m1 0h1m2 0h1m3 0h1m2 0h2m2 0h1m2 0h4m1 0h2m5 0h3m2 0h2M4 127.5h1m2 0h1m3 0h2m1 0h1m2 0h2m3 0h3m1 0h1m2 0h2m4 0h1m1 0h1m1 0h2m4 0h2m4 0h3m4 0h1m1 0h1m1 0h6m5 0h4m1 0h2m3 0h1m2 0h1m1 0h2m1 0h1m1 0h4m4 0h2m2 0h2m1 0h1m1 0h1m2 0h1m1 0h2m2 0h1m2 0h4m1 0h2m3 0h2m5 0h2m1 0h4m1 0h2m5 0h1m2 0h1m2 0h1m4 0h5m2 0h1m1 0h5M4 128.5h2m2 0h1m1 0h3m2 0h3m5 0h1m3 0h1m1 0h4m1 0h4m1 0h1m2 0h2m1 0h1m1 0h2m2 0h1m2 0h1m1 0h2m1 0h3m1 0h1m3 0h2m3 0h2m1 0h1m1 0h1m6 0h5m1 0h1m1 0h1m6 0h2m4 0h3m1 0h2m1 0h4m1 0h1m1 0h1m3 0h1m4 0h5m6 0h10m1 0h3m2 0h2m1 0h1m3 0h2m1 0h1m4 0h1m2 0h3m1 0h1M4 129.5h1m1 0h1m1 0h1m2 0h2m1 0h1m2 0h1m2 0h1m1 0h2m2 0h6m1 0h13m2 0h1m1 0h1m5 0h5m1 0h3m1 0h1m1 0h1m1 0h1m3 0h1m7 0h1m3 0h1m2 0h6m2 0h1m1 0h3m4 0h1m5 0h1m2 0h1m2 0h2m2 0h1m1 0h1m1 0h1m2 0h1m3 0h4m1 0h1m6 0h1m2 0h1m2 0h2m2 0h4m3 0h1m3 0h1m1 0h6m3 0h2m1 0h1M4 130.5h1m1 0h1m1 0h1m1 0h3m2 0h2m1 0h1m3 0h1m4 0h3m2 0h1m1 0h4m5 0h1m2 0h1m5 0h2m1 0h1m2 0h1m3 0h1m1 0h2m1 0h2m1 0h2m1 0h1m5 0h4m1 0h1m11 0h1m1 0h5m1 0h1m2 0h2m1 0h2m2 0h5m1 0h3m1 0h3m1 0h4m2 0h6m3 0h1m2 0h2m1 0h1m1 0h1m6 0h3m4 0h1m3 0h1m2 0h3m2 0h1m1 0h1M4 131.5h1m1 0h1m2 0h1m1 0h2m2 0h1m1 0h2m2 0h1m10 0h3m1 0h2m2 0h2m2 0h3m2 0h1m1 0h2m5 0h1m3 0h2m2 0h2m3 0h1m2 0h3m1 0h1m2 0h1m3 0h2m1 0h2m1 0h3m2 0h1m6 0h6m2 0h1m1 0h7m3 0h2m1 0h3m4 0h1m2 0h2m2 0h3m2 0h1m1 0h2m4 0h3m1 0h1m1 0h1m1 0h1m4 0h2m3 0h1m3 0h2m1 0h2M5 132.5h1m1 0h1m1 0h2m1 0h2m1 0h1m2 0h2m3 0h1m1 0h2m3 0h3m2 0h3m1 0h2m2 0h1m2 0h1m1 0h3m1 0h3m1 0h2m2 0h1m5 0h1m6 0h2m1 0h1m1 0h2m3 0h1m3 0h2m1 0h5m2 0h2m1 0h1m1 0h1m2 0h3m1 0h1m2 0h1m2 0h1m1 0h3m3 0h1m1 0h1m1 0h1m2 0h1m1 0h2m3 0h1m1 0h2m1 0h1m1 0h2m1 0h4m4 0h2m1 0h3m1 0h4m2 0h1m1 0h1m2 0h3m1 0h1m1 0h2M4 133.5h1m1 0h1m1 0h1m2 0h1m2 0h4m6 0h2m2 0h1m4 0h2m3 0h1m2 0h3m1 0h2m1 0h3m3 0h4m2 0h3m1 0h2m1 0h2m1 0h2m2 0h2m1 0h1m4 0h1m7 0h6m1 0h1m3 0h1m4 0h4m2 0h2m3 0h1m1 0h1m1 0h2m1 0h3m7 0h1m1 0h1m1 0h2m3 0h1m8 0h6m1 0h1m1 0h1m1 0h2m3 0h1m1 0h1m1 0h1m6 0h1M4 134.5h2m2 0h1m1 0h1m1 0h1m2 0h3m1 0h1m1 0h3m1 0h1m2 0h5m2 0h1m2 0h5m8 0h3m3 0h3m2 0h3m3 0h1m1 0h1m1 0h2m2 0h1m2 0h2m1 0h3m8 0h6m1 0h1m1 0h1m1 0h2m3 0h3m3 0h2m1 0h3m3 0h1m1 0h2m2 0h2m1 0h1m5 0h1m1 0h1m1 0h1m1 0h3m3 0h1m2 0h1m2 0h1m1 0h3m3 0h1m3 0h1m1 0h5m2 0h2M7 135.5h1m1 0h1m1 0h1m1 0h1m3 0h2m1 0h1m1 0h1m3 0h2m3 0h1m1 0h1m2 0h2m3 0h1m2 0h3m1 0h2m2 0h1m4 0h5m4 0h1m7 0h5m2 0h1m4 0h1m1 0h1m2 0h2m2 0h2m4 0h2m1 0h2m2 0h1m4 0h4m4 0h3m1 0h1m5 0h1m3 0h1m3 0h2m1 0h1m2 0h1m6 0h4m1 0h1m2 0h1m2 0h1m1 0h5m5 0h5M6 136.5h1m2 0h2m3 0h1m2 0h1m2 0h1m2 0h1m2 0h1m3 0h1m4 0h4m2 0h2m6 0h3m2 0h1m1 0h1m1 0h3m4 0h1m1 0h1m1 0h1m1 0h1m2 0h1m3 0h2m2 0h1m3 0h6m2 0h2m1 0h1m1 0h5m1 0h3m2 0h1m1 0h1m6 0h1m1 0h1m1 0h1m1 0h1m1 0h2m1 0h1m1 0h2m1 0h1m3 0h2m1 0h1m1 0h3m1 0h1m1 0h5m2 0h2m3 0h1m7 0h3m1 0h1m2 0h1m1 0h1M5 137.5h1m2 0h2m1 0h2m1 0h2m1 0h1m1 0h4m2 0h1m1 0h1m4 0h2m5 0h2m3 0h1m2 0h2m1 0h1m3 0h3m3 0h2m2 0h2m4 0h2m1 0h1m1 0h2m1 0h5m2 0h1m1 0h1m1 0h1m1 0h2m1 0h1m2 0h1m2 0h1m2 0h1m2 0h1m1 0h2m1 0h3m1 0h1m2 0h2m1 0h4m1 0h2m5 0h2m1 0h1m1 0h2m1 0h1m1 0h1m1 0h1m1 0h3m1 0h2m3 0h1m1 0h2m1 0h4m3 0h1m1 0h4m1 0h1m1 0h2m1 0h1M5 138.5h3m2 0h1m1 0h2m2 0h3m1 0h1m2 0h1m1 0h1m1 0h4m3 0h6m1 0h1m1 0h1m1 0h1m1 0h1m4 0h1m2 0h1m1 0h3m1 0h5m1 0h6m2 0h1m1 0h1m2 0h1m1 0h4m1 0h1m2 0h2m3 0h2m1 0h3m1 0h1m1 0h2m1 0h4m1 0h1m3 0h1m1 0h3m2 0h1m1 0h1m1 0h1m1 0h1m1 0h1m1 0h6m2 0h1m4 0h1m7 0h1m2 0h1m1 0h2m4 0h1m1 0h1m3 0h2m1 0h1m1 0h3M5 139.5h2m1 0h2m3 0h4m2 0h2m10 0h6m3 0h1m5 0h1m1 0h2m1 0h2m2 0h1m1 0h3m1 0h1m3 0h2m6 0h2m1 0h3m2 0h1m3 0h5m4 0h3m1 0h2m1 0h8m1 0h1m5 0h2m1 0h1m1 0h1m1 0h1m1 0h1m1 0h1m1 0h3m5 0h1m4 0h1m1 0h2m1 0h1m1 0h1m1 0h1m2 0h1m2 0h1m2 0h1m2 0h1m2 0h2m5 0h4m1 0h1m1 0h1M4 140.5h4m1 0h3m1 0h4m1 0h2m1 0h1m1 0h7m3 0h1m2 0h4m1 0h1m2 0h2m1 0h2m1 0h1m3 0h1m1 0h1m6 0h1m2 0h4m1 0h1m1 0h1m1 0h1m1 0h4m3 0h1m1 0h3m1 0h2m1 0h2m2 0h1m1 0h2m2 0h1m3 0h1m1 0h1m2 0h1m2 0h1m4 0h1m2 0h1m3 0h4m1 0h2m3 0h1m1 0h4m1 0h2m2 0h2m2 0h1m3 0h4m2 0h1m1 0h2m3 0h3m1 0h2m4 0h1M4 141.5h1m3 0h1m2 0h1m2 0h1m1 0h1m1 0h2m1 0h1m1 0h2m1 0h2m1 0h3m1 0h1m2 0h3m1 0h1m1 0h3m2 0h2m1 0h1m2 0h1m2 0h3m1 0h3m1 0h2m1 0h1m2 0h4m3 0h1m2 0h5m3 0h3m1 0h6m3 0h1m1 0h1m1 0h2m5 0h1m2 0h2m1 0h3m3 0h3m4 0h1m2 0h1m1 0h1m1 0h2m1 0h3m1 0h1m3 0h1m2 0h2m3 0h1m6 0h1m1 0h1m1 0h1m3 0h2m2 0h1m1 0h1m1 0h1M4 142.5h1m1 0h2m1 0h2m1 0h1m1 0h1m1 0h3m4 0h5m1 0h2m1 0h1m1 0h1m1 0h1m3 0h1m1 0h2m1 0h2m5 0h2m3 0h2m4 0h3m2 0h1m1 0h1m1 0h2m5 0h2m1 0h3m5 0h1m2 0h1m2 0h1m1 0h2m2 0h1m1 0h1m2 0h3m2 0h1m1 0h1m1 0h1m1 0h1m1 0h1m3 0h1m1 0h1m2 0h1m1 0h1m3 0h4m2 0h1m2 0h1m1 0h1m1 0h1m1 0h1m3 0h2m2 0h1m1 0h1m1 0h2m1 0h2m4 0h2m1 0h1M6 143.5h4m2 0h1m1 0h1m2 0h1m4 0h2m2 0h3m2 0h1m3 0h3m1 0h1m2 0h2m2 0h1m5 0h1m5 0h2m1 0h4m1 0h1m2 0h1m1 0h1m1 0h7m5 0h1m2 0h2m1 0h1m1 0h1m1 0h3m2 0h5m1 0h1m1 0h1m6 0h2m10 0h7m1 0h1m3 0h1m1 0h6m4 0h1m1 0h3m1 0h1m1 0h3m1 0h1m2 0h2m3 0h1m1 0h1m1 0h1m2 0h1M6 144.5h1m1 0h9m2 0h6m2 0h2m1 0h1m1 0h5m2 0h2m1 0h3m2 0h1m2 0h3m1 0h3m2 0h7m1 0h1m1 0h1m2 0h2m3 0h3m1 0h1m2 0h1m2 0h6m5 0h3m1 0h1m2 0h1m3 0h5m2 0h6m5 0h2m1 0h1m1 0h1m4 0h1m2 0h9m1 0h1m1 0h1m1 0h3m1 0h2m2 0h1m1 0h1m2 0h1m2 0h7M4 145.5h2m2 0h1m3 0h1m1 0h1m1 0h1m1 0h1m1 0h2m1 0h2m1 0h3m1 0h3m3 0h1m1 0h1m1 0h7m1 0h1m1 0h1m4 0h1m1 0h1m2 0h1m3 0h10m2 0h2m4 0h1m2 0h1m1 0h2m3 0h3m1 0h2m2 0h2m4 0h1m1 0h1m6 0h2m3 0h1m1 0h6m3 0h1m2 0h1m1 0h1m1 0h2m1 0h4m3 0h2m2 0h1m2 0h1m5 0h4m1 0h1m1 0h1m1 0h3m3 0h3m1 0h1M4 146.5h2m1 0h2m1 0h1m1 0h2m5 0h3m3 0h3m3 0h2m1 0h1m1 0h3m1 0h2m1 0h1m1 0h3m1 0h1m2 0h1m1 0h1m2 0h1m1 0h2m1 0h1m1 0h1m2 0h2m1 0h1m1 0h1m2 0h1m3 0h2m1 0h1m1 0h2m1 0h2m1 0h1m1 0h1m4 0h3m2 0h2m4 0h4m1 0h4m1 0h1m1 0h1m1 0h1m1 0h3m2 0h1m1 0h2m1 0h1m1 0h4m2 0h1m1 0h1m1 0h1m1 0h3m2 0h3m3 0h2m2 0h1m2 0h1m2 0h2m1 0h1m1 0h1m1 0h1m1 0h1M4 147.5h1m3 0h1m3 0h2m2 0h1m3 0h3m1 0h1m4 0h1m1 0h2m3 0h1m1 0h1m6 0h2m1 0h2m3 0h1m1 0h1m1 0h4m3 0h1m1 0h1m2 0h1m1 0h1m2 0h3m1 0h2m5 0h2m1 0h1m3 0h3m1 0h1m1 0h1m3 0h3m3 0h1m1 0h1m2 0h2m1 0h1m3 0h1m2 0h1m2 0h1m2 0h2m3 0h4m1 0h1m1 0h2m1 0h1m3 0h1m2 0h5m1 0h1m2 0h1m2 0h1m2 0h1m5 0h1m3 0h3M6 148.5h7m1 0h1m4 0h1m2 0h1m1 0h2m3 0h1m1 0h9m4 0h2m4 0h1m1 0h1m1 0h1m1 0h2m2 0h8m1 0h1m4 0h1m3 0h1m2 0h1m2 0h3m1 0h8m1 0h1m1 0h5m1 0h2m2 0h1m1 0h2m2 0h7m3 0h1m2 0h1m1 0h1m1 0h1m2 0h1m1 0h1m1 0h4m1 0h7m1 0h1m2 0h5m1 0h2m7 0h1m1 0h5m2 0h1M7 149.5h1m1 0h1m2 0h1m3 0h2m1 0h3m1 0h1m2 0h10m2 0h2m1 0h1m1 0h2m1 0h1m1 0h4m1 0h2m1 0h2m2 0h1m2 0h1m1 0h1m3 0h2m1 0h2m1 0h1m1 0h4m5 0h3m1 0h3m1 0h1m2 0h1m2 0h2m1 0h1m1 0h3m7 0h12m7 0h1m1 0h1m1 0h2m1 0h1m2 0h2m1 0h3m2 0h1m1 0h1m1 0h1m5 0h4m2 0h1m4 0h1m3 0h1m1 0h1M4 150.5h2m2 0h3m4 0h4m1 0h4m1 0h2m1 0h1m3 0h1m1 0h1m1 0h5m1 0h1m6 0h1m2 0h2m1 0h1m2 0h1m2 0h2m1 0h2m2 0h1m1 0h3m2 0h1m3 0h4m1 0h2m4 0h1m1 0h1m3 0h1m1 0h1m3 0h1m4 0h3m1 0h1m1 0h2m2 0h2m3 0h1m2 0h2m7 0h6m1 0h1m8 0h1m4 0h1m3 0h2m2 0h1m2 0h1m4 0h2m2 0h1m3 0h1M4 151.5h2m2 0h2m3 0h2m1 0h1m6 0h1m1 0h1m2 0h2m1 0h1m3 0h2m2 0h2m2 0h1m2 0h1m1 0h1m3 0h2m2 0h4m1 0h3m1 0h1m3 0h1m1 0h1m2 0h3m1 0h1m7 0h1m1 0h1m2 0h1m4 0h1m2 0h1m1 0h4m1 0h1m1 0h1m1 0h1m4 0h2m1 0h3m1 0h4m1 0h1m1 0h1m1 0h4m5 0h1m2 0h5m1 0h1m3 0h2m1 0h2m1 0h1m1 0h1m1 0h1m2 0h1m2 0h1m1 0h2m1 0h6M4 152.5h1m3 0h1m1 0h1m2 0h2m3 0h1m1 0h1m2 0h4m7 0h1m1 0h1m1 0h2m2 0h1m1 0h1m5 0h2m1 0h7m1 0h1m1 0h1m2 0h5m1 0h1m1 0h1m1 0h6m1 0h1m1 0h5m4 0h1m5 0h1m1 0h2m5 0h1m1 0h4m4 0h1m3 0h1m4 0h1m1 0h4m6 0h1m1 0h1m2 0h2m3 0h1m1 0h1m3 0h3m1 0h1m1 0h1m4 0h4m3 0h1m1 0h1m2 0h1M4 153.5h1m1 0h1m1 0h1m3 0h1m1 0h2m3 0h2m7 0h1m2 0h4m1 0h2m1 0h1m1 0h1m1 0h2m3 0h1m4 0h5m2 0h1m3 0h2m2 0h1m1 0h1m6 0h2m1 0h3m1 0h1m1 0h2m3 0h1m1 0h3m7 0h1m2 0h1m4 0h2m2 0h1m6 0h1m1 0h1m1 0h2m1 0h1m3 0h7m3 0h1m1 0h2m1 0h1m2 0h2m3 0h1m4 0h6m1 0h2m1 0h3m1 0h1m4 0h1M4 154.5h1m3 0h1m1 0h2m1 0h2m3 0h3m3 0h2m2 0h2m1 0h2m2 0h2m2 0h2m1 0h2m1 0h2m3 0h3m2 0h1m1 0h2m4 0h3m1 0h4m1 0h1m7 0h1m1 0h1m1 0h1m5 0h4m2 0h1m1 0h1m1 0h1m1 0h3m2 0h1m1 0h3m2 0h1m1 0h3m2 0h4m4 0h1m2 0h3m2 0h2m1 0h1m4 0h1m1 0h3m1 0h1m2 0h1m2 0h4m1 0h2m1 0h2m3 0h1m1 0h1m4 0h3M4 155.5h1m4 0h1m1 0h2m3 0h2m4 0h1m1 0h1m3 0h1m1 0h1m2 0h1m1 0h1m3 0h1m1 0h3m2 0h1m1 0h1m2 0h3m3 0h3m2 0h2m2 0h2m3 0h1m1 0h1m2 0h4m3 0h1m1 0h2m2 0h1m1 0h1m1 0h2m1 0h2m3 0h2m1 0h1m1 0h5m4 0h2m1 0h1m1 0h2m3 0h4m1 0h1m5 0h1m2 0h4m1 0h3m6 0h3m1 0h1m3 0h1m4 0h3m2 0h2m1 0h1m1 0h1m1 0h2M5 156.5h3m2 0h4m4 0h1m2 0h2m2 0h1m1 0h2m1 0h1m1 0h4m1 0h6m1 0h2m1 0h4m2 0h2m3 0h4m1 0h2m2 0h2m1 0h2m1 0h1m1 0h2m4 0h1m4 0h3m2 0h2m2 0h1m1 0h5m3 0h1m4 0h1m1 0h2m1 0h2m2 0h1m1 0h1m1 0h1m1 0h1m1 0h2m1 0h2m1 0h1m2 0h1m3 0h1m1 0h1m1 0h1m5 0h1m3 0h1m1 0h4m5 0h1m4 0h1m4 0h2m3 0h1M5 157.5h2m6 0h3m1 0h3m2 0h3m1 0h1m1 0h1m1 0h1m1 0h3m1 0h3m1 0h5m1 0h1m1 0h2m3 0h1m1 0h3m8 0h2m1 0h4m4 0h1m3 0h4m2 0h2m1 0h2m2 0h2m1 0h1m2 0h2m1 0h2m1 0h1m4 0h2m3 0h1m1 0h1m1 0h3m1 0h1m1 0h1m2 0h1m1 0h1m1 0h7m4 0h2m2 0h6m2 0h1m1 0h1m2 0h2m1 0h7m1 0h2m4 0h1m1 0h1M4 158.5h2m1 0h1m1 0h2m2 0h2m1 0h10m3 0h1m1 0h3m2 0h6m5 0h1m3 0h2m2 0h1m4 0h2m2 0h2m1 0h2m1 0h3m4 0h1m1 0h4m1 0h2m3 0h1m2 0h1m2 0h1m2 0h2m1 0h1m2 0h1m2 0h2m1 0h5m3 0h1m2 0h4m1 0h1m2 0h1m1 0h1m2 0h1m1 0h1m8 0h1m2 0h1m2 0h1m2 0h2m1 0h1m2 0h1m2 0h1m1 0h3m1 0h1m1 0h1m3 0h3M4 159.5h4m1 0h1m1 0h3m1 0h1m1 0h1m1 0h1m3 0h2m2 0h1m2 0h1m1 0h2m1 0h1m1 0h1m1 0h1m3 0h1m2 0h1m2 0h1m1 0h2m4 0h3m1 0h1m4 0h2m5 0h2m1 0h1m1 0h1m2 0h2m3 0h3m1 0h2m2 0h4m3 0h1m2 0h3m1 0h1m4 0h3m2 0h1m1 0h2m3 0h1m1 0h2m2 0h1m2 0h1m3 0h2m1 0h6m2 0h1m3 0h3m3 0h1m6 0h1m2 0h1m1 0h2m1 0h2m2 0h3M4 160.5h2m1 0h1m1 0h7m1 0h1m1 0h3m3 0h2m2 0h1m2 0h1m3 0h1m1 0h5m4 0h6m1 0h1m4 0h1m1 0h1m2 0h1m2 0h1m1 0h1m1 0h1m2 0h5m1 0h2m2 0h2m1 0h1m6 0h2m3 0h2m1 0h2m1 0h3m2 0h4m1 0h2m2 0h1m7 0h2m1 0h2m3 0h1m6 0h1m1 0h1m1 0h2m1 0h2m2 0h1m2 0h1m3 0h3m4 0h4m1 0h2M5 161.5h2m2 0h1m1 0h3m1 0h1m3 0h5m1 0h1m3 0h1m2 0h7m1 0h3m1 0h8m1 0h1m2 0h2m2 0h1m3 0h1m2 0h2m1 0h2m5 0h1m1 0h4m4 0h1m1 0h3m2 0h1m2 0h1m2 0h1m5 0h1m1 0h1m4 0h1m3 0h1m1 0h4m1 0h1m1 0h2m3 0h1m1 0h2m1 0h3m5 0h1m1 0h5m1 0h1m1 0h1m1 0h1m1 0h2m2 0h1m1 0h2m1 0h7m6 0h1M4 162.5h8m3 0h1m3 0h4m1 0h2m1 0h1m1 0h2m2 0h2m1 0h2m1 0h2m1 0h2m1 0h3m4 0h2m3 0h2m2 0h1m1 0h2m3 0h3m1 0h2m3 0h1m1 0h4m1 0h2m2 0h1m1 0h3m2 0h4m3 0h4m1 0h5m1 0h2m4 0h2m2 0h4m4 0h1m1 0h1m5 0h1m1 0h1m1 0h1m1 0h1m1 0h3m1 0h1m1 0h1m3 0h1m2 0h1m1 0h2m2 0h1m2 0h1m8 0h2M6 163.5h1m2 0h1m1 0h1m2 0h1m2 0h3m1 0h1m5 0h1m3 0h3m4 0h1m2 0h2m1 0h4m1 0h1m1 0h2m3 0h1m1 0h7m1 0h1m7 0h1m1 0h2m1 0h1m3 0h1m1 0h2m2 0h1m3 0h1m2 0h1m2 0h1m1 0h1m2 0h3m1 0h2m1 0h3m1 0h1m2 0h4m2 0h1m2 0h6m1 0h1m1 0h2m4 0h5m7 0h3m3 0h2m2 0h4m1 0h1m1 0h5m2 0h3M7 164.5h1m1 0h9m2 0h1m2 0h1m3 0h2m2 0h1m3 0h4m1 0h2m2 0h2m1 0h1m1 0h2m1 0h1m1 0h2m1 0h1m1 0h1m1 0h3m1 0h3m4 0h5m1 0h1m2 0h9m1 0h2m1 0h2m4 0h1m2 0h1m1 0h3m2 0h6m7 0h1m1 0h1m4 0h2m8 0h3m1 0h1m2 0h1m2 0h1m1 0h2m3 0h2m2 0h4m2 0h4m5 0h1m2 0h2M4 165.5h1m1 0h2m3 0h1m1 0h1m3 0h1m2 0h1m2 0h1m1 0h1m3 0h1m1 0h1m2 0h1m1 0h1m1 0h1m1 0h1m1 0h1m1 0h1m1 0h1m3 0h1m3 0h4m3 0h1m2 0h3m1 0h3m6 0h1m3 0h3m1 0h3m2 0h1m3 0h1m2 0h1m1 0h3m4 0h4m2 0h1m7 0h3m1 0h1m1 0h1m2 0h1m1 0h1m1 0h7m3 0h1m2 0h1m1 0h2m1 0h3m1 0h2m2 0h2m1 0h3m2 0h2m1 0h1m2 0h1m3 0h1m1 0h2M5 166.5h3m2 0h2m1 0h1m1 0h1m1 0h3m2 0h1m2 0h1m2 0h1m1 0h3m2 0h3m1 0h1m1 0h3m1 0h3m4 0h2m3 0h9m1 0h1m2 0h1m1 0h1m2 0h1m3 0h2m1 0h3m3 0h6m2 0h4m2 0h1m1 0h1m3 0h4m2 0h1m1 0h1m4 0h1m2 0h1m2 0h1m1 0h1m1 0h1m2 0h9m2 0h1m1 0h2m1 0h2m7 0h3m1 0h1m2 0h1m2 0h2m4 0h1m2 0h1M5 167.5h1m2 0h2m10 0h1m1 0h2m1 0h1m3 0h2m3 0h1m1 0h3m2 0h3m2 0h1m4 0h2m2 0h1m2 0h2m3 0h2m1 0h1m6 0h4m1 0h2m3 0h1m1 0h1m5 0h1m2 0h1m1 0h4m3 0h2m1 0h1m1 0h1m4 0h3m2 0h1m1 0h1m1 0h2m1 0h2m1 0h1m1 0h1m1 0h2m1 0h1m3 0h5m1 0h3m1 0h1m4 0h4m1 0h3m1 0h1m1 0h4m2 0h1m1 0h2m2 0h3M6 168.5h1m1 0h1m1 0h1m1 0h3m1 0h2m2 0h1m1 0h3m3 0h2m1 0h1m2 0h1m1 0h1m1 0h2m2 0h1m1 0h7m3 0h1m4 0h1m5 0h1m1 0h1m2 0h1m2 0h1m6 0h2m3 0h1m1 0h1m1 0h1m2 0h4m4 0h1m1 0h2m1 0h2m4 0h2m1 0h4m1 0h1m1 0h1m1 0h3m1 0h4m1 0h1m4 0h1m1 0h4m1 0h1m1 0h1m2 0h1m1 0h1m1 0h1m1 0h1m2 0h2m1 0h1m3 0h1m2 0h1m1 0h1m1 0h2m2 0h1m2 0h2M7 169.5h2m4 0h1m3 0h1m1 0h2m3 0h2m3 0h2m1 0h3m1 0h1m3 0h2m1 0h2m1 0h2m1 0h1m1 0h1m4 0h2m2 0h1m4 0h1m3 0h3m3 0h1m1 0h1m1 0h1m1 0h2m1 0h1m2 0h2m2 0h1m2 0h2m3 0h2m2 0h1m2 0h2m7 0h1m1 0h1m4 0h6m3 0h1m1 0h1m2 0h1m2 0h1m3 0h1m3 0h3m1 0h3m1 0h1m1 0h1m6 0h1m3 0h1m1 0h1m1 0h1m2 0h1m4 0h1M4 170.5h3m2 0h2m3 0h3m4 0h3m3 0h1m1 0h4m5 0h1m4 0h1m1 0h1m1 0h1m1 0h7m3 0h1m3 0h3m1 0h2m1 0h1m1 0h2m3 0h1m2 0h1m1 0h1m1 0h2m4 0h4m2 0h1m1 0h1m1 0h5m5 0h2m1 0h2m3 0h4m1 0h1m2 0h4m1 0h8m5 0h2m1 0h2m1 0h2m2 0h2m4 0h3m3 0h1m2 0h1m2 0h2m1 0h5M7 171.5h1m4 0h1m1 0h2m5 0h2m1 0h1m3 0h2m1 0h3m1 0h1m1 0h1m3 0h4m1 0h1m2 0h1m3 0h1m2 0h3m1 0h2m1 0h5m1 0h1m3 0h2m1 0h4m1 0h1m1 0h1m2 0h1m1 0h2m1 0h1m2 0h4m3 0h2m1 0h3m1 0h1m4 0h3m2 0h6m1 0h1m3 0h2m1 0h1m1 0h3m3 0h1m1 0h3m1 0h3m2 0h1m1 0h2m2 0h1m2 0h1m2 0h1m1 0h3m1 0h1m5 0h1m2 0h3M5 172.5h1m1 0h1m1 0h2m2 0h4m3 0h1m3 0h1m2 0h1m2 0h1m1 0h6m1 0h1m1 0h1m1 0h1m1 0h1m1 0h2m1 0h2m1 0h3m1 0h1m1 0h8m3 0h1m4 0h5m1 0h1m4 0h1m1 0h7m2 0h1m1 0h2m4 0h1m1 0h1m1 0h4m2 0h7m1 0h1m1 0h1m4 0h1m1 0h1m3 0h2m1 0h2m1 0h1m1 0h5m1 0h2m1 0h1m1 0h4m1 0h1m1 0h3m2 0h2m1 0h1m1 0h5m2 0h2M12 173.5h1m1 0h1m1 0h1m2 0h2m1 0h5m2 0h1m1 0h2m3 0h2m1 0h3m1 0h2m1 0h1m1 0h3m5 0h2m2 0h1m3 0h2m3 0h5m1 0h3m1 0h2m1 0h1m1 0h5m3 0h1m1 0h2m3 0h2m2 0h1m1 0h3m3 0h3m2 0h1m3 0h1m1 0h1m1 0h1m1 0h1m2 0h1m1 0h1m3 0h2m1 0h1m4 0h2m3 0h4m1 0h1m3 0h2m1 0h6m1 0h4m1 0h1m3 0h1m2 0h2M4 174.5h7m1 0h2m6 0h1m1 0h1m1 0h7m1 0h1m1 0h1m1 0h1m2 0h1m1 0h1m1 0h1m1 0h2m5 0h4m2 0h1m1 0h1m1 0h1m1 0h2m1 0h2m1 0h4m5 0h6m3 0h1m1 0h1m1 0h2m1 0h5m1 0h2m1 0h2m2 0h4m3 0h2m1 0h1m1 0h1m1 0h2m3 0h2m1 0h3m3 0h1m1 0h2m1 0h1m2 0h1m1 0h1m1 0h1m5 0h2m1 0h1m1 0h3m1 0h1m5 0h1m2 0h1m1 0h1m1 0h3M4 175.5h1m5 0h1m2 0h1m3 0h1m3 0h3m2 0h3m2 0h2m3 0h2m1 0h2m1 0h2m1 0h3m1 0h1m2 0h2m2 0h1m1 0h3m3 0h4m5 0h2m1 0h4m2 0h1m3 0h3m3 0h3m1 0h1m1 0h1m2 0h2m1 0h2m2 0h1m1 0h1m2 0h1m1 0h2m3 0h2m3 0h2m5 0h1m2 0h1m1 0h4m2 0h2m3 0h2m1 0h1m2 0h1m2 0h1m2 0h2m3 0h3m1 0h1m1 0h2m3 0h1m1 0h2M4 176.5h1m1 0h3m1 0h1m1 0h1m3 0h1m2 0h1m1 0h2m3 0h2m1 0h8m2 0h2m1 0h3m4 0h2m2 0h5m2 0h7m2 0h2m4 0h1m1 0h1m1 0h2m2 0h1m1 0h2m1 0h7m2 0h1m1 0h2m5 0h1m2 0h1m1 0h2m3 0h5m4 0h1m1 0h7m3 0h1m1 0h2m1 0h7m1 0h1m1 0h2m1 0h1m1 0h3m2 0h3m1 0h1m3 0h8m1 0h2M4 177.5h1m1 0h3m1 0h1m1 0h1m2 0h1m2 0h1m1 0h3m1 0h1m4 0h2m1 0h1m2 0h2m1 0h3m1 0h1m1 0h2m1 0h2m1 0h1m4 0h4m4 0h1m1 0h1m1 0h2m2 0h1m3 0h2m1 0h1m1 0h4m4 0h1m2 0h1m2 0h2m4 0h2m1 0h5m4 0h1m2 0h1m8 0h3m4 0h1m1 0h2m1 0h1m1 0h2m4 0h1m1 0h1m2 0h4m2 0h2m1 0h2m2 0h5m1 0h1m1 0h1m2 0h5M4 178.5h1m1 0h3m1 0h1m1 0h2m5 0h1m1 0h1m1 0h5m1 0h3m1 0h1m1 0h3m1 0h3m7 0h2m1 0h2m3 0h2m1 0h2m3 0h1m1 0h4m1 0h2m1 0h1m3 0h2m1 0h1m1 0h2m4 0h3m2 0h5m2 0h1m4 0h2m3 0h1m1 0h2m2 0h2m3 0h1m3 0h3m5 0h2m4 0h1m3 0h1m1 0h5m1 0h3m1 0h1m2 0h4m2 0h1m2 0h5M4 179.5h1m5 0h1m1 0h1m1 0h5m3 0h1m5 0h2m2 0h2m2 0h1m2 0h1m4 0h3m4 0h2m5 0h1m3 0h1m1 0h1m1 0h1m2 0h1m3 0h2m1 0h1m1 0h1m2 0h1m3 0h4m1 0h3m1 0h1m1 0h2m4 0h3m3 0h1m1 0h1m4 0h4m2 0h1m1 0h2m1 0h1m1 0h5m3 0h1m1 0h1m1 0h1m1 0h1m1 0h1m3 0h1m4 0h3m3 0h1m6 0h4m1 0h2m2 0h1m2 0h1M4 180.5h7m1 0h1m7 0h2m2 0h1m2 0h1m2 0h1m3 0h1m1 0h4m3 0h1m3 0h4m3 0h1m2 0h1m2 0h2m1 0h3m1 0h1m1 0h1m2 0h2m9 0h1m2 0h4m1 0h1m1 0h1m1 0h1m2 0h1m1 0h2m1 0h1m1 0h3m1 0h1m2 0h1m1 0h8m6 0h1m1 0h3m4 0h1m1 0h1m1 0h6m1 0h1m1 0h2m3 0h1m1 0h1m1 0h1m1 0h4m4 0h2m2 0h2m1 0h1m2 0h1"/></svg>
