<?xml version="1.0" encoding="utf-8"?><!DOCTYPE svg PUBLIC "-//W3C//DTD SVG 1.1//EN" "http://www.w3.org/Graphics/SVG/1.1/DTD/svg11.dtd"><svg xmlns="http://www.w3.org/2000/svg" viewBox="0 0 185 185" shape-rendering="crispEdges"><path fill="#ffffff" d="M0 0h185v185H0z"/><path stroke="#000000" d="M4 4.5h7m2 0h1m1 0h1m1 0h5m1 0h2m1 0h1m2 0h2m3 0h1m1 0h1m4 0h5m1 0h4m2 0h1m2 0h5m2 0h4m1 0h1m2 0h2m2 0h2m2 0h2m1 0h4m1 0h1m1 0h1m1 0h1m2 0h1m1 0h2m2 0h1m4 0h2m2 0h1m1 0h2m5 0h7m1 0h2m1 0h1m1 0h1m1 0h2m1 0h1m1 0h2m1 0h1m3 0h1m3 0h4m1 0h1m1 0h2m6 0h1m1 0h1m1 0h1m1 0h1m3 0h7M4 5.5h1m5 0h1m1 0h1m8 0h1m1 0h1m2 0h1m8 0h2m1 0h2m1 0h1m1 0h1m2 0h1m2 0h1m2 0h2m1 0h1m2 0h1m2 0h1m1 0h2m2 0h2m1 0h4m3 0h1m1 0h4m1 0h1m2 0h2m1 0h1m1 0h1m2 0h2m1 0h3m1 0h1m2 0h1m2 0h1m1 0h3m1 0h2m1 0h2m1 0h2m4 0h4m1 0h1m1 0h1m2 0h1m1 0h1m3 0h3m1 0h3m1 0h2m1 0h3m2 0h3m1 0h2m1 0h1m3 0h2m1 0h1m1 0h1m5 0h1M4 6.5h1m1 0h3m1 0h1m2 0h2m1 0h3m2 0h2m3 0h9m2 0h1m3 0h1m2 0h3m4 0h3m1 0h1m1 0h3m1 0h3m1 0h2m4 0h1m1 0h2m1 0h1m2 0h1m3 0h1m1 0h2m1 0h1m2 0h6m1 0h1m3 0h5m1 0h1m4 0h1m2 0h2m4 0h1m1 0h2m1 0h1m1 0h1m2 0h6m3 0h3m1 0h1m8 0h1m1 0h2m1 0h2m2 0h1m2 0h2m2 0h1m3 0h1m1 0h3m1 0h1M4 7.5h1m1 0h3m1 0h1m1 0h5m1 0h5m1 0h2m2 0h1m1 0h2m1 0h1m4 0h1m3 0h2m1 0h6m8 0h1m3 0h1m1 0h1m1 0h1m1 0h1m1 0h1m1 0h2m2 0h1m2 0h4m2 0h3m1 0h1m1 0h1m4 0h1m2 0h1m2 0h1m1 0h1m1 0h1m1 0h2m1 0h2m1 0h1m2 0h2m1 0h1m1 0h2m4 0h2m1 0h2m5 0h2m1 0h1m1 0h1m3 0h3m4 0h8m1 0h1m2 0h1m3 0h2m1 0h1m1 0h3m1 0h1M4 8.5h1m1 0h3m1 0h1m2 0h1m2 0h1m1 0h2m1 0h2m3 0h2m2 0h7m1 0h1m1 0h7m1 0h1m1 0h2m2 0h1m1 0h1m2 0h6m3 0h2m6 0h2m3 0h1m2 0h2m2 0h5m1 0h2m1 0h1m3 0h1m4 0h1m1 0h1m2 0h2m2 0h6m1 0h1m1 0h1m1 0h1m7 0h1m1 0h4m1 0h1m2 0h6m1 0h3m1 0h2m4 0h4m1 0h3m5 0h1m1 0h3m1 0h1M4 9.5h1m5 0h1m1 0h3m1 0h2m2 0h1m2 0h4m1 0h2m2 0h1m3 0h3m2 0h1m3 0h1m3 0h2m1 0h4m2 0h3m3 0h2m1 0h4m1 0h1m2 0h1m3 0h1m1 0h3m1 0h1m2 0h1m3 0h1m2 0h1m2 0h3m1 0h1m4 0h1m2 0h1m3 0h1m1 0h1m3 0h1m1 0h3m2 0h1m1 0h1m1 0h1m2 0h1m1 0h3m3 0h1m1 0h1m3 0h1m2 0h1m1 0h1m4 0h3m5 0h1m2 0h2m1 0h1m1 0h1m5 0h1M4 10.5h7m1 0h1m1 0h1m1 0h1m1 0h1m1 0h1m1 0h1m1 0h1m1 0h1m1 0h1m1 0h1m1 0h1m1 0h1m1 0h1m1 0h1m1 0h1m1 0h1m1 0h1m1 0h1m1 0h1m1 0h1m1 0h1m1 0h1m1 0h1m1 0h1m1 0h1m1 0h1m1 0h1m1 0h1m1 0h1m1 0h1m1 0h1m1 0h1m1 0h1m1 0h1m1 0h1m1 0h1m1 0h1m1 0h1m1 0h1m1 0h1m1 0h1m1 0h1m1 0h1m1 0h1m1 0h1m1 0h1m1 0h1m1 0h1m1 0h1m1 0h1m1 0h1m1 0h1m1 0h1m1 0h1m1 0h1m1 0h1m1 0h1m1 0h1m1 0h1m1 0h1m1 0h1m1 0h1m1 0h1m1 0h1m1 0h1m1 0h1m1 0h1m1 0h1m1 0h1m1 0h1m1 0h1m1 0h1m1 0h1m1 0h1m1 0h1m1 0h1m1 0h1m1 0h1m1 0h1m1 0h1m1 0h1m1 0h7M13 11.5h1m3 0h1m1 0h4m1 0h1m1 0h1m5 0h1m3 0h2m1 0h1m3 0h1m1 0h2m2 0h1m2 0h1m5 0h3m3 0h1m1 0h1m4 0h1m1 0h2m1 0h3m1 0h1m1 0h2m2 0h1m1 0h1m3 0h1m3 0h1m1 0h1m2 0h2m1 0h1m3 0h2m4 0h3m3 0h3m1 0h1m1 0h1m1 0h1m4 0h3m1 0h2m2 0h4m3 0h1m4 0h2m2 0h1m2 0h1m2 0h1m2 0h2m4 0h1M4 12.5h5m1 0h5m1 0h1m1 0h4m2 0h2m1 0h4m1 0h9m1 0h1m1 0h1m3 0h3m3 0h2m4 0h6m1 0h2m5 0h1m2 0h4m1 0h1m4 0h6m1 0h1m2 0h1m2 0h1m6 0h1m3 0h3m2 0h6m6 0h3m1 0h2m1 0h1m1 0h1m1 0h2m1 0h1m1 0h7m2 0h1m1 0h2m1 0h2m1 0h2m1 0h1m2 0h1m1 0h2m1 0h2m1 0h1m1 0h1m1 0h1M12 13.5h1m1 0h5m3 0h1m2 0h2m2 0h1m3 0h1m2 0h1m1 0h1m5 0h1m3 0h1m2 0h1m1 0h4m4 0h2m1 0h2m2 0h5m3 0h1m1 0h1m1 0h2m1 0h2m3 0h1m2 0h5m1 0h1m1 0h3m1 0h4m1 0h2m2 0h2m1 0h5m1 0h4m1 0h1m2 0h1m3 0h2m1 0h1m1 0h1m2 0h1m1 0h1m1 0h1m1 0h2m1 0h4m1 0h3m1 0h1m1 0h4m1 0h3m1 0h3m3 0h5M10 14.5h2m2 0h1m4 0h1m1 0h2m1 0h1m1 0h1m2 0h5m5 0h3m1 0h1m1 0h2m3 0h3m4 0h1m4 0h1m4 0h2m1 0h2m3 0h3m1 0h2m1 0h1m1 0h2m1 0h5m3 0h1m2 0h3m1 0h1m1 0h1m1 0h1m3 0h2m2 0h1m2 0h2m1 0h1m2 0h6m1 0h1m1 0h6m1 0h1m2 0h3m1 0h2m2 0h2m2 0h1m2 0h1m2 0h2m4 0h2m1 0h1m4 0h1m2 0h3M4 15.5h2m1 0h3m2 0h1m3 0h3m1 0h3m1 0h2m2 0h2m1 0h2m1 0h4m1 0h1m4 0h4m1 0h1m1 0h1m1 0h1m2 0h3m1 0h2m2 0h1m1 0h1m6 0h7m6 0h1m4 0h2m3 0h2m3 0h1m2 0h1m1 0h3m2 0h1m2 0h1m8 0h2m1 0h6m1 0h1m2 0h2m1 0h3m5 0h1m6 0h2m1 0h1m5 0h2m1 0h2m1 0h1m1 0h3m1 0h2m1 0h1M5 16.5h3m2 0h2m3 0h1m2 0h1m1 0h1m3 0h2m5 0h2m1 0h3m3 0h2m1 0h8m1 0h2m2 0h1m4 0h1m3 0h2m1 0h4m2 0h1m1 0h4m2 0h1m3 0h1m3 0h2m1 0h3m3 0h2m2 0h1m1 0h2m3 0h3m2 0h4m2 0h1m6 0h1m1 0h1m1 0h2m1 0h1m1 0h1m2 0h1m1 0h2m1 0h1m2 0h1m1 0h1m1 0h2m1 0h1m1 0h4m1 0h1m4 0h1m2 0h3m2 0h1m3 0h2M6 17.5h1m1 0h2m1 0h2m4 0h1m1 0h1m2 0h1m1 0h1m1 0h2m1 0h1m2 0h1m2 0h2m3 0h2m1 0h3m2 0h1m1 0h2m2 0h1m1 0h3m1 0h1m1 0h1m1 0h1m1 0h5m4 0h2m1 0h4m1 0h1m1 0h1m2 0h3m1 0h3m2 0h1m2 0h1m2 0h1m1 0h2m2 0h1m3 0h1m1 0h4m2 0h2m1 0h4m6 0h1m1 0h1m1 0h1m2 0h1m3 0h1m1 0h3m1 0h6m5 0h1m1 0h2m2 0h1m1 0h2m6 0h3M4 18.5h1m1 0h2m2 0h1m2 0h1m2 0h3m5 0h2m1 0h1m1 0h2m1 0h2m1 0h1m2 0h4m7 0h2m1 0h2m3 0h1m1 0h2m2 0h3m4 0h4m3 0h1m1 0h2m1 0h1m1 0h2m5 0h1m1 0h1m2 0h1m1 0h3m1 0h4m1 0h1m1 0h2m1 0h1m1 0h2m1 0h2m1 0h1m1 0h2m5 0h4m1 0h2m2 0h2m2 0h6m1 0h1m3 0h2m3 0h1m1 0h4m1 0h2m2 0h2m3 0h1m2 0h2M4 19.5h4m1 0h1m4 0h2m1 0h2m1 0h2m2 0h2m1 0h2m1 0h5m2 0h1m2 0h1m4 0h2m1 0h1m1 0h1m2 0h1m1 0h4m1 0h2m1 0h4m4 0h1m1 0h2m1 0h2m7 0h2m1 0h2m2 0h1m1 0h5m2 0h2m1 0h1m1 0h1m1 0h2m3 0h1m2 0h2m3 0h2m1 0h2m2 0h1m1 0h1m4 0h1m3 0h1m1 0h2m2 0h1m1 0h2m3 0h1m1 0h2m1 0h1m8 0h1m4 0h2m5 0h3M4 20.5h4m2 0h3m1 0h1m3 0h2m3 0h1m7 0h1m1 0h3m1 0h3m1 0h4m2 0h3m2 0h2m2 0h1m8 0h3m2 0h3m3 0h1m1 0h2m1 0h1m1 0h2m1 0h1m6 0h2m5 0h1m2 0h1m3 0h1m1 0h4m5 0h2m1 0h1m5 0h1m1 0h2m1 0h1m2 0h1m4 0h1m1 0h1m1 0h7m4 0h4m1 0h4m3 0h1m1 0h2m2 0h2m5 0h1M5 21.5h1m11 0h6m1 0h5m4 0h1m1 0h1m1 0h1m2 0h2m1 0h4m1 0h1m1 0h1m3 0h3m1 0h1m1 0h1m1 0h3m3 0h1m6 0h3m2 0h1m1 0h1m2 0h8m1 0h1m2 0h1m3 0h1m2 0h1m1 0h1m2 0h1m1 0h3m1 0h1m1 0h3m1 0h2m1 0h3m2 0h1m1 0h1m1 0h7m1 0h1m1 0h1m1 0h1m2 0h2m2 0h1m1 0h3m4 0h2m1 0h1m3 0h2m1 0h2m2 0h1m1 0h4M5 22.5h4m1 0h1m1 0h1m1 0h2m1 0h7m3 0h2m6 0h1m2 0h3m2 0h1m1 0h3m4 0h1m4 0h3m2 0h2m1 0h1m2 0h3m2 0h1m1 0h1m1 0h1m1 0h2m1 0h1m1 0h1m3 0h2m1 0h1m1 0h7m1 0h1m2 0h2m1 0h5m5 0h3m2 0h4m3 0h1m4 0h1m1 0h1m2 0h1m1 0h2m1 0h4m1 0h1m3 0h1m3 0h1m2 0h1m2 0h1m1 0h3m2 0h2m2 0h3m1 0h1M4 23.5h1m2 0h1m1 0h1m1 0h1m2 0h4m1 0h1m2 0h1m4 0h1m1 0h1m1 0h1m5 0h5m4 0h1m1 0h1m2 0h2m2 0h1m2 0h1m1 0h1m3 0h1m1 0h2m3 0h1m1 0h2m1 0h1m1 0h2m1 0h1m1 0h1m7 0h1m1 0h1m1 0h3m3 0h3m4 0h1m1 0h1m2 0h3m1 0h1m1 0h1m3 0h2m2 0h2m1 0h4m6 0h3m9 0h1m1 0h1m2 0h1m2 0h1m2 0h1m2 0h4m2 0h8M4 24.5h5m1 0h5m1 0h1m1 0h2m2 0h2m1 0h1m1 0h1m1 0h1m1 0h3m1 0h3m4 0h1m1 0h2m1 0h6m1 0h1m1 0h4m3 0h1m1 0h3m2 0h1m1 0h2m4 0h2m1 0h1m1 0h2m5 0h1m1 0h1m1 0h1m2 0h1m2 0h1m1 0h1m2 0h3m1 0h2m1 0h3m1 0h2m3 0h1m3 0h1m2 0h6m1 0h1m3 0h2m1 0h2m4 0h1m1 0h2m3 0h5m1 0h2m1 0h1m5 0h1m1 0h1m2 0h1m3 0h1M5 25.5h1m3 0h1m6 0h4m5 0h1m1 0h1m2 0h2m2 0h1m3 0h2m1 0h1m2 0h2m2 0h4m1 0h5m1 0h1m1 0h2m1 0h1m1 0h3m2 0h2m2 0h1m1 0h2m3 0h1m1 0h2m2 0h7m2 0h1m3 0h2m1 0h5m4 0h1m2 0h1m3 0h3m1 0h3m4 0h1m2 0h3m1 0h2m4 0h2m1 0h1m1 0h1m1 0h1m2 0h1m1 0h2m3 0h1m2 0h1m1 0h1m1 0h2m1 0h1m4 0h2m2 0h1M5 26.5h1m3 0h2m1 0h1m1 0h2m2 0h1m1 0h1m4 0h2m1 0h1m3 0h1m1 0h1m1 0h1m5 0h2m2 0h2m1 0h2m1 0h1m2 0h1m2 0h1m1 0h1m1 0h4m1 0h2m1 0h1m1 0h2m3 0h1m2 0h1m1 0h1m1 0h2m1 0h3m1 0h1m1 0h1m1 0h1m1 0h2m1 0h1m4 0h6m2 0h2m2 0h4m1 0h1m1 0h4m1 0h2m4 0h1m2 0h1m5 0h1m1 0h1m3 0h1m7 0h4m1 0h1m1 0h3m2 0h3m1 0h1m1 0h1m1 0h2M7 27.5h1m1 0h1m1 0h2m1 0h2m1 0h1m1 0h5m3 0h2m1 0h1m1 0h2m2 0h3m1 0h2m2 0h6m2 0h2m1 0h1m1 0h7m2 0h1m4 0h1m2 0h1m1 0h1m1 0h1m2 0h1m1 0h1m2 0h4m1 0h3m1 0h3m3 0h2m1 0h2m2 0h2m4 0h1m2 0h1m3 0h1m1 0h1m1 0h1m4 0h5m2 0h1m3 0h1m1 0h1m1 0h5m1 0h1m2 0h1m2 0h1m1 0h1m5 0h2m4 0h2m1 0h1m1 0h1m1 0h1M4 28.5h2m4 0h2m1 0h2m1 0h2m2 0h1m1 0h1m3 0h1m1 0h5m4 0h2m3 0h2m2 0h1m1 0h1m1 0h2m2 0h4m4 0h3m1 0h2m1 0h1m2 0h1m1 0h5m1 0h3m3 0h2m2 0h2m5 0h4m1 0h2m7 0h4m9 0h1m2 0h4m1 0h1m3 0h1m2 0h2m1 0h2m2 0h4m1 0h1m3 0h1m2 0h2m2 0h1m1 0h2m1 0h1m1 0h5m1 0h1m1 0h1m1 0h2M4 29.5h3m1 0h2m1 0h1m1 0h1m1 0h8m1 0h2m1 0h3m2 0h1m3 0h1m1 0h11m2 0h1m3 0h3m1 0h1m1 0h1m1 0h2m3 0h1m3 0h3m3 0h1m2 0h6m1 0h1m1 0h5m2 0h1m1 0h2m2 0h2m1 0h2m1 0h1m1 0h2m4 0h3m1 0h1m1 0h2m1 0h2m3 0h1m1 0h7m1 0h1m3 0h1m2 0h2m1 0h2m1 0h1m1 0h1m2 0h1m4 0h1m3 0h1m1 0h1m1 0h1m2 0h1m1 0h1m1 0h2M6 30.5h1m3 0h4m2 0h2m1 0h1m4 0h1m3 0h1m1 0h1m1 0h5m2 0h1m1 0h1m4 0h2m4 0h2m1 0h1m2 0h1m5 0h1m5 0h1m1 0h1m2 0h1m1 0h1m2 0h1m1 0h1m4 0h4m2 0h1m1 0h1m1 0h4m1 0h1m1 0h2m5 0h1m1 0h3m2 0h1m2 0h2m1 0h2m2 0h2m3 0h2m1 0h2m2 0h2m2 0h1m1 0h2m1 0h1m3 0h3m1 0h2m1 0h1m1 0h2m2 0h1m2 0h1m1 0h1m2 0h2m2 0h1M4 31.5h1m1 0h1m1 0h1m2 0h1m1 0h2m8 0h3m1 0h1m3 0h1m3 0h2m2 0h2m2 0h1m2 0h1m1 0h2m2 0h1m2 0h9m1 0h2m7 0h6m1 0h1m1 0h1m2 0h2m1 0h1m1 0h3m1 0h3m6 0h3m3 0h2m2 0h1m2 0h1m1 0h2m2 0h3m1 0h1m3 0h6m1 0h2m1 0h2m2 0h1m1 0h1m5 0h2m4 0h2m5 0h1m2 0h1m2 0h1m2 0h6M5 32.5h8m1 0h1m1 0h2m1 0h4m1 0h1m4 0h1m1 0h6m1 0h1m3 0h1m1 0h1m2 0h5m1 0h3m2 0h1m1 0h5m6 0h1m2 0h1m1 0h1m1 0h1m2 0h1m2 0h1m2 0h7m3 0h6m2 0h5m2 0h1m2 0h6m4 0h1m2 0h3m1 0h2m3 0h1m1 0h2m1 0h1m1 0h5m1 0h1m2 0h1m2 0h5m1 0h2m1 0h1m1 0h2m1 0h7m3 0h1M5 33.5h1m1 0h2m3 0h1m1 0h1m1 0h1m1 0h1m1 0h3m1 0h2m2 0h1m2 0h2m3 0h1m5 0h3m2 0h2m2 0h1m1 0h5m2 0h1m3 0h3m1 0h1m3 0h1m1 0h3m2 0h1m3 0h1m2 0h3m3 0h4m4 0h2m1 0h1m1 0h2m1 0h1m3 0h1m2 0h2m3 0h5m1 0h1m6 0h2m1 0h1m1 0h2m1 0h1m1 0h2m3 0h3m1 0h1m1 0h2m2 0h1m3 0h3m3 0h3m1 0h1m3 0h1m3 0h1M5 34.5h1m1 0h2m1 0h1m1 0h4m1 0h1m1 0h4m1 0h1m3 0h1m2 0h2m1 0h1m1 0h1m4 0h1m1 0h1m1 0h3m1 0h1m2 0h1m5 0h3m1 0h1m1 0h1m3 0h6m3 0h1m1 0h6m3 0h1m1 0h1m1 0h1m2 0h1m1 0h3m1 0h2m1 0h1m2 0h2m1 0h2m2 0h3m1 0h1m1 0h1m1 0h1m1 0h3m2 0h1m1 0h1m2 0h1m1 0h2m2 0h5m1 0h1m1 0h1m2 0h1m1 0h1m1 0h1m1 0h1m2 0h1m2 0h1m1 0h1m1 0h1m2 0h1m1 0h1m1 0h1m1 0h1m1 0h1M5 35.5h1m1 0h2m3 0h3m1 0h1m1 0h1m1 0h3m2 0h2m1 0h1m3 0h1m3 0h1m3 0h2m1 0h1m2 0h1m1 0h1m6 0h1m1 0h2m1 0h1m3 0h1m1 0h1m2 0h1m4 0h3m2 0h1m5 0h2m1 0h1m3 0h1m2 0h2m2 0h4m1 0h1m3 0h1m4 0h2m1 0h1m3 0h2m1 0h1m8 0h2m2 0h1m1 0h1m3 0h3m3 0h1m4 0h2m2 0h1m5 0h1m1 0h2m5 0h1m3 0h3m1 0h1M4 36.5h1m1 0h7m3 0h4m2 0h1m3 0h2m1 0h2m1 0h6m1 0h1m1 0h3m3 0h2m1 0h1m1 0h1m1 0h1m3 0h8m1 0h1m1 0h2m3 0h1m2 0h2m4 0h2m1 0h1m1 0h7m5 0h1m2 0h1m2 0h1m5 0h1m2 0h6m2 0h1m1 0h1m1 0h4m1 0h1m6 0h12m1 0h5m1 0h1m1 0h1m1 0h3m2 0h10M4 37.5h6m1 0h1m1 0h2m1 0h1m2 0h2m3 0h3m1 0h2m2 0h2m2 0h1m1 0h1m1 0h5m1 0h1m1 0h3m2 0h3m5 0h1m3 0h1m2 0h1m1 0h4m2 0h2m3 0h1m2 0h3m1 0h1m1 0h1m1 0h1m1 0h2m1 0h1m1 0h3m2 0h3m5 0h2m1 0h1m2 0h1m1 0h1m2 0h4m2 0h1m3 0h6m4 0h1m2 0h1m1 0h2m2 0h2m1 0h1m1 0h2m2 0h3m4 0h2m3 0h1m1 0h1m2 0h3M5 38.5h1m2 0h6m6 0h3m1 0h3m1 0h2m3 0h1m2 0h1m1 0h2m3 0h1m8 0h2m2 0h1m1 0h2m1 0h2m1 0h1m3 0h1m1 0h1m1 0h2m1 0h1m1 0h1m1 0h4m1 0h1m2 0h1m1 0h1m1 0h2m2 0h4m1 0h1m2 0h2m3 0h1m1 0h1m2 0h1m1 0h3m1 0h4m2 0h2m2 0h1m1 0h1m3 0h3m4 0h1m1 0h2m1 0h1m2 0h2m1 0h3m1 0h2m1 0h2m5 0h1m1 0h2m4 0h3M6 39.5h1m4 0h1m13 0h1m3 0h1m2 0h5m4 0h1m1 0h1m2 0h1m2 0h1m2 0h1m2 0h4m1 0h1m1 0h1m1 0h3m6 0h4m2 0h1m3 0h1m3 0h2m1 0h2m4 0h1m2 0h1m1 0h2m1 0h2m1 0h2m4 0h1m2 0h3m1 0h1m2 0h1m5 0h3m6 0h1m1 0h1m4 0h4m2 0h1m1 0h2m1 0h2m1 0h3m4 0h1m5 0h1m1 0h2m2 0h1m1 0h1M6 40.5h5m1 0h4m2 0h1m1 0h4m1 0h3m1 0h1m1 0h2m4 0h2m2 0h3m1 0h1m1 0h1m1 0h2m2 0h2m1 0h2m3 0h2m1 0h1m2 0h1m3 0h2m3 0h1m1 0h1m3 0h1m1 0h1m6 0h4m3 0h3m1 0h2m1 0h2m2 0h1m1 0h4m2 0h3m1 0h1m1 0h1m1 0h1m2 0h1m1 0h1m1 0h2m3 0h1m1 0h2m1 0h2m6 0h1m1 0h2m1 0h4m3 0h1m1 0h1m2 0h6m2 0h2M4 41.5h1m1 0h1m1 0h1m3 0h3m1 0h2m2 0h1m5 0h6m1 0h2m1 0h1m3 0h1m1 0h3m1 0h2m2 0h1m2 0h1m2 0h4m5 0h1m1 0h1m1 0h1m3 0h1m5 0h1m1 0h1m4 0h3m1 0h2m2 0h2m1 0h1m3 0h1m1 0h2m1 0h1m2 0h1m1 0h3m1 0h2m2 0h4m1 0h4m1 0h1m3 0h2m1 0h1m1 0h1m4 0h1m1 0h1m2 0h1m2 0h3m2 0h2m1 0h1m5 0h1m2 0h1m2 0h1m1 0h1m4 0h1m1 0h1M8 42.5h1m1 0h1m4 0h2m1 0h1m1 0h2m1 0h2m1 0h1m2 0h5m1 0h1m1 0h7m1 0h1m3 0h2m1 0h2m1 0h1m2 0h2m3 0h2m2 0h2m1 0h3m4 0h1m1 0h2m1 0h4m1 0h2m1 0h2m3 0h4m1 0h1m2 0h1m3 0h4m1 0h1m1 0h1m3 0h2m1 0h1m1 0h1m1 0h1m8 0h3m2 0h1m4 0h1m5 0h2m8 0h1m1 0h1m3 0h1m2 0h1m2 0h2m1 0h1m1 0h1M5 43.5h1m1 0h2m3 0h1m2 0h1m3 0h1m1 0h1m2 0h1m1 0h1m4 0h4m1 0h1m7 0h1m1 0h2m3 0h2m2 0h2m1 0h1m2 0h5m8 0h4m5 0h1m2 0h2m8 0h2m3 0h10m6 0h2m1 0h1m9 0h1m1 0h2m1 0h3m2 0h3m1 0h1m1 0h2m5 0h3m4 0h1m4 0h2m6 0h2m1 0h4M5 44.5h3m1 0h2m1 0h1m1 0h3m2 0h13m1 0h2m1 0h3m1 0h4m6 0h2m1 0h4m3 0h2m1 0h1m1 0h5m4 0h1m1 0h4m4 0h1m1 0h1m1 0h2m1 0h1m1 0h2m5 0h1m1 0h1m2 0h2m5 0h1m1 0h1m1 0h3m2 0h1m6 0h3m1 0h1m8 0h3m1 0h1m1 0h1m1 0h3m4 0h4m1 0h2m1 0h2m2 0h3m1 0h2m2 0h2m2 0h1M6 45.5h1m1 0h2m2 0h1m1 0h1m2 0h1m3 0h1m4 0h1m1 0h1m5 0h1m1 0h1m4 0h1m1 0h3m1 0h3m3 0h5m10 0h9m3 0h1m1 0h3m2 0h1m2 0h1m1 0h1m1 0h2m3 0h3m1 0h1m2 0h2m4 0h1m2 0h2m3 0h3m1 0h3m2 0h2m3 0h1m1 0h3m4 0h6m1 0h1m1 0h2m1 0h2m6 0h3m4 0h2m3 0h1m1 0h1M4 46.5h1m5 0h1m4 0h5m2 0h1m2 0h3m4 0h1m2 0h3m4 0h2m1 0h3m1 0h5m4 0h2m2 0h4m1 0h2m1 0h1m1 0h1m1 0h2m3 0h2m1 0h3m5 0h4m1 0h2m1 0h4m1 0h3m1 0h2m1 0h3m1 0h1m1 0h1m1 0h1m2 0h1m1 0h6m1 0h5m1 0h1m1 0h2m4 0h1m3 0h2m1 0h1m1 0h2m5 0h2m3 0h3m2 0h1m1 0h2m3 0h1m1 0h1M4 47.5h1m1 0h1m2 0h1m2 0h2m2 0h2m2 0h1m3 0h3m1 0h1m3 0h1m2 0h3m1 0h2m4 0h2m2 0h1m2 0h2m3 0h2m6 0h3m3 0h1m1 0h1m1 0h4m4 0h1m2 0h3m2 0h1m1 0h2m1 0h1m4 0h1m1 0h2m2 0h2m1 0h1m2 0h1m1 0h1m2 0h1m1 0h1m2 0h1m1 0h2m1 0h1m4 0h1m3 0h2m1 0h3m1 0h6m4 0h1m1 0h2m1 0h3m1 0h2m1 0h1m7 0h1m1 0h3M4 48.5h3m3 0h2m2 0h4m1 0h4m1 0h3m2 0h2m1 0h1m1 0h2m4 0h1m1 0h1m1 0h1m2 0h1m2 0h2m1 0h2m4 0h1m4 0h1m4 0h1m1 0h1m1 0h1m4 0h1m3 0h1m3 0h1m1 0h1m4 0h3m4 0h1m1 0h2m1 0h2m2 0h2m1 0h2m7 0h1m3 0h1m1 0h2m1 0h3m2 0h1m1 0h1m2 0h1m1 0h1m1 0h2m1 0h1m2 0h1m1 0h1m4 0h5m1 0h3m1 0h5m1 0h1m2 0h1m2 0h2M4 49.5h1m1 0h1m1 0h2m3 0h1m5 0h1m6 0h3m1 0h1m1 0h1m1 0h1m1 0h2m1 0h1m1 0h4m2 0h3m5 0h2m1 0h1m1 0h2m3 0h1m2 0h1m1 0h6m3 0h4m1 0h2m4 0h2m2 0h1m2 0h1m1 0h2m5 0h2m4 0h1m2 0h2m5 0h1m1 0h4m1 0h1m3 0h2m1 0h4m3 0h1m1 0h1m1 0h3m1 0h3m2 0h3m2 0h5m1 0h7m1 0h1m1 0h4M4 50.5h2m3 0h2m2 0h2m3 0h1m1 0h2m3 0h1m2 0h1m1 0h3m1 0h1m2 0h1m2 0h1m5 0h2m2 0h1m1 0h1m1 0h2m1 0h3m2 0h1m1 0h1m3 0h6m3 0h1m1 0h2m1 0h2m1 0h1m1 0h2m1 0h3m2 0h4m2 0h4m3 0h2m4 0h13m1 0h2m1 0h1m1 0h2m3 0h5m2 0h1m1 0h3m1 0h1m3 0h1m1 0h1m2 0h1m1 0h2m5 0h1m2 0h2m1 0h1m1 0h2M6 51.5h3m2 0h1m1 0h1m1 0h1m1 0h1m2 0h3m1 0h2m2 0h1m4 0h2m1 0h1m3 0h2m1 0h1m1 0h3m1 0h1m2 0h1m2 0h1m2 0h1m3 0h1m1 0h3m6 0h2m1 0h1m1 0h1m2 0h3m2 0h2m5 0h1m2 0h1m4 0h1m1 0h2m3 0h1m1 0h2m2 0h1m2 0h4m5 0h2m2 0h1m1 0h1m2 0h1m1 0h3m2 0h1m1 0h3m1 0h2m4 0h1m1 0h2m2 0h2m4 0h1m2 0h1m3 0h2m1 0h1m1 0h3M8 52.5h5m4 0h2m1 0h8m4 0h2m1 0h1m1 0h1m3 0h2m6 0h2m2 0h2m2 0h1m2 0h3m3 0h1m1 0h1m1 0h1m2 0h1m3 0h1m3 0h1m3 0h1m2 0h1m8 0h1m2 0h1m1 0h1m2 0h3m3 0h3m2 0h1m2 0h1m1 0h1m3 0h2m1 0h1m1 0h4m1 0h1m1 0h1m4 0h2m2 0h2m1 0h1m1 0h2m2 0h5m2 0h4m4 0h3m2 0h2M5 53.5h4m2 0h1m1 0h1m4 0h3m2 0h1m2 0h4m1 0h4m3 0h1m1 0h1m1 0h1m1 0h2m2 0h2m3 0h2m1 0h1m2 0h1m1 0h1m1 0h1m1 0h1m1 0h1m2 0h1m1 0h3m1 0h2m1 0h1m2 0h3m2 0h1m2 0h1m1 0h3m5 0h1m5 0h2m1 0h1m3 0h1m1 0h1m1 0h1m1 0h1m1 0h4m2 0h1m1 0h1m3 0h4m1 0h1m4 0h11m2 0h3m2 0h5m2 0h1m1 0h4m5 0h1M6 54.5h7m2 0h3m4 0h1m3 0h6m1 0h2m5 0h1m2 0h1m2 0h1m4 0h3m1 0h1m1 0h6m1 0h1m2 0h2m1 0h4m1 0h2m2 0h4m1 0h2m1 0h3m1 0h2m2 0h1m1 0h6m4 0h2m1 0h2m2 0h3m1 0h1m1 0h1m1 0h7m2 0h1m1 0h1m1 0h1m1 0h2m2 0h2m5 0h1m2 0h1m2 0h1m5 0h1m5 0h1m5 0h1m2 0h2m1 0h2M4 55.5h1m1 0h1m1 0h2m2 0h2m1 0h2m6 0h1m1 0h4m5 0h7m2 0h4m2 0h1m2 0h1m4 0h2m1 0h3m1 0h1m1 0h2m6 0h5m6 0h3m3 0h1m4 0h1m1 0h1m3 0h1m1 0h3m1 0h2m1 0h1m1 0h1m1 0h1m1 0h2m1 0h4m4 0h2m2 0h1m1 0h2m1 0h1m6 0h3m2 0h1m4 0h2m1 0h1m2 0h2m4 0h3m4 0h2m1 0h1m1 0h2M6 56.5h1m1 0h3m3 0h2m1 0h1m1 0h1m2 0h3m1 0h3m1 0h1m1 0h1m2 0h1m1 0h2m1 0h1m1 0h2m3 0h1m1 0h6m6 0h1m2 0h2m3 0h1m4 0h1m1 0h2m4 0h3m1 0h1m6 0h3m1 0h1m1 0h3m3 0h2m3 0h1m1 0h1m1 0h1m4 0h1m1 0h1m3 0h1m1 0h1m1 0h2m1 0h1m9 0h2m1 0h2m4 0h2m3 0h5m1 0h4m1 0h1m1 0h1m2 0h1m1 0h3m2 0h2M4 57.5h3m1 0h1m2 0h1m4 0h1m3 0h1m5 0h1m3 0h1m1 0h1m1 0h3m1 0h3m1 0h3m1 0h1m1 0h4m2 0h1m1 0h2m1 0h1m7 0h9m1 0h2m1 0h1m1 0h1m2 0h1m4 0h2m2 0h1m1 0h1m3 0h2m1 0h1m2 0h2m3 0h2m2 0h1m3 0h1m1 0h2m1 0h4m5 0h2m1 0h1m1 0h1m4 0h1m1 0h1m1 0h2m1 0h3m1 0h1m1 0h1m1 0h1m2 0h5m2 0h6m1 0h1m1 0h1m2 0h1M5 58.5h2m1 0h3m2 0h2m3 0h3m2 0h1m1 0h1m1 0h2m1 0h1m1 0h4m1 0h1m1 0h2m2 0h1m3 0h1m1 0h1m2 0h2m1 0h1m1 0h9m2 0h1m1 0h1m1 0h1m4 0h1m1 0h2m1 0h1m2 0h1m1 0h6m2 0h5m2 0h1m1 0h1m2 0h1m1 0h2m3 0h1m1 0h3m1 0h1m1 0h1m1 0h1m2 0h2m2 0h1m2 0h4m3 0h2m1 0h1m2 0h1m1 0h2m2 0h2m4 0h2m2 0h1m1 0h1m1 0h1m4 0h2m1 0h1m2 0h2M4 59.5h1m1 0h1m2 0h1m1 0h3m2 0h2m2 0h2m1 0h5m1 0h2m2 0h1m1 0h5m4 0h3m4 0h1m3 0h4m1 0h1m1 0h2m1 0h2m2 0h1m1 0h1m2 0h3m1 0h2m1 0h1m1 0h5m5 0h2m1 0h1m1 0h1m2 0h5m2 0h1m1 0h2m2 0h2m2 0h4m4 0h1m1 0h2m3 0h1m1 0h1m4 0h1m1 0h1m2 0h2m1 0h1m2 0h4m2 0h1m2 0h2m2 0h3m2 0h1m4 0h2m1 0h4M5 60.5h8m2 0h1m1 0h1m2 0h1m1 0h3m1 0h2m4 0h5m3 0h3m1 0h1m3 0h1m2 0h1m2 0h2m4 0h5m1 0h2m1 0h3m1 0h1m2 0h5m3 0h1m3 0h8m3 0h2m4 0h2m2 0h1m2 0h2m2 0h5m2 0h1m3 0h7m8 0h9m1 0h2m2 0h1m1 0h2m2 0h2m1 0h1m1 0h2m1 0h1m1 0h7M4 61.5h1m1 0h3m3 0h2m1 0h1m1 0h1m5 0h1m1 0h1m2 0h1m1 0h1m1 0h1m3 0h1m2 0h4m5 0h4m3 0h6m3 0h1m3 0h5m1 0h2m2 0h2m3 0h3m1 0h2m3 0h1m1 0h1m2 0h1m5 0h1m2 0h2m3 0h3m2 0h1m3 0h2m2 0h1m1 0h1m3 0h1m2 0h2m1 0h3m5 0h1m3 0h1m1 0h1m1 0h1m2 0h2m1 0h1m3 0h1m1 0h2m1 0h2m1 0h1m1 0h1m3 0h2m1 0h2M7 62.5h2m1 0h1m1 0h1m1 0h1m4 0h1m3 0h2m1 0h1m2 0h1m2 0h1m1 0h1m1 0h2m2 0h1m4 0h3m4 0h3m3 0h1m1 0h1m1 0h1m1 0h2m1 0h4m4 0h3m1 0h2m1 0h1m1 0h1m2 0h2m1 0h1m1 0h2m1 0h2m1 0h2m1 0h5m1 0h1m1 0h3m2 0h3m1 0h1m1 0h3m1 0h1m1 0h1m6 0h1m3 0h1m1 0h1m1 0h1m1 0h2m1 0h1m1 0h3m3 0h2m3 0h5m5 0h1m1 0h2m1 0h1m1 0h3M5 63.5h2m1 0h1m3 0h1m2 0h1m5 0h6m2 0h1m2 0h1m3 0h1m1 0h4m1 0h4m5 0h2m4 0h3m3 0h1m1 0h2m3 0h1m2 0h1m1 0h1m1 0h2m1 0h1m4 0h1m1 0h1m3 0h2m2 0h3m2 0h4m1 0h5m3 0h3m3 0h2m1 0h1m1 0h2m1 0h1m2 0h4m1 0h1m2 0h2m3 0h1m3 0h2m1 0h1m2 0h2m3 0h2m3 0h1m1 0h2m1 0h1m2 0h1m3 0h1m1 0h1m1 0h1M4 64.5h2m1 0h8m1 0h3m1 0h2m2 0h2m1 0h1m1 0h9m1 0h1m2 0h1m1 0h1m2 0h5m1 0h5m1 0h6m5 0h2m1 0h4m1 0h2m1 0h3m1 0h1m1 0h6m1 0h2m3 0h2m1 0h1m2 0h2m3 0h1m1 0h1m2 0h7m3 0h1m2 0h4m7 0h2m1 0h1m1 0h5m1 0h1m1 0h1m3 0h5m1 0h1m5 0h1m1 0h1m1 0h5M5 65.5h1m1 0h3m1 0h1m2 0h1m1 0h5m2 0h2m1 0h3m1 0h1m1 0h1m1 0h2m1 0h1m2 0h1m1 0h1m2 0h1m4 0h1m5 0h1m6 0h4m3 0h4m2 0h1m5 0h2m2 0h1m4 0h1m1 0h2m2 0h1m2 0h1m5 0h2m1 0h1m2 0h2m1 0h2m2 0h1m1 0h5m1 0h1m3 0h1m1 0h2m1 0h1m1 0h1m2 0h1m3 0h1m4 0h1m1 0h2m1 0h3m4 0h3m3 0h7m1 0h3m1 0h1M7 66.5h1m1 0h3m1 0h1m1 0h2m2 0h9m2 0h2m1 0h1m1 0h1m1 0h1m9 0h1m1 0h1m2 0h1m2 0h1m3 0h1m5 0h1m1 0h1m2 0h1m2 0h1m5 0h2m1 0h4m2 0h3m1 0h2m1 0h6m1 0h4m4 0h1m3 0h5m1 0h1m2 0h1m1 0h3m1 0h1m1 0h2m1 0h2m1 0h2m1 0h2m1 0h2m1 0h4m4 0h1m4 0h5m2 0h1m2 0h1m1 0h2m1 0h2m1 0h3M4 67.5h1m2 0h2m3 0h3m1 0h1m2 0h1m3 0h2m1 0h1m1 0h1m6 0h1m1 0h3m1 0h1m3 0h1m9 0h4m5 0h1m1 0h1m1 0h1m2 0h1m1 0h7m6 0h5m1 0h2m2 0h2m1 0h1m4 0h1m1 0h1m1 0h1m2 0h1m1 0h1m4 0h4m3 0h1m2 0h1m2 0h3m2 0h2m1 0h2m1 0h1m1 0h2m5 0h1m1 0h3m1 0h1m2 0h1m2 0h1m1 0h2m4 0h1m3 0h2m1 0h1M5 68.5h2m1 0h1m1 0h2m2 0h2m1 0h4m2 0h1m1 0h1m1 0h2m4 0h1m1 0h1m1 0h2m3 0h1m1 0h1m1 0h5m1 0h1m1 0h2m1 0h1m2 0h1m1 0h8m1 0h1m1 0h1m1 0h1m1 0h3m1 0h2m2 0h1m1 0h2m2 0h1m2 0h1m2 0h2m1 0h2m1 0h1m1 0h1m4 0h4m3 0h5m3 0h1m1 0h2m1 0h3m6 0h4m2 0h3m2 0h1m1 0h1m2 0h2m1 0h1m2 0h4m1 0h1m3 0h1m1 0h1m1 0h2m3 0h2M5 69.5h5m1 0h2m2 0h2m1 0h3m3 0h1m1 0h1m3 0h1m5 0h1m1 0h8m1 0h4m4 0h2m4 0h5m2 0h1m3 0h2m1 0h1m3 0h6m8 0h4m2 0h1m6 0h2m4 0h1m2 0h2m2 0h1m1 0h2m1 0h1m2 0h1m1 0h1m4 0h5m4 0h1m1 0h3m1 0h1m1 0h6m1 0h1m2 0h6m1 0h2m1 0h4m1 0h1m1 0h1m1 0h1M4 70.5h5m1 0h1m2 0h1m2 0h2m1 0h1m1 0h2m1 0h3m1 0h1m6 0h2m2 0h2m2 0h1m2 0h1m5 0h2m1 0h1m2 0h2m3 0h1m3 0h4m1 0h2m6 0h3m1 0h1m3 0h4m1 0h2m2 0h2m1 0h3m1 0h1m4 0h3m2 0h1m3 0h2m1 0h1m1 0h2m4 0h1m1 0h2m1 0h1m1 0h1m3 0h1m2 0h1m2 0h1m1 0h1m1 0h2m5 0h1m1 0h2m4 0h1m1 0h1m1 0h4m1 0h1M4 71.5h2m1 0h1m1 0h1m1 0h2m3 0h1m2 0h1m3 0h1m1 0h1m4 0h1m1 0h3m5 0h2m3 0h2m2 0h1m2 0h1m4 0h2m1 0h3m1 0h1m1 0h1m4 0h1m2 0h1m1 0h4m6 0h2m3 0h2m1 0h1m1 0h1m1 0h1m3 0h3m3 0h3m2 0h1m8 0h1m2 0h6m1 0h2m3 0h1m1 0h4m1 0h1m3 0h1m2 0h6m3 0h1m2 0h1m1 0h2m2 0h1m1 0h1m4 0h1m1 0h2M4 72.5h1m2 0h1m1 0h2m1 0h2m1 0h3m1 0h1m1 0h2m1 0h1m1 0h2m1 0h3m2 0h2m1 0h1m3 0h10m2 0h1m5 0h2m6 0h1m1 0h3m3 0h1m1 0h3m1 0h1m3 0h1m2 0h2m1 0h1m2 0h1m2 0h5m1 0h1m1 0h3m1 0h1m1 0h3m3 0h2m1 0h1m4 0h1m1 0h4m1 0h1m7 0h4m1 0h3m1 0h2m2 0h3m1 0h3m2 0h1m4 0h2m1 0h1m1 0h1m1 0h2m3 0h2M6 73.5h1m1 0h2m2 0h1m5 0h7m1 0h1m2 0h1m2 0h1m1 0h2m2 0h7m1 0h1m1 0h1m2 0h1m1 0h4m2 0h1m3 0h4m1 0h1m1 0h3m3 0h1m4 0h3m1 0h3m1 0h1m1 0h1m2 0h2m2 0h1m1 0h1m5 0h1m9 0h1m4 0h2m1 0h4m5 0h2m1 0h1m1 0h1m6 0h2m2 0h4m4 0h2m3 0h1m1 0h5m1 0h2m3 0h4m1 0h1M4 74.5h2m4 0h2m2 0h2m1 0h4m1 0h1m1 0h2m1 0h2m1 0h3m2 0h1m1 0h3m11 0h5m1 0h1m2 0h1m6 0h1m2 0h1m1 0h1m6 0h2m1 0h1m1 0h2m2 0h1m1 0h2m1 0h1m1 0h1m1 0h1m1 0h1m2 0h1m1 0h1m2 0h1m3 0h1m1 0h5m4 0h3m2 0h3m1 0h2m1 0h6m1 0h1m1 0h1m1 0h1m2 0h2m1 0h1m1 0h1m1 0h1m1 0h1m2 0h1m4 0h1m4 0h1m2 0h1m1 0h1m2 0h2M4 75.5h1m2 0h1m5 0h2m1 0h2m1 0h1m1 0h2m1 0h3m4 0h1m2 0h1m2 0h5m1 0h1m1 0h2m2 0h1m1 0h1m1 0h1m2 0h1m1 0h3m1 0h1m1 0h3m2 0h1m4 0h6m6 0h1m1 0h3m1 0h2m2 0h1m1 0h1m3 0h3m1 0h1m1 0h2m4 0h1m2 0h2m1 0h3m3 0h1m1 0h1m1 0h2m1 0h2m5 0h5m3 0h2m4 0h3m2 0h3m1 0h1m2 0h4m3 0h1m1 0h2m1 0h1m1 0h1M8 76.5h1m1 0h4m4 0h6m1 0h1m2 0h2m1 0h1m3 0h1m3 0h1m2 0h1m1 0h1m3 0h3m1 0h1m1 0h2m1 0h1m2 0h4m3 0h1m1 0h3m3 0h2m2 0h2m3 0h2m5 0h1m1 0h3m1 0h1m1 0h2m1 0h1m2 0h3m4 0h1m4 0h2m1 0h1m7 0h3m1 0h1m3 0h1m3 0h1m1 0h2m1 0h4m1 0h4m1 0h4m1 0h1m1 0h1m1 0h1m2 0h8m1 0h1m2 0h2M4 77.5h3m1 0h2m1 0h3m1 0h1m1 0h3m4 0h2m3 0h7m3 0h2m1 0h1m1 0h1m3 0h1m5 0h1m1 0h2m4 0h1m1 0h1m3 0h1m2 0h1m1 0h1m1 0h1m1 0h1m1 0h1m1 0h6m2 0h1m2 0h1m1 0h1m2 0h1m1 0h2m3 0h1m1 0h1m2 0h1m1 0h3m1 0h1m5 0h4m1 0h1m3 0h1m2 0h6m2 0h1m7 0h2m1 0h1m3 0h1m1 0h1m4 0h7m1 0h1m1 0h1m1 0h6M4 78.5h3m2 0h2m2 0h1m6 0h2m1 0h2m1 0h6m1 0h3m4 0h1m4 0h1m1 0h1m1 0h1m1 0h2m1 0h2m1 0h2m1 0h1m6 0h2m1 0h1m1 0h1m6 0h2m1 0h1m1 0h2m2 0h1m2 0h3m1 0h4m1 0h4m1 0h4m1 0h3m1 0h3m2 0h1m1 0h1m1 0h2m1 0h1m2 0h1m2 0h1m1 0h1m1 0h3m2 0h1m1 0h3m1 0h2m1 0h2m1 0h3m3 0h2m1 0h2m2 0h1m5 0h2m1 0h1m1 0h1M6 79.5h2m3 0h1m1 0h3m2 0h1m2 0h3m2 0h5m3 0h2m4 0h1m4 0h2m2 0h1m3 0h1m1 0h1m2 0h2m1 0h2m1 0h1m1 0h2m3 0h1m1 0h7m1 0h1m1 0h1m2 0h1m2 0h5m2 0h1m1 0h2m1 0h1m1 0h3m2 0h3m1 0h4m1 0h1m2 0h1m2 0h1m3 0h1m5 0h1m1 0h1m2 0h1m4 0h2m2 0h3m4 0h1m1 0h2m1 0h2m2 0h2m1 0h4m1 0h1m3 0h2m1 0h3M4 80.5h2m2 0h1m1 0h1m1 0h1m4 0h1m1 0h1m2 0h2m2 0h3m1 0h4m2 0h2m1 0h1m2 0h3m1 0h3m1 0h2m1 0h2m1 0h2m2 0h1m1 0h1m1 0h1m3 0h1m2 0h1m2 0h4m3 0h1m3 0h3m3 0h1m1 0h3m1 0h6m3 0h2m1 0h1m1 0h1m2 0h1m2 0h2m1 0h1m4 0h1m2 0h5m2 0h1m1 0h1m1 0h2m1 0h2m1 0h4m1 0h2m3 0h2m1 0h1m2 0h2m1 0h1m3 0h7m1 0h1m3 0h1M4 81.5h4m5 0h1m2 0h1m3 0h1m1 0h1m2 0h4m2 0h2m3 0h1m2 0h8m1 0h1m2 0h1m1 0h4m1 0h1m2 0h3m1 0h1m2 0h6m1 0h3m3 0h1m2 0h1m4 0h1m1 0h1m2 0h2m7 0h1m1 0h2m2 0h1m3 0h2m1 0h1m2 0h1m1 0h2m1 0h4m3 0h1m1 0h7m3 0h2m2 0h1m1 0h1m1 0h3m2 0h1m2 0h1m3 0h3m2 0h1m1 0h1m2 0h2m1 0h2m1 0h2M6 82.5h1m1 0h4m6 0h4m2 0h1m2 0h3m3 0h2m4 0h3m3 0h2m3 0h3m1 0h1m2 0h3m1 0h1m5 0h2m1 0h3m2 0h1m1 0h1m1 0h2m1 0h1m1 0h2m1 0h2m1 0h1m1 0h1m4 0h1m3 0h2m1 0h1m2 0h5m3 0h4m1 0h1m1 0h4m2 0h1m1 0h3m2 0h2m1 0h1m2 0h2m2 0h1m2 0h2m4 0h1m2 0h1m2 0h3m2 0h1m1 0h1m10 0h2M6 83.5h2m4 0h1m3 0h6m2 0h6m7 0h5m1 0h2m1 0h2m1 0h1m2 0h1m2 0h1m2 0h1m1 0h1m1 0h5m4 0h1m2 0h1m1 0h1m1 0h2m1 0h1m3 0h4m1 0h3m1 0h1m1 0h1m1 0h2m1 0h1m3 0h7m1 0h1m4 0h4m5 0h2m7 0h1m5 0h3m3 0h1m3 0h1m1 0h3m3 0h1m3 0h4m1 0h1m5 0h1m1 0h3M4 84.5h2m2 0h1m1 0h1m1 0h2m1 0h2m3 0h2m2 0h1m1 0h5m1 0h5m1 0h1m3 0h1m1 0h1m3 0h1m1 0h2m2 0h1m1 0h2m2 0h1m3 0h4m2 0h2m1 0h2m1 0h4m1 0h3m1 0h2m2 0h1m1 0h1m2 0h1m2 0h2m1 0h2m1 0h1m5 0h1m2 0h1m2 0h1m2 0h1m1 0h1m2 0h1m1 0h1m2 0h3m1 0h2m7 0h2m2 0h3m2 0h1m1 0h2m2 0h1m1 0h2m1 0h3m1 0h1m1 0h8m5 0h1M4 85.5h1m2 0h1m3 0h2m1 0h1m2 0h1m5 0h2m2 0h1m1 0h3m1 0h3m1 0h1m1 0h1m1 0h6m1 0h1m1 0h1m2 0h1m2 0h3m4 0h1m1 0h1m1 0h7m1 0h1m7 0h1m1 0h1m1 0h1m3 0h1m2 0h3m2 0h3m3 0h2m2 0h1m1 0h2m3 0h1m4 0h2m1 0h1m1 0h1m4 0h1m1 0h2m1 0h1m1 0h1m6 0h3m4 0h1m1 0h4m1 0h1m3 0h2m3 0h1m1 0h1m2 0h1m1 0h1m1 0h4M5 86.5h2m3 0h4m2 0h4m1 0h2m1 0h1m4 0h2m3 0h1m3 0h2m5 0h3m1 0h1m1 0h3m1 0h1m1 0h3m5 0h1m1 0h2m1 0h4m1 0h1m1 0h1m1 0h4m1 0h2m2 0h3m4 0h4m1 0h1m1 0h2m3 0h5m2 0h1m5 0h5m1 0h3m1 0h2m1 0h1m2 0h1m1 0h1m1 0h1m3 0h1m1 0h3m1 0h2m1 0h2m4 0h3m1 0h1m1 0h1m3 0h1m7 0h3M4 87.5h4m1 0h1m3 0h1m5 0h1m1 0h2m1 0h3m6 0h2m1 0h3m1 0h1m2 0h6m2 0h2m2 0h2m1 0h1m1 0h3m1 0h1m2 0h1m3 0h1m2 0h1m1 0h1m1 0h2m5 0h7m2 0h1m3 0h2m3 0h2m1 0h3m1 0h1m2 0h1m4 0h1m1 0h1m1 0h5m1 0h3m1 0h5m2 0h3m2 0h1m4 0h1m4 0h3m3 0h1m5 0h4m3 0h1m1 0h1m2 0h1M7 88.5h6m1 0h1m1 0h7m2 0h4m3 0h6m1 0h4m1 0h1m2 0h3m1 0h2m1 0h2m4 0h5m4 0h3m2 0h3m1 0h1m5 0h3m1 0h11m1 0h1m1 0h2m1 0h2m3 0h4m1 0h6m7 0h1m1 0h4m1 0h1m3 0h1m1 0h2m1 0h5m1 0h2m1 0h1m2 0h2m1 0h1m1 0h2m7 0h8m1 0h1M5 89.5h1m1 0h2m3 0h1m4 0h1m2 0h1m3 0h3m2 0h1m2 0h1m3 0h1m1 0h7m3 0h1m2 0h2m1 0h3m2 0h2m3 0h1m3 0h1m1 0h2m1 0h1m1 0h2m1 0h2m1 0h2m4 0h2m3 0h1m1 0h1m1 0h2m1 0h2m5 0h1m1 0h1m3 0h1m2 0h2m3 0h3m1 0h1m1 0h2m3 0h1m2 0h1m1 0h3m5 0h1m3 0h1m2 0h2m1 0h1m1 0h4m5 0h1m1 0h1m2 0h1m1 0h1m3 0h2m2 0h1M4 90.5h5m1 0h1m1 0h2m3 0h3m1 0h2m1 0h3m1 0h1m3 0h1m1 0h1m1 0h3m7 0h1m5 0h3m3 0h1m1 0h1m1 0h1m1 0h1m2 0h4m1 0h1m2 0h2m2 0h2m1 0h4m2 0h1m1 0h1m1 0h1m2 0h4m1 0h1m1 0h3m4 0h3m1 0h2m1 0h1m1 0h1m1 0h3m1 0h1m1 0h1m2 0h1m1 0h4m1 0h1m1 0h2m1 0h1m2 0h1m1 0h1m1 0h1m1 0h2m1 0h3m4 0h1m4 0h1m1 0h1m4 0h1m1 0h1m1 0h1m1 0h1M5 91.5h1m1 0h2m3 0h1m2 0h1m1 0h4m1 0h2m3 0h1m2 0h1m1 0h1m3 0h1m3 0h2m3 0h2m2 0h1m1 0h3m3 0h2m1 0h1m3 0h1m1 0h1m2 0h1m1 0h1m1 0h4m1 0h1m4 0h1m2 0h1m1 0h1m3 0h1m1 0h1m1 0h4m3 0h3m2 0h2m4 0h1m1 0h1m3 0h1m5 0h1m1 0h1m1 0h1m3 0h4m2 0h3m1 0h1m3 0h1m2 0h1m2 0h1m2 0h1m7 0h3m1 0h1m1 0h2m3 0h3m1 0h1M4 92.5h1m1 0h7m2 0h1m3 0h1m2 0h1m1 0h1m3 0h3m1 0h9m1 0h1m1 0h1m5 0h1m1 0h1m3 0h2m1 0h6m1 0h1m1 0h2m4 0h5m7 0h8m1 0h1m1 0h1m2 0h1m2 0h1m1 0h3m2 0h3m2 0h7m3 0h1m1 0h4m1 0h1m4 0h1m1 0h2m1 0h7m1 0h1m2 0h1m2 0h4m2 0h1m1 0h1m3 0h3m1 0h5M4 93.5h1m1 0h3m4 0h1m3 0h1m1 0h1m2 0h6m1 0h2m1 0h3m2 0h3m3 0h1m1 0h1m2 0h1m2 0h3m1 0h2m5 0h1m1 0h2m2 0h1m2 0h2m5 0h5m2 0h1m2 0h1m1 0h1m3 0h4m2 0h1m2 0h1m1 0h2m2 0h1m2 0h1m3 0h3m1 0h5m1 0h2m3 0h1m1 0h2m1 0h1m1 0h1m2 0h1m3 0h3m2 0h1m1 0h1m3 0h1m1 0h2m1 0h4m2 0h4m1 0h1m1 0h1m1 0h1m1 0h1m1 0h1M4 94.5h1m1 0h3m1 0h3m2 0h1m1 0h1m1 0h3m1 0h1m1 0h2m5 0h1m2 0h1m2 0h3m1 0h1m1 0h1m1 0h2m1 0h1m1 0h3m1 0h1m2 0h2m2 0h2m3 0h3m2 0h1m2 0h1m1 0h1m2 0h1m1 0h1m2 0h1m5 0h2m4 0h3m2 0h1m1 0h1m2 0h1m1 0h3m1 0h3m8 0h2m2 0h2m4 0h4m3 0h1m1 0h2m1 0h1m6 0h1m6 0h4m2 0h2m1 0h1m1 0h2m2 0h2M4 95.5h1m2 0h1m1 0h1m1 0h1m1 0h1m4 0h1m1 0h4m3 0h4m4 0h1m1 0h1m2 0h1m2 0h5m1 0h1m2 0h1m4 0h2m1 0h2m3 0h2m3 0h1m5 0h1m1 0h2m3 0h1m2 0h2m2 0h2m1 0h1m2 0h3m4 0h4m1 0h1m4 0h2m1 0h2m3 0h1m5 0h2m1 0h3m2 0h3m2 0h3m1 0h5m4 0h2m4 0h1m1 0h1m1 0h1m1 0h2m1 0h2m3 0h1m3 0h3M5 96.5h1m2 0h1m1 0h2m5 0h2m1 0h1m2 0h1m1 0h1m4 0h1m2 0h1m4 0h5m1 0h8m2 0h6m2 0h1m1 0h2m1 0h1m5 0h2m11 0h9m2 0h1m2 0h1m1 0h2m1 0h2m2 0h1m1 0h2m2 0h2m3 0h1m7 0h3m1 0h1m6 0h2m1 0h2m3 0h2m1 0h1m1 0h1m3 0h3m1 0h6m2 0h3m1 0h1m3 0h4M7 97.5h2m4 0h2m1 0h1m1 0h1m2 0h5m1 0h7m1 0h1m1 0h1m1 0h1m1 0h1m2 0h2m1 0h1m1 0h2m3 0h3m2 0h2m1 0h1m2 0h1m2 0h2m3 0h1m3 0h1m2 0h2m1 0h3m5 0h1m2 0h1m1 0h2m2 0h2m3 0h2m1 0h2m2 0h2m2 0h1m1 0h5m1 0h1m1 0h1m4 0h1m1 0h2m1 0h1m1 0h1m2 0h1m2 0h3m3 0h1m1 0h1m1 0h1m1 0h1m1 0h2m3 0h6m3 0h3m5 0h1M4 98.5h1m3 0h1m1 0h2m1 0h1m5 0h1m2 0h1m4 0h1m1 0h4m2 0h2m4 0h3m3 0h1m4 0h2m1 0h1m2 0h2m1 0h1m2 0h1m3 0h1m1 0h1m1 0h2m5 0h2m1 0h3m4 0h1m3 0h1m3 0h2m1 0h1m1 0h3m2 0h1m1 0h3m2 0h3m5 0h1m1 0h1m1 0h2m3 0h1m1 0h2m3 0h6m2 0h2m1 0h1m1 0h1m2 0h1m2 0h1m1 0h3m1 0h1m7 0h1m4 0h1m1 0h1M4 99.5h2m1 0h1m1 0h1m2 0h1m2 0h1m2 0h2m1 0h1m1 0h8m1 0h1m2 0h1m1 0h2m1 0h1m5 0h2m4 0h1m5 0h3m2 0h1m1 0h2m4 0h1m1 0h5m3 0h1m1 0h1m1 0h4m2 0h1m1 0h1m1 0h2m5 0h4m1 0h1m2 0h1m1 0h5m1 0h1m2 0h2m2 0h2m1 0h1m1 0h1m2 0h1m1 0h1m1 0h1m1 0h1m4 0h1m2 0h2m5 0h2m1 0h1m2 0h1m5 0h1m2 0h1m2 0h1m5 0h1M5 100.5h3m1 0h2m3 0h1m1 0h4m2 0h1m4 0h1m1 0h1m1 0h1m1 0h1m1 0h2m5 0h1m4 0h1m5 0h3m6 0h5m1 0h3m1 0h1m1 0h2m1 0h2m2 0h3m2 0h4m2 0h3m2 0h2m1 0h4m1 0h1m1 0h1m1 0h1m1 0h3m1 0h1m1 0h4m1 0h1m1 0h1m2 0h2m1 0h1m1 0h1m2 0h1m3 0h2m1 0h1m1 0h2m2 0h1m1 0h2m4 0h4m1 0h3m3 0h2m1 0h1m1 0h1m7 0h1M5 101.5h1m1 0h1m5 0h1m1 0h1m3 0h2m3 0h1m1 0h1m3 0h1m1 0h3m2 0h3m2 0h3m1 0h1m1 0h1m1 0h1m2 0h7m4 0h1m2 0h2m1 0h1m3 0h3m2 0h1m5 0h2m2 0h1m1 0h1m2 0h1m8 0h5m5 0h1m4 0h1m1 0h2m1 0h5m3 0h1m1 0h2m1 0h1m1 0h2m3 0h4m3 0h4m1 0h3m2 0h1m3 0h1m6 0h1m1 0h3m1 0h1m1 0h1M5 102.5h1m1 0h5m3 0h2m1 0h2m1 0h2m1 0h2m4 0h3m2 0h1m1 0h2m2 0h1m4 0h1m2 0h1m2 0h2m3 0h2m2 0h1m1 0h1m5 0h2m1 0h2m2 0h2m1 0h4m1 0h1m1 0h1m4 0h1m1 0h1m1 0h2m1 0h6m1 0h1m1 0h5m2 0h5m2 0h2m1 0h1m1 0h2m2 0h1m1 0h1m1 0h1m1 0h1m1 0h1m1 0h4m1 0h1m3 0h1m4 0h1m3 0h6m1 0h3m3 0h2m1 0h6M5 103.5h4m5 0h2m2 0h7m3 0h1m2 0h1m2 0h2m10 0h2m1 0h1m3 0h1m2 0h1m1 0h4m1 0h2m1 0h1m4 0h1m2 0h6m5 0h1m2 0h4m4 0h1m1 0h2m2 0h5m1 0h1m1 0h1m2 0h2m2 0h1m1 0h1m3 0h1m3 0h2m1 0h1m2 0h1m1 0h1m8 0h1m3 0h2m3 0h2m5 0h1m3 0h1m1 0h1m1 0h2m3 0h1m4 0h1M4 104.5h1m1 0h1m3 0h2m1 0h1m3 0h1m5 0h1m3 0h2m4 0h1m2 0h1m5 0h1m6 0h2m1 0h1m1 0h1m5 0h3m1 0h4m3 0h1m2 0h1m1 0h2m2 0h1m3 0h4m1 0h1m2 0h4m3 0h3m3 0h1m5 0h2m2 0h1m7 0h1m1 0h1m2 0h3m1 0h2m1 0h1m3 0h4m2 0h1m1 0h5m3 0h2m1 0h1m2 0h2m1 0h1m2 0h4m1 0h2m1 0h1m1 0h1m1 0h2M6 105.5h4m1 0h4m3 0h3m1 0h2m1 0h1m1 0h2m1 0h1m6 0h2m1 0h2m2 0h1m3 0h1m4 0h1m2 0h6m1 0h3m2 0h1m1 0h1m1 0h2m3 0h1m1 0h1m1 0h2m2 0h1m4 0h2m2 0h1m5 0h2m1 0h2m1 0h1m1 0h1m4 0h1m2 0h3m1 0h1m1 0h3m4 0h1m1 0h1m2 0h1m1 0h1m1 0h1m2 0h2m1 0h1m1 0h1m1 0h1m2 0h3m2 0h1m1 0h1m3 0h4m2 0h1m1 0h1m1 0h2m2 0h1m1 0h3M5 106.5h1m1 0h2m1 0h1m4 0h3m1 0h3m1 0h1m6 0h2m6 0h2m1 0h1m1 0h1m1 0h1m6 0h1m4 0h4m1 0h1m1 0h2m1 0h4m1 0h2m1 0h1m3 0h4m1 0h2m6 0h1m2 0h4m2 0h2m4 0h2m1 0h2m2 0h3m5 0h2m1 0h2m1 0h3m1 0h2m1 0h1m2 0h2m1 0h3m2 0h1m3 0h1m3 0h1m2 0h1m1 0h2m1 0h2m3 0h1m3 0h2m1 0h1M4 107.5h2m5 0h2m3 0h2m1 0h1m1 0h1m2 0h1m1 0h2m4 0h3m5 0h2m1 0h1m2 0h1m2 0h1m2 0h2m1 0h1m2 0h2m1 0h1m3 0h3m1 0h1m1 0h1m2 0h3m1 0h1m6 0h4m1 0h3m3 0h2m3 0h1m1 0h3m2 0h2m4 0h1m1 0h3m5 0h1m3 0h1m1 0h1m2 0h1m3 0h2m2 0h1m3 0h1m1 0h2m2 0h1m2 0h3m6 0h1m1 0h2m2 0h1m2 0h1m1 0h1m3 0h2M6 108.5h5m1 0h2m2 0h2m1 0h1m1 0h2m2 0h1m1 0h1m2 0h2m2 0h2m1 0h4m1 0h1m1 0h2m3 0h2m1 0h1m1 0h4m3 0h5m1 0h2m2 0h1m5 0h1m1 0h1m3 0h3m1 0h3m2 0h4m1 0h1m2 0h2m5 0h1m1 0h2m1 0h1m1 0h4m6 0h2m1 0h5m1 0h1m5 0h2m1 0h2m3 0h2m1 0h4m3 0h1m2 0h1m1 0h2m4 0h1m1 0h4M4 109.5h5m2 0h1m1 0h6m2 0h1m3 0h1m1 0h2m1 0h6m1 0h2m1 0h1m2 0h2m3 0h1m1 0h2m2 0h1m1 0h2m1 0h1m5 0h1m1 0h1m1 0h1m1 0h3m1 0h1m4 0h3m1 0h2m2 0h1m1 0h2m2 0h2m1 0h1m1 0h2m4 0h4m3 0h2m2 0h1m1 0h1m1 0h1m2 0h1m1 0h3m1 0h1m1 0h1m2 0h1m1 0h3m5 0h1m1 0h1m1 0h1m2 0h2m1 0h1m1 0h1m1 0h1m4 0h3m1 0h2m3 0h1m1 0h1m1 0h1m3 0h1M6 110.5h2m1 0h3m1 0h1m2 0h3m2 0h1m2 0h8m2 0h2m1 0h1m1 0h2m1 0h2m1 0h2m2 0h2m1 0h4m2 0h1m5 0h1m2 0h4m1 0h1m2 0h1m5 0h2m1 0h2m2 0h1m2 0h2m2 0h6m1 0h2m4 0h3m2 0h1m1 0h2m2 0h1m2 0h1m2 0h2m2 0h2m3 0h4m3 0h3m1 0h3m5 0h1m5 0h3m1 0h1m2 0h1m4 0h2m2 0h5M4 111.5h2m1 0h3m2 0h3m1 0h1m1 0h3m2 0h1m1 0h1m1 0h1m1 0h5m2 0h3m2 0h1m3 0h2m2 0h1m2 0h1m2 0h1m2 0h4m1 0h1m1 0h2m7 0h1m1 0h1m1 0h2m5 0h2m1 0h1m1 0h5m1 0h2m3 0h1m1 0h3m2 0h1m1 0h1m2 0h1m6 0h4m4 0h1m2 0h5m4 0h1m4 0h2m1 0h2m1 0h5m3 0h2m2 0h4m2 0h1m7 0h2m1 0h1M8 112.5h1m1 0h1m1 0h1m3 0h5m6 0h2m2 0h1m2 0h1m1 0h1m1 0h1m1 0h1m1 0h3m2 0h1m1 0h3m2 0h1m1 0h2m3 0h7m1 0h1m4 0h3m1 0h1m2 0h1m1 0h1m2 0h3m2 0h5m1 0h1m1 0h5m1 0h3m4 0h1m4 0h5m6 0h5m4 0h1m1 0h2m1 0h1m1 0h2m2 0h2m2 0h1m8 0h4m1 0h3m1 0h1m1 0h1m2 0h1m3 0h2M4 113.5h1m1 0h4m1 0h2m1 0h4m1 0h1m2 0h5m1 0h3m5 0h4m1 0h2m4 0h1m2 0h1m4 0h4m1 0h4m4 0h1m1 0h1m2 0h3m1 0h3m3 0h2m3 0h1m1 0h2m2 0h2m1 0h1m1 0h2m3 0h1m1 0h1m1 0h2m1 0h1m1 0h1m2 0h1m1 0h1m1 0h8m8 0h4m3 0h2m1 0h1m1 0h3m1 0h1m1 0h1m1 0h1m1 0h1m1 0h1m1 0h3m3 0h5m1 0h1m1 0h2m2 0h1M6 114.5h2m2 0h3m4 0h1m1 0h4m2 0h1m1 0h1m1 0h1m1 0h1m1 0h1m2 0h1m3 0h1m1 0h1m2 0h1m1 0h1m1 0h4m4 0h4m3 0h2m2 0h3m2 0h1m1 0h1m1 0h1m2 0h6m5 0h2m2 0h1m1 0h2m3 0h2m3 0h2m1 0h2m1 0h3m3 0h1m1 0h3m1 0h1m5 0h3m1 0h9m3 0h2m2 0h1m1 0h1m1 0h1m1 0h1m1 0h2m4 0h1m1 0h1m3 0h1m1 0h5M4 115.5h3m5 0h3m2 0h6m2 0h2m2 0h5m5 0h4m3 0h2m3 0h2m4 0h3m1 0h1m4 0h2m2 0h5m1 0h1m1 0h1m7 0h1m1 0h1m1 0h2m4 0h1m2 0h1m2 0h1m1 0h3m1 0h3m4 0h3m2 0h1m3 0h1m4 0h2m1 0h2m1 0h1m2 0h2m1 0h2m4 0h3m1 0h1m2 0h1m2 0h1m2 0h2m2 0h3m2 0h1m2 0h1m2 0h1m1 0h3M4 116.5h1m1 0h1m1 0h6m9 0h2m2 0h2m1 0h7m1 0h1m1 0h1m3 0h2m1 0h1m2 0h1m1 0h1m1 0h1m1 0h3m1 0h6m6 0h1m1 0h1m1 0h1m2 0h1m1 0h1m1 0h1m2 0h1m1 0h5m4 0h1m1 0h2m2 0h1m2 0h1m2 0h1m1 0h3m2 0h6m1 0h1m6 0h4m3 0h1m1 0h2m1 0h1m1 0h7m2 0h1m1 0h1m2 0h2m2 0h3m2 0h1m1 0h2m1 0h6m2 0h1M4 117.5h1m1 0h3m3 0h1m1 0h1m3 0h1m1 0h1m1 0h1m2 0h1m1 0h3m1 0h2m3 0h1m2 0h1m3 0h2m1 0h1m1 0h2m1 0h1m2 0h1m1 0h1m2 0h2m3 0h1m2 0h2m2 0h3m1 0h1m4 0h1m1 0h7m3 0h4m1 0h1m1 0h3m1 0h1m1 0h2m4 0h2m2 0h2m3 0h3m1 0h1m1 0h1m2 0h1m3 0h7m3 0h2m3 0h5m3 0h3m3 0h4m1 0h2m1 0h1m1 0h1m3 0h2m2 0h1M5 118.5h2m1 0h1m1 0h1m1 0h2m3 0h3m2 0h2m6 0h3m1 0h1m1 0h3m3 0h1m2 0h3m4 0h4m1 0h2m1 0h1m1 0h1m1 0h1m2 0h7m3 0h1m1 0h7m1 0h2m1 0h1m1 0h1m2 0h1m2 0h1m1 0h1m1 0h1m1 0h1m2 0h2m1 0h1m1 0h1m1 0h3m1 0h1m1 0h1m1 0h1m1 0h2m1 0h1m6 0h7m1 0h3m1 0h1m1 0h2m3 0h1m3 0h2m1 0h1m2 0h1m2 0h2m3 0h2m1 0h1m1 0h1m1 0h1M6 119.5h3m3 0h1m2 0h4m2 0h1m1 0h3m1 0h1m2 0h1m1 0h1m3 0h1m1 0h1m1 0h1m2 0h5m1 0h1m2 0h1m4 0h2m1 0h1m3 0h4m1 0h3m2 0h3m1 0h2m3 0h1m1 0h2m1 0h1m3 0h2m2 0h1m1 0h1m4 0h2m1 0h1m1 0h1m1 0h1m3 0h1m1 0h1m3 0h4m1 0h1m3 0h5m1 0h1m1 0h1m2 0h1m1 0h1m1 0h1m3 0h1m2 0h2m1 0h1m5 0h1m2 0h1m1 0h2m5 0h1m3 0h1m1 0h2M4 120.5h1m2 0h7m1 0h1m9 0h3m2 0h9m1 0h3m2 0h1m2 0h1m2 0h1m1 0h2m1 0h1m3 0h5m4 0h1m2 0h3m1 0h1m1 0h1m3 0h1m1 0h2m1 0h6m4 0h1m2 0h2m1 0h1m5 0h1m1 0h3m1 0h7m5 0h4m1 0h2m5 0h2m1 0h10m1 0h1m1 0h2m1 0h5m1 0h3m1 0h9m2 0h1M5 121.5h2m4 0h1m1 0h5m6 0h4m1 0h2m1 0h2m1 0h3m2 0h1m1 0h1m2 0h1m2 0h1m5 0h4m1 0h4m1 0h5m2 0h2m2 0h1m1 0h1m1 0h4m1 0h2m1 0h1m1 0h2m1 0h2m3 0h1m2 0h1m2 0h2m1 0h4m1 0h1m1 0h1m1 0h1m3 0h9m5 0h2m1 0h1m1 0h2m3 0h1m1 0h1m2 0h6m2 0h4m3 0h3m2 0h6m3 0h2m1 0h1M4 122.5h1m3 0h9m1 0h2m3 0h1m7 0h1m1 0h1m4 0h1m6 0h2m4 0h3m1 0h1m3 0h1m3 0h3m1 0h2m1 0h1m1 0h2m3 0h1m2 0h1m1 0h4m8 0h1m1 0h1m1 0h1m3 0h2m3 0h2m1 0h1m1 0h1m1 0h1m1 0h3m1 0h5m2 0h3m3 0h1m3 0h4m2 0h1m1 0h3m6 0h1m5 0h2m1 0h1m2 0h2m4 0h8M4 123.5h1m2 0h1m3 0h1m1 0h1m3 0h2m2 0h2m1 0h1m1 0h3m2 0h1m1 0h4m3 0h2m4 0h3m2 0h1m1 0h1m3 0h1m3 0h1m1 0h2m1 0h1m6 0h2m1 0h1m1 0h2m1 0h1m3 0h2m1 0h2m4 0h3m1 0h3m2 0h3m5 0h2m2 0h2m2 0h1m1 0h1m1 0h1m2 0h1m3 0h2m2 0h1m1 0h1m1 0h2m1 0h5m1 0h1m3 0h4m2 0h1m2 0h1m2 0h1m1 0h4m2 0h1m1 0h2m1 0h5M6 124.5h1m1 0h1m1 0h2m4 0h3m2 0h1m1 0h4m5 0h1m1 0h1m2 0h1m2 0h1m1 0h1m2 0h1m3 0h2m1 0h1m2 0h2m1 0h1m1 0h2m1 0h1m1 0h1m1 0h1m1 0h1m2 0h3m1 0h3m3 0h2m1 0h2m2 0h1m1 0h1m1 0h1m3 0h1m1 0h3m3 0h3m1 0h1m1 0h2m1 0h1m4 0h1m5 0h1m1 0h7m3 0h1m1 0h4m1 0h1m3 0h3m1 0h1m5 0h2m1 0h3m3 0h2m4 0h3m1 0h1M4 125.5h6m2 0h2m1 0h2m3 0h2m1 0h2m1 0h1m1 0h2m1 0h1m2 0h1m1 0h2m1 0h8m1 0h1m1 0h1m2 0h1m1 0h2m5 0h4m2 0h2m1 0h2m5 0h1m1 0h1m3 0h1m1 0h1m4 0h2m1 0h3m2 0h2m2 0h2m1 0h1m4 0h2m2 0h10m1 0h1m2 0h3m1 0h2m1 0h1m1 0h1m2 0h1m1 0h1m1 0h1m1 0h1m2 0h1m3 0h3m5 0h1m1 0h1m1 0h1m1 0h1m3 0h1m5 0h1m1 0h1M4 126.5h5m1 0h2m2 0h3m1 0h1m2 0h2m1 0h2m3 0h2m1 0h1m1 0h1m3 0h1m6 0h1m1 0h1m4 0h2m1 0h1m2 0h2m1 0h4m2 0h2m1 0h4m5 0h2m1 0h1m1 0h1m4 0h1m6 0h4m1 0h1m2 0h1m4 0h3m2 0h1m3 0h1m1 0h3m1 0h3m2 0h2m6 0h4m1 0h1m3 0h1m2 0h2m3 0h1m2 0h1m1 0h3m1 0h1m2 0h2m4 0h1m1 0h1M5 127.5h5m3 0h4m1 0h1m1 0h2m2 0h1m1 0h1m2 0h3m2 0h1m5 0h2m1 0h1m2 0h3m2 0h1m6 0h1m3 0h2m1 0h3m1 0h1m4 0h1m1 0h1m1 0h1m2 0h1m3 0h4m2 0h1m1 0h2m1 0h1m1 0h1m2 0h5m2 0h1m1 0h1m4 0h1m7 0h1m2 0h7m2 0h3m1 0h1m1 0h7m1 0h1m4 0h2m8 0h1m1 0h2m1 0h1m1 0h2m1 0h1m1 0h1m1 0h2M4 128.5h1m2 0h1m1 0h2m3 0h1m4 0h2m1 0h1m1 0h1m2 0h1m2 0h1m1 0h1m4 0h4m3 0h1m2 0h2m3 0h3m1 0h2m1 0h3m1 0h1m2 0h1m2 0h1m6 0h2m1 0h3m6 0h2m2 0h1m2 0h1m1 0h1m1 0h2m2 0h1m1 0h3m1 0h2m1 0h1m1 0h1m2 0h3m1 0h1m1 0h1m4 0h3m1 0h2m1 0h1m3 0h1m2 0h1m1 0h2m2 0h2m1 0h2m7 0h1m1 0h3m3 0h3m3 0h1m2 0h1m2 0h1M6 129.5h1m2 0h1m1 0h1m1 0h1m1 0h1m4 0h3m1 0h2m3 0h1m2 0h2m2 0h1m2 0h6m2 0h4m3 0h1m1 0h3m1 0h1m1 0h1m1 0h1m2 0h2m1 0h2m1 0h1m3 0h3m1 0h3m1 0h1m1 0h1m1 0h2m2 0h3m3 0h3m3 0h2m3 0h3m2 0h1m2 0h2m2 0h5m6 0h6m2 0h1m1 0h1m1 0h1m1 0h2m1 0h3m1 0h1m1 0h1m1 0h1m2 0h2m1 0h3m1 0h2m1 0h2m2 0h1m2 0h2M4 130.5h1m1 0h2m2 0h3m1 0h7m1 0h1m1 0h1m1 0h1m3 0h2m1 0h3m3 0h1m2 0h2m1 0h1m6 0h2m1 0h1m2 0h1m4 0h2m3 0h3m1 0h1m4 0h1m2 0h3m1 0h2m5 0h1m3 0h1m2 0h5m1 0h2m1 0h3m1 0h4m1 0h1m1 0h1m1 0h1m1 0h2m1 0h1m2 0h1m1 0h2m1 0h2m2 0h1m1 0h1m1 0h3m1 0h2m1 0h2m4 0h1m3 0h3m2 0h1m1 0h2m3 0h1m1 0h1m1 0h6M4 131.5h2m5 0h3m1 0h2m3 0h1m1 0h3m2 0h1m1 0h2m2 0h1m2 0h4m1 0h1m2 0h1m1 0h2m1 0h1m1 0h2m5 0h1m1 0h1m2 0h5m6 0h3m1 0h2m1 0h2m2 0h2m1 0h2m3 0h1m2 0h1m1 0h1m4 0h5m5 0h4m2 0h1m1 0h2m1 0h2m2 0h2m2 0h2m1 0h1m1 0h1m2 0h1m2 0h6m2 0h1m1 0h2m1 0h1m3 0h1m2 0h1m2 0h2m1 0h1m1 0h1m1 0h2m1 0h1m1 0h2M5 132.5h1m1 0h1m1 0h3m2 0h4m1 0h1m3 0h1m2 0h2m1 0h1m1 0h3m3 0h2m2 0h3m1 0h1m1 0h2m1 0h1m1 0h3m1 0h2m1 0h1m1 0h1m3 0h4m1 0h3m1 0h3m1 0h1m1 0h1m1 0h1m1 0h3m3 0h2m1 0h1m1 0h1m1 0h1m2 0h1m1 0h2m1 0h2m2 0h1m2 0h1m2 0h1m1 0h2m1 0h1m4 0h1m1 0h4m1 0h2m1 0h3m2 0h1m1 0h1m1 0h2m1 0h2m1 0h2m1 0h1m4 0h1m3 0h1m1 0h1m3 0h3m4 0h1m4 0h1M5 133.5h1m2 0h1m2 0h1m1 0h1m1 0h1m1 0h1m1 0h2m1 0h1m4 0h1m1 0h5m2 0h1m4 0h1m2 0h1m3 0h2m1 0h1m1 0h5m1 0h4m1 0h1m1 0h1m1 0h2m4 0h1m2 0h7m1 0h1m1 0h2m1 0h5m6 0h1m1 0h2m1 0h2m1 0h1m3 0h1m3 0h6m1 0h3m6 0h4m1 0h2m5 0h1m2 0h1m3 0h3m1 0h2m2 0h5m1 0h1m1 0h1m3 0h1m4 0h4M5 134.5h1m4 0h1m2 0h1m1 0h3m1 0h1m3 0h1m1 0h1m2 0h3m3 0h1m1 0h2m1 0h1m3 0h1m1 0h2m2 0h2m1 0h2m3 0h1m1 0h1m1 0h1m1 0h3m1 0h2m1 0h1m1 0h1m2 0h1m4 0h3m1 0h1m2 0h2m2 0h1m1 0h1m1 0h1m1 0h2m1 0h1m1 0h4m3 0h2m1 0h1m1 0h3m1 0h2m1 0h1m1 0h2m2 0h4m3 0h1m2 0h2m2 0h1m3 0h4m1 0h2m2 0h1m2 0h4m1 0h2m1 0h2m4 0h4m1 0h3M5 135.5h2m1 0h1m2 0h1m1 0h6m1 0h5m1 0h1m1 0h3m2 0h2m1 0h3m2 0h1m1 0h1m2 0h1m1 0h1m2 0h2m5 0h1m4 0h1m1 0h3m6 0h3m1 0h2m1 0h1m4 0h3m4 0h1m1 0h4m1 0h3m5 0h1m3 0h5m2 0h1m1 0h1m1 0h2m1 0h1m1 0h2m2 0h1m2 0h1m1 0h1m3 0h1m3 0h3m3 0h5m1 0h1m2 0h2m1 0h1m2 0h2m4 0h1m1 0h3m1 0h2M4 136.5h2m4 0h3m1 0h5m1 0h1m1 0h2m1 0h2m1 0h1m1 0h1m1 0h2m1 0h1m2 0h1m3 0h3m4 0h3m1 0h2m1 0h2m1 0h3m3 0h2m1 0h1m2 0h1m2 0h5m2 0h1m1 0h1m1 0h2m2 0h2m3 0h1m4 0h1m5 0h2m3 0h5m3 0h1m2 0h1m5 0h4m1 0h1m4 0h1m2 0h3m1 0h2m2 0h4m1 0h4m1 0h2m2 0h3m3 0h1m1 0h2m7 0h2M6 137.5h2m1 0h1m3 0h1m2 0h1m3 0h1m1 0h1m2 0h3m1 0h1m1 0h2m2 0h3m1 0h2m3 0h5m1 0h1m2 0h2m2 0h4m1 0h4m1 0h1m1 0h2m2 0h2m9 0h2m1 0h4m1 0h4m1 0h1m5 0h1m1 0h3m1 0h1m2 0h1m2 0h1m3 0h6m1 0h1m4 0h1m2 0h3m1 0h2m1 0h1m1 0h1m1 0h1m4 0h3m2 0h4m2 0h2m1 0h1m3 0h1m1 0h1m1 0h2m1 0h2m2 0h2M4 138.5h2m4 0h1m5 0h1m5 0h2m1 0h2m2 0h1m1 0h1m2 0h3m2 0h1m1 0h1m1 0h1m1 0h3m1 0h1m2 0h2m1 0h1m2 0h1m2 0h1m1 0h1m4 0h1m1 0h1m2 0h1m6 0h1m1 0h1m1 0h2m3 0h1m1 0h1m5 0h3m1 0h2m1 0h1m2 0h1m1 0h2m2 0h2m1 0h3m1 0h1m1 0h3m1 0h3m1 0h1m1 0h1m1 0h1m2 0h2m1 0h2m1 0h1m2 0h1m4 0h1m2 0h1m2 0h1m2 0h1m2 0h1m2 0h1m2 0h1m1 0h1m1 0h1m1 0h1m1 0h2M4 139.5h1m4 0h1m1 0h2m5 0h2m5 0h2m1 0h5m2 0h2m2 0h1m3 0h2m1 0h1m1 0h1m2 0h1m1 0h1m4 0h1m2 0h3m2 0h2m3 0h1m1 0h2m1 0h1m1 0h2m3 0h1m1 0h2m1 0h1m3 0h2m1 0h1m2 0h1m2 0h2m1 0h1m3 0h1m1 0h1m2 0h1m1 0h1m1 0h3m1 0h1m2 0h2m1 0h1m1 0h2m1 0h2m1 0h5m1 0h1m1 0h2m1 0h1m2 0h1m1 0h2m1 0h2m4 0h1m2 0h1m1 0h3m5 0h6M4 140.5h1m1 0h5m1 0h7m3 0h1m1 0h1m3 0h5m2 0h2m1 0h1m2 0h1m1 0h1m1 0h1m1 0h3m3 0h3m4 0h1m2 0h1m1 0h2m6 0h2m3 0h1m5 0h1m2 0h6m1 0h2m1 0h1m2 0h4m2 0h1m2 0h1m1 0h3m2 0h1m1 0h1m1 0h1m6 0h2m1 0h1m1 0h1m4 0h1m1 0h2m1 0h1m1 0h2m2 0h1m1 0h2m3 0h2m5 0h1m2 0h6m4 0h1m1 0h1m1 0h2M4 141.5h1m1 0h2m3 0h1m1 0h2m1 0h1m4 0h3m1 0h2m3 0h2m3 0h1m3 0h3m1 0h3m3 0h1m1 0h3m2 0h1m3 0h5m1 0h2m2 0h3m2 0h2m2 0h6m2 0h1m2 0h5m5 0h1m2 0h1m1 0h4m2 0h3m1 0h2m2 0h2m3 0h3m2 0h1m4 0h6m1 0h1m3 0h1m1 0h2m1 0h1m1 0h1m1 0h1m1 0h1m7 0h1m1 0h3m2 0h2m5 0h1m1 0h1M4 142.5h2m2 0h1m1 0h1m1 0h3m1 0h1m1 0h1m2 0h1m4 0h1m1 0h1m1 0h1m1 0h1m2 0h1m1 0h1m2 0h2m5 0h2m1 0h4m1 0h1m1 0h3m1 0h1m3 0h4m1 0h1m1 0h2m1 0h1m3 0h2m1 0h1m1 0h2m8 0h1m1 0h3m3 0h1m1 0h2m3 0h3m1 0h1m2 0h3m1 0h1m1 0h2m3 0h1m4 0h1m3 0h3m2 0h1m4 0h2m1 0h3m2 0h1m5 0h1m1 0h2m1 0h3m3 0h1m1 0h2m3 0h1M4 143.5h6m4 0h1m2 0h5m1 0h2m1 0h1m1 0h1m2 0h1m1 0h3m1 0h1m1 0h2m1 0h5m1 0h1m3 0h1m2 0h2m1 0h1m1 0h1m2 0h1m3 0h1m5 0h4m1 0h2m5 0h2m1 0h2m1 0h1m1 0h1m1 0h1m7 0h4m1 0h1m1 0h1m2 0h4m4 0h1m1 0h2m1 0h1m1 0h2m2 0h2m5 0h3m2 0h1m1 0h1m2 0h1m1 0h7m1 0h3m4 0h2m5 0h1m1 0h6M5 144.5h8m1 0h5m4 0h3m1 0h1m4 0h8m2 0h2m3 0h4m1 0h1m1 0h1m1 0h2m2 0h6m1 0h2m4 0h1m1 0h2m1 0h2m4 0h1m2 0h9m1 0h1m1 0h2m2 0h1m1 0h1m5 0h2m1 0h8m2 0h1m3 0h6m5 0h4m1 0h5m1 0h2m1 0h1m4 0h3m1 0h3m5 0h7M5 145.5h1m2 0h1m3 0h3m1 0h1m1 0h3m3 0h1m1 0h3m2 0h2m3 0h7m2 0h5m5 0h2m3 0h1m3 0h4m2 0h1m5 0h2m3 0h5m1 0h2m3 0h1m1 0h2m4 0h2m4 0h2m1 0h1m2 0h2m1 0h2m3 0h1m1 0h3m1 0h2m1 0h1m3 0h2m1 0h4m3 0h2m3 0h2m3 0h1m1 0h2m1 0h1m2 0h5m2 0h1m1 0h3m3 0h3m1 0h1M7 146.5h2m1 0h1m1 0h1m1 0h1m5 0h1m1 0h3m5 0h3m1 0h1m1 0h2m1 0h3m3 0h3m1 0h1m1 0h2m4 0h1m2 0h1m1 0h1m1 0h1m3 0h1m1 0h1m1 0h2m5 0h2m1 0h1m1 0h2m1 0h2m1 0h1m1 0h2m2 0h3m3 0h2m4 0h4m2 0h3m1 0h1m1 0h1m4 0h1m3 0h1m6 0h2m3 0h1m2 0h1m1 0h1m1 0h2m4 0h1m4 0h3m1 0h1m5 0h2m1 0h1m1 0h1m1 0h1m1 0h1M6 147.5h1m1 0h1m3 0h1m2 0h1m1 0h1m1 0h1m1 0h1m2 0h5m2 0h2m3 0h2m1 0h2m5 0h4m3 0h1m1 0h2m1 0h3m3 0h1m1 0h2m8 0h1m1 0h1m6 0h4m3 0h1m3 0h1m1 0h2m1 0h5m2 0h2m4 0h1m1 0h1m3 0h1m1 0h1m2 0h1m2 0h2m1 0h2m2 0h2m2 0h2m1 0h1m1 0h1m3 0h1m2 0h1m1 0h2m1 0h1m2 0h2m3 0h4m4 0h1m3 0h4M4 148.5h1m1 0h7m1 0h3m2 0h3m1 0h4m1 0h1m2 0h9m3 0h1m1 0h1m4 0h2m2 0h2m1 0h1m1 0h12m3 0h3m1 0h2m1 0h1m2 0h1m2 0h7m3 0h1m1 0h3m1 0h1m2 0h1m3 0h3m2 0h7m3 0h1m2 0h3m1 0h2m1 0h1m1 0h1m2 0h9m1 0h1m2 0h2m3 0h3m1 0h4m2 0h1m1 0h7m3 0h1M7 149.5h1m7 0h2m4 0h1m2 0h1m3 0h1m2 0h3m1 0h1m4 0h2m2 0h3m1 0h1m1 0h1m1 0h2m2 0h1m1 0h1m1 0h1m4 0h1m2 0h6m1 0h3m2 0h1m2 0h2m1 0h1m3 0h1m1 0h4m4 0h2m1 0h1m1 0h5m2 0h2m1 0h1m2 0h5m1 0h3m6 0h2m1 0h2m1 0h1m2 0h1m1 0h1m2 0h3m1 0h3m2 0h1m1 0h1m2 0h1m1 0h3m1 0h2m2 0h2m4 0h1m1 0h2M4 150.5h2m2 0h4m1 0h4m3 0h8m2 0h1m1 0h1m2 0h2m1 0h1m1 0h3m2 0h3m1 0h1m1 0h5m3 0h1m2 0h1m1 0h2m4 0h1m1 0h1m2 0h2m2 0h3m2 0h1m3 0h2m2 0h1m3 0h3m3 0h3m1 0h1m2 0h5m4 0h1m3 0h3m5 0h2m1 0h4m2 0h1m4 0h2m2 0h4m5 0h1m2 0h1m1 0h2m1 0h2m2 0h1m5 0h1M8 151.5h1m3 0h1m1 0h2m1 0h3m1 0h1m2 0h1m2 0h1m1 0h1m2 0h4m4 0h4m2 0h1m1 0h1m2 0h2m3 0h1m1 0h4m1 0h1m1 0h1m5 0h1m2 0h5m3 0h1m5 0h2m3 0h2m4 0h1m1 0h5m2 0h1m1 0h1m2 0h1m1 0h7m2 0h2m1 0h1m1 0h1m2 0h1m4 0h1m2 0h1m1 0h5m2 0h1m4 0h1m1 0h2m1 0h1m1 0h1m1 0h1m1 0h2m1 0h2m1 0h1m2 0h1m1 0h3m1 0h1M4 152.5h3m1 0h1m1 0h2m3 0h1m3 0h1m3 0h3m3 0h1m5 0h1m1 0h6m4 0h2m5 0h2m3 0h2m3 0h3m2 0h1m4 0h1m2 0h2m2 0h1m1 0h1m1 0h3m3 0h1m1 0h3m3 0h2m1 0h1m3 0h2m1 0h2m1 0h2m1 0h3m1 0h1m3 0h1m4 0h3m1 0h2m3 0h1m2 0h3m1 0h1m1 0h1m3 0h1m7 0h1m1 0h1m1 0h1m2 0h1m1 0h4m2 0h2m1 0h1M5 153.5h4m7 0h1m1 0h1m2 0h1m1 0h1m1 0h4m1 0h2m3 0h3m2 0h1m3 0h1m1 0h6m1 0h6m1 0h2m3 0h1m4 0h2m5 0h1m2 0h3m1 0h1m1 0h2m1 0h2m1 0h3m2 0h1m2 0h2m1 0h1m1 0h3m7 0h1m5 0h1m2 0h2m1 0h1m1 0h2m2 0h2m1 0h2m1 0h1m4 0h1m3 0h1m2 0h4m1 0h1m1 0h2m1 0h4m2 0h2m3 0h1m2 0h1m3 0h2M4 154.5h2m1 0h1m1 0h3m7 0h1m1 0h1m1 0h1m3 0h1m3 0h2m1 0h1m1 0h2m2 0h4m1 0h3m1 0h1m1 0h2m1 0h1m2 0h1m1 0h1m4 0h2m1 0h4m1 0h1m7 0h1m1 0h1m1 0h2m4 0h4m1 0h2m1 0h2m2 0h3m5 0h1m1 0h1m1 0h1m1 0h2m4 0h1m6 0h2m2 0h1m2 0h4m1 0h2m4 0h5m2 0h1m2 0h1m2 0h1m5 0h1m2 0h2m1 0h2m1 0h4M4 155.5h4m1 0h1m4 0h5m1 0h1m2 0h1m1 0h2m1 0h1m1 0h1m4 0h2m2 0h2m1 0h3m1 0h1m2 0h1m1 0h2m4 0h2m1 0h1m1 0h3m2 0h1m1 0h1m3 0h1m2 0h4m3 0h1m1 0h5m3 0h1m2 0h2m3 0h1m1 0h2m3 0h3m3 0h2m1 0h3m1 0h1m3 0h4m2 0h1m2 0h2m4 0h1m3 0h1m1 0h2m3 0h1m2 0h2m5 0h1m1 0h2m1 0h4m1 0h2m1 0h2m2 0h2M4 156.5h1m1 0h1m3 0h1m7 0h1m2 0h2m1 0h1m1 0h6m1 0h4m1 0h1m1 0h1m2 0h1m3 0h2m1 0h1m1 0h3m1 0h1m2 0h1m1 0h1m4 0h3m1 0h1m2 0h1m1 0h3m3 0h1m4 0h2m3 0h2m1 0h2m4 0h4m2 0h2m4 0h1m2 0h1m9 0h1m2 0h5m2 0h1m1 0h1m3 0h2m1 0h1m1 0h1m1 0h1m1 0h1m6 0h1m1 0h1m1 0h1m3 0h1m3 0h2m1 0h1m1 0h1m1 0h1m2 0h1M4 157.5h2m1 0h3m3 0h1m4 0h3m1 0h1m2 0h1m2 0h2m2 0h1m2 0h12m1 0h3m2 0h2m1 0h1m1 0h1m4 0h1m1 0h1m1 0h3m4 0h1m2 0h1m3 0h4m1 0h5m1 0h4m1 0h1m1 0h3m3 0h2m1 0h1m4 0h1m2 0h2m1 0h1m1 0h1m2 0h1m1 0h2m6 0h4m6 0h2m1 0h2m2 0h4m1 0h1m5 0h2m2 0h1m1 0h1m1 0h1m1 0h1m2 0h1m2 0h3M4 158.5h2m4 0h1m2 0h1m1 0h6m2 0h3m2 0h1m1 0h1m1 0h2m1 0h1m1 0h1m2 0h1m4 0h1m4 0h1m1 0h1m2 0h1m1 0h2m2 0h1m2 0h2m1 0h2m1 0h1m1 0h1m7 0h4m1 0h1m3 0h1m2 0h3m1 0h4m2 0h3m4 0h3m2 0h1m2 0h2m2 0h1m1 0h1m2 0h2m4 0h1m1 0h3m11 0h2m4 0h1m3 0h1m1 0h1m1 0h1m2 0h2m5 0h1m3 0h2m1 0h1M4 159.5h1m3 0h2m1 0h1m3 0h8m1 0h1m1 0h2m2 0h1m3 0h2m2 0h2m1 0h3m1 0h2m5 0h2m1 0h1m1 0h5m1 0h2m1 0h2m5 0h2m1 0h1m1 0h1m2 0h2m3 0h1m3 0h2m1 0h1m1 0h4m4 0h3m2 0h1m1 0h2m1 0h4m1 0h3m1 0h1m2 0h1m3 0h1m4 0h1m2 0h2m1 0h1m1 0h6m5 0h2m2 0h1m1 0h1m3 0h1m2 0h2m1 0h1m1 0h2m1 0h5M7 160.5h1m2 0h1m2 0h4m2 0h1m3 0h2m1 0h1m1 0h1m1 0h1m2 0h2m1 0h2m1 0h2m1 0h1m1 0h2m1 0h1m1 0h1m1 0h1m4 0h1m2 0h1m1 0h1m1 0h1m1 0h1m1 0h1m1 0h2m1 0h1m2 0h3m2 0h2m1 0h1m1 0h1m2 0h2m3 0h2m2 0h1m1 0h3m1 0h1m3 0h1m1 0h1m2 0h3m1 0h1m2 0h1m1 0h1m5 0h2m1 0h3m3 0h1m4 0h2m1 0h1m5 0h3m2 0h1m1 0h4m1 0h1m1 0h1m3 0h1m1 0h1m3 0h4M6 161.5h2m4 0h1m1 0h1m1 0h2m2 0h2m1 0h1m1 0h1m2 0h1m3 0h2m1 0h2m1 0h2m1 0h1m1 0h3m2 0h1m1 0h1m2 0h1m1 0h1m4 0h1m2 0h1m1 0h1m1 0h4m2 0h1m3 0h1m2 0h3m2 0h4m3 0h3m1 0h2m1 0h2m2 0h5m1 0h1m1 0h3m1 0h2m2 0h4m1 0h1m1 0h1m6 0h4m1 0h1m2 0h2m1 0h2m2 0h2m1 0h3m2 0h1m5 0h1m1 0h1m3 0h2m1 0h3m1 0h1M4 162.5h5m1 0h4m1 0h1m2 0h1m3 0h2m1 0h7m1 0h2m1 0h4m3 0h1m2 0h1m2 0h2m1 0h1m4 0h1m3 0h1m2 0h1m3 0h1m1 0h1m1 0h1m3 0h2m2 0h1m1 0h1m1 0h1m4 0h1m1 0h2m1 0h2m1 0h3m1 0h3m2 0h1m3 0h3m1 0h1m1 0h7m1 0h2m1 0h5m1 0h1m2 0h1m1 0h4m1 0h1m6 0h2m2 0h1m2 0h5m1 0h1m2 0h2m1 0h1m8 0h2M4 163.5h2m1 0h2m3 0h1m4 0h2m1 0h1m1 0h4m2 0h2m1 0h1m1 0h2m3 0h1m4 0h5m3 0h1m3 0h1m1 0h2m2 0h2m1 0h1m1 0h1m7 0h2m1 0h1m1 0h1m1 0h1m1 0h1m1 0h5m1 0h1m1 0h2m1 0h1m1 0h2m1 0h9m3 0h1m1 0h2m1 0h1m5 0h1m2 0h1m1 0h2m3 0h2m6 0h6m1 0h1m4 0h1m2 0h1m1 0h2m2 0h1m1 0h3m1 0h1m1 0h1m1 0h2m1 0h1m1 0h1M4 164.5h3m2 0h2m2 0h1m3 0h3m2 0h1m1 0h1m1 0h1m1 0h7m1 0h1m1 0h1m2 0h2m1 0h1m2 0h6m1 0h2m4 0h4m1 0h3m1 0h1m2 0h3m3 0h1m5 0h1m4 0h1m4 0h1m2 0h1m1 0h2m5 0h1m5 0h2m1 0h1m3 0h1m1 0h1m5 0h2m1 0h3m2 0h1m4 0h3m1 0h1m4 0h5m2 0h4m2 0h1m1 0h1m1 0h5m1 0h1m3 0h1m2 0h2M11 165.5h4m1 0h2m2 0h2m1 0h5m3 0h1m1 0h1m1 0h1m4 0h1m1 0h1m1 0h1m1 0h1m1 0h5m3 0h1m1 0h1m2 0h1m1 0h1m1 0h2m1 0h1m1 0h1m1 0h2m1 0h1m1 0h3m1 0h3m2 0h3m1 0h3m1 0h2m3 0h1m4 0h1m1 0h4m2 0h1m2 0h1m5 0h2m1 0h1m1 0h2m5 0h2m1 0h1m1 0h2m8 0h3m1 0h2m1 0h3m5 0h3m1 0h3m1 0h3m1 0h1m4 0h1M4 166.5h4m2 0h1m1 0h2m2 0h2m2 0h1m4 0h1m1 0h6m1 0h1m1 0h4m3 0h1m1 0h2m2 0h1m1 0h2m1 0h2m1 0h1m2 0h6m3 0h2m1 0h1m4 0h1m1 0h1m2 0h1m1 0h2m3 0h2m1 0h1m3 0h2m1 0h1m1 0h2m5 0h1m1 0h2m2 0h1m2 0h4m1 0h4m1 0h2m1 0h2m3 0h1m1 0h3m1 0h4m3 0h1m2 0h1m5 0h2m1 0h2m1 0h1m2 0h1m2 0h1m8 0h2M4 167.5h1m1 0h3m2 0h1m9 0h8m3 0h5m1 0h3m1 0h2m2 0h1m1 0h2m6 0h1m1 0h1m3 0h1m2 0h3m7 0h4m2 0h1m3 0h2m3 0h2m7 0h1m1 0h1m2 0h1m3 0h1m5 0h5m1 0h2m4 0h2m1 0h3m1 0h1m3 0h1m1 0h1m1 0h4m1 0h1m7 0h2m1 0h1m5 0h1m2 0h1m2 0h1m1 0h1m1 0h3m2 0h2M4 168.5h1m5 0h1m2 0h3m2 0h2m2 0h2m3 0h2m2 0h5m2 0h1m2 0h1m1 0h4m2 0h2m3 0h3m2 0h2m2 0h1m1 0h2m2 0h3m2 0h1m4 0h1m1 0h5m5 0h1m1 0h1m1 0h1m4 0h1m1 0h2m1 0h3m4 0h2m1 0h3m9 0h2m1 0h1m1 0h2m3 0h1m2 0h3m1 0h3m3 0h2m1 0h1m1 0h1m2 0h1m1 0h3m4 0h4m1 0h2m1 0h2m3 0h1M4 169.5h1m6 0h1m1 0h1m1 0h1m1 0h1m2 0h1m2 0h1m1 0h2m3 0h3m2 0h2m1 0h1m1 0h2m1 0h2m1 0h1m1 0h1m1 0h1m2 0h4m1 0h1m8 0h1m3 0h2m3 0h3m1 0h2m3 0h4m1 0h1m1 0h1m1 0h1m5 0h1m5 0h1m5 0h1m2 0h1m1 0h1m1 0h1m1 0h2m1 0h1m1 0h2m5 0h2m1 0h2m6 0h1m2 0h2m1 0h3m2 0h1m6 0h1m1 0h3m1 0h2m1 0h1m3 0h1m1 0h1m2 0h1M4 170.5h3m2 0h2m2 0h2m5 0h3m1 0h8m1 0h1m3 0h7m1 0h1m3 0h1m2 0h1m1 0h1m2 0h2m2 0h1m2 0h2m1 0h4m1 0h1m3 0h1m3 0h6m3 0h5m2 0h1m1 0h2m2 0h1m5 0h2m2 0h1m1 0h1m2 0h2m3 0h4m1 0h5m2 0h7m1 0h1m2 0h1m1 0h3m1 0h1m1 0h1m1 0h1m2 0h1m1 0h1m4 0h2m4 0h3m2 0h1m2 0h1M7 171.5h1m3 0h3m3 0h3m1 0h2m1 0h1m1 0h1m1 0h1m2 0h6m1 0h2m2 0h1m3 0h2m5 0h3m2 0h3m1 0h1m1 0h2m7 0h6m4 0h1m1 0h2m3 0h2m4 0h2m3 0h2m1 0h1m2 0h4m4 0h4m1 0h2m1 0h2m3 0h1m1 0h1m2 0h1m1 0h2m3 0h1m1 0h2m1 0h4m2 0h1m1 0h2m2 0h1m1 0h2m2 0h1m2 0h2m1 0h1m1 0h1m3 0h1m1 0h4M5 172.5h1m1 0h1m1 0h2m3 0h2m2 0h3m2 0h2m2 0h1m1 0h1m2 0h8m1 0h1m1 0h3m1 0h1m11 0h8m2 0h3m4 0h1m2 0h1m1 0h1m1 0h1m1 0h1m2 0h6m1 0h1m3 0h2m4 0h3m2 0h4m1 0h6m6 0h2m1 0h2m5 0h1m1 0h2m1 0h1m1 0h5m1 0h2m1 0h1m1 0h4m3 0h4m2 0h1m1 0h1m1 0h6m1 0h2M12 173.5h1m2 0h2m2 0h2m1 0h4m1 0h1m4 0h1m3 0h2m2 0h1m1 0h3m1 0h1m1 0h1m1 0h2m4 0h2m2 0h1m3 0h2m1 0h2m2 0h1m1 0h1m4 0h1m1 0h1m2 0h2m2 0h2m3 0h3m1 0h2m1 0h2m5 0h4m1 0h2m3 0h1m3 0h3m1 0h1m1 0h1m4 0h1m4 0h1m1 0h2m3 0h2m3 0h2m2 0h1m1 0h1m4 0h1m1 0h1m1 0h2m3 0h1m1 0h1m1 0h1m3 0h2m1 0h2M4 174.5h7m1 0h1m1 0h2m1 0h7m3 0h6m1 0h1m1 0h3m1 0h1m1 0h1m2 0h2m2 0h1m1 0h4m2 0h2m1 0h1m1 0h1m1 0h2m1 0h6m2 0h1m4 0h1m1 0h1m1 0h2m1 0h2m1 0h1m1 0h1m2 0h2m2 0h1m1 0h4m2 0h2m1 0h2m2 0h3m1 0h1m1 0h1m3 0h4m2 0h2m3 0h3m2 0h2m2 0h1m1 0h1m1 0h2m1 0h1m3 0h1m4 0h2m1 0h1m2 0h2m1 0h1m1 0h2m1 0h1m1 0h1m1 0h1M4 175.5h1m5 0h1m3 0h1m3 0h3m2 0h3m1 0h2m3 0h1m3 0h1m2 0h1m1 0h3m1 0h3m5 0h1m1 0h1m2 0h3m3 0h1m2 0h1m1 0h2m3 0h1m1 0h3m2 0h1m4 0h1m1 0h1m3 0h1m1 0h1m1 0h1m1 0h1m2 0h2m1 0h2m2 0h1m4 0h1m2 0h1m3 0h1m7 0h2m1 0h9m4 0h1m3 0h1m2 0h1m2 0h1m2 0h1m5 0h5m3 0h2m3 0h1m1 0h2M4 176.5h1m1 0h3m1 0h1m1 0h1m1 0h1m2 0h1m1 0h1m2 0h3m1 0h1m2 0h9m1 0h3m2 0h1m2 0h5m1 0h5m1 0h8m2 0h3m1 0h2m2 0h1m2 0h2m2 0h1m3 0h5m1 0h2m1 0h1m1 0h3m7 0h1m1 0h3m2 0h6m1 0h1m1 0h1m2 0h1m1 0h2m7 0h1m1 0h8m1 0h2m1 0h1m1 0h1m1 0h4m1 0h2m3 0h2m1 0h8m1 0h2M4 177.5h1m1 0h3m1 0h1m1 0h2m1 0h1m5 0h1m2 0h1m3 0h3m1 0h2m2 0h1m1 0h2m3 0h2m1 0h1m1 0h1m6 0h2m3 0h4m2 0h3m3 0h2m2 0h2m2 0h1m1 0h3m2 0h2m5 0h1m1 0h1m6 0h3m1 0h1m1 0h1m2 0h1m9 0h1m1 0h2m5 0h1m1 0h2m1 0h3m2 0h1m2 0h2m3 0h1m2 0h1m1 0h1m1 0h1m1 0h1m3 0h3m2 0h1m2 0h1m2 0h4M4 178.5h1m1 0h3m1 0h1m1 0h1m1 0h1m7 0h4m2 0h3m1 0h1m1 0h1m1 0h2m1 0h5m1 0h1m3 0h2m1 0h2m1 0h1m1 0h2m1 0h2m1 0h1m1 0h1m1 0h1m2 0h4m5 0h1m1 0h2m1 0h2m2 0h5m2 0h1m1 0h3m1 0h2m3 0h1m1 0h3m1 0h4m3 0h2m1 0h1m1 0h2m3 0h2m1 0h5m2 0h1m1 0h1m1 0h1m2 0h3m2 0h1m2 0h1m2 0h2m1 0h1m5 0h2m1 0h5m1 0h1m2 0h1M4 179.5h1m5 0h1m1 0h1m1 0h1m2 0h1m3 0h1m1 0h2m2 0h1m1 0h1m2 0h6m1 0h3m1 0h1m2 0h1m2 0h1m8 0h1m2 0h2m1 0h1m1 0h1m7 0h3m1 0h1m2 0h1m1 0h1m2 0h2m1 0h2m1 0h1m1 0h1m1 0h2m3 0h1m1 0h2m3 0h5m3 0h1m1 0h5m2 0h2m2 0h2m1 0h1m4 0h2m4 0h1m4 0h2m1 0h5m3 0h2m3 0h3m5 0h2m1 0h2m1 0h1M4 180.5h7m1 0h1m4 0h1m1 0h1m1 0h1m1 0h4m2 0h2m1 0h1m2 0h2m1 0h1m1 0h2m1 0h2m2 0h1m1 0h3m2 0h1m4 0h1m1 0h7m1 0h1m2 0h7m2 0h1m4 0h3m2 0h1m1 0h3m2 0h1m1 0h2m1 0h1m1 0h2m5 0h2m2 0h1m1 0h1m1 0h1m6 0h2m1 0h3m4 0h1m1 0h6m1 0h1m1 0h1m2 0h1m4 0h1m1 0h1m3 0h1m4 0h5m1 0h1m2 0h2m1 0h1"/></svg>
