<?xml version="1.0" encoding="utf-8"?><!DOCTYPE svg PUBLIC "-//W3C//DTD SVG 1.1//EN" "http://www.w3.org/Graphics/SVG/1.1/DTD/svg11.dtd"><svg xmlns="http://www.w3.org/2000/svg" viewBox="0 0 153 153" shape-rendering="crispEdges"><path fill="#ffffff" d="M0 0h153v153H0z"/><path stroke="#000000" d="M4 4.5h7m4 0h2m4 0h3m1 0h1m1 0h4m2 0h2m1 0h1m3 0h1m1 0h2m5 0h2m1 0h3m3 0h2m1 0h1m3 0h1m3 0h4m1 0h4m2 0h1m1 0h2m1 0h6m2 0h1m2 0h1m4 0h1m1 0h1m2 0h1m1 0h1m1 0h2m1 0h1m1 0h1m2 0h5m1 0h1m6 0h2m3 0h3m1 0h1m1 0h7M4 5.5h1m5 0h1m1 0h1m1 0h1m2 0h4m3 0h3m2 0h1m1 0h1m1 0h2m4 0h1m2 0h3m1 0h1m1 0h1m2 0h2m3 0h2m3 0h3m3 0h1m1 0h1m4 0h1m3 0h2m1 0h2m1 0h1m5 0h2m1 0h2m2 0h1m1 0h4m4 0h1m1 0h2m1 0h3m3 0h7m3 0h1m1 0h2m1 0h5m1 0h1m2 0h1m5 0h1M4 6.5h1m1 0h3m1 0h1m4 0h1m1 0h1m1 0h1m1 0h2m5 0h3m2 0h1m1 0h1m2 0h2m1 0h3m5 0h7m1 0h5m1 0h2m2 0h4m2 0h1m1 0h1m3 0h2m1 0h5m4 0h1m1 0h3m7 0h1m2 0h1m1 0h2m1 0h2m2 0h4m6 0h1m1 0h3m2 0h1m4 0h4m1 0h1m1 0h3m1 0h1M4 7.5h1m1 0h3m1 0h1m1 0h3m1 0h2m1 0h1m1 0h4m3 0h3m2 0h3m1 0h1m2 0h1m3 0h1m1 0h1m1 0h2m2 0h2m1 0h2m1 0h1m1 0h3m1 0h4m3 0h1m2 0h3m1 0h1m2 0h2m3 0h4m2 0h3m2 0h6m4 0h4m1 0h1m1 0h1m2 0h1m1 0h2m3 0h2m2 0h1m4 0h1m1 0h1m4 0h1m1 0h1m1 0h3m1 0h1M4 8.5h1m1 0h3m1 0h1m7 0h3m3 0h1m2 0h4m1 0h1m3 0h5m1 0h2m1 0h1m1 0h1m1 0h3m1 0h2m2 0h1m4 0h5m2 0h3m1 0h1m1 0h1m1 0h1m2 0h1m2 0h1m1 0h9m1 0h2m1 0h1m3 0h1m1 0h3m1 0h2m4 0h6m4 0h3m1 0h7m7 0h1m1 0h3m1 0h1M4 9.5h1m5 0h1m1 0h4m1 0h1m3 0h1m4 0h2m2 0h1m3 0h1m1 0h1m3 0h1m1 0h1m3 0h2m2 0h1m2 0h2m2 0h2m2 0h2m3 0h2m5 0h2m4 0h1m5 0h2m1 0h1m3 0h1m1 0h1m5 0h1m4 0h3m1 0h2m1 0h3m3 0h2m1 0h1m1 0h1m6 0h2m1 0h1m1 0h2m3 0h1m1 0h1m5 0h1M4 10.5h7m1 0h1m1 0h1m1 0h1m1 0h1m1 0h1m1 0h1m1 0h1m1 0h1m1 0h1m1 0h1m1 0h1m1 0h1m1 0h1m1 0h1m1 0h1m1 0h1m1 0h1m1 0h1m1 0h1m1 0h1m1 0h1m1 0h1m1 0h1m1 0h1m1 0h1m1 0h1m1 0h1m1 0h1m1 0h1m1 0h1m1 0h1m1 0h1m1 0h1m1 0h1m1 0h1m1 0h1m1 0h1m1 0h1m1 0h1m1 0h1m1 0h1m1 0h1m1 0h1m1 0h1m1 0h1m1 0h1m1 0h1m1 0h1m1 0h1m1 0h1m1 0h1m1 0h1m1 0h1m1 0h1m1 0h1m1 0h1m1 0h1m1 0h1m1 0h1m1 0h1m1 0h1m1 0h1m1 0h1m1 0h1m1 0h1m1 0h7M14 11.5h4m2 0h1m2 0h2m4 0h2m5 0h1m3 0h1m2 0h1m3 0h1m1 0h3m2 0h1m3 0h2m2 0h1m3 0h3m1 0h5m3 0h2m2 0h4m2 0h1m3 0h6m1 0h1m3 0h1m1 0h2m2 0h1m1 0h1m2 0h1m3 0h1m3 0h1m1 0h4m1 0h2m1 0h1m1 0h1m1 0h2m2 0h1M4 12.5h5m1 0h5m1 0h4m1 0h1m1 0h1m1 0h1m1 0h1m2 0h2m1 0h1m2 0h5m2 0h6m3 0h2m1 0h4m1 0h1m1 0h6m1 0h1m1 0h2m1 0h2m1 0h1m3 0h3m4 0h5m4 0h2m1 0h1m1 0h1m1 0h2m1 0h1m1 0h10m1 0h2m1 0h1m1 0h1m1 0h1m7 0h7m1 0h1m1 0h1m1 0h1M4 13.5h1m1 0h2m6 0h1m2 0h2m1 0h1m4 0h5m1 0h3m1 0h3m2 0h1m1 0h2m3 0h1m2 0h3m1 0h1m4 0h1m1 0h2m2 0h1m2 0h6m1 0h2m3 0h1m1 0h1m1 0h2m2 0h2m1 0h1m1 0h1m2 0h4m3 0h3m2 0h1m4 0h4m4 0h6m3 0h1m1 0h1m12 0h2M5 14.5h1m2 0h3m3 0h1m2 0h4m1 0h1m2 0h1m1 0h1m3 0h6m1 0h1m1 0h2m4 0h1m3 0h2m1 0h3m1 0h1m3 0h3m1 0h4m1 0h1m5 0h1m1 0h2m5 0h7m1 0h2m3 0h3m4 0h1m3 0h4m2 0h2m1 0h4m1 0h1m3 0h2m1 0h4m1 0h2m3 0h1m2 0h1m4 0h1M4 15.5h2m1 0h1m1 0h1m1 0h4m4 0h2m1 0h1m2 0h3m1 0h2m1 0h1m1 0h1m1 0h1m1 0h1m3 0h1m4 0h6m1 0h1m1 0h1m2 0h6m2 0h2m3 0h5m1 0h1m1 0h1m1 0h1m1 0h3m3 0h1m2 0h3m3 0h1m3 0h6m3 0h3m2 0h1m2 0h1m4 0h6m1 0h1m1 0h1m1 0h3m1 0h1m1 0h1m1 0h1m2 0h1M8 16.5h3m1 0h1m1 0h1m3 0h5m1 0h1m3 0h1m1 0h1m6 0h1m2 0h1m3 0h1m1 0h1m1 0h1m4 0h2m1 0h3m1 0h3m1 0h2m3 0h2m1 0h1m1 0h1m1 0h1m1 0h4m2 0h1m3 0h2m1 0h3m3 0h2m3 0h1m1 0h1m3 0h1m1 0h1m5 0h2m1 0h1m3 0h1m5 0h3m4 0h2m1 0h2m1 0h5m1 0h1M4 17.5h2m2 0h1m3 0h2m2 0h1m2 0h2m4 0h2m3 0h1m2 0h3m3 0h1m2 0h2m1 0h1m1 0h1m1 0h2m1 0h1m2 0h1m3 0h1m2 0h1m3 0h3m3 0h1m1 0h1m2 0h2m2 0h4m3 0h1m1 0h1m2 0h4m4 0h2m1 0h1m1 0h1m1 0h1m2 0h2m1 0h3m4 0h5m3 0h1m3 0h3m3 0h2m4 0h1M5 18.5h1m1 0h7m4 0h4m1 0h1m2 0h1m2 0h4m1 0h7m1 0h5m1 0h3m2 0h1m1 0h1m3 0h1m1 0h1m1 0h1m1 0h2m6 0h2m1 0h1m1 0h2m5 0h1m2 0h1m1 0h2m2 0h2m2 0h1m1 0h3m3 0h1m2 0h1m1 0h2m6 0h5m6 0h2m1 0h1m1 0h1m2 0h3m1 0h1m5 0h1M5 19.5h1m2 0h2m9 0h3m2 0h1m1 0h1m2 0h1m4 0h1m2 0h3m3 0h1m1 0h1m1 0h2m2 0h1m4 0h3m1 0h2m1 0h1m4 0h1m3 0h3m7 0h6m3 0h1m1 0h2m2 0h1m2 0h1m4 0h3m1 0h1m2 0h3m2 0h1m2 0h1m1 0h1m1 0h2m1 0h3m4 0h1m1 0h2m3 0h4M7 20.5h6m2 0h2m2 0h2m5 0h4m4 0h4m2 0h1m2 0h2m1 0h1m1 0h2m6 0h1m1 0h1m1 0h3m2 0h1m3 0h3m2 0h4m1 0h1m1 0h4m1 0h1m4 0h3m1 0h8m2 0h1m2 0h3m2 0h2m2 0h2m1 0h2m1 0h1m3 0h1m1 0h4m4 0h1m1 0h2m1 0h1m1 0h4M6 21.5h1m2 0h1m2 0h1m1 0h1m1 0h1m1 0h2m5 0h4m1 0h2m1 0h2m4 0h5m3 0h1m2 0h3m1 0h2m5 0h2m3 0h1m1 0h1m1 0h2m1 0h1m1 0h2m1 0h1m1 0h1m2 0h1m1 0h1m2 0h3m2 0h2m1 0h1m5 0h4m1 0h2m4 0h4m1 0h3m2 0h3m1 0h1m2 0h2m1 0h1m5 0h1m1 0h1m3 0h1M4 22.5h2m1 0h10m2 0h2m5 0h1m3 0h2m2 0h2m1 0h5m1 0h1m1 0h1m1 0h1m1 0h1m1 0h1m1 0h1m3 0h1m1 0h4m1 0h1m2 0h2m4 0h2m3 0h2m4 0h1m2 0h2m2 0h1m1 0h3m3 0h3m5 0h1m1 0h1m2 0h1m2 0h1m2 0h7m1 0h1m4 0h3m1 0h1m5 0h1m6 0h1M4 23.5h3m1 0h1m3 0h2m1 0h4m6 0h4m1 0h2m2 0h1m2 0h1m1 0h1m6 0h2m8 0h3m1 0h4m2 0h3m1 0h1m2 0h1m2 0h1m1 0h1m1 0h1m1 0h1m2 0h1m1 0h1m5 0h2m5 0h1m4 0h2m4 0h4m2 0h1m2 0h1m3 0h1m1 0h2m1 0h1m2 0h1m1 0h1m1 0h2m2 0h4M7 24.5h2m1 0h2m1 0h2m1 0h2m1 0h1m4 0h1m1 0h3m2 0h1m2 0h1m4 0h3m1 0h2m1 0h1m2 0h1m1 0h1m3 0h4m1 0h1m3 0h2m1 0h4m1 0h1m2 0h3m2 0h2m1 0h1m4 0h1m3 0h1m2 0h2m1 0h2m2 0h1m2 0h6m1 0h1m1 0h4m1 0h1m1 0h1m2 0h1m1 0h4m3 0h1m2 0h2m1 0h10M4 25.5h1m1 0h4m1 0h1m6 0h1m1 0h1m2 0h2m2 0h2m1 0h3m1 0h1m1 0h2m1 0h1m2 0h2m1 0h1m1 0h2m1 0h3m1 0h1m4 0h1m8 0h2m1 0h1m2 0h1m2 0h1m1 0h9m2 0h1m5 0h1m1 0h2m1 0h2m1 0h1m3 0h2m4 0h8m1 0h1m3 0h2m1 0h3m2 0h6m4 0h2M4 26.5h1m1 0h1m3 0h2m4 0h5m4 0h1m4 0h1m4 0h4m1 0h2m1 0h1m1 0h1m2 0h1m3 0h4m2 0h2m2 0h3m2 0h3m2 0h1m1 0h1m1 0h5m3 0h4m3 0h1m1 0h1m1 0h1m1 0h1m1 0h2m4 0h2m2 0h2m1 0h1m2 0h2m1 0h7m6 0h1m1 0h1m1 0h2m3 0h2m1 0h1m1 0h1m1 0h2M6 27.5h3m6 0h1m1 0h3m1 0h1m3 0h2m1 0h2m2 0h1m1 0h1m2 0h1m3 0h1m3 0h4m2 0h2m2 0h7m1 0h2m1 0h1m1 0h1m1 0h1m1 0h2m2 0h1m5 0h2m1 0h1m1 0h2m1 0h1m1 0h5m2 0h2m2 0h1m2 0h2m6 0h4m2 0h1m3 0h4m1 0h1m2 0h1m3 0h3m1 0h1m3 0h2m2 0h1M5 28.5h2m2 0h2m1 0h1m9 0h2m3 0h1m1 0h1m2 0h1m1 0h1m1 0h1m1 0h4m1 0h2m1 0h1m1 0h1m2 0h1m1 0h1m1 0h2m1 0h1m1 0h1m1 0h1m1 0h2m1 0h1m1 0h4m1 0h1m1 0h3m2 0h3m5 0h1m1 0h2m3 0h2m3 0h3m4 0h4m3 0h2m1 0h1m1 0h3m2 0h1m2 0h2m2 0h1m1 0h2m1 0h1m1 0h2m1 0h2m1 0h3M4 29.5h4m7 0h2m5 0h2m2 0h2m1 0h1m5 0h3m1 0h2m1 0h2m3 0h1m1 0h2m1 0h4m1 0h1m1 0h1m2 0h2m1 0h2m1 0h2m1 0h1m1 0h3m1 0h1m2 0h1m2 0h2m1 0h1m1 0h1m1 0h2m2 0h3m4 0h1m2 0h1m3 0h1m1 0h1m3 0h3m5 0h2m1 0h2m3 0h2m2 0h1m1 0h4m3 0h1m1 0h3M8 30.5h1m1 0h1m2 0h3m1 0h2m1 0h1m1 0h1m2 0h1m1 0h2m2 0h5m1 0h4m5 0h4m1 0h3m3 0h1m1 0h4m1 0h1m1 0h3m7 0h1m1 0h2m2 0h1m1 0h3m2 0h4m2 0h1m3 0h3m3 0h3m1 0h2m1 0h1m6 0h1m1 0h3m4 0h1m2 0h6m2 0h1m2 0h2m1 0h1m2 0h1M5 31.5h1m1 0h1m5 0h2m2 0h5m1 0h3m1 0h1m1 0h6m1 0h3m1 0h1m2 0h3m1 0h1m1 0h2m1 0h5m2 0h1m1 0h1m1 0h1m2 0h1m4 0h1m1 0h1m5 0h2m1 0h2m1 0h5m1 0h1m1 0h2m1 0h1m3 0h1m5 0h1m2 0h1m1 0h1m1 0h2m2 0h2m3 0h1m1 0h4m1 0h2m1 0h1m4 0h1m2 0h1m3 0h2M5 32.5h2m3 0h1m1 0h1m1 0h3m2 0h1m1 0h2m2 0h1m1 0h1m2 0h2m1 0h1m3 0h1m1 0h1m3 0h2m1 0h4m5 0h3m2 0h1m1 0h1m2 0h1m1 0h1m1 0h1m2 0h1m2 0h1m1 0h3m1 0h3m2 0h1m1 0h2m2 0h1m2 0h9m6 0h3m5 0h1m2 0h1m4 0h1m1 0h1m1 0h3m1 0h6m1 0h4m1 0h1m1 0h1M4 33.5h1m1 0h2m4 0h3m1 0h3m3 0h3m3 0h2m2 0h1m1 0h1m2 0h1m4 0h1m4 0h1m2 0h1m1 0h1m1 0h1m3 0h2m3 0h1m2 0h1m1 0h1m1 0h2m2 0h3m3 0h1m1 0h2m3 0h2m1 0h2m1 0h6m2 0h2m1 0h2m2 0h1m4 0h1m1 0h1m1 0h3m2 0h3m5 0h1m2 0h2m1 0h1m3 0h1m4 0h3M5 34.5h2m3 0h1m1 0h1m3 0h1m1 0h1m3 0h3m3 0h1m1 0h1m1 0h2m1 0h1m2 0h2m4 0h2m1 0h1m2 0h4m2 0h1m1 0h1m3 0h1m1 0h1m2 0h1m4 0h1m1 0h1m1 0h1m2 0h1m1 0h1m2 0h3m1 0h2m3 0h2m3 0h1m1 0h1m2 0h1m1 0h2m2 0h1m2 0h1m6 0h3m1 0h2m1 0h1m1 0h1m1 0h2m1 0h3m5 0h3m2 0h1m1 0h1M7 35.5h2m4 0h5m4 0h3m1 0h2m1 0h3m1 0h1m2 0h1m1 0h2m1 0h1m2 0h1m1 0h1m1 0h2m1 0h3m1 0h1m3 0h2m2 0h1m3 0h2m3 0h2m1 0h2m1 0h1m1 0h1m2 0h1m1 0h1m1 0h3m3 0h2m4 0h3m4 0h1m4 0h5m1 0h2m1 0h1m3 0h4m1 0h2m1 0h1m4 0h2m2 0h4m2 0h1M5 36.5h2m1 0h5m1 0h1m5 0h3m1 0h2m2 0h2m1 0h2m3 0h5m2 0h4m1 0h1m7 0h1m1 0h1m1 0h1m1 0h5m4 0h2m1 0h1m1 0h3m2 0h2m5 0h6m1 0h10m3 0h1m1 0h1m3 0h5m1 0h1m2 0h3m3 0h2m1 0h1m1 0h1m2 0h1m1 0h8M8 37.5h1m3 0h4m3 0h1m3 0h1m3 0h2m4 0h2m1 0h1m3 0h2m5 0h1m2 0h1m1 0h1m1 0h2m1 0h1m1 0h1m1 0h2m3 0h1m1 0h1m1 0h2m1 0h1m1 0h1m4 0h2m1 0h6m3 0h1m2 0h3m1 0h1m4 0h2m2 0h1m1 0h1m1 0h1m1 0h1m3 0h1m1 0h2m2 0h1m3 0h1m2 0h2m1 0h3m3 0h1m3 0h1m2 0h1M7 38.5h2m1 0h1m1 0h2m3 0h2m1 0h2m1 0h1m1 0h2m1 0h3m3 0h3m1 0h1m1 0h3m2 0h3m2 0h1m1 0h1m2 0h3m3 0h2m1 0h1m1 0h2m1 0h2m1 0h3m2 0h1m1 0h3m2 0h3m1 0h1m1 0h1m1 0h2m4 0h3m5 0h1m4 0h4m1 0h1m1 0h4m1 0h2m1 0h1m1 0h1m1 0h2m1 0h1m1 0h1m2 0h3m1 0h1m1 0h1m1 0h1m1 0h1M4 39.5h1m2 0h2m3 0h2m2 0h1m1 0h3m1 0h2m3 0h3m3 0h1m2 0h1m3 0h1m6 0h2m3 0h2m1 0h1m1 0h1m1 0h2m1 0h1m3 0h1m1 0h1m1 0h2m1 0h1m2 0h1m1 0h1m3 0h5m1 0h1m3 0h4m1 0h1m2 0h1m5 0h2m6 0h1m3 0h1m1 0h1m4 0h1m1 0h4m6 0h1m1 0h2m3 0h2m2 0h1M5 40.5h2m1 0h5m1 0h2m1 0h5m2 0h2m3 0h3m2 0h8m1 0h1m1 0h2m1 0h2m6 0h1m1 0h1m1 0h7m1 0h4m2 0h6m1 0h6m1 0h6m2 0h5m1 0h1m1 0h2m2 0h3m2 0h6m1 0h1m3 0h1m2 0h2m1 0h1m1 0h2m1 0h1m4 0h8M7 41.5h1m1 0h1m2 0h1m4 0h2m1 0h4m2 0h1m2 0h1m3 0h1m3 0h1m1 0h2m1 0h1m1 0h2m1 0h1m2 0h1m1 0h4m8 0h2m2 0h1m2 0h6m1 0h1m1 0h4m2 0h1m2 0h1m1 0h4m1 0h2m1 0h1m2 0h4m4 0h1m9 0h2m1 0h3m2 0h8m1 0h1m1 0h2m1 0h5M5 42.5h4m1 0h2m1 0h1m3 0h3m2 0h1m1 0h1m4 0h1m3 0h1m6 0h2m1 0h2m2 0h4m1 0h3m2 0h1m8 0h5m1 0h3m1 0h2m1 0h2m1 0h1m2 0h5m1 0h1m1 0h1m1 0h1m1 0h7m2 0h2m3 0h2m1 0h2m2 0h2m1 0h3m6 0h2m1 0h3m3 0h1m3 0h1m4 0h1M5 43.5h1m2 0h2m2 0h1m4 0h5m2 0h1m2 0h1m2 0h1m1 0h1m1 0h2m1 0h3m2 0h1m1 0h2m4 0h1m5 0h3m2 0h5m2 0h1m1 0h6m3 0h2m1 0h2m1 0h1m4 0h1m3 0h1m2 0h1m1 0h3m4 0h1m4 0h1m4 0h1m7 0h2m1 0h3m4 0h1m2 0h1m1 0h1m2 0h1m2 0h1m2 0h1M6 44.5h1m1 0h4m3 0h3m1 0h1m2 0h1m2 0h1m1 0h1m2 0h1m1 0h2m1 0h3m1 0h3m2 0h6m1 0h1m1 0h1m2 0h1m1 0h2m1 0h1m1 0h1m4 0h3m1 0h1m2 0h4m5 0h1m2 0h1m1 0h1m3 0h1m1 0h4m3 0h1m2 0h1m1 0h2m1 0h2m1 0h2m1 0h3m1 0h2m1 0h2m2 0h2m1 0h1m5 0h7m1 0h3m1 0h1M5 45.5h5m2 0h2m1 0h2m1 0h2m2 0h2m1 0h2m6 0h1m1 0h1m1 0h1m1 0h2m1 0h2m6 0h1m1 0h1m1 0h1m2 0h1m6 0h2m5 0h1m1 0h4m3 0h2m1 0h1m2 0h1m2 0h1m1 0h8m4 0h4m1 0h1m1 0h2m4 0h1m2 0h8m4 0h1m1 0h1m1 0h2m1 0h1m1 0h1m1 0h1m1 0h1m1 0h1M5 46.5h4m1 0h1m3 0h2m2 0h1m1 0h1m3 0h3m1 0h2m1 0h4m6 0h3m1 0h2m2 0h1m1 0h1m1 0h2m1 0h1m2 0h1m1 0h1m3 0h1m1 0h1m4 0h3m1 0h1m1 0h3m1 0h1m2 0h1m2 0h1m1 0h2m1 0h1m1 0h1m3 0h2m1 0h1m2 0h2m2 0h1m2 0h4m3 0h1m1 0h3m2 0h1m1 0h1m2 0h1m1 0h4m2 0h1m1 0h1m1 0h1m4 0h1M4 47.5h1m1 0h2m1 0h1m2 0h2m1 0h1m1 0h1m3 0h1m1 0h3m3 0h2m2 0h1m1 0h5m4 0h3m2 0h1m6 0h3m2 0h4m1 0h1m3 0h1m2 0h2m1 0h1m1 0h2m2 0h1m1 0h2m1 0h2m2 0h1m1 0h2m1 0h1m2 0h3m2 0h1m1 0h2m1 0h1m1 0h2m1 0h3m1 0h1m1 0h1m3 0h2m1 0h3m4 0h1m2 0h1m1 0h1m2 0h1M4 48.5h2m1 0h4m1 0h1m2 0h3m1 0h1m5 0h6m1 0h1m3 0h2m3 0h1m1 0h2m1 0h1m2 0h1m3 0h1m1 0h4m1 0h1m1 0h2m3 0h1m1 0h3m2 0h5m2 0h2m4 0h2m6 0h1m1 0h3m2 0h4m1 0h1m2 0h1m6 0h1m3 0h1m1 0h1m1 0h1m2 0h2m4 0h8m1 0h6M4 49.5h3m4 0h1m1 0h1m3 0h2m1 0h4m1 0h1m3 0h2m1 0h4m1 0h1m2 0h3m4 0h1m1 0h7m5 0h2m2 0h2m4 0h2m1 0h3m1 0h1m2 0h3m1 0h1m3 0h1m1 0h3m1 0h3m3 0h1m1 0h3m2 0h1m1 0h2m1 0h1m2 0h2m5 0h1m4 0h2m1 0h1m1 0h1m4 0h1m1 0h1m1 0h3m1 0h1M4 50.5h3m1 0h3m1 0h2m2 0h4m1 0h1m4 0h1m1 0h1m1 0h4m2 0h1m4 0h4m1 0h2m1 0h1m2 0h2m3 0h1m1 0h1m1 0h1m1 0h1m3 0h1m5 0h1m3 0h1m1 0h1m1 0h1m3 0h1m1 0h3m4 0h1m2 0h1m2 0h1m1 0h2m2 0h1m2 0h4m1 0h2m3 0h3m1 0h2m3 0h1m1 0h2m1 0h4m2 0h1m3 0h1m3 0h2M7 51.5h3m2 0h1m3 0h1m6 0h1m1 0h1m6 0h2m3 0h3m3 0h1m1 0h2m1 0h1m1 0h1m1 0h2m3 0h1m1 0h4m3 0h2m4 0h3m1 0h1m1 0h1m1 0h1m1 0h1m1 0h2m1 0h2m1 0h2m1 0h3m4 0h1m3 0h5m4 0h4m7 0h2m1 0h4m1 0h1m3 0h1m1 0h1m3 0h2m1 0h1m2 0h1M4 52.5h5m1 0h1m1 0h1m2 0h3m3 0h3m4 0h2m4 0h4m3 0h1m2 0h1m1 0h1m1 0h1m2 0h1m3 0h2m1 0h5m1 0h1m1 0h6m2 0h2m1 0h1m3 0h2m1 0h1m11 0h1m1 0h2m2 0h2m2 0h6m5 0h1m4 0h1m3 0h1m3 0h2m1 0h1m5 0h1m1 0h1m4 0h2M6 53.5h2m1 0h1m1 0h1m1 0h2m1 0h5m7 0h3m2 0h1m3 0h2m1 0h1m1 0h1m2 0h2m5 0h1m1 0h1m4 0h1m1 0h1m3 0h1m3 0h1m1 0h2m2 0h1m4 0h8m1 0h1m1 0h6m4 0h4m1 0h1m1 0h4m4 0h4m1 0h1m1 0h1m3 0h1m1 0h1m3 0h5m1 0h2m1 0h4M6 54.5h2m2 0h1m5 0h1m2 0h1m3 0h1m2 0h2m2 0h1m2 0h1m3 0h1m1 0h2m3 0h1m1 0h1m5 0h1m2 0h1m3 0h1m4 0h4m2 0h1m2 0h2m1 0h1m1 0h2m1 0h2m4 0h3m3 0h3m1 0h1m1 0h3m1 0h1m2 0h1m2 0h1m1 0h5m2 0h2m1 0h4m2 0h2m2 0h1m1 0h1m1 0h2m1 0h2m3 0h1m1 0h4M6 55.5h3m3 0h1m3 0h1m8 0h1m2 0h1m2 0h1m1 0h1m1 0h4m4 0h1m1 0h3m3 0h1m1 0h1m2 0h2m2 0h1m1 0h1m1 0h1m1 0h3m3 0h2m2 0h1m1 0h2m4 0h4m1 0h2m1 0h3m1 0h2m2 0h2m4 0h1m4 0h1m3 0h2m5 0h1m2 0h5m4 0h1m1 0h3m2 0h1m1 0h1m1 0h1M5 56.5h2m1 0h1m1 0h4m1 0h3m2 0h1m3 0h1m1 0h1m2 0h1m1 0h1m1 0h2m1 0h2m3 0h1m1 0h7m6 0h1m1 0h1m1 0h4m5 0h3m2 0h1m1 0h3m2 0h2m3 0h1m2 0h1m1 0h3m1 0h1m1 0h3m2 0h2m4 0h1m1 0h1m1 0h3m2 0h1m1 0h1m1 0h3m1 0h2m1 0h3m7 0h1m2 0h1m4 0h2M4 57.5h2m1 0h3m2 0h2m1 0h2m2 0h1m1 0h2m1 0h3m1 0h1m2 0h1m2 0h2m4 0h1m1 0h2m1 0h1m3 0h2m1 0h3m9 0h3m1 0h1m1 0h1m1 0h2m1 0h1m2 0h1m4 0h1m2 0h2m1 0h1m2 0h2m1 0h2m1 0h2m3 0h3m1 0h5m4 0h1m4 0h1m1 0h2m1 0h1m1 0h4m1 0h1m2 0h2m1 0h4m1 0h4M4 58.5h1m1 0h6m2 0h1m1 0h3m1 0h5m2 0h1m3 0h5m1 0h1m1 0h1m1 0h1m3 0h3m1 0h1m2 0h3m2 0h1m1 0h1m1 0h1m1 0h2m2 0h1m1 0h2m2 0h2m4 0h1m5 0h2m1 0h1m1 0h1m3 0h2m1 0h1m2 0h3m3 0h2m2 0h3m1 0h2m1 0h1m1 0h1m1 0h2m8 0h6m2 0h1m3 0h1m1 0h1m2 0h1M7 59.5h3m3 0h2m1 0h3m7 0h1m4 0h4m1 0h1m3 0h2m3 0h2m2 0h1m3 0h1m6 0h1m1 0h1m1 0h1m1 0h3m3 0h2m1 0h2m1 0h2m2 0h1m2 0h1m1 0h1m3 0h1m1 0h5m1 0h3m1 0h1m1 0h3m1 0h1m1 0h1m1 0h1m2 0h1m1 0h1m1 0h1m1 0h1m1 0h2m1 0h4m1 0h1m1 0h1m1 0h4m2 0h1m2 0h1m1 0h1M7 60.5h4m3 0h1m2 0h2m2 0h5m4 0h3m3 0h1m1 0h1m5 0h5m4 0h1m3 0h2m1 0h1m1 0h2m2 0h4m1 0h1m4 0h2m2 0h4m2 0h1m4 0h1m6 0h1m1 0h1m1 0h1m1 0h1m1 0h1m3 0h1m1 0h1m3 0h2m2 0h1m1 0h5m5 0h1m2 0h1m3 0h2m2 0h1m1 0h2m1 0h1M4 61.5h1m3 0h2m1 0h6m2 0h5m1 0h1m1 0h2m1 0h6m1 0h7m1 0h1m3 0h1m1 0h2m1 0h2m1 0h1m3 0h2m2 0h2m4 0h1m1 0h1m1 0h1m1 0h2m5 0h2m3 0h1m2 0h1m2 0h1m1 0h1m1 0h1m2 0h1m1 0h2m2 0h1m1 0h1m2 0h1m2 0h1m1 0h2m2 0h2m2 0h1m5 0h5m1 0h3m1 0h4M4 62.5h1m3 0h6m1 0h2m1 0h1m3 0h1m2 0h1m2 0h2m1 0h1m2 0h7m1 0h1m1 0h3m2 0h2m3 0h1m3 0h1m1 0h11m2 0h1m3 0h6m1 0h12m1 0h2m1 0h2m1 0h1m3 0h1m1 0h1m1 0h11m1 0h1m2 0h1m1 0h1m1 0h2m1 0h4m1 0h1m1 0h9M8 63.5h1m3 0h3m5 0h1m1 0h4m1 0h1m6 0h1m1 0h1m3 0h2m1 0h1m2 0h3m2 0h1m1 0h3m1 0h6m3 0h2m3 0h1m1 0h2m3 0h3m3 0h3m1 0h1m3 0h1m1 0h4m1 0h1m1 0h1m1 0h1m2 0h1m1 0h1m2 0h2m1 0h1m3 0h1m1 0h1m3 0h2m1 0h3m2 0h1m1 0h1m2 0h4m3 0h2m2 0h1M4 64.5h1m1 0h3m1 0h1m1 0h1m1 0h4m1 0h2m2 0h2m3 0h1m5 0h3m1 0h1m1 0h1m2 0h2m1 0h3m2 0h1m3 0h2m1 0h3m1 0h1m1 0h1m1 0h2m9 0h3m1 0h1m2 0h1m2 0h2m1 0h1m1 0h1m5 0h1m1 0h1m1 0h3m4 0h3m1 0h2m1 0h1m1 0h1m2 0h1m2 0h1m2 0h1m1 0h1m10 0h1m1 0h1m1 0h1m1 0h3M4 65.5h2m1 0h2m3 0h2m1 0h1m2 0h1m1 0h3m4 0h1m1 0h1m1 0h3m1 0h2m3 0h1m1 0h1m4 0h1m1 0h2m1 0h1m1 0h2m3 0h1m2 0h1m3 0h1m2 0h1m1 0h2m1 0h2m1 0h2m2 0h4m2 0h2m3 0h1m3 0h1m1 0h3m2 0h2m3 0h1m1 0h1m3 0h1m3 0h2m1 0h1m1 0h1m8 0h3m1 0h1m2 0h2m3 0h1m1 0h1M4 66.5h3m1 0h5m1 0h1m2 0h6m1 0h7m1 0h3m1 0h6m1 0h1m4 0h2m1 0h6m4 0h7m1 0h1m2 0h1m1 0h1m2 0h4m1 0h1m1 0h2m1 0h8m2 0h1m1 0h5m1 0h3m1 0h1m1 0h2m1 0h6m1 0h4m1 0h1m1 0h1m2 0h1m1 0h3m2 0h8m1 0h2M4 67.5h5m2 0h1m1 0h2m2 0h6m1 0h2m2 0h3m1 0h1m2 0h2m7 0h3m4 0h1m1 0h1m2 0h4m2 0h1m2 0h1m1 0h1m2 0h1m2 0h3m3 0h2m2 0h1m1 0h2m1 0h1m1 0h1m3 0h2m3 0h3m3 0h3m1 0h1m1 0h1m2 0h2m1 0h1m4 0h1m2 0h1m1 0h3m7 0h1m7 0h1m2 0h1M5 68.5h2m1 0h1m1 0h5m2 0h2m1 0h1m3 0h2m4 0h5m1 0h1m1 0h1m1 0h1m2 0h7m3 0h1m1 0h2m1 0h5m1 0h3m2 0h1m1 0h2m3 0h4m1 0h4m2 0h1m1 0h1m6 0h3m3 0h1m1 0h1m2 0h1m2 0h4m2 0h1m7 0h6m2 0h1m4 0h1m2 0h1m1 0h2m1 0h4M5 69.5h2m2 0h1m3 0h2m2 0h3m1 0h4m2 0h6m1 0h1m1 0h2m1 0h1m1 0h2m8 0h2m1 0h1m8 0h1m4 0h3m2 0h1m1 0h2m4 0h1m1 0h1m2 0h1m1 0h2m1 0h1m3 0h2m1 0h2m4 0h1m1 0h3m8 0h1m3 0h7m1 0h3m2 0h1m1 0h1m2 0h4m2 0h2M4 70.5h3m1 0h1m1 0h4m1 0h3m2 0h1m2 0h2m1 0h2m3 0h4m2 0h2m1 0h1m1 0h2m6 0h1m1 0h2m1 0h5m1 0h1m3 0h3m2 0h1m1 0h1m6 0h1m1 0h1m6 0h1m3 0h3m3 0h5m2 0h3m1 0h1m2 0h3m2 0h3m1 0h2m5 0h1m2 0h1m1 0h1m1 0h1m3 0h1m2 0h4m1 0h2M7 71.5h3m2 0h4m1 0h1m1 0h4m1 0h1m2 0h3m5 0h1m5 0h1m2 0h1m1 0h6m4 0h1m1 0h2m2 0h3m3 0h1m4 0h1m4 0h1m3 0h1m1 0h4m1 0h3m2 0h3m2 0h3m1 0h1m1 0h3m1 0h1m2 0h1m2 0h1m4 0h1m1 0h1m1 0h2m1 0h1m1 0h1m4 0h1m1 0h3m2 0h1m1 0h1m3 0h1M4 72.5h3m3 0h2m1 0h1m1 0h1m1 0h3m1 0h1m1 0h1m2 0h2m3 0h4m2 0h4m3 0h5m4 0h1m2 0h1m1 0h1m1 0h3m1 0h1m3 0h2m6 0h2m1 0h1m1 0h1m1 0h5m2 0h1m1 0h1m5 0h1m1 0h1m1 0h1m1 0h2m1 0h1m2 0h1m2 0h3m2 0h2m1 0h1m2 0h2m1 0h1m2 0h1m1 0h1m2 0h2m1 0h1m2 0h1m1 0h1m1 0h2m1 0h1M4 73.5h1m1 0h1m10 0h1m1 0h1m1 0h1m1 0h1m2 0h2m1 0h2m1 0h1m1 0h1m3 0h1m3 0h2m3 0h1m1 0h6m8 0h2m1 0h1m1 0h1m1 0h4m1 0h3m4 0h5m4 0h1m3 0h3m3 0h4m3 0h1m1 0h2m4 0h3m2 0h1m2 0h1m1 0h1m3 0h1m2 0h1m2 0h1m1 0h5m3 0h1M4 74.5h2m2 0h1m1 0h1m1 0h3m3 0h2m2 0h1m3 0h2m2 0h1m2 0h4m3 0h1m1 0h2m2 0h3m1 0h4m1 0h2m1 0h2m2 0h1m4 0h1m2 0h1m3 0h1m3 0h3m3 0h3m4 0h3m5 0h3m4 0h1m2 0h2m1 0h1m3 0h2m1 0h1m1 0h1m1 0h1m4 0h1m1 0h2m1 0h1m1 0h1m6 0h1m1 0h5M5 75.5h3m1 0h1m1 0h2m1 0h3m5 0h4m1 0h1m1 0h1m2 0h1m1 0h1m2 0h1m2 0h1m3 0h1m1 0h4m1 0h1m4 0h1m1 0h1m1 0h2m1 0h2m1 0h3m3 0h2m1 0h2m1 0h3m2 0h9m2 0h1m2 0h1m1 0h1m1 0h1m1 0h2m1 0h1m1 0h2m2 0h1m1 0h2m1 0h2m3 0h1m1 0h2m1 0h4m3 0h1m2 0h1m1 0h1m5 0h1m1 0h1M5 76.5h3m1 0h2m4 0h2m2 0h10m1 0h1m1 0h3m1 0h1m1 0h3m3 0h1m1 0h1m1 0h1m2 0h3m2 0h1m1 0h5m1 0h1m3 0h1m1 0h1m3 0h1m2 0h1m3 0h3m2 0h2m1 0h1m2 0h2m1 0h4m2 0h1m2 0h1m2 0h5m1 0h1m2 0h1m4 0h1m5 0h1m2 0h4m7 0h1m3 0h2m1 0h1M5 77.5h4m2 0h1m2 0h2m5 0h1m3 0h1m5 0h3m4 0h1m2 0h3m1 0h1m1 0h1m1 0h2m1 0h1m1 0h1m2 0h1m5 0h1m2 0h1m1 0h1m2 0h1m3 0h3m3 0h1m1 0h2m4 0h1m1 0h2m2 0h2m1 0h1m3 0h1m1 0h1m1 0h6m2 0h1m2 0h3m3 0h3m4 0h2m1 0h4m2 0h1m1 0h7M10 78.5h1m4 0h2m2 0h1m1 0h4m1 0h3m2 0h3m3 0h2m1 0h4m2 0h1m4 0h3m2 0h1m2 0h1m4 0h5m4 0h2m1 0h1m1 0h5m3 0h2m3 0h2m1 0h1m2 0h1m1 0h3m1 0h1m1 0h1m1 0h1m1 0h1m2 0h2m2 0h1m1 0h4m1 0h2m1 0h1m3 0h6m5 0h5m1 0h2M4 79.5h4m1 0h1m1 0h2m3 0h1m1 0h1m3 0h2m1 0h1m1 0h1m1 0h1m1 0h1m1 0h1m1 0h1m3 0h2m1 0h1m1 0h3m1 0h1m3 0h1m5 0h1m2 0h3m2 0h3m2 0h4m4 0h1m4 0h2m1 0h1m1 0h3m2 0h2m4 0h1m2 0h7m2 0h1m2 0h1m1 0h2m3 0h1m2 0h6m3 0h1m1 0h2m1 0h1m1 0h1m1 0h1m1 0h1m1 0h1M5 80.5h1m2 0h5m1 0h2m9 0h1m3 0h1m1 0h1m6 0h2m1 0h1m1 0h4m1 0h2m1 0h1m1 0h1m1 0h2m1 0h1m1 0h5m2 0h1m1 0h4m1 0h2m2 0h2m1 0h4m1 0h2m1 0h3m3 0h5m1 0h2m1 0h2m3 0h3m1 0h1m4 0h2m3 0h1m2 0h1m2 0h1m2 0h3m8 0h1m2 0h3M4 81.5h3m1 0h1m2 0h2m1 0h3m2 0h5m3 0h1m1 0h1m1 0h3m2 0h3m3 0h1m2 0h1m3 0h7m1 0h1m5 0h1m4 0h2m1 0h3m1 0h4m1 0h1m1 0h3m4 0h1m1 0h3m1 0h2m2 0h1m1 0h7m5 0h3m1 0h2m2 0h1m2 0h1m1 0h1m1 0h1m1 0h3m1 0h3m1 0h2m1 0h2m1 0h1m2 0h2M4 82.5h1m2 0h4m2 0h4m1 0h1m2 0h5m4 0h1m1 0h1m5 0h1m1 0h1m1 0h2m2 0h2m3 0h2m2 0h2m1 0h2m1 0h1m2 0h4m1 0h2m2 0h2m1 0h1m1 0h3m1 0h1m1 0h3m1 0h1m2 0h4m4 0h2m5 0h2m4 0h1m1 0h1m3 0h4m1 0h1m8 0h2m1 0h1m2 0h2m2 0h4m1 0h2M4 83.5h6m1 0h2m2 0h4m2 0h3m3 0h2m1 0h1m4 0h2m2 0h3m1 0h5m4 0h2m1 0h1m1 0h6m2 0h1m5 0h3m2 0h1m1 0h2m4 0h2m1 0h5m2 0h4m7 0h4m6 0h4m1 0h1m4 0h6m5 0h2m1 0h2m7 0h1M5 84.5h2m1 0h6m2 0h5m1 0h4m1 0h1m5 0h2m2 0h2m1 0h1m3 0h1m1 0h1m1 0h1m7 0h3m1 0h2m1 0h2m1 0h4m1 0h1m3 0h3m2 0h2m4 0h4m6 0h4m1 0h3m1 0h1m2 0h3m1 0h1m1 0h3m2 0h3m2 0h2m1 0h1m2 0h1m6 0h1m7 0h3M4 85.5h1m1 0h1m2 0h1m3 0h1m4 0h1m1 0h3m1 0h1m3 0h3m1 0h3m1 0h2m4 0h2m1 0h1m1 0h1m2 0h4m1 0h1m1 0h1m1 0h1m3 0h2m2 0h1m1 0h4m2 0h2m1 0h1m4 0h2m1 0h1m2 0h1m2 0h1m1 0h3m1 0h2m1 0h4m1 0h1m1 0h3m3 0h4m1 0h1m1 0h1m1 0h2m1 0h1m1 0h4m1 0h1m1 0h1m2 0h3m1 0h3m1 0h1M4 86.5h1m1 0h1m1 0h3m1 0h3m2 0h1m2 0h1m1 0h3m1 0h1m1 0h1m9 0h1m1 0h1m2 0h1m1 0h1m1 0h1m1 0h3m5 0h1m1 0h1m1 0h1m3 0h4m1 0h1m3 0h1m4 0h1m1 0h2m1 0h1m1 0h1m2 0h1m2 0h1m2 0h1m1 0h1m2 0h2m4 0h1m2 0h1m2 0h1m5 0h7m6 0h5m3 0h1m2 0h1m1 0h3m1 0h1M6 87.5h1m9 0h1m1 0h1m2 0h3m1 0h1m1 0h2m2 0h2m1 0h2m5 0h1m2 0h1m1 0h3m1 0h2m6 0h2m2 0h1m1 0h1m2 0h1m2 0h1m1 0h3m1 0h1m2 0h2m3 0h2m1 0h4m2 0h3m1 0h1m2 0h2m1 0h7m1 0h2m2 0h1m2 0h1m3 0h1m1 0h4m1 0h1m7 0h2m9 0h1M5 88.5h1m2 0h8m1 0h1m4 0h1m1 0h4m1 0h5m2 0h5m3 0h1m1 0h1m1 0h1m4 0h1m1 0h4m1 0h1m1 0h6m1 0h4m1 0h4m3 0h2m3 0h7m3 0h1m1 0h1m3 0h2m5 0h3m1 0h6m1 0h1m1 0h2m5 0h1m2 0h2m1 0h3m2 0h5m1 0h1M4 89.5h1m1 0h3m3 0h2m3 0h1m1 0h1m1 0h1m1 0h1m3 0h3m1 0h2m1 0h1m1 0h1m3 0h1m1 0h1m2 0h1m1 0h1m1 0h7m5 0h2m3 0h4m1 0h1m3 0h3m2 0h2m1 0h1m1 0h1m2 0h1m3 0h2m2 0h1m4 0h2m1 0h1m1 0h1m1 0h1m4 0h2m3 0h1m1 0h2m1 0h2m1 0h6m1 0h2m1 0h3m1 0h1m3 0h1m1 0h2M5 90.5h2m1 0h1m1 0h1m1 0h2m2 0h4m4 0h1m1 0h1m1 0h1m2 0h1m2 0h1m1 0h1m1 0h1m1 0h1m1 0h1m5 0h4m1 0h2m2 0h3m2 0h1m1 0h1m1 0h3m3 0h1m1 0h1m1 0h1m2 0h1m2 0h1m5 0h1m1 0h1m1 0h1m2 0h1m1 0h1m1 0h2m1 0h1m3 0h1m4 0h4m1 0h1m1 0h2m1 0h4m3 0h1m2 0h5m3 0h2m1 0h1m1 0h5M5 91.5h1m2 0h1m3 0h3m3 0h1m2 0h3m1 0h2m6 0h2m1 0h1m3 0h2m3 0h2m4 0h1m8 0h1m1 0h1m3 0h1m1 0h1m4 0h1m1 0h2m1 0h1m1 0h1m1 0h1m2 0h2m1 0h1m3 0h3m2 0h1m1 0h3m2 0h4m4 0h1m1 0h1m3 0h1m1 0h1m5 0h3m3 0h1m4 0h4m3 0h1m2 0h1M4 92.5h9m5 0h1m1 0h2m4 0h1m2 0h4m2 0h7m2 0h1m1 0h2m1 0h1m1 0h1m1 0h1m1 0h13m1 0h1m2 0h2m2 0h3m1 0h5m2 0h6m3 0h3m3 0h1m3 0h7m1 0h5m2 0h1m1 0h8m1 0h2m1 0h1m3 0h6m1 0h1M6 93.5h4m2 0h2m1 0h2m1 0h2m3 0h1m4 0h1m3 0h3m1 0h1m1 0h1m1 0h1m1 0h1m7 0h3m1 0h2m1 0h1m3 0h4m1 0h1m1 0h2m1 0h1m1 0h1m1 0h2m1 0h1m1 0h1m2 0h2m1 0h2m2 0h4m1 0h2m1 0h1m4 0h3m2 0h1m4 0h4m2 0h1m2 0h1m1 0h1m1 0h2m4 0h4m1 0h1m3 0h1m2 0h1m1 0h1M9 94.5h2m1 0h12m1 0h2m2 0h2m1 0h4m1 0h1m1 0h1m1 0h1m1 0h1m3 0h1m5 0h1m1 0h1m2 0h1m3 0h3m1 0h2m4 0h1m6 0h1m1 0h2m2 0h3m1 0h2m1 0h1m1 0h1m4 0h3m1 0h1m2 0h1m5 0h1m4 0h2m1 0h2m1 0h2m6 0h1m1 0h1m1 0h2m1 0h1m1 0h1m1 0h1m2 0h4M6 95.5h2m1 0h1m1 0h1m1 0h1m4 0h1m1 0h5m2 0h4m2 0h2m1 0h1m3 0h5m1 0h1m2 0h1m1 0h1m5 0h5m2 0h3m4 0h5m2 0h1m1 0h1m1 0h4m1 0h2m3 0h4m1 0h1m5 0h5m6 0h1m10 0h3m1 0h1m2 0h1m3 0h4m1 0h2m1 0h1m2 0h2M4 96.5h2m1 0h1m2 0h3m2 0h2m2 0h1m4 0h1m1 0h2m1 0h2m1 0h6m1 0h3m1 0h2m1 0h1m1 0h1m2 0h1m3 0h2m1 0h5m4 0h3m1 0h2m1 0h1m1 0h3m1 0h5m1 0h1m1 0h3m5 0h3m1 0h3m1 0h2m1 0h1m2 0h2m3 0h1m1 0h2m1 0h2m2 0h1m2 0h1m1 0h2m2 0h2m2 0h1m3 0h2m2 0h2M4 97.5h2m3 0h1m2 0h1m1 0h1m1 0h3m1 0h1m1 0h3m5 0h1m1 0h8m2 0h2m3 0h1m1 0h1m2 0h1m1 0h2m3 0h1m1 0h2m1 0h3m1 0h2m1 0h1m1 0h3m1 0h2m1 0h2m1 0h3m1 0h5m2 0h1m1 0h1m1 0h2m1 0h5m2 0h1m1 0h2m2 0h2m5 0h4m1 0h1m4 0h1m7 0h1m3 0h1m2 0h2M7 98.5h1m1 0h2m1 0h2m3 0h1m1 0h1m1 0h1m1 0h2m3 0h1m2 0h1m1 0h1m3 0h1m3 0h2m2 0h1m1 0h1m1 0h1m1 0h4m1 0h1m1 0h2m1 0h1m1 0h2m1 0h2m1 0h1m6 0h1m1 0h2m4 0h2m5 0h1m1 0h2m2 0h4m5 0h1m2 0h1m2 0h2m1 0h5m1 0h4m3 0h1m1 0h4m1 0h1m3 0h5m4 0h1M4 99.5h1m1 0h1m1 0h2m1 0h3m5 0h2m2 0h3m1 0h1m1 0h1m5 0h2m2 0h2m2 0h1m2 0h1m2 0h2m1 0h1m1 0h2m1 0h5m2 0h2m2 0h1m1 0h1m1 0h2m2 0h1m3 0h1m1 0h1m2 0h5m1 0h4m4 0h2m2 0h4m2 0h1m1 0h2m1 0h1m3 0h1m3 0h1m2 0h5m6 0h2m4 0h1m1 0h1m3 0h1M4 100.5h1m2 0h1m1 0h5m5 0h4m1 0h1m3 0h1m1 0h5m2 0h1m1 0h2m2 0h1m2 0h1m1 0h2m3 0h1m1 0h1m2 0h1m1 0h1m1 0h1m1 0h2m3 0h3m2 0h2m2 0h1m2 0h3m2 0h3m1 0h2m3 0h1m2 0h1m1 0h3m1 0h1m1 0h2m1 0h2m2 0h4m1 0h1m1 0h1m1 0h1m1 0h1m2 0h1m1 0h1m1 0h2m5 0h1m7 0h2M4 101.5h6m4 0h2m1 0h5m2 0h2m1 0h2m2 0h2m3 0h4m1 0h2m2 0h1m4 0h3m1 0h1m2 0h2m4 0h3m2 0h1m1 0h2m1 0h1m1 0h2m1 0h1m5 0h2m1 0h2m2 0h1m1 0h2m1 0h1m6 0h2m2 0h4m4 0h1m4 0h2m1 0h1m2 0h1m4 0h2m3 0h1m1 0h1m2 0h3M4 102.5h1m1 0h5m1 0h1m1 0h4m4 0h1m1 0h1m1 0h2m2 0h1m2 0h1m7 0h3m5 0h1m1 0h1m1 0h3m3 0h1m1 0h1m1 0h1m2 0h3m3 0h3m1 0h5m1 0h1m1 0h2m1 0h1m1 0h1m4 0h1m4 0h2m2 0h1m2 0h1m5 0h2m3 0h1m1 0h6m1 0h1m3 0h2m1 0h3m2 0h3m1 0h1m1 0h1m3 0h1M4 103.5h1m2 0h1m4 0h4m1 0h1m1 0h3m1 0h1m1 0h1m1 0h5m2 0h2m3 0h2m1 0h2m1 0h2m1 0h2m5 0h3m1 0h2m3 0h4m2 0h1m1 0h3m3 0h3m1 0h1m1 0h3m1 0h1m3 0h1m1 0h1m1 0h2m5 0h1m2 0h1m1 0h2m1 0h2m1 0h1m1 0h1m1 0h1m1 0h1m3 0h2m1 0h1m1 0h1m2 0h1m1 0h1m2 0h1m4 0h4m2 0h1M4 104.5h2m1 0h2m1 0h4m1 0h1m2 0h1m1 0h1m1 0h1m1 0h3m1 0h1m1 0h2m2 0h2m1 0h1m1 0h5m1 0h5m1 0h1m1 0h1m1 0h4m1 0h1m1 0h2m1 0h1m3 0h1m2 0h1m2 0h9m4 0h3m4 0h1m1 0h2m3 0h3m4 0h2m2 0h3m1 0h1m1 0h2m4 0h2m1 0h1m1 0h1m1 0h2m3 0h1m1 0h3m3 0h2m1 0h1M6 105.5h1m2 0h1m2 0h5m1 0h1m1 0h1m4 0h1m2 0h2m1 0h2m1 0h6m7 0h1m1 0h4m2 0h1m7 0h1m6 0h1m1 0h2m1 0h1m4 0h1m1 0h5m2 0h3m1 0h2m1 0h4m2 0h3m1 0h1m1 0h2m3 0h4m5 0h2m3 0h2m1 0h1m2 0h1m2 0h1m3 0h4m1 0h2M4 106.5h7m3 0h1m1 0h2m2 0h1m3 0h5m2 0h1m6 0h1m2 0h1m3 0h3m1 0h2m1 0h1m3 0h2m5 0h2m2 0h1m2 0h1m2 0h2m2 0h1m1 0h2m1 0h1m1 0h1m1 0h2m11 0h3m1 0h1m1 0h3m4 0h2m3 0h5m1 0h1m7 0h1m1 0h1m1 0h1m2 0h3m2 0h3m2 0h1M5 107.5h1m3 0h1m2 0h5m2 0h1m3 0h1m4 0h2m3 0h2m1 0h2m1 0h3m3 0h2m1 0h1m2 0h1m1 0h1m1 0h2m1 0h3m4 0h3m5 0h1m1 0h1m4 0h1m1 0h1m2 0h2m1 0h1m2 0h4m11 0h1m6 0h2m1 0h1m1 0h1m6 0h3m5 0h2m2 0h1m3 0h2m1 0h1m3 0h1M4 108.5h1m3 0h1m1 0h1m1 0h1m1 0h2m3 0h1m1 0h3m1 0h1m1 0h8m2 0h1m1 0h1m1 0h1m3 0h5m1 0h1m4 0h7m1 0h1m4 0h3m2 0h1m1 0h3m4 0h2m1 0h1m2 0h3m3 0h1m2 0h2m1 0h4m2 0h2m1 0h1m1 0h6m1 0h1m2 0h1m2 0h1m1 0h2m1 0h1m1 0h1m1 0h1m1 0h1m4 0h1m1 0h1m1 0h4M4 109.5h1m2 0h3m1 0h1m2 0h5m4 0h1m1 0h12m1 0h1m1 0h1m1 0h2m3 0h1m1 0h2m1 0h4m1 0h1m3 0h1m1 0h4m1 0h1m2 0h3m1 0h3m2 0h4m1 0h1m2 0h1m5 0h1m1 0h1m1 0h1m2 0h4m1 0h1m1 0h3m2 0h2m1 0h1m1 0h1m2 0h4m2 0h2m2 0h1m2 0h3m4 0h1m1 0h5M4 110.5h2m3 0h3m1 0h2m2 0h1m1 0h1m5 0h4m5 0h1m2 0h2m2 0h1m6 0h1m1 0h3m3 0h2m2 0h1m2 0h1m3 0h1m1 0h2m1 0h3m1 0h7m4 0h1m1 0h2m1 0h4m1 0h1m2 0h3m8 0h3m1 0h5m1 0h1m1 0h2m5 0h2m1 0h1m1 0h2m1 0h3m3 0h1m2 0h2M9 111.5h1m1 0h1m2 0h1m2 0h1m1 0h1m1 0h2m2 0h2m1 0h2m2 0h1m1 0h2m1 0h1m1 0h2m1 0h2m2 0h3m3 0h2m2 0h3m1 0h2m2 0h2m2 0h1m1 0h1m2 0h3m2 0h2m4 0h2m2 0h1m3 0h3m1 0h1m2 0h2m2 0h1m2 0h2m1 0h1m4 0h1m2 0h2m2 0h2m2 0h1m1 0h3m2 0h1m1 0h1m1 0h2m1 0h1m2 0h1m1 0h2m2 0h1M6 112.5h1m1 0h1m1 0h2m1 0h1m1 0h3m1 0h7m2 0h2m3 0h1m1 0h2m2 0h3m1 0h2m1 0h4m1 0h3m1 0h2m1 0h1m4 0h2m1 0h5m2 0h6m2 0h4m5 0h1m2 0h4m1 0h8m2 0h3m1 0h5m2 0h1m5 0h1m2 0h1m1 0h1m1 0h1m1 0h1m1 0h1m1 0h2m6 0h2M9 113.5h1m1 0h2m1 0h6m3 0h3m1 0h2m3 0h8m1 0h3m6 0h3m1 0h1m4 0h2m1 0h3m5 0h8m2 0h4m2 0h4m8 0h1m2 0h1m2 0h2m1 0h3m1 0h1m2 0h2m2 0h1m1 0h2m2 0h1m8 0h3m3 0h1m1 0h3m1 0h1M4 114.5h2m1 0h6m2 0h1m2 0h2m2 0h1m1 0h1m3 0h1m1 0h3m3 0h5m1 0h1m1 0h1m3 0h1m1 0h1m1 0h2m1 0h1m1 0h1m2 0h1m1 0h6m1 0h2m2 0h2m1 0h1m2 0h1m1 0h1m2 0h3m1 0h8m2 0h6m1 0h2m2 0h4m1 0h6m1 0h1m1 0h2m3 0h1m1 0h2m1 0h3m4 0h5m2 0h2M4 115.5h1m1 0h3m3 0h1m3 0h2m2 0h2m3 0h1m1 0h3m2 0h1m1 0h1m1 0h1m3 0h2m4 0h1m2 0h1m3 0h1m5 0h4m3 0h3m4 0h1m6 0h1m1 0h1m2 0h1m1 0h2m3 0h3m1 0h1m2 0h3m1 0h1m2 0h1m2 0h1m2 0h3m3 0h1m1 0h3m1 0h5m5 0h1m1 0h2m2 0h1m3 0h2m2 0h1M7 116.5h2m1 0h1m1 0h2m1 0h5m2 0h1m2 0h2m3 0h1m3 0h3m1 0h1m1 0h1m2 0h4m1 0h2m1 0h1m3 0h8m1 0h1m1 0h1m1 0h3m6 0h3m1 0h1m2 0h1m2 0h2m1 0h1m1 0h1m2 0h9m1 0h1m4 0h5m1 0h1m1 0h2m1 0h2m1 0h2m3 0h2m3 0h1m2 0h1m1 0h2m1 0h1m1 0h4M5 117.5h2m1 0h1m3 0h1m2 0h3m1 0h1m1 0h3m1 0h1m3 0h1m1 0h6m3 0h3m7 0h3m1 0h1m6 0h2m3 0h1m1 0h4m3 0h1m1 0h2m2 0h3m1 0h2m1 0h1m3 0h3m1 0h1m5 0h1m1 0h3m1 0h1m5 0h1m3 0h2m1 0h1m1 0h2m2 0h2m1 0h1m1 0h5m1 0h3m3 0h2M4 118.5h2m1 0h9m2 0h1m1 0h2m2 0h1m2 0h2m1 0h1m3 0h1m1 0h5m2 0h3m4 0h6m1 0h1m4 0h6m1 0h2m1 0h3m1 0h1m2 0h1m1 0h1m2 0h2m1 0h8m2 0h1m1 0h2m2 0h1m2 0h2m4 0h8m1 0h1m1 0h2m1 0h1m1 0h1m1 0h4m1 0h2m1 0h7m3 0h1M5 119.5h1m7 0h2m1 0h1m4 0h5m1 0h1m5 0h1m1 0h1m1 0h1m1 0h4m1 0h1m3 0h1m2 0h1m1 0h1m1 0h2m1 0h2m2 0h2m2 0h3m3 0h3m5 0h1m1 0h1m2 0h1m2 0h1m1 0h2m1 0h2m2 0h1m1 0h3m4 0h1m2 0h1m1 0h1m2 0h1m1 0h2m7 0h1m1 0h3m3 0h2m1 0h2m1 0h3m1 0h1m1 0h1m2 0h1M4 120.5h1m1 0h2m2 0h3m2 0h2m9 0h1m8 0h1m4 0h1m2 0h3m1 0h3m5 0h4m1 0h3m2 0h1m3 0h1m1 0h1m2 0h1m2 0h1m3 0h1m5 0h1m1 0h1m1 0h3m4 0h2m2 0h1m5 0h5m1 0h1m5 0h1m1 0h1m1 0h1m1 0h2m1 0h2m1 0h1m2 0h1m5 0h4m1 0h3M4 121.5h6m1 0h2m3 0h1m2 0h1m4 0h1m1 0h2m1 0h1m2 0h1m1 0h1m1 0h2m1 0h4m3 0h1m2 0h2m1 0h4m5 0h1m2 0h1m1 0h1m2 0h3m3 0h1m5 0h5m1 0h4m2 0h2m1 0h3m2 0h1m2 0h2m2 0h1m2 0h1m1 0h1m1 0h2m1 0h1m1 0h1m2 0h2m5 0h1m2 0h2m1 0h1m1 0h1m2 0h1m3 0h1M7 122.5h5m3 0h2m2 0h3m2 0h1m1 0h2m3 0h4m3 0h1m1 0h2m1 0h4m2 0h2m2 0h1m1 0h2m2 0h2m1 0h3m1 0h3m4 0h2m2 0h1m1 0h2m3 0h3m1 0h1m2 0h1m2 0h2m1 0h1m1 0h3m1 0h1m2 0h2m1 0h1m1 0h5m2 0h2m1 0h4m2 0h2m1 0h2m1 0h2m4 0h3m1 0h2m2 0h2M7 123.5h1m1 0h1m3 0h2m1 0h2m1 0h2m3 0h2m1 0h1m1 0h5m1 0h2m4 0h1m2 0h1m1 0h4m2 0h1m2 0h1m1 0h2m4 0h2m2 0h2m1 0h1m2 0h2m1 0h1m2 0h1m2 0h1m2 0h1m2 0h4m2 0h2m3 0h1m1 0h1m1 0h1m1 0h2m2 0h1m1 0h5m1 0h2m3 0h1m1 0h2m1 0h1m1 0h1m2 0h1m1 0h1m1 0h3m3 0h1m1 0h2m1 0h2M6 124.5h3m1 0h1m1 0h2m5 0h1m1 0h1m1 0h1m1 0h2m3 0h1m4 0h2m3 0h1m2 0h7m5 0h4m1 0h2m3 0h1m1 0h3m1 0h1m3 0h1m2 0h1m1 0h5m1 0h4m1 0h2m2 0h2m1 0h1m3 0h1m1 0h1m2 0h1m1 0h2m3 0h1m1 0h1m1 0h1m2 0h2m3 0h3m2 0h1m7 0h2m1 0h1m1 0h1m1 0h1M7 125.5h1m3 0h1m3 0h2m1 0h1m2 0h2m1 0h1m1 0h1m1 0h1m1 0h5m2 0h1m2 0h3m6 0h2m1 0h1m1 0h1m2 0h2m2 0h5m2 0h1m1 0h2m5 0h2m2 0h3m1 0h1m3 0h2m4 0h2m2 0h1m2 0h4m2 0h2m3 0h1m1 0h5m4 0h2m1 0h1m2 0h1m1 0h7m2 0h1m3 0h2M4 126.5h8m1 0h2m2 0h2m1 0h1m1 0h1m7 0h1m2 0h2m1 0h3m1 0h2m2 0h4m2 0h3m2 0h1m1 0h3m2 0h1m1 0h1m2 0h2m3 0h2m5 0h1m1 0h2m2 0h2m1 0h3m3 0h2m4 0h2m1 0h1m1 0h3m1 0h4m2 0h1m3 0h3m1 0h2m1 0h1m4 0h3m1 0h1m2 0h2m3 0h1m1 0h4M4 127.5h1m8 0h2m2 0h1m1 0h2m2 0h2m2 0h4m2 0h1m2 0h3m2 0h1m1 0h1m1 0h1m1 0h2m2 0h1m1 0h2m1 0h1m1 0h1m2 0h4m2 0h1m2 0h1m2 0h1m4 0h3m2 0h1m1 0h2m2 0h2m1 0h1m1 0h1m1 0h2m1 0h3m4 0h1m1 0h2m1 0h2m4 0h2m3 0h1m1 0h2m1 0h4m3 0h1m1 0h5m3 0h1m2 0h2M4 128.5h5m1 0h1m2 0h3m5 0h1m1 0h1m1 0h2m4 0h2m1 0h2m2 0h3m3 0h1m1 0h1m1 0h2m5 0h1m2 0h1m1 0h3m2 0h5m1 0h1m2 0h1m1 0h2m2 0h2m7 0h1m2 0h1m2 0h2m1 0h2m1 0h4m2 0h2m1 0h3m1 0h1m5 0h2m3 0h1m1 0h1m3 0h3m3 0h2m1 0h3m1 0h4M4 129.5h1m1 0h1m1 0h1m2 0h2m1 0h1m1 0h3m2 0h1m1 0h1m2 0h1m2 0h6m1 0h2m1 0h2m1 0h2m5 0h6m1 0h2m3 0h1m2 0h2m3 0h1m1 0h1m1 0h1m1 0h1m5 0h4m1 0h3m1 0h1m2 0h1m1 0h2m1 0h1m2 0h5m2 0h1m2 0h1m1 0h1m1 0h2m2 0h1m1 0h1m7 0h2m3 0h2m1 0h2m1 0h2m1 0h1m1 0h3M4 130.5h2m4 0h3m1 0h1m2 0h1m1 0h1m1 0h3m2 0h1m1 0h2m3 0h1m2 0h3m2 0h2m2 0h1m2 0h1m1 0h3m1 0h3m3 0h1m2 0h2m2 0h2m5 0h1m1 0h2m1 0h1m1 0h1m2 0h2m2 0h2m4 0h2m3 0h3m1 0h1m3 0h1m3 0h5m4 0h2m1 0h1m4 0h1m1 0h2m1 0h4m2 0h1m2 0h1m1 0h2m1 0h2M5 131.5h1m1 0h2m6 0h1m4 0h5m3 0h1m2 0h4m2 0h1m5 0h1m2 0h1m9 0h2m1 0h2m1 0h2m2 0h3m3 0h2m1 0h2m6 0h3m2 0h3m2 0h2m4 0h3m4 0h3m2 0h2m4 0h1m3 0h2m2 0h1m1 0h3m7 0h4m2 0h1m1 0h1m2 0h1M5 132.5h1m1 0h1m2 0h1m3 0h4m1 0h1m2 0h2m4 0h1m1 0h1m2 0h1m1 0h2m2 0h2m2 0h2m1 0h3m2 0h1m3 0h2m1 0h1m1 0h1m3 0h3m2 0h2m1 0h1m3 0h2m1 0h3m2 0h1m7 0h1m2 0h1m2 0h2m2 0h1m4 0h2m1 0h1m9 0h2m6 0h3m1 0h1m2 0h1m1 0h2m3 0h1m1 0h5M4 133.5h4m1 0h1m1 0h1m1 0h1m1 0h2m1 0h1m1 0h4m3 0h3m2 0h3m1 0h1m2 0h1m1 0h3m1 0h1m1 0h1m1 0h2m1 0h3m2 0h1m1 0h1m1 0h5m4 0h3m2 0h1m5 0h3m5 0h2m5 0h1m2 0h1m4 0h2m1 0h3m3 0h1m1 0h1m4 0h3m4 0h2m1 0h2m1 0h1m4 0h1m4 0h1m1 0h3M4 134.5h2m2 0h5m2 0h4m2 0h4m1 0h3m6 0h2m1 0h2m2 0h1m2 0h3m2 0h4m1 0h1m1 0h1m1 0h1m2 0h1m1 0h1m1 0h3m1 0h1m2 0h2m1 0h1m1 0h3m3 0h3m2 0h1m2 0h3m2 0h2m1 0h4m1 0h1m1 0h1m3 0h2m6 0h1m1 0h1m1 0h1m4 0h1m2 0h1m1 0h1m1 0h1m3 0h2m3 0h2m1 0h2M4 135.5h1m3 0h2m1 0h2m1 0h3m2 0h2m1 0h1m1 0h2m1 0h1m1 0h1m1 0h3m4 0h1m2 0h1m1 0h3m3 0h2m2 0h1m2 0h1m1 0h1m1 0h1m5 0h2m4 0h2m1 0h2m1 0h2m3 0h1m1 0h2m2 0h3m1 0h2m2 0h1m1 0h1m1 0h1m1 0h1m1 0h3m1 0h1m5 0h3m4 0h1m2 0h1m1 0h1m1 0h2m1 0h1m3 0h2m1 0h1m2 0h2m1 0h1m1 0h2M4 136.5h5m1 0h1m6 0h2m1 0h1m1 0h4m2 0h5m3 0h2m2 0h2m1 0h4m1 0h1m1 0h1m2 0h1m1 0h4m1 0h1m2 0h2m1 0h1m2 0h1m4 0h1m1 0h7m4 0h1m3 0h2m3 0h3m1 0h4m6 0h1m1 0h1m1 0h1m2 0h2m1 0h1m3 0h1m1 0h1m1 0h4m6 0h1m3 0h1m1 0h3m1 0h1M4 137.5h1m1 0h1m1 0h1m3 0h1m3 0h2m2 0h1m1 0h1m2 0h2m3 0h2m1 0h1m5 0h3m1 0h1m5 0h1m2 0h1m1 0h1m3 0h2m1 0h3m1 0h1m3 0h1m2 0h1m2 0h1m1 0h2m2 0h1m1 0h1m1 0h3m2 0h1m2 0h1m3 0h1m4 0h3m1 0h1m1 0h2m3 0h3m1 0h5m5 0h1m4 0h2m1 0h1m2 0h1m1 0h2m1 0h1m1 0h2m1 0h1M4 138.5h1m1 0h1m3 0h1m4 0h4m1 0h1m2 0h2m1 0h1m2 0h4m2 0h4m2 0h2m2 0h1m1 0h3m1 0h1m10 0h3m2 0h1m1 0h1m1 0h1m1 0h2m2 0h1m1 0h2m1 0h1m3 0h1m2 0h1m2 0h1m1 0h2m1 0h4m2 0h1m3 0h1m1 0h1m2 0h3m1 0h1m3 0h3m7 0h2m1 0h1m1 0h1m3 0h1m1 0h1m2 0h2m1 0h2M5 139.5h2m7 0h2m4 0h1m4 0h2m1 0h3m2 0h3m2 0h3m2 0h2m1 0h2m2 0h1m1 0h1m1 0h1m3 0h1m2 0h1m1 0h1m2 0h3m1 0h4m1 0h2m1 0h3m3 0h3m5 0h3m2 0h1m2 0h2m3 0h2m1 0h1m2 0h1m2 0h1m2 0h1m8 0h4m2 0h1m1 0h1m2 0h1m2 0h2m1 0h1m1 0h1M4 140.5h1m1 0h2m1 0h4m1 0h4m5 0h4m3 0h2m3 0h7m1 0h4m1 0h1m2 0h1m1 0h1m1 0h4m1 0h8m1 0h1m1 0h2m2 0h1m1 0h1m2 0h2m5 0h6m4 0h4m1 0h3m2 0h2m3 0h1m1 0h5m1 0h1m3 0h2m1 0h1m1 0h2m1 0h2m2 0h2m2 0h8M12 141.5h1m2 0h2m1 0h1m1 0h1m1 0h4m4 0h2m1 0h4m3 0h1m2 0h1m3 0h1m2 0h1m1 0h1m1 0h2m5 0h2m3 0h1m2 0h4m2 0h1m1 0h4m1 0h3m3 0h1m3 0h1m1 0h1m1 0h4m2 0h3m1 0h1m1 0h1m1 0h1m3 0h1m3 0h2m1 0h1m1 0h4m4 0h1m1 0h2m2 0h4m3 0h1m1 0h1M4 142.5h7m1 0h4m1 0h1m2 0h1m1 0h2m1 0h2m1 0h2m2 0h1m3 0h1m1 0h1m1 0h1m4 0h2m1 0h1m3 0h1m1 0h1m6 0h2m1 0h1m1 0h2m1 0h1m2 0h2m2 0h1m2 0h1m1 0h2m2 0h4m1 0h1m1 0h3m5 0h3m6 0h2m1 0h3m1 0h1m1 0h4m1 0h2m3 0h1m2 0h6m3 0h1m1 0h1m1 0h5M4 143.5h1m5 0h1m3 0h1m2 0h1m4 0h2m3 0h1m3 0h1m3 0h2m3 0h2m3 0h3m2 0h4m3 0h1m2 0h3m3 0h2m1 0h6m4 0h2m3 0h3m1 0h1m3 0h1m1 0h4m2 0h1m4 0h2m1 0h1m3 0h3m3 0h1m3 0h1m2 0h1m1 0h1m1 0h2m1 0h1m3 0h5m3 0h1M4 144.5h1m1 0h3m1 0h1m1 0h1m1 0h1m6 0h1m1 0h1m2 0h1m3 0h2m2 0h1m1 0h5m2 0h2m1 0h1m2 0h1m2 0h2m1 0h6m1 0h6m3 0h1m2 0h4m1 0h1m1 0h2m3 0h1m1 0h6m3 0h3m1 0h2m2 0h1m1 0h3m4 0h5m1 0h1m1 0h3m2 0h2m3 0h2m1 0h1m1 0h10m1 0h1M4 145.5h1m1 0h3m1 0h1m1 0h3m1 0h4m5 0h2m1 0h1m1 0h1m1 0h4m1 0h7m3 0h1m2 0h2m2 0h1m10 0h2m1 0h4m1 0h1m1 0h1m4 0h4m1 0h1m1 0h3m1 0h3m1 0h4m2 0h2m1 0h3m1 0h1m4 0h2m1 0h1m1 0h1m1 0h3m3 0h2m3 0h1m4 0h1m2 0h7m2 0h1M4 146.5h1m1 0h3m1 0h1m1 0h1m2 0h1m2 0h1m3 0h1m2 0h1m3 0h4m3 0h1m1 0h1m1 0h1m2 0h2m3 0h3m4 0h3m6 0h2m1 0h1m5 0h2m2 0h1m1 0h1m1 0h2m3 0h2m2 0h1m9 0h2m1 0h1m2 0h2m1 0h1m2 0h5m2 0h1m1 0h1m1 0h1m4 0h1m1 0h2m1 0h4m1 0h1m2 0h1m1 0h1m4 0h1M4 147.5h1m5 0h1m1 0h1m1 0h2m1 0h3m1 0h1m2 0h3m1 0h4m5 0h1m1 0h1m1 0h1m3 0h2m2 0h1m1 0h1m2 0h2m1 0h6m1 0h1m1 0h3m4 0h4m1 0h3m3 0h4m1 0h2m2 0h5m2 0h1m4 0h2m1 0h1m2 0h3m1 0h1m6 0h1m2 0h3m1 0h2m1 0h1m4 0h1m2 0h2m1 0h1m1 0h1m2 0h1M4 148.5h7m1 0h3m1 0h1m4 0h1m3 0h2m1 0h3m1 0h1m6 0h1m1 0h1m1 0h2m1 0h1m1 0h1m4 0h1m2 0h1m1 0h2m3 0h1m2 0h1m2 0h3m2 0h4m1 0h1m1 0h2m3 0h1m1 0h1m1 0h3m3 0h3m1 0h5m1 0h3m1 0h5m2 0h1m1 0h1m1 0h1m1 0h1m1 0h1m1 0h4m5 0h2m1 0h1m1 0h1m4 0h3"/></svg>
