<?xml version="1.0" encoding="utf-8"?><!DOCTYPE svg PUBLIC "-//W3C//DTD SVG 1.1//EN" "http://www.w3.org/Graphics/SVG/1.1/DTD/svg11.dtd"><svg xmlns="http://www.w3.org/2000/svg" viewBox="0 0 117 117" shape-rendering="crispEdges"><path fill="#ffffff" d="M0 0h117v117H0z"/><path stroke="#000000" d="M4 4.5h7m1 0h2m1 0h1m1 0h1m1 0h3m2 0h2m2 0h3m1 0h1m4 0h1m1 0h1m1 0h1m4 0h1m1 0h5m1 0h1m1 0h2m1 0h6m1 0h1m1 0h4m2 0h1m1 0h1m1 0h1m1 0h1m3 0h1m1 0h2m2 0h1m1 0h1m1 0h1m2 0h3m1 0h1m2 0h1m1 0h7M4 5.5h1m5 0h1m1 0h1m1 0h2m1 0h1m3 0h2m7 0h1m1 0h4m3 0h1m2 0h6m1 0h1m3 0h2m1 0h1m1 0h1m6 0h2m1 0h3m7 0h6m3 0h1m1 0h6m2 0h1m1 0h1m2 0h1m1 0h1m1 0h1m5 0h1M4 6.5h1m1 0h3m1 0h1m1 0h1m1 0h4m1 0h1m3 0h1m2 0h1m2 0h2m1 0h4m6 0h1m1 0h4m1 0h1m4 0h6m5 0h2m1 0h1m1 0h2m1 0h1m3 0h6m2 0h1m1 0h1m2 0h5m2 0h1m3 0h4m1 0h1m1 0h3m1 0h1M4 7.5h1m1 0h3m1 0h1m1 0h2m1 0h2m3 0h2m1 0h1m1 0h3m3 0h2m2 0h3m3 0h1m2 0h1m1 0h4m3 0h1m2 0h5m4 0h3m1 0h1m3 0h1m1 0h1m2 0h1m1 0h1m4 0h1m1 0h1m1 0h2m4 0h1m2 0h1m2 0h3m2 0h1m1 0h3m1 0h1M4 8.5h1m1 0h3m1 0h1m8 0h2m4 0h1m1 0h1m2 0h7m3 0h5m1 0h2m1 0h1m3 0h8m1 0h1m2 0h1m1 0h1m1 0h1m1 0h1m3 0h11m1 0h1m1 0h2m3 0h2m3 0h6m1 0h1m1 0h3m1 0h1M4 9.5h1m5 0h1m1 0h2m4 0h1m4 0h1m1 0h1m3 0h2m1 0h1m3 0h1m3 0h3m2 0h5m2 0h5m3 0h4m4 0h3m4 0h1m2 0h3m3 0h1m2 0h1m2 0h1m1 0h3m2 0h1m3 0h1m1 0h1m2 0h1m5 0h1M4 10.5h7m1 0h1m1 0h1m1 0h1m1 0h1m1 0h1m1 0h1m1 0h1m1 0h1m1 0h1m1 0h1m1 0h1m1 0h1m1 0h1m1 0h1m1 0h1m1 0h1m1 0h1m1 0h1m1 0h1m1 0h1m1 0h1m1 0h1m1 0h1m1 0h1m1 0h1m1 0h1m1 0h1m1 0h1m1 0h1m1 0h1m1 0h1m1 0h1m1 0h1m1 0h1m1 0h1m1 0h1m1 0h1m1 0h1m1 0h1m1 0h1m1 0h1m1 0h1m1 0h1m1 0h1m1 0h1m1 0h1m1 0h1m1 0h7M13 11.5h1m4 0h5m1 0h2m4 0h3m3 0h2m2 0h1m1 0h1m2 0h5m2 0h5m3 0h4m3 0h2m1 0h1m2 0h1m1 0h1m1 0h2m1 0h1m3 0h2m4 0h1m1 0h4m1 0h2m3 0h2M4 12.5h2m2 0h3m3 0h1m1 0h3m1 0h2m1 0h1m1 0h1m2 0h2m1 0h6m1 0h1m2 0h1m2 0h4m1 0h1m3 0h1m2 0h5m3 0h1m1 0h1m1 0h2m2 0h3m1 0h9m2 0h4m3 0h3m4 0h2m4 0h1m1 0h4M6 13.5h2m4 0h1m2 0h1m6 0h3m2 0h2m1 0h2m1 0h1m2 0h2m1 0h1m2 0h5m2 0h3m3 0h2m1 0h3m1 0h2m2 0h2m1 0h2m1 0h1m1 0h2m8 0h2m1 0h1m1 0h1m2 0h2m2 0h1m1 0h2m1 0h1m7 0h3M6 14.5h3m1 0h1m1 0h1m1 0h3m1 0h1m1 0h3m2 0h1m1 0h3m1 0h2m3 0h1m1 0h4m1 0h1m1 0h1m4 0h4m1 0h1m3 0h1m2 0h1m1 0h2m6 0h1m1 0h4m2 0h1m3 0h3m1 0h1m2 0h1m1 0h1m2 0h6m1 0h1m2 0h2m1 0h1m1 0h1M4 15.5h1m1 0h1m1 0h2m2 0h1m3 0h1m2 0h2m3 0h1m1 0h1m2 0h3m1 0h3m1 0h1m1 0h1m2 0h1m1 0h4m1 0h1m4 0h1m2 0h2m2 0h1m4 0h1m1 0h4m1 0h1m4 0h3m1 0h1m2 0h1m3 0h2m1 0h3m6 0h2m4 0h1m1 0h3M6 16.5h1m2 0h5m1 0h1m3 0h1m4 0h1m2 0h3m2 0h5m2 0h2m2 0h1m5 0h1m1 0h1m2 0h1m1 0h3m1 0h1m2 0h1m1 0h2m2 0h2m1 0h2m2 0h3m1 0h2m2 0h5m1 0h1m5 0h2m1 0h1m10 0h3M4 17.5h1m1 0h1m5 0h3m1 0h1m3 0h1m4 0h7m4 0h1m4 0h3m1 0h1m2 0h1m2 0h1m1 0h3m2 0h6m3 0h4m1 0h2m1 0h3m1 0h1m1 0h1m1 0h2m1 0h3m4 0h2m1 0h2m2 0h2m2 0h2m3 0h1m1 0h1M4 18.5h2m3 0h2m1 0h1m4 0h2m2 0h1m1 0h3m2 0h2m1 0h2m3 0h6m1 0h1m1 0h1m1 0h2m1 0h3m3 0h2m1 0h2m1 0h4m1 0h1m4 0h1m1 0h1m1 0h2m1 0h2m3 0h1m1 0h1m1 0h2m1 0h1m3 0h1m2 0h3m2 0h3m1 0h1M4 19.5h3m4 0h2m2 0h1m1 0h1m3 0h2m2 0h2m3 0h1m2 0h3m3 0h1m2 0h1m1 0h4m5 0h2m2 0h3m1 0h1m4 0h3m1 0h2m3 0h1m2 0h1m2 0h2m2 0h1m4 0h1m1 0h1m1 0h2m1 0h1m1 0h1m2 0h2m3 0h2m1 0h1M6 20.5h2m2 0h1m1 0h4m2 0h2m4 0h2m1 0h4m1 0h1m2 0h3m1 0h5m3 0h3m4 0h2m2 0h2m1 0h2m8 0h1m2 0h2m2 0h1m1 0h5m3 0h4m1 0h1m2 0h2m2 0h2m1 0h1m3 0h2m1 0h3M5 21.5h2m1 0h1m6 0h2m1 0h8m4 0h1m2 0h2m1 0h4m2 0h1m1 0h3m1 0h1m1 0h1m1 0h1m1 0h2m2 0h1m2 0h5m1 0h1m1 0h2m4 0h1m2 0h2m1 0h2m1 0h2m1 0h2m2 0h2m2 0h1m1 0h3m2 0h1m1 0h4m1 0h1M4 22.5h1m5 0h1m1 0h1m2 0h1m3 0h1m2 0h3m1 0h2m3 0h2m3 0h3m1 0h2m1 0h1m6 0h3m7 0h6m1 0h1m4 0h1m1 0h4m1 0h2m3 0h1m1 0h4m6 0h1m1 0h1m1 0h2m3 0h1m3 0h2M4 23.5h1m2 0h1m6 0h1m2 0h1m1 0h1m2 0h1m1 0h2m2 0h2m1 0h1m1 0h3m1 0h1m3 0h2m1 0h4m1 0h1m1 0h1m2 0h2m2 0h2m3 0h1m1 0h7m5 0h3m2 0h2m5 0h2m1 0h1m1 0h1m2 0h1m4 0h1m7 0h3M4 24.5h1m4 0h3m2 0h2m2 0h1m6 0h2m2 0h2m2 0h1m2 0h1m1 0h5m3 0h4m3 0h1m1 0h2m1 0h2m1 0h2m1 0h1m2 0h1m6 0h2m2 0h1m1 0h5m1 0h3m2 0h1m2 0h1m5 0h2m1 0h1m4 0h1m1 0h1m1 0h1M5 25.5h1m2 0h1m3 0h2m2 0h1m4 0h3m1 0h1m1 0h1m1 0h1m1 0h2m3 0h2m1 0h2m2 0h1m1 0h1m2 0h5m4 0h6m4 0h1m2 0h1m1 0h1m2 0h2m1 0h2m1 0h1m3 0h1m1 0h1m1 0h3m2 0h1m1 0h2m1 0h1m1 0h3m1 0h1m4 0h1M5 26.5h1m3 0h5m5 0h1m1 0h4m1 0h4m1 0h1m2 0h2m2 0h1m1 0h2m1 0h1m4 0h1m1 0h3m3 0h2m1 0h2m1 0h2m8 0h6m1 0h1m1 0h1m1 0h6m7 0h1m1 0h1m1 0h2m1 0h2m1 0h1m3 0h2M4 27.5h4m1 0h1m1 0h1m2 0h2m2 0h1m2 0h1m1 0h2m2 0h1m2 0h1m2 0h1m3 0h1m1 0h1m2 0h1m1 0h1m9 0h1m1 0h1m1 0h1m6 0h2m1 0h4m1 0h1m4 0h1m2 0h3m3 0h1m1 0h2m1 0h2m3 0h2m2 0h3m5 0h4M4 28.5h1m2 0h5m1 0h1m1 0h1m1 0h1m2 0h1m2 0h2m1 0h1m1 0h1m1 0h1m1 0h2m2 0h5m1 0h1m2 0h2m2 0h11m6 0h1m1 0h1m2 0h1m2 0h1m1 0h2m1 0h2m4 0h1m1 0h1m1 0h1m8 0h2m1 0h3m5 0h2m1 0h1M4 29.5h3m5 0h3m8 0h4m1 0h3m2 0h4m1 0h2m1 0h2m1 0h4m1 0h2m3 0h2m1 0h1m1 0h2m1 0h2m1 0h3m1 0h2m4 0h1m1 0h2m2 0h2m4 0h2m1 0h7m2 0h6m2 0h1m1 0h2M4 30.5h1m2 0h1m2 0h1m3 0h1m2 0h1m3 0h2m2 0h1m2 0h1m3 0h1m5 0h3m2 0h1m4 0h1m1 0h1m1 0h2m6 0h5m2 0h1m3 0h4m1 0h1m2 0h1m1 0h1m2 0h1m1 0h1m1 0h1m4 0h1m1 0h2m1 0h1m1 0h2m3 0h1m1 0h1m1 0h1m1 0h1M4 31.5h3m1 0h1m3 0h4m2 0h4m2 0h1m4 0h2m1 0h4m1 0h1m1 0h1m1 0h2m1 0h4m6 0h2m1 0h2m2 0h1m4 0h1m1 0h3m2 0h1m1 0h1m2 0h3m1 0h2m1 0h3m1 0h4m1 0h1m2 0h1m1 0h1m1 0h3m1 0h1m4 0h1M7 32.5h6m1 0h1m1 0h1m2 0h1m1 0h1m1 0h2m2 0h1m2 0h1m1 0h5m2 0h6m1 0h1m6 0h8m5 0h2m1 0h4m3 0h10m2 0h1m1 0h1m2 0h2m1 0h4m2 0h11M4 33.5h3m1 0h1m3 0h3m2 0h1m1 0h1m3 0h2m3 0h1m1 0h3m3 0h2m4 0h2m1 0h3m1 0h1m1 0h1m2 0h3m3 0h1m1 0h2m1 0h1m1 0h4m1 0h1m1 0h4m1 0h2m3 0h4m2 0h3m1 0h1m1 0h1m1 0h1m2 0h2m1 0h1m3 0h1m1 0h1M4 34.5h2m1 0h2m1 0h1m1 0h1m1 0h1m1 0h2m1 0h3m2 0h1m4 0h1m1 0h2m1 0h1m1 0h5m4 0h1m2 0h5m2 0h2m1 0h1m1 0h3m4 0h3m2 0h5m3 0h1m1 0h1m1 0h1m1 0h4m1 0h1m6 0h1m1 0h2m2 0h1m1 0h1m1 0h4M6 35.5h1m1 0h1m3 0h1m1 0h3m3 0h1m1 0h1m3 0h1m3 0h3m3 0h1m1 0h1m2 0h1m2 0h1m5 0h1m2 0h1m1 0h2m3 0h1m2 0h1m2 0h6m3 0h1m2 0h3m3 0h2m1 0h1m2 0h6m1 0h1m4 0h3m3 0h5M4 36.5h2m1 0h6m1 0h1m1 0h3m5 0h2m2 0h2m2 0h6m2 0h1m1 0h4m3 0h6m1 0h10m2 0h3m3 0h2m1 0h1m2 0h5m2 0h2m1 0h1m2 0h1m2 0h2m1 0h12m1 0h1M4 37.5h1m2 0h1m1 0h1m1 0h2m3 0h9m3 0h3m8 0h1m1 0h2m3 0h3m1 0h4m5 0h2m3 0h1m1 0h3m1 0h4m1 0h2m3 0h1m2 0h2m1 0h1m1 0h4m1 0h2m1 0h1m2 0h4m2 0h1m2 0h1M5 38.5h1m1 0h4m2 0h1m1 0h1m1 0h1m4 0h1m1 0h5m3 0h2m1 0h1m2 0h1m1 0h1m6 0h7m1 0h1m2 0h2m2 0h1m1 0h2m1 0h1m1 0h1m2 0h1m1 0h1m1 0h2m2 0h2m1 0h1m1 0h4m2 0h1m1 0h1m2 0h5m3 0h2m2 0h1M5 39.5h1m1 0h1m4 0h5m1 0h1m8 0h1m2 0h1m2 0h1m2 0h2m1 0h1m2 0h6m6 0h1m4 0h3m4 0h6m1 0h1m4 0h1m1 0h2m2 0h1m5 0h3m1 0h1m2 0h1m3 0h4m2 0h1m1 0h2M9 40.5h5m1 0h3m1 0h1m3 0h1m3 0h1m2 0h1m5 0h1m2 0h2m1 0h1m1 0h4m1 0h1m10 0h3m1 0h2m8 0h5m1 0h2m2 0h4m3 0h1m4 0h3m1 0h1m3 0h1m1 0h2m2 0h1M4 41.5h1m2 0h2m3 0h1m1 0h4m1 0h6m4 0h2m1 0h1m2 0h1m2 0h1m1 0h3m2 0h2m2 0h1m1 0h1m1 0h2m2 0h1m2 0h2m2 0h1m2 0h1m3 0h2m2 0h2m3 0h1m2 0h1m2 0h1m2 0h2m2 0h3m1 0h1m1 0h3m1 0h3m1 0h3m1 0h1M5 42.5h1m1 0h2m1 0h1m1 0h3m1 0h2m2 0h4m1 0h1m1 0h2m2 0h3m1 0h6m6 0h2m1 0h4m2 0h4m1 0h2m1 0h2m1 0h1m4 0h3m1 0h2m1 0h2m5 0h4m3 0h1m2 0h6m3 0h6M5 43.5h1m2 0h2m1 0h2m5 0h1m7 0h2m1 0h2m2 0h1m2 0h2m4 0h3m1 0h1m7 0h1m1 0h1m1 0h1m1 0h2m4 0h1m1 0h3m2 0h1m3 0h2m2 0h1m5 0h1m1 0h6m2 0h1m3 0h3m2 0h2m1 0h4M6 44.5h1m2 0h2m1 0h5m1 0h3m5 0h1m2 0h1m2 0h1m3 0h6m1 0h1m1 0h1m1 0h1m1 0h1m1 0h1m6 0h1m1 0h1m3 0h3m1 0h1m1 0h1m3 0h2m2 0h1m2 0h1m2 0h4m2 0h1m1 0h1m1 0h3m1 0h1m1 0h2m3 0h3m2 0h2M4 45.5h1m1 0h3m4 0h3m1 0h1m1 0h2m3 0h1m1 0h2m1 0h4m3 0h1m1 0h6m3 0h6m1 0h1m2 0h3m1 0h1m1 0h2m1 0h3m3 0h2m2 0h1m3 0h2m1 0h1m2 0h1m1 0h1m1 0h1m2 0h3m1 0h1m1 0h1m1 0h2m3 0h2m2 0h1M4 46.5h1m3 0h6m1 0h1m2 0h2m2 0h2m1 0h1m1 0h3m1 0h1m6 0h1m5 0h2m1 0h1m2 0h1m2 0h1m1 0h1m1 0h1m1 0h6m2 0h1m3 0h6m4 0h1m1 0h2m1 0h1m1 0h1m2 0h1m4 0h1m1 0h4m6 0h3M6 47.5h2m6 0h1m2 0h6m2 0h3m2 0h1m5 0h1m2 0h1m1 0h6m2 0h1m1 0h1m2 0h1m1 0h1m2 0h2m1 0h2m1 0h1m1 0h4m4 0h1m2 0h1m4 0h3m1 0h1m2 0h1m1 0h1m1 0h2m1 0h1m4 0h4m4 0h1m1 0h1M5 48.5h1m2 0h1m1 0h1m5 0h2m2 0h2m1 0h1m2 0h1m1 0h1m3 0h1m2 0h6m1 0h2m4 0h1m1 0h3m1 0h1m1 0h2m2 0h3m1 0h1m2 0h1m1 0h3m1 0h3m1 0h2m1 0h1m3 0h3m1 0h1m1 0h1m1 0h2m2 0h1m2 0h10m2 0h1M4 49.5h2m2 0h2m1 0h2m1 0h3m3 0h1m4 0h1m1 0h2m1 0h1m4 0h2m1 0h1m1 0h3m2 0h1m1 0h3m2 0h1m1 0h1m1 0h1m3 0h6m2 0h1m1 0h3m2 0h2m3 0h3m1 0h1m2 0h2m1 0h3m1 0h2m1 0h2m2 0h1m1 0h1m1 0h1m1 0h1m3 0h1M6 50.5h5m3 0h2m3 0h1m1 0h2m1 0h2m2 0h2m1 0h3m2 0h6m1 0h1m1 0h1m2 0h1m1 0h3m2 0h1m1 0h1m4 0h4m1 0h1m4 0h1m1 0h1m1 0h2m5 0h1m1 0h4m2 0h1m1 0h1m2 0h4m1 0h1m3 0h1m1 0h4M6 51.5h3m3 0h2m1 0h3m1 0h2m1 0h1m1 0h4m2 0h1m5 0h2m3 0h2m1 0h1m1 0h2m1 0h1m3 0h5m1 0h3m3 0h7m1 0h1m3 0h2m1 0h1m2 0h2m4 0h4m1 0h2m6 0h4m1 0h1m2 0h3M5 52.5h3m1 0h4m4 0h1m1 0h1m1 0h3m2 0h4m6 0h1m1 0h1m1 0h1m1 0h1m4 0h1m1 0h1m1 0h2m3 0h2m2 0h1m4 0h3m1 0h5m2 0h1m1 0h1m1 0h1m3 0h1m2 0h1m1 0h1m2 0h2m1 0h4m1 0h1m3 0h3m1 0h4M5 53.5h3m4 0h1m1 0h1m1 0h3m4 0h3m1 0h1m1 0h6m1 0h4m2 0h5m4 0h1m1 0h2m2 0h3m1 0h1m1 0h2m3 0h2m1 0h1m3 0h4m3 0h4m1 0h2m1 0h1m2 0h3m1 0h1m1 0h3m2 0h1m2 0h1m2 0h1M4 54.5h3m3 0h7m4 0h1m4 0h3m3 0h1m2 0h1m2 0h1m1 0h2m1 0h1m3 0h2m1 0h1m1 0h2m1 0h2m2 0h2m1 0h4m3 0h1m2 0h5m2 0h6m1 0h4m1 0h1m3 0h1m2 0h1m1 0h1m3 0h1m3 0h1m1 0h1M4 55.5h1m1 0h1m5 0h2m1 0h1m3 0h1m1 0h1m1 0h2m5 0h1m1 0h1m2 0h3m3 0h2m1 0h4m1 0h1m4 0h1m6 0h1m3 0h2m1 0h3m2 0h1m1 0h1m2 0h1m1 0h1m3 0h2m4 0h1m1 0h4m1 0h1m1 0h1m2 0h3m1 0h2m2 0h2M4 56.5h1m1 0h8m1 0h1m2 0h1m1 0h6m6 0h5m2 0h2m1 0h1m2 0h1m1 0h1m1 0h6m1 0h5m2 0h1m2 0h1m2 0h5m2 0h3m1 0h6m1 0h1m2 0h1m3 0h3m1 0h1m1 0h1m1 0h1m1 0h5m1 0h2M4 57.5h2m1 0h2m3 0h4m1 0h1m2 0h1m1 0h2m1 0h1m1 0h3m1 0h2m3 0h1m4 0h6m3 0h1m1 0h2m1 0h2m3 0h3m5 0h1m1 0h2m3 0h3m2 0h1m3 0h1m2 0h1m1 0h3m4 0h2m1 0h1m3 0h2m3 0h1m2 0h1M7 58.5h2m1 0h1m1 0h2m1 0h1m5 0h6m2 0h4m1 0h1m1 0h1m1 0h4m1 0h2m2 0h6m2 0h2m1 0h1m1 0h6m1 0h1m3 0h7m1 0h2m1 0h1m1 0h1m1 0h4m1 0h1m3 0h2m1 0h4m2 0h1m1 0h1m1 0h1m1 0h1M5 59.5h2m1 0h1m3 0h1m2 0h1m1 0h1m3 0h1m1 0h1m3 0h1m3 0h2m3 0h3m3 0h1m1 0h4m1 0h1m1 0h1m2 0h3m3 0h2m4 0h1m1 0h1m1 0h2m1 0h1m6 0h1m3 0h2m6 0h4m1 0h1m1 0h1m2 0h3m3 0h1m1 0h1M4 60.5h1m1 0h1m1 0h5m1 0h3m1 0h8m1 0h10m5 0h2m1 0h1m2 0h2m1 0h2m2 0h6m3 0h4m1 0h3m1 0h5m2 0h9m2 0h1m1 0h2m2 0h1m1 0h2m1 0h9m1 0h1M5 61.5h1m1 0h3m1 0h3m4 0h1m3 0h2m1 0h2m1 0h1m3 0h1m1 0h1m1 0h1m2 0h1m2 0h2m1 0h2m1 0h2m3 0h1m1 0h2m5 0h3m1 0h5m7 0h1m1 0h1m3 0h1m1 0h1m2 0h1m1 0h1m1 0h2m6 0h3m2 0h1m1 0h1m1 0h2M5 62.5h1m1 0h11m1 0h3m1 0h4m1 0h2m1 0h4m2 0h2m1 0h1m2 0h1m1 0h1m2 0h1m1 0h3m3 0h2m2 0h5m2 0h1m4 0h1m1 0h4m2 0h1m4 0h2m1 0h1m2 0h1m1 0h1m1 0h2m1 0h4m2 0h3M7 63.5h1m1 0h1m1 0h3m4 0h1m1 0h3m4 0h1m2 0h3m2 0h1m1 0h1m1 0h1m2 0h5m2 0h1m4 0h4m1 0h3m4 0h1m1 0h4m1 0h1m4 0h2m1 0h1m1 0h1m5 0h7m1 0h2m3 0h2m3 0h1m2 0h2M5 64.5h1m2 0h1m1 0h3m1 0h2m1 0h4m2 0h4m1 0h1m2 0h1m1 0h2m2 0h1m1 0h2m3 0h2m1 0h3m1 0h1m2 0h2m1 0h2m3 0h4m2 0h3m1 0h4m3 0h4m4 0h1m3 0h1m3 0h2m1 0h1m2 0h2m1 0h3m1 0h4M4 65.5h1m1 0h3m2 0h4m2 0h1m3 0h1m1 0h3m1 0h1m2 0h2m4 0h1m2 0h2m1 0h1m5 0h1m2 0h2m2 0h2m2 0h2m2 0h5m1 0h1m7 0h1m2 0h2m2 0h4m2 0h1m1 0h2m2 0h2m2 0h4m2 0h1m1 0h2M9 66.5h3m3 0h6m2 0h1m1 0h4m2 0h2m1 0h2m2 0h3m6 0h2m1 0h4m1 0h2m2 0h1m2 0h3m2 0h1m3 0h2m1 0h1m1 0h2m2 0h5m1 0h4m1 0h1m3 0h2m1 0h1m2 0h1m1 0h1m1 0h4M6 67.5h4m1 0h1m2 0h2m6 0h1m1 0h2m4 0h1m1 0h1m9 0h1m1 0h3m2 0h1m1 0h1m2 0h2m1 0h1m1 0h3m1 0h1m2 0h1m1 0h4m1 0h1m3 0h3m1 0h1m3 0h1m1 0h1m2 0h3m1 0h1m2 0h1m4 0h1m5 0h1m1 0h1m1 0h1M5 68.5h3m2 0h1m1 0h1m1 0h2m1 0h1m1 0h3m1 0h1m1 0h2m2 0h1m3 0h3m1 0h3m4 0h2m1 0h4m1 0h1m5 0h1m2 0h1m2 0h4m2 0h3m3 0h1m2 0h5m2 0h4m1 0h1m3 0h1m1 0h1m2 0h1m3 0h3m1 0h1m1 0h1M4 69.5h3m2 0h1m2 0h3m2 0h2m1 0h1m4 0h1m1 0h1m2 0h1m1 0h1m3 0h1m1 0h2m1 0h1m1 0h2m2 0h1m2 0h1m2 0h1m1 0h3m2 0h2m1 0h3m1 0h1m3 0h2m3 0h3m1 0h2m1 0h3m4 0h1m1 0h1m1 0h4m7 0h4M4 70.5h2m2 0h1m1 0h2m2 0h1m1 0h4m2 0h1m2 0h5m2 0h2m5 0h5m2 0h3m2 0h8m2 0h3m5 0h1m1 0h4m1 0h1m2 0h2m1 0h2m2 0h1m1 0h2m3 0h1m2 0h1m1 0h4m1 0h2m1 0h3m1 0h2M6 71.5h3m5 0h3m3 0h1m1 0h2m1 0h3m2 0h1m4 0h5m4 0h2m3 0h2m4 0h2m7 0h8m5 0h6m1 0h2m1 0h1m2 0h1m1 0h4m5 0h2m1 0h1m3 0h3m1 0h1M5 72.5h1m2 0h1m1 0h4m1 0h2m2 0h1m1 0h2m2 0h3m1 0h1m1 0h1m2 0h4m2 0h1m2 0h1m1 0h2m3 0h1m1 0h1m5 0h1m2 0h1m11 0h3m2 0h1m1 0h4m4 0h1m4 0h1m5 0h1m2 0h1m1 0h1m1 0h5m1 0h1M5 73.5h2m1 0h2m1 0h1m1 0h1m4 0h2m1 0h1m5 0h4m1 0h3m2 0h1m2 0h2m1 0h1m1 0h2m3 0h1m3 0h3m2 0h3m1 0h1m1 0h3m1 0h2m2 0h2m2 0h1m1 0h2m3 0h2m1 0h1m1 0h2m1 0h1m3 0h1m2 0h2m1 0h2m1 0h3m2 0h1m1 0h1M7 74.5h1m1 0h3m3 0h1m3 0h1m2 0h1m2 0h1m1 0h2m2 0h2m3 0h1m1 0h4m1 0h1m4 0h6m1 0h3m3 0h5m1 0h1m3 0h2m1 0h4m1 0h2m1 0h1m2 0h2m1 0h1m2 0h1m4 0h1m1 0h3m2 0h2m1 0h1m2 0h3M7 75.5h1m5 0h2m1 0h1m1 0h6m2 0h2m2 0h3m2 0h4m3 0h3m1 0h2m3 0h1m2 0h1m1 0h5m2 0h1m2 0h1m1 0h1m1 0h2m1 0h1m3 0h3m3 0h1m3 0h1m1 0h2m1 0h1m1 0h2m6 0h2m2 0h3m1 0h2M4 76.5h2m1 0h2m1 0h1m8 0h4m1 0h1m1 0h2m1 0h1m1 0h4m3 0h1m1 0h3m6 0h1m2 0h1m2 0h2m1 0h1m3 0h1m1 0h1m4 0h2m1 0h1m5 0h5m4 0h2m1 0h1m2 0h1m1 0h1m2 0h1m2 0h2m1 0h3m1 0h1m1 0h3M4 77.5h2m1 0h1m1 0h1m2 0h1m1 0h6m1 0h1m2 0h3m4 0h2m3 0h1m1 0h2m1 0h1m2 0h1m1 0h1m6 0h1m2 0h1m3 0h1m2 0h8m1 0h1m1 0h2m1 0h2m1 0h1m3 0h1m1 0h1m2 0h4m1 0h2m3 0h1m1 0h1m3 0h4M6 78.5h2m2 0h1m1 0h1m1 0h1m4 0h2m1 0h2m1 0h5m2 0h1m1 0h2m2 0h3m2 0h1m4 0h1m1 0h3m3 0h4m1 0h2m1 0h2m1 0h1m1 0h1m2 0h1m1 0h4m2 0h2m2 0h1m1 0h1m1 0h1m4 0h1m2 0h6m1 0h1m2 0h2m1 0h3M4 79.5h1m1 0h1m7 0h1m1 0h1m3 0h1m5 0h1m3 0h1m1 0h3m2 0h2m3 0h1m1 0h1m1 0h1m2 0h2m2 0h2m4 0h1m1 0h1m4 0h6m6 0h1m1 0h2m1 0h3m1 0h1m2 0h3m1 0h1m2 0h1m4 0h1m2 0h2m1 0h1m1 0h1M5 80.5h1m1 0h6m1 0h1m2 0h4m1 0h2m4 0h1m3 0h6m3 0h2m2 0h1m4 0h1m3 0h10m7 0h2m1 0h1m2 0h1m1 0h7m1 0h2m4 0h2m1 0h4m4 0h5m1 0h3M6 81.5h3m3 0h1m1 0h1m1 0h2m1 0h1m7 0h1m1 0h1m2 0h1m3 0h3m1 0h3m4 0h1m4 0h1m1 0h1m1 0h1m3 0h1m1 0h1m1 0h2m1 0h1m1 0h7m2 0h3m3 0h1m2 0h4m1 0h1m1 0h1m2 0h1m3 0h1m2 0h1m3 0h1M5 82.5h1m2 0h1m1 0h1m1 0h2m2 0h1m3 0h2m1 0h2m1 0h1m1 0h2m1 0h2m1 0h1m1 0h1m1 0h2m3 0h2m5 0h2m4 0h1m1 0h1m1 0h1m3 0h4m3 0h4m1 0h2m1 0h2m1 0h1m1 0h1m1 0h1m1 0h1m2 0h1m4 0h1m1 0h3m3 0h1m1 0h1m1 0h1M5 83.5h1m2 0h1m3 0h1m1 0h2m5 0h1m1 0h4m3 0h1m1 0h1m3 0h2m2 0h1m1 0h1m3 0h3m3 0h1m1 0h1m1 0h1m3 0h4m4 0h1m1 0h1m4 0h1m1 0h4m3 0h2m3 0h7m1 0h1m4 0h3m3 0h1m1 0h1M4 84.5h2m1 0h6m3 0h1m2 0h1m5 0h2m1 0h1m1 0h9m3 0h1m1 0h2m1 0h1m1 0h1m6 0h6m1 0h1m2 0h2m1 0h1m1 0h3m1 0h10m3 0h1m1 0h2m2 0h1m2 0h1m3 0h2m1 0h5m1 0h1M4 85.5h3m1 0h1m2 0h2m2 0h7m2 0h1m4 0h1m2 0h4m2 0h2m1 0h6m4 0h1m1 0h2m3 0h2m4 0h6m3 0h1m3 0h1m4 0h2m1 0h1m4 0h2m4 0h1m2 0h1m2 0h1m1 0h3m1 0h1M7 86.5h2m1 0h1m2 0h3m2 0h1m1 0h1m2 0h3m2 0h2m1 0h2m5 0h4m1 0h1m4 0h1m1 0h3m2 0h1m1 0h3m2 0h3m2 0h1m4 0h1m1 0h4m1 0h1m1 0h3m1 0h5m3 0h1m2 0h6m1 0h3m2 0h2M4 87.5h4m1 0h1m2 0h1m4 0h4m1 0h3m2 0h1m1 0h2m1 0h1m1 0h1m2 0h1m1 0h1m2 0h1m1 0h4m5 0h2m1 0h2m7 0h7m6 0h2m1 0h5m3 0h1m2 0h1m1 0h1m2 0h1m3 0h2m3 0h5M5 88.5h2m3 0h3m1 0h5m2 0h3m3 0h2m2 0h2m1 0h1m1 0h2m1 0h2m1 0h1m1 0h3m1 0h1m1 0h2m1 0h1m1 0h4m2 0h3m1 0h2m3 0h2m3 0h7m3 0h1m5 0h1m1 0h5m6 0h2m4 0h1M4 89.5h2m5 0h1m2 0h3m2 0h2m3 0h2m3 0h2m2 0h3m1 0h1m2 0h3m4 0h1m4 0h3m3 0h2m2 0h1m2 0h1m1 0h1m2 0h1m6 0h1m2 0h1m1 0h2m3 0h1m1 0h1m4 0h1m1 0h2m1 0h1m1 0h1m3 0h5M4 90.5h2m1 0h4m3 0h2m2 0h1m5 0h1m1 0h1m1 0h1m2 0h5m1 0h4m2 0h1m4 0h5m2 0h1m6 0h1m1 0h2m1 0h1m4 0h1m1 0h1m1 0h1m2 0h5m2 0h4m3 0h1m1 0h1m2 0h4m5 0h1m1 0h2M4 91.5h1m2 0h1m7 0h2m3 0h4m2 0h1m2 0h4m1 0h2m3 0h1m2 0h1m1 0h4m6 0h1m1 0h3m4 0h1m2 0h1m1 0h2m1 0h1m1 0h1m4 0h1m4 0h3m4 0h1m1 0h4m1 0h1m1 0h1m2 0h1m2 0h2m3 0h1m1 0h1M4 92.5h1m3 0h1m1 0h1m1 0h2m2 0h5m1 0h1m2 0h2m2 0h3m6 0h7m1 0h1m1 0h3m2 0h2m1 0h4m1 0h5m1 0h4m1 0h3m1 0h2m1 0h1m1 0h2m3 0h1m2 0h2m2 0h2m2 0h2m1 0h2m2 0h1m1 0h2m1 0h2M5 93.5h2m1 0h1m2 0h1m1 0h1m1 0h8m1 0h1m2 0h1m2 0h1m2 0h3m1 0h1m2 0h1m1 0h1m2 0h2m1 0h1m1 0h2m2 0h2m1 0h3m3 0h2m1 0h2m2 0h1m6 0h2m3 0h4m2 0h1m1 0h1m1 0h5m1 0h2m1 0h2m5 0h2M4 94.5h1m1 0h7m1 0h2m1 0h1m2 0h2m1 0h1m1 0h3m3 0h2m2 0h1m2 0h3m2 0h1m3 0h2m1 0h3m4 0h3m2 0h1m1 0h2m6 0h1m1 0h4m2 0h4m2 0h4m6 0h1m1 0h4m1 0h2m4 0h2M4 95.5h3m1 0h1m2 0h1m7 0h2m4 0h2m1 0h2m2 0h1m4 0h1m4 0h1m1 0h4m5 0h2m1 0h2m2 0h2m4 0h5m2 0h1m4 0h3m1 0h1m2 0h1m4 0h1m1 0h1m1 0h2m1 0h1m1 0h1m1 0h2m1 0h4m2 0h3M6 96.5h5m1 0h1m4 0h1m2 0h1m1 0h3m4 0h2m1 0h3m2 0h2m1 0h2m1 0h3m1 0h6m2 0h2m1 0h1m1 0h1m1 0h1m1 0h1m6 0h3m1 0h2m1 0h3m3 0h3m4 0h1m2 0h5m1 0h1m3 0h4m2 0h2M5 97.5h3m4 0h2m1 0h3m5 0h1m1 0h1m1 0h1m2 0h1m2 0h3m5 0h3m3 0h3m1 0h1m1 0h1m4 0h2m3 0h3m2 0h4m3 0h2m4 0h3m3 0h1m1 0h2m3 0h1m1 0h5m1 0h8M5 98.5h6m1 0h1m1 0h1m1 0h3m1 0h1m2 0h2m2 0h3m1 0h5m2 0h3m6 0h2m1 0h1m1 0h1m4 0h2m3 0h3m2 0h1m3 0h4m1 0h2m1 0h1m2 0h1m2 0h5m1 0h1m3 0h2m1 0h1m1 0h2m1 0h2m4 0h3M6 99.5h2m1 0h1m7 0h1m1 0h2m6 0h1m2 0h2m4 0h1m4 0h2m1 0h1m1 0h2m1 0h1m4 0h1m1 0h4m1 0h1m3 0h2m1 0h3m4 0h1m2 0h1m1 0h2m1 0h1m1 0h1m4 0h6m1 0h2m3 0h1m2 0h2m1 0h3M4 100.5h2m4 0h2m1 0h1m1 0h6m1 0h2m4 0h2m1 0h2m1 0h3m3 0h5m1 0h1m3 0h1m3 0h2m1 0h3m1 0h5m1 0h2m2 0h2m1 0h3m1 0h2m1 0h3m1 0h2m1 0h1m1 0h1m2 0h3m1 0h4m1 0h1m1 0h1m2 0h1m2 0h1M4 101.5h4m4 0h1m1 0h4m3 0h1m1 0h2m1 0h1m1 0h3m2 0h3m2 0h1m1 0h1m1 0h6m3 0h1m2 0h1m2 0h2m1 0h1m2 0h2m1 0h3m1 0h2m9 0h2m2 0h4m1 0h1m1 0h1m7 0h1m1 0h3m1 0h1m1 0h1m1 0h2M5 102.5h4m1 0h5m2 0h1m2 0h1m2 0h6m4 0h3m2 0h3m2 0h1m4 0h1m1 0h4m1 0h4m3 0h1m1 0h1m7 0h3m1 0h2m1 0h5m2 0h3m6 0h2m1 0h4m1 0h2m5 0h1M6 103.5h4m1 0h2m1 0h1m1 0h2m2 0h5m1 0h1m3 0h1m1 0h1m1 0h2m1 0h1m1 0h1m1 0h7m1 0h1m3 0h1m5 0h1m1 0h1m3 0h2m1 0h1m1 0h1m2 0h1m4 0h1m1 0h4m1 0h1m1 0h1m2 0h5m2 0h1m1 0h1m2 0h1m1 0h5m1 0h3M4 104.5h3m1 0h1m1 0h3m1 0h4m3 0h2m1 0h5m1 0h1m1 0h5m3 0h3m3 0h3m2 0h10m2 0h1m1 0h4m1 0h4m1 0h14m1 0h2m1 0h1m1 0h2m2 0h2m1 0h1m1 0h5m1 0h2M12 105.5h1m3 0h3m1 0h1m3 0h5m2 0h2m3 0h2m4 0h1m1 0h3m1 0h2m1 0h1m2 0h1m1 0h1m3 0h3m2 0h1m3 0h2m1 0h2m4 0h3m3 0h1m1 0h2m6 0h1m3 0h1m4 0h2m3 0h1m2 0h1M4 106.5h7m3 0h2m3 0h5m1 0h2m1 0h2m2 0h1m1 0h1m1 0h3m1 0h1m2 0h1m1 0h1m2 0h5m2 0h2m1 0h1m1 0h3m6 0h1m2 0h3m1 0h1m2 0h2m1 0h1m1 0h1m1 0h4m1 0h1m4 0h1m1 0h3m2 0h2m1 0h1m1 0h1m1 0h1M4 107.5h1m5 0h1m1 0h2m3 0h5m8 0h3m3 0h1m1 0h2m1 0h1m2 0h1m5 0h1m2 0h1m1 0h2m3 0h2m1 0h1m1 0h2m1 0h1m1 0h1m2 0h1m1 0h1m1 0h2m1 0h1m3 0h2m1 0h1m2 0h6m2 0h1m3 0h3m3 0h3M4 108.5h1m1 0h3m1 0h1m1 0h6m1 0h1m1 0h1m1 0h2m1 0h4m1 0h7m2 0h3m1 0h5m4 0h2m1 0h9m6 0h6m1 0h1m1 0h5m1 0h6m2 0h1m1 0h2m3 0h1m1 0h8m1 0h1M4 109.5h1m1 0h3m1 0h1m2 0h1m2 0h1m1 0h2m1 0h1m1 0h2m2 0h2m1 0h3m1 0h2m1 0h1m1 0h1m6 0h1m1 0h1m2 0h1m2 0h8m2 0h3m2 0h1m4 0h2m2 0h1m1 0h6m2 0h2m5 0h2m2 0h1m2 0h4m3 0h1m2 0h1M4 110.5h1m1 0h3m1 0h1m2 0h5m1 0h2m6 0h2m2 0h1m4 0h1m1 0h4m1 0h1m1 0h1m2 0h6m3 0h1m1 0h2m1 0h1m1 0h2m1 0h1m4 0h6m1 0h1m1 0h1m2 0h5m2 0h1m1 0h1m2 0h5m3 0h3m3 0h2M4 111.5h1m5 0h1m1 0h1m1 0h1m3 0h2m2 0h1m1 0h1m1 0h2m2 0h1m1 0h4m1 0h1m1 0h1m1 0h7m5 0h4m1 0h1m2 0h1m3 0h1m1 0h2m1 0h2m1 0h1m4 0h3m1 0h2m1 0h1m1 0h1m1 0h6m6 0h4m2 0h1m1 0h3M4 112.5h7m1 0h5m2 0h1m1 0h2m1 0h5m1 0h2m2 0h1m1 0h6m3 0h2m4 0h2m2 0h1m1 0h1m2 0h1m1 0h3m1 0h1m1 0h1m1 0h2m3 0h2m1 0h1m2 0h2m1 0h2m2 0h2m4 0h1m1 0h1m1 0h5m1 0h1m2 0h1m2 0h3"/></svg>
