<?xml version="1.0" encoding="utf-8"?><!DOCTYPE svg PUBLIC "-//W3C//DTD SVG 1.1//EN" "http://www.w3.org/Graphics/SVG/1.1/DTD/svg11.dtd"><svg xmlns="http://www.w3.org/2000/svg" viewBox="0 0 185 185" shape-rendering="crispEdges"><path fill="#ffffff" d="M0 0h185v185H0z"/><path stroke="#000000" d="M4 4.5h7m3 0h3m1 0h3m1 0h2m1 0h1m1 0h1m2 0h1m1 0h1m1 0h1m2 0h16m4 0h1m2 0h3m1 0h1m3 0h6m7 0h1m1 0h3m1 0h1m2 0h3m1 0h2m1 0h1m2 0h2m2 0h3m2 0h1m5 0h2m1 0h2m1 0h7m1 0h1m1 0h1m1 0h2m1 0h1m11 0h1m1 0h4m1 0h2m1 0h1m2 0h4m3 0h1m1 0h1m3 0h7M4 5.5h1m5 0h1m1 0h2m1 0h5m3 0h1m5 0h1m1 0h3m1 0h3m3 0h1m3 0h2m2 0h1m1 0h2m5 0h2m2 0h4m1 0h5m1 0h1m5 0h6m2 0h1m7 0h1m2 0h2m2 0h1m1 0h3m2 0h2m1 0h1m1 0h1m1 0h5m4 0h2m2 0h1m1 0h1m2 0h4m2 0h1m1 0h2m1 0h5m1 0h1m2 0h1m2 0h1m2 0h2m1 0h1m1 0h2m3 0h1m1 0h1m1 0h1m5 0h1M4 6.5h1m1 0h3m1 0h1m2 0h4m2 0h1m1 0h2m1 0h2m1 0h4m2 0h1m1 0h1m2 0h1m4 0h1m2 0h2m4 0h1m4 0h2m2 0h4m5 0h2m1 0h2m1 0h1m1 0h2m1 0h1m4 0h3m2 0h4m1 0h4m2 0h5m1 0h1m1 0h2m3 0h2m7 0h1m1 0h1m1 0h2m3 0h2m1 0h1m2 0h4m3 0h2m1 0h1m1 0h6m2 0h2m4 0h2m2 0h2m3 0h1m1 0h3m1 0h1M4 7.5h1m1 0h3m1 0h1m1 0h3m2 0h3m3 0h1m3 0h1m2 0h1m6 0h1m3 0h2m1 0h1m2 0h5m2 0h1m1 0h2m1 0h3m11 0h1m3 0h1m5 0h2m3 0h1m1 0h1m1 0h3m2 0h1m2 0h2m3 0h3m1 0h1m2 0h4m1 0h4m4 0h1m2 0h3m1 0h1m4 0h1m1 0h2m1 0h2m1 0h1m2 0h1m1 0h1m1 0h3m1 0h3m2 0h4m3 0h2m1 0h2m1 0h1m1 0h3m1 0h1M4 8.5h1m1 0h3m1 0h1m2 0h2m1 0h1m1 0h1m1 0h2m1 0h3m2 0h2m2 0h5m3 0h9m1 0h1m3 0h3m1 0h1m1 0h7m1 0h9m1 0h1m1 0h1m1 0h1m1 0h2m1 0h6m1 0h1m1 0h1m2 0h1m1 0h1m1 0h1m1 0h3m3 0h3m1 0h6m1 0h1m1 0h2m1 0h1m5 0h2m1 0h3m4 0h7m1 0h2m2 0h4m3 0h3m2 0h2m5 0h1m1 0h3m1 0h1M4 9.5h1m5 0h1m1 0h1m2 0h2m1 0h1m2 0h2m1 0h1m1 0h1m1 0h1m1 0h3m3 0h1m2 0h1m1 0h2m6 0h1m1 0h5m1 0h4m3 0h1m2 0h2m1 0h3m4 0h1m1 0h2m1 0h1m1 0h1m3 0h1m3 0h1m4 0h2m3 0h3m2 0h4m1 0h3m1 0h1m3 0h3m4 0h5m2 0h6m1 0h2m1 0h1m3 0h1m1 0h1m2 0h2m3 0h1m1 0h2m3 0h2m3 0h1m1 0h1m1 0h1m5 0h1M4 10.5h7m1 0h1m1 0h1m1 0h1m1 0h1m1 0h1m1 0h1m1 0h1m1 0h1m1 0h1m1 0h1m1 0h1m1 0h1m1 0h1m1 0h1m1 0h1m1 0h1m1 0h1m1 0h1m1 0h1m1 0h1m1 0h1m1 0h1m1 0h1m1 0h1m1 0h1m1 0h1m1 0h1m1 0h1m1 0h1m1 0h1m1 0h1m1 0h1m1 0h1m1 0h1m1 0h1m1 0h1m1 0h1m1 0h1m1 0h1m1 0h1m1 0h1m1 0h1m1 0h1m1 0h1m1 0h1m1 0h1m1 0h1m1 0h1m1 0h1m1 0h1m1 0h1m1 0h1m1 0h1m1 0h1m1 0h1m1 0h1m1 0h1m1 0h1m1 0h1m1 0h1m1 0h1m1 0h1m1 0h1m1 0h1m1 0h1m1 0h1m1 0h1m1 0h1m1 0h1m1 0h1m1 0h1m1 0h1m1 0h1m1 0h1m1 0h1m1 0h1m1 0h1m1 0h1m1 0h1m1 0h1m1 0h1m1 0h7M16 11.5h2m2 0h1m1 0h2m1 0h3m1 0h4m3 0h2m1 0h3m1 0h4m1 0h2m2 0h1m2 0h1m2 0h3m3 0h4m1 0h1m1 0h1m1 0h2m1 0h1m1 0h1m6 0h1m2 0h1m3 0h1m2 0h2m1 0h1m2 0h6m1 0h1m1 0h2m1 0h1m2 0h1m3 0h2m2 0h2m1 0h1m2 0h1m1 0h1m4 0h2m1 0h1m2 0h2m3 0h2m2 0h1m1 0h3m2 0h3m1 0h1m2 0h1m2 0h1m2 0h1M4 12.5h5m1 0h3m2 0h6m1 0h5m1 0h1m1 0h1m1 0h6m1 0h5m6 0h1m3 0h4m2 0h6m3 0h1m4 0h3m2 0h2m4 0h10m2 0h1m2 0h1m1 0h2m1 0h1m6 0h2m2 0h5m7 0h1m1 0h4m3 0h1m1 0h2m1 0h1m1 0h5m1 0h1m1 0h1m3 0h1m1 0h1m3 0h4m2 0h3m1 0h2m1 0h1m1 0h1m1 0h1M7 13.5h1m1 0h1m1 0h1m2 0h1m2 0h4m3 0h2m1 0h1m1 0h3m7 0h2m3 0h1m1 0h1m1 0h2m4 0h4m3 0h6m4 0h2m1 0h2m2 0h1m1 0h1m1 0h4m1 0h6m1 0h2m3 0h3m2 0h6m2 0h2m1 0h2m1 0h1m1 0h5m1 0h1m6 0h2m1 0h1m1 0h2m4 0h2m1 0h6m1 0h4m1 0h3m1 0h2m1 0h1m1 0h1m1 0h2m1 0h1m2 0h2M5 14.5h1m1 0h4m1 0h8m1 0h7m7 0h3m2 0h2m1 0h1m1 0h2m2 0h2m1 0h2m4 0h5m5 0h1m1 0h1m2 0h1m1 0h1m4 0h3m1 0h2m1 0h1m2 0h1m4 0h1m5 0h3m3 0h1m2 0h1m2 0h2m2 0h4m2 0h1m1 0h1m3 0h2m1 0h6m1 0h3m1 0h2m1 0h2m2 0h2m5 0h1m1 0h3m1 0h1m3 0h1m1 0h2m3 0h3m1 0h2M4 15.5h2m2 0h2m1 0h3m3 0h1m4 0h3m1 0h1m6 0h3m1 0h4m5 0h2m7 0h1m1 0h2m1 0h2m1 0h1m2 0h2m3 0h1m2 0h5m4 0h1m2 0h4m4 0h4m3 0h4m3 0h2m1 0h1m2 0h2m3 0h1m3 0h1m1 0h1m1 0h4m2 0h1m2 0h1m2 0h5m1 0h5m1 0h1m2 0h2m3 0h2m5 0h2m1 0h1m2 0h1m1 0h5M7 16.5h2m1 0h2m1 0h2m1 0h2m1 0h2m1 0h2m2 0h2m1 0h1m1 0h1m1 0h1m4 0h2m1 0h1m3 0h1m2 0h4m2 0h1m1 0h1m6 0h1m2 0h2m2 0h1m6 0h4m1 0h2m2 0h3m1 0h3m7 0h1m2 0h1m2 0h1m3 0h3m3 0h1m1 0h1m2 0h1m3 0h1m1 0h4m1 0h1m4 0h1m1 0h2m1 0h1m2 0h1m1 0h2m1 0h1m1 0h2m1 0h2m3 0h1m1 0h1m2 0h1m1 0h1m2 0h2m5 0h1m1 0h2M4 17.5h2m1 0h1m1 0h1m1 0h2m1 0h3m2 0h2m1 0h2m3 0h6m3 0h1m1 0h4m2 0h1m1 0h1m1 0h1m1 0h1m5 0h1m2 0h1m1 0h2m1 0h2m2 0h2m2 0h1m7 0h1m3 0h2m1 0h2m1 0h1m1 0h4m3 0h3m2 0h1m1 0h1m2 0h1m2 0h2m2 0h1m3 0h1m1 0h1m1 0h4m1 0h1m3 0h4m1 0h2m3 0h1m1 0h1m4 0h4m1 0h2m2 0h1m1 0h5m2 0h1m1 0h2m5 0h1m2 0h1M5 18.5h2m1 0h3m7 0h2m2 0h2m1 0h2m1 0h1m2 0h3m1 0h6m4 0h3m1 0h2m1 0h1m1 0h2m1 0h2m3 0h1m1 0h1m3 0h3m1 0h2m1 0h1m1 0h1m2 0h6m2 0h2m5 0h1m1 0h8m3 0h4m1 0h3m1 0h2m1 0h1m3 0h3m4 0h1m7 0h1m4 0h1m1 0h1m1 0h3m3 0h1m3 0h4m1 0h1m1 0h2m2 0h1m4 0h1m1 0h4M4 19.5h1m1 0h1m7 0h6m1 0h1m2 0h1m5 0h1m5 0h1m1 0h1m1 0h1m5 0h3m1 0h1m6 0h5m1 0h1m2 0h2m1 0h1m4 0h3m1 0h1m2 0h1m3 0h3m1 0h1m2 0h1m1 0h1m1 0h1m4 0h4m3 0h4m2 0h1m9 0h3m2 0h2m1 0h4m3 0h4m3 0h4m1 0h2m1 0h1m6 0h1m4 0h1m4 0h2m3 0h3m1 0h1M4 20.5h1m1 0h2m1 0h2m2 0h1m1 0h1m1 0h2m1 0h1m1 0h1m5 0h1m1 0h4m2 0h4m2 0h4m2 0h2m1 0h7m3 0h1m3 0h1m3 0h1m1 0h1m3 0h3m1 0h1m3 0h1m1 0h2m2 0h4m7 0h1m1 0h1m3 0h1m2 0h1m2 0h2m1 0h4m2 0h1m5 0h6m2 0h1m1 0h1m1 0h2m1 0h1m2 0h4m1 0h2m1 0h1m1 0h5m1 0h1m1 0h3m1 0h1m1 0h2m1 0h2m1 0h1m3 0h1M5 21.5h1m1 0h3m1 0h5m3 0h8m4 0h1m1 0h1m2 0h1m1 0h3m3 0h1m2 0h2m1 0h1m2 0h2m1 0h1m1 0h1m3 0h4m1 0h5m3 0h1m1 0h1m2 0h1m1 0h1m5 0h2m2 0h1m1 0h2m1 0h1m3 0h1m1 0h1m1 0h2m1 0h1m3 0h1m2 0h5m1 0h2m1 0h3m6 0h7m3 0h1m3 0h3m2 0h1m1 0h1m1 0h1m1 0h1m3 0h4m1 0h2m1 0h1m9 0h1M5 22.5h1m3 0h5m2 0h4m1 0h1m1 0h1m5 0h1m1 0h1m1 0h1m2 0h1m1 0h2m2 0h1m2 0h1m1 0h1m3 0h2m2 0h1m2 0h4m1 0h2m3 0h1m1 0h4m3 0h1m1 0h4m1 0h2m1 0h1m8 0h4m1 0h2m4 0h2m1 0h1m2 0h2m2 0h2m1 0h1m1 0h1m1 0h3m2 0h4m3 0h1m1 0h2m1 0h2m1 0h1m3 0h2m1 0h1m1 0h1m6 0h2m1 0h1m1 0h1m1 0h1m1 0h1m1 0h5m2 0h1M4 23.5h1m4 0h1m1 0h2m5 0h1m2 0h2m3 0h1m2 0h1m1 0h1m1 0h1m1 0h1m1 0h1m1 0h1m1 0h1m3 0h4m2 0h2m3 0h3m3 0h2m2 0h1m6 0h7m1 0h1m1 0h1m2 0h1m1 0h1m2 0h1m1 0h1m2 0h1m1 0h1m3 0h3m1 0h1m1 0h1m1 0h2m4 0h1m2 0h1m1 0h2m5 0h2m5 0h1m1 0h1m1 0h3m1 0h1m1 0h3m1 0h1m4 0h1m2 0h1m2 0h1m4 0h3m1 0h1m1 0h2m3 0h5M10 24.5h2m5 0h3m1 0h1m1 0h2m1 0h6m1 0h3m1 0h1m4 0h1m1 0h1m4 0h2m2 0h2m2 0h1m1 0h1m3 0h1m2 0h1m3 0h1m2 0h4m6 0h4m3 0h1m1 0h1m1 0h2m2 0h1m1 0h2m1 0h1m1 0h1m1 0h1m1 0h2m1 0h2m1 0h1m2 0h3m2 0h1m4 0h1m1 0h1m1 0h2m1 0h1m3 0h4m5 0h1m4 0h1m2 0h1m1 0h2m1 0h2m2 0h1m1 0h1m2 0h2m1 0h3m4 0h1M4 25.5h3m1 0h2m1 0h2m1 0h1m2 0h3m1 0h2m5 0h1m2 0h2m1 0h1m1 0h1m4 0h2m1 0h7m2 0h2m1 0h2m1 0h7m1 0h1m1 0h1m1 0h1m5 0h1m3 0h3m4 0h8m4 0h1m2 0h2m1 0h2m3 0h3m2 0h1m1 0h3m3 0h3m6 0h6m4 0h1m4 0h1m2 0h1m4 0h1m4 0h1m1 0h4m1 0h5m5 0h3M7 26.5h1m2 0h2m6 0h1m1 0h1m1 0h1m5 0h4m2 0h3m1 0h2m1 0h1m1 0h1m1 0h3m1 0h1m2 0h2m4 0h2m1 0h1m2 0h1m2 0h2m1 0h1m1 0h1m2 0h1m1 0h1m2 0h1m1 0h4m4 0h1m5 0h3m1 0h4m1 0h1m3 0h2m1 0h1m1 0h1m3 0h3m1 0h2m1 0h3m1 0h1m1 0h1m1 0h2m1 0h4m2 0h3m2 0h2m4 0h1m4 0h3m2 0h1m1 0h2m2 0h3m2 0h1m2 0h2M5 27.5h2m1 0h2m1 0h2m2 0h1m1 0h1m3 0h2m2 0h1m1 0h2m1 0h3m4 0h2m4 0h1m2 0h1m1 0h2m1 0h1m5 0h2m1 0h1m1 0h6m5 0h2m1 0h1m1 0h1m4 0h1m1 0h3m3 0h1m2 0h1m1 0h2m1 0h1m3 0h1m4 0h2m1 0h1m2 0h1m10 0h2m4 0h3m1 0h1m2 0h1m1 0h1m4 0h1m5 0h1m2 0h2m7 0h1m2 0h1m1 0h2m2 0h2m1 0h2m1 0h3M4 28.5h1m5 0h2m3 0h1m2 0h2m1 0h1m1 0h1m1 0h5m5 0h3m1 0h7m1 0h2m1 0h1m1 0h4m2 0h2m6 0h1m3 0h1m1 0h4m2 0h1m2 0h2m3 0h2m2 0h1m1 0h1m7 0h1m1 0h1m2 0h2m2 0h2m1 0h1m4 0h2m6 0h1m3 0h2m1 0h2m1 0h1m4 0h1m1 0h1m1 0h3m1 0h4m1 0h1m2 0h4m2 0h3m2 0h6m1 0h1m2 0h1m2 0h1M8 29.5h2m1 0h2m2 0h3m1 0h1m2 0h1m1 0h2m1 0h1m3 0h2m2 0h1m2 0h1m1 0h5m1 0h2m1 0h1m1 0h1m1 0h5m1 0h2m1 0h1m1 0h2m2 0h1m2 0h3m1 0h1m1 0h4m1 0h3m2 0h3m2 0h1m1 0h1m1 0h2m2 0h1m2 0h1m1 0h3m3 0h1m3 0h2m1 0h2m1 0h1m2 0h1m1 0h1m4 0h1m2 0h3m1 0h2m1 0h1m1 0h1m1 0h1m1 0h2m1 0h5m1 0h1m5 0h6m3 0h1m3 0h6M4 30.5h2m1 0h1m2 0h1m1 0h1m3 0h1m1 0h3m2 0h1m2 0h1m2 0h1m3 0h1m1 0h3m1 0h1m2 0h1m3 0h2m2 0h1m1 0h1m2 0h1m2 0h4m2 0h1m2 0h2m1 0h1m1 0h1m6 0h4m1 0h1m2 0h2m1 0h1m2 0h1m4 0h2m2 0h1m1 0h1m4 0h2m2 0h2m2 0h5m1 0h2m1 0h1m2 0h1m1 0h4m2 0h2m2 0h2m3 0h3m2 0h1m1 0h1m5 0h3m1 0h1m1 0h3m1 0h2m3 0h1m2 0h2M4 31.5h1m1 0h1m4 0h1m3 0h1m2 0h2m5 0h2m2 0h4m7 0h2m1 0h1m2 0h1m4 0h3m1 0h7m4 0h2m3 0h1m1 0h2m1 0h3m3 0h1m2 0h2m1 0h1m2 0h1m1 0h1m1 0h2m6 0h2m1 0h3m1 0h2m1 0h2m3 0h2m7 0h3m5 0h1m4 0h4m9 0h3m1 0h1m2 0h1m2 0h1m1 0h3m1 0h1m1 0h3m2 0h5M4 32.5h10m1 0h3m3 0h4m3 0h10m3 0h2m1 0h1m2 0h5m2 0h2m1 0h1m1 0h6m1 0h3m4 0h2m1 0h1m1 0h1m2 0h1m5 0h6m1 0h1m4 0h5m1 0h3m1 0h1m2 0h1m2 0h7m3 0h1m1 0h2m1 0h4m5 0h2m1 0h1m1 0h5m1 0h3m3 0h3m2 0h3m1 0h1m1 0h4m1 0h5m3 0h1M4 33.5h5m3 0h1m1 0h1m1 0h3m1 0h1m1 0h3m1 0h1m2 0h4m3 0h1m1 0h2m1 0h2m1 0h1m2 0h2m1 0h1m2 0h1m1 0h3m2 0h1m3 0h3m1 0h1m1 0h1m1 0h5m2 0h3m2 0h1m2 0h2m3 0h1m1 0h1m1 0h2m2 0h1m2 0h2m1 0h3m2 0h2m3 0h1m3 0h1m1 0h3m1 0h1m6 0h2m1 0h1m1 0h1m5 0h1m3 0h1m1 0h2m2 0h1m1 0h1m2 0h1m1 0h1m1 0h4m1 0h1m1 0h3m3 0h2m2 0h1M4 34.5h3m1 0h1m1 0h1m1 0h4m1 0h6m1 0h2m1 0h4m1 0h1m1 0h1m1 0h2m1 0h1m2 0h2m1 0h3m1 0h1m1 0h4m2 0h1m1 0h2m1 0h1m1 0h1m3 0h6m5 0h2m1 0h1m1 0h2m2 0h1m1 0h1m1 0h1m4 0h3m2 0h2m1 0h1m4 0h1m1 0h5m1 0h1m1 0h1m4 0h1m1 0h2m2 0h6m1 0h2m2 0h3m1 0h1m1 0h1m4 0h1m1 0h1m4 0h2m1 0h1m2 0h1m3 0h1m1 0h1m1 0h1m1 0h2M4 35.5h1m1 0h3m3 0h1m1 0h1m1 0h3m1 0h1m4 0h2m1 0h2m1 0h2m3 0h2m2 0h1m3 0h4m1 0h1m2 0h2m1 0h1m2 0h1m1 0h1m3 0h4m3 0h1m1 0h4m1 0h2m3 0h1m2 0h1m1 0h1m3 0h1m2 0h2m1 0h1m2 0h2m2 0h1m1 0h2m7 0h1m3 0h1m2 0h1m2 0h2m1 0h2m2 0h1m1 0h2m3 0h2m1 0h2m3 0h2m1 0h1m1 0h3m1 0h1m1 0h2m2 0h1m2 0h1m1 0h1m2 0h2m3 0h3M4 36.5h1m2 0h8m2 0h2m2 0h5m1 0h3m2 0h6m2 0h1m1 0h1m1 0h1m4 0h3m2 0h1m2 0h1m1 0h6m1 0h1m3 0h1m1 0h3m1 0h1m2 0h1m1 0h1m1 0h1m1 0h2m1 0h7m2 0h1m1 0h2m5 0h2m3 0h3m1 0h6m4 0h1m1 0h6m4 0h1m2 0h1m1 0h1m1 0h5m1 0h1m1 0h3m1 0h4m2 0h4m1 0h4m1 0h6m2 0h1M4 37.5h1m3 0h2m1 0h3m1 0h1m1 0h1m2 0h4m1 0h1m2 0h5m3 0h4m1 0h1m2 0h3m1 0h1m1 0h4m1 0h1m1 0h3m1 0h1m3 0h1m1 0h1m1 0h3m2 0h1m2 0h1m1 0h2m1 0h4m1 0h2m1 0h1m1 0h1m1 0h3m3 0h2m1 0h1m2 0h3m3 0h1m2 0h1m1 0h1m2 0h1m1 0h1m1 0h1m1 0h2m1 0h1m3 0h7m3 0h1m4 0h3m1 0h1m1 0h3m1 0h2m1 0h2m1 0h3m1 0h4m1 0h3m1 0h1m2 0h1M5 38.5h3m2 0h1m6 0h4m1 0h2m1 0h1m5 0h1m5 0h3m1 0h1m1 0h1m2 0h1m2 0h5m2 0h4m1 0h2m1 0h1m3 0h6m1 0h1m3 0h4m1 0h1m3 0h3m2 0h1m2 0h2m1 0h1m1 0h1m2 0h2m1 0h1m1 0h4m1 0h8m2 0h2m1 0h1m1 0h3m1 0h1m1 0h1m2 0h3m1 0h1m2 0h1m2 0h2m10 0h2m1 0h1m5 0h1m3 0h1m4 0h1M4 39.5h1m1 0h1m4 0h2m1 0h3m2 0h1m2 0h2m1 0h1m1 0h2m2 0h2m1 0h6m6 0h1m5 0h1m2 0h2m1 0h1m3 0h3m1 0h2m1 0h1m1 0h1m2 0h3m1 0h1m6 0h4m4 0h1m1 0h2m2 0h1m2 0h5m2 0h1m1 0h1m2 0h2m2 0h1m1 0h1m3 0h2m2 0h2m1 0h1m2 0h1m2 0h2m1 0h1m1 0h5m5 0h1m1 0h2m1 0h1m2 0h2m2 0h1m1 0h2m1 0h1m1 0h5m1 0h3M5 40.5h1m1 0h4m2 0h1m1 0h1m1 0h1m1 0h1m1 0h1m3 0h2m1 0h1m4 0h2m5 0h1m1 0h1m2 0h1m1 0h1m2 0h2m2 0h1m1 0h1m2 0h1m1 0h2m2 0h2m1 0h1m1 0h1m1 0h2m5 0h1m1 0h3m2 0h1m2 0h1m2 0h3m4 0h2m1 0h2m1 0h3m1 0h5m2 0h1m2 0h1m1 0h1m1 0h1m4 0h3m2 0h1m5 0h2m1 0h2m5 0h2m1 0h1m4 0h2m3 0h1m1 0h1m2 0h4m1 0h1m1 0h3m2 0h1M6 41.5h1m1 0h1m4 0h2m4 0h2m4 0h1m2 0h1m4 0h4m3 0h1m1 0h1m3 0h2m1 0h3m3 0h3m5 0h2m2 0h9m1 0h2m1 0h1m2 0h1m4 0h1m1 0h1m1 0h1m1 0h1m1 0h2m1 0h2m3 0h3m1 0h2m1 0h1m3 0h2m1 0h1m1 0h1m1 0h1m1 0h1m1 0h1m4 0h1m1 0h2m1 0h3m4 0h2m2 0h2m2 0h3m2 0h1m1 0h2m3 0h2m1 0h1m1 0h1m2 0h3m1 0h1m1 0h1m2 0h1M7 42.5h2m1 0h1m1 0h2m1 0h1m1 0h4m3 0h5m4 0h1m1 0h4m1 0h3m3 0h1m5 0h2m1 0h1m3 0h1m3 0h2m2 0h2m1 0h4m3 0h1m1 0h2m1 0h1m1 0h2m1 0h3m1 0h2m2 0h1m1 0h2m2 0h2m2 0h1m1 0h5m2 0h2m1 0h2m3 0h2m1 0h1m2 0h1m1 0h1m3 0h1m3 0h3m3 0h2m2 0h4m1 0h3m1 0h2m1 0h1m1 0h2m1 0h3m1 0h1m2 0h1m2 0h2m1 0h2M4 43.5h1m1 0h3m2 0h1m1 0h9m1 0h1m2 0h1m1 0h2m1 0h3m2 0h1m1 0h1m1 0h2m1 0h1m2 0h2m1 0h1m3 0h1m4 0h1m3 0h1m1 0h1m1 0h1m7 0h3m1 0h2m1 0h1m1 0h1m2 0h2m1 0h1m1 0h1m1 0h2m1 0h3m2 0h2m1 0h1m3 0h4m2 0h3m1 0h5m4 0h1m1 0h2m1 0h3m1 0h2m2 0h2m2 0h3m2 0h1m1 0h1m1 0h2m2 0h1m1 0h3m1 0h2m1 0h1m5 0h1m1 0h1m2 0h2m1 0h1M4 44.5h3m1 0h3m1 0h2m1 0h5m1 0h4m2 0h1m1 0h3m1 0h1m1 0h4m2 0h4m5 0h1m1 0h5m2 0h2m1 0h2m1 0h5m3 0h4m7 0h1m3 0h1m2 0h1m1 0h3m1 0h1m2 0h1m1 0h1m3 0h1m5 0h2m3 0h1m1 0h1m7 0h2m1 0h1m1 0h1m6 0h2m1 0h2m1 0h2m3 0h2m1 0h3m2 0h3m1 0h1m2 0h1m1 0h1m1 0h3m1 0h1m2 0h1m3 0h1M5 45.5h2m1 0h2m2 0h1m3 0h3m1 0h1m1 0h4m6 0h1m1 0h1m1 0h1m1 0h4m1 0h2m2 0h2m1 0h1m2 0h1m3 0h2m1 0h1m2 0h1m4 0h1m1 0h1m1 0h1m2 0h2m1 0h2m2 0h3m1 0h1m3 0h1m3 0h1m2 0h1m1 0h2m2 0h2m1 0h1m1 0h1m3 0h1m2 0h2m2 0h2m1 0h3m1 0h2m1 0h1m4 0h1m1 0h3m2 0h1m2 0h2m2 0h3m1 0h1m3 0h1m1 0h2m1 0h1m2 0h1m3 0h1m1 0h3m2 0h1m4 0h1M5 46.5h2m2 0h2m1 0h1m2 0h1m2 0h3m2 0h1m1 0h4m5 0h5m4 0h1m1 0h3m1 0h1m1 0h3m3 0h3m2 0h4m1 0h2m1 0h1m1 0h1m6 0h1m1 0h5m2 0h4m1 0h1m1 0h1m1 0h2m1 0h1m1 0h1m1 0h1m3 0h4m1 0h2m3 0h4m2 0h1m2 0h1m1 0h4m3 0h1m5 0h1m2 0h1m1 0h1m3 0h1m2 0h1m2 0h1m2 0h1m1 0h1m3 0h1m2 0h1m3 0h1m1 0h1m1 0h1M4 47.5h2m1 0h3m4 0h2m4 0h5m2 0h3m2 0h1m3 0h3m7 0h2m1 0h1m2 0h1m2 0h1m2 0h1m3 0h2m2 0h2m1 0h1m1 0h1m1 0h2m1 0h3m4 0h1m1 0h3m1 0h1m6 0h3m2 0h1m1 0h4m1 0h4m1 0h2m3 0h1m1 0h1m2 0h5m2 0h2m3 0h2m1 0h1m1 0h3m1 0h1m1 0h4m1 0h1m1 0h3m4 0h1m3 0h1m1 0h1m7 0h6M5 48.5h1m4 0h1m1 0h9m1 0h3m1 0h2m1 0h1m5 0h1m1 0h1m2 0h3m1 0h1m2 0h1m1 0h3m2 0h1m1 0h1m3 0h4m5 0h1m3 0h2m5 0h1m1 0h2m1 0h2m2 0h1m7 0h2m1 0h1m1 0h1m2 0h1m1 0h1m4 0h2m3 0h1m3 0h1m1 0h1m1 0h1m3 0h5m1 0h1m1 0h1m1 0h2m1 0h1m1 0h1m1 0h1m2 0h5m1 0h1m1 0h3m2 0h3m4 0h5m1 0h2m2 0h2M4 49.5h4m1 0h1m3 0h2m1 0h2m1 0h1m2 0h1m1 0h1m6 0h5m2 0h1m2 0h5m2 0h2m1 0h3m1 0h2m1 0h2m1 0h1m3 0h1m4 0h2m3 0h1m1 0h1m4 0h1m3 0h1m2 0h1m2 0h1m1 0h2m1 0h1m1 0h2m2 0h1m2 0h2m1 0h1m1 0h3m1 0h1m1 0h1m2 0h1m1 0h1m1 0h3m6 0h2m1 0h1m1 0h2m3 0h1m1 0h1m1 0h2m1 0h1m1 0h1m1 0h1m1 0h2m1 0h1m1 0h6m1 0h2m1 0h1m6 0h1M4 50.5h1m4 0h4m1 0h1m1 0h1m4 0h3m2 0h1m1 0h1m1 0h3m3 0h2m1 0h1m2 0h1m6 0h1m1 0h3m1 0h1m1 0h1m1 0h7m1 0h7m1 0h1m4 0h5m2 0h2m2 0h3m2 0h3m3 0h1m2 0h1m1 0h1m2 0h1m1 0h1m1 0h2m2 0h1m3 0h1m1 0h4m2 0h3m1 0h1m4 0h2m4 0h1m3 0h1m1 0h1m1 0h1m3 0h1m2 0h1m1 0h2m2 0h1m5 0h2m1 0h2m2 0h1M4 51.5h2m1 0h1m3 0h1m2 0h2m1 0h2m2 0h3m2 0h1m1 0h1m2 0h1m2 0h1m2 0h2m1 0h1m2 0h1m2 0h2m1 0h1m1 0h1m4 0h1m1 0h1m3 0h1m1 0h4m1 0h1m3 0h4m1 0h2m1 0h1m1 0h1m1 0h4m1 0h1m2 0h1m2 0h1m1 0h1m1 0h1m3 0h2m2 0h3m2 0h2m1 0h1m1 0h3m2 0h1m2 0h1m1 0h1m3 0h4m1 0h1m1 0h1m1 0h1m2 0h1m1 0h2m3 0h1m1 0h3m1 0h1m1 0h2m2 0h5m1 0h1m4 0h1m1 0h3m1 0h1M8 52.5h1m1 0h1m5 0h3m7 0h4m1 0h3m1 0h10m2 0h4m2 0h3m1 0h1m2 0h1m2 0h2m1 0h2m1 0h1m5 0h1m2 0h2m1 0h1m2 0h1m7 0h1m1 0h1m2 0h4m1 0h2m2 0h2m4 0h1m8 0h1m6 0h1m1 0h1m1 0h2m1 0h1m3 0h1m2 0h6m2 0h4m1 0h5m2 0h2m3 0h1m2 0h3m1 0h1m1 0h1m3 0h1M7 53.5h3m1 0h3m2 0h1m2 0h4m1 0h3m1 0h3m1 0h5m1 0h2m2 0h4m2 0h1m4 0h5m1 0h1m1 0h1m1 0h1m6 0h2m1 0h1m1 0h1m3 0h2m1 0h3m5 0h1m3 0h4m2 0h1m3 0h4m1 0h1m2 0h2m1 0h3m4 0h1m1 0h4m1 0h1m1 0h1m1 0h2m1 0h1m1 0h1m2 0h1m1 0h2m2 0h2m1 0h3m1 0h1m1 0h1m2 0h1m2 0h1m1 0h2m2 0h1m1 0h2m5 0h4M4 54.5h2m2 0h1m1 0h2m2 0h2m1 0h2m1 0h2m3 0h1m2 0h3m2 0h1m1 0h2m3 0h1m2 0h1m2 0h1m2 0h4m2 0h1m2 0h2m1 0h2m1 0h1m2 0h4m1 0h2m5 0h4m1 0h1m3 0h1m1 0h4m4 0h1m1 0h1m1 0h4m1 0h6m1 0h18m2 0h4m3 0h1m6 0h2m1 0h1m1 0h1m1 0h1m1 0h1m2 0h1m1 0h1m3 0h1m5 0h1m2 0h1m2 0h1M4 55.5h1m9 0h1m3 0h2m4 0h3m3 0h5m3 0h2m1 0h1m1 0h1m2 0h1m2 0h1m2 0h2m3 0h2m3 0h1m3 0h1m2 0h1m3 0h4m1 0h2m7 0h2m2 0h1m4 0h1m1 0h1m5 0h1m3 0h3m2 0h2m2 0h2m1 0h1m2 0h1m4 0h1m1 0h1m1 0h1m2 0h2m1 0h3m1 0h1m1 0h3m6 0h3m1 0h1m1 0h1m6 0h2m6 0h1m1 0h4M4 56.5h2m1 0h1m1 0h3m1 0h1m2 0h1m1 0h1m2 0h2m1 0h1m3 0h3m1 0h12m1 0h1m2 0h4m2 0h2m4 0h1m1 0h3m1 0h2m1 0h1m1 0h1m1 0h1m3 0h2m2 0h6m1 0h2m1 0h4m5 0h2m1 0h1m2 0h1m2 0h1m2 0h1m3 0h2m1 0h1m1 0h1m1 0h1m1 0h1m1 0h7m6 0h1m1 0h1m2 0h2m3 0h4m1 0h1m1 0h4m1 0h1m1 0h2m3 0h5m2 0h1m3 0h1M5 57.5h2m2 0h1m3 0h4m2 0h2m1 0h4m2 0h4m2 0h3m1 0h1m1 0h2m1 0h2m3 0h2m1 0h1m2 0h3m4 0h1m7 0h6m1 0h2m1 0h2m1 0h2m6 0h1m1 0h1m1 0h3m2 0h2m2 0h5m4 0h2m1 0h1m2 0h1m2 0h2m1 0h3m2 0h1m3 0h2m1 0h1m1 0h2m1 0h1m1 0h1m1 0h1m1 0h2m2 0h3m1 0h3m1 0h1m1 0h4m3 0h1m2 0h3m1 0h1m4 0h1M4 58.5h1m1 0h1m3 0h2m1 0h1m1 0h2m3 0h4m2 0h1m2 0h2m2 0h1m2 0h1m1 0h2m1 0h1m1 0h1m1 0h2m2 0h1m2 0h2m4 0h2m2 0h1m1 0h2m1 0h2m1 0h1m1 0h2m1 0h1m1 0h1m2 0h6m3 0h1m2 0h1m2 0h1m1 0h3m1 0h4m3 0h5m1 0h1m1 0h1m1 0h1m1 0h2m1 0h2m5 0h1m1 0h1m1 0h1m2 0h3m4 0h1m5 0h2m3 0h1m1 0h2m1 0h1m1 0h1m3 0h2m4 0h1m5 0h1M4 59.5h2m2 0h1m2 0h3m1 0h1m3 0h3m3 0h1m1 0h2m1 0h3m1 0h1m2 0h1m1 0h2m2 0h1m2 0h1m1 0h2m1 0h1m6 0h1m1 0h6m7 0h7m3 0h1m2 0h3m1 0h2m1 0h1m2 0h1m1 0h1m3 0h1m2 0h1m1 0h3m4 0h2m2 0h1m1 0h2m2 0h5m4 0h1m1 0h1m2 0h1m1 0h3m1 0h4m3 0h1m2 0h1m1 0h2m2 0h2m3 0h3m3 0h1m1 0h2m3 0h2M4 60.5h9m2 0h3m1 0h1m1 0h1m3 0h1m2 0h3m1 0h7m2 0h4m2 0h4m1 0h1m1 0h1m1 0h2m2 0h5m1 0h1m2 0h3m2 0h1m1 0h2m1 0h5m1 0h2m1 0h5m1 0h1m2 0h1m2 0h1m11 0h2m2 0h6m1 0h1m4 0h6m1 0h1m1 0h1m2 0h1m1 0h9m2 0h1m1 0h2m1 0h1m3 0h3m2 0h2m2 0h7m1 0h1M7 61.5h2m3 0h2m1 0h2m4 0h1m3 0h5m1 0h2m3 0h1m2 0h1m1 0h2m1 0h1m1 0h3m1 0h1m1 0h1m1 0h4m1 0h2m3 0h2m2 0h4m1 0h3m1 0h1m1 0h1m2 0h1m5 0h1m3 0h3m1 0h1m2 0h2m2 0h4m4 0h2m2 0h2m3 0h3m1 0h3m2 0h3m1 0h2m1 0h1m1 0h1m4 0h2m3 0h1m1 0h3m3 0h2m6 0h5m1 0h1m1 0h1m3 0h2m2 0h1M4 62.5h2m2 0h1m1 0h1m1 0h2m1 0h1m1 0h1m1 0h2m5 0h1m1 0h3m1 0h1m1 0h1m1 0h1m3 0h1m2 0h1m1 0h1m3 0h6m2 0h4m1 0h1m1 0h1m2 0h2m1 0h1m1 0h2m3 0h1m2 0h3m1 0h2m2 0h1m1 0h1m1 0h2m2 0h2m3 0h2m1 0h1m2 0h2m1 0h3m1 0h3m1 0h1m1 0h2m2 0h5m2 0h1m1 0h2m1 0h3m2 0h1m2 0h1m1 0h1m1 0h2m1 0h1m1 0h1m3 0h1m2 0h1m1 0h2m5 0h4m1 0h1m1 0h1M7 63.5h2m3 0h2m4 0h1m2 0h3m2 0h2m1 0h1m2 0h1m3 0h2m3 0h1m3 0h3m1 0h1m6 0h1m1 0h1m1 0h1m3 0h1m1 0h2m5 0h4m1 0h2m5 0h4m3 0h1m1 0h1m1 0h1m1 0h1m2 0h1m1 0h2m3 0h1m1 0h1m2 0h4m3 0h1m2 0h1m4 0h2m3 0h1m4 0h2m3 0h2m3 0h2m1 0h1m1 0h2m2 0h1m2 0h1m5 0h1m1 0h2m1 0h2m3 0h4M5 64.5h8m1 0h1m1 0h2m1 0h2m3 0h1m1 0h1m1 0h11m2 0h3m3 0h4m2 0h3m1 0h1m1 0h7m1 0h2m1 0h1m2 0h1m2 0h4m1 0h2m3 0h10m1 0h1m1 0h2m2 0h1m2 0h1m4 0h2m3 0h5m4 0h1m2 0h1m1 0h4m3 0h1m1 0h2m1 0h1m1 0h6m2 0h1m3 0h3m1 0h3m6 0h2m1 0h6m1 0h1M4 65.5h6m3 0h2m2 0h1m1 0h4m2 0h1m1 0h1m5 0h2m1 0h4m1 0h5m1 0h3m3 0h4m1 0h2m2 0h4m1 0h1m2 0h1m3 0h1m2 0h1m2 0h5m1 0h4m1 0h1m1 0h3m1 0h1m1 0h3m1 0h1m2 0h1m1 0h1m13 0h1m1 0h1m2 0h1m1 0h1m3 0h2m1 0h2m3 0h1m4 0h3m1 0h1m1 0h1m2 0h2m4 0h1m1 0h6m2 0h1m3 0h2m2 0h2M4 66.5h2m2 0h1m1 0h1m1 0h3m1 0h2m2 0h2m1 0h2m1 0h1m3 0h3m1 0h2m1 0h5m1 0h1m8 0h1m4 0h2m4 0h1m1 0h1m2 0h1m1 0h1m1 0h1m6 0h1m2 0h3m2 0h3m2 0h2m1 0h2m1 0h2m2 0h1m1 0h1m3 0h1m2 0h4m1 0h5m1 0h1m2 0h1m2 0h2m1 0h4m4 0h1m2 0h1m4 0h3m4 0h1m4 0h2m1 0h2m1 0h2m7 0h2m1 0h3M4 67.5h1m2 0h1m3 0h1m1 0h1m2 0h1m3 0h1m1 0h1m6 0h1m4 0h5m6 0h1m3 0h1m3 0h1m1 0h2m1 0h3m1 0h1m1 0h4m3 0h1m2 0h1m1 0h1m1 0h1m6 0h4m3 0h1m2 0h2m1 0h3m2 0h3m2 0h2m2 0h1m2 0h1m1 0h3m4 0h1m2 0h1m1 0h2m1 0h2m1 0h1m1 0h1m2 0h2m2 0h2m5 0h1m2 0h1m2 0h1m1 0h1m1 0h1m1 0h1m2 0h3m3 0h2m2 0h1m1 0h1M10 68.5h1m5 0h3m1 0h3m1 0h1m2 0h2m1 0h1m1 0h1m1 0h1m2 0h2m1 0h1m1 0h1m3 0h3m1 0h2m1 0h1m6 0h1m7 0h1m2 0h2m3 0h1m1 0h2m1 0h1m3 0h3m1 0h1m1 0h1m2 0h1m4 0h2m6 0h1m1 0h4m1 0h3m1 0h1m1 0h2m1 0h1m1 0h1m1 0h2m1 0h1m1 0h2m1 0h1m1 0h1m3 0h3m2 0h3m1 0h1m1 0h2m3 0h2m3 0h3m3 0h1m1 0h3m1 0h1m5 0h1M8 69.5h1m6 0h1m4 0h1m2 0h2m2 0h1m2 0h1m2 0h4m2 0h2m1 0h4m2 0h3m4 0h1m3 0h1m4 0h1m2 0h3m2 0h2m2 0h1m2 0h2m2 0h3m1 0h1m3 0h1m2 0h1m1 0h1m4 0h1m1 0h1m2 0h1m1 0h2m1 0h1m7 0h1m2 0h1m1 0h3m2 0h1m1 0h1m1 0h2m1 0h3m6 0h4m3 0h2m2 0h2m1 0h7m3 0h1m3 0h2m1 0h1m3 0h1M6 70.5h1m1 0h1m1 0h3m3 0h1m1 0h1m1 0h1m4 0h2m1 0h1m3 0h1m2 0h2m1 0h2m1 0h2m3 0h2m2 0h1m1 0h2m4 0h1m2 0h1m3 0h1m2 0h3m4 0h2m2 0h4m1 0h2m1 0h4m1 0h1m2 0h2m7 0h1m2 0h4m2 0h2m1 0h1m2 0h1m1 0h2m1 0h4m3 0h1m3 0h4m1 0h5m1 0h3m2 0h1m2 0h1m2 0h5m4 0h2m2 0h1m2 0h1m3 0h1m1 0h1M6 71.5h1m1 0h1m6 0h1m2 0h2m1 0h1m3 0h2m3 0h3m1 0h5m2 0h1m1 0h4m2 0h1m5 0h1m1 0h2m1 0h1m1 0h1m1 0h2m3 0h3m1 0h1m1 0h2m1 0h1m6 0h4m3 0h1m1 0h1m1 0h1m1 0h1m3 0h5m1 0h2m8 0h3m2 0h1m2 0h4m2 0h1m2 0h3m1 0h1m1 0h3m1 0h1m2 0h2m2 0h1m1 0h4m1 0h3m1 0h1m1 0h2m5 0h1m3 0h3m1 0h1M4 72.5h3m1 0h1m1 0h3m1 0h1m1 0h3m1 0h1m4 0h3m1 0h3m1 0h1m1 0h1m2 0h2m2 0h1m3 0h3m1 0h1m1 0h2m2 0h3m1 0h5m1 0h1m3 0h1m5 0h3m1 0h1m1 0h2m2 0h3m1 0h2m1 0h2m3 0h1m1 0h4m1 0h2m4 0h4m1 0h1m1 0h4m6 0h3m1 0h2m5 0h2m1 0h2m2 0h1m1 0h2m1 0h3m4 0h2m5 0h1m1 0h2m2 0h2m1 0h1m1 0h1m2 0h2M6 73.5h1m1 0h1m5 0h1m1 0h2m3 0h1m3 0h2m1 0h1m1 0h3m1 0h1m3 0h1m4 0h4m1 0h2m3 0h5m7 0h1m5 0h1m1 0h1m1 0h1m2 0h5m1 0h2m1 0h1m4 0h1m1 0h2m3 0h2m4 0h3m3 0h3m2 0h1m4 0h4m1 0h1m6 0h7m1 0h1m1 0h1m1 0h1m5 0h3m8 0h4m1 0h2m1 0h1m1 0h1m3 0h2m1 0h2M7 74.5h2m1 0h3m1 0h1m2 0h3m2 0h4m1 0h2m1 0h1m3 0h2m4 0h1m1 0h2m2 0h2m4 0h3m3 0h1m1 0h2m1 0h2m4 0h2m1 0h1m6 0h1m1 0h2m1 0h1m3 0h3m2 0h1m1 0h1m1 0h8m3 0h1m1 0h3m1 0h3m5 0h1m2 0h1m1 0h1m1 0h2m1 0h3m1 0h1m2 0h1m1 0h1m1 0h4m1 0h4m1 0h3m1 0h1m1 0h3m5 0h1m1 0h3m2 0h2m1 0h1m1 0h1M4 75.5h1m1 0h3m2 0h1m3 0h2m3 0h1m1 0h1m1 0h4m5 0h1m1 0h1m1 0h2m4 0h7m1 0h3m4 0h7m1 0h1m8 0h2m1 0h1m4 0h1m1 0h1m1 0h8m1 0h4m2 0h1m1 0h1m1 0h4m4 0h2m2 0h1m2 0h1m1 0h1m1 0h1m2 0h2m1 0h2m2 0h1m1 0h1m2 0h1m2 0h2m8 0h4m3 0h1m2 0h4m8 0h1m2 0h3M7 76.5h2m1 0h1m3 0h1m3 0h2m1 0h2m1 0h1m1 0h1m4 0h2m7 0h1m1 0h1m1 0h1m2 0h1m2 0h3m1 0h2m1 0h1m2 0h3m1 0h4m1 0h2m1 0h1m1 0h1m1 0h3m2 0h1m3 0h2m1 0h1m1 0h2m2 0h2m4 0h1m5 0h1m2 0h2m1 0h1m2 0h1m1 0h2m1 0h1m4 0h1m1 0h2m1 0h1m2 0h1m5 0h2m1 0h1m2 0h2m1 0h1m1 0h2m3 0h2m2 0h1m2 0h3m2 0h2m1 0h3m1 0h1M5 77.5h5m1 0h2m1 0h2m2 0h4m5 0h1m2 0h1m1 0h1m1 0h1m1 0h1m1 0h1m3 0h1m1 0h6m1 0h1m2 0h3m2 0h1m2 0h2m2 0h1m1 0h3m2 0h1m1 0h1m1 0h1m2 0h1m2 0h4m2 0h1m4 0h1m2 0h1m1 0h1m1 0h1m3 0h2m1 0h2m1 0h2m2 0h1m5 0h2m1 0h1m1 0h1m4 0h1m2 0h1m1 0h4m7 0h1m1 0h3m1 0h1m2 0h1m2 0h1m2 0h3m3 0h1m1 0h3m1 0h1m1 0h2m1 0h2M6 78.5h1m2 0h5m3 0h1m1 0h1m1 0h1m1 0h1m1 0h2m1 0h2m1 0h2m1 0h1m3 0h1m2 0h1m1 0h1m1 0h2m2 0h1m1 0h2m1 0h2m2 0h1m1 0h1m2 0h1m1 0h1m1 0h2m1 0h1m2 0h1m3 0h1m3 0h5m1 0h2m1 0h2m1 0h1m1 0h4m1 0h1m1 0h2m6 0h3m1 0h1m1 0h1m1 0h2m5 0h3m1 0h1m2 0h1m2 0h2m6 0h3m1 0h2m5 0h2m4 0h1m2 0h1m1 0h1m1 0h1m1 0h1m1 0h3m4 0h2M4 79.5h2m6 0h1m3 0h2m3 0h3m1 0h1m5 0h1m3 0h1m2 0h2m6 0h1m2 0h1m3 0h1m1 0h1m2 0h5m1 0h1m1 0h2m3 0h1m2 0h1m1 0h1m1 0h1m4 0h1m1 0h2m2 0h1m2 0h1m2 0h1m1 0h1m1 0h1m4 0h2m2 0h1m1 0h1m2 0h3m1 0h3m1 0h3m1 0h1m2 0h2m2 0h2m2 0h3m4 0h2m3 0h2m3 0h2m2 0h1m1 0h3m1 0h4m4 0h1m1 0h1m1 0h1m1 0h4M4 80.5h2m4 0h1m3 0h1m1 0h1m5 0h1m1 0h7m1 0h1m1 0h4m1 0h1m2 0h1m1 0h2m1 0h5m1 0h1m1 0h1m7 0h4m2 0h1m3 0h1m4 0h1m2 0h4m2 0h1m1 0h1m4 0h2m1 0h1m2 0h1m1 0h1m3 0h1m5 0h1m2 0h2m1 0h1m1 0h2m1 0h1m3 0h7m1 0h1m3 0h2m1 0h1m2 0h3m4 0h1m2 0h4m2 0h1m3 0h1m1 0h1m2 0h4m6 0h1M5 81.5h1m5 0h1m1 0h2m1 0h3m3 0h1m2 0h1m3 0h2m2 0h1m1 0h1m1 0h2m2 0h2m1 0h3m1 0h1m1 0h2m1 0h1m2 0h4m4 0h2m5 0h2m1 0h5m1 0h1m1 0h1m4 0h1m1 0h1m4 0h1m2 0h1m5 0h1m1 0h3m1 0h1m1 0h3m3 0h1m3 0h2m1 0h1m1 0h1m6 0h2m1 0h4m1 0h1m7 0h1m2 0h2m1 0h1m5 0h2m1 0h2m1 0h2m1 0h1m2 0h6m1 0h1M6 82.5h2m1 0h2m2 0h1m2 0h3m3 0h1m1 0h2m1 0h1m1 0h2m1 0h1m2 0h4m2 0h1m1 0h1m2 0h2m1 0h1m1 0h2m2 0h1m1 0h2m2 0h1m5 0h7m3 0h1m1 0h4m1 0h1m3 0h2m2 0h1m2 0h4m1 0h1m1 0h1m1 0h1m3 0h1m1 0h2m2 0h3m2 0h5m1 0h1m2 0h2m1 0h1m1 0h1m2 0h4m1 0h1m1 0h2m1 0h1m1 0h2m1 0h1m2 0h2m3 0h2m1 0h1m6 0h1m3 0h1M4 83.5h1m2 0h2m2 0h1m2 0h2m2 0h3m1 0h2m3 0h2m2 0h1m1 0h1m2 0h1m9 0h1m2 0h1m2 0h2m1 0h1m2 0h5m1 0h4m1 0h1m3 0h4m1 0h1m6 0h2m2 0h2m1 0h2m2 0h1m1 0h1m2 0h2m1 0h2m1 0h2m4 0h1m4 0h2m1 0h1m2 0h2m1 0h1m3 0h2m1 0h2m1 0h6m1 0h1m2 0h2m4 0h2m1 0h2m5 0h1m2 0h2m5 0h1m4 0h1m1 0h1M5 84.5h2m1 0h1m1 0h1m1 0h5m1 0h4m1 0h4m1 0h2m4 0h4m1 0h1m1 0h2m4 0h2m1 0h2m2 0h4m2 0h2m2 0h1m1 0h1m3 0h2m4 0h1m1 0h2m6 0h1m1 0h2m1 0h1m1 0h2m2 0h1m1 0h2m8 0h1m2 0h1m4 0h2m1 0h2m3 0h1m1 0h2m1 0h1m8 0h2m1 0h2m1 0h4m1 0h1m1 0h2m1 0h1m1 0h3m1 0h2m1 0h1m2 0h2m1 0h1m1 0h1m1 0h2M4 85.5h2m2 0h2m5 0h4m1 0h2m1 0h2m2 0h4m5 0h1m3 0h1m3 0h5m1 0h1m2 0h4m4 0h3m1 0h1m1 0h1m3 0h1m1 0h6m3 0h2m1 0h1m2 0h2m1 0h4m5 0h1m4 0h2m2 0h1m6 0h1m5 0h6m1 0h1m1 0h1m1 0h4m1 0h2m4 0h1m1 0h1m2 0h4m4 0h1m1 0h1m1 0h4m1 0h1m1 0h1m6 0h2m3 0h1M4 86.5h3m1 0h1m1 0h6m2 0h1m1 0h2m2 0h2m1 0h1m1 0h1m1 0h1m3 0h3m1 0h2m1 0h1m3 0h1m2 0h5m1 0h1m1 0h3m1 0h1m5 0h5m5 0h1m1 0h1m1 0h2m1 0h1m2 0h2m1 0h1m4 0h2m1 0h1m1 0h4m1 0h1m1 0h5m2 0h1m1 0h1m1 0h7m1 0h2m4 0h1m2 0h1m2 0h2m1 0h2m2 0h1m2 0h2m3 0h3m4 0h1m2 0h1m1 0h1m1 0h1m1 0h2m3 0h2m1 0h3M5 87.5h1m1 0h1m3 0h6m10 0h1m1 0h3m8 0h1m2 0h2m1 0h1m4 0h2m2 0h1m1 0h2m1 0h5m1 0h1m2 0h3m1 0h4m1 0h1m2 0h1m4 0h5m1 0h2m2 0h1m1 0h2m3 0h3m2 0h2m5 0h1m4 0h1m4 0h1m3 0h5m1 0h1m5 0h4m2 0h1m1 0h1m2 0h1m1 0h1m4 0h3m3 0h2m1 0h2m1 0h1m5 0h2m1 0h1M4 88.5h1m1 0h1m1 0h5m1 0h2m1 0h4m2 0h2m2 0h1m1 0h8m1 0h2m2 0h1m1 0h1m4 0h4m1 0h1m5 0h5m1 0h1m2 0h1m1 0h1m1 0h1m4 0h2m1 0h1m1 0h1m2 0h7m1 0h1m2 0h2m1 0h2m10 0h3m1 0h6m3 0h1m1 0h4m1 0h2m5 0h2m1 0h7m6 0h3m2 0h1m1 0h1m4 0h1m1 0h2m1 0h9M5 89.5h1m2 0h1m3 0h1m1 0h6m3 0h2m2 0h2m1 0h1m1 0h1m3 0h8m3 0h2m1 0h5m1 0h1m1 0h3m3 0h3m1 0h1m4 0h1m1 0h1m1 0h1m4 0h2m1 0h1m1 0h2m3 0h6m1 0h3m3 0h3m1 0h1m2 0h2m2 0h1m3 0h5m1 0h1m2 0h3m1 0h4m1 0h1m5 0h1m3 0h1m1 0h1m1 0h1m3 0h1m2 0h1m1 0h2m1 0h2m1 0h1m4 0h1m3 0h1m3 0h1M4 90.5h1m2 0h2m1 0h1m1 0h1m4 0h1m1 0h4m3 0h1m1 0h2m1 0h2m1 0h1m1 0h3m1 0h2m4 0h1m2 0h1m2 0h2m1 0h1m1 0h1m2 0h1m1 0h1m1 0h2m1 0h6m2 0h1m1 0h1m1 0h4m1 0h1m3 0h1m1 0h1m1 0h1m3 0h3m1 0h3m7 0h1m2 0h4m1 0h1m1 0h1m1 0h1m3 0h2m1 0h1m2 0h4m1 0h6m1 0h1m1 0h1m1 0h2m1 0h1m1 0h1m3 0h4m2 0h1m1 0h1m1 0h1m1 0h1m2 0h1m1 0h1m1 0h1m1 0h2M5 91.5h2m1 0h1m3 0h2m1 0h5m1 0h1m1 0h4m2 0h4m3 0h1m1 0h3m5 0h1m4 0h2m2 0h2m1 0h1m1 0h1m3 0h1m1 0h2m3 0h1m1 0h2m1 0h1m1 0h1m4 0h1m1 0h4m3 0h3m1 0h3m2 0h4m3 0h4m1 0h2m1 0h1m3 0h4m4 0h1m1 0h2m1 0h1m6 0h1m3 0h1m3 0h2m1 0h1m1 0h3m9 0h2m2 0h1m2 0h1m3 0h1m1 0h1m1 0h1M5 92.5h2m1 0h5m2 0h1m3 0h2m2 0h2m5 0h1m1 0h7m3 0h1m1 0h2m1 0h4m1 0h4m1 0h1m1 0h6m2 0h1m3 0h1m3 0h2m1 0h1m2 0h1m1 0h1m1 0h2m1 0h6m5 0h2m1 0h2m1 0h2m5 0h2m1 0h6m6 0h4m1 0h1m7 0h1m1 0h7m1 0h1m1 0h1m2 0h1m1 0h3m1 0h2m6 0h2m1 0h5m2 0h1M5 93.5h5m2 0h1m1 0h1m3 0h2m2 0h1m4 0h2m1 0h1m1 0h1m1 0h1m1 0h1m2 0h5m1 0h1m1 0h2m1 0h1m4 0h2m2 0h1m1 0h3m1 0h6m1 0h2m2 0h5m5 0h1m1 0h1m2 0h1m2 0h1m2 0h1m1 0h2m4 0h2m1 0h2m2 0h1m3 0h3m1 0h5m1 0h1m4 0h1m1 0h2m1 0h3m4 0h1m2 0h2m1 0h1m1 0h2m1 0h3m1 0h2m2 0h4m1 0h2m1 0h5m1 0h3m1 0h1M7 94.5h2m1 0h2m2 0h1m1 0h2m1 0h2m1 0h2m3 0h1m2 0h2m1 0h1m2 0h2m1 0h3m2 0h1m1 0h1m2 0h2m1 0h2m1 0h1m1 0h2m1 0h1m1 0h1m1 0h2m2 0h1m1 0h1m1 0h2m5 0h1m1 0h2m1 0h2m1 0h3m1 0h1m4 0h4m1 0h2m2 0h1m4 0h2m1 0h4m1 0h2m1 0h2m1 0h5m2 0h2m1 0h2m2 0h7m15 0h1m6 0h1m3 0h1m2 0h1m1 0h1m1 0h2M5 95.5h3m3 0h1m2 0h1m2 0h5m2 0h1m2 0h1m1 0h2m1 0h2m1 0h3m1 0h3m1 0h4m5 0h1m5 0h4m3 0h1m1 0h1m5 0h2m1 0h1m1 0h1m2 0h1m1 0h1m2 0h1m1 0h1m1 0h2m1 0h1m2 0h1m1 0h1m3 0h3m2 0h2m1 0h4m1 0h6m1 0h2m4 0h1m1 0h1m1 0h2m2 0h1m3 0h1m1 0h1m4 0h2m5 0h1m1 0h2m1 0h1m4 0h3m2 0h1m3 0h1m4 0h2M5 96.5h1m1 0h1m1 0h4m2 0h1m2 0h2m1 0h2m1 0h3m1 0h1m1 0h1m1 0h3m1 0h1m1 0h4m2 0h1m2 0h4m3 0h2m1 0h1m2 0h1m1 0h1m1 0h3m1 0h3m3 0h2m1 0h1m1 0h1m6 0h4m1 0h2m4 0h1m2 0h1m1 0h2m2 0h2m3 0h3m3 0h2m1 0h1m4 0h1m1 0h2m1 0h1m1 0h1m2 0h2m2 0h4m1 0h2m1 0h7m3 0h2m3 0h2m1 0h1m3 0h3m1 0h1m5 0h2M4 97.5h1m1 0h2m5 0h1m1 0h4m2 0h1m1 0h6m2 0h4m1 0h1m3 0h2m1 0h2m3 0h1m5 0h3m5 0h1m1 0h2m1 0h1m1 0h2m1 0h2m1 0h1m4 0h1m1 0h2m1 0h2m2 0h3m2 0h2m3 0h3m1 0h4m1 0h1m3 0h1m4 0h3m1 0h2m1 0h3m4 0h1m1 0h4m1 0h1m4 0h1m1 0h3m2 0h3m1 0h1m1 0h4m1 0h1m1 0h4m1 0h1m1 0h3m1 0h2m2 0h3M8 98.5h5m2 0h2m1 0h1m2 0h5m1 0h6m2 0h3m1 0h1m1 0h2m3 0h2m4 0h4m1 0h3m1 0h1m3 0h1m2 0h1m1 0h1m1 0h1m4 0h1m1 0h4m1 0h2m7 0h1m2 0h1m5 0h1m1 0h9m1 0h3m2 0h1m2 0h4m1 0h3m2 0h1m1 0h3m1 0h3m1 0h2m1 0h2m2 0h3m8 0h2m4 0h1m2 0h3m1 0h1m2 0h1m1 0h1M4 99.5h2m1 0h1m1 0h1m2 0h1m1 0h2m5 0h1m5 0h3m3 0h1m1 0h7m1 0h1m2 0h4m3 0h1m1 0h5m3 0h1m1 0h3m7 0h2m8 0h2m1 0h1m1 0h3m3 0h2m3 0h1m1 0h4m1 0h1m4 0h3m2 0h2m1 0h1m1 0h1m1 0h1m1 0h2m1 0h1m2 0h2m1 0h1m1 0h2m7 0h3m1 0h2m1 0h2m1 0h1m1 0h2m2 0h1m2 0h2m1 0h1m3 0h2m3 0h2M6 100.5h2m1 0h2m2 0h3m1 0h1m6 0h2m5 0h2m3 0h1m1 0h5m5 0h1m1 0h1m1 0h3m1 0h2m4 0h5m1 0h4m1 0h11m1 0h4m6 0h1m4 0h2m3 0h3m3 0h2m1 0h2m1 0h1m2 0h1m6 0h4m1 0h1m7 0h1m1 0h1m4 0h2m1 0h1m6 0h2m1 0h5m2 0h1m2 0h2M4 101.5h2m1 0h1m3 0h1m1 0h3m1 0h1m1 0h2m1 0h2m4 0h1m1 0h2m2 0h4m3 0h2m1 0h2m2 0h1m1 0h1m3 0h1m1 0h1m1 0h1m2 0h2m1 0h1m1 0h4m1 0h1m1 0h1m2 0h1m3 0h1m1 0h1m1 0h1m5 0h1m2 0h2m5 0h1m2 0h1m2 0h1m2 0h1m2 0h1m3 0h6m1 0h4m3 0h2m1 0h4m1 0h1m4 0h2m1 0h2m1 0h4m1 0h1m1 0h1m1 0h1m2 0h5m1 0h2m1 0h6m4 0h1M4 102.5h2m1 0h1m1 0h2m1 0h1m3 0h1m2 0h1m1 0h3m5 0h3m1 0h1m1 0h1m3 0h1m1 0h3m1 0h3m2 0h1m1 0h4m1 0h1m1 0h1m3 0h1m1 0h1m1 0h2m1 0h3m2 0h3m2 0h1m1 0h1m1 0h2m3 0h1m1 0h2m3 0h1m5 0h1m2 0h1m1 0h2m1 0h2m2 0h4m1 0h1m1 0h2m4 0h1m2 0h1m1 0h1m1 0h3m1 0h1m1 0h2m2 0h4m2 0h1m2 0h1m3 0h1m1 0h2m2 0h1m3 0h1m2 0h8M5 103.5h1m1 0h1m3 0h1m4 0h2m2 0h2m1 0h1m11 0h1m1 0h1m2 0h1m3 0h4m1 0h1m5 0h1m1 0h3m1 0h1m4 0h2m1 0h1m3 0h6m4 0h1m1 0h2m1 0h1m1 0h1m1 0h2m2 0h2m3 0h1m1 0h3m1 0h3m1 0h1m1 0h2m1 0h2m1 0h1m3 0h1m2 0h1m1 0h1m4 0h1m4 0h2m2 0h1m5 0h1m5 0h1m4 0h3m1 0h1m1 0h2m2 0h1m3 0h1m1 0h1m2 0h2M4 104.5h5m1 0h2m2 0h2m1 0h7m1 0h1m3 0h1m2 0h1m2 0h1m1 0h1m1 0h1m2 0h2m2 0h2m1 0h2m1 0h3m1 0h1m3 0h6m3 0h1m3 0h2m1 0h1m1 0h2m2 0h1m1 0h2m5 0h2m1 0h2m4 0h2m3 0h2m4 0h2m1 0h3m2 0h1m3 0h1m4 0h3m1 0h1m3 0h1m3 0h3m2 0h1m1 0h2m1 0h3m4 0h2m2 0h1m2 0h2m1 0h1m2 0h1m1 0h2m6 0h1M4 105.5h2m1 0h1m3 0h4m1 0h1m1 0h1m1 0h2m4 0h7m1 0h1m1 0h3m2 0h4m3 0h3m2 0h2m1 0h3m1 0h2m1 0h1m1 0h1m1 0h1m1 0h5m1 0h1m3 0h2m2 0h1m2 0h1m1 0h2m1 0h1m1 0h2m2 0h1m5 0h1m2 0h4m1 0h1m4 0h5m1 0h3m1 0h2m3 0h1m3 0h2m1 0h2m5 0h3m1 0h1m1 0h4m1 0h1m1 0h1m4 0h3m2 0h2m2 0h3m2 0h2m1 0h1M9 106.5h2m2 0h1m1 0h1m1 0h3m1 0h1m5 0h1m1 0h1m4 0h1m3 0h1m1 0h2m1 0h1m1 0h3m2 0h1m1 0h1m2 0h1m2 0h5m1 0h1m3 0h3m1 0h2m2 0h1m2 0h2m1 0h2m1 0h1m5 0h3m2 0h1m1 0h1m1 0h1m1 0h1m1 0h1m3 0h4m2 0h2m7 0h1m2 0h2m1 0h3m3 0h1m2 0h1m4 0h2m1 0h1m3 0h2m1 0h2m2 0h1m2 0h4m2 0h2m3 0h1m1 0h1m1 0h4M5 107.5h1m1 0h1m3 0h1m3 0h1m2 0h1m1 0h2m1 0h1m1 0h1m2 0h1m1 0h1m1 0h1m5 0h1m1 0h2m4 0h1m2 0h1m1 0h3m4 0h2m6 0h2m5 0h4m1 0h1m4 0h1m1 0h3m2 0h1m1 0h1m2 0h2m1 0h11m2 0h1m3 0h4m3 0h1m1 0h5m1 0h3m4 0h1m1 0h3m6 0h1m2 0h1m2 0h1m5 0h1m2 0h4m2 0h1m2 0h2m4 0h1M6 108.5h1m1 0h3m1 0h1m5 0h1m2 0h1m3 0h1m3 0h1m2 0h1m1 0h1m1 0h1m1 0h2m1 0h4m2 0h4m3 0h1m5 0h6m3 0h1m1 0h1m2 0h1m1 0h4m5 0h1m1 0h1m1 0h1m1 0h3m4 0h5m2 0h2m5 0h2m1 0h2m2 0h3m6 0h3m1 0h1m4 0h1m1 0h2m1 0h2m4 0h1m1 0h3m3 0h1m2 0h2m1 0h1m4 0h1m2 0h1m4 0h3m1 0h2M5 109.5h2m2 0h1m1 0h3m1 0h1m1 0h1m2 0h2m2 0h3m5 0h4m2 0h2m1 0h1m2 0h2m1 0h3m4 0h5m1 0h1m4 0h2m2 0h2m1 0h2m1 0h1m4 0h5m1 0h1m4 0h1m2 0h1m2 0h1m2 0h2m4 0h1m2 0h1m1 0h1m1 0h1m2 0h3m1 0h3m1 0h4m1 0h1m6 0h1m1 0h2m3 0h1m7 0h3m2 0h2m3 0h1m1 0h3m1 0h2m1 0h2m2 0h1m1 0h1m1 0h1m1 0h1M6 110.5h2m1 0h2m2 0h1m3 0h1m2 0h4m1 0h1m2 0h4m2 0h3m1 0h5m2 0h1m4 0h5m3 0h2m1 0h1m1 0h2m2 0h2m1 0h1m1 0h1m2 0h3m1 0h2m1 0h1m1 0h1m6 0h3m3 0h4m1 0h1m1 0h2m2 0h3m2 0h3m3 0h1m4 0h4m2 0h2m2 0h4m5 0h2m1 0h1m2 0h2m3 0h1m2 0h2m1 0h2m3 0h2m2 0h1m1 0h4m1 0h1M5 111.5h1m1 0h2m2 0h1m2 0h1m1 0h12m3 0h1m1 0h4m2 0h1m1 0h1m3 0h2m1 0h1m7 0h1m1 0h2m6 0h1m2 0h1m3 0h4m1 0h1m2 0h1m3 0h2m1 0h1m1 0h1m1 0h1m3 0h3m3 0h1m1 0h1m4 0h2m5 0h2m6 0h1m3 0h1m4 0h1m2 0h1m3 0h3m1 0h1m2 0h3m1 0h5m1 0h1m2 0h1m2 0h1m2 0h3m4 0h2m3 0h3M6 112.5h3m1 0h3m1 0h1m2 0h1m2 0h4m3 0h2m1 0h1m6 0h3m2 0h2m1 0h1m5 0h1m2 0h3m3 0h3m1 0h4m1 0h1m1 0h1m1 0h1m1 0h1m1 0h2m4 0h1m2 0h4m1 0h5m4 0h2m1 0h1m1 0h3m2 0h3m1 0h1m3 0h1m1 0h2m5 0h2m1 0h3m4 0h1m1 0h2m1 0h2m1 0h1m1 0h3m1 0h1m3 0h1m1 0h2m3 0h1m1 0h2m2 0h2m3 0h1m1 0h1M5 113.5h1m1 0h1m1 0h1m1 0h1m7 0h2m1 0h1m1 0h2m1 0h2m1 0h3m2 0h1m4 0h7m1 0h1m1 0h1m2 0h5m2 0h2m1 0h2m3 0h1m2 0h4m1 0h2m3 0h4m3 0h4m2 0h1m2 0h1m1 0h3m1 0h1m1 0h2m1 0h1m3 0h2m3 0h11m5 0h6m4 0h1m2 0h2m1 0h8m1 0h2m1 0h2m2 0h1m2 0h2m3 0h4m1 0h1m1 0h1M4 114.5h2m1 0h2m1 0h4m1 0h2m1 0h1m1 0h2m2 0h1m1 0h4m1 0h1m1 0h4m3 0h1m1 0h1m3 0h1m5 0h1m2 0h1m1 0h2m5 0h2m1 0h2m1 0h1m1 0h2m1 0h1m4 0h3m1 0h1m4 0h1m6 0h5m1 0h1m1 0h1m2 0h5m2 0h2m3 0h1m2 0h1m2 0h1m3 0h1m1 0h1m2 0h1m1 0h2m1 0h1m1 0h1m1 0h2m2 0h1m2 0h2m1 0h1m6 0h1m4 0h3m1 0h6m1 0h1M4 115.5h3m1 0h1m2 0h1m2 0h1m2 0h1m1 0h2m3 0h2m2 0h1m2 0h1m2 0h1m2 0h2m1 0h3m3 0h3m4 0h1m1 0h1m1 0h3m1 0h1m4 0h2m5 0h2m1 0h1m1 0h2m3 0h1m1 0h1m2 0h1m1 0h2m3 0h2m4 0h1m1 0h3m2 0h3m2 0h1m1 0h1m1 0h4m3 0h7m2 0h2m2 0h1m2 0h1m1 0h1m3 0h1m1 0h2m4 0h2m1 0h1m1 0h1m1 0h1m4 0h2m1 0h1m3 0h1m3 0h3M5 116.5h1m1 0h8m2 0h5m1 0h1m1 0h4m1 0h7m1 0h2m4 0h2m1 0h1m1 0h3m2 0h1m5 0h7m1 0h3m4 0h4m3 0h2m2 0h8m4 0h3m2 0h1m8 0h1m3 0h5m2 0h1m6 0h1m1 0h2m3 0h1m2 0h3m1 0h5m1 0h3m2 0h1m2 0h5m1 0h2m1 0h2m1 0h1m1 0h5m3 0h1M4 117.5h3m1 0h1m3 0h2m2 0h1m2 0h1m1 0h4m2 0h1m4 0h1m3 0h1m2 0h2m1 0h3m2 0h3m5 0h3m1 0h2m3 0h1m5 0h2m2 0h3m3 0h2m1 0h1m1 0h4m3 0h4m10 0h1m2 0h1m2 0h1m2 0h2m3 0h1m1 0h3m1 0h1m6 0h2m1 0h4m1 0h1m2 0h1m3 0h1m3 0h1m1 0h1m1 0h3m3 0h1m1 0h2m1 0h2m2 0h2m3 0h2m2 0h1M4 118.5h2m2 0h1m1 0h1m1 0h4m1 0h2m7 0h1m2 0h4m1 0h1m1 0h1m4 0h3m1 0h3m3 0h2m1 0h2m1 0h2m1 0h1m1 0h1m1 0h2m1 0h4m1 0h2m3 0h1m1 0h2m1 0h1m1 0h2m2 0h1m1 0h1m1 0h1m4 0h3m2 0h2m3 0h4m1 0h1m1 0h1m1 0h1m1 0h1m1 0h3m1 0h1m1 0h4m1 0h1m2 0h3m2 0h3m1 0h2m1 0h1m1 0h2m4 0h2m3 0h5m3 0h1m3 0h2m1 0h1m1 0h2m1 0h1M4 119.5h1m3 0h1m3 0h1m1 0h1m1 0h1m2 0h3m1 0h1m2 0h2m3 0h2m3 0h1m1 0h1m1 0h1m5 0h1m1 0h2m2 0h1m5 0h3m3 0h1m2 0h1m3 0h1m1 0h5m1 0h1m3 0h1m1 0h4m3 0h2m2 0h1m1 0h1m2 0h1m1 0h1m1 0h1m2 0h1m5 0h3m3 0h1m2 0h1m1 0h4m1 0h2m2 0h1m3 0h2m2 0h1m1 0h1m3 0h1m2 0h1m2 0h2m3 0h2m2 0h1m1 0h2m2 0h1m2 0h1m3 0h3M8 120.5h5m1 0h2m3 0h8m2 0h2m1 0h8m1 0h3m3 0h2m3 0h1m1 0h1m4 0h6m1 0h1m2 0h1m1 0h1m1 0h5m4 0h3m1 0h7m1 0h1m2 0h1m2 0h1m8 0h1m2 0h10m1 0h1m1 0h1m2 0h5m2 0h1m1 0h1m3 0h8m1 0h1m4 0h4m1 0h3m1 0h1m3 0h9m2 0h2M4 121.5h1m3 0h1m3 0h2m1 0h1m5 0h1m3 0h1m3 0h1m4 0h2m1 0h2m1 0h2m2 0h1m1 0h1m1 0h1m5 0h2m1 0h2m1 0h3m1 0h1m2 0h1m2 0h3m3 0h1m1 0h1m1 0h1m3 0h1m2 0h1m1 0h1m1 0h5m1 0h1m2 0h2m1 0h1m1 0h2m1 0h2m1 0h1m1 0h1m1 0h1m2 0h1m1 0h3m1 0h1m1 0h2m6 0h1m1 0h1m1 0h1m2 0h2m6 0h1m1 0h1m1 0h1m2 0h2m1 0h1m2 0h3m1 0h1m1 0h1m3 0h1m2 0h1m1 0h2m1 0h1M5 122.5h2m1 0h1m1 0h2m2 0h3m2 0h1m3 0h5m1 0h5m2 0h1m4 0h1m1 0h1m1 0h3m3 0h3m4 0h2m5 0h1m1 0h7m3 0h1m1 0h4m1 0h2m1 0h1m3 0h1m2 0h1m1 0h1m1 0h1m2 0h3m3 0h2m1 0h1m3 0h3m1 0h4m1 0h2m2 0h1m3 0h1m2 0h6m1 0h2m1 0h4m5 0h2m2 0h1m2 0h1m1 0h1m4 0h1m1 0h1m1 0h4M5 123.5h2m4 0h5m2 0h3m2 0h1m1 0h2m1 0h1m5 0h5m1 0h2m1 0h1m2 0h2m4 0h2m1 0h1m2 0h1m5 0h1m1 0h1m7 0h1m1 0h1m1 0h1m4 0h1m2 0h4m2 0h3m1 0h1m2 0h1m2 0h1m1 0h3m1 0h2m1 0h1m1 0h1m1 0h2m2 0h1m1 0h1m2 0h2m4 0h1m4 0h1m1 0h1m2 0h4m1 0h1m1 0h1m1 0h1m1 0h1m1 0h3m1 0h1m2 0h2m1 0h1m2 0h1m1 0h2m1 0h2m3 0h4M10 124.5h3m1 0h1m1 0h2m1 0h1m2 0h1m1 0h3m1 0h3m2 0h2m3 0h1m1 0h1m1 0h4m1 0h1m1 0h3m1 0h1m2 0h2m1 0h2m3 0h6m4 0h2m1 0h2m2 0h1m1 0h1m2 0h2m2 0h2m3 0h1m1 0h2m1 0h1m1 0h2m2 0h2m4 0h4m1 0h1m1 0h1m3 0h2m3 0h5m6 0h2m1 0h1m1 0h1m3 0h1m1 0h1m1 0h1m3 0h1m1 0h2m2 0h1m7 0h1m2 0h1m1 0h1M11 125.5h1m3 0h5m1 0h2m1 0h2m1 0h1m1 0h1m1 0h3m3 0h2m3 0h4m2 0h1m1 0h3m2 0h11m1 0h1m2 0h3m1 0h1m3 0h1m1 0h1m1 0h1m1 0h2m1 0h1m3 0h2m1 0h1m1 0h1m3 0h2m1 0h1m1 0h4m4 0h1m3 0h2m2 0h4m1 0h1m3 0h1m2 0h2m1 0h4m1 0h1m1 0h1m1 0h1m1 0h2m1 0h1m3 0h1m1 0h1m5 0h4m2 0h5m2 0h1m1 0h3M7 126.5h4m2 0h1m2 0h1m1 0h1m1 0h2m2 0h2m1 0h2m4 0h1m1 0h3m1 0h3m3 0h2m4 0h3m4 0h1m2 0h2m4 0h2m1 0h1m1 0h1m6 0h2m1 0h1m1 0h1m5 0h1m4 0h2m5 0h2m1 0h2m3 0h1m1 0h1m1 0h3m1 0h3m1 0h5m2 0h5m1 0h4m2 0h1m1 0h1m2 0h1m1 0h3m3 0h1m4 0h5m2 0h1m2 0h1m3 0h2m1 0h4M5 127.5h2m1 0h2m1 0h1m1 0h4m2 0h3m3 0h7m2 0h4m3 0h1m1 0h1m1 0h2m1 0h1m3 0h1m5 0h1m4 0h1m1 0h2m2 0h1m3 0h2m1 0h4m8 0h2m1 0h1m1 0h1m7 0h6m1 0h1m4 0h1m1 0h2m2 0h1m3 0h1m5 0h2m1 0h2m4 0h1m2 0h2m1 0h2m1 0h1m1 0h1m3 0h3m4 0h2m1 0h1m1 0h2m2 0h1m1 0h1m1 0h1m1 0h2m1 0h1M5 128.5h7m1 0h2m2 0h2m3 0h2m2 0h2m2 0h2m1 0h1m1 0h1m1 0h2m3 0h1m4 0h3m3 0h2m1 0h2m1 0h2m4 0h2m5 0h2m1 0h2m5 0h2m1 0h1m1 0h2m1 0h1m1 0h4m1 0h2m1 0h1m2 0h1m3 0h1m1 0h1m2 0h2m1 0h1m3 0h1m3 0h1m1 0h1m1 0h2m1 0h1m1 0h2m5 0h6m2 0h2m1 0h7m1 0h2m2 0h5m1 0h3m3 0h2m3 0h2M11 129.5h1m1 0h1m1 0h6m2 0h2m3 0h1m1 0h3m1 0h2m5 0h1m1 0h3m2 0h4m2 0h1m1 0h1m1 0h3m1 0h3m3 0h1m1 0h5m3 0h7m2 0h8m2 0h1m2 0h2m3 0h2m4 0h2m5 0h1m2 0h2m1 0h1m1 0h2m3 0h1m1 0h2m1 0h1m1 0h2m1 0h1m1 0h1m1 0h1m1 0h2m1 0h5m1 0h3m3 0h1m3 0h5m1 0h1m4 0h1m2 0h1M4 130.5h3m1 0h1m1 0h7m1 0h1m3 0h3m1 0h2m3 0h1m1 0h1m1 0h1m1 0h1m2 0h1m1 0h2m2 0h1m5 0h2m1 0h1m1 0h2m2 0h3m1 0h1m1 0h2m1 0h1m1 0h2m1 0h1m3 0h4m1 0h1m2 0h1m3 0h1m1 0h6m1 0h1m1 0h3m2 0h4m1 0h1m1 0h2m2 0h1m2 0h1m3 0h1m1 0h2m3 0h1m4 0h3m1 0h1m2 0h3m1 0h1m2 0h1m1 0h2m2 0h2m1 0h1m1 0h1m2 0h1m3 0h1m4 0h1M8 131.5h2m1 0h4m2 0h1m2 0h2m1 0h1m5 0h1m2 0h2m3 0h4m3 0h3m1 0h1m2 0h3m4 0h2m1 0h1m1 0h2m1 0h2m6 0h1m1 0h3m4 0h1m2 0h1m1 0h2m1 0h1m1 0h1m1 0h4m3 0h1m1 0h5m2 0h1m2 0h1m1 0h1m2 0h1m1 0h1m1 0h1m1 0h1m1 0h1m2 0h2m1 0h3m2 0h3m1 0h3m2 0h1m3 0h1m2 0h1m1 0h1m4 0h1m1 0h1m2 0h1m5 0h1m1 0h5M10 132.5h1m3 0h3m2 0h1m1 0h2m1 0h1m3 0h2m1 0h3m4 0h2m2 0h1m1 0h1m2 0h6m1 0h1m1 0h2m1 0h1m5 0h1m1 0h3m1 0h1m1 0h3m2 0h4m6 0h1m1 0h1m3 0h1m5 0h1m4 0h3m1 0h1m2 0h3m6 0h1m5 0h7m5 0h4m1 0h2m2 0h1m1 0h3m2 0h1m1 0h3m3 0h2m5 0h2m1 0h1m1 0h1m1 0h1m1 0h1M4 133.5h1m1 0h3m3 0h1m2 0h1m3 0h3m1 0h3m9 0h12m1 0h1m1 0h1m2 0h1m1 0h3m1 0h4m1 0h2m2 0h1m2 0h3m2 0h1m3 0h1m1 0h2m3 0h1m1 0h1m2 0h3m2 0h1m1 0h1m4 0h1m1 0h2m1 0h1m2 0h2m1 0h2m1 0h3m1 0h1m1 0h3m2 0h1m3 0h4m1 0h2m3 0h1m1 0h1m1 0h1m3 0h4m3 0h1m4 0h3m2 0h3m1 0h2m4 0h1M4 134.5h1m5 0h1m3 0h1m1 0h2m3 0h5m1 0h3m1 0h1m2 0h2m1 0h1m2 0h1m1 0h2m2 0h2m1 0h2m1 0h2m3 0h3m1 0h4m3 0h1m1 0h1m2 0h1m3 0h1m1 0h6m4 0h2m4 0h5m1 0h2m1 0h1m3 0h4m2 0h1m3 0h1m1 0h2m1 0h3m1 0h2m1 0h1m8 0h1m3 0h2m1 0h1m2 0h1m1 0h1m2 0h2m4 0h1m1 0h2m1 0h2m2 0h2m1 0h1m1 0h1m4 0h1M4 135.5h1m2 0h1m3 0h1m1 0h1m1 0h1m4 0h1m1 0h1m1 0h2m3 0h2m2 0h2m5 0h1m4 0h3m1 0h1m2 0h1m4 0h3m2 0h6m1 0h1m1 0h1m1 0h2m1 0h1m1 0h2m7 0h3m3 0h1m1 0h1m5 0h1m1 0h2m1 0h1m1 0h1m1 0h1m1 0h5m4 0h5m2 0h1m2 0h2m2 0h1m2 0h3m3 0h2m1 0h1m5 0h2m10 0h2m1 0h2m1 0h1m2 0h1m1 0h1m1 0h2M6 136.5h3m1 0h2m1 0h3m1 0h1m1 0h2m5 0h5m1 0h1m3 0h2m2 0h1m1 0h4m1 0h4m1 0h1m1 0h1m1 0h1m1 0h1m2 0h1m3 0h1m1 0h2m1 0h1m1 0h1m5 0h2m4 0h1m3 0h1m1 0h1m2 0h3m3 0h2m2 0h1m3 0h1m1 0h4m4 0h2m1 0h1m2 0h1m3 0h4m1 0h2m1 0h1m3 0h5m1 0h4m1 0h1m1 0h4m1 0h3m2 0h3m1 0h5m2 0h1m1 0h1m3 0h2M6 137.5h1m2 0h1m2 0h1m6 0h2m1 0h1m1 0h1m3 0h1m3 0h3m2 0h1m1 0h2m3 0h1m2 0h3m3 0h3m4 0h3m1 0h1m1 0h2m3 0h4m1 0h6m2 0h1m2 0h1m1 0h2m3 0h4m8 0h1m1 0h1m2 0h2m2 0h1m1 0h2m1 0h2m2 0h4m3 0h1m1 0h4m1 0h1m4 0h1m1 0h1m1 0h2m3 0h1m3 0h3m2 0h4m2 0h1m1 0h1m2 0h1m4 0h2m1 0h1M4 138.5h1m2 0h1m1 0h6m2 0h3m4 0h1m1 0h1m1 0h1m1 0h1m1 0h1m1 0h1m1 0h1m2 0h1m1 0h1m1 0h1m1 0h1m1 0h1m1 0h2m1 0h1m1 0h2m1 0h3m1 0h1m2 0h1m4 0h5m5 0h2m1 0h1m4 0h1m1 0h1m3 0h1m2 0h3m1 0h1m1 0h1m1 0h2m3 0h1m1 0h4m1 0h5m3 0h3m4 0h1m2 0h1m10 0h4m1 0h2m1 0h3m4 0h1m5 0h2m1 0h2m1 0h1m1 0h1m2 0h3M5 139.5h1m1 0h3m2 0h1m1 0h2m4 0h2m2 0h2m2 0h3m1 0h1m1 0h1m1 0h1m2 0h2m2 0h1m1 0h2m1 0h1m2 0h3m1 0h2m1 0h1m3 0h3m1 0h1m2 0h1m3 0h4m1 0h2m1 0h1m1 0h1m1 0h4m2 0h1m3 0h4m2 0h2m1 0h7m2 0h2m1 0h2m1 0h1m1 0h3m6 0h1m1 0h2m1 0h1m1 0h1m2 0h8m6 0h3m6 0h1m1 0h2m1 0h1m2 0h2m1 0h1m1 0h3M5 140.5h3m1 0h2m1 0h1m3 0h1m1 0h2m2 0h2m4 0h5m1 0h3m1 0h2m1 0h1m2 0h2m1 0h5m2 0h1m1 0h1m2 0h2m4 0h3m1 0h1m1 0h1m2 0h5m5 0h2m1 0h2m1 0h1m1 0h1m1 0h1m2 0h1m2 0h2m3 0h1m3 0h1m1 0h2m8 0h1m7 0h2m1 0h2m3 0h1m1 0h2m1 0h1m1 0h1m1 0h1m1 0h5m3 0h1m5 0h4m1 0h1m2 0h1m2 0h1m1 0h1m3 0h1M4 141.5h1m1 0h4m1 0h1m4 0h1m1 0h2m8 0h2m1 0h1m1 0h3m1 0h2m1 0h1m3 0h2m4 0h2m3 0h3m1 0h2m3 0h3m3 0h3m2 0h2m4 0h5m1 0h2m1 0h3m1 0h2m1 0h1m1 0h1m6 0h2m1 0h1m3 0h1m1 0h1m1 0h6m1 0h3m2 0h1m4 0h4m1 0h1m5 0h1m1 0h1m1 0h1m2 0h1m1 0h3m1 0h2m3 0h4m1 0h1m3 0h1m2 0h1m2 0h1m1 0h1M6 142.5h1m2 0h2m1 0h1m4 0h1m1 0h1m4 0h1m1 0h1m1 0h1m3 0h1m2 0h1m2 0h3m2 0h1m2 0h3m3 0h1m1 0h2m7 0h3m1 0h2m1 0h4m3 0h1m1 0h4m1 0h2m1 0h1m3 0h1m5 0h2m1 0h1m1 0h1m4 0h6m4 0h2m2 0h1m1 0h2m1 0h2m1 0h2m1 0h1m2 0h1m1 0h4m1 0h2m2 0h1m2 0h1m1 0h1m1 0h1m1 0h1m1 0h1m2 0h4m2 0h2m3 0h7M4 143.5h2m1 0h3m5 0h4m4 0h2m1 0h1m1 0h2m3 0h2m1 0h2m3 0h1m1 0h1m1 0h2m1 0h2m2 0h1m4 0h2m1 0h1m4 0h2m2 0h1m4 0h3m1 0h1m2 0h2m3 0h1m1 0h2m2 0h2m4 0h1m2 0h5m2 0h1m1 0h1m3 0h1m1 0h1m2 0h1m1 0h1m2 0h2m2 0h1m5 0h4m1 0h1m3 0h4m4 0h1m1 0h2m2 0h1m1 0h3m4 0h1m4 0h2m1 0h7M4 144.5h3m1 0h5m1 0h5m1 0h2m1 0h3m3 0h1m1 0h6m4 0h1m2 0h2m1 0h2m1 0h2m2 0h3m3 0h5m1 0h1m3 0h1m3 0h1m2 0h3m1 0h2m1 0h2m1 0h9m3 0h2m1 0h2m3 0h1m1 0h1m1 0h2m1 0h1m1 0h5m3 0h1m2 0h2m1 0h3m2 0h1m1 0h1m1 0h2m1 0h1m1 0h7m1 0h2m1 0h1m2 0h1m1 0h1m1 0h1m4 0h2m1 0h1m1 0h5m2 0h1M4 145.5h1m2 0h2m3 0h2m3 0h1m3 0h2m3 0h1m1 0h1m1 0h3m3 0h7m2 0h1m1 0h4m3 0h4m2 0h1m3 0h3m2 0h5m2 0h10m1 0h2m3 0h1m1 0h2m1 0h1m2 0h1m2 0h2m1 0h1m5 0h1m2 0h2m3 0h1m1 0h3m1 0h1m4 0h1m1 0h4m2 0h1m1 0h1m1 0h2m3 0h2m2 0h1m3 0h1m4 0h2m1 0h1m2 0h2m2 0h2m3 0h4M8 146.5h1m1 0h1m1 0h4m1 0h1m1 0h1m1 0h1m1 0h5m3 0h2m1 0h1m1 0h2m8 0h2m1 0h1m2 0h1m2 0h1m2 0h3m1 0h1m1 0h1m2 0h2m1 0h1m1 0h1m4 0h1m1 0h2m1 0h1m1 0h1m2 0h2m1 0h1m1 0h2m1 0h1m2 0h2m2 0h1m1 0h2m1 0h5m1 0h2m1 0h1m1 0h1m1 0h2m2 0h2m4 0h1m3 0h1m1 0h1m3 0h1m3 0h1m1 0h1m1 0h1m2 0h1m2 0h2m1 0h1m2 0h1m2 0h1m7 0h2m1 0h1m1 0h1m1 0h2M4 147.5h1m3 0h1m3 0h1m3 0h1m2 0h3m1 0h1m1 0h2m4 0h2m3 0h5m1 0h1m2 0h4m2 0h2m4 0h4m3 0h1m1 0h1m2 0h1m1 0h1m1 0h2m1 0h1m1 0h1m2 0h1m1 0h1m3 0h2m3 0h1m1 0h1m1 0h3m3 0h1m1 0h5m1 0h1m5 0h1m3 0h1m1 0h1m1 0h1m2 0h7m3 0h2m2 0h2m1 0h1m3 0h1m2 0h1m2 0h1m4 0h2m2 0h1m2 0h1m5 0h1m3 0h3M6 148.5h1m1 0h7m4 0h2m3 0h4m2 0h1m1 0h5m2 0h1m2 0h3m2 0h4m1 0h1m1 0h1m2 0h1m2 0h6m1 0h5m2 0h1m1 0h5m1 0h2m1 0h1m2 0h5m4 0h1m2 0h1m5 0h2m4 0h2m1 0h7m3 0h1m1 0h2m1 0h2m1 0h1m1 0h1m6 0h1m1 0h5m1 0h1m1 0h1m2 0h9m5 0h2m1 0h5M4 149.5h1m4 0h1m5 0h3m4 0h1m1 0h6m1 0h2m1 0h4m1 0h1m1 0h1m1 0h3m1 0h1m2 0h5m1 0h2m3 0h1m6 0h2m1 0h3m6 0h1m1 0h3m2 0h2m2 0h1m2 0h1m4 0h3m1 0h1m2 0h1m1 0h2m5 0h1m1 0h1m4 0h1m1 0h4m3 0h1m2 0h1m1 0h1m1 0h1m5 0h1m2 0h10m1 0h2m2 0h1m2 0h2m1 0h1m1 0h2m1 0h1m3 0h2m1 0h1M5 150.5h3m2 0h2m4 0h2m1 0h1m1 0h1m1 0h1m2 0h2m4 0h3m3 0h3m1 0h2m3 0h1m1 0h1m1 0h3m1 0h1m1 0h3m1 0h5m1 0h2m1 0h1m1 0h1m7 0h3m1 0h1m3 0h5m3 0h5m6 0h1m2 0h2m2 0h1m1 0h1m1 0h1m2 0h1m2 0h1m1 0h1m5 0h1m1 0h6m2 0h4m2 0h1m2 0h1m2 0h1m2 0h1m2 0h1m4 0h3m3 0h1m5 0h2M5 151.5h1m3 0h1m1 0h3m1 0h2m3 0h1m4 0h3m5 0h4m2 0h1m1 0h7m1 0h1m1 0h2m2 0h1m1 0h2m2 0h1m4 0h2m3 0h1m1 0h1m1 0h4m4 0h1m6 0h2m2 0h4m4 0h1m2 0h4m1 0h2m2 0h8m4 0h3m1 0h5m5 0h4m1 0h2m2 0h1m1 0h6m2 0h3m1 0h2m1 0h2m3 0h1m1 0h2m1 0h5M8 152.5h1m1 0h1m1 0h1m1 0h2m1 0h2m2 0h1m1 0h1m4 0h3m3 0h1m1 0h1m5 0h2m3 0h2m1 0h1m2 0h2m1 0h3m1 0h4m1 0h4m1 0h2m1 0h1m1 0h1m2 0h1m1 0h1m1 0h3m1 0h1m2 0h1m1 0h1m5 0h1m2 0h3m2 0h2m2 0h1m1 0h2m2 0h3m1 0h1m1 0h1m1 0h2m3 0h1m1 0h1m1 0h1m6 0h4m2 0h1m5 0h3m2 0h4m1 0h2m1 0h1m2 0h2m6 0h2M4 153.5h1m2 0h1m1 0h1m2 0h2m5 0h2m1 0h1m1 0h2m1 0h4m2 0h1m5 0h1m2 0h1m2 0h6m2 0h4m1 0h1m7 0h1m1 0h1m2 0h1m1 0h3m1 0h1m1 0h3m1 0h2m2 0h1m2 0h1m3 0h4m3 0h1m4 0h3m6 0h1m6 0h6m3 0h1m1 0h1m1 0h5m1 0h3m1 0h1m1 0h8m1 0h1m1 0h2m2 0h1m1 0h6m7 0h1m2 0h1M5 154.5h1m1 0h1m2 0h2m1 0h1m2 0h1m2 0h3m2 0h2m3 0h3m1 0h2m1 0h1m3 0h1m1 0h1m9 0h1m1 0h1m2 0h2m2 0h2m1 0h2m2 0h6m1 0h1m6 0h1m1 0h2m4 0h4m1 0h2m1 0h2m2 0h1m1 0h2m2 0h1m3 0h1m1 0h1m2 0h2m3 0h3m4 0h5m2 0h1m1 0h1m1 0h1m1 0h4m5 0h1m2 0h2m1 0h1m2 0h1m2 0h1m2 0h1m4 0h1m1 0h1m3 0h1M5 155.5h1m2 0h2m4 0h1m1 0h3m1 0h2m1 0h2m1 0h1m2 0h1m1 0h2m2 0h1m1 0h1m1 0h1m1 0h3m2 0h2m1 0h1m2 0h1m2 0h1m1 0h3m2 0h3m1 0h1m4 0h1m1 0h2m1 0h1m1 0h1m4 0h1m1 0h2m1 0h1m2 0h1m1 0h1m1 0h2m2 0h1m3 0h4m1 0h1m2 0h1m1 0h6m1 0h2m2 0h5m1 0h2m1 0h3m3 0h3m1 0h5m1 0h1m1 0h1m2 0h1m1 0h1m3 0h2m4 0h2m3 0h2m1 0h5M10 156.5h7m1 0h3m4 0h2m4 0h1m1 0h5m2 0h3m1 0h1m2 0h5m2 0h1m1 0h1m2 0h1m1 0h1m1 0h2m5 0h2m2 0h1m4 0h1m1 0h2m2 0h2m1 0h2m4 0h1m5 0h2m1 0h1m1 0h2m2 0h1m1 0h6m8 0h1m1 0h6m4 0h1m1 0h2m1 0h1m1 0h3m2 0h1m1 0h2m4 0h3m1 0h2m2 0h1m2 0h1m1 0h1m1 0h2m2 0h1m3 0h1M4 157.5h1m1 0h3m5 0h1m1 0h1m4 0h4m5 0h1m1 0h2m1 0h3m1 0h2m2 0h2m3 0h4m1 0h2m1 0h1m1 0h1m1 0h1m5 0h2m1 0h2m1 0h2m2 0h1m1 0h7m1 0h2m1 0h1m1 0h5m1 0h1m1 0h2m2 0h2m1 0h1m1 0h1m4 0h1m1 0h3m1 0h1m1 0h1m1 0h2m1 0h1m6 0h2m1 0h2m1 0h1m4 0h1m3 0h2m1 0h2m1 0h1m1 0h2m3 0h1m1 0h4m1 0h2m2 0h1m2 0h1m1 0h1m2 0h1M4 158.5h1m1 0h3m1 0h2m1 0h1m1 0h1m4 0h4m1 0h2m1 0h3m1 0h2m2 0h3m1 0h1m1 0h2m1 0h2m2 0h1m2 0h1m2 0h1m2 0h1m2 0h1m2 0h1m2 0h1m2 0h1m1 0h1m7 0h3m1 0h1m4 0h1m2 0h1m3 0h4m1 0h4m6 0h1m2 0h1m3 0h1m1 0h1m1 0h1m1 0h3m1 0h2m1 0h2m1 0h1m1 0h6m3 0h1m1 0h3m3 0h2m2 0h1m2 0h1m1 0h1m7 0h4m1 0h1m1 0h3M6 159.5h1m1 0h2m1 0h1m1 0h1m1 0h3m2 0h1m2 0h1m1 0h2m2 0h6m3 0h1m4 0h1m2 0h1m4 0h3m4 0h4m1 0h1m2 0h1m2 0h1m1 0h1m1 0h1m2 0h1m1 0h2m1 0h1m1 0h1m1 0h7m4 0h1m1 0h2m1 0h2m1 0h1m1 0h1m1 0h1m1 0h1m3 0h2m1 0h3m1 0h1m1 0h1m1 0h1m3 0h2m1 0h1m1 0h1m5 0h1m2 0h6m2 0h1m2 0h2m1 0h1m2 0h2m2 0h1m1 0h1m1 0h1m2 0h2m1 0h1m1 0h1m1 0h1m1 0h1M4 160.5h1m1 0h5m4 0h3m4 0h4m2 0h1m1 0h1m1 0h3m1 0h1m4 0h1m1 0h3m2 0h3m1 0h1m1 0h1m4 0h1m1 0h1m1 0h4m4 0h1m2 0h2m1 0h3m4 0h1m1 0h1m1 0h1m2 0h1m2 0h1m2 0h2m1 0h2m1 0h1m1 0h1m5 0h3m3 0h3m5 0h1m1 0h2m1 0h1m1 0h1m2 0h1m1 0h1m1 0h4m1 0h3m2 0h2m1 0h1m2 0h1m2 0h3m1 0h2m6 0h1m2 0h5m1 0h2M4 161.5h3m1 0h2m3 0h1m2 0h1m2 0h1m1 0h4m1 0h4m1 0h1m4 0h1m2 0h1m2 0h1m1 0h3m1 0h3m2 0h1m2 0h1m11 0h3m2 0h4m1 0h1m1 0h1m1 0h4m1 0h1m1 0h3m2 0h2m1 0h1m1 0h1m1 0h1m3 0h5m5 0h3m1 0h1m4 0h1m1 0h2m3 0h1m1 0h2m1 0h1m1 0h1m2 0h1m2 0h2m2 0h5m1 0h1m3 0h2m1 0h2m1 0h5m1 0h1m7 0h1m1 0h1M6 162.5h1m1 0h3m1 0h1m3 0h1m3 0h3m1 0h4m1 0h1m1 0h5m2 0h1m1 0h1m2 0h1m1 0h2m5 0h3m2 0h1m1 0h3m2 0h2m1 0h2m1 0h3m4 0h1m2 0h1m1 0h1m1 0h1m4 0h2m1 0h2m1 0h5m4 0h2m1 0h1m1 0h3m2 0h1m3 0h2m3 0h1m1 0h1m4 0h1m2 0h1m2 0h1m1 0h4m1 0h1m3 0h3m3 0h3m1 0h1m2 0h1m2 0h1m5 0h5m1 0h1m1 0h1m1 0h1M6 163.5h1m1 0h1m2 0h1m3 0h1m1 0h3m1 0h2m3 0h1m1 0h3m1 0h1m3 0h3m1 0h2m1 0h1m1 0h3m1 0h1m1 0h1m3 0h1m1 0h5m1 0h3m7 0h4m1 0h2m8 0h1m2 0h1m1 0h5m3 0h1m1 0h3m2 0h2m5 0h2m1 0h1m1 0h2m2 0h1m1 0h1m4 0h1m1 0h2m2 0h2m1 0h1m1 0h3m1 0h2m3 0h1m2 0h2m3 0h3m1 0h1m2 0h2m3 0h1m1 0h1m2 0h5M6 164.5h1m3 0h3m4 0h1m1 0h3m6 0h2m1 0h1m1 0h1m1 0h2m1 0h1m2 0h2m1 0h1m2 0h2m1 0h1m1 0h4m4 0h1m1 0h2m3 0h1m1 0h1m1 0h2m2 0h1m2 0h1m5 0h1m1 0h1m5 0h1m1 0h1m3 0h1m1 0h2m1 0h1m6 0h8m1 0h1m3 0h2m3 0h1m1 0h1m1 0h2m5 0h4m1 0h2m4 0h1m1 0h1m2 0h2m1 0h2m1 0h2m1 0h1m2 0h4m1 0h1m3 0h2m2 0h1M5 165.5h1m2 0h1m2 0h2m5 0h1m1 0h2m3 0h3m1 0h1m1 0h1m1 0h1m2 0h1m1 0h1m3 0h3m1 0h1m1 0h1m5 0h1m1 0h2m3 0h1m4 0h1m1 0h1m1 0h1m1 0h2m2 0h1m2 0h1m1 0h2m3 0h10m1 0h1m1 0h2m2 0h2m1 0h2m1 0h1m5 0h1m2 0h1m1 0h8m6 0h1m1 0h4m3 0h3m1 0h7m1 0h1m2 0h2m3 0h3m1 0h1m4 0h2m1 0h1m1 0h1m2 0h1M5 166.5h1m4 0h2m4 0h3m2 0h1m2 0h1m4 0h1m4 0h1m1 0h1m5 0h1m2 0h2m2 0h4m1 0h1m3 0h1m1 0h5m3 0h1m1 0h1m1 0h2m3 0h1m2 0h1m1 0h1m1 0h1m3 0h1m3 0h1m3 0h5m1 0h2m4 0h4m1 0h2m1 0h4m1 0h1m2 0h1m1 0h2m1 0h1m1 0h1m7 0h1m1 0h1m1 0h3m5 0h1m1 0h3m1 0h1m2 0h4m2 0h2m1 0h1m1 0h2m2 0h2m1 0h1M4 167.5h3m1 0h1m4 0h1m1 0h3m4 0h3m1 0h4m1 0h2m3 0h4m3 0h1m2 0h2m1 0h1m2 0h1m3 0h1m1 0h3m1 0h1m3 0h2m1 0h1m3 0h2m1 0h1m1 0h2m6 0h1m1 0h4m1 0h1m3 0h2m3 0h3m3 0h4m3 0h1m2 0h1m1 0h4m1 0h1m2 0h6m1 0h1m2 0h4m2 0h4m1 0h1m3 0h2m2 0h1m1 0h3m1 0h1m1 0h2m2 0h1m1 0h4m1 0h3m1 0h1M4 168.5h2m4 0h3m2 0h3m1 0h2m2 0h1m3 0h2m4 0h1m1 0h1m1 0h1m2 0h1m1 0h1m1 0h4m1 0h3m2 0h4m2 0h7m4 0h1m2 0h1m3 0h2m1 0h4m1 0h1m1 0h1m2 0h1m2 0h2m1 0h2m1 0h2m1 0h1m2 0h2m1 0h1m1 0h3m3 0h1m1 0h1m1 0h1m3 0h1m1 0h4m1 0h1m2 0h1m1 0h1m1 0h4m1 0h2m4 0h1m4 0h2m1 0h1m2 0h1m3 0h1m1 0h4m1 0h2m1 0h6M4 169.5h1m1 0h1m2 0h1m1 0h2m2 0h1m1 0h2m3 0h1m1 0h2m1 0h4m1 0h1m1 0h3m1 0h2m1 0h1m1 0h2m3 0h9m3 0h2m1 0h1m1 0h1m1 0h2m1 0h1m1 0h2m2 0h3m6 0h4m1 0h1m3 0h1m2 0h1m2 0h2m3 0h3m7 0h1m2 0h1m3 0h1m1 0h1m1 0h2m3 0h1m2 0h1m1 0h1m1 0h1m6 0h1m2 0h1m1 0h4m1 0h2m2 0h2m1 0h1m1 0h3m1 0h3m1 0h2m1 0h1m1 0h2m1 0h1M4 170.5h3m2 0h2m1 0h2m2 0h3m2 0h1m2 0h1m1 0h4m2 0h4m2 0h1m1 0h3m2 0h2m4 0h2m1 0h2m1 0h1m2 0h5m2 0h2m1 0h1m1 0h1m7 0h3m1 0h1m4 0h5m1 0h6m1 0h1m1 0h1m2 0h3m1 0h1m2 0h1m1 0h5m1 0h7m1 0h2m2 0h1m2 0h5m2 0h2m1 0h5m1 0h3m3 0h3m3 0h1m4 0h4m5 0h1M7 171.5h1m3 0h3m4 0h1m1 0h4m5 0h4m2 0h2m2 0h2m1 0h1m3 0h1m2 0h1m3 0h2m1 0h1m1 0h1m2 0h2m1 0h1m1 0h1m4 0h1m1 0h2m1 0h4m5 0h3m8 0h2m5 0h3m1 0h2m5 0h2m2 0h1m1 0h2m4 0h2m1 0h3m1 0h2m1 0h1m1 0h1m2 0h6m4 0h5m1 0h1m2 0h1m2 0h1m1 0h3m1 0h1m1 0h1m4 0h4M5 172.5h1m1 0h1m1 0h2m1 0h5m1 0h1m2 0h1m1 0h1m1 0h1m1 0h2m1 0h1m1 0h5m1 0h1m1 0h1m1 0h1m1 0h2m2 0h4m5 0h1m1 0h8m1 0h1m1 0h2m1 0h7m1 0h2m1 0h1m1 0h1m1 0h5m1 0h2m2 0h3m1 0h2m1 0h2m2 0h1m1 0h2m2 0h6m6 0h2m1 0h1m1 0h1m4 0h1m1 0h1m2 0h1m1 0h7m1 0h1m5 0h3m1 0h3m3 0h1m1 0h1m1 0h5M12 173.5h2m2 0h2m1 0h1m2 0h1m1 0h5m3 0h1m3 0h1m1 0h3m2 0h2m2 0h1m2 0h1m4 0h2m1 0h1m1 0h1m3 0h1m2 0h5m2 0h3m1 0h1m1 0h1m1 0h3m2 0h2m3 0h1m1 0h1m1 0h1m3 0h1m4 0h2m8 0h2m3 0h2m1 0h2m1 0h2m1 0h1m1 0h1m1 0h2m1 0h3m2 0h1m2 0h1m3 0h3m3 0h1m3 0h1m2 0h2m1 0h2m2 0h5m3 0h1m3 0h1M4 174.5h7m1 0h2m2 0h2m1 0h2m2 0h5m2 0h1m1 0h1m1 0h1m1 0h8m2 0h2m3 0h4m2 0h2m1 0h1m1 0h1m1 0h1m2 0h7m6 0h3m1 0h1m3 0h1m1 0h1m1 0h1m2 0h8m6 0h2m1 0h1m1 0h1m1 0h1m1 0h1m1 0h1m1 0h1m2 0h1m3 0h1m1 0h2m1 0h8m1 0h2m1 0h1m1 0h1m4 0h3m4 0h1m4 0h2m3 0h3m1 0h1m1 0h1m1 0h2M4 175.5h1m5 0h1m2 0h1m3 0h2m3 0h3m3 0h3m1 0h1m3 0h1m2 0h3m1 0h1m2 0h2m1 0h1m2 0h2m4 0h3m3 0h4m3 0h1m2 0h1m1 0h1m1 0h2m5 0h4m3 0h1m1 0h1m1 0h1m1 0h2m1 0h5m1 0h4m2 0h4m3 0h1m1 0h2m1 0h2m1 0h1m1 0h1m1 0h1m4 0h1m1 0h2m3 0h1m3 0h2m1 0h1m1 0h2m2 0h1m1 0h3m3 0h3m3 0h2m3 0h3m1 0h1M4 176.5h1m1 0h3m1 0h1m1 0h2m1 0h3m1 0h1m1 0h3m1 0h1m2 0h1m3 0h5m5 0h3m2 0h1m2 0h1m2 0h2m1 0h2m2 0h6m3 0h1m1 0h3m1 0h2m2 0h1m2 0h1m1 0h1m1 0h1m1 0h6m3 0h1m2 0h1m1 0h1m3 0h1m2 0h1m1 0h2m1 0h1m1 0h5m4 0h1m1 0h4m1 0h2m1 0h1m1 0h1m1 0h12m1 0h1m2 0h1m1 0h3m2 0h3m3 0h9m2 0h2M4 177.5h1m1 0h3m1 0h1m1 0h4m2 0h3m4 0h1m1 0h1m1 0h2m2 0h4m1 0h1m1 0h1m3 0h2m2 0h1m1 0h1m2 0h1m2 0h2m1 0h1m1 0h1m3 0h1m2 0h1m1 0h5m1 0h2m3 0h2m2 0h5m4 0h1m4 0h2m2 0h4m2 0h1m2 0h1m4 0h1m3 0h4m1 0h2m6 0h1m1 0h1m1 0h1m2 0h1m2 0h1m4 0h1m2 0h1m1 0h1m1 0h4m4 0h3m1 0h3m3 0h4M4 178.5h1m1 0h3m1 0h1m1 0h1m1 0h1m4 0h1m1 0h2m3 0h1m2 0h2m1 0h1m1 0h1m2 0h1m2 0h1m1 0h2m1 0h2m2 0h1m2 0h4m2 0h1m1 0h2m1 0h1m1 0h1m1 0h4m1 0h2m3 0h1m2 0h6m1 0h1m2 0h2m3 0h1m1 0h2m1 0h1m1 0h1m4 0h4m1 0h1m1 0h1m4 0h1m5 0h2m2 0h1m1 0h1m1 0h2m1 0h2m1 0h1m1 0h1m5 0h2m2 0h1m1 0h2m3 0h1m1 0h1m1 0h1m3 0h2m1 0h1m2 0h2m1 0h1M4 179.5h1m5 0h1m1 0h2m3 0h3m1 0h1m1 0h1m1 0h3m1 0h2m2 0h3m2 0h5m2 0h2m5 0h1m4 0h2m2 0h2m1 0h1m1 0h1m7 0h6m1 0h1m1 0h1m2 0h1m2 0h5m2 0h4m2 0h4m1 0h3m1 0h1m1 0h1m1 0h5m1 0h2m1 0h1m6 0h1m3 0h1m1 0h7m1 0h1m2 0h1m3 0h1m1 0h2m4 0h1m2 0h2m1 0h2m1 0h1m2 0h1m4 0h2M4 180.5h7m1 0h1m4 0h1m1 0h1m2 0h4m1 0h2m3 0h1m1 0h1m1 0h1m3 0h1m1 0h3m4 0h2m3 0h1m1 0h2m1 0h1m2 0h3m2 0h5m1 0h4m1 0h1m2 0h3m3 0h2m1 0h2m8 0h1m2 0h1m6 0h1m1 0h2m2 0h1m1 0h1m1 0h2m1 0h1m1 0h1m2 0h6m5 0h2m1 0h2m2 0h1m1 0h1m1 0h1m2 0h1m2 0h1m1 0h1m3 0h1m1 0h1m2 0h1m2 0h3m1 0h3m2 0h1"/></svg>
