<?xml version="1.0" encoding="utf-8"?><!DOCTYPE svg PUBLIC "-//W3C//DTD SVG 1.1//EN" "http://www.w3.org/Graphics/SVG/1.1/DTD/svg11.dtd"><svg xmlns="http://www.w3.org/2000/svg" viewBox="0 0 185 185" shape-rendering="crispEdges"><path fill="#ffffff" d="M0 0h185v185H0z"/><path stroke="#000000" d="M4 4.5h7m2 0h2m1 0h2m3 0h1m3 0h1m1 0h4m1 0h2m4 0h2m1 0h1m1 0h6m4 0h10m1 0h3m3 0h3m2 0h2m2 0h7m1 0h1m1 0h1m1 0h1m1 0h2m1 0h2m1 0h1m1 0h1m1 0h5m1 0h1m1 0h3m1 0h1m2 0h1m1 0h5m1 0h1m3 0h3m1 0h1m1 0h1m1 0h1m4 0h1m4 0h1m1 0h1m1 0h1m3 0h3m4 0h2m2 0h2m1 0h1m3 0h7M4 5.5h1m5 0h1m1 0h1m1 0h1m1 0h1m1 0h2m1 0h4m1 0h1m1 0h4m2 0h2m3 0h5m1 0h2m2 0h1m1 0h2m2 0h1m1 0h2m3 0h3m3 0h6m3 0h1m1 0h2m1 0h3m2 0h2m1 0h1m1 0h1m1 0h1m1 0h3m1 0h2m7 0h5m2 0h3m1 0h2m6 0h2m2 0h4m3 0h2m2 0h1m1 0h1m1 0h2m2 0h1m2 0h1m2 0h1m2 0h4m1 0h1m4 0h1m1 0h1m1 0h1m5 0h1M4 6.5h1m1 0h3m1 0h1m2 0h1m2 0h4m1 0h2m1 0h2m1 0h1m4 0h2m2 0h2m2 0h2m1 0h1m1 0h2m2 0h1m2 0h2m1 0h2m1 0h2m1 0h1m1 0h1m2 0h2m1 0h3m2 0h4m1 0h1m1 0h1m3 0h2m1 0h1m2 0h3m1 0h2m5 0h3m2 0h1m5 0h6m3 0h1m1 0h2m2 0h2m1 0h2m3 0h3m3 0h1m3 0h1m2 0h1m4 0h1m4 0h2m4 0h2m1 0h1m1 0h1m3 0h1m1 0h3m1 0h1M4 7.5h1m1 0h3m1 0h1m1 0h1m3 0h5m4 0h1m2 0h1m1 0h2m1 0h1m1 0h2m3 0h3m2 0h1m4 0h1m2 0h1m1 0h1m3 0h1m3 0h1m1 0h1m5 0h1m1 0h1m1 0h1m1 0h2m2 0h1m4 0h3m1 0h1m1 0h3m3 0h1m1 0h1m4 0h1m1 0h1m3 0h2m2 0h1m4 0h2m1 0h2m2 0h4m1 0h1m4 0h1m1 0h2m1 0h3m3 0h1m1 0h3m4 0h3m1 0h2m5 0h1m2 0h2m1 0h1m1 0h3m1 0h1M4 8.5h1m1 0h3m1 0h1m4 0h2m1 0h1m1 0h1m1 0h1m1 0h1m3 0h1m3 0h5m2 0h1m3 0h2m3 0h1m2 0h1m3 0h2m1 0h7m5 0h1m2 0h1m3 0h2m1 0h1m1 0h4m2 0h8m1 0h1m1 0h2m3 0h1m1 0h1m2 0h1m2 0h2m2 0h5m1 0h1m1 0h4m5 0h4m1 0h1m2 0h1m2 0h5m3 0h2m1 0h3m1 0h1m1 0h5m1 0h3m4 0h1m1 0h3m1 0h1M4 9.5h1m5 0h1m1 0h1m1 0h3m1 0h1m1 0h3m1 0h5m3 0h1m3 0h1m2 0h1m1 0h3m3 0h1m1 0h1m2 0h3m4 0h2m3 0h1m2 0h4m1 0h2m1 0h1m3 0h1m1 0h5m2 0h1m3 0h1m4 0h3m2 0h2m1 0h1m2 0h4m2 0h3m3 0h1m2 0h3m3 0h1m1 0h1m1 0h1m2 0h3m2 0h1m2 0h1m3 0h2m1 0h1m7 0h4m7 0h1m1 0h1m1 0h1m5 0h1M4 10.5h7m1 0h1m1 0h1m1 0h1m1 0h1m1 0h1m1 0h1m1 0h1m1 0h1m1 0h1m1 0h1m1 0h1m1 0h1m1 0h1m1 0h1m1 0h1m1 0h1m1 0h1m1 0h1m1 0h1m1 0h1m1 0h1m1 0h1m1 0h1m1 0h1m1 0h1m1 0h1m1 0h1m1 0h1m1 0h1m1 0h1m1 0h1m1 0h1m1 0h1m1 0h1m1 0h1m1 0h1m1 0h1m1 0h1m1 0h1m1 0h1m1 0h1m1 0h1m1 0h1m1 0h1m1 0h1m1 0h1m1 0h1m1 0h1m1 0h1m1 0h1m1 0h1m1 0h1m1 0h1m1 0h1m1 0h1m1 0h1m1 0h1m1 0h1m1 0h1m1 0h1m1 0h1m1 0h1m1 0h1m1 0h1m1 0h1m1 0h1m1 0h1m1 0h1m1 0h1m1 0h1m1 0h1m1 0h1m1 0h1m1 0h1m1 0h1m1 0h1m1 0h1m1 0h1m1 0h1m1 0h1m1 0h1m1 0h7M13 11.5h1m1 0h2m1 0h1m1 0h1m1 0h3m6 0h2m3 0h1m2 0h3m3 0h3m1 0h1m5 0h4m1 0h1m3 0h1m1 0h2m3 0h1m1 0h2m1 0h3m1 0h1m5 0h1m1 0h1m3 0h7m3 0h1m1 0h2m2 0h1m4 0h1m1 0h2m3 0h2m2 0h2m6 0h1m4 0h2m3 0h3m3 0h1m4 0h3m1 0h1m5 0h2m1 0h2m1 0h1m2 0h1M4 12.5h5m1 0h5m1 0h2m3 0h2m1 0h1m1 0h3m3 0h7m2 0h4m3 0h3m1 0h1m1 0h1m1 0h1m1 0h1m1 0h7m1 0h2m3 0h10m1 0h1m1 0h9m2 0h1m1 0h5m1 0h3m4 0h2m2 0h6m1 0h1m3 0h7m3 0h1m1 0h2m1 0h1m1 0h7m1 0h1m3 0h4m1 0h2m4 0h1m2 0h1m2 0h1m1 0h1m1 0h1m1 0h1M4 13.5h1m4 0h1m5 0h1m1 0h7m4 0h4m1 0h2m1 0h2m1 0h2m3 0h2m1 0h5m1 0h4m1 0h1m1 0h5m2 0h2m2 0h3m2 0h1m1 0h1m1 0h2m3 0h2m1 0h1m2 0h2m1 0h1m5 0h2m1 0h1m2 0h1m1 0h1m2 0h2m2 0h2m2 0h6m1 0h1m2 0h1m4 0h1m1 0h1m1 0h2m1 0h1m2 0h2m2 0h2m1 0h3m1 0h5m1 0h1m1 0h3m1 0h4m1 0h1m3 0h5M4 14.5h1m1 0h3m1 0h2m1 0h1m11 0h2m4 0h1m2 0h4m1 0h3m3 0h2m5 0h2m5 0h2m1 0h1m1 0h2m1 0h5m1 0h1m1 0h1m4 0h3m1 0h1m3 0h3m4 0h6m1 0h3m2 0h4m1 0h4m2 0h1m1 0h1m1 0h5m3 0h3m1 0h1m1 0h2m4 0h5m1 0h2m3 0h1m1 0h1m4 0h2m3 0h3m1 0h1m3 0h2m1 0h4M4 15.5h1m2 0h2m3 0h5m2 0h1m2 0h3m1 0h1m1 0h1m1 0h2m1 0h1m2 0h2m5 0h5m3 0h3m1 0h4m1 0h4m2 0h2m1 0h2m3 0h1m1 0h1m1 0h1m6 0h2m4 0h1m2 0h4m3 0h4m1 0h2m1 0h2m3 0h4m5 0h2m2 0h1m2 0h1m1 0h2m3 0h1m1 0h5m1 0h1m3 0h1m1 0h2m1 0h2m5 0h1m1 0h1m1 0h3m3 0h6m1 0h1M4 16.5h3m2 0h2m2 0h2m2 0h4m3 0h1m1 0h1m3 0h1m1 0h2m2 0h1m1 0h1m2 0h1m5 0h5m11 0h1m1 0h3m1 0h1m1 0h1m2 0h3m1 0h2m3 0h1m2 0h2m2 0h1m1 0h1m6 0h2m4 0h3m1 0h1m1 0h2m3 0h4m1 0h1m1 0h1m1 0h1m4 0h1m1 0h2m3 0h1m1 0h2m1 0h1m4 0h4m1 0h1m2 0h1m2 0h10m2 0h1m1 0h2m1 0h1m3 0h2M11 17.5h1m2 0h1m3 0h1m3 0h3m2 0h3m3 0h1m1 0h4m1 0h2m2 0h1m2 0h2m1 0h2m2 0h1m3 0h1m1 0h3m1 0h2m1 0h1m8 0h1m4 0h2m1 0h1m3 0h7m6 0h1m2 0h1m1 0h1m5 0h2m1 0h1m1 0h6m1 0h2m8 0h3m1 0h1m5 0h2m1 0h2m2 0h2m1 0h1m1 0h1m4 0h4m3 0h2m7 0h1m2 0h1M5 18.5h1m2 0h4m1 0h4m1 0h3m2 0h6m1 0h7m2 0h3m3 0h2m2 0h2m1 0h1m5 0h2m2 0h1m4 0h2m1 0h3m7 0h3m1 0h2m1 0h1m1 0h1m1 0h1m3 0h2m1 0h3m2 0h1m4 0h2m4 0h1m3 0h3m3 0h2m1 0h1m1 0h1m5 0h1m3 0h1m3 0h2m1 0h4m1 0h1m2 0h1m3 0h1m1 0h1m2 0h1m1 0h1m3 0h1m3 0h2m2 0h3M4 19.5h2m2 0h2m2 0h1m1 0h1m2 0h1m2 0h2m1 0h2m2 0h2m2 0h1m2 0h4m7 0h2m3 0h1m2 0h1m1 0h1m2 0h1m1 0h3m1 0h1m1 0h2m6 0h3m1 0h2m6 0h1m7 0h1m1 0h2m3 0h1m1 0h2m1 0h1m1 0h1m1 0h1m2 0h2m1 0h1m5 0h2m4 0h1m2 0h1m3 0h2m1 0h6m1 0h2m5 0h1m1 0h2m5 0h1m4 0h1m2 0h1m2 0h9M4 20.5h1m4 0h2m1 0h3m1 0h4m8 0h4m1 0h1m3 0h1m3 0h2m1 0h3m2 0h1m2 0h1m1 0h1m1 0h1m2 0h1m7 0h1m3 0h1m1 0h2m2 0h1m1 0h1m1 0h4m1 0h2m1 0h3m1 0h3m4 0h2m3 0h1m3 0h1m2 0h2m1 0h3m1 0h1m1 0h1m5 0h4m1 0h1m6 0h2m1 0h2m1 0h1m1 0h4m2 0h1m3 0h2m1 0h1m1 0h1m1 0h2m1 0h1m2 0h3m1 0h2m1 0h1m1 0h1M7 21.5h1m5 0h1m4 0h2m1 0h3m3 0h6m3 0h1m2 0h3m1 0h3m2 0h1m1 0h1m2 0h1m2 0h1m1 0h1m3 0h4m3 0h1m1 0h1m3 0h3m2 0h1m1 0h1m1 0h3m1 0h3m3 0h2m1 0h1m1 0h3m1 0h5m4 0h1m4 0h2m1 0h3m1 0h1m1 0h1m7 0h3m1 0h1m4 0h1m1 0h1m3 0h2m1 0h1m2 0h1m1 0h1m3 0h1m1 0h3m2 0h1m8 0h1m1 0h2M4 22.5h1m1 0h3m1 0h2m2 0h2m1 0h2m3 0h1m1 0h3m1 0h3m4 0h5m3 0h1m2 0h1m5 0h1m4 0h2m1 0h3m1 0h1m2 0h4m1 0h2m5 0h2m1 0h1m1 0h2m1 0h2m1 0h1m2 0h6m2 0h3m4 0h2m3 0h2m2 0h2m3 0h1m1 0h2m1 0h1m1 0h1m2 0h3m1 0h4m3 0h2m1 0h1m1 0h1m1 0h1m2 0h3m4 0h1m4 0h1m8 0h1m3 0h1M4 23.5h1m2 0h2m2 0h1m1 0h1m2 0h2m1 0h2m2 0h1m2 0h1m1 0h2m1 0h2m1 0h1m3 0h1m2 0h1m4 0h2m4 0h1m3 0h1m1 0h3m2 0h1m1 0h3m5 0h2m1 0h4m5 0h3m1 0h1m1 0h1m1 0h1m1 0h1m2 0h1m2 0h4m1 0h1m1 0h1m2 0h1m1 0h1m1 0h1m1 0h3m4 0h2m1 0h2m2 0h3m1 0h3m1 0h5m2 0h1m2 0h1m2 0h1m1 0h1m1 0h2m2 0h1m2 0h2m1 0h1m1 0h2m2 0h2m2 0h4M5 24.5h2m1 0h4m2 0h1m4 0h1m1 0h3m2 0h1m1 0h1m1 0h1m1 0h1m3 0h5m1 0h4m1 0h1m1 0h4m1 0h2m1 0h2m4 0h1m2 0h2m1 0h2m1 0h2m1 0h8m4 0h1m2 0h1m3 0h2m1 0h1m1 0h2m1 0h2m3 0h1m3 0h4m1 0h1m1 0h1m2 0h1m6 0h6m1 0h1m1 0h1m4 0h2m1 0h1m2 0h4m3 0h2m1 0h2m2 0h1m1 0h2m1 0h1m1 0h5m1 0h1m3 0h2M4 25.5h1m1 0h1m1 0h2m1 0h1m2 0h3m2 0h1m1 0h1m1 0h1m2 0h2m3 0h1m2 0h2m6 0h3m1 0h7m1 0h4m1 0h1m1 0h2m1 0h2m1 0h2m1 0h10m1 0h2m2 0h1m2 0h2m2 0h3m2 0h1m2 0h3m3 0h4m1 0h1m4 0h1m3 0h1m1 0h1m1 0h4m5 0h4m4 0h1m1 0h3m1 0h2m2 0h1m1 0h1m1 0h2m2 0h1m1 0h4m1 0h3m1 0h2m1 0h1m1 0h4m1 0h1M5 26.5h1m2 0h1m1 0h1m1 0h6m3 0h1m3 0h2m2 0h1m3 0h3m1 0h1m1 0h1m1 0h1m1 0h1m1 0h1m1 0h1m1 0h1m1 0h2m1 0h2m2 0h1m3 0h4m4 0h1m1 0h2m1 0h1m3 0h2m1 0h2m4 0h1m2 0h1m3 0h2m1 0h2m3 0h3m1 0h5m2 0h1m3 0h4m1 0h5m1 0h1m1 0h1m1 0h1m2 0h1m1 0h2m1 0h1m2 0h4m1 0h1m7 0h1m1 0h2m2 0h1m3 0h1m1 0h1m4 0h2m2 0h2M6 27.5h3m2 0h1m2 0h1m1 0h3m1 0h1m1 0h1m2 0h1m3 0h1m2 0h1m1 0h1m2 0h1m2 0h2m3 0h2m2 0h1m2 0h1m2 0h8m1 0h1m1 0h1m2 0h1m4 0h1m1 0h1m1 0h1m4 0h1m1 0h3m3 0h3m1 0h2m1 0h1m4 0h2m1 0h1m1 0h2m1 0h1m2 0h1m8 0h2m1 0h1m1 0h1m2 0h1m2 0h1m2 0h1m2 0h4m2 0h1m4 0h1m1 0h3m3 0h3m1 0h5m4 0h1m1 0h1m2 0h2M4 28.5h5m1 0h3m2 0h1m1 0h2m1 0h2m2 0h4m2 0h3m1 0h2m1 0h1m4 0h3m2 0h1m2 0h2m2 0h1m1 0h2m4 0h2m2 0h1m2 0h1m3 0h4m2 0h1m1 0h1m1 0h1m1 0h2m3 0h2m3 0h1m1 0h1m1 0h2m1 0h2m1 0h2m5 0h3m12 0h7m6 0h4m4 0h4m1 0h1m1 0h4m1 0h2m1 0h2m2 0h1m4 0h2m6 0h1M4 29.5h2m2 0h1m3 0h2m1 0h1m1 0h3m2 0h1m3 0h1m3 0h2m5 0h9m1 0h3m1 0h1m1 0h1m1 0h3m1 0h3m2 0h2m1 0h2m3 0h1m2 0h1m3 0h7m2 0h3m1 0h4m3 0h2m2 0h1m2 0h2m1 0h1m1 0h1m1 0h1m4 0h2m4 0h1m1 0h2m1 0h1m1 0h1m1 0h2m1 0h1m1 0h2m3 0h1m3 0h7m1 0h3m3 0h1m1 0h2m1 0h7m4 0h1m2 0h1M4 30.5h2m1 0h1m2 0h1m5 0h2m7 0h1m4 0h5m1 0h4m1 0h1m1 0h1m2 0h2m4 0h2m1 0h1m2 0h3m2 0h2m2 0h2m1 0h1m1 0h2m1 0h1m4 0h1m1 0h1m1 0h2m1 0h1m3 0h1m1 0h1m1 0h2m1 0h3m1 0h1m1 0h1m9 0h2m1 0h2m3 0h8m4 0h1m1 0h1m2 0h1m2 0h1m1 0h1m1 0h4m7 0h2m1 0h4m1 0h3m1 0h1m4 0h3M6 31.5h3m2 0h4m1 0h1m1 0h2m5 0h2m1 0h3m2 0h2m1 0h4m1 0h1m1 0h4m1 0h1m2 0h2m2 0h7m1 0h1m2 0h2m1 0h1m3 0h2m1 0h1m1 0h2m6 0h4m1 0h1m4 0h1m1 0h1m4 0h2m5 0h1m2 0h1m5 0h3m1 0h1m2 0h2m1 0h2m2 0h1m6 0h3m2 0h1m1 0h2m2 0h1m1 0h2m1 0h2m2 0h2m4 0h1m1 0h2m2 0h1m1 0h1m3 0h2M6 32.5h14m4 0h1m2 0h1m3 0h6m1 0h3m2 0h1m4 0h5m1 0h2m1 0h2m1 0h5m1 0h2m6 0h1m2 0h1m6 0h1m1 0h1m1 0h7m2 0h1m1 0h5m2 0h4m2 0h2m1 0h7m3 0h1m4 0h1m1 0h1m4 0h1m2 0h1m1 0h1m1 0h9m5 0h2m2 0h3m2 0h10m2 0h2M6 33.5h3m3 0h2m2 0h1m1 0h1m1 0h2m5 0h1m2 0h1m1 0h1m3 0h2m3 0h1m2 0h1m1 0h5m2 0h1m1 0h3m2 0h1m3 0h2m4 0h1m1 0h2m2 0h1m4 0h3m1 0h1m1 0h2m3 0h4m4 0h2m4 0h1m1 0h1m3 0h2m1 0h2m3 0h1m1 0h1m1 0h3m4 0h1m1 0h2m1 0h1m1 0h2m1 0h1m1 0h2m3 0h1m1 0h3m1 0h3m4 0h1m1 0h3m2 0h3m1 0h1m3 0h1m1 0h3M4 34.5h1m2 0h2m1 0h1m1 0h4m1 0h2m2 0h1m3 0h3m1 0h2m1 0h1m1 0h1m1 0h1m1 0h1m1 0h4m1 0h1m1 0h1m2 0h1m1 0h1m4 0h2m1 0h1m1 0h1m1 0h1m3 0h6m6 0h1m1 0h3m3 0h1m1 0h1m1 0h2m1 0h1m1 0h3m1 0h2m1 0h1m2 0h2m1 0h2m1 0h1m1 0h2m1 0h1m1 0h6m1 0h1m2 0h2m2 0h3m2 0h2m2 0h2m1 0h1m1 0h2m1 0h1m1 0h1m1 0h1m1 0h1m2 0h1m2 0h1m2 0h1m2 0h1m2 0h1m1 0h1m1 0h2M7 35.5h2m3 0h6m1 0h2m1 0h2m4 0h1m3 0h1m3 0h1m2 0h1m3 0h2m1 0h1m1 0h1m3 0h1m2 0h1m1 0h4m3 0h1m1 0h1m7 0h1m1 0h1m1 0h2m3 0h1m1 0h2m1 0h1m3 0h1m2 0h2m1 0h3m3 0h2m2 0h1m5 0h1m1 0h1m3 0h1m2 0h2m1 0h1m1 0h5m2 0h1m1 0h1m3 0h4m3 0h1m2 0h1m1 0h3m3 0h3m4 0h2m1 0h1m2 0h1m3 0h1m1 0h1M4 36.5h1m2 0h7m1 0h1m3 0h2m1 0h2m3 0h1m1 0h2m1 0h5m1 0h1m3 0h2m3 0h4m2 0h2m4 0h6m2 0h1m1 0h2m1 0h1m1 0h4m1 0h1m2 0h2m1 0h2m1 0h5m1 0h1m5 0h1m4 0h2m4 0h3m1 0h7m6 0h1m1 0h1m1 0h2m3 0h1m2 0h1m1 0h7m1 0h2m1 0h2m1 0h1m1 0h6m3 0h1m1 0h2m1 0h5M5 37.5h1m2 0h2m3 0h1m2 0h2m1 0h2m1 0h1m4 0h2m3 0h2m1 0h1m7 0h4m1 0h1m1 0h2m3 0h1m3 0h1m1 0h1m1 0h1m1 0h1m2 0h3m2 0h1m4 0h1m1 0h4m1 0h1m1 0h2m1 0h1m1 0h1m1 0h1m2 0h1m1 0h2m2 0h6m2 0h2m2 0h1m1 0h2m1 0h3m1 0h1m1 0h2m1 0h1m3 0h2m1 0h3m4 0h3m1 0h2m2 0h3m2 0h2m3 0h5m1 0h7m3 0h1M4 38.5h1m4 0h2m1 0h3m1 0h1m3 0h1m1 0h2m2 0h1m1 0h1m4 0h6m7 0h1m2 0h2m1 0h3m1 0h2m1 0h1m1 0h5m1 0h2m1 0h3m7 0h3m1 0h2m2 0h1m1 0h3m2 0h4m1 0h1m1 0h4m1 0h2m1 0h1m2 0h2m1 0h1m2 0h2m1 0h1m1 0h3m4 0h2m1 0h1m1 0h1m2 0h1m2 0h1m2 0h1m2 0h1m2 0h1m1 0h2m2 0h5m5 0h1m2 0h1m2 0h1m1 0h2m2 0h1M4 39.5h2m5 0h1m1 0h1m5 0h2m1 0h2m1 0h2m3 0h2m2 0h2m1 0h2m5 0h1m1 0h1m2 0h1m2 0h1m2 0h4m1 0h1m1 0h2m1 0h3m1 0h1m1 0h1m1 0h1m2 0h1m1 0h1m2 0h2m3 0h2m1 0h3m2 0h3m4 0h2m1 0h3m1 0h1m1 0h2m2 0h1m2 0h2m1 0h2m1 0h2m3 0h1m1 0h1m1 0h2m1 0h3m2 0h3m1 0h3m6 0h2m5 0h2m1 0h4m2 0h1m2 0h3m1 0h4M4 40.5h3m1 0h1m1 0h2m1 0h2m2 0h2m2 0h2m4 0h4m1 0h1m1 0h6m1 0h4m2 0h1m1 0h3m2 0h1m1 0h1m3 0h4m5 0h1m5 0h5m3 0h1m2 0h1m1 0h2m1 0h1m5 0h1m1 0h2m1 0h1m2 0h2m2 0h2m1 0h2m3 0h3m5 0h1m1 0h2m1 0h1m1 0h1m4 0h1m2 0h3m3 0h1m3 0h4m1 0h1m3 0h1m2 0h1m1 0h1m2 0h4m2 0h2m1 0h2m1 0h1M5 41.5h1m3 0h1m6 0h2m9 0h1m2 0h1m4 0h1m1 0h2m2 0h7m2 0h1m2 0h1m1 0h3m1 0h1m5 0h1m4 0h4m1 0h2m1 0h1m1 0h3m1 0h1m2 0h1m2 0h2m1 0h3m1 0h1m7 0h5m1 0h2m2 0h2m1 0h1m3 0h1m1 0h1m1 0h1m2 0h1m1 0h1m1 0h7m3 0h3m1 0h2m2 0h2m1 0h1m1 0h3m5 0h2m2 0h1m6 0h1m4 0h1M4 42.5h2m1 0h4m1 0h1m1 0h1m1 0h1m2 0h1m6 0h2m1 0h1m1 0h2m6 0h1m2 0h2m2 0h1m2 0h1m1 0h3m1 0h1m3 0h1m4 0h1m3 0h3m1 0h1m6 0h2m1 0h2m1 0h1m3 0h1m1 0h2m3 0h1m1 0h1m3 0h1m1 0h1m4 0h2m1 0h1m1 0h6m1 0h1m1 0h5m2 0h1m2 0h1m1 0h1m1 0h3m1 0h1m6 0h2m5 0h1m2 0h1m1 0h1m1 0h1m4 0h1m1 0h1m3 0h1m1 0h1m1 0h3M7 43.5h1m3 0h2m6 0h1m4 0h1m4 0h3m2 0h3m3 0h1m4 0h3m4 0h1m4 0h2m3 0h4m1 0h1m1 0h1m1 0h1m2 0h3m1 0h1m4 0h1m2 0h1m2 0h1m1 0h1m1 0h4m4 0h5m1 0h2m1 0h1m2 0h3m2 0h2m8 0h4m1 0h1m3 0h1m1 0h9m1 0h1m2 0h4m1 0h1m5 0h1m1 0h2m1 0h1m3 0h1m1 0h3m1 0h3M4 44.5h1m4 0h3m2 0h1m1 0h2m1 0h1m4 0h1m1 0h2m1 0h2m1 0h2m2 0h3m1 0h1m1 0h3m4 0h3m2 0h1m5 0h7m2 0h1m1 0h1m2 0h1m5 0h2m3 0h1m2 0h1m4 0h3m2 0h1m1 0h1m1 0h1m2 0h1m1 0h1m3 0h4m1 0h2m1 0h1m7 0h4m1 0h2m3 0h1m2 0h1m1 0h2m2 0h1m2 0h4m2 0h2m1 0h1m1 0h3m1 0h3m1 0h4m1 0h1m2 0h2m2 0h1M4 45.5h1m4 0h1m2 0h4m1 0h1m4 0h1m6 0h1m1 0h1m2 0h2m2 0h1m2 0h2m1 0h3m1 0h4m2 0h1m6 0h1m1 0h1m3 0h9m1 0h1m6 0h1m4 0h3m1 0h3m1 0h1m3 0h1m4 0h4m1 0h1m1 0h1m1 0h1m2 0h1m3 0h6m5 0h2m1 0h2m1 0h1m1 0h1m1 0h2m2 0h4m1 0h2m1 0h2m2 0h1m3 0h2m1 0h3m1 0h2m3 0h1m4 0h1M4 46.5h1m1 0h1m1 0h3m1 0h2m2 0h3m2 0h5m2 0h1m10 0h3m4 0h1m2 0h1m2 0h1m5 0h2m1 0h5m1 0h2m1 0h1m1 0h1m1 0h1m4 0h4m1 0h2m1 0h2m1 0h1m1 0h1m4 0h3m1 0h1m1 0h3m2 0h1m1 0h3m1 0h3m2 0h6m5 0h1m1 0h2m2 0h1m4 0h1m2 0h2m1 0h3m1 0h1m3 0h1m3 0h3m1 0h1m1 0h2m3 0h1m1 0h2m1 0h1m1 0h1m1 0h1M4 47.5h4m3 0h1m1 0h1m1 0h1m1 0h1m1 0h3m1 0h2m1 0h4m1 0h2m2 0h2m1 0h1m2 0h1m1 0h1m1 0h3m5 0h1m3 0h2m2 0h6m4 0h1m1 0h1m2 0h4m3 0h1m1 0h2m2 0h1m1 0h1m2 0h1m1 0h1m2 0h4m1 0h3m1 0h3m7 0h4m4 0h1m1 0h1m1 0h1m7 0h2m4 0h1m1 0h2m4 0h3m2 0h1m1 0h3m3 0h2m1 0h1m5 0h1m1 0h3m1 0h1M4 48.5h1m1 0h3m1 0h5m2 0h1m1 0h1m1 0h1m1 0h1m3 0h5m1 0h3m2 0h3m1 0h1m1 0h5m2 0h1m1 0h2m5 0h1m2 0h1m3 0h2m4 0h4m1 0h3m1 0h5m4 0h1m2 0h1m4 0h5m1 0h2m2 0h1m1 0h2m1 0h1m1 0h2m3 0h1m3 0h1m1 0h4m2 0h1m1 0h1m4 0h3m1 0h1m1 0h2m1 0h5m1 0h1m2 0h4m3 0h1m1 0h4m1 0h2m1 0h2m2 0h2M7 49.5h1m1 0h1m1 0h6m2 0h2m3 0h1m4 0h2m1 0h1m1 0h2m3 0h1m1 0h4m1 0h1m1 0h1m2 0h3m1 0h2m3 0h2m1 0h1m1 0h1m1 0h1m1 0h1m1 0h2m4 0h3m1 0h5m1 0h1m2 0h1m1 0h4m1 0h1m2 0h1m3 0h1m1 0h4m2 0h2m1 0h1m1 0h1m3 0h2m1 0h1m1 0h2m2 0h2m1 0h2m1 0h1m1 0h2m3 0h1m1 0h5m2 0h2m2 0h4m1 0h5m1 0h7m3 0h2m1 0h1M5 50.5h2m3 0h8m1 0h1m1 0h1m3 0h2m2 0h1m2 0h1m1 0h4m2 0h2m3 0h2m4 0h3m3 0h1m1 0h2m1 0h1m1 0h1m2 0h4m1 0h2m6 0h1m1 0h2m4 0h1m1 0h1m1 0h11m1 0h2m3 0h3m1 0h2m4 0h3m1 0h1m1 0h2m1 0h1m4 0h2m5 0h2m5 0h3m5 0h1m2 0h1m1 0h1m2 0h1m1 0h2m2 0h1m2 0h2m1 0h1m1 0h3M5 51.5h1m1 0h3m1 0h4m4 0h1m3 0h3m2 0h2m1 0h1m1 0h2m1 0h1m1 0h1m2 0h1m1 0h1m2 0h1m1 0h2m2 0h1m3 0h1m1 0h1m2 0h3m1 0h3m3 0h1m1 0h7m1 0h3m3 0h1m1 0h2m5 0h1m2 0h1m3 0h6m1 0h1m3 0h5m1 0h1m2 0h2m1 0h2m1 0h1m1 0h2m2 0h1m1 0h1m1 0h2m3 0h2m2 0h1m4 0h4m9 0h1m2 0h1m3 0h2m3 0h1m1 0h1M6 52.5h2m2 0h9m1 0h2m8 0h2m1 0h5m1 0h2m1 0h1m1 0h1m2 0h4m3 0h2m1 0h1m2 0h2m1 0h6m1 0h1m2 0h1m7 0h1m4 0h1m2 0h1m1 0h1m1 0h2m4 0h5m2 0h1m5 0h1m2 0h2m4 0h1m1 0h1m1 0h2m1 0h1m1 0h1m1 0h1m2 0h1m1 0h1m2 0h1m1 0h3m1 0h2m2 0h2m3 0h1m1 0h3m2 0h4m1 0h2m1 0h1m1 0h1m1 0h1m1 0h1m2 0h1M4 53.5h1m1 0h3m2 0h3m2 0h3m1 0h4m1 0h3m1 0h1m5 0h5m3 0h2m3 0h1m1 0h1m3 0h3m2 0h3m4 0h1m1 0h1m2 0h2m2 0h1m1 0h1m2 0h1m1 0h4m1 0h1m2 0h1m3 0h1m1 0h2m3 0h1m1 0h1m1 0h3m1 0h1m1 0h3m1 0h4m1 0h1m1 0h1m1 0h1m2 0h1m1 0h1m4 0h6m3 0h1m1 0h1m1 0h7m2 0h1m1 0h1m2 0h2m1 0h1m1 0h1m1 0h4m2 0h2m4 0h1M4 54.5h1m1 0h3m1 0h2m5 0h1m1 0h1m1 0h1m2 0h1m1 0h2m2 0h1m2 0h1m4 0h4m4 0h1m2 0h1m2 0h2m1 0h1m1 0h1m1 0h7m1 0h2m1 0h4m1 0h1m3 0h4m1 0h2m1 0h1m1 0h1m1 0h2m2 0h2m1 0h2m1 0h1m6 0h1m1 0h1m1 0h1m1 0h7m4 0h4m3 0h2m1 0h2m4 0h2m1 0h1m3 0h1m1 0h2m5 0h1m2 0h2m3 0h3m1 0h1m8 0h1M4 55.5h1m1 0h1m1 0h1m2 0h1m3 0h1m3 0h3m2 0h4m1 0h1m2 0h1m2 0h1m1 0h5m3 0h3m3 0h2m2 0h1m1 0h2m4 0h5m6 0h5m7 0h2m1 0h1m1 0h1m1 0h1m1 0h2m4 0h2m1 0h1m1 0h1m1 0h1m1 0h2m2 0h1m2 0h5m2 0h1m3 0h1m1 0h1m2 0h1m4 0h2m1 0h2m2 0h2m2 0h1m1 0h2m1 0h1m1 0h2m1 0h1m6 0h1m2 0h1m2 0h3m1 0h1m1 0h2M8 56.5h1m1 0h4m1 0h1m1 0h2m2 0h2m4 0h2m9 0h2m2 0h1m1 0h1m4 0h2m3 0h3m3 0h3m2 0h2m2 0h1m1 0h3m2 0h1m2 0h1m1 0h6m4 0h1m6 0h3m4 0h3m1 0h2m1 0h2m3 0h3m1 0h1m1 0h1m1 0h1m3 0h3m7 0h5m1 0h2m3 0h1m1 0h1m2 0h2m1 0h1m1 0h1m1 0h4m1 0h5m1 0h2M4 57.5h1m2 0h1m4 0h1m1 0h1m1 0h3m7 0h1m1 0h1m4 0h1m3 0h1m1 0h1m4 0h2m1 0h2m3 0h1m1 0h1m1 0h1m2 0h2m2 0h1m2 0h2m1 0h1m1 0h2m1 0h2m4 0h2m1 0h1m1 0h1m4 0h6m3 0h2m2 0h1m2 0h1m4 0h2m2 0h2m1 0h1m3 0h1m1 0h4m3 0h1m2 0h1m1 0h3m2 0h1m1 0h3m2 0h2m1 0h4m1 0h1m2 0h1m1 0h4m2 0h2m2 0h1m1 0h1m6 0h1M4 58.5h2m3 0h4m1 0h1m3 0h1m2 0h1m1 0h1m1 0h1m2 0h1m1 0h2m1 0h1m2 0h2m2 0h2m1 0h1m6 0h3m2 0h1m2 0h5m1 0h1m2 0h1m2 0h3m2 0h1m6 0h1m2 0h1m1 0h2m2 0h3m3 0h2m2 0h4m2 0h6m1 0h10m5 0h2m3 0h1m1 0h4m4 0h2m2 0h1m4 0h2m2 0h1m2 0h1m2 0h1m2 0h1m2 0h1m3 0h1m1 0h2m1 0h2M6 59.5h1m5 0h2m2 0h2m1 0h1m1 0h1m2 0h5m1 0h2m2 0h3m1 0h3m2 0h1m1 0h2m1 0h2m1 0h2m2 0h1m2 0h1m3 0h1m3 0h1m6 0h4m1 0h1m2 0h1m1 0h6m1 0h2m1 0h1m1 0h2m1 0h1m8 0h3m4 0h1m3 0h2m1 0h1m4 0h2m1 0h1m1 0h3m3 0h1m3 0h1m1 0h1m1 0h5m2 0h1m1 0h1m1 0h2m1 0h3m4 0h1m1 0h1m2 0h2m2 0h1m2 0h1m1 0h1M4 60.5h2m1 0h7m1 0h2m1 0h2m1 0h1m3 0h4m2 0h6m2 0h1m1 0h2m1 0h1m4 0h3m2 0h4m1 0h7m1 0h1m3 0h1m2 0h1m1 0h4m1 0h1m2 0h1m3 0h7m4 0h4m2 0h2m5 0h3m1 0h6m1 0h1m3 0h2m1 0h1m1 0h2m1 0h2m3 0h1m1 0h7m1 0h3m2 0h7m3 0h1m1 0h2m1 0h1m1 0h5m2 0h1M4 61.5h2m2 0h1m3 0h1m1 0h1m2 0h3m1 0h1m1 0h2m1 0h1m2 0h2m1 0h1m3 0h1m1 0h2m1 0h1m2 0h1m1 0h5m4 0h6m3 0h2m2 0h4m1 0h1m1 0h1m4 0h2m1 0h2m3 0h1m3 0h1m1 0h4m1 0h1m3 0h1m2 0h2m3 0h2m2 0h2m3 0h3m1 0h1m1 0h2m5 0h6m2 0h1m2 0h1m3 0h3m1 0h6m1 0h1m2 0h1m1 0h1m1 0h1m1 0h1m2 0h2m3 0h5M8 62.5h1m1 0h1m1 0h1m4 0h1m2 0h1m8 0h1m2 0h1m1 0h1m1 0h8m5 0h1m1 0h2m1 0h2m1 0h4m1 0h1m1 0h2m1 0h5m3 0h2m3 0h3m1 0h2m1 0h2m1 0h1m1 0h2m2 0h5m1 0h1m1 0h2m3 0h3m1 0h4m1 0h1m1 0h1m1 0h1m3 0h2m1 0h1m1 0h3m2 0h2m2 0h2m1 0h2m1 0h1m1 0h2m1 0h1m1 0h2m3 0h3m1 0h2m2 0h2m1 0h1m1 0h2m1 0h1m1 0h1m1 0h2M5 63.5h1m1 0h2m3 0h1m1 0h4m1 0h4m2 0h2m2 0h2m1 0h1m3 0h1m1 0h2m3 0h1m1 0h5m3 0h1m1 0h6m3 0h1m1 0h2m3 0h1m1 0h1m2 0h4m1 0h1m4 0h1m1 0h1m3 0h1m3 0h1m1 0h2m1 0h1m2 0h3m1 0h4m1 0h1m2 0h1m3 0h1m2 0h2m2 0h2m1 0h2m1 0h3m4 0h1m3 0h1m3 0h1m3 0h4m4 0h2m2 0h1m1 0h1m1 0h2m1 0h2m3 0h1m1 0h1M4 64.5h2m1 0h7m1 0h3m2 0h1m1 0h2m3 0h1m1 0h8m2 0h1m1 0h4m5 0h3m1 0h1m5 0h7m1 0h2m5 0h2m1 0h5m1 0h3m1 0h8m1 0h2m1 0h1m1 0h2m2 0h1m2 0h1m2 0h9m4 0h1m1 0h2m1 0h1m1 0h1m2 0h1m4 0h1m1 0h1m1 0h5m1 0h4m1 0h2m1 0h1m6 0h1m1 0h4m1 0h5m3 0h1M4 65.5h2m3 0h1m1 0h3m9 0h2m1 0h2m2 0h3m1 0h6m1 0h5m2 0h1m1 0h1m2 0h4m2 0h1m4 0h2m1 0h3m2 0h1m3 0h2m1 0h1m1 0h1m1 0h1m10 0h1m1 0h2m1 0h1m1 0h1m4 0h2m3 0h3m5 0h1m1 0h4m1 0h2m1 0h1m1 0h1m1 0h4m1 0h2m1 0h1m4 0h1m4 0h2m2 0h2m1 0h1m2 0h1m1 0h3m2 0h1m2 0h1m1 0h1m5 0h2M5 66.5h2m2 0h2m2 0h1m1 0h1m3 0h1m4 0h2m1 0h1m1 0h2m1 0h1m14 0h1m4 0h1m1 0h1m2 0h2m2 0h1m5 0h1m1 0h2m1 0h2m1 0h1m1 0h1m1 0h2m1 0h1m5 0h1m1 0h3m2 0h1m1 0h2m1 0h1m1 0h1m1 0h1m3 0h1m1 0h1m2 0h5m4 0h1m1 0h3m3 0h1m1 0h1m3 0h1m2 0h1m1 0h1m2 0h2m1 0h3m3 0h3m1 0h1m2 0h1m2 0h1m1 0h1m1 0h1m1 0h2m1 0h2m3 0h3M4 67.5h1m3 0h2m1 0h1m2 0h1m1 0h4m2 0h2m1 0h1m1 0h1m2 0h1m3 0h4m1 0h1m1 0h1m2 0h2m3 0h1m1 0h3m1 0h1m2 0h1m1 0h7m1 0h1m4 0h4m1 0h1m4 0h1m1 0h2m1 0h1m1 0h1m4 0h1m3 0h1m3 0h3m4 0h1m3 0h1m3 0h4m1 0h2m2 0h6m4 0h1m2 0h1m1 0h1m1 0h1m2 0h2m2 0h1m1 0h2m4 0h1m3 0h1m2 0h2m1 0h1m1 0h1m5 0h2M4 68.5h1m1 0h1m1 0h4m1 0h1m7 0h3m3 0h2m5 0h1m3 0h4m1 0h2m1 0h5m2 0h2m1 0h1m3 0h1m2 0h2m1 0h3m1 0h2m2 0h2m3 0h1m1 0h1m3 0h1m1 0h1m1 0h2m2 0h1m1 0h1m4 0h1m2 0h1m2 0h2m1 0h1m2 0h2m3 0h2m1 0h1m6 0h4m1 0h1m7 0h3m2 0h1m1 0h1m2 0h1m4 0h1m1 0h4m1 0h3m2 0h6m1 0h2m4 0h1M6 69.5h3m3 0h4m3 0h3m4 0h3m1 0h1m2 0h2m2 0h6m2 0h1m2 0h1m7 0h1m4 0h3m4 0h2m1 0h3m2 0h3m1 0h1m1 0h3m1 0h2m3 0h1m1 0h2m2 0h1m1 0h1m1 0h1m1 0h2m1 0h3m6 0h1m6 0h1m1 0h1m1 0h2m1 0h1m1 0h1m2 0h1m1 0h4m4 0h1m4 0h2m1 0h1m2 0h2m1 0h2m2 0h5m1 0h1m3 0h1m3 0h1m3 0h1M5 70.5h3m1 0h2m1 0h1m1 0h2m1 0h2m1 0h1m2 0h1m1 0h1m4 0h2m1 0h1m3 0h4m1 0h1m3 0h1m2 0h1m2 0h2m1 0h1m1 0h2m1 0h2m1 0h3m1 0h4m1 0h1m6 0h1m1 0h5m2 0h3m1 0h1m2 0h4m3 0h1m1 0h2m1 0h1m1 0h3m2 0h3m1 0h2m2 0h5m2 0h1m3 0h2m1 0h1m1 0h1m3 0h3m3 0h1m2 0h1m2 0h1m2 0h2m1 0h1m5 0h1m2 0h2m3 0h2m1 0h1M5 71.5h1m3 0h1m2 0h1m3 0h1m1 0h1m1 0h1m1 0h1m6 0h1m3 0h2m2 0h1m2 0h1m2 0h1m1 0h2m5 0h1m5 0h1m3 0h3m1 0h1m4 0h1m2 0h1m1 0h3m2 0h2m2 0h2m1 0h3m1 0h1m1 0h1m1 0h1m1 0h2m1 0h1m2 0h1m2 0h2m1 0h1m3 0h1m3 0h1m1 0h2m4 0h3m2 0h1m3 0h3m1 0h1m2 0h4m1 0h2m2 0h1m2 0h2m1 0h1m1 0h1m1 0h1m1 0h1m2 0h4m1 0h1m1 0h1m1 0h2m1 0h2M4 72.5h4m1 0h2m2 0h2m1 0h1m1 0h1m2 0h4m2 0h1m1 0h3m1 0h3m2 0h1m1 0h1m1 0h1m1 0h1m1 0h3m4 0h1m2 0h1m3 0h1m1 0h3m4 0h2m3 0h3m3 0h1m1 0h4m1 0h1m5 0h1m3 0h2m1 0h1m2 0h1m2 0h1m2 0h6m3 0h3m4 0h1m1 0h2m1 0h4m1 0h1m4 0h3m2 0h2m2 0h2m1 0h1m2 0h1m1 0h2m3 0h1m4 0h1m1 0h2m1 0h1m1 0h1m1 0h2m1 0h2M4 73.5h1m1 0h1m1 0h1m2 0h2m1 0h2m4 0h1m1 0h1m1 0h2m4 0h4m1 0h1m2 0h4m4 0h5m2 0h2m1 0h2m8 0h1m1 0h3m1 0h2m5 0h2m3 0h1m4 0h1m2 0h4m2 0h1m1 0h1m2 0h1m2 0h1m9 0h1m2 0h1m2 0h1m1 0h1m2 0h1m1 0h1m3 0h6m2 0h1m1 0h1m1 0h2m4 0h3m3 0h2m2 0h4m6 0h1m8 0h1M4 74.5h3m2 0h2m1 0h1m3 0h1m1 0h2m1 0h1m2 0h1m2 0h1m7 0h1m2 0h2m1 0h1m9 0h5m2 0h1m1 0h1m4 0h1m1 0h2m1 0h1m1 0h1m6 0h2m1 0h1m1 0h1m2 0h4m1 0h6m1 0h2m1 0h3m3 0h1m1 0h2m1 0h7m2 0h2m2 0h13m1 0h1m3 0h2m2 0h1m1 0h2m2 0h2m2 0h3m4 0h1m1 0h1m1 0h1m3 0h1m4 0h2M6 75.5h2m1 0h1m1 0h2m3 0h2m3 0h4m2 0h1m1 0h2m5 0h1m2 0h2m2 0h7m1 0h1m1 0h1m1 0h1m1 0h4m1 0h3m1 0h2m1 0h1m3 0h2m1 0h1m1 0h1m7 0h1m1 0h1m1 0h4m2 0h1m1 0h1m2 0h4m1 0h1m1 0h3m4 0h1m1 0h1m1 0h3m2 0h2m1 0h1m4 0h2m3 0h1m1 0h1m1 0h2m1 0h1m8 0h5m1 0h3m2 0h1m1 0h2m7 0h1m1 0h2m1 0h1M7 76.5h1m2 0h5m2 0h5m2 0h3m2 0h1m2 0h3m2 0h1m1 0h1m2 0h1m1 0h1m3 0h1m1 0h2m2 0h1m1 0h5m1 0h2m2 0h4m2 0h8m5 0h3m1 0h1m3 0h2m3 0h1m1 0h1m4 0h2m2 0h1m2 0h1m1 0h1m2 0h2m1 0h2m6 0h1m1 0h2m1 0h1m3 0h1m3 0h3m1 0h1m2 0h3m1 0h2m1 0h2m1 0h1m3 0h1m1 0h2m2 0h5m1 0h1m1 0h5M6 77.5h1m2 0h1m3 0h4m1 0h2m1 0h3m1 0h1m1 0h1m3 0h3m2 0h2m1 0h1m1 0h2m1 0h1m1 0h1m1 0h1m1 0h2m2 0h4m1 0h1m1 0h2m2 0h1m1 0h2m2 0h1m1 0h1m1 0h3m2 0h2m3 0h1m7 0h3m1 0h1m1 0h3m2 0h1m1 0h1m1 0h1m2 0h2m6 0h1m2 0h1m1 0h4m3 0h1m1 0h4m1 0h1m5 0h1m5 0h1m1 0h3m1 0h4m1 0h2m1 0h1m2 0h2m2 0h1m1 0h5m1 0h2M5 78.5h1m1 0h2m1 0h1m1 0h1m1 0h6m2 0h2m2 0h1m2 0h5m1 0h1m1 0h1m1 0h2m2 0h1m1 0h2m5 0h1m1 0h1m2 0h2m1 0h1m6 0h2m1 0h1m1 0h2m3 0h1m2 0h4m1 0h1m2 0h1m1 0h2m1 0h1m3 0h3m1 0h1m1 0h1m1 0h2m1 0h5m1 0h4m1 0h2m1 0h2m2 0h1m3 0h1m2 0h5m1 0h3m3 0h1m2 0h2m1 0h1m1 0h3m1 0h1m2 0h1m1 0h1m2 0h2m3 0h1m1 0h2M4 79.5h1m1 0h1m2 0h1m3 0h1m2 0h2m2 0h4m3 0h1m2 0h1m2 0h3m1 0h3m1 0h1m4 0h1m2 0h1m1 0h3m2 0h1m1 0h5m1 0h1m1 0h2m5 0h2m1 0h2m1 0h1m3 0h1m2 0h1m5 0h1m1 0h1m1 0h1m1 0h1m3 0h1m1 0h2m1 0h2m3 0h4m3 0h1m3 0h4m1 0h2m3 0h1m1 0h4m1 0h1m2 0h1m3 0h3m4 0h2m5 0h1m2 0h3m2 0h1m1 0h1m3 0h1m1 0h4M4 80.5h2m1 0h4m1 0h1m1 0h1m1 0h1m5 0h1m2 0h2m4 0h2m4 0h2m3 0h1m7 0h2m3 0h1m1 0h1m1 0h2m3 0h4m1 0h1m4 0h4m2 0h1m2 0h1m2 0h3m1 0h2m3 0h1m1 0h2m1 0h1m5 0h1m2 0h1m1 0h1m2 0h2m1 0h2m1 0h2m1 0h1m1 0h1m1 0h4m1 0h2m1 0h1m3 0h2m1 0h2m1 0h4m1 0h2m1 0h1m1 0h1m1 0h2m1 0h1m1 0h1m1 0h1m2 0h8m1 0h1m3 0h1M4 81.5h3m4 0h1m3 0h5m1 0h2m1 0h1m2 0h1m2 0h2m1 0h2m2 0h1m2 0h5m3 0h1m2 0h1m2 0h3m1 0h1m4 0h3m4 0h1m1 0h1m3 0h2m1 0h1m1 0h1m2 0h2m3 0h1m1 0h5m3 0h3m1 0h1m1 0h2m1 0h2m3 0h2m7 0h1m1 0h4m5 0h2m1 0h4m3 0h2m4 0h1m2 0h1m1 0h4m1 0h1m1 0h4m2 0h2m1 0h1m2 0h1m1 0h2m1 0h3M4 82.5h1m2 0h1m2 0h2m3 0h3m1 0h1m1 0h1m1 0h1m1 0h2m4 0h1m1 0h1m1 0h1m2 0h1m1 0h1m4 0h3m1 0h4m2 0h1m5 0h1m6 0h1m1 0h3m2 0h1m3 0h1m2 0h4m2 0h1m1 0h1m6 0h1m1 0h2m1 0h1m1 0h1m4 0h3m4 0h3m1 0h4m3 0h1m1 0h1m2 0h2m2 0h1m4 0h2m1 0h2m1 0h3m1 0h1m5 0h1m1 0h2m2 0h1m1 0h3m1 0h1m3 0h3m1 0h3M4 83.5h4m1 0h1m1 0h2m2 0h2m1 0h1m3 0h3m2 0h1m1 0h2m1 0h1m1 0h2m3 0h3m2 0h3m2 0h1m2 0h2m1 0h1m2 0h2m1 0h2m1 0h1m1 0h1m2 0h1m3 0h1m2 0h1m1 0h1m2 0h1m4 0h3m2 0h2m1 0h1m1 0h1m1 0h1m3 0h1m2 0h5m3 0h1m1 0h1m3 0h3m3 0h1m1 0h6m1 0h2m1 0h2m2 0h1m1 0h2m2 0h1m3 0h1m2 0h2m3 0h3m3 0h3m5 0h1m4 0h2M4 84.5h1m3 0h1m1 0h1m1 0h1m1 0h3m1 0h1m1 0h1m2 0h4m1 0h1m4 0h3m1 0h2m1 0h1m1 0h2m3 0h5m1 0h4m3 0h1m3 0h6m1 0h1m1 0h2m3 0h4m1 0h1m1 0h1m1 0h1m1 0h3m1 0h1m3 0h1m2 0h1m2 0h1m5 0h4m2 0h1m2 0h4m1 0h1m4 0h3m1 0h1m7 0h3m2 0h3m2 0h1m1 0h1m2 0h2m1 0h1m1 0h2m1 0h2m4 0h4m1 0h3M6 85.5h1m5 0h1m5 0h3m2 0h2m2 0h1m2 0h3m1 0h2m1 0h1m1 0h6m2 0h2m1 0h1m2 0h1m2 0h1m4 0h1m1 0h2m1 0h1m1 0h1m7 0h1m2 0h2m1 0h2m1 0h1m8 0h1m2 0h1m2 0h1m4 0h2m2 0h1m1 0h2m3 0h1m4 0h2m1 0h4m8 0h1m1 0h2m3 0h2m2 0h1m3 0h2m4 0h1m1 0h1m1 0h1m2 0h2m2 0h4m4 0h3m1 0h1M5 86.5h1m1 0h2m1 0h3m1 0h1m1 0h1m2 0h2m1 0h1m1 0h2m1 0h1m3 0h3m1 0h1m1 0h3m5 0h2m2 0h1m1 0h2m2 0h1m1 0h3m1 0h1m6 0h1m1 0h1m1 0h2m1 0h2m2 0h4m1 0h2m1 0h4m4 0h4m1 0h1m1 0h2m3 0h5m2 0h1m3 0h1m3 0h3m1 0h1m5 0h1m5 0h1m3 0h1m1 0h1m3 0h1m1 0h2m1 0h1m1 0h1m4 0h2m5 0h1m2 0h1m1 0h2m4 0h2M4 87.5h2m1 0h2m3 0h1m1 0h1m2 0h1m1 0h2m2 0h2m2 0h1m1 0h1m1 0h2m1 0h1m3 0h4m1 0h2m1 0h1m1 0h1m2 0h3m4 0h1m1 0h8m5 0h6m4 0h1m1 0h2m1 0h1m1 0h1m1 0h1m1 0h1m3 0h1m2 0h5m3 0h2m6 0h4m2 0h3m1 0h1m1 0h4m8 0h5m1 0h3m2 0h1m1 0h1m4 0h1m1 0h1m1 0h1m1 0h2m2 0h1m5 0h1m1 0h3M4 88.5h2m2 0h7m2 0h1m2 0h3m1 0h1m1 0h1m1 0h1m2 0h10m1 0h1m1 0h2m1 0h9m1 0h1m2 0h8m1 0h1m1 0h1m2 0h1m1 0h1m8 0h9m1 0h3m1 0h2m5 0h2m4 0h1m1 0h1m1 0h6m1 0h2m2 0h2m1 0h1m1 0h2m3 0h1m1 0h2m1 0h1m1 0h5m1 0h1m2 0h1m1 0h3m3 0h1m2 0h1m2 0h4m1 0h5m2 0h1M6 89.5h3m3 0h1m1 0h1m1 0h1m1 0h3m1 0h1m2 0h3m2 0h3m3 0h5m2 0h2m3 0h2m1 0h3m1 0h6m3 0h1m3 0h4m2 0h2m1 0h2m2 0h1m3 0h4m3 0h3m1 0h1m2 0h1m1 0h1m1 0h4m2 0h1m1 0h2m2 0h2m3 0h1m1 0h3m1 0h2m6 0h3m1 0h1m5 0h1m3 0h3m1 0h2m1 0h4m2 0h5m1 0h1m1 0h2m1 0h1m3 0h1m2 0h2M6 90.5h1m1 0h1m1 0h1m1 0h1m1 0h1m2 0h6m3 0h1m2 0h2m1 0h1m1 0h1m1 0h2m3 0h2m2 0h1m3 0h1m2 0h1m1 0h2m2 0h1m1 0h1m1 0h1m1 0h2m2 0h1m1 0h1m1 0h1m2 0h1m3 0h2m1 0h1m1 0h1m2 0h2m1 0h1m1 0h1m2 0h3m4 0h2m1 0h2m1 0h1m1 0h1m1 0h3m1 0h1m1 0h1m1 0h2m2 0h1m1 0h4m1 0h1m1 0h2m2 0h1m2 0h1m1 0h1m1 0h1m1 0h1m1 0h1m2 0h1m2 0h2m3 0h2m2 0h1m1 0h1m1 0h1m3 0h2m1 0h1m1 0h2M5 91.5h1m2 0h1m3 0h3m1 0h2m2 0h1m1 0h2m2 0h2m1 0h1m2 0h1m3 0h2m2 0h2m3 0h3m1 0h1m1 0h2m2 0h1m2 0h1m1 0h1m3 0h1m1 0h2m3 0h1m2 0h1m1 0h1m1 0h2m3 0h1m1 0h1m1 0h2m3 0h1m1 0h5m1 0h2m1 0h2m1 0h1m1 0h3m2 0h1m2 0h1m3 0h1m1 0h1m3 0h3m1 0h2m3 0h1m1 0h1m6 0h1m3 0h2m1 0h1m2 0h1m2 0h1m1 0h3m3 0h2m2 0h1m1 0h2m3 0h3M7 92.5h6m4 0h3m2 0h1m2 0h1m1 0h3m1 0h6m5 0h1m1 0h1m2 0h2m1 0h1m1 0h3m1 0h1m2 0h8m1 0h2m6 0h1m1 0h1m2 0h1m5 0h9m3 0h3m1 0h1m1 0h1m1 0h1m4 0h3m1 0h6m1 0h1m3 0h2m1 0h1m1 0h1m6 0h10m3 0h2m1 0h4m3 0h2m4 0h9m2 0h2M5 93.5h2m2 0h1m1 0h3m1 0h3m3 0h1m1 0h1m3 0h1m2 0h1m1 0h1m1 0h1m1 0h4m1 0h1m1 0h1m1 0h1m2 0h4m1 0h1m2 0h3m3 0h3m2 0h2m2 0h3m3 0h1m2 0h1m1 0h3m1 0h1m2 0h1m1 0h1m2 0h1m5 0h1m5 0h3m7 0h1m1 0h7m1 0h2m1 0h1m1 0h1m1 0h2m1 0h1m1 0h1m5 0h1m1 0h1m2 0h1m1 0h4m1 0h1m1 0h1m2 0h4m2 0h2m1 0h5m1 0h1m3 0h1M7 94.5h4m1 0h1m2 0h1m1 0h1m1 0h2m2 0h1m1 0h2m1 0h2m2 0h1m1 0h1m1 0h1m1 0h1m1 0h2m2 0h1m1 0h1m4 0h3m1 0h1m3 0h1m1 0h1m5 0h3m1 0h3m5 0h4m1 0h2m1 0h2m2 0h2m2 0h6m1 0h3m3 0h5m1 0h3m4 0h1m1 0h3m3 0h3m2 0h5m2 0h4m1 0h1m3 0h1m2 0h1m1 0h1m4 0h1m1 0h1m3 0h1m2 0h1m1 0h2m2 0h2m1 0h1M6 95.5h1m2 0h1m1 0h1m3 0h2m2 0h1m2 0h2m1 0h1m1 0h3m1 0h2m1 0h2m1 0h1m3 0h1m1 0h5m1 0h1m2 0h1m2 0h1m2 0h1m1 0h2m3 0h2m3 0h1m3 0h3m1 0h2m3 0h1m2 0h1m1 0h4m2 0h1m1 0h1m6 0h4m3 0h1m2 0h5m4 0h1m2 0h2m5 0h3m5 0h1m1 0h1m1 0h2m2 0h2m1 0h2m1 0h1m8 0h6m3 0h2m4 0h1M7 96.5h4m1 0h4m6 0h4m3 0h3m1 0h2m2 0h3m2 0h1m1 0h1m2 0h1m1 0h4m1 0h1m4 0h1m2 0h1m1 0h1m1 0h1m1 0h1m1 0h2m1 0h2m1 0h1m2 0h2m1 0h2m1 0h4m1 0h3m1 0h2m1 0h1m2 0h1m2 0h1m1 0h3m3 0h2m1 0h4m1 0h2m2 0h1m1 0h1m2 0h1m1 0h1m1 0h2m1 0h1m1 0h1m1 0h2m1 0h3m3 0h1m1 0h1m1 0h1m2 0h2m3 0h1m1 0h2m1 0h1m4 0h3m3 0h1m3 0h1M5 97.5h1m3 0h1m2 0h2m1 0h1m2 0h3m2 0h1m1 0h1m1 0h4m3 0h2m3 0h4m1 0h3m1 0h4m1 0h1m2 0h1m2 0h3m1 0h3m1 0h2m2 0h2m2 0h3m2 0h1m7 0h2m1 0h1m2 0h3m6 0h1m2 0h2m1 0h1m1 0h3m3 0h8m1 0h2m3 0h1m1 0h2m1 0h1m1 0h1m4 0h1m3 0h6m3 0h1m4 0h6m1 0h1m1 0h1m1 0h1m1 0h1m3 0h3M4 98.5h3m1 0h1m1 0h1m1 0h1m1 0h3m1 0h1m2 0h3m2 0h2m1 0h1m3 0h3m1 0h3m6 0h1m2 0h1m1 0h3m3 0h6m1 0h2m1 0h2m1 0h1m1 0h2m1 0h1m3 0h1m2 0h1m1 0h2m1 0h1m7 0h1m1 0h1m2 0h1m1 0h1m4 0h5m2 0h4m4 0h1m1 0h3m1 0h2m1 0h1m2 0h1m2 0h1m1 0h2m2 0h1m1 0h1m1 0h1m2 0h2m1 0h1m1 0h1m1 0h1m1 0h5m5 0h1m1 0h3m2 0h4M4 99.5h3m1 0h1m2 0h1m1 0h8m2 0h3m2 0h2m2 0h6m3 0h1m3 0h3m1 0h1m1 0h1m6 0h2m1 0h1m2 0h1m1 0h1m6 0h2m1 0h2m7 0h3m2 0h7m1 0h1m1 0h2m1 0h5m3 0h1m1 0h3m2 0h6m3 0h1m2 0h1m2 0h2m1 0h2m1 0h1m1 0h1m4 0h1m1 0h2m1 0h5m1 0h1m2 0h2m4 0h1m1 0h1m9 0h3M5 100.5h4m1 0h2m3 0h7m4 0h7m2 0h1m1 0h3m3 0h3m1 0h1m1 0h2m1 0h1m1 0h1m6 0h6m2 0h3m1 0h1m2 0h4m6 0h3m2 0h1m1 0h2m2 0h1m1 0h3m1 0h1m1 0h1m1 0h1m1 0h2m1 0h1m2 0h1m1 0h3m2 0h3m3 0h3m1 0h1m7 0h3m2 0h1m2 0h1m3 0h1m4 0h2m2 0h3m3 0h2m3 0h1M6 101.5h1m5 0h1m1 0h2m2 0h3m1 0h1m1 0h1m5 0h1m1 0h1m1 0h1m1 0h4m1 0h4m3 0h1m2 0h1m2 0h4m1 0h1m2 0h1m1 0h2m2 0h1m1 0h3m2 0h1m4 0h3m2 0h2m3 0h1m3 0h2m4 0h1m2 0h2m1 0h2m1 0h1m1 0h3m2 0h1m1 0h1m1 0h2m1 0h5m1 0h3m1 0h2m1 0h1m1 0h1m5 0h3m1 0h5m3 0h3m2 0h2m1 0h2m2 0h1m2 0h5m2 0h1m1 0h1M5 102.5h1m2 0h4m2 0h1m2 0h3m1 0h3m2 0h1m1 0h3m6 0h2m6 0h1m1 0h1m3 0h2m2 0h1m1 0h7m1 0h1m1 0h1m1 0h2m1 0h2m3 0h1m1 0h6m1 0h1m1 0h1m2 0h1m1 0h1m2 0h1m1 0h2m2 0h2m3 0h4m1 0h2m1 0h1m1 0h2m2 0h2m1 0h2m1 0h2m1 0h1m1 0h1m2 0h4m1 0h4m2 0h1m2 0h1m1 0h1m1 0h2m2 0h1m2 0h2m1 0h1m1 0h3m3 0h1m3 0h2M5 103.5h1m2 0h2m1 0h3m1 0h1m2 0h4m1 0h1m3 0h1m1 0h1m3 0h1m2 0h3m1 0h2m1 0h7m2 0h2m3 0h4m2 0h2m1 0h1m7 0h6m1 0h2m2 0h1m1 0h4m3 0h3m1 0h2m1 0h2m1 0h2m2 0h3m3 0h1m1 0h2m1 0h1m3 0h1m2 0h2m1 0h2m2 0h1m3 0h1m2 0h2m3 0h2m1 0h1m5 0h1m2 0h1m1 0h3m1 0h1m2 0h4m4 0h1m3 0h2M5 104.5h3m2 0h1m2 0h1m2 0h1m1 0h2m1 0h2m1 0h3m1 0h2m1 0h2m1 0h1m2 0h2m3 0h2m3 0h1m1 0h2m3 0h1m2 0h2m2 0h2m1 0h1m1 0h2m1 0h4m1 0h1m1 0h1m3 0h1m1 0h1m2 0h1m1 0h3m2 0h1m4 0h1m2 0h2m1 0h1m3 0h1m1 0h1m1 0h2m1 0h1m1 0h1m6 0h1m1 0h1m1 0h2m1 0h1m4 0h1m1 0h1m1 0h6m2 0h4m4 0h5m2 0h1m1 0h1m2 0h2m1 0h3m2 0h3m1 0h1M6 105.5h1m4 0h2m1 0h4m1 0h1m2 0h1m2 0h4m1 0h2m4 0h6m2 0h5m1 0h1m3 0h1m1 0h2m2 0h1m2 0h2m3 0h3m4 0h2m1 0h2m1 0h2m1 0h1m1 0h1m2 0h1m4 0h2m1 0h1m1 0h2m2 0h1m2 0h1m2 0h1m7 0h4m1 0h4m3 0h2m5 0h1m1 0h2m5 0h4m2 0h2m2 0h2m2 0h1m1 0h1m1 0h4m1 0h1m1 0h2m2 0h2m1 0h4M4 106.5h1m2 0h1m1 0h2m1 0h2m1 0h1m1 0h1m3 0h1m2 0h3m1 0h2m1 0h1m1 0h1m2 0h1m1 0h2m1 0h1m4 0h1m5 0h1m1 0h1m3 0h1m1 0h1m3 0h1m2 0h2m1 0h1m1 0h1m2 0h1m3 0h2m1 0h1m1 0h2m2 0h1m3 0h1m3 0h1m1 0h3m1 0h1m2 0h1m1 0h1m1 0h7m3 0h1m2 0h2m1 0h1m1 0h1m1 0h2m1 0h1m3 0h1m2 0h6m1 0h1m2 0h1m1 0h1m2 0h1m5 0h3m2 0h3m3 0h2m1 0h5M4 107.5h1m2 0h2m2 0h2m1 0h2m1 0h1m1 0h1m2 0h2m1 0h3m1 0h3m1 0h3m1 0h1m1 0h3m1 0h1m1 0h3m1 0h1m1 0h1m4 0h1m1 0h4m3 0h2m2 0h1m1 0h1m1 0h2m1 0h1m1 0h1m2 0h1m3 0h2m1 0h4m1 0h1m1 0h10m1 0h1m1 0h1m1 0h1m2 0h1m3 0h3m4 0h1m1 0h2m2 0h6m1 0h2m2 0h2m1 0h2m2 0h1m2 0h1m2 0h1m2 0h1m1 0h1m4 0h1m1 0h1m5 0h4m2 0h1m1 0h1M4 108.5h1m2 0h1m2 0h1m7 0h1m3 0h4m1 0h2m1 0h5m1 0h1m1 0h3m1 0h1m1 0h1m1 0h3m1 0h1m3 0h1m1 0h2m2 0h12m2 0h1m1 0h4m1 0h1m3 0h1m1 0h2m1 0h4m3 0h1m1 0h2m1 0h1m6 0h1m2 0h4m1 0h4m3 0h1m3 0h3m1 0h1m4 0h1m2 0h1m1 0h1m1 0h1m2 0h2m1 0h1m4 0h4m3 0h1m1 0h1m2 0h2m1 0h2m4 0h2M4 109.5h1m6 0h1m1 0h1m1 0h1m1 0h2m1 0h7m3 0h1m1 0h1m2 0h2m1 0h1m4 0h4m1 0h4m2 0h1m1 0h8m1 0h1m3 0h5m2 0h2m2 0h1m1 0h2m1 0h1m2 0h4m2 0h4m1 0h2m2 0h1m2 0h1m2 0h1m1 0h2m5 0h4m1 0h1m2 0h2m1 0h1m3 0h2m1 0h3m4 0h4m1 0h1m3 0h1m3 0h3m4 0h3m1 0h3m1 0h5m1 0h2m1 0h1M6 110.5h2m2 0h2m4 0h1m1 0h2m1 0h1m3 0h1m4 0h1m1 0h2m1 0h1m3 0h1m3 0h1m2 0h2m1 0h1m2 0h1m2 0h1m1 0h3m2 0h3m2 0h2m1 0h1m1 0h1m2 0h1m1 0h1m3 0h5m2 0h1m2 0h3m2 0h3m1 0h1m1 0h1m1 0h2m2 0h1m1 0h7m5 0h1m3 0h1m2 0h3m3 0h3m1 0h2m2 0h1m7 0h1m1 0h3m4 0h1m1 0h1m7 0h3m1 0h3m1 0h2M6 111.5h1m1 0h1m4 0h2m3 0h5m4 0h1m8 0h1m1 0h2m1 0h1m2 0h1m1 0h4m1 0h3m3 0h4m4 0h3m5 0h2m1 0h4m5 0h2m1 0h3m1 0h1m3 0h1m1 0h1m2 0h2m1 0h1m3 0h1m1 0h1m2 0h1m1 0h1m1 0h1m3 0h1m1 0h1m1 0h1m1 0h1m4 0h1m3 0h1m3 0h2m2 0h1m3 0h1m4 0h2m2 0h1m6 0h3m2 0h1m2 0h1m1 0h2m2 0h3M4 112.5h2m1 0h1m1 0h3m2 0h2m1 0h1m1 0h2m1 0h1m1 0h3m1 0h4m1 0h6m3 0h2m3 0h1m1 0h2m1 0h1m3 0h1m4 0h2m1 0h2m2 0h4m2 0h1m1 0h3m2 0h2m1 0h1m2 0h2m1 0h2m1 0h2m2 0h4m1 0h2m2 0h1m2 0h5m3 0h3m3 0h1m3 0h4m1 0h2m3 0h1m1 0h5m5 0h4m2 0h5m1 0h4m2 0h2m1 0h3m7 0h1M5 113.5h1m5 0h1m1 0h3m3 0h1m1 0h2m1 0h3m1 0h2m1 0h4m1 0h4m1 0h5m1 0h1m2 0h2m1 0h5m3 0h1m1 0h1m1 0h1m1 0h3m1 0h1m3 0h1m2 0h2m1 0h2m2 0h2m7 0h1m1 0h2m1 0h2m2 0h1m1 0h2m1 0h1m3 0h2m4 0h7m1 0h1m6 0h2m1 0h4m3 0h1m2 0h2m3 0h2m3 0h2m2 0h1m2 0h2m3 0h2m1 0h2m1 0h3m3 0h1M4 114.5h1m1 0h2m1 0h3m1 0h1m1 0h5m2 0h3m2 0h1m3 0h1m1 0h1m3 0h2m1 0h1m1 0h1m2 0h3m1 0h1m2 0h2m3 0h1m1 0h1m1 0h1m2 0h1m3 0h1m1 0h1m2 0h1m1 0h1m1 0h1m1 0h2m1 0h1m1 0h1m2 0h3m1 0h1m6 0h1m1 0h1m1 0h1m1 0h1m2 0h2m1 0h1m2 0h1m1 0h3m4 0h2m5 0h1m1 0h1m1 0h1m1 0h1m1 0h2m2 0h1m1 0h4m3 0h2m1 0h3m1 0h5m1 0h1m1 0h1m1 0h1m2 0h3m3 0h1m1 0h1M4 115.5h2m2 0h2m2 0h1m3 0h1m1 0h1m1 0h1m1 0h2m2 0h1m2 0h3m2 0h1m2 0h2m1 0h3m1 0h1m1 0h1m4 0h2m4 0h5m3 0h3m3 0h2m1 0h1m1 0h1m1 0h1m6 0h2m1 0h1m1 0h1m1 0h3m1 0h2m5 0h2m3 0h1m4 0h1m1 0h1m5 0h1m1 0h1m1 0h2m1 0h1m1 0h2m1 0h4m1 0h1m3 0h1m1 0h1m2 0h3m3 0h2m1 0h1m3 0h2m2 0h3m5 0h1m4 0h2M4 116.5h3m1 0h5m2 0h2m2 0h2m1 0h2m3 0h3m2 0h5m2 0h2m2 0h2m4 0h4m1 0h1m1 0h1m3 0h7m1 0h2m2 0h2m2 0h3m1 0h2m1 0h1m2 0h1m1 0h7m2 0h4m1 0h1m2 0h1m3 0h1m1 0h3m2 0h5m6 0h7m1 0h1m1 0h1m1 0h2m1 0h1m1 0h5m4 0h1m1 0h5m1 0h3m3 0h1m1 0h8m2 0h2M5 117.5h2m1 0h1m3 0h4m1 0h1m1 0h1m2 0h3m1 0h1m1 0h5m3 0h1m1 0h5m1 0h1m2 0h3m1 0h1m3 0h2m1 0h1m1 0h1m3 0h1m1 0h3m1 0h6m2 0h1m1 0h1m4 0h4m3 0h1m1 0h3m9 0h1m1 0h2m2 0h2m1 0h2m3 0h2m2 0h1m1 0h2m2 0h1m3 0h6m1 0h1m1 0h2m3 0h2m1 0h3m2 0h3m2 0h2m3 0h4m1 0h2m3 0h1m1 0h1m1 0h1M6 118.5h1m1 0h1m1 0h1m1 0h1m2 0h1m2 0h3m2 0h2m1 0h2m2 0h3m1 0h1m1 0h5m1 0h2m8 0h2m1 0h1m3 0h2m1 0h1m1 0h1m3 0h3m1 0h2m5 0h4m1 0h1m2 0h2m1 0h1m1 0h1m5 0h2m2 0h1m1 0h1m3 0h1m1 0h3m1 0h1m1 0h1m1 0h1m1 0h1m1 0h1m3 0h1m2 0h3m6 0h1m2 0h1m1 0h2m1 0h1m1 0h1m1 0h1m2 0h3m1 0h1m2 0h1m1 0h1m2 0h3m1 0h1m2 0h1m1 0h1m1 0h2m1 0h1M4 119.5h3m1 0h1m3 0h1m1 0h4m1 0h2m3 0h1m1 0h1m1 0h1m3 0h1m3 0h1m2 0h3m2 0h1m1 0h2m1 0h1m1 0h3m4 0h1m1 0h1m3 0h4m1 0h1m1 0h1m1 0h4m1 0h2m5 0h2m1 0h1m3 0h2m2 0h1m1 0h1m4 0h3m2 0h3m4 0h2m3 0h2m2 0h1m2 0h2m5 0h2m3 0h1m2 0h1m1 0h1m3 0h1m2 0h4m1 0h1m3 0h1m4 0h2m2 0h1m1 0h2m3 0h3M4 120.5h3m1 0h6m2 0h2m1 0h2m1 0h5m1 0h9m1 0h2m2 0h3m2 0h2m2 0h1m2 0h3m3 0h5m3 0h1m1 0h1m2 0h3m1 0h2m1 0h2m2 0h1m1 0h7m4 0h1m2 0h3m3 0h1m5 0h1m2 0h7m1 0h1m3 0h4m1 0h2m1 0h1m3 0h10m1 0h1m1 0h1m3 0h1m1 0h3m1 0h2m1 0h2m1 0h1m1 0h7m2 0h2M7 121.5h2m3 0h3m2 0h1m2 0h2m1 0h5m2 0h2m1 0h4m2 0h1m3 0h3m2 0h1m2 0h1m1 0h2m1 0h2m1 0h2m1 0h1m1 0h6m1 0h3m3 0h1m1 0h1m2 0h6m2 0h1m1 0h2m1 0h1m1 0h1m1 0h3m3 0h3m1 0h1m8 0h1m2 0h4m1 0h2m3 0h1m1 0h4m1 0h2m2 0h1m4 0h1m3 0h3m2 0h1m2 0h1m1 0h5m1 0h6m2 0h3m1 0h2M4 122.5h2m1 0h2m1 0h2m3 0h1m1 0h1m3 0h6m1 0h1m1 0h2m2 0h1m1 0h1m2 0h2m1 0h2m1 0h3m4 0h1m8 0h1m2 0h1m2 0h2m1 0h1m1 0h2m5 0h1m1 0h4m9 0h1m1 0h1m1 0h3m1 0h2m3 0h1m1 0h2m2 0h2m3 0h1m1 0h1m1 0h1m1 0h2m3 0h2m3 0h1m1 0h1m1 0h1m6 0h2m7 0h2m1 0h2m1 0h1m4 0h3m1 0h1m2 0h1m1 0h1m1 0h2M5 123.5h1m1 0h3m1 0h3m1 0h1m7 0h2m1 0h3m1 0h4m1 0h3m1 0h2m4 0h2m1 0h1m2 0h1m3 0h3m1 0h1m2 0h6m5 0h4m1 0h1m6 0h2m1 0h2m3 0h2m1 0h2m7 0h1m3 0h2m4 0h2m4 0h2m2 0h2m1 0h8m10 0h4m1 0h2m1 0h1m2 0h1m2 0h1m4 0h2m4 0h1m2 0h7M7 124.5h4m1 0h4m4 0h2m1 0h1m1 0h1m1 0h3m2 0h1m1 0h2m3 0h2m1 0h3m2 0h8m1 0h1m1 0h2m5 0h1m4 0h1m2 0h2m1 0h1m1 0h2m1 0h1m5 0h2m1 0h2m2 0h1m5 0h2m3 0h1m1 0h1m3 0h2m2 0h1m1 0h1m2 0h1m6 0h2m1 0h1m1 0h2m5 0h2m1 0h1m1 0h2m1 0h4m1 0h2m1 0h5m1 0h4m1 0h5m2 0h1m6 0h1M4 125.5h2m1 0h3m1 0h5m2 0h2m2 0h1m2 0h1m2 0h3m2 0h1m4 0h3m2 0h6m1 0h1m2 0h2m1 0h3m1 0h3m1 0h2m2 0h1m1 0h1m1 0h2m1 0h2m3 0h1m1 0h3m2 0h2m2 0h2m1 0h2m1 0h1m2 0h1m2 0h1m1 0h2m2 0h1m3 0h1m1 0h2m3 0h1m2 0h2m1 0h2m3 0h1m2 0h1m1 0h1m1 0h2m1 0h1m1 0h1m3 0h2m6 0h3m6 0h1m1 0h1m1 0h2m1 0h2m3 0h1m3 0h1M4 126.5h1m1 0h2m1 0h2m1 0h2m2 0h3m3 0h2m7 0h1m3 0h2m4 0h1m1 0h1m1 0h3m4 0h2m1 0h1m6 0h3m2 0h7m3 0h1m1 0h2m1 0h3m4 0h1m8 0h4m2 0h1m4 0h5m2 0h3m1 0h1m1 0h10m1 0h2m1 0h3m3 0h3m4 0h2m2 0h1m5 0h3m3 0h1m1 0h1m4 0h1m1 0h1m1 0h3M4 127.5h3m5 0h2m3 0h1m7 0h3m1 0h2m8 0h1m4 0h1m1 0h3m2 0h2m5 0h1m2 0h1m4 0h2m1 0h2m2 0h4m1 0h2m1 0h1m3 0h2m1 0h1m2 0h1m1 0h4m4 0h3m1 0h1m2 0h1m1 0h3m3 0h1m6 0h2m1 0h2m2 0h7m2 0h5m1 0h3m6 0h1m2 0h1m6 0h1m1 0h4m1 0h1m1 0h6M4 128.5h2m4 0h1m3 0h2m1 0h2m3 0h3m1 0h1m3 0h2m3 0h1m1 0h1m1 0h2m1 0h2m1 0h1m4 0h1m3 0h1m1 0h2m5 0h4m2 0h2m1 0h1m1 0h1m1 0h3m1 0h2m1 0h1m2 0h4m2 0h1m5 0h3m5 0h2m1 0h5m4 0h1m2 0h1m1 0h1m4 0h1m1 0h3m4 0h1m1 0h2m1 0h3m2 0h6m3 0h4m2 0h3m3 0h3m4 0h1m3 0h1M4 129.5h1m1 0h4m2 0h1m2 0h1m3 0h1m2 0h3m6 0h2m4 0h2m1 0h3m1 0h3m1 0h1m4 0h2m1 0h1m1 0h1m1 0h5m4 0h1m3 0h1m1 0h1m3 0h2m1 0h2m3 0h4m2 0h3m1 0h1m1 0h3m1 0h1m2 0h1m3 0h1m1 0h2m1 0h3m2 0h3m1 0h1m1 0h2m3 0h1m1 0h4m2 0h1m3 0h1m3 0h2m2 0h8m2 0h5m2 0h1m1 0h1m1 0h2m3 0h1M4 130.5h4m2 0h1m1 0h2m1 0h2m1 0h2m1 0h3m3 0h1m3 0h2m1 0h1m3 0h1m1 0h2m1 0h1m1 0h2m4 0h2m2 0h1m2 0h1m2 0h5m1 0h2m1 0h1m1 0h1m2 0h1m3 0h4m1 0h1m2 0h2m2 0h1m3 0h1m1 0h4m1 0h1m1 0h2m1 0h3m1 0h1m1 0h1m2 0h1m1 0h1m1 0h2m1 0h2m2 0h2m2 0h1m2 0h1m1 0h1m3 0h3m2 0h4m5 0h1m2 0h1m2 0h1m1 0h2m2 0h1m2 0h2m1 0h1m1 0h1m4 0h1M6 131.5h1m1 0h2m2 0h3m2 0h1m5 0h1m1 0h3m3 0h2m2 0h1m2 0h2m1 0h1m2 0h1m1 0h1m2 0h1m1 0h1m1 0h1m4 0h2m2 0h1m10 0h1m2 0h3m2 0h1m1 0h1m3 0h3m3 0h1m2 0h3m8 0h1m5 0h4m4 0h8m3 0h2m1 0h3m3 0h3m2 0h2m4 0h3m2 0h1m8 0h1m1 0h2m4 0h3m1 0h2M4 132.5h1m1 0h2m2 0h2m1 0h2m1 0h1m3 0h1m1 0h2m1 0h1m1 0h2m3 0h2m2 0h3m3 0h3m2 0h1m2 0h1m1 0h3m1 0h2m1 0h1m1 0h1m3 0h4m1 0h1m1 0h2m4 0h1m2 0h1m1 0h2m1 0h1m1 0h4m1 0h3m4 0h1m1 0h1m2 0h2m2 0h1m2 0h2m1 0h1m2 0h1m1 0h2m3 0h1m1 0h2m1 0h1m1 0h1m2 0h1m1 0h1m1 0h2m1 0h4m2 0h4m2 0h5m1 0h1m1 0h2m1 0h1m1 0h7m1 0h1m3 0h2M5 133.5h1m1 0h1m3 0h1m2 0h2m4 0h2m1 0h4m2 0h1m1 0h1m4 0h1m1 0h1m1 0h3m1 0h2m2 0h1m4 0h1m1 0h8m1 0h1m2 0h4m5 0h2m4 0h1m1 0h3m1 0h1m1 0h3m1 0h1m4 0h3m2 0h1m1 0h2m1 0h1m1 0h2m6 0h2m1 0h3m1 0h2m5 0h2m1 0h3m2 0h1m6 0h7m1 0h1m5 0h3m3 0h2m1 0h2m6 0h2M4 134.5h1m1 0h3m1 0h4m1 0h2m1 0h4m1 0h2m1 0h1m1 0h4m1 0h1m3 0h4m2 0h1m2 0h1m5 0h1m1 0h1m2 0h2m4 0h3m1 0h7m5 0h4m1 0h1m6 0h1m3 0h4m3 0h2m5 0h3m2 0h3m1 0h3m1 0h1m2 0h1m4 0h2m2 0h1m4 0h1m3 0h2m2 0h1m3 0h1m2 0h1m2 0h1m1 0h3m4 0h2m1 0h2m1 0h1m1 0h1m2 0h2M6 135.5h1m1 0h2m3 0h1m2 0h1m4 0h1m2 0h1m1 0h1m2 0h2m1 0h2m1 0h1m1 0h2m1 0h2m3 0h3m4 0h1m5 0h1m2 0h5m1 0h1m6 0h1m1 0h1m1 0h2m3 0h1m1 0h2m1 0h1m4 0h1m2 0h2m2 0h3m1 0h1m1 0h2m6 0h3m4 0h1m1 0h1m2 0h6m1 0h1m1 0h1m2 0h1m1 0h1m1 0h1m3 0h1m2 0h1m1 0h5m4 0h1m2 0h1m1 0h2m5 0h5m1 0h2M5 136.5h3m2 0h2m1 0h2m1 0h1m1 0h4m3 0h3m2 0h1m1 0h6m4 0h1m1 0h2m5 0h2m1 0h1m1 0h2m1 0h2m2 0h1m5 0h1m3 0h3m2 0h2m1 0h1m2 0h2m1 0h6m6 0h1m3 0h1m3 0h1m2 0h5m2 0h1m2 0h1m2 0h1m1 0h1m2 0h1m1 0h1m1 0h1m2 0h1m1 0h1m1 0h2m1 0h1m1 0h2m1 0h2m2 0h1m1 0h2m1 0h3m3 0h5m1 0h3m2 0h1m5 0h2M4 137.5h1m1 0h2m3 0h1m6 0h4m5 0h2m6 0h3m2 0h1m3 0h1m2 0h2m1 0h1m2 0h2m2 0h2m1 0h3m1 0h1m1 0h1m1 0h5m1 0h3m2 0h1m1 0h5m1 0h4m3 0h4m3 0h1m4 0h1m2 0h1m1 0h3m1 0h1m2 0h1m2 0h2m1 0h1m1 0h2m1 0h1m3 0h7m3 0h1m1 0h1m2 0h3m1 0h3m1 0h1m1 0h1m2 0h5m2 0h2m1 0h2m4 0h2m1 0h1M4 138.5h3m1 0h3m1 0h1m2 0h1m2 0h1m1 0h1m2 0h2m1 0h2m1 0h3m1 0h2m1 0h1m1 0h4m1 0h1m2 0h2m1 0h2m1 0h1m2 0h1m1 0h2m2 0h1m3 0h1m3 0h2m1 0h2m3 0h1m1 0h2m1 0h1m1 0h2m1 0h1m1 0h1m5 0h1m2 0h2m1 0h2m4 0h6m1 0h1m1 0h1m1 0h1m1 0h4m2 0h1m2 0h1m1 0h1m1 0h1m2 0h4m1 0h1m2 0h1m1 0h1m4 0h1m8 0h1m2 0h1m2 0h1m2 0h2m3 0h3m1 0h2M9 139.5h1m5 0h4m6 0h1m2 0h1m1 0h1m2 0h1m4 0h2m3 0h1m2 0h1m1 0h2m1 0h2m5 0h2m2 0h2m2 0h1m3 0h1m2 0h7m5 0h2m1 0h2m1 0h1m1 0h2m1 0h2m1 0h1m1 0h5m1 0h2m1 0h1m2 0h3m1 0h1m3 0h1m3 0h6m6 0h1m1 0h1m1 0h2m2 0h1m1 0h1m1 0h1m1 0h2m1 0h1m1 0h2m1 0h1m5 0h3m1 0h1m5 0h6M4 140.5h1m5 0h1m3 0h3m1 0h1m2 0h3m6 0h2m1 0h1m4 0h2m1 0h1m2 0h1m2 0h4m2 0h3m4 0h1m4 0h7m1 0h2m1 0h1m1 0h4m1 0h1m1 0h2m2 0h2m1 0h3m2 0h1m1 0h2m1 0h1m6 0h4m3 0h1m1 0h2m1 0h1m5 0h4m2 0h1m1 0h1m3 0h4m1 0h1m2 0h2m7 0h3m1 0h1m1 0h1m4 0h1m1 0h2m6 0h1m1 0h1M4 141.5h2m2 0h2m1 0h1m1 0h4m1 0h8m1 0h4m1 0h4m1 0h3m1 0h6m2 0h1m3 0h3m1 0h2m1 0h1m1 0h1m1 0h1m1 0h3m1 0h1m1 0h1m4 0h1m4 0h2m2 0h1m1 0h2m1 0h1m1 0h3m1 0h1m1 0h3m3 0h2m4 0h1m1 0h1m1 0h2m5 0h1m1 0h1m1 0h1m3 0h2m1 0h4m1 0h2m5 0h1m1 0h1m1 0h1m1 0h2m2 0h3m1 0h1m4 0h1m3 0h1m2 0h3m5 0h2M4 142.5h1m1 0h1m1 0h5m1 0h1m1 0h2m1 0h1m6 0h1m2 0h3m1 0h1m1 0h3m2 0h4m1 0h4m3 0h2m3 0h3m2 0h2m1 0h4m1 0h1m1 0h1m9 0h1m1 0h1m3 0h2m7 0h2m3 0h2m3 0h4m2 0h1m2 0h1m1 0h1m1 0h1m2 0h3m3 0h2m3 0h1m1 0h1m2 0h3m4 0h1m4 0h1m1 0h2m2 0h4m1 0h2m1 0h1m5 0h1m2 0h1m1 0h1M5 143.5h1m1 0h1m4 0h2m1 0h3m1 0h3m2 0h3m1 0h1m1 0h1m2 0h1m2 0h1m5 0h2m2 0h1m1 0h2m1 0h2m2 0h1m2 0h1m2 0h2m1 0h1m2 0h1m5 0h2m1 0h3m2 0h1m3 0h4m3 0h2m2 0h1m1 0h1m4 0h2m1 0h2m2 0h1m2 0h4m4 0h1m5 0h4m4 0h2m1 0h1m1 0h1m2 0h3m1 0h3m3 0h2m2 0h1m2 0h2m4 0h1m1 0h1m4 0h1m2 0h3M6 144.5h1m1 0h5m2 0h1m1 0h1m1 0h1m2 0h2m4 0h10m3 0h4m2 0h2m1 0h5m1 0h1m3 0h5m2 0h3m3 0h1m3 0h1m4 0h1m1 0h1m1 0h1m1 0h5m2 0h1m1 0h1m2 0h4m3 0h1m1 0h6m1 0h5m7 0h1m1 0h4m6 0h9m1 0h1m4 0h1m1 0h3m2 0h1m1 0h2m4 0h1m1 0h5m2 0h2M4 145.5h3m1 0h1m3 0h3m3 0h4m1 0h1m1 0h2m2 0h4m3 0h1m1 0h1m2 0h5m1 0h4m4 0h6m3 0h1m2 0h1m2 0h3m2 0h1m2 0h1m5 0h2m2 0h1m3 0h3m1 0h1m3 0h1m3 0h1m1 0h2m3 0h3m1 0h2m3 0h8m6 0h1m1 0h1m1 0h2m1 0h4m3 0h1m2 0h2m2 0h2m1 0h1m2 0h4m1 0h3m1 0h3m3 0h3m1 0h1M4 146.5h1m1 0h3m1 0h1m1 0h2m1 0h1m1 0h2m3 0h1m2 0h2m2 0h4m1 0h1m1 0h1m1 0h1m1 0h1m2 0h1m1 0h2m3 0h1m1 0h3m4 0h2m1 0h1m1 0h1m3 0h3m1 0h2m7 0h2m1 0h2m1 0h2m1 0h1m1 0h2m4 0h1m3 0h3m2 0h4m2 0h2m1 0h1m1 0h1m1 0h1m1 0h1m2 0h3m5 0h2m1 0h1m1 0h3m1 0h3m1 0h1m1 0h1m1 0h1m2 0h1m1 0h1m3 0h3m7 0h4m1 0h1m1 0h1m1 0h2M4 147.5h1m3 0h1m3 0h2m2 0h3m1 0h4m8 0h1m3 0h1m4 0h1m4 0h2m1 0h1m2 0h2m2 0h1m1 0h1m1 0h1m3 0h1m1 0h1m2 0h2m5 0h1m1 0h1m4 0h1m2 0h3m3 0h2m2 0h1m1 0h2m1 0h8m1 0h1m5 0h1m3 0h2m1 0h1m1 0h1m2 0h3m2 0h1m1 0h2m2 0h1m4 0h1m3 0h1m3 0h4m3 0h2m3 0h4m4 0h1m3 0h4M6 148.5h1m1 0h5m1 0h1m2 0h1m1 0h1m1 0h1m2 0h2m2 0h1m2 0h6m1 0h1m3 0h4m1 0h1m2 0h1m3 0h4m1 0h10m1 0h3m1 0h3m1 0h2m1 0h1m3 0h11m1 0h1m2 0h2m1 0h1m1 0h1m1 0h1m1 0h2m1 0h3m1 0h6m2 0h2m2 0h3m1 0h1m2 0h1m1 0h1m1 0h14m2 0h1m1 0h4m1 0h2m3 0h1m2 0h1m1 0h5m3 0h1M16 149.5h3m1 0h2m1 0h1m1 0h2m1 0h1m1 0h1m1 0h1m1 0h2m1 0h1m1 0h1m1 0h1m1 0h3m2 0h1m1 0h1m2 0h4m1 0h1m1 0h2m1 0h1m1 0h1m2 0h3m2 0h1m1 0h3m1 0h2m2 0h2m1 0h2m2 0h1m1 0h1m1 0h2m3 0h3m2 0h1m1 0h1m2 0h1m1 0h2m2 0h1m1 0h1m1 0h2m1 0h3m1 0h1m6 0h2m1 0h1m2 0h1m3 0h1m3 0h2m1 0h5m1 0h2m3 0h5m2 0h1m3 0h2m1 0h1m1 0h1m2 0h1M6 150.5h2m1 0h2m3 0h1m2 0h1m1 0h1m2 0h10m2 0h1m1 0h1m1 0h1m2 0h1m1 0h1m2 0h1m2 0h2m1 0h1m5 0h3m1 0h1m1 0h2m1 0h2m1 0h1m1 0h1m7 0h2m2 0h2m4 0h1m1 0h1m2 0h5m2 0h1m1 0h1m2 0h1m1 0h3m2 0h1m1 0h1m1 0h1m2 0h2m1 0h1m5 0h2m2 0h4m3 0h1m2 0h2m1 0h2m4 0h3m4 0h1m1 0h2m5 0h1m1 0h2M5 151.5h2m1 0h2m4 0h3m1 0h4m1 0h3m2 0h3m2 0h2m4 0h1m6 0h1m1 0h1m8 0h2m1 0h2m1 0h5m6 0h1m1 0h1m1 0h2m2 0h1m3 0h3m2 0h1m1 0h1m2 0h1m1 0h1m3 0h1m1 0h5m1 0h2m2 0h2m1 0h5m1 0h1m1 0h1m1 0h1m4 0h1m6 0h1m3 0h1m2 0h1m2 0h1m4 0h1m2 0h1m7 0h5m1 0h2m1 0h1m1 0h3m1 0h1M4 152.5h3m3 0h1m1 0h5m1 0h3m1 0h2m1 0h1m1 0h1m3 0h2m1 0h3m1 0h1m1 0h1m2 0h3m1 0h2m1 0h6m1 0h3m4 0h1m2 0h1m1 0h1m1 0h1m2 0h5m4 0h1m1 0h1m1 0h2m2 0h1m2 0h1m5 0h4m1 0h2m2 0h5m1 0h1m3 0h1m1 0h1m1 0h1m4 0h1m1 0h4m3 0h1m2 0h1m1 0h1m1 0h3m3 0h1m1 0h1m2 0h2m1 0h1m3 0h1m2 0h1m1 0h1m1 0h2m1 0h5m2 0h1M4 153.5h1m1 0h2m5 0h1m1 0h1m1 0h3m3 0h4m4 0h2m1 0h2m2 0h1m2 0h7m1 0h1m3 0h2m1 0h3m1 0h2m1 0h1m1 0h2m1 0h1m1 0h1m1 0h1m3 0h2m4 0h1m1 0h1m2 0h2m1 0h3m1 0h1m1 0h1m7 0h1m1 0h2m3 0h3m3 0h1m3 0h2m1 0h2m1 0h1m1 0h1m1 0h1m1 0h4m1 0h2m4 0h1m2 0h3m1 0h3m2 0h2m1 0h1m1 0h5m2 0h4m3 0h1m4 0h1M4 154.5h1m3 0h3m1 0h2m1 0h1m1 0h1m2 0h2m2 0h1m1 0h2m1 0h1m1 0h1m1 0h3m4 0h1m4 0h3m4 0h1m2 0h1m4 0h1m3 0h2m2 0h3m1 0h1m6 0h2m1 0h1m1 0h2m4 0h4m1 0h2m2 0h1m1 0h3m7 0h1m2 0h1m6 0h1m2 0h1m4 0h1m1 0h2m5 0h2m3 0h1m1 0h1m3 0h1m1 0h1m7 0h2m2 0h1m1 0h2m5 0h2m1 0h1m1 0h3M4 155.5h1m1 0h1m5 0h1m2 0h1m2 0h1m2 0h3m1 0h3m2 0h2m1 0h1m3 0h2m2 0h2m3 0h1m1 0h2m2 0h2m3 0h3m2 0h3m1 0h1m6 0h1m2 0h4m3 0h1m2 0h2m1 0h1m1 0h1m1 0h4m2 0h1m3 0h3m2 0h2m4 0h6m2 0h2m1 0h4m2 0h3m2 0h1m3 0h3m1 0h1m1 0h2m3 0h4m2 0h1m2 0h2m1 0h1m1 0h2m2 0h1m1 0h1m3 0h2m1 0h3M4 156.5h1m5 0h1m2 0h1m5 0h2m5 0h2m2 0h1m4 0h3m1 0h6m2 0h2m1 0h1m3 0h2m3 0h3m1 0h4m4 0h2m1 0h6m1 0h1m4 0h1m2 0h1m4 0h1m4 0h2m1 0h2m2 0h1m4 0h2m2 0h1m5 0h1m1 0h3m1 0h1m2 0h1m1 0h2m5 0h1m2 0h1m1 0h3m3 0h1m1 0h2m1 0h5m3 0h2m3 0h3m2 0h4m3 0h1M4 157.5h2m2 0h2m4 0h1m1 0h4m2 0h1m1 0h5m1 0h1m1 0h1m2 0h2m1 0h1m1 0h1m1 0h1m1 0h1m1 0h3m1 0h2m2 0h1m1 0h2m8 0h1m1 0h5m1 0h1m4 0h1m1 0h5m1 0h1m1 0h2m2 0h2m1 0h2m2 0h1m2 0h2m1 0h2m3 0h3m2 0h2m1 0h1m1 0h4m1 0h1m1 0h1m5 0h1m1 0h1m1 0h1m5 0h1m3 0h1m1 0h3m3 0h3m3 0h3m1 0h1m1 0h2m2 0h2m6 0h1M5 158.5h3m2 0h1m4 0h1m3 0h1m3 0h3m2 0h2m1 0h2m8 0h1m1 0h1m1 0h2m2 0h2m1 0h1m2 0h1m1 0h3m1 0h1m1 0h3m1 0h2m1 0h3m4 0h1m1 0h5m13 0h3m1 0h3m1 0h1m2 0h1m1 0h2m2 0h1m1 0h3m3 0h2m2 0h3m2 0h1m2 0h3m4 0h1m7 0h1m9 0h2m5 0h2m1 0h3m1 0h1m3 0h3M6 159.5h4m1 0h1m1 0h2m2 0h1m1 0h1m2 0h2m1 0h3m1 0h4m1 0h1m2 0h6m2 0h4m2 0h2m3 0h1m1 0h2m1 0h1m3 0h3m6 0h1m1 0h1m1 0h2m2 0h1m3 0h1m1 0h1m1 0h1m3 0h2m2 0h1m3 0h4m1 0h2m2 0h1m3 0h4m1 0h3m2 0h1m2 0h1m1 0h3m1 0h5m3 0h5m2 0h1m1 0h1m1 0h2m1 0h2m2 0h1m2 0h1m2 0h2m3 0h1m1 0h1m2 0h1m1 0h1m1 0h1M4 160.5h5m1 0h1m6 0h1m10 0h1m3 0h6m2 0h2m1 0h1m1 0h1m2 0h3m3 0h4m1 0h3m1 0h2m2 0h1m1 0h2m2 0h3m6 0h2m2 0h1m1 0h1m2 0h1m1 0h3m1 0h1m1 0h3m1 0h1m1 0h1m6 0h2m1 0h1m1 0h3m1 0h1m1 0h1m3 0h2m1 0h3m6 0h2m1 0h1m1 0h1m5 0h1m1 0h8m1 0h4m2 0h4m1 0h3m1 0h1m2 0h2M4 161.5h1m2 0h1m1 0h1m2 0h1m1 0h1m1 0h4m1 0h1m4 0h1m11 0h2m3 0h8m2 0h1m1 0h4m1 0h1m2 0h1m1 0h12m3 0h1m6 0h1m2 0h1m1 0h1m1 0h3m3 0h1m4 0h5m1 0h2m2 0h5m1 0h2m1 0h1m1 0h2m1 0h1m1 0h1m1 0h2m1 0h3m5 0h5m1 0h3m1 0h3m4 0h2m1 0h2m2 0h4m1 0h3m4 0h1M6 162.5h3m1 0h1m1 0h3m4 0h2m4 0h4m1 0h2m1 0h1m3 0h2m1 0h2m4 0h1m5 0h2m1 0h1m2 0h2m1 0h1m2 0h2m1 0h2m1 0h4m2 0h1m3 0h1m1 0h4m2 0h2m2 0h2m3 0h1m1 0h1m2 0h3m1 0h1m1 0h1m1 0h1m1 0h3m2 0h1m1 0h1m1 0h1m1 0h3m2 0h1m1 0h2m1 0h1m1 0h7m1 0h1m1 0h1m1 0h2m2 0h1m5 0h1m2 0h4m1 0h1m3 0h1m1 0h3m1 0h4M5 163.5h5m1 0h3m3 0h2m2 0h2m1 0h1m3 0h1m5 0h3m4 0h3m1 0h2m2 0h1m3 0h1m1 0h4m3 0h5m2 0h1m4 0h2m2 0h2m3 0h1m2 0h1m2 0h1m1 0h1m3 0h2m1 0h2m1 0h2m1 0h2m2 0h1m4 0h1m1 0h2m1 0h1m1 0h1m3 0h2m2 0h4m2 0h1m7 0h2m1 0h2m2 0h1m3 0h3m7 0h1m1 0h5m1 0h1m2 0h1m1 0h1m1 0h1M4 164.5h3m1 0h5m2 0h1m3 0h3m2 0h2m5 0h1m2 0h2m1 0h2m3 0h1m4 0h2m1 0h3m1 0h1m4 0h1m1 0h1m2 0h4m1 0h2m2 0h2m2 0h1m1 0h1m1 0h1m4 0h2m1 0h1m1 0h1m2 0h2m1 0h2m1 0h4m2 0h2m1 0h1m2 0h2m1 0h2m7 0h1m2 0h1m2 0h1m1 0h1m6 0h4m1 0h1m1 0h2m2 0h2m4 0h2m2 0h1m1 0h1m1 0h1m1 0h2m1 0h2m5 0h1m3 0h1M5 165.5h2m7 0h1m2 0h1m1 0h2m2 0h5m1 0h1m2 0h1m4 0h2m1 0h1m1 0h3m1 0h1m1 0h1m1 0h1m4 0h3m3 0h1m4 0h1m1 0h5m2 0h1m4 0h1m1 0h3m2 0h3m2 0h4m4 0h2m3 0h2m2 0h1m1 0h3m1 0h2m1 0h2m1 0h4m1 0h1m2 0h1m3 0h2m1 0h3m5 0h3m1 0h4m1 0h1m1 0h5m2 0h4m2 0h3m1 0h2m1 0h1m1 0h1m2 0h1M7 166.5h1m2 0h5m1 0h1m4 0h1m1 0h1m1 0h3m1 0h1m2 0h1m7 0h1m2 0h1m1 0h2m2 0h1m2 0h3m3 0h1m2 0h2m1 0h2m4 0h2m1 0h1m1 0h1m1 0h1m1 0h2m1 0h1m1 0h1m3 0h3m1 0h1m2 0h1m2 0h2m1 0h5m2 0h1m1 0h3m1 0h1m1 0h1m1 0h1m1 0h2m1 0h2m1 0h2m1 0h2m1 0h1m1 0h2m3 0h1m1 0h2m5 0h1m6 0h1m3 0h5m2 0h1m2 0h1m1 0h2m5 0h1M4 167.5h6m1 0h1m1 0h1m2 0h2m2 0h3m2 0h1m2 0h1m5 0h1m4 0h1m2 0h1m3 0h2m4 0h2m1 0h1m1 0h4m1 0h1m1 0h4m3 0h1m2 0h6m5 0h4m2 0h1m1 0h2m1 0h2m3 0h1m1 0h2m1 0h1m1 0h1m1 0h1m2 0h1m1 0h2m1 0h1m1 0h1m1 0h3m3 0h1m1 0h3m7 0h5m1 0h1m2 0h1m1 0h1m1 0h5m2 0h2m1 0h1m1 0h4m2 0h1m1 0h3m1 0h2m1 0h1M4 168.5h5m1 0h2m1 0h1m2 0h1m7 0h2m1 0h1m1 0h6m1 0h7m2 0h2m1 0h3m2 0h5m1 0h1m3 0h3m3 0h3m6 0h1m2 0h2m1 0h1m1 0h1m2 0h1m5 0h1m1 0h2m1 0h2m1 0h1m1 0h1m1 0h1m1 0h1m2 0h1m1 0h2m1 0h1m3 0h1m5 0h7m1 0h1m3 0h4m8 0h1m5 0h3m1 0h2m2 0h1m1 0h1m2 0h1m2 0h1m2 0h1m2 0h2M5 169.5h2m2 0h1m1 0h2m3 0h1m1 0h2m1 0h1m2 0h5m1 0h1m1 0h2m1 0h1m1 0h1m4 0h1m1 0h1m1 0h1m1 0h1m1 0h1m2 0h5m2 0h2m1 0h1m1 0h3m1 0h2m1 0h2m1 0h1m1 0h3m2 0h1m2 0h5m3 0h2m2 0h1m1 0h3m1 0h1m2 0h1m1 0h2m2 0h1m4 0h1m4 0h1m1 0h1m1 0h2m3 0h1m1 0h7m3 0h6m2 0h2m4 0h5m2 0h2m1 0h1m9 0h1m2 0h1M4 170.5h3m2 0h2m1 0h3m1 0h2m1 0h3m1 0h1m1 0h1m2 0h2m1 0h1m1 0h2m5 0h2m1 0h1m1 0h1m6 0h1m1 0h2m2 0h1m1 0h1m1 0h1m1 0h1m2 0h2m1 0h1m1 0h2m3 0h1m4 0h2m4 0h5m2 0h4m3 0h1m1 0h1m2 0h2m1 0h1m3 0h1m1 0h1m3 0h2m2 0h1m1 0h1m1 0h3m3 0h1m1 0h5m1 0h2m3 0h5m1 0h3m3 0h3m4 0h2m1 0h2m2 0h1m3 0h3M7 171.5h1m3 0h3m2 0h1m1 0h1m3 0h1m2 0h1m2 0h1m2 0h2m2 0h3m1 0h1m1 0h2m3 0h1m4 0h5m1 0h3m2 0h1m1 0h1m1 0h1m6 0h2m1 0h3m2 0h1m1 0h1m1 0h4m1 0h1m2 0h1m1 0h3m4 0h3m1 0h3m4 0h1m1 0h4m1 0h1m1 0h1m3 0h2m2 0h2m1 0h1m1 0h1m1 0h1m2 0h1m2 0h1m2 0h3m2 0h1m2 0h1m2 0h1m3 0h1m1 0h1m1 0h2m4 0h1m3 0h1m2 0h3M5 172.5h1m1 0h1m1 0h3m1 0h1m1 0h2m1 0h1m1 0h2m1 0h1m1 0h1m5 0h6m3 0h1m2 0h1m1 0h1m5 0h1m4 0h1m1 0h8m1 0h2m1 0h1m1 0h1m2 0h2m1 0h1m2 0h1m3 0h1m2 0h7m4 0h3m1 0h1m3 0h1m1 0h1m1 0h3m2 0h6m1 0h1m4 0h1m1 0h2m5 0h1m2 0h3m1 0h5m1 0h3m2 0h5m2 0h3m2 0h4m1 0h5m2 0h2M12 173.5h1m1 0h2m3 0h1m1 0h7m2 0h3m3 0h1m2 0h1m1 0h2m1 0h1m1 0h1m1 0h3m4 0h2m2 0h2m3 0h2m1 0h1m1 0h1m3 0h1m3 0h1m1 0h2m1 0h2m1 0h2m1 0h1m3 0h1m1 0h4m1 0h2m2 0h7m1 0h2m2 0h2m3 0h3m1 0h1m1 0h1m4 0h1m1 0h2m1 0h1m1 0h1m5 0h1m3 0h3m2 0h1m3 0h1m3 0h4m1 0h1m1 0h3m1 0h1m3 0h1m2 0h2M4 174.5h7m1 0h3m2 0h3m1 0h1m3 0h1m2 0h1m2 0h2m1 0h1m1 0h1m6 0h1m1 0h2m3 0h6m1 0h1m2 0h1m1 0h1m1 0h1m3 0h1m1 0h1m4 0h1m3 0h7m2 0h1m1 0h1m1 0h1m2 0h1m3 0h2m1 0h1m2 0h1m2 0h1m1 0h2m1 0h2m1 0h1m1 0h1m1 0h2m1 0h1m1 0h3m1 0h1m1 0h1m2 0h8m1 0h2m1 0h1m1 0h2m4 0h2m2 0h4m3 0h1m3 0h1m1 0h2m1 0h1m1 0h2M4 175.5h1m5 0h1m2 0h3m2 0h3m2 0h4m1 0h2m2 0h1m3 0h1m1 0h3m4 0h2m1 0h1m4 0h1m4 0h1m1 0h1m3 0h3m4 0h1m1 0h2m1 0h1m1 0h2m5 0h4m3 0h3m1 0h1m1 0h2m2 0h1m1 0h2m1 0h1m1 0h1m3 0h4m3 0h2m1 0h1m1 0h1m2 0h11m1 0h1m1 0h1m1 0h1m3 0h1m4 0h2m2 0h1m1 0h1m3 0h2m1 0h4m1 0h2m3 0h1m1 0h2M4 176.5h1m1 0h3m1 0h1m1 0h1m2 0h1m1 0h1m1 0h1m1 0h3m1 0h1m6 0h6m2 0h1m1 0h1m1 0h1m2 0h1m1 0h2m1 0h4m1 0h1m2 0h10m4 0h1m1 0h1m1 0h2m2 0h1m2 0h1m2 0h6m1 0h1m1 0h1m1 0h4m4 0h1m3 0h2m3 0h6m1 0h1m1 0h1m2 0h1m1 0h4m5 0h4m1 0h8m1 0h3m1 0h4m1 0h2m4 0h10m1 0h2M4 177.5h1m1 0h3m1 0h1m1 0h1m2 0h1m1 0h1m2 0h2m3 0h1m3 0h2m4 0h3m3 0h5m1 0h3m1 0h1m3 0h2m1 0h5m5 0h1m2 0h3m3 0h2m1 0h2m1 0h4m1 0h1m2 0h2m1 0h1m4 0h2m2 0h3m3 0h1m2 0h2m7 0h2m1 0h1m1 0h2m1 0h1m3 0h4m1 0h1m5 0h2m3 0h4m1 0h1m1 0h1m2 0h1m1 0h1m1 0h4m1 0h1m1 0h1m2 0h2m1 0h3M4 178.5h1m1 0h3m1 0h1m1 0h1m4 0h1m2 0h1m2 0h1m3 0h1m1 0h1m2 0h1m1 0h1m1 0h7m6 0h1m2 0h2m5 0h3m3 0h1m2 0h1m1 0h1m1 0h2m6 0h1m1 0h4m3 0h2m1 0h1m2 0h4m2 0h2m3 0h1m1 0h1m1 0h1m1 0h1m1 0h3m1 0h1m1 0h5m4 0h4m1 0h1m2 0h1m3 0h1m5 0h2m4 0h1m1 0h1m4 0h1m4 0h2m2 0h2m1 0h2m1 0h1m1 0h2M4 179.5h1m5 0h1m1 0h1m2 0h2m1 0h3m1 0h3m5 0h2m2 0h1m1 0h3m2 0h1m1 0h1m1 0h2m2 0h1m2 0h1m5 0h2m1 0h7m6 0h6m6 0h1m3 0h5m1 0h2m3 0h5m1 0h2m1 0h3m3 0h2m1 0h2m4 0h2m2 0h2m1 0h4m3 0h2m3 0h2m2 0h2m1 0h1m2 0h1m2 0h1m1 0h1m1 0h1m1 0h1m2 0h1m1 0h1m2 0h3m2 0h3M4 180.5h7m1 0h2m1 0h6m4 0h1m2 0h4m5 0h1m1 0h2m1 0h1m1 0h2m2 0h3m3 0h1m1 0h2m1 0h2m1 0h1m2 0h2m1 0h1m1 0h2m2 0h1m1 0h3m3 0h1m2 0h2m1 0h2m1 0h1m1 0h3m2 0h3m1 0h2m5 0h1m2 0h2m1 0h4m1 0h2m1 0h3m1 0h2m1 0h1m1 0h2m5 0h8m1 0h1m1 0h1m1 0h1m5 0h1m3 0h1m4 0h5m1 0h1m1 0h3m1 0h1"/></svg>
