<?xml version="1.0" encoding="utf-8"?><!DOCTYPE svg PUBLIC "-//W3C//DTD SVG 1.1//EN" "http://www.w3.org/Graphics/SVG/1.1/DTD/svg11.dtd"><svg xmlns="http://www.w3.org/2000/svg" viewBox="0 0 185 185" shape-rendering="crispEdges"><path fill="#ffffff" d="M0 0h185v185H0z"/><path stroke="#000000" d="M4 4.5h7m3 0h8m1 0h1m2 0h1m1 0h1m1 0h2m1 0h1m2 0h1m1 0h2m1 0h2m1 0h1m3 0h1m1 0h1m2 0h1m1 0h3m2 0h1m1 0h1m1 0h1m3 0h1m2 0h3m2 0h2m1 0h5m1 0h1m1 0h1m1 0h1m2 0h3m2 0h1m2 0h2m1 0h4m2 0h1m1 0h3m1 0h1m2 0h1m1 0h5m1 0h2m5 0h4m1 0h2m8 0h1m3 0h1m1 0h3m1 0h2m3 0h6m1 0h1m3 0h7M4 5.5h1m5 0h1m1 0h1m5 0h1m2 0h3m1 0h1m1 0h1m2 0h1m5 0h5m5 0h2m1 0h1m1 0h2m1 0h1m6 0h5m1 0h4m1 0h2m1 0h1m3 0h2m1 0h1m1 0h1m10 0h4m1 0h1m1 0h2m1 0h2m2 0h2m1 0h1m1 0h1m3 0h1m6 0h2m1 0h2m3 0h1m1 0h1m1 0h4m1 0h5m3 0h1m2 0h1m3 0h2m1 0h4m1 0h1m3 0h2m1 0h1m1 0h1m5 0h1M4 6.5h1m1 0h3m1 0h1m3 0h1m2 0h3m1 0h2m1 0h2m1 0h10m1 0h4m1 0h1m1 0h2m2 0h1m1 0h2m3 0h1m1 0h2m3 0h4m6 0h2m1 0h1m1 0h2m5 0h4m4 0h2m1 0h5m2 0h3m2 0h1m6 0h3m1 0h1m1 0h2m1 0h1m4 0h1m4 0h2m1 0h1m1 0h5m2 0h1m2 0h1m3 0h3m3 0h2m2 0h1m2 0h1m2 0h2m3 0h1m1 0h3m1 0h1M4 7.5h1m1 0h3m1 0h1m1 0h2m1 0h1m2 0h2m1 0h1m1 0h1m1 0h1m9 0h2m2 0h2m2 0h4m1 0h1m1 0h3m1 0h1m5 0h2m1 0h1m2 0h2m1 0h2m2 0h1m1 0h1m1 0h2m1 0h2m1 0h1m1 0h4m1 0h2m2 0h2m3 0h3m1 0h1m2 0h2m1 0h2m1 0h4m1 0h1m3 0h1m3 0h1m2 0h3m1 0h1m4 0h1m1 0h6m3 0h4m3 0h1m1 0h2m3 0h4m1 0h1m1 0h1m1 0h2m1 0h1m1 0h3m1 0h1M4 8.5h1m1 0h3m1 0h1m2 0h1m1 0h1m1 0h2m3 0h2m1 0h5m1 0h6m2 0h1m1 0h1m1 0h3m1 0h2m1 0h2m2 0h3m3 0h5m4 0h2m1 0h2m1 0h1m1 0h3m1 0h2m1 0h1m2 0h6m1 0h2m1 0h1m1 0h2m2 0h1m1 0h2m2 0h1m3 0h1m1 0h10m1 0h2m3 0h1m3 0h2m1 0h2m1 0h2m1 0h7m1 0h3m1 0h1m1 0h2m1 0h5m1 0h3m4 0h1m1 0h3m1 0h1M4 9.5h1m5 0h1m1 0h1m5 0h2m1 0h3m2 0h3m2 0h2m3 0h1m4 0h1m4 0h2m1 0h1m2 0h2m1 0h1m1 0h4m3 0h2m4 0h4m3 0h1m1 0h4m1 0h2m2 0h1m3 0h1m4 0h3m2 0h3m2 0h2m1 0h4m1 0h2m3 0h1m1 0h4m1 0h1m2 0h1m1 0h1m1 0h2m1 0h3m1 0h1m2 0h1m3 0h2m4 0h1m2 0h1m2 0h1m2 0h1m2 0h1m3 0h1m1 0h1m1 0h1m5 0h1M4 10.5h7m1 0h1m1 0h1m1 0h1m1 0h1m1 0h1m1 0h1m1 0h1m1 0h1m1 0h1m1 0h1m1 0h1m1 0h1m1 0h1m1 0h1m1 0h1m1 0h1m1 0h1m1 0h1m1 0h1m1 0h1m1 0h1m1 0h1m1 0h1m1 0h1m1 0h1m1 0h1m1 0h1m1 0h1m1 0h1m1 0h1m1 0h1m1 0h1m1 0h1m1 0h1m1 0h1m1 0h1m1 0h1m1 0h1m1 0h1m1 0h1m1 0h1m1 0h1m1 0h1m1 0h1m1 0h1m1 0h1m1 0h1m1 0h1m1 0h1m1 0h1m1 0h1m1 0h1m1 0h1m1 0h1m1 0h1m1 0h1m1 0h1m1 0h1m1 0h1m1 0h1m1 0h1m1 0h1m1 0h1m1 0h1m1 0h1m1 0h1m1 0h1m1 0h1m1 0h1m1 0h1m1 0h1m1 0h1m1 0h1m1 0h1m1 0h1m1 0h1m1 0h1m1 0h1m1 0h1m1 0h1m1 0h1m1 0h7M13 11.5h2m3 0h3m3 0h2m1 0h1m1 0h4m3 0h2m1 0h1m3 0h1m2 0h2m3 0h2m5 0h1m1 0h1m3 0h1m1 0h1m4 0h1m1 0h2m1 0h1m1 0h2m5 0h4m3 0h2m1 0h4m2 0h4m1 0h1m2 0h1m3 0h4m3 0h1m4 0h1m2 0h3m2 0h1m2 0h3m3 0h3m3 0h1m2 0h1m1 0h3m3 0h3m2 0h6m1 0h2M4 12.5h5m1 0h3m3 0h1m1 0h1m2 0h1m5 0h1m1 0h1m2 0h7m3 0h4m1 0h3m2 0h1m1 0h2m4 0h7m2 0h2m2 0h1m2 0h4m1 0h1m1 0h2m1 0h7m1 0h1m2 0h1m2 0h1m5 0h2m1 0h1m1 0h2m3 0h6m6 0h3m6 0h1m2 0h3m1 0h5m1 0h1m4 0h1m1 0h2m3 0h2m1 0h2m1 0h1m1 0h4m1 0h1m1 0h1m1 0h1M4 13.5h1m2 0h1m3 0h1m1 0h1m1 0h1m2 0h3m1 0h1m3 0h2m1 0h2m2 0h2m5 0h1m3 0h2m1 0h2m5 0h1m1 0h1m4 0h2m1 0h9m1 0h1m7 0h4m2 0h1m2 0h4m1 0h1m4 0h1m4 0h1m1 0h1m2 0h2m2 0h2m2 0h4m1 0h3m2 0h1m1 0h1m1 0h1m1 0h2m1 0h1m2 0h2m5 0h1m1 0h3m1 0h1m1 0h1m2 0h1m1 0h2m1 0h3m1 0h2m1 0h1m1 0h1m1 0h1m1 0h4M4 14.5h1m2 0h4m3 0h1m3 0h1m2 0h1m2 0h1m1 0h1m1 0h2m2 0h1m5 0h1m2 0h1m1 0h1m1 0h3m1 0h1m2 0h4m1 0h4m2 0h3m3 0h2m1 0h2m3 0h1m1 0h2m1 0h1m1 0h1m2 0h2m2 0h1m2 0h3m3 0h1m3 0h1m2 0h4m2 0h3m2 0h1m1 0h3m1 0h2m6 0h1m1 0h2m1 0h1m1 0h4m1 0h1m15 0h1m2 0h1m1 0h2m3 0h1m3 0h1m1 0h3M4 15.5h4m1 0h1m1 0h3m1 0h1m3 0h2m2 0h2m2 0h1m2 0h1m2 0h1m1 0h1m2 0h1m1 0h1m2 0h1m2 0h1m1 0h1m2 0h3m1 0h2m1 0h4m1 0h1m2 0h1m4 0h1m1 0h2m1 0h1m4 0h1m3 0h1m1 0h1m3 0h1m1 0h2m1 0h1m1 0h1m3 0h1m1 0h1m1 0h1m1 0h3m2 0h2m2 0h1m3 0h4m2 0h1m1 0h1m3 0h1m6 0h1m5 0h1m7 0h2m3 0h1m1 0h1m1 0h1m2 0h1m4 0h2m3 0h1m1 0h3M6 16.5h1m1 0h1m1 0h6m3 0h5m1 0h2m2 0h2m7 0h4m3 0h1m1 0h4m1 0h4m5 0h1m3 0h5m1 0h7m4 0h2m4 0h1m1 0h1m1 0h2m1 0h1m3 0h2m2 0h1m3 0h1m1 0h1m1 0h2m1 0h1m3 0h1m1 0h2m1 0h1m3 0h4m1 0h1m6 0h7m1 0h7m2 0h1m1 0h3m2 0h1m3 0h1m1 0h2m1 0h1m7 0h1M4 17.5h6m1 0h1m1 0h2m1 0h3m1 0h2m3 0h1m2 0h4m3 0h1m1 0h1m3 0h2m1 0h1m1 0h1m1 0h1m1 0h1m2 0h4m2 0h1m1 0h2m1 0h1m2 0h1m1 0h1m7 0h1m2 0h2m1 0h6m2 0h5m7 0h1m2 0h1m1 0h2m1 0h2m2 0h2m2 0h2m1 0h1m1 0h4m7 0h2m1 0h1m6 0h1m2 0h1m1 0h1m1 0h1m3 0h1m1 0h2m2 0h5m1 0h3m2 0h1m1 0h1m1 0h1m1 0h2M6 18.5h3m1 0h6m4 0h4m1 0h3m1 0h1m2 0h1m5 0h1m3 0h1m4 0h1m1 0h2m1 0h1m1 0h2m2 0h2m1 0h2m2 0h1m2 0h3m1 0h2m5 0h2m1 0h1m1 0h1m3 0h2m1 0h1m4 0h2m2 0h1m1 0h3m2 0h1m1 0h2m1 0h1m1 0h2m2 0h5m1 0h2m2 0h1m2 0h1m4 0h3m1 0h5m1 0h1m2 0h1m3 0h3m3 0h3m1 0h1m1 0h2m6 0h2m1 0h1M5 19.5h2m1 0h1m2 0h2m1 0h1m4 0h5m4 0h3m3 0h1m1 0h1m1 0h2m1 0h1m1 0h5m2 0h1m2 0h1m1 0h2m1 0h3m1 0h1m2 0h3m1 0h1m1 0h1m1 0h2m1 0h1m1 0h2m3 0h1m1 0h3m5 0h2m1 0h1m5 0h1m1 0h1m3 0h1m1 0h1m6 0h1m1 0h1m1 0h1m1 0h2m2 0h5m2 0h1m3 0h3m6 0h2m2 0h1m2 0h1m5 0h2m3 0h2m5 0h1m1 0h6M4 20.5h2m2 0h3m4 0h1m2 0h3m3 0h1m1 0h1m1 0h4m1 0h2m1 0h1m2 0h2m1 0h1m1 0h3m1 0h2m4 0h1m1 0h1m4 0h1m1 0h1m1 0h3m2 0h1m1 0h1m1 0h1m2 0h2m2 0h1m4 0h2m2 0h1m3 0h1m2 0h1m1 0h2m2 0h1m1 0h2m2 0h1m1 0h3m1 0h1m5 0h1m5 0h6m2 0h1m1 0h1m1 0h2m1 0h2m1 0h1m1 0h2m1 0h1m4 0h3m1 0h1m1 0h1m1 0h3m1 0h1m1 0h3m1 0h3m3 0h2M4 21.5h1m1 0h3m4 0h2m1 0h3m3 0h1m1 0h1m5 0h1m1 0h1m5 0h2m1 0h4m1 0h1m1 0h1m1 0h1m2 0h2m1 0h1m1 0h3m1 0h4m1 0h2m1 0h2m1 0h1m1 0h3m1 0h5m1 0h1m1 0h4m1 0h3m1 0h2m2 0h1m2 0h1m2 0h1m1 0h2m5 0h2m2 0h9m5 0h1m2 0h1m1 0h2m5 0h1m1 0h2m2 0h2m1 0h5m2 0h1m2 0h5m2 0h2m5 0h1m1 0h1M5 22.5h2m3 0h1m1 0h1m1 0h6m1 0h1m1 0h3m1 0h3m1 0h1m3 0h2m1 0h4m1 0h1m1 0h2m2 0h2m1 0h2m3 0h2m2 0h2m1 0h1m3 0h3m1 0h1m4 0h1m1 0h2m1 0h3m3 0h1m4 0h1m1 0h1m1 0h3m2 0h1m1 0h2m1 0h2m1 0h1m2 0h2m3 0h1m1 0h1m3 0h2m3 0h1m1 0h1m2 0h1m3 0h1m2 0h1m2 0h4m1 0h1m3 0h2m2 0h1m2 0h1m4 0h3m3 0h1m1 0h2M7 23.5h2m4 0h2m1 0h1m1 0h1m2 0h3m2 0h1m1 0h1m1 0h1m1 0h4m1 0h2m7 0h3m2 0h1m4 0h1m1 0h3m2 0h1m1 0h3m1 0h3m1 0h2m1 0h1m1 0h2m1 0h1m1 0h1m1 0h1m1 0h1m1 0h1m1 0h1m1 0h1m2 0h4m2 0h7m4 0h2m7 0h1m2 0h2m1 0h1m5 0h1m1 0h1m3 0h3m4 0h3m3 0h2m5 0h1m3 0h3m2 0h1m2 0h5m1 0h1M5 24.5h2m3 0h2m3 0h1m1 0h2m1 0h1m1 0h1m2 0h2m1 0h7m3 0h3m1 0h3m2 0h1m2 0h3m1 0h2m1 0h2m2 0h1m4 0h1m5 0h5m1 0h2m3 0h1m2 0h1m2 0h1m2 0h1m1 0h2m2 0h1m1 0h3m4 0h1m4 0h1m3 0h2m1 0h1m1 0h1m6 0h3m1 0h2m1 0h3m1 0h5m3 0h4m2 0h7m2 0h1m1 0h1m2 0h4m2 0h1m3 0h1M4 25.5h1m2 0h2m3 0h1m4 0h1m7 0h6m4 0h1m6 0h3m1 0h1m1 0h1m5 0h1m1 0h2m1 0h1m1 0h2m1 0h2m1 0h1m2 0h1m5 0h1m5 0h4m1 0h4m1 0h3m2 0h1m2 0h1m2 0h1m2 0h1m1 0h1m3 0h1m3 0h3m1 0h5m1 0h2m1 0h1m4 0h3m1 0h1m4 0h3m1 0h1m1 0h3m3 0h1m1 0h1m3 0h1m3 0h1m2 0h1m3 0h2m1 0h2m3 0h1M4 26.5h1m4 0h5m3 0h1m4 0h1m4 0h2m1 0h1m2 0h2m1 0h1m2 0h2m1 0h2m2 0h2m1 0h1m2 0h1m2 0h1m1 0h2m1 0h1m1 0h3m2 0h2m1 0h1m1 0h1m4 0h1m1 0h4m1 0h1m3 0h1m1 0h1m4 0h2m1 0h1m3 0h1m1 0h1m2 0h1m1 0h2m1 0h3m2 0h5m1 0h1m4 0h1m6 0h4m3 0h2m1 0h2m1 0h1m4 0h3m1 0h1m2 0h2m4 0h2m6 0h1m2 0h2M4 27.5h2m2 0h2m2 0h3m1 0h1m3 0h1m3 0h1m1 0h1m2 0h1m6 0h2m3 0h1m4 0h1m2 0h1m1 0h3m3 0h2m1 0h5m1 0h1m7 0h1m1 0h1m1 0h2m3 0h1m2 0h1m2 0h1m2 0h1m1 0h1m1 0h3m3 0h1m1 0h2m2 0h2m4 0h1m11 0h1m1 0h4m4 0h2m1 0h2m2 0h1m4 0h1m2 0h1m2 0h3m3 0h2m1 0h1m1 0h5m2 0h1m1 0h7M5 28.5h2m2 0h2m5 0h2m2 0h2m1 0h1m1 0h1m1 0h1m1 0h2m3 0h3m1 0h4m1 0h2m3 0h7m4 0h1m2 0h2m1 0h1m1 0h1m2 0h2m6 0h3m1 0h2m2 0h1m3 0h6m2 0h4m1 0h1m2 0h1m5 0h3m13 0h6m3 0h1m2 0h3m3 0h6m4 0h2m3 0h1m3 0h2m3 0h6m3 0h1M4 29.5h3m1 0h1m4 0h1m1 0h1m4 0h1m1 0h1m4 0h1m2 0h1m6 0h1m1 0h1m4 0h1m2 0h2m1 0h2m3 0h3m1 0h3m2 0h3m2 0h2m1 0h2m1 0h6m2 0h3m1 0h3m1 0h4m2 0h1m1 0h1m3 0h1m2 0h2m3 0h2m3 0h4m2 0h1m1 0h1m1 0h2m6 0h3m4 0h1m1 0h2m3 0h3m1 0h2m1 0h3m1 0h1m2 0h3m1 0h3m3 0h2m1 0h1m1 0h2m1 0h1M4 30.5h1m5 0h2m2 0h1m3 0h1m2 0h2m1 0h2m3 0h1m1 0h2m2 0h2m1 0h1m2 0h3m1 0h1m3 0h2m1 0h1m2 0h1m1 0h2m2 0h2m4 0h2m1 0h4m3 0h1m1 0h4m1 0h1m2 0h2m4 0h1m1 0h4m1 0h1m1 0h1m1 0h2m4 0h2m1 0h2m3 0h1m1 0h2m1 0h3m2 0h1m1 0h1m2 0h2m2 0h3m3 0h4m10 0h2m1 0h1m1 0h1m2 0h2m2 0h1m3 0h3m3 0h1M6 31.5h2m3 0h1m2 0h2m1 0h1m2 0h1m1 0h9m1 0h1m1 0h1m2 0h1m5 0h5m1 0h1m1 0h2m2 0h1m2 0h1m1 0h1m3 0h1m1 0h1m2 0h1m1 0h1m1 0h2m1 0h1m1 0h2m3 0h1m1 0h2m6 0h1m2 0h1m1 0h1m2 0h1m2 0h1m1 0h1m1 0h1m1 0h1m2 0h1m8 0h1m1 0h2m6 0h1m2 0h1m1 0h1m2 0h1m1 0h2m7 0h1m1 0h2m2 0h1m1 0h1m3 0h1m1 0h3m4 0h3m1 0h5M4 32.5h2m1 0h7m2 0h2m4 0h2m2 0h2m1 0h2m1 0h6m1 0h2m1 0h1m1 0h1m2 0h6m1 0h2m1 0h1m1 0h6m1 0h1m1 0h2m4 0h1m2 0h2m4 0h2m1 0h1m1 0h5m1 0h2m1 0h1m1 0h3m1 0h1m2 0h2m1 0h1m2 0h1m2 0h7m6 0h1m1 0h3m6 0h4m1 0h7m4 0h2m1 0h1m3 0h4m2 0h1m2 0h6m3 0h1M6 33.5h3m3 0h1m2 0h3m1 0h2m1 0h1m2 0h3m3 0h2m3 0h2m2 0h3m1 0h1m1 0h1m1 0h1m7 0h1m3 0h1m3 0h1m1 0h3m2 0h4m1 0h2m3 0h2m1 0h2m1 0h2m3 0h3m1 0h2m2 0h2m1 0h1m2 0h1m1 0h1m7 0h1m3 0h1m1 0h1m1 0h1m1 0h1m6 0h2m1 0h4m4 0h1m3 0h3m1 0h1m1 0h1m1 0h2m1 0h1m1 0h4m2 0h2m1 0h1m1 0h1m3 0h5M5 34.5h4m1 0h1m1 0h4m3 0h1m2 0h1m2 0h1m3 0h1m2 0h1m1 0h1m1 0h4m3 0h1m1 0h3m4 0h2m3 0h2m1 0h1m1 0h1m1 0h1m2 0h4m1 0h1m6 0h2m1 0h3m2 0h2m1 0h1m1 0h1m2 0h1m1 0h3m2 0h1m1 0h2m4 0h1m1 0h1m1 0h3m1 0h1m1 0h2m1 0h2m5 0h1m2 0h1m1 0h2m1 0h1m3 0h3m1 0h1m1 0h1m2 0h1m1 0h1m1 0h1m1 0h1m2 0h1m5 0h2m1 0h4m1 0h1m1 0h1m1 0h1M4 35.5h3m1 0h1m3 0h1m5 0h2m1 0h3m1 0h1m1 0h1m2 0h3m3 0h1m1 0h2m1 0h1m4 0h2m1 0h1m1 0h2m3 0h5m3 0h1m1 0h1m4 0h1m1 0h2m1 0h3m2 0h1m4 0h1m1 0h1m3 0h1m2 0h2m1 0h1m3 0h1m1 0h3m1 0h2m6 0h1m3 0h1m1 0h1m2 0h3m1 0h2m1 0h8m1 0h1m2 0h1m3 0h1m2 0h1m1 0h3m3 0h3m2 0h1m1 0h4m2 0h1m3 0h1m1 0h3M4 36.5h1m2 0h7m2 0h2m1 0h2m1 0h4m1 0h2m3 0h5m1 0h1m1 0h1m1 0h1m7 0h1m2 0h3m3 0h6m1 0h1m2 0h1m1 0h1m2 0h5m4 0h1m1 0h2m1 0h5m1 0h1m2 0h1m2 0h2m1 0h1m1 0h2m2 0h1m1 0h3m2 0h6m1 0h1m3 0h4m1 0h1m3 0h2m1 0h2m1 0h1m1 0h7m1 0h3m2 0h3m2 0h3m3 0h3m1 0h5M4 37.5h1m2 0h1m1 0h1m1 0h1m2 0h3m1 0h2m3 0h2m3 0h2m6 0h1m1 0h1m1 0h1m3 0h2m1 0h5m3 0h1m1 0h1m1 0h3m3 0h1m1 0h9m4 0h2m1 0h2m2 0h1m2 0h1m1 0h4m3 0h1m3 0h1m2 0h3m3 0h1m2 0h1m3 0h1m1 0h2m1 0h3m2 0h3m1 0h6m4 0h3m1 0h7m2 0h2m3 0h2m1 0h1m2 0h5m3 0h1m1 0h1m1 0h2M6 38.5h6m2 0h1m1 0h3m1 0h1m2 0h1m3 0h1m5 0h1m1 0h1m2 0h2m1 0h3m2 0h1m5 0h1m3 0h2m1 0h4m1 0h2m1 0h2m1 0h4m3 0h1m1 0h4m1 0h2m2 0h1m1 0h3m4 0h2m1 0h1m1 0h1m2 0h1m3 0h1m1 0h1m1 0h2m3 0h4m2 0h1m1 0h3m4 0h2m1 0h1m1 0h2m2 0h1m2 0h1m1 0h1m2 0h2m5 0h2m1 0h2m3 0h2m2 0h2m4 0h2m1 0h2M4 39.5h2m2 0h1m2 0h1m2 0h1m2 0h4m1 0h4m2 0h1m2 0h1m1 0h2m3 0h1m4 0h1m1 0h2m1 0h2m1 0h1m3 0h4m1 0h8m1 0h1m3 0h2m1 0h4m5 0h4m7 0h2m1 0h1m4 0h3m1 0h4m1 0h6m1 0h4m1 0h1m1 0h1m2 0h2m1 0h1m1 0h1m1 0h1m3 0h2m1 0h3m4 0h1m1 0h2m1 0h2m3 0h1m1 0h1m2 0h1m1 0h1m3 0h1m1 0h1m3 0h1m1 0h1M4 40.5h1m1 0h2m2 0h3m1 0h1m1 0h1m1 0h3m1 0h1m2 0h3m1 0h1m4 0h1m2 0h6m1 0h4m2 0h1m3 0h1m1 0h1m3 0h1m8 0h1m1 0h2m3 0h1m1 0h1m9 0h2m2 0h1m1 0h2m3 0h4m2 0h2m3 0h1m1 0h1m1 0h1m1 0h1m1 0h1m2 0h1m5 0h4m1 0h2m6 0h5m1 0h2m2 0h1m4 0h2m1 0h2m2 0h3m4 0h2m2 0h1m1 0h3m1 0h2M4 41.5h1m7 0h3m2 0h1m7 0h1m3 0h1m4 0h1m4 0h7m1 0h1m2 0h1m5 0h2m1 0h1m1 0h1m7 0h2m1 0h1m4 0h1m3 0h2m1 0h1m2 0h1m2 0h1m1 0h1m1 0h1m4 0h3m2 0h1m1 0h2m7 0h1m2 0h1m1 0h5m1 0h2m1 0h1m1 0h1m2 0h5m2 0h1m1 0h1m1 0h1m1 0h2m1 0h5m1 0h2m3 0h1m2 0h1m1 0h1m1 0h1m2 0h3m6 0h1M4 42.5h1m1 0h1m1 0h3m2 0h1m1 0h1m2 0h4m2 0h2m3 0h4m3 0h6m1 0h1m7 0h2m6 0h1m1 0h2m1 0h2m1 0h2m1 0h3m2 0h2m2 0h2m1 0h1m1 0h1m3 0h2m1 0h2m2 0h8m1 0h1m3 0h3m1 0h5m2 0h6m1 0h2m3 0h1m2 0h2m1 0h2m1 0h1m6 0h1m1 0h1m5 0h1m2 0h3m2 0h1m3 0h1m1 0h1m3 0h1m4 0h1M5 43.5h3m3 0h2m3 0h4m4 0h1m7 0h2m7 0h1m3 0h3m1 0h1m1 0h2m3 0h1m1 0h1m1 0h1m2 0h4m7 0h6m5 0h1m1 0h1m7 0h3m1 0h1m2 0h3m3 0h3m2 0h1m4 0h1m1 0h1m2 0h1m3 0h3m3 0h1m1 0h3m1 0h4m3 0h1m1 0h2m1 0h1m2 0h4m8 0h2m4 0h3m1 0h1m1 0h1m1 0h1M6 44.5h1m2 0h6m3 0h1m1 0h1m6 0h2m1 0h1m1 0h2m1 0h1m1 0h1m2 0h2m2 0h1m4 0h2m3 0h1m1 0h2m1 0h3m1 0h1m1 0h3m4 0h3m2 0h1m1 0h1m2 0h1m3 0h1m1 0h1m2 0h1m2 0h1m2 0h5m3 0h3m2 0h1m1 0h3m6 0h1m5 0h6m4 0h1m3 0h3m1 0h1m4 0h4m1 0h1m2 0h1m1 0h1m1 0h2m1 0h1m3 0h2m1 0h2m5 0h1M6 45.5h2m5 0h1m1 0h1m3 0h2m1 0h1m1 0h3m3 0h3m1 0h5m1 0h2m2 0h1m3 0h4m1 0h4m4 0h1m6 0h1m1 0h1m3 0h2m1 0h1m4 0h4m2 0h7m1 0h1m4 0h1m3 0h2m1 0h1m2 0h3m1 0h3m2 0h3m1 0h1m1 0h1m4 0h1m2 0h3m4 0h10m1 0h1m1 0h1m1 0h1m1 0h1m2 0h1m1 0h2m3 0h1m2 0h1m5 0h2m1 0h1M4 46.5h5m1 0h1m2 0h1m2 0h4m2 0h1m3 0h2m7 0h1m1 0h2m1 0h2m1 0h1m1 0h2m3 0h1m1 0h1m2 0h1m1 0h1m1 0h1m1 0h2m1 0h2m1 0h4m1 0h2m5 0h2m1 0h1m1 0h1m2 0h1m1 0h1m2 0h1m2 0h5m2 0h3m2 0h2m8 0h2m1 0h1m2 0h2m5 0h2m2 0h2m3 0h1m4 0h2m5 0h1m1 0h1m1 0h1m1 0h5m3 0h3m1 0h1m2 0h2m1 0h1m1 0h3M6 47.5h2m3 0h2m2 0h1m2 0h2m1 0h1m2 0h1m1 0h2m1 0h2m2 0h1m2 0h3m1 0h2m4 0h1m1 0h2m1 0h1m1 0h1m1 0h4m1 0h2m3 0h3m6 0h1m1 0h1m1 0h2m6 0h5m5 0h1m4 0h1m1 0h2m3 0h1m6 0h1m1 0h6m1 0h1m1 0h3m1 0h1m1 0h3m1 0h2m1 0h2m1 0h1m1 0h4m1 0h1m1 0h1m2 0h1m1 0h2m5 0h1m2 0h1m4 0h1m2 0h1m1 0h5M4 48.5h5m1 0h1m1 0h1m1 0h1m1 0h6m1 0h2m1 0h4m2 0h1m1 0h2m2 0h1m1 0h1m1 0h2m1 0h1m1 0h2m1 0h1m4 0h1m3 0h1m2 0h4m1 0h1m1 0h1m1 0h1m1 0h1m2 0h3m7 0h1m1 0h1m2 0h1m2 0h2m4 0h2m4 0h1m5 0h3m1 0h2m7 0h1m1 0h4m1 0h1m2 0h1m4 0h1m1 0h1m1 0h1m3 0h1m1 0h1m1 0h1m4 0h8m2 0h5m3 0h1m3 0h1M4 49.5h1m1 0h2m7 0h1m2 0h2m5 0h1m1 0h5m1 0h1m3 0h1m1 0h2m1 0h3m3 0h3m2 0h2m1 0h2m1 0h1m7 0h4m1 0h3m2 0h1m1 0h2m1 0h2m1 0h1m4 0h1m1 0h1m1 0h4m1 0h3m1 0h1m2 0h2m1 0h1m1 0h2m2 0h2m1 0h1m1 0h3m1 0h1m1 0h2m3 0h1m1 0h2m1 0h4m3 0h1m1 0h1m1 0h8m1 0h1m1 0h1m2 0h2m1 0h1m2 0h2m1 0h2m1 0h2m2 0h3M4 50.5h4m1 0h2m1 0h4m2 0h1m1 0h1m2 0h1m1 0h1m2 0h1m1 0h1m1 0h2m2 0h4m1 0h3m1 0h2m2 0h1m2 0h2m4 0h1m1 0h1m1 0h3m3 0h1m1 0h4m2 0h1m2 0h6m2 0h4m1 0h1m2 0h1m1 0h4m1 0h1m1 0h2m1 0h1m1 0h2m3 0h2m6 0h5m4 0h1m2 0h1m2 0h3m5 0h1m1 0h2m2 0h1m1 0h1m3 0h4m1 0h2m2 0h1m2 0h1m3 0h1m1 0h1m1 0h1m1 0h1M4 51.5h1m6 0h4m1 0h1m3 0h6m1 0h1m2 0h5m4 0h1m4 0h1m1 0h2m1 0h1m1 0h3m1 0h1m1 0h2m1 0h1m2 0h1m2 0h1m2 0h1m3 0h4m1 0h1m4 0h1m1 0h1m1 0h1m1 0h1m1 0h1m16 0h1m8 0h2m1 0h2m1 0h2m1 0h6m1 0h3m2 0h1m1 0h1m1 0h1m1 0h6m1 0h1m2 0h1m2 0h1m2 0h1m5 0h1m5 0h1m1 0h1m2 0h3M6 52.5h2m1 0h2m2 0h2m2 0h1m2 0h1m2 0h1m2 0h1m5 0h1m5 0h1m2 0h3m3 0h1m1 0h2m2 0h1m1 0h2m3 0h1m4 0h5m1 0h2m1 0h1m1 0h1m2 0h1m1 0h1m1 0h1m1 0h1m2 0h2m4 0h2m3 0h2m1 0h1m2 0h3m4 0h2m5 0h1m5 0h1m2 0h1m1 0h3m4 0h1m1 0h2m1 0h2m2 0h2m2 0h1m4 0h1m2 0h2m2 0h1m2 0h1m1 0h2m1 0h3m2 0h2M8 53.5h2m2 0h6m2 0h1m3 0h1m1 0h2m1 0h1m1 0h1m1 0h1m2 0h1m1 0h2m1 0h1m1 0h3m2 0h2m3 0h1m1 0h3m1 0h1m1 0h1m6 0h3m1 0h1m2 0h1m2 0h1m1 0h1m1 0h3m2 0h1m2 0h2m2 0h2m4 0h1m5 0h1m4 0h3m1 0h1m1 0h2m1 0h1m3 0h4m6 0h5m4 0h3m1 0h6m3 0h2m1 0h1m1 0h5m1 0h3m1 0h2m1 0h2m1 0h1m2 0h1M6 54.5h2m2 0h1m1 0h1m1 0h1m3 0h2m2 0h1m3 0h2m2 0h2m5 0h1m4 0h2m3 0h1m3 0h4m4 0h1m1 0h5m1 0h2m1 0h3m3 0h1m3 0h3m1 0h2m1 0h1m2 0h3m2 0h2m1 0h2m2 0h1m1 0h1m2 0h5m1 0h2m1 0h1m1 0h11m1 0h6m3 0h1m1 0h1m3 0h1m2 0h1m2 0h1m1 0h3m2 0h3m1 0h2m1 0h2m8 0h1m2 0h2M4 55.5h1m1 0h1m1 0h2m2 0h1m1 0h1m9 0h2m2 0h4m1 0h3m2 0h1m1 0h2m1 0h2m1 0h1m6 0h1m1 0h4m1 0h3m1 0h2m1 0h1m1 0h1m3 0h6m7 0h3m1 0h1m2 0h1m1 0h4m3 0h3m3 0h1m1 0h1m2 0h2m2 0h2m1 0h1m7 0h1m1 0h1m1 0h1m2 0h3m1 0h2m3 0h1m1 0h1m4 0h7m1 0h2m2 0h7m2 0h9M5 56.5h1m2 0h1m1 0h1m1 0h2m4 0h1m1 0h1m3 0h2m1 0h1m1 0h2m2 0h2m2 0h1m1 0h3m5 0h2m1 0h2m1 0h3m7 0h1m2 0h1m1 0h1m1 0h2m2 0h5m1 0h7m1 0h2m3 0h2m4 0h4m2 0h1m3 0h1m1 0h2m4 0h1m3 0h1m3 0h1m1 0h2m1 0h1m1 0h1m6 0h2m1 0h2m1 0h3m1 0h3m3 0h1m1 0h3m2 0h1m1 0h1m4 0h8m1 0h1m1 0h1M4 57.5h2m1 0h1m1 0h1m6 0h2m2 0h4m4 0h2m2 0h3m1 0h1m4 0h4m3 0h2m3 0h1m2 0h1m4 0h1m3 0h3m3 0h1m2 0h2m1 0h4m2 0h1m1 0h1m1 0h2m1 0h1m1 0h1m1 0h1m1 0h2m1 0h2m3 0h4m7 0h1m2 0h2m1 0h2m1 0h4m5 0h2m1 0h3m4 0h1m3 0h2m1 0h4m1 0h1m5 0h6m1 0h6m4 0h1m1 0h1M5 58.5h1m1 0h2m1 0h1m1 0h1m2 0h2m2 0h1m1 0h1m3 0h1m1 0h1m1 0h4m1 0h2m4 0h1m2 0h1m1 0h1m5 0h5m1 0h1m1 0h2m1 0h4m1 0h1m2 0h4m3 0h1m4 0h1m1 0h2m3 0h2m1 0h1m4 0h9m2 0h1m1 0h5m2 0h1m2 0h8m1 0h2m3 0h2m5 0h2m2 0h1m1 0h1m3 0h1m3 0h1m1 0h1m2 0h2m1 0h1m1 0h1m6 0h2m3 0h3M5 59.5h1m1 0h2m2 0h2m1 0h2m1 0h1m2 0h1m1 0h3m1 0h1m2 0h1m2 0h3m1 0h1m1 0h2m4 0h1m1 0h4m2 0h1m5 0h1m2 0h4m9 0h3m1 0h1m4 0h1m1 0h5m3 0h2m1 0h3m2 0h5m2 0h1m1 0h1m2 0h3m2 0h4m1 0h1m3 0h5m1 0h1m2 0h1m1 0h5m2 0h2m1 0h2m1 0h1m1 0h4m2 0h1m3 0h2m1 0h2m3 0h1m4 0h1m1 0h1m1 0h1M4 60.5h1m1 0h8m1 0h1m1 0h1m1 0h1m5 0h2m1 0h10m2 0h4m1 0h1m4 0h3m1 0h1m2 0h1m1 0h8m2 0h1m1 0h2m1 0h1m1 0h3m2 0h1m1 0h2m1 0h1m1 0h8m2 0h5m3 0h2m1 0h1m1 0h4m1 0h6m3 0h1m4 0h4m5 0h2m1 0h7m4 0h1m2 0h3m2 0h2m1 0h2m2 0h1m1 0h7M6 61.5h1m1 0h1m3 0h7m2 0h3m2 0h1m3 0h1m1 0h1m3 0h9m1 0h4m1 0h10m3 0h1m1 0h1m1 0h1m1 0h1m1 0h4m4 0h1m4 0h4m3 0h6m1 0h1m3 0h1m1 0h2m9 0h1m3 0h5m6 0h1m1 0h2m1 0h3m2 0h1m1 0h2m3 0h1m2 0h3m3 0h2m3 0h1m1 0h5m1 0h1m1 0h1m3 0h5M7 62.5h2m1 0h1m1 0h1m1 0h1m2 0h1m1 0h2m1 0h1m3 0h4m1 0h2m1 0h1m1 0h2m3 0h1m7 0h4m2 0h1m3 0h2m1 0h1m1 0h1m2 0h4m1 0h2m1 0h1m1 0h1m1 0h4m1 0h2m1 0h2m1 0h1m1 0h2m2 0h1m1 0h2m2 0h1m2 0h1m1 0h3m1 0h1m1 0h4m1 0h1m1 0h1m1 0h2m5 0h1m1 0h1m1 0h1m1 0h3m1 0h1m1 0h1m1 0h2m1 0h1m1 0h1m1 0h2m3 0h1m3 0h3m1 0h1m1 0h2m2 0h4m1 0h1m1 0h1m1 0h2M4 63.5h2m1 0h2m3 0h1m2 0h1m1 0h2m5 0h5m1 0h3m3 0h1m1 0h1m1 0h1m2 0h1m2 0h2m1 0h1m1 0h2m5 0h3m3 0h1m1 0h2m1 0h1m3 0h2m1 0h1m8 0h2m1 0h1m3 0h1m3 0h4m2 0h3m1 0h1m1 0h1m1 0h2m1 0h4m3 0h2m7 0h4m2 0h2m1 0h1m1 0h1m3 0h1m3 0h1m5 0h3m3 0h1m2 0h1m2 0h1m5 0h1m3 0h5M5 64.5h8m4 0h1m2 0h3m6 0h11m1 0h4m5 0h2m1 0h3m3 0h7m2 0h2m1 0h2m2 0h5m4 0h2m1 0h6m1 0h1m4 0h3m5 0h1m1 0h1m1 0h4m1 0h5m2 0h1m3 0h2m1 0h3m7 0h1m1 0h1m1 0h9m3 0h4m2 0h1m1 0h1m4 0h2m1 0h6M5 65.5h1m7 0h2m1 0h1m6 0h2m1 0h2m2 0h1m4 0h2m1 0h3m1 0h4m2 0h1m2 0h1m1 0h1m8 0h2m1 0h1m3 0h2m1 0h1m1 0h1m5 0h1m1 0h1m8 0h1m2 0h2m3 0h2m2 0h6m4 0h1m3 0h1m3 0h1m1 0h2m1 0h1m6 0h2m1 0h1m1 0h2m1 0h1m2 0h1m1 0h1m2 0h1m1 0h2m6 0h1m3 0h2m1 0h5m1 0h1m1 0h7M9 66.5h2m1 0h3m1 0h2m1 0h3m3 0h1m2 0h2m1 0h4m3 0h1m2 0h1m7 0h1m2 0h2m3 0h3m1 0h1m1 0h1m1 0h1m2 0h3m2 0h1m3 0h1m2 0h1m1 0h4m2 0h6m1 0h5m1 0h2m4 0h1m1 0h1m1 0h1m2 0h2m7 0h2m1 0h1m1 0h1m1 0h4m1 0h2m2 0h3m3 0h1m2 0h2m3 0h3m4 0h1m4 0h1m7 0h3m1 0h3M5 67.5h1m1 0h1m1 0h1m1 0h1m6 0h1m2 0h2m2 0h2m1 0h5m2 0h2m1 0h1m4 0h3m1 0h2m2 0h1m1 0h1m2 0h5m1 0h1m1 0h3m4 0h1m1 0h7m6 0h5m2 0h2m1 0h3m11 0h2m2 0h1m2 0h2m1 0h2m2 0h2m1 0h1m3 0h4m2 0h1m3 0h2m1 0h2m1 0h2m2 0h4m2 0h1m1 0h2m2 0h4m2 0h1m1 0h1m1 0h1m1 0h1m1 0h2M4 68.5h1m1 0h1m1 0h3m1 0h1m2 0h1m1 0h1m1 0h2m1 0h4m4 0h1m1 0h3m2 0h1m1 0h1m2 0h1m3 0h1m3 0h1m2 0h2m1 0h1m1 0h3m1 0h1m1 0h2m3 0h1m1 0h1m1 0h3m1 0h3m1 0h1m2 0h1m4 0h1m9 0h2m1 0h1m2 0h3m1 0h1m1 0h3m1 0h1m2 0h1m1 0h1m2 0h1m1 0h1m1 0h4m1 0h2m1 0h1m4 0h3m3 0h1m3 0h1m1 0h1m2 0h2m1 0h1m1 0h4m1 0h1m1 0h6m1 0h1m5 0h1M4 69.5h1m2 0h2m3 0h1m2 0h2m1 0h1m3 0h4m1 0h2m1 0h1m1 0h2m2 0h3m1 0h1m3 0h2m2 0h2m6 0h2m8 0h7m6 0h2m2 0h1m1 0h2m5 0h1m1 0h1m5 0h1m2 0h1m2 0h1m9 0h2m3 0h7m3 0h1m1 0h2m1 0h4m6 0h1m3 0h4m2 0h1m1 0h2m1 0h1m1 0h7m2 0h1m1 0h2m1 0h2m1 0h1M5 70.5h1m1 0h5m2 0h1m1 0h1m2 0h1m3 0h1m2 0h1m2 0h7m1 0h4m4 0h2m2 0h2m1 0h2m1 0h1m7 0h2m2 0h7m3 0h1m1 0h2m1 0h1m1 0h2m2 0h1m1 0h1m4 0h1m1 0h3m2 0h1m1 0h1m3 0h4m2 0h1m1 0h1m1 0h2m1 0h1m1 0h1m1 0h3m1 0h5m1 0h1m2 0h1m2 0h1m1 0h1m1 0h1m2 0h1m2 0h1m5 0h2m1 0h1m4 0h1m3 0h2m7 0h1M4 71.5h2m3 0h1m2 0h1m4 0h3m1 0h3m5 0h2m1 0h1m3 0h1m2 0h1m3 0h1m1 0h3m3 0h2m2 0h1m1 0h2m2 0h4m1 0h2m6 0h1m1 0h2m1 0h1m5 0h4m2 0h4m1 0h1m1 0h1m3 0h3m3 0h2m3 0h1m9 0h1m1 0h7m2 0h1m4 0h1m1 0h4m2 0h2m2 0h2m1 0h3m3 0h1m2 0h1m2 0h3m6 0h5M6 72.5h1m1 0h1m1 0h1m1 0h1m2 0h1m1 0h3m2 0h1m3 0h1m1 0h1m1 0h1m1 0h1m1 0h1m1 0h3m1 0h1m1 0h3m3 0h1m2 0h3m1 0h2m5 0h4m1 0h1m1 0h3m2 0h1m1 0h2m3 0h1m1 0h1m1 0h2m3 0h2m1 0h2m2 0h2m1 0h2m1 0h1m1 0h3m4 0h1m5 0h4m1 0h1m1 0h1m2 0h1m1 0h1m2 0h1m1 0h1m1 0h1m1 0h4m2 0h1m1 0h4m1 0h1m4 0h2m3 0h1m6 0h2m1 0h1m1 0h3m3 0h1M4 73.5h2m5 0h1m3 0h1m1 0h5m1 0h1m1 0h2m1 0h3m2 0h1m1 0h3m1 0h1m1 0h5m1 0h4m2 0h1m1 0h2m1 0h2m2 0h2m3 0h4m2 0h1m4 0h2m3 0h1m1 0h1m5 0h1m2 0h1m6 0h1m3 0h3m1 0h1m1 0h1m3 0h1m1 0h1m3 0h2m1 0h1m1 0h2m3 0h1m1 0h4m1 0h2m3 0h2m6 0h4m2 0h2m2 0h1m1 0h3m1 0h2m2 0h7m2 0h1M4 74.5h1m1 0h2m2 0h1m1 0h1m1 0h2m1 0h1m1 0h1m1 0h2m5 0h3m1 0h2m2 0h2m2 0h2m8 0h4m7 0h1m3 0h1m1 0h1m2 0h1m1 0h1m4 0h1m2 0h3m1 0h1m2 0h4m5 0h4m1 0h1m3 0h1m2 0h5m1 0h3m5 0h2m1 0h1m1 0h1m2 0h1m2 0h2m1 0h7m2 0h1m2 0h4m1 0h1m1 0h1m1 0h2m1 0h1m1 0h2m1 0h2m4 0h5m1 0h3M7 75.5h1m1 0h1m2 0h1m4 0h3m1 0h1m3 0h1m1 0h2m1 0h3m1 0h1m1 0h6m3 0h2m2 0h1m2 0h2m1 0h1m1 0h4m1 0h5m2 0h1m3 0h2m1 0h1m1 0h2m1 0h1m3 0h3m1 0h1m1 0h3m2 0h1m1 0h1m3 0h4m1 0h2m1 0h1m2 0h1m1 0h1m1 0h5m1 0h1m4 0h1m1 0h3m4 0h1m1 0h1m1 0h2m1 0h1m2 0h2m3 0h5m4 0h1m4 0h1m1 0h1m2 0h1m3 0h1m2 0h1m1 0h1M4 76.5h5m1 0h3m1 0h2m2 0h3m5 0h5m4 0h3m1 0h1m1 0h4m2 0h2m1 0h2m2 0h1m1 0h3m1 0h3m1 0h1m2 0h1m2 0h2m1 0h2m3 0h1m4 0h1m3 0h3m1 0h1m1 0h1m3 0h1m1 0h2m5 0h1m2 0h1m2 0h3m3 0h1m1 0h2m1 0h1m1 0h1m1 0h2m1 0h4m6 0h1m1 0h2m2 0h1m1 0h1m1 0h2m3 0h2m1 0h1m1 0h1m1 0h3m5 0h3m1 0h1m2 0h1m1 0h2M9 77.5h1m5 0h2m1 0h4m2 0h3m2 0h2m4 0h2m5 0h2m2 0h3m1 0h2m1 0h2m1 0h1m1 0h2m4 0h2m2 0h1m3 0h2m1 0h1m3 0h1m2 0h1m10 0h2m2 0h1m1 0h3m1 0h5m1 0h1m1 0h3m2 0h1m2 0h1m1 0h2m1 0h1m1 0h1m6 0h4m1 0h2m1 0h1m1 0h1m6 0h3m1 0h1m1 0h1m2 0h1m1 0h3m1 0h1m2 0h1m5 0h3m2 0h2M4 78.5h1m1 0h3m1 0h1m2 0h3m1 0h2m4 0h2m3 0h2m1 0h2m1 0h1m1 0h2m1 0h1m1 0h2m2 0h2m5 0h1m2 0h1m1 0h2m1 0h2m6 0h1m1 0h1m1 0h1m2 0h1m1 0h1m2 0h1m1 0h4m2 0h3m2 0h1m1 0h1m1 0h3m1 0h1m1 0h1m3 0h2m1 0h5m1 0h1m1 0h1m1 0h1m1 0h1m2 0h3m1 0h1m2 0h2m1 0h1m7 0h3m2 0h2m1 0h1m1 0h2m3 0h1m1 0h1m1 0h1m2 0h3m1 0h3m1 0h2m3 0h2M4 79.5h1m1 0h1m2 0h1m1 0h6m1 0h1m1 0h4m1 0h2m2 0h2m2 0h3m2 0h1m1 0h2m1 0h1m1 0h3m1 0h1m1 0h3m1 0h4m2 0h6m4 0h1m1 0h4m1 0h1m4 0h1m1 0h2m4 0h3m2 0h2m3 0h1m1 0h3m2 0h1m1 0h1m6 0h1m1 0h3m2 0h2m1 0h4m1 0h7m2 0h2m4 0h1m3 0h1m2 0h4m1 0h1m1 0h1m1 0h1m1 0h2m2 0h1m1 0h1m1 0h1m2 0h5M6 80.5h2m1 0h2m2 0h2m3 0h5m1 0h1m1 0h1m3 0h1m1 0h3m1 0h5m1 0h1m1 0h1m2 0h1m2 0h2m1 0h3m1 0h1m2 0h2m5 0h1m1 0h1m3 0h2m1 0h1m1 0h5m1 0h1m1 0h4m4 0h2m4 0h2m4 0h1m2 0h1m1 0h5m1 0h5m3 0h1m1 0h1m2 0h1m1 0h1m2 0h1m4 0h4m1 0h2m1 0h1m1 0h4m4 0h1m3 0h1m1 0h1m2 0h1m1 0h6m1 0h2m2 0h1M5 81.5h5m1 0h1m1 0h1m2 0h2m2 0h1m1 0h1m2 0h1m3 0h2m1 0h1m1 0h1m1 0h4m1 0h8m1 0h1m1 0h8m3 0h1m1 0h1m1 0h2m1 0h4m1 0h1m4 0h1m1 0h2m2 0h1m6 0h2m1 0h1m2 0h2m2 0h1m1 0h3m4 0h2m2 0h2m1 0h1m2 0h3m4 0h1m1 0h1m1 0h2m1 0h1m1 0h2m8 0h2m1 0h2m4 0h2m2 0h2m1 0h3m1 0h1m5 0h3m3 0h1M4 82.5h1m3 0h6m1 0h2m1 0h2m4 0h1m4 0h2m3 0h3m1 0h1m4 0h1m1 0h2m4 0h3m1 0h1m1 0h5m1 0h1m3 0h7m3 0h1m1 0h2m1 0h1m1 0h1m3 0h5m2 0h1m1 0h2m1 0h3m1 0h2m2 0h1m2 0h1m1 0h2m1 0h1m1 0h1m6 0h3m3 0h2m1 0h5m2 0h4m2 0h3m1 0h1m1 0h1m1 0h1m4 0h2m3 0h2m3 0h1m2 0h1m1 0h1M4 83.5h3m5 0h1m2 0h1m1 0h2m7 0h3m2 0h4m1 0h2m2 0h2m1 0h1m2 0h1m4 0h3m2 0h1m1 0h1m2 0h4m1 0h1m2 0h1m1 0h1m1 0h2m1 0h1m1 0h2m1 0h1m3 0h4m3 0h1m3 0h2m1 0h6m1 0h3m1 0h1m2 0h1m1 0h1m1 0h7m1 0h1m2 0h4m4 0h1m1 0h1m5 0h1m3 0h1m2 0h1m2 0h1m2 0h1m1 0h1m4 0h1m1 0h1m4 0h1m1 0h1m3 0h2M4 84.5h1m1 0h1m1 0h4m2 0h1m3 0h4m1 0h3m1 0h1m1 0h1m1 0h1m1 0h1m1 0h2m2 0h4m6 0h3m2 0h2m1 0h1m1 0h4m2 0h3m1 0h3m2 0h3m1 0h2m2 0h1m1 0h1m2 0h1m3 0h1m5 0h1m1 0h2m1 0h1m2 0h1m3 0h1m1 0h2m5 0h3m2 0h3m2 0h1m1 0h1m1 0h2m3 0h1m1 0h2m1 0h1m2 0h2m3 0h4m1 0h6m1 0h1m1 0h1m4 0h4m1 0h5m1 0h1M7 85.5h2m2 0h1m1 0h4m2 0h4m1 0h1m2 0h6m2 0h4m2 0h5m2 0h1m1 0h1m2 0h1m3 0h1m5 0h1m4 0h6m1 0h2m4 0h3m5 0h1m1 0h2m1 0h4m2 0h2m2 0h4m3 0h2m2 0h1m6 0h4m1 0h1m5 0h2m1 0h1m1 0h2m1 0h1m1 0h1m3 0h2m2 0h2m1 0h4m5 0h4m1 0h1m1 0h3m1 0h1m1 0h1m1 0h1m1 0h1M5 86.5h1m1 0h1m2 0h3m1 0h1m5 0h2m1 0h3m3 0h1m1 0h3m2 0h1m2 0h1m7 0h1m1 0h1m1 0h2m4 0h2m1 0h2m2 0h1m3 0h1m1 0h4m6 0h1m1 0h1m1 0h2m2 0h1m1 0h1m1 0h1m2 0h5m2 0h2m5 0h3m2 0h1m4 0h1m4 0h1m1 0h1m1 0h1m1 0h4m4 0h2m3 0h1m2 0h4m10 0h1m1 0h2m2 0h2m1 0h1m3 0h1m1 0h1m2 0h1M5 87.5h5m1 0h3m1 0h1m1 0h1m6 0h3m3 0h1m1 0h3m2 0h3m1 0h1m2 0h3m1 0h1m2 0h3m3 0h2m2 0h7m6 0h1m1 0h1m1 0h2m5 0h5m2 0h2m2 0h1m2 0h1m3 0h3m2 0h1m1 0h1m2 0h2m3 0h1m1 0h1m6 0h1m3 0h1m1 0h1m1 0h1m3 0h2m3 0h2m2 0h2m1 0h1m2 0h3m6 0h1m1 0h2m2 0h1m7 0h4M6 88.5h8m4 0h1m4 0h2m5 0h7m1 0h1m5 0h1m3 0h8m1 0h1m1 0h6m4 0h1m1 0h9m2 0h2m4 0h8m3 0h2m2 0h1m5 0h2m1 0h1m1 0h8m3 0h1m2 0h1m1 0h1m1 0h2m6 0h1m1 0h9m2 0h1m2 0h2m2 0h1m1 0h1m1 0h1m3 0h1m1 0h1m1 0h6M5 89.5h4m3 0h5m1 0h2m5 0h1m3 0h4m3 0h2m3 0h1m2 0h1m2 0h2m1 0h11m3 0h1m1 0h1m2 0h2m1 0h1m8 0h3m2 0h3m3 0h1m1 0h4m2 0h1m2 0h1m2 0h1m1 0h2m1 0h3m1 0h2m3 0h3m1 0h1m1 0h2m1 0h1m1 0h1m2 0h3m1 0h2m4 0h1m3 0h1m2 0h2m3 0h4m1 0h2m1 0h2m1 0h4m1 0h1m3 0h1m2 0h2M4 90.5h5m1 0h1m1 0h8m2 0h2m8 0h1m1 0h1m1 0h2m2 0h1m2 0h1m1 0h3m1 0h2m1 0h1m1 0h1m2 0h1m2 0h1m1 0h1m1 0h1m2 0h4m1 0h2m5 0h2m1 0h4m2 0h1m1 0h1m1 0h2m1 0h2m1 0h2m2 0h3m4 0h2m1 0h1m1 0h3m1 0h1m1 0h1m1 0h3m1 0h1m1 0h2m2 0h1m4 0h1m4 0h3m1 0h1m1 0h1m1 0h2m5 0h1m2 0h1m2 0h1m1 0h1m1 0h1m2 0h1m1 0h1m1 0h1m1 0h4M5 91.5h4m3 0h1m3 0h1m2 0h3m2 0h1m3 0h2m1 0h2m3 0h1m3 0h1m4 0h2m2 0h1m1 0h2m5 0h1m1 0h1m3 0h1m1 0h2m3 0h1m1 0h2m1 0h1m1 0h1m7 0h3m3 0h5m2 0h1m1 0h4m2 0h2m5 0h1m1 0h1m3 0h1m2 0h3m1 0h2m1 0h2m3 0h1m1 0h1m2 0h1m3 0h1m3 0h2m2 0h1m1 0h2m1 0h1m1 0h1m1 0h1m1 0h1m1 0h2m2 0h1m2 0h1m3 0h5M7 92.5h6m1 0h1m1 0h1m1 0h1m2 0h1m1 0h1m3 0h1m1 0h1m1 0h7m1 0h1m1 0h2m1 0h1m2 0h2m1 0h1m1 0h1m1 0h3m2 0h6m1 0h1m3 0h1m1 0h1m1 0h1m1 0h2m1 0h2m2 0h1m1 0h2m1 0h8m4 0h2m1 0h1m1 0h3m2 0h1m1 0h2m1 0h7m3 0h1m1 0h2m1 0h3m7 0h1m1 0h1m1 0h5m1 0h1m1 0h1m2 0h1m2 0h2m2 0h3m2 0h1m2 0h1m1 0h7m1 0h1M6 93.5h4m1 0h1m1 0h1m3 0h3m1 0h2m6 0h1m2 0h1m2 0h1m1 0h2m2 0h1m1 0h1m1 0h6m3 0h1m2 0h1m1 0h1m2 0h5m2 0h1m1 0h1m1 0h1m3 0h1m2 0h1m1 0h3m4 0h1m1 0h1m2 0h3m2 0h2m2 0h1m1 0h4m3 0h1m4 0h4m1 0h3m1 0h1m2 0h1m1 0h1m1 0h2m1 0h3m6 0h3m1 0h5m1 0h3m5 0h2m3 0h2m1 0h1m2 0h1m1 0h1m1 0h1m1 0h1M4 94.5h1m1 0h3m1 0h1m1 0h1m3 0h4m1 0h3m1 0h1m1 0h1m1 0h1m1 0h3m3 0h3m2 0h1m1 0h1m1 0h1m4 0h4m6 0h1m1 0h1m3 0h4m1 0h1m2 0h1m3 0h2m1 0h1m1 0h2m2 0h1m4 0h1m1 0h8m5 0h9m4 0h2m1 0h1m4 0h2m2 0h1m1 0h2m1 0h3m2 0h2m9 0h1m4 0h2m1 0h2m2 0h2m3 0h2m1 0h2m1 0h3M4 95.5h1m1 0h1m1 0h1m2 0h2m6 0h1m3 0h2m4 0h4m1 0h4m1 0h3m1 0h2m1 0h1m2 0h1m1 0h3m1 0h1m2 0h1m1 0h1m3 0h4m1 0h1m1 0h1m2 0h1m1 0h1m1 0h2m5 0h2m1 0h1m1 0h2m1 0h2m1 0h1m1 0h1m3 0h3m1 0h3m1 0h2m2 0h2m1 0h1m2 0h2m1 0h1m2 0h1m2 0h3m5 0h1m2 0h3m1 0h2m2 0h2m1 0h1m1 0h4m6 0h2m1 0h4m3 0h1m4 0h2M6 96.5h1m1 0h3m1 0h1m1 0h1m1 0h1m5 0h1m2 0h5m2 0h4m1 0h3m1 0h1m2 0h1m3 0h5m1 0h4m1 0h1m2 0h4m4 0h1m1 0h4m2 0h1m2 0h1m1 0h1m2 0h4m1 0h4m2 0h1m2 0h2m1 0h1m1 0h1m3 0h5m1 0h2m4 0h1m1 0h1m1 0h1m1 0h4m1 0h2m3 0h1m1 0h2m1 0h2m3 0h2m1 0h1m3 0h1m1 0h1m3 0h1m1 0h2m6 0h1m2 0h1m1 0h1m1 0h1m1 0h2M6 97.5h1m2 0h1m1 0h1m1 0h2m3 0h2m1 0h2m1 0h3m4 0h4m1 0h1m2 0h1m1 0h4m3 0h1m4 0h1m1 0h6m1 0h1m1 0h1m1 0h1m3 0h1m9 0h1m1 0h1m2 0h2m2 0h1m1 0h1m2 0h2m10 0h1m5 0h1m4 0h2m1 0h3m1 0h3m4 0h1m2 0h1m1 0h1m1 0h1m5 0h1m1 0h1m5 0h1m2 0h1m2 0h1m3 0h3m3 0h5m1 0h1m4 0h2M4 98.5h1m4 0h3m2 0h2m1 0h4m3 0h2m1 0h1m1 0h1m1 0h1m2 0h3m4 0h2m3 0h1m5 0h1m1 0h2m2 0h2m1 0h1m2 0h1m2 0h2m1 0h1m1 0h2m1 0h1m1 0h1m1 0h4m1 0h1m3 0h1m3 0h1m3 0h1m2 0h2m1 0h3m3 0h3m1 0h5m5 0h1m1 0h1m4 0h1m2 0h1m1 0h3m1 0h4m2 0h1m3 0h1m1 0h1m3 0h2m4 0h1m1 0h2m2 0h1m2 0h1m1 0h1m2 0h1m1 0h1m1 0h2M4 99.5h1m2 0h1m4 0h1m1 0h3m2 0h2m2 0h1m1 0h1m2 0h1m2 0h1m2 0h2m2 0h4m4 0h1m2 0h1m1 0h2m2 0h2m1 0h2m4 0h1m1 0h2m3 0h1m1 0h2m1 0h3m7 0h5m1 0h2m1 0h4m3 0h3m3 0h1m1 0h2m1 0h4m1 0h1m1 0h2m1 0h1m1 0h1m1 0h1m1 0h1m1 0h1m1 0h1m3 0h1m1 0h1m1 0h2m4 0h3m4 0h1m2 0h1m1 0h3m4 0h2m1 0h1m3 0h2m3 0h1M5 100.5h3m2 0h2m1 0h6m1 0h2m4 0h2m4 0h1m3 0h3m3 0h1m1 0h1m3 0h3m3 0h3m6 0h3m3 0h1m2 0h3m1 0h4m1 0h1m2 0h1m1 0h2m4 0h1m2 0h1m2 0h1m1 0h2m3 0h2m2 0h1m2 0h1m1 0h1m8 0h1m3 0h4m1 0h1m2 0h1m3 0h4m1 0h1m2 0h2m1 0h2m3 0h2m1 0h2m2 0h4m2 0h1m1 0h1m6 0h1m1 0h2M4 101.5h2m1 0h2m3 0h2m1 0h1m2 0h3m3 0h1m4 0h2m5 0h1m1 0h1m2 0h1m1 0h2m1 0h1m1 0h1m1 0h1m3 0h1m1 0h2m6 0h2m4 0h3m1 0h1m5 0h1m1 0h1m2 0h2m1 0h2m3 0h2m8 0h1m1 0h3m4 0h1m4 0h2m1 0h5m1 0h2m3 0h1m1 0h2m1 0h1m1 0h1m4 0h1m3 0h1m1 0h1m2 0h5m1 0h1m2 0h2m1 0h2m3 0h3m1 0h3m1 0h1m2 0h1M9 102.5h2m1 0h1m2 0h2m1 0h1m1 0h1m1 0h2m2 0h1m2 0h2m1 0h6m3 0h1m1 0h1m1 0h2m2 0h2m1 0h2m1 0h1m2 0h2m3 0h1m3 0h4m1 0h1m2 0h1m1 0h1m1 0h2m1 0h2m3 0h1m1 0h1m1 0h1m3 0h6m1 0h1m1 0h2m1 0h2m1 0h2m2 0h2m5 0h6m3 0h1m1 0h1m3 0h1m1 0h3m1 0h4m7 0h1m1 0h1m4 0h1m1 0h2m1 0h3m2 0h7m1 0h1M5 103.5h2m2 0h1m1 0h2m2 0h1m1 0h4m3 0h3m1 0h1m1 0h1m1 0h2m2 0h1m3 0h1m5 0h1m1 0h1m3 0h2m3 0h2m1 0h2m2 0h4m1 0h2m3 0h1m1 0h4m1 0h1m1 0h1m1 0h6m1 0h2m2 0h1m1 0h2m1 0h1m2 0h2m1 0h2m1 0h2m1 0h1m2 0h2m1 0h2m2 0h1m3 0h2m6 0h1m1 0h1m1 0h1m2 0h1m1 0h1m1 0h4m4 0h1m2 0h1m1 0h1m3 0h1m2 0h1m2 0h1m3 0h2m3 0h2M5 104.5h2m1 0h1m1 0h1m1 0h1m1 0h2m3 0h1m2 0h1m3 0h2m1 0h6m1 0h2m1 0h5m3 0h1m2 0h1m3 0h2m5 0h2m1 0h2m2 0h1m1 0h1m3 0h5m4 0h1m1 0h4m2 0h2m1 0h1m2 0h1m2 0h2m3 0h2m2 0h1m2 0h1m6 0h2m2 0h1m4 0h1m1 0h4m1 0h1m4 0h4m1 0h1m1 0h2m1 0h2m3 0h2m1 0h1m1 0h3m1 0h1m2 0h2m1 0h1m4 0h2m2 0h2M14 105.5h1m3 0h2m2 0h3m2 0h1m1 0h1m1 0h7m2 0h1m1 0h4m2 0h1m5 0h1m2 0h1m2 0h3m5 0h2m1 0h1m1 0h1m1 0h1m6 0h4m5 0h1m2 0h1m1 0h2m1 0h1m1 0h1m1 0h1m2 0h4m1 0h3m3 0h4m1 0h6m6 0h1m1 0h1m1 0h1m2 0h3m1 0h2m1 0h2m1 0h7m4 0h4m2 0h2m2 0h4m1 0h1m2 0h1M4 106.5h3m3 0h3m2 0h3m2 0h1m3 0h1m1 0h3m1 0h2m1 0h1m1 0h1m2 0h1m1 0h2m1 0h1m1 0h1m3 0h5m5 0h1m3 0h1m3 0h4m1 0h1m4 0h1m1 0h2m1 0h4m5 0h2m2 0h2m1 0h1m1 0h3m1 0h1m3 0h1m1 0h1m4 0h2m4 0h3m1 0h1m3 0h2m1 0h1m1 0h1m4 0h3m1 0h1m1 0h2m6 0h2m2 0h2m1 0h1m1 0h2m1 0h2m8 0h2M6 107.5h2m3 0h1m2 0h4m4 0h3m3 0h4m1 0h2m8 0h2m1 0h4m1 0h3m1 0h5m1 0h1m4 0h1m4 0h1m1 0h4m8 0h6m1 0h2m4 0h2m1 0h6m7 0h1m2 0h1m2 0h2m2 0h2m1 0h1m2 0h1m1 0h1m3 0h2m2 0h3m1 0h1m1 0h3m2 0h1m2 0h2m3 0h3m1 0h2m1 0h1m2 0h1m2 0h2m1 0h1m1 0h4M4 108.5h2m1 0h5m2 0h4m2 0h4m2 0h2m1 0h1m2 0h1m7 0h1m1 0h1m6 0h3m1 0h1m1 0h1m4 0h3m1 0h1m2 0h1m6 0h6m1 0h2m3 0h3m2 0h2m1 0h2m1 0h1m2 0h1m2 0h1m1 0h3m3 0h6m1 0h1m4 0h1m3 0h7m2 0h2m2 0h1m1 0h1m1 0h2m1 0h2m1 0h2m5 0h4m1 0h3m2 0h4m1 0h1m4 0h1M4 109.5h1m2 0h3m2 0h2m2 0h1m2 0h4m2 0h1m2 0h1m1 0h3m2 0h1m3 0h2m1 0h3m1 0h6m1 0h1m1 0h3m1 0h1m1 0h1m1 0h3m2 0h4m1 0h1m1 0h1m1 0h2m1 0h1m1 0h4m2 0h1m1 0h2m2 0h1m4 0h3m3 0h2m2 0h1m2 0h1m3 0h3m1 0h1m1 0h3m1 0h2m1 0h1m1 0h1m1 0h7m3 0h1m2 0h5m1 0h4m1 0h2m2 0h2m1 0h1m1 0h2m6 0h4m2 0h1M4 110.5h3m2 0h2m2 0h1m1 0h3m1 0h4m1 0h2m4 0h1m1 0h3m2 0h1m2 0h2m1 0h1m5 0h2m1 0h1m1 0h1m3 0h1m3 0h1m2 0h1m1 0h2m1 0h1m1 0h1m4 0h1m1 0h5m4 0h1m4 0h1m1 0h1m1 0h3m1 0h3m3 0h1m1 0h2m1 0h4m2 0h2m1 0h2m1 0h3m3 0h1m3 0h1m1 0h2m2 0h1m2 0h5m5 0h3m1 0h1m2 0h1m1 0h2m1 0h3m3 0h1m2 0h6M5 111.5h1m5 0h1m3 0h3m1 0h1m1 0h1m1 0h3m1 0h1m2 0h1m1 0h1m1 0h1m1 0h1m1 0h1m1 0h1m2 0h2m1 0h1m2 0h1m1 0h2m3 0h4m1 0h1m4 0h2m1 0h1m3 0h2m1 0h3m4 0h1m4 0h1m1 0h3m3 0h1m2 0h1m2 0h1m1 0h2m1 0h2m6 0h1m1 0h2m2 0h1m1 0h3m1 0h1m1 0h1m1 0h1m1 0h1m5 0h1m1 0h1m2 0h1m1 0h1m1 0h2m2 0h3m1 0h2m1 0h3m1 0h1m2 0h2m1 0h1m2 0h2m1 0h1m1 0h2M4 112.5h1m2 0h1m2 0h1m1 0h3m1 0h4m4 0h4m1 0h2m3 0h3m3 0h1m1 0h1m2 0h1m1 0h4m1 0h1m1 0h4m3 0h2m1 0h2m1 0h1m2 0h3m1 0h1m4 0h1m1 0h2m3 0h3m1 0h3m5 0h3m1 0h2m2 0h1m4 0h2m1 0h1m3 0h3m2 0h1m1 0h1m1 0h1m2 0h4m1 0h1m1 0h1m1 0h2m1 0h2m1 0h1m2 0h2m1 0h1m1 0h1m2 0h1m1 0h3m1 0h1m1 0h2m1 0h2m1 0h1m1 0h1m2 0h1M5 113.5h2m1 0h2m1 0h1m1 0h1m2 0h1m3 0h2m1 0h3m1 0h2m1 0h1m1 0h1m1 0h2m1 0h2m1 0h3m1 0h1m1 0h3m1 0h1m1 0h1m1 0h1m2 0h1m1 0h6m1 0h4m2 0h2m1 0h2m1 0h1m1 0h1m1 0h1m1 0h1m4 0h2m3 0h2m1 0h1m1 0h2m5 0h2m1 0h1m2 0h1m3 0h1m1 0h9m4 0h1m1 0h2m1 0h4m1 0h1m1 0h2m1 0h1m1 0h5m1 0h1m1 0h1m2 0h1m4 0h1m2 0h2m5 0h1m5 0h1M4 114.5h1m1 0h3m1 0h2m3 0h4m2 0h3m2 0h5m1 0h3m1 0h1m1 0h1m3 0h2m6 0h3m1 0h1m3 0h4m1 0h3m2 0h5m7 0h1m1 0h1m2 0h1m1 0h2m2 0h1m3 0h6m1 0h2m1 0h1m1 0h5m1 0h4m5 0h2m1 0h3m1 0h5m2 0h1m1 0h4m1 0h2m1 0h1m2 0h1m7 0h1m2 0h4m3 0h1m3 0h6m1 0h1M5 115.5h2m1 0h1m2 0h1m2 0h1m1 0h2m1 0h4m1 0h1m2 0h4m1 0h1m3 0h2m1 0h5m2 0h2m4 0h1m2 0h1m2 0h2m3 0h1m2 0h1m2 0h1m1 0h1m1 0h2m1 0h4m1 0h1m1 0h1m2 0h1m1 0h3m1 0h2m2 0h1m1 0h7m3 0h1m1 0h1m2 0h3m1 0h1m6 0h2m3 0h4m3 0h1m3 0h2m2 0h3m1 0h2m1 0h2m1 0h2m4 0h1m2 0h4m2 0h1m3 0h2m2 0h3M7 116.5h6m2 0h3m2 0h1m2 0h1m1 0h2m1 0h2m2 0h5m1 0h2m4 0h1m2 0h2m1 0h2m2 0h1m1 0h2m2 0h5m5 0h6m2 0h1m2 0h1m1 0h1m1 0h8m2 0h1m3 0h2m1 0h1m2 0h1m1 0h1m1 0h4m1 0h8m1 0h1m3 0h4m1 0h2m5 0h4m1 0h5m4 0h1m4 0h2m2 0h2m1 0h2m1 0h9M4 117.5h3m1 0h1m3 0h1m4 0h1m1 0h1m7 0h1m1 0h1m2 0h1m3 0h1m1 0h2m1 0h4m3 0h2m1 0h1m1 0h1m1 0h2m1 0h3m3 0h1m1 0h1m1 0h1m2 0h2m3 0h2m2 0h1m1 0h3m2 0h2m3 0h1m1 0h4m2 0h1m2 0h1m2 0h1m1 0h2m1 0h3m1 0h2m3 0h5m1 0h2m1 0h1m1 0h1m1 0h4m1 0h1m2 0h1m1 0h2m3 0h3m1 0h2m2 0h1m4 0h4m1 0h3m1 0h1m1 0h1m3 0h5M4 118.5h1m1 0h1m1 0h1m1 0h1m1 0h1m5 0h1m1 0h1m1 0h1m3 0h1m2 0h4m1 0h1m1 0h2m1 0h1m1 0h1m3 0h1m6 0h2m1 0h1m4 0h1m1 0h1m1 0h2m2 0h1m1 0h1m1 0h2m5 0h2m1 0h3m3 0h1m1 0h1m1 0h1m3 0h4m2 0h1m4 0h5m1 0h1m2 0h1m1 0h1m1 0h3m1 0h1m3 0h2m9 0h1m4 0h1m1 0h1m1 0h1m5 0h1m5 0h2m1 0h1m3 0h1m3 0h2m1 0h1m1 0h3M5 119.5h4m3 0h2m1 0h1m1 0h2m1 0h4m1 0h4m1 0h1m1 0h1m3 0h1m2 0h2m3 0h1m1 0h2m1 0h1m3 0h1m1 0h1m1 0h4m3 0h1m1 0h2m5 0h7m1 0h1m1 0h1m1 0h2m1 0h1m3 0h1m3 0h3m4 0h2m3 0h2m3 0h1m1 0h2m3 0h1m6 0h2m1 0h1m1 0h1m2 0h1m4 0h1m1 0h3m3 0h2m2 0h4m1 0h1m1 0h2m4 0h2m4 0h2m3 0h3m1 0h1M5 120.5h1m1 0h9m2 0h1m1 0h5m1 0h2m1 0h2m1 0h5m2 0h1m2 0h1m1 0h2m6 0h2m1 0h2m2 0h11m2 0h1m1 0h1m2 0h2m1 0h2m1 0h1m1 0h2m1 0h8m2 0h3m1 0h2m1 0h1m4 0h1m1 0h1m1 0h7m6 0h1m1 0h4m2 0h1m1 0h1m1 0h1m2 0h8m1 0h1m1 0h1m2 0h3m3 0h1m5 0h1m1 0h7M4 121.5h1m1 0h1m2 0h1m1 0h1m1 0h1m1 0h4m1 0h1m1 0h6m1 0h2m2 0h2m1 0h2m1 0h3m1 0h3m1 0h1m3 0h1m1 0h2m2 0h1m2 0h3m1 0h1m1 0h1m1 0h4m1 0h2m4 0h1m1 0h2m3 0h1m1 0h1m1 0h1m1 0h1m1 0h2m1 0h1m1 0h3m1 0h1m1 0h2m2 0h1m1 0h2m6 0h2m1 0h1m1 0h1m1 0h1m6 0h2m1 0h3m4 0h1m1 0h1m1 0h1m1 0h1m1 0h3m2 0h4m2 0h3m3 0h1m1 0h1m1 0h2m1 0h1m2 0h2M4 122.5h1m1 0h1m2 0h4m3 0h2m1 0h1m1 0h1m1 0h2m1 0h1m2 0h1m4 0h5m1 0h2m1 0h1m2 0h2m1 0h1m2 0h1m9 0h4m1 0h2m1 0h1m1 0h1m2 0h1m1 0h1m1 0h7m1 0h1m3 0h1m3 0h2m1 0h1m3 0h2m4 0h7m1 0h1m1 0h1m1 0h3m1 0h3m3 0h1m2 0h1m2 0h2m1 0h1m1 0h1m3 0h4m4 0h2m2 0h2m1 0h1m4 0h2m2 0h1m3 0h2m1 0h2m1 0h1M4 123.5h1m3 0h2m1 0h1m2 0h1m1 0h2m2 0h4m3 0h1m4 0h1m2 0h1m2 0h2m3 0h1m2 0h1m1 0h2m1 0h1m1 0h1m3 0h1m2 0h1m3 0h1m1 0h1m2 0h1m1 0h1m1 0h2m1 0h1m1 0h2m6 0h1m1 0h2m1 0h1m1 0h2m1 0h2m5 0h3m2 0h1m1 0h2m3 0h2m2 0h1m4 0h1m3 0h2m1 0h5m1 0h1m1 0h3m1 0h7m1 0h2m1 0h1m1 0h2m2 0h1m2 0h4m1 0h2m1 0h2m1 0h1m3 0h1M4 124.5h1m3 0h3m1 0h1m1 0h2m1 0h2m4 0h1m1 0h1m1 0h6m1 0h1m3 0h1m2 0h5m1 0h4m1 0h3m3 0h1m2 0h1m1 0h3m2 0h2m2 0h1m1 0h1m1 0h2m1 0h1m1 0h1m1 0h1m1 0h1m1 0h2m1 0h3m4 0h1m2 0h1m1 0h2m2 0h2m1 0h2m1 0h2m5 0h1m1 0h1m1 0h1m1 0h1m3 0h2m1 0h2m1 0h1m3 0h6m2 0h2m1 0h2m3 0h1m1 0h3m2 0h1m7 0h1m2 0h1m3 0h1m1 0h2M4 125.5h5m2 0h3m1 0h1m2 0h1m2 0h2m1 0h1m3 0h1m1 0h3m1 0h2m4 0h6m2 0h1m1 0h1m6 0h2m1 0h1m1 0h3m1 0h3m2 0h2m2 0h1m1 0h2m1 0h2m2 0h5m2 0h2m1 0h2m1 0h1m5 0h1m2 0h1m1 0h1m2 0h2m2 0h2m4 0h2m1 0h1m1 0h1m2 0h1m1 0h1m1 0h2m1 0h1m1 0h1m6 0h1m3 0h1m3 0h1m1 0h1m1 0h2m3 0h1m1 0h1m1 0h1m1 0h1m1 0h1m1 0h2m3 0h2M6 126.5h5m2 0h1m3 0h1m2 0h1m2 0h3m1 0h4m2 0h1m1 0h2m4 0h1m1 0h1m2 0h1m2 0h4m1 0h1m3 0h2m2 0h1m5 0h3m1 0h2m1 0h2m2 0h1m1 0h5m10 0h4m2 0h2m1 0h1m1 0h1m2 0h1m1 0h1m1 0h1m1 0h1m1 0h2m3 0h2m1 0h2m1 0h1m1 0h1m3 0h1m2 0h2m2 0h9m3 0h2m4 0h4m3 0h1m6 0h1m1 0h4M6 127.5h1m4 0h4m4 0h2m1 0h3m2 0h4m2 0h1m2 0h1m4 0h1m1 0h1m1 0h2m8 0h1m1 0h4m2 0h2m1 0h1m2 0h1m3 0h4m1 0h1m6 0h2m1 0h2m1 0h1m2 0h1m1 0h3m1 0h3m1 0h1m1 0h1m1 0h5m2 0h3m1 0h1m1 0h1m1 0h1m4 0h1m2 0h2m1 0h1m5 0h2m1 0h2m1 0h1m7 0h1m1 0h1m2 0h2m3 0h1m1 0h1m1 0h2m2 0h1m3 0h1m1 0h1M6 128.5h3m1 0h2m3 0h6m1 0h1m1 0h1m1 0h2m1 0h2m1 0h4m1 0h2m1 0h2m1 0h1m4 0h1m1 0h1m1 0h1m1 0h1m1 0h1m2 0h3m3 0h2m2 0h1m1 0h1m2 0h1m1 0h2m1 0h2m1 0h2m2 0h2m1 0h2m1 0h2m4 0h3m2 0h1m1 0h3m3 0h2m1 0h1m2 0h1m5 0h1m1 0h1m1 0h4m1 0h2m5 0h2m1 0h5m1 0h6m1 0h1m1 0h7m3 0h2m1 0h1m1 0h3m2 0h1m1 0h2M6 129.5h1m1 0h2m1 0h1m4 0h1m1 0h1m3 0h2m4 0h2m2 0h3m1 0h1m1 0h1m2 0h4m1 0h5m2 0h2m3 0h8m1 0h1m1 0h3m1 0h1m1 0h1m2 0h1m1 0h4m1 0h2m1 0h5m1 0h1m1 0h2m3 0h1m4 0h1m2 0h1m1 0h2m2 0h1m1 0h6m1 0h3m2 0h3m1 0h2m1 0h1m1 0h2m7 0h2m2 0h2m1 0h1m1 0h2m4 0h5m3 0h3m2 0h6M5 130.5h1m1 0h2m1 0h1m1 0h1m1 0h2m1 0h1m1 0h2m4 0h1m2 0h3m2 0h2m1 0h3m1 0h1m4 0h2m2 0h1m1 0h2m8 0h3m4 0h1m1 0h1m1 0h1m2 0h1m1 0h1m1 0h4m1 0h1m12 0h3m2 0h2m1 0h1m1 0h2m1 0h1m2 0h2m1 0h3m1 0h1m2 0h1m2 0h2m7 0h1m1 0h2m3 0h2m1 0h2m1 0h2m10 0h1m2 0h1m2 0h2m4 0h1m1 0h1m2 0h2M4 131.5h1m7 0h2m4 0h1m3 0h1m3 0h1m2 0h1m1 0h2m1 0h1m2 0h1m5 0h1m2 0h2m4 0h2m1 0h2m1 0h2m1 0h1m1 0h1m1 0h3m1 0h1m3 0h4m1 0h1m6 0h2m1 0h2m1 0h3m2 0h1m1 0h1m2 0h1m1 0h2m3 0h1m2 0h1m1 0h2m1 0h1m4 0h1m3 0h1m2 0h4m1 0h1m1 0h2m1 0h1m2 0h2m3 0h1m5 0h4m1 0h1m1 0h3m3 0h2m2 0h1m1 0h1m2 0h3m1 0h1M5 132.5h1m3 0h2m3 0h5m1 0h5m2 0h3m4 0h1m4 0h4m1 0h2m4 0h1m3 0h3m2 0h3m4 0h2m1 0h3m1 0h3m1 0h1m3 0h1m1 0h1m3 0h4m1 0h2m1 0h1m2 0h1m1 0h2m1 0h1m1 0h1m1 0h1m1 0h1m2 0h1m2 0h1m2 0h2m1 0h1m5 0h2m1 0h3m4 0h1m1 0h5m4 0h3m1 0h1m2 0h1m2 0h3m1 0h2m3 0h5m1 0h1M4 133.5h4m3 0h1m1 0h1m2 0h1m2 0h1m4 0h1m1 0h4m1 0h4m1 0h1m2 0h1m1 0h5m2 0h1m1 0h2m1 0h5m2 0h3m1 0h1m2 0h1m2 0h1m3 0h2m1 0h1m2 0h4m1 0h1m3 0h4m1 0h2m1 0h1m3 0h1m3 0h2m1 0h2m9 0h4m1 0h1m1 0h1m7 0h4m5 0h1m7 0h4m1 0h1m1 0h4m2 0h2m1 0h2m1 0h1m1 0h2m1 0h1m1 0h1m1 0h2M5 134.5h1m3 0h5m6 0h1m1 0h2m2 0h1m1 0h1m2 0h2m4 0h4m5 0h2m3 0h3m5 0h1m2 0h4m1 0h4m1 0h1m2 0h2m3 0h1m1 0h3m6 0h1m4 0h1m1 0h2m2 0h3m3 0h3m1 0h3m3 0h1m1 0h3m2 0h1m1 0h1m1 0h1m6 0h1m2 0h1m1 0h1m5 0h2m1 0h2m2 0h2m2 0h6m2 0h2m1 0h2m1 0h3m1 0h1m1 0h1M4 135.5h4m1 0h1m1 0h1m2 0h4m1 0h2m1 0h2m2 0h2m1 0h1m1 0h1m1 0h1m1 0h4m2 0h1m2 0h1m1 0h1m1 0h1m3 0h2m2 0h1m1 0h1m2 0h1m1 0h2m1 0h1m4 0h1m1 0h4m1 0h2m1 0h1m3 0h2m1 0h1m2 0h6m1 0h5m1 0h2m1 0h2m1 0h1m2 0h4m10 0h1m1 0h4m4 0h4m11 0h4m4 0h2m4 0h1m1 0h2m1 0h1m2 0h6M4 136.5h1m5 0h1m2 0h1m1 0h1m2 0h1m1 0h1m5 0h2m1 0h2m2 0h2m4 0h1m1 0h1m3 0h1m3 0h1m1 0h1m1 0h2m1 0h1m2 0h3m3 0h2m1 0h1m1 0h1m3 0h3m5 0h2m2 0h6m1 0h2m2 0h1m1 0h2m2 0h1m1 0h3m2 0h1m1 0h2m3 0h2m2 0h1m3 0h1m2 0h1m1 0h1m1 0h2m3 0h1m2 0h3m1 0h1m3 0h4m1 0h6m1 0h1m1 0h4m1 0h4m4 0h1m1 0h1M5 137.5h2m2 0h1m4 0h4m2 0h2m6 0h1m1 0h1m1 0h3m2 0h1m1 0h1m3 0h2m1 0h3m1 0h5m4 0h2m1 0h1m1 0h2m4 0h5m3 0h1m2 0h2m1 0h2m1 0h1m2 0h3m1 0h1m2 0h1m2 0h2m4 0h1m4 0h2m2 0h1m1 0h2m1 0h3m1 0h2m5 0h1m1 0h2m1 0h2m9 0h6m1 0h1m1 0h2m3 0h4m2 0h2m2 0h2m2 0h2m1 0h1m1 0h1M4 138.5h1m1 0h9m1 0h2m1 0h1m1 0h1m3 0h1m3 0h3m1 0h3m2 0h1m1 0h2m1 0h1m1 0h3m3 0h2m2 0h1m1 0h1m1 0h1m3 0h2m2 0h2m1 0h1m1 0h2m5 0h2m1 0h1m1 0h1m4 0h1m5 0h5m3 0h1m1 0h1m1 0h1m1 0h2m2 0h2m1 0h1m1 0h1m1 0h3m1 0h4m1 0h3m3 0h3m2 0h1m2 0h1m3 0h1m2 0h2m1 0h1m6 0h1m4 0h2m4 0h1m2 0h1m2 0h1M6 139.5h1m1 0h2m8 0h3m5 0h4m4 0h2m2 0h2m3 0h1m2 0h1m2 0h1m7 0h2m2 0h4m1 0h1m2 0h1m3 0h2m1 0h1m1 0h1m6 0h5m1 0h1m1 0h1m2 0h1m4 0h1m1 0h3m2 0h4m1 0h1m1 0h3m3 0h1m8 0h3m4 0h2m1 0h1m1 0h1m1 0h4m1 0h1m1 0h1m1 0h2m2 0h1m6 0h3m1 0h2m5 0h2m1 0h3M4 140.5h3m1 0h3m2 0h2m1 0h1m1 0h4m3 0h2m1 0h1m1 0h1m1 0h1m2 0h1m2 0h1m1 0h2m1 0h2m2 0h2m1 0h1m1 0h4m3 0h3m3 0h1m1 0h2m2 0h1m1 0h5m1 0h1m1 0h1m1 0h1m4 0h5m6 0h2m5 0h1m2 0h6m4 0h1m5 0h1m1 0h2m1 0h1m1 0h2m6 0h1m1 0h3m3 0h1m1 0h1m1 0h2m2 0h1m1 0h2m2 0h1m6 0h3m1 0h1m5 0h1M5 141.5h1m2 0h2m4 0h1m1 0h2m2 0h1m3 0h1m1 0h1m3 0h2m1 0h2m4 0h1m5 0h2m3 0h1m2 0h5m2 0h3m1 0h1m3 0h1m1 0h2m3 0h3m1 0h2m1 0h4m1 0h3m1 0h2m1 0h1m2 0h1m1 0h1m1 0h1m1 0h2m1 0h2m1 0h1m1 0h1m3 0h1m2 0h2m2 0h1m1 0h4m1 0h1m1 0h1m1 0h4m1 0h2m3 0h1m1 0h1m3 0h5m1 0h2m6 0h2m1 0h1m1 0h1m3 0h1m2 0h1m2 0h3M4 142.5h3m2 0h2m2 0h2m2 0h1m1 0h3m1 0h3m4 0h1m6 0h1m1 0h1m7 0h8m2 0h2m3 0h3m2 0h2m1 0h1m1 0h2m1 0h1m4 0h1m1 0h1m1 0h1m4 0h3m3 0h1m2 0h1m2 0h2m2 0h1m2 0h3m2 0h2m3 0h1m1 0h5m1 0h2m2 0h1m1 0h2m3 0h1m3 0h1m1 0h2m1 0h1m2 0h1m1 0h1m1 0h3m3 0h2m1 0h2m1 0h3m4 0h5M4 143.5h1m1 0h2m1 0h1m1 0h1m2 0h1m4 0h1m1 0h3m2 0h2m4 0h1m1 0h1m3 0h1m1 0h1m4 0h2m1 0h2m1 0h1m6 0h4m1 0h4m4 0h1m1 0h2m1 0h1m1 0h2m1 0h1m1 0h1m1 0h4m3 0h3m1 0h1m4 0h6m1 0h1m5 0h1m1 0h1m4 0h1m6 0h6m2 0h2m1 0h4m2 0h3m1 0h1m1 0h1m1 0h2m1 0h2m2 0h1m2 0h2m1 0h1m6 0h1m1 0h5M4 144.5h1m1 0h9m3 0h2m4 0h3m3 0h8m1 0h3m1 0h1m3 0h2m1 0h5m1 0h1m2 0h7m1 0h1m2 0h1m3 0h5m1 0h1m1 0h1m5 0h7m5 0h1m2 0h1m2 0h1m3 0h1m1 0h2m2 0h5m2 0h1m3 0h2m1 0h1m1 0h2m5 0h2m1 0h1m1 0h5m1 0h2m1 0h7m2 0h1m1 0h2m4 0h1m1 0h6M5 145.5h1m1 0h2m3 0h2m1 0h2m4 0h3m1 0h1m1 0h2m1 0h3m3 0h1m2 0h2m1 0h3m1 0h1m1 0h2m1 0h2m3 0h1m3 0h1m3 0h2m1 0h7m1 0h1m1 0h1m5 0h3m1 0h2m3 0h1m1 0h1m2 0h1m3 0h1m2 0h3m1 0h2m3 0h1m1 0h2m3 0h1m3 0h1m1 0h2m5 0h4m1 0h2m3 0h2m3 0h1m1 0h4m1 0h2m1 0h1m2 0h1m1 0h3m2 0h1m2 0h2m3 0h3m1 0h1M4 146.5h5m1 0h1m1 0h1m1 0h2m1 0h2m1 0h3m3 0h2m1 0h4m1 0h1m1 0h1m3 0h1m4 0h3m3 0h3m1 0h1m1 0h2m1 0h1m1 0h1m1 0h1m2 0h2m1 0h1m1 0h2m3 0h1m1 0h2m1 0h1m2 0h1m1 0h2m1 0h1m1 0h1m3 0h4m2 0h4m1 0h4m3 0h1m1 0h1m1 0h1m1 0h1m1 0h4m3 0h2m6 0h5m1 0h2m1 0h1m1 0h1m2 0h1m3 0h1m1 0h1m1 0h2m1 0h2m2 0h2m3 0h2m1 0h1m1 0h1m1 0h2M5 147.5h2m1 0h1m3 0h1m1 0h1m2 0h1m2 0h1m1 0h1m1 0h2m1 0h1m4 0h1m3 0h3m3 0h2m2 0h3m3 0h1m2 0h1m2 0h3m3 0h1m1 0h2m5 0h2m1 0h1m1 0h2m1 0h1m1 0h1m2 0h3m3 0h1m3 0h3m2 0h4m3 0h4m1 0h4m3 0h1m1 0h1m1 0h2m2 0h3m1 0h3m1 0h2m1 0h1m4 0h1m3 0h1m2 0h1m1 0h3m1 0h1m5 0h1m2 0h1m5 0h1m3 0h4M6 148.5h7m1 0h3m4 0h1m2 0h2m4 0h1m1 0h9m1 0h1m1 0h1m2 0h1m3 0h1m2 0h1m2 0h1m2 0h8m2 0h1m3 0h3m1 0h3m2 0h1m2 0h1m1 0h5m2 0h1m2 0h3m1 0h2m1 0h1m1 0h1m4 0h1m1 0h7m4 0h1m1 0h4m1 0h1m2 0h1m3 0h2m1 0h11m2 0h1m2 0h2m2 0h1m2 0h1m2 0h1m1 0h7m3 0h1M4 149.5h4m1 0h1m3 0h2m2 0h1m1 0h1m3 0h5m1 0h4m1 0h2m1 0h1m2 0h2m2 0h3m1 0h1m1 0h1m3 0h5m1 0h1m5 0h1m5 0h2m1 0h1m1 0h1m3 0h5m1 0h2m1 0h2m1 0h2m1 0h2m2 0h2m1 0h1m1 0h2m2 0h1m1 0h3m1 0h1m2 0h1m3 0h3m1 0h2m3 0h1m1 0h2m1 0h4m7 0h2m1 0h1m1 0h2m7 0h4m1 0h1m1 0h3m2 0h1m3 0h4M6 150.5h3m1 0h1m2 0h3m1 0h2m4 0h1m2 0h1m3 0h1m3 0h1m1 0h1m3 0h1m1 0h2m3 0h1m1 0h1m1 0h5m1 0h2m4 0h3m2 0h1m1 0h1m1 0h1m4 0h1m1 0h7m2 0h2m2 0h1m1 0h3m1 0h1m3 0h2m1 0h1m2 0h1m1 0h1m1 0h1m1 0h1m2 0h1m2 0h3m1 0h1m2 0h2m4 0h1m1 0h3m1 0h1m1 0h1m1 0h1m1 0h1m2 0h1m6 0h1m1 0h1m2 0h1m1 0h1m3 0h1m2 0h3m4 0h3M5 151.5h2m1 0h2m1 0h1m1 0h4m4 0h3m1 0h1m1 0h1m2 0h3m1 0h1m1 0h1m1 0h1m1 0h1m1 0h1m3 0h1m8 0h1m2 0h4m1 0h3m1 0h1m1 0h1m3 0h2m1 0h2m1 0h1m5 0h3m1 0h1m3 0h1m1 0h3m3 0h2m1 0h2m2 0h1m1 0h3m2 0h2m1 0h3m1 0h6m1 0h1m2 0h1m1 0h1m7 0h1m1 0h3m4 0h1m1 0h3m1 0h1m1 0h3m4 0h4m1 0h10M4 152.5h1m1 0h2m2 0h6m1 0h3m2 0h1m11 0h2m6 0h1m5 0h8m4 0h1m2 0h1m1 0h1m5 0h1m1 0h1m3 0h2m2 0h1m1 0h2m3 0h1m5 0h1m3 0h1m1 0h1m2 0h1m2 0h1m2 0h4m1 0h3m2 0h1m1 0h1m1 0h1m1 0h1m2 0h4m7 0h2m1 0h1m7 0h4m1 0h6m1 0h1m1 0h1m2 0h1m2 0h1m1 0h1m3 0h2m2 0h1M6 153.5h4m1 0h4m2 0h4m1 0h1m1 0h3m4 0h3m8 0h5m1 0h2m3 0h1m2 0h3m2 0h1m1 0h1m4 0h4m4 0h1m4 0h3m1 0h1m1 0h2m1 0h3m1 0h3m4 0h1m3 0h3m3 0h2m2 0h3m4 0h6m3 0h1m2 0h6m1 0h1m2 0h1m3 0h1m2 0h3m2 0h1m1 0h1m2 0h5m1 0h4m3 0h2m2 0h2M6 154.5h3m1 0h3m1 0h1m2 0h1m1 0h5m1 0h1m1 0h1m2 0h1m1 0h1m1 0h1m1 0h1m4 0h1m1 0h1m5 0h2m1 0h2m3 0h2m1 0h1m3 0h1m3 0h1m1 0h1m1 0h1m2 0h1m4 0h1m1 0h1m1 0h2m3 0h5m4 0h1m1 0h1m1 0h1m2 0h2m1 0h1m1 0h1m1 0h1m1 0h1m3 0h1m3 0h3m4 0h1m4 0h1m2 0h3m1 0h1m1 0h1m4 0h1m6 0h1m4 0h1m1 0h2m2 0h2m3 0h2m4 0h3M6 155.5h1m1 0h1m4 0h3m6 0h1m1 0h1m5 0h2m3 0h8m3 0h2m3 0h1m1 0h1m3 0h3m2 0h5m4 0h1m2 0h1m1 0h4m3 0h1m1 0h2m8 0h2m1 0h2m3 0h3m1 0h3m1 0h1m3 0h1m2 0h4m1 0h1m1 0h4m1 0h5m1 0h1m3 0h1m2 0h2m6 0h1m1 0h3m1 0h1m1 0h3m1 0h1m2 0h1m2 0h1m1 0h1m2 0h2m2 0h2M5 156.5h3m2 0h2m3 0h1m1 0h1m1 0h2m1 0h3m1 0h2m1 0h2m1 0h1m1 0h1m5 0h5m3 0h5m1 0h2m1 0h1m1 0h1m1 0h1m1 0h1m4 0h2m2 0h1m1 0h1m1 0h2m7 0h2m1 0h2m4 0h1m2 0h1m1 0h3m1 0h1m2 0h1m3 0h4m1 0h3m5 0h3m2 0h1m1 0h4m2 0h1m2 0h2m1 0h1m3 0h1m3 0h1m1 0h4m2 0h3m1 0h3m2 0h4m1 0h2m2 0h2m1 0h2M7 157.5h2m2 0h2m1 0h1m1 0h2m1 0h2m1 0h3m3 0h2m1 0h2m1 0h3m3 0h2m1 0h6m1 0h2m1 0h5m2 0h1m4 0h2m1 0h1m1 0h2m3 0h3m1 0h2m1 0h7m1 0h3m1 0h1m1 0h1m2 0h2m4 0h4m2 0h2m4 0h1m1 0h1m1 0h4m1 0h1m2 0h1m1 0h1m2 0h5m5 0h6m2 0h1m1 0h3m4 0h7m2 0h2m3 0h1m3 0h1M5 158.5h3m2 0h6m2 0h2m1 0h11m1 0h1m1 0h7m3 0h3m3 0h3m3 0h3m4 0h1m3 0h3m1 0h1m8 0h2m2 0h1m3 0h1m1 0h2m4 0h2m1 0h6m5 0h4m1 0h1m1 0h2m1 0h3m3 0h1m1 0h1m2 0h1m1 0h1m1 0h1m4 0h1m1 0h1m3 0h1m2 0h2m1 0h1m1 0h1m4 0h1m1 0h2m2 0h2m3 0h2m4 0h3M4 159.5h4m1 0h1m1 0h2m1 0h1m1 0h2m1 0h1m3 0h3m2 0h1m1 0h1m1 0h1m1 0h3m1 0h2m2 0h2m2 0h1m5 0h1m3 0h1m1 0h3m1 0h1m1 0h1m1 0h2m5 0h1m2 0h3m3 0h2m1 0h2m2 0h2m2 0h2m1 0h2m3 0h2m1 0h3m1 0h2m5 0h1m2 0h1m1 0h1m3 0h3m1 0h1m1 0h1m1 0h1m1 0h2m1 0h1m3 0h7m4 0h3m1 0h2m1 0h3m1 0h1m2 0h2m1 0h1m1 0h2m1 0h2m2 0h1M8 160.5h3m4 0h3m1 0h1m1 0h3m2 0h3m1 0h2m1 0h2m3 0h1m1 0h1m1 0h1m1 0h2m1 0h1m1 0h1m1 0h5m1 0h1m1 0h1m1 0h1m3 0h3m2 0h1m1 0h1m1 0h6m1 0h2m3 0h1m4 0h1m2 0h1m3 0h3m5 0h1m5 0h1m1 0h3m4 0h1m1 0h1m3 0h4m1 0h1m2 0h1m3 0h2m1 0h1m1 0h2m1 0h2m1 0h4m1 0h4m1 0h1m2 0h2m2 0h4m1 0h1m3 0h1m2 0h2M4 161.5h1m4 0h1m3 0h1m2 0h1m3 0h1m1 0h1m1 0h1m2 0h1m4 0h3m2 0h1m1 0h1m3 0h3m1 0h3m5 0h1m4 0h1m2 0h2m1 0h2m2 0h1m2 0h2m3 0h1m4 0h1m2 0h3m1 0h1m1 0h3m2 0h1m2 0h2m2 0h1m1 0h3m6 0h1m1 0h1m2 0h3m1 0h3m2 0h1m1 0h1m1 0h4m1 0h2m4 0h2m1 0h3m1 0h2m1 0h3m1 0h1m3 0h3m2 0h2m2 0h5m2 0h3M4 162.5h1m1 0h2m1 0h3m2 0h1m2 0h2m1 0h2m1 0h3m1 0h1m1 0h5m2 0h1m2 0h3m4 0h1m2 0h6m3 0h1m4 0h2m3 0h3m2 0h1m5 0h4m1 0h2m5 0h2m1 0h2m1 0h3m2 0h2m7 0h1m2 0h1m1 0h1m1 0h4m1 0h4m1 0h2m1 0h1m2 0h1m1 0h1m1 0h1m2 0h1m1 0h1m4 0h2m1 0h1m1 0h3m1 0h1m2 0h2m1 0h1m2 0h1m5 0h2m1 0h1m3 0h1M4 163.5h1m6 0h1m1 0h1m1 0h2m1 0h1m2 0h1m1 0h1m1 0h2m1 0h4m1 0h1m1 0h6m1 0h5m2 0h1m5 0h1m1 0h2m3 0h1m1 0h1m1 0h1m4 0h1m1 0h2m1 0h1m1 0h2m6 0h1m6 0h4m4 0h7m2 0h2m1 0h3m2 0h1m3 0h1m4 0h2m1 0h1m2 0h3m3 0h2m1 0h6m6 0h1m1 0h1m2 0h3m1 0h1m2 0h2m1 0h1m1 0h1m2 0h1m1 0h3m1 0h1M6 164.5h1m3 0h1m2 0h2m2 0h1m2 0h1m3 0h4m1 0h1m2 0h1m2 0h1m2 0h2m1 0h2m1 0h1m2 0h2m1 0h3m1 0h9m1 0h2m1 0h1m1 0h1m4 0h1m1 0h1m3 0h1m2 0h5m1 0h1m1 0h3m6 0h2m3 0h3m1 0h2m1 0h1m1 0h4m1 0h1m1 0h1m3 0h1m1 0h4m1 0h1m6 0h4m1 0h3m2 0h5m1 0h7m7 0h2m1 0h1m2 0h2m2 0h2M7 165.5h1m6 0h3m3 0h1m1 0h1m1 0h1m1 0h1m1 0h2m1 0h3m9 0h2m1 0h1m9 0h2m2 0h1m7 0h2m1 0h4m2 0h3m1 0h2m1 0h1m2 0h3m2 0h1m1 0h2m1 0h1m2 0h2m1 0h2m1 0h2m1 0h1m1 0h2m3 0h1m1 0h1m1 0h5m6 0h1m2 0h1m1 0h1m1 0h1m8 0h8m1 0h1m1 0h2m2 0h1m1 0h3m1 0h1m1 0h1m1 0h2m1 0h1m2 0h1m1 0h1M6 166.5h2m2 0h1m2 0h1m6 0h4m3 0h1m1 0h2m1 0h1m1 0h1m2 0h2m2 0h3m1 0h3m1 0h1m2 0h4m2 0h2m2 0h3m2 0h6m7 0h6m4 0h4m2 0h4m4 0h1m2 0h1m1 0h3m2 0h1m2 0h4m4 0h2m2 0h1m3 0h7m1 0h3m1 0h1m1 0h2m2 0h1m2 0h1m5 0h4m2 0h1m2 0h1m1 0h2m4 0h1M5 167.5h1m3 0h1m3 0h2m1 0h3m3 0h1m1 0h1m3 0h2m2 0h3m5 0h2m1 0h2m1 0h1m4 0h3m1 0h1m2 0h2m6 0h1m7 0h3m1 0h2m1 0h1m4 0h1m3 0h2m1 0h1m1 0h2m5 0h4m2 0h2m1 0h1m1 0h4m1 0h3m3 0h2m1 0h1m2 0h4m1 0h3m2 0h4m1 0h2m2 0h1m2 0h4m4 0h2m1 0h2m1 0h1m4 0h4m1 0h3M5 168.5h4m1 0h1m2 0h2m8 0h2m1 0h2m4 0h1m1 0h1m1 0h1m1 0h1m2 0h1m3 0h6m3 0h2m3 0h3m3 0h1m1 0h3m1 0h1m1 0h2m2 0h1m1 0h3m4 0h2m1 0h1m2 0h4m1 0h1m2 0h1m5 0h1m3 0h1m1 0h1m2 0h1m5 0h1m6 0h3m1 0h2m1 0h3m2 0h3m3 0h1m3 0h2m1 0h1m1 0h2m2 0h1m1 0h3m3 0h1m2 0h1m1 0h3m1 0h2m1 0h1M4 169.5h1m1 0h2m1 0h1m1 0h1m1 0h1m2 0h1m1 0h2m5 0h1m1 0h8m1 0h2m2 0h7m1 0h1m1 0h1m2 0h2m1 0h2m2 0h1m2 0h1m2 0h2m1 0h1m2 0h1m1 0h2m1 0h1m2 0h1m2 0h3m4 0h2m1 0h4m2 0h1m1 0h1m1 0h1m2 0h2m1 0h1m1 0h2m2 0h6m1 0h3m1 0h2m3 0h1m1 0h4m1 0h2m3 0h1m1 0h4m1 0h4m1 0h1m1 0h1m3 0h2m1 0h2m1 0h2m2 0h1m1 0h2m2 0h2m1 0h1M4 170.5h3m2 0h8m2 0h2m3 0h2m2 0h3m1 0h1m1 0h1m1 0h1m2 0h1m1 0h3m1 0h2m4 0h2m1 0h2m2 0h1m3 0h1m1 0h2m1 0h4m1 0h1m6 0h2m1 0h1m1 0h2m2 0h1m3 0h2m3 0h2m1 0h1m1 0h1m1 0h1m2 0h1m2 0h2m2 0h1m1 0h3m1 0h1m1 0h1m3 0h1m4 0h1m2 0h3m1 0h2m1 0h2m1 0h1m3 0h1m2 0h1m3 0h1m2 0h1m1 0h1m5 0h1m4 0h3m3 0h2M7 171.5h1m3 0h3m1 0h2m1 0h2m1 0h1m1 0h1m4 0h1m1 0h4m1 0h1m1 0h1m1 0h2m1 0h3m1 0h1m2 0h1m3 0h3m1 0h6m1 0h1m1 0h2m3 0h1m1 0h2m1 0h1m1 0h1m4 0h1m1 0h2m2 0h1m1 0h1m1 0h1m3 0h1m3 0h5m2 0h1m1 0h2m1 0h4m1 0h1m1 0h2m1 0h5m1 0h2m1 0h4m1 0h1m2 0h4m1 0h4m2 0h1m1 0h3m5 0h1m1 0h1m2 0h2m3 0h2m1 0h1m3 0h1M5 172.5h1m1 0h1m1 0h2m1 0h1m4 0h1m1 0h2m1 0h5m1 0h1m1 0h9m1 0h1m4 0h1m1 0h1m1 0h3m4 0h1m3 0h6m3 0h1m4 0h1m1 0h2m1 0h1m3 0h1m1 0h8m1 0h2m1 0h5m3 0h3m1 0h1m1 0h2m3 0h6m3 0h1m1 0h2m1 0h1m1 0h1m4 0h1m2 0h1m1 0h1m1 0h15m3 0h4m1 0h2m1 0h1m1 0h5m3 0h1M12 173.5h1m1 0h6m5 0h1m1 0h1m1 0h1m2 0h1m3 0h1m3 0h1m1 0h5m1 0h2m3 0h4m2 0h2m3 0h1m4 0h4m2 0h3m1 0h3m1 0h2m3 0h1m3 0h1m1 0h2m4 0h1m2 0h4m4 0h3m1 0h2m3 0h1m1 0h1m1 0h1m1 0h2m5 0h2m1 0h1m1 0h2m1 0h1m1 0h2m3 0h1m1 0h1m1 0h3m4 0h1m1 0h4m2 0h3m1 0h2m3 0h2m2 0h1M4 174.5h7m1 0h2m1 0h1m1 0h1m1 0h2m1 0h1m5 0h3m1 0h1m1 0h1m1 0h2m4 0h1m3 0h1m2 0h5m1 0h1m1 0h1m2 0h1m1 0h1m1 0h2m1 0h4m1 0h1m7 0h3m1 0h1m2 0h2m1 0h1m1 0h2m1 0h5m2 0h1m1 0h5m1 0h3m1 0h1m1 0h1m1 0h1m1 0h1m3 0h1m1 0h2m1 0h1m1 0h1m2 0h3m1 0h4m2 0h1m1 0h1m1 0h2m1 0h1m1 0h3m3 0h5m1 0h2m2 0h2m1 0h1m1 0h1m1 0h1m1 0h1M4 175.5h1m5 0h1m2 0h2m2 0h1m5 0h1m1 0h3m1 0h1m1 0h2m3 0h1m3 0h2m1 0h4m2 0h1m1 0h3m4 0h1m1 0h1m3 0h1m1 0h2m8 0h1m1 0h1m4 0h1m1 0h2m1 0h1m3 0h1m1 0h3m1 0h2m1 0h2m1 0h2m1 0h3m3 0h1m1 0h2m3 0h2m1 0h1m3 0h2m1 0h2m1 0h1m1 0h1m3 0h4m1 0h1m3 0h1m2 0h1m1 0h2m5 0h2m4 0h2m3 0h2m3 0h4M4 176.5h1m1 0h3m1 0h1m1 0h1m1 0h1m3 0h1m1 0h2m3 0h1m1 0h2m2 0h8m2 0h1m6 0h3m3 0h2m1 0h1m2 0h7m4 0h1m2 0h1m2 0h1m1 0h1m8 0h5m2 0h1m1 0h1m2 0h2m3 0h1m3 0h5m2 0h6m1 0h1m3 0h2m1 0h1m1 0h1m2 0h3m1 0h4m1 0h5m1 0h1m3 0h2m5 0h2m6 0h1m2 0h6m1 0h1M4 177.5h1m1 0h3m1 0h1m1 0h1m1 0h1m1 0h1m1 0h1m1 0h3m4 0h2m5 0h2m1 0h1m1 0h2m2 0h4m1 0h2m1 0h1m4 0h1m1 0h1m4 0h2m2 0h4m2 0h3m1 0h2m1 0h1m2 0h4m1 0h2m1 0h1m2 0h1m4 0h2m3 0h4m1 0h1m2 0h2m1 0h1m1 0h1m1 0h1m1 0h2m1 0h1m1 0h1m2 0h1m5 0h2m1 0h1m3 0h1m1 0h2m3 0h2m1 0h4m1 0h1m1 0h3m1 0h3m4 0h1m2 0h1m1 0h4M4 178.5h1m1 0h3m1 0h1m1 0h2m2 0h1m1 0h2m1 0h1m1 0h1m1 0h4m1 0h2m4 0h1m2 0h2m1 0h2m1 0h3m1 0h2m1 0h2m1 0h1m3 0h3m5 0h2m1 0h1m1 0h2m3 0h1m2 0h3m2 0h1m1 0h2m1 0h3m2 0h6m1 0h2m6 0h1m1 0h1m1 0h1m1 0h1m1 0h2m1 0h1m1 0h1m1 0h1m2 0h3m1 0h1m2 0h2m1 0h1m2 0h1m5 0h2m1 0h2m3 0h1m1 0h5m1 0h1m2 0h2m1 0h1m2 0h2m1 0h1m2 0h1M4 179.5h1m5 0h1m1 0h2m1 0h1m2 0h2m4 0h1m1 0h2m1 0h1m1 0h1m2 0h2m3 0h1m6 0h2m1 0h1m1 0h2m4 0h2m2 0h2m1 0h4m6 0h1m1 0h1m1 0h2m1 0h3m1 0h2m2 0h1m2 0h5m1 0h1m3 0h3m1 0h5m8 0h1m1 0h1m6 0h1m3 0h1m2 0h4m1 0h1m1 0h1m2 0h1m2 0h2m4 0h1m2 0h1m2 0h2m4 0h2m1 0h1m1 0h2m5 0h1M4 180.5h7m1 0h1m1 0h1m1 0h1m1 0h1m1 0h2m1 0h1m1 0h1m1 0h1m3 0h1m2 0h1m7 0h4m2 0h1m1 0h5m1 0h1m2 0h1m2 0h3m1 0h2m2 0h2m1 0h5m3 0h1m2 0h1m1 0h1m1 0h1m1 0h2m1 0h3m1 0h7m6 0h3m2 0h4m1 0h2m5 0h2m1 0h1m1 0h1m2 0h1m3 0h6m1 0h1m1 0h4m1 0h1m1 0h5m1 0h5m1 0h1m2 0h2m1 0h2m2 0h1m1 0h1"/></svg>
