<?xml version="1.0" encoding="utf-8"?><!DOCTYPE svg PUBLIC "-//W3C//DTD SVG 1.1//EN" "http://www.w3.org/Graphics/SVG/1.1/DTD/svg11.dtd"><svg xmlns="http://www.w3.org/2000/svg" viewBox="0 0 185 185" shape-rendering="crispEdges"><path fill="#ffffff" d="M0 0h185v185H0z"/><path stroke="#000000" d="M4 4.5h7m2 0h4m1 0h1m3 0h1m1 0h1m1 0h2m4 0h2m1 0h1m1 0h5m2 0h1m3 0h1m1 0h2m1 0h1m2 0h2m2 0h3m1 0h3m1 0h1m1 0h1m6 0h1m2 0h3m2 0h1m1 0h1m2 0h2m2 0h2m1 0h1m2 0h1m4 0h3m1 0h1m2 0h1m2 0h1m1 0h2m2 0h4m1 0h2m2 0h3m1 0h1m1 0h3m4 0h1m7 0h4m1 0h3m2 0h1m1 0h4m1 0h1m1 0h1m3 0h7M4 5.5h1m5 0h1m1 0h1m2 0h4m4 0h1m1 0h3m2 0h2m2 0h2m1 0h1m1 0h3m1 0h1m1 0h3m1 0h1m2 0h2m1 0h1m6 0h1m1 0h2m1 0h2m1 0h1m2 0h1m1 0h1m1 0h1m1 0h2m1 0h1m1 0h1m2 0h2m3 0h1m2 0h1m1 0h4m1 0h4m3 0h3m2 0h5m1 0h1m5 0h1m2 0h1m2 0h1m2 0h2m3 0h2m1 0h1m1 0h3m1 0h1m1 0h1m3 0h1m4 0h1m2 0h1m2 0h2m2 0h1m1 0h1m1 0h1m5 0h1M4 6.5h1m1 0h3m1 0h1m3 0h1m1 0h1m1 0h1m2 0h1m1 0h5m2 0h1m1 0h2m1 0h1m2 0h1m2 0h1m2 0h3m2 0h1m1 0h3m1 0h1m2 0h1m1 0h2m2 0h1m1 0h2m1 0h1m1 0h1m1 0h2m1 0h1m1 0h2m1 0h1m1 0h1m1 0h2m1 0h1m2 0h4m1 0h3m3 0h1m1 0h5m1 0h1m2 0h5m1 0h1m4 0h1m2 0h1m1 0h1m1 0h2m4 0h1m1 0h1m2 0h2m1 0h2m4 0h1m2 0h2m4 0h2m2 0h3m3 0h1m3 0h1m1 0h3m1 0h1M4 7.5h1m1 0h3m1 0h1m1 0h2m1 0h1m1 0h2m1 0h2m1 0h1m1 0h1m4 0h1m1 0h4m6 0h3m3 0h1m1 0h1m3 0h1m1 0h1m2 0h2m2 0h1m2 0h5m2 0h6m3 0h2m1 0h1m1 0h2m1 0h1m1 0h3m2 0h1m2 0h2m1 0h1m5 0h2m1 0h2m1 0h1m1 0h1m5 0h3m2 0h3m1 0h2m5 0h8m1 0h1m1 0h3m2 0h6m1 0h1m1 0h2m1 0h1m3 0h2m1 0h1m1 0h3m1 0h1M4 8.5h1m1 0h3m1 0h1m2 0h1m1 0h4m1 0h1m1 0h5m3 0h7m1 0h1m2 0h7m7 0h2m2 0h6m2 0h6m3 0h1m1 0h1m1 0h1m3 0h3m1 0h5m1 0h1m4 0h3m2 0h1m1 0h1m1 0h2m1 0h3m1 0h8m1 0h1m1 0h2m3 0h1m1 0h2m1 0h2m1 0h1m1 0h1m1 0h7m1 0h3m1 0h4m2 0h9m4 0h1m1 0h3m1 0h1M4 9.5h1m5 0h1m1 0h10m5 0h1m1 0h4m3 0h1m1 0h2m2 0h2m1 0h3m1 0h1m2 0h2m3 0h1m1 0h2m3 0h1m3 0h1m1 0h3m4 0h1m1 0h1m2 0h3m3 0h1m3 0h1m3 0h1m1 0h2m2 0h3m2 0h4m1 0h1m2 0h2m3 0h1m1 0h3m4 0h1m1 0h1m2 0h2m1 0h2m2 0h1m2 0h1m3 0h2m3 0h1m6 0h1m2 0h1m1 0h2m2 0h2m1 0h1m1 0h1m5 0h1M4 10.5h7m1 0h1m1 0h1m1 0h1m1 0h1m1 0h1m1 0h1m1 0h1m1 0h1m1 0h1m1 0h1m1 0h1m1 0h1m1 0h1m1 0h1m1 0h1m1 0h1m1 0h1m1 0h1m1 0h1m1 0h1m1 0h1m1 0h1m1 0h1m1 0h1m1 0h1m1 0h1m1 0h1m1 0h1m1 0h1m1 0h1m1 0h1m1 0h1m1 0h1m1 0h1m1 0h1m1 0h1m1 0h1m1 0h1m1 0h1m1 0h1m1 0h1m1 0h1m1 0h1m1 0h1m1 0h1m1 0h1m1 0h1m1 0h1m1 0h1m1 0h1m1 0h1m1 0h1m1 0h1m1 0h1m1 0h1m1 0h1m1 0h1m1 0h1m1 0h1m1 0h1m1 0h1m1 0h1m1 0h1m1 0h1m1 0h1m1 0h1m1 0h1m1 0h1m1 0h1m1 0h1m1 0h1m1 0h1m1 0h1m1 0h1m1 0h1m1 0h1m1 0h1m1 0h1m1 0h1m1 0h1m1 0h1m1 0h7M14 11.5h4m6 0h1m3 0h1m2 0h2m3 0h2m2 0h8m1 0h1m1 0h2m3 0h1m1 0h3m3 0h1m1 0h2m3 0h1m1 0h4m1 0h1m1 0h2m3 0h2m1 0h1m3 0h3m1 0h3m2 0h5m1 0h1m1 0h3m1 0h1m1 0h2m3 0h1m3 0h1m1 0h1m1 0h2m1 0h2m3 0h5m1 0h3m3 0h1m2 0h5m1 0h1m3 0h1m4 0h3m2 0h2M4 12.5h5m1 0h3m1 0h1m1 0h1m1 0h3m3 0h1m1 0h3m3 0h6m1 0h1m4 0h1m2 0h5m1 0h5m2 0h5m2 0h2m4 0h3m1 0h6m3 0h7m1 0h2m1 0h2m1 0h1m4 0h3m4 0h1m1 0h1m1 0h6m5 0h5m1 0h1m3 0h1m1 0h4m1 0h5m1 0h2m6 0h3m1 0h3m3 0h3m1 0h2m1 0h1m1 0h1m1 0h1M7 13.5h3m1 0h1m1 0h2m2 0h5m1 0h2m2 0h2m4 0h1m2 0h3m1 0h1m2 0h2m3 0h2m3 0h1m1 0h5m1 0h2m1 0h4m2 0h3m2 0h1m4 0h1m1 0h4m1 0h3m1 0h2m1 0h1m4 0h1m3 0h1m1 0h2m1 0h2m1 0h3m1 0h8m1 0h3m4 0h1m1 0h2m1 0h1m1 0h1m2 0h1m1 0h2m2 0h2m2 0h2m1 0h6m1 0h4m1 0h1m1 0h3m4 0h1m1 0h1M4 14.5h1m1 0h2m2 0h3m1 0h1m4 0h1m2 0h1m9 0h2m2 0h3m2 0h1m1 0h1m1 0h1m1 0h1m3 0h2m2 0h1m1 0h5m1 0h1m4 0h1m1 0h2m1 0h1m1 0h1m1 0h1m1 0h4m1 0h1m2 0h1m3 0h1m3 0h3m3 0h2m1 0h1m2 0h2m1 0h3m1 0h2m2 0h1m1 0h1m1 0h1m1 0h1m7 0h1m1 0h5m3 0h1m1 0h3m2 0h1m1 0h1m5 0h2m1 0h2m4 0h1m2 0h1m1 0h1m2 0h1m1 0h1m1 0h2M4 15.5h1m2 0h1m1 0h1m1 0h2m3 0h1m1 0h1m3 0h2m1 0h1m2 0h3m3 0h2m2 0h3m4 0h5m1 0h2m2 0h1m2 0h1m1 0h3m1 0h4m5 0h2m1 0h1m6 0h1m1 0h1m1 0h1m8 0h1m1 0h1m2 0h2m1 0h1m3 0h2m3 0h1m7 0h1m2 0h1m1 0h2m1 0h1m1 0h3m2 0h1m4 0h3m2 0h1m6 0h3m3 0h1m1 0h1m2 0h5m3 0h1m2 0h2m1 0h3M5 16.5h3m2 0h1m1 0h1m2 0h3m2 0h2m1 0h3m1 0h1m2 0h3m1 0h3m1 0h1m1 0h2m1 0h2m2 0h2m3 0h3m6 0h1m3 0h2m4 0h1m1 0h4m1 0h1m6 0h2m3 0h1m2 0h1m3 0h1m1 0h3m1 0h1m2 0h1m4 0h6m2 0h1m3 0h1m3 0h7m3 0h1m1 0h2m1 0h2m4 0h5m2 0h1m3 0h2m1 0h4m3 0h4m1 0h1m2 0h1m1 0h1M7 17.5h1m5 0h1m1 0h1m1 0h2m4 0h1m1 0h1m1 0h2m4 0h6m2 0h1m1 0h3m1 0h2m1 0h1m2 0h4m2 0h1m1 0h2m1 0h1m2 0h1m1 0h2m2 0h1m2 0h2m3 0h1m1 0h1m2 0h3m2 0h2m1 0h3m4 0h1m2 0h3m2 0h1m2 0h2m1 0h3m3 0h6m7 0h1m1 0h3m2 0h1m1 0h3m1 0h3m2 0h1m1 0h1m1 0h2m3 0h1m2 0h1m1 0h1m1 0h1m1 0h3m2 0h1m1 0h1m2 0h1M5 18.5h6m1 0h3m2 0h3m1 0h4m2 0h1m1 0h4m2 0h1m1 0h5m1 0h1m2 0h2m1 0h2m1 0h1m2 0h1m1 0h2m1 0h1m2 0h3m2 0h3m1 0h2m3 0h1m2 0h1m1 0h1m1 0h2m2 0h2m7 0h1m1 0h1m2 0h3m2 0h2m1 0h1m3 0h2m1 0h4m1 0h1m1 0h2m2 0h4m2 0h1m2 0h2m5 0h1m1 0h2m1 0h2m2 0h2m3 0h3m2 0h1m2 0h1m2 0h1m1 0h1m1 0h2m1 0h1m1 0h2M4 19.5h1m1 0h1m1 0h1m2 0h3m1 0h1m1 0h4m4 0h3m1 0h2m4 0h1m1 0h5m1 0h2m1 0h1m1 0h1m1 0h1m1 0h1m4 0h2m1 0h3m1 0h1m1 0h2m1 0h1m3 0h4m1 0h2m3 0h1m1 0h4m3 0h1m1 0h1m1 0h1m1 0h1m4 0h4m1 0h1m1 0h1m2 0h1m5 0h1m1 0h5m1 0h2m2 0h2m3 0h1m1 0h3m5 0h2m3 0h1m2 0h4m3 0h1m1 0h1m1 0h2m5 0h1m1 0h3m1 0h1M4 20.5h1m1 0h1m1 0h3m3 0h1m2 0h3m1 0h2m2 0h4m1 0h4m2 0h2m1 0h2m1 0h1m2 0h1m1 0h3m3 0h2m2 0h1m3 0h1m1 0h1m1 0h2m1 0h2m3 0h5m3 0h1m2 0h1m2 0h1m2 0h6m1 0h1m2 0h2m4 0h1m2 0h2m1 0h1m1 0h2m1 0h1m9 0h4m1 0h2m1 0h3m1 0h2m1 0h1m4 0h2m1 0h1m2 0h1m2 0h1m1 0h2m2 0h1m1 0h1m2 0h1m1 0h1m1 0h3m3 0h1m1 0h1M4 21.5h2m1 0h2m3 0h4m3 0h4m1 0h1m1 0h1m7 0h1m2 0h10m1 0h2m8 0h2m1 0h4m6 0h1m10 0h2m4 0h4m2 0h2m1 0h1m2 0h2m1 0h1m1 0h2m1 0h2m6 0h1m2 0h6m1 0h1m7 0h3m1 0h2m3 0h3m3 0h5m1 0h4m2 0h7m2 0h2m5 0h4M5 22.5h3m2 0h1m1 0h2m2 0h2m2 0h3m1 0h1m1 0h2m1 0h2m1 0h3m1 0h2m1 0h3m1 0h1m3 0h1m1 0h5m3 0h2m2 0h1m5 0h2m1 0h4m3 0h1m2 0h3m1 0h2m4 0h1m2 0h4m1 0h1m2 0h2m4 0h5m2 0h1m2 0h2m1 0h3m1 0h2m3 0h1m1 0h1m1 0h2m1 0h2m1 0h1m1 0h1m1 0h4m2 0h1m4 0h1m5 0h2m1 0h1m1 0h2m2 0h2m3 0h2m1 0h3M4 23.5h3m1 0h2m1 0h2m5 0h1m2 0h2m1 0h5m1 0h2m2 0h3m9 0h2m3 0h2m2 0h1m2 0h1m3 0h1m1 0h3m2 0h1m4 0h1m1 0h1m2 0h1m1 0h1m3 0h5m1 0h1m1 0h1m1 0h2m1 0h2m1 0h2m1 0h1m1 0h1m3 0h1m2 0h2m4 0h1m3 0h1m1 0h1m1 0h2m2 0h1m2 0h3m2 0h3m1 0h1m2 0h1m4 0h1m1 0h5m2 0h1m2 0h5m4 0h5m1 0h1M4 24.5h2m4 0h1m1 0h3m3 0h2m1 0h1m4 0h2m1 0h2m1 0h2m5 0h1m1 0h2m4 0h1m1 0h2m3 0h1m1 0h4m5 0h1m1 0h1m1 0h1m1 0h1m1 0h2m4 0h1m1 0h1m3 0h1m6 0h1m1 0h1m5 0h1m1 0h2m3 0h1m4 0h1m1 0h2m3 0h1m7 0h7m5 0h6m2 0h2m1 0h1m3 0h1m1 0h4m2 0h1m2 0h2m2 0h2m1 0h4m3 0h2M5 25.5h2m1 0h2m1 0h1m1 0h1m1 0h2m1 0h1m2 0h2m1 0h1m1 0h1m1 0h2m1 0h2m1 0h1m1 0h6m1 0h4m1 0h1m2 0h1m2 0h12m3 0h4m2 0h1m1 0h1m1 0h5m2 0h1m1 0h10m2 0h4m2 0h1m2 0h1m1 0h2m3 0h2m3 0h4m1 0h1m2 0h2m3 0h1m1 0h1m1 0h1m6 0h1m1 0h1m2 0h2m1 0h1m2 0h3m1 0h1m3 0h1m1 0h7m2 0h1m1 0h1m1 0h1M4 26.5h7m2 0h1m2 0h7m1 0h2m1 0h5m1 0h1m5 0h1m1 0h1m3 0h2m2 0h1m2 0h1m5 0h2m2 0h1m1 0h1m2 0h4m1 0h2m3 0h1m2 0h3m1 0h2m4 0h1m7 0h1m5 0h2m1 0h5m2 0h1m3 0h5m1 0h1m1 0h4m1 0h1m1 0h1m1 0h2m1 0h1m7 0h1m1 0h1m5 0h1m2 0h1m1 0h1m1 0h1m1 0h1m2 0h2m2 0h2m1 0h3m1 0h1m1 0h1M4 27.5h3m6 0h3m1 0h5m1 0h2m1 0h2m1 0h3m2 0h2m1 0h1m2 0h1m5 0h1m1 0h1m3 0h1m5 0h5m3 0h2m1 0h2m2 0h7m3 0h1m1 0h3m3 0h1m1 0h6m1 0h1m4 0h2m1 0h2m4 0h1m2 0h1m3 0h1m7 0h4m1 0h3m3 0h4m1 0h2m4 0h1m1 0h2m2 0h1m8 0h1m1 0h2m2 0h7M4 28.5h1m2 0h2m1 0h3m1 0h1m2 0h1m2 0h1m2 0h2m1 0h1m2 0h1m2 0h2m3 0h2m2 0h2m1 0h2m1 0h6m1 0h1m1 0h1m2 0h1m2 0h1m3 0h1m2 0h1m1 0h2m1 0h3m3 0h3m1 0h3m3 0h1m1 0h1m1 0h1m4 0h2m1 0h1m3 0h1m4 0h3m13 0h2m1 0h1m1 0h2m5 0h2m1 0h1m4 0h5m3 0h1m1 0h3m1 0h4m5 0h2m3 0h1m3 0h2M5 29.5h1m1 0h2m4 0h2m1 0h2m2 0h5m2 0h2m1 0h3m3 0h4m1 0h2m1 0h2m2 0h1m1 0h2m1 0h2m1 0h1m1 0h4m2 0h2m1 0h4m2 0h1m4 0h1m2 0h2m2 0h11m1 0h1m2 0h1m2 0h5m1 0h1m3 0h1m4 0h2m2 0h1m1 0h3m2 0h1m3 0h2m1 0h1m1 0h2m3 0h2m4 0h1m3 0h1m3 0h1m4 0h1m2 0h1m1 0h2m1 0h1m4 0h3m2 0h1M5 30.5h3m2 0h1m2 0h1m2 0h3m1 0h3m3 0h1m2 0h1m1 0h2m1 0h1m2 0h1m1 0h1m1 0h1m4 0h1m2 0h4m4 0h2m1 0h1m1 0h3m2 0h6m2 0h1m1 0h1m2 0h1m1 0h1m1 0h2m1 0h2m1 0h1m6 0h4m1 0h1m1 0h2m5 0h1m1 0h3m1 0h2m3 0h2m2 0h2m2 0h2m1 0h2m2 0h1m3 0h1m2 0h4m3 0h1m3 0h1m1 0h2m1 0h2m7 0h1m1 0h1m1 0h2m3 0h2M5 31.5h2m1 0h2m1 0h3m2 0h2m8 0h1m4 0h1m2 0h1m1 0h2m1 0h2m2 0h1m1 0h2m1 0h1m2 0h3m1 0h6m3 0h1m1 0h2m2 0h1m2 0h4m1 0h2m3 0h1m2 0h1m2 0h1m1 0h3m1 0h2m1 0h1m2 0h2m1 0h1m1 0h1m3 0h5m4 0h2m7 0h1m3 0h1m1 0h2m1 0h1m3 0h2m3 0h1m6 0h1m1 0h1m1 0h1m3 0h1m4 0h2m4 0h1m1 0h5m1 0h1M4 32.5h1m2 0h8m3 0h2m1 0h1m2 0h2m1 0h1m2 0h1m1 0h5m4 0h2m4 0h2m1 0h1m5 0h2m1 0h6m1 0h1m1 0h2m1 0h1m2 0h3m2 0h1m1 0h1m3 0h1m1 0h6m1 0h1m2 0h1m1 0h2m1 0h2m3 0h3m1 0h2m1 0h8m1 0h1m3 0h2m1 0h1m1 0h2m6 0h1m1 0h7m1 0h2m2 0h5m1 0h5m4 0h1m2 0h5m1 0h2M4 33.5h3m1 0h1m3 0h1m1 0h8m2 0h1m1 0h1m1 0h2m2 0h1m3 0h1m4 0h4m1 0h1m1 0h1m7 0h2m2 0h1m3 0h3m1 0h1m1 0h4m2 0h1m3 0h2m1 0h2m2 0h2m3 0h3m5 0h2m3 0h2m1 0h1m2 0h1m1 0h1m1 0h2m3 0h1m1 0h1m1 0h1m1 0h1m4 0h1m2 0h3m1 0h2m1 0h1m2 0h1m3 0h2m1 0h2m1 0h1m1 0h4m3 0h2m1 0h3m1 0h1m1 0h1m3 0h2m2 0h1M5 34.5h4m1 0h1m1 0h1m2 0h1m1 0h1m3 0h2m1 0h1m2 0h2m1 0h1m1 0h1m1 0h1m1 0h1m2 0h2m1 0h2m1 0h1m6 0h1m1 0h1m3 0h3m1 0h1m1 0h2m2 0h6m5 0h2m1 0h4m2 0h1m1 0h1m1 0h1m3 0h2m1 0h1m2 0h1m1 0h5m1 0h1m3 0h1m1 0h1m1 0h1m1 0h1m1 0h1m3 0h4m1 0h2m1 0h1m2 0h3m2 0h3m1 0h1m1 0h2m1 0h1m1 0h1m6 0h2m3 0h3m1 0h1m1 0h2m1 0h1m1 0h3M4 35.5h1m3 0h1m3 0h1m1 0h2m1 0h2m2 0h1m1 0h7m2 0h1m3 0h2m5 0h1m2 0h1m2 0h1m2 0h2m3 0h4m3 0h1m1 0h2m1 0h2m3 0h3m1 0h2m6 0h1m1 0h1m3 0h5m1 0h3m1 0h1m1 0h1m1 0h3m1 0h2m1 0h2m1 0h1m3 0h1m3 0h2m2 0h1m4 0h3m1 0h1m1 0h3m1 0h2m3 0h1m2 0h1m1 0h4m3 0h1m2 0h1m2 0h1m1 0h1m2 0h2m3 0h1m1 0h2M4 36.5h2m1 0h9m1 0h1m1 0h4m3 0h3m1 0h1m1 0h6m2 0h1m1 0h4m2 0h3m3 0h1m1 0h2m1 0h6m1 0h1m2 0h2m2 0h1m3 0h2m1 0h1m4 0h2m1 0h7m5 0h2m1 0h1m3 0h1m1 0h1m2 0h1m1 0h1m1 0h5m2 0h1m1 0h1m1 0h4m1 0h1m2 0h1m1 0h1m1 0h2m1 0h1m1 0h5m1 0h6m3 0h1m1 0h1m2 0h1m3 0h1m2 0h6m3 0h1M4 37.5h1m1 0h2m1 0h1m2 0h1m1 0h1m2 0h2m1 0h1m3 0h2m1 0h1m4 0h1m1 0h3m1 0h3m2 0h2m3 0h2m3 0h3m1 0h1m1 0h2m2 0h1m1 0h3m1 0h2m1 0h4m1 0h3m1 0h3m8 0h1m1 0h2m3 0h2m2 0h1m2 0h2m1 0h1m2 0h2m1 0h1m2 0h1m1 0h3m1 0h4m5 0h5m1 0h1m3 0h1m1 0h1m2 0h1m2 0h2m1 0h1m2 0h3m1 0h2m1 0h2m2 0h1m1 0h3m2 0h1m1 0h1m1 0h2M4 38.5h1m1 0h1m2 0h2m1 0h1m1 0h1m1 0h3m1 0h4m2 0h1m2 0h2m1 0h7m1 0h1m1 0h1m3 0h2m2 0h1m1 0h3m1 0h1m2 0h1m1 0h2m1 0h1m4 0h5m5 0h2m1 0h1m1 0h1m2 0h2m2 0h2m4 0h2m1 0h1m1 0h1m1 0h1m3 0h1m1 0h2m1 0h1m1 0h6m1 0h4m2 0h1m1 0h1m2 0h1m4 0h2m1 0h2m2 0h1m1 0h2m1 0h2m1 0h1m1 0h1m1 0h1m2 0h2m1 0h1m2 0h2m1 0h2m1 0h2m1 0h2m2 0h1M4 39.5h1m2 0h2m2 0h1m2 0h1m1 0h5m1 0h1m3 0h3m5 0h1m3 0h4m4 0h1m2 0h1m1 0h2m2 0h4m1 0h1m2 0h4m3 0h2m1 0h4m1 0h1m4 0h1m1 0h5m1 0h1m2 0h2m1 0h1m3 0h10m4 0h1m2 0h1m1 0h2m1 0h1m1 0h1m1 0h2m2 0h5m1 0h1m1 0h1m2 0h1m1 0h1m1 0h3m4 0h3m4 0h2m1 0h2m1 0h2m2 0h2m2 0h2m2 0h2M4 40.5h4m1 0h3m1 0h1m1 0h2m3 0h8m2 0h1m3 0h1m1 0h1m1 0h2m2 0h1m1 0h2m1 0h1m1 0h3m1 0h2m1 0h1m2 0h1m1 0h2m5 0h4m1 0h5m1 0h1m2 0h1m1 0h3m2 0h1m2 0h1m2 0h1m1 0h1m1 0h2m2 0h1m1 0h3m2 0h3m1 0h1m1 0h1m4 0h1m1 0h1m6 0h1m1 0h1m4 0h1m1 0h2m1 0h5m3 0h1m4 0h2m5 0h4m1 0h3m1 0h2m3 0h1m2 0h2M5 41.5h2m1 0h2m2 0h1m1 0h1m1 0h1m4 0h1m1 0h1m3 0h3m6 0h2m1 0h1m1 0h2m1 0h1m1 0h2m2 0h2m1 0h1m1 0h1m1 0h1m1 0h1m1 0h1m1 0h3m2 0h1m4 0h1m1 0h3m1 0h2m2 0h2m2 0h3m1 0h1m2 0h2m1 0h1m3 0h1m3 0h3m5 0h1m1 0h2m3 0h1m1 0h1m1 0h1m1 0h1m4 0h1m1 0h4m1 0h2m3 0h1m1 0h1m2 0h3m1 0h7m3 0h4m2 0h1m2 0h3m3 0h1m2 0h1M5 42.5h1m1 0h1m2 0h1m1 0h1m4 0h1m1 0h1m1 0h2m1 0h2m1 0h5m4 0h1m1 0h2m3 0h1m2 0h1m2 0h2m1 0h1m1 0h2m3 0h1m2 0h3m2 0h2m1 0h3m4 0h1m1 0h1m2 0h1m1 0h2m2 0h2m1 0h3m2 0h3m1 0h1m2 0h1m1 0h1m3 0h1m1 0h1m2 0h5m2 0h1m4 0h2m2 0h1m2 0h3m2 0h2m1 0h1m2 0h1m2 0h5m1 0h1m4 0h1m1 0h3m3 0h1m2 0h1m5 0h1M4 43.5h3m1 0h2m3 0h1m1 0h1m2 0h1m7 0h1m3 0h3m1 0h1m1 0h1m2 0h1m1 0h1m1 0h1m2 0h2m1 0h1m1 0h2m2 0h2m1 0h1m1 0h2m1 0h3m3 0h1m3 0h6m6 0h5m3 0h1m1 0h2m1 0h2m1 0h5m1 0h2m4 0h1m1 0h1m2 0h1m1 0h1m3 0h3m1 0h6m1 0h8m2 0h3m3 0h1m2 0h1m1 0h1m2 0h2m3 0h4m4 0h2m1 0h3m1 0h2M4 44.5h1m4 0h5m3 0h1m4 0h7m1 0h1m1 0h1m1 0h2m1 0h2m1 0h1m1 0h1m1 0h2m3 0h4m1 0h1m1 0h1m3 0h1m1 0h5m3 0h1m3 0h1m2 0h4m1 0h1m1 0h1m3 0h2m3 0h3m1 0h1m1 0h2m2 0h1m1 0h1m3 0h4m1 0h1m4 0h1m7 0h2m1 0h1m1 0h2m3 0h1m1 0h4m3 0h1m2 0h2m1 0h2m3 0h3m1 0h6m1 0h6m1 0h2m1 0h3M4 45.5h3m1 0h2m2 0h3m1 0h1m1 0h1m4 0h6m1 0h1m4 0h1m1 0h1m2 0h2m1 0h3m4 0h1m2 0h1m1 0h2m2 0h2m2 0h4m2 0h6m1 0h1m2 0h6m2 0h4m1 0h3m5 0h1m3 0h1m1 0h1m5 0h2m1 0h3m1 0h2m1 0h3m1 0h1m2 0h1m1 0h1m1 0h4m1 0h2m3 0h3m1 0h2m2 0h2m1 0h1m1 0h2m1 0h1m1 0h1m2 0h1m1 0h3m1 0h3m2 0h1m1 0h4M4 46.5h2m1 0h1m2 0h1m2 0h2m2 0h3m1 0h1m1 0h2m2 0h6m2 0h1m3 0h1m3 0h1m1 0h1m1 0h2m1 0h3m2 0h1m2 0h1m1 0h6m1 0h2m1 0h1m3 0h1m2 0h1m1 0h4m1 0h1m2 0h2m3 0h1m4 0h1m1 0h2m1 0h2m1 0h1m1 0h6m1 0h2m2 0h1m1 0h1m1 0h1m1 0h1m1 0h1m2 0h6m2 0h2m2 0h2m6 0h1m3 0h2m2 0h2m1 0h2m1 0h1m1 0h2m2 0h2m2 0h1m3 0h2M5 47.5h2m1 0h1m3 0h1m1 0h2m1 0h5m1 0h2m2 0h3m4 0h1m1 0h2m1 0h1m5 0h2m1 0h1m3 0h2m3 0h2m3 0h3m1 0h1m2 0h1m1 0h1m1 0h1m2 0h2m1 0h1m1 0h1m1 0h1m1 0h1m1 0h1m2 0h2m4 0h2m3 0h6m1 0h1m2 0h3m3 0h2m1 0h2m1 0h3m1 0h2m1 0h1m1 0h2m1 0h1m1 0h1m1 0h2m2 0h1m1 0h1m1 0h1m6 0h1m4 0h1m3 0h1m2 0h2m4 0h1m1 0h5m1 0h1M4 48.5h2m3 0h2m1 0h2m1 0h5m1 0h2m1 0h3m1 0h2m3 0h1m2 0h1m2 0h2m1 0h2m3 0h5m2 0h1m1 0h1m4 0h1m1 0h1m2 0h6m1 0h2m1 0h1m1 0h1m3 0h2m1 0h1m2 0h2m1 0h1m1 0h1m3 0h2m1 0h1m1 0h1m2 0h3m3 0h3m2 0h1m4 0h1m3 0h1m1 0h4m1 0h2m1 0h1m3 0h4m1 0h2m3 0h2m4 0h5m1 0h3m1 0h1m1 0h2m1 0h3m3 0h1M4 49.5h1m1 0h3m2 0h2m2 0h3m4 0h1m2 0h1m1 0h2m4 0h2m1 0h2m1 0h2m1 0h1m1 0h2m2 0h1m1 0h1m2 0h4m1 0h1m1 0h2m4 0h1m1 0h1m1 0h3m8 0h4m2 0h1m3 0h5m1 0h1m1 0h3m1 0h1m2 0h2m1 0h1m1 0h2m2 0h2m1 0h3m1 0h1m1 0h1m1 0h1m3 0h1m2 0h2m1 0h4m3 0h1m1 0h2m1 0h3m1 0h2m1 0h2m1 0h1m3 0h2m1 0h1m1 0h1m2 0h2m2 0h2m1 0h1m2 0h1M5 50.5h2m1 0h3m2 0h1m3 0h1m1 0h1m3 0h1m5 0h1m1 0h3m2 0h1m1 0h4m4 0h2m3 0h5m2 0h2m1 0h5m1 0h1m2 0h1m1 0h2m3 0h1m2 0h1m1 0h1m1 0h2m1 0h1m1 0h4m3 0h3m4 0h2m2 0h1m1 0h2m1 0h1m1 0h1m1 0h2m3 0h1m1 0h4m1 0h1m9 0h1m3 0h1m2 0h1m2 0h1m2 0h1m5 0h1m2 0h2m5 0h1m1 0h1m3 0h1M4 51.5h1m7 0h1m1 0h3m5 0h1m3 0h1m1 0h4m2 0h1m2 0h1m5 0h5m1 0h1m1 0h1m1 0h1m3 0h2m1 0h1m8 0h1m1 0h1m1 0h4m1 0h2m1 0h2m3 0h3m5 0h1m1 0h4m1 0h2m1 0h3m1 0h1m7 0h1m1 0h5m1 0h1m1 0h2m1 0h2m1 0h1m2 0h1m3 0h3m2 0h1m1 0h4m1 0h1m1 0h4m2 0h1m1 0h1m1 0h5m3 0h1m2 0h2m1 0h4M6 52.5h5m1 0h1m4 0h2m1 0h4m1 0h2m2 0h1m2 0h1m3 0h2m1 0h1m2 0h2m1 0h1m1 0h4m3 0h1m1 0h3m3 0h2m1 0h1m1 0h3m1 0h2m1 0h2m1 0h3m1 0h1m1 0h1m2 0h1m4 0h1m3 0h1m1 0h1m1 0h5m1 0h2m2 0h1m1 0h4m1 0h1m4 0h1m1 0h4m1 0h1m1 0h1m1 0h2m2 0h2m1 0h2m1 0h4m1 0h1m1 0h3m1 0h1m2 0h2m2 0h1m1 0h1m1 0h1m2 0h1m3 0h2m2 0h3m1 0h1M4 53.5h1m2 0h1m4 0h1m5 0h1m1 0h2m1 0h1m1 0h1m3 0h1m4 0h5m3 0h3m1 0h1m4 0h1m1 0h1m1 0h2m1 0h1m1 0h2m1 0h1m4 0h1m2 0h1m1 0h3m1 0h2m1 0h1m1 0h1m1 0h1m3 0h3m1 0h4m4 0h2m2 0h1m1 0h2m1 0h1m2 0h1m2 0h1m1 0h1m1 0h1m1 0h4m2 0h1m6 0h2m1 0h1m1 0h1m7 0h2m1 0h5m1 0h1m1 0h1m2 0h2m1 0h2m2 0h4m1 0h1m1 0h1m1 0h1m2 0h1M4 54.5h2m4 0h4m1 0h1m1 0h1m3 0h1m5 0h1m1 0h2m3 0h1m2 0h2m1 0h1m2 0h1m3 0h1m1 0h1m1 0h2m1 0h2m3 0h2m1 0h4m2 0h1m1 0h1m1 0h1m6 0h1m1 0h2m1 0h2m3 0h4m3 0h1m1 0h1m1 0h2m1 0h2m2 0h1m1 0h7m1 0h3m1 0h2m2 0h5m1 0h1m1 0h1m4 0h1m2 0h2m1 0h1m3 0h1m4 0h3m1 0h1m2 0h2m1 0h1m2 0h1m2 0h2m1 0h1m2 0h2m1 0h1M4 55.5h1m4 0h1m2 0h3m3 0h3m1 0h2m1 0h3m1 0h1m1 0h1m4 0h1m1 0h4m1 0h2m1 0h1m2 0h1m2 0h1m2 0h2m1 0h1m1 0h1m1 0h3m1 0h1m9 0h1m1 0h1m7 0h4m3 0h1m1 0h3m5 0h3m3 0h3m3 0h1m2 0h1m1 0h1m1 0h2m4 0h1m1 0h1m1 0h1m2 0h1m3 0h1m2 0h1m2 0h2m4 0h1m1 0h2m1 0h1m2 0h1m1 0h1m4 0h1m5 0h3m1 0h3M5 56.5h1m1 0h1m1 0h3m1 0h2m2 0h1m8 0h3m2 0h1m2 0h3m5 0h2m3 0h2m1 0h1m3 0h2m1 0h1m2 0h2m1 0h1m2 0h1m2 0h2m3 0h1m1 0h1m2 0h1m1 0h1m1 0h2m4 0h1m1 0h1m3 0h1m2 0h1m1 0h2m4 0h2m1 0h1m1 0h2m1 0h4m1 0h1m1 0h1m1 0h1m1 0h1m3 0h2m1 0h2m5 0h4m3 0h1m1 0h1m1 0h1m1 0h1m4 0h2m1 0h3m2 0h1m3 0h1m1 0h2m3 0h3m1 0h1M4 57.5h1m6 0h1m3 0h2m10 0h1m1 0h1m3 0h4m1 0h1m1 0h1m2 0h3m2 0h2m1 0h6m1 0h3m6 0h1m1 0h2m1 0h1m1 0h1m2 0h1m2 0h1m1 0h1m2 0h1m2 0h1m1 0h1m1 0h4m3 0h3m1 0h1m2 0h1m2 0h1m5 0h1m2 0h1m3 0h1m1 0h4m7 0h2m1 0h2m1 0h1m1 0h3m1 0h1m1 0h5m2 0h3m4 0h4m1 0h6m1 0h1m4 0h1M6 58.5h1m1 0h1m1 0h1m2 0h5m1 0h1m1 0h3m2 0h1m1 0h1m1 0h1m1 0h1m4 0h4m1 0h2m1 0h1m5 0h2m5 0h2m4 0h1m2 0h6m2 0h1m3 0h4m2 0h1m4 0h3m3 0h3m2 0h1m1 0h3m1 0h5m2 0h9m1 0h1m9 0h1m1 0h3m1 0h2m2 0h1m4 0h3m1 0h2m5 0h3m2 0h1m1 0h1m2 0h1m1 0h2m1 0h1m2 0h2M6 59.5h2m3 0h1m4 0h4m2 0h1m1 0h1m1 0h1m1 0h1m1 0h1m2 0h2m1 0h1m2 0h3m2 0h3m2 0h1m1 0h2m2 0h1m2 0h1m3 0h3m1 0h2m1 0h2m3 0h6m2 0h7m2 0h1m1 0h1m2 0h1m1 0h1m1 0h2m2 0h2m2 0h1m1 0h1m5 0h1m1 0h4m3 0h3m1 0h3m1 0h1m1 0h1m3 0h1m3 0h2m1 0h2m1 0h1m2 0h1m1 0h2m3 0h2m3 0h3m5 0h1m1 0h1m1 0h3m1 0h1M4 60.5h2m2 0h6m2 0h1m1 0h2m5 0h1m1 0h1m2 0h1m1 0h7m1 0h1m1 0h2m1 0h1m1 0h1m1 0h6m1 0h1m3 0h6m1 0h3m2 0h1m1 0h1m1 0h5m1 0h1m1 0h2m2 0h5m1 0h1m2 0h1m1 0h3m1 0h1m3 0h1m3 0h4m1 0h6m1 0h1m1 0h1m1 0h2m1 0h4m3 0h1m2 0h2m1 0h6m2 0h1m3 0h1m2 0h1m3 0h2m3 0h11m1 0h2M4 61.5h1m1 0h1m1 0h1m3 0h3m1 0h1m1 0h1m1 0h1m1 0h1m4 0h3m2 0h1m3 0h2m2 0h1m1 0h1m1 0h1m1 0h1m1 0h2m4 0h1m1 0h2m1 0h2m3 0h2m1 0h1m1 0h2m2 0h3m3 0h1m1 0h5m1 0h2m3 0h1m1 0h1m1 0h1m3 0h2m3 0h5m3 0h1m1 0h2m3 0h3m1 0h3m4 0h1m1 0h2m1 0h4m2 0h3m3 0h2m2 0h1m4 0h3m2 0h1m1 0h1m1 0h1m1 0h1m1 0h1m1 0h1m3 0h3m1 0h1M4 62.5h3m1 0h1m1 0h1m1 0h1m1 0h1m1 0h3m2 0h1m2 0h1m1 0h1m1 0h1m1 0h3m1 0h1m1 0h1m1 0h4m1 0h1m1 0h3m3 0h3m3 0h4m1 0h1m1 0h1m2 0h7m1 0h3m1 0h4m1 0h2m1 0h2m1 0h1m1 0h2m3 0h1m1 0h1m2 0h1m1 0h1m5 0h2m2 0h3m1 0h1m1 0h1m2 0h2m3 0h2m1 0h1m4 0h6m1 0h2m1 0h1m1 0h2m1 0h1m1 0h3m3 0h5m1 0h1m1 0h1m1 0h4m1 0h1m1 0h4M5 63.5h1m1 0h2m3 0h3m3 0h1m1 0h1m1 0h2m3 0h1m1 0h1m2 0h1m3 0h1m1 0h3m3 0h1m1 0h1m4 0h1m6 0h3m3 0h1m1 0h1m6 0h2m1 0h1m1 0h2m1 0h1m1 0h1m2 0h1m1 0h1m3 0h6m4 0h3m1 0h1m1 0h3m2 0h1m1 0h2m3 0h1m3 0h1m6 0h1m3 0h2m7 0h1m3 0h2m1 0h1m2 0h2m1 0h1m2 0h2m1 0h1m2 0h1m2 0h1m1 0h2m3 0h1m1 0h3M5 64.5h2m1 0h5m1 0h1m2 0h3m1 0h1m1 0h3m3 0h11m1 0h3m1 0h6m1 0h1m1 0h1m1 0h2m1 0h9m3 0h2m2 0h3m3 0h1m2 0h1m2 0h8m3 0h1m1 0h4m3 0h1m1 0h1m1 0h3m1 0h7m5 0h2m1 0h1m1 0h1m7 0h1m1 0h1m1 0h7m1 0h1m2 0h5m1 0h2m1 0h1m2 0h4m1 0h5m3 0h1M4 65.5h1m7 0h1m1 0h1m3 0h1m1 0h2m1 0h3m4 0h1m1 0h2m2 0h2m1 0h2m2 0h3m1 0h4m2 0h6m2 0h1m4 0h1m3 0h1m1 0h1m3 0h1m1 0h1m1 0h1m2 0h2m2 0h1m5 0h3m1 0h1m1 0h1m4 0h1m1 0h1m2 0h1m6 0h2m4 0h3m1 0h1m4 0h1m2 0h1m1 0h3m2 0h1m4 0h1m4 0h2m1 0h2m2 0h2m2 0h3m3 0h1m1 0h2m1 0h1m2 0h3m1 0h1M9 66.5h2m2 0h2m1 0h1m2 0h2m4 0h2m1 0h1m1 0h2m9 0h2m6 0h4m1 0h2m1 0h4m2 0h1m1 0h1m1 0h1m2 0h3m6 0h4m1 0h1m3 0h4m1 0h1m3 0h2m1 0h4m1 0h1m1 0h5m1 0h4m5 0h1m1 0h1m2 0h1m1 0h1m3 0h1m2 0h1m1 0h8m2 0h4m3 0h1m1 0h2m1 0h1m4 0h2m2 0h1m1 0h1m3 0h1m1 0h2M4 67.5h2m2 0h2m1 0h2m1 0h5m2 0h3m1 0h3m2 0h1m1 0h3m1 0h2m1 0h1m1 0h1m1 0h3m2 0h1m3 0h7m1 0h3m1 0h1m1 0h1m1 0h2m3 0h4m1 0h1m7 0h1m1 0h1m1 0h1m1 0h2m4 0h2m2 0h3m1 0h1m1 0h2m1 0h1m1 0h2m3 0h3m2 0h4m1 0h1m1 0h5m2 0h1m2 0h1m1 0h1m1 0h1m2 0h2m3 0h1m1 0h1m2 0h1m1 0h2m2 0h1m2 0h2m5 0h1m4 0h1m1 0h1M5 68.5h1m1 0h1m2 0h4m2 0h2m2 0h4m3 0h1m2 0h1m1 0h1m1 0h1m1 0h6m2 0h1m1 0h1m3 0h2m8 0h5m1 0h3m1 0h2m2 0h2m1 0h1m1 0h2m3 0h4m1 0h3m1 0h3m1 0h1m2 0h2m1 0h1m3 0h1m3 0h2m2 0h1m2 0h3m4 0h1m1 0h4m1 0h2m1 0h1m3 0h2m1 0h2m1 0h1m1 0h4m1 0h2m1 0h2m1 0h3m1 0h1m1 0h1m2 0h4m1 0h5m2 0h2M6 69.5h1m1 0h2m1 0h1m2 0h2m2 0h2m1 0h2m4 0h2m5 0h2m1 0h1m1 0h1m1 0h1m2 0h3m1 0h1m1 0h1m1 0h1m2 0h3m6 0h3m1 0h1m4 0h2m1 0h2m2 0h2m1 0h3m3 0h1m1 0h1m2 0h1m5 0h1m4 0h2m1 0h1m4 0h1m3 0h1m4 0h5m4 0h1m1 0h6m5 0h1m1 0h1m3 0h1m1 0h1m1 0h1m2 0h3m1 0h5m2 0h1m1 0h1m1 0h1m1 0h3m3 0h1M4 70.5h1m1 0h3m1 0h3m1 0h4m2 0h1m1 0h4m3 0h2m3 0h2m1 0h2m3 0h1m2 0h2m2 0h1m1 0h3m1 0h1m2 0h2m1 0h1m6 0h1m1 0h1m1 0h1m4 0h1m1 0h1m2 0h1m1 0h2m1 0h2m1 0h1m1 0h1m2 0h4m1 0h1m1 0h1m1 0h1m2 0h2m1 0h2m3 0h2m1 0h1m2 0h1m1 0h5m1 0h1m1 0h1m1 0h2m2 0h2m1 0h2m1 0h4m1 0h3m2 0h3m1 0h1m2 0h2m3 0h1m3 0h4m1 0h1m2 0h2M5 71.5h3m1 0h1m2 0h1m1 0h2m3 0h1m4 0h2m1 0h3m1 0h4m2 0h1m2 0h1m4 0h2m9 0h1m1 0h3m1 0h1m1 0h4m3 0h1m2 0h1m1 0h1m1 0h1m6 0h3m1 0h2m1 0h2m2 0h1m1 0h1m4 0h2m1 0h4m8 0h3m1 0h2m3 0h2m1 0h3m1 0h3m2 0h4m1 0h1m7 0h1m1 0h1m2 0h1m2 0h2m1 0h1m1 0h2m1 0h1m6 0h2m1 0h1M5 72.5h2m2 0h3m1 0h6m2 0h4m2 0h2m1 0h10m2 0h1m1 0h1m1 0h3m2 0h1m1 0h1m2 0h1m3 0h1m1 0h3m5 0h4m1 0h1m2 0h2m1 0h1m1 0h6m2 0h1m2 0h2m1 0h2m1 0h1m1 0h2m1 0h1m6 0h3m1 0h1m1 0h1m1 0h2m1 0h1m3 0h6m4 0h1m2 0h4m1 0h2m1 0h3m1 0h1m2 0h1m2 0h2m1 0h1m8 0h1m1 0h3m2 0h1m1 0h1M4 73.5h3m2 0h1m4 0h4m1 0h1m2 0h2m1 0h4m2 0h1m1 0h2m1 0h1m1 0h2m2 0h3m2 0h4m2 0h1m1 0h4m2 0h1m1 0h1m2 0h3m2 0h1m5 0h6m3 0h1m1 0h1m3 0h1m1 0h1m1 0h1m1 0h3m4 0h5m2 0h2m1 0h2m2 0h1m2 0h1m1 0h1m1 0h2m1 0h1m3 0h2m1 0h1m1 0h2m3 0h1m1 0h1m4 0h1m1 0h1m6 0h1m1 0h3m4 0h1m1 0h2m1 0h3m4 0h1M5 74.5h4m1 0h1m1 0h1m1 0h1m3 0h2m2 0h6m2 0h3m1 0h1m2 0h1m1 0h1m1 0h1m1 0h1m1 0h2m2 0h1m1 0h3m4 0h1m8 0h2m1 0h1m1 0h1m7 0h3m1 0h2m1 0h7m1 0h3m1 0h4m2 0h1m2 0h3m1 0h3m1 0h2m6 0h1m4 0h3m8 0h2m2 0h1m3 0h2m1 0h1m2 0h2m1 0h1m2 0h1m3 0h4m1 0h1m1 0h4m3 0h2M4 75.5h1m1 0h2m6 0h5m1 0h1m3 0h1m1 0h1m3 0h2m1 0h2m5 0h1m2 0h1m2 0h3m3 0h1m5 0h1m1 0h3m1 0h1m1 0h1m2 0h1m4 0h1m1 0h3m4 0h1m2 0h1m1 0h1m1 0h3m1 0h1m1 0h3m4 0h2m1 0h4m4 0h1m3 0h3m5 0h1m2 0h4m2 0h1m4 0h1m2 0h3m1 0h2m4 0h5m2 0h1m2 0h4m2 0h1m3 0h1m1 0h1m1 0h3M5 76.5h3m1 0h2m1 0h2m1 0h9m3 0h3m1 0h3m3 0h3m2 0h3m3 0h1m5 0h2m4 0h2m3 0h5m1 0h1m2 0h1m1 0h1m4 0h1m3 0h1m1 0h1m2 0h1m2 0h2m5 0h1m1 0h2m1 0h2m2 0h2m1 0h2m3 0h5m1 0h3m1 0h2m1 0h4m5 0h2m1 0h1m7 0h2m1 0h4m1 0h3m1 0h1m1 0h5m1 0h5m1 0h1m2 0h1M5 77.5h2m1 0h1m2 0h2m1 0h3m1 0h1m6 0h1m2 0h5m1 0h1m2 0h3m4 0h2m2 0h1m1 0h1m4 0h2m1 0h1m2 0h2m1 0h3m1 0h1m3 0h1m7 0h1m1 0h3m1 0h1m7 0h1m2 0h1m2 0h1m2 0h1m2 0h4m1 0h3m1 0h1m6 0h3m1 0h2m3 0h1m1 0h2m1 0h1m1 0h1m5 0h1m3 0h5m1 0h2m2 0h2m2 0h3m1 0h1m1 0h1m1 0h3m1 0h1m1 0h3M7 78.5h1m1 0h2m12 0h3m1 0h1m2 0h3m3 0h2m2 0h1m1 0h2m2 0h1m5 0h1m1 0h2m4 0h2m2 0h1m3 0h6m6 0h1m1 0h1m1 0h2m1 0h2m1 0h4m1 0h1m1 0h2m1 0h1m1 0h2m1 0h2m1 0h5m1 0h4m2 0h1m1 0h1m1 0h2m1 0h4m3 0h2m1 0h3m1 0h1m1 0h3m1 0h2m1 0h1m2 0h2m2 0h1m1 0h4m2 0h3m1 0h1m2 0h3m2 0h2M4 79.5h4m9 0h2m2 0h1m2 0h6m1 0h2m2 0h1m1 0h1m2 0h2m3 0h3m1 0h1m2 0h2m1 0h2m1 0h10m2 0h1m2 0h2m1 0h1m1 0h1m2 0h1m1 0h1m1 0h4m2 0h2m1 0h4m4 0h1m1 0h2m2 0h1m3 0h3m2 0h6m1 0h2m2 0h1m3 0h3m1 0h1m2 0h2m1 0h3m3 0h4m2 0h2m3 0h1m1 0h1m2 0h1m1 0h3m2 0h1m1 0h1m2 0h1m1 0h3M4 80.5h2m4 0h1m1 0h5m1 0h1m1 0h1m2 0h1m3 0h1m3 0h4m2 0h2m3 0h3m1 0h1m2 0h2m3 0h2m4 0h1m3 0h3m1 0h2m5 0h4m2 0h2m4 0h5m2 0h2m2 0h1m1 0h3m3 0h2m3 0h1m2 0h1m3 0h1m8 0h2m1 0h3m2 0h1m1 0h1m1 0h2m1 0h1m2 0h4m3 0h1m6 0h1m1 0h1m1 0h1m1 0h1m2 0h2m1 0h2m1 0h2m1 0h1m2 0h1M4 81.5h3m4 0h2m2 0h1m2 0h1m1 0h2m3 0h3m4 0h2m1 0h1m4 0h1m1 0h4m2 0h1m1 0h1m4 0h4m4 0h1m3 0h1m2 0h1m1 0h2m1 0h3m3 0h4m6 0h2m1 0h1m1 0h1m2 0h2m2 0h1m1 0h3m5 0h2m1 0h2m1 0h1m1 0h2m1 0h1m1 0h2m6 0h1m1 0h1m1 0h2m5 0h3m1 0h1m2 0h1m3 0h2m1 0h2m1 0h1m1 0h1m1 0h3m1 0h1m5 0h1m2 0h1M4 82.5h1m2 0h1m2 0h2m2 0h2m1 0h1m2 0h2m1 0h2m1 0h2m1 0h1m1 0h6m3 0h2m5 0h1m3 0h3m1 0h1m3 0h2m4 0h1m1 0h2m1 0h3m6 0h4m1 0h2m2 0h3m4 0h5m1 0h2m1 0h1m3 0h1m2 0h1m3 0h2m8 0h1m1 0h1m1 0h1m1 0h1m1 0h3m2 0h1m4 0h3m2 0h2m1 0h1m1 0h1m5 0h5m5 0h1m4 0h2m2 0h1M4 83.5h1m1 0h2m3 0h1m3 0h2m1 0h2m2 0h1m1 0h2m3 0h3m1 0h5m1 0h3m3 0h3m1 0h1m3 0h1m4 0h1m3 0h1m1 0h3m2 0h1m4 0h1m1 0h1m1 0h1m2 0h1m3 0h2m2 0h2m1 0h1m3 0h2m1 0h1m2 0h1m3 0h3m1 0h2m1 0h1m1 0h1m1 0h4m7 0h1m3 0h3m5 0h2m2 0h2m1 0h1m3 0h2m1 0h2m1 0h1m2 0h2m1 0h1m1 0h2m4 0h2m5 0h2M4 84.5h1m5 0h1m1 0h1m1 0h2m1 0h3m1 0h2m1 0h3m1 0h1m1 0h1m3 0h1m1 0h1m1 0h2m2 0h1m1 0h2m1 0h1m1 0h3m1 0h3m1 0h1m2 0h4m3 0h1m1 0h1m4 0h3m4 0h1m1 0h1m2 0h2m1 0h1m7 0h1m2 0h1m2 0h1m1 0h1m3 0h1m2 0h1m3 0h1m1 0h1m1 0h2m3 0h1m1 0h6m7 0h1m1 0h1m2 0h3m2 0h1m1 0h2m2 0h1m5 0h1m1 0h1m3 0h1m1 0h1m1 0h3m1 0h1M7 85.5h1m1 0h1m2 0h1m1 0h2m2 0h1m6 0h1m1 0h2m1 0h5m1 0h2m3 0h2m1 0h1m1 0h1m1 0h1m2 0h1m1 0h1m2 0h4m2 0h1m1 0h2m1 0h4m1 0h3m3 0h1m1 0h1m1 0h2m1 0h1m3 0h1m4 0h1m2 0h1m1 0h2m5 0h3m2 0h2m2 0h1m6 0h4m3 0h1m6 0h1m1 0h1m2 0h1m7 0h1m4 0h1m1 0h2m3 0h2m2 0h1m1 0h3m1 0h4m1 0h1m1 0h1m1 0h1M5 86.5h1m1 0h1m1 0h3m2 0h2m2 0h1m2 0h4m4 0h1m2 0h3m2 0h1m1 0h1m3 0h1m1 0h1m1 0h1m3 0h3m1 0h1m1 0h3m7 0h4m1 0h1m6 0h4m1 0h1m3 0h1m1 0h1m2 0h1m1 0h4m1 0h1m1 0h2m1 0h1m2 0h5m1 0h6m1 0h1m1 0h1m1 0h1m5 0h1m1 0h4m1 0h7m1 0h1m1 0h2m4 0h1m5 0h1m11 0h1m1 0h2m1 0h1m1 0h1M4 87.5h2m2 0h1m2 0h2m6 0h1m3 0h1m1 0h1m1 0h3m4 0h1m4 0h1m5 0h2m2 0h1m1 0h1m3 0h10m1 0h2m3 0h1m4 0h3m7 0h1m3 0h1m1 0h1m1 0h1m3 0h1m4 0h3m2 0h1m1 0h1m4 0h1m1 0h4m2 0h2m5 0h3m1 0h3m3 0h1m1 0h1m1 0h2m1 0h1m1 0h1m4 0h2m4 0h1m4 0h1m1 0h1m1 0h1m3 0h1m4 0h3M4 88.5h1m1 0h10m2 0h2m1 0h1m1 0h2m2 0h2m2 0h12m2 0h1m1 0h4m1 0h4m3 0h7m5 0h1m2 0h6m1 0h1m1 0h1m1 0h2m1 0h11m1 0h2m5 0h1m1 0h1m2 0h3m1 0h6m3 0h1m1 0h4m1 0h2m1 0h1m4 0h1m1 0h1m1 0h9m3 0h2m1 0h5m2 0h2m1 0h2m1 0h5m2 0h1M5 89.5h1m2 0h1m3 0h1m1 0h1m5 0h1m1 0h1m1 0h1m3 0h1m1 0h1m1 0h1m3 0h4m2 0h3m3 0h5m1 0h1m1 0h2m1 0h2m3 0h1m1 0h1m3 0h1m6 0h1m3 0h1m2 0h1m2 0h2m3 0h1m1 0h1m1 0h2m1 0h1m1 0h1m1 0h1m2 0h1m1 0h1m3 0h1m3 0h1m3 0h3m1 0h3m4 0h1m2 0h1m1 0h1m1 0h2m4 0h1m3 0h1m3 0h1m2 0h2m2 0h1m4 0h2m2 0h2m2 0h1m3 0h1M8 90.5h1m1 0h1m1 0h1m1 0h3m2 0h1m2 0h1m3 0h1m1 0h3m1 0h1m1 0h1m1 0h2m1 0h1m5 0h1m6 0h2m1 0h1m1 0h4m1 0h1m1 0h2m1 0h4m1 0h1m6 0h4m1 0h2m2 0h1m1 0h1m1 0h1m2 0h4m1 0h3m1 0h1m2 0h4m3 0h3m1 0h1m1 0h2m7 0h1m2 0h7m5 0h1m1 0h1m1 0h1m1 0h2m1 0h2m3 0h1m1 0h2m3 0h1m3 0h4m1 0h1m1 0h1m1 0h2M6 91.5h3m3 0h3m3 0h1m2 0h1m2 0h1m2 0h1m1 0h1m1 0h2m3 0h1m1 0h4m1 0h1m1 0h2m2 0h1m1 0h2m5 0h1m1 0h1m3 0h2m1 0h1m3 0h1m1 0h6m2 0h1m3 0h2m1 0h1m3 0h1m3 0h1m2 0h1m1 0h4m3 0h1m2 0h1m2 0h1m1 0h1m3 0h4m1 0h1m2 0h1m2 0h3m1 0h4m1 0h5m3 0h2m1 0h4m4 0h2m2 0h1m1 0h2m2 0h1m2 0h1m3 0h3M5 92.5h1m2 0h6m1 0h2m2 0h1m2 0h3m1 0h2m1 0h2m1 0h8m2 0h1m1 0h1m4 0h2m1 0h4m4 0h6m1 0h1m1 0h1m6 0h5m1 0h2m2 0h7m2 0h1m3 0h3m4 0h1m3 0h1m1 0h2m1 0h6m7 0h5m2 0h1m1 0h1m1 0h10m1 0h1m1 0h1m2 0h4m1 0h3m1 0h1m2 0h1m2 0h1m1 0h9M5 93.5h3m1 0h1m2 0h2m1 0h2m1 0h1m2 0h2m3 0h1m3 0h1m1 0h1m2 0h3m3 0h1m1 0h1m1 0h1m2 0h1m3 0h3m1 0h2m1 0h2m1 0h1m2 0h2m4 0h2m2 0h1m2 0h1m2 0h2m3 0h1m1 0h1m4 0h5m2 0h1m5 0h4m2 0h1m3 0h3m1 0h8m2 0h2m1 0h2m1 0h1m1 0h2m1 0h2m2 0h2m1 0h3m1 0h2m1 0h3m6 0h1m1 0h1m1 0h1m1 0h4m2 0h2m2 0h1M8 94.5h1m1 0h1m2 0h1m1 0h2m2 0h1m2 0h1m1 0h2m5 0h2m1 0h1m1 0h2m1 0h1m2 0h1m1 0h1m1 0h1m4 0h1m6 0h2m3 0h1m4 0h2m2 0h2m3 0h1m1 0h2m1 0h1m5 0h1m2 0h1m5 0h3m1 0h2m7 0h1m2 0h3m1 0h2m2 0h1m1 0h3m4 0h1m2 0h2m8 0h4m4 0h1m1 0h3m4 0h2m1 0h1m5 0h1m1 0h3m1 0h3M5 95.5h1m1 0h1m1 0h1m1 0h1m1 0h1m2 0h1m1 0h1m6 0h1m2 0h1m3 0h2m1 0h2m2 0h2m2 0h5m1 0h1m3 0h1m1 0h4m1 0h2m1 0h1m2 0h2m2 0h1m2 0h2m1 0h1m1 0h2m3 0h1m2 0h3m1 0h1m4 0h1m1 0h2m3 0h10m1 0h5m3 0h2m2 0h2m1 0h1m2 0h1m1 0h1m1 0h1m1 0h1m1 0h2m1 0h1m2 0h1m2 0h2m1 0h1m2 0h1m4 0h2m5 0h1m2 0h1m4 0h2m1 0h3M4 96.5h1m5 0h1m1 0h1m1 0h2m1 0h7m1 0h2m2 0h4m2 0h1m4 0h1m1 0h1m1 0h1m3 0h1m1 0h2m2 0h1m1 0h2m1 0h1m1 0h4m2 0h1m1 0h2m4 0h2m5 0h1m4 0h1m1 0h2m1 0h1m1 0h2m4 0h1m2 0h1m1 0h2m3 0h1m1 0h1m3 0h1m2 0h1m1 0h1m1 0h1m1 0h1m2 0h1m1 0h1m2 0h1m1 0h3m1 0h2m1 0h1m1 0h1m2 0h2m3 0h2m1 0h2m4 0h2m1 0h1m2 0h1m2 0h1m1 0h1m2 0h1m1 0h1m1 0h2M4 97.5h3m1 0h2m4 0h3m1 0h2m3 0h1m3 0h6m1 0h3m1 0h1m1 0h3m5 0h1m1 0h7m1 0h5m1 0h1m3 0h4m1 0h2m2 0h1m1 0h3m3 0h1m2 0h1m2 0h1m2 0h2m1 0h1m6 0h1m1 0h2m3 0h3m3 0h2m1 0h3m1 0h1m1 0h2m3 0h1m1 0h4m1 0h1m2 0h1m1 0h1m1 0h8m1 0h1m1 0h3m1 0h5m3 0h2m1 0h1m1 0h4m3 0h1M4 98.5h2m1 0h12m1 0h1m5 0h1m1 0h2m5 0h1m1 0h1m2 0h2m1 0h1m1 0h1m1 0h1m1 0h5m5 0h1m2 0h2m3 0h2m1 0h1m1 0h1m6 0h2m1 0h3m2 0h1m1 0h1m2 0h1m2 0h6m1 0h1m5 0h4m2 0h4m1 0h1m2 0h1m1 0h1m5 0h1m3 0h3m1 0h6m1 0h2m2 0h2m2 0h3m3 0h5m2 0h2m5 0h2m1 0h2m1 0h1M4 99.5h1m1 0h1m2 0h1m6 0h3m1 0h3m2 0h1m3 0h1m3 0h1m1 0h4m7 0h1m2 0h1m2 0h1m3 0h1m1 0h3m4 0h2m2 0h1m1 0h1m3 0h3m1 0h1m1 0h1m4 0h3m2 0h2m3 0h3m4 0h3m2 0h3m2 0h3m2 0h5m5 0h3m2 0h3m1 0h1m1 0h1m5 0h1m2 0h2m1 0h2m1 0h1m2 0h1m2 0h1m5 0h1m1 0h2m8 0h1M5 100.5h2m1 0h1m1 0h4m1 0h3m1 0h3m1 0h1m2 0h3m1 0h2m2 0h1m3 0h1m2 0h3m1 0h1m4 0h2m1 0h4m4 0h4m1 0h2m4 0h1m4 0h3m1 0h2m3 0h2m1 0h1m2 0h4m1 0h6m2 0h2m5 0h1m1 0h5m1 0h1m1 0h1m4 0h4m1 0h1m6 0h1m2 0h1m2 0h1m1 0h2m1 0h1m1 0h2m2 0h4m1 0h2m2 0h1m1 0h2m1 0h1m1 0h1m4 0h1m2 0h1M6 101.5h1m1 0h2m5 0h2m1 0h1m2 0h1m1 0h1m1 0h2m1 0h2m1 0h1m1 0h5m1 0h3m1 0h2m3 0h1m1 0h1m4 0h2m2 0h1m1 0h5m3 0h7m3 0h2m2 0h4m1 0h2m1 0h1m2 0h1m2 0h1m1 0h1m3 0h1m1 0h2m2 0h1m2 0h1m2 0h2m1 0h1m1 0h2m1 0h5m1 0h1m1 0h1m1 0h4m1 0h1m1 0h1m2 0h4m1 0h3m1 0h4m1 0h2m2 0h2m1 0h1m2 0h2m1 0h6m2 0h1m1 0h1M7 102.5h1m2 0h4m2 0h2m1 0h3m3 0h2m1 0h2m2 0h2m1 0h1m2 0h2m1 0h1m3 0h2m5 0h1m1 0h1m3 0h1m2 0h1m1 0h2m2 0h2m1 0h2m1 0h1m3 0h1m1 0h1m1 0h4m1 0h1m1 0h1m7 0h5m1 0h1m4 0h1m1 0h2m3 0h2m1 0h2m2 0h4m1 0h1m1 0h1m1 0h1m1 0h1m3 0h2m1 0h5m6 0h2m2 0h2m3 0h2m5 0h2m3 0h1m2 0h2m3 0h1M9 103.5h1m2 0h3m2 0h1m2 0h4m1 0h3m2 0h1m1 0h2m1 0h1m2 0h1m5 0h1m1 0h3m6 0h1m2 0h4m1 0h2m1 0h1m2 0h1m1 0h1m1 0h2m1 0h3m6 0h1m1 0h2m1 0h1m1 0h2m2 0h4m2 0h2m2 0h3m1 0h1m2 0h2m2 0h1m1 0h1m3 0h2m4 0h2m4 0h1m4 0h1m1 0h1m1 0h1m2 0h2m2 0h1m2 0h1m2 0h1m3 0h1m1 0h1m2 0h4m2 0h1m3 0h1m1 0h2M4 104.5h2m1 0h4m1 0h2m3 0h1m2 0h3m1 0h2m1 0h1m2 0h3m1 0h2m1 0h1m2 0h4m4 0h1m3 0h5m4 0h2m1 0h3m2 0h1m4 0h3m4 0h2m1 0h1m2 0h2m2 0h2m1 0h2m2 0h4m5 0h1m4 0h1m1 0h2m7 0h1m3 0h1m2 0h2m1 0h1m1 0h1m1 0h1m2 0h4m1 0h1m1 0h2m1 0h2m3 0h6m1 0h1m7 0h1m4 0h3M7 105.5h2m2 0h2m3 0h1m3 0h3m6 0h1m1 0h5m2 0h1m1 0h2m1 0h4m1 0h2m1 0h1m2 0h3m4 0h6m1 0h6m1 0h3m2 0h3m2 0h2m2 0h1m1 0h1m1 0h2m5 0h2m1 0h1m1 0h5m2 0h1m4 0h2m1 0h1m1 0h3m1 0h1m2 0h2m2 0h2m1 0h3m4 0h1m1 0h3m2 0h3m2 0h2m1 0h2m2 0h3m2 0h3m1 0h2m1 0h1m1 0h3m1 0h1M4 106.5h1m1 0h1m1 0h3m2 0h3m2 0h1m1 0h3m1 0h1m1 0h2m2 0h1m1 0h3m1 0h1m6 0h1m6 0h4m1 0h1m1 0h3m4 0h2m3 0h2m1 0h1m2 0h1m1 0h1m1 0h2m1 0h1m1 0h2m5 0h1m1 0h1m2 0h4m1 0h2m1 0h2m4 0h3m1 0h2m6 0h2m5 0h3m2 0h1m1 0h8m2 0h2m1 0h1m1 0h1m2 0h1m2 0h1m1 0h2m4 0h3m1 0h1m1 0h8M4 107.5h1m1 0h1m2 0h1m3 0h2m1 0h2m2 0h1m4 0h1m3 0h2m1 0h1m1 0h3m1 0h2m1 0h1m3 0h3m1 0h1m2 0h2m4 0h2m3 0h1m1 0h2m3 0h1m2 0h1m2 0h3m6 0h3m2 0h3m3 0h1m2 0h8m3 0h2m1 0h2m1 0h2m1 0h1m1 0h2m1 0h2m2 0h1m1 0h1m7 0h1m1 0h1m1 0h1m1 0h1m1 0h1m1 0h2m1 0h1m1 0h3m4 0h1m2 0h1m1 0h3m1 0h1m2 0h1m5 0h1M5 108.5h1m1 0h1m2 0h1m2 0h4m3 0h1m1 0h1m2 0h2m2 0h2m5 0h2m1 0h1m2 0h1m6 0h2m3 0h1m5 0h9m2 0h1m2 0h1m2 0h1m1 0h1m2 0h2m3 0h4m1 0h2m3 0h1m1 0h5m3 0h1m1 0h2m1 0h2m1 0h2m7 0h1m3 0h3m1 0h1m3 0h5m1 0h1m6 0h2m4 0h1m1 0h2m2 0h2m1 0h1m4 0h2m1 0h1m2 0h1m1 0h1M7 109.5h1m1 0h1m1 0h1m1 0h2m4 0h2m1 0h1m1 0h1m1 0h2m1 0h2m1 0h2m4 0h3m2 0h9m1 0h6m1 0h2m1 0h1m2 0h1m1 0h3m1 0h1m3 0h1m1 0h1m1 0h1m1 0h1m1 0h2m2 0h2m1 0h1m2 0h2m1 0h1m2 0h2m1 0h1m1 0h2m2 0h1m2 0h2m3 0h2m1 0h2m1 0h1m2 0h2m1 0h1m1 0h1m2 0h3m2 0h1m1 0h1m1 0h1m1 0h3m2 0h1m1 0h8m2 0h3m2 0h1m1 0h2m1 0h3m1 0h1m2 0h2M4 110.5h1m1 0h2m1 0h2m1 0h1m1 0h1m2 0h1m1 0h1m3 0h2m10 0h1m4 0h2m4 0h1m2 0h1m2 0h1m2 0h1m6 0h2m1 0h1m2 0h1m1 0h1m1 0h1m4 0h1m4 0h1m1 0h2m1 0h2m4 0h1m1 0h1m2 0h1m1 0h1m1 0h3m2 0h5m2 0h4m1 0h1m1 0h2m3 0h1m2 0h2m1 0h3m1 0h2m2 0h1m2 0h1m1 0h6m2 0h2m3 0h3m4 0h3m3 0h8M6 111.5h2m1 0h1m4 0h1m3 0h1m3 0h1m2 0h1m2 0h2m1 0h2m5 0h2m4 0h4m1 0h1m1 0h1m1 0h1m4 0h4m4 0h2m1 0h1m3 0h4m1 0h2m1 0h1m3 0h2m1 0h1m1 0h1m1 0h1m3 0h1m5 0h3m1 0h5m2 0h1m1 0h1m1 0h2m1 0h2m1 0h1m3 0h1m11 0h1m2 0h1m1 0h6m1 0h1m2 0h1m5 0h1m5 0h2m4 0h1m2 0h1m1 0h3M4 112.5h1m1 0h2m2 0h5m2 0h3m2 0h1m1 0h3m1 0h1m1 0h1m4 0h1m3 0h1m1 0h1m1 0h2m1 0h1m1 0h3m3 0h3m4 0h2m1 0h2m1 0h1m1 0h1m1 0h1m2 0h1m1 0h3m3 0h1m2 0h1m1 0h3m1 0h2m1 0h1m2 0h4m2 0h1m6 0h3m5 0h3m2 0h1m3 0h4m1 0h1m2 0h3m1 0h1m2 0h1m2 0h1m1 0h1m2 0h1m2 0h1m2 0h1m1 0h1m3 0h1m1 0h2m1 0h5m1 0h1m2 0h1m2 0h1M4 113.5h1m7 0h1m6 0h1m4 0h3m1 0h1m2 0h1m1 0h3m5 0h2m1 0h1m1 0h1m1 0h1m1 0h1m3 0h1m1 0h1m3 0h1m1 0h5m1 0h1m2 0h3m2 0h4m1 0h2m1 0h1m4 0h1m4 0h1m2 0h1m2 0h1m2 0h1m2 0h2m3 0h3m4 0h1m1 0h3m1 0h1m1 0h1m8 0h4m4 0h7m1 0h4m1 0h2m1 0h1m1 0h2m1 0h1m1 0h3m3 0h4m2 0h3M4 114.5h1m2 0h5m1 0h4m1 0h1m3 0h1m5 0h4m1 0h5m2 0h1m1 0h2m1 0h3m1 0h4m5 0h2m1 0h1m6 0h1m1 0h1m4 0h1m3 0h7m1 0h3m1 0h1m3 0h1m1 0h2m2 0h2m4 0h4m1 0h2m1 0h1m13 0h2m1 0h1m1 0h1m1 0h1m2 0h6m1 0h1m4 0h1m1 0h3m1 0h1m2 0h4m3 0h1m1 0h1m1 0h1m1 0h5m1 0h1M4 115.5h1m1 0h2m3 0h4m1 0h5m1 0h1m3 0h4m2 0h1m3 0h2m1 0h1m1 0h4m1 0h3m1 0h2m1 0h1m1 0h1m2 0h1m1 0h2m2 0h1m1 0h2m3 0h2m1 0h1m1 0h3m2 0h1m1 0h1m2 0h1m1 0h3m1 0h1m1 0h4m3 0h1m1 0h2m1 0h1m1 0h1m5 0h2m3 0h1m8 0h5m2 0h1m3 0h1m2 0h1m2 0h1m2 0h1m2 0h5m1 0h1m2 0h2m1 0h1m2 0h2m1 0h1m2 0h1m5 0h2M4 116.5h1m1 0h1m1 0h5m2 0h2m1 0h1m3 0h2m1 0h3m4 0h5m1 0h1m1 0h1m3 0h1m4 0h1m6 0h1m3 0h5m1 0h2m2 0h1m1 0h3m2 0h3m1 0h1m1 0h1m2 0h1m1 0h5m5 0h1m1 0h2m1 0h1m1 0h3m4 0h2m2 0h6m1 0h1m4 0h5m2 0h1m3 0h2m1 0h1m1 0h7m2 0h1m1 0h5m2 0h2m1 0h1m3 0h9M4 117.5h5m3 0h2m1 0h1m1 0h1m2 0h10m2 0h1m3 0h4m1 0h1m1 0h2m1 0h4m5 0h2m1 0h1m1 0h1m3 0h1m3 0h2m1 0h2m1 0h1m1 0h1m2 0h1m5 0h1m1 0h2m3 0h1m1 0h1m2 0h1m3 0h1m4 0h1m2 0h1m3 0h1m1 0h2m3 0h1m1 0h3m1 0h2m1 0h1m3 0h6m4 0h2m3 0h1m1 0h1m1 0h1m1 0h1m1 0h2m3 0h1m1 0h6m2 0h2m3 0h1m1 0h3M5 118.5h1m1 0h2m1 0h1m1 0h7m3 0h2m1 0h1m1 0h2m1 0h3m1 0h1m1 0h1m5 0h2m1 0h2m5 0h1m1 0h1m3 0h1m1 0h1m1 0h1m1 0h1m3 0h3m1 0h1m3 0h2m1 0h2m1 0h1m1 0h2m1 0h2m1 0h1m1 0h1m2 0h5m2 0h2m3 0h2m1 0h1m1 0h1m1 0h1m1 0h1m1 0h1m1 0h1m2 0h1m2 0h2m5 0h1m1 0h1m3 0h1m1 0h1m1 0h2m1 0h1m1 0h1m1 0h1m6 0h1m2 0h2m1 0h1m2 0h2m1 0h4m1 0h1m1 0h1m1 0h2M4 119.5h1m2 0h2m3 0h3m1 0h4m3 0h1m1 0h1m6 0h1m3 0h2m1 0h1m3 0h2m1 0h2m1 0h1m5 0h6m3 0h1m1 0h2m1 0h1m1 0h1m3 0h2m1 0h1m2 0h1m1 0h1m1 0h2m1 0h1m3 0h2m1 0h3m4 0h2m2 0h1m1 0h1m1 0h1m3 0h3m3 0h1m3 0h2m1 0h1m1 0h3m1 0h3m5 0h4m3 0h2m2 0h1m1 0h4m8 0h1m2 0h1m2 0h1m3 0h1m1 0h1M4 120.5h1m2 0h6m2 0h1m1 0h2m2 0h2m6 0h1m1 0h6m1 0h1m3 0h1m2 0h1m1 0h2m2 0h4m1 0h2m1 0h6m2 0h1m2 0h1m2 0h2m1 0h2m1 0h1m2 0h11m7 0h2m3 0h2m2 0h5m1 0h7m5 0h4m1 0h2m3 0h1m1 0h10m1 0h2m1 0h1m2 0h3m1 0h1m1 0h4m2 0h9m2 0h2M7 121.5h2m2 0h1m1 0h4m1 0h1m4 0h1m2 0h4m3 0h1m3 0h3m1 0h1m2 0h2m2 0h1m4 0h5m1 0h2m1 0h3m3 0h1m2 0h2m1 0h1m1 0h2m1 0h3m2 0h1m2 0h1m1 0h2m1 0h2m3 0h1m1 0h2m2 0h1m1 0h2m2 0h1m2 0h2m4 0h2m1 0h2m1 0h1m1 0h1m4 0h1m2 0h6m2 0h1m5 0h3m1 0h1m1 0h2m2 0h2m1 0h2m1 0h2m6 0h2m3 0h1m2 0h1M4 122.5h1m1 0h1m2 0h3m1 0h1m1 0h1m2 0h1m2 0h1m2 0h4m2 0h3m2 0h1m1 0h1m1 0h1m3 0h1m2 0h2m3 0h2m2 0h1m5 0h2m1 0h1m3 0h1m1 0h3m4 0h1m1 0h7m4 0h1m3 0h2m2 0h2m1 0h3m1 0h1m2 0h3m5 0h4m2 0h1m1 0h3m1 0h4m1 0h1m2 0h1m1 0h2m1 0h2m1 0h1m2 0h2m1 0h1m4 0h1m1 0h1m2 0h1m2 0h1m1 0h4m2 0h2m1 0h1m1 0h3M5 123.5h1m2 0h1m2 0h1m1 0h2m3 0h4m2 0h3m4 0h2m2 0h1m2 0h2m1 0h1m3 0h2m1 0h1m2 0h2m4 0h1m2 0h1m1 0h2m2 0h1m7 0h1m1 0h4m3 0h1m2 0h4m1 0h1m1 0h2m1 0h2m5 0h2m1 0h1m1 0h2m1 0h7m1 0h1m1 0h4m4 0h6m2 0h1m2 0h3m3 0h1m2 0h1m1 0h2m1 0h1m5 0h2m4 0h1m1 0h2m1 0h3m2 0h1m1 0h2M5 124.5h1m1 0h6m2 0h1m4 0h5m1 0h2m1 0h1m1 0h1m2 0h6m1 0h1m7 0h3m1 0h4m1 0h2m5 0h2m5 0h1m1 0h1m2 0h1m1 0h1m5 0h2m3 0h3m1 0h2m1 0h1m2 0h2m1 0h1m5 0h4m2 0h1m3 0h1m5 0h1m1 0h2m1 0h4m5 0h2m1 0h4m2 0h1m1 0h1m1 0h1m2 0h2m1 0h2m3 0h1m3 0h4m2 0h3m1 0h1m2 0h1M7 125.5h1m3 0h3m1 0h3m5 0h1m1 0h5m3 0h1m2 0h5m2 0h3m2 0h1m1 0h1m3 0h2m1 0h1m2 0h1m1 0h1m1 0h1m2 0h1m1 0h1m3 0h1m1 0h1m4 0h1m1 0h1m1 0h1m3 0h1m2 0h2m1 0h4m8 0h2m3 0h2m2 0h1m4 0h1m2 0h2m1 0h2m5 0h7m1 0h1m5 0h3m3 0h8m1 0h4m2 0h2m1 0h3m3 0h2m1 0h1M4 126.5h2m4 0h3m1 0h1m1 0h1m2 0h3m1 0h3m1 0h3m1 0h1m1 0h2m3 0h1m1 0h2m1 0h1m1 0h2m3 0h4m4 0h1m2 0h2m1 0h2m1 0h2m1 0h3m4 0h1m2 0h1m1 0h4m3 0h1m5 0h2m1 0h1m2 0h1m1 0h1m1 0h1m2 0h3m1 0h3m3 0h1m1 0h2m2 0h1m2 0h3m1 0h1m1 0h6m2 0h1m1 0h2m1 0h5m3 0h2m4 0h2m1 0h1m2 0h1m2 0h1m1 0h2m1 0h1m1 0h3M7 127.5h2m2 0h2m1 0h5m1 0h2m2 0h4m2 0h1m1 0h2m1 0h4m6 0h2m1 0h1m2 0h2m4 0h3m3 0h5m1 0h1m3 0h1m1 0h2m1 0h1m4 0h1m1 0h4m2 0h1m1 0h2m1 0h1m1 0h2m1 0h6m1 0h1m1 0h1m3 0h4m1 0h1m1 0h3m8 0h1m5 0h1m3 0h4m7 0h2m2 0h1m1 0h2m2 0h2m1 0h1m5 0h1m1 0h1m1 0h1m1 0h2M5 128.5h2m1 0h1m1 0h1m1 0h7m1 0h1m1 0h5m1 0h1m3 0h3m3 0h1m1 0h1m1 0h11m1 0h1m1 0h1m4 0h1m1 0h1m2 0h2m2 0h2m1 0h1m1 0h1m1 0h2m1 0h2m1 0h1m1 0h1m1 0h3m2 0h3m2 0h1m1 0h2m5 0h2m1 0h4m4 0h2m2 0h1m5 0h4m1 0h2m5 0h1m1 0h2m1 0h1m1 0h7m2 0h4m1 0h3m1 0h2m2 0h1m2 0h1m1 0h3m1 0h1m1 0h2M4 129.5h1m1 0h4m1 0h3m1 0h1m1 0h1m2 0h2m2 0h5m2 0h1m1 0h2m5 0h5m3 0h2m3 0h6m1 0h3m1 0h2m1 0h5m3 0h2m1 0h3m1 0h5m2 0h2m2 0h2m4 0h3m1 0h1m1 0h2m3 0h3m2 0h1m2 0h1m2 0h4m1 0h1m6 0h2m1 0h1m1 0h1m3 0h2m3 0h5m2 0h5m3 0h3m2 0h2m1 0h1m1 0h1m4 0h1m2 0h1M4 130.5h7m6 0h1m3 0h2m1 0h2m2 0h1m1 0h1m1 0h6m1 0h1m1 0h2m2 0h1m1 0h1m2 0h1m1 0h1m1 0h2m2 0h2m1 0h1m2 0h1m2 0h2m1 0h4m1 0h1m3 0h4m1 0h2m1 0h1m3 0h1m1 0h1m1 0h6m1 0h1m1 0h1m2 0h3m4 0h1m1 0h3m1 0h1m1 0h1m1 0h1m1 0h2m3 0h1m5 0h3m2 0h1m2 0h2m2 0h1m2 0h3m2 0h1m2 0h1m1 0h2m1 0h1m3 0h1m4 0h1m1 0h4M6 131.5h1m2 0h1m2 0h2m2 0h1m2 0h1m3 0h2m1 0h2m2 0h1m1 0h2m2 0h3m1 0h2m1 0h2m1 0h2m4 0h1m2 0h1m1 0h2m4 0h1m2 0h1m6 0h2m1 0h1m1 0h2m5 0h2m1 0h2m3 0h1m2 0h1m4 0h1m2 0h2m1 0h1m3 0h6m4 0h1m1 0h1m1 0h1m2 0h3m1 0h2m1 0h1m4 0h2m2 0h1m4 0h1m1 0h2m1 0h2m3 0h3m2 0h1m1 0h1m2 0h1m1 0h2m1 0h3m1 0h3M4 132.5h2m1 0h2m1 0h2m1 0h5m1 0h1m1 0h2m2 0h1m7 0h1m2 0h2m1 0h4m1 0h1m3 0h3m3 0h3m3 0h2m1 0h1m1 0h1m1 0h1m2 0h2m1 0h1m1 0h4m4 0h1m1 0h1m2 0h4m2 0h1m2 0h1m2 0h4m1 0h2m2 0h1m1 0h2m4 0h1m1 0h1m3 0h1m3 0h2m1 0h4m5 0h2m1 0h4m2 0h3m1 0h4m1 0h4m1 0h3m3 0h4m3 0h1m1 0h1m2 0h1M5 133.5h3m1 0h1m2 0h1m1 0h1m2 0h1m1 0h3m3 0h3m3 0h2m1 0h1m2 0h1m1 0h1m1 0h6m1 0h1m1 0h2m1 0h2m1 0h1m3 0h6m1 0h4m1 0h3m1 0h1m1 0h1m1 0h3m1 0h2m1 0h1m2 0h1m1 0h1m1 0h1m1 0h2m1 0h1m1 0h1m1 0h1m2 0h2m1 0h1m2 0h2m1 0h2m1 0h1m1 0h3m1 0h1m1 0h2m3 0h1m1 0h2m1 0h1m1 0h2m3 0h1m1 0h1m2 0h8m2 0h1m2 0h5m1 0h2m3 0h2m3 0h1m1 0h2M4 134.5h2m1 0h1m1 0h3m2 0h1m1 0h3m2 0h1m2 0h4m1 0h1m1 0h2m1 0h1m1 0h2m1 0h1m2 0h2m1 0h1m3 0h1m1 0h2m2 0h1m3 0h1m1 0h2m1 0h2m2 0h1m1 0h1m1 0h2m3 0h1m3 0h3m12 0h4m2 0h3m4 0h2m3 0h1m2 0h6m1 0h3m2 0h2m7 0h3m3 0h5m2 0h1m2 0h2m4 0h1m1 0h2m2 0h1m2 0h1m1 0h3m1 0h2m1 0h2M4 135.5h2m1 0h3m4 0h2m1 0h1m2 0h1m2 0h1m2 0h3m1 0h2m1 0h1m2 0h7m1 0h1m1 0h2m1 0h1m2 0h2m1 0h2m1 0h1m1 0h2m1 0h1m1 0h3m6 0h1m1 0h3m2 0h1m1 0h1m2 0h3m2 0h1m4 0h2m2 0h5m3 0h2m4 0h3m2 0h1m3 0h1m1 0h1m3 0h4m2 0h1m1 0h4m2 0h2m2 0h2m4 0h2m2 0h1m1 0h5m1 0h3m1 0h1m2 0h1m2 0h2m1 0h2M4 136.5h2m3 0h2m4 0h1m1 0h2m2 0h4m2 0h2m3 0h3m2 0h2m5 0h1m2 0h5m2 0h2m1 0h1m1 0h2m2 0h1m1 0h2m2 0h2m2 0h1m2 0h1m1 0h1m2 0h1m6 0h1m1 0h1m1 0h4m2 0h2m3 0h1m3 0h1m1 0h1m2 0h3m3 0h2m7 0h2m1 0h1m1 0h2m1 0h1m1 0h1m2 0h3m1 0h2m1 0h4m2 0h6m1 0h1m2 0h1m3 0h6m2 0h1m1 0h1M5 137.5h1m1 0h1m1 0h1m3 0h1m1 0h2m1 0h1m1 0h3m1 0h1m2 0h1m1 0h1m2 0h1m4 0h2m4 0h2m1 0h3m1 0h3m4 0h6m1 0h1m2 0h1m2 0h4m6 0h1m1 0h3m1 0h2m2 0h3m1 0h4m3 0h1m1 0h1m1 0h2m2 0h1m1 0h2m2 0h1m1 0h6m1 0h1m1 0h1m4 0h1m1 0h2m1 0h1m1 0h2m5 0h1m2 0h1m1 0h4m1 0h2m1 0h1m2 0h2m3 0h4m1 0h2m3 0h1m1 0h3M4 138.5h2m1 0h4m6 0h2m2 0h1m3 0h1m2 0h1m1 0h1m2 0h1m1 0h1m1 0h3m1 0h1m1 0h1m3 0h1m1 0h4m1 0h2m1 0h2m5 0h1m2 0h4m1 0h2m5 0h6m4 0h1m3 0h1m2 0h1m1 0h2m3 0h2m2 0h1m1 0h2m1 0h3m1 0h1m1 0h1m1 0h3m1 0h4m1 0h1m3 0h1m1 0h3m5 0h1m1 0h2m1 0h1m4 0h1m6 0h1m11 0h3M7 139.5h1m1 0h1m1 0h4m2 0h2m2 0h3m1 0h2m1 0h3m3 0h1m1 0h2m1 0h1m6 0h2m3 0h1m6 0h2m1 0h3m2 0h1m4 0h1m1 0h4m1 0h2m2 0h1m2 0h5m1 0h3m1 0h4m2 0h6m1 0h1m1 0h1m4 0h1m6 0h1m4 0h2m2 0h2m2 0h1m2 0h1m1 0h3m1 0h1m1 0h1m2 0h1m1 0h1m1 0h5m2 0h1m2 0h1m2 0h4m4 0h3m1 0h1m1 0h1M5 140.5h1m1 0h5m2 0h7m1 0h2m4 0h1m1 0h2m2 0h1m1 0h1m4 0h1m3 0h1m4 0h1m1 0h1m1 0h2m4 0h1m4 0h3m4 0h3m2 0h1m3 0h1m1 0h1m1 0h2m1 0h4m1 0h2m4 0h2m4 0h1m1 0h1m2 0h1m1 0h3m1 0h4m3 0h1m1 0h1m1 0h4m1 0h1m6 0h2m1 0h4m2 0h1m1 0h3m4 0h3m2 0h1m1 0h2m2 0h1m4 0h1m5 0h2M4 141.5h4m1 0h1m3 0h1m1 0h2m1 0h1m2 0h1m1 0h3m1 0h2m4 0h1m1 0h4m4 0h2m1 0h1m2 0h2m3 0h1m1 0h2m2 0h5m1 0h3m1 0h2m3 0h4m3 0h3m2 0h1m2 0h3m1 0h3m6 0h1m2 0h1m1 0h2m1 0h1m3 0h5m1 0h6m2 0h1m3 0h4m1 0h2m3 0h1m3 0h2m2 0h3m1 0h3m1 0h1m1 0h2m5 0h1m3 0h1m5 0h1M6 142.5h2m1 0h2m1 0h7m1 0h2m2 0h5m4 0h1m1 0h2m1 0h1m3 0h2m2 0h3m2 0h2m2 0h1m3 0h1m1 0h1m1 0h6m1 0h1m1 0h1m2 0h2m2 0h2m1 0h1m1 0h2m5 0h1m5 0h2m2 0h2m4 0h4m1 0h1m1 0h1m1 0h3m1 0h1m3 0h4m1 0h1m1 0h1m1 0h2m2 0h1m1 0h2m1 0h2m6 0h2m1 0h2m5 0h2m3 0h1m5 0h2m1 0h1m1 0h4M4 143.5h5m2 0h1m3 0h3m1 0h2m4 0h2m1 0h2m2 0h1m1 0h4m4 0h1m1 0h1m1 0h1m1 0h2m1 0h1m1 0h1m1 0h1m2 0h1m1 0h1m1 0h1m1 0h1m8 0h4m1 0h2m6 0h1m1 0h1m3 0h5m2 0h1m1 0h2m1 0h1m3 0h4m1 0h2m1 0h2m1 0h1m1 0h1m1 0h1m2 0h1m1 0h4m1 0h1m2 0h1m1 0h1m2 0h2m1 0h2m5 0h1m1 0h2m2 0h1m1 0h3m4 0h1m5 0h3m1 0h1m1 0h1M8 144.5h5m1 0h2m1 0h1m3 0h2m2 0h1m1 0h1m3 0h6m2 0h1m1 0h2m4 0h2m1 0h2m1 0h1m5 0h6m2 0h1m3 0h3m2 0h1m1 0h2m2 0h1m1 0h1m2 0h9m3 0h2m1 0h1m2 0h1m5 0h4m1 0h5m4 0h1m1 0h2m1 0h3m4 0h1m2 0h3m1 0h5m1 0h10m2 0h1m1 0h2m2 0h1m1 0h1m1 0h9M5 145.5h4m3 0h3m2 0h3m1 0h1m2 0h3m1 0h2m2 0h1m3 0h2m1 0h1m4 0h4m2 0h1m2 0h1m2 0h3m1 0h1m3 0h3m3 0h1m4 0h1m1 0h2m3 0h4m2 0h1m3 0h1m1 0h1m1 0h2m5 0h1m1 0h3m4 0h2m1 0h2m3 0h8m1 0h1m4 0h3m1 0h2m1 0h1m1 0h2m3 0h1m1 0h1m1 0h1m3 0h1m4 0h1m2 0h2m2 0h1m2 0h2m3 0h5M5 146.5h1m2 0h1m1 0h1m1 0h1m3 0h1m3 0h2m1 0h1m4 0h2m2 0h1m1 0h1m1 0h2m2 0h4m1 0h2m2 0h5m3 0h4m1 0h1m1 0h2m1 0h2m1 0h4m5 0h4m4 0h2m1 0h1m1 0h2m1 0h5m2 0h1m1 0h1m2 0h1m1 0h6m1 0h1m1 0h1m1 0h1m3 0h3m7 0h4m1 0h1m1 0h1m2 0h1m1 0h1m1 0h2m4 0h2m4 0h1m1 0h2m1 0h2m2 0h4m1 0h1m1 0h1m1 0h1M7 147.5h2m3 0h3m2 0h1m2 0h1m2 0h1m1 0h1m2 0h2m2 0h1m3 0h1m1 0h2m1 0h3m2 0h2m3 0h1m6 0h1m1 0h1m3 0h4m8 0h3m2 0h1m1 0h1m1 0h2m1 0h1m3 0h2m2 0h3m3 0h3m2 0h5m1 0h2m1 0h1m3 0h2m1 0h1m2 0h1m1 0h8m1 0h1m2 0h2m2 0h1m3 0h1m4 0h2m2 0h1m1 0h2m5 0h1m5 0h1m3 0h3M7 148.5h7m4 0h2m1 0h1m3 0h1m2 0h1m1 0h1m1 0h7m1 0h2m2 0h2m4 0h1m1 0h1m1 0h3m2 0h7m1 0h2m1 0h3m1 0h6m1 0h1m1 0h1m1 0h1m1 0h7m3 0h1m2 0h3m3 0h2m4 0h2m1 0h7m1 0h2m3 0h3m1 0h2m1 0h1m5 0h11m1 0h1m2 0h1m1 0h3m1 0h1m1 0h2m1 0h10m2 0h2M9 149.5h1m1 0h6m5 0h2m3 0h3m1 0h7m3 0h1m2 0h3m1 0h1m1 0h2m1 0h1m1 0h1m1 0h1m10 0h2m3 0h1m1 0h1m2 0h1m4 0h4m3 0h2m1 0h2m4 0h2m2 0h4m1 0h2m1 0h1m1 0h1m1 0h1m1 0h1m1 0h2m1 0h5m6 0h2m1 0h1m1 0h1m2 0h1m2 0h5m3 0h1m1 0h1m1 0h1m1 0h2m1 0h2m1 0h3m1 0h2m1 0h5m1 0h2m1 0h1M4 150.5h1m1 0h1m1 0h1m1 0h1m1 0h1m3 0h2m1 0h2m3 0h1m1 0h1m2 0h2m1 0h1m1 0h4m3 0h2m3 0h2m1 0h1m2 0h2m3 0h2m1 0h1m1 0h3m3 0h1m1 0h1m1 0h1m6 0h3m2 0h2m3 0h6m1 0h3m3 0h1m1 0h1m2 0h1m2 0h1m3 0h1m1 0h3m2 0h4m2 0h3m1 0h1m2 0h4m1 0h1m1 0h1m2 0h2m1 0h1m1 0h3m1 0h1m4 0h1m1 0h1m1 0h2m1 0h3m1 0h5m4 0h2M4 151.5h3m1 0h2m1 0h1m1 0h1m3 0h1m4 0h3m1 0h1m1 0h4m3 0h1m1 0h4m5 0h1m1 0h1m3 0h1m2 0h1m2 0h4m2 0h1m1 0h2m3 0h1m1 0h1m1 0h2m1 0h2m2 0h1m3 0h1m3 0h2m1 0h2m1 0h2m4 0h1m2 0h1m2 0h4m1 0h1m1 0h1m2 0h5m2 0h1m4 0h1m6 0h4m1 0h3m1 0h1m2 0h1m1 0h4m1 0h2m1 0h1m6 0h1m1 0h2m1 0h4m1 0h1m1 0h3M8 152.5h1m1 0h2m2 0h2m1 0h8m3 0h3m1 0h1m1 0h1m1 0h1m3 0h1m2 0h1m7 0h1m2 0h1m1 0h1m3 0h1m2 0h2m1 0h1m2 0h1m1 0h1m1 0h1m2 0h1m1 0h5m1 0h2m1 0h2m2 0h1m1 0h3m1 0h2m1 0h3m3 0h2m3 0h4m2 0h1m1 0h1m8 0h3m1 0h2m1 0h2m2 0h1m2 0h1m7 0h1m1 0h2m3 0h2m3 0h1m1 0h2m1 0h2m1 0h1m1 0h1m3 0h1m2 0h2M4 153.5h1m1 0h2m1 0h1m3 0h1m1 0h3m1 0h2m1 0h2m1 0h2m1 0h2m1 0h2m1 0h2m1 0h1m6 0h1m3 0h1m1 0h1m2 0h1m2 0h1m1 0h1m1 0h2m1 0h2m3 0h1m4 0h1m1 0h1m3 0h1m1 0h1m4 0h3m1 0h1m2 0h3m7 0h1m1 0h2m1 0h2m1 0h2m2 0h1m2 0h1m2 0h5m1 0h1m5 0h2m1 0h1m1 0h1m2 0h1m2 0h1m3 0h1m1 0h3m1 0h2m3 0h1m3 0h2m1 0h3m1 0h1m1 0h3m3 0h1m1 0h1M5 154.5h1m2 0h1m1 0h1m2 0h1m5 0h1m1 0h1m2 0h1m1 0h1m3 0h2m2 0h1m1 0h1m2 0h2m1 0h1m3 0h1m4 0h2m1 0h1m3 0h1m4 0h2m2 0h2m1 0h1m1 0h1m6 0h2m1 0h1m1 0h2m4 0h4m1 0h5m1 0h2m4 0h4m1 0h1m1 0h1m2 0h2m2 0h1m1 0h2m4 0h4m1 0h5m4 0h3m3 0h3m1 0h1m1 0h1m4 0h2m4 0h1m4 0h1m5 0h1M5 155.5h1m1 0h2m4 0h2m2 0h1m3 0h3m6 0h1m1 0h2m1 0h1m3 0h2m1 0h1m1 0h4m3 0h1m3 0h1m2 0h1m5 0h1m1 0h1m6 0h1m1 0h5m3 0h1m2 0h1m1 0h3m2 0h1m2 0h1m4 0h4m1 0h1m1 0h1m1 0h1m3 0h3m1 0h2m1 0h1m1 0h1m1 0h4m4 0h2m1 0h1m1 0h1m1 0h4m1 0h3m1 0h1m1 0h1m1 0h2m4 0h2m2 0h1m2 0h1m4 0h2m1 0h1m1 0h1m1 0h2M4 156.5h3m3 0h2m1 0h1m1 0h1m4 0h1m2 0h1m2 0h1m3 0h2m1 0h1m1 0h6m1 0h1m1 0h1m3 0h2m1 0h2m1 0h1m1 0h2m1 0h1m3 0h1m2 0h1m3 0h4m2 0h1m4 0h2m3 0h3m2 0h1m8 0h2m1 0h1m2 0h1m2 0h2m1 0h1m2 0h1m7 0h1m1 0h1m1 0h1m2 0h1m1 0h1m1 0h1m5 0h1m1 0h1m6 0h1m3 0h1m1 0h5m2 0h1m1 0h1m2 0h4m2 0h1m2 0h2m1 0h1M5 157.5h1m3 0h1m1 0h1m2 0h1m1 0h2m3 0h4m1 0h5m2 0h1m1 0h2m7 0h8m1 0h1m1 0h3m2 0h1m7 0h2m1 0h10m1 0h4m1 0h1m2 0h1m1 0h3m1 0h2m1 0h2m2 0h1m2 0h3m4 0h1m5 0h1m4 0h1m1 0h1m1 0h2m1 0h1m1 0h1m1 0h4m4 0h1m1 0h1m1 0h3m2 0h2m2 0h1m1 0h1m2 0h2m1 0h1m3 0h1m3 0h2m1 0h1m1 0h2m1 0h1M4 158.5h1m2 0h1m1 0h6m3 0h1m1 0h1m1 0h2m1 0h1m5 0h1m3 0h2m1 0h1m1 0h1m2 0h1m1 0h3m2 0h1m1 0h1m2 0h1m3 0h4m1 0h2m2 0h6m6 0h1m1 0h2m1 0h1m3 0h2m4 0h5m1 0h2m7 0h2m2 0h1m1 0h2m3 0h2m4 0h3m2 0h1m1 0h3m5 0h1m2 0h1m1 0h1m3 0h1m3 0h1m1 0h1m2 0h1m1 0h1m2 0h2m5 0h1m2 0h2M8 159.5h1m2 0h4m1 0h1m1 0h1m1 0h1m3 0h1m1 0h1m1 0h2m3 0h1m1 0h4m1 0h2m2 0h6m1 0h2m4 0h2m3 0h1m1 0h1m2 0h1m5 0h2m1 0h3m2 0h1m4 0h1m2 0h1m4 0h4m4 0h1m1 0h1m1 0h3m1 0h1m2 0h1m1 0h1m2 0h1m1 0h1m2 0h1m2 0h1m1 0h1m1 0h1m1 0h1m1 0h1m2 0h2m2 0h4m1 0h1m7 0h1m4 0h3m1 0h4m4 0h1m2 0h2m2 0h1m1 0h1M5 160.5h1m1 0h1m2 0h6m2 0h1m2 0h4m2 0h1m1 0h1m4 0h1m5 0h1m1 0h1m1 0h2m2 0h9m2 0h2m2 0h2m1 0h1m3 0h1m3 0h2m2 0h1m1 0h4m1 0h3m4 0h3m2 0h2m1 0h2m1 0h1m1 0h1m1 0h1m1 0h2m1 0h2m2 0h1m2 0h1m1 0h1m3 0h1m1 0h4m1 0h1m7 0h1m1 0h1m1 0h1m2 0h1m2 0h1m1 0h2m1 0h2m1 0h1m3 0h1m1 0h1m8 0h5m1 0h2M5 161.5h1m2 0h1m4 0h1m2 0h1m1 0h4m1 0h1m1 0h2m1 0h2m3 0h2m1 0h3m1 0h2m2 0h2m2 0h1m1 0h1m3 0h3m1 0h1m4 0h1m1 0h1m2 0h11m1 0h1m1 0h1m4 0h2m1 0h3m1 0h1m1 0h2m1 0h3m3 0h2m9 0h2m3 0h4m1 0h1m3 0h2m1 0h2m1 0h1m1 0h1m2 0h2m1 0h2m2 0h1m2 0h3m2 0h3m4 0h3m2 0h1m1 0h3m1 0h2m1 0h1m1 0h2M5 162.5h1m1 0h4m1 0h1m1 0h1m3 0h3m1 0h2m1 0h3m2 0h1m4 0h1m2 0h1m2 0h1m1 0h1m7 0h3m1 0h1m2 0h1m1 0h2m2 0h1m2 0h5m1 0h1m2 0h1m4 0h2m1 0h2m2 0h1m2 0h3m2 0h3m3 0h1m2 0h1m1 0h2m1 0h2m2 0h1m1 0h1m1 0h3m1 0h2m1 0h4m2 0h2m3 0h2m1 0h1m1 0h1m1 0h1m1 0h1m2 0h4m2 0h1m2 0h2m1 0h1m1 0h2m2 0h1m2 0h2m1 0h5m2 0h1M6 163.5h2m5 0h2m1 0h1m1 0h2m1 0h4m1 0h1m3 0h2m1 0h1m1 0h1m4 0h1m1 0h4m1 0h1m3 0h1m3 0h1m2 0h3m1 0h1m1 0h1m1 0h1m2 0h1m1 0h1m1 0h3m2 0h1m6 0h2m1 0h1m1 0h2m1 0h3m1 0h4m2 0h1m2 0h3m1 0h1m2 0h6m1 0h1m6 0h1m1 0h1m1 0h1m2 0h2m4 0h1m1 0h1m1 0h3m2 0h1m3 0h3m1 0h1m5 0h1m1 0h2m2 0h1m1 0h2m2 0h1m1 0h2m1 0h1M6 164.5h1m2 0h2m2 0h3m1 0h3m3 0h1m1 0h1m5 0h1m3 0h1m1 0h3m1 0h1m1 0h1m2 0h2m2 0h1m3 0h1m1 0h2m1 0h1m2 0h2m1 0h1m4 0h4m4 0h2m1 0h3m3 0h1m1 0h1m4 0h2m3 0h3m7 0h1m2 0h2m1 0h1m2 0h2m4 0h2m1 0h2m1 0h1m1 0h2m3 0h1m2 0h4m5 0h2m5 0h3m1 0h3m3 0h1m2 0h2m1 0h1m2 0h3m1 0h2M5 165.5h3m3 0h3m4 0h1m3 0h2m1 0h1m1 0h1m3 0h3m1 0h3m1 0h3m1 0h2m1 0h3m6 0h2m6 0h3m2 0h1m1 0h1m1 0h1m1 0h2m5 0h2m1 0h1m1 0h3m1 0h1m2 0h2m4 0h1m3 0h1m2 0h2m3 0h2m4 0h11m1 0h1m3 0h5m1 0h1m3 0h2m2 0h3m1 0h2m3 0h1m2 0h1m2 0h4m1 0h1m3 0h3m1 0h1m3 0h2M5 166.5h2m1 0h1m1 0h1m2 0h1m2 0h1m1 0h2m4 0h4m4 0h1m1 0h1m3 0h2m3 0h1m1 0h2m2 0h1m2 0h2m1 0h1m1 0h2m1 0h1m1 0h4m4 0h3m3 0h1m2 0h2m1 0h1m1 0h2m2 0h1m1 0h3m1 0h3m1 0h1m2 0h5m3 0h4m1 0h1m4 0h2m2 0h3m3 0h3m1 0h3m2 0h1m3 0h2m1 0h1m1 0h2m5 0h1m5 0h4m2 0h2m4 0h1m4 0h2M5 167.5h1m1 0h2m3 0h2m4 0h1m1 0h2m1 0h2m3 0h1m1 0h2m2 0h2m1 0h2m1 0h2m4 0h1m1 0h2m1 0h2m3 0h3m3 0h6m6 0h3m1 0h1m4 0h1m1 0h4m4 0h1m2 0h1m1 0h2m2 0h1m1 0h3m1 0h2m1 0h1m1 0h4m1 0h7m2 0h4m1 0h2m2 0h3m1 0h1m2 0h4m4 0h2m1 0h2m1 0h1m2 0h2m3 0h3m3 0h6m1 0h2M5 168.5h2m1 0h1m1 0h4m1 0h1m1 0h1m3 0h1m1 0h1m1 0h1m2 0h1m1 0h1m2 0h1m2 0h1m1 0h5m2 0h6m1 0h2m1 0h1m3 0h1m1 0h3m6 0h1m5 0h2m1 0h1m1 0h1m1 0h2m1 0h1m1 0h2m1 0h1m2 0h1m3 0h1m1 0h2m3 0h1m1 0h1m1 0h2m1 0h1m2 0h1m5 0h1m1 0h1m1 0h1m1 0h2m1 0h4m2 0h2m2 0h1m1 0h1m2 0h3m2 0h1m1 0h1m2 0h5m2 0h3m3 0h1m1 0h1m5 0h1m2 0h2M4 169.5h1m1 0h4m1 0h2m1 0h4m1 0h1m1 0h3m2 0h2m1 0h1m3 0h1m2 0h3m1 0h3m1 0h3m2 0h3m1 0h4m3 0h2m3 0h1m1 0h1m2 0h4m1 0h3m1 0h2m2 0h1m1 0h4m1 0h1m1 0h4m5 0h1m3 0h3m3 0h2m4 0h1m3 0h2m1 0h4m1 0h1m3 0h4m1 0h2m3 0h1m1 0h5m1 0h2m2 0h2m5 0h1m1 0h6m3 0h3m3 0h2M4 170.5h3m2 0h4m1 0h1m5 0h1m1 0h2m5 0h1m2 0h1m3 0h5m1 0h2m1 0h3m2 0h1m1 0h1m1 0h1m3 0h8m1 0h4m1 0h1m2 0h1m3 0h7m5 0h4m1 0h3m1 0h6m1 0h5m2 0h1m4 0h2m3 0h9m5 0h1m2 0h2m2 0h1m2 0h3m3 0h2m4 0h3m2 0h2m3 0h4m3 0h1M7 171.5h1m3 0h5m1 0h1m3 0h1m5 0h3m1 0h1m2 0h1m2 0h4m1 0h2m1 0h2m2 0h1m1 0h5m1 0h2m1 0h1m1 0h1m1 0h2m1 0h1m3 0h1m1 0h1m1 0h2m1 0h2m6 0h1m1 0h1m2 0h1m1 0h1m2 0h2m3 0h1m1 0h2m1 0h1m1 0h4m1 0h1m1 0h1m1 0h2m1 0h1m1 0h2m2 0h2m2 0h3m2 0h1m1 0h1m2 0h4m1 0h2m4 0h2m1 0h2m1 0h1m1 0h2m2 0h1m2 0h1m1 0h1m2 0h1m2 0h1m1 0h5M5 172.5h1m1 0h1m1 0h3m1 0h1m5 0h1m2 0h5m2 0h1m2 0h5m5 0h3m2 0h2m1 0h2m3 0h2m3 0h12m5 0h1m1 0h2m1 0h1m5 0h7m4 0h3m4 0h1m5 0h1m2 0h7m5 0h2m1 0h2m1 0h1m3 0h1m1 0h2m1 0h1m1 0h7m4 0h1m1 0h2m2 0h4m5 0h1m1 0h5m2 0h1M12 173.5h3m1 0h3m2 0h1m1 0h1m1 0h1m2 0h3m1 0h1m3 0h1m1 0h2m1 0h5m2 0h3m2 0h5m1 0h2m3 0h1m2 0h1m1 0h2m2 0h1m1 0h1m3 0h1m1 0h5m2 0h1m3 0h3m1 0h2m2 0h1m2 0h4m1 0h2m2 0h1m2 0h2m3 0h5m1 0h1m4 0h1m1 0h2m1 0h1m1 0h1m2 0h1m1 0h2m3 0h3m1 0h1m6 0h1m1 0h2m5 0h2m2 0h1m3 0h2m2 0h1M4 174.5h7m1 0h2m2 0h2m1 0h1m1 0h2m1 0h3m2 0h2m1 0h1m1 0h1m1 0h1m1 0h6m2 0h1m2 0h2m1 0h1m1 0h1m3 0h1m1 0h1m1 0h1m1 0h1m2 0h2m1 0h1m1 0h1m2 0h1m4 0h3m1 0h2m1 0h2m1 0h1m1 0h1m2 0h2m2 0h4m1 0h1m2 0h1m1 0h2m3 0h3m1 0h1m1 0h1m3 0h2m1 0h1m5 0h2m2 0h3m1 0h1m2 0h1m1 0h1m1 0h1m2 0h1m1 0h3m1 0h2m1 0h1m2 0h1m1 0h1m3 0h4m1 0h1m1 0h4M4 175.5h1m5 0h1m2 0h4m3 0h1m2 0h2m1 0h2m1 0h2m1 0h1m3 0h1m1 0h3m2 0h1m1 0h3m1 0h1m1 0h3m1 0h2m1 0h3m3 0h4m1 0h1m3 0h2m1 0h1m1 0h2m5 0h2m1 0h1m3 0h5m1 0h2m1 0h2m1 0h2m1 0h1m2 0h1m2 0h2m1 0h1m3 0h1m2 0h3m4 0h1m4 0h1m3 0h1m3 0h2m3 0h2m1 0h1m2 0h1m2 0h1m1 0h3m4 0h2m1 0h1m2 0h1m3 0h1m1 0h2M4 176.5h1m1 0h3m1 0h1m1 0h1m3 0h1m2 0h1m1 0h1m3 0h1m3 0h9m8 0h1m1 0h4m2 0h1m1 0h2m1 0h6m5 0h2m2 0h1m2 0h3m1 0h1m2 0h3m1 0h5m2 0h1m1 0h1m2 0h1m6 0h1m1 0h1m1 0h2m3 0h6m1 0h1m1 0h1m1 0h1m1 0h2m1 0h2m1 0h3m1 0h2m1 0h9m1 0h1m2 0h1m1 0h2m1 0h1m1 0h2m1 0h1m2 0h1m1 0h1m1 0h5m2 0h2M4 177.5h1m1 0h3m1 0h1m1 0h1m1 0h1m1 0h5m1 0h2m1 0h1m1 0h1m1 0h1m1 0h7m1 0h2m2 0h6m1 0h1m5 0h1m2 0h2m4 0h2m5 0h2m2 0h1m3 0h3m2 0h4m2 0h1m2 0h1m5 0h2m3 0h1m2 0h1m3 0h2m5 0h1m1 0h2m1 0h1m1 0h1m7 0h3m1 0h2m4 0h1m1 0h1m4 0h2m5 0h1m2 0h1m2 0h8m1 0h1m1 0h2m1 0h1M4 178.5h1m1 0h3m1 0h1m1 0h1m4 0h6m3 0h2m4 0h1m1 0h1m1 0h4m1 0h1m1 0h1m5 0h1m1 0h3m4 0h4m1 0h1m4 0h1m1 0h1m1 0h1m4 0h1m2 0h3m1 0h1m2 0h2m1 0h2m1 0h1m1 0h5m2 0h1m1 0h1m1 0h3m3 0h1m1 0h1m2 0h1m1 0h1m3 0h1m2 0h1m1 0h3m4 0h2m1 0h1m2 0h2m2 0h5m1 0h1m2 0h3m1 0h5m2 0h2m2 0h2m1 0h2m1 0h1m1 0h1M4 179.5h1m5 0h1m1 0h1m3 0h6m2 0h3m5 0h5m1 0h2m3 0h1m2 0h2m4 0h2m3 0h2m2 0h2m1 0h1m1 0h2m3 0h1m3 0h2m5 0h2m1 0h2m4 0h2m3 0h1m1 0h3m2 0h3m2 0h1m2 0h2m3 0h1m2 0h2m5 0h3m4 0h1m1 0h1m4 0h1m1 0h2m4 0h1m2 0h1m2 0h1m1 0h2m8 0h4m1 0h2m2 0h2m1 0h1M4 180.5h7m1 0h4m2 0h2m1 0h1m1 0h3m2 0h2m5 0h1m1 0h2m6 0h1m3 0h4m1 0h1m1 0h3m1 0h1m4 0h1m4 0h1m5 0h1m1 0h2m1 0h2m3 0h4m1 0h1m1 0h3m2 0h4m1 0h1m3 0h1m2 0h1m1 0h2m2 0h3m1 0h1m2 0h1m1 0h1m1 0h1m1 0h2m1 0h2m6 0h1m1 0h1m1 0h3m1 0h2m5 0h6m1 0h1m6 0h6m1 0h1m2 0h1"/></svg>
