<?xml version="1.0" encoding="utf-8"?><!DOCTYPE svg PUBLIC "-//W3C//DTD SVG 1.1//EN" "http://www.w3.org/Graphics/SVG/1.1/DTD/svg11.dtd"><svg xmlns="http://www.w3.org/2000/svg" viewBox="0 0 157 157" shape-rendering="crispEdges"><path fill="#ffffff" d="M0 0h157v157H0z"/><path stroke="#000000" d="M4 4.5h7m2 0h2m9 0h5m5 0h1m1 0h1m1 0h5m6 0h2m1 0h1m1 0h1m10 0h2m3 0h3m2 0h3m2 0h1m1 0h3m1 0h2m1 0h2m2 0h2m1 0h1m4 0h2m1 0h2m2 0h1m1 0h1m4 0h7m1 0h3m2 0h1m2 0h1m1 0h3m1 0h1m1 0h1m6 0h7M4 5.5h1m5 0h1m1 0h2m1 0h2m1 0h1m2 0h4m3 0h2m2 0h2m1 0h1m2 0h1m1 0h2m1 0h1m1 0h1m1 0h1m3 0h2m2 0h2m1 0h2m1 0h1m1 0h5m5 0h1m2 0h1m2 0h1m1 0h1m7 0h1m4 0h1m2 0h1m1 0h2m1 0h2m5 0h1m2 0h1m2 0h1m5 0h1m1 0h2m1 0h1m1 0h1m2 0h6m3 0h1m2 0h2m1 0h1m5 0h1M4 6.5h1m1 0h3m1 0h1m4 0h1m2 0h1m2 0h4m3 0h2m1 0h3m3 0h5m2 0h1m1 0h2m1 0h1m5 0h1m1 0h1m1 0h2m1 0h1m1 0h2m1 0h2m2 0h3m2 0h1m2 0h1m2 0h1m2 0h2m2 0h4m1 0h2m1 0h1m3 0h2m2 0h3m3 0h1m1 0h1m4 0h1m1 0h3m3 0h4m2 0h1m3 0h5m1 0h2m2 0h1m1 0h3m1 0h1M4 7.5h1m1 0h3m1 0h1m1 0h1m1 0h1m4 0h1m1 0h1m1 0h6m3 0h1m1 0h1m9 0h1m1 0h1m1 0h2m1 0h1m3 0h2m1 0h1m1 0h2m4 0h4m1 0h1m3 0h3m1 0h1m1 0h3m4 0h2m1 0h3m1 0h5m3 0h1m1 0h1m1 0h1m1 0h2m1 0h1m1 0h4m1 0h1m2 0h1m1 0h1m2 0h2m2 0h3m3 0h1m3 0h3m2 0h1m1 0h3m1 0h1M4 8.5h1m1 0h3m1 0h1m3 0h1m5 0h1m3 0h2m5 0h8m1 0h1m1 0h2m1 0h1m4 0h1m1 0h3m4 0h6m3 0h1m1 0h3m2 0h2m4 0h3m2 0h7m2 0h2m3 0h1m2 0h3m1 0h1m1 0h1m1 0h1m2 0h8m2 0h1m1 0h2m1 0h1m1 0h2m1 0h3m5 0h1m3 0h1m1 0h3m1 0h1M4 9.5h1m5 0h1m1 0h6m2 0h6m1 0h2m2 0h2m3 0h1m1 0h1m1 0h1m2 0h1m1 0h1m1 0h1m1 0h4m7 0h1m3 0h2m1 0h1m2 0h1m1 0h2m4 0h3m1 0h1m1 0h2m2 0h1m3 0h2m1 0h1m1 0h3m2 0h1m3 0h2m2 0h1m1 0h1m3 0h1m3 0h2m1 0h2m1 0h1m1 0h1m1 0h5m5 0h1m3 0h1m1 0h1m5 0h1M4 10.5h7m1 0h1m1 0h1m1 0h1m1 0h1m1 0h1m1 0h1m1 0h1m1 0h1m1 0h1m1 0h1m1 0h1m1 0h1m1 0h1m1 0h1m1 0h1m1 0h1m1 0h1m1 0h1m1 0h1m1 0h1m1 0h1m1 0h1m1 0h1m1 0h1m1 0h1m1 0h1m1 0h1m1 0h1m1 0h1m1 0h1m1 0h1m1 0h1m1 0h1m1 0h1m1 0h1m1 0h1m1 0h1m1 0h1m1 0h1m1 0h1m1 0h1m1 0h1m1 0h1m1 0h1m1 0h1m1 0h1m1 0h1m1 0h1m1 0h1m1 0h1m1 0h1m1 0h1m1 0h1m1 0h1m1 0h1m1 0h1m1 0h1m1 0h1m1 0h1m1 0h1m1 0h1m1 0h1m1 0h1m1 0h1m1 0h1m1 0h1m1 0h1m1 0h7M17 11.5h3m2 0h3m1 0h1m1 0h2m2 0h1m3 0h3m3 0h1m1 0h1m1 0h1m4 0h3m2 0h3m1 0h1m3 0h1m2 0h2m3 0h2m1 0h2m1 0h1m3 0h1m1 0h2m2 0h1m3 0h4m1 0h1m3 0h1m3 0h2m4 0h2m3 0h1m3 0h1m1 0h1m1 0h1m1 0h5m1 0h1m1 0h1m1 0h8M4 12.5h5m1 0h3m1 0h3m1 0h1m1 0h1m1 0h2m1 0h1m1 0h2m3 0h6m3 0h1m1 0h2m1 0h1m1 0h2m3 0h1m1 0h4m1 0h8m1 0h2m6 0h1m1 0h1m1 0h1m1 0h1m4 0h5m4 0h3m2 0h1m1 0h1m3 0h3m3 0h8m1 0h1m1 0h1m1 0h1m2 0h2m4 0h1m1 0h5m1 0h2m1 0h1m1 0h1m1 0h1M4 13.5h2m2 0h1m3 0h2m1 0h2m2 0h1m2 0h1m1 0h1m5 0h1m6 0h2m1 0h1m1 0h2m1 0h1m3 0h7m3 0h2m1 0h1m2 0h1m2 0h2m1 0h1m3 0h2m5 0h3m2 0h2m1 0h1m5 0h1m5 0h4m2 0h1m4 0h3m3 0h2m1 0h2m4 0h1m1 0h1m2 0h4m1 0h3m1 0h2m1 0h5m2 0h1M4 14.5h4m2 0h2m2 0h1m2 0h3m2 0h1m2 0h5m1 0h3m1 0h1m2 0h1m1 0h1m1 0h3m1 0h2m1 0h2m1 0h1m2 0h1m4 0h1m1 0h1m1 0h1m2 0h3m4 0h1m1 0h4m4 0h2m2 0h3m2 0h1m1 0h1m3 0h3m1 0h1m6 0h3m2 0h2m4 0h2m3 0h1m1 0h1m1 0h1m1 0h3m5 0h1m4 0h2m1 0h1M4 15.5h1m1 0h1m1 0h2m4 0h3m4 0h1m1 0h2m3 0h3m1 0h4m1 0h3m1 0h1m1 0h1m5 0h1m1 0h1m1 0h1m3 0h3m1 0h1m1 0h2m1 0h5m2 0h1m1 0h2m7 0h5m1 0h1m1 0h3m6 0h1m3 0h1m2 0h1m2 0h1m1 0h1m2 0h1m1 0h1m1 0h1m4 0h1m1 0h1m1 0h2m1 0h1m3 0h4m1 0h1m1 0h3m1 0h1m1 0h1m1 0h2M7 16.5h1m2 0h2m3 0h1m1 0h1m1 0h3m1 0h1m1 0h1m1 0h1m1 0h2m2 0h1m7 0h1m1 0h2m1 0h4m5 0h2m1 0h8m1 0h1m6 0h1m1 0h8m5 0h5m3 0h3m2 0h3m1 0h1m3 0h1m2 0h1m1 0h1m1 0h1m1 0h3m3 0h1m1 0h1m1 0h6m1 0h5m1 0h1m1 0h1m6 0h1M7 17.5h1m6 0h1m1 0h1m1 0h2m1 0h2m1 0h5m2 0h1m2 0h1m2 0h2m1 0h4m3 0h1m2 0h5m2 0h1m2 0h1m3 0h1m3 0h4m1 0h1m1 0h3m4 0h2m9 0h2m4 0h1m2 0h4m2 0h1m2 0h1m1 0h1m1 0h1m2 0h2m1 0h1m1 0h1m1 0h1m2 0h1m1 0h2m1 0h1m2 0h1m2 0h2m2 0h1m1 0h4m2 0h2M5 18.5h1m1 0h4m2 0h2m3 0h4m1 0h1m1 0h2m1 0h3m1 0h1m1 0h4m1 0h3m1 0h6m1 0h6m1 0h3m1 0h1m3 0h1m1 0h2m4 0h1m2 0h1m2 0h4m5 0h3m1 0h5m1 0h3m6 0h1m4 0h1m2 0h1m5 0h3m2 0h1m5 0h2m1 0h1m4 0h1m2 0h1m1 0h1m4 0h1M6 19.5h1m5 0h1m1 0h2m3 0h1m3 0h1m3 0h4m2 0h4m4 0h1m3 0h2m2 0h1m1 0h2m3 0h1m1 0h1m2 0h2m3 0h2m3 0h1m1 0h2m3 0h2m2 0h1m1 0h8m1 0h2m1 0h2m1 0h1m3 0h2m1 0h2m3 0h3m2 0h1m1 0h1m1 0h1m4 0h5m2 0h1m4 0h1m1 0h3m1 0h4m2 0h1m1 0h2M4 20.5h1m1 0h3m1 0h2m2 0h1m1 0h2m1 0h3m1 0h1m1 0h1m1 0h1m1 0h1m1 0h2m1 0h1m1 0h1m2 0h1m1 0h1m1 0h4m1 0h1m7 0h4m1 0h1m1 0h3m3 0h2m6 0h3m1 0h2m1 0h1m1 0h1m2 0h1m1 0h2m1 0h5m1 0h3m1 0h2m1 0h5m1 0h3m1 0h2m2 0h2m2 0h1m1 0h1m1 0h3m4 0h1m1 0h4m2 0h2m4 0h2M4 21.5h2m1 0h2m3 0h4m3 0h1m1 0h2m1 0h1m5 0h3m1 0h3m1 0h1m1 0h1m1 0h1m2 0h1m3 0h2m1 0h3m3 0h1m3 0h1m6 0h4m1 0h5m1 0h4m1 0h1m1 0h1m2 0h2m5 0h3m1 0h5m1 0h2m1 0h1m2 0h2m2 0h4m1 0h3m1 0h1m4 0h5m1 0h1m3 0h2m1 0h1m1 0h3m2 0h2M4 22.5h1m4 0h2m1 0h1m2 0h3m1 0h1m2 0h1m4 0h6m5 0h1m1 0h1m1 0h2m1 0h2m1 0h5m1 0h2m2 0h1m1 0h3m3 0h2m4 0h1m1 0h1m4 0h1m2 0h1m1 0h2m2 0h5m1 0h2m2 0h4m1 0h1m3 0h1m1 0h4m1 0h1m5 0h2m1 0h1m2 0h3m2 0h1m1 0h1m6 0h1m4 0h1m2 0h2M6 23.5h3m6 0h2m2 0h4m1 0h2m1 0h3m1 0h3m1 0h5m1 0h1m2 0h4m3 0h3m1 0h1m3 0h1m3 0h2m2 0h1m2 0h1m1 0h1m3 0h1m2 0h2m4 0h1m1 0h3m4 0h3m2 0h1m1 0h1m1 0h1m1 0h2m3 0h3m3 0h1m1 0h1m1 0h1m1 0h1m1 0h2m1 0h1m1 0h2m1 0h1m4 0h1m1 0h1m1 0h1m1 0h3m1 0h3m2 0h1M7 24.5h1m2 0h3m4 0h1m1 0h1m3 0h2m1 0h1m2 0h1m3 0h4m1 0h1m2 0h1m1 0h7m8 0h1m2 0h1m1 0h4m2 0h1m1 0h1m1 0h2m2 0h1m1 0h1m1 0h3m4 0h2m2 0h1m2 0h1m2 0h1m1 0h5m4 0h1m1 0h1m2 0h2m3 0h3m1 0h2m1 0h2m2 0h1m3 0h1m3 0h2m1 0h1m2 0h2m4 0h1m1 0h1M4 25.5h4m1 0h1m1 0h1m1 0h3m1 0h1m1 0h5m2 0h2m2 0h2m2 0h1m2 0h1m2 0h3m6 0h4m1 0h2m1 0h1m1 0h2m9 0h2m1 0h1m1 0h3m3 0h4m4 0h3m1 0h2m1 0h3m2 0h2m1 0h2m2 0h2m1 0h1m2 0h2m1 0h4m3 0h2m1 0h5m2 0h1m1 0h1m1 0h1m1 0h1m2 0h1m2 0h3m2 0h2M5 26.5h2m1 0h3m1 0h1m4 0h1m2 0h1m1 0h4m1 0h1m4 0h1m2 0h1m4 0h2m1 0h2m4 0h2m1 0h1m5 0h4m3 0h1m1 0h1m2 0h1m2 0h2m1 0h1m2 0h1m1 0h1m3 0h1m2 0h1m1 0h2m2 0h1m4 0h3m1 0h1m2 0h1m2 0h2m1 0h1m3 0h1m1 0h1m1 0h2m1 0h1m6 0h2m1 0h1m1 0h1m6 0h8m1 0h1M4 27.5h6m2 0h2m1 0h1m4 0h2m3 0h1m5 0h3m3 0h1m1 0h4m1 0h2m1 0h1m2 0h2m2 0h2m3 0h1m1 0h2m1 0h1m1 0h2m2 0h1m2 0h1m1 0h1m2 0h1m1 0h1m1 0h6m3 0h4m1 0h1m2 0h3m2 0h5m2 0h1m1 0h1m1 0h2m2 0h1m5 0h1m1 0h4m3 0h1m2 0h1m1 0h5m1 0h1m3 0h1m1 0h2M4 28.5h1m1 0h1m2 0h4m4 0h1m1 0h1m2 0h1m1 0h5m1 0h2m1 0h1m1 0h3m1 0h1m4 0h3m1 0h1m4 0h1m1 0h2m1 0h1m2 0h1m1 0h1m1 0h1m2 0h5m1 0h1m1 0h2m3 0h4m4 0h1m2 0h2m1 0h11m3 0h2m1 0h1m1 0h2m1 0h2m3 0h2m2 0h1m2 0h2m1 0h1m4 0h1m1 0h1m1 0h1m3 0h1m1 0h1m2 0h1m1 0h1M7 29.5h3m2 0h1m1 0h3m2 0h4m2 0h3m2 0h2m2 0h2m1 0h2m1 0h1m1 0h2m6 0h3m1 0h1m4 0h2m4 0h2m2 0h3m1 0h3m1 0h1m3 0h3m1 0h1m1 0h1m2 0h2m1 0h2m1 0h1m7 0h6m3 0h2m2 0h5m1 0h2m1 0h1m3 0h1m4 0h2m2 0h2m1 0h2m1 0h2m1 0h1m1 0h3M6 30.5h2m2 0h2m6 0h2m2 0h1m1 0h5m1 0h1m3 0h3m2 0h8m2 0h1m3 0h1m1 0h1m4 0h1m3 0h2m1 0h3m3 0h2m1 0h4m1 0h1m2 0h3m1 0h5m1 0h2m4 0h1m2 0h1m2 0h1m4 0h2m1 0h3m1 0h1m1 0h4m2 0h1m3 0h4m1 0h1m6 0h1m1 0h1m2 0h2m2 0h1M5 31.5h2m2 0h1m2 0h4m2 0h2m1 0h1m3 0h6m4 0h1m6 0h2m1 0h3m1 0h3m2 0h1m1 0h4m2 0h1m3 0h1m3 0h1m1 0h2m2 0h2m4 0h1m1 0h4m2 0h2m2 0h4m1 0h1m1 0h1m3 0h4m3 0h3m1 0h1m1 0h1m1 0h1m1 0h1m1 0h2m1 0h1m1 0h1m4 0h1m1 0h6m1 0h1m2 0h1m4 0h1M4 32.5h2m2 0h5m2 0h1m2 0h1m1 0h2m1 0h1m2 0h4m2 0h5m2 0h10m2 0h2m2 0h2m1 0h8m3 0h1m1 0h2m2 0h2m1 0h2m3 0h1m4 0h5m3 0h3m1 0h4m4 0h1m1 0h3m2 0h8m2 0h1m2 0h1m1 0h1m1 0h1m3 0h4m2 0h1m1 0h5m1 0h2M4 33.5h1m3 0h1m3 0h1m2 0h3m1 0h1m3 0h4m2 0h1m2 0h1m3 0h5m2 0h1m3 0h1m1 0h2m1 0h1m1 0h1m5 0h1m3 0h2m2 0h2m2 0h1m2 0h1m4 0h2m1 0h3m1 0h2m3 0h5m1 0h1m2 0h2m1 0h3m1 0h4m2 0h3m3 0h2m3 0h1m4 0h4m2 0h3m1 0h1m1 0h1m1 0h1m3 0h1m3 0h1M5 34.5h2m1 0h1m1 0h1m1 0h1m1 0h2m1 0h1m1 0h1m1 0h2m4 0h3m2 0h1m1 0h1m1 0h1m1 0h4m1 0h1m3 0h1m1 0h1m1 0h2m2 0h1m1 0h1m1 0h2m1 0h1m1 0h1m2 0h1m1 0h2m2 0h1m4 0h3m3 0h1m3 0h1m1 0h1m1 0h1m1 0h2m1 0h2m1 0h1m1 0h1m2 0h2m2 0h1m2 0h2m2 0h1m1 0h1m1 0h4m2 0h1m4 0h4m7 0h1m1 0h1m1 0h1m1 0h1m1 0h1M5 35.5h1m1 0h2m3 0h1m3 0h3m1 0h2m1 0h1m1 0h2m3 0h1m1 0h1m3 0h3m2 0h1m3 0h3m1 0h1m2 0h1m5 0h3m3 0h1m2 0h1m3 0h6m2 0h2m1 0h7m3 0h1m1 0h1m4 0h3m1 0h1m1 0h3m1 0h1m2 0h1m2 0h2m3 0h1m1 0h1m2 0h3m1 0h2m1 0h1m3 0h4m1 0h4m3 0h1m2 0h1M4 36.5h10m1 0h2m1 0h4m2 0h1m2 0h1m4 0h5m4 0h1m2 0h5m4 0h1m2 0h3m1 0h5m1 0h1m2 0h1m2 0h1m2 0h5m1 0h1m1 0h1m2 0h8m1 0h1m1 0h2m2 0h2m1 0h3m1 0h4m1 0h2m1 0h5m1 0h3m2 0h1m1 0h1m1 0h1m1 0h1m3 0h1m3 0h1m1 0h6m1 0h1m1 0h1M5 37.5h2m1 0h2m2 0h1m1 0h1m4 0h1m6 0h1m2 0h5m3 0h1m2 0h1m1 0h1m4 0h1m1 0h6m5 0h1m2 0h2m3 0h3m1 0h1m2 0h2m1 0h1m2 0h9m2 0h1m2 0h3m1 0h1m1 0h4m3 0h2m1 0h1m1 0h3m1 0h2m2 0h2m1 0h1m3 0h2m5 0h6m1 0h1m1 0h1m5 0h1m1 0h1M4 38.5h1m2 0h6m2 0h4m2 0h1m1 0h1m1 0h1m1 0h3m2 0h1m1 0h1m2 0h2m1 0h2m1 0h1m1 0h1m1 0h1m3 0h4m1 0h1m1 0h1m1 0h3m2 0h1m1 0h1m2 0h1m2 0h2m1 0h1m1 0h2m1 0h1m2 0h1m3 0h1m1 0h2m1 0h2m5 0h2m4 0h1m2 0h2m1 0h3m1 0h1m1 0h4m1 0h1m3 0h2m1 0h4m1 0h2m3 0h1m5 0h3m2 0h1M4 39.5h2m1 0h1m1 0h1m1 0h1m2 0h1m1 0h2m2 0h1m1 0h1m3 0h3m1 0h2m2 0h1m4 0h2m1 0h1m1 0h1m4 0h1m1 0h1m2 0h2m1 0h3m4 0h1m1 0h3m4 0h1m5 0h1m1 0h3m1 0h1m1 0h4m3 0h2m1 0h1m7 0h3m3 0h3m1 0h1m2 0h1m2 0h2m3 0h2m1 0h1m2 0h1m4 0h1m1 0h4m2 0h2m1 0h1m2 0h2M9 40.5h3m1 0h1m1 0h2m3 0h3m1 0h1m2 0h1m1 0h1m2 0h1m1 0h4m2 0h2m1 0h3m1 0h1m7 0h2m1 0h3m4 0h1m2 0h3m3 0h1m1 0h2m2 0h1m2 0h2m1 0h1m1 0h1m2 0h1m5 0h2m1 0h1m1 0h3m3 0h1m3 0h1m1 0h1m1 0h1m1 0h5m1 0h2m1 0h1m3 0h1m4 0h1m1 0h3m1 0h2m1 0h1m1 0h1m2 0h2M4 41.5h1m1 0h1m1 0h2m1 0h2m5 0h4m1 0h1m3 0h1m4 0h1m2 0h1m1 0h6m3 0h1m2 0h4m1 0h2m1 0h1m1 0h3m1 0h3m4 0h4m1 0h3m2 0h1m1 0h1m6 0h1m2 0h1m1 0h4m1 0h1m2 0h3m3 0h4m2 0h1m2 0h1m1 0h1m2 0h1m1 0h2m5 0h1m1 0h3m2 0h2m1 0h2m1 0h1m2 0h1m3 0h2M4 42.5h2m1 0h1m1 0h2m3 0h2m1 0h2m3 0h2m1 0h1m4 0h1m1 0h1m3 0h3m1 0h1m1 0h6m1 0h5m1 0h1m1 0h2m1 0h1m4 0h1m1 0h2m3 0h2m2 0h4m4 0h3m1 0h4m2 0h1m2 0h2m1 0h1m4 0h2m4 0h2m1 0h1m2 0h3m1 0h3m2 0h1m4 0h1m1 0h1m1 0h2m8 0h7M4 43.5h4m4 0h1m5 0h2m1 0h3m2 0h4m1 0h2m1 0h2m1 0h3m1 0h1m4 0h1m5 0h1m3 0h1m1 0h2m2 0h3m1 0h1m4 0h1m1 0h1m5 0h1m5 0h1m1 0h1m2 0h1m3 0h1m1 0h2m5 0h1m1 0h2m1 0h2m1 0h3m1 0h1m2 0h1m1 0h1m1 0h1m1 0h2m1 0h1m1 0h2m3 0h1m1 0h2m1 0h1m1 0h1m2 0h1m2 0h3M4 44.5h1m2 0h1m2 0h1m2 0h3m2 0h4m1 0h2m2 0h1m1 0h1m1 0h1m7 0h1m3 0h4m1 0h2m3 0h1m1 0h4m2 0h5m2 0h2m1 0h2m1 0h1m1 0h2m3 0h2m4 0h3m2 0h1m5 0h3m1 0h1m1 0h2m3 0h4m7 0h2m3 0h1m2 0h1m2 0h2m1 0h1m4 0h1m3 0h2m3 0h1m1 0h3M4 45.5h3m2 0h1m3 0h2m7 0h1m3 0h1m2 0h2m2 0h2m2 0h1m2 0h3m4 0h1m1 0h2m1 0h1m1 0h2m3 0h1m1 0h1m1 0h2m4 0h3m3 0h3m2 0h4m2 0h1m2 0h1m4 0h5m2 0h1m1 0h2m2 0h4m3 0h2m1 0h2m4 0h4m1 0h1m2 0h3m1 0h1m6 0h1m1 0h1m2 0h1m2 0h3M4 46.5h1m1 0h3m1 0h1m1 0h3m1 0h2m1 0h3m1 0h1m4 0h1m3 0h2m4 0h6m1 0h4m1 0h1m2 0h4m1 0h1m7 0h2m5 0h1m5 0h3m4 0h3m1 0h1m2 0h1m3 0h1m1 0h2m1 0h2m1 0h1m4 0h4m2 0h6m1 0h1m6 0h2m1 0h3m2 0h1m1 0h1m2 0h1m1 0h4M4 47.5h3m1 0h1m3 0h2m3 0h1m1 0h2m2 0h1m1 0h2m1 0h2m2 0h4m3 0h1m1 0h2m1 0h2m1 0h1m1 0h3m1 0h2m1 0h2m2 0h1m3 0h1m1 0h3m4 0h2m3 0h1m1 0h1m1 0h1m8 0h1m1 0h3m3 0h2m2 0h1m2 0h2m4 0h2m1 0h1m6 0h1m1 0h6m2 0h1m4 0h1m1 0h4m2 0h4m2 0h1M4 48.5h1m3 0h6m1 0h5m2 0h1m2 0h1m1 0h1m3 0h1m1 0h3m1 0h1m8 0h1m1 0h1m1 0h2m1 0h1m2 0h1m1 0h2m1 0h3m1 0h1m1 0h4m5 0h3m1 0h2m3 0h3m1 0h1m3 0h2m2 0h2m3 0h4m1 0h1m1 0h4m1 0h1m3 0h1m4 0h1m1 0h1m4 0h2m1 0h1m3 0h1m1 0h1m1 0h1m1 0h2m3 0h5M5 49.5h1m2 0h2m2 0h1m1 0h1m1 0h2m2 0h1m1 0h2m4 0h1m2 0h1m1 0h2m2 0h7m3 0h1m1 0h1m1 0h4m4 0h1m1 0h3m1 0h1m1 0h2m1 0h2m2 0h2m1 0h1m1 0h1m1 0h1m1 0h3m5 0h6m1 0h2m3 0h3m1 0h3m5 0h3m1 0h1m1 0h7m3 0h1m1 0h5m4 0h2m5 0h1m2 0h1M4 50.5h2m1 0h4m3 0h2m1 0h4m4 0h1m2 0h1m2 0h3m2 0h1m1 0h1m2 0h2m2 0h1m2 0h2m1 0h2m2 0h1m1 0h2m1 0h1m5 0h3m1 0h1m1 0h1m1 0h1m1 0h1m2 0h3m2 0h5m1 0h1m2 0h2m3 0h1m1 0h4m1 0h3m3 0h4m1 0h4m1 0h4m2 0h2m2 0h1m1 0h4m1 0h1m4 0h1m2 0h4m1 0h1M4 51.5h1m2 0h3m2 0h6m1 0h4m2 0h1m2 0h1m3 0h3m1 0h1m3 0h2m1 0h1m2 0h2m2 0h1m1 0h3m1 0h1m7 0h1m1 0h2m3 0h3m1 0h2m2 0h1m2 0h1m2 0h2m2 0h3m2 0h2m1 0h1m2 0h1m2 0h1m2 0h1m8 0h1m4 0h1m1 0h1m2 0h3m1 0h2m1 0h1m5 0h5m3 0h1m1 0h1m2 0h2M4 52.5h1m1 0h1m3 0h1m1 0h6m1 0h1m1 0h2m1 0h1m2 0h3m1 0h5m3 0h1m4 0h1m1 0h3m2 0h1m4 0h6m1 0h3m3 0h2m1 0h1m1 0h1m2 0h3m1 0h1m1 0h1m2 0h2m1 0h1m8 0h1m2 0h2m2 0h1m1 0h1m2 0h2m2 0h3m1 0h1m1 0h2m3 0h1m1 0h3m1 0h1m1 0h2m4 0h1m1 0h1m2 0h1m2 0h2m1 0h1m1 0h1M4 53.5h2m1 0h3m2 0h4m2 0h1m2 0h2m1 0h1m1 0h1m3 0h2m1 0h1m4 0h5m2 0h1m1 0h1m2 0h3m1 0h1m2 0h1m1 0h1m1 0h1m1 0h1m1 0h2m1 0h2m1 0h1m3 0h1m1 0h1m5 0h3m5 0h2m1 0h1m1 0h1m1 0h1m1 0h3m1 0h2m2 0h3m2 0h5m1 0h1m6 0h1m1 0h1m1 0h3m1 0h1m1 0h2m6 0h1m5 0h3M4 54.5h1m1 0h2m1 0h2m2 0h1m2 0h1m3 0h1m5 0h1m1 0h1m8 0h2m2 0h1m2 0h2m1 0h1m3 0h4m2 0h2m1 0h1m1 0h1m1 0h1m1 0h3m1 0h1m2 0h1m4 0h2m4 0h5m1 0h2m2 0h2m3 0h3m1 0h1m2 0h1m4 0h2m2 0h1m1 0h3m1 0h4m5 0h2m1 0h1m1 0h2m1 0h3m1 0h1m2 0h5M4 55.5h1m1 0h4m1 0h1m3 0h1m1 0h1m2 0h1m2 0h1m5 0h1m2 0h5m2 0h1m1 0h2m1 0h3m1 0h1m1 0h1m3 0h2m1 0h1m2 0h1m6 0h2m4 0h1m1 0h2m1 0h3m2 0h5m4 0h4m4 0h1m2 0h2m1 0h2m3 0h1m1 0h1m1 0h2m1 0h1m1 0h1m1 0h1m2 0h1m1 0h1m1 0h2m3 0h1m1 0h2m1 0h1m1 0h1m2 0h2m1 0h2m2 0h2M4 56.5h1m1 0h3m1 0h1m4 0h1m2 0h1m2 0h3m4 0h2m1 0h1m4 0h2m1 0h2m2 0h4m1 0h2m1 0h1m1 0h2m1 0h4m1 0h3m1 0h1m2 0h4m5 0h1m1 0h1m1 0h1m1 0h1m2 0h1m1 0h1m1 0h3m1 0h1m1 0h7m1 0h2m2 0h1m2 0h1m1 0h3m2 0h1m1 0h2m5 0h4m2 0h2m1 0h5m1 0h1m7 0h1m1 0h1M4 57.5h2m1 0h3m2 0h1m7 0h1m1 0h1m2 0h2m2 0h2m1 0h1m2 0h4m1 0h1m1 0h1m2 0h1m1 0h1m2 0h1m1 0h1m2 0h1m3 0h8m1 0h1m1 0h4m2 0h1m1 0h1m1 0h2m1 0h1m2 0h2m3 0h2m2 0h2m2 0h1m1 0h2m1 0h1m1 0h1m1 0h2m1 0h2m2 0h1m1 0h2m2 0h4m1 0h1m4 0h1m3 0h2m1 0h1m2 0h5m5 0h2M4 58.5h2m1 0h2m1 0h4m2 0h1m1 0h1m3 0h3m1 0h1m2 0h1m2 0h2m1 0h1m1 0h4m1 0h2m3 0h1m1 0h2m1 0h2m1 0h1m8 0h1m2 0h1m1 0h2m1 0h3m4 0h1m1 0h2m1 0h3m1 0h1m1 0h2m1 0h2m2 0h1m2 0h1m2 0h1m2 0h2m2 0h1m1 0h2m2 0h1m1 0h2m1 0h1m1 0h1m2 0h1m4 0h6m3 0h1m1 0h1m3 0h4M4 59.5h1m1 0h1m1 0h1m3 0h2m1 0h2m1 0h2m5 0h1m1 0h4m3 0h2m1 0h1m2 0h2m2 0h1m2 0h3m2 0h1m3 0h3m1 0h4m2 0h3m2 0h1m1 0h1m2 0h1m1 0h3m4 0h1m2 0h2m1 0h4m1 0h1m3 0h1m2 0h1m2 0h2m1 0h1m1 0h2m2 0h1m1 0h1m7 0h1m1 0h1m1 0h2m3 0h1m2 0h3m1 0h2m1 0h2m1 0h1m3 0h1M4 60.5h12m2 0h1m1 0h3m1 0h1m2 0h2m3 0h6m1 0h1m3 0h2m1 0h3m6 0h2m1 0h10m1 0h4m4 0h3m1 0h1m1 0h2m1 0h1m1 0h5m5 0h1m1 0h3m2 0h1m1 0h1m2 0h1m1 0h1m1 0h8m1 0h3m3 0h1m2 0h1m1 0h1m1 0h2m1 0h2m3 0h7M4 61.5h3m1 0h1m3 0h3m3 0h3m2 0h2m1 0h1m1 0h1m1 0h1m1 0h1m3 0h5m1 0h1m4 0h1m1 0h2m1 0h4m3 0h2m3 0h3m1 0h2m1 0h1m3 0h2m1 0h1m3 0h2m4 0h1m3 0h1m1 0h1m1 0h1m2 0h1m4 0h1m1 0h4m2 0h1m3 0h1m3 0h1m1 0h2m1 0h1m1 0h2m2 0h1m2 0h2m2 0h1m3 0h1m1 0h1m3 0h2m2 0h1M4 62.5h2m2 0h1m1 0h1m1 0h2m4 0h2m1 0h1m2 0h2m5 0h2m1 0h1m1 0h1m1 0h9m2 0h4m3 0h2m1 0h2m1 0h1m1 0h4m1 0h2m1 0h2m2 0h1m1 0h2m2 0h1m3 0h3m1 0h1m1 0h4m1 0h1m2 0h2m1 0h1m1 0h1m5 0h6m1 0h1m1 0h5m7 0h5m1 0h1m1 0h1m1 0h1m1 0h1m1 0h1m1 0h1m1 0h2M8 63.5h1m3 0h2m3 0h1m1 0h1m3 0h7m2 0h1m3 0h2m1 0h3m1 0h1m2 0h2m3 0h4m5 0h1m3 0h1m1 0h3m3 0h3m1 0h1m1 0h2m2 0h1m2 0h1m1 0h2m3 0h1m1 0h3m4 0h1m2 0h1m1 0h2m1 0h1m1 0h1m3 0h2m3 0h1m1 0h1m1 0h7m3 0h1m1 0h2m1 0h1m1 0h4m3 0h1M4 64.5h2m1 0h6m2 0h1m1 0h2m1 0h1m2 0h2m2 0h2m1 0h1m1 0h5m4 0h1m1 0h6m7 0h2m2 0h7m2 0h2m1 0h1m2 0h3m3 0h1m4 0h1m1 0h8m1 0h3m1 0h5m2 0h1m1 0h3m1 0h1m1 0h5m6 0h1m2 0h1m1 0h1m6 0h2m3 0h5m1 0h2M9 65.5h1m1 0h1m2 0h2m1 0h1m1 0h1m5 0h1m1 0h1m1 0h1m2 0h2m3 0h1m1 0h2m1 0h2m1 0h1m3 0h2m1 0h1m1 0h2m2 0h1m1 0h1m2 0h1m1 0h1m2 0h2m5 0h3m2 0h1m1 0h1m1 0h1m4 0h1m1 0h1m1 0h4m4 0h4m2 0h1m2 0h1m3 0h2m2 0h1m1 0h1m2 0h1m2 0h1m2 0h2m1 0h4m1 0h1m2 0h2m4 0h1m1 0h1m1 0h3M4 66.5h3m1 0h4m3 0h1m3 0h1m4 0h1m2 0h1m1 0h1m2 0h2m1 0h1m1 0h1m1 0h4m1 0h1m5 0h1m3 0h4m3 0h1m2 0h1m1 0h2m2 0h1m1 0h1m3 0h1m1 0h2m2 0h1m2 0h2m4 0h4m2 0h1m1 0h2m4 0h1m3 0h1m1 0h7m2 0h5m3 0h1m2 0h1m1 0h4m3 0h1m1 0h2m1 0h1m3 0h1M6 67.5h1m2 0h1m1 0h3m3 0h1m2 0h5m2 0h1m1 0h4m1 0h1m1 0h1m2 0h3m1 0h1m1 0h2m2 0h5m1 0h1m2 0h1m1 0h1m5 0h2m5 0h3m4 0h1m4 0h1m1 0h1m2 0h1m3 0h3m3 0h2m1 0h1m2 0h2m5 0h1m2 0h4m4 0h2m1 0h1m9 0h5m3 0h4m2 0h1M4 68.5h1m2 0h1m2 0h1m1 0h1m1 0h2m3 0h1m1 0h5m2 0h3m1 0h1m2 0h3m6 0h1m1 0h1m1 0h2m5 0h5m4 0h7m1 0h1m1 0h5m1 0h2m1 0h1m1 0h5m3 0h1m4 0h1m3 0h4m3 0h2m1 0h1m1 0h1m1 0h1m5 0h1m4 0h2m3 0h1m1 0h1m1 0h2m3 0h3m1 0h1m1 0h2m1 0h1M4 69.5h1m7 0h2m3 0h4m1 0h3m2 0h1m5 0h2m3 0h1m1 0h3m6 0h2m1 0h3m4 0h1m1 0h2m1 0h1m3 0h4m3 0h1m1 0h1m3 0h3m5 0h1m1 0h2m1 0h4m1 0h1m1 0h1m2 0h1m3 0h4m1 0h1m5 0h1m2 0h3m1 0h1m3 0h2m1 0h7m1 0h1m4 0h2m1 0h4M5 70.5h1m1 0h1m2 0h1m5 0h1m2 0h3m5 0h1m2 0h1m1 0h1m1 0h2m2 0h1m1 0h1m2 0h1m3 0h2m4 0h1m1 0h3m1 0h1m1 0h2m2 0h1m1 0h3m3 0h1m2 0h1m1 0h3m1 0h1m2 0h1m5 0h2m7 0h1m1 0h1m2 0h1m1 0h1m2 0h4m1 0h3m3 0h1m1 0h2m3 0h1m1 0h6m4 0h1m1 0h1m2 0h1m4 0h1M4 71.5h3m1 0h1m5 0h3m2 0h1m2 0h3m5 0h2m1 0h2m2 0h2m3 0h2m1 0h1m6 0h4m1 0h1m1 0h2m1 0h1m1 0h1m1 0h2m2 0h1m1 0h2m2 0h1m5 0h2m1 0h1m1 0h5m2 0h2m1 0h1m1 0h3m2 0h1m1 0h1m1 0h1m7 0h1m1 0h3m1 0h1m1 0h6m6 0h6m2 0h3m1 0h2m2 0h1M4 72.5h11m1 0h4m1 0h2m1 0h1m4 0h1m1 0h1m1 0h2m2 0h1m6 0h1m1 0h1m1 0h2m1 0h1m4 0h1m1 0h1m3 0h1m2 0h1m1 0h3m1 0h2m1 0h4m1 0h1m4 0h1m1 0h1m2 0h1m6 0h1m2 0h5m5 0h3m2 0h3m6 0h2m1 0h1m1 0h3m1 0h1m2 0h1m1 0h1m2 0h1m2 0h1m2 0h2m2 0h2M8 73.5h1m6 0h4m3 0h2m2 0h1m1 0h3m1 0h2m1 0h9m1 0h1m3 0h2m1 0h1m1 0h2m3 0h1m1 0h1m1 0h2m2 0h1m2 0h3m2 0h2m1 0h1m1 0h1m2 0h1m1 0h1m2 0h1m3 0h2m1 0h2m1 0h2m8 0h3m2 0h2m3 0h1m1 0h2m2 0h1m1 0h4m1 0h5m2 0h1m1 0h1m3 0h1m1 0h1m1 0h5M5 74.5h3m2 0h2m1 0h1m4 0h5m1 0h2m4 0h1m1 0h1m2 0h1m1 0h4m3 0h2m1 0h1m2 0h3m2 0h2m4 0h1m1 0h1m1 0h4m1 0h1m1 0h1m1 0h1m1 0h1m1 0h2m4 0h1m1 0h1m5 0h1m1 0h2m1 0h1m1 0h3m1 0h1m2 0h2m1 0h1m1 0h3m1 0h1m1 0h3m1 0h1m1 0h2m5 0h2m1 0h1m1 0h2m3 0h1m9 0h1M5 75.5h3m1 0h1m1 0h2m1 0h1m2 0h3m1 0h1m2 0h3m1 0h1m2 0h1m4 0h1m1 0h6m1 0h2m2 0h1m2 0h4m2 0h1m1 0h3m4 0h1m3 0h3m4 0h3m4 0h4m1 0h2m1 0h2m5 0h1m5 0h2m3 0h3m2 0h4m2 0h1m2 0h1m1 0h3m2 0h1m4 0h3m1 0h3m1 0h4m3 0h1M7 76.5h1m2 0h1m1 0h3m2 0h2m1 0h1m2 0h1m1 0h2m2 0h1m1 0h3m1 0h1m7 0h2m1 0h1m1 0h2m6 0h3m2 0h2m2 0h1m1 0h3m5 0h3m3 0h2m4 0h2m1 0h4m2 0h3m3 0h2m1 0h1m1 0h1m1 0h2m3 0h4m2 0h1m1 0h1m2 0h1m1 0h1m3 0h3m6 0h5m5 0h2M5 77.5h1m1 0h2m2 0h1m1 0h1m3 0h2m3 0h1m3 0h1m6 0h1m6 0h1m1 0h2m1 0h1m1 0h1m2 0h1m1 0h1m1 0h1m5 0h2m1 0h1m5 0h1m1 0h1m3 0h4m2 0h3m1 0h1m6 0h2m1 0h1m1 0h3m3 0h4m1 0h1m4 0h1m9 0h2m6 0h1m4 0h1m2 0h2m1 0h1m3 0h1m1 0h2m1 0h1M8 78.5h3m1 0h1m4 0h4m4 0h1m2 0h2m1 0h1m2 0h1m2 0h1m2 0h1m1 0h2m2 0h1m2 0h5m5 0h1m1 0h3m3 0h1m5 0h1m3 0h3m4 0h1m6 0h5m4 0h2m1 0h1m2 0h2m3 0h3m1 0h1m1 0h1m1 0h5m2 0h1m1 0h1m1 0h4m1 0h2m1 0h1m5 0h2m3 0h2m1 0h1M4 79.5h4m1 0h1m1 0h6m2 0h2m3 0h4m2 0h2m1 0h2m1 0h1m1 0h1m2 0h1m1 0h1m4 0h1m2 0h3m1 0h1m1 0h4m3 0h1m1 0h3m2 0h4m1 0h1m2 0h2m1 0h2m1 0h1m2 0h3m2 0h3m1 0h1m2 0h1m4 0h5m6 0h4m4 0h2m1 0h1m1 0h2m1 0h1m1 0h1m1 0h6m3 0h2m1 0h2m2 0h1M4 80.5h2m2 0h1m1 0h3m2 0h1m1 0h1m1 0h5m1 0h2m2 0h1m3 0h2m1 0h1m6 0h2m1 0h1m1 0h1m2 0h1m4 0h1m1 0h1m3 0h2m4 0h2m1 0h2m1 0h10m3 0h5m1 0h1m4 0h4m2 0h2m4 0h1m1 0h6m2 0h1m1 0h1m4 0h5m1 0h1m5 0h1m1 0h1m1 0h2m1 0h5M4 81.5h2m5 0h1m1 0h1m6 0h1m1 0h2m2 0h1m1 0h1m4 0h2m3 0h1m1 0h1m1 0h2m1 0h1m1 0h1m4 0h1m1 0h2m3 0h6m1 0h1m1 0h5m1 0h2m1 0h1m3 0h1m1 0h2m8 0h1m2 0h1m1 0h3m1 0h1m1 0h3m1 0h1m1 0h2m1 0h3m2 0h2m1 0h2m1 0h1m1 0h1m3 0h1m1 0h5m1 0h1m1 0h1m4 0h4m3 0h1M4 82.5h1m1 0h2m2 0h2m1 0h2m1 0h2m5 0h2m2 0h2m2 0h2m2 0h2m1 0h4m1 0h1m6 0h1m3 0h3m2 0h3m3 0h3m2 0h1m2 0h2m1 0h1m2 0h1m5 0h1m2 0h2m4 0h2m1 0h1m2 0h2m3 0h2m2 0h1m2 0h1m1 0h2m2 0h1m2 0h1m1 0h2m3 0h1m2 0h6m3 0h1m1 0h1m1 0h2m1 0h1m2 0h1M6 83.5h2m1 0h1m1 0h2m1 0h4m2 0h1m2 0h1m1 0h1m2 0h1m1 0h1m4 0h4m2 0h2m3 0h4m2 0h2m4 0h3m1 0h1m1 0h1m1 0h1m1 0h1m2 0h3m1 0h2m1 0h3m1 0h1m1 0h3m1 0h1m1 0h2m2 0h1m1 0h2m1 0h3m3 0h2m6 0h1m4 0h3m1 0h1m1 0h7m1 0h1m1 0h1m2 0h3m1 0h1m3 0h2m1 0h2m2 0h1M6 84.5h3m1 0h3m1 0h1m5 0h3m1 0h1m2 0h4m3 0h4m3 0h1m1 0h2m1 0h3m7 0h1m1 0h1m2 0h1m2 0h3m1 0h3m1 0h1m4 0h1m1 0h3m1 0h1m3 0h1m1 0h1m3 0h1m1 0h1m2 0h1m1 0h5m4 0h2m1 0h1m1 0h5m4 0h1m1 0h1m2 0h2m4 0h1m2 0h1m2 0h4m3 0h2m1 0h2M11 85.5h4m1 0h2m1 0h1m1 0h1m2 0h2m1 0h1m2 0h1m1 0h1m2 0h1m1 0h2m1 0h1m1 0h1m6 0h2m1 0h1m1 0h1m4 0h1m1 0h2m1 0h2m2 0h1m2 0h3m1 0h3m3 0h4m3 0h1m1 0h2m1 0h2m1 0h3m2 0h4m1 0h1m1 0h1m2 0h1m6 0h6m3 0h2m2 0h1m2 0h1m1 0h1m2 0h3m2 0h1m3 0h1m2 0h2M4 86.5h1m3 0h3m1 0h3m2 0h2m2 0h1m1 0h1m4 0h6m7 0h3m1 0h1m3 0h1m1 0h3m1 0h1m1 0h7m2 0h3m1 0h1m2 0h1m5 0h1m2 0h1m1 0h2m1 0h1m1 0h1m1 0h2m1 0h1m5 0h1m2 0h1m1 0h3m4 0h4m1 0h1m1 0h1m1 0h1m1 0h2m1 0h1m1 0h1m1 0h1m1 0h2m1 0h2m1 0h1m1 0h1m3 0h1m2 0h1m1 0h1m1 0h1M9 87.5h1m1 0h1m3 0h1m1 0h3m1 0h1m1 0h1m2 0h2m1 0h5m1 0h1m4 0h2m2 0h1m1 0h3m2 0h2m1 0h1m1 0h2m2 0h1m7 0h1m2 0h4m1 0h1m1 0h1m3 0h1m2 0h1m1 0h1m1 0h2m3 0h1m6 0h1m4 0h1m4 0h3m2 0h1m1 0h2m5 0h1m1 0h3m4 0h1m1 0h6m2 0h1m1 0h1m1 0h2m1 0h1M6 88.5h8m1 0h3m1 0h1m2 0h1m3 0h1m1 0h1m2 0h6m4 0h1m1 0h2m1 0h2m1 0h1m5 0h2m1 0h1m1 0h8m2 0h2m2 0h1m2 0h8m2 0h6m2 0h1m1 0h3m2 0h9m2 0h10m4 0h3m2 0h1m1 0h1m2 0h1m3 0h8m1 0h3M7 89.5h2m3 0h1m1 0h3m2 0h1m4 0h1m1 0h1m2 0h2m1 0h1m3 0h1m1 0h1m1 0h1m1 0h1m2 0h1m1 0h1m2 0h3m1 0h2m4 0h1m3 0h2m2 0h1m2 0h7m3 0h8m3 0h4m1 0h2m2 0h1m1 0h3m1 0h2m1 0h1m5 0h1m3 0h3m2 0h4m3 0h3m1 0h1m1 0h3m1 0h3m3 0h2m2 0h1M6 90.5h3m1 0h1m1 0h1m3 0h2m1 0h3m1 0h1m5 0h1m2 0h1m1 0h1m1 0h1m2 0h2m2 0h1m2 0h1m2 0h1m2 0h2m1 0h1m2 0h1m1 0h1m1 0h1m1 0h1m1 0h2m1 0h2m2 0h1m2 0h2m1 0h1m4 0h1m1 0h1m1 0h1m1 0h1m1 0h1m1 0h1m2 0h4m2 0h1m2 0h1m2 0h2m1 0h5m1 0h1m1 0h2m1 0h2m3 0h1m2 0h1m1 0h1m1 0h1m2 0h3m1 0h1m1 0h1m1 0h1m1 0h1M4 91.5h1m1 0h1m1 0h1m3 0h2m3 0h1m2 0h1m5 0h1m1 0h5m3 0h1m2 0h4m1 0h1m2 0h4m2 0h1m3 0h4m3 0h1m2 0h2m1 0h1m1 0h3m1 0h1m1 0h1m3 0h1m1 0h2m1 0h2m3 0h4m7 0h4m6 0h1m1 0h2m3 0h1m3 0h6m2 0h1m1 0h1m1 0h6m2 0h1m3 0h2M5 92.5h1m1 0h7m3 0h4m2 0h1m3 0h1m2 0h1m1 0h5m4 0h1m1 0h7m1 0h1m3 0h4m1 0h8m1 0h1m1 0h2m5 0h2m1 0h2m3 0h7m4 0h3m2 0h1m1 0h2m1 0h4m1 0h2m2 0h5m1 0h1m1 0h1m2 0h1m1 0h2m1 0h2m3 0h1m6 0h5m1 0h2M6 93.5h1m2 0h1m2 0h1m2 0h1m2 0h2m2 0h1m3 0h4m4 0h2m1 0h2m1 0h4m5 0h4m1 0h2m1 0h1m2 0h1m2 0h3m4 0h2m1 0h9m1 0h1m1 0h1m1 0h1m2 0h1m2 0h1m1 0h2m2 0h1m1 0h1m2 0h3m1 0h2m1 0h1m1 0h2m5 0h1m1 0h2m3 0h2m1 0h2m1 0h1m2 0h1m1 0h2m3 0h1m4 0h5M5 94.5h1m2 0h1m1 0h2m1 0h1m1 0h3m1 0h1m2 0h1m3 0h1m1 0h1m6 0h3m1 0h2m2 0h1m1 0h1m1 0h1m2 0h1m3 0h2m2 0h2m2 0h2m3 0h2m4 0h1m5 0h2m5 0h2m1 0h3m2 0h2m1 0h1m1 0h2m2 0h1m2 0h1m5 0h1m1 0h1m1 0h1m4 0h4m1 0h3m1 0h2m1 0h3m2 0h1m3 0h6m2 0h1M5 95.5h5m2 0h4m1 0h1m2 0h2m1 0h1m5 0h4m1 0h3m4 0h2m6 0h1m1 0h1m1 0h1m7 0h3m3 0h2m3 0h3m4 0h2m1 0h1m2 0h1m2 0h2m1 0h2m1 0h2m1 0h1m5 0h1m1 0h2m2 0h1m2 0h2m3 0h3m2 0h1m1 0h2m1 0h3m7 0h1m1 0h1m1 0h3m1 0h1m3 0h1M5 96.5h2m1 0h1m1 0h2m3 0h1m1 0h1m1 0h2m1 0h2m1 0h3m2 0h8m1 0h1m1 0h1m1 0h7m5 0h1m2 0h2m4 0h2m1 0h3m1 0h1m1 0h1m1 0h1m1 0h1m1 0h1m1 0h1m1 0h1m3 0h2m1 0h2m1 0h1m4 0h2m2 0h1m1 0h1m1 0h2m3 0h1m2 0h3m1 0h2m1 0h4m1 0h2m1 0h1m3 0h5m4 0h2m1 0h2m1 0h5M6 97.5h2m1 0h1m3 0h1m7 0h4m2 0h5m4 0h1m3 0h3m2 0h1m1 0h1m2 0h1m1 0h1m1 0h1m1 0h1m4 0h2m2 0h2m2 0h1m1 0h1m2 0h4m2 0h1m1 0h3m2 0h1m1 0h1m1 0h1m1 0h2m1 0h1m1 0h2m2 0h7m1 0h2m2 0h5m5 0h2m2 0h4m2 0h2m3 0h2m1 0h1m1 0h4m1 0h4M4 98.5h3m2 0h2m4 0h1m1 0h2m1 0h4m3 0h2m1 0h1m1 0h1m1 0h1m2 0h6m6 0h1m5 0h3m2 0h6m1 0h1m4 0h2m4 0h3m1 0h1m2 0h3m1 0h1m1 0h2m1 0h2m3 0h3m1 0h1m1 0h1m4 0h1m1 0h2m2 0h1m2 0h1m1 0h1m1 0h1m6 0h1m1 0h4m6 0h1m1 0h1m5 0h2M4 99.5h6m2 0h1m5 0h1m2 0h4m2 0h1m3 0h2m4 0h1m1 0h1m2 0h3m1 0h1m1 0h7m1 0h4m1 0h4m1 0h3m1 0h1m1 0h3m1 0h1m2 0h2m1 0h4m1 0h2m3 0h5m2 0h1m6 0h1m4 0h3m3 0h2m1 0h1m3 0h2m1 0h3m4 0h1m1 0h2m1 0h1m1 0h3m1 0h1m3 0h1m1 0h2M8 100.5h6m4 0h2m1 0h1m1 0h5m2 0h1m4 0h1m1 0h1m3 0h1m2 0h1m1 0h3m6 0h2m1 0h3m1 0h1m1 0h3m2 0h1m4 0h1m1 0h1m1 0h1m1 0h2m1 0h2m2 0h1m2 0h1m4 0h6m1 0h1m2 0h1m1 0h4m1 0h1m1 0h2m1 0h1m1 0h1m5 0h3m2 0h1m2 0h1m2 0h1m1 0h3m1 0h2m1 0h2m1 0h3m1 0h1M6 101.5h3m2 0h2m2 0h1m1 0h2m1 0h1m1 0h1m2 0h3m2 0h2m1 0h10m4 0h1m1 0h2m1 0h1m1 0h2m1 0h1m1 0h1m4 0h1m6 0h1m1 0h1m1 0h2m3 0h1m2 0h1m2 0h2m5 0h1m2 0h1m1 0h2m1 0h1m2 0h1m3 0h2m7 0h1m5 0h1m10 0h1m1 0h2m5 0h2m4 0h2m1 0h1M5 102.5h2m1 0h1m1 0h1m3 0h1m3 0h4m1 0h2m3 0h2m3 0h1m1 0h2m2 0h1m3 0h1m1 0h1m5 0h2m1 0h4m1 0h1m1 0h1m1 0h1m1 0h1m1 0h3m2 0h1m6 0h2m1 0h1m1 0h2m1 0h1m1 0h1m1 0h2m1 0h2m1 0h1m1 0h2m2 0h1m2 0h1m2 0h1m1 0h3m1 0h1m3 0h5m4 0h1m2 0h3m1 0h2m6 0h2m2 0h1m2 0h1M5 103.5h5m1 0h2m7 0h1m3 0h1m1 0h2m1 0h2m3 0h1m6 0h1m1 0h2m2 0h2m1 0h3m2 0h1m2 0h1m2 0h1m1 0h2m2 0h2m4 0h1m2 0h1m1 0h1m1 0h1m1 0h1m2 0h1m1 0h2m3 0h1m1 0h4m2 0h1m3 0h1m1 0h2m9 0h1m1 0h2m1 0h1m1 0h2m1 0h4m1 0h1m3 0h2m1 0h1m1 0h2m2 0h1m3 0h1m1 0h2M4 104.5h3m1 0h3m1 0h1m1 0h3m2 0h2m1 0h5m5 0h1m1 0h3m6 0h4m1 0h1m3 0h1m2 0h2m1 0h1m6 0h1m1 0h1m1 0h1m1 0h2m8 0h1m1 0h1m4 0h2m3 0h1m1 0h2m1 0h2m1 0h4m2 0h1m2 0h2m1 0h1m1 0h3m1 0h3m2 0h1m5 0h1m8 0h2m1 0h2m1 0h2m1 0h1m1 0h1m1 0h1M8 105.5h1m2 0h1m4 0h2m3 0h1m1 0h2m1 0h1m4 0h2m2 0h4m1 0h2m3 0h1m1 0h1m2 0h2m1 0h2m2 0h1m3 0h1m2 0h1m1 0h1m3 0h2m3 0h4m1 0h8m3 0h2m1 0h3m6 0h3m2 0h1m1 0h1m2 0h3m7 0h2m1 0h1m2 0h3m1 0h1m2 0h5m3 0h1m2 0h6M6 106.5h3m1 0h1m2 0h2m2 0h5m1 0h1m3 0h2m3 0h1m1 0h2m2 0h6m1 0h1m2 0h3m4 0h2m2 0h1m4 0h2m1 0h2m3 0h3m1 0h1m2 0h1m1 0h1m2 0h3m2 0h2m1 0h1m1 0h2m4 0h1m2 0h1m1 0h3m1 0h4m1 0h2m2 0h1m2 0h1m1 0h1m2 0h1m1 0h1m2 0h3m1 0h2m1 0h1m4 0h3m1 0h2m2 0h1M4 107.5h6m1 0h3m2 0h2m1 0h2m2 0h6m1 0h1m1 0h2m1 0h1m3 0h3m1 0h2m2 0h2m1 0h2m4 0h1m1 0h1m1 0h5m1 0h1m4 0h3m1 0h1m2 0h2m3 0h1m1 0h1m1 0h3m2 0h1m1 0h1m1 0h1m3 0h2m4 0h1m4 0h2m4 0h2m3 0h1m2 0h1m1 0h4m6 0h1m1 0h4m2 0h1M5 108.5h3m2 0h2m1 0h4m1 0h5m1 0h1m1 0h2m1 0h2m2 0h2m1 0h1m2 0h1m1 0h1m1 0h4m1 0h2m5 0h2m1 0h1m6 0h2m2 0h2m2 0h2m2 0h1m3 0h2m1 0h1m1 0h1m2 0h2m4 0h2m4 0h4m2 0h2m2 0h1m1 0h3m3 0h3m1 0h2m6 0h2m3 0h2m1 0h4m3 0h7M5 109.5h1m1 0h2m4 0h3m2 0h2m3 0h3m1 0h1m2 0h1m1 0h1m3 0h3m1 0h1m1 0h2m3 0h1m1 0h2m1 0h1m1 0h1m4 0h2m4 0h1m3 0h1m1 0h1m1 0h1m1 0h1m1 0h1m4 0h2m1 0h1m1 0h1m1 0h1m1 0h1m4 0h1m1 0h2m2 0h4m2 0h1m2 0h1m1 0h1m1 0h1m4 0h1m3 0h2m4 0h4m1 0h2m5 0h9m1 0h1M5 110.5h4m1 0h1m1 0h2m3 0h1m4 0h1m2 0h1m3 0h1m1 0h1m1 0h1m3 0h4m5 0h2m3 0h6m1 0h4m5 0h4m1 0h1m6 0h2m1 0h1m2 0h2m5 0h3m2 0h1m2 0h1m2 0h1m2 0h1m3 0h1m1 0h1m3 0h1m2 0h1m1 0h1m1 0h1m2 0h1m3 0h2m1 0h4m3 0h1m3 0h1m2 0h2m1 0h2M9 111.5h1m1 0h1m3 0h1m1 0h1m2 0h3m1 0h3m1 0h1m2 0h7m1 0h9m1 0h1m2 0h1m1 0h1m1 0h1m1 0h1m1 0h2m1 0h1m2 0h2m3 0h4m4 0h1m4 0h5m3 0h1m1 0h1m2 0h1m2 0h2m3 0h3m5 0h1m3 0h2m3 0h1m2 0h1m1 0h1m1 0h2m5 0h2m1 0h1m1 0h2m2 0h1m3 0h1m1 0h1M10 112.5h1m5 0h4m1 0h1m4 0h2m1 0h1m3 0h1m1 0h1m1 0h1m3 0h1m1 0h2m1 0h1m8 0h2m1 0h1m5 0h2m3 0h2m1 0h1m4 0h1m2 0h1m1 0h1m3 0h3m1 0h2m3 0h2m1 0h2m1 0h1m1 0h2m4 0h2m1 0h4m1 0h5m3 0h1m1 0h1m1 0h3m1 0h1m2 0h1m1 0h3m1 0h11M4 113.5h4m4 0h1m1 0h2m3 0h2m2 0h2m1 0h1m3 0h3m1 0h1m3 0h1m1 0h1m1 0h1m2 0h5m1 0h2m1 0h2m3 0h2m4 0h1m3 0h3m1 0h3m1 0h1m2 0h2m2 0h2m1 0h3m5 0h5m1 0h5m1 0h2m1 0h1m2 0h2m5 0h8m5 0h4m8 0h3m1 0h2m1 0h1M4 114.5h1m1 0h1m2 0h2m1 0h1m1 0h3m2 0h1m1 0h1m1 0h3m1 0h1m1 0h2m1 0h5m1 0h5m1 0h3m1 0h3m3 0h2m3 0h3m1 0h2m2 0h2m1 0h1m2 0h2m1 0h6m1 0h1m1 0h1m2 0h2m3 0h2m2 0h1m2 0h1m1 0h2m2 0h2m1 0h1m1 0h3m1 0h1m2 0h1m1 0h4m4 0h1m1 0h2m1 0h4m5 0h3m3 0h1m2 0h1M5 115.5h4m2 0h3m3 0h1m2 0h1m1 0h1m2 0h1m1 0h3m1 0h1m1 0h4m4 0h1m2 0h5m2 0h1m1 0h1m1 0h4m1 0h2m1 0h1m3 0h1m3 0h4m1 0h1m2 0h2m1 0h4m1 0h1m4 0h1m1 0h2m1 0h1m1 0h3m3 0h5m3 0h1m3 0h2m1 0h3m2 0h1m1 0h4m6 0h5m3 0h1m1 0h1m1 0h1M4 116.5h2m1 0h7m3 0h1m2 0h2m4 0h2m4 0h5m2 0h1m1 0h1m1 0h7m3 0h1m1 0h4m1 0h10m1 0h2m2 0h3m1 0h1m1 0h1m1 0h2m3 0h5m2 0h4m1 0h1m1 0h4m1 0h2m1 0h2m2 0h7m1 0h1m1 0h1m3 0h2m1 0h2m2 0h3m1 0h1m1 0h1m1 0h9M5 117.5h4m3 0h5m2 0h3m1 0h1m1 0h1m1 0h2m1 0h3m3 0h3m1 0h1m1 0h1m3 0h2m2 0h3m1 0h1m5 0h1m3 0h2m2 0h4m2 0h2m4 0h1m1 0h2m1 0h1m1 0h2m3 0h2m1 0h2m5 0h3m1 0h3m2 0h1m1 0h2m1 0h1m3 0h2m1 0h4m3 0h4m4 0h1m5 0h1m3 0h2m1 0h2M8 118.5h1m1 0h1m1 0h4m2 0h3m1 0h1m1 0h1m5 0h3m1 0h1m1 0h1m1 0h3m5 0h4m1 0h1m1 0h1m2 0h1m2 0h2m1 0h1m1 0h1m1 0h2m4 0h3m1 0h4m5 0h1m1 0h2m1 0h1m1 0h3m4 0h2m4 0h2m2 0h4m1 0h1m1 0h1m1 0h1m1 0h5m3 0h1m3 0h2m1 0h2m3 0h1m2 0h2m1 0h1m1 0h4M4 119.5h3m1 0h1m3 0h1m2 0h1m5 0h1m1 0h3m3 0h4m3 0h7m3 0h1m1 0h1m2 0h1m1 0h2m1 0h1m1 0h1m1 0h1m3 0h1m1 0h1m1 0h1m1 0h1m1 0h2m1 0h1m2 0h1m3 0h1m1 0h5m3 0h1m1 0h1m2 0h1m2 0h1m2 0h1m2 0h1m1 0h1m2 0h3m2 0h1m3 0h1m1 0h1m1 0h6m6 0h2m1 0h1m1 0h1m1 0h2m3 0h1M4 120.5h2m1 0h6m1 0h1m2 0h1m1 0h1m1 0h2m3 0h2m1 0h1m2 0h5m2 0h1m3 0h1m1 0h5m5 0h11m3 0h1m1 0h1m2 0h2m1 0h3m1 0h1m1 0h1m1 0h1m2 0h5m2 0h5m1 0h2m1 0h1m4 0h2m1 0h1m1 0h7m1 0h2m1 0h1m1 0h4m4 0h2m1 0h1m2 0h1m2 0h7M4 121.5h1m2 0h1m1 0h1m2 0h1m2 0h1m1 0h1m3 0h2m2 0h3m1 0h2m1 0h2m1 0h6m1 0h1m1 0h1m1 0h2m3 0h2m1 0h2m3 0h1m4 0h1m1 0h1m3 0h4m1 0h3m1 0h6m1 0h2m2 0h2m3 0h3m1 0h1m4 0h1m1 0h1m1 0h1m4 0h2m1 0h2m1 0h6m6 0h1m1 0h2m3 0h9m1 0h5M5 122.5h1m1 0h1m2 0h1m1 0h1m1 0h1m1 0h3m1 0h2m1 0h1m1 0h2m3 0h1m4 0h5m3 0h2m1 0h2m1 0h1m3 0h2m2 0h2m1 0h3m2 0h1m1 0h2m3 0h3m1 0h1m1 0h1m2 0h2m1 0h1m1 0h1m1 0h2m1 0h1m2 0h1m2 0h2m1 0h1m4 0h1m1 0h1m1 0h1m2 0h1m2 0h1m4 0h2m1 0h1m2 0h1m4 0h6m1 0h1m1 0h1m3 0h1m2 0h2m2 0h1M4 123.5h2m1 0h2m5 0h2m1 0h7m7 0h1m2 0h3m3 0h2m2 0h4m1 0h3m3 0h7m1 0h1m6 0h1m1 0h5m3 0h1m2 0h3m2 0h1m3 0h1m1 0h1m1 0h2m1 0h1m6 0h2m3 0h2m5 0h3m3 0h6m7 0h1m1 0h3m2 0h1m3 0h2m1 0h1M6 124.5h1m1 0h1m1 0h3m2 0h4m1 0h3m3 0h7m1 0h2m1 0h1m3 0h1m1 0h2m1 0h1m1 0h1m4 0h1m1 0h4m1 0h6m2 0h4m2 0h1m2 0h2m7 0h4m2 0h1m4 0h2m3 0h1m2 0h1m2 0h3m2 0h2m1 0h3m3 0h1m1 0h2m1 0h1m1 0h1m2 0h3m1 0h1m2 0h2m1 0h2m6 0h3M4 125.5h1m3 0h1m2 0h2m2 0h1m5 0h1m1 0h1m1 0h5m3 0h1m1 0h1m1 0h4m1 0h1m6 0h2m1 0h1m1 0h1m6 0h1m4 0h1m2 0h3m2 0h2m4 0h1m1 0h7m1 0h2m1 0h2m1 0h1m2 0h1m3 0h2m1 0h1m3 0h1m4 0h2m2 0h1m3 0h1m1 0h2m3 0h7m1 0h1m2 0h3m1 0h8M4 126.5h3m2 0h3m4 0h2m3 0h2m5 0h1m4 0h2m1 0h1m1 0h3m1 0h2m6 0h1m1 0h1m2 0h2m3 0h3m1 0h1m2 0h1m5 0h2m1 0h1m2 0h1m1 0h2m1 0h3m1 0h1m2 0h5m3 0h2m1 0h1m2 0h3m4 0h1m1 0h1m5 0h5m1 0h1m4 0h1m1 0h3m2 0h1m3 0h1m1 0h1M4 127.5h2m2 0h2m3 0h2m1 0h2m1 0h2m1 0h2m3 0h2m1 0h6m1 0h1m1 0h2m4 0h2m1 0h1m4 0h1m2 0h3m2 0h1m2 0h1m2 0h2m1 0h1m1 0h2m1 0h1m2 0h3m1 0h1m2 0h1m2 0h1m1 0h2m2 0h3m2 0h2m2 0h1m2 0h1m2 0h1m2 0h1m2 0h2m3 0h1m4 0h3m1 0h1m4 0h1m1 0h2m1 0h4m4 0h3M4 128.5h2m1 0h2m1 0h1m2 0h3m2 0h1m3 0h3m3 0h2m1 0h2m7 0h2m1 0h1m2 0h1m1 0h1m2 0h1m3 0h4m1 0h2m1 0h3m3 0h1m2 0h1m2 0h3m2 0h1m2 0h1m1 0h4m3 0h1m2 0h1m1 0h6m1 0h1m4 0h3m1 0h2m1 0h3m2 0h1m1 0h2m1 0h2m1 0h1m1 0h3m2 0h1m2 0h1m2 0h2m1 0h1m4 0h3M4 129.5h1m1 0h1m1 0h2m1 0h1m1 0h1m1 0h2m3 0h1m2 0h1m1 0h2m2 0h7m2 0h2m2 0h1m4 0h1m1 0h2m1 0h2m1 0h1m9 0h1m2 0h4m2 0h1m3 0h1m1 0h1m1 0h2m3 0h1m1 0h3m1 0h1m1 0h3m1 0h1m3 0h3m2 0h3m1 0h1m1 0h4m2 0h1m2 0h1m3 0h1m1 0h1m1 0h1m1 0h4m1 0h1m3 0h2m1 0h5m2 0h1M4 130.5h1m1 0h1m1 0h3m3 0h2m1 0h4m2 0h2m1 0h1m1 0h2m2 0h3m3 0h1m3 0h2m3 0h1m3 0h5m10 0h5m1 0h5m1 0h4m2 0h1m1 0h1m2 0h1m1 0h1m1 0h2m2 0h2m1 0h1m4 0h3m2 0h2m1 0h1m6 0h2m1 0h2m3 0h1m1 0h2m1 0h1m1 0h2m1 0h1m3 0h1m1 0h1m1 0h1m3 0h1M5 131.5h3m1 0h1m1 0h1m2 0h2m1 0h7m5 0h1m3 0h2m2 0h1m1 0h1m1 0h1m4 0h2m4 0h2m3 0h1m2 0h3m3 0h2m5 0h1m1 0h1m3 0h1m2 0h1m2 0h1m4 0h6m3 0h2m2 0h1m1 0h2m9 0h1m1 0h1m6 0h3m1 0h1m2 0h1m1 0h1m2 0h7m1 0h4M4 132.5h1m1 0h1m1 0h1m1 0h6m1 0h2m3 0h2m3 0h1m1 0h1m2 0h1m2 0h3m6 0h1m1 0h4m3 0h1m2 0h1m1 0h1m1 0h2m1 0h1m1 0h1m3 0h1m1 0h1m3 0h5m1 0h1m2 0h1m3 0h2m2 0h1m4 0h3m2 0h1m1 0h3m2 0h3m2 0h1m1 0h2m1 0h1m4 0h1m2 0h3m4 0h1m1 0h4m4 0h1m5 0h2M4 133.5h1m2 0h1m4 0h1m1 0h1m2 0h1m2 0h1m1 0h1m2 0h5m2 0h1m3 0h1m1 0h5m4 0h1m1 0h4m1 0h2m1 0h1m4 0h1m2 0h2m3 0h3m1 0h4m3 0h3m3 0h1m2 0h2m1 0h1m2 0h3m8 0h2m4 0h3m2 0h2m1 0h1m1 0h3m4 0h3m1 0h3m4 0h4m1 0h3m1 0h1m1 0h1M10 134.5h1m2 0h1m1 0h1m1 0h2m7 0h4m1 0h1m1 0h6m4 0h2m1 0h2m4 0h3m3 0h1m1 0h1m1 0h1m2 0h3m1 0h2m2 0h2m3 0h2m2 0h1m2 0h1m4 0h1m1 0h1m2 0h1m4 0h1m1 0h1m2 0h1m1 0h1m2 0h3m3 0h3m2 0h4m5 0h4m1 0h2m1 0h1m3 0h1m2 0h2m4 0h1M4 135.5h1m4 0h1m1 0h3m3 0h2m1 0h2m3 0h1m2 0h1m1 0h1m1 0h5m3 0h2m2 0h1m2 0h1m2 0h1m4 0h1m1 0h2m2 0h4m2 0h2m3 0h2m2 0h1m3 0h1m2 0h1m1 0h2m1 0h1m2 0h1m1 0h1m1 0h1m4 0h2m3 0h2m2 0h1m5 0h2m1 0h2m2 0h1m1 0h4m1 0h2m1 0h1m3 0h7m2 0h4M5 136.5h1m2 0h5m1 0h1m2 0h1m3 0h1m3 0h1m1 0h1m2 0h1m1 0h1m2 0h1m1 0h1m6 0h5m2 0h1m1 0h1m2 0h1m1 0h1m1 0h2m1 0h3m1 0h1m1 0h3m1 0h5m1 0h1m1 0h2m3 0h2m1 0h1m2 0h1m1 0h1m2 0h2m3 0h1m1 0h1m2 0h1m1 0h3m1 0h2m1 0h3m1 0h2m2 0h2m2 0h1m1 0h1m1 0h1m3 0h2m1 0h1m1 0h4m2 0h1m1 0h3M4 137.5h3m6 0h1m1 0h1m1 0h1m1 0h1m1 0h4m1 0h1m1 0h1m2 0h1m3 0h1m1 0h4m1 0h1m6 0h4m1 0h2m1 0h2m3 0h1m1 0h1m4 0h2m1 0h2m1 0h2m1 0h1m4 0h1m1 0h1m1 0h2m1 0h1m2 0h1m2 0h2m3 0h1m1 0h4m4 0h1m1 0h1m2 0h1m1 0h1m1 0h1m2 0h2m2 0h1m5 0h2m1 0h3m1 0h2m1 0h1m1 0h6m1 0h1M5 138.5h2m1 0h4m1 0h3m5 0h2m1 0h1m2 0h1m6 0h2m1 0h1m2 0h1m2 0h1m1 0h1m2 0h3m1 0h4m1 0h2m4 0h1m2 0h2m3 0h1m1 0h2m1 0h2m1 0h3m3 0h2m2 0h2m2 0h3m1 0h5m3 0h4m2 0h3m7 0h1m1 0h2m5 0h2m1 0h4m1 0h1m1 0h1m4 0h1m1 0h2M9 139.5h1m1 0h1m4 0h1m1 0h1m4 0h2m2 0h3m1 0h4m1 0h2m1 0h3m4 0h1m3 0h2m1 0h1m2 0h3m1 0h1m1 0h3m1 0h3m1 0h6m3 0h2m2 0h4m1 0h1m2 0h1m1 0h2m9 0h1m1 0h1m1 0h1m2 0h2m3 0h1m8 0h1m1 0h2m7 0h4m1 0h1m2 0h1m3 0h2M4 140.5h1m2 0h4m1 0h1m1 0h1m4 0h2m1 0h2m1 0h2m1 0h2m4 0h1m2 0h1m5 0h7m1 0h1m4 0h12m3 0h1m3 0h3m1 0h3m2 0h1m4 0h1m1 0h2m2 0h5m2 0h2m3 0h2m1 0h1m1 0h3m1 0h2m2 0h3m5 0h2m1 0h2m3 0h1m3 0h1m2 0h2m6 0h1M4 141.5h1m2 0h2m3 0h1m2 0h2m3 0h1m10 0h1m1 0h2m1 0h3m1 0h3m2 0h1m4 0h1m1 0h3m2 0h1m7 0h1m2 0h1m1 0h2m1 0h4m4 0h4m2 0h2m1 0h2m2 0h1m1 0h1m1 0h2m1 0h1m1 0h3m2 0h1m4 0h5m1 0h1m1 0h2m3 0h2m5 0h1m1 0h3m5 0h2m1 0h3m2 0h1M6 142.5h3m1 0h1m2 0h4m3 0h1m2 0h1m3 0h1m1 0h4m1 0h1m3 0h1m1 0h1m2 0h7m2 0h6m1 0h3m2 0h1m2 0h4m1 0h3m2 0h1m1 0h4m1 0h3m2 0h2m1 0h1m1 0h1m2 0h2m1 0h2m5 0h1m4 0h1m2 0h1m2 0h1m1 0h4m4 0h1m1 0h2m1 0h4m1 0h1m3 0h1m1 0h3m2 0h1M5 143.5h3m5 0h5m1 0h2m1 0h4m2 0h1m1 0h2m1 0h2m1 0h6m2 0h1m1 0h1m1 0h4m2 0h2m2 0h1m1 0h2m2 0h1m1 0h3m3 0h5m2 0h1m3 0h3m2 0h1m2 0h4m1 0h1m1 0h1m1 0h2m2 0h1m1 0h2m1 0h1m1 0h3m1 0h1m9 0h5m2 0h1m1 0h1m2 0h3m1 0h1m1 0h5m1 0h1m1 0h2M5 144.5h1m3 0h3m1 0h1m1 0h1m1 0h3m1 0h1m4 0h1m1 0h10m1 0h1m4 0h1m1 0h4m1 0h1m1 0h1m2 0h3m1 0h7m2 0h1m6 0h2m1 0h1m1 0h4m1 0h1m1 0h5m2 0h1m1 0h1m1 0h1m2 0h2m6 0h2m2 0h8m1 0h1m3 0h1m2 0h2m1 0h3m2 0h4m1 0h8m1 0h1M12 145.5h1m2 0h1m1 0h3m1 0h1m2 0h1m1 0h1m2 0h2m1 0h1m3 0h8m5 0h2m1 0h1m1 0h2m3 0h2m3 0h5m2 0h2m2 0h1m1 0h2m2 0h1m1 0h1m1 0h1m1 0h2m3 0h3m1 0h1m4 0h3m2 0h1m1 0h1m2 0h1m4 0h1m3 0h5m2 0h1m5 0h1m2 0h1m1 0h2m1 0h1m1 0h2m3 0h1m2 0h2M4 146.5h7m1 0h1m3 0h5m2 0h1m2 0h1m1 0h1m2 0h2m1 0h1m1 0h3m2 0h2m5 0h2m2 0h1m1 0h2m1 0h4m1 0h1m1 0h1m4 0h2m3 0h1m1 0h1m1 0h3m4 0h1m2 0h1m1 0h1m1 0h4m4 0h1m3 0h4m3 0h2m1 0h3m1 0h1m1 0h2m1 0h1m6 0h6m2 0h3m1 0h3m1 0h1m1 0h1M4 147.5h1m5 0h1m5 0h3m1 0h2m6 0h2m1 0h2m3 0h1m1 0h6m1 0h3m3 0h1m4 0h3m1 0h1m3 0h1m1 0h1m1 0h1m1 0h2m1 0h1m4 0h2m3 0h1m1 0h1m1 0h2m3 0h1m1 0h3m3 0h2m1 0h2m1 0h2m1 0h1m2 0h1m3 0h1m3 0h1m3 0h6m2 0h3m1 0h4m1 0h1m2 0h1m3 0h2m1 0h2M4 148.5h1m1 0h3m1 0h1m1 0h1m1 0h3m8 0h1m1 0h1m2 0h8m6 0h1m1 0h1m1 0h2m3 0h1m1 0h2m1 0h1m1 0h6m3 0h1m5 0h3m2 0h3m2 0h2m1 0h6m1 0h1m2 0h3m1 0h1m1 0h1m2 0h6m1 0h1m1 0h6m3 0h1m3 0h3m1 0h1m3 0h2m1 0h2m2 0h6m1 0h1M4 149.5h1m1 0h3m1 0h1m1 0h2m3 0h3m2 0h1m1 0h3m1 0h2m2 0h1m1 0h2m1 0h2m1 0h4m5 0h4m1 0h1m6 0h3m1 0h1m4 0h2m6 0h1m1 0h1m2 0h2m2 0h3m2 0h8m1 0h2m1 0h1m1 0h1m1 0h1m1 0h2m1 0h6m1 0h1m2 0h1m3 0h1m1 0h1m1 0h1m1 0h4m1 0h1m8 0h1m1 0h1m1 0h1M4 150.5h1m1 0h3m1 0h1m1 0h2m1 0h1m1 0h8m2 0h8m1 0h1m4 0h3m2 0h3m1 0h1m1 0h6m2 0h1m4 0h4m4 0h2m1 0h1m2 0h4m2 0h1m1 0h2m4 0h1m4 0h3m1 0h2m1 0h1m1 0h1m3 0h3m1 0h7m1 0h1m4 0h1m1 0h1m1 0h2m1 0h1m2 0h1m5 0h1m1 0h4m1 0h1M4 151.5h1m5 0h1m1 0h1m1 0h1m1 0h1m2 0h1m1 0h1m1 0h2m7 0h6m2 0h1m3 0h3m1 0h1m7 0h1m1 0h2m2 0h1m1 0h2m1 0h1m3 0h4m3 0h3m1 0h1m1 0h3m3 0h1m2 0h4m3 0h4m2 0h2m3 0h2m2 0h1m2 0h1m1 0h1m4 0h1m1 0h3m4 0h1m2 0h3m1 0h1m2 0h2m1 0h3m1 0h1M4 152.5h7m1 0h2m2 0h2m1 0h2m4 0h1m1 0h3m1 0h1m1 0h1m2 0h1m3 0h2m2 0h1m1 0h1m1 0h2m1 0h1m3 0h4m2 0h4m1 0h2m1 0h1m1 0h1m2 0h2m1 0h7m4 0h2m2 0h1m2 0h1m2 0h1m1 0h1m7 0h1m1 0h1m1 0h3m1 0h1m3 0h3m1 0h1m4 0h1m2 0h2m3 0h1m4 0h1m2 0h4m1 0h1"/></svg>
