<?xml version="1.0" encoding="utf-8"?><!DOCTYPE svg PUBLIC "-//W3C//DTD SVG 1.1//EN" "http://www.w3.org/Graphics/SVG/1.1/DTD/svg11.dtd"><svg xmlns="http://www.w3.org/2000/svg" viewBox="0 0 185 185" shape-rendering="crispEdges"><path fill="#ffffff" d="M0 0h185v185H0z"/><path stroke="#000000" d="M4 4.5h7m3 0h1m2 0h2m3 0h1m4 0h2m1 0h1m4 0h4m2 0h1m2 0h5m1 0h1m1 0h6m1 0h1m3 0h2m3 0h1m2 0h3m5 0h5m1 0h1m1 0h1m3 0h5m1 0h1m3 0h1m2 0h4m4 0h2m1 0h1m2 0h10m1 0h1m1 0h1m1 0h4m1 0h2m5 0h1m3 0h2m1 0h1m1 0h1m1 0h1m1 0h1m2 0h1m1 0h3m2 0h1m1 0h1m3 0h7M4 5.5h1m5 0h1m1 0h4m1 0h1m6 0h1m1 0h4m1 0h1m2 0h2m1 0h1m2 0h2m1 0h1m2 0h2m3 0h2m2 0h1m2 0h2m2 0h3m2 0h6m6 0h6m2 0h1m1 0h2m2 0h1m3 0h2m2 0h3m4 0h1m2 0h2m1 0h1m2 0h2m1 0h2m3 0h3m1 0h1m1 0h1m2 0h1m1 0h6m1 0h1m1 0h2m1 0h1m1 0h2m5 0h5m3 0h2m2 0h2m1 0h1m1 0h1m5 0h1M4 6.5h1m1 0h3m1 0h1m2 0h6m1 0h1m2 0h1m2 0h1m1 0h1m5 0h1m3 0h2m6 0h4m2 0h2m2 0h6m2 0h4m1 0h1m3 0h7m1 0h2m2 0h4m3 0h1m2 0h1m7 0h3m1 0h4m2 0h1m1 0h2m5 0h1m1 0h3m1 0h2m3 0h3m1 0h1m2 0h1m1 0h1m1 0h4m1 0h1m4 0h2m7 0h1m2 0h1m3 0h1m3 0h1m1 0h3m1 0h1M4 7.5h1m1 0h3m1 0h1m1 0h1m3 0h1m4 0h2m3 0h3m1 0h1m1 0h1m1 0h2m3 0h1m2 0h2m1 0h1m1 0h5m2 0h4m1 0h1m1 0h1m1 0h2m1 0h1m2 0h1m1 0h1m1 0h4m3 0h2m1 0h1m1 0h1m1 0h2m1 0h2m1 0h3m2 0h1m1 0h2m9 0h2m2 0h1m5 0h1m3 0h1m2 0h3m1 0h2m1 0h2m2 0h4m1 0h1m1 0h1m1 0h1m1 0h1m1 0h2m2 0h1m1 0h2m2 0h3m2 0h2m2 0h2m1 0h1m1 0h3m1 0h1M4 8.5h1m1 0h3m1 0h1m2 0h1m4 0h2m2 0h2m2 0h3m2 0h9m1 0h4m3 0h3m4 0h2m3 0h6m1 0h2m5 0h1m2 0h2m5 0h1m3 0h5m1 0h1m4 0h1m1 0h1m1 0h1m2 0h2m4 0h1m2 0h8m1 0h4m3 0h1m1 0h4m1 0h2m1 0h1m2 0h5m2 0h4m1 0h4m1 0h1m1 0h2m1 0h2m1 0h1m4 0h1m1 0h3m1 0h1M4 9.5h1m5 0h1m1 0h3m1 0h2m4 0h1m5 0h1m3 0h1m3 0h1m6 0h1m1 0h2m4 0h2m1 0h1m2 0h1m1 0h2m3 0h1m2 0h2m1 0h1m1 0h2m3 0h1m3 0h2m1 0h2m1 0h2m3 0h1m4 0h3m1 0h2m4 0h1m3 0h1m2 0h1m1 0h1m3 0h1m1 0h2m1 0h2m1 0h1m1 0h2m3 0h4m2 0h1m2 0h1m3 0h2m1 0h1m1 0h3m3 0h3m1 0h1m2 0h2m1 0h2m1 0h1m1 0h1m5 0h1M4 10.5h7m1 0h1m1 0h1m1 0h1m1 0h1m1 0h1m1 0h1m1 0h1m1 0h1m1 0h1m1 0h1m1 0h1m1 0h1m1 0h1m1 0h1m1 0h1m1 0h1m1 0h1m1 0h1m1 0h1m1 0h1m1 0h1m1 0h1m1 0h1m1 0h1m1 0h1m1 0h1m1 0h1m1 0h1m1 0h1m1 0h1m1 0h1m1 0h1m1 0h1m1 0h1m1 0h1m1 0h1m1 0h1m1 0h1m1 0h1m1 0h1m1 0h1m1 0h1m1 0h1m1 0h1m1 0h1m1 0h1m1 0h1m1 0h1m1 0h1m1 0h1m1 0h1m1 0h1m1 0h1m1 0h1m1 0h1m1 0h1m1 0h1m1 0h1m1 0h1m1 0h1m1 0h1m1 0h1m1 0h1m1 0h1m1 0h1m1 0h1m1 0h1m1 0h1m1 0h1m1 0h1m1 0h1m1 0h1m1 0h1m1 0h1m1 0h1m1 0h1m1 0h1m1 0h1m1 0h1m1 0h1m1 0h1m1 0h7M14 11.5h1m1 0h2m1 0h2m4 0h1m2 0h3m1 0h1m3 0h1m3 0h2m4 0h2m1 0h1m2 0h1m2 0h1m2 0h1m1 0h1m3 0h1m1 0h1m4 0h1m2 0h1m1 0h1m1 0h2m6 0h1m1 0h1m3 0h1m1 0h1m1 0h1m1 0h2m3 0h3m2 0h2m4 0h1m1 0h1m3 0h1m4 0h1m1 0h2m2 0h1m3 0h4m3 0h3m3 0h1m4 0h2m8 0h1m1 0h3m3 0h2M4 12.5h5m1 0h3m3 0h4m1 0h1m1 0h2m1 0h2m1 0h1m2 0h5m3 0h1m1 0h1m5 0h1m1 0h2m2 0h1m1 0h2m2 0h6m1 0h1m2 0h1m5 0h3m3 0h1m1 0h1m1 0h8m1 0h1m1 0h1m2 0h1m8 0h2m1 0h3m1 0h6m3 0h1m1 0h2m1 0h1m1 0h2m1 0h3m2 0h9m1 0h2m1 0h1m1 0h5m1 0h2m6 0h5m1 0h1m1 0h1m1 0h1M5 13.5h3m3 0h1m1 0h4m3 0h5m1 0h1m2 0h2m1 0h7m2 0h2m3 0h1m2 0h2m3 0h1m1 0h2m1 0h1m2 0h4m2 0h5m6 0h1m6 0h1m1 0h1m2 0h2m1 0h1m2 0h1m1 0h2m3 0h3m5 0h2m2 0h4m2 0h1m1 0h1m1 0h2m6 0h3m1 0h2m1 0h1m2 0h2m2 0h2m3 0h2m1 0h2m4 0h1m1 0h1m1 0h1m1 0h2m5 0h1m4 0h1M4 14.5h1m1 0h2m2 0h1m1 0h1m2 0h1m1 0h4m1 0h3m1 0h3m2 0h2m4 0h1m1 0h1m2 0h1m2 0h3m1 0h2m1 0h2m1 0h1m2 0h2m1 0h2m4 0h2m1 0h1m2 0h1m3 0h1m1 0h4m1 0h1m3 0h1m4 0h1m2 0h1m1 0h1m1 0h1m1 0h1m1 0h1m3 0h3m1 0h1m1 0h2m1 0h2m1 0h3m1 0h5m2 0h1m2 0h1m1 0h1m2 0h1m1 0h2m1 0h1m1 0h3m6 0h1m1 0h1m1 0h3m1 0h1m3 0h1m5 0h2m1 0h1m1 0h1M5 15.5h2m2 0h1m2 0h3m1 0h2m1 0h1m1 0h1m1 0h6m3 0h1m1 0h2m2 0h2m1 0h4m1 0h2m3 0h3m2 0h3m1 0h1m2 0h1m2 0h1m4 0h6m2 0h1m6 0h1m4 0h4m1 0h1m2 0h1m3 0h4m1 0h1m1 0h1m2 0h1m5 0h1m1 0h1m5 0h1m2 0h3m2 0h1m2 0h1m1 0h4m1 0h2m2 0h1m1 0h1m1 0h2m2 0h1m8 0h2m1 0h1m2 0h7m1 0h1M4 16.5h2m1 0h1m1 0h2m1 0h1m2 0h1m1 0h3m1 0h2m1 0h2m3 0h3m3 0h3m5 0h3m1 0h4m2 0h1m1 0h3m1 0h1m1 0h1m5 0h3m2 0h3m1 0h4m5 0h1m4 0h1m2 0h2m2 0h4m1 0h1m3 0h1m5 0h3m1 0h2m2 0h2m1 0h1m1 0h1m2 0h3m1 0h1m4 0h1m4 0h1m2 0h2m1 0h1m1 0h1m1 0h1m2 0h2m1 0h1m1 0h4m3 0h4m1 0h1m1 0h2M5 17.5h4m2 0h1m3 0h1m2 0h1m1 0h1m1 0h3m7 0h2m2 0h1m3 0h2m1 0h3m2 0h2m5 0h3m4 0h1m1 0h2m2 0h1m1 0h3m5 0h6m3 0h3m1 0h4m1 0h1m6 0h4m1 0h2m3 0h1m1 0h2m1 0h5m1 0h1m1 0h2m3 0h1m2 0h3m1 0h1m2 0h1m1 0h3m1 0h2m1 0h1m1 0h2m1 0h1m3 0h1m1 0h2m1 0h2m2 0h1m1 0h3m2 0h1m2 0h3M10 18.5h1m1 0h2m1 0h2m3 0h6m1 0h2m1 0h2m1 0h3m1 0h1m2 0h1m2 0h1m1 0h2m4 0h3m3 0h1m1 0h2m1 0h3m3 0h1m1 0h1m1 0h1m2 0h2m2 0h2m1 0h1m1 0h2m1 0h2m1 0h2m1 0h1m5 0h1m2 0h1m2 0h4m1 0h3m1 0h2m1 0h2m1 0h2m2 0h3m2 0h1m1 0h1m5 0h1m3 0h1m2 0h3m1 0h4m3 0h1m3 0h3m1 0h1m2 0h1m2 0h2m1 0h1m1 0h5M4 19.5h3m1 0h1m4 0h1m3 0h3m2 0h1m1 0h1m1 0h1m1 0h3m5 0h6m3 0h2m2 0h1m5 0h2m1 0h1m1 0h1m2 0h2m1 0h1m2 0h1m1 0h1m1 0h4m1 0h2m3 0h1m1 0h5m1 0h2m2 0h2m6 0h4m1 0h1m1 0h1m2 0h1m1 0h4m2 0h3m1 0h2m3 0h3m1 0h2m1 0h1m1 0h1m2 0h1m2 0h1m1 0h1m1 0h1m4 0h1m6 0h1m3 0h2m4 0h3m1 0h2m1 0h2M4 20.5h2m2 0h1m1 0h1m1 0h1m5 0h1m1 0h2m4 0h1m1 0h3m3 0h5m3 0h1m5 0h1m2 0h4m1 0h1m2 0h1m1 0h1m4 0h1m9 0h1m2 0h1m1 0h2m3 0h1m3 0h1m2 0h1m3 0h2m1 0h1m2 0h1m7 0h3m2 0h1m3 0h1m7 0h1m1 0h4m1 0h1m1 0h1m1 0h5m1 0h1m2 0h1m1 0h1m4 0h2m1 0h2m1 0h1m3 0h3m2 0h1m1 0h2m3 0h1m1 0h2M4 21.5h1m1 0h1m1 0h2m1 0h1m1 0h3m1 0h2m1 0h1m2 0h2m2 0h10m1 0h1m3 0h1m1 0h3m1 0h1m1 0h1m3 0h4m3 0h4m3 0h1m1 0h2m1 0h3m2 0h3m1 0h1m1 0h3m1 0h5m1 0h2m1 0h1m2 0h1m2 0h1m1 0h2m2 0h1m1 0h2m3 0h3m1 0h3m1 0h1m1 0h1m6 0h7m1 0h1m3 0h1m1 0h2m1 0h9m2 0h4m1 0h6m4 0h2m2 0h1M4 22.5h3m3 0h1m1 0h2m1 0h1m6 0h1m4 0h4m1 0h2m2 0h1m1 0h2m1 0h1m1 0h1m1 0h2m2 0h2m1 0h2m5 0h2m4 0h1m4 0h1m1 0h2m6 0h5m5 0h1m2 0h1m1 0h1m1 0h2m3 0h1m6 0h2m3 0h1m2 0h4m4 0h1m1 0h1m1 0h1m1 0h4m1 0h1m1 0h1m5 0h3m1 0h1m4 0h2m2 0h2m1 0h1m2 0h1m1 0h1m1 0h1m1 0h3m2 0h1m1 0h1m1 0h1M4 23.5h1m2 0h1m7 0h1m2 0h1m2 0h2m2 0h1m1 0h1m1 0h3m1 0h3m4 0h1m5 0h2m5 0h1m2 0h2m2 0h1m2 0h1m2 0h1m6 0h2m1 0h4m2 0h2m1 0h2m1 0h2m3 0h1m1 0h5m2 0h7m1 0h2m2 0h1m8 0h1m2 0h1m1 0h1m3 0h2m1 0h1m1 0h1m2 0h1m1 0h2m1 0h1m5 0h1m2 0h1m1 0h1m3 0h1m2 0h1m2 0h4m2 0h1m2 0h4M7 24.5h1m1 0h4m4 0h3m1 0h2m1 0h2m4 0h4m1 0h1m1 0h3m2 0h1m4 0h1m1 0h3m2 0h3m1 0h1m2 0h1m3 0h1m2 0h2m1 0h1m1 0h2m1 0h1m1 0h1m2 0h1m2 0h1m2 0h1m3 0h2m1 0h1m4 0h2m2 0h1m1 0h3m1 0h1m1 0h4m2 0h1m1 0h2m2 0h1m1 0h1m1 0h6m7 0h3m2 0h4m1 0h1m6 0h3m1 0h4m4 0h3m1 0h1M5 25.5h1m1 0h1m1 0h1m1 0h1m2 0h1m1 0h1m2 0h2m3 0h1m1 0h1m1 0h1m1 0h2m1 0h3m2 0h2m2 0h1m1 0h3m2 0h1m5 0h3m1 0h1m1 0h5m1 0h1m5 0h1m1 0h2m2 0h2m1 0h3m2 0h2m1 0h6m1 0h1m1 0h3m4 0h4m1 0h3m2 0h1m1 0h2m1 0h4m1 0h2m1 0h2m3 0h3m1 0h2m1 0h1m1 0h1m1 0h1m1 0h1m3 0h1m1 0h1m2 0h1m1 0h1m3 0h1m1 0h2m1 0h2m1 0h2m3 0h2m2 0h2M4 26.5h3m3 0h1m5 0h2m3 0h3m1 0h1m1 0h3m2 0h1m1 0h1m1 0h2m3 0h1m3 0h3m1 0h2m1 0h1m1 0h1m3 0h1m2 0h1m2 0h1m2 0h2m1 0h1m1 0h2m3 0h1m1 0h4m1 0h1m10 0h4m3 0h3m4 0h3m2 0h1m2 0h5m1 0h5m1 0h1m1 0h2m3 0h1m1 0h4m1 0h1m1 0h5m5 0h1m3 0h2m2 0h1m1 0h3m1 0h1m1 0h1m1 0h3m1 0h2M5 27.5h1m1 0h2m2 0h4m1 0h1m3 0h1m2 0h1m1 0h3m1 0h3m4 0h1m1 0h1m1 0h1m4 0h3m5 0h1m3 0h2m1 0h1m2 0h1m2 0h1m2 0h1m3 0h4m1 0h2m3 0h1m3 0h1m8 0h1m2 0h1m4 0h1m1 0h1m1 0h2m1 0h1m1 0h2m2 0h2m2 0h2m4 0h3m1 0h1m1 0h2m4 0h1m1 0h1m1 0h1m2 0h3m2 0h1m1 0h4m2 0h2m2 0h1m1 0h3m4 0h5m1 0h2M4 28.5h4m2 0h3m2 0h3m4 0h1m2 0h2m1 0h2m1 0h1m2 0h2m2 0h1m3 0h9m1 0h1m1 0h2m2 0h2m1 0h1m3 0h2m1 0h1m1 0h1m1 0h1m3 0h1m1 0h3m6 0h2m1 0h1m3 0h1m3 0h3m1 0h2m8 0h1m4 0h1m5 0h1m1 0h1m1 0h2m1 0h3m2 0h1m3 0h4m2 0h1m1 0h2m1 0h2m1 0h1m2 0h1m1 0h2m2 0h1m1 0h1m1 0h1m1 0h1m1 0h1m8 0h1M7 29.5h3m1 0h2m8 0h3m2 0h1m2 0h2m1 0h1m1 0h1m4 0h1m2 0h1m1 0h3m1 0h3m2 0h1m2 0h1m2 0h2m3 0h1m2 0h2m2 0h2m3 0h3m1 0h1m2 0h2m2 0h4m1 0h1m1 0h1m2 0h1m8 0h2m3 0h2m2 0h2m1 0h2m1 0h1m1 0h4m2 0h1m3 0h4m1 0h2m3 0h2m3 0h1m2 0h2m3 0h3m2 0h2m1 0h1m3 0h1m2 0h1m1 0h1m1 0h1m4 0h1M4 30.5h1m3 0h1m1 0h3m1 0h1m1 0h1m1 0h1m4 0h1m2 0h4m3 0h4m3 0h2m5 0h1m1 0h1m1 0h5m5 0h2m1 0h2m1 0h4m1 0h2m5 0h2m1 0h3m2 0h1m3 0h1m1 0h1m1 0h1m1 0h3m2 0h1m2 0h1m4 0h1m1 0h3m3 0h1m1 0h1m3 0h2m5 0h1m4 0h3m3 0h1m1 0h3m3 0h2m1 0h2m5 0h1m1 0h1m3 0h2m1 0h2m5 0h1m1 0h1M4 31.5h4m1 0h1m1 0h1m1 0h2m2 0h1m1 0h3m1 0h1m2 0h2m4 0h1m2 0h2m3 0h1m3 0h1m1 0h2m1 0h1m5 0h5m4 0h1m2 0h1m1 0h1m3 0h4m1 0h2m3 0h1m1 0h4m2 0h3m1 0h3m3 0h2m1 0h1m3 0h1m1 0h1m2 0h2m1 0h2m3 0h2m2 0h1m1 0h2m1 0h1m6 0h1m1 0h2m1 0h1m3 0h1m4 0h1m1 0h3m7 0h1m1 0h3m4 0h1m3 0h5M4 32.5h1m1 0h9m3 0h2m2 0h1m1 0h1m1 0h1m3 0h1m1 0h5m5 0h3m3 0h4m2 0h3m1 0h8m3 0h1m1 0h2m1 0h1m2 0h2m2 0h1m3 0h1m2 0h8m3 0h2m1 0h2m3 0h1m1 0h1m2 0h1m3 0h6m1 0h2m2 0h4m1 0h2m5 0h2m1 0h10m4 0h1m2 0h2m1 0h1m1 0h2m1 0h1m1 0h8m3 0h1M5 33.5h1m2 0h1m3 0h1m4 0h5m3 0h3m4 0h1m3 0h2m1 0h1m1 0h2m1 0h1m1 0h1m1 0h3m3 0h1m1 0h1m3 0h1m3 0h1m1 0h3m1 0h2m1 0h1m1 0h2m2 0h3m2 0h2m1 0h2m3 0h4m1 0h1m2 0h2m1 0h1m2 0h2m4 0h2m2 0h1m3 0h5m1 0h1m2 0h1m4 0h5m5 0h1m3 0h2m1 0h2m1 0h3m1 0h2m1 0h1m2 0h3m1 0h1m1 0h1m1 0h1m3 0h1m1 0h1m1 0h1M5 34.5h1m2 0h1m1 0h1m1 0h1m1 0h2m1 0h2m2 0h1m3 0h5m2 0h1m1 0h1m1 0h5m1 0h1m3 0h2m3 0h5m2 0h1m1 0h1m1 0h1m1 0h2m2 0h1m1 0h1m1 0h1m4 0h1m1 0h4m1 0h2m1 0h2m1 0h1m1 0h2m3 0h3m4 0h2m1 0h1m2 0h3m3 0h1m1 0h1m1 0h2m1 0h3m1 0h1m1 0h3m1 0h2m2 0h5m2 0h1m1 0h1m1 0h2m3 0h1m1 0h1m1 0h1m2 0h2m1 0h1m2 0h1m2 0h4m1 0h1m1 0h2M8 35.5h1m3 0h1m2 0h3m1 0h1m1 0h2m1 0h1m1 0h2m2 0h1m1 0h1m3 0h1m4 0h1m1 0h1m2 0h1m4 0h3m3 0h2m1 0h1m3 0h2m1 0h1m1 0h1m1 0h1m2 0h1m1 0h1m1 0h2m2 0h2m2 0h1m1 0h1m3 0h3m1 0h1m4 0h5m1 0h2m2 0h1m4 0h1m3 0h2m1 0h1m7 0h2m2 0h1m1 0h1m2 0h5m3 0h1m2 0h4m2 0h1m1 0h2m2 0h2m1 0h2m1 0h1m1 0h2m3 0h1m1 0h1M7 36.5h7m2 0h1m3 0h2m1 0h1m1 0h1m6 0h5m4 0h2m4 0h1m1 0h2m2 0h2m2 0h1m1 0h6m5 0h1m4 0h1m1 0h2m2 0h1m3 0h1m2 0h7m5 0h1m2 0h1m2 0h1m2 0h2m1 0h2m2 0h5m6 0h2m1 0h1m1 0h1m4 0h1m1 0h4m1 0h8m1 0h4m1 0h2m1 0h2m1 0h1m2 0h1m1 0h2m1 0h6M4 37.5h1m1 0h2m1 0h1m2 0h1m2 0h1m2 0h8m1 0h3m1 0h1m4 0h3m1 0h1m3 0h1m4 0h2m2 0h1m3 0h5m4 0h1m1 0h4m1 0h2m1 0h6m1 0h1m1 0h1m3 0h4m1 0h1m2 0h1m2 0h1m2 0h5m3 0h3m1 0h2m1 0h1m3 0h1m1 0h1m1 0h1m4 0h1m1 0h5m3 0h2m1 0h1m1 0h1m1 0h5m1 0h1m1 0h2m2 0h3m1 0h1m3 0h1m2 0h2m1 0h2m4 0h1M6 38.5h1m3 0h1m5 0h6m1 0h2m1 0h1m3 0h3m2 0h1m1 0h1m2 0h1m2 0h1m1 0h3m1 0h1m2 0h2m1 0h1m2 0h2m1 0h2m1 0h1m2 0h2m1 0h1m1 0h2m1 0h1m1 0h1m1 0h5m3 0h1m1 0h1m1 0h2m3 0h5m1 0h3m2 0h5m1 0h2m1 0h4m1 0h1m1 0h6m1 0h2m7 0h1m4 0h1m10 0h1m2 0h4m7 0h1m2 0h1m4 0h1M4 39.5h1m1 0h2m4 0h3m1 0h1m6 0h1m1 0h2m2 0h1m1 0h3m1 0h1m2 0h1m1 0h2m1 0h1m2 0h1m2 0h1m2 0h1m4 0h2m1 0h2m1 0h2m1 0h1m2 0h1m3 0h2m1 0h1m1 0h1m4 0h1m3 0h1m1 0h3m1 0h6m2 0h6m1 0h1m1 0h2m1 0h2m1 0h1m1 0h3m1 0h1m6 0h7m1 0h2m1 0h2m2 0h4m1 0h1m1 0h1m1 0h2m5 0h2m1 0h1m2 0h1m7 0h1m1 0h3M4 40.5h9m2 0h1m1 0h1m4 0h2m6 0h2m1 0h1m2 0h1m2 0h1m1 0h1m2 0h1m2 0h1m2 0h1m1 0h1m1 0h2m1 0h1m2 0h2m1 0h1m1 0h4m2 0h1m4 0h3m6 0h1m5 0h1m1 0h2m2 0h4m4 0h1m3 0h1m2 0h2m3 0h1m1 0h1m1 0h1m3 0h1m1 0h2m1 0h1m1 0h2m5 0h5m2 0h1m3 0h1m1 0h1m2 0h5m2 0h3m3 0h1m1 0h1m1 0h3m1 0h1m1 0h2M5 41.5h2m2 0h1m1 0h1m1 0h1m1 0h3m4 0h1m1 0h3m2 0h1m5 0h1m2 0h1m1 0h2m1 0h4m3 0h2m1 0h1m1 0h2m4 0h1m4 0h1m1 0h5m2 0h1m3 0h2m1 0h3m3 0h1m1 0h1m2 0h2m2 0h1m1 0h3m1 0h1m2 0h2m5 0h1m1 0h2m1 0h2m2 0h3m2 0h1m5 0h2m1 0h1m1 0h2m1 0h1m1 0h1m1 0h1m1 0h7m2 0h1m2 0h1m1 0h1m1 0h4m1 0h1m2 0h2m1 0h1m5 0h1M6 42.5h2m1 0h3m1 0h1m1 0h4m1 0h1m3 0h3m1 0h3m1 0h2m1 0h3m1 0h5m3 0h3m2 0h2m4 0h2m2 0h1m1 0h5m1 0h3m6 0h2m1 0h1m1 0h1m4 0h2m1 0h1m2 0h1m1 0h3m3 0h2m2 0h1m4 0h1m1 0h6m1 0h1m2 0h3m6 0h2m1 0h3m2 0h2m2 0h1m1 0h2m2 0h1m2 0h2m1 0h1m2 0h2m1 0h1m1 0h3m1 0h1m2 0h2m2 0h3M5 43.5h4m2 0h1m1 0h1m6 0h4m1 0h1m2 0h3m1 0h4m1 0h1m1 0h1m3 0h2m1 0h1m1 0h2m1 0h2m2 0h2m1 0h1m4 0h2m2 0h1m3 0h1m2 0h1m1 0h4m1 0h1m5 0h2m5 0h3m1 0h4m2 0h2m1 0h3m1 0h1m2 0h3m1 0h1m1 0h2m6 0h1m1 0h1m5 0h1m6 0h1m2 0h1m2 0h1m3 0h3m1 0h1m1 0h3m4 0h2m3 0h1m2 0h1m1 0h1m1 0h1M7 44.5h1m2 0h5m4 0h2m1 0h4m5 0h3m3 0h1m2 0h1m1 0h2m3 0h2m1 0h1m1 0h4m3 0h1m5 0h2m3 0h1m1 0h2m1 0h2m1 0h2m4 0h1m1 0h1m1 0h2m1 0h1m5 0h5m1 0h1m2 0h1m2 0h4m3 0h2m3 0h1m3 0h1m1 0h2m1 0h4m1 0h1m4 0h3m3 0h2m2 0h1m3 0h3m1 0h2m2 0h3m2 0h4m2 0h1m1 0h2m3 0h1M5 45.5h1m1 0h1m1 0h1m2 0h3m3 0h1m2 0h1m1 0h3m3 0h1m1 0h4m1 0h1m1 0h4m1 0h2m1 0h1m1 0h4m6 0h4m1 0h1m3 0h2m2 0h1m3 0h3m1 0h6m2 0h2m1 0h1m1 0h1m1 0h2m1 0h1m1 0h2m3 0h3m2 0h1m1 0h3m1 0h1m1 0h3m2 0h1m1 0h2m1 0h1m5 0h7m3 0h3m1 0h2m1 0h1m2 0h4m1 0h2m1 0h2m3 0h2m1 0h3m3 0h1m1 0h3M4 46.5h8m3 0h1m7 0h2m1 0h1m1 0h1m1 0h1m1 0h3m2 0h1m1 0h1m5 0h1m1 0h1m4 0h2m3 0h3m2 0h4m1 0h7m5 0h2m1 0h4m2 0h4m1 0h1m4 0h2m2 0h3m2 0h4m1 0h1m1 0h4m1 0h2m1 0h3m1 0h2m1 0h3m2 0h1m3 0h2m2 0h1m1 0h1m3 0h2m7 0h1m1 0h3m3 0h3m4 0h2m4 0h2M4 47.5h3m1 0h1m3 0h4m1 0h1m1 0h3m1 0h1m2 0h1m2 0h2m1 0h2m3 0h5m2 0h1m1 0h1m2 0h1m1 0h1m5 0h2m5 0h1m6 0h1m3 0h2m1 0h1m6 0h3m2 0h1m2 0h1m2 0h2m1 0h1m3 0h1m1 0h4m1 0h1m7 0h1m1 0h2m2 0h2m4 0h1m2 0h1m1 0h1m3 0h1m1 0h1m2 0h1m1 0h1m1 0h1m2 0h1m1 0h2m2 0h1m1 0h1m1 0h1m4 0h1m1 0h2m4 0h1m2 0h3M5 48.5h1m2 0h3m1 0h1m6 0h7m4 0h2m2 0h3m3 0h1m1 0h3m2 0h4m3 0h2m4 0h1m2 0h1m5 0h1m2 0h1m3 0h1m2 0h3m1 0h1m1 0h2m1 0h2m2 0h1m1 0h1m2 0h1m2 0h2m5 0h1m1 0h1m2 0h3m4 0h1m5 0h1m2 0h6m1 0h1m1 0h1m2 0h1m1 0h1m1 0h2m4 0h2m3 0h2m1 0h2m1 0h1m2 0h2m1 0h1m1 0h3m4 0h1m3 0h1M4 49.5h3m1 0h1m3 0h1m2 0h3m1 0h5m8 0h1m2 0h2m1 0h8m2 0h4m2 0h2m2 0h4m1 0h1m3 0h2m2 0h2m5 0h2m3 0h1m2 0h1m3 0h1m1 0h3m4 0h2m2 0h1m1 0h3m5 0h1m1 0h1m3 0h1m1 0h1m1 0h5m6 0h1m1 0h2m5 0h1m1 0h4m3 0h2m1 0h2m1 0h2m1 0h1m1 0h2m1 0h1m1 0h1m2 0h1m2 0h1m2 0h2m1 0h1M9 50.5h3m3 0h1m3 0h1m1 0h1m1 0h1m1 0h4m1 0h1m3 0h8m1 0h1m5 0h1m2 0h2m4 0h1m1 0h3m1 0h2m2 0h3m1 0h2m5 0h3m1 0h1m3 0h6m3 0h4m1 0h3m3 0h1m4 0h1m1 0h1m1 0h2m1 0h1m2 0h2m1 0h5m1 0h1m5 0h2m2 0h1m3 0h1m2 0h1m1 0h2m8 0h1m2 0h1m3 0h1m1 0h2m1 0h2m4 0h1M4 51.5h1m1 0h2m5 0h2m3 0h1m3 0h1m1 0h1m3 0h1m4 0h2m1 0h2m1 0h1m1 0h1m4 0h1m4 0h2m2 0h2m1 0h1m4 0h1m3 0h1m5 0h2m1 0h1m1 0h2m2 0h2m1 0h3m1 0h1m1 0h1m3 0h4m2 0h9m1 0h2m1 0h1m2 0h5m5 0h1m1 0h4m1 0h2m3 0h1m2 0h1m1 0h1m1 0h2m3 0h4m4 0h2m2 0h1m1 0h5m4 0h1m1 0h1m1 0h1m1 0h1M4 52.5h1m1 0h2m2 0h4m4 0h1m1 0h1m5 0h4m3 0h2m2 0h3m4 0h1m3 0h3m1 0h1m1 0h3m8 0h2m2 0h1m1 0h2m3 0h3m1 0h2m4 0h1m1 0h2m2 0h1m2 0h1m1 0h1m2 0h2m3 0h2m2 0h5m5 0h1m3 0h1m1 0h1m2 0h1m1 0h3m2 0h1m1 0h1m3 0h7m1 0h3m2 0h1m1 0h3m1 0h1m1 0h3m4 0h3m1 0h1m2 0h1m2 0h1M4 53.5h2m2 0h2m3 0h1m2 0h2m2 0h1m3 0h1m4 0h1m3 0h3m1 0h5m2 0h1m2 0h4m2 0h4m2 0h1m7 0h5m1 0h1m1 0h1m1 0h3m2 0h1m1 0h2m3 0h1m4 0h2m4 0h2m1 0h1m1 0h5m1 0h2m2 0h1m1 0h1m3 0h1m2 0h1m1 0h2m6 0h3m1 0h1m2 0h4m1 0h3m1 0h1m1 0h1m2 0h1m1 0h1m1 0h1m2 0h5m1 0h1m1 0h2m3 0h1m1 0h1m2 0h1M8 54.5h3m1 0h1m1 0h1m2 0h2m2 0h2m1 0h2m4 0h2m1 0h1m4 0h1m7 0h1m5 0h1m2 0h1m1 0h1m1 0h1m1 0h2m1 0h2m1 0h4m1 0h1m2 0h1m1 0h1m1 0h4m1 0h1m2 0h3m1 0h3m3 0h2m10 0h3m2 0h1m3 0h2m2 0h1m2 0h4m1 0h4m1 0h2m1 0h5m5 0h1m2 0h1m1 0h3m1 0h1m2 0h1m2 0h1m1 0h3m4 0h1m3 0h4M6 55.5h1m2 0h1m2 0h1m1 0h2m1 0h3m2 0h1m2 0h3m4 0h4m7 0h1m2 0h1m2 0h1m3 0h1m3 0h2m1 0h1m5 0h2m1 0h1m3 0h6m8 0h1m1 0h3m1 0h4m1 0h1m2 0h1m2 0h2m1 0h2m2 0h1m2 0h1m1 0h3m1 0h1m3 0h1m3 0h1m3 0h1m1 0h1m2 0h2m1 0h1m1 0h1m1 0h3m4 0h1m2 0h1m2 0h1m2 0h1m5 0h4m1 0h1m2 0h1m2 0h2M4 56.5h5m1 0h1m1 0h5m3 0h1m2 0h1m8 0h1m1 0h1m4 0h1m2 0h1m1 0h2m2 0h1m1 0h2m2 0h1m9 0h6m2 0h1m2 0h2m1 0h1m1 0h3m3 0h1m4 0h1m2 0h2m1 0h2m1 0h2m1 0h1m1 0h3m2 0h3m6 0h1m5 0h1m1 0h2m1 0h2m7 0h2m1 0h1m1 0h3m2 0h2m1 0h2m1 0h5m2 0h1m1 0h1m4 0h4m1 0h7M4 57.5h1m3 0h1m3 0h1m1 0h1m1 0h1m1 0h1m1 0h1m7 0h3m2 0h1m3 0h6m1 0h2m2 0h1m5 0h4m2 0h1m4 0h1m2 0h1m1 0h1m2 0h1m2 0h1m3 0h2m2 0h1m3 0h1m1 0h5m2 0h1m2 0h1m2 0h1m1 0h2m1 0h2m1 0h2m2 0h1m2 0h1m2 0h2m1 0h3m4 0h1m2 0h5m4 0h3m2 0h3m1 0h2m1 0h2m2 0h1m2 0h1m1 0h3m1 0h1m2 0h1m1 0h1m3 0h1m1 0h2M5 58.5h2m1 0h1m1 0h1m2 0h2m2 0h3m3 0h1m5 0h1m1 0h1m1 0h1m2 0h2m1 0h1m3 0h1m5 0h2m1 0h2m1 0h1m2 0h2m4 0h1m5 0h1m1 0h2m1 0h1m1 0h1m2 0h1m1 0h1m4 0h2m6 0h6m1 0h4m1 0h1m1 0h4m1 0h1m2 0h1m1 0h3m2 0h6m2 0h1m1 0h1m4 0h2m3 0h1m2 0h1m1 0h1m1 0h1m1 0h2m5 0h1m4 0h3m9 0h1M4 59.5h2m3 0h1m1 0h1m3 0h2m1 0h3m3 0h2m2 0h1m2 0h1m3 0h1m3 0h3m4 0h1m1 0h2m2 0h2m4 0h1m1 0h1m1 0h5m2 0h1m1 0h1m2 0h3m1 0h1m6 0h4m4 0h1m2 0h3m3 0h1m1 0h1m1 0h1m1 0h3m2 0h1m1 0h2m1 0h1m1 0h1m3 0h2m1 0h1m5 0h1m2 0h1m1 0h1m1 0h4m1 0h2m1 0h1m2 0h1m1 0h3m1 0h1m1 0h2m2 0h2m1 0h1m2 0h1m4 0h3m1 0h2M8 60.5h8m1 0h3m2 0h1m2 0h1m1 0h1m1 0h9m1 0h3m5 0h4m2 0h1m2 0h2m1 0h10m2 0h1m4 0h2m3 0h1m2 0h1m3 0h5m1 0h1m2 0h1m2 0h2m1 0h1m3 0h1m1 0h1m2 0h1m3 0h6m3 0h1m1 0h7m3 0h1m1 0h4m1 0h9m2 0h2m1 0h2m2 0h1m1 0h1m2 0h4m1 0h5m3 0h1M5 61.5h2m1 0h1m3 0h4m2 0h2m1 0h1m1 0h1m1 0h1m3 0h4m3 0h2m2 0h1m3 0h2m1 0h4m2 0h4m2 0h2m3 0h1m3 0h2m1 0h1m3 0h1m1 0h1m2 0h5m1 0h3m3 0h1m1 0h2m1 0h1m3 0h1m3 0h3m3 0h2m2 0h2m3 0h1m1 0h1m1 0h1m2 0h1m1 0h1m1 0h1m1 0h2m1 0h1m1 0h2m4 0h1m3 0h6m2 0h2m6 0h2m1 0h2m3 0h1m3 0h2m2 0h1M4 62.5h1m3 0h1m1 0h1m1 0h1m1 0h5m1 0h2m1 0h1m2 0h3m2 0h2m1 0h1m1 0h4m1 0h1m5 0h1m4 0h2m3 0h1m2 0h1m1 0h1m1 0h2m1 0h7m2 0h1m2 0h4m1 0h2m2 0h1m1 0h1m1 0h2m2 0h4m2 0h2m3 0h3m4 0h3m1 0h1m1 0h1m1 0h5m1 0h2m5 0h1m5 0h1m1 0h2m1 0h1m1 0h2m1 0h1m1 0h3m1 0h2m1 0h4m1 0h2m3 0h3m1 0h1m1 0h1M7 63.5h2m3 0h1m1 0h1m1 0h3m1 0h1m2 0h3m1 0h1m1 0h4m3 0h1m3 0h1m2 0h1m1 0h5m5 0h1m2 0h3m3 0h1m1 0h2m1 0h3m1 0h3m2 0h2m1 0h1m4 0h1m1 0h1m3 0h1m2 0h2m1 0h1m4 0h2m1 0h1m1 0h1m2 0h2m3 0h1m3 0h2m5 0h1m1 0h3m1 0h2m1 0h1m3 0h1m3 0h1m3 0h1m4 0h2m1 0h2m1 0h1m3 0h1m2 0h2m3 0h2m3 0h4M4 64.5h1m1 0h9m3 0h2m1 0h2m1 0h6m1 0h7m1 0h1m2 0h3m3 0h5m1 0h1m1 0h2m1 0h9m2 0h1m2 0h2m2 0h3m1 0h1m1 0h1m3 0h6m1 0h1m5 0h1m1 0h1m2 0h1m3 0h1m1 0h3m1 0h7m1 0h1m1 0h1m1 0h6m6 0h2m1 0h1m1 0h9m2 0h4m1 0h1m1 0h3m4 0h2m1 0h6m1 0h1M5 65.5h1m3 0h1m1 0h2m1 0h1m3 0h2m3 0h1m1 0h4m3 0h1m1 0h1m1 0h1m1 0h2m1 0h2m1 0h1m1 0h1m1 0h1m1 0h1m2 0h1m1 0h2m1 0h1m2 0h1m1 0h2m2 0h1m3 0h2m2 0h1m2 0h3m3 0h1m1 0h2m3 0h1m2 0h1m2 0h1m1 0h2m2 0h2m1 0h2m4 0h1m3 0h1m5 0h1m1 0h1m1 0h2m5 0h2m1 0h1m1 0h2m1 0h1m1 0h1m1 0h4m1 0h3m1 0h1m1 0h1m1 0h2m1 0h2m1 0h3m1 0h4m4 0h2M4 66.5h8m2 0h2m1 0h6m1 0h1m1 0h2m1 0h1m1 0h4m1 0h2m2 0h1m2 0h1m1 0h2m5 0h2m3 0h2m10 0h5m1 0h1m3 0h4m1 0h2m2 0h3m1 0h1m2 0h5m1 0h2m1 0h1m3 0h3m2 0h7m2 0h5m2 0h1m2 0h1m1 0h1m3 0h1m2 0h1m2 0h1m2 0h3m1 0h1m1 0h2m2 0h2m1 0h1m5 0h2m2 0h1m3 0h2m1 0h3M4 67.5h2m2 0h1m2 0h1m1 0h1m1 0h1m1 0h1m1 0h1m1 0h5m1 0h3m1 0h1m1 0h3m1 0h1m3 0h1m1 0h2m1 0h1m1 0h2m2 0h2m4 0h1m1 0h1m2 0h5m3 0h1m2 0h3m1 0h2m3 0h1m1 0h4m2 0h2m1 0h1m1 0h1m4 0h5m1 0h4m8 0h1m2 0h2m6 0h1m2 0h1m1 0h1m1 0h1m1 0h1m3 0h3m1 0h2m3 0h5m3 0h2m2 0h5m2 0h1m1 0h1m1 0h2m1 0h2M5 68.5h1m1 0h2m1 0h1m2 0h1m1 0h2m2 0h2m1 0h1m1 0h8m2 0h1m1 0h1m2 0h2m1 0h1m1 0h4m2 0h1m1 0h3m1 0h2m2 0h1m1 0h2m1 0h1m7 0h1m1 0h1m1 0h2m2 0h2m2 0h2m2 0h1m3 0h1m1 0h1m4 0h1m1 0h2m2 0h1m2 0h1m2 0h1m3 0h3m1 0h1m2 0h1m1 0h1m1 0h2m1 0h1m1 0h1m6 0h4m2 0h4m1 0h2m3 0h1m1 0h3m2 0h2m5 0h2m1 0h1m1 0h2m1 0h1m1 0h2M4 69.5h4m1 0h1m1 0h3m1 0h1m1 0h1m5 0h3m1 0h1m1 0h1m2 0h3m2 0h1m6 0h1m1 0h3m1 0h8m1 0h1m1 0h2m2 0h1m1 0h1m2 0h6m1 0h1m1 0h1m3 0h1m1 0h5m1 0h2m1 0h1m1 0h2m1 0h2m4 0h3m1 0h1m1 0h2m3 0h1m2 0h1m1 0h2m1 0h1m2 0h1m1 0h1m1 0h1m1 0h1m2 0h1m1 0h1m2 0h1m1 0h3m5 0h2m1 0h3m2 0h1m3 0h2m3 0h3m2 0h5m1 0h2M4 70.5h1m1 0h3m1 0h2m3 0h3m2 0h1m6 0h3m3 0h2m3 0h1m4 0h1m1 0h1m3 0h1m1 0h2m1 0h1m3 0h1m2 0h1m3 0h1m1 0h7m1 0h1m1 0h1m2 0h1m1 0h1m1 0h2m1 0h2m1 0h1m1 0h1m4 0h2m3 0h6m1 0h2m3 0h4m5 0h2m1 0h1m3 0h1m5 0h2m1 0h2m3 0h3m1 0h2m1 0h1m1 0h3m2 0h4m3 0h2m2 0h2m1 0h1m1 0h1M4 71.5h1m6 0h1m3 0h8m1 0h1m1 0h2m3 0h2m1 0h3m2 0h2m2 0h1m1 0h3m4 0h3m1 0h5m1 0h1m1 0h1m1 0h2m6 0h3m1 0h2m1 0h1m1 0h1m1 0h4m3 0h2m2 0h3m3 0h4m2 0h2m5 0h1m2 0h1m1 0h3m1 0h2m1 0h1m1 0h3m1 0h4m1 0h2m2 0h1m1 0h1m2 0h1m3 0h1m2 0h4m2 0h1m2 0h1m1 0h2m2 0h1m1 0h1m1 0h1m3 0h2m1 0h1M4 72.5h1m1 0h2m1 0h3m2 0h7m1 0h2m2 0h4m1 0h1m3 0h1m4 0h1m1 0h1m4 0h5m3 0h1m1 0h1m2 0h5m2 0h2m1 0h1m2 0h2m3 0h5m4 0h2m1 0h2m3 0h1m1 0h1m1 0h2m9 0h4m4 0h4m1 0h1m1 0h1m2 0h5m7 0h1m1 0h1m2 0h2m1 0h1m1 0h2m1 0h1m3 0h3m2 0h1m2 0h2m1 0h1m1 0h1m1 0h1m1 0h1m1 0h1m2 0h1M6 73.5h1m1 0h2m4 0h1m1 0h2m1 0h1m1 0h1m4 0h1m3 0h2m1 0h1m1 0h2m2 0h1m1 0h1m1 0h3m1 0h2m1 0h2m1 0h2m1 0h2m7 0h1m2 0h5m2 0h1m1 0h1m1 0h1m1 0h2m8 0h2m1 0h1m1 0h1m6 0h1m1 0h3m1 0h1m1 0h1m5 0h1m1 0h1m1 0h4m1 0h1m2 0h1m3 0h4m1 0h2m4 0h1m1 0h1m2 0h4m5 0h2m2 0h3m2 0h2m2 0h3m1 0h2m2 0h2M4 74.5h4m2 0h1m4 0h2m1 0h1m1 0h3m1 0h3m1 0h2m2 0h3m1 0h2m2 0h1m2 0h1m1 0h1m5 0h3m1 0h1m1 0h2m2 0h1m1 0h1m4 0h3m1 0h2m3 0h1m1 0h2m1 0h3m2 0h2m1 0h2m3 0h2m4 0h2m1 0h2m4 0h2m2 0h1m1 0h4m1 0h2m2 0h1m1 0h1m1 0h1m1 0h1m3 0h4m2 0h1m1 0h1m1 0h2m1 0h3m2 0h3m1 0h2m1 0h1m4 0h1m5 0h2m2 0h1m1 0h3M8 75.5h1m6 0h1m1 0h1m1 0h1m1 0h1m1 0h2m3 0h7m2 0h1m1 0h1m1 0h1m1 0h4m5 0h1m5 0h2m1 0h2m1 0h3m6 0h2m1 0h3m2 0h1m3 0h3m2 0h1m1 0h8m3 0h3m1 0h2m1 0h1m2 0h1m1 0h1m1 0h1m1 0h2m1 0h2m4 0h1m10 0h2m1 0h3m2 0h3m2 0h1m1 0h3m6 0h1m2 0h2m10 0h1M5 76.5h2m3 0h1m2 0h1m1 0h1m2 0h2m1 0h1m1 0h1m2 0h1m2 0h6m2 0h3m2 0h1m1 0h1m2 0h11m1 0h6m1 0h1m1 0h1m2 0h1m2 0h1m1 0h3m1 0h4m2 0h1m2 0h1m1 0h1m2 0h1m5 0h2m7 0h1m2 0h3m1 0h3m1 0h2m1 0h1m1 0h1m1 0h2m1 0h1m1 0h2m1 0h1m1 0h1m2 0h1m1 0h1m3 0h1m1 0h1m1 0h1m2 0h1m1 0h2m2 0h1m1 0h2m1 0h2m3 0h2m1 0h3m5 0h1M5 77.5h1m5 0h1m1 0h2m1 0h4m4 0h2m2 0h4m1 0h1m1 0h1m2 0h3m1 0h4m2 0h1m1 0h2m1 0h2m1 0h1m1 0h2m1 0h1m1 0h2m2 0h2m1 0h1m3 0h3m2 0h1m2 0h1m1 0h3m6 0h5m7 0h3m1 0h1m1 0h3m1 0h2m5 0h1m1 0h1m4 0h1m1 0h1m1 0h2m1 0h1m1 0h2m12 0h2m2 0h3m2 0h1m1 0h2m1 0h1m1 0h3m2 0h2m1 0h2m2 0h1M4 78.5h1m4 0h2m1 0h5m2 0h5m4 0h2m3 0h1m1 0h5m2 0h2m3 0h1m1 0h1m1 0h3m1 0h1m3 0h2m4 0h1m1 0h2m1 0h3m4 0h1m1 0h2m1 0h1m1 0h2m2 0h1m1 0h2m3 0h5m1 0h2m4 0h1m2 0h3m1 0h6m1 0h1m1 0h4m1 0h1m1 0h4m4 0h1m2 0h1m3 0h1m2 0h1m1 0h2m2 0h2m4 0h4m1 0h2m5 0h2m3 0h3M5 79.5h5m1 0h2m1 0h1m1 0h1m1 0h1m4 0h2m5 0h1m1 0h1m5 0h1m4 0h1m2 0h1m6 0h1m2 0h1m1 0h1m2 0h1m1 0h5m1 0h1m1 0h1m2 0h3m1 0h2m1 0h1m3 0h3m2 0h1m5 0h1m2 0h1m1 0h2m1 0h2m1 0h3m3 0h1m3 0h2m1 0h3m1 0h1m1 0h2m1 0h1m1 0h1m4 0h1m5 0h3m2 0h2m4 0h5m1 0h2m2 0h1m1 0h3m1 0h1m1 0h1m1 0h1m1 0h1m2 0h3M4 80.5h1m3 0h1m1 0h1m1 0h1m2 0h1m1 0h1m1 0h1m2 0h5m1 0h1m5 0h1m2 0h2m1 0h3m4 0h4m2 0h3m4 0h2m3 0h1m3 0h1m1 0h1m3 0h1m1 0h2m2 0h1m1 0h1m1 0h6m6 0h5m4 0h1m2 0h1m1 0h2m2 0h1m1 0h5m1 0h1m1 0h1m1 0h2m1 0h2m1 0h1m5 0h4m2 0h4m1 0h1m1 0h4m1 0h3m2 0h3m2 0h8m5 0h1M5 81.5h5m1 0h3m1 0h2m2 0h3m1 0h2m5 0h1m2 0h6m1 0h6m2 0h2m1 0h1m1 0h1m2 0h3m2 0h2m1 0h1m1 0h1m1 0h3m4 0h2m1 0h2m2 0h3m1 0h2m3 0h6m2 0h3m1 0h1m1 0h2m2 0h1m3 0h1m3 0h1m3 0h4m1 0h2m1 0h1m1 0h1m1 0h4m1 0h2m1 0h3m3 0h1m1 0h1m1 0h3m2 0h2m3 0h1m1 0h3m1 0h4m2 0h5m2 0h1M5 82.5h1m1 0h5m1 0h1m4 0h1m7 0h1m2 0h1m2 0h1m3 0h1m4 0h1m1 0h1m2 0h2m1 0h1m1 0h3m3 0h2m1 0h2m3 0h1m2 0h1m1 0h1m1 0h1m2 0h1m3 0h2m1 0h1m1 0h2m2 0h3m6 0h4m1 0h1m1 0h1m2 0h2m1 0h2m1 0h9m1 0h2m1 0h1m2 0h1m6 0h1m1 0h1m4 0h1m3 0h3m10 0h1m2 0h1m1 0h2m7 0h2M4 83.5h3m1 0h1m2 0h1m3 0h1m2 0h5m4 0h2m2 0h3m1 0h1m1 0h4m2 0h2m1 0h1m1 0h1m6 0h1m2 0h3m1 0h3m1 0h2m1 0h1m1 0h1m1 0h4m1 0h2m1 0h1m4 0h3m2 0h2m1 0h1m1 0h1m1 0h1m3 0h3m1 0h3m4 0h1m1 0h1m1 0h9m2 0h5m2 0h1m4 0h1m2 0h2m2 0h1m3 0h1m2 0h1m1 0h1m2 0h3m1 0h1m2 0h1m2 0h1m3 0h1m1 0h2m1 0h1M4 84.5h1m1 0h2m2 0h1m1 0h3m1 0h2m1 0h1m1 0h1m1 0h2m4 0h4m1 0h1m1 0h2m1 0h2m1 0h3m2 0h5m1 0h2m2 0h1m2 0h2m1 0h1m1 0h2m6 0h6m1 0h3m1 0h1m2 0h1m1 0h1m3 0h2m5 0h1m1 0h1m9 0h1m5 0h3m6 0h6m6 0h2m1 0h1m2 0h2m3 0h3m5 0h4m1 0h2m2 0h1m1 0h4m1 0h4m2 0h1M5 85.5h5m1 0h1m4 0h2m1 0h1m1 0h3m1 0h4m1 0h3m1 0h1m1 0h1m4 0h5m2 0h1m1 0h1m2 0h1m1 0h3m3 0h2m2 0h1m4 0h1m1 0h1m2 0h1m1 0h1m2 0h1m1 0h1m2 0h1m5 0h1m2 0h1m2 0h1m1 0h2m3 0h4m1 0h1m5 0h2m2 0h1m1 0h4m1 0h1m2 0h2m2 0h2m1 0h1m1 0h2m1 0h1m3 0h1m3 0h1m1 0h4m1 0h2m4 0h7m1 0h2m1 0h1m2 0h2m1 0h2M5 86.5h8m1 0h4m3 0h2m3 0h3m3 0h1m1 0h6m1 0h1m1 0h1m2 0h2m1 0h2m1 0h2m4 0h1m1 0h2m5 0h4m1 0h2m3 0h1m2 0h1m1 0h3m2 0h2m1 0h4m1 0h6m1 0h2m6 0h1m1 0h1m1 0h4m1 0h1m2 0h1m2 0h3m2 0h2m3 0h1m1 0h3m3 0h4m1 0h2m1 0h1m1 0h3m4 0h2m1 0h1m2 0h2m1 0h1m1 0h1m1 0h1m1 0h1m2 0h2M4 87.5h2m1 0h2m5 0h1m1 0h1m3 0h1m2 0h1m1 0h1m1 0h2m1 0h1m2 0h7m1 0h1m1 0h1m2 0h3m2 0h3m1 0h1m2 0h1m3 0h3m1 0h2m5 0h5m1 0h1m1 0h1m1 0h1m2 0h1m1 0h1m2 0h3m1 0h2m1 0h2m1 0h5m2 0h1m2 0h3m1 0h1m2 0h2m1 0h4m3 0h5m1 0h3m1 0h1m3 0h1m1 0h1m2 0h3m2 0h1m1 0h1m4 0h2m4 0h3m7 0h1m1 0h2m1 0h1M8 88.5h5m6 0h2m1 0h2m1 0h1m1 0h2m3 0h5m2 0h1m1 0h1m1 0h2m2 0h1m1 0h5m2 0h2m2 0h5m1 0h4m2 0h7m1 0h1m1 0h5m1 0h5m4 0h2m1 0h1m2 0h1m2 0h2m1 0h1m1 0h4m1 0h6m1 0h3m1 0h1m1 0h2m1 0h2m1 0h1m3 0h2m1 0h7m3 0h1m3 0h2m1 0h5m1 0h1m1 0h1m4 0h5m2 0h2M5 89.5h1m2 0h1m3 0h1m2 0h1m7 0h2m1 0h1m1 0h1m1 0h3m3 0h1m3 0h3m1 0h2m1 0h2m3 0h2m2 0h1m2 0h2m3 0h2m1 0h1m1 0h1m2 0h1m1 0h1m3 0h5m2 0h1m1 0h2m3 0h1m1 0h2m1 0h1m1 0h2m2 0h5m1 0h1m1 0h1m3 0h2m3 0h7m2 0h3m1 0h2m1 0h3m5 0h1m3 0h3m1 0h3m1 0h1m4 0h5m2 0h1m1 0h1m1 0h1m3 0h2m1 0h2M4 90.5h2m1 0h2m1 0h1m1 0h1m3 0h1m1 0h1m7 0h2m1 0h2m1 0h1m1 0h1m1 0h3m1 0h1m5 0h1m4 0h1m1 0h1m1 0h1m1 0h2m1 0h1m1 0h1m1 0h1m2 0h4m1 0h2m5 0h2m1 0h1m1 0h1m2 0h2m1 0h1m1 0h2m2 0h3m1 0h4m1 0h1m2 0h1m1 0h1m1 0h1m1 0h3m1 0h1m1 0h1m3 0h1m2 0h1m1 0h2m4 0h1m1 0h2m1 0h2m1 0h2m1 0h1m1 0h2m1 0h1m5 0h1m1 0h3m3 0h1m6 0h1m1 0h1m1 0h1m1 0h1M8 91.5h1m3 0h2m1 0h4m1 0h3m1 0h2m1 0h1m1 0h4m3 0h2m3 0h1m1 0h2m1 0h2m1 0h1m7 0h2m1 0h1m3 0h1m1 0h1m2 0h1m4 0h3m1 0h2m1 0h1m4 0h3m3 0h1m3 0h2m3 0h1m2 0h2m1 0h4m2 0h4m3 0h2m1 0h1m1 0h9m2 0h2m1 0h2m2 0h2m3 0h1m2 0h1m2 0h1m1 0h2m1 0h1m3 0h1m1 0h3m1 0h1m1 0h2m3 0h1m1 0h1M4 92.5h1m3 0h5m2 0h1m7 0h1m1 0h2m4 0h6m1 0h5m1 0h2m1 0h1m2 0h2m2 0h1m1 0h2m1 0h7m1 0h1m2 0h4m2 0h1m2 0h1m1 0h1m4 0h1m1 0h5m2 0h1m3 0h3m1 0h1m6 0h1m1 0h1m1 0h1m1 0h6m5 0h2m1 0h1m1 0h1m2 0h1m3 0h4m1 0h8m3 0h8m1 0h1m2 0h1m2 0h8m1 0h2M4 93.5h4m1 0h1m1 0h5m2 0h1m2 0h1m1 0h2m1 0h4m1 0h3m3 0h5m3 0h1m2 0h1m1 0h2m4 0h2m1 0h1m2 0h4m2 0h3m4 0h2m1 0h3m1 0h2m1 0h2m3 0h2m1 0h5m1 0h1m4 0h6m2 0h2m3 0h2m1 0h1m1 0h1m1 0h1m1 0h2m5 0h2m1 0h4m5 0h3m3 0h1m1 0h2m1 0h4m2 0h8m1 0h2m1 0h3m3 0h1M5 94.5h1m1 0h2m1 0h1m3 0h1m1 0h1m1 0h2m3 0h1m2 0h8m2 0h2m1 0h3m1 0h1m1 0h1m1 0h1m1 0h1m1 0h3m1 0h1m1 0h2m1 0h2m1 0h1m3 0h2m1 0h3m4 0h1m1 0h2m1 0h1m1 0h1m4 0h1m1 0h2m3 0h4m2 0h1m7 0h3m1 0h2m1 0h2m2 0h1m1 0h4m1 0h2m1 0h1m1 0h2m4 0h1m1 0h1m1 0h1m2 0h1m2 0h2m9 0h2m1 0h1m2 0h2m1 0h3m1 0h1m2 0h3M4 95.5h1m1 0h2m1 0h1m2 0h1m1 0h1m2 0h3m4 0h2m3 0h1m1 0h3m2 0h1m1 0h2m6 0h3m2 0h2m2 0h1m1 0h2m4 0h2m1 0h1m2 0h3m1 0h4m1 0h2m1 0h1m1 0h1m1 0h2m1 0h1m1 0h2m1 0h6m2 0h1m2 0h2m2 0h4m1 0h4m4 0h3m6 0h3m1 0h1m1 0h5m3 0h2m2 0h2m4 0h1m1 0h1m2 0h2m2 0h1m1 0h5m2 0h1m2 0h1m1 0h2M4 96.5h2m1 0h2m1 0h1m1 0h4m6 0h1m1 0h1m2 0h2m1 0h3m1 0h1m1 0h1m2 0h2m1 0h2m4 0h1m1 0h1m2 0h2m1 0h1m3 0h6m6 0h3m2 0h2m6 0h6m2 0h2m5 0h2m5 0h1m3 0h2m1 0h1m1 0h5m2 0h1m1 0h1m1 0h4m1 0h2m5 0h2m1 0h1m1 0h1m2 0h4m4 0h1m1 0h3m1 0h4m2 0h5m3 0h2M5 97.5h2m1 0h1m3 0h1m1 0h2m5 0h1m1 0h3m3 0h3m1 0h2m3 0h2m2 0h4m1 0h2m1 0h1m2 0h2m1 0h2m3 0h1m2 0h2m2 0h2m1 0h2m2 0h1m2 0h3m1 0h3m3 0h1m5 0h2m1 0h1m1 0h2m2 0h1m2 0h1m2 0h1m1 0h1m1 0h1m3 0h6m1 0h1m1 0h2m1 0h1m4 0h3m1 0h1m6 0h8m3 0h3m2 0h5m1 0h1m1 0h4m1 0h2m1 0h1m2 0h1M4 98.5h3m2 0h2m1 0h2m1 0h2m1 0h1m2 0h2m1 0h1m1 0h2m2 0h2m1 0h2m1 0h2m2 0h2m1 0h1m2 0h1m5 0h1m2 0h1m2 0h1m1 0h1m2 0h1m1 0h1m1 0h2m1 0h1m1 0h1m4 0h6m1 0h1m2 0h1m1 0h1m6 0h1m1 0h3m1 0h1m1 0h1m3 0h3m4 0h1m5 0h1m1 0h2m4 0h1m1 0h2m3 0h5m2 0h1m2 0h1m8 0h1m2 0h3m4 0h3m1 0h6m1 0h3M5 99.5h2m1 0h1m3 0h1m1 0h1m1 0h1m1 0h2m2 0h2m5 0h1m1 0h3m1 0h1m2 0h1m1 0h1m4 0h3m1 0h1m1 0h1m3 0h4m1 0h2m2 0h1m1 0h2m6 0h1m1 0h1m4 0h2m3 0h2m2 0h1m1 0h2m2 0h1m1 0h1m3 0h1m1 0h2m2 0h1m4 0h3m1 0h1m3 0h2m2 0h1m8 0h1m4 0h1m1 0h1m3 0h4m3 0h1m1 0h1m4 0h1m6 0h1m1 0h2m7 0h2M10 100.5h2m1 0h2m1 0h1m1 0h1m1 0h1m1 0h2m1 0h8m4 0h1m2 0h1m1 0h3m1 0h1m3 0h1m1 0h1m1 0h2m1 0h1m4 0h3m1 0h2m1 0h1m2 0h1m1 0h1m2 0h4m4 0h1m1 0h1m3 0h4m3 0h4m1 0h1m1 0h2m5 0h1m1 0h1m5 0h2m1 0h3m1 0h4m1 0h1m4 0h1m2 0h1m1 0h1m1 0h1m2 0h1m2 0h3m2 0h6m1 0h3m2 0h4m1 0h1m7 0h1M6 101.5h1m2 0h1m1 0h2m5 0h4m1 0h1m1 0h3m2 0h1m3 0h1m2 0h1m5 0h2m1 0h3m2 0h2m1 0h3m3 0h3m1 0h13m3 0h2m2 0h2m2 0h1m1 0h2m2 0h1m1 0h2m1 0h3m3 0h2m2 0h1m3 0h1m2 0h10m3 0h1m1 0h1m1 0h5m1 0h1m3 0h1m1 0h2m1 0h6m1 0h2m5 0h4m1 0h2m1 0h6m1 0h1m2 0h1M5 102.5h1m1 0h9m1 0h2m2 0h5m1 0h3m1 0h2m1 0h2m6 0h1m7 0h4m1 0h1m1 0h1m1 0h1m3 0h1m3 0h4m1 0h1m4 0h1m2 0h3m1 0h1m3 0h1m6 0h1m2 0h1m1 0h1m1 0h2m1 0h2m1 0h3m1 0h1m1 0h3m4 0h2m1 0h1m1 0h3m3 0h1m1 0h1m1 0h3m2 0h1m1 0h3m4 0h1m3 0h1m5 0h2m5 0h1m3 0h2m2 0h2m1 0h1M6 103.5h4m2 0h3m2 0h1m1 0h1m1 0h2m1 0h1m1 0h1m2 0h1m1 0h2m1 0h2m1 0h1m5 0h2m1 0h2m1 0h1m1 0h3m4 0h2m1 0h1m2 0h4m1 0h1m3 0h2m1 0h3m2 0h1m1 0h1m2 0h3m1 0h1m3 0h1m1 0h5m3 0h3m1 0h1m1 0h2m1 0h1m1 0h1m1 0h1m1 0h1m9 0h2m2 0h2m3 0h1m3 0h1m1 0h3m1 0h2m1 0h4m2 0h1m3 0h1m2 0h1m1 0h2m1 0h1m4 0h2m1 0h2M4 104.5h1m2 0h2m1 0h6m4 0h1m1 0h1m1 0h1m1 0h2m2 0h1m2 0h3m2 0h5m1 0h1m4 0h2m1 0h2m1 0h3m2 0h4m3 0h1m2 0h1m3 0h6m2 0h4m1 0h1m1 0h4m2 0h1m1 0h1m1 0h3m4 0h2m4 0h2m1 0h2m6 0h1m3 0h2m1 0h1m1 0h1m4 0h1m1 0h5m1 0h1m1 0h3m2 0h1m1 0h6m2 0h1m5 0h1m1 0h3m2 0h1m3 0h1M5 105.5h1m2 0h1m3 0h1m2 0h1m1 0h2m1 0h1m1 0h1m2 0h1m2 0h2m1 0h2m2 0h1m1 0h3m2 0h1m1 0h1m3 0h1m1 0h1m4 0h2m1 0h2m5 0h3m1 0h1m2 0h1m1 0h2m1 0h1m2 0h2m1 0h1m2 0h1m2 0h1m1 0h1m1 0h2m1 0h2m2 0h2m1 0h7m1 0h1m1 0h1m3 0h2m1 0h1m1 0h3m1 0h2m1 0h1m1 0h1m4 0h1m1 0h2m1 0h1m3 0h2m2 0h1m2 0h1m1 0h1m1 0h1m4 0h5m2 0h1m5 0h1m3 0h3M5 106.5h1m3 0h3m4 0h1m3 0h1m1 0h1m1 0h2m1 0h1m1 0h1m1 0h3m1 0h1m1 0h2m2 0h1m1 0h1m1 0h3m1 0h1m2 0h2m1 0h1m2 0h1m1 0h1m1 0h2m3 0h4m2 0h1m3 0h1m2 0h3m1 0h2m1 0h1m1 0h1m1 0h1m3 0h5m1 0h2m1 0h2m1 0h1m2 0h1m1 0h1m1 0h3m4 0h3m5 0h2m3 0h3m2 0h2m2 0h1m1 0h3m1 0h1m1 0h1m5 0h1m2 0h1m2 0h1m2 0h1m4 0h4m2 0h1M5 107.5h1m2 0h1m3 0h2m1 0h1m1 0h1m4 0h1m3 0h4m2 0h2m4 0h1m4 0h1m1 0h2m1 0h1m2 0h2m3 0h1m1 0h1m1 0h2m3 0h3m3 0h1m1 0h4m8 0h3m2 0h1m2 0h1m1 0h2m4 0h2m1 0h2m2 0h1m1 0h1m2 0h3m1 0h1m1 0h1m4 0h1m1 0h2m2 0h4m1 0h1m2 0h1m1 0h3m1 0h1m3 0h2m4 0h1m2 0h1m3 0h1m1 0h5m1 0h1m4 0h1m3 0h3M4 108.5h1m2 0h4m1 0h1m5 0h3m4 0h1m7 0h1m1 0h1m1 0h6m1 0h4m1 0h1m4 0h3m3 0h7m2 0h1m3 0h1m2 0h4m2 0h1m3 0h2m1 0h1m2 0h1m1 0h1m4 0h3m5 0h1m3 0h2m3 0h6m7 0h2m1 0h1m4 0h1m1 0h2m1 0h1m4 0h1m1 0h2m2 0h1m3 0h3m2 0h1m3 0h2m2 0h1m2 0h1m1 0h1m4 0h1M4 109.5h4m4 0h6m1 0h2m6 0h3m3 0h1m1 0h3m1 0h1m2 0h4m2 0h3m2 0h4m1 0h1m4 0h2m6 0h2m4 0h2m1 0h3m1 0h1m3 0h1m1 0h2m1 0h4m3 0h1m3 0h1m1 0h2m1 0h1m2 0h2m2 0h3m2 0h4m1 0h1m2 0h1m1 0h1m2 0h3m1 0h1m4 0h1m1 0h2m3 0h1m1 0h3m1 0h1m2 0h1m1 0h4m1 0h3m2 0h1m2 0h4m2 0h1M6 110.5h1m1 0h4m1 0h1m2 0h1m1 0h3m1 0h1m1 0h3m1 0h5m1 0h2m3 0h1m6 0h1m3 0h1m1 0h1m2 0h1m2 0h2m3 0h1m1 0h1m1 0h4m1 0h2m3 0h1m1 0h1m1 0h4m4 0h1m6 0h2m4 0h2m3 0h1m1 0h3m2 0h2m3 0h1m2 0h2m2 0h3m2 0h1m2 0h1m2 0h1m4 0h2m3 0h1m1 0h2m3 0h1m2 0h1m2 0h2m3 0h2m4 0h2m1 0h3m1 0h1M4 111.5h1m2 0h1m3 0h1m3 0h1m1 0h1m2 0h2m1 0h1m2 0h1m1 0h2m1 0h2m2 0h1m2 0h1m2 0h1m4 0h2m1 0h1m1 0h1m3 0h1m1 0h3m3 0h3m3 0h1m4 0h1m1 0h3m1 0h1m2 0h1m1 0h1m1 0h2m1 0h1m1 0h2m2 0h2m1 0h1m2 0h5m1 0h1m2 0h1m1 0h1m1 0h1m5 0h2m1 0h2m2 0h5m2 0h1m3 0h4m1 0h3m1 0h1m2 0h1m2 0h2m3 0h3m1 0h1m1 0h5m3 0h1m1 0h1m2 0h2M5 112.5h4m1 0h2m1 0h1m2 0h1m2 0h2m1 0h2m3 0h1m1 0h1m1 0h5m3 0h1m2 0h4m1 0h1m1 0h2m2 0h3m1 0h2m1 0h5m1 0h4m2 0h5m1 0h8m1 0h8m5 0h1m4 0h2m5 0h1m1 0h1m1 0h1m1 0h2m5 0h1m2 0h1m1 0h2m5 0h1m1 0h2m1 0h1m1 0h2m3 0h4m2 0h1m2 0h2m1 0h1m1 0h3m1 0h1m1 0h2m1 0h1m7 0h1M4 113.5h1m1 0h2m6 0h2m1 0h1m2 0h1m1 0h3m1 0h1m3 0h3m1 0h6m3 0h3m1 0h2m4 0h2m2 0h2m2 0h2m1 0h1m2 0h1m9 0h2m1 0h7m3 0h1m3 0h2m1 0h1m2 0h2m1 0h1m1 0h3m4 0h2m2 0h1m1 0h1m1 0h1m1 0h1m1 0h1m1 0h2m3 0h1m1 0h2m1 0h4m3 0h1m1 0h2m1 0h1m2 0h3m2 0h4m2 0h1m1 0h1m2 0h2m1 0h3m1 0h7M4 114.5h1m2 0h4m1 0h2m1 0h1m1 0h3m2 0h1m5 0h1m1 0h1m1 0h1m2 0h3m1 0h1m1 0h1m1 0h1m2 0h1m5 0h2m5 0h1m4 0h2m1 0h5m1 0h1m5 0h2m1 0h4m1 0h1m1 0h1m1 0h3m1 0h1m2 0h2m4 0h2m1 0h2m1 0h2m2 0h3m5 0h2m1 0h1m3 0h3m1 0h2m4 0h1m1 0h1m1 0h1m1 0h5m3 0h2m3 0h6m2 0h1m2 0h1m1 0h1m1 0h1m2 0h1m1 0h2M6 115.5h1m2 0h1m1 0h2m3 0h1m2 0h1m1 0h1m1 0h3m1 0h2m1 0h1m13 0h1m1 0h4m7 0h4m5 0h1m7 0h1m1 0h4m5 0h2m1 0h1m1 0h1m1 0h1m2 0h5m1 0h5m2 0h2m3 0h1m3 0h2m2 0h3m1 0h2m1 0h3m1 0h7m2 0h2m2 0h1m1 0h3m1 0h1m1 0h2m5 0h2m1 0h1m1 0h5m2 0h2m1 0h1m1 0h3M4 116.5h11m1 0h1m1 0h3m2 0h1m2 0h1m1 0h2m2 0h5m1 0h1m2 0h1m1 0h1m1 0h1m1 0h1m1 0h3m2 0h1m1 0h3m1 0h5m1 0h1m3 0h2m2 0h5m1 0h2m1 0h2m1 0h9m3 0h1m1 0h1m4 0h2m4 0h3m1 0h7m6 0h1m1 0h4m3 0h1m2 0h1m1 0h9m1 0h4m1 0h4m1 0h1m1 0h1m5 0h1m1 0h5m2 0h2M4 117.5h1m2 0h2m3 0h2m1 0h1m1 0h2m1 0h3m2 0h1m2 0h1m2 0h2m3 0h1m2 0h1m2 0h3m2 0h2m1 0h1m4 0h2m3 0h1m3 0h2m2 0h1m5 0h2m2 0h1m1 0h1m1 0h1m1 0h2m1 0h2m3 0h1m1 0h1m4 0h2m5 0h1m1 0h2m2 0h2m1 0h2m3 0h3m1 0h1m1 0h2m5 0h2m1 0h1m1 0h2m1 0h1m1 0h2m3 0h1m2 0h3m2 0h1m5 0h3m2 0h6m3 0h1m1 0h3M7 118.5h2m1 0h1m1 0h1m1 0h2m1 0h1m6 0h1m1 0h1m5 0h1m1 0h1m1 0h2m2 0h1m4 0h2m2 0h4m2 0h1m2 0h1m1 0h1m1 0h1m1 0h1m2 0h2m1 0h1m1 0h1m6 0h2m1 0h1m1 0h2m2 0h1m1 0h1m1 0h1m6 0h1m1 0h2m1 0h1m2 0h2m1 0h2m4 0h1m1 0h1m1 0h1m5 0h3m5 0h5m1 0h3m1 0h1m1 0h1m1 0h2m7 0h1m1 0h4m4 0h1m2 0h3m1 0h1m1 0h3M5 119.5h1m1 0h2m3 0h1m9 0h2m1 0h3m2 0h1m1 0h1m3 0h1m3 0h2m1 0h1m2 0h1m1 0h1m1 0h1m4 0h2m1 0h3m3 0h4m1 0h1m1 0h1m1 0h2m1 0h1m1 0h2m5 0h2m1 0h1m3 0h2m2 0h1m1 0h1m5 0h2m1 0h2m1 0h1m2 0h4m3 0h1m2 0h2m2 0h1m2 0h2m1 0h1m3 0h1m1 0h2m1 0h1m1 0h1m3 0h1m4 0h3m3 0h2m2 0h2m1 0h1m5 0h1m3 0h1m1 0h1M8 120.5h6m1 0h2m1 0h1m3 0h1m2 0h2m3 0h1m1 0h6m2 0h1m1 0h3m4 0h1m1 0h1m2 0h1m1 0h1m2 0h7m3 0h1m1 0h1m1 0h4m3 0h1m1 0h1m4 0h6m1 0h2m1 0h1m2 0h1m1 0h2m1 0h1m3 0h1m2 0h1m2 0h6m7 0h1m1 0h2m1 0h1m6 0h1m1 0h9m1 0h2m2 0h2m1 0h4m5 0h1m1 0h8m2 0h1M4 121.5h2m1 0h1m4 0h10m1 0h2m1 0h1m3 0h2m1 0h3m1 0h2m1 0h5m3 0h1m4 0h1m1 0h2m1 0h1m1 0h1m1 0h5m4 0h1m1 0h1m1 0h1m1 0h2m2 0h4m3 0h3m1 0h1m1 0h1m1 0h2m1 0h2m3 0h3m4 0h2m2 0h4m2 0h2m1 0h1m1 0h1m4 0h1m2 0h1m1 0h1m1 0h2m7 0h4m1 0h2m1 0h2m2 0h1m3 0h2m2 0h2m2 0h2m2 0h1m2 0h3M5 122.5h1m3 0h3m7 0h2m1 0h4m3 0h1m1 0h1m4 0h1m2 0h1m6 0h2m2 0h1m1 0h2m3 0h3m1 0h1m1 0h3m2 0h1m1 0h2m3 0h1m3 0h1m1 0h2m1 0h2m3 0h1m1 0h1m3 0h1m2 0h2m1 0h2m2 0h1m2 0h1m1 0h5m1 0h1m1 0h1m1 0h1m1 0h1m1 0h2m4 0h2m1 0h6m1 0h1m1 0h2m1 0h2m3 0h1m3 0h1m2 0h2m1 0h4m2 0h2m1 0h1m1 0h1m1 0h2m1 0h3M5 123.5h1m1 0h2m14 0h1m1 0h1m3 0h2m3 0h2m1 0h2m2 0h1m2 0h3m9 0h1m1 0h1m4 0h1m1 0h1m1 0h1m3 0h1m2 0h5m4 0h1m1 0h2m1 0h2m1 0h1m1 0h2m1 0h1m1 0h1m3 0h3m3 0h3m5 0h1m2 0h1m1 0h2m2 0h1m1 0h2m2 0h3m2 0h1m2 0h2m4 0h4m4 0h3m1 0h1m2 0h1m2 0h4m1 0h2m3 0h1m1 0h2m1 0h1M4 124.5h1m2 0h2m1 0h4m2 0h1m3 0h1m2 0h1m1 0h1m1 0h2m1 0h3m1 0h1m2 0h2m1 0h3m2 0h2m1 0h4m1 0h2m1 0h3m1 0h2m3 0h3m1 0h1m2 0h1m1 0h1m3 0h2m1 0h1m1 0h1m2 0h3m1 0h1m1 0h1m4 0h1m2 0h2m3 0h3m1 0h1m2 0h2m1 0h1m3 0h1m7 0h2m1 0h1m1 0h2m3 0h1m2 0h3m1 0h1m1 0h6m1 0h1m1 0h5m2 0h3m1 0h5m2 0h1m5 0h2M4 125.5h1m1 0h2m1 0h1m1 0h1m2 0h4m1 0h3m2 0h1m6 0h1m4 0h2m1 0h2m1 0h8m1 0h1m4 0h3m1 0h3m1 0h1m3 0h3m1 0h3m2 0h1m1 0h3m2 0h1m2 0h2m3 0h1m1 0h1m1 0h1m2 0h3m4 0h3m2 0h2m5 0h2m2 0h1m1 0h4m3 0h1m1 0h4m1 0h2m9 0h2m3 0h3m5 0h4m2 0h2m1 0h2m2 0h1m1 0h1m2 0h1M4 126.5h2m3 0h2m2 0h1m5 0h1m1 0h2m1 0h2m2 0h1m2 0h2m3 0h1m2 0h1m3 0h1m1 0h1m5 0h3m1 0h1m1 0h2m3 0h1m1 0h1m3 0h3m1 0h1m2 0h1m3 0h2m1 0h4m3 0h2m4 0h1m1 0h1m2 0h1m1 0h1m1 0h1m4 0h4m1 0h3m1 0h1m2 0h2m2 0h1m1 0h3m7 0h5m1 0h1m1 0h3m1 0h1m3 0h1m4 0h3m2 0h1m1 0h1m3 0h1m1 0h2m1 0h1m1 0h1m1 0h2M4 127.5h1m4 0h1m2 0h2m2 0h1m1 0h1m1 0h2m1 0h1m1 0h1m3 0h1m3 0h1m2 0h3m4 0h1m1 0h3m3 0h3m4 0h2m4 0h4m1 0h1m1 0h1m1 0h4m1 0h2m5 0h5m1 0h1m2 0h4m3 0h2m1 0h1m1 0h1m1 0h2m1 0h1m3 0h2m2 0h1m1 0h1m1 0h1m1 0h1m1 0h4m1 0h1m2 0h1m2 0h2m2 0h1m2 0h3m1 0h1m3 0h2m2 0h1m3 0h1m4 0h2m1 0h1m1 0h1m2 0h5M4 128.5h1m2 0h2m1 0h1m2 0h3m1 0h2m3 0h2m1 0h3m3 0h3m5 0h2m1 0h2m3 0h1m1 0h2m1 0h3m1 0h2m1 0h3m1 0h1m6 0h7m1 0h2m3 0h1m1 0h2m1 0h3m1 0h1m1 0h1m2 0h1m1 0h2m5 0h2m1 0h1m2 0h1m1 0h2m9 0h1m1 0h7m7 0h6m1 0h1m1 0h4m1 0h4m1 0h5m2 0h1m1 0h2m2 0h1m5 0h1M4 129.5h2m2 0h2m1 0h3m2 0h2m1 0h2m2 0h3m3 0h2m8 0h1m1 0h2m1 0h2m2 0h1m1 0h1m2 0h2m1 0h1m1 0h1m1 0h3m1 0h5m3 0h1m2 0h1m1 0h4m6 0h1m1 0h2m1 0h1m1 0h1m1 0h1m2 0h3m1 0h1m2 0h1m5 0h1m2 0h5m1 0h2m1 0h1m1 0h1m6 0h2m1 0h1m1 0h1m4 0h1m4 0h1m1 0h1m1 0h2m2 0h3m1 0h7m3 0h1m1 0h1m2 0h1m1 0h2m1 0h1M4 130.5h1m1 0h6m1 0h2m1 0h1m3 0h4m1 0h1m2 0h1m4 0h1m3 0h1m3 0h1m1 0h1m2 0h2m1 0h2m1 0h1m4 0h3m1 0h1m1 0h1m4 0h3m2 0h1m5 0h2m1 0h1m1 0h1m2 0h1m7 0h3m2 0h1m1 0h1m1 0h2m1 0h2m1 0h1m2 0h2m1 0h5m1 0h3m1 0h1m2 0h2m2 0h1m2 0h4m3 0h1m1 0h2m4 0h1m5 0h4m1 0h2m2 0h2m2 0h3m1 0h1m1 0h3M6 131.5h1m4 0h1m3 0h1m1 0h1m1 0h1m1 0h1m14 0h1m1 0h1m5 0h5m4 0h1m1 0h1m2 0h1m2 0h1m3 0h2m4 0h1m2 0h3m1 0h2m1 0h1m1 0h1m1 0h5m2 0h1m3 0h3m4 0h2m1 0h1m1 0h1m2 0h1m1 0h5m1 0h1m1 0h1m1 0h2m1 0h1m1 0h1m1 0h3m1 0h1m3 0h1m1 0h3m1 0h2m1 0h1m3 0h2m1 0h1m2 0h1m7 0h2m1 0h1m6 0h2m1 0h3M4 132.5h9m1 0h1m2 0h2m3 0h1m1 0h2m1 0h2m2 0h1m1 0h2m2 0h1m3 0h2m7 0h1m1 0h2m2 0h1m2 0h3m1 0h1m2 0h1m3 0h1m1 0h1m2 0h2m2 0h9m2 0h1m1 0h1m1 0h2m2 0h1m1 0h4m2 0h2m1 0h1m2 0h1m1 0h1m2 0h5m1 0h1m1 0h1m1 0h2m1 0h4m3 0h1m1 0h2m1 0h4m2 0h1m1 0h4m2 0h4m2 0h1m7 0h1m2 0h1m1 0h1m4 0h1M4 133.5h3m4 0h1m2 0h3m3 0h1m2 0h1m9 0h2m1 0h1m3 0h2m1 0h3m2 0h1m1 0h1m1 0h2m1 0h2m2 0h4m1 0h4m1 0h2m1 0h2m3 0h1m1 0h1m1 0h1m1 0h1m2 0h2m2 0h3m1 0h1m2 0h1m1 0h1m1 0h1m1 0h2m1 0h1m2 0h1m1 0h2m2 0h3m4 0h1m1 0h2m3 0h1m3 0h2m1 0h2m1 0h1m3 0h1m4 0h3m1 0h3m1 0h1m1 0h2m1 0h5m2 0h1m1 0h1m1 0h1m4 0h4M4 134.5h3m3 0h1m1 0h1m1 0h1m4 0h1m4 0h4m1 0h4m1 0h1m1 0h6m4 0h2m1 0h1m1 0h2m1 0h1m7 0h3m2 0h2m1 0h4m1 0h1m1 0h1m1 0h2m1 0h3m4 0h1m1 0h1m3 0h1m1 0h3m2 0h2m5 0h2m1 0h1m1 0h1m1 0h3m1 0h1m2 0h2m1 0h1m4 0h2m14 0h1m1 0h1m4 0h1m5 0h2m1 0h1m2 0h2m1 0h3m1 0h2m3 0h1M11 135.5h1m1 0h3m2 0h1m1 0h1m3 0h1m3 0h2m2 0h3m2 0h1m1 0h1m5 0h2m1 0h1m2 0h1m1 0h1m4 0h1m3 0h2m1 0h3m3 0h1m1 0h2m1 0h1m1 0h1m4 0h1m1 0h4m2 0h2m3 0h1m1 0h1m2 0h3m1 0h4m2 0h1m1 0h1m1 0h2m6 0h5m4 0h4m1 0h2m2 0h1m1 0h1m1 0h2m4 0h1m1 0h3m4 0h1m2 0h1m2 0h1m4 0h1m2 0h3m1 0h3M4 136.5h3m3 0h5m1 0h3m1 0h1m3 0h1m1 0h2m7 0h3m1 0h2m1 0h11m1 0h1m1 0h2m1 0h2m4 0h2m1 0h4m1 0h3m1 0h1m1 0h1m1 0h2m4 0h2m1 0h1m2 0h2m4 0h2m8 0h2m1 0h1m5 0h1m1 0h1m2 0h1m1 0h1m1 0h4m1 0h2m5 0h2m1 0h1m1 0h2m1 0h4m2 0h2m1 0h5m1 0h4m2 0h3m2 0h1m1 0h1m4 0h1M4 137.5h2m2 0h1m2 0h1m2 0h2m2 0h1m5 0h3m1 0h1m3 0h1m2 0h3m2 0h6m1 0h2m1 0h2m2 0h2m2 0h4m1 0h2m4 0h1m5 0h1m1 0h1m2 0h1m2 0h2m2 0h4m1 0h1m1 0h1m1 0h1m3 0h2m1 0h1m2 0h2m3 0h1m1 0h1m1 0h1m2 0h3m1 0h1m1 0h1m1 0h1m4 0h1m1 0h2m1 0h1m1 0h2m1 0h1m3 0h1m2 0h2m1 0h4m1 0h1m4 0h5m2 0h5m6 0h2M4 138.5h2m1 0h1m2 0h1m1 0h2m2 0h2m2 0h1m2 0h2m2 0h1m2 0h1m3 0h1m1 0h1m5 0h2m2 0h2m4 0h1m3 0h1m2 0h1m2 0h1m1 0h2m1 0h2m1 0h4m5 0h2m1 0h1m1 0h1m8 0h1m2 0h4m2 0h1m1 0h2m1 0h1m2 0h1m3 0h1m1 0h1m1 0h1m2 0h2m2 0h1m1 0h2m3 0h1m2 0h2m1 0h1m3 0h2m1 0h5m1 0h1m1 0h2m5 0h1m2 0h1m1 0h3m4 0h3m2 0h1M5 139.5h2m1 0h2m1 0h2m1 0h1m3 0h1m2 0h2m4 0h2m2 0h2m1 0h3m1 0h1m2 0h2m1 0h4m1 0h1m1 0h2m2 0h5m1 0h1m4 0h2m6 0h1m1 0h3m6 0h5m4 0h6m2 0h4m2 0h1m2 0h1m3 0h2m2 0h1m3 0h1m1 0h2m1 0h9m7 0h1m1 0h2m3 0h1m1 0h3m1 0h1m1 0h2m2 0h1m1 0h2m2 0h1m4 0h3m1 0h3M4 140.5h1m1 0h1m2 0h2m2 0h1m1 0h2m1 0h3m7 0h1m2 0h1m1 0h1m4 0h3m4 0h1m1 0h1m1 0h3m2 0h1m1 0h1m2 0h2m6 0h3m3 0h1m2 0h1m2 0h3m1 0h1m2 0h2m2 0h1m1 0h2m3 0h1m2 0h1m1 0h2m2 0h2m1 0h2m1 0h3m2 0h1m1 0h2m7 0h1m1 0h3m4 0h1m1 0h2m1 0h1m1 0h2m2 0h1m1 0h1m5 0h1m1 0h1m3 0h3m3 0h7m5 0h1M5 141.5h1m1 0h3m1 0h2m1 0h1m1 0h1m3 0h1m1 0h1m1 0h2m1 0h2m1 0h5m1 0h1m4 0h2m1 0h1m2 0h1m1 0h1m3 0h2m1 0h2m2 0h2m2 0h2m2 0h1m1 0h1m3 0h5m1 0h2m2 0h1m6 0h4m1 0h1m2 0h2m2 0h2m1 0h4m1 0h3m1 0h4m1 0h1m3 0h1m1 0h1m6 0h4m1 0h1m8 0h3m1 0h3m2 0h1m2 0h7m1 0h2m2 0h3m3 0h1m2 0h1M7 142.5h5m1 0h1m1 0h1m2 0h1m2 0h3m2 0h4m1 0h1m2 0h1m2 0h2m2 0h3m2 0h1m2 0h5m7 0h2m5 0h3m6 0h1m1 0h4m1 0h2m4 0h2m1 0h1m3 0h3m1 0h3m1 0h1m1 0h1m1 0h2m1 0h1m1 0h2m1 0h3m1 0h4m1 0h1m2 0h1m4 0h3m4 0h1m1 0h1m1 0h3m1 0h2m3 0h2m1 0h5m1 0h1m2 0h1m4 0h1m2 0h1m1 0h1m1 0h1M8 143.5h2m1 0h1m1 0h1m2 0h3m2 0h1m1 0h1m2 0h2m2 0h2m3 0h1m4 0h1m1 0h1m1 0h1m1 0h2m1 0h1m2 0h1m2 0h2m1 0h2m4 0h2m1 0h1m3 0h1m1 0h5m1 0h1m2 0h1m2 0h2m1 0h1m3 0h1m1 0h4m1 0h2m1 0h1m5 0h1m1 0h1m2 0h1m1 0h2m2 0h1m2 0h2m1 0h4m1 0h1m1 0h2m3 0h1m2 0h4m2 0h3m2 0h2m1 0h2m1 0h1m2 0h2m1 0h1m1 0h4m2 0h2m1 0h1m1 0h5M4 144.5h1m1 0h7m2 0h1m2 0h1m5 0h1m1 0h1m5 0h6m1 0h1m4 0h1m5 0h2m1 0h3m4 0h6m3 0h2m1 0h1m1 0h1m2 0h3m1 0h1m2 0h1m1 0h7m1 0h1m2 0h1m1 0h3m3 0h1m3 0h1m1 0h2m3 0h5m2 0h1m4 0h1m1 0h1m1 0h1m7 0h9m1 0h1m2 0h1m2 0h3m1 0h1m1 0h3m5 0h7m2 0h2M8 145.5h1m3 0h1m1 0h2m1 0h6m1 0h6m1 0h2m3 0h1m1 0h2m1 0h1m2 0h1m3 0h1m1 0h5m1 0h3m1 0h1m3 0h1m2 0h1m1 0h7m3 0h2m1 0h4m2 0h1m3 0h1m1 0h4m1 0h1m3 0h1m2 0h1m2 0h1m2 0h1m2 0h2m3 0h3m1 0h3m2 0h1m1 0h1m1 0h1m1 0h2m1 0h2m1 0h4m3 0h3m1 0h1m2 0h2m7 0h5m1 0h3m3 0h3m1 0h1M4 146.5h1m1 0h1m1 0h1m1 0h1m1 0h1m1 0h1m1 0h1m1 0h1m3 0h1m2 0h1m1 0h1m1 0h4m1 0h1m1 0h2m2 0h1m2 0h1m1 0h1m3 0h1m1 0h2m2 0h1m1 0h2m1 0h1m1 0h1m1 0h1m2 0h2m1 0h3m1 0h1m2 0h1m2 0h4m4 0h1m1 0h1m1 0h2m2 0h1m1 0h1m1 0h3m1 0h2m1 0h1m1 0h4m1 0h3m1 0h1m1 0h1m1 0h1m1 0h4m7 0h2m1 0h4m2 0h1m1 0h1m1 0h1m2 0h1m1 0h2m3 0h6m1 0h2m2 0h1m2 0h1m1 0h1m1 0h1m1 0h1M8 147.5h1m3 0h3m1 0h3m1 0h4m3 0h2m3 0h1m3 0h2m7 0h2m1 0h1m3 0h2m2 0h1m1 0h3m3 0h1m1 0h1m2 0h1m3 0h1m2 0h1m4 0h3m4 0h1m3 0h6m5 0h6m2 0h1m1 0h1m1 0h2m3 0h4m1 0h1m2 0h1m1 0h5m1 0h4m2 0h1m1 0h1m3 0h2m2 0h4m1 0h1m3 0h1m2 0h1m1 0h1m5 0h1m3 0h4M4 148.5h1m1 0h1m1 0h5m1 0h4m4 0h3m2 0h2m1 0h1m1 0h6m1 0h2m9 0h2m2 0h4m1 0h6m1 0h3m1 0h2m2 0h6m2 0h1m4 0h6m4 0h2m1 0h1m1 0h2m1 0h3m1 0h1m1 0h3m2 0h6m1 0h1m1 0h1m4 0h4m1 0h1m1 0h1m1 0h10m1 0h3m5 0h5m1 0h1m2 0h1m3 0h6m2 0h1M4 149.5h1m1 0h2m3 0h2m3 0h1m1 0h3m1 0h1m1 0h3m2 0h7m1 0h3m1 0h2m2 0h1m2 0h1m2 0h1m2 0h1m1 0h2m2 0h2m3 0h1m3 0h5m1 0h1m3 0h9m2 0h1m1 0h1m1 0h1m1 0h1m3 0h1m3 0h1m1 0h1m2 0h1m1 0h1m3 0h2m4 0h2m1 0h2m3 0h1m4 0h1m1 0h1m4 0h1m2 0h2m1 0h3m2 0h1m3 0h2m1 0h1m2 0h7m1 0h1m9 0h1M5 150.5h2m3 0h3m3 0h4m3 0h2m2 0h1m1 0h2m1 0h2m4 0h2m1 0h1m10 0h4m2 0h5m1 0h1m2 0h6m4 0h1m2 0h1m1 0h1m1 0h1m4 0h2m1 0h2m1 0h1m1 0h4m1 0h1m4 0h1m2 0h2m2 0h1m2 0h1m1 0h3m1 0h5m1 0h1m2 0h1m2 0h2m1 0h3m8 0h1m3 0h1m1 0h1m2 0h1m1 0h2m3 0h3m1 0h1m1 0h2m2 0h1m2 0h2M5 151.5h2m2 0h1m2 0h1m3 0h3m1 0h2m2 0h2m1 0h1m4 0h2m2 0h1m1 0h1m1 0h2m1 0h1m1 0h2m6 0h1m4 0h3m1 0h2m2 0h2m5 0h2m1 0h2m3 0h2m2 0h2m3 0h1m2 0h1m2 0h1m4 0h2m1 0h2m2 0h1m1 0h2m2 0h3m1 0h3m2 0h4m1 0h1m1 0h3m4 0h1m2 0h2m1 0h4m1 0h1m2 0h1m2 0h1m4 0h1m3 0h1m2 0h1m2 0h1m1 0h1m2 0h1m1 0h1m1 0h1m1 0h1M4 152.5h1m1 0h1m1 0h1m1 0h2m1 0h1m1 0h1m1 0h3m2 0h1m1 0h2m1 0h3m1 0h1m2 0h3m5 0h4m2 0h3m1 0h1m1 0h1m1 0h2m1 0h6m1 0h2m2 0h2m1 0h3m1 0h1m1 0h3m1 0h1m1 0h2m5 0h4m2 0h1m1 0h3m4 0h1m1 0h1m2 0h2m3 0h1m1 0h1m1 0h1m3 0h1m2 0h3m1 0h1m4 0h1m1 0h4m1 0h2m3 0h3m3 0h1m1 0h2m2 0h2m4 0h2m1 0h1m1 0h1m1 0h3m3 0h1M5 153.5h2m2 0h1m1 0h1m4 0h4m3 0h1m4 0h5m3 0h1m1 0h1m2 0h1m1 0h4m1 0h3m4 0h3m2 0h1m1 0h2m2 0h1m2 0h1m1 0h1m1 0h1m2 0h1m2 0h1m1 0h3m1 0h4m1 0h1m2 0h2m4 0h2m2 0h4m5 0h1m4 0h1m3 0h4m1 0h2m5 0h4m1 0h1m2 0h1m1 0h4m1 0h1m1 0h4m2 0h1m1 0h1m2 0h2m1 0h3m1 0h6m1 0h1m4 0h1M6 154.5h1m1 0h1m1 0h2m1 0h2m3 0h2m1 0h2m1 0h6m1 0h1m2 0h2m1 0h5m1 0h1m1 0h2m3 0h4m6 0h2m2 0h1m2 0h7m3 0h1m1 0h2m1 0h1m1 0h2m5 0h3m1 0h1m6 0h1m1 0h1m2 0h5m2 0h1m2 0h2m3 0h1m1 0h1m6 0h1m1 0h1m2 0h1m11 0h2m1 0h1m1 0h2m2 0h1m2 0h1m1 0h2m3 0h1m1 0h1m1 0h2m3 0h2M7 155.5h3m2 0h3m2 0h3m5 0h5m1 0h2m1 0h1m1 0h4m6 0h3m3 0h1m2 0h1m2 0h2m2 0h1m1 0h3m6 0h4m1 0h1m4 0h1m1 0h3m2 0h2m2 0h1m1 0h1m1 0h2m2 0h3m3 0h1m1 0h1m2 0h6m1 0h3m2 0h4m3 0h2m1 0h3m2 0h1m1 0h5m2 0h1m2 0h4m3 0h1m3 0h2m1 0h1m1 0h1m2 0h1m2 0h1m1 0h1m1 0h2M5 156.5h1m2 0h3m3 0h1m1 0h2m1 0h1m4 0h2m1 0h2m1 0h1m1 0h1m2 0h2m2 0h4m1 0h1m2 0h1m1 0h3m2 0h3m2 0h1m1 0h1m1 0h4m4 0h2m1 0h3m8 0h1m1 0h2m2 0h4m2 0h5m4 0h2m1 0h4m2 0h1m3 0h1m3 0h1m1 0h1m1 0h6m2 0h1m1 0h1m1 0h2m1 0h1m1 0h1m1 0h1m2 0h1m6 0h1m5 0h1m1 0h1m2 0h4m2 0h2m1 0h2m1 0h2M4 157.5h3m1 0h2m1 0h1m2 0h2m1 0h2m3 0h2m1 0h1m2 0h4m3 0h2m2 0h7m2 0h1m1 0h1m1 0h1m1 0h1m3 0h1m4 0h1m2 0h3m1 0h3m2 0h1m1 0h1m2 0h5m2 0h6m1 0h2m1 0h1m5 0h1m2 0h3m8 0h2m2 0h2m1 0h1m1 0h1m6 0h5m1 0h1m4 0h3m1 0h1m2 0h2m2 0h2m4 0h5m2 0h5m2 0h1m4 0h1M4 158.5h1m1 0h1m1 0h3m2 0h4m1 0h7m1 0h5m1 0h2m2 0h2m1 0h1m2 0h1m6 0h1m1 0h4m2 0h3m1 0h1m2 0h2m1 0h2m1 0h1m9 0h1m1 0h3m3 0h3m1 0h1m3 0h3m1 0h1m1 0h1m5 0h1m1 0h2m1 0h2m1 0h1m2 0h2m1 0h1m1 0h2m1 0h2m2 0h2m1 0h3m4 0h1m1 0h1m7 0h1m1 0h2m5 0h1m1 0h2m2 0h1m2 0h1m2 0h1m5 0h1M4 159.5h1m6 0h8m1 0h1m1 0h5m2 0h6m1 0h2m1 0h3m1 0h1m2 0h1m2 0h1m1 0h1m3 0h1m2 0h1m3 0h1m1 0h4m1 0h1m1 0h1m2 0h1m1 0h1m1 0h2m5 0h2m3 0h1m2 0h2m1 0h1m1 0h1m2 0h2m1 0h2m1 0h4m3 0h2m2 0h1m1 0h2m1 0h1m1 0h1m1 0h3m2 0h1m1 0h1m1 0h4m2 0h3m1 0h2m4 0h4m1 0h1m1 0h2m2 0h7m1 0h2m1 0h1m2 0h2M4 160.5h1m1 0h1m2 0h2m2 0h3m6 0h1m4 0h1m4 0h7m2 0h1m1 0h2m3 0h1m1 0h1m2 0h3m3 0h1m3 0h5m3 0h2m1 0h7m5 0h1m1 0h2m1 0h1m1 0h1m3 0h1m1 0h3m1 0h1m5 0h2m1 0h1m4 0h1m1 0h1m8 0h3m1 0h1m2 0h1m3 0h1m1 0h2m1 0h2m1 0h1m1 0h2m5 0h5m1 0h1m1 0h1m4 0h2m1 0h1m2 0h3m1 0h1M4 161.5h2m2 0h1m2 0h1m1 0h1m1 0h3m2 0h1m1 0h1m7 0h1m2 0h1m2 0h1m2 0h3m1 0h5m2 0h1m2 0h4m1 0h1m1 0h2m5 0h5m1 0h1m5 0h2m1 0h2m3 0h2m1 0h1m1 0h1m1 0h4m1 0h1m1 0h1m2 0h1m1 0h4m1 0h3m1 0h1m2 0h5m1 0h1m1 0h1m4 0h1m1 0h2m1 0h1m1 0h1m5 0h2m1 0h7m2 0h4m1 0h3m1 0h1m1 0h6m1 0h1m3 0h1m1 0h1M4 162.5h2m1 0h2m1 0h3m1 0h1m2 0h4m1 0h3m4 0h2m2 0h3m1 0h1m3 0h1m1 0h1m1 0h3m1 0h1m1 0h2m2 0h1m4 0h1m1 0h1m1 0h2m2 0h1m1 0h1m1 0h2m1 0h3m1 0h2m1 0h1m1 0h1m6 0h3m4 0h2m2 0h3m3 0h7m3 0h1m1 0h2m1 0h2m2 0h1m1 0h1m1 0h1m1 0h1m1 0h1m1 0h2m2 0h1m1 0h3m2 0h1m2 0h1m2 0h1m2 0h1m2 0h1m1 0h1m3 0h1m4 0h1m1 0h1m1 0h3m1 0h1M5 163.5h3m3 0h1m2 0h1m1 0h4m1 0h1m2 0h2m3 0h1m2 0h1m1 0h1m1 0h1m1 0h1m2 0h1m1 0h1m2 0h2m1 0h1m2 0h1m2 0h1m2 0h3m1 0h1m1 0h2m7 0h2m1 0h1m1 0h2m6 0h1m1 0h2m1 0h1m1 0h1m2 0h4m3 0h2m3 0h2m5 0h2m1 0h2m1 0h1m1 0h1m1 0h1m3 0h1m2 0h1m6 0h2m1 0h8m1 0h1m2 0h2m3 0h3m1 0h1m1 0h2m4 0h2m1 0h1m2 0h2M4 164.5h1m1 0h1m1 0h1m1 0h2m1 0h1m1 0h2m1 0h3m4 0h7m2 0h1m1 0h4m1 0h1m1 0h2m2 0h2m1 0h2m1 0h2m2 0h1m1 0h1m7 0h1m2 0h2m2 0h10m1 0h4m5 0h1m5 0h2m1 0h1m1 0h2m5 0h1m2 0h2m2 0h1m1 0h1m1 0h1m3 0h6m4 0h1m2 0h3m1 0h1m5 0h4m1 0h1m1 0h3m1 0h2m1 0h2m2 0h3m5 0h2m1 0h2M5 165.5h3m1 0h1m1 0h3m3 0h1m1 0h1m3 0h6m1 0h2m1 0h5m2 0h6m2 0h2m1 0h1m4 0h3m2 0h1m4 0h1m1 0h5m3 0h1m1 0h7m2 0h1m1 0h4m1 0h4m1 0h2m2 0h2m1 0h2m1 0h1m5 0h2m1 0h1m1 0h3m1 0h1m1 0h1m7 0h3m1 0h2m3 0h1m1 0h6m1 0h3m1 0h1m6 0h6m4 0h1m1 0h1m1 0h1m2 0h1M4 166.5h7m1 0h1m3 0h1m1 0h1m2 0h5m4 0h3m1 0h1m1 0h1m1 0h1m1 0h1m2 0h1m5 0h1m2 0h4m2 0h1m1 0h1m1 0h1m1 0h1m2 0h1m1 0h2m1 0h2m6 0h1m1 0h4m2 0h2m2 0h2m1 0h1m1 0h3m1 0h2m1 0h1m3 0h3m1 0h3m3 0h1m4 0h3m1 0h2m1 0h1m1 0h1m1 0h1m1 0h4m1 0h2m8 0h1m1 0h1m1 0h1m4 0h2m3 0h3m1 0h4M4 167.5h1m2 0h2m2 0h1m1 0h5m2 0h2m1 0h4m2 0h4m2 0h2m1 0h1m2 0h3m1 0h1m2 0h2m1 0h1m1 0h1m4 0h3m1 0h5m1 0h1m5 0h3m1 0h2m3 0h1m1 0h3m1 0h1m1 0h1m1 0h1m1 0h2m1 0h2m3 0h2m2 0h2m1 0h1m3 0h7m3 0h3m2 0h1m5 0h1m4 0h1m1 0h6m1 0h1m2 0h3m1 0h2m1 0h2m3 0h1m1 0h2m3 0h1m1 0h3m1 0h3M4 168.5h1m1 0h5m2 0h1m2 0h1m3 0h2m2 0h2m3 0h2m2 0h2m2 0h2m3 0h3m1 0h1m3 0h1m1 0h1m1 0h1m4 0h4m2 0h1m1 0h5m3 0h2m2 0h3m1 0h2m1 0h4m1 0h1m2 0h2m1 0h2m1 0h1m2 0h1m1 0h1m3 0h1m2 0h1m2 0h1m2 0h2m1 0h1m1 0h1m3 0h2m1 0h4m1 0h1m1 0h1m2 0h1m1 0h1m1 0h1m1 0h1m2 0h1m1 0h2m2 0h4m1 0h3m1 0h1m2 0h4m1 0h2m1 0h2m3 0h1M4 169.5h1m1 0h1m1 0h1m2 0h2m2 0h3m1 0h2m1 0h3m2 0h1m2 0h3m1 0h1m1 0h1m1 0h3m3 0h2m2 0h1m1 0h1m5 0h1m6 0h3m2 0h4m3 0h1m1 0h1m1 0h1m1 0h3m1 0h7m2 0h1m1 0h1m2 0h1m1 0h1m4 0h2m1 0h1m1 0h3m1 0h2m1 0h1m1 0h3m1 0h3m2 0h1m1 0h1m2 0h5m5 0h2m1 0h4m1 0h2m2 0h3m2 0h2m1 0h2m1 0h2m1 0h3m2 0h1m1 0h2M4 170.5h3m2 0h3m1 0h1m3 0h1m1 0h1m1 0h1m2 0h1m1 0h1m2 0h1m1 0h2m2 0h3m5 0h1m1 0h1m3 0h1m2 0h2m6 0h1m1 0h3m2 0h2m1 0h1m1 0h2m3 0h1m2 0h1m1 0h1m1 0h2m3 0h2m1 0h2m1 0h5m2 0h1m2 0h1m4 0h3m4 0h4m3 0h3m1 0h1m2 0h1m1 0h2m2 0h2m2 0h2m4 0h2m2 0h1m1 0h3m1 0h1m2 0h1m1 0h1m2 0h2m5 0h1m2 0h5M7 171.5h1m5 0h1m2 0h1m6 0h2m2 0h1m3 0h4m3 0h1m1 0h3m2 0h3m3 0h2m2 0h1m2 0h2m1 0h1m2 0h1m1 0h1m7 0h1m1 0h4m6 0h1m2 0h1m1 0h1m1 0h1m2 0h2m5 0h2m3 0h3m1 0h5m1 0h6m3 0h2m1 0h1m4 0h1m1 0h1m1 0h1m2 0h2m3 0h2m2 0h1m2 0h1m1 0h2m2 0h2m1 0h1m2 0h1m1 0h2m1 0h1m2 0h1m3 0h1M5 172.5h1m1 0h1m1 0h2m1 0h1m1 0h1m2 0h3m1 0h1m1 0h1m3 0h3m1 0h9m1 0h1m1 0h1m3 0h4m2 0h1m1 0h1m1 0h1m1 0h7m2 0h2m4 0h1m3 0h2m1 0h1m2 0h1m3 0h5m5 0h1m1 0h1m1 0h2m1 0h1m1 0h1m3 0h2m2 0h7m3 0h1m2 0h1m1 0h3m6 0h4m1 0h10m1 0h4m1 0h1m1 0h3m5 0h1m1 0h6m1 0h2M12 173.5h1m2 0h1m2 0h2m1 0h3m1 0h3m2 0h1m1 0h1m3 0h1m1 0h1m3 0h4m2 0h2m1 0h1m1 0h4m1 0h1m1 0h1m3 0h1m1 0h1m6 0h1m1 0h1m1 0h2m1 0h4m4 0h1m3 0h1m1 0h1m1 0h2m1 0h1m3 0h1m2 0h2m1 0h1m2 0h1m3 0h1m3 0h3m1 0h1m1 0h2m5 0h2m1 0h3m2 0h1m1 0h2m3 0h1m1 0h4m3 0h1m4 0h3m1 0h3m2 0h2m3 0h2m1 0h2M4 174.5h7m1 0h3m1 0h1m5 0h3m1 0h1m2 0h2m1 0h1m1 0h1m1 0h2m2 0h2m1 0h1m1 0h2m4 0h2m1 0h2m2 0h1m1 0h1m1 0h1m1 0h1m2 0h2m1 0h1m1 0h1m2 0h1m1 0h1m1 0h1m1 0h2m1 0h1m2 0h2m1 0h1m1 0h1m2 0h4m1 0h3m4 0h4m1 0h5m1 0h1m1 0h6m3 0h11m4 0h1m1 0h1m1 0h3m2 0h3m3 0h3m7 0h1m1 0h2m1 0h1m1 0h1m1 0h2M4 175.5h1m5 0h1m10 0h1m1 0h2m2 0h1m2 0h3m3 0h1m2 0h6m1 0h2m3 0h1m1 0h1m4 0h1m1 0h1m3 0h4m1 0h1m1 0h1m1 0h1m1 0h2m1 0h1m2 0h2m3 0h1m1 0h1m3 0h3m3 0h1m4 0h7m3 0h4m3 0h2m2 0h2m2 0h3m1 0h1m3 0h3m1 0h1m1 0h1m1 0h1m3 0h2m1 0h1m1 0h2m2 0h1m1 0h1m6 0h3m2 0h2m3 0h4M4 176.5h1m1 0h3m1 0h1m1 0h2m1 0h2m1 0h4m1 0h1m2 0h1m3 0h8m2 0h1m3 0h1m2 0h1m1 0h2m1 0h1m1 0h2m3 0h7m4 0h4m1 0h1m2 0h2m1 0h1m1 0h2m1 0h1m1 0h8m1 0h1m2 0h3m3 0h2m1 0h4m1 0h1m1 0h6m1 0h1m1 0h1m2 0h1m1 0h1m1 0h2m1 0h1m1 0h1m1 0h10m1 0h1m1 0h1m1 0h2m1 0h2m2 0h5m2 0h10m1 0h1M4 177.5h1m1 0h3m1 0h1m1 0h5m1 0h3m2 0h2m2 0h2m1 0h2m4 0h1m1 0h1m2 0h2m1 0h1m3 0h3m3 0h1m1 0h2m1 0h1m2 0h2m8 0h3m4 0h4m2 0h1m2 0h2m4 0h1m5 0h1m4 0h5m2 0h1m2 0h1m3 0h1m2 0h1m1 0h3m4 0h1m2 0h1m1 0h1m1 0h1m2 0h1m2 0h2m3 0h2m1 0h3m1 0h1m1 0h7m1 0h1m3 0h1m1 0h3m1 0h2M4 178.5h1m1 0h3m1 0h1m1 0h3m3 0h3m2 0h1m2 0h1m3 0h5m3 0h2m2 0h1m3 0h1m5 0h1m2 0h1m4 0h1m2 0h1m1 0h1m4 0h1m2 0h1m1 0h1m3 0h5m3 0h3m5 0h4m2 0h2m3 0h3m1 0h1m1 0h1m1 0h1m3 0h2m1 0h2m1 0h3m1 0h1m2 0h1m1 0h2m1 0h1m1 0h1m3 0h1m4 0h2m2 0h1m2 0h2m1 0h1m1 0h2m2 0h1m1 0h1m1 0h1m1 0h1m1 0h2m2 0h1M4 179.5h1m5 0h1m1 0h1m4 0h8m2 0h1m1 0h3m5 0h3m2 0h2m1 0h2m5 0h1m2 0h1m1 0h2m3 0h3m1 0h1m2 0h1m1 0h1m1 0h6m3 0h2m2 0h2m1 0h4m2 0h3m3 0h5m2 0h3m3 0h3m2 0h1m3 0h1m2 0h5m1 0h1m2 0h1m1 0h1m2 0h4m1 0h1m2 0h2m2 0h1m1 0h1m1 0h1m2 0h3m3 0h2m5 0h1m2 0h1m1 0h2M4 180.5h7m1 0h1m1 0h1m2 0h1m1 0h1m1 0h1m3 0h3m6 0h3m2 0h2m2 0h3m1 0h1m1 0h4m1 0h1m1 0h1m2 0h1m2 0h2m1 0h3m1 0h2m6 0h2m1 0h1m2 0h1m1 0h1m2 0h1m2 0h1m3 0h1m3 0h2m1 0h2m8 0h2m1 0h4m1 0h2m3 0h1m3 0h2m1 0h2m6 0h1m1 0h2m1 0h2m1 0h2m1 0h2m6 0h1m2 0h3m2 0h2m1 0h2m1 0h4m2 0h1"/></svg>
