<?xml version="1.0" encoding="utf-8"?><!DOCTYPE svg PUBLIC "-//W3C//DTD SVG 1.1//EN" "http://www.w3.org/Graphics/SVG/1.1/DTD/svg11.dtd"><svg xmlns="http://www.w3.org/2000/svg" viewBox="0 0 185 185" shape-rendering="crispEdges"><path fill="#ffffff" d="M0 0h185v185H0z"/><path stroke="#000000" d="M4 4.5h7m2 0h2m1 0h4m2 0h2m3 0h1m1 0h1m1 0h1m5 0h2m1 0h2m1 0h3m2 0h1m1 0h1m2 0h4m2 0h2m1 0h1m1 0h3m3 0h2m1 0h2m4 0h4m1 0h2m1 0h1m5 0h3m1 0h1m3 0h1m4 0h2m1 0h1m1 0h2m4 0h1m1 0h8m2 0h2m3 0h1m1 0h3m2 0h1m5 0h5m1 0h2m1 0h4m1 0h5m2 0h1m1 0h1m3 0h7M4 5.5h1m5 0h1m1 0h1m1 0h2m2 0h1m3 0h1m1 0h1m3 0h2m1 0h1m3 0h2m1 0h4m1 0h1m2 0h1m2 0h1m2 0h2m3 0h2m3 0h3m5 0h4m1 0h1m1 0h1m1 0h2m1 0h1m1 0h1m3 0h4m3 0h6m1 0h1m1 0h2m2 0h3m3 0h3m1 0h1m1 0h2m3 0h2m2 0h1m1 0h1m1 0h3m1 0h2m1 0h3m1 0h2m1 0h1m2 0h1m2 0h2m4 0h2m6 0h1m2 0h1m1 0h1m1 0h1m5 0h1M4 6.5h1m1 0h3m1 0h1m3 0h1m1 0h3m1 0h1m2 0h1m1 0h2m2 0h2m3 0h1m1 0h6m4 0h2m1 0h1m2 0h2m1 0h1m2 0h1m2 0h4m1 0h1m2 0h1m1 0h1m1 0h2m1 0h1m2 0h1m5 0h3m7 0h2m1 0h2m1 0h1m2 0h7m1 0h1m2 0h2m5 0h1m1 0h2m1 0h1m1 0h1m8 0h1m1 0h6m1 0h1m3 0h1m2 0h1m2 0h1m1 0h1m1 0h1m1 0h1m1 0h2m1 0h1m1 0h1m3 0h1m1 0h3m1 0h1M4 7.5h1m1 0h3m1 0h1m1 0h5m1 0h1m1 0h2m1 0h1m4 0h1m3 0h2m1 0h1m2 0h1m1 0h3m2 0h1m3 0h2m3 0h1m1 0h1m3 0h1m6 0h2m2 0h1m1 0h2m1 0h3m1 0h4m2 0h1m3 0h2m8 0h2m1 0h1m2 0h2m3 0h4m2 0h1m1 0h1m1 0h1m2 0h1m3 0h3m1 0h1m4 0h6m1 0h2m2 0h1m1 0h1m1 0h1m4 0h2m1 0h1m1 0h1m1 0h1m2 0h1m1 0h1m1 0h2m1 0h1m1 0h3m1 0h1M4 8.5h1m1 0h3m1 0h1m2 0h4m1 0h6m1 0h4m1 0h9m1 0h3m1 0h2m2 0h2m1 0h1m2 0h4m2 0h6m1 0h3m3 0h3m1 0h1m6 0h2m1 0h8m2 0h1m5 0h1m2 0h2m1 0h1m2 0h1m3 0h5m1 0h2m1 0h3m5 0h1m2 0h1m2 0h1m3 0h10m1 0h1m1 0h2m3 0h4m1 0h3m5 0h1m1 0h3m1 0h1M4 9.5h1m5 0h1m1 0h3m1 0h1m1 0h4m2 0h2m4 0h1m1 0h1m3 0h1m1 0h1m1 0h1m2 0h1m2 0h1m3 0h1m1 0h1m5 0h3m3 0h2m1 0h4m1 0h1m4 0h1m4 0h4m1 0h2m3 0h1m2 0h2m1 0h1m1 0h3m2 0h1m4 0h2m2 0h3m3 0h1m1 0h1m3 0h1m1 0h2m2 0h1m3 0h3m1 0h2m2 0h1m3 0h4m1 0h2m2 0h4m1 0h1m7 0h1m1 0h1m1 0h1m5 0h1M4 10.5h7m1 0h1m1 0h1m1 0h1m1 0h1m1 0h1m1 0h1m1 0h1m1 0h1m1 0h1m1 0h1m1 0h1m1 0h1m1 0h1m1 0h1m1 0h1m1 0h1m1 0h1m1 0h1m1 0h1m1 0h1m1 0h1m1 0h1m1 0h1m1 0h1m1 0h1m1 0h1m1 0h1m1 0h1m1 0h1m1 0h1m1 0h1m1 0h1m1 0h1m1 0h1m1 0h1m1 0h1m1 0h1m1 0h1m1 0h1m1 0h1m1 0h1m1 0h1m1 0h1m1 0h1m1 0h1m1 0h1m1 0h1m1 0h1m1 0h1m1 0h1m1 0h1m1 0h1m1 0h1m1 0h1m1 0h1m1 0h1m1 0h1m1 0h1m1 0h1m1 0h1m1 0h1m1 0h1m1 0h1m1 0h1m1 0h1m1 0h1m1 0h1m1 0h1m1 0h1m1 0h1m1 0h1m1 0h1m1 0h1m1 0h1m1 0h1m1 0h1m1 0h1m1 0h1m1 0h1m1 0h1m1 0h1m1 0h7M13 11.5h5m6 0h1m1 0h1m1 0h2m2 0h1m3 0h1m1 0h1m2 0h1m1 0h4m2 0h1m1 0h1m1 0h1m1 0h1m1 0h4m3 0h1m1 0h2m3 0h1m1 0h2m1 0h2m1 0h1m1 0h1m4 0h3m3 0h1m5 0h1m2 0h1m1 0h2m3 0h1m2 0h1m4 0h1m3 0h4m2 0h3m2 0h2m3 0h4m1 0h1m1 0h2m3 0h1m4 0h2m1 0h2m2 0h1m2 0h2m1 0h2m1 0h1m2 0h1M4 12.5h5m1 0h4m2 0h2m2 0h1m2 0h2m1 0h1m2 0h2m1 0h5m2 0h2m1 0h2m1 0h2m1 0h3m1 0h1m7 0h7m2 0h1m3 0h4m1 0h1m2 0h2m2 0h1m1 0h9m3 0h2m5 0h2m1 0h1m2 0h1m3 0h6m5 0h7m3 0h1m1 0h2m1 0h12m3 0h3m1 0h2m1 0h1m2 0h1m1 0h5m1 0h1m1 0h1m1 0h1M5 13.5h3m1 0h1m1 0h1m1 0h2m2 0h1m1 0h1m1 0h2m3 0h2m1 0h3m3 0h2m1 0h1m2 0h2m1 0h1m3 0h2m5 0h2m1 0h2m1 0h2m1 0h1m2 0h1m2 0h4m3 0h3m1 0h8m2 0h2m1 0h1m2 0h1m1 0h1m6 0h2m7 0h2m1 0h1m1 0h5m1 0h1m2 0h1m4 0h1m1 0h1m1 0h1m2 0h1m2 0h2m1 0h5m1 0h4m2 0h1m1 0h1m1 0h8m6 0h2m1 0h1M10 14.5h1m3 0h2m3 0h3m1 0h2m3 0h1m2 0h2m1 0h3m1 0h3m1 0h1m4 0h1m2 0h1m1 0h1m1 0h2m3 0h1m4 0h1m3 0h3m2 0h1m3 0h1m2 0h1m1 0h4m2 0h3m6 0h2m3 0h1m4 0h1m2 0h2m2 0h1m3 0h2m4 0h1m1 0h1m3 0h2m1 0h3m1 0h1m2 0h2m1 0h4m1 0h1m4 0h1m1 0h1m2 0h1m1 0h2m4 0h2m1 0h1m4 0h3m1 0h2M4 15.5h1m2 0h3m2 0h2m1 0h3m2 0h1m1 0h1m1 0h1m4 0h3m2 0h2m1 0h1m1 0h1m1 0h2m1 0h1m1 0h1m4 0h2m4 0h4m1 0h1m3 0h2m1 0h6m1 0h1m1 0h2m1 0h1m3 0h4m2 0h2m2 0h3m6 0h2m2 0h4m5 0h1m1 0h1m1 0h11m5 0h1m4 0h2m1 0h2m2 0h1m1 0h1m2 0h1m6 0h1m4 0h2m1 0h1m1 0h3m1 0h4M5 16.5h1m1 0h1m1 0h3m3 0h1m2 0h4m1 0h2m3 0h1m2 0h1m5 0h1m2 0h1m2 0h1m4 0h1m1 0h3m1 0h1m6 0h1m1 0h1m2 0h4m2 0h1m1 0h1m1 0h1m4 0h1m4 0h1m3 0h1m1 0h3m2 0h2m1 0h1m1 0h2m2 0h1m2 0h1m2 0h2m1 0h2m11 0h1m1 0h4m3 0h1m1 0h5m4 0h3m1 0h2m1 0h1m1 0h8m2 0h1m1 0h2m2 0h1m1 0h1m3 0h2M5 17.5h2m1 0h2m3 0h2m2 0h2m2 0h3m6 0h3m4 0h1m2 0h2m1 0h3m2 0h2m3 0h1m2 0h1m4 0h2m1 0h1m2 0h7m1 0h2m5 0h5m1 0h5m1 0h1m2 0h1m2 0h1m2 0h2m1 0h2m3 0h1m1 0h1m1 0h2m1 0h5m1 0h4m6 0h3m1 0h2m3 0h1m1 0h1m2 0h2m1 0h2m2 0h2m1 0h1m2 0h4m3 0h2m1 0h1m6 0h1m1 0h1M4 18.5h1m2 0h1m1 0h4m1 0h1m1 0h4m1 0h1m1 0h1m2 0h4m1 0h3m1 0h1m1 0h1m1 0h3m3 0h2m5 0h2m3 0h4m1 0h1m4 0h4m1 0h1m2 0h1m1 0h1m1 0h5m1 0h1m2 0h1m2 0h1m4 0h3m3 0h1m1 0h2m2 0h3m1 0h4m2 0h1m1 0h1m1 0h2m2 0h1m1 0h4m2 0h1m1 0h1m1 0h1m5 0h1m1 0h1m1 0h1m1 0h1m2 0h2m2 0h2m1 0h1m5 0h1m3 0h1m1 0h1m1 0h1m1 0h1M5 19.5h5m1 0h3m2 0h3m1 0h2m3 0h1m2 0h1m1 0h1m1 0h2m5 0h1m3 0h1m2 0h2m1 0h1m1 0h2m3 0h3m1 0h3m1 0h1m1 0h2m1 0h1m1 0h1m1 0h1m2 0h1m1 0h2m2 0h2m1 0h3m1 0h1m1 0h3m2 0h2m3 0h4m3 0h3m4 0h3m3 0h2m1 0h2m1 0h6m2 0h2m6 0h1m3 0h1m4 0h1m1 0h1m2 0h1m7 0h2m4 0h3m1 0h5M4 20.5h1m3 0h8m2 0h2m3 0h1m3 0h2m4 0h2m2 0h1m3 0h2m1 0h1m3 0h1m2 0h2m1 0h2m5 0h1m3 0h4m2 0h1m1 0h2m2 0h2m1 0h2m1 0h1m1 0h1m5 0h1m3 0h1m4 0h1m2 0h1m1 0h1m1 0h1m4 0h5m1 0h2m1 0h1m5 0h2m1 0h1m1 0h2m6 0h1m1 0h1m1 0h1m3 0h1m1 0h1m4 0h4m1 0h1m1 0h4m1 0h1m2 0h1m1 0h2m1 0h1m4 0h1M4 21.5h3m1 0h1m5 0h1m1 0h3m1 0h2m2 0h2m5 0h1m2 0h3m4 0h1m2 0h2m1 0h2m1 0h1m2 0h5m1 0h1m1 0h5m2 0h3m1 0h2m2 0h1m2 0h1m2 0h4m2 0h1m1 0h4m1 0h1m1 0h1m2 0h2m2 0h1m1 0h1m2 0h1m1 0h2m2 0h1m3 0h1m1 0h2m1 0h1m1 0h2m6 0h5m4 0h3m4 0h1m1 0h1m2 0h2m1 0h1m4 0h2m2 0h2m1 0h2m6 0h1m1 0h1M10 22.5h1m2 0h2m1 0h2m11 0h2m5 0h2m2 0h1m10 0h3m1 0h1m3 0h1m2 0h1m1 0h1m2 0h5m3 0h1m1 0h1m1 0h2m1 0h2m1 0h1m1 0h2m2 0h1m2 0h1m1 0h1m1 0h2m1 0h1m3 0h1m1 0h4m2 0h2m3 0h2m2 0h4m1 0h1m1 0h1m1 0h1m2 0h5m3 0h2m2 0h4m3 0h2m2 0h1m2 0h3m3 0h2m1 0h1m4 0h2m3 0h1M4 23.5h2m1 0h2m2 0h10m2 0h2m5 0h2m1 0h2m1 0h1m3 0h2m2 0h4m3 0h3m3 0h1m1 0h5m2 0h2m3 0h1m2 0h1m1 0h1m1 0h2m1 0h1m1 0h1m1 0h5m1 0h1m1 0h1m2 0h2m5 0h2m1 0h1m1 0h2m4 0h2m3 0h1m2 0h1m4 0h1m2 0h1m1 0h1m2 0h1m3 0h3m1 0h1m2 0h1m5 0h1m1 0h4m2 0h1m2 0h2m1 0h2m3 0h6m1 0h1M7 24.5h1m2 0h1m4 0h3m1 0h3m2 0h2m1 0h2m5 0h1m1 0h1m1 0h1m3 0h2m3 0h1m1 0h2m1 0h2m4 0h2m6 0h2m1 0h3m1 0h1m1 0h2m2 0h1m1 0h1m2 0h2m4 0h1m3 0h1m2 0h1m2 0h2m4 0h2m1 0h6m1 0h1m1 0h1m8 0h6m2 0h1m1 0h1m2 0h1m1 0h2m1 0h2m1 0h1m1 0h2m3 0h5m2 0h1m7 0h3m1 0h2m3 0h2M5 25.5h1m7 0h1m2 0h1m6 0h3m1 0h2m1 0h1m1 0h1m6 0h4m1 0h2m2 0h4m4 0h2m4 0h3m2 0h1m3 0h1m1 0h2m1 0h1m1 0h1m4 0h1m4 0h2m2 0h4m1 0h1m8 0h3m2 0h3m2 0h2m2 0h3m1 0h1m1 0h2m1 0h2m2 0h2m1 0h1m1 0h2m3 0h3m1 0h2m1 0h2m1 0h2m1 0h3m2 0h1m2 0h3m1 0h1m3 0h1m2 0h1m1 0h1m1 0h2M5 26.5h1m1 0h1m2 0h5m2 0h1m2 0h2m1 0h1m2 0h2m1 0h2m1 0h3m3 0h2m1 0h1m4 0h1m2 0h2m1 0h3m3 0h4m2 0h1m2 0h2m1 0h1m1 0h2m1 0h1m3 0h6m3 0h2m1 0h1m4 0h3m1 0h2m2 0h1m2 0h5m2 0h1m3 0h4m3 0h1m1 0h3m1 0h1m1 0h1m1 0h4m1 0h8m9 0h1m1 0h2m2 0h1m1 0h2m4 0h1m2 0h2m3 0h1M4 27.5h6m2 0h3m2 0h1m2 0h3m1 0h1m1 0h2m3 0h3m1 0h1m8 0h1m1 0h2m1 0h1m1 0h1m1 0h1m1 0h1m1 0h4m2 0h1m2 0h2m6 0h1m1 0h1m1 0h2m6 0h2m3 0h3m1 0h2m1 0h1m4 0h3m2 0h1m1 0h2m2 0h1m6 0h3m4 0h7m2 0h1m1 0h4m3 0h1m4 0h1m1 0h2m2 0h1m2 0h1m3 0h1m1 0h1m1 0h2m2 0h1m2 0h2m1 0h1M6 28.5h1m3 0h3m2 0h5m2 0h1m2 0h1m1 0h4m3 0h1m4 0h2m1 0h1m1 0h1m2 0h1m2 0h1m3 0h4m3 0h1m7 0h2m2 0h6m2 0h2m3 0h5m1 0h1m4 0h1m1 0h2m1 0h2m2 0h1m2 0h2m1 0h3m3 0h1m2 0h1m8 0h4m5 0h1m2 0h1m1 0h1m3 0h1m1 0h2m4 0h3m3 0h3m4 0h2m1 0h4m3 0h2M5 29.5h2m1 0h1m2 0h2m1 0h1m4 0h5m2 0h2m1 0h1m1 0h1m3 0h1m1 0h2m1 0h3m1 0h2m2 0h1m1 0h1m4 0h3m6 0h5m1 0h2m1 0h1m1 0h3m3 0h2m4 0h9m1 0h1m1 0h2m2 0h2m1 0h2m2 0h1m1 0h1m2 0h1m1 0h3m2 0h3m1 0h1m6 0h6m4 0h2m2 0h2m1 0h1m1 0h1m2 0h1m1 0h2m2 0h8m1 0h2m5 0h2m1 0h1M4 30.5h1m1 0h1m1 0h1m1 0h1m1 0h2m1 0h2m1 0h1m2 0h1m1 0h2m3 0h1m1 0h5m1 0h1m2 0h1m3 0h1m2 0h1m4 0h3m1 0h1m2 0h1m1 0h1m2 0h2m2 0h4m1 0h1m4 0h1m2 0h1m1 0h3m2 0h3m1 0h1m1 0h1m3 0h4m1 0h2m5 0h1m1 0h1m1 0h2m1 0h1m1 0h2m1 0h2m1 0h4m2 0h2m2 0h4m1 0h1m2 0h1m1 0h3m4 0h1m2 0h2m3 0h3m1 0h1m2 0h1m2 0h1m1 0h1m2 0h1m1 0h1m1 0h2M5 31.5h1m2 0h2m1 0h1m4 0h1m5 0h1m1 0h1m1 0h1m1 0h7m2 0h1m1 0h1m1 0h1m1 0h1m2 0h1m1 0h1m3 0h2m1 0h4m1 0h3m3 0h2m1 0h2m2 0h2m1 0h1m1 0h2m1 0h1m1 0h1m2 0h1m2 0h1m2 0h2m2 0h1m6 0h2m2 0h1m2 0h1m4 0h3m5 0h1m1 0h1m2 0h1m1 0h4m1 0h1m2 0h1m1 0h1m1 0h1m9 0h4m1 0h1m1 0h1m1 0h1m4 0h1m2 0h1m2 0h3m1 0h1m1 0h1M6 32.5h8m2 0h1m1 0h2m2 0h2m4 0h2m2 0h5m1 0h3m3 0h2m2 0h2m4 0h2m2 0h8m3 0h3m1 0h9m2 0h1m1 0h1m1 0h6m3 0h1m1 0h5m1 0h1m3 0h1m2 0h2m2 0h6m1 0h1m3 0h2m1 0h1m9 0h1m1 0h1m1 0h5m1 0h9m3 0h3m2 0h2m1 0h1m1 0h5m2 0h2M5 33.5h4m3 0h7m4 0h2m1 0h2m1 0h2m1 0h1m3 0h1m2 0h1m1 0h4m1 0h4m1 0h1m1 0h6m1 0h1m3 0h1m4 0h2m2 0h1m2 0h2m1 0h1m3 0h3m1 0h2m3 0h3m5 0h2m3 0h3m3 0h2m3 0h1m3 0h3m1 0h1m1 0h2m1 0h1m1 0h1m1 0h4m1 0h1m4 0h2m3 0h2m1 0h2m1 0h1m1 0h3m2 0h6m1 0h1m1 0h1m1 0h1m3 0h1m2 0h2M8 34.5h1m1 0h1m1 0h9m2 0h3m1 0h6m1 0h1m1 0h3m6 0h1m1 0h1m1 0h6m3 0h3m1 0h1m1 0h1m2 0h2m1 0h3m2 0h2m2 0h2m1 0h3m3 0h1m1 0h1m1 0h1m4 0h3m1 0h4m5 0h1m3 0h1m1 0h1m1 0h1m1 0h1m2 0h3m3 0h1m9 0h1m1 0h1m1 0h2m1 0h1m1 0h2m1 0h1m1 0h1m1 0h1m4 0h1m1 0h2m1 0h1m5 0h2m1 0h1m1 0h1m1 0h1M6 35.5h1m1 0h1m3 0h1m1 0h1m7 0h1m1 0h1m1 0h2m1 0h1m1 0h2m3 0h2m1 0h3m4 0h1m1 0h1m2 0h1m3 0h1m2 0h1m1 0h1m3 0h1m1 0h2m1 0h1m3 0h4m1 0h1m6 0h2m1 0h1m3 0h2m1 0h3m2 0h3m1 0h1m2 0h2m4 0h4m3 0h5m1 0h3m1 0h3m2 0h1m2 0h3m1 0h3m3 0h1m2 0h1m1 0h2m2 0h1m3 0h1m3 0h5m1 0h2m3 0h3M4 36.5h1m3 0h5m2 0h1m2 0h1m6 0h3m1 0h1m2 0h5m1 0h1m1 0h3m1 0h1m2 0h5m2 0h1m4 0h6m2 0h1m1 0h1m3 0h1m1 0h5m4 0h1m1 0h1m1 0h5m1 0h1m4 0h1m3 0h1m3 0h1m3 0h2m3 0h6m1 0h1m1 0h1m2 0h4m1 0h1m5 0h4m1 0h5m1 0h7m1 0h2m2 0h6m2 0h1m1 0h5m2 0h2M4 37.5h1m3 0h2m1 0h1m1 0h1m2 0h2m6 0h1m2 0h1m1 0h2m1 0h1m2 0h1m2 0h1m1 0h2m1 0h3m2 0h1m5 0h1m2 0h5m4 0h10m1 0h1m2 0h1m1 0h3m4 0h1m3 0h2m2 0h1m3 0h1m1 0h2m1 0h2m3 0h3m1 0h1m1 0h1m1 0h1m1 0h2m1 0h2m5 0h1m2 0h1m1 0h1m1 0h2m3 0h1m4 0h6m1 0h2m1 0h2m1 0h4m3 0h1m2 0h2m2 0h1m1 0h4M4 38.5h1m1 0h1m1 0h1m1 0h1m1 0h4m4 0h1m3 0h1m3 0h1m4 0h1m1 0h1m3 0h1m1 0h1m10 0h1m2 0h1m2 0h5m1 0h1m3 0h1m1 0h1m1 0h1m6 0h2m1 0h1m1 0h1m4 0h4m1 0h1m2 0h3m8 0h1m1 0h2m1 0h6m3 0h5m1 0h1m4 0h1m2 0h2m7 0h1m1 0h2m4 0h2m5 0h2m3 0h1m3 0h1m2 0h1m4 0h1M4 39.5h2m1 0h2m2 0h1m9 0h1m4 0h1m3 0h1m1 0h1m2 0h6m2 0h4m4 0h2m5 0h1m1 0h1m1 0h2m2 0h2m5 0h4m1 0h2m3 0h1m1 0h5m3 0h1m1 0h3m1 0h1m1 0h1m1 0h2m1 0h1m1 0h1m2 0h3m4 0h1m1 0h2m2 0h1m2 0h1m2 0h3m4 0h2m3 0h1m1 0h1m1 0h2m1 0h1m1 0h1m1 0h2m2 0h1m2 0h2m1 0h2m1 0h2m6 0h1m1 0h3M4 40.5h2m2 0h1m1 0h4m1 0h1m3 0h1m1 0h1m1 0h1m2 0h2m1 0h3m5 0h1m2 0h1m1 0h1m1 0h2m1 0h1m2 0h1m3 0h2m5 0h2m1 0h4m1 0h1m2 0h2m1 0h1m2 0h2m2 0h2m2 0h1m1 0h1m2 0h1m2 0h1m3 0h3m1 0h2m2 0h2m1 0h1m1 0h2m8 0h1m1 0h1m1 0h1m2 0h1m1 0h4m3 0h1m2 0h4m2 0h1m3 0h4m2 0h1m1 0h2m2 0h1m7 0h1m1 0h3m1 0h1m2 0h1M5 41.5h5m6 0h3m1 0h1m1 0h3m1 0h2m1 0h2m5 0h2m4 0h4m4 0h1m2 0h7m4 0h1m1 0h4m7 0h3m1 0h3m1 0h1m4 0h2m1 0h2m1 0h2m2 0h2m4 0h1m2 0h1m2 0h1m2 0h1m3 0h1m2 0h3m1 0h1m2 0h1m3 0h2m1 0h1m1 0h2m1 0h1m1 0h1m2 0h3m2 0h3m1 0h2m7 0h2m2 0h1m2 0h2m1 0h2m2 0h1m1 0h1M5 42.5h3m2 0h1m3 0h4m7 0h3m1 0h3m3 0h1m1 0h1m1 0h1m3 0h1m2 0h3m1 0h1m1 0h1m2 0h1m2 0h2m3 0h8m1 0h1m6 0h2m1 0h1m1 0h2m1 0h2m1 0h3m1 0h1m2 0h3m2 0h3m3 0h4m2 0h1m1 0h2m2 0h1m1 0h7m2 0h2m2 0h2m4 0h1m2 0h1m4 0h2m4 0h1m3 0h2m1 0h2m1 0h1m1 0h1m1 0h1m2 0h2m1 0h1M4 43.5h1m3 0h2m3 0h1m1 0h1m1 0h1m2 0h1m1 0h2m3 0h1m1 0h2m1 0h1m3 0h4m1 0h1m4 0h1m1 0h2m1 0h2m4 0h2m1 0h1m1 0h1m1 0h1m2 0h1m1 0h1m4 0h1m1 0h3m7 0h2m2 0h2m4 0h2m1 0h1m3 0h3m2 0h1m4 0h2m3 0h1m1 0h1m2 0h1m4 0h2m1 0h1m2 0h4m1 0h1m4 0h5m4 0h2m2 0h1m2 0h1m3 0h1m1 0h1m1 0h1m3 0h1m1 0h2m2 0h1M5 44.5h1m1 0h1m1 0h3m1 0h1m2 0h1m2 0h1m2 0h1m2 0h1m5 0h1m2 0h1m2 0h2m2 0h2m2 0h1m1 0h4m2 0h2m1 0h1m1 0h1m4 0h1m1 0h2m4 0h3m2 0h3m1 0h3m3 0h1m1 0h1m2 0h1m1 0h3m1 0h1m2 0h1m2 0h1m1 0h1m3 0h4m3 0h2m3 0h1m6 0h6m3 0h1m2 0h4m2 0h2m2 0h1m1 0h1m2 0h5m1 0h2m1 0h2m3 0h5M7 45.5h1m1 0h1m1 0h1m1 0h1m3 0h2m1 0h1m2 0h2m4 0h1m3 0h2m1 0h1m4 0h1m2 0h5m1 0h1m3 0h3m2 0h1m1 0h1m2 0h1m5 0h1m8 0h1m2 0h2m1 0h1m3 0h2m1 0h1m1 0h1m5 0h2m1 0h1m2 0h1m2 0h1m3 0h1m1 0h1m2 0h1m3 0h1m1 0h3m3 0h1m2 0h2m1 0h1m1 0h2m2 0h4m1 0h3m1 0h2m3 0h1m7 0h1m1 0h1m1 0h1m1 0h3m4 0h2m1 0h1M5 46.5h1m3 0h3m1 0h1m2 0h1m2 0h1m2 0h2m1 0h1m1 0h4m1 0h1m3 0h5m1 0h2m3 0h1m4 0h2m3 0h3m2 0h4m1 0h2m1 0h1m1 0h2m1 0h1m4 0h6m2 0h2m1 0h2m5 0h2m2 0h4m1 0h1m1 0h3m2 0h3m2 0h1m1 0h2m1 0h2m1 0h3m3 0h2m1 0h1m1 0h1m2 0h1m2 0h1m3 0h2m1 0h1m2 0h2m3 0h3m1 0h1m3 0h1m2 0h1m1 0h2m1 0h1m2 0h1M7 47.5h3m2 0h2m1 0h2m3 0h2m5 0h1m1 0h2m4 0h1m2 0h1m1 0h1m4 0h3m4 0h1m5 0h1m1 0h1m1 0h1m1 0h3m8 0h5m1 0h1m1 0h1m2 0h2m6 0h5m4 0h3m2 0h2m4 0h1m3 0h3m4 0h1m2 0h1m2 0h1m1 0h1m3 0h2m1 0h1m3 0h5m4 0h2m4 0h3m3 0h2m1 0h1m3 0h1m1 0h1m1 0h3M4 48.5h1m1 0h1m1 0h1m1 0h1m2 0h4m1 0h2m1 0h1m1 0h4m1 0h1m3 0h4m1 0h2m3 0h1m1 0h2m5 0h2m1 0h1m1 0h2m2 0h1m2 0h1m5 0h1m1 0h3m1 0h1m1 0h2m1 0h2m1 0h3m2 0h2m2 0h3m2 0h1m1 0h2m1 0h2m2 0h1m3 0h3m3 0h2m9 0h4m1 0h1m2 0h1m1 0h1m2 0h1m1 0h1m1 0h2m1 0h1m2 0h1m4 0h1m4 0h2m1 0h2m4 0h5m2 0h1M5 49.5h2m1 0h1m3 0h2m2 0h3m6 0h1m1 0h4m7 0h2m4 0h1m3 0h1m2 0h1m3 0h5m5 0h1m1 0h1m2 0h1m2 0h1m2 0h1m1 0h1m4 0h4m2 0h1m4 0h1m1 0h1m2 0h2m4 0h2m1 0h2m2 0h2m1 0h3m5 0h5m5 0h2m1 0h1m1 0h2m3 0h1m3 0h7m1 0h4m4 0h4m2 0h3m1 0h1m3 0h2m1 0h1M8 50.5h3m1 0h1m2 0h1m1 0h4m5 0h1m1 0h1m2 0h2m4 0h4m2 0h1m2 0h1m2 0h2m1 0h1m1 0h2m1 0h1m1 0h3m2 0h1m3 0h3m1 0h2m5 0h3m1 0h1m1 0h1m1 0h2m2 0h3m4 0h2m2 0h1m3 0h2m1 0h3m1 0h4m1 0h5m1 0h1m3 0h1m2 0h1m5 0h1m2 0h3m4 0h2m1 0h1m4 0h1m2 0h5m2 0h1m1 0h1m1 0h1m2 0h2m1 0h1m1 0h3M6 51.5h2m1 0h1m1 0h2m2 0h1m1 0h10m4 0h2m1 0h3m1 0h2m3 0h1m1 0h3m1 0h1m1 0h1m5 0h2m1 0h1m2 0h1m1 0h2m6 0h4m1 0h1m3 0h2m2 0h2m1 0h1m1 0h1m1 0h1m1 0h3m5 0h7m1 0h1m3 0h6m2 0h1m1 0h1m1 0h1m2 0h2m1 0h1m1 0h1m2 0h3m1 0h1m1 0h3m1 0h2m2 0h1m1 0h2m5 0h1m4 0h1m2 0h1m2 0h3m1 0h1m1 0h2M6 52.5h1m1 0h4m1 0h1m1 0h1m3 0h1m3 0h1m4 0h1m1 0h1m1 0h2m1 0h1m1 0h1m1 0h2m1 0h1m1 0h1m4 0h2m2 0h3m3 0h1m1 0h7m5 0h1m1 0h1m1 0h1m1 0h1m1 0h1m3 0h1m7 0h3m4 0h4m5 0h2m1 0h3m4 0h1m1 0h1m6 0h1m1 0h1m1 0h1m2 0h2m2 0h2m1 0h4m1 0h1m2 0h1m1 0h1m2 0h1m2 0h1m1 0h3m1 0h1m2 0h2m1 0h3m3 0h1m2 0h2M5 53.5h2m2 0h1m1 0h1m6 0h2m1 0h2m1 0h2m1 0h1m4 0h2m1 0h1m1 0h3m1 0h5m2 0h1m3 0h2m1 0h2m1 0h3m2 0h1m2 0h1m2 0h1m1 0h1m1 0h2m1 0h2m2 0h1m1 0h3m4 0h2m2 0h5m1 0h2m2 0h1m1 0h2m2 0h1m1 0h2m2 0h5m1 0h5m1 0h1m5 0h2m1 0h1m1 0h1m2 0h1m1 0h2m1 0h3m3 0h1m1 0h4m1 0h1m1 0h4m1 0h8m1 0h1m3 0h2M4 54.5h2m2 0h3m4 0h2m3 0h1m1 0h4m2 0h3m2 0h1m2 0h1m1 0h2m3 0h1m5 0h1m1 0h3m3 0h1m1 0h4m1 0h1m3 0h1m1 0h1m1 0h2m1 0h2m4 0h2m1 0h2m1 0h2m1 0h4m2 0h1m1 0h7m2 0h1m1 0h2m1 0h4m1 0h2m5 0h6m1 0h1m2 0h3m2 0h1m4 0h2m2 0h1m1 0h1m3 0h1m3 0h3m6 0h1m2 0h1m1 0h1m5 0h2M6 55.5h4m3 0h2m3 0h1m1 0h4m1 0h7m1 0h8m2 0h2m1 0h1m1 0h1m2 0h2m2 0h1m2 0h1m5 0h1m1 0h2m6 0h3m1 0h1m7 0h5m2 0h4m1 0h2m1 0h2m1 0h3m1 0h5m2 0h2m1 0h2m1 0h3m4 0h1m1 0h1m1 0h3m1 0h2m1 0h2m1 0h1m2 0h2m2 0h1m1 0h1m2 0h2m4 0h2m1 0h1m2 0h2m3 0h1m1 0h2m3 0h1m1 0h1M4 56.5h2m2 0h3m1 0h11m3 0h1m1 0h1m2 0h1m1 0h2m1 0h2m1 0h4m4 0h6m1 0h3m5 0h2m2 0h1m2 0h1m1 0h1m1 0h2m1 0h2m4 0h2m2 0h1m5 0h1m1 0h1m2 0h1m2 0h1m1 0h2m3 0h1m3 0h2m1 0h1m4 0h1m5 0h1m1 0h1m1 0h2m1 0h1m1 0h1m4 0h2m1 0h2m2 0h1m3 0h4m1 0h4m1 0h2m2 0h1m4 0h1m4 0h3m2 0h1M4 57.5h1m1 0h1m1 0h1m3 0h1m1 0h1m2 0h1m4 0h2m2 0h1m2 0h1m1 0h1m3 0h6m3 0h1m3 0h2m1 0h1m1 0h2m1 0h3m2 0h1m1 0h3m2 0h3m4 0h1m4 0h1m1 0h3m4 0h4m1 0h1m1 0h1m2 0h1m5 0h2m1 0h1m2 0h2m2 0h1m1 0h1m1 0h1m1 0h6m1 0h4m1 0h1m1 0h2m1 0h1m4 0h1m1 0h1m1 0h8m1 0h1m2 0h1m2 0h1m3 0h3m1 0h2m1 0h1m1 0h1m1 0h1m2 0h1M4 58.5h2m1 0h2m1 0h2m1 0h1m1 0h2m2 0h1m1 0h2m2 0h1m1 0h4m3 0h1m4 0h3m1 0h1m2 0h1m2 0h2m1 0h1m2 0h1m1 0h9m2 0h1m1 0h1m1 0h1m2 0h1m3 0h2m1 0h2m1 0h1m1 0h1m1 0h4m4 0h2m2 0h3m1 0h4m2 0h1m1 0h4m1 0h3m3 0h1m2 0h3m4 0h7m1 0h1m1 0h2m1 0h1m2 0h1m3 0h1m5 0h2m3 0h1m6 0h1m6 0h1M4 59.5h5m2 0h1m1 0h1m1 0h1m1 0h1m9 0h1m1 0h2m2 0h1m1 0h1m1 0h4m2 0h1m2 0h4m1 0h2m4 0h2m3 0h1m1 0h1m1 0h1m2 0h1m3 0h7m1 0h1m4 0h3m5 0h3m1 0h2m1 0h6m1 0h1m3 0h2m2 0h5m5 0h1m1 0h1m1 0h4m1 0h3m1 0h2m1 0h1m2 0h2m1 0h2m1 0h1m1 0h2m1 0h2m2 0h2m1 0h1m2 0h4m1 0h1m1 0h4m1 0h1M4 60.5h1m1 0h1m1 0h5m1 0h2m2 0h1m1 0h1m1 0h1m4 0h2m1 0h7m1 0h5m1 0h1m2 0h1m2 0h1m1 0h4m1 0h1m1 0h7m1 0h1m1 0h1m1 0h1m4 0h2m1 0h1m2 0h2m4 0h7m3 0h1m1 0h1m8 0h5m2 0h6m5 0h4m1 0h2m6 0h3m1 0h5m3 0h2m1 0h2m1 0h1m3 0h1m1 0h1m5 0h7m2 0h2M4 61.5h2m1 0h2m3 0h1m3 0h1m1 0h3m1 0h1m3 0h1m1 0h1m1 0h1m1 0h1m3 0h1m2 0h2m3 0h1m3 0h1m1 0h2m1 0h1m1 0h4m1 0h1m3 0h1m3 0h1m2 0h1m1 0h1m1 0h1m3 0h3m3 0h2m1 0h1m3 0h1m1 0h1m2 0h1m2 0h2m1 0h1m2 0h2m1 0h1m5 0h2m3 0h5m1 0h1m4 0h1m1 0h2m1 0h4m1 0h1m1 0h2m3 0h5m3 0h1m1 0h1m2 0h2m1 0h9m3 0h1m3 0h1M5 62.5h1m2 0h1m1 0h1m1 0h1m3 0h1m1 0h1m1 0h1m1 0h1m2 0h2m2 0h2m1 0h1m1 0h1m1 0h3m2 0h1m1 0h1m1 0h3m1 0h1m2 0h2m1 0h1m4 0h1m1 0h1m1 0h2m1 0h4m1 0h1m3 0h1m2 0h2m1 0h3m3 0h1m1 0h1m1 0h2m1 0h2m1 0h7m3 0h4m2 0h3m1 0h1m1 0h3m1 0h1m1 0h2m1 0h3m1 0h1m1 0h1m2 0h2m1 0h1m1 0h2m1 0h1m1 0h1m5 0h1m2 0h4m2 0h1m1 0h3m2 0h3m1 0h1m1 0h1m1 0h1M5 63.5h1m1 0h2m3 0h1m1 0h1m1 0h1m1 0h4m3 0h2m1 0h3m1 0h1m3 0h2m1 0h2m5 0h4m3 0h1m2 0h5m3 0h1m1 0h2m1 0h1m4 0h2m2 0h2m3 0h1m1 0h4m3 0h2m2 0h2m1 0h1m1 0h2m5 0h1m1 0h1m1 0h5m3 0h1m2 0h1m1 0h4m3 0h6m6 0h1m3 0h2m4 0h1m1 0h1m4 0h1m2 0h1m1 0h1m5 0h1m3 0h1m1 0h2M4 64.5h1m1 0h1m1 0h7m3 0h2m2 0h2m2 0h2m2 0h7m4 0h3m1 0h1m2 0h1m1 0h2m2 0h2m4 0h5m1 0h1m2 0h1m2 0h3m5 0h1m2 0h2m2 0h7m4 0h3m4 0h1m5 0h3m1 0h7m1 0h1m1 0h1m1 0h2m1 0h2m7 0h2m1 0h1m1 0h5m1 0h1m2 0h1m1 0h1m1 0h3m1 0h2m4 0h1m1 0h2m1 0h5m2 0h2M6 65.5h4m1 0h1m5 0h1m1 0h3m1 0h2m3 0h1m5 0h3m2 0h1m2 0h3m1 0h1m1 0h1m1 0h1m1 0h1m2 0h3m1 0h1m1 0h3m2 0h1m3 0h4m1 0h1m1 0h1m1 0h1m1 0h2m2 0h1m1 0h1m1 0h1m1 0h1m1 0h5m1 0h2m2 0h5m3 0h3m2 0h1m4 0h2m1 0h1m1 0h2m3 0h1m1 0h4m1 0h1m2 0h1m4 0h1m2 0h1m2 0h1m2 0h2m1 0h1m2 0h6m1 0h1m2 0h6m1 0h1m1 0h1M4 66.5h3m1 0h1m1 0h4m3 0h1m1 0h1m3 0h1m3 0h2m1 0h1m1 0h3m1 0h1m1 0h2m2 0h1m2 0h2m2 0h1m1 0h2m1 0h2m2 0h1m1 0h1m4 0h1m3 0h2m1 0h1m4 0h1m4 0h1m2 0h1m2 0h1m1 0h3m3 0h3m2 0h2m1 0h2m3 0h3m2 0h3m3 0h2m2 0h1m1 0h2m1 0h2m3 0h1m1 0h2m3 0h1m1 0h3m2 0h2m1 0h1m6 0h4m1 0h1m1 0h2m2 0h2m3 0h1m2 0h2M4 67.5h2m7 0h2m1 0h1m6 0h1m2 0h6m2 0h1m1 0h1m1 0h2m1 0h1m2 0h1m1 0h2m5 0h1m3 0h2m2 0h2m1 0h1m2 0h1m2 0h2m3 0h4m2 0h1m1 0h1m1 0h2m1 0h1m3 0h1m1 0h1m1 0h2m2 0h1m1 0h10m1 0h3m1 0h2m2 0h2m2 0h3m2 0h1m1 0h2m1 0h1m1 0h1m2 0h1m1 0h1m1 0h1m2 0h2m5 0h2m1 0h1m1 0h1m1 0h1m1 0h1m1 0h2m1 0h1m2 0h1m1 0h1m1 0h2m1 0h1m1 0h1M4 68.5h1m1 0h1m3 0h3m1 0h1m1 0h2m3 0h1m1 0h2m3 0h1m1 0h1m6 0h2m1 0h1m1 0h1m2 0h2m3 0h1m3 0h1m2 0h2m3 0h1m1 0h3m2 0h1m2 0h1m1 0h6m1 0h2m1 0h3m4 0h1m1 0h2m3 0h4m3 0h2m3 0h3m1 0h3m1 0h3m4 0h1m1 0h2m1 0h1m1 0h1m6 0h4m3 0h1m3 0h1m1 0h2m1 0h6m2 0h3m1 0h3m1 0h2m1 0h1m1 0h1m2 0h2M4 69.5h1m1 0h1m2 0h1m1 0h2m3 0h1m1 0h1m1 0h6m1 0h2m1 0h2m2 0h3m1 0h1m4 0h3m2 0h1m1 0h1m2 0h5m1 0h1m1 0h2m1 0h2m1 0h1m3 0h1m3 0h1m4 0h2m1 0h3m5 0h2m1 0h2m4 0h2m1 0h2m1 0h1m2 0h1m2 0h1m2 0h3m3 0h2m1 0h2m1 0h1m6 0h3m1 0h1m6 0h2m2 0h1m1 0h2m2 0h3m1 0h1m1 0h5m2 0h1m5 0h5m1 0h1M5 70.5h1m1 0h2m1 0h1m2 0h1m3 0h2m2 0h2m2 0h4m4 0h1m3 0h3m1 0h1m4 0h1m2 0h1m1 0h2m1 0h2m2 0h1m6 0h1m1 0h5m1 0h1m1 0h1m1 0h1m3 0h5m2 0h4m1 0h1m2 0h4m2 0h1m1 0h1m3 0h1m1 0h2m2 0h6m1 0h1m2 0h2m3 0h3m2 0h1m1 0h1m1 0h1m5 0h1m3 0h2m1 0h1m1 0h2m3 0h1m1 0h3m3 0h1m4 0h1m1 0h1m1 0h1M4 71.5h2m1 0h2m2 0h8m4 0h1m1 0h2m3 0h4m1 0h5m1 0h1m1 0h6m4 0h2m2 0h8m1 0h2m3 0h1m1 0h4m9 0h1m1 0h1m2 0h2m3 0h2m1 0h1m3 0h2m2 0h2m1 0h1m2 0h3m1 0h2m2 0h2m4 0h2m1 0h1m2 0h3m3 0h7m5 0h1m2 0h4m1 0h3m1 0h1m1 0h3m3 0h1m6 0h2M5 72.5h3m1 0h2m1 0h2m1 0h2m4 0h2m1 0h2m1 0h2m4 0h1m3 0h4m1 0h1m1 0h3m2 0h3m7 0h3m4 0h2m2 0h3m3 0h3m3 0h1m1 0h3m2 0h1m1 0h1m1 0h2m5 0h2m1 0h1m3 0h1m2 0h3m1 0h1m1 0h1m1 0h1m1 0h2m5 0h2m1 0h1m1 0h2m3 0h1m2 0h3m2 0h4m1 0h2m1 0h1m1 0h1m1 0h6m2 0h1m3 0h2m1 0h3m2 0h1m1 0h2M4 73.5h1m1 0h1m1 0h2m1 0h1m2 0h3m2 0h1m1 0h2m1 0h1m1 0h1m1 0h4m1 0h3m1 0h2m2 0h4m1 0h1m4 0h1m1 0h2m2 0h1m1 0h1m1 0h1m1 0h1m1 0h1m1 0h1m1 0h2m3 0h3m2 0h1m9 0h1m4 0h2m1 0h1m2 0h1m4 0h3m1 0h1m3 0h1m2 0h2m1 0h1m1 0h4m1 0h2m5 0h4m1 0h2m3 0h1m1 0h1m4 0h5m3 0h1m2 0h4m2 0h2m1 0h2m2 0h3m3 0h1M4 74.5h2m4 0h1m1 0h2m1 0h1m4 0h5m1 0h1m1 0h1m1 0h4m1 0h1m1 0h1m1 0h2m1 0h2m3 0h1m1 0h1m1 0h4m2 0h2m1 0h2m1 0h1m4 0h1m1 0h1m1 0h2m3 0h1m4 0h1m1 0h2m2 0h1m1 0h3m2 0h2m2 0h1m2 0h1m1 0h1m2 0h2m1 0h2m2 0h1m1 0h1m2 0h2m3 0h5m1 0h3m3 0h2m5 0h2m1 0h1m1 0h2m3 0h3m1 0h4m5 0h1m2 0h2m2 0h3m1 0h3M4 75.5h1m1 0h2m6 0h2m5 0h1m9 0h1m9 0h1m3 0h2m5 0h2m1 0h1m2 0h7m1 0h1m2 0h1m1 0h1m1 0h2m1 0h2m7 0h2m1 0h1m4 0h2m1 0h1m1 0h2m1 0h5m1 0h2m1 0h1m6 0h1m1 0h2m2 0h1m5 0h2m2 0h4m2 0h1m2 0h1m1 0h1m2 0h3m1 0h2m1 0h3m3 0h2m3 0h2m2 0h1m3 0h1m1 0h4m1 0h1M7 76.5h2m1 0h2m3 0h1m2 0h2m2 0h2m1 0h3m1 0h1m1 0h6m3 0h1m1 0h1m4 0h6m1 0h3m2 0h3m2 0h1m1 0h1m1 0h1m2 0h5m3 0h1m4 0h2m3 0h1m5 0h1m1 0h4m6 0h1m1 0h1m2 0h2m1 0h1m2 0h1m1 0h2m3 0h1m2 0h1m1 0h3m4 0h1m1 0h2m1 0h1m3 0h1m1 0h3m1 0h1m2 0h4m2 0h2m4 0h6m1 0h2m3 0h2M4 77.5h3m1 0h1m3 0h2m4 0h3m1 0h1m2 0h2m1 0h4m2 0h3m6 0h2m3 0h2m4 0h3m1 0h2m5 0h1m1 0h1m1 0h4m1 0h3m1 0h1m2 0h1m1 0h5m4 0h1m1 0h1m2 0h1m1 0h3m2 0h2m2 0h1m2 0h2m3 0h2m1 0h1m1 0h2m1 0h1m1 0h2m5 0h2m1 0h1m1 0h1m4 0h1m3 0h1m1 0h5m2 0h1m2 0h1m1 0h2m1 0h1m1 0h3m1 0h2m1 0h1m1 0h3m1 0h2M6 78.5h8m1 0h2m2 0h2m1 0h2m1 0h1m2 0h1m4 0h1m3 0h1m1 0h5m1 0h2m5 0h1m1 0h1m2 0h2m2 0h1m1 0h1m4 0h1m1 0h4m6 0h3m1 0h2m2 0h1m1 0h3m2 0h5m3 0h1m2 0h4m1 0h2m1 0h3m1 0h2m1 0h2m3 0h1m2 0h1m2 0h1m1 0h4m3 0h1m1 0h1m1 0h1m2 0h1m2 0h1m1 0h2m5 0h1m2 0h1m1 0h1m1 0h1m1 0h2m1 0h2m1 0h1m2 0h1M7 79.5h1m1 0h1m2 0h1m2 0h1m3 0h1m1 0h5m3 0h1m4 0h1m3 0h1m7 0h4m1 0h3m1 0h4m1 0h5m1 0h2m3 0h1m2 0h1m1 0h4m3 0h1m1 0h4m1 0h1m1 0h2m2 0h1m1 0h2m2 0h1m1 0h2m2 0h2m1 0h2m2 0h1m4 0h2m1 0h2m4 0h2m2 0h4m2 0h2m3 0h1m2 0h2m2 0h1m2 0h1m5 0h2m4 0h2m1 0h1m1 0h1m1 0h1m1 0h6M4 80.5h3m3 0h2m1 0h1m2 0h1m1 0h1m3 0h4m4 0h2m3 0h4m1 0h3m1 0h1m2 0h1m1 0h2m2 0h2m1 0h1m2 0h2m1 0h3m1 0h2m1 0h1m1 0h2m1 0h2m2 0h2m3 0h2m1 0h1m1 0h1m2 0h1m2 0h2m1 0h2m1 0h1m5 0h1m2 0h1m2 0h2m1 0h1m1 0h2m1 0h1m2 0h1m3 0h2m1 0h1m5 0h1m3 0h3m2 0h3m2 0h1m4 0h1m2 0h2m4 0h1m2 0h2m1 0h5m1 0h1m1 0h1m1 0h1M4 81.5h1m1 0h3m2 0h2m2 0h2m5 0h4m2 0h2m1 0h1m4 0h3m2 0h1m2 0h1m3 0h2m1 0h1m2 0h1m2 0h1m3 0h1m1 0h4m1 0h1m1 0h1m1 0h1m1 0h4m2 0h2m7 0h1m1 0h1m1 0h3m3 0h3m1 0h1m1 0h3m1 0h1m1 0h2m2 0h1m5 0h2m1 0h4m1 0h1m1 0h1m1 0h4m1 0h2m3 0h1m5 0h1m1 0h2m3 0h5m2 0h2m1 0h3m1 0h1m2 0h4m3 0h1M5 82.5h4m1 0h4m1 0h1m3 0h1m4 0h1m1 0h2m1 0h2m1 0h3m3 0h2m3 0h1m2 0h2m3 0h2m1 0h1m2 0h3m1 0h1m1 0h1m1 0h1m1 0h6m2 0h1m4 0h3m1 0h2m2 0h1m1 0h1m1 0h1m4 0h1m1 0h2m1 0h1m1 0h1m4 0h2m1 0h2m1 0h4m1 0h1m1 0h2m1 0h3m1 0h1m2 0h1m3 0h3m3 0h1m1 0h2m1 0h3m1 0h1m7 0h3m1 0h1m2 0h1m2 0h1m5 0h1m1 0h2M4 83.5h3m2 0h1m2 0h1m3 0h2m1 0h2m1 0h3m4 0h2m1 0h1m1 0h3m1 0h1m2 0h1m1 0h1m2 0h1m2 0h1m2 0h1m4 0h3m2 0h1m1 0h1m1 0h2m8 0h1m1 0h1m6 0h4m1 0h1m1 0h2m2 0h1m1 0h4m1 0h1m1 0h3m1 0h3m1 0h1m7 0h2m3 0h1m1 0h1m3 0h1m1 0h2m1 0h1m1 0h6m6 0h2m1 0h1m1 0h1m3 0h1m2 0h1m2 0h3m4 0h1m4 0h3M4 84.5h1m4 0h2m1 0h1m1 0h1m1 0h1m2 0h1m2 0h1m4 0h4m2 0h1m1 0h3m2 0h1m1 0h1m5 0h1m1 0h2m2 0h1m2 0h2m1 0h8m2 0h2m2 0h1m1 0h1m1 0h1m1 0h1m2 0h2m2 0h3m1 0h1m2 0h1m2 0h5m2 0h1m2 0h1m3 0h2m2 0h2m1 0h4m5 0h4m1 0h2m1 0h1m1 0h1m1 0h2m1 0h1m2 0h2m1 0h1m1 0h1m1 0h1m2 0h1m1 0h2m2 0h2m1 0h1m2 0h1m1 0h4m1 0h1m5 0h1M8 85.5h1m2 0h3m2 0h3m5 0h1m1 0h2m2 0h2m1 0h1m3 0h1m1 0h1m1 0h1m1 0h3m2 0h1m4 0h2m1 0h1m4 0h1m1 0h2m8 0h1m1 0h1m1 0h1m2 0h1m1 0h1m2 0h1m1 0h1m1 0h1m3 0h4m3 0h2m1 0h4m2 0h1m5 0h2m4 0h4m1 0h2m1 0h1m1 0h1m1 0h2m1 0h4m5 0h2m4 0h2m1 0h1m1 0h2m2 0h3m1 0h1m1 0h2m1 0h1m1 0h1m1 0h3m3 0h2M4 86.5h1m1 0h1m1 0h6m1 0h2m1 0h2m1 0h1m2 0h1m4 0h1m1 0h3m4 0h1m1 0h1m4 0h3m3 0h2m1 0h2m1 0h3m1 0h1m1 0h1m5 0h2m1 0h2m1 0h1m3 0h4m1 0h2m2 0h1m1 0h1m1 0h2m1 0h4m3 0h1m1 0h1m3 0h1m1 0h1m1 0h1m1 0h1m4 0h1m2 0h6m1 0h1m4 0h5m4 0h2m1 0h3m1 0h2m7 0h5m2 0h2m3 0h1m1 0h1m3 0h3M6 87.5h1m6 0h1m2 0h2m2 0h2m2 0h3m3 0h1m2 0h1m1 0h2m1 0h2m1 0h1m1 0h2m1 0h2m1 0h1m1 0h3m2 0h3m1 0h3m1 0h3m4 0h1m2 0h3m1 0h2m1 0h2m2 0h2m2 0h2m1 0h2m1 0h1m1 0h3m1 0h4m1 0h1m1 0h1m1 0h1m2 0h1m4 0h3m2 0h1m4 0h1m1 0h6m1 0h1m2 0h2m2 0h1m2 0h3m1 0h1m2 0h2m3 0h3m2 0h3m1 0h2m1 0h1m1 0h1m1 0h1m1 0h4M5 88.5h8m2 0h3m1 0h2m1 0h1m2 0h1m3 0h2m1 0h5m1 0h1m1 0h1m1 0h1m1 0h1m3 0h7m1 0h1m3 0h5m1 0h1m2 0h1m1 0h3m1 0h4m1 0h2m1 0h1m2 0h1m1 0h5m4 0h1m2 0h1m2 0h1m1 0h2m2 0h1m2 0h2m2 0h6m3 0h1m1 0h4m1 0h2m5 0h1m2 0h7m1 0h1m4 0h1m1 0h1m1 0h1m1 0h5m1 0h2m1 0h1m1 0h9M7 89.5h2m3 0h1m1 0h1m1 0h3m1 0h7m1 0h3m1 0h1m3 0h10m1 0h4m1 0h2m1 0h2m2 0h2m3 0h1m2 0h2m2 0h1m3 0h2m1 0h5m1 0h2m1 0h2m3 0h4m1 0h1m3 0h1m1 0h2m1 0h2m3 0h2m2 0h2m3 0h1m1 0h1m1 0h1m1 0h2m3 0h1m1 0h2m1 0h1m1 0h1m2 0h1m2 0h1m3 0h1m2 0h2m1 0h1m1 0h3m1 0h2m1 0h3m2 0h1m3 0h1m3 0h1m3 0h1M6 90.5h3m1 0h1m1 0h3m4 0h1m1 0h2m2 0h3m2 0h1m1 0h1m1 0h1m1 0h3m1 0h1m5 0h1m4 0h1m6 0h1m1 0h1m1 0h1m1 0h1m3 0h1m1 0h4m3 0h1m3 0h2m1 0h2m2 0h1m1 0h1m1 0h1m4 0h2m1 0h1m1 0h2m6 0h7m1 0h1m1 0h3m7 0h1m1 0h2m2 0h4m4 0h1m1 0h1m1 0h1m1 0h1m3 0h1m4 0h3m3 0h1m1 0h1m3 0h2m1 0h1m1 0h1m1 0h1M4 91.5h5m3 0h3m1 0h1m1 0h3m1 0h2m1 0h1m2 0h3m1 0h1m3 0h1m1 0h3m4 0h3m1 0h1m3 0h1m1 0h1m1 0h2m1 0h1m3 0h1m1 0h1m2 0h1m3 0h2m1 0h3m2 0h2m3 0h3m3 0h1m1 0h1m1 0h4m1 0h1m2 0h2m2 0h1m5 0h1m1 0h1m3 0h1m2 0h1m2 0h7m2 0h1m4 0h1m1 0h3m3 0h1m2 0h2m1 0h1m1 0h2m2 0h1m2 0h1m1 0h5m2 0h1m3 0h5M8 92.5h6m1 0h1m2 0h2m1 0h3m2 0h1m5 0h5m1 0h1m1 0h1m1 0h1m1 0h2m1 0h1m1 0h3m2 0h1m1 0h1m2 0h8m3 0h1m1 0h11m1 0h1m1 0h9m2 0h1m1 0h2m2 0h1m2 0h1m3 0h1m1 0h1m3 0h6m5 0h2m1 0h1m1 0h1m2 0h1m1 0h1m1 0h10m1 0h3m4 0h2m2 0h2m1 0h1m2 0h1m2 0h10M4 93.5h1m1 0h2m1 0h1m2 0h1m1 0h1m1 0h1m2 0h1m1 0h2m1 0h1m8 0h1m1 0h1m1 0h2m2 0h1m3 0h7m2 0h1m1 0h1m1 0h1m2 0h2m2 0h1m1 0h1m1 0h3m5 0h1m2 0h4m1 0h2m1 0h2m4 0h1m4 0h1m4 0h4m1 0h1m8 0h1m1 0h8m1 0h1m1 0h1m2 0h1m1 0h3m5 0h4m3 0h4m1 0h1m1 0h2m1 0h4m2 0h2m3 0h1m3 0h1m1 0h1m1 0h1M5 94.5h1m3 0h2m1 0h2m6 0h1m2 0h1m3 0h1m4 0h1m2 0h1m2 0h2m3 0h1m1 0h3m3 0h5m3 0h2m1 0h1m2 0h1m1 0h2m1 0h1m1 0h2m6 0h6m1 0h1m3 0h1m1 0h1m2 0h2m1 0h1m2 0h1m2 0h3m1 0h7m9 0h1m1 0h1m2 0h1m2 0h5m3 0h3m1 0h2m2 0h3m2 0h2m3 0h3m4 0h2m3 0h3m1 0h4M4 95.5h1m2 0h1m1 0h1m1 0h1m3 0h3m4 0h1m1 0h2m3 0h1m1 0h2m4 0h1m1 0h3m3 0h3m1 0h1m1 0h3m1 0h2m1 0h1m2 0h1m3 0h3m1 0h2m3 0h1m1 0h1m1 0h1m2 0h2m2 0h3m1 0h2m1 0h1m3 0h7m1 0h3m1 0h2m1 0h1m1 0h3m7 0h1m5 0h4m3 0h2m2 0h1m1 0h1m1 0h1m2 0h2m2 0h6m4 0h1m3 0h2m1 0h2m2 0h1m5 0h1M4 96.5h1m1 0h3m1 0h1m3 0h2m1 0h2m2 0h1m1 0h1m2 0h2m1 0h1m2 0h2m2 0h1m1 0h1m1 0h1m1 0h2m3 0h4m2 0h3m1 0h1m2 0h3m1 0h1m1 0h1m4 0h1m1 0h8m1 0h2m1 0h2m6 0h2m3 0h3m2 0h1m1 0h1m3 0h1m1 0h2m2 0h4m1 0h2m3 0h1m1 0h1m2 0h1m1 0h1m6 0h4m1 0h1m3 0h1m1 0h2m4 0h4m2 0h1m2 0h1m1 0h2m1 0h1m1 0h1m3 0h2m1 0h2M5 97.5h3m1 0h1m3 0h1m2 0h2m2 0h1m4 0h2m1 0h3m2 0h1m1 0h4m4 0h2m3 0h1m2 0h1m2 0h5m3 0h1m2 0h1m1 0h3m2 0h1m2 0h2m1 0h1m1 0h1m7 0h2m3 0h5m2 0h2m3 0h2m2 0h1m3 0h1m4 0h2m1 0h2m1 0h3m4 0h1m1 0h1m1 0h2m1 0h1m3 0h2m1 0h3m1 0h5m2 0h1m2 0h1m1 0h9m2 0h1m1 0h1m2 0h2m1 0h1M5 98.5h2m3 0h1m1 0h2m2 0h1m3 0h2m1 0h3m1 0h1m1 0h1m1 0h2m1 0h1m5 0h2m3 0h2m2 0h1m1 0h2m2 0h1m1 0h2m1 0h3m1 0h1m2 0h2m1 0h1m1 0h2m3 0h2m1 0h1m1 0h1m1 0h2m1 0h1m1 0h1m1 0h1m5 0h4m1 0h1m1 0h1m5 0h2m2 0h3m2 0h1m1 0h1m2 0h1m2 0h1m2 0h2m2 0h1m3 0h3m1 0h5m4 0h1m2 0h2m3 0h2m2 0h1m3 0h1m2 0h2m2 0h1m1 0h1m1 0h2M6 99.5h1m1 0h2m1 0h1m1 0h3m5 0h1m1 0h1m2 0h1m3 0h3m2 0h2m1 0h2m3 0h2m1 0h2m4 0h1m2 0h2m1 0h3m2 0h1m2 0h1m4 0h1m2 0h1m1 0h1m2 0h1m1 0h1m1 0h1m1 0h4m1 0h2m2 0h4m1 0h1m1 0h4m1 0h1m1 0h4m1 0h1m1 0h1m1 0h1m2 0h1m4 0h1m2 0h1m4 0h3m1 0h1m1 0h1m1 0h2m2 0h1m1 0h3m1 0h1m2 0h2m1 0h1m1 0h1m1 0h1m4 0h4m3 0h2m2 0h4M4 100.5h2m2 0h1m1 0h1m3 0h2m4 0h1m3 0h2m1 0h4m1 0h1m1 0h1m2 0h2m3 0h2m3 0h2m2 0h2m1 0h2m5 0h5m1 0h7m1 0h1m1 0h2m1 0h2m1 0h1m1 0h1m1 0h4m1 0h1m4 0h2m1 0h2m5 0h1m2 0h1m1 0h2m1 0h1m5 0h1m2 0h2m2 0h1m1 0h1m1 0h1m6 0h1m2 0h1m1 0h2m2 0h1m3 0h1m2 0h2m1 0h1m3 0h1m1 0h1m2 0h6m6 0h2M7 101.5h1m1 0h1m3 0h4m1 0h1m1 0h1m2 0h4m3 0h1m1 0h2m2 0h1m1 0h3m1 0h3m3 0h3m2 0h1m1 0h4m1 0h3m1 0h1m2 0h1m2 0h3m1 0h1m1 0h1m3 0h1m1 0h1m1 0h1m3 0h1m2 0h1m2 0h1m2 0h1m1 0h2m2 0h4m2 0h1m1 0h2m3 0h2m2 0h1m2 0h3m1 0h1m3 0h1m1 0h2m1 0h1m1 0h2m1 0h1m1 0h1m1 0h5m1 0h3m2 0h1m4 0h1m1 0h2m3 0h1m3 0h4m1 0h4M10 102.5h1m1 0h2m2 0h2m1 0h1m1 0h1m1 0h1m5 0h2m1 0h1m1 0h1m3 0h4m4 0h1m5 0h1m4 0h2m1 0h1m2 0h1m4 0h4m1 0h1m3 0h1m1 0h4m1 0h2m6 0h2m1 0h1m2 0h1m3 0h2m1 0h1m1 0h4m1 0h4m2 0h2m1 0h2m1 0h1m4 0h1m2 0h2m2 0h2m1 0h2m2 0h1m1 0h3m6 0h2m1 0h1m2 0h1m4 0h2m4 0h2m1 0h5M7 103.5h1m1 0h1m1 0h1m2 0h1m1 0h4m3 0h1m1 0h1m10 0h5m3 0h3m1 0h2m1 0h2m5 0h4m2 0h1m1 0h2m3 0h1m1 0h2m1 0h4m7 0h1m1 0h2m2 0h6m2 0h1m1 0h3m1 0h1m2 0h1m2 0h5m5 0h1m2 0h1m6 0h1m3 0h1m2 0h1m1 0h1m3 0h1m1 0h1m2 0h2m1 0h1m2 0h1m2 0h1m4 0h5m3 0h3m1 0h4M7 104.5h2m1 0h2m1 0h2m1 0h2m1 0h1m3 0h1m2 0h3m3 0h1m1 0h1m1 0h2m2 0h1m1 0h4m3 0h2m3 0h3m3 0h4m2 0h1m2 0h1m3 0h2m2 0h1m2 0h2m3 0h2m4 0h4m4 0h3m3 0h3m1 0h1m2 0h1m2 0h2m2 0h2m2 0h1m1 0h1m1 0h3m5 0h3m1 0h2m1 0h1m2 0h1m1 0h1m1 0h3m1 0h1m1 0h4m3 0h1m7 0h1m2 0h1m1 0h1m3 0h2M5 105.5h5m1 0h5m5 0h1m2 0h1m1 0h3m1 0h1m1 0h1m4 0h1m4 0h3m1 0h1m1 0h1m2 0h1m3 0h3m3 0h2m2 0h2m2 0h5m1 0h1m1 0h1m1 0h1m2 0h1m2 0h1m8 0h2m1 0h1m5 0h1m1 0h2m4 0h3m3 0h4m1 0h3m1 0h1m3 0h3m2 0h4m2 0h1m4 0h2m4 0h5m1 0h1m2 0h6m1 0h3m1 0h1m1 0h3m2 0h2M6 106.5h3m1 0h1m2 0h3m3 0h4m2 0h1m1 0h3m4 0h1m1 0h3m2 0h1m5 0h1m1 0h1m2 0h2m1 0h1m2 0h1m2 0h1m1 0h1m3 0h4m1 0h2m5 0h4m1 0h2m7 0h1m1 0h1m1 0h2m2 0h2m1 0h6m1 0h5m6 0h2m3 0h4m1 0h1m1 0h3m5 0h3m1 0h1m2 0h1m1 0h1m5 0h1m1 0h2m2 0h1m3 0h1m2 0h2m3 0h3m1 0h1M4 107.5h6m2 0h1m2 0h1m1 0h1m1 0h3m2 0h3m1 0h1m1 0h2m2 0h1m1 0h6m4 0h1m2 0h1m1 0h3m3 0h3m1 0h1m3 0h3m3 0h1m1 0h2m1 0h1m1 0h1m6 0h4m1 0h1m1 0h1m3 0h1m1 0h2m1 0h2m1 0h2m1 0h3m3 0h7m4 0h1m1 0h1m1 0h1m1 0h5m2 0h1m2 0h2m2 0h2m1 0h2m5 0h1m4 0h3m1 0h4m1 0h1m3 0h1m2 0h1m2 0h3M5 108.5h1m1 0h2m1 0h2m1 0h1m1 0h2m3 0h1m3 0h1m3 0h1m1 0h3m2 0h3m1 0h1m2 0h1m1 0h2m1 0h1m1 0h2m1 0h1m1 0h2m4 0h3m1 0h4m1 0h3m4 0h1m2 0h1m1 0h1m1 0h1m1 0h1m1 0h2m1 0h5m2 0h2m1 0h2m3 0h3m4 0h1m3 0h2m1 0h1m3 0h2m4 0h2m1 0h2m1 0h2m3 0h3m1 0h1m3 0h5m3 0h5m1 0h1m4 0h2m1 0h1m4 0h3m1 0h2M4 109.5h1m1 0h2m1 0h1m2 0h1m1 0h2m1 0h3m1 0h4m3 0h1m2 0h1m1 0h1m1 0h2m3 0h3m1 0h1m3 0h4m2 0h1m1 0h1m3 0h2m1 0h1m2 0h1m2 0h4m3 0h1m1 0h1m1 0h4m1 0h1m2 0h1m2 0h1m2 0h2m4 0h2m1 0h7m1 0h2m5 0h3m3 0h3m2 0h1m1 0h1m1 0h5m1 0h1m1 0h1m1 0h1m3 0h1m3 0h8m2 0h1m1 0h2m2 0h6m1 0h2m3 0h2M4 110.5h1m1 0h5m5 0h1m3 0h1m3 0h1m2 0h2m1 0h2m1 0h2m4 0h1m1 0h3m1 0h1m6 0h1m4 0h2m4 0h3m2 0h3m1 0h2m1 0h2m2 0h1m1 0h2m1 0h2m2 0h1m6 0h1m3 0h1m2 0h1m1 0h1m1 0h1m2 0h2m2 0h4m2 0h1m2 0h3m1 0h1m2 0h4m1 0h1m1 0h2m1 0h1m3 0h2m1 0h1m2 0h3m2 0h2m3 0h3m1 0h1m2 0h1m2 0h1m1 0h2m3 0h1m1 0h2M5 111.5h2m1 0h1m2 0h4m3 0h2m1 0h1m3 0h1m1 0h1m1 0h4m1 0h1m3 0h2m1 0h1m2 0h1m1 0h1m5 0h1m2 0h1m2 0h2m5 0h3m1 0h2m2 0h4m1 0h1m1 0h1m4 0h2m1 0h3m1 0h1m3 0h1m1 0h1m2 0h4m3 0h2m1 0h1m1 0h4m4 0h2m1 0h1m2 0h2m2 0h1m3 0h1m4 0h2m5 0h2m4 0h3m3 0h2m3 0h3m2 0h1m3 0h1m1 0h1m2 0h2M4 112.5h1m1 0h2m1 0h2m1 0h3m1 0h1m1 0h2m2 0h1m1 0h1m3 0h4m1 0h1m3 0h2m3 0h4m1 0h1m2 0h2m2 0h1m5 0h1m1 0h1m1 0h2m1 0h1m2 0h1m1 0h3m2 0h1m1 0h4m1 0h1m1 0h3m1 0h5m2 0h1m2 0h1m5 0h2m2 0h1m1 0h1m2 0h1m1 0h5m5 0h7m3 0h1m1 0h5m6 0h1m4 0h2m1 0h1m3 0h2m1 0h1m1 0h6m3 0h1M4 113.5h4m3 0h1m2 0h2m2 0h2m2 0h1m1 0h4m1 0h1m2 0h1m4 0h1m1 0h1m3 0h3m2 0h2m3 0h6m1 0h1m7 0h3m4 0h1m1 0h1m2 0h2m1 0h1m1 0h2m1 0h1m2 0h1m2 0h1m6 0h1m1 0h2m1 0h1m1 0h2m1 0h3m4 0h1m1 0h7m7 0h1m1 0h3m6 0h1m2 0h1m2 0h3m2 0h3m1 0h1m2 0h1m1 0h2m1 0h11m1 0h1M4 114.5h3m1 0h1m1 0h2m1 0h3m2 0h1m1 0h2m2 0h1m1 0h2m1 0h1m2 0h1m7 0h2m4 0h2m1 0h1m1 0h2m4 0h1m2 0h1m2 0h1m4 0h1m1 0h2m1 0h1m1 0h1m3 0h2m1 0h1m1 0h1m4 0h1m1 0h2m3 0h1m3 0h3m1 0h1m4 0h4m1 0h3m4 0h2m5 0h1m2 0h3m1 0h1m1 0h5m1 0h1m2 0h1m3 0h2m1 0h3m3 0h4m4 0h1m6 0h5M6 115.5h3m4 0h2m3 0h2m1 0h1m2 0h4m2 0h1m1 0h4m2 0h3m2 0h4m1 0h1m8 0h3m1 0h1m2 0h1m1 0h1m2 0h1m3 0h2m1 0h1m1 0h1m6 0h2m4 0h1m1 0h1m2 0h3m2 0h4m1 0h1m1 0h4m1 0h1m1 0h1m2 0h1m1 0h1m2 0h1m1 0h2m2 0h2m1 0h1m5 0h1m1 0h1m1 0h1m2 0h4m5 0h2m4 0h2m2 0h1m1 0h1m2 0h1m2 0h2m1 0h1m2 0h3M7 116.5h9m2 0h1m1 0h2m4 0h1m2 0h1m1 0h7m2 0h2m2 0h2m1 0h9m1 0h1m2 0h5m1 0h2m2 0h2m1 0h1m2 0h1m2 0h1m2 0h3m1 0h1m1 0h5m1 0h1m2 0h1m1 0h2m2 0h1m1 0h2m5 0h1m3 0h5m2 0h1m6 0h1m1 0h2m2 0h2m1 0h4m1 0h9m3 0h4m1 0h2m4 0h1m1 0h2m1 0h5m2 0h1M7 117.5h2m3 0h7m3 0h2m2 0h1m1 0h3m1 0h1m3 0h5m1 0h4m2 0h1m1 0h2m1 0h2m1 0h2m1 0h2m3 0h1m3 0h2m3 0h2m1 0h2m2 0h2m1 0h1m1 0h2m1 0h1m3 0h4m4 0h2m1 0h2m1 0h2m1 0h1m1 0h3m2 0h1m3 0h3m1 0h1m1 0h1m2 0h1m3 0h6m5 0h1m3 0h1m1 0h4m2 0h3m2 0h8m1 0h3m3 0h3m1 0h1M5 118.5h2m1 0h1m1 0h1m1 0h1m2 0h1m1 0h3m2 0h1m1 0h1m1 0h2m2 0h1m1 0h1m1 0h1m1 0h1m3 0h2m1 0h1m5 0h2m1 0h2m4 0h3m1 0h1m1 0h2m1 0h1m2 0h1m1 0h2m1 0h1m1 0h1m1 0h1m2 0h2m1 0h1m2 0h1m1 0h1m1 0h2m1 0h1m1 0h9m1 0h1m2 0h2m2 0h1m1 0h1m1 0h1m1 0h1m1 0h1m1 0h4m3 0h1m1 0h1m1 0h5m3 0h2m1 0h1m1 0h2m4 0h1m2 0h1m2 0h1m5 0h2m1 0h1m1 0h2m1 0h1m1 0h3M8 119.5h1m3 0h1m1 0h5m1 0h2m3 0h1m4 0h3m3 0h1m1 0h1m1 0h2m4 0h3m1 0h4m3 0h2m1 0h1m3 0h1m6 0h1m1 0h2m1 0h3m4 0h1m1 0h4m3 0h1m1 0h1m1 0h1m5 0h1m1 0h2m2 0h1m1 0h1m3 0h3m3 0h4m4 0h3m1 0h1m1 0h4m1 0h2m1 0h3m3 0h1m2 0h5m1 0h1m2 0h2m1 0h1m2 0h1m5 0h1m3 0h1m1 0h2M4 120.5h1m2 0h6m1 0h3m3 0h1m1 0h2m1 0h4m1 0h1m1 0h6m1 0h1m2 0h4m1 0h1m1 0h1m1 0h2m1 0h3m2 0h9m1 0h4m3 0h1m2 0h1m2 0h1m1 0h1m1 0h1m1 0h8m1 0h1m1 0h2m1 0h2m1 0h2m2 0h1m2 0h2m1 0h6m2 0h1m1 0h1m2 0h1m1 0h1m1 0h2m1 0h1m3 0h2m1 0h7m1 0h2m1 0h1m1 0h1m1 0h4m1 0h1m1 0h1m3 0h1m1 0h7m2 0h1M4 121.5h3m2 0h1m1 0h2m1 0h2m1 0h1m1 0h3m1 0h1m1 0h3m2 0h6m4 0h1m1 0h1m1 0h4m6 0h3m1 0h1m1 0h1m1 0h3m2 0h2m1 0h2m1 0h1m1 0h1m2 0h1m1 0h1m1 0h2m1 0h2m1 0h1m3 0h1m1 0h1m2 0h1m2 0h1m3 0h1m1 0h3m2 0h3m2 0h2m2 0h5m1 0h2m1 0h1m3 0h2m1 0h1m1 0h2m1 0h1m5 0h1m1 0h5m2 0h4m1 0h4m3 0h1m3 0h1m2 0h3m2 0h1M8 122.5h1m1 0h1m1 0h1m1 0h1m1 0h1m1 0h2m1 0h3m3 0h1m2 0h5m2 0h2m1 0h2m3 0h1m1 0h1m3 0h2m1 0h1m2 0h3m2 0h1m1 0h2m2 0h3m1 0h2m6 0h1m1 0h1m1 0h1m5 0h1m2 0h7m2 0h2m1 0h1m1 0h3m1 0h3m1 0h4m1 0h1m3 0h1m1 0h2m2 0h1m1 0h1m3 0h1m1 0h1m2 0h1m3 0h2m7 0h1m2 0h1m2 0h1m4 0h3m1 0h1m1 0h2m1 0h1m1 0h1m1 0h2M8 123.5h2m2 0h6m8 0h1m2 0h3m4 0h2m2 0h1m4 0h2m5 0h1m2 0h1m2 0h1m4 0h1m2 0h2m1 0h1m1 0h1m1 0h4m1 0h2m5 0h5m3 0h2m1 0h1m1 0h5m1 0h2m5 0h1m4 0h2m10 0h1m4 0h4m1 0h1m3 0h1m3 0h4m1 0h4m2 0h1m2 0h2m4 0h1m1 0h2m2 0h5m1 0h1m1 0h1M4 124.5h1m3 0h1m1 0h3m3 0h3m2 0h2m2 0h2m7 0h1m1 0h1m1 0h1m3 0h1m3 0h6m2 0h1m1 0h3m1 0h2m3 0h2m1 0h1m2 0h2m3 0h1m1 0h1m1 0h3m1 0h1m2 0h1m2 0h2m5 0h1m1 0h2m1 0h2m2 0h2m4 0h2m3 0h1m3 0h1m5 0h6m2 0h1m3 0h4m1 0h1m2 0h2m1 0h1m1 0h1m1 0h6m1 0h5m1 0h4m6 0h1M4 125.5h2m2 0h1m3 0h1m1 0h4m2 0h2m2 0h1m1 0h1m1 0h1m7 0h1m2 0h7m2 0h1m1 0h1m2 0h4m3 0h3m1 0h1m1 0h5m1 0h1m6 0h1m3 0h1m1 0h1m1 0h1m1 0h2m1 0h1m1 0h1m2 0h1m1 0h4m3 0h1m4 0h2m2 0h1m2 0h2m1 0h2m1 0h4m5 0h2m1 0h4m1 0h1m1 0h1m1 0h1m2 0h1m1 0h1m2 0h4m1 0h1m3 0h1m5 0h5m5 0h1m1 0h1M4 126.5h1m2 0h1m2 0h1m1 0h1m1 0h2m2 0h2m4 0h1m1 0h2m1 0h1m1 0h2m1 0h6m5 0h1m1 0h1m4 0h2m1 0h1m2 0h1m3 0h1m4 0h7m3 0h1m1 0h6m5 0h1m7 0h2m3 0h1m1 0h1m4 0h5m2 0h2m2 0h1m2 0h1m1 0h2m3 0h1m1 0h6m2 0h4m1 0h2m1 0h1m4 0h1m2 0h1m1 0h2m10 0h6m1 0h1M4 127.5h2m7 0h2m3 0h3m1 0h1m3 0h2m1 0h1m3 0h2m2 0h1m2 0h2m1 0h2m1 0h3m3 0h2m2 0h1m1 0h2m3 0h1m2 0h2m2 0h2m2 0h3m1 0h1m6 0h2m1 0h4m1 0h2m1 0h1m1 0h1m2 0h2m1 0h1m1 0h1m1 0h2m5 0h1m2 0h2m2 0h1m4 0h2m1 0h2m1 0h1m2 0h1m1 0h1m4 0h1m2 0h2m5 0h2m1 0h1m2 0h1m3 0h1m1 0h5m1 0h1m2 0h1m1 0h3M10 128.5h4m4 0h2m2 0h1m3 0h1m1 0h1m3 0h6m2 0h1m2 0h1m1 0h1m2 0h1m2 0h2m1 0h1m1 0h2m1 0h1m6 0h2m1 0h1m5 0h5m1 0h1m1 0h1m1 0h1m1 0h1m4 0h1m2 0h1m3 0h2m4 0h3m4 0h2m6 0h2m5 0h4m1 0h1m2 0h1m1 0h1m1 0h2m1 0h1m1 0h2m2 0h1m1 0h3m4 0h2m1 0h1m1 0h1m1 0h1m3 0h3m2 0h1m1 0h1m1 0h1m1 0h2M7 129.5h1m3 0h1m1 0h1m1 0h3m1 0h1m1 0h2m1 0h2m5 0h2m1 0h2m1 0h2m2 0h1m1 0h2m2 0h2m1 0h1m5 0h3m1 0h1m2 0h3m3 0h4m2 0h1m1 0h8m1 0h1m1 0h4m1 0h5m1 0h3m2 0h1m1 0h1m2 0h1m2 0h2m1 0h1m2 0h1m1 0h1m1 0h1m1 0h4m5 0h1m2 0h2m1 0h1m5 0h1m2 0h1m1 0h1m1 0h4m2 0h1m2 0h1m1 0h3m2 0h1m3 0h1m2 0h1m4 0h1M7 130.5h8m1 0h3m2 0h1m1 0h1m1 0h1m1 0h2m4 0h1m1 0h4m4 0h1m2 0h2m1 0h1m2 0h1m1 0h2m2 0h2m2 0h2m3 0h2m1 0h1m1 0h2m6 0h6m1 0h1m4 0h1m3 0h1m1 0h3m1 0h1m1 0h2m1 0h2m4 0h1m2 0h3m1 0h1m1 0h5m2 0h3m6 0h2m1 0h1m1 0h1m1 0h2m2 0h1m1 0h1m1 0h1m1 0h1m1 0h1m1 0h3m1 0h1m1 0h2m2 0h4m1 0h3m1 0h1M7 131.5h3m1 0h2m5 0h1m2 0h1m1 0h1m3 0h2m1 0h1m4 0h1m1 0h2m1 0h2m1 0h1m2 0h1m2 0h1m1 0h1m1 0h1m4 0h1m4 0h2m1 0h1m2 0h1m1 0h1m1 0h7m1 0h2m3 0h1m1 0h2m1 0h3m1 0h2m6 0h4m6 0h4m4 0h1m3 0h1m2 0h4m4 0h1m2 0h1m2 0h2m2 0h1m7 0h1m2 0h1m5 0h1m2 0h2m1 0h1m2 0h5m1 0h1M9 132.5h2m2 0h1m1 0h1m1 0h2m1 0h6m1 0h2m2 0h3m2 0h3m1 0h1m1 0h2m1 0h1m2 0h3m1 0h3m1 0h2m1 0h1m6 0h3m6 0h1m4 0h2m1 0h1m1 0h1m2 0h1m1 0h1m1 0h2m6 0h1m1 0h2m3 0h3m2 0h1m2 0h1m2 0h2m3 0h1m3 0h4m1 0h1m4 0h1m1 0h2m1 0h11m2 0h1m2 0h2m2 0h1m2 0h1m2 0h1m1 0h1m4 0h1M6 133.5h1m2 0h1m3 0h1m1 0h2m2 0h2m3 0h1m2 0h1m1 0h1m1 0h4m1 0h2m1 0h1m3 0h3m2 0h1m1 0h1m2 0h4m3 0h3m1 0h1m2 0h2m2 0h2m4 0h1m1 0h2m2 0h2m5 0h6m1 0h1m2 0h2m1 0h1m1 0h2m1 0h2m1 0h2m6 0h1m1 0h1m2 0h4m1 0h2m2 0h2m1 0h1m1 0h2m1 0h1m6 0h7m1 0h1m1 0h1m2 0h1m1 0h3m4 0h4m1 0h1m1 0h2m1 0h1M5 134.5h2m1 0h1m1 0h1m2 0h1m1 0h1m2 0h4m1 0h2m3 0h2m5 0h1m2 0h2m1 0h3m6 0h3m8 0h2m1 0h1m2 0h4m1 0h2m1 0h1m3 0h4m1 0h2m5 0h1m1 0h1m4 0h2m2 0h2m3 0h5m1 0h4m1 0h1m1 0h3m2 0h1m5 0h2m1 0h1m1 0h5m1 0h1m1 0h1m1 0h2m3 0h1m2 0h1m5 0h1m2 0h1m1 0h3m1 0h2m1 0h1m2 0h4M5 135.5h2m1 0h2m1 0h1m1 0h1m3 0h1m3 0h2m7 0h2m2 0h3m4 0h1m1 0h4m1 0h1m2 0h1m1 0h1m3 0h3m1 0h1m1 0h1m2 0h2m1 0h1m3 0h2m1 0h3m4 0h1m2 0h1m1 0h1m2 0h1m2 0h3m1 0h5m1 0h2m2 0h1m2 0h1m3 0h3m1 0h1m4 0h2m1 0h2m7 0h1m4 0h3m2 0h4m3 0h2m2 0h1m3 0h1m1 0h2m1 0h1m4 0h1m2 0h3m1 0h2M5 136.5h1m2 0h1m1 0h2m1 0h1m4 0h2m3 0h1m1 0h1m1 0h1m1 0h2m2 0h1m1 0h2m1 0h1m3 0h2m1 0h1m3 0h3m2 0h1m1 0h1m1 0h1m1 0h1m2 0h1m1 0h5m1 0h2m1 0h1m1 0h3m2 0h1m1 0h1m3 0h6m4 0h1m2 0h1m2 0h1m2 0h2m2 0h1m1 0h3m3 0h1m2 0h1m1 0h1m3 0h2m1 0h1m1 0h1m6 0h4m1 0h2m1 0h4m2 0h3m2 0h2m7 0h2m1 0h2m1 0h1m6 0h1M4 137.5h2m3 0h1m2 0h1m1 0h1m1 0h2m1 0h4m2 0h1m2 0h3m1 0h1m2 0h3m1 0h6m1 0h4m4 0h2m4 0h3m1 0h1m3 0h1m1 0h1m3 0h2m3 0h2m1 0h1m6 0h3m2 0h2m1 0h1m1 0h2m4 0h5m2 0h2m1 0h1m2 0h5m1 0h1m1 0h1m6 0h2m1 0h3m6 0h1m1 0h6m2 0h2m1 0h1m2 0h4m3 0h3m1 0h1m2 0h1m1 0h1m1 0h2M4 138.5h1m1 0h2m1 0h3m2 0h5m2 0h3m1 0h4m2 0h1m1 0h2m1 0h3m3 0h1m4 0h1m1 0h2m1 0h2m2 0h4m2 0h1m1 0h2m1 0h5m8 0h1m1 0h1m1 0h2m1 0h1m1 0h1m3 0h1m4 0h1m1 0h4m5 0h3m2 0h1m1 0h1m1 0h1m1 0h2m3 0h1m4 0h2m2 0h3m1 0h1m3 0h2m2 0h2m3 0h1m2 0h1m2 0h2m1 0h1m4 0h1m1 0h1m3 0h2m1 0h3M4 139.5h1m2 0h2m2 0h3m4 0h1m1 0h2m3 0h2m1 0h2m1 0h3m1 0h1m3 0h1m1 0h2m2 0h2m1 0h2m2 0h1m2 0h2m1 0h1m2 0h2m2 0h1m3 0h3m1 0h2m1 0h1m1 0h2m1 0h1m1 0h1m1 0h2m1 0h1m2 0h1m1 0h1m1 0h2m1 0h1m3 0h1m1 0h2m2 0h1m1 0h1m2 0h2m4 0h1m1 0h2m1 0h3m3 0h2m1 0h1m1 0h1m3 0h3m1 0h2m1 0h1m5 0h1m1 0h1m1 0h1m3 0h1m3 0h1m1 0h1m2 0h1m2 0h1m1 0h1m1 0h1m1 0h2M4 140.5h3m2 0h3m2 0h3m2 0h2m1 0h1m1 0h2m2 0h1m3 0h1m1 0h1m1 0h2m2 0h1m6 0h4m3 0h1m1 0h1m2 0h2m6 0h1m2 0h1m2 0h1m1 0h3m1 0h1m4 0h1m3 0h3m1 0h1m4 0h2m1 0h2m1 0h1m2 0h1m2 0h1m2 0h2m1 0h1m1 0h1m2 0h2m1 0h1m4 0h1m1 0h3m4 0h1m2 0h3m1 0h1m2 0h2m1 0h1m4 0h6m1 0h3m2 0h4m4 0h1M4 141.5h1m2 0h2m2 0h3m2 0h1m1 0h5m1 0h1m4 0h1m3 0h1m1 0h1m1 0h6m1 0h1m1 0h2m1 0h2m5 0h2m2 0h6m6 0h3m5 0h3m3 0h1m2 0h1m1 0h2m1 0h1m4 0h3m2 0h1m1 0h3m2 0h3m5 0h2m1 0h1m1 0h1m1 0h2m6 0h6m5 0h1m2 0h3m1 0h1m1 0h1m1 0h3m4 0h2m1 0h3m3 0h2m1 0h1m1 0h1m1 0h2M4 142.5h1m1 0h1m2 0h3m2 0h1m1 0h2m1 0h2m1 0h2m2 0h9m4 0h5m2 0h1m2 0h1m2 0h1m1 0h2m2 0h2m1 0h1m1 0h1m4 0h1m1 0h1m9 0h1m1 0h4m1 0h1m1 0h1m1 0h1m1 0h1m1 0h4m3 0h2m1 0h1m1 0h1m1 0h3m2 0h2m1 0h2m1 0h2m1 0h2m5 0h1m2 0h2m1 0h2m3 0h2m1 0h1m1 0h2m3 0h1m2 0h1m2 0h1m2 0h1m1 0h1m4 0h1m4 0h1m1 0h1m1 0h1m1 0h1M4 143.5h1m3 0h2m1 0h2m1 0h1m5 0h1m1 0h2m1 0h2m3 0h2m2 0h1m1 0h1m1 0h3m3 0h1m1 0h2m4 0h1m4 0h3m2 0h1m1 0h2m5 0h1m1 0h4m1 0h1m4 0h1m2 0h3m2 0h1m1 0h1m2 0h2m6 0h1m1 0h5m2 0h1m1 0h2m4 0h3m1 0h2m1 0h6m3 0h3m1 0h1m1 0h5m1 0h1m3 0h3m5 0h1m1 0h1m2 0h1m5 0h3m1 0h3M4 144.5h10m2 0h3m4 0h3m3 0h1m2 0h6m1 0h1m1 0h1m8 0h1m2 0h2m5 0h6m2 0h1m5 0h1m1 0h1m2 0h2m3 0h2m1 0h6m1 0h1m3 0h1m1 0h2m1 0h1m3 0h1m1 0h1m2 0h1m2 0h7m6 0h1m1 0h3m4 0h1m2 0h1m1 0h1m1 0h6m1 0h3m2 0h2m1 0h1m2 0h1m1 0h1m2 0h2m1 0h8m1 0h2M4 145.5h5m3 0h1m2 0h2m3 0h1m6 0h3m1 0h2m3 0h1m2 0h1m1 0h2m1 0h3m1 0h1m2 0h1m1 0h5m1 0h2m3 0h7m1 0h5m1 0h1m1 0h5m2 0h2m3 0h4m4 0h2m1 0h2m1 0h2m3 0h2m2 0h2m3 0h5m1 0h2m6 0h1m1 0h1m1 0h2m3 0h2m3 0h1m1 0h7m3 0h4m2 0h3m1 0h3m3 0h5M4 146.5h2m1 0h2m1 0h1m1 0h7m1 0h3m6 0h1m1 0h2m1 0h1m1 0h1m3 0h2m1 0h1m1 0h3m2 0h1m1 0h3m2 0h2m1 0h1m1 0h1m1 0h1m2 0h2m1 0h1m3 0h2m4 0h3m1 0h2m2 0h1m1 0h1m1 0h2m2 0h3m1 0h4m1 0h1m1 0h4m1 0h1m1 0h1m1 0h1m1 0h1m1 0h3m1 0h3m2 0h2m5 0h1m4 0h1m1 0h2m1 0h1m1 0h3m2 0h3m2 0h4m3 0h3m1 0h2m1 0h1m1 0h1m1 0h1m1 0h1M4 147.5h2m2 0h1m3 0h2m2 0h3m2 0h3m1 0h1m3 0h1m1 0h2m3 0h1m2 0h1m3 0h4m2 0h1m1 0h3m3 0h4m3 0h1m1 0h1m4 0h1m1 0h1m1 0h5m3 0h1m2 0h1m1 0h1m3 0h6m1 0h1m2 0h3m1 0h1m1 0h1m1 0h1m4 0h2m3 0h1m1 0h2m1 0h1m2 0h5m2 0h3m6 0h1m3 0h2m1 0h1m2 0h1m5 0h1m2 0h4m5 0h1m3 0h3M4 148.5h1m1 0h12m1 0h1m2 0h1m1 0h1m2 0h3m1 0h6m1 0h2m3 0h2m2 0h4m1 0h1m1 0h1m5 0h7m2 0h1m4 0h1m2 0h3m2 0h4m2 0h5m1 0h1m2 0h1m2 0h1m1 0h1m2 0h1m3 0h2m1 0h1m1 0h8m6 0h6m1 0h1m3 0h2m1 0h1m1 0h9m2 0h1m1 0h4m1 0h1m2 0h1m1 0h2m1 0h7m2 0h2M4 149.5h2m1 0h1m3 0h4m2 0h1m1 0h2m1 0h3m2 0h1m1 0h1m1 0h7m1 0h2m1 0h6m1 0h4m1 0h3m8 0h1m2 0h1m1 0h4m1 0h1m2 0h1m1 0h3m4 0h2m1 0h1m1 0h1m1 0h3m3 0h2m1 0h1m2 0h2m3 0h1m1 0h1m3 0h1m1 0h2m1 0h1m1 0h3m2 0h2m2 0h2m1 0h1m1 0h2m4 0h1m2 0h3m1 0h3m2 0h4m1 0h1m2 0h2m2 0h1m2 0h2m1 0h2m1 0h1m1 0h2M4 150.5h1m5 0h1m1 0h1m3 0h4m2 0h2m1 0h4m1 0h1m1 0h1m1 0h1m1 0h1m1 0h6m1 0h3m1 0h4m4 0h2m3 0h1m1 0h2m2 0h1m1 0h1m1 0h1m2 0h1m3 0h2m1 0h1m1 0h2m3 0h2m1 0h2m2 0h1m1 0h1m1 0h1m1 0h3m3 0h4m2 0h1m3 0h1m3 0h1m1 0h3m2 0h1m2 0h1m1 0h3m1 0h1m3 0h4m2 0h2m5 0h1m1 0h4m2 0h1m2 0h1m2 0h1m1 0h3m1 0h1M4 151.5h2m2 0h1m3 0h4m1 0h1m2 0h1m4 0h1m1 0h1m6 0h1m3 0h4m4 0h2m4 0h1m2 0h1m1 0h4m1 0h1m1 0h2m5 0h1m1 0h4m1 0h2m1 0h2m3 0h2m1 0h1m1 0h1m3 0h1m7 0h3m1 0h2m1 0h2m2 0h2m2 0h4m2 0h1m1 0h2m1 0h2m3 0h1m2 0h1m1 0h2m2 0h4m1 0h1m4 0h2m1 0h2m2 0h2m2 0h4m1 0h1m1 0h2m1 0h1m2 0h2M5 152.5h1m2 0h3m1 0h1m1 0h3m2 0h1m3 0h1m1 0h2m2 0h1m3 0h1m1 0h1m1 0h1m1 0h1m3 0h2m2 0h2m5 0h1m1 0h1m3 0h5m1 0h1m1 0h2m1 0h1m2 0h1m3 0h1m3 0h2m1 0h1m9 0h1m3 0h2m2 0h1m1 0h1m3 0h2m1 0h2m2 0h2m1 0h1m5 0h2m1 0h3m1 0h1m3 0h1m2 0h2m1 0h1m1 0h1m5 0h3m5 0h2m1 0h3m2 0h1m1 0h3m1 0h3m1 0h1m2 0h1M4 153.5h3m1 0h2m1 0h1m3 0h1m2 0h1m12 0h4m2 0h1m1 0h1m4 0h2m2 0h2m3 0h4m5 0h1m4 0h1m3 0h2m2 0h1m3 0h1m1 0h1m2 0h1m1 0h2m1 0h2m1 0h1m1 0h1m1 0h2m2 0h1m2 0h1m1 0h2m10 0h1m3 0h2m1 0h1m2 0h1m6 0h2m2 0h2m4 0h6m1 0h2m2 0h2m2 0h1m3 0h2m1 0h1m1 0h2m5 0h1m4 0h1M5 154.5h2m2 0h4m1 0h3m2 0h1m1 0h1m2 0h1m1 0h2m2 0h2m5 0h1m2 0h1m1 0h2m7 0h2m2 0h1m2 0h1m2 0h1m2 0h2m2 0h1m1 0h3m7 0h1m1 0h1m1 0h2m2 0h1m3 0h1m2 0h1m2 0h2m2 0h1m1 0h1m2 0h2m1 0h1m1 0h1m1 0h1m2 0h2m5 0h1m5 0h1m2 0h1m3 0h3m2 0h1m2 0h1m1 0h1m1 0h1m1 0h1m1 0h1m5 0h2m1 0h1m3 0h2m2 0h4m1 0h1m1 0h2M6 155.5h1m1 0h2m1 0h2m1 0h3m1 0h2m1 0h1m1 0h5m1 0h1m2 0h1m4 0h2m2 0h2m2 0h2m4 0h1m4 0h5m1 0h1m1 0h4m1 0h1m3 0h1m2 0h4m3 0h1m2 0h1m3 0h2m1 0h4m2 0h3m2 0h2m2 0h1m1 0h2m1 0h1m1 0h2m1 0h1m5 0h5m1 0h1m1 0h1m2 0h1m1 0h1m6 0h3m4 0h5m1 0h1m1 0h3m3 0h2m1 0h2m1 0h4m3 0h1m1 0h1M6 156.5h1m3 0h1m1 0h5m1 0h1m1 0h4m4 0h1m1 0h1m2 0h3m3 0h1m2 0h2m4 0h1m1 0h5m5 0h2m3 0h2m3 0h1m1 0h1m1 0h5m1 0h2m3 0h1m2 0h1m2 0h5m1 0h1m1 0h5m1 0h2m5 0h2m1 0h1m1 0h1m1 0h3m3 0h1m4 0h1m1 0h2m3 0h1m1 0h4m1 0h1m1 0h2m1 0h2m5 0h3m3 0h3m2 0h1m1 0h2m1 0h1m1 0h1m1 0h1m2 0h1M8 157.5h2m2 0h1m1 0h1m8 0h1m3 0h1m3 0h8m4 0h2m1 0h1m1 0h2m1 0h1m4 0h3m1 0h1m3 0h1m4 0h6m2 0h1m1 0h1m1 0h4m2 0h2m1 0h2m2 0h1m4 0h2m3 0h1m1 0h4m1 0h2m3 0h2m2 0h1m1 0h1m1 0h1m1 0h2m7 0h2m1 0h2m4 0h3m1 0h2m1 0h4m1 0h1m1 0h1m2 0h1m1 0h3m1 0h2m1 0h3m2 0h1m1 0h1m2 0h1M5 158.5h1m1 0h2m1 0h3m2 0h1m1 0h2m2 0h1m5 0h3m1 0h1m5 0h3m3 0h1m3 0h1m1 0h2m1 0h4m2 0h2m1 0h1m1 0h3m1 0h2m1 0h1m1 0h2m3 0h1m1 0h4m2 0h1m2 0h3m1 0h2m1 0h5m2 0h3m4 0h6m1 0h1m1 0h6m2 0h1m2 0h1m1 0h1m2 0h2m3 0h4m7 0h2m1 0h2m2 0h5m7 0h5M6 159.5h1m4 0h1m1 0h1m1 0h8m1 0h3m2 0h1m2 0h1m1 0h1m5 0h1m2 0h4m2 0h1m1 0h1m3 0h1m1 0h2m1 0h2m2 0h1m1 0h2m1 0h1m1 0h1m1 0h2m1 0h1m1 0h2m1 0h4m1 0h2m5 0h2m1 0h1m1 0h2m1 0h1m1 0h2m3 0h4m1 0h6m1 0h1m1 0h1m1 0h2m1 0h1m1 0h1m1 0h2m1 0h1m1 0h1m1 0h2m2 0h5m2 0h1m1 0h1m1 0h2m5 0h1m2 0h1m1 0h2m7 0h1m2 0h2M7 160.5h2m1 0h1m1 0h1m5 0h1m1 0h1m2 0h2m3 0h1m5 0h1m1 0h1m2 0h1m2 0h2m3 0h2m1 0h1m3 0h1m1 0h1m1 0h2m1 0h1m1 0h1m1 0h1m1 0h1m1 0h2m1 0h2m1 0h7m2 0h1m4 0h1m3 0h2m3 0h1m1 0h1m2 0h1m2 0h1m5 0h1m3 0h1m4 0h1m5 0h4m1 0h1m3 0h1m3 0h1m1 0h1m1 0h1m4 0h3m1 0h1m2 0h4m2 0h1m1 0h1m2 0h3m2 0h1m3 0h1m2 0h1M5 161.5h1m1 0h1m3 0h1m2 0h1m2 0h2m1 0h3m2 0h1m1 0h1m1 0h3m1 0h1m1 0h5m1 0h2m1 0h1m2 0h4m2 0h2m1 0h2m2 0h1m6 0h2m1 0h1m1 0h3m4 0h2m1 0h3m2 0h3m2 0h1m1 0h1m8 0h1m1 0h2m2 0h1m1 0h2m2 0h2m1 0h1m3 0h1m1 0h1m1 0h2m3 0h1m1 0h7m1 0h1m2 0h1m2 0h2m2 0h3m3 0h2m2 0h1m2 0h1m3 0h1m2 0h2m1 0h2m1 0h1m1 0h2M4 162.5h3m1 0h1m1 0h2m1 0h1m1 0h3m1 0h1m4 0h3m2 0h3m1 0h1m2 0h1m1 0h1m1 0h2m1 0h1m7 0h2m1 0h1m2 0h1m3 0h1m2 0h2m2 0h3m4 0h2m3 0h6m3 0h4m3 0h1m1 0h1m1 0h1m1 0h1m2 0h1m2 0h4m1 0h2m5 0h1m1 0h3m1 0h2m5 0h1m2 0h4m1 0h1m1 0h1m1 0h1m3 0h1m3 0h3m3 0h2m2 0h1m1 0h1m1 0h1m1 0h2m1 0h2M8 163.5h2m2 0h2m2 0h1m1 0h6m2 0h1m1 0h1m1 0h3m4 0h4m1 0h2m1 0h3m4 0h2m3 0h5m7 0h1m1 0h1m1 0h2m1 0h4m2 0h2m1 0h5m1 0h1m1 0h2m1 0h1m1 0h1m4 0h2m1 0h4m1 0h1m1 0h1m1 0h2m1 0h1m1 0h2m1 0h1m2 0h1m1 0h5m1 0h2m4 0h1m1 0h6m5 0h3m3 0h2m2 0h1m2 0h1m1 0h1m2 0h2m1 0h1m1 0h1m1 0h3M4 164.5h4m1 0h3m3 0h2m1 0h1m1 0h3m4 0h1m2 0h1m3 0h6m1 0h1m2 0h1m2 0h2m2 0h1m1 0h2m1 0h2m1 0h2m3 0h4m2 0h4m1 0h3m1 0h1m1 0h1m2 0h4m7 0h1m1 0h1m1 0h4m4 0h1m4 0h2m1 0h1m12 0h1m1 0h1m1 0h1m4 0h1m1 0h4m6 0h2m1 0h1m2 0h4m3 0h1m1 0h2m1 0h4m4 0h2m2 0h1M6 165.5h1m1 0h1m4 0h2m4 0h1m2 0h5m1 0h2m2 0h1m1 0h1m1 0h6m1 0h3m1 0h3m3 0h1m2 0h1m8 0h1m2 0h3m1 0h2m2 0h1m1 0h1m2 0h4m1 0h6m1 0h2m1 0h2m2 0h1m5 0h3m2 0h3m1 0h1m2 0h1m3 0h3m1 0h1m6 0h2m1 0h1m1 0h1m4 0h1m4 0h1m1 0h1m1 0h2m1 0h4m2 0h1m1 0h2m1 0h1m1 0h3m1 0h2m1 0h1m1 0h1m2 0h1M4 166.5h1m4 0h2m1 0h2m1 0h2m1 0h2m3 0h1m2 0h1m3 0h2m1 0h1m1 0h1m2 0h4m7 0h2m1 0h1m2 0h1m1 0h1m1 0h4m1 0h1m2 0h1m2 0h1m1 0h2m3 0h1m1 0h2m1 0h1m1 0h2m3 0h2m2 0h2m1 0h1m1 0h2m1 0h4m2 0h2m1 0h3m1 0h1m3 0h3m3 0h1m2 0h1m1 0h1m5 0h4m2 0h2m1 0h2m2 0h4m1 0h2m4 0h3m1 0h1m1 0h3m10 0h1M4 167.5h1m2 0h1m1 0h1m6 0h1m1 0h3m3 0h1m1 0h1m1 0h2m1 0h1m3 0h2m1 0h2m5 0h1m1 0h3m1 0h3m4 0h3m2 0h2m1 0h1m1 0h1m2 0h1m1 0h4m1 0h2m1 0h1m4 0h1m2 0h1m3 0h2m1 0h1m4 0h1m1 0h2m2 0h4m2 0h1m1 0h2m1 0h1m1 0h1m2 0h2m3 0h1m1 0h1m1 0h2m5 0h4m1 0h3m2 0h1m1 0h1m1 0h3m3 0h2m2 0h1m1 0h3m1 0h1m1 0h4m1 0h3M5 168.5h2m1 0h1m1 0h2m1 0h2m1 0h1m1 0h1m2 0h1m1 0h2m1 0h1m2 0h1m1 0h2m1 0h1m1 0h1m2 0h3m1 0h2m1 0h1m1 0h1m1 0h3m1 0h1m2 0h1m1 0h4m3 0h4m1 0h2m1 0h1m2 0h1m6 0h1m1 0h1m1 0h1m4 0h2m5 0h1m1 0h2m1 0h1m3 0h1m2 0h1m1 0h4m3 0h1m1 0h1m3 0h4m1 0h2m5 0h4m3 0h1m3 0h4m1 0h1m2 0h1m1 0h1m1 0h1m2 0h1m1 0h2m1 0h1m2 0h1m1 0h3m2 0h1M5 169.5h1m1 0h2m2 0h3m1 0h1m3 0h1m3 0h2m2 0h3m1 0h1m1 0h1m4 0h1m2 0h1m2 0h1m1 0h1m8 0h2m3 0h2m1 0h1m1 0h1m2 0h3m1 0h2m2 0h1m3 0h5m2 0h2m1 0h1m3 0h4m1 0h3m1 0h1m2 0h1m2 0h1m2 0h1m2 0h1m1 0h1m3 0h2m1 0h1m1 0h2m3 0h1m1 0h2m1 0h3m5 0h1m2 0h2m1 0h1m1 0h4m2 0h1m5 0h1m1 0h1m1 0h3m4 0h1m1 0h1m2 0h1M4 170.5h3m2 0h4m1 0h3m2 0h5m1 0h2m1 0h1m1 0h5m1 0h1m1 0h6m1 0h1m1 0h1m3 0h3m4 0h1m2 0h2m1 0h2m2 0h5m2 0h1m3 0h7m2 0h2m1 0h2m4 0h2m3 0h2m1 0h1m1 0h2m1 0h1m1 0h1m1 0h1m2 0h1m2 0h1m1 0h1m3 0h2m6 0h1m1 0h2m4 0h2m3 0h5m1 0h3m1 0h1m1 0h2m1 0h1m4 0h1m3 0h3m4 0h2M7 171.5h1m4 0h1m4 0h1m1 0h5m4 0h2m2 0h1m2 0h2m1 0h1m1 0h1m2 0h2m1 0h1m4 0h2m5 0h1m1 0h1m2 0h2m1 0h2m6 0h3m1 0h1m7 0h3m1 0h1m2 0h1m1 0h2m1 0h1m2 0h2m1 0h7m3 0h3m1 0h1m1 0h2m2 0h1m5 0h2m1 0h4m1 0h1m3 0h2m1 0h4m2 0h1m2 0h1m4 0h2m2 0h1m2 0h3m2 0h2m3 0h5M5 172.5h1m1 0h1m1 0h4m1 0h2m1 0h2m1 0h1m2 0h2m1 0h4m2 0h6m1 0h4m2 0h1m1 0h7m1 0h2m2 0h10m1 0h1m3 0h2m1 0h1m2 0h1m2 0h1m2 0h1m1 0h5m1 0h2m1 0h2m1 0h1m4 0h2m3 0h3m2 0h7m5 0h2m1 0h4m6 0h1m1 0h1m1 0h7m1 0h1m2 0h2m1 0h2m2 0h3m3 0h3m1 0h5m2 0h2M12 173.5h2m1 0h1m3 0h2m1 0h3m1 0h1m2 0h1m1 0h2m3 0h2m5 0h2m1 0h1m1 0h4m3 0h3m1 0h2m3 0h1m2 0h3m1 0h4m1 0h1m2 0h2m1 0h1m2 0h1m2 0h1m3 0h1m1 0h2m2 0h1m1 0h1m5 0h1m1 0h1m2 0h3m1 0h2m3 0h1m1 0h1m1 0h1m1 0h2m5 0h4m1 0h2m4 0h1m3 0h6m3 0h1m3 0h1m1 0h4m1 0h1m1 0h3m3 0h2m1 0h2M4 174.5h7m1 0h1m1 0h1m1 0h1m1 0h1m1 0h1m1 0h1m2 0h1m1 0h6m1 0h1m1 0h1m2 0h1m2 0h1m2 0h2m2 0h1m1 0h5m2 0h1m1 0h1m1 0h1m1 0h2m1 0h2m1 0h3m3 0h2m2 0h3m1 0h2m1 0h2m1 0h1m1 0h2m2 0h2m3 0h4m4 0h3m2 0h3m1 0h1m1 0h1m1 0h2m2 0h2m3 0h4m1 0h2m6 0h1m1 0h1m1 0h2m3 0h3m2 0h1m1 0h1m4 0h2m2 0h2m1 0h1m1 0h1m1 0h1M4 175.5h1m5 0h1m6 0h1m2 0h2m1 0h1m1 0h2m5 0h1m3 0h3m1 0h1m1 0h2m1 0h3m3 0h1m1 0h1m3 0h4m3 0h2m3 0h1m4 0h3m1 0h1m7 0h1m1 0h1m3 0h3m1 0h1m1 0h1m5 0h1m1 0h4m4 0h3m3 0h2m1 0h1m1 0h2m1 0h5m2 0h1m1 0h1m1 0h1m1 0h2m1 0h1m3 0h1m4 0h2m8 0h1m2 0h2m1 0h1m1 0h2m3 0h4M4 176.5h1m1 0h3m1 0h1m1 0h3m3 0h1m6 0h3m1 0h2m1 0h8m1 0h1m1 0h2m3 0h3m1 0h3m2 0h2m1 0h5m1 0h1m2 0h1m2 0h1m1 0h1m1 0h1m1 0h1m1 0h3m3 0h1m1 0h5m2 0h1m1 0h1m2 0h1m1 0h1m2 0h2m2 0h4m3 0h6m1 0h2m2 0h2m1 0h3m6 0h4m1 0h5m1 0h1m1 0h1m2 0h1m1 0h2m1 0h4m3 0h1m1 0h2m1 0h5m2 0h2M4 177.5h1m1 0h3m1 0h1m1 0h2m4 0h1m1 0h4m5 0h2m2 0h2m1 0h1m2 0h2m1 0h1m1 0h2m1 0h2m1 0h1m4 0h5m4 0h2m4 0h1m4 0h1m3 0h2m3 0h2m8 0h1m1 0h1m2 0h2m2 0h2m1 0h2m1 0h1m2 0h1m2 0h1m3 0h1m2 0h5m6 0h4m1 0h1m2 0h1m2 0h3m2 0h2m5 0h3m3 0h1m1 0h1m3 0h4m1 0h6M4 178.5h1m1 0h3m1 0h1m1 0h1m3 0h1m4 0h1m1 0h3m1 0h1m2 0h3m3 0h1m1 0h1m7 0h1m5 0h2m1 0h1m1 0h1m2 0h1m6 0h2m1 0h2m1 0h1m6 0h3m1 0h1m4 0h4m2 0h1m1 0h4m1 0h1m2 0h6m1 0h1m1 0h1m5 0h1m4 0h4m1 0h1m7 0h1m2 0h2m4 0h4m2 0h3m4 0h1m2 0h1m1 0h2m2 0h1m2 0h2m4 0h1M4 179.5h1m5 0h1m1 0h2m1 0h1m2 0h3m4 0h2m1 0h1m4 0h1m1 0h3m3 0h2m3 0h2m1 0h1m1 0h2m2 0h4m2 0h2m1 0h1m1 0h2m3 0h1m2 0h3m1 0h2m3 0h1m1 0h1m1 0h1m4 0h2m2 0h2m5 0h2m2 0h2m1 0h1m1 0h3m3 0h3m2 0h1m1 0h1m1 0h1m3 0h2m3 0h2m1 0h4m2 0h1m2 0h2m3 0h2m2 0h1m2 0h1m2 0h2m1 0h1m1 0h2m1 0h3m1 0h1m2 0h1M4 180.5h7m1 0h7m1 0h1m3 0h1m4 0h1m2 0h2m1 0h2m3 0h1m2 0h2m2 0h1m1 0h2m3 0h2m3 0h1m1 0h4m5 0h1m2 0h2m1 0h3m3 0h1m3 0h1m1 0h2m1 0h1m2 0h2m2 0h4m1 0h1m1 0h3m1 0h1m1 0h1m2 0h1m2 0h5m1 0h3m1 0h2m1 0h1m1 0h2m5 0h2m1 0h2m2 0h1m1 0h3m1 0h1m1 0h7m1 0h2m3 0h1m2 0h2m1 0h1m2 0h1m2 0h1"/></svg>
