<?xml version="1.0" encoding="utf-8"?><!DOCTYPE svg PUBLIC "-//W3C//DTD SVG 1.1//EN" "http://www.w3.org/Graphics/SVG/1.1/DTD/svg11.dtd"><svg xmlns="http://www.w3.org/2000/svg" viewBox="0 0 133 133" shape-rendering="crispEdges"><path fill="#ffffff" d="M0 0h133v133H0z"/><path stroke="#000000" d="M4 4.5h7m1 0h1m3 0h3m2 0h1m1 0h1m4 0h1m1 0h1m2 0h1m2 0h2m4 0h2m1 0h2m1 0h1m4 0h5m2 0h2m2 0h5m1 0h1m1 0h3m3 0h1m1 0h2m1 0h2m2 0h1m1 0h1m1 0h4m1 0h1m2 0h8m1 0h1m1 0h4m1 0h2m2 0h2m1 0h7M4 5.5h1m5 0h1m1 0h3m1 0h1m1 0h1m2 0h1m4 0h1m1 0h8m1 0h1m1 0h1m1 0h2m1 0h1m1 0h2m1 0h1m1 0h1m2 0h7m2 0h1m1 0h7m3 0h1m1 0h2m1 0h1m1 0h2m1 0h1m1 0h1m4 0h1m1 0h2m1 0h1m4 0h3m1 0h1m2 0h1m1 0h1m2 0h1m3 0h1m3 0h1m5 0h1M4 6.5h1m1 0h3m1 0h1m1 0h1m2 0h3m3 0h2m1 0h1m1 0h4m2 0h3m2 0h1m1 0h1m1 0h4m1 0h2m1 0h1m4 0h1m1 0h6m3 0h7m3 0h1m2 0h3m1 0h2m1 0h1m6 0h3m7 0h6m1 0h1m4 0h1m1 0h2m1 0h1m2 0h1m1 0h3m1 0h1M4 7.5h1m1 0h3m1 0h1m1 0h2m1 0h1m1 0h7m1 0h1m1 0h2m5 0h5m1 0h1m1 0h3m3 0h1m1 0h1m2 0h1m1 0h1m4 0h3m1 0h1m1 0h1m1 0h1m5 0h2m1 0h2m1 0h1m2 0h3m1 0h1m1 0h2m3 0h6m3 0h2m1 0h1m3 0h2m2 0h3m5 0h1m1 0h3m1 0h1M4 8.5h1m1 0h3m1 0h1m2 0h1m1 0h4m1 0h1m1 0h2m1 0h1m4 0h3m1 0h7m1 0h5m5 0h1m1 0h4m3 0h1m2 0h8m1 0h1m3 0h2m1 0h2m2 0h1m3 0h9m3 0h1m2 0h2m1 0h2m1 0h1m2 0h1m1 0h2m2 0h2m2 0h1m1 0h3m1 0h1M4 9.5h1m5 0h1m1 0h4m3 0h1m6 0h2m2 0h5m1 0h1m3 0h3m1 0h3m2 0h1m4 0h1m1 0h4m4 0h1m3 0h4m3 0h1m2 0h1m1 0h4m1 0h1m1 0h2m1 0h1m1 0h1m3 0h2m4 0h1m1 0h4m1 0h1m3 0h2m1 0h4m2 0h1m5 0h1M4 10.5h7m1 0h1m1 0h1m1 0h1m1 0h1m1 0h1m1 0h1m1 0h1m1 0h1m1 0h1m1 0h1m1 0h1m1 0h1m1 0h1m1 0h1m1 0h1m1 0h1m1 0h1m1 0h1m1 0h1m1 0h1m1 0h1m1 0h1m1 0h1m1 0h1m1 0h1m1 0h1m1 0h1m1 0h1m1 0h1m1 0h1m1 0h1m1 0h1m1 0h1m1 0h1m1 0h1m1 0h1m1 0h1m1 0h1m1 0h1m1 0h1m1 0h1m1 0h1m1 0h1m1 0h1m1 0h1m1 0h1m1 0h1m1 0h1m1 0h1m1 0h1m1 0h1m1 0h1m1 0h1m1 0h1m1 0h1m1 0h7M13 11.5h5m1 0h3m4 0h5m1 0h1m1 0h1m1 0h1m3 0h7m2 0h1m4 0h6m2 0h1m1 0h1m3 0h4m3 0h1m1 0h1m1 0h5m3 0h1m1 0h4m3 0h1m2 0h1m1 0h7m1 0h2m2 0h4m1 0h1m1 0h1M4 12.5h2m2 0h3m2 0h1m3 0h1m1 0h1m2 0h1m2 0h1m1 0h1m1 0h1m1 0h3m2 0h6m1 0h1m1 0h1m2 0h1m3 0h2m1 0h4m1 0h10m3 0h1m1 0h1m2 0h1m1 0h3m1 0h1m1 0h11m1 0h1m1 0h1m2 0h1m1 0h1m2 0h1m1 0h4m3 0h4m2 0h1m1 0h4M11 13.5h1m5 0h1m1 0h1m3 0h2m3 0h1m2 0h2m3 0h2m3 0h2m1 0h1m1 0h1m1 0h1m1 0h2m4 0h2m2 0h2m2 0h5m3 0h1m3 0h1m1 0h1m2 0h2m5 0h2m5 0h1m1 0h1m1 0h6m1 0h1m1 0h2m3 0h4m1 0h3m2 0h1m1 0h2m1 0h1M4 14.5h5m1 0h2m1 0h1m1 0h1m6 0h4m2 0h2m1 0h1m2 0h2m2 0h1m1 0h1m2 0h1m4 0h5m3 0h1m3 0h3m2 0h1m1 0h1m2 0h3m1 0h4m1 0h1m1 0h1m2 0h1m1 0h4m1 0h1m4 0h3m1 0h2m1 0h1m3 0h6m2 0h2m2 0h1m1 0h1m6 0h1M4 15.5h2m2 0h2m1 0h1m1 0h1m3 0h1m3 0h2m5 0h1m1 0h1m1 0h2m1 0h1m6 0h1m1 0h1m2 0h1m3 0h1m2 0h5m2 0h1m2 0h1m1 0h1m1 0h2m3 0h1m4 0h1m1 0h1m1 0h1m4 0h1m2 0h1m2 0h3m3 0h1m2 0h5m4 0h1m2 0h1m1 0h3m1 0h1m1 0h4M5 16.5h3m2 0h1m1 0h1m1 0h2m1 0h1m3 0h1m2 0h1m1 0h1m1 0h2m2 0h1m1 0h2m1 0h1m2 0h4m1 0h5m2 0h2m1 0h1m1 0h3m1 0h2m4 0h3m1 0h1m1 0h1m1 0h1m2 0h2m1 0h1m1 0h2m1 0h2m1 0h2m1 0h1m2 0h2m2 0h1m3 0h1m4 0h2m2 0h1m1 0h1m1 0h3m1 0h1m1 0h2m1 0h1m1 0h2M4 17.5h6m4 0h2m5 0h1m1 0h3m1 0h1m1 0h2m5 0h1m1 0h3m1 0h3m1 0h1m3 0h1m3 0h1m4 0h2m3 0h4m1 0h1m1 0h2m1 0h1m2 0h4m1 0h1m1 0h1m2 0h3m3 0h2m2 0h2m1 0h1m4 0h2m4 0h7m2 0h2m3 0h2m1 0h1M4 18.5h2m2 0h1m1 0h8m4 0h1m1 0h2m2 0h2m6 0h1m1 0h1m4 0h1m1 0h1m2 0h1m1 0h4m3 0h1m1 0h2m1 0h1m1 0h1m2 0h1m4 0h1m1 0h4m1 0h1m1 0h1m3 0h2m1 0h2m1 0h3m2 0h1m1 0h4m1 0h1m4 0h1m1 0h2m1 0h1m1 0h1m1 0h1m1 0h4m2 0h2m1 0h1M7 19.5h3m3 0h2m1 0h3m1 0h2m1 0h2m2 0h1m1 0h6m2 0h1m3 0h1m2 0h3m2 0h1m1 0h1m2 0h6m1 0h1m3 0h2m1 0h3m2 0h1m4 0h1m1 0h6m5 0h1m2 0h1m2 0h1m1 0h1m1 0h2m1 0h1m1 0h1m2 0h1m6 0h3m1 0h1m1 0h2m1 0h1m1 0h2M5 20.5h1m1 0h1m2 0h2m3 0h1m1 0h3m1 0h1m2 0h1m1 0h2m1 0h5m1 0h1m2 0h1m3 0h1m2 0h1m1 0h3m2 0h7m2 0h1m1 0h1m2 0h2m1 0h1m6 0h2m1 0h2m1 0h2m3 0h1m3 0h1m1 0h2m1 0h5m7 0h4m1 0h2m1 0h2m1 0h2m2 0h3m1 0h2M5 21.5h1m1 0h1m3 0h1m1 0h2m2 0h6m4 0h1m2 0h1m1 0h3m1 0h1m1 0h2m2 0h3m3 0h1m2 0h2m1 0h1m1 0h1m1 0h4m1 0h4m1 0h1m2 0h3m2 0h1m1 0h5m3 0h4m1 0h1m2 0h2m2 0h1m1 0h2m1 0h2m1 0h1m1 0h1m2 0h1m2 0h3m1 0h1m1 0h1m1 0h1m2 0h2m1 0h1M4 22.5h1m1 0h1m1 0h1m1 0h1m4 0h1m1 0h1m3 0h5m3 0h1m1 0h1m1 0h1m2 0h1m1 0h4m1 0h1m1 0h1m2 0h4m3 0h1m3 0h5m8 0h3m1 0h1m2 0h1m1 0h1m1 0h7m1 0h3m2 0h1m1 0h3m4 0h1m2 0h5m2 0h1m3 0h3m4 0h1m1 0h1M4 23.5h3m6 0h6m1 0h1m2 0h2m5 0h8m5 0h2m1 0h1m2 0h1m2 0h1m1 0h1m1 0h3m2 0h1m1 0h2m1 0h3m1 0h2m2 0h1m3 0h1m1 0h3m7 0h1m2 0h3m1 0h1m3 0h7m3 0h1m1 0h6m1 0h1m1 0h3M9 24.5h2m1 0h3m1 0h1m1 0h1m2 0h1m3 0h3m5 0h1m1 0h1m3 0h2m2 0h3m2 0h1m5 0h4m1 0h2m1 0h1m8 0h3m2 0h1m1 0h3m2 0h5m1 0h1m1 0h3m1 0h1m1 0h2m1 0h1m1 0h6m1 0h1m1 0h3m1 0h1m4 0h4m3 0h1M6 25.5h2m3 0h2m1 0h1m3 0h1m2 0h1m2 0h1m4 0h2m5 0h1m1 0h2m2 0h1m4 0h1m1 0h1m1 0h1m1 0h1m4 0h1m2 0h2m1 0h2m2 0h1m1 0h1m4 0h3m1 0h2m1 0h1m4 0h2m1 0h1m8 0h2m1 0h1m2 0h1m2 0h1m1 0h7m1 0h1m2 0h2m4 0h2M4 26.5h4m1 0h5m1 0h2m3 0h1m1 0h1m1 0h1m1 0h1m1 0h2m1 0h1m3 0h4m2 0h1m1 0h1m2 0h1m1 0h5m2 0h1m1 0h1m2 0h1m1 0h4m3 0h1m1 0h6m3 0h2m1 0h4m1 0h2m1 0h2m2 0h6m2 0h1m1 0h1m2 0h1m1 0h3m13 0h3M5 27.5h1m1 0h1m5 0h4m2 0h3m1 0h1m1 0h1m4 0h1m1 0h3m1 0h2m1 0h1m2 0h1m1 0h2m1 0h1m1 0h1m4 0h1m1 0h4m1 0h1m1 0h1m1 0h2m1 0h3m7 0h6m3 0h1m2 0h2m1 0h3m6 0h1m1 0h3m2 0h1m4 0h5m1 0h1m1 0h2m1 0h1m2 0h1M6 28.5h1m2 0h10m4 0h2m1 0h1m4 0h1m2 0h2m1 0h5m4 0h2m2 0h2m2 0h1m7 0h1m4 0h3m2 0h2m5 0h1m2 0h3m3 0h1m3 0h2m2 0h1m1 0h2m1 0h1m1 0h2m1 0h1m1 0h7m1 0h1m1 0h3m1 0h1m1 0h1m3 0h1M4 29.5h2m2 0h2m1 0h1m1 0h1m3 0h1m1 0h1m1 0h1m1 0h1m1 0h1m2 0h2m2 0h3m1 0h1m1 0h1m1 0h6m3 0h1m1 0h4m2 0h2m1 0h1m2 0h4m3 0h1m1 0h2m2 0h2m3 0h1m2 0h1m4 0h2m5 0h2m1 0h5m2 0h1m1 0h2m3 0h1m6 0h4m4 0h1M5 30.5h1m1 0h1m2 0h2m1 0h1m1 0h1m1 0h2m1 0h1m1 0h1m1 0h2m1 0h3m1 0h1m3 0h1m2 0h3m2 0h2m2 0h1m2 0h3m7 0h4m3 0h3m2 0h1m1 0h1m1 0h3m2 0h1m2 0h5m2 0h1m2 0h1m1 0h1m1 0h4m1 0h1m3 0h2m1 0h3m2 0h1m4 0h1m1 0h1m3 0h1m1 0h1M4 31.5h2m1 0h3m2 0h1m4 0h1m4 0h1m2 0h1m3 0h2m1 0h1m1 0h4m4 0h1m1 0h1m1 0h1m2 0h1m4 0h6m1 0h1m2 0h1m1 0h1m3 0h2m1 0h1m5 0h5m1 0h1m1 0h1m1 0h5m1 0h1m1 0h1m1 0h1m1 0h2m1 0h4m1 0h1m4 0h1m1 0h3m1 0h1m1 0h2m1 0h1m2 0h1M4 32.5h5m1 0h4m1 0h1m2 0h1m1 0h8m3 0h5m1 0h1m1 0h3m2 0h2m2 0h1m3 0h2m1 0h2m1 0h2m3 0h1m1 0h2m1 0h6m3 0h2m3 0h3m1 0h1m2 0h1m2 0h2m1 0h1m3 0h1m2 0h2m2 0h1m3 0h1m2 0h1m6 0h5m2 0h1M6 33.5h1m2 0h1m1 0h1m2 0h2m1 0h1m3 0h1m2 0h1m1 0h2m1 0h2m1 0h7m2 0h2m1 0h1m1 0h4m1 0h1m2 0h2m1 0h2m1 0h2m2 0h1m1 0h5m4 0h1m3 0h1m1 0h2m4 0h5m1 0h1m1 0h3m2 0h8m3 0h1m2 0h3m1 0h1m4 0h1m2 0h3M5 34.5h4m1 0h2m2 0h1m5 0h1m7 0h1m2 0h1m1 0h1m4 0h4m1 0h1m4 0h3m1 0h2m3 0h1m1 0h5m3 0h1m4 0h1m1 0h2m1 0h1m1 0h1m1 0h1m1 0h2m1 0h1m1 0h1m3 0h1m2 0h1m2 0h3m7 0h1m1 0h4m5 0h1m1 0h1m1 0h1m1 0h2m1 0h1M6 35.5h1m1 0h1m2 0h1m3 0h2m1 0h3m1 0h2m2 0h2m2 0h1m1 0h3m1 0h2m1 0h1m2 0h1m1 0h3m3 0h1m2 0h4m1 0h2m3 0h3m1 0h2m1 0h2m1 0h1m2 0h5m1 0h1m4 0h1m1 0h2m1 0h3m7 0h3m1 0h2m3 0h1m2 0h3m1 0h6m1 0h1m2 0h1M4 36.5h1m3 0h11m4 0h2m4 0h2m1 0h3m1 0h6m5 0h2m2 0h1m1 0h2m2 0h5m2 0h6m2 0h2m4 0h1m3 0h4m2 0h3m1 0h5m1 0h4m3 0h1m1 0h2m5 0h4m2 0h8M4 37.5h5m3 0h1m2 0h6m1 0h1m2 0h1m1 0h2m4 0h2m1 0h1m3 0h4m2 0h1m6 0h1m1 0h2m1 0h1m1 0h1m2 0h2m3 0h1m1 0h4m1 0h1m1 0h1m2 0h3m1 0h2m1 0h1m1 0h1m1 0h2m3 0h2m4 0h3m2 0h1m1 0h6m1 0h1m1 0h3m3 0h3m1 0h1M4 38.5h1m2 0h2m1 0h1m1 0h1m2 0h1m1 0h2m1 0h1m1 0h3m2 0h2m2 0h1m4 0h1m1 0h1m1 0h1m2 0h3m1 0h2m1 0h3m2 0h2m2 0h4m1 0h1m1 0h1m1 0h2m2 0h6m3 0h1m2 0h1m1 0h4m1 0h2m1 0h1m1 0h4m3 0h1m4 0h1m1 0h1m1 0h2m6 0h1m1 0h1m1 0h2m2 0h1M4 39.5h2m2 0h1m3 0h1m1 0h2m1 0h2m1 0h1m2 0h1m3 0h2m1 0h1m1 0h1m1 0h1m1 0h1m3 0h1m1 0h1m3 0h2m1 0h1m4 0h1m1 0h3m2 0h1m1 0h2m3 0h1m1 0h2m6 0h1m1 0h1m2 0h1m1 0h1m4 0h3m3 0h2m4 0h5m3 0h1m2 0h2m1 0h5m3 0h2m1 0h1M6 40.5h7m1 0h1m1 0h4m1 0h1m5 0h1m2 0h5m1 0h7m1 0h2m2 0h1m11 0h1m1 0h7m1 0h2m1 0h1m4 0h1m3 0h3m1 0h1m1 0h1m3 0h6m2 0h1m4 0h1m1 0h2m1 0h1m1 0h1m1 0h2m1 0h8m2 0h2M4 41.5h2m2 0h2m1 0h2m1 0h2m2 0h2m1 0h3m2 0h1m1 0h1m2 0h1m1 0h8m1 0h3m1 0h1m1 0h1m1 0h2m1 0h1m1 0h1m2 0h3m5 0h1m2 0h4m1 0h2m2 0h2m2 0h1m4 0h1m1 0h1m6 0h1m2 0h6m2 0h1m3 0h3m1 0h1m1 0h4m1 0h2m2 0h1m1 0h1M4 42.5h3m2 0h3m2 0h1m1 0h2m3 0h1m4 0h1m1 0h2m7 0h1m1 0h3m1 0h1m1 0h1m2 0h3m1 0h4m1 0h1m2 0h3m4 0h3m1 0h1m2 0h3m2 0h1m3 0h7m3 0h1m3 0h2m1 0h1m2 0h1m4 0h1m1 0h1m1 0h2m1 0h1m1 0h1m1 0h1m1 0h2m1 0h1m3 0h1M5 43.5h5m1 0h1m4 0h2m1 0h1m2 0h3m1 0h1m1 0h3m1 0h4m3 0h2m1 0h1m1 0h4m3 0h1m3 0h5m5 0h1m1 0h1m1 0h2m2 0h1m4 0h1m1 0h1m1 0h1m7 0h1m5 0h2m3 0h6m2 0h1m1 0h1m1 0h6m1 0h1m1 0h2m1 0h1m2 0h1M5 44.5h1m1 0h1m2 0h1m6 0h1m1 0h1m1 0h2m4 0h2m1 0h1m1 0h1m2 0h2m2 0h3m2 0h2m1 0h4m1 0h5m3 0h1m1 0h1m4 0h1m4 0h2m3 0h1m3 0h1m1 0h1m1 0h3m4 0h2m1 0h2m1 0h1m1 0h2m4 0h1m1 0h2m1 0h2m5 0h1m4 0h3m1 0h1M4 45.5h3m1 0h1m2 0h1m2 0h1m2 0h2m1 0h3m1 0h14m1 0h1m2 0h1m1 0h3m6 0h1m2 0h4m1 0h2m1 0h4m1 0h4m2 0h1m1 0h2m1 0h1m2 0h2m1 0h4m2 0h1m3 0h1m2 0h2m1 0h1m2 0h1m1 0h1m4 0h4m1 0h6m1 0h2m2 0h1M4 46.5h2m2 0h1m1 0h1m1 0h3m1 0h1m4 0h1m1 0h1m5 0h1m1 0h1m3 0h2m1 0h1m4 0h1m1 0h1m2 0h1m1 0h2m3 0h1m4 0h1m1 0h1m1 0h1m3 0h1m3 0h3m1 0h2m1 0h1m4 0h1m2 0h2m2 0h1m3 0h1m1 0h2m1 0h1m2 0h1m4 0h1m1 0h3m2 0h1m1 0h1m1 0h1m1 0h2m1 0h5M4 47.5h5m2 0h5m2 0h1m1 0h1m3 0h1m2 0h2m1 0h1m1 0h3m3 0h3m1 0h3m1 0h2m2 0h1m2 0h2m1 0h4m1 0h1m7 0h3m1 0h1m1 0h1m2 0h1m1 0h4m1 0h2m3 0h1m1 0h1m3 0h1m5 0h1m1 0h1m1 0h1m6 0h4m1 0h1m2 0h1m1 0h1m1 0h1m1 0h2M5 48.5h1m3 0h4m1 0h2m1 0h4m3 0h1m2 0h2m1 0h1m1 0h2m1 0h1m2 0h1m1 0h1m4 0h3m1 0h1m1 0h2m1 0h1m1 0h1m1 0h2m1 0h1m3 0h1m1 0h1m1 0h3m4 0h1m7 0h2m1 0h1m1 0h1m6 0h2m1 0h4m1 0h3m1 0h2m1 0h1m1 0h3m2 0h4m2 0h1m3 0h1M4 49.5h1m1 0h3m2 0h1m2 0h3m1 0h1m2 0h2m1 0h1m1 0h3m2 0h1m3 0h2m2 0h3m2 0h5m2 0h4m2 0h2m7 0h1m2 0h4m3 0h8m3 0h5m1 0h1m3 0h2m3 0h3m1 0h2m3 0h2m2 0h1m1 0h3m2 0h1m2 0h1m1 0h2M5 50.5h2m3 0h1m1 0h1m3 0h1m3 0h2m1 0h3m1 0h2m2 0h3m3 0h3m3 0h1m3 0h2m1 0h4m1 0h1m1 0h1m2 0h1m1 0h2m1 0h3m4 0h6m1 0h1m3 0h7m1 0h1m1 0h1m2 0h5m2 0h1m1 0h1m1 0h7m1 0h1m3 0h1m2 0h4m1 0h2M8 51.5h1m2 0h2m2 0h1m2 0h1m2 0h1m3 0h2m1 0h1m1 0h1m2 0h3m2 0h5m1 0h1m1 0h1m2 0h1m1 0h1m2 0h3m2 0h1m1 0h1m1 0h3m1 0h1m1 0h3m1 0h1m1 0h1m1 0h2m1 0h3m6 0h2m1 0h1m2 0h3m3 0h2m1 0h3m7 0h1m1 0h1m1 0h1m1 0h1m1 0h1m2 0h1m2 0h1M6 52.5h2m1 0h2m2 0h1m3 0h2m3 0h2m2 0h1m5 0h4m3 0h2m5 0h2m1 0h2m4 0h2m2 0h1m2 0h4m3 0h2m1 0h1m3 0h1m1 0h2m1 0h3m1 0h1m1 0h1m1 0h2m4 0h3m1 0h2m2 0h1m1 0h1m1 0h2m1 0h1m4 0h1m1 0h1m1 0h3m3 0h1m2 0h1M5 53.5h1m1 0h1m10 0h2m1 0h2m4 0h3m1 0h7m4 0h4m1 0h2m3 0h3m2 0h4m1 0h2m1 0h1m4 0h3m1 0h4m1 0h4m2 0h1m4 0h3m2 0h1m5 0h2m1 0h1m1 0h4m1 0h1m1 0h1m2 0h2m2 0h1m1 0h1m1 0h1m1 0h1M5 54.5h3m2 0h3m1 0h1m1 0h1m2 0h1m1 0h2m4 0h1m1 0h3m3 0h1m1 0h2m1 0h2m1 0h1m1 0h1m2 0h1m1 0h3m2 0h1m3 0h1m2 0h1m1 0h2m1 0h1m4 0h5m2 0h1m1 0h1m1 0h2m1 0h1m1 0h1m4 0h1m1 0h2m1 0h4m1 0h1m1 0h1m2 0h1m1 0h4m1 0h1m3 0h3m2 0h3m1 0h1M8 55.5h2m4 0h3m4 0h1m1 0h1m1 0h2m1 0h1m3 0h1m2 0h2m1 0h3m1 0h6m1 0h1m4 0h1m1 0h3m2 0h1m3 0h1m1 0h1m1 0h1m1 0h1m1 0h1m1 0h1m2 0h3m1 0h2m5 0h1m1 0h3m2 0h2m1 0h1m1 0h1m1 0h2m1 0h1m2 0h1m1 0h1m2 0h1m1 0h3m2 0h3m3 0h2M5 56.5h1m1 0h4m1 0h4m3 0h1m1 0h1m1 0h2m1 0h1m1 0h1m1 0h1m2 0h3m2 0h3m5 0h3m3 0h1m1 0h5m1 0h3m1 0h2m1 0h1m2 0h2m2 0h1m1 0h4m3 0h1m1 0h1m1 0h4m1 0h1m2 0h3m4 0h2m1 0h2m1 0h2m2 0h2m2 0h1m1 0h1m2 0h1m1 0h3m2 0h1M4 57.5h6m1 0h1m1 0h2m3 0h6m2 0h1m1 0h1m1 0h2m1 0h1m1 0h2m3 0h1m1 0h1m2 0h1m1 0h1m1 0h1m2 0h1m2 0h6m1 0h5m1 0h2m3 0h1m1 0h3m2 0h1m1 0h1m11 0h3m2 0h1m1 0h3m1 0h1m1 0h2m2 0h2m2 0h2m1 0h1m1 0h1m1 0h1m1 0h1m3 0h1M5 58.5h4m1 0h1m1 0h3m1 0h2m1 0h1m1 0h2m1 0h3m2 0h1m1 0h1m4 0h1m1 0h1m9 0h1m1 0h4m6 0h1m2 0h2m6 0h4m1 0h2m5 0h5m1 0h1m1 0h8m1 0h2m2 0h2m2 0h1m1 0h4m1 0h1m3 0h3m2 0h2m1 0h2M4 59.5h3m1 0h2m2 0h1m1 0h1m1 0h1m1 0h2m1 0h1m2 0h3m1 0h1m1 0h1m1 0h3m1 0h9m1 0h2m6 0h3m1 0h2m1 0h2m1 0h1m2 0h1m2 0h2m1 0h1m1 0h1m2 0h1m1 0h1m1 0h1m2 0h1m2 0h1m1 0h1m2 0h1m2 0h1m5 0h1m1 0h4m1 0h1m4 0h1m1 0h1m1 0h1m2 0h2m4 0h2M5 60.5h1m3 0h2m3 0h7m1 0h1m2 0h1m1 0h1m1 0h1m1 0h2m1 0h2m1 0h4m2 0h2m1 0h3m2 0h3m5 0h2m9 0h2m1 0h2m2 0h1m1 0h7m4 0h1m1 0h2m2 0h4m2 0h2m1 0h1m1 0h1m1 0h1m1 0h1m1 0h1m1 0h1m1 0h1m5 0h1m1 0h1m1 0h1M6 61.5h1m2 0h1m2 0h1m1 0h3m2 0h1m2 0h2m1 0h2m1 0h7m1 0h2m1 0h3m3 0h1m1 0h2m1 0h1m3 0h1m3 0h2m2 0h1m1 0h4m1 0h2m2 0h2m1 0h1m1 0h6m3 0h1m1 0h2m4 0h2m1 0h1m1 0h1m1 0h2m2 0h7m1 0h4m4 0h1m1 0h2m2 0h1M4 62.5h1m3 0h3m4 0h2m1 0h1m3 0h1m3 0h1m1 0h2m3 0h1m1 0h1m5 0h1m1 0h1m4 0h6m1 0h2m2 0h2m1 0h1m1 0h1m1 0h2m1 0h1m1 0h2m1 0h1m1 0h2m3 0h1m1 0h6m3 0h1m2 0h4m1 0h1m4 0h1m1 0h6m2 0h1m3 0h7m2 0h1M4 63.5h2m2 0h2m2 0h4m1 0h2m2 0h1m1 0h1m2 0h1m3 0h1m1 0h1m2 0h2m1 0h3m1 0h1m1 0h1m1 0h1m4 0h1m2 0h1m3 0h2m1 0h1m2 0h1m10 0h1m2 0h6m1 0h1m4 0h1m1 0h1m2 0h2m2 0h1m2 0h5m2 0h1m3 0h2m1 0h1m1 0h1m8 0h2M4 64.5h1m3 0h6m2 0h1m1 0h1m1 0h1m2 0h1m2 0h1m1 0h1m2 0h1m2 0h7m2 0h1m2 0h1m1 0h1m1 0h1m1 0h1m3 0h1m3 0h3m1 0h7m1 0h1m1 0h4m3 0h1m2 0h3m1 0h2m2 0h7m1 0h3m2 0h1m2 0h1m1 0h1m1 0h2m1 0h3m1 0h6m2 0h1M7 65.5h2m3 0h1m1 0h1m2 0h2m1 0h2m1 0h3m3 0h1m3 0h1m1 0h2m3 0h2m2 0h1m1 0h2m1 0h1m1 0h2m1 0h5m1 0h1m2 0h2m3 0h1m1 0h2m1 0h1m3 0h2m1 0h1m3 0h1m1 0h2m1 0h2m1 0h1m3 0h4m3 0h5m3 0h1m2 0h3m1 0h3m3 0h1m3 0h1M4 66.5h1m3 0h1m1 0h1m1 0h1m2 0h1m2 0h1m2 0h4m2 0h1m1 0h1m1 0h1m4 0h1m1 0h1m1 0h3m4 0h2m1 0h1m1 0h2m1 0h1m4 0h5m1 0h1m1 0h1m2 0h2m1 0h3m2 0h2m2 0h1m2 0h4m1 0h2m1 0h1m1 0h1m1 0h1m1 0h2m1 0h1m4 0h4m1 0h1m1 0h1m1 0h1m1 0h2m1 0h1m1 0h1m2 0h2M4 67.5h1m3 0h1m3 0h1m4 0h4m4 0h2m2 0h6m1 0h1m3 0h1m2 0h2m1 0h2m1 0h1m4 0h6m3 0h2m3 0h1m1 0h1m2 0h1m1 0h1m2 0h1m1 0h3m2 0h1m4 0h1m1 0h1m3 0h2m1 0h1m2 0h6m1 0h1m4 0h3m1 0h1m1 0h1m3 0h2m2 0h1M4 68.5h1m1 0h7m3 0h4m2 0h3m2 0h4m5 0h5m1 0h2m2 0h1m2 0h5m5 0h1m1 0h10m1 0h3m1 0h1m7 0h1m4 0h1m1 0h7m2 0h1m4 0h1m1 0h2m3 0h4m1 0h1m2 0h6m2 0h1M5 69.5h4m2 0h1m4 0h2m2 0h3m3 0h2m2 0h2m2 0h1m1 0h1m1 0h1m1 0h1m1 0h2m2 0h3m1 0h3m1 0h2m2 0h1m3 0h1m9 0h1m1 0h5m4 0h2m3 0h3m1 0h2m1 0h2m2 0h1m1 0h2m3 0h1m2 0h1m1 0h2m1 0h1m1 0h1m3 0h2m1 0h6M4 70.5h1m1 0h5m1 0h4m4 0h1m1 0h2m9 0h1m1 0h1m2 0h1m2 0h1m1 0h1m1 0h1m2 0h1m1 0h1m6 0h1m2 0h1m1 0h1m2 0h1m1 0h2m3 0h1m2 0h3m1 0h1m4 0h6m2 0h1m2 0h1m2 0h4m3 0h1m1 0h6m4 0h1m1 0h1m1 0h1m1 0h1m1 0h1m2 0h1M4 71.5h4m1 0h1m2 0h3m6 0h2m1 0h1m1 0h1m2 0h1m1 0h4m2 0h4m1 0h1m1 0h1m1 0h1m2 0h1m1 0h1m2 0h1m1 0h1m1 0h1m2 0h1m1 0h1m1 0h1m2 0h4m1 0h2m2 0h2m1 0h3m7 0h2m1 0h2m1 0h2m4 0h3m1 0h2m5 0h2m1 0h3m1 0h1m2 0h2m2 0h1M4 72.5h5m1 0h1m2 0h1m4 0h1m1 0h2m2 0h1m2 0h2m8 0h1m3 0h2m1 0h1m1 0h2m2 0h4m1 0h1m1 0h1m2 0h2m1 0h1m2 0h4m1 0h2m1 0h4m3 0h1m2 0h2m1 0h2m1 0h1m1 0h4m8 0h1m5 0h3m2 0h1m1 0h1m6 0h2m1 0h2M5 73.5h1m1 0h1m3 0h1m3 0h2m2 0h2m1 0h3m1 0h1m2 0h2m1 0h1m1 0h2m2 0h3m1 0h1m2 0h5m2 0h1m1 0h2m4 0h2m3 0h1m1 0h1m3 0h1m1 0h2m3 0h2m4 0h3m5 0h1m2 0h2m1 0h2m1 0h1m4 0h2m1 0h1m1 0h1m1 0h1m2 0h1m1 0h4m1 0h2m1 0h1m1 0h1M5 74.5h1m1 0h1m2 0h2m1 0h1m5 0h2m3 0h1m4 0h3m3 0h1m1 0h1m3 0h1m1 0h1m1 0h1m2 0h3m1 0h1m2 0h1m3 0h4m4 0h1m4 0h1m1 0h1m1 0h1m2 0h2m2 0h7m2 0h1m4 0h2m1 0h2m1 0h1m1 0h1m4 0h2m1 0h1m3 0h1m3 0h1m2 0h5M4 75.5h3m6 0h2m1 0h2m4 0h5m2 0h1m2 0h3m3 0h7m9 0h3m1 0h2m1 0h1m2 0h2m3 0h3m6 0h1m3 0h2m3 0h1m2 0h4m2 0h1m5 0h1m1 0h4m1 0h1m3 0h7m1 0h2m1 0h2m1 0h1M4 76.5h1m1 0h2m2 0h1m4 0h1m3 0h2m1 0h4m1 0h1m3 0h1m1 0h3m1 0h1m8 0h4m3 0h1m2 0h4m1 0h6m1 0h2m3 0h1m1 0h1m1 0h2m1 0h1m2 0h1m1 0h2m1 0h5m1 0h2m1 0h1m4 0h2m3 0h2m2 0h1m4 0h1m1 0h2m1 0h1m1 0h3M5 77.5h3m4 0h1m5 0h1m1 0h7m4 0h1m2 0h1m3 0h1m1 0h2m6 0h1m2 0h1m1 0h4m1 0h1m3 0h1m2 0h1m1 0h1m1 0h3m1 0h1m2 0h1m1 0h5m4 0h2m1 0h1m1 0h2m1 0h2m2 0h1m1 0h2m1 0h1m1 0h4m1 0h4m2 0h2m1 0h2m2 0h1m1 0h1m1 0h1M5 78.5h1m1 0h2m1 0h1m3 0h1m4 0h1m1 0h2m4 0h1m2 0h1m6 0h1m1 0h1m1 0h1m1 0h1m6 0h4m6 0h1m1 0h2m1 0h2m1 0h1m3 0h1m1 0h3m7 0h3m1 0h1m2 0h5m2 0h1m1 0h1m6 0h2m1 0h3m2 0h1m3 0h1m1 0h1m6 0h1M5 79.5h1m3 0h1m2 0h1m1 0h2m2 0h2m4 0h1m2 0h1m1 0h1m2 0h3m2 0h12m2 0h1m1 0h4m1 0h1m6 0h1m2 0h3m2 0h1m3 0h1m1 0h2m1 0h1m2 0h1m1 0h1m1 0h2m2 0h1m2 0h1m2 0h1m1 0h4m1 0h1m2 0h1m1 0h1m1 0h4m1 0h1m1 0h1m1 0h4m2 0h1M8 80.5h1m1 0h2m2 0h6m1 0h1m1 0h1m1 0h2m1 0h2m1 0h1m4 0h1m5 0h1m1 0h2m1 0h1m1 0h2m2 0h1m3 0h3m1 0h6m1 0h3m3 0h3m1 0h1m4 0h3m1 0h2m1 0h2m1 0h3m1 0h1m1 0h2m2 0h1m2 0h1m1 0h2m2 0h4m1 0h3m4 0h1m2 0h1M5 81.5h2m1 0h2m1 0h1m3 0h1m2 0h1m1 0h2m1 0h1m1 0h1m2 0h2m2 0h2m1 0h2m1 0h3m1 0h1m7 0h1m1 0h2m1 0h2m3 0h2m1 0h1m6 0h3m2 0h2m1 0h5m1 0h1m2 0h6m2 0h2m2 0h4m1 0h1m4 0h6m3 0h4m2 0h1m1 0h1m1 0h1M4 82.5h1m4 0h4m3 0h1m5 0h2m3 0h1m1 0h1m3 0h1m1 0h1m1 0h1m7 0h1m2 0h1m3 0h2m1 0h1m1 0h1m2 0h1m1 0h2m1 0h1m3 0h1m2 0h3m2 0h1m1 0h1m1 0h1m1 0h6m2 0h6m1 0h3m2 0h1m1 0h1m2 0h3m1 0h1m3 0h2m1 0h1m1 0h1m1 0h3m2 0h1M5 83.5h2m1 0h1m2 0h1m1 0h1m4 0h1m1 0h2m3 0h1m1 0h1m4 0h3m1 0h3m3 0h1m1 0h1m1 0h1m2 0h2m3 0h3m1 0h2m1 0h1m1 0h1m3 0h5m1 0h1m1 0h1m2 0h3m1 0h1m2 0h1m1 0h1m2 0h1m1 0h2m1 0h1m1 0h1m3 0h2m1 0h3m2 0h1m1 0h1m2 0h1m1 0h3m3 0h1m1 0h2m1 0h1M8 84.5h1m1 0h2m3 0h1m4 0h1m4 0h1m1 0h3m2 0h4m4 0h1m2 0h1m2 0h4m1 0h2m7 0h5m1 0h3m1 0h1m2 0h4m1 0h2m1 0h1m2 0h4m2 0h1m2 0h3m1 0h3m3 0h1m4 0h2m1 0h4m2 0h3m3 0h3M5 85.5h3m1 0h1m1 0h2m1 0h2m2 0h1m3 0h1m2 0h1m1 0h3m1 0h3m1 0h1m2 0h2m1 0h1m4 0h2m1 0h1m3 0h2m1 0h4m5 0h3m3 0h3m2 0h2m5 0h1m1 0h1m1 0h2m1 0h1m1 0h1m3 0h1m2 0h6m1 0h1m1 0h1m3 0h2m2 0h2m2 0h2m1 0h2m1 0h1m1 0h1M4 86.5h1m1 0h1m1 0h1m1 0h1m4 0h2m1 0h2m3 0h3m1 0h1m2 0h2m1 0h1m1 0h1m1 0h1m1 0h3m2 0h2m2 0h6m5 0h2m1 0h1m2 0h3m1 0h1m2 0h6m1 0h1m2 0h1m1 0h1m1 0h4m2 0h2m4 0h1m1 0h2m6 0h1m1 0h4m1 0h1m1 0h1m1 0h1m4 0h2m2 0h1M7 87.5h3m1 0h1m1 0h3m1 0h2m4 0h2m2 0h3m2 0h3m3 0h1m1 0h1m1 0h6m3 0h1m2 0h1m1 0h3m2 0h1m1 0h1m2 0h1m3 0h2m3 0h1m1 0h2m1 0h2m3 0h1m1 0h1m2 0h3m2 0h1m6 0h5m3 0h1m3 0h1m1 0h3m1 0h1m1 0h1m1 0h2m2 0h1M6 88.5h2m1 0h2m5 0h1m1 0h2m1 0h2m3 0h6m2 0h1m2 0h1m4 0h2m1 0h1m1 0h2m3 0h4m2 0h1m1 0h1m2 0h5m3 0h1m1 0h2m1 0h1m2 0h1m1 0h2m1 0h1m3 0h2m2 0h1m1 0h2m2 0h12m1 0h6m4 0h5m2 0h1M4 89.5h2m1 0h1m3 0h2m2 0h2m2 0h1m1 0h1m1 0h1m4 0h1m3 0h2m1 0h1m2 0h3m9 0h2m2 0h2m6 0h2m9 0h3m1 0h1m2 0h1m1 0h2m1 0h1m1 0h4m1 0h3m1 0h2m1 0h2m1 0h1m1 0h2m3 0h1m3 0h1m1 0h1m2 0h1m1 0h2m1 0h1m1 0h2m1 0h1M4 90.5h5m1 0h1m3 0h1m2 0h1m1 0h1m1 0h2m1 0h1m3 0h2m5 0h1m1 0h1m3 0h1m1 0h1m4 0h1m1 0h3m2 0h1m4 0h4m1 0h2m1 0h1m5 0h4m1 0h1m1 0h1m1 0h7m2 0h1m2 0h6m4 0h1m2 0h3m1 0h2m3 0h1m1 0h1m1 0h1m1 0h1m1 0h1m2 0h1M4 91.5h3m1 0h1m3 0h2m5 0h2m4 0h1m1 0h1m1 0h4m1 0h1m2 0h2m3 0h6m1 0h1m1 0h1m1 0h1m1 0h2m1 0h2m3 0h1m2 0h7m4 0h2m1 0h1m1 0h1m7 0h1m1 0h2m1 0h3m4 0h5m2 0h1m1 0h1m2 0h1m1 0h1m1 0h1m4 0h3m2 0h1M4 92.5h2m1 0h8m1 0h2m2 0h2m1 0h3m5 0h1m1 0h2m1 0h5m2 0h1m2 0h1m1 0h1m2 0h1m1 0h1m3 0h2m1 0h2m1 0h9m1 0h4m3 0h5m2 0h2m2 0h6m2 0h1m5 0h2m1 0h2m2 0h1m5 0h7m2 0h2M5 93.5h2m1 0h1m3 0h2m5 0h1m4 0h2m1 0h1m3 0h3m2 0h1m3 0h3m1 0h1m1 0h2m2 0h3m2 0h1m1 0h1m2 0h1m1 0h1m1 0h1m3 0h1m1 0h1m6 0h6m2 0h1m3 0h1m1 0h2m3 0h1m2 0h1m1 0h4m1 0h2m3 0h1m1 0h6m1 0h1m3 0h1m1 0h1m1 0h1M4 94.5h1m1 0h1m1 0h1m1 0h1m1 0h3m1 0h8m3 0h2m1 0h1m5 0h1m1 0h1m1 0h2m1 0h1m1 0h1m1 0h1m2 0h4m1 0h1m4 0h1m1 0h3m1 0h1m1 0h1m2 0h1m1 0h2m1 0h2m1 0h1m4 0h6m1 0h2m1 0h1m1 0h5m2 0h1m1 0h1m2 0h1m1 0h3m4 0h1m1 0h2m1 0h1m1 0h1m3 0h1M7 95.5h2m3 0h7m3 0h3m1 0h1m2 0h1m2 0h5m3 0h1m1 0h3m1 0h2m1 0h1m4 0h1m1 0h3m5 0h1m3 0h1m1 0h2m3 0h1m2 0h1m1 0h1m1 0h2m2 0h1m3 0h1m1 0h1m3 0h2m3 0h2m1 0h3m2 0h1m4 0h5m1 0h1m3 0h1m2 0h2M6 96.5h1m1 0h6m4 0h4m2 0h1m1 0h2m1 0h2m1 0h2m1 0h7m1 0h1m1 0h4m1 0h2m2 0h1m1 0h2m1 0h3m2 0h5m2 0h4m3 0h2m1 0h2m1 0h5m1 0h7m1 0h1m2 0h3m1 0h1m2 0h6m3 0h9m1 0h2M4 97.5h3m1 0h1m2 0h1m1 0h1m2 0h2m2 0h1m3 0h3m1 0h5m2 0h3m4 0h4m5 0h2m1 0h3m2 0h1m1 0h1m2 0h1m2 0h4m4 0h1m1 0h2m1 0h1m1 0h1m1 0h1m1 0h1m2 0h2m2 0h4m3 0h2m1 0h1m2 0h4m2 0h3m3 0h1m5 0h1m1 0h3M6 98.5h1m1 0h1m1 0h2m1 0h1m1 0h2m1 0h1m1 0h1m3 0h2m1 0h2m3 0h2m2 0h1m6 0h1m1 0h1m1 0h4m1 0h2m4 0h3m1 0h2m3 0h2m3 0h3m1 0h1m7 0h1m1 0h1m1 0h1m5 0h7m2 0h1m3 0h7m1 0h1m3 0h4m4 0h2M6 99.5h1m1 0h2m4 0h1m1 0h6m2 0h1m1 0h2m1 0h6m2 0h2m1 0h3m1 0h3m2 0h1m3 0h5m1 0h1m1 0h1m1 0h1m2 0h6m1 0h1m4 0h3m1 0h1m2 0h1m1 0h1m2 0h1m1 0h1m3 0h2m3 0h2m1 0h3m2 0h1m1 0h1m2 0h1m1 0h4m3 0h3m1 0h1M4 100.5h2m1 0h4m1 0h5m2 0h1m2 0h2m4 0h2m1 0h1m2 0h2m1 0h1m3 0h3m1 0h1m1 0h3m1 0h1m3 0h3m2 0h1m1 0h2m2 0h1m1 0h4m1 0h2m1 0h1m1 0h2m4 0h2m1 0h2m2 0h1m2 0h1m3 0h2m1 0h2m1 0h1m1 0h2m1 0h2m1 0h1m1 0h1m1 0h1m2 0h3m1 0h1m3 0h2M6 101.5h3m2 0h1m2 0h3m1 0h2m6 0h1m6 0h1m2 0h1m4 0h2m1 0h1m1 0h1m2 0h1m1 0h1m1 0h1m1 0h2m2 0h2m3 0h1m1 0h1m1 0h3m6 0h1m3 0h1m1 0h2m4 0h1m4 0h2m3 0h3m1 0h1m3 0h2m2 0h1m2 0h3m1 0h2m2 0h1m1 0h2m1 0h2M4 102.5h1m1 0h1m1 0h1m1 0h6m2 0h1m1 0h3m1 0h2m3 0h3m3 0h2m1 0h1m2 0h1m3 0h1m2 0h1m1 0h1m2 0h1m1 0h1m1 0h1m3 0h4m1 0h1m1 0h1m3 0h1m1 0h1m1 0h1m2 0h1m4 0h12m1 0h5m3 0h1m2 0h1m1 0h1m1 0h2m1 0h1m3 0h4m4 0h2M7 103.5h3m1 0h3m3 0h1m1 0h3m1 0h2m2 0h3m2 0h4m3 0h6m1 0h1m7 0h1m1 0h1m1 0h4m2 0h4m2 0h1m2 0h1m4 0h1m1 0h3m2 0h1m8 0h1m2 0h1m4 0h3m1 0h2m1 0h1m3 0h2m1 0h1m1 0h2m1 0h1m1 0h1m3 0h2M5 104.5h3m1 0h3m5 0h2m1 0h3m4 0h3m2 0h1m3 0h1m1 0h1m1 0h1m4 0h2m1 0h2m3 0h1m1 0h5m4 0h4m1 0h4m1 0h2m2 0h2m1 0h6m2 0h3m5 0h3m1 0h1m5 0h2m2 0h2m2 0h1m2 0h2m2 0h1m4 0h1M5 105.5h1m2 0h1m2 0h1m3 0h1m2 0h1m2 0h3m2 0h2m3 0h7m1 0h1m1 0h1m2 0h1m1 0h3m2 0h1m2 0h1m3 0h1m2 0h1m3 0h2m1 0h1m1 0h2m2 0h1m1 0h1m1 0h3m1 0h2m4 0h1m3 0h3m3 0h2m2 0h1m1 0h1m1 0h1m1 0h2m1 0h5m2 0h4m1 0h3m1 0h2M6 106.5h2m1 0h2m1 0h1m2 0h1m2 0h2m2 0h6m1 0h1m1 0h1m4 0h1m2 0h1m1 0h1m3 0h1m2 0h1m1 0h4m6 0h4m1 0h2m1 0h2m2 0h1m1 0h1m1 0h2m1 0h1m1 0h1m2 0h1m1 0h1m2 0h1m1 0h5m1 0h5m3 0h1m1 0h1m2 0h1m2 0h1m1 0h1m6 0h2m4 0h1M7 107.5h1m3 0h2m1 0h1m3 0h1m2 0h3m1 0h5m2 0h3m2 0h1m1 0h1m1 0h6m2 0h1m4 0h4m1 0h1m2 0h3m1 0h1m2 0h2m2 0h1m1 0h1m2 0h1m1 0h4m1 0h1m1 0h1m1 0h2m1 0h4m1 0h2m3 0h3m1 0h2m6 0h1m1 0h6m6 0h1M6 108.5h1m2 0h2m2 0h1m1 0h7m1 0h2m1 0h2m1 0h1m1 0h1m1 0h1m3 0h1m1 0h3m1 0h1m1 0h4m1 0h1m3 0h1m1 0h4m1 0h7m1 0h1m1 0h3m4 0h1m1 0h1m1 0h9m1 0h4m1 0h4m2 0h1m1 0h1m1 0h4m2 0h1m3 0h3m1 0h1m3 0h1m1 0h1M5 109.5h2m2 0h1m2 0h1m5 0h1m3 0h5m1 0h1m1 0h3m2 0h1m5 0h2m3 0h1m1 0h1m2 0h3m2 0h1m1 0h1m2 0h1m4 0h1m1 0h1m2 0h1m1 0h2m1 0h1m2 0h1m3 0h4m1 0h2m1 0h1m2 0h2m3 0h3m1 0h1m8 0h1m2 0h1m1 0h1m1 0h2m2 0h2m3 0h1M7 110.5h1m1 0h3m3 0h2m2 0h3m2 0h1m6 0h1m2 0h1m1 0h2m1 0h1m1 0h1m1 0h2m3 0h3m1 0h2m2 0h2m2 0h1m1 0h2m1 0h2m1 0h1m1 0h8m1 0h1m1 0h1m2 0h5m5 0h1m2 0h5m1 0h1m4 0h6m1 0h1m1 0h1m1 0h1m2 0h4m2 0h1M5 111.5h1m1 0h3m2 0h1m2 0h2m2 0h2m1 0h1m3 0h2m4 0h2m1 0h3m1 0h1m2 0h1m1 0h1m1 0h1m2 0h1m4 0h6m1 0h1m3 0h1m1 0h3m3 0h1m1 0h1m2 0h1m1 0h4m3 0h1m2 0h1m1 0h1m1 0h1m2 0h1m1 0h1m1 0h6m7 0h1m1 0h4m1 0h2m1 0h2m1 0h1M4 112.5h4m2 0h5m5 0h1m3 0h2m1 0h1m4 0h1m1 0h1m4 0h1m1 0h2m2 0h6m1 0h4m1 0h1m1 0h1m1 0h3m1 0h3m3 0h1m1 0h2m1 0h1m4 0h4m1 0h3m1 0h3m4 0h2m1 0h4m1 0h8m2 0h1m2 0h2m1 0h1m4 0h3M6 113.5h2m3 0h1m2 0h1m8 0h1m1 0h1m5 0h6m3 0h1m1 0h1m2 0h1m1 0h1m6 0h1m3 0h1m2 0h1m2 0h1m1 0h1m1 0h3m6 0h3m10 0h1m1 0h4m2 0h1m4 0h1m3 0h1m6 0h1m1 0h1m2 0h3m1 0h4m1 0h1M5 114.5h1m1 0h1m2 0h1m2 0h2m1 0h7m5 0h1m7 0h2m5 0h1m1 0h1m2 0h1m1 0h4m3 0h1m2 0h1m1 0h8m1 0h2m1 0h1m1 0h1m2 0h1m6 0h1m1 0h2m1 0h1m1 0h3m2 0h4m6 0h4m1 0h1m1 0h1m1 0h1m1 0h2m1 0h2m1 0h1m1 0h2M5 115.5h2m2 0h1m1 0h1m1 0h2m2 0h2m1 0h1m9 0h1m1 0h3m3 0h1m2 0h1m2 0h1m1 0h2m1 0h1m4 0h1m1 0h4m1 0h1m4 0h5m2 0h1m4 0h8m4 0h4m5 0h1m1 0h4m1 0h1m7 0h1m1 0h1m1 0h4m3 0h1m1 0h2M4 116.5h2m3 0h2m2 0h1m1 0h1m1 0h6m1 0h1m1 0h4m8 0h3m2 0h2m1 0h1m1 0h2m2 0h1m7 0h1m1 0h3m3 0h1m1 0h2m3 0h2m1 0h3m2 0h1m1 0h1m1 0h2m1 0h2m1 0h2m2 0h6m3 0h4m1 0h4m4 0h1m1 0h3m1 0h1m1 0h1M4 117.5h2m1 0h1m1 0h1m1 0h2m1 0h1m3 0h1m5 0h2m1 0h4m1 0h5m4 0h2m1 0h3m1 0h1m1 0h2m1 0h2m1 0h2m2 0h1m3 0h1m1 0h8m1 0h2m2 0h1m2 0h1m2 0h1m2 0h1m1 0h1m3 0h2m1 0h2m1 0h2m2 0h1m1 0h2m4 0h2m1 0h5m3 0h3m2 0h1M5 118.5h1m2 0h4m1 0h1m2 0h3m1 0h5m2 0h2m1 0h2m1 0h1m1 0h3m3 0h1m3 0h1m2 0h1m1 0h2m1 0h1m1 0h1m3 0h2m1 0h7m3 0h6m1 0h1m1 0h1m1 0h7m1 0h1m2 0h1m3 0h4m3 0h1m1 0h6m2 0h1m1 0h1m3 0h2m3 0h3M4 119.5h1m1 0h1m1 0h2m1 0h2m1 0h4m1 0h1m3 0h1m1 0h1m1 0h1m2 0h3m1 0h2m1 0h1m1 0h1m2 0h1m1 0h1m1 0h1m2 0h1m2 0h1m1 0h1m1 0h1m1 0h1m2 0h1m1 0h1m1 0h1m2 0h1m1 0h1m3 0h1m3 0h1m1 0h3m2 0h1m4 0h1m1 0h1m1 0h1m4 0h1m2 0h5m7 0h7m4 0h1m2 0h1M4 120.5h1m5 0h1m1 0h1m3 0h2m2 0h1m1 0h1m1 0h4m1 0h2m2 0h2m1 0h5m1 0h2m1 0h1m1 0h2m1 0h1m5 0h1m1 0h1m1 0h1m1 0h7m2 0h1m1 0h1m1 0h1m3 0h1m1 0h2m1 0h1m2 0h3m1 0h6m2 0h2m1 0h1m5 0h5m1 0h2m1 0h1m1 0h7m1 0h1M12 121.5h1m4 0h1m3 0h1m5 0h1m1 0h1m1 0h1m1 0h2m1 0h1m3 0h3m5 0h4m1 0h2m3 0h5m1 0h1m3 0h1m1 0h3m2 0h7m1 0h3m1 0h4m1 0h1m3 0h2m6 0h4m4 0h1m6 0h2m3 0h2m2 0h1M4 122.5h7m3 0h1m1 0h2m1 0h6m7 0h1m3 0h1m1 0h1m1 0h2m4 0h3m1 0h4m1 0h1m4 0h5m1 0h1m1 0h1m2 0h7m2 0h1m3 0h3m1 0h2m1 0h2m1 0h1m1 0h6m1 0h1m1 0h1m1 0h1m2 0h1m1 0h2m5 0h2m1 0h1m1 0h2m1 0h2M4 123.5h1m5 0h1m1 0h1m1 0h1m1 0h1m8 0h1m3 0h2m1 0h3m1 0h1m3 0h1m1 0h4m1 0h1m1 0h1m1 0h1m2 0h1m1 0h1m1 0h1m5 0h1m3 0h3m2 0h1m4 0h6m1 0h1m3 0h2m1 0h1m3 0h1m2 0h1m2 0h1m1 0h1m1 0h2m1 0h1m4 0h7m3 0h2M4 124.5h1m1 0h3m1 0h1m1 0h2m3 0h1m1 0h1m1 0h1m2 0h3m2 0h2m4 0h6m1 0h1m2 0h2m1 0h2m2 0h1m1 0h8m2 0h5m2 0h5m3 0h1m1 0h1m2 0h4m1 0h1m2 0h6m2 0h1m2 0h1m1 0h2m1 0h2m1 0h4m5 0h6M4 125.5h1m1 0h3m1 0h1m2 0h2m1 0h2m1 0h3m1 0h1m1 0h2m3 0h1m3 0h1m8 0h4m6 0h4m1 0h2m1 0h2m3 0h1m3 0h3m1 0h1m1 0h2m3 0h2m1 0h1m1 0h1m1 0h1m1 0h1m2 0h2m1 0h1m5 0h2m2 0h2m1 0h2m1 0h2m2 0h4m1 0h2m2 0h2M4 126.5h1m1 0h3m1 0h1m2 0h2m1 0h3m1 0h1m4 0h1m1 0h3m1 0h1m1 0h1m2 0h1m1 0h4m5 0h1m2 0h3m2 0h1m4 0h1m1 0h3m4 0h1m1 0h2m1 0h6m3 0h4m1 0h1m2 0h1m4 0h1m1 0h1m1 0h2m1 0h1m3 0h2m1 0h1m1 0h1m4 0h1m1 0h1m1 0h2m2 0h4M4 127.5h1m5 0h1m1 0h2m1 0h2m3 0h1m1 0h1m1 0h2m1 0h1m2 0h5m7 0h5m2 0h1m1 0h1m2 0h5m2 0h1m3 0h2m1 0h3m2 0h2m4 0h4m4 0h1m1 0h2m1 0h3m2 0h1m1 0h1m1 0h2m1 0h4m1 0h1m3 0h7m2 0h4m1 0h2M4 128.5h7m1 0h4m10 0h4m1 0h2m3 0h1m3 0h1m2 0h1m1 0h1m2 0h1m2 0h2m1 0h1m5 0h1m1 0h4m4 0h1m2 0h4m2 0h1m2 0h1m3 0h1m1 0h1m2 0h1m4 0h1m4 0h2m3 0h1m1 0h1m1 0h1m1 0h1m2 0h2m3 0h1m1 0h2m2 0h2"/></svg>
