<?xml version="1.0" encoding="utf-8"?><!DOCTYPE svg PUBLIC "-//W3C//DTD SVG 1.1//EN" "http://www.w3.org/Graphics/SVG/1.1/DTD/svg11.dtd"><svg xmlns="http://www.w3.org/2000/svg" viewBox="0 0 141 141" shape-rendering="crispEdges"><path fill="#ffffff" d="M0 0h141v141H0z"/><path stroke="#000000" d="M4 4.5h7m6 0h5m1 0h2m4 0h4m1 0h2m1 0h6m4 0h1m2 0h3m1 0h1m2 0h2m2 0h1m1 0h1m4 0h2m1 0h3m1 0h1m1 0h2m4 0h1m1 0h2m5 0h3m1 0h2m3 0h5m1 0h1m1 0h1m2 0h1m3 0h2m1 0h1m1 0h1m1 0h2m1 0h3m1 0h7M4 5.5h1m5 0h1m1 0h1m2 0h1m4 0h3m1 0h4m2 0h5m2 0h1m2 0h2m3 0h1m2 0h7m2 0h1m2 0h1m3 0h1m1 0h3m1 0h1m5 0h8m1 0h1m2 0h1m1 0h1m2 0h2m3 0h3m8 0h1m1 0h2m2 0h2m1 0h2m1 0h1m1 0h1m1 0h4m1 0h1m5 0h1M4 6.5h1m1 0h3m1 0h1m3 0h1m1 0h6m2 0h3m1 0h1m1 0h2m1 0h2m1 0h1m2 0h1m3 0h1m10 0h1m3 0h1m2 0h1m2 0h1m1 0h2m4 0h4m2 0h2m2 0h4m1 0h1m3 0h1m2 0h1m2 0h1m8 0h1m6 0h6m1 0h1m3 0h1m3 0h1m1 0h1m1 0h3m1 0h1M4 7.5h1m1 0h3m1 0h1m1 0h2m3 0h1m2 0h1m1 0h3m1 0h3m5 0h2m7 0h1m1 0h2m1 0h1m4 0h4m2 0h2m1 0h5m1 0h3m1 0h1m2 0h4m2 0h2m1 0h3m1 0h4m3 0h1m1 0h3m1 0h5m1 0h1m4 0h2m1 0h1m2 0h1m3 0h2m2 0h1m3 0h1m1 0h3m1 0h1M4 8.5h1m1 0h3m1 0h1m2 0h2m4 0h1m2 0h1m1 0h2m2 0h2m1 0h10m1 0h1m1 0h1m4 0h2m1 0h1m3 0h5m1 0h2m5 0h3m1 0h1m1 0h3m2 0h5m2 0h1m1 0h1m2 0h1m1 0h1m1 0h1m1 0h1m3 0h10m7 0h1m1 0h1m1 0h2m1 0h1m1 0h1m1 0h1m1 0h3m1 0h1M4 9.5h1m5 0h1m1 0h2m1 0h1m1 0h2m1 0h1m3 0h2m5 0h2m3 0h1m1 0h4m1 0h2m2 0h1m2 0h3m1 0h3m3 0h1m1 0h1m2 0h4m1 0h1m1 0h3m3 0h3m3 0h1m2 0h2m4 0h2m5 0h2m2 0h1m3 0h2m1 0h1m4 0h1m1 0h4m1 0h1m2 0h2m2 0h1m5 0h1M4 10.5h7m1 0h1m1 0h1m1 0h1m1 0h1m1 0h1m1 0h1m1 0h1m1 0h1m1 0h1m1 0h1m1 0h1m1 0h1m1 0h1m1 0h1m1 0h1m1 0h1m1 0h1m1 0h1m1 0h1m1 0h1m1 0h1m1 0h1m1 0h1m1 0h1m1 0h1m1 0h1m1 0h1m1 0h1m1 0h1m1 0h1m1 0h1m1 0h1m1 0h1m1 0h1m1 0h1m1 0h1m1 0h1m1 0h1m1 0h1m1 0h1m1 0h1m1 0h1m1 0h1m1 0h1m1 0h1m1 0h1m1 0h1m1 0h1m1 0h1m1 0h1m1 0h1m1 0h1m1 0h1m1 0h1m1 0h1m1 0h1m1 0h1m1 0h1m1 0h1m1 0h7M13 11.5h1m1 0h1m2 0h2m2 0h3m2 0h1m2 0h3m3 0h2m6 0h3m2 0h1m1 0h6m3 0h2m4 0h2m5 0h2m1 0h1m1 0h3m3 0h2m2 0h1m4 0h2m4 0h2m2 0h2m3 0h1m3 0h6m6 0h3m1 0h1M4 12.5h5m1 0h3m1 0h1m1 0h3m4 0h1m1 0h3m1 0h1m1 0h6m4 0h1m1 0h2m1 0h3m6 0h6m3 0h2m3 0h1m4 0h1m1 0h3m1 0h9m1 0h1m5 0h1m1 0h1m2 0h8m1 0h2m2 0h3m1 0h3m5 0h2m1 0h1m1 0h1m1 0h1m1 0h1M4 13.5h1m2 0h3m1 0h1m1 0h1m3 0h1m1 0h1m2 0h1m1 0h1m1 0h2m6 0h1m3 0h1m1 0h1m1 0h1m6 0h2m1 0h1m1 0h1m1 0h2m3 0h3m4 0h6m1 0h1m1 0h1m2 0h1m6 0h1m1 0h2m1 0h2m2 0h1m2 0h1m1 0h3m2 0h4m3 0h1m1 0h1m3 0h6m1 0h1m1 0h1m1 0h2m1 0h3M5 14.5h3m1 0h2m2 0h3m1 0h2m2 0h2m1 0h3m2 0h1m2 0h1m2 0h3m1 0h1m1 0h1m3 0h1m5 0h6m1 0h2m5 0h3m1 0h2m2 0h2m1 0h1m1 0h2m2 0h2m1 0h1m1 0h2m1 0h1m3 0h2m3 0h3m1 0h1m2 0h1m2 0h3m4 0h1m1 0h1m1 0h2m1 0h1m9 0h1m1 0h2M5 15.5h2m5 0h2m1 0h1m2 0h1m1 0h5m1 0h2m1 0h2m1 0h2m2 0h1m2 0h2m5 0h1m1 0h1m3 0h1m5 0h5m3 0h3m3 0h4m6 0h1m4 0h3m1 0h1m1 0h2m5 0h2m2 0h1m3 0h1m3 0h1m1 0h4m2 0h1m1 0h1m2 0h1m2 0h1m1 0h1m2 0h1m1 0h2M6 16.5h2m2 0h1m1 0h2m1 0h3m1 0h1m1 0h1m1 0h2m1 0h5m2 0h3m1 0h1m3 0h1m1 0h2m1 0h1m1 0h1m2 0h3m4 0h3m1 0h2m1 0h1m3 0h4m1 0h9m1 0h2m1 0h2m1 0h1m1 0h1m2 0h4m1 0h1m1 0h1m2 0h1m1 0h1m1 0h1m2 0h2m1 0h1m1 0h2m5 0h2m1 0h4m1 0h3m1 0h1M4 17.5h1m3 0h1m8 0h2m7 0h2m2 0h2m2 0h2m3 0h2m1 0h1m2 0h1m1 0h1m2 0h3m1 0h1m1 0h3m1 0h1m1 0h1m2 0h1m2 0h2m1 0h5m1 0h1m1 0h1m3 0h1m5 0h1m2 0h2m2 0h1m4 0h2m1 0h2m1 0h1m1 0h3m2 0h3m1 0h1m2 0h2m1 0h1m1 0h3m5 0h1M4 18.5h1m2 0h1m2 0h1m1 0h2m1 0h2m1 0h2m1 0h1m2 0h7m2 0h1m1 0h2m3 0h1m1 0h1m1 0h1m2 0h4m1 0h3m1 0h1m1 0h1m2 0h2m1 0h2m1 0h2m4 0h1m4 0h1m4 0h1m1 0h1m2 0h2m1 0h1m3 0h1m3 0h2m1 0h2m1 0h2m2 0h1m1 0h2m1 0h1m1 0h1m1 0h4m1 0h2m1 0h8m1 0h2M9 19.5h1m1 0h1m1 0h2m1 0h2m2 0h1m3 0h1m1 0h1m2 0h1m1 0h6m2 0h1m1 0h1m1 0h6m2 0h1m1 0h1m3 0h1m1 0h4m3 0h3m2 0h3m2 0h1m3 0h3m1 0h2m2 0h1m3 0h1m1 0h1m2 0h1m1 0h2m2 0h2m5 0h1m1 0h2m1 0h3m4 0h1m3 0h1m3 0h1m4 0h2M5 20.5h1m2 0h4m4 0h1m2 0h1m4 0h1m2 0h5m1 0h1m1 0h1m7 0h4m1 0h2m5 0h2m1 0h3m1 0h1m1 0h2m1 0h3m2 0h1m1 0h6m1 0h2m1 0h3m3 0h1m1 0h1m2 0h1m1 0h2m3 0h1m2 0h1m3 0h1m1 0h1m12 0h4m2 0h5m1 0h1M12 21.5h4m6 0h1m1 0h2m4 0h1m1 0h3m2 0h4m1 0h2m6 0h1m1 0h3m2 0h2m2 0h1m1 0h1m2 0h1m2 0h4m1 0h2m3 0h2m4 0h3m1 0h5m1 0h2m1 0h1m2 0h1m1 0h1m1 0h1m1 0h9m5 0h1m1 0h1m3 0h3M5 22.5h1m1 0h2m1 0h1m2 0h1m1 0h2m2 0h1m1 0h5m2 0h1m1 0h3m2 0h1m1 0h1m3 0h2m6 0h1m1 0h2m2 0h2m5 0h1m2 0h1m1 0h1m2 0h1m2 0h2m2 0h5m2 0h1m1 0h5m4 0h1m1 0h1m1 0h2m2 0h1m1 0h1m3 0h4m3 0h1m1 0h1m1 0h2m1 0h2m3 0h1m2 0h1m1 0h1m1 0h2M7 23.5h1m1 0h1m3 0h1m1 0h1m1 0h2m1 0h12m4 0h4m1 0h1m1 0h1m2 0h2m6 0h2m1 0h1m1 0h3m5 0h1m2 0h1m1 0h3m3 0h1m1 0h1m2 0h2m2 0h3m4 0h1m5 0h2m2 0h1m1 0h2m5 0h6m1 0h1m4 0h6m4 0h1M8 24.5h3m1 0h3m1 0h2m2 0h1m2 0h1m1 0h2m1 0h1m2 0h2m1 0h2m1 0h1m6 0h4m1 0h1m1 0h1m1 0h1m1 0h2m1 0h3m1 0h1m2 0h1m1 0h1m1 0h1m2 0h1m1 0h6m1 0h10m4 0h2m1 0h1m3 0h1m2 0h1m6 0h2m2 0h3m7 0h2m2 0h1m1 0h4M5 25.5h2m2 0h1m2 0h2m3 0h3m1 0h2m4 0h1m2 0h2m1 0h3m1 0h4m1 0h1m2 0h1m6 0h1m1 0h1m1 0h2m5 0h4m2 0h5m1 0h2m2 0h2m2 0h1m2 0h2m1 0h1m2 0h2m2 0h1m1 0h2m7 0h3m2 0h1m4 0h1m3 0h2m1 0h2m2 0h1m2 0h1m1 0h1m1 0h1M5 26.5h2m1 0h6m2 0h2m1 0h1m3 0h7m3 0h1m2 0h1m1 0h2m1 0h2m2 0h3m4 0h1m2 0h2m1 0h1m1 0h3m1 0h1m1 0h2m4 0h3m4 0h4m1 0h2m1 0h2m6 0h1m2 0h3m1 0h4m3 0h3m2 0h1m1 0h1m1 0h2m1 0h3m2 0h1m4 0h1m1 0h4M4 27.5h2m6 0h1m1 0h2m1 0h3m1 0h1m2 0h1m1 0h1m1 0h2m2 0h2m2 0h3m1 0h2m1 0h4m2 0h1m3 0h1m1 0h1m1 0h1m2 0h2m6 0h1m1 0h1m2 0h1m1 0h2m2 0h2m1 0h2m3 0h3m2 0h3m8 0h2m1 0h1m1 0h1m3 0h2m1 0h1m1 0h1m2 0h1m1 0h1m2 0h1m2 0h1m1 0h3m3 0h1M5 28.5h1m1 0h4m1 0h1m1 0h1m1 0h1m4 0h1m6 0h1m3 0h1m7 0h2m2 0h1m1 0h1m1 0h2m1 0h1m1 0h1m1 0h2m2 0h2m2 0h4m1 0h2m1 0h2m4 0h1m1 0h2m1 0h1m1 0h5m1 0h1m4 0h1m1 0h3m2 0h1m2 0h1m7 0h1m1 0h4m5 0h7m1 0h5M7 29.5h2m2 0h3m1 0h3m1 0h2m1 0h1m1 0h3m3 0h1m1 0h3m1 0h5m1 0h1m4 0h1m1 0h7m1 0h1m2 0h1m1 0h2m3 0h7m1 0h1m2 0h2m3 0h1m1 0h3m2 0h1m1 0h2m2 0h1m4 0h2m2 0h5m1 0h4m1 0h1m2 0h1m1 0h1m1 0h1m2 0h1m4 0h1m1 0h1M4 30.5h1m5 0h1m2 0h1m3 0h1m1 0h1m1 0h3m2 0h1m4 0h3m1 0h4m2 0h3m4 0h1m6 0h2m1 0h2m1 0h1m3 0h1m1 0h2m3 0h1m1 0h1m1 0h1m5 0h1m1 0h2m1 0h2m4 0h3m1 0h1m1 0h2m8 0h1m1 0h1m2 0h1m3 0h7m2 0h1m1 0h1m2 0h5M5 31.5h4m3 0h3m2 0h2m1 0h1m1 0h1m1 0h1m1 0h4m1 0h2m1 0h4m4 0h1m3 0h2m2 0h2m2 0h2m1 0h2m1 0h3m1 0h1m5 0h1m2 0h2m3 0h1m1 0h1m1 0h1m4 0h1m1 0h1m3 0h3m4 0h2m2 0h1m3 0h1m1 0h1m2 0h5m6 0h2m5 0h3m1 0h2M6 32.5h7m5 0h1m1 0h3m1 0h1m2 0h1m4 0h5m6 0h2m1 0h1m1 0h1m6 0h6m2 0h3m1 0h3m5 0h1m1 0h1m1 0h6m1 0h2m1 0h1m1 0h2m3 0h2m1 0h1m2 0h1m1 0h7m4 0h2m1 0h2m1 0h1m4 0h7m1 0h1M8 33.5h1m3 0h1m1 0h1m1 0h2m1 0h4m1 0h1m1 0h1m2 0h4m3 0h5m1 0h1m6 0h8m3 0h1m2 0h4m3 0h1m1 0h2m1 0h1m3 0h2m3 0h2m4 0h5m1 0h1m1 0h2m1 0h4m3 0h2m1 0h2m1 0h1m3 0h1m2 0h3m2 0h3m3 0h1M5 34.5h1m1 0h2m1 0h1m1 0h1m1 0h2m1 0h1m4 0h4m1 0h1m1 0h4m1 0h1m1 0h1m1 0h1m3 0h2m3 0h1m6 0h1m1 0h1m1 0h1m1 0h3m3 0h3m10 0h2m1 0h1m1 0h8m1 0h1m3 0h1m1 0h2m3 0h1m1 0h1m1 0h4m4 0h1m2 0h5m2 0h1m1 0h1m1 0h1m1 0h3m1 0h1M4 35.5h3m1 0h1m3 0h2m1 0h1m1 0h3m2 0h1m1 0h4m1 0h1m1 0h2m3 0h1m2 0h1m1 0h1m2 0h5m1 0h2m1 0h1m1 0h2m3 0h2m4 0h2m2 0h1m1 0h2m4 0h1m1 0h1m3 0h2m1 0h1m1 0h1m1 0h4m2 0h1m1 0h3m1 0h2m3 0h1m1 0h1m2 0h1m1 0h1m1 0h1m2 0h1m3 0h3m1 0h1m3 0h2m2 0h1M4 36.5h2m2 0h5m1 0h3m3 0h1m2 0h3m2 0h1m1 0h7m4 0h1m1 0h1m1 0h4m2 0h1m4 0h5m3 0h4m1 0h1m7 0h15m3 0h1m1 0h15m1 0h1m1 0h3m4 0h1m3 0h1m1 0h7M7 37.5h3m2 0h3m1 0h1m1 0h2m3 0h1m1 0h2m2 0h1m2 0h2m3 0h4m1 0h1m6 0h4m1 0h1m3 0h2m1 0h1m1 0h4m1 0h4m2 0h2m1 0h4m1 0h1m1 0h1m4 0h1m2 0h2m2 0h1m5 0h1m1 0h4m1 0h2m1 0h1m1 0h1m2 0h3m2 0h1m1 0h9m1 0h1M7 38.5h2m1 0h1m1 0h1m1 0h1m1 0h1m1 0h6m1 0h2m1 0h4m2 0h1m1 0h1m1 0h3m1 0h1m2 0h1m1 0h1m1 0h1m1 0h2m1 0h2m1 0h2m1 0h2m3 0h4m4 0h2m3 0h1m2 0h1m3 0h1m2 0h2m3 0h1m4 0h4m5 0h5m4 0h1m1 0h4m1 0h1m2 0h1m9 0h1M5 39.5h3m1 0h1m3 0h3m1 0h2m1 0h3m1 0h2m3 0h3m5 0h1m3 0h2m1 0h1m4 0h1m1 0h2m2 0h2m2 0h1m1 0h2m9 0h2m1 0h2m1 0h2m2 0h4m1 0h3m3 0h2m1 0h1m4 0h1m1 0h2m5 0h1m1 0h2m1 0h1m1 0h1m2 0h1m1 0h1m1 0h3m8 0h1M10 40.5h2m3 0h2m2 0h1m2 0h2m5 0h1m2 0h1m1 0h3m4 0h1m3 0h1m2 0h2m2 0h2m4 0h2m5 0h3m1 0h2m3 0h4m2 0h3m2 0h4m1 0h2m1 0h1m1 0h4m1 0h1m1 0h3m1 0h2m2 0h1m2 0h1m1 0h2m1 0h1m1 0h2m3 0h1m1 0h4m1 0h3m1 0h1M5 41.5h4m4 0h1m1 0h1m2 0h1m1 0h1m1 0h1m3 0h1m3 0h3m2 0h1m2 0h1m1 0h1m1 0h1m3 0h1m2 0h3m1 0h1m2 0h1m2 0h5m5 0h1m1 0h1m1 0h3m1 0h1m2 0h3m1 0h1m2 0h1m1 0h4m1 0h1m1 0h1m4 0h5m1 0h3m1 0h4m5 0h1m3 0h2m1 0h4m1 0h1m1 0h1M5 42.5h3m2 0h1m1 0h2m1 0h1m1 0h1m2 0h1m1 0h1m2 0h2m4 0h2m1 0h3m3 0h3m2 0h1m1 0h1m2 0h1m4 0h1m1 0h1m3 0h2m1 0h1m2 0h2m1 0h1m1 0h2m3 0h1m1 0h1m3 0h1m2 0h1m1 0h2m3 0h1m6 0h2m2 0h1m1 0h6m4 0h1m1 0h7m1 0h1m2 0h3m1 0h1m1 0h2M4 43.5h1m1 0h3m4 0h1m1 0h1m1 0h1m3 0h1m1 0h1m1 0h2m1 0h1m2 0h2m2 0h6m2 0h2m2 0h1m1 0h1m1 0h1m3 0h1m3 0h1m1 0h1m1 0h1m7 0h1m1 0h2m1 0h1m1 0h1m2 0h1m1 0h1m1 0h1m1 0h3m1 0h4m1 0h1m2 0h2m2 0h2m1 0h1m1 0h1m3 0h2m1 0h2m7 0h2m2 0h1m1 0h1m1 0h1m2 0h2M5 44.5h3m2 0h1m1 0h1m1 0h1m2 0h1m1 0h1m2 0h4m3 0h1m1 0h1m2 0h3m6 0h4m1 0h1m4 0h1m1 0h4m1 0h6m3 0h2m5 0h1m1 0h1m1 0h1m1 0h5m3 0h1m4 0h4m2 0h2m1 0h1m7 0h1m5 0h1m1 0h1m4 0h2m2 0h1m3 0h4M6 45.5h1m7 0h1m2 0h1m2 0h1m1 0h1m1 0h1m2 0h3m1 0h1m3 0h1m1 0h6m4 0h1m1 0h2m1 0h1m1 0h3m1 0h2m3 0h1m1 0h1m4 0h4m1 0h6m1 0h3m1 0h2m4 0h3m1 0h1m4 0h2m1 0h3m1 0h2m1 0h1m2 0h1m1 0h1m2 0h1m1 0h4m1 0h10M4 46.5h1m5 0h2m1 0h7m1 0h3m1 0h2m1 0h4m2 0h2m4 0h1m1 0h2m1 0h1m2 0h2m2 0h2m1 0h1m1 0h2m2 0h2m1 0h7m1 0h1m1 0h1m1 0h1m4 0h1m3 0h1m1 0h5m1 0h3m1 0h1m1 0h3m2 0h4m1 0h3m3 0h2m2 0h3m1 0h2m2 0h1m1 0h3m4 0h1M4 47.5h2m1 0h1m3 0h1m1 0h2m1 0h4m3 0h2m8 0h1m1 0h1m2 0h2m1 0h1m2 0h1m2 0h1m2 0h4m1 0h2m1 0h1m1 0h5m2 0h2m3 0h3m3 0h1m2 0h3m1 0h1m1 0h2m3 0h5m3 0h1m2 0h1m2 0h1m1 0h1m3 0h2m1 0h3m2 0h1m1 0h1m2 0h6m2 0h1m1 0h2M5 48.5h2m3 0h2m1 0h1m1 0h6m1 0h2m1 0h1m1 0h1m1 0h3m1 0h1m2 0h2m2 0h1m3 0h3m1 0h1m4 0h1m2 0h1m2 0h1m4 0h6m2 0h1m1 0h1m1 0h6m1 0h2m1 0h3m1 0h2m1 0h1m1 0h2m1 0h2m2 0h3m1 0h1m1 0h3m1 0h1m2 0h8m1 0h1m4 0h3m1 0h2m1 0h1M6 49.5h4m1 0h4m3 0h2m1 0h2m1 0h3m2 0h2m6 0h3m2 0h1m2 0h1m4 0h3m1 0h1m3 0h4m1 0h1m1 0h1m4 0h1m1 0h2m3 0h1m1 0h7m1 0h1m3 0h3m2 0h1m4 0h1m1 0h1m1 0h2m2 0h8m3 0h1m1 0h1m1 0h1m3 0h5m1 0h2M4 50.5h2m1 0h1m1 0h2m2 0h2m3 0h5m1 0h4m3 0h4m2 0h2m4 0h1m1 0h1m3 0h2m1 0h1m1 0h4m2 0h1m1 0h1m2 0h4m4 0h2m1 0h1m1 0h2m3 0h1m1 0h7m2 0h1m4 0h2m4 0h5m1 0h2m1 0h1m1 0h1m2 0h6m2 0h1m5 0h2m1 0h1M5 51.5h3m3 0h2m3 0h2m1 0h1m1 0h3m3 0h1m4 0h1m3 0h2m1 0h1m1 0h2m2 0h2m1 0h1m2 0h1m3 0h1m2 0h1m1 0h2m1 0h2m1 0h2m5 0h2m4 0h1m1 0h3m3 0h1m5 0h2m5 0h2m1 0h1m2 0h1m5 0h7m1 0h1m1 0h1m2 0h4m1 0h1m4 0h2M5 52.5h1m3 0h3m1 0h1m2 0h1m1 0h1m2 0h5m3 0h2m1 0h3m1 0h1m4 0h1m1 0h4m1 0h2m7 0h2m3 0h1m1 0h3m2 0h3m2 0h1m1 0h8m1 0h2m1 0h1m1 0h2m1 0h3m2 0h1m2 0h2m1 0h1m2 0h3m3 0h1m1 0h4m5 0h1m2 0h1m3 0h1m1 0h2M5 53.5h2m4 0h3m1 0h2m2 0h3m3 0h2m1 0h2m4 0h2m4 0h3m2 0h1m1 0h1m1 0h2m1 0h1m1 0h1m4 0h2m1 0h4m2 0h1m1 0h3m1 0h2m1 0h1m1 0h4m1 0h2m1 0h1m4 0h2m2 0h1m1 0h2m1 0h2m1 0h2m1 0h1m1 0h2m1 0h1m2 0h1m2 0h1m1 0h1m1 0h3m2 0h2m1 0h1m1 0h1m2 0h1M5 54.5h6m1 0h1m2 0h4m1 0h1m1 0h1m3 0h1m2 0h1m3 0h4m1 0h1m1 0h1m2 0h3m4 0h4m1 0h4m2 0h2m1 0h2m1 0h1m1 0h2m1 0h2m2 0h4m6 0h1m1 0h2m3 0h1m1 0h1m1 0h1m2 0h1m4 0h3m1 0h4m1 0h1m4 0h3m1 0h2m4 0h1m3 0h1m1 0h2M5 55.5h2m5 0h1m1 0h2m1 0h1m1 0h1m1 0h3m2 0h3m4 0h1m1 0h1m1 0h2m1 0h2m2 0h1m2 0h3m4 0h2m2 0h5m1 0h1m1 0h1m1 0h1m1 0h1m1 0h5m2 0h3m1 0h1m1 0h1m1 0h3m2 0h1m1 0h2m3 0h3m1 0h3m2 0h1m1 0h1m2 0h5m2 0h1m3 0h2m2 0h1m1 0h2m4 0h1M6 56.5h1m1 0h8m2 0h1m1 0h2m2 0h1m1 0h1m2 0h2m1 0h5m7 0h3m1 0h2m6 0h5m1 0h4m3 0h2m6 0h2m1 0h7m1 0h4m1 0h1m1 0h2m1 0h3m1 0h7m3 0h1m2 0h4m3 0h1m1 0h1m3 0h9M5 57.5h1m2 0h1m3 0h1m2 0h4m1 0h5m5 0h3m3 0h6m3 0h1m1 0h1m2 0h3m1 0h1m1 0h1m3 0h2m1 0h4m1 0h1m1 0h4m1 0h1m1 0h1m2 0h1m3 0h3m2 0h1m1 0h3m2 0h2m3 0h1m1 0h2m3 0h1m1 0h1m10 0h1m1 0h2m1 0h3m3 0h1M8 58.5h1m1 0h1m1 0h1m2 0h1m2 0h1m3 0h1m1 0h1m1 0h7m1 0h1m1 0h6m1 0h1m2 0h2m1 0h2m1 0h1m1 0h1m1 0h1m1 0h1m1 0h3m1 0h1m1 0h3m3 0h2m2 0h2m1 0h2m1 0h1m1 0h1m3 0h1m2 0h1m1 0h1m1 0h1m2 0h3m3 0h1m1 0h1m1 0h2m1 0h2m3 0h1m1 0h2m1 0h1m1 0h2m3 0h1m1 0h1m1 0h2m1 0h2M8 59.5h1m3 0h2m1 0h2m1 0h2m2 0h1m2 0h8m3 0h1m2 0h1m3 0h3m2 0h1m1 0h4m1 0h2m3 0h3m1 0h1m2 0h2m1 0h2m1 0h2m1 0h1m1 0h1m1 0h1m3 0h1m6 0h1m2 0h3m2 0h1m1 0h1m2 0h1m3 0h1m1 0h1m1 0h1m1 0h5m3 0h1m2 0h1m2 0h1m3 0h1M4 60.5h3m1 0h6m1 0h1m5 0h3m3 0h1m1 0h1m1 0h7m3 0h1m1 0h2m1 0h3m4 0h1m1 0h6m1 0h8m1 0h1m2 0h1m1 0h3m1 0h5m1 0h8m2 0h1m1 0h1m2 0h2m1 0h5m1 0h1m1 0h2m3 0h1m1 0h3m4 0h10M9 61.5h1m2 0h1m3 0h1m1 0h1m2 0h3m2 0h2m1 0h3m2 0h2m1 0h2m1 0h1m1 0h1m4 0h1m2 0h1m1 0h1m1 0h2m3 0h1m1 0h1m1 0h1m1 0h1m2 0h5m1 0h4m1 0h2m2 0h1m1 0h3m4 0h1m2 0h4m10 0h2m1 0h1m2 0h3m1 0h3m2 0h2m1 0h1m1 0h2m3 0h1M6 62.5h2m1 0h4m1 0h2m2 0h2m1 0h5m2 0h1m6 0h1m3 0h2m1 0h1m2 0h3m2 0h1m1 0h1m2 0h1m2 0h3m3 0h4m1 0h2m1 0h2m2 0h5m1 0h1m1 0h1m2 0h2m1 0h1m2 0h1m1 0h1m1 0h1m1 0h5m1 0h1m2 0h2m1 0h1m2 0h3m1 0h2m1 0h4m1 0h5m1 0h5M4 63.5h6m1 0h6m2 0h3m1 0h3m6 0h3m1 0h1m1 0h1m6 0h1m4 0h4m3 0h2m2 0h1m1 0h1m3 0h2m4 0h1m1 0h1m3 0h1m3 0h1m1 0h1m2 0h2m4 0h1m4 0h2m4 0h4m4 0h3m1 0h1m2 0h1m4 0h4m6 0h1M6 64.5h3m1 0h2m1 0h1m2 0h2m1 0h2m1 0h1m1 0h4m1 0h1m2 0h1m13 0h1m1 0h1m2 0h1m3 0h1m1 0h2m1 0h1m1 0h2m2 0h2m1 0h4m2 0h1m2 0h1m1 0h2m1 0h6m1 0h3m3 0h9m4 0h4m2 0h2m7 0h1m3 0h1m1 0h3m1 0h1M4 65.5h1m1 0h1m2 0h1m1 0h4m4 0h3m1 0h1m3 0h1m4 0h2m1 0h6m1 0h2m3 0h1m1 0h2m1 0h2m3 0h4m2 0h1m1 0h1m3 0h3m1 0h1m1 0h2m2 0h2m2 0h1m2 0h2m2 0h5m1 0h1m4 0h3m2 0h4m1 0h2m1 0h2m2 0h1m2 0h1m2 0h1m1 0h6M8 66.5h1m1 0h2m2 0h2m3 0h2m1 0h2m5 0h1m1 0h3m6 0h3m7 0h3m2 0h1m2 0h2m1 0h1m5 0h1m1 0h1m2 0h1m5 0h2m1 0h2m1 0h2m1 0h2m4 0h1m1 0h1m2 0h1m1 0h1m1 0h2m1 0h3m1 0h1m1 0h1m4 0h1m2 0h1m1 0h4m4 0h2m1 0h2m1 0h2M5 67.5h1m1 0h1m1 0h1m1 0h1m1 0h1m5 0h1m2 0h3m1 0h2m4 0h6m1 0h1m1 0h3m1 0h4m3 0h1m1 0h4m3 0h3m3 0h1m2 0h1m2 0h4m1 0h1m6 0h1m5 0h4m2 0h1m2 0h1m2 0h1m3 0h2m4 0h1m1 0h1m1 0h2m1 0h1m4 0h1m2 0h2m6 0h1M4 68.5h1m1 0h2m2 0h1m1 0h2m1 0h2m1 0h1m2 0h1m1 0h1m1 0h2m1 0h1m2 0h2m2 0h3m1 0h1m1 0h1m1 0h2m1 0h1m1 0h2m1 0h1m6 0h1m6 0h2m2 0h1m4 0h5m2 0h1m4 0h2m1 0h3m3 0h1m1 0h8m8 0h1m1 0h1m1 0h4m3 0h2m2 0h1m4 0h4M5 69.5h5m1 0h1m2 0h1m1 0h1m1 0h2m1 0h1m1 0h1m7 0h2m1 0h9m2 0h1m1 0h1m1 0h2m1 0h4m2 0h2m1 0h3m1 0h2m1 0h2m1 0h1m1 0h3m3 0h1m2 0h2m1 0h1m1 0h1m2 0h3m3 0h4m1 0h1m5 0h3m1 0h2m5 0h1m1 0h2m1 0h6m3 0h1m1 0h1M6 70.5h3m1 0h2m3 0h1m2 0h2m1 0h6m1 0h3m1 0h4m2 0h3m1 0h5m5 0h5m2 0h2m3 0h1m1 0h2m2 0h1m3 0h1m1 0h1m3 0h1m1 0h1m1 0h1m2 0h2m2 0h1m2 0h2m3 0h3m2 0h3m1 0h5m3 0h1m1 0h2m1 0h3m3 0h7m1 0h2M7 71.5h3m3 0h1m1 0h3m1 0h2m3 0h2m5 0h1m2 0h1m1 0h4m3 0h1m1 0h1m1 0h1m1 0h1m1 0h1m3 0h4m1 0h2m2 0h1m3 0h1m1 0h1m1 0h2m2 0h1m1 0h4m1 0h1m4 0h2m4 0h2m10 0h2m5 0h6m1 0h1m4 0h3m1 0h1m1 0h1m3 0h2M5 72.5h3m1 0h2m1 0h1m1 0h1m3 0h3m3 0h1m4 0h1m1 0h2m2 0h2m1 0h1m5 0h1m1 0h1m1 0h2m5 0h1m1 0h4m1 0h1m2 0h1m1 0h1m1 0h2m3 0h4m2 0h1m1 0h2m1 0h4m1 0h3m3 0h4m2 0h1m1 0h1m1 0h1m4 0h1m1 0h1m1 0h2m1 0h3m4 0h1m4 0h1m2 0h3M4 73.5h2m3 0h1m1 0h2m1 0h1m2 0h1m5 0h6m4 0h1m3 0h1m2 0h1m1 0h1m2 0h1m1 0h1m1 0h2m1 0h6m2 0h2m1 0h4m1 0h1m2 0h3m1 0h1m1 0h9m1 0h1m2 0h3m1 0h3m1 0h1m2 0h3m3 0h4m1 0h1m1 0h1m5 0h2m1 0h3m1 0h1M4 74.5h1m2 0h1m1 0h3m2 0h3m3 0h1m1 0h10m3 0h2m1 0h3m1 0h4m1 0h4m2 0h3m2 0h4m4 0h2m5 0h2m5 0h3m1 0h2m2 0h2m1 0h1m2 0h2m1 0h4m1 0h2m1 0h3m1 0h4m3 0h1m1 0h7m1 0h2m2 0h1m1 0h1m2 0h2M6 75.5h4m1 0h3m1 0h6m2 0h1m1 0h2m2 0h5m2 0h1m4 0h2m1 0h1m1 0h1m3 0h1m1 0h1m1 0h3m1 0h1m2 0h4m1 0h3m2 0h3m4 0h1m2 0h1m1 0h1m7 0h1m1 0h2m1 0h1m2 0h1m1 0h1m1 0h1m3 0h1m2 0h1m1 0h7m6 0h1m5 0h1m3 0h1M4 76.5h5m1 0h1m1 0h1m1 0h1m2 0h2m2 0h1m1 0h2m4 0h2m3 0h3m7 0h5m4 0h1m1 0h1m1 0h2m3 0h1m1 0h2m1 0h3m7 0h1m3 0h1m1 0h1m2 0h1m1 0h6m1 0h8m2 0h2m1 0h1m3 0h2m1 0h4m4 0h1m2 0h1m1 0h1m3 0h1m1 0h1m1 0h1M5 77.5h1m5 0h1m1 0h1m1 0h6m3 0h2m6 0h1m3 0h3m1 0h4m3 0h1m1 0h2m1 0h6m3 0h3m2 0h1m2 0h9m1 0h1m1 0h1m2 0h1m1 0h1m5 0h2m1 0h2m5 0h1m3 0h1m1 0h2m1 0h1m1 0h3m1 0h1m4 0h2m2 0h2m1 0h4m1 0h2M5 78.5h1m2 0h6m2 0h4m1 0h1m1 0h4m2 0h4m1 0h1m2 0h2m1 0h3m2 0h3m2 0h1m1 0h2m2 0h1m1 0h2m1 0h1m2 0h1m2 0h2m3 0h3m1 0h1m2 0h7m1 0h2m1 0h1m7 0h3m4 0h1m3 0h4m1 0h1m1 0h1m1 0h2m1 0h1m1 0h2m2 0h2m1 0h2m2 0h1m1 0h1M4 79.5h2m6 0h3m1 0h1m1 0h3m1 0h2m3 0h5m2 0h1m1 0h1m5 0h3m1 0h5m2 0h1m1 0h4m1 0h3m1 0h1m1 0h2m2 0h5m4 0h2m11 0h3m1 0h1m9 0h2m4 0h6m6 0h2m5 0h1M4 80.5h1m2 0h6m2 0h3m1 0h5m6 0h8m3 0h1m1 0h2m1 0h1m3 0h1m2 0h1m2 0h5m1 0h1m1 0h2m1 0h1m1 0h3m3 0h1m1 0h2m1 0h8m2 0h1m4 0h5m1 0h8m1 0h1m2 0h3m2 0h1m1 0h1m1 0h3m1 0h1m1 0h9M5 81.5h1m1 0h2m3 0h3m1 0h1m1 0h1m2 0h1m1 0h1m1 0h1m1 0h1m2 0h1m1 0h1m3 0h5m1 0h2m3 0h3m2 0h1m1 0h3m3 0h5m1 0h1m2 0h3m3 0h4m1 0h1m3 0h2m5 0h2m1 0h1m1 0h1m5 0h1m1 0h1m3 0h2m1 0h2m1 0h1m2 0h6m1 0h1m1 0h3m3 0h3M4 82.5h1m1 0h3m1 0h1m1 0h1m1 0h1m2 0h2m1 0h2m4 0h7m1 0h1m1 0h1m1 0h1m4 0h3m2 0h2m2 0h2m2 0h1m1 0h1m1 0h2m2 0h1m2 0h1m1 0h1m2 0h1m1 0h1m2 0h1m1 0h2m1 0h1m1 0h1m2 0h3m3 0h3m1 0h1m2 0h1m2 0h2m1 0h1m1 0h4m4 0h1m2 0h1m1 0h1m1 0h1m3 0h2m1 0h1m1 0h1m2 0h2M4 83.5h2m1 0h2m3 0h2m9 0h2m1 0h2m3 0h2m3 0h4m1 0h1m2 0h1m1 0h4m1 0h2m2 0h2m3 0h5m1 0h1m1 0h1m1 0h1m1 0h2m1 0h1m2 0h1m1 0h1m3 0h2m2 0h1m2 0h4m1 0h1m2 0h3m1 0h2m3 0h1m3 0h2m1 0h3m2 0h1m4 0h1m2 0h1m3 0h1m2 0h2M5 84.5h9m1 0h1m2 0h3m3 0h2m2 0h3m1 0h5m4 0h1m2 0h1m1 0h1m1 0h1m4 0h1m2 0h5m3 0h3m1 0h4m2 0h5m1 0h8m2 0h2m1 0h1m1 0h2m1 0h3m1 0h9m1 0h4m1 0h1m5 0h1m3 0h8M4 85.5h1m2 0h1m1 0h1m1 0h1m3 0h1m1 0h7m1 0h1m1 0h1m2 0h2m5 0h2m1 0h3m2 0h1m1 0h1m1 0h2m1 0h1m1 0h1m2 0h1m5 0h3m2 0h6m1 0h3m1 0h1m3 0h1m6 0h4m2 0h2m6 0h3m2 0h6m5 0h1m1 0h1m1 0h1m4 0h2m1 0h2M6 86.5h3m1 0h4m3 0h2m7 0h2m1 0h1m2 0h1m1 0h1m1 0h1m5 0h1m1 0h1m3 0h1m2 0h3m2 0h1m4 0h2m1 0h1m2 0h1m2 0h1m1 0h2m3 0h4m1 0h1m1 0h2m1 0h5m3 0h1m2 0h1m1 0h2m4 0h1m2 0h1m4 0h1m3 0h4m1 0h2m2 0h6m2 0h2M4 87.5h2m1 0h2m2 0h2m1 0h6m2 0h4m1 0h6m2 0h1m3 0h5m1 0h4m2 0h3m1 0h2m1 0h4m1 0h1m3 0h2m3 0h2m5 0h1m2 0h1m1 0h2m5 0h1m2 0h2m3 0h2m4 0h2m1 0h1m4 0h3m6 0h1m1 0h2m3 0h5m2 0h1M5 88.5h4m1 0h1m1 0h2m2 0h1m1 0h1m1 0h1m2 0h1m2 0h1m3 0h3m1 0h3m6 0h2m1 0h3m7 0h3m1 0h1m1 0h1m2 0h1m1 0h3m1 0h9m3 0h1m2 0h7m2 0h1m1 0h2m3 0h3m1 0h2m1 0h1m3 0h2m1 0h1m3 0h2m9 0h1m1 0h2M4 89.5h1m2 0h2m2 0h2m1 0h1m1 0h1m1 0h2m3 0h1m1 0h3m1 0h2m1 0h1m4 0h2m1 0h4m1 0h1m4 0h1m1 0h3m1 0h2m1 0h1m3 0h3m3 0h1m1 0h2m2 0h1m3 0h8m5 0h1m2 0h2m1 0h1m2 0h3m1 0h2m2 0h4m4 0h1m4 0h1m1 0h1m1 0h4m1 0h1m2 0h1M4 90.5h2m1 0h1m1 0h2m1 0h2m2 0h3m1 0h1m1 0h1m1 0h1m1 0h1m2 0h1m1 0h2m2 0h3m1 0h4m2 0h1m1 0h1m1 0h6m1 0h1m5 0h1m1 0h1m1 0h2m2 0h1m2 0h2m1 0h1m1 0h1m1 0h1m1 0h2m1 0h1m1 0h2m1 0h1m3 0h2m1 0h4m8 0h1m1 0h1m2 0h1m1 0h1m2 0h3m1 0h1m4 0h3m2 0h1m2 0h1M4 91.5h4m1 0h1m4 0h4m1 0h1m1 0h2m1 0h2m1 0h1m3 0h5m4 0h1m3 0h1m1 0h3m3 0h1m2 0h1m3 0h3m2 0h1m1 0h3m1 0h6m3 0h1m1 0h2m1 0h1m2 0h3m1 0h1m1 0h2m4 0h1m1 0h1m2 0h3m1 0h1m1 0h1m2 0h1m1 0h1m10 0h1m2 0h2m1 0h2m1 0h2M8 92.5h1m1 0h1m1 0h1m1 0h3m1 0h1m1 0h2m9 0h6m4 0h1m2 0h5m6 0h4m1 0h1m1 0h1m1 0h2m3 0h4m2 0h1m1 0h2m1 0h2m3 0h2m3 0h1m1 0h2m2 0h5m1 0h2m2 0h4m2 0h2m2 0h1m1 0h4m1 0h1m1 0h1m1 0h5m2 0h3M5 93.5h1m1 0h2m4 0h4m1 0h1m1 0h2m4 0h2m3 0h1m6 0h3m1 0h2m5 0h6m1 0h5m2 0h1m3 0h7m1 0h3m1 0h1m5 0h1m3 0h6m1 0h3m2 0h1m1 0h1m1 0h1m3 0h4m2 0h1m2 0h1m1 0h4m4 0h2m5 0h1M5 94.5h1m2 0h4m10 0h3m4 0h1m2 0h3m1 0h1m5 0h2m2 0h2m2 0h1m1 0h1m1 0h1m1 0h1m1 0h1m1 0h2m2 0h1m2 0h1m1 0h2m5 0h1m1 0h2m2 0h1m1 0h2m1 0h3m3 0h1m5 0h4m5 0h2m1 0h2m6 0h3m1 0h1m3 0h2m1 0h2m4 0h1M4 95.5h3m1 0h1m2 0h1m1 0h2m1 0h3m1 0h3m2 0h1m1 0h3m1 0h2m1 0h2m3 0h1m1 0h1m1 0h4m2 0h1m1 0h1m1 0h3m3 0h4m3 0h2m5 0h2m6 0h2m1 0h1m3 0h2m1 0h1m2 0h1m1 0h1m2 0h1m1 0h1m3 0h1m2 0h1m4 0h1m1 0h4m3 0h1m1 0h3m3 0h1m4 0h2M4 96.5h2m1 0h1m1 0h2m1 0h1m2 0h3m1 0h4m4 0h2m3 0h1m1 0h3m6 0h2m1 0h4m1 0h2m2 0h1m1 0h1m5 0h4m1 0h1m2 0h1m4 0h3m4 0h1m1 0h3m2 0h1m4 0h5m2 0h7m4 0h1m1 0h6m3 0h1m1 0h2m1 0h1m1 0h1m1 0h3M7 97.5h1m6 0h2m3 0h1m1 0h1m1 0h1m1 0h1m2 0h1m2 0h2m2 0h1m1 0h4m1 0h2m1 0h3m2 0h1m1 0h3m2 0h7m1 0h8m2 0h1m1 0h1m4 0h2m1 0h1m3 0h1m1 0h2m1 0h1m1 0h3m3 0h2m4 0h1m1 0h1m1 0h1m2 0h3m3 0h4m1 0h1m1 0h2m3 0h3M5 98.5h2m1 0h4m2 0h3m1 0h1m3 0h2m1 0h1m1 0h1m6 0h1m1 0h1m1 0h1m2 0h1m1 0h1m2 0h1m3 0h3m5 0h2m1 0h1m4 0h4m2 0h1m1 0h1m1 0h2m2 0h1m1 0h4m2 0h2m3 0h1m6 0h3m3 0h2m1 0h1m1 0h2m6 0h1m1 0h1m1 0h1m3 0h2m1 0h3m2 0h2M4 99.5h4m5 0h3m1 0h1m4 0h1m3 0h3m1 0h1m1 0h1m4 0h1m2 0h1m4 0h1m3 0h1m2 0h5m2 0h4m1 0h1m2 0h1m2 0h2m1 0h1m1 0h2m1 0h2m1 0h4m4 0h1m3 0h2m5 0h2m2 0h2m4 0h1m1 0h2m1 0h2m3 0h1m4 0h1m4 0h1m1 0h2m1 0h1M4 100.5h4m2 0h1m1 0h1m4 0h1m4 0h1m1 0h3m2 0h1m3 0h2m1 0h1m6 0h4m1 0h2m1 0h1m3 0h3m4 0h1m1 0h3m2 0h1m1 0h2m1 0h1m2 0h1m5 0h1m1 0h1m2 0h1m1 0h4m1 0h4m1 0h1m1 0h3m1 0h2m1 0h1m3 0h1m1 0h1m1 0h2m2 0h2m1 0h2m5 0h1m1 0h4M4 101.5h3m1 0h2m3 0h1m3 0h1m2 0h4m2 0h4m1 0h2m2 0h9m1 0h1m1 0h1m1 0h4m1 0h3m1 0h3m1 0h3m3 0h1m2 0h2m1 0h2m1 0h1m1 0h2m4 0h1m4 0h1m1 0h1m3 0h1m5 0h1m3 0h1m1 0h3m1 0h1m3 0h2m1 0h1m3 0h1m7 0h1m2 0h2M5 102.5h1m1 0h4m1 0h1m1 0h1m3 0h3m1 0h1m1 0h2m1 0h1m1 0h1m5 0h8m2 0h2m1 0h1m3 0h5m1 0h2m1 0h2m3 0h5m1 0h2m3 0h2m1 0h2m3 0h5m1 0h1m2 0h2m1 0h1m2 0h1m5 0h1m2 0h1m1 0h1m6 0h7m1 0h3m1 0h2m1 0h1m2 0h1M5 103.5h2m2 0h1m1 0h2m1 0h1m1 0h1m1 0h1m1 0h1m3 0h2m1 0h2m1 0h2m2 0h1m2 0h1m1 0h2m1 0h1m3 0h4m4 0h2m2 0h2m1 0h1m4 0h1m4 0h3m4 0h2m1 0h5m2 0h2m1 0h5m4 0h1m3 0h4m4 0h2m1 0h3m2 0h1m4 0h2m2 0h2m1 0h1M6 104.5h1m1 0h5m2 0h1m3 0h5m1 0h1m1 0h1m2 0h1m1 0h5m2 0h3m1 0h6m4 0h1m2 0h5m1 0h2m1 0h2m1 0h2m4 0h1m1 0h3m1 0h5m1 0h2m1 0h2m1 0h2m2 0h3m3 0h7m1 0h1m1 0h1m1 0h5m2 0h1m2 0h1m2 0h8m1 0h1M6 105.5h3m3 0h4m2 0h4m2 0h1m1 0h1m2 0h1m1 0h2m3 0h1m3 0h1m1 0h1m7 0h3m1 0h1m1 0h1m3 0h2m1 0h1m1 0h2m2 0h1m1 0h1m1 0h3m1 0h1m1 0h2m3 0h1m1 0h2m2 0h3m1 0h1m1 0h1m5 0h1m1 0h1m3 0h3m3 0h2m3 0h1m1 0h2m1 0h1m3 0h1m3 0h1m2 0h1M5 106.5h2m1 0h1m1 0h1m1 0h2m4 0h2m1 0h5m1 0h3m1 0h2m1 0h1m1 0h6m3 0h2m1 0h1m1 0h2m1 0h2m1 0h1m1 0h1m1 0h3m2 0h4m1 0h1m3 0h1m1 0h1m3 0h1m1 0h1m1 0h5m6 0h1m1 0h1m1 0h3m2 0h1m1 0h1m1 0h2m1 0h1m2 0h1m1 0h1m1 0h7m1 0h1m1 0h1m1 0h1m1 0h1m1 0h1m1 0h1M5 107.5h1m1 0h2m3 0h2m3 0h2m1 0h1m1 0h1m1 0h2m3 0h1m2 0h1m3 0h1m1 0h1m1 0h1m2 0h3m1 0h1m1 0h1m3 0h4m3 0h4m2 0h2m3 0h1m1 0h2m3 0h3m3 0h1m2 0h2m2 0h1m1 0h2m6 0h1m2 0h1m3 0h1m1 0h1m1 0h2m1 0h1m1 0h1m2 0h3m1 0h3m1 0h1m3 0h1M6 108.5h1m1 0h5m1 0h2m5 0h1m2 0h1m1 0h1m5 0h6m1 0h1m3 0h4m1 0h1m7 0h5m1 0h9m1 0h1m4 0h1m1 0h12m1 0h1m3 0h2m1 0h1m2 0h1m1 0h5m3 0h1m3 0h3m1 0h1m3 0h3m1 0h6m1 0h1M5 109.5h1m2 0h2m1 0h5m3 0h1m2 0h1m1 0h2m2 0h11m1 0h1m1 0h1m6 0h2m1 0h3m2 0h2m2 0h1m1 0h4m2 0h1m2 0h1m2 0h1m4 0h1m4 0h3m1 0h1m1 0h2m1 0h1m1 0h2m3 0h1m1 0h2m2 0h1m2 0h5m1 0h2m1 0h1m1 0h2m1 0h1m1 0h1m6 0h3M5 110.5h2m1 0h3m2 0h3m1 0h3m1 0h4m2 0h1m1 0h1m3 0h2m1 0h1m3 0h3m2 0h3m1 0h1m1 0h1m2 0h2m1 0h1m1 0h4m1 0h1m1 0h3m4 0h2m1 0h1m2 0h5m4 0h2m3 0h1m1 0h1m1 0h5m4 0h1m1 0h2m1 0h1m2 0h1m3 0h6m3 0h3m1 0h1m1 0h1m1 0h2M4 111.5h2m1 0h1m3 0h2m2 0h1m1 0h2m1 0h1m1 0h1m2 0h2m2 0h2m1 0h1m3 0h1m5 0h4m1 0h1m4 0h2m2 0h1m1 0h7m2 0h2m1 0h1m2 0h1m1 0h1m2 0h4m1 0h1m3 0h3m4 0h2m1 0h1m2 0h1m9 0h1m1 0h6m3 0h2m1 0h2m1 0h1m1 0h5m1 0h1M4 112.5h2m2 0h3m1 0h3m1 0h3m1 0h5m1 0h1m1 0h3m3 0h2m5 0h2m1 0h3m1 0h2m1 0h1m3 0h2m2 0h2m1 0h1m1 0h2m3 0h2m1 0h1m1 0h6m1 0h2m1 0h1m1 0h1m1 0h1m1 0h1m5 0h4m2 0h5m2 0h1m2 0h1m3 0h1m1 0h1m1 0h2m3 0h4m1 0h1m1 0h3m1 0h1M5 113.5h3m4 0h2m2 0h2m1 0h2m2 0h1m1 0h2m2 0h3m2 0h3m2 0h2m6 0h1m2 0h6m1 0h2m4 0h2m3 0h2m1 0h1m1 0h5m2 0h1m2 0h1m2 0h1m2 0h4m1 0h3m2 0h1m1 0h1m1 0h6m2 0h1m2 0h2m1 0h2m2 0h2m1 0h1m1 0h1m4 0h1m1 0h1M5 114.5h2m1 0h8m2 0h4m1 0h1m7 0h1m3 0h2m1 0h4m6 0h1m2 0h1m1 0h1m1 0h1m1 0h3m1 0h1m2 0h1m1 0h2m2 0h1m5 0h1m1 0h2m2 0h2m3 0h2m1 0h2m1 0h2m2 0h1m1 0h2m2 0h1m1 0h1m3 0h4m1 0h3m1 0h2m1 0h3m2 0h4m2 0h1m2 0h2M4 115.5h2m1 0h1m7 0h1m4 0h2m2 0h2m8 0h1m1 0h3m2 0h1m4 0h1m2 0h1m2 0h5m1 0h1m2 0h4m1 0h1m3 0h1m1 0h2m1 0h1m3 0h4m1 0h2m1 0h3m1 0h1m2 0h1m4 0h3m1 0h1m2 0h1m1 0h1m1 0h1m2 0h1m1 0h1m1 0h2m3 0h1m2 0h1m3 0h4m2 0h2M6 116.5h2m1 0h2m3 0h1m1 0h1m2 0h2m1 0h2m1 0h2m5 0h1m2 0h1m5 0h1m1 0h4m1 0h2m1 0h1m1 0h1m1 0h2m2 0h1m2 0h1m1 0h2m1 0h4m3 0h6m2 0h6m2 0h1m5 0h3m3 0h4m3 0h2m2 0h1m1 0h2m6 0h2m5 0h3m1 0h1m1 0h1M5 117.5h1m1 0h3m4 0h1m1 0h2m1 0h4m2 0h1m2 0h4m2 0h1m3 0h1m1 0h1m6 0h1m1 0h4m1 0h2m1 0h2m1 0h2m1 0h2m1 0h1m1 0h2m1 0h2m2 0h2m3 0h2m4 0h2m1 0h1m1 0h2m3 0h4m3 0h6m5 0h3m2 0h3m2 0h1m1 0h1m1 0h1m2 0h1m3 0h1M6 118.5h1m3 0h2m2 0h3m3 0h1m1 0h1m2 0h1m2 0h2m5 0h1m7 0h2m3 0h1m1 0h1m1 0h4m1 0h6m2 0h1m1 0h4m1 0h2m2 0h4m2 0h2m1 0h1m1 0h2m4 0h1m1 0h1m3 0h2m8 0h1m1 0h1m3 0h2m1 0h2m1 0h3m2 0h5m1 0h3m1 0h1M4 119.5h1m1 0h1m2 0h1m2 0h1m1 0h2m3 0h4m2 0h1m2 0h1m1 0h3m1 0h1m1 0h1m2 0h2m1 0h2m2 0h5m3 0h2m2 0h1m2 0h2m3 0h1m4 0h5m3 0h2m3 0h1m6 0h2m1 0h4m5 0h1m9 0h6m5 0h4m1 0h1m1 0h2m2 0h2M5 120.5h2m3 0h1m2 0h6m1 0h2m1 0h6m4 0h3m7 0h1m1 0h2m1 0h2m1 0h1m1 0h2m1 0h1m2 0h2m1 0h1m1 0h4m1 0h2m1 0h1m1 0h5m1 0h1m1 0h1m1 0h1m1 0h2m2 0h2m3 0h1m1 0h7m1 0h1m4 0h1m1 0h2m3 0h3m5 0h1m3 0h6M4 121.5h1m2 0h2m4 0h2m3 0h3m3 0h1m4 0h3m1 0h2m4 0h4m1 0h2m3 0h2m1 0h1m2 0h1m1 0h1m3 0h3m6 0h2m1 0h6m1 0h1m2 0h1m1 0h1m6 0h8m1 0h7m1 0h3m2 0h2m2 0h1m1 0h7m1 0h1m4 0h3M4 122.5h1m3 0h3m1 0h2m1 0h5m2 0h3m4 0h5m1 0h1m1 0h2m2 0h1m1 0h2m4 0h2m3 0h6m4 0h1m1 0h3m4 0h2m1 0h6m5 0h2m4 0h3m1 0h1m1 0h2m4 0h1m3 0h1m1 0h1m4 0h1m1 0h4m1 0h2m1 0h2m1 0h3m1 0h1m1 0h2M4 123.5h4m1 0h1m1 0h3m1 0h1m3 0h5m1 0h2m3 0h1m1 0h3m1 0h1m1 0h2m1 0h2m1 0h2m3 0h1m2 0h5m1 0h1m2 0h1m1 0h2m2 0h2m1 0h1m2 0h1m2 0h1m6 0h3m1 0h2m2 0h4m2 0h1m2 0h1m3 0h1m8 0h3m1 0h1m2 0h1m1 0h1m1 0h7m2 0h1m2 0h1M4 124.5h2m2 0h1m1 0h1m3 0h1m3 0h1m2 0h1m1 0h1m1 0h4m2 0h1m2 0h2m1 0h1m1 0h1m5 0h5m3 0h1m1 0h1m3 0h1m4 0h2m3 0h4m2 0h5m1 0h2m1 0h1m1 0h3m1 0h1m1 0h1m1 0h2m1 0h2m3 0h1m1 0h2m1 0h1m2 0h1m1 0h1m3 0h5m7 0h1m1 0h1m1 0h5M4 125.5h1m1 0h3m3 0h4m2 0h2m2 0h1m3 0h1m1 0h2m1 0h5m2 0h1m1 0h1m1 0h1m4 0h1m2 0h1m1 0h1m1 0h1m1 0h2m4 0h2m4 0h1m2 0h3m1 0h4m1 0h1m2 0h1m2 0h2m1 0h1m1 0h2m3 0h1m4 0h2m1 0h9m1 0h1m2 0h1m1 0h2m1 0h1m1 0h2m3 0h1m1 0h1m4 0h1M4 126.5h2m1 0h4m1 0h7m3 0h1m1 0h1m1 0h2m1 0h3m4 0h2m1 0h5m1 0h2m2 0h1m1 0h7m2 0h2m3 0h1m1 0h1m5 0h2m3 0h2m1 0h1m1 0h1m1 0h5m1 0h1m1 0h3m2 0h1m1 0h1m1 0h2m1 0h2m2 0h1m1 0h1m2 0h1m1 0h1m1 0h2m1 0h1m1 0h1m3 0h2m1 0h1m1 0h1m2 0h2M4 127.5h2m3 0h1m6 0h1m2 0h1m1 0h2m3 0h1m1 0h6m1 0h2m2 0h2m3 0h1m2 0h1m1 0h1m2 0h2m2 0h1m2 0h1m1 0h2m1 0h1m3 0h1m4 0h2m1 0h1m1 0h3m2 0h2m2 0h3m1 0h1m2 0h1m1 0h1m3 0h2m1 0h1m4 0h1m1 0h1m1 0h6m4 0h1m2 0h3m4 0h2M4 128.5h3m1 0h1m1 0h3m1 0h5m1 0h1m3 0h2m1 0h1m4 0h6m3 0h1m2 0h3m6 0h1m1 0h6m1 0h2m1 0h1m2 0h4m2 0h1m1 0h13m1 0h1m4 0h1m1 0h3m2 0h7m1 0h1m2 0h1m1 0h1m1 0h2m1 0h1m3 0h2m2 0h7M12 129.5h1m3 0h1m1 0h2m1 0h1m1 0h6m1 0h1m1 0h1m3 0h1m3 0h1m1 0h2m1 0h3m1 0h1m2 0h1m1 0h1m1 0h1m3 0h5m1 0h1m1 0h5m2 0h1m1 0h1m2 0h1m3 0h1m2 0h1m2 0h5m1 0h4m1 0h1m1 0h2m3 0h5m6 0h2m1 0h3m2 0h2m3 0h1M4 130.5h7m1 0h1m1 0h1m3 0h4m1 0h4m2 0h4m1 0h1m1 0h1m2 0h1m5 0h1m4 0h3m1 0h1m1 0h1m1 0h1m1 0h1m3 0h1m2 0h3m2 0h3m1 0h1m3 0h1m1 0h1m1 0h2m2 0h3m2 0h1m1 0h1m1 0h1m1 0h2m3 0h1m1 0h1m1 0h2m1 0h2m1 0h1m1 0h1m2 0h3m1 0h1m4 0h1m1 0h1m1 0h2m1 0h2M4 131.5h1m5 0h1m2 0h2m1 0h2m1 0h2m3 0h1m1 0h7m3 0h1m3 0h2m2 0h1m1 0h2m1 0h1m1 0h6m3 0h2m4 0h1m3 0h5m1 0h1m1 0h3m3 0h2m3 0h1m4 0h3m7 0h1m3 0h1m3 0h2m1 0h1m1 0h1m2 0h1m1 0h1m1 0h2m2 0h1m3 0h2M4 132.5h1m1 0h3m1 0h1m1 0h3m1 0h2m2 0h1m1 0h1m3 0h1m2 0h1m2 0h5m7 0h6m3 0h1m1 0h6m1 0h2m1 0h1m1 0h3m1 0h1m1 0h3m1 0h8m1 0h1m1 0h1m1 0h1m1 0h1m2 0h5m2 0h1m1 0h5m1 0h3m1 0h1m3 0h1m2 0h1m3 0h10m1 0h1M4 133.5h1m1 0h3m1 0h1m1 0h3m8 0h1m2 0h1m1 0h1m3 0h2m1 0h1m1 0h7m1 0h2m2 0h2m1 0h1m1 0h1m1 0h1m2 0h1m1 0h1m1 0h1m2 0h1m2 0h1m1 0h2m2 0h2m1 0h2m1 0h4m5 0h3m1 0h5m2 0h3m1 0h1m1 0h2m3 0h2m1 0h1m1 0h1m2 0h2m1 0h1m2 0h2m1 0h2m1 0h1m1 0h1m1 0h1M4 134.5h1m1 0h3m1 0h1m1 0h2m5 0h1m1 0h1m4 0h2m4 0h4m2 0h1m1 0h1m1 0h1m2 0h1m1 0h1m1 0h1m2 0h1m4 0h1m2 0h1m6 0h1m5 0h1m4 0h1m4 0h1m3 0h2m4 0h2m5 0h2m2 0h1m1 0h2m1 0h4m3 0h1m1 0h2m1 0h1m1 0h2m1 0h1m4 0h1m4 0h1M4 135.5h1m5 0h1m1 0h5m1 0h1m1 0h3m1 0h1m1 0h1m1 0h2m5 0h1m1 0h1m1 0h3m1 0h1m2 0h2m5 0h2m3 0h1m2 0h2m3 0h3m1 0h2m1 0h1m5 0h4m1 0h1m3 0h2m1 0h5m3 0h3m2 0h1m1 0h1m1 0h1m1 0h1m2 0h1m1 0h1m1 0h1m6 0h7m1 0h2m2 0h1M4 136.5h7m1 0h3m1 0h1m2 0h4m2 0h1m1 0h2m1 0h1m1 0h2m2 0h1m4 0h1m1 0h5m1 0h1m1 0h1m1 0h1m1 0h2m2 0h1m3 0h1m1 0h1m3 0h2m2 0h2m1 0h2m4 0h3m1 0h1m3 0h2m1 0h1m2 0h3m1 0h1m1 0h1m5 0h1m1 0h1m1 0h1m2 0h2m1 0h1m1 0h1m1 0h1m2 0h2m3 0h7"/></svg>
