<?xml version="1.0" encoding="utf-8"?><!DOCTYPE svg PUBLIC "-//W3C//DTD SVG 1.1//EN" "http://www.w3.org/Graphics/SVG/1.1/DTD/svg11.dtd"><svg xmlns="http://www.w3.org/2000/svg" viewBox="0 0 181 181" shape-rendering="crispEdges"><path fill="#ffffff" d="M0 0h181v181H0z"/><path stroke="#000000" d="M4 4.5h7m3 0h3m2 0h3m2 0h1m1 0h2m4 0h1m1 0h1m1 0h2m1 0h10m2 0h1m4 0h1m2 0h1m4 0h2m1 0h1m2 0h1m3 0h1m1 0h1m1 0h1m3 0h1m2 0h2m2 0h1m1 0h4m1 0h2m8 0h1m1 0h2m1 0h2m2 0h2m2 0h1m2 0h1m1 0h4m1 0h1m1 0h1m2 0h3m1 0h1m2 0h3m2 0h1m5 0h3m1 0h1m1 0h1m2 0h2m1 0h3m3 0h7M4 5.5h1m5 0h1m1 0h1m1 0h4m4 0h1m3 0h3m1 0h2m2 0h4m1 0h2m2 0h1m8 0h3m5 0h1m2 0h1m4 0h1m1 0h1m1 0h2m5 0h2m1 0h4m1 0h2m1 0h2m1 0h1m1 0h1m1 0h2m2 0h3m1 0h1m4 0h2m4 0h1m5 0h1m1 0h4m2 0h1m3 0h1m2 0h1m5 0h3m2 0h1m1 0h1m3 0h1m2 0h2m1 0h1m2 0h1m1 0h1m4 0h1m5 0h1M4 6.5h1m1 0h3m1 0h1m4 0h1m1 0h2m1 0h1m1 0h2m1 0h2m6 0h9m4 0h2m3 0h3m1 0h1m1 0h2m2 0h2m1 0h4m5 0h4m1 0h2m7 0h3m1 0h2m2 0h2m4 0h1m1 0h4m1 0h1m2 0h1m2 0h1m2 0h1m1 0h1m1 0h1m1 0h1m3 0h3m1 0h5m4 0h1m1 0h4m1 0h1m5 0h3m1 0h1m3 0h1m2 0h3m1 0h1m1 0h1m1 0h3m1 0h1M4 7.5h1m1 0h3m1 0h1m1 0h1m1 0h1m3 0h1m1 0h1m1 0h1m4 0h1m2 0h4m8 0h3m5 0h2m1 0h10m2 0h3m4 0h1m1 0h1m2 0h3m1 0h3m5 0h1m1 0h1m1 0h3m3 0h2m5 0h1m2 0h2m1 0h3m1 0h6m3 0h1m1 0h7m3 0h1m1 0h2m4 0h7m1 0h1m1 0h1m1 0h4m1 0h1m2 0h1m1 0h1m2 0h1m1 0h3m1 0h1M4 8.5h1m1 0h3m1 0h1m2 0h1m2 0h3m3 0h2m1 0h1m2 0h6m1 0h1m4 0h3m3 0h3m1 0h1m3 0h7m1 0h1m1 0h1m3 0h1m1 0h1m2 0h2m1 0h1m1 0h1m1 0h1m1 0h1m1 0h5m4 0h2m2 0h1m2 0h2m4 0h1m2 0h1m1 0h7m1 0h1m2 0h1m1 0h1m1 0h2m3 0h1m1 0h2m1 0h1m1 0h1m1 0h8m1 0h2m2 0h2m1 0h1m1 0h1m2 0h4m1 0h3m1 0h1m1 0h3m1 0h1M4 9.5h1m5 0h1m1 0h1m2 0h1m1 0h2m1 0h4m2 0h3m3 0h2m2 0h1m1 0h2m1 0h1m8 0h3m3 0h1m3 0h2m1 0h1m4 0h6m1 0h1m1 0h4m1 0h1m1 0h1m3 0h1m1 0h4m1 0h10m2 0h1m1 0h4m3 0h3m1 0h1m1 0h1m2 0h3m2 0h2m4 0h5m3 0h1m2 0h3m4 0h1m5 0h2m6 0h1m1 0h1m5 0h1M4 10.5h7m1 0h1m1 0h1m1 0h1m1 0h1m1 0h1m1 0h1m1 0h1m1 0h1m1 0h1m1 0h1m1 0h1m1 0h1m1 0h1m1 0h1m1 0h1m1 0h1m1 0h1m1 0h1m1 0h1m1 0h1m1 0h1m1 0h1m1 0h1m1 0h1m1 0h1m1 0h1m1 0h1m1 0h1m1 0h1m1 0h1m1 0h1m1 0h1m1 0h1m1 0h1m1 0h1m1 0h1m1 0h1m1 0h1m1 0h1m1 0h1m1 0h1m1 0h1m1 0h1m1 0h1m1 0h1m1 0h1m1 0h1m1 0h1m1 0h1m1 0h1m1 0h1m1 0h1m1 0h1m1 0h1m1 0h1m1 0h1m1 0h1m1 0h1m1 0h1m1 0h1m1 0h1m1 0h1m1 0h1m1 0h1m1 0h1m1 0h1m1 0h1m1 0h1m1 0h1m1 0h1m1 0h1m1 0h1m1 0h1m1 0h1m1 0h1m1 0h1m1 0h1m1 0h1m1 0h1m1 0h7M13 11.5h4m3 0h1m1 0h1m2 0h1m1 0h2m3 0h1m5 0h1m4 0h1m2 0h1m1 0h1m7 0h1m3 0h1m1 0h5m6 0h4m7 0h1m3 0h2m1 0h1m1 0h5m6 0h2m2 0h2m1 0h2m3 0h3m1 0h1m3 0h1m1 0h1m9 0h1m1 0h1m1 0h1m3 0h2m1 0h1m4 0h1m1 0h2m1 0h1m2 0h1m2 0h2m1 0h1M4 12.5h5m1 0h3m3 0h3m4 0h3m1 0h9m2 0h1m1 0h3m1 0h1m5 0h1m1 0h1m1 0h8m2 0h1m1 0h3m3 0h1m1 0h2m3 0h1m1 0h1m1 0h8m1 0h1m4 0h2m1 0h1m1 0h2m2 0h1m2 0h2m1 0h5m1 0h3m2 0h1m3 0h2m1 0h1m1 0h2m1 0h1m4 0h7m1 0h1m1 0h2m4 0h1m1 0h2m1 0h2m1 0h1m4 0h1m1 0h1m1 0h1m1 0h1M4 13.5h4m1 0h1m3 0h1m3 0h1m1 0h1m2 0h3m6 0h6m4 0h1m2 0h1m1 0h1m1 0h2m4 0h1m2 0h1m1 0h1m1 0h1m1 0h1m1 0h1m11 0h1m1 0h2m1 0h2m1 0h1m5 0h4m1 0h1m2 0h1m6 0h1m1 0h2m3 0h1m1 0h3m1 0h1m1 0h2m1 0h1m1 0h2m5 0h10m1 0h1m1 0h4m1 0h6m1 0h1m4 0h2m2 0h3m1 0h1m1 0h2m1 0h1M6 14.5h1m1 0h1m1 0h2m1 0h2m2 0h1m4 0h3m2 0h3m6 0h1m2 0h3m1 0h1m3 0h1m1 0h1m1 0h2m3 0h4m1 0h1m3 0h1m1 0h5m5 0h1m2 0h9m1 0h1m1 0h2m3 0h6m1 0h1m2 0h4m1 0h1m2 0h2m3 0h1m3 0h1m1 0h3m5 0h1m1 0h2m1 0h1m3 0h1m1 0h5m4 0h1m5 0h1m1 0h2m1 0h1m2 0h5m2 0h1M4 15.5h3m4 0h6m2 0h1m1 0h1m2 0h3m1 0h2m4 0h1m3 0h3m2 0h1m2 0h4m2 0h1m3 0h1m2 0h1m1 0h4m1 0h1m6 0h2m1 0h3m4 0h1m1 0h1m2 0h1m2 0h3m2 0h1m2 0h1m1 0h1m1 0h3m1 0h2m1 0h1m3 0h1m3 0h3m1 0h1m1 0h3m1 0h1m1 0h3m1 0h2m5 0h1m1 0h3m1 0h3m1 0h1m1 0h2m4 0h2m2 0h5m2 0h1m2 0h1m1 0h1M9 16.5h2m1 0h6m2 0h2m1 0h2m1 0h6m2 0h3m1 0h2m2 0h1m4 0h1m2 0h2m2 0h2m1 0h2m1 0h1m2 0h1m1 0h1m3 0h1m1 0h1m1 0h1m1 0h4m5 0h1m1 0h1m2 0h3m5 0h1m1 0h3m1 0h1m2 0h2m1 0h1m2 0h7m1 0h2m1 0h1m1 0h1m1 0h2m1 0h1m1 0h2m1 0h1m3 0h1m2 0h1m2 0h4m1 0h1m2 0h1m1 0h8m4 0h1m1 0h1m2 0h1m1 0h3M4 17.5h4m1 0h1m3 0h1m3 0h1m2 0h3m1 0h1m1 0h2m2 0h1m4 0h2m1 0h2m1 0h5m2 0h3m1 0h3m2 0h1m3 0h1m1 0h4m1 0h1m6 0h1m3 0h2m1 0h1m3 0h2m3 0h1m1 0h2m2 0h1m1 0h1m3 0h1m1 0h4m7 0h2m3 0h4m1 0h1m4 0h1m1 0h2m1 0h1m1 0h1m1 0h3m2 0h1m4 0h4m1 0h2m1 0h1m2 0h7m3 0h1m1 0h1m1 0h2M4 18.5h2m2 0h3m1 0h1m1 0h1m2 0h4m1 0h3m2 0h1m1 0h1m2 0h1m3 0h4m3 0h1m2 0h1m2 0h1m1 0h1m1 0h1m3 0h1m1 0h1m1 0h1m1 0h1m3 0h2m1 0h1m2 0h1m1 0h1m1 0h1m2 0h1m1 0h1m2 0h1m2 0h1m1 0h3m3 0h1m1 0h5m3 0h1m3 0h1m1 0h1m3 0h1m2 0h3m1 0h2m1 0h1m3 0h2m1 0h6m1 0h1m3 0h1m1 0h1m1 0h3m4 0h1m3 0h2m4 0h4m1 0h2m1 0h3M4 19.5h1m3 0h2m2 0h1m1 0h1m3 0h1m5 0h1m1 0h1m1 0h4m3 0h3m1 0h2m2 0h1m2 0h1m9 0h1m3 0h5m1 0h1m2 0h1m1 0h1m2 0h1m1 0h1m1 0h1m4 0h1m1 0h1m1 0h3m1 0h2m1 0h1m1 0h1m1 0h2m2 0h3m1 0h1m1 0h1m1 0h1m1 0h3m2 0h5m1 0h1m1 0h2m1 0h5m1 0h1m1 0h2m1 0h1m1 0h2m1 0h2m1 0h1m4 0h4m1 0h1m3 0h1m1 0h1m2 0h1m2 0h2m4 0h1M9 20.5h2m3 0h2m3 0h2m3 0h1m1 0h1m3 0h4m2 0h3m2 0h2m2 0h1m2 0h1m1 0h2m1 0h3m2 0h1m1 0h2m1 0h5m1 0h2m3 0h6m2 0h3m1 0h1m1 0h1m1 0h1m2 0h3m1 0h2m1 0h2m4 0h1m2 0h1m1 0h2m1 0h7m2 0h1m1 0h1m1 0h2m1 0h1m1 0h1m4 0h1m2 0h1m1 0h1m3 0h1m2 0h3m3 0h1m1 0h3m1 0h4m2 0h1m1 0h1m1 0h6M6 21.5h3m2 0h2m1 0h1m1 0h2m1 0h2m2 0h4m2 0h1m2 0h4m1 0h1m2 0h2m2 0h3m1 0h1m2 0h1m1 0h1m1 0h1m5 0h2m2 0h1m3 0h5m2 0h1m1 0h2m6 0h1m2 0h1m1 0h2m1 0h1m5 0h1m3 0h1m1 0h1m4 0h1m1 0h2m1 0h2m4 0h3m6 0h1m1 0h4m1 0h2m1 0h2m1 0h1m1 0h2m2 0h3m2 0h2m1 0h2m1 0h1m1 0h2m1 0h2m1 0h1m3 0h4M4 22.5h2m3 0h2m2 0h1m6 0h1m3 0h2m1 0h7m2 0h1m2 0h1m1 0h1m1 0h1m2 0h2m1 0h1m1 0h3m1 0h7m6 0h6m1 0h1m3 0h4m1 0h1m1 0h3m1 0h4m1 0h2m1 0h2m1 0h2m4 0h1m1 0h2m1 0h2m2 0h1m4 0h1m3 0h1m4 0h1m2 0h1m2 0h2m1 0h2m2 0h2m3 0h2m1 0h1m1 0h1m1 0h1m2 0h1m1 0h1m5 0h3m1 0h4M5 23.5h4m5 0h1m1 0h1m1 0h1m1 0h2m1 0h1m1 0h1m1 0h1m1 0h1m5 0h3m1 0h3m1 0h1m1 0h2m1 0h2m6 0h1m1 0h2m1 0h4m1 0h1m6 0h2m1 0h1m1 0h2m9 0h1m1 0h4m1 0h1m1 0h1m2 0h1m1 0h2m2 0h2m1 0h3m1 0h2m2 0h6m3 0h2m2 0h4m10 0h1m2 0h2m4 0h2m3 0h2m2 0h5m7 0h1M4 24.5h1m1 0h8m2 0h1m2 0h1m3 0h5m2 0h2m1 0h3m1 0h2m1 0h1m1 0h1m1 0h1m5 0h2m2 0h2m2 0h1m1 0h1m1 0h3m1 0h2m1 0h1m3 0h3m1 0h1m2 0h1m2 0h1m2 0h2m1 0h1m5 0h1m4 0h1m2 0h1m2 0h2m1 0h3m3 0h4m1 0h2m5 0h2m1 0h1m1 0h2m5 0h3m1 0h1m2 0h2m2 0h4m1 0h5m2 0h1m1 0h1m2 0h2m1 0h1m1 0h3m1 0h1M4 25.5h2m2 0h2m3 0h1m2 0h1m2 0h3m1 0h2m2 0h2m1 0h1m1 0h2m6 0h2m1 0h4m1 0h1m1 0h2m2 0h2m5 0h3m6 0h1m2 0h1m1 0h2m2 0h1m2 0h2m2 0h2m1 0h1m4 0h1m2 0h1m3 0h1m1 0h2m1 0h1m1 0h1m4 0h1m1 0h1m5 0h4m1 0h2m1 0h1m4 0h3m1 0h2m2 0h1m7 0h6m2 0h1m2 0h4m1 0h2m4 0h1m1 0h3M4 26.5h1m2 0h1m1 0h3m1 0h4m4 0h1m2 0h2m3 0h3m2 0h1m2 0h5m3 0h3m3 0h4m1 0h2m2 0h2m1 0h1m1 0h1m1 0h2m1 0h1m1 0h1m4 0h1m1 0h2m1 0h1m1 0h3m1 0h5m2 0h1m1 0h4m1 0h1m4 0h1m1 0h2m1 0h1m3 0h3m1 0h2m2 0h1m1 0h1m3 0h1m1 0h1m3 0h1m3 0h1m2 0h4m1 0h1m5 0h2m2 0h3m1 0h1m5 0h3m3 0h2M7 27.5h2m2 0h3m1 0h3m1 0h2m3 0h2m1 0h1m3 0h3m3 0h5m1 0h5m1 0h1m3 0h1m2 0h1m4 0h7m3 0h1m2 0h3m1 0h2m5 0h1m1 0h2m1 0h1m1 0h1m3 0h4m4 0h1m3 0h1m3 0h1m1 0h2m2 0h3m6 0h2m1 0h1m4 0h1m1 0h3m1 0h1m2 0h2m2 0h1m2 0h2m1 0h1m5 0h1m3 0h3m3 0h1m2 0h1m2 0h1M4 28.5h1m1 0h11m1 0h4m6 0h8m1 0h4m1 0h1m5 0h5m1 0h8m1 0h2m1 0h1m1 0h2m2 0h1m1 0h1m2 0h2m2 0h1m2 0h6m1 0h1m1 0h2m2 0h1m2 0h1m1 0h1m2 0h2m2 0h2m1 0h7m1 0h2m1 0h1m3 0h4m1 0h1m3 0h1m3 0h7m1 0h5m3 0h1m1 0h2m2 0h1m5 0h5m1 0h2M4 29.5h1m2 0h2m3 0h2m1 0h3m2 0h1m1 0h1m3 0h1m1 0h1m3 0h1m3 0h3m2 0h5m2 0h1m1 0h1m2 0h4m3 0h2m1 0h1m3 0h4m2 0h1m1 0h1m8 0h1m3 0h1m2 0h1m2 0h2m1 0h1m1 0h3m4 0h2m1 0h1m2 0h1m3 0h1m2 0h1m1 0h6m2 0h1m3 0h4m1 0h3m3 0h1m1 0h2m1 0h5m1 0h5m4 0h3m1 0h1m3 0h1m1 0h3M7 30.5h2m1 0h1m1 0h2m2 0h1m1 0h1m1 0h1m2 0h1m3 0h2m1 0h1m1 0h1m1 0h3m3 0h1m1 0h1m6 0h1m1 0h2m3 0h1m1 0h1m1 0h1m3 0h1m2 0h2m1 0h1m1 0h1m2 0h1m1 0h1m1 0h2m1 0h3m1 0h1m1 0h1m1 0h1m1 0h1m2 0h1m2 0h1m1 0h1m1 0h1m5 0h1m1 0h3m1 0h1m1 0h1m2 0h1m1 0h1m2 0h2m2 0h2m3 0h8m1 0h1m1 0h6m1 0h1m1 0h1m1 0h1m3 0h3m4 0h1m1 0h1m1 0h1m1 0h2M6 31.5h3m3 0h1m3 0h1m1 0h7m1 0h1m1 0h1m3 0h2m2 0h1m1 0h2m1 0h1m1 0h3m3 0h1m1 0h1m1 0h1m1 0h2m3 0h2m1 0h1m2 0h2m3 0h1m1 0h2m1 0h1m1 0h2m4 0h1m3 0h1m1 0h1m1 0h2m2 0h3m2 0h12m3 0h5m1 0h2m1 0h1m1 0h4m1 0h1m2 0h2m2 0h2m3 0h2m2 0h2m2 0h3m2 0h1m1 0h3m1 0h1m1 0h4m3 0h1m2 0h1M4 32.5h2m1 0h7m1 0h1m1 0h1m4 0h1m1 0h10m1 0h3m4 0h2m2 0h1m1 0h1m1 0h3m1 0h8m5 0h1m2 0h2m1 0h2m2 0h2m2 0h8m9 0h1m1 0h1m1 0h1m3 0h1m2 0h1m2 0h5m1 0h1m1 0h1m4 0h1m2 0h1m1 0h4m5 0h8m2 0h2m1 0h1m3 0h3m2 0h2m4 0h6m1 0h1M4 33.5h1m2 0h1m4 0h4m3 0h4m4 0h1m1 0h1m2 0h1m4 0h1m1 0h2m4 0h1m2 0h3m3 0h5m1 0h1m1 0h2m1 0h1m1 0h1m1 0h2m1 0h1m2 0h2m1 0h3m1 0h2m1 0h2m2 0h1m3 0h2m2 0h1m2 0h1m4 0h2m2 0h1m4 0h1m4 0h1m3 0h2m1 0h1m4 0h1m1 0h2m1 0h3m1 0h4m3 0h1m2 0h1m1 0h2m2 0h2m3 0h8m1 0h7M8 34.5h3m4 0h1m3 0h1m1 0h3m2 0h2m2 0h1m1 0h1m2 0h1m1 0h5m1 0h1m5 0h5m2 0h4m1 0h1m1 0h1m4 0h1m1 0h1m1 0h2m6 0h1m1 0h3m1 0h2m1 0h5m1 0h1m2 0h1m3 0h1m4 0h1m1 0h7m2 0h4m1 0h1m1 0h1m1 0h1m1 0h1m4 0h1m1 0h4m2 0h1m5 0h2m4 0h2m3 0h2m1 0h2m1 0h2m1 0h1m5 0h1M4 35.5h4m1 0h1m1 0h1m2 0h2m1 0h3m1 0h3m1 0h2m1 0h2m1 0h11m3 0h2m2 0h1m2 0h2m1 0h1m3 0h1m1 0h2m1 0h2m1 0h1m1 0h1m1 0h1m1 0h2m1 0h1m1 0h1m4 0h4m1 0h1m3 0h3m1 0h1m1 0h1m3 0h7m1 0h3m2 0h2m1 0h1m2 0h4m3 0h3m1 0h2m3 0h1m1 0h1m1 0h1m1 0h2m8 0h3m3 0h3m1 0h1m2 0h2m1 0h3m1 0h1m2 0h1M4 36.5h1m2 0h5m3 0h1m1 0h2m1 0h2m2 0h2m1 0h1m4 0h4m2 0h6m1 0h1m1 0h1m1 0h4m1 0h1m3 0h2m3 0h3m5 0h2m2 0h3m3 0h1m2 0h2m1 0h2m1 0h1m2 0h3m1 0h1m2 0h4m1 0h2m2 0h2m2 0h3m2 0h3m4 0h1m2 0h3m1 0h1m4 0h1m1 0h1m1 0h1m2 0h4m2 0h7m1 0h5m5 0h1m5 0h3M5 37.5h2m2 0h1m1 0h1m3 0h1m1 0h2m7 0h2m1 0h1m5 0h1m3 0h2m1 0h2m2 0h4m4 0h3m1 0h1m1 0h2m1 0h1m4 0h2m2 0h1m6 0h1m4 0h3m4 0h1m2 0h2m3 0h3m1 0h1m2 0h1m1 0h2m4 0h1m4 0h1m1 0h2m1 0h4m1 0h1m3 0h1m2 0h1m1 0h1m2 0h3m6 0h3m1 0h1m1 0h1m2 0h1m3 0h3m1 0h3m1 0h2m2 0h2M7 38.5h2m1 0h3m1 0h7m4 0h1m2 0h1m2 0h1m1 0h1m3 0h1m1 0h3m3 0h1m4 0h1m1 0h2m3 0h1m5 0h1m3 0h6m2 0h1m1 0h1m1 0h2m1 0h1m1 0h1m1 0h2m1 0h4m3 0h5m3 0h1m4 0h3m1 0h1m4 0h1m2 0h2m1 0h4m3 0h10m1 0h1m4 0h4m2 0h2m2 0h1m1 0h5m1 0h2m4 0h3m1 0h1M5 39.5h2m1 0h2m1 0h1m1 0h1m1 0h1m8 0h2m1 0h1m4 0h1m1 0h1m3 0h2m3 0h1m1 0h3m4 0h1m2 0h2m3 0h3m1 0h1m1 0h2m1 0h1m3 0h2m1 0h1m1 0h2m1 0h1m1 0h1m1 0h4m2 0h3m2 0h1m4 0h6m1 0h5m2 0h3m1 0h3m2 0h1m1 0h2m2 0h1m3 0h3m2 0h1m1 0h1m1 0h3m5 0h1m2 0h1m5 0h1m4 0h2m2 0h5M7 40.5h1m1 0h2m4 0h2m2 0h2m1 0h5m5 0h1m1 0h1m4 0h1m2 0h1m4 0h2m2 0h2m1 0h2m2 0h1m3 0h3m4 0h3m1 0h2m2 0h1m3 0h2m1 0h2m2 0h1m2 0h1m2 0h1m5 0h1m2 0h1m2 0h2m1 0h1m1 0h2m1 0h2m2 0h3m2 0h1m1 0h1m2 0h1m1 0h3m2 0h1m1 0h1m6 0h3m2 0h2m1 0h1m2 0h1m1 0h2m2 0h2m4 0h3m1 0h1m1 0h2M4 41.5h2m1 0h1m1 0h1m1 0h2m3 0h1m3 0h3m1 0h5m2 0h2m2 0h1m1 0h2m1 0h1m2 0h4m1 0h1m1 0h2m1 0h1m4 0h1m1 0h2m1 0h1m1 0h5m1 0h1m1 0h2m1 0h1m1 0h3m1 0h1m1 0h5m3 0h4m5 0h1m1 0h1m2 0h1m1 0h2m7 0h1m4 0h3m1 0h2m1 0h1m3 0h4m1 0h1m3 0h2m2 0h2m3 0h2m2 0h4m3 0h3m1 0h1m1 0h5m1 0h1m1 0h1M7 42.5h4m1 0h1m1 0h1m1 0h2m1 0h3m2 0h1m2 0h1m2 0h1m1 0h2m1 0h1m5 0h3m2 0h2m1 0h2m1 0h1m4 0h1m10 0h3m1 0h2m5 0h2m1 0h1m2 0h1m1 0h4m1 0h1m2 0h3m1 0h1m1 0h2m4 0h4m2 0h9m1 0h2m2 0h1m1 0h1m3 0h1m1 0h3m1 0h7m1 0h2m1 0h2m2 0h2m3 0h2m2 0h1m1 0h2m1 0h2m4 0h2M5 43.5h1m1 0h1m4 0h1m1 0h2m3 0h2m4 0h2m5 0h1m1 0h3m6 0h2m1 0h1m2 0h1m1 0h3m1 0h1m1 0h3m2 0h3m1 0h2m6 0h1m1 0h3m2 0h1m2 0h1m1 0h1m1 0h2m2 0h1m2 0h3m6 0h2m1 0h5m3 0h2m1 0h1m4 0h1m1 0h1m2 0h1m2 0h2m1 0h1m1 0h1m1 0h4m1 0h2m3 0h1m5 0h2m1 0h1m1 0h2m2 0h1m1 0h2m2 0h5m1 0h1M4 44.5h2m1 0h1m1 0h3m1 0h1m1 0h1m3 0h1m3 0h1m2 0h2m1 0h1m3 0h1m5 0h1m1 0h2m1 0h1m2 0h4m3 0h2m1 0h3m1 0h1m2 0h2m1 0h1m1 0h3m2 0h5m4 0h1m3 0h2m2 0h1m1 0h1m1 0h1m2 0h3m1 0h1m2 0h2m7 0h1m2 0h5m3 0h1m1 0h4m1 0h2m3 0h1m2 0h2m2 0h3m3 0h1m2 0h1m1 0h1m1 0h2m3 0h4m1 0h4m3 0h1m1 0h1M4 45.5h2m1 0h1m1 0h1m1 0h2m3 0h2m1 0h2m4 0h1m1 0h1m1 0h1m6 0h1m1 0h2m2 0h3m2 0h2m1 0h2m5 0h2m1 0h2m1 0h1m2 0h1m2 0h4m7 0h5m1 0h1m1 0h2m1 0h1m2 0h1m2 0h1m1 0h2m2 0h1m1 0h5m3 0h4m5 0h5m2 0h1m1 0h1m1 0h2m1 0h1m1 0h1m1 0h1m1 0h2m1 0h2m2 0h5m1 0h5m4 0h1m2 0h1m4 0h2m1 0h2M5 46.5h1m1 0h2m1 0h4m1 0h5m2 0h2m3 0h5m2 0h1m5 0h1m2 0h1m1 0h2m2 0h2m1 0h2m2 0h1m2 0h1m7 0h7m5 0h5m2 0h2m2 0h1m1 0h1m3 0h1m1 0h2m1 0h4m3 0h3m4 0h1m1 0h1m1 0h4m4 0h1m2 0h2m1 0h1m2 0h5m1 0h2m3 0h3m4 0h2m3 0h3m1 0h1m2 0h1m2 0h1m4 0h2M4 47.5h1m2 0h1m3 0h3m1 0h3m3 0h2m2 0h1m1 0h5m1 0h1m1 0h1m1 0h1m2 0h2m1 0h1m1 0h2m2 0h1m2 0h1m2 0h1m2 0h1m4 0h2m1 0h2m6 0h1m1 0h3m5 0h2m2 0h5m1 0h1m1 0h2m3 0h4m2 0h2m3 0h1m2 0h4m1 0h1m1 0h2m1 0h2m1 0h1m3 0h3m4 0h3m2 0h2m3 0h1m3 0h3m1 0h1m1 0h3m4 0h2m1 0h3m1 0h1m1 0h1M4 48.5h1m1 0h3m1 0h1m1 0h1m1 0h2m1 0h3m2 0h2m1 0h3m6 0h2m1 0h1m3 0h3m3 0h4m2 0h1m2 0h1m2 0h1m1 0h2m1 0h1m1 0h1m1 0h1m1 0h1m3 0h2m2 0h3m1 0h1m7 0h1m3 0h2m1 0h4m1 0h1m2 0h1m1 0h1m1 0h7m2 0h4m1 0h1m4 0h6m6 0h3m1 0h3m2 0h4m3 0h1m1 0h1m1 0h1m1 0h4m4 0h2m2 0h1m1 0h1M6 49.5h1m1 0h1m6 0h1m1 0h2m1 0h1m2 0h1m2 0h2m2 0h2m2 0h2m1 0h3m1 0h8m1 0h1m2 0h1m3 0h4m2 0h2m2 0h2m2 0h5m3 0h1m1 0h2m1 0h1m1 0h2m3 0h1m2 0h1m1 0h2m1 0h1m1 0h1m1 0h4m1 0h1m4 0h1m8 0h1m1 0h1m1 0h1m4 0h1m1 0h6m1 0h4m2 0h2m3 0h2m3 0h1m1 0h2m1 0h1m1 0h2m3 0h1m3 0h1m2 0h2M4 50.5h2m1 0h1m2 0h2m1 0h1m5 0h3m1 0h3m1 0h2m1 0h2m3 0h1m1 0h2m1 0h3m2 0h2m2 0h2m1 0h1m8 0h1m3 0h1m1 0h6m1 0h1m5 0h1m1 0h3m5 0h1m1 0h1m2 0h4m3 0h1m1 0h1m2 0h2m1 0h1m1 0h2m1 0h2m4 0h3m1 0h1m1 0h2m1 0h2m3 0h1m1 0h1m1 0h4m1 0h5m1 0h1m2 0h2m5 0h4m1 0h1m3 0h1m1 0h2M6 51.5h1m2 0h1m1 0h1m3 0h1m1 0h1m1 0h1m1 0h2m1 0h1m3 0h10m2 0h1m2 0h4m1 0h1m4 0h1m1 0h1m1 0h1m1 0h1m1 0h6m4 0h1m1 0h1m1 0h2m1 0h1m4 0h2m3 0h2m2 0h2m1 0h2m1 0h1m3 0h7m1 0h3m2 0h3m1 0h2m2 0h4m1 0h2m2 0h2m1 0h1m4 0h2m1 0h3m2 0h2m4 0h1m2 0h1m1 0h2m2 0h1m2 0h1m1 0h1m1 0h2m3 0h1M4 52.5h1m1 0h1m2 0h2m1 0h1m1 0h3m4 0h1m2 0h1m1 0h1m2 0h2m2 0h1m2 0h8m1 0h1m3 0h2m1 0h1m1 0h3m1 0h6m1 0h2m1 0h1m1 0h1m3 0h4m1 0h1m1 0h1m2 0h1m2 0h2m8 0h1m2 0h2m1 0h1m2 0h2m1 0h1m1 0h1m2 0h2m2 0h1m1 0h2m6 0h3m1 0h1m6 0h3m2 0h3m3 0h1m1 0h1m2 0h2m1 0h1m2 0h2m2 0h1m1 0h5m2 0h1m1 0h1M4 53.5h1m2 0h1m4 0h2m1 0h1m2 0h2m1 0h1m1 0h4m2 0h5m2 0h1m3 0h2m1 0h4m1 0h3m2 0h1m1 0h1m1 0h2m1 0h1m2 0h7m1 0h1m1 0h2m4 0h1m1 0h1m1 0h1m2 0h1m2 0h1m2 0h1m1 0h1m4 0h2m3 0h1m1 0h2m4 0h1m1 0h1m2 0h1m3 0h2m1 0h1m1 0h2m1 0h1m1 0h1m2 0h5m2 0h2m4 0h1m1 0h1m2 0h1m1 0h1m1 0h3m5 0h2m1 0h2m3 0h1m1 0h3M9 54.5h2m2 0h3m1 0h1m1 0h2m4 0h3m1 0h2m3 0h3m2 0h3m3 0h3m1 0h1m2 0h1m1 0h1m1 0h1m10 0h2m1 0h4m1 0h2m2 0h5m2 0h1m3 0h2m2 0h2m1 0h1m4 0h2m3 0h1m1 0h2m1 0h2m1 0h2m1 0h1m4 0h1m1 0h1m5 0h1m3 0h1m3 0h2m1 0h1m2 0h1m2 0h1m1 0h1m2 0h2m3 0h1m1 0h1m2 0h1m1 0h2m4 0h3M4 55.5h1m3 0h1m5 0h1m3 0h1m1 0h2m1 0h4m3 0h5m1 0h1m2 0h3m1 0h1m2 0h1m4 0h3m1 0h1m1 0h6m1 0h3m4 0h1m2 0h1m1 0h4m3 0h3m1 0h6m1 0h3m1 0h2m1 0h1m1 0h2m1 0h3m2 0h3m1 0h5m1 0h1m1 0h2m2 0h3m1 0h1m1 0h1m1 0h1m2 0h1m1 0h1m4 0h1m1 0h3m1 0h1m1 0h2m5 0h2m1 0h1m2 0h1m2 0h2m1 0h1m2 0h2M4 56.5h1m1 0h1m1 0h7m4 0h2m1 0h2m1 0h1m1 0h8m1 0h7m1 0h2m1 0h2m1 0h5m1 0h5m2 0h1m2 0h1m1 0h1m1 0h2m2 0h4m1 0h2m1 0h1m1 0h5m9 0h1m1 0h2m1 0h1m2 0h1m2 0h8m1 0h2m1 0h1m6 0h5m2 0h1m4 0h5m1 0h2m1 0h2m3 0h1m1 0h1m3 0h1m3 0h1m2 0h9M7 57.5h2m3 0h4m3 0h1m1 0h1m1 0h1m1 0h1m2 0h1m3 0h3m1 0h1m2 0h1m1 0h4m1 0h1m1 0h3m2 0h2m1 0h1m3 0h2m2 0h3m6 0h1m2 0h2m1 0h1m1 0h1m1 0h2m3 0h2m1 0h1m1 0h2m2 0h1m1 0h3m1 0h5m1 0h1m2 0h1m3 0h1m2 0h1m1 0h2m1 0h1m1 0h1m4 0h1m2 0h3m1 0h1m1 0h1m3 0h2m3 0h2m1 0h1m1 0h1m1 0h2m5 0h2m3 0h1m3 0h2m2 0h1M4 58.5h2m1 0h2m1 0h1m1 0h6m2 0h3m1 0h3m1 0h1m1 0h1m1 0h1m1 0h1m1 0h2m1 0h1m3 0h1m1 0h3m1 0h1m1 0h2m2 0h2m1 0h1m1 0h1m2 0h1m3 0h2m1 0h3m2 0h1m1 0h1m1 0h2m1 0h1m1 0h1m1 0h1m1 0h2m1 0h2m2 0h2m1 0h2m1 0h2m1 0h2m2 0h3m1 0h1m1 0h1m1 0h1m1 0h2m4 0h1m1 0h2m1 0h3m2 0h4m2 0h1m1 0h1m1 0h3m1 0h4m1 0h1m1 0h1m1 0h2m1 0h2m1 0h1m2 0h3m1 0h1m1 0h1M4 59.5h1m3 0h1m3 0h4m2 0h2m1 0h2m1 0h1m1 0h3m3 0h3m1 0h1m3 0h2m2 0h1m1 0h2m1 0h1m1 0h1m1 0h1m2 0h1m3 0h2m2 0h1m1 0h1m2 0h1m1 0h1m1 0h2m1 0h4m1 0h1m1 0h2m3 0h2m2 0h3m1 0h1m1 0h2m1 0h1m2 0h1m2 0h2m1 0h1m1 0h1m3 0h3m1 0h1m2 0h3m1 0h2m4 0h5m1 0h2m3 0h2m3 0h1m3 0h2m11 0h1m1 0h1m3 0h1m3 0h1M6 60.5h1m1 0h5m1 0h2m2 0h1m1 0h1m2 0h3m1 0h7m3 0h2m1 0h1m1 0h3m2 0h1m2 0h2m2 0h1m1 0h5m1 0h2m2 0h2m1 0h1m2 0h1m1 0h1m1 0h2m1 0h1m3 0h6m5 0h1m3 0h1m1 0h1m2 0h1m2 0h1m2 0h1m2 0h5m1 0h1m1 0h1m2 0h1m3 0h2m1 0h1m1 0h1m2 0h1m1 0h1m1 0h8m1 0h1m1 0h1m2 0h1m1 0h5m2 0h1m1 0h1m3 0h5m1 0h3M4 61.5h3m5 0h3m1 0h1m1 0h1m2 0h5m5 0h1m4 0h1m2 0h2m1 0h1m1 0h2m1 0h3m4 0h1m2 0h1m1 0h1m1 0h2m5 0h1m1 0h2m1 0h1m3 0h1m4 0h3m2 0h1m4 0h1m1 0h2m4 0h1m2 0h1m2 0h2m3 0h2m1 0h1m2 0h1m1 0h1m2 0h1m1 0h1m1 0h1m8 0h2m1 0h1m3 0h3m4 0h2m1 0h1m3 0h1m1 0h1m3 0h6m3 0h1m1 0h1m1 0h2M4 62.5h1m4 0h2m1 0h1m1 0h2m2 0h2m1 0h3m2 0h1m1 0h2m2 0h2m1 0h4m4 0h1m2 0h2m4 0h2m3 0h5m3 0h1m1 0h4m1 0h1m2 0h1m1 0h1m2 0h1m1 0h1m2 0h7m6 0h2m2 0h1m1 0h2m3 0h1m3 0h1m1 0h4m1 0h2m2 0h1m6 0h1m4 0h2m1 0h1m1 0h1m5 0h2m2 0h1m2 0h1m2 0h1m2 0h1m2 0h1m2 0h1m1 0h3m1 0h1M7 63.5h1m1 0h1m2 0h1m3 0h2m4 0h1m4 0h4m2 0h4m2 0h2m2 0h1m2 0h1m2 0h1m3 0h1m1 0h1m3 0h1m1 0h2m1 0h1m6 0h1m3 0h2m1 0h2m1 0h1m4 0h2m2 0h1m1 0h1m3 0h2m4 0h8m1 0h3m2 0h5m2 0h1m2 0h1m1 0h1m1 0h4m1 0h2m1 0h3m1 0h1m1 0h2m6 0h3m4 0h1m3 0h1m2 0h2m1 0h1m1 0h2M10 64.5h1m1 0h1m1 0h2m1 0h3m2 0h1m2 0h2m1 0h7m3 0h3m1 0h1m1 0h1m3 0h4m2 0h2m1 0h1m1 0h3m1 0h5m2 0h1m1 0h1m1 0h2m2 0h1m3 0h5m1 0h2m1 0h1m2 0h1m2 0h1m1 0h2m2 0h1m1 0h2m2 0h4m3 0h1m1 0h4m5 0h2m1 0h1m1 0h1m2 0h1m3 0h1m5 0h2m1 0h6m3 0h2m1 0h1m1 0h3m2 0h1m2 0h1m1 0h3m1 0h1M6 65.5h2m4 0h2m4 0h1m3 0h1m2 0h3m4 0h3m8 0h2m4 0h1m1 0h1m2 0h1m1 0h1m4 0h2m5 0h3m8 0h1m1 0h2m1 0h1m3 0h2m3 0h3m3 0h1m5 0h2m4 0h1m2 0h1m4 0h1m1 0h2m1 0h3m2 0h1m3 0h2m1 0h1m1 0h1m2 0h1m2 0h2m2 0h1m1 0h1m4 0h2m5 0h1m1 0h2m1 0h1m1 0h2m3 0h1m1 0h1M4 66.5h1m1 0h2m2 0h1m2 0h2m5 0h4m1 0h1m1 0h1m1 0h1m1 0h4m1 0h1m2 0h1m1 0h1m1 0h1m1 0h3m1 0h1m1 0h3m1 0h3m1 0h1m1 0h1m1 0h1m1 0h1m2 0h1m1 0h3m3 0h2m2 0h1m1 0h2m1 0h3m1 0h3m1 0h1m1 0h1m1 0h1m1 0h8m1 0h3m4 0h1m1 0h2m3 0h3m1 0h1m4 0h5m2 0h1m2 0h2m3 0h4m3 0h2m2 0h1m1 0h2m2 0h1m1 0h2m1 0h2m2 0h2M7 67.5h1m3 0h3m1 0h1m1 0h1m2 0h2m1 0h1m3 0h1m2 0h2m1 0h1m2 0h2m2 0h2m2 0h1m1 0h1m1 0h1m3 0h1m3 0h1m1 0h1m3 0h5m6 0h6m2 0h2m2 0h1m3 0h1m2 0h2m2 0h4m1 0h2m1 0h1m1 0h1m1 0h3m1 0h3m3 0h4m1 0h1m1 0h2m2 0h2m2 0h1m2 0h1m2 0h2m1 0h1m2 0h1m2 0h1m2 0h1m2 0h2m1 0h1m1 0h3m4 0h1m1 0h1m2 0h3m1 0h1M5 68.5h1m1 0h1m1 0h3m1 0h3m1 0h1m1 0h3m2 0h3m1 0h7m1 0h1m5 0h2m3 0h10m1 0h2m2 0h2m5 0h1m1 0h1m1 0h3m5 0h1m1 0h1m2 0h3m2 0h1m3 0h1m1 0h1m2 0h4m1 0h3m1 0h1m1 0h2m2 0h2m1 0h2m3 0h1m1 0h1m1 0h4m1 0h2m7 0h1m3 0h2m1 0h1m1 0h3m2 0h6m2 0h1m6 0h1m3 0h1m1 0h1M4 69.5h1m3 0h1m2 0h3m5 0h1m1 0h1m1 0h2m1 0h1m3 0h1m1 0h2m1 0h1m2 0h2m1 0h5m2 0h1m4 0h1m10 0h2m5 0h1m1 0h1m1 0h2m1 0h2m1 0h5m1 0h2m2 0h1m1 0h2m2 0h1m1 0h3m4 0h2m4 0h1m1 0h1m4 0h1m1 0h1m1 0h4m2 0h1m4 0h1m1 0h1m1 0h1m1 0h1m3 0h3m3 0h5m1 0h1m1 0h1m2 0h6m2 0h2m3 0h1m1 0h1M4 70.5h2m1 0h1m2 0h3m6 0h1m1 0h1m1 0h3m5 0h2m2 0h2m1 0h2m2 0h1m3 0h2m4 0h10m1 0h1m3 0h1m2 0h4m3 0h1m1 0h2m1 0h1m3 0h3m1 0h1m1 0h1m2 0h11m1 0h4m3 0h1m1 0h2m4 0h3m3 0h4m1 0h2m1 0h5m1 0h2m1 0h1m1 0h5m2 0h1m4 0h4m3 0h2m3 0h3m1 0h1M6 71.5h2m1 0h1m2 0h1m1 0h6m2 0h1m1 0h2m1 0h1m1 0h1m1 0h1m1 0h1m1 0h4m2 0h3m2 0h2m4 0h1m3 0h1m2 0h1m2 0h5m1 0h1m4 0h2m1 0h1m1 0h1m10 0h5m2 0h9m1 0h1m1 0h2m2 0h4m2 0h5m1 0h1m3 0h1m1 0h1m1 0h1m3 0h1m2 0h2m1 0h1m1 0h2m3 0h1m1 0h2m1 0h2m5 0h1m4 0h1m1 0h2m1 0h1m3 0h1M4 72.5h2m1 0h1m2 0h1m2 0h2m4 0h5m2 0h1m1 0h3m3 0h4m5 0h1m1 0h1m1 0h1m1 0h2m3 0h3m1 0h1m2 0h1m2 0h6m1 0h1m1 0h2m1 0h3m2 0h4m3 0h2m1 0h1m2 0h2m3 0h3m4 0h2m4 0h1m2 0h4m1 0h2m1 0h1m3 0h2m1 0h1m2 0h1m3 0h1m1 0h1m4 0h1m1 0h3m2 0h1m4 0h4m2 0h1m2 0h1m1 0h1m2 0h1m3 0h3M5 73.5h1m7 0h1m1 0h3m1 0h2m4 0h1m2 0h1m1 0h1m1 0h1m1 0h3m3 0h1m2 0h2m2 0h1m7 0h1m2 0h3m2 0h3m2 0h1m2 0h2m1 0h1m5 0h1m1 0h1m1 0h1m4 0h1m4 0h2m3 0h3m2 0h1m1 0h2m1 0h1m1 0h1m2 0h1m6 0h4m1 0h1m4 0h1m2 0h1m1 0h1m1 0h1m1 0h2m2 0h1m4 0h2m1 0h3m1 0h1m1 0h1m3 0h3m1 0h1m3 0h1m2 0h2m1 0h1M4 74.5h3m1 0h1m1 0h4m2 0h2m3 0h1m2 0h1m1 0h1m1 0h2m1 0h3m2 0h8m1 0h2m5 0h1m1 0h2m1 0h2m1 0h2m5 0h1m1 0h2m6 0h1m1 0h2m1 0h2m3 0h2m1 0h1m1 0h2m1 0h1m2 0h2m2 0h1m1 0h1m2 0h2m1 0h1m2 0h9m2 0h3m1 0h1m6 0h3m4 0h2m1 0h1m2 0h1m2 0h1m2 0h2m4 0h2m5 0h1m1 0h1m2 0h2M4 75.5h1m3 0h2m1 0h2m3 0h1m5 0h1m5 0h1m5 0h2m2 0h1m2 0h1m1 0h2m1 0h2m1 0h1m1 0h3m1 0h2m1 0h1m5 0h3m4 0h1m1 0h2m1 0h1m2 0h1m5 0h2m3 0h3m3 0h2m3 0h1m2 0h2m2 0h1m1 0h1m1 0h1m4 0h2m3 0h3m2 0h1m1 0h5m2 0h1m1 0h5m2 0h1m3 0h1m1 0h1m2 0h2m3 0h1m1 0h1m1 0h2m1 0h1m1 0h1m2 0h1m3 0h2M4 76.5h1m1 0h1m2 0h3m2 0h1m2 0h5m2 0h1m4 0h2m1 0h2m1 0h2m5 0h1m1 0h2m3 0h2m1 0h1m1 0h2m1 0h1m8 0h1m2 0h1m6 0h3m2 0h2m4 0h2m2 0h1m1 0h1m5 0h2m5 0h1m6 0h1m1 0h1m1 0h2m1 0h1m2 0h1m1 0h1m1 0h2m1 0h1m1 0h1m10 0h5m2 0h2m4 0h3m1 0h1m1 0h1m1 0h1m2 0h1m2 0h5m1 0h1M4 77.5h1m1 0h1m1 0h2m1 0h1m2 0h2m1 0h1m1 0h2m1 0h1m1 0h2m3 0h3m1 0h1m2 0h1m1 0h1m1 0h1m2 0h2m1 0h3m3 0h2m3 0h2m2 0h1m1 0h1m1 0h1m2 0h1m1 0h3m2 0h2m3 0h6m2 0h1m2 0h2m1 0h2m1 0h1m2 0h2m1 0h1m1 0h3m1 0h1m1 0h1m1 0h2m4 0h1m1 0h2m1 0h1m1 0h2m1 0h1m3 0h6m3 0h1m1 0h1m1 0h1m5 0h1m1 0h5m2 0h1m1 0h5m1 0h2m3 0h2M4 78.5h2m4 0h2m1 0h4m3 0h1m3 0h1m1 0h2m2 0h1m2 0h2m1 0h4m1 0h1m4 0h2m3 0h2m1 0h1m1 0h1m1 0h4m3 0h1m1 0h4m1 0h1m4 0h1m2 0h1m1 0h2m1 0h3m1 0h3m4 0h1m1 0h3m4 0h4m1 0h2m1 0h3m4 0h3m1 0h3m7 0h4m1 0h5m1 0h1m1 0h3m1 0h1m1 0h1m1 0h1m2 0h4m4 0h3m2 0h2m3 0h1M6 79.5h4m1 0h2m1 0h2m7 0h1m1 0h2m1 0h1m1 0h1m1 0h1m8 0h1m3 0h3m4 0h1m6 0h1m1 0h2m1 0h1m1 0h2m3 0h1m2 0h1m1 0h1m1 0h1m6 0h1m3 0h4m1 0h3m1 0h5m1 0h3m1 0h1m1 0h1m1 0h1m3 0h5m7 0h1m1 0h2m3 0h1m1 0h1m1 0h7m2 0h1m2 0h4m2 0h1m1 0h1m1 0h1m2 0h1m1 0h4m1 0h2m2 0h2M4 80.5h1m1 0h12m1 0h2m2 0h1m2 0h3m3 0h1m2 0h4m2 0h2m1 0h2m3 0h3m2 0h2m1 0h1m4 0h1m3 0h3m1 0h1m4 0h1m2 0h2m1 0h2m1 0h3m1 0h2m3 0h2m4 0h2m4 0h3m1 0h1m5 0h2m1 0h1m1 0h1m2 0h1m4 0h6m1 0h1m3 0h1m1 0h1m1 0h1m2 0h2m2 0h1m1 0h2m2 0h4m1 0h2m1 0h1m4 0h3m2 0h3M4 81.5h3m4 0h2m2 0h1m3 0h3m1 0h1m3 0h1m1 0h2m3 0h4m1 0h2m3 0h6m1 0h1m5 0h1m1 0h1m1 0h3m1 0h2m3 0h5m2 0h1m3 0h1m2 0h2m1 0h3m1 0h2m1 0h1m2 0h1m1 0h2m3 0h3m2 0h1m2 0h4m1 0h1m3 0h2m1 0h3m6 0h2m1 0h6m2 0h4m2 0h3m3 0h1m1 0h1m2 0h1m2 0h4m6 0h3M6 82.5h2m2 0h1m1 0h1m1 0h1m3 0h6m4 0h1m1 0h1m1 0h2m2 0h2m3 0h1m3 0h1m1 0h1m1 0h2m1 0h1m1 0h2m1 0h2m1 0h1m2 0h1m1 0h1m2 0h1m1 0h2m7 0h4m3 0h1m3 0h1m1 0h1m2 0h2m1 0h1m1 0h4m3 0h2m1 0h2m1 0h3m2 0h1m2 0h1m2 0h1m6 0h2m1 0h1m1 0h2m4 0h1m2 0h1m2 0h3m2 0h2m2 0h4m1 0h1m3 0h2m1 0h4M5 83.5h1m1 0h3m2 0h2m4 0h1m2 0h4m1 0h1m1 0h11m4 0h6m2 0h2m4 0h1m1 0h1m1 0h5m1 0h1m3 0h1m3 0h2m1 0h2m6 0h1m4 0h3m1 0h3m4 0h4m1 0h2m1 0h1m1 0h4m1 0h1m1 0h1m1 0h2m1 0h3m3 0h1m1 0h2m1 0h1m1 0h2m1 0h4m1 0h1m5 0h2m1 0h1m4 0h1m1 0h1m2 0h3m1 0h2m1 0h1M4 84.5h3m1 0h5m2 0h1m1 0h1m5 0h3m2 0h6m1 0h1m2 0h1m3 0h1m2 0h1m3 0h2m1 0h1m1 0h1m1 0h5m1 0h2m2 0h2m1 0h2m4 0h1m2 0h5m1 0h5m1 0h1m3 0h1m4 0h3m1 0h1m7 0h6m1 0h1m1 0h1m4 0h1m2 0h1m1 0h1m1 0h1m4 0h1m1 0h8m2 0h3m3 0h1m1 0h2m1 0h1m1 0h3m2 0h8m1 0h1M8 85.5h1m3 0h1m2 0h5m1 0h1m3 0h1m2 0h1m3 0h1m4 0h1m1 0h4m1 0h1m3 0h2m6 0h1m3 0h1m2 0h1m1 0h1m7 0h1m6 0h5m3 0h1m5 0h1m2 0h1m1 0h1m1 0h1m1 0h1m1 0h2m2 0h1m2 0h1m3 0h2m1 0h1m1 0h2m1 0h1m1 0h1m4 0h1m1 0h2m1 0h5m3 0h1m1 0h2m1 0h1m1 0h4m1 0h2m1 0h1m3 0h3m2 0h1m3 0h2m1 0h2M4 86.5h5m1 0h1m1 0h1m1 0h1m4 0h1m1 0h3m1 0h4m1 0h1m1 0h2m4 0h2m3 0h1m1 0h2m5 0h2m1 0h2m1 0h1m1 0h2m1 0h1m1 0h1m2 0h1m1 0h1m1 0h2m1 0h1m3 0h2m1 0h1m1 0h1m1 0h1m1 0h1m1 0h3m2 0h2m1 0h2m2 0h4m4 0h1m1 0h1m1 0h1m1 0h2m2 0h3m1 0h2m1 0h3m6 0h2m2 0h1m1 0h1m1 0h3m1 0h2m1 0h1m2 0h2m2 0h1m1 0h2m1 0h1m3 0h2m1 0h1m1 0h2m1 0h1M4 87.5h1m1 0h1m1 0h1m3 0h1m3 0h5m2 0h4m1 0h1m3 0h2m1 0h1m2 0h1m2 0h1m3 0h2m2 0h1m1 0h2m2 0h2m3 0h3m1 0h1m1 0h1m4 0h1m1 0h2m1 0h1m1 0h2m1 0h1m1 0h2m3 0h1m1 0h1m1 0h1m3 0h1m2 0h1m4 0h3m1 0h2m2 0h1m3 0h1m1 0h1m4 0h3m2 0h2m1 0h1m3 0h4m1 0h1m3 0h2m1 0h2m2 0h2m1 0h2m3 0h2m5 0h3m3 0h1m2 0h2M4 88.5h1m1 0h7m1 0h1m5 0h5m2 0h9m4 0h1m1 0h1m2 0h1m1 0h1m5 0h2m1 0h7m1 0h2m2 0h2m3 0h2m1 0h3m3 0h1m1 0h8m1 0h2m4 0h2m2 0h1m2 0h1m2 0h1m2 0h5m1 0h1m1 0h2m1 0h1m1 0h1m1 0h4m1 0h2m6 0h8m2 0h1m1 0h1m2 0h1m2 0h3m1 0h3m3 0h5m1 0h1m1 0h1M4 89.5h1m2 0h3m1 0h2m1 0h2m3 0h3m3 0h1m2 0h2m1 0h3m2 0h2m2 0h3m1 0h1m2 0h2m2 0h1m1 0h2m2 0h1m2 0h1m2 0h1m1 0h1m2 0h1m2 0h3m3 0h1m1 0h2m1 0h1m1 0h5m5 0h2m5 0h1m1 0h4m4 0h3m3 0h1m3 0h2m1 0h1m1 0h2m1 0h1m3 0h4m1 0h1m1 0h1m3 0h2m3 0h1m1 0h2m1 0h5m3 0h1m1 0h9m1 0h3M5 90.5h2m1 0h4m5 0h1m1 0h3m2 0h1m4 0h2m2 0h1m2 0h2m1 0h1m1 0h1m1 0h1m1 0h3m4 0h2m1 0h2m1 0h2m3 0h1m1 0h1m1 0h3m2 0h1m4 0h1m1 0h5m2 0h5m4 0h1m1 0h3m1 0h3m6 0h1m3 0h1m3 0h1m4 0h4m2 0h1m1 0h1m1 0h1m2 0h1m1 0h1m2 0h1m2 0h1m1 0h3m4 0h1m1 0h1m2 0h4m1 0h1m1 0h5m1 0h1m1 0h1m1 0h1M4 91.5h1m1 0h2m1 0h1m1 0h7m1 0h5m4 0h1m1 0h1m1 0h1m1 0h1m2 0h1m2 0h1m4 0h3m9 0h2m1 0h5m1 0h1m3 0h1m3 0h5m5 0h2m1 0h2m3 0h1m1 0h1m1 0h4m4 0h2m2 0h2m4 0h2m1 0h1m1 0h2m3 0h1m1 0h1m2 0h1m1 0h1m1 0h1m1 0h1m3 0h2m7 0h2m1 0h1m2 0h1m1 0h2m2 0h2m1 0h1m1 0h2m2 0h2m1 0h2m1 0h2M4 92.5h4m1 0h2m2 0h1m2 0h2m2 0h2m2 0h1m2 0h2m2 0h3m1 0h1m1 0h1m1 0h1m1 0h3m3 0h1m1 0h2m1 0h8m1 0h1m2 0h2m1 0h1m3 0h2m2 0h2m1 0h1m2 0h6m2 0h1m3 0h3m1 0h1m1 0h2m2 0h1m2 0h2m1 0h1m2 0h3m1 0h6m1 0h1m3 0h7m1 0h1m3 0h2m1 0h2m2 0h1m4 0h2m2 0h2m1 0h5m1 0h1m2 0h1m1 0h1m2 0h1m1 0h2M4 93.5h2m3 0h1m1 0h3m5 0h1m2 0h2m1 0h2m1 0h1m5 0h2m2 0h2m3 0h2m1 0h3m4 0h1m1 0h1m1 0h1m4 0h2m1 0h1m2 0h2m1 0h1m1 0h1m1 0h3m2 0h3m1 0h1m2 0h2m3 0h1m1 0h2m3 0h1m3 0h1m1 0h4m2 0h2m3 0h2m3 0h2m1 0h1m1 0h2m5 0h7m4 0h1m4 0h1m2 0h2m1 0h2m1 0h2m3 0h2m1 0h3m1 0h3m1 0h1m1 0h1M5 94.5h6m3 0h1m2 0h2m4 0h2m6 0h1m2 0h2m1 0h7m1 0h3m3 0h3m1 0h2m1 0h2m1 0h1m1 0h3m1 0h4m1 0h2m3 0h1m3 0h2m4 0h1m1 0h1m2 0h2m1 0h4m1 0h3m1 0h1m3 0h3m2 0h3m5 0h2m1 0h1m2 0h1m2 0h2m1 0h3m1 0h9m2 0h1m2 0h1m2 0h2m1 0h1m1 0h5m1 0h1m1 0h3m3 0h1M5 95.5h1m1 0h2m3 0h4m1 0h1m1 0h3m3 0h2m4 0h1m1 0h2m2 0h1m1 0h1m1 0h1m1 0h1m2 0h2m5 0h1m1 0h2m1 0h1m1 0h1m1 0h3m1 0h2m3 0h1m2 0h1m1 0h1m1 0h2m2 0h1m2 0h3m1 0h4m1 0h1m1 0h2m1 0h1m1 0h5m1 0h2m1 0h1m1 0h3m1 0h6m1 0h1m3 0h2m1 0h1m6 0h3m1 0h2m4 0h1m1 0h1m1 0h6m2 0h3m1 0h1m2 0h1m2 0h1m2 0h2M6 96.5h1m1 0h1m1 0h3m6 0h1m1 0h1m2 0h1m1 0h2m1 0h1m2 0h1m3 0h3m2 0h3m3 0h6m1 0h4m3 0h1m2 0h1m1 0h1m1 0h2m2 0h1m1 0h1m1 0h3m2 0h3m1 0h2m3 0h1m2 0h1m6 0h2m4 0h2m3 0h1m1 0h1m1 0h1m2 0h4m3 0h1m1 0h7m8 0h5m1 0h2m1 0h1m1 0h1m2 0h1m1 0h1m3 0h1m4 0h2m3 0h5M5 97.5h1m1 0h1m4 0h7m3 0h5m3 0h2m3 0h1m2 0h1m1 0h5m1 0h3m1 0h1m2 0h1m1 0h1m1 0h2m9 0h1m1 0h6m1 0h1m1 0h1m1 0h2m3 0h1m1 0h2m1 0h1m2 0h1m4 0h3m4 0h3m2 0h1m1 0h1m1 0h2m4 0h2m1 0h4m1 0h1m1 0h1m1 0h2m1 0h3m1 0h1m4 0h2m3 0h4m1 0h4m2 0h1m1 0h2m1 0h1m1 0h2m2 0h5M4 98.5h1m1 0h1m1 0h3m3 0h2m3 0h1m3 0h1m1 0h1m3 0h3m5 0h1m5 0h1m5 0h5m1 0h2m1 0h2m1 0h1m5 0h6m2 0h1m1 0h1m1 0h2m1 0h3m4 0h2m1 0h2m2 0h1m1 0h3m1 0h4m9 0h1m2 0h1m1 0h2m1 0h1m2 0h1m3 0h1m1 0h1m2 0h1m1 0h1m2 0h6m1 0h3m1 0h1m2 0h2m3 0h3m1 0h1m1 0h2m1 0h1m6 0h1M9 99.5h1m2 0h1m1 0h1m1 0h1m3 0h1m2 0h1m3 0h1m2 0h2m1 0h1m2 0h1m1 0h2m1 0h1m1 0h1m2 0h1m10 0h2m1 0h1m1 0h5m6 0h7m5 0h3m1 0h1m2 0h3m1 0h3m5 0h1m1 0h3m1 0h1m1 0h1m1 0h1m2 0h2m1 0h1m3 0h1m2 0h3m1 0h3m3 0h1m1 0h1m1 0h2m5 0h1m2 0h1m1 0h5m2 0h1m2 0h4m5 0h2m1 0h1M4 100.5h1m1 0h1m3 0h3m1 0h1m2 0h3m1 0h6m2 0h2m1 0h2m3 0h4m1 0h1m2 0h1m1 0h1m2 0h2m2 0h3m1 0h2m2 0h1m1 0h3m2 0h1m3 0h2m1 0h2m2 0h2m1 0h2m1 0h1m4 0h1m1 0h3m1 0h1m2 0h1m1 0h2m5 0h3m1 0h6m2 0h1m5 0h2m1 0h1m1 0h1m4 0h1m1 0h4m3 0h2m1 0h5m3 0h3m2 0h1m1 0h1m2 0h2m2 0h1m1 0h1M5 101.5h4m2 0h1m1 0h2m1 0h2m1 0h1m1 0h1m1 0h2m8 0h1m2 0h3m4 0h2m2 0h3m1 0h1m1 0h1m1 0h1m1 0h1m2 0h1m2 0h1m1 0h2m1 0h1m1 0h1m1 0h1m2 0h2m1 0h2m1 0h2m4 0h2m2 0h7m5 0h1m2 0h1m4 0h1m1 0h1m1 0h3m1 0h1m1 0h2m1 0h4m1 0h1m4 0h3m1 0h1m1 0h2m2 0h5m2 0h2m3 0h1m1 0h2m2 0h1m1 0h1m1 0h5m1 0h3m1 0h1M5 102.5h4m1 0h1m2 0h1m3 0h1m6 0h1m6 0h1m1 0h1m1 0h1m1 0h1m3 0h3m1 0h2m2 0h2m1 0h1m2 0h1m2 0h1m1 0h1m4 0h1m1 0h6m2 0h1m3 0h2m1 0h1m2 0h1m1 0h1m2 0h2m4 0h3m1 0h3m1 0h2m2 0h1m1 0h1m2 0h2m2 0h2m2 0h1m1 0h2m1 0h2m3 0h1m2 0h4m3 0h2m1 0h1m2 0h2m1 0h1m2 0h3m1 0h2m1 0h2m1 0h1m1 0h1m1 0h1m1 0h1m1 0h1m2 0h2M5 103.5h1m1 0h1m4 0h2m1 0h2m3 0h2m1 0h2m1 0h3m3 0h1m2 0h1m2 0h1m1 0h1m5 0h1m4 0h3m4 0h3m1 0h1m1 0h1m1 0h2m3 0h1m2 0h3m1 0h2m1 0h1m1 0h2m1 0h2m1 0h2m1 0h1m3 0h1m1 0h1m1 0h2m1 0h1m3 0h2m1 0h2m1 0h1m1 0h1m2 0h1m5 0h3m2 0h2m1 0h6m1 0h1m2 0h2m1 0h1m2 0h2m1 0h1m1 0h2m5 0h1m2 0h1m2 0h1m1 0h1m1 0h3m3 0h1M4 104.5h2m1 0h1m1 0h2m1 0h1m6 0h2m1 0h3m1 0h1m1 0h2m1 0h2m2 0h1m2 0h1m3 0h2m3 0h3m4 0h2m1 0h1m1 0h1m1 0h1m1 0h1m4 0h3m3 0h3m3 0h1m2 0h1m2 0h1m6 0h1m3 0h1m1 0h2m5 0h1m2 0h1m1 0h3m4 0h1m1 0h2m1 0h2m3 0h3m1 0h2m1 0h1m1 0h1m1 0h2m1 0h3m1 0h1m1 0h1m1 0h1m1 0h1m3 0h5m1 0h3m6 0h2m1 0h3M5 105.5h1m2 0h1m2 0h2m1 0h1m1 0h2m1 0h3m1 0h1m1 0h2m3 0h4m9 0h3m1 0h3m1 0h1m2 0h1m2 0h1m3 0h2m2 0h2m2 0h9m2 0h3m2 0h5m1 0h1m1 0h5m2 0h2m1 0h1m2 0h2m3 0h1m4 0h2m4 0h3m1 0h1m4 0h1m1 0h2m1 0h1m1 0h1m1 0h1m4 0h2m3 0h2m1 0h1m2 0h3m1 0h2m1 0h3m2 0h1m1 0h1m1 0h1m2 0h2M5 106.5h3m2 0h1m1 0h6m2 0h1m2 0h1m1 0h5m3 0h2m1 0h1m1 0h2m1 0h1m1 0h1m1 0h1m3 0h5m1 0h1m2 0h1m1 0h2m5 0h4m1 0h2m1 0h1m3 0h2m1 0h1m7 0h1m3 0h1m3 0h1m1 0h1m1 0h1m6 0h2m1 0h1m1 0h2m2 0h3m3 0h3m2 0h1m2 0h1m1 0h5m1 0h2m1 0h2m2 0h2m9 0h3m4 0h3m1 0h1m4 0h2M6 107.5h1m2 0h1m2 0h7m1 0h2m1 0h3m2 0h2m1 0h1m1 0h1m6 0h1m2 0h2m1 0h4m1 0h1m1 0h1m2 0h1m1 0h1m1 0h1m1 0h1m1 0h1m1 0h1m6 0h2m1 0h2m6 0h7m2 0h8m3 0h1m3 0h3m3 0h1m1 0h1m1 0h1m2 0h3m2 0h1m3 0h5m1 0h1m2 0h2m2 0h1m1 0h1m6 0h3m5 0h1m5 0h1m1 0h1m2 0h2M4 108.5h2m3 0h2m1 0h1m1 0h2m6 0h1m1 0h1m1 0h1m1 0h3m1 0h1m1 0h3m1 0h1m2 0h3m1 0h1m2 0h3m1 0h4m1 0h1m1 0h1m2 0h2m1 0h2m3 0h1m5 0h1m2 0h1m1 0h6m3 0h2m1 0h2m4 0h3m1 0h1m1 0h3m1 0h1m1 0h1m1 0h2m1 0h1m1 0h1m1 0h2m1 0h1m3 0h2m1 0h3m4 0h1m3 0h2m2 0h3m2 0h1m1 0h2m2 0h2m1 0h1m2 0h4m5 0h6M5 109.5h2m1 0h1m2 0h2m1 0h1m2 0h1m4 0h3m3 0h1m2 0h1m2 0h5m1 0h1m1 0h1m1 0h1m3 0h1m5 0h1m1 0h2m1 0h2m3 0h1m1 0h1m1 0h2m6 0h1m1 0h1m2 0h2m5 0h2m3 0h2m5 0h1m5 0h1m4 0h3m1 0h2m5 0h1m1 0h1m1 0h2m1 0h1m4 0h1m1 0h1m1 0h2m4 0h1m1 0h1m3 0h3m1 0h1m1 0h1m1 0h1m5 0h2m1 0h1m2 0h1m2 0h4M4 110.5h1m1 0h1m2 0h3m1 0h5m2 0h1m2 0h2m1 0h1m4 0h3m1 0h1m4 0h2m4 0h2m3 0h3m4 0h4m1 0h1m1 0h1m1 0h2m1 0h1m5 0h2m1 0h4m1 0h2m1 0h1m2 0h2m4 0h1m1 0h2m1 0h2m4 0h4m4 0h1m1 0h2m1 0h1m1 0h1m2 0h3m1 0h1m2 0h1m1 0h5m1 0h1m1 0h1m2 0h1m1 0h3m3 0h1m3 0h1m1 0h2m2 0h1m2 0h2m2 0h1m3 0h2M4 111.5h5m3 0h4m1 0h1m1 0h1m2 0h1m2 0h1m2 0h1m4 0h2m1 0h2m1 0h2m2 0h1m2 0h2m1 0h1m1 0h2m4 0h2m1 0h1m1 0h3m1 0h1m4 0h6m1 0h2m1 0h1m1 0h4m1 0h4m1 0h2m1 0h3m2 0h1m2 0h1m1 0h1m1 0h1m1 0h1m1 0h4m2 0h4m2 0h1m2 0h2m2 0h3m1 0h1m2 0h3m1 0h2m1 0h1m1 0h1m1 0h1m4 0h2m1 0h1m2 0h1m4 0h2m2 0h1m1 0h2m2 0h1M4 112.5h2m1 0h8m2 0h1m2 0h1m1 0h2m2 0h12m1 0h1m2 0h2m3 0h1m1 0h4m1 0h7m1 0h5m5 0h1m3 0h3m4 0h6m9 0h4m3 0h3m1 0h1m1 0h6m1 0h1m1 0h2m5 0h2m1 0h1m1 0h1m2 0h1m1 0h1m1 0h8m3 0h2m5 0h3m1 0h3m4 0h5m1 0h1M4 113.5h1m1 0h1m1 0h1m3 0h1m2 0h1m2 0h1m1 0h1m1 0h1m1 0h3m1 0h1m3 0h1m6 0h1m1 0h2m1 0h1m1 0h1m1 0h1m2 0h2m1 0h1m1 0h1m3 0h2m1 0h1m2 0h1m2 0h1m1 0h2m2 0h1m3 0h1m1 0h2m1 0h1m3 0h1m2 0h1m1 0h2m1 0h1m4 0h1m4 0h1m1 0h1m3 0h1m3 0h2m1 0h1m2 0h1m1 0h1m1 0h1m4 0h1m1 0h2m1 0h1m1 0h1m1 0h1m3 0h1m2 0h2m3 0h1m1 0h1m1 0h2m3 0h1m1 0h3m1 0h2m3 0h1m2 0h2M4 114.5h2m2 0h1m1 0h1m1 0h1m3 0h1m3 0h2m2 0h3m1 0h1m1 0h1m1 0h4m3 0h1m1 0h1m4 0h1m2 0h1m2 0h3m1 0h1m1 0h1m1 0h2m3 0h1m2 0h3m1 0h2m1 0h1m3 0h4m1 0h1m1 0h1m1 0h3m1 0h1m5 0h1m1 0h2m3 0h1m1 0h2m1 0h3m1 0h1m1 0h1m1 0h1m4 0h4m5 0h3m1 0h1m2 0h2m1 0h1m1 0h1m1 0h4m3 0h1m1 0h1m1 0h5m1 0h1m2 0h1m1 0h1m1 0h1m1 0h1m1 0h2M4 115.5h1m2 0h2m3 0h2m1 0h3m3 0h4m1 0h3m3 0h1m2 0h1m1 0h2m1 0h2m1 0h1m2 0h4m1 0h3m1 0h2m3 0h1m1 0h1m1 0h1m1 0h1m7 0h1m1 0h1m1 0h2m1 0h1m2 0h1m3 0h5m3 0h1m5 0h1m1 0h1m2 0h2m1 0h3m3 0h1m1 0h5m7 0h1m4 0h1m1 0h1m2 0h1m3 0h2m2 0h1m2 0h1m1 0h2m4 0h2m5 0h1m1 0h1m3 0h1m2 0h1M5 116.5h8m1 0h1m3 0h1m1 0h4m2 0h1m1 0h6m1 0h4m1 0h1m1 0h3m3 0h3m1 0h1m2 0h8m5 0h1m2 0h1m2 0h1m1 0h16m1 0h2m2 0h1m2 0h3m2 0h3m4 0h7m1 0h2m5 0h4m1 0h2m3 0h1m2 0h7m2 0h3m1 0h1m1 0h6m1 0h4m1 0h6m1 0h3M4 117.5h1m3 0h1m2 0h1m1 0h1m2 0h1m1 0h1m2 0h3m1 0h6m4 0h1m2 0h1m2 0h4m2 0h4m2 0h7m1 0h1m1 0h1m1 0h1m1 0h1m1 0h2m1 0h1m2 0h1m2 0h1m1 0h2m4 0h2m1 0h1m1 0h1m2 0h2m3 0h1m1 0h1m1 0h4m2 0h1m2 0h1m2 0h1m1 0h1m4 0h1m1 0h3m7 0h1m1 0h4m2 0h1m2 0h1m3 0h4m1 0h3m1 0h2m1 0h4m1 0h1m2 0h1m1 0h2m2 0h2M4 118.5h1m1 0h5m1 0h3m5 0h2m1 0h1m1 0h1m4 0h1m1 0h1m1 0h1m7 0h2m1 0h3m4 0h1m4 0h3m3 0h1m3 0h7m1 0h1m1 0h1m2 0h3m1 0h2m2 0h3m2 0h1m1 0h4m1 0h3m1 0h2m1 0h5m1 0h1m2 0h3m3 0h1m1 0h1m2 0h1m2 0h1m2 0h1m4 0h1m4 0h1m1 0h1m2 0h1m1 0h1m2 0h1m3 0h2m1 0h1m1 0h2m1 0h4m1 0h5M4 119.5h2m8 0h1m1 0h1m2 0h1m1 0h1m2 0h1m2 0h1m2 0h1m2 0h2m2 0h5m3 0h3m3 0h1m6 0h5m1 0h4m6 0h1m1 0h4m1 0h1m1 0h1m3 0h3m1 0h2m2 0h2m1 0h1m3 0h1m1 0h1m3 0h1m1 0h2m2 0h2m1 0h2m1 0h2m6 0h1m4 0h2m1 0h1m1 0h4m1 0h3m2 0h2m1 0h1m2 0h1m4 0h3m1 0h1m1 0h2m3 0h1M4 120.5h3m2 0h2m3 0h1m1 0h2m2 0h1m1 0h2m1 0h2m1 0h1m2 0h1m7 0h1m2 0h1m8 0h4m3 0h1m1 0h1m1 0h1m1 0h1m1 0h2m4 0h1m3 0h1m1 0h2m3 0h1m1 0h3m1 0h2m2 0h3m1 0h1m1 0h3m1 0h1m1 0h3m1 0h1m1 0h3m1 0h1m2 0h1m1 0h2m3 0h1m2 0h1m1 0h4m3 0h1m1 0h5m1 0h4m1 0h1m1 0h1m2 0h2m1 0h3m1 0h4m4 0h1m1 0h5M5 121.5h1m1 0h3m1 0h1m2 0h4m1 0h3m4 0h1m1 0h5m1 0h2m3 0h4m1 0h3m1 0h3m2 0h4m4 0h4m1 0h4m3 0h1m1 0h1m4 0h3m3 0h1m4 0h2m1 0h2m4 0h2m4 0h2m3 0h2m1 0h2m3 0h1m2 0h6m1 0h1m1 0h1m2 0h1m1 0h1m2 0h1m2 0h2m2 0h2m2 0h4m2 0h2m5 0h2m1 0h2m3 0h3m2 0h1M4 122.5h2m2 0h7m1 0h1m2 0h3m1 0h1m2 0h1m1 0h1m1 0h1m2 0h1m3 0h3m2 0h1m2 0h2m2 0h1m1 0h2m4 0h2m4 0h1m3 0h2m1 0h1m1 0h2m5 0h6m3 0h1m1 0h1m1 0h1m5 0h1m3 0h1m4 0h4m1 0h2m1 0h3m3 0h3m3 0h1m1 0h4m1 0h3m1 0h2m1 0h1m3 0h1m2 0h2m1 0h1m2 0h1m2 0h2m1 0h1m4 0h2m1 0h1m1 0h4M7 123.5h2m3 0h3m4 0h1m4 0h1m1 0h2m2 0h1m3 0h2m1 0h1m1 0h1m1 0h1m1 0h5m4 0h2m1 0h1m1 0h1m2 0h3m1 0h1m1 0h2m1 0h1m1 0h1m1 0h4m1 0h1m2 0h1m1 0h1m3 0h7m2 0h1m1 0h2m1 0h4m3 0h2m1 0h1m2 0h2m1 0h1m1 0h2m3 0h2m1 0h1m2 0h5m2 0h1m1 0h1m4 0h1m2 0h1m5 0h5m1 0h3m1 0h4m3 0h1m4 0h1M4 124.5h2m2 0h1m1 0h3m8 0h1m3 0h6m1 0h2m2 0h7m1 0h2m1 0h2m1 0h2m2 0h2m1 0h4m2 0h4m1 0h1m2 0h1m4 0h3m1 0h2m1 0h1m1 0h3m3 0h1m2 0h2m4 0h3m2 0h2m4 0h2m1 0h1m2 0h2m1 0h2m1 0h1m4 0h1m1 0h1m1 0h1m7 0h3m2 0h2m1 0h3m6 0h2m5 0h1m2 0h3m2 0h1m1 0h1M5 125.5h2m1 0h2m6 0h1m6 0h4m1 0h1m2 0h1m1 0h3m2 0h2m1 0h1m1 0h2m1 0h1m1 0h2m4 0h4m1 0h1m3 0h2m2 0h2m1 0h1m7 0h3m2 0h1m1 0h2m1 0h2m1 0h1m1 0h4m3 0h2m2 0h1m1 0h1m1 0h2m1 0h3m2 0h1m2 0h1m1 0h2m1 0h4m1 0h1m4 0h3m1 0h2m2 0h1m3 0h1m3 0h4m2 0h1m1 0h1m5 0h3m2 0h1m3 0h2m1 0h1M5 126.5h1m3 0h3m1 0h3m2 0h2m1 0h1m5 0h2m1 0h2m2 0h3m1 0h2m2 0h2m1 0h2m2 0h5m1 0h1m3 0h1m1 0h1m1 0h3m2 0h3m1 0h2m1 0h1m3 0h2m1 0h3m1 0h3m1 0h1m1 0h1m3 0h1m1 0h1m3 0h1m2 0h1m1 0h1m1 0h4m3 0h2m1 0h1m2 0h1m2 0h1m5 0h1m2 0h2m3 0h1m3 0h4m1 0h2m7 0h1m2 0h1m1 0h1m2 0h2m1 0h1m1 0h1m1 0h1M7 127.5h3m3 0h1m2 0h1m3 0h1m2 0h1m4 0h1m1 0h1m1 0h2m1 0h1m1 0h1m3 0h1m1 0h1m2 0h1m1 0h2m1 0h3m2 0h2m3 0h2m1 0h3m2 0h1m1 0h1m1 0h2m1 0h4m5 0h1m2 0h2m1 0h7m6 0h2m1 0h2m1 0h1m3 0h2m2 0h2m3 0h1m3 0h2m1 0h4m1 0h2m3 0h3m4 0h2m2 0h1m2 0h3m2 0h1m1 0h1m2 0h3m2 0h5m2 0h1M5 128.5h1m2 0h4m3 0h1m1 0h1m1 0h1m2 0h1m1 0h2m2 0h2m2 0h1m1 0h1m4 0h2m1 0h5m3 0h1m1 0h4m1 0h2m1 0h8m1 0h4m1 0h5m2 0h1m4 0h1m1 0h1m2 0h1m2 0h1m2 0h2m1 0h1m4 0h1m3 0h1m2 0h1m1 0h1m2 0h5m1 0h1m1 0h1m1 0h4m1 0h1m7 0h2m1 0h1m1 0h3m2 0h3m4 0h2m1 0h1m1 0h2m1 0h1m2 0h2m1 0h2m2 0h1M6 129.5h4m1 0h2m3 0h2m1 0h2m1 0h1m1 0h4m5 0h2m1 0h1m1 0h1m1 0h2m1 0h1m1 0h4m1 0h2m1 0h4m1 0h2m4 0h1m1 0h1m1 0h1m1 0h2m1 0h1m2 0h2m1 0h2m1 0h4m6 0h6m2 0h2m2 0h4m1 0h1m2 0h1m2 0h3m1 0h1m1 0h4m1 0h2m1 0h1m5 0h2m1 0h1m2 0h2m3 0h1m2 0h9m1 0h1m1 0h1m2 0h2m1 0h1m3 0h1m4 0h1M6 130.5h2m2 0h1m1 0h2m2 0h3m1 0h2m3 0h4m1 0h1m1 0h2m2 0h1m3 0h1m3 0h1m1 0h1m4 0h3m1 0h1m1 0h2m6 0h4m1 0h3m2 0h1m3 0h8m1 0h1m1 0h2m1 0h1m4 0h1m1 0h2m1 0h1m6 0h1m5 0h1m3 0h1m2 0h1m2 0h2m2 0h3m1 0h1m1 0h1m4 0h1m1 0h4m1 0h1m2 0h1m1 0h1m3 0h4m7 0h1m1 0h1m3 0h2M5 131.5h2m1 0h1m4 0h3m7 0h1m2 0h3m1 0h3m2 0h2m1 0h1m2 0h1m1 0h2m1 0h2m3 0h1m1 0h1m3 0h4m1 0h1m1 0h1m2 0h1m3 0h1m2 0h5m4 0h1m1 0h1m3 0h1m1 0h2m3 0h1m4 0h1m2 0h2m1 0h2m1 0h2m2 0h2m2 0h3m1 0h2m1 0h1m4 0h2m2 0h2m1 0h1m1 0h1m3 0h2m3 0h2m1 0h1m2 0h3m2 0h1m1 0h1m1 0h1m1 0h2m2 0h1m3 0h1m1 0h2M5 132.5h2m3 0h2m1 0h1m2 0h2m6 0h1m2 0h1m3 0h4m3 0h1m3 0h1m1 0h1m4 0h2m1 0h1m1 0h1m2 0h2m1 0h5m2 0h1m1 0h3m2 0h3m2 0h3m1 0h1m1 0h2m1 0h1m2 0h1m1 0h1m1 0h1m1 0h4m2 0h1m5 0h2m1 0h1m2 0h1m2 0h1m1 0h1m2 0h1m4 0h1m1 0h4m2 0h2m2 0h3m3 0h1m4 0h2m4 0h9m2 0h2m1 0h2m1 0h1M5 133.5h1m1 0h1m4 0h1m2 0h2m2 0h1m1 0h3m1 0h3m2 0h1m2 0h2m1 0h7m1 0h1m1 0h1m1 0h1m1 0h2m2 0h1m1 0h1m7 0h1m5 0h1m1 0h4m1 0h1m2 0h4m1 0h1m1 0h1m4 0h6m1 0h1m4 0h3m5 0h1m4 0h1m4 0h1m1 0h4m3 0h1m2 0h3m1 0h2m1 0h2m2 0h1m5 0h3m1 0h2m5 0h5m2 0h1m2 0h2m1 0h1M5 134.5h4m1 0h2m1 0h3m1 0h1m1 0h2m4 0h2m2 0h4m2 0h1m1 0h1m1 0h1m5 0h2m4 0h3m1 0h1m2 0h2m3 0h1m1 0h1m1 0h2m1 0h3m2 0h1m3 0h1m1 0h6m1 0h5m2 0h1m2 0h1m3 0h3m2 0h2m1 0h2m4 0h2m1 0h1m4 0h2m4 0h1m5 0h1m1 0h2m1 0h1m1 0h3m2 0h2m1 0h1m3 0h1m4 0h2m4 0h1m2 0h3M4 135.5h2m2 0h2m2 0h3m2 0h2m3 0h2m1 0h2m2 0h2m3 0h2m1 0h5m2 0h3m4 0h2m2 0h2m1 0h1m1 0h3m1 0h1m1 0h2m5 0h4m1 0h1m2 0h3m1 0h1m4 0h4m1 0h2m6 0h1m1 0h1m2 0h3m3 0h2m1 0h2m1 0h2m2 0h1m3 0h4m1 0h3m1 0h1m1 0h3m2 0h1m2 0h2m5 0h1m4 0h2m5 0h2m1 0h1m3 0h1m1 0h1M5 136.5h2m3 0h2m1 0h10m2 0h1m1 0h1m3 0h5m7 0h1m3 0h1m2 0h3m1 0h2m1 0h5m1 0h4m1 0h1m1 0h3m1 0h1m1 0h1m1 0h1m1 0h1m1 0h1m1 0h1m1 0h1m1 0h3m6 0h1m1 0h2m1 0h1m3 0h2m4 0h2m3 0h5m1 0h1m1 0h1m1 0h2m1 0h1m1 0h1m6 0h4m2 0h6m2 0h1m2 0h1m1 0h1m3 0h1m1 0h1m3 0h1m2 0h2m1 0h1m1 0h1M5 137.5h3m1 0h1m8 0h1m1 0h1m1 0h2m4 0h1m3 0h1m1 0h2m1 0h3m1 0h1m1 0h3m2 0h1m1 0h2m1 0h2m1 0h3m2 0h3m3 0h1m4 0h4m3 0h2m2 0h3m3 0h1m1 0h1m2 0h3m2 0h1m3 0h1m2 0h2m4 0h1m1 0h1m1 0h1m4 0h2m1 0h1m2 0h1m1 0h1m3 0h4m1 0h2m1 0h2m1 0h1m1 0h1m3 0h3m1 0h1m1 0h1m1 0h1m3 0h6m1 0h1m3 0h1m1 0h2M5 138.5h1m1 0h6m4 0h1m1 0h3m1 0h1m1 0h1m1 0h6m2 0h2m2 0h2m5 0h1m2 0h2m1 0h3m2 0h1m1 0h1m1 0h1m3 0h1m2 0h1m1 0h2m1 0h1m5 0h2m1 0h1m1 0h5m1 0h1m1 0h1m2 0h1m1 0h3m2 0h1m1 0h2m2 0h1m1 0h4m2 0h1m1 0h2m1 0h1m2 0h2m1 0h1m2 0h3m1 0h6m3 0h2m1 0h1m1 0h1m1 0h1m3 0h2m1 0h1m1 0h2m5 0h1m1 0h1m1 0h2m3 0h1M4 139.5h1m2 0h3m4 0h3m2 0h2m2 0h1m1 0h1m1 0h1m3 0h2m1 0h3m1 0h3m3 0h4m3 0h3m4 0h1m2 0h2m1 0h1m1 0h1m4 0h1m2 0h1m1 0h1m1 0h1m4 0h1m1 0h1m1 0h2m1 0h4m1 0h2m2 0h1m1 0h1m1 0h5m1 0h3m2 0h2m1 0h2m2 0h4m2 0h3m1 0h1m1 0h1m1 0h1m1 0h2m3 0h1m1 0h1m2 0h1m1 0h1m1 0h1m2 0h1m6 0h1m1 0h1m1 0h7m1 0h1M7 140.5h6m1 0h1m1 0h2m2 0h2m4 0h1m1 0h5m1 0h2m2 0h2m2 0h1m1 0h1m2 0h4m1 0h9m1 0h8m3 0h1m2 0h1m1 0h1m2 0h1m2 0h6m1 0h1m3 0h1m1 0h1m2 0h2m1 0h1m1 0h3m4 0h8m1 0h1m3 0h1m1 0h4m1 0h2m3 0h1m1 0h12m1 0h1m2 0h1m1 0h4m1 0h1m5 0h5m1 0h3M4 141.5h3m1 0h1m3 0h3m1 0h2m3 0h2m3 0h3m3 0h2m2 0h2m1 0h1m1 0h1m2 0h3m1 0h2m3 0h4m3 0h1m3 0h1m3 0h1m2 0h1m2 0h4m3 0h1m2 0h1m3 0h2m4 0h2m3 0h1m3 0h1m2 0h1m2 0h1m2 0h1m3 0h2m1 0h1m2 0h3m1 0h2m3 0h1m2 0h5m1 0h1m3 0h1m1 0h1m2 0h1m1 0h2m3 0h3m2 0h1m2 0h2m1 0h2m3 0h1m2 0h2M7 142.5h2m1 0h1m1 0h6m3 0h3m1 0h1m2 0h1m1 0h1m1 0h1m1 0h1m1 0h1m2 0h1m3 0h1m1 0h1m3 0h1m2 0h1m1 0h1m1 0h1m1 0h1m1 0h2m3 0h1m1 0h4m1 0h2m6 0h5m1 0h1m1 0h1m1 0h2m1 0h1m1 0h1m4 0h5m3 0h5m1 0h1m1 0h2m1 0h1m1 0h1m1 0h2m1 0h1m2 0h6m1 0h2m2 0h1m1 0h1m1 0h2m2 0h1m1 0h1m2 0h3m2 0h3m1 0h2m1 0h2m1 0h1m1 0h1m1 0h2M7 143.5h2m3 0h1m2 0h3m2 0h2m1 0h2m2 0h2m3 0h2m2 0h5m2 0h1m1 0h3m4 0h3m1 0h1m3 0h1m1 0h3m1 0h2m5 0h4m1 0h1m4 0h2m3 0h5m3 0h1m1 0h2m3 0h3m2 0h1m3 0h1m3 0h1m1 0h3m1 0h2m1 0h1m3 0h1m2 0h2m1 0h6m3 0h1m6 0h1m1 0h2m6 0h1m3 0h2m1 0h1m3 0h2M4 144.5h1m1 0h8m1 0h1m1 0h1m7 0h1m2 0h8m2 0h2m2 0h1m1 0h1m3 0h5m2 0h6m1 0h4m3 0h3m1 0h1m2 0h1m1 0h1m1 0h2m2 0h5m4 0h2m2 0h1m2 0h2m4 0h1m5 0h7m1 0h2m1 0h1m3 0h4m1 0h2m5 0h10m1 0h1m2 0h1m1 0h1m1 0h3m1 0h3m1 0h1m1 0h8m1 0h1M4 145.5h3m1 0h2m1 0h1m1 0h1m1 0h1m1 0h1m1 0h3m2 0h2m1 0h8m1 0h2m2 0h3m1 0h6m1 0h1m1 0h1m1 0h2m1 0h4m2 0h1m2 0h3m1 0h1m3 0h1m1 0h1m1 0h2m1 0h5m7 0h1m4 0h3m3 0h3m4 0h1m1 0h2m5 0h2m1 0h1m1 0h2m1 0h1m3 0h4m1 0h3m4 0h2m2 0h2m1 0h2m1 0h3m3 0h1m2 0h2m1 0h1m4 0h5M5 146.5h1m4 0h1m2 0h3m6 0h1m1 0h1m1 0h1m2 0h1m1 0h2m1 0h2m2 0h1m1 0h2m4 0h1m2 0h5m1 0h1m1 0h1m5 0h2m3 0h6m5 0h2m1 0h1m2 0h1m4 0h3m2 0h1m3 0h1m1 0h2m1 0h1m2 0h1m1 0h5m2 0h2m1 0h2m1 0h1m1 0h8m1 0h2m7 0h2m1 0h1m1 0h4m3 0h1m2 0h2m1 0h1m4 0h2m8 0h1M6 147.5h1m1 0h2m2 0h1m2 0h2m1 0h2m1 0h1m1 0h1m1 0h1m1 0h2m3 0h1m1 0h3m1 0h2m1 0h1m1 0h2m1 0h1m5 0h2m1 0h1m4 0h2m1 0h5m1 0h1m1 0h1m3 0h2m1 0h2m1 0h1m2 0h2m2 0h1m1 0h4m1 0h2m5 0h1m1 0h1m1 0h1m1 0h1m6 0h4m2 0h1m1 0h1m4 0h1m1 0h1m5 0h1m2 0h2m3 0h1m2 0h1m1 0h1m3 0h2m2 0h1m2 0h1m5 0h2m1 0h2m1 0h1M4 148.5h1m1 0h1m2 0h4m1 0h1m1 0h1m1 0h2m5 0h1m5 0h4m3 0h1m1 0h4m3 0h5m5 0h1m5 0h4m5 0h4m1 0h3m1 0h1m1 0h2m4 0h1m5 0h1m4 0h2m1 0h1m2 0h2m4 0h1m1 0h1m3 0h3m7 0h1m1 0h1m1 0h2m3 0h1m1 0h1m2 0h1m1 0h1m1 0h3m1 0h3m2 0h2m1 0h3m1 0h1m2 0h1m4 0h1m2 0h2M4 149.5h3m1 0h2m2 0h4m1 0h1m2 0h2m1 0h1m3 0h3m1 0h2m2 0h1m1 0h4m2 0h4m1 0h1m2 0h1m3 0h1m2 0h1m1 0h2m1 0h3m1 0h11m3 0h1m4 0h2m1 0h1m1 0h3m3 0h1m1 0h2m3 0h3m2 0h1m2 0h1m2 0h1m1 0h1m1 0h1m1 0h7m3 0h1m2 0h4m1 0h1m3 0h1m2 0h2m1 0h1m2 0h3m1 0h2m1 0h1m3 0h3m3 0h2m1 0h3m1 0h1M4 150.5h2m3 0h8m1 0h2m2 0h1m1 0h4m2 0h5m1 0h2m2 0h4m1 0h3m1 0h1m1 0h4m2 0h1m1 0h1m3 0h1m1 0h1m1 0h4m1 0h2m2 0h1m4 0h2m1 0h1m1 0h1m3 0h1m1 0h1m1 0h1m2 0h4m1 0h1m1 0h1m2 0h5m1 0h1m2 0h1m2 0h2m1 0h1m3 0h1m2 0h1m2 0h3m2 0h4m1 0h3m3 0h2m4 0h1m2 0h5m1 0h1m3 0h2m4 0h1M4 151.5h2m1 0h1m3 0h2m3 0h3m3 0h1m1 0h2m1 0h8m5 0h2m1 0h1m2 0h1m2 0h1m1 0h1m1 0h1m1 0h1m2 0h1m3 0h1m1 0h3m2 0h1m1 0h1m2 0h2m1 0h2m2 0h1m3 0h2m1 0h1m2 0h3m2 0h1m1 0h2m1 0h1m1 0h4m1 0h1m1 0h1m4 0h4m1 0h2m1 0h1m1 0h1m1 0h1m2 0h1m5 0h1m7 0h1m2 0h3m2 0h6m2 0h1m3 0h4m1 0h1m1 0h1m1 0h1m1 0h1M5 152.5h6m3 0h4m1 0h5m3 0h2m2 0h3m1 0h1m1 0h1m2 0h1m1 0h1m5 0h3m3 0h1m2 0h2m5 0h1m1 0h1m3 0h1m1 0h2m3 0h1m1 0h1m1 0h1m8 0h2m1 0h1m6 0h4m1 0h2m4 0h2m1 0h1m3 0h4m1 0h1m3 0h4m1 0h2m5 0h2m1 0h1m1 0h1m1 0h1m3 0h2m2 0h6m2 0h2m5 0h1m3 0h2M6 153.5h2m1 0h1m1 0h2m1 0h3m4 0h1m2 0h1m1 0h2m1 0h1m1 0h1m3 0h1m1 0h1m5 0h3m2 0h1m4 0h1m1 0h2m1 0h3m2 0h1m1 0h1m1 0h2m2 0h2m2 0h1m4 0h4m1 0h2m1 0h2m2 0h3m5 0h1m2 0h7m1 0h2m1 0h2m6 0h3m1 0h2m3 0h1m1 0h4m1 0h5m2 0h2m2 0h4m1 0h1m1 0h2m3 0h2m1 0h2m2 0h1m2 0h4m1 0h1M4 154.5h1m3 0h3m2 0h1m2 0h1m3 0h2m1 0h2m1 0h1m4 0h2m2 0h7m4 0h2m3 0h3m2 0h2m5 0h3m1 0h2m1 0h1m1 0h2m2 0h2m2 0h3m1 0h2m1 0h1m2 0h2m6 0h1m3 0h1m1 0h2m4 0h4m4 0h3m3 0h5m3 0h2m3 0h3m1 0h2m2 0h1m2 0h1m1 0h1m3 0h2m2 0h3m6 0h1m1 0h1m4 0h2M6 155.5h1m1 0h2m1 0h3m1 0h2m2 0h4m1 0h2m2 0h4m1 0h2m1 0h1m3 0h1m2 0h1m2 0h1m2 0h1m1 0h2m2 0h3m1 0h1m2 0h4m1 0h1m1 0h1m1 0h1m1 0h7m4 0h2m1 0h3m1 0h2m2 0h2m1 0h1m2 0h6m1 0h1m4 0h1m1 0h3m4 0h1m5 0h1m1 0h4m1 0h1m1 0h1m2 0h1m2 0h1m1 0h1m2 0h1m2 0h1m1 0h3m1 0h1m1 0h2m5 0h2m2 0h1m1 0h2m1 0h1M4 156.5h2m1 0h2m1 0h1m2 0h3m1 0h1m1 0h2m1 0h1m1 0h1m2 0h1m1 0h6m7 0h1m1 0h2m2 0h3m3 0h1m1 0h3m3 0h1m6 0h1m1 0h1m1 0h1m2 0h3m2 0h1m2 0h1m2 0h1m2 0h1m3 0h1m5 0h1m2 0h1m1 0h3m1 0h1m1 0h4m3 0h1m1 0h2m5 0h1m1 0h3m3 0h1m1 0h1m1 0h1m2 0h1m1 0h5m1 0h1m1 0h1m2 0h1m1 0h3m1 0h5m2 0h3m2 0h3M5 157.5h3m4 0h1m3 0h2m6 0h6m2 0h1m4 0h1m1 0h2m1 0h3m3 0h1m1 0h1m2 0h3m2 0h6m1 0h2m2 0h1m1 0h3m4 0h2m3 0h1m4 0h1m2 0h2m1 0h1m1 0h2m2 0h2m1 0h1m2 0h4m2 0h1m1 0h2m1 0h1m3 0h2m1 0h3m3 0h2m1 0h1m1 0h2m1 0h1m4 0h1m2 0h1m4 0h5m2 0h1m3 0h4m5 0h4m1 0h1M6 158.5h5m1 0h1m3 0h4m3 0h3m1 0h2m2 0h1m4 0h1m2 0h1m1 0h1m1 0h1m1 0h1m3 0h1m2 0h1m1 0h2m1 0h1m7 0h1m1 0h2m1 0h4m3 0h1m2 0h1m1 0h1m1 0h1m3 0h1m1 0h1m1 0h1m2 0h2m1 0h1m2 0h4m3 0h5m2 0h2m2 0h1m2 0h4m5 0h4m3 0h2m2 0h2m1 0h7m2 0h2m1 0h1m1 0h3m4 0h2m1 0h1m1 0h2m2 0h1M4 159.5h3m1 0h2m1 0h1m5 0h3m2 0h2m1 0h1m5 0h1m3 0h1m1 0h5m1 0h1m2 0h4m2 0h2m3 0h1m1 0h1m1 0h2m1 0h1m1 0h2m1 0h1m1 0h1m1 0h2m1 0h4m1 0h1m3 0h1m1 0h1m2 0h1m1 0h3m1 0h1m6 0h6m3 0h1m3 0h3m1 0h1m2 0h3m2 0h3m2 0h1m1 0h1m8 0h1m6 0h1m2 0h1m9 0h4m2 0h2m3 0h2M5 160.5h4m1 0h2m2 0h4m1 0h1m5 0h2m1 0h3m2 0h5m2 0h6m1 0h1m2 0h2m2 0h1m1 0h1m2 0h3m1 0h3m1 0h3m5 0h3m1 0h1m1 0h1m1 0h1m1 0h1m3 0h3m2 0h2m1 0h1m1 0h2m1 0h2m1 0h1m5 0h4m3 0h1m1 0h1m2 0h1m3 0h2m1 0h2m1 0h1m1 0h1m1 0h1m1 0h1m2 0h5m3 0h2m3 0h2m5 0h2m4 0h1m1 0h1m2 0h2M4 161.5h1m1 0h2m5 0h2m2 0h4m2 0h2m2 0h1m1 0h2m1 0h1m1 0h3m1 0h1m1 0h3m1 0h2m2 0h1m1 0h2m2 0h5m1 0h2m3 0h2m3 0h1m5 0h2m2 0h1m2 0h5m1 0h1m4 0h1m2 0h1m1 0h2m3 0h5m6 0h1m6 0h1m1 0h3m4 0h1m1 0h5m1 0h1m1 0h3m1 0h9m1 0h5m1 0h2m1 0h1m2 0h3m1 0h6M7 162.5h1m2 0h5m1 0h1m1 0h2m1 0h4m1 0h1m1 0h3m2 0h1m1 0h2m1 0h3m1 0h2m2 0h2m1 0h1m1 0h4m1 0h2m1 0h1m1 0h1m5 0h7m5 0h3m2 0h2m4 0h1m1 0h1m2 0h1m1 0h2m1 0h4m4 0h4m2 0h1m2 0h1m1 0h1m5 0h1m1 0h1m1 0h1m3 0h1m1 0h2m1 0h1m1 0h1m1 0h1m4 0h2m2 0h1m2 0h1m4 0h5m2 0h1m1 0h1m2 0h1m2 0h2M4 163.5h2m1 0h1m3 0h5m1 0h3m2 0h1m5 0h1m3 0h2m1 0h1m4 0h2m1 0h1m1 0h3m1 0h1m3 0h1m4 0h1m1 0h1m1 0h3m1 0h1m6 0h4m1 0h1m3 0h2m1 0h2m1 0h1m1 0h5m1 0h3m4 0h6m3 0h1m3 0h1m3 0h3m1 0h1m2 0h1m1 0h4m2 0h1m1 0h1m3 0h1m1 0h1m1 0h1m1 0h2m3 0h4m4 0h1m2 0h1m1 0h4m1 0h2m1 0h1M5 164.5h1m3 0h2m1 0h2m1 0h1m2 0h3m4 0h5m3 0h2m1 0h1m5 0h1m1 0h2m1 0h1m2 0h2m2 0h1m1 0h6m4 0h2m1 0h1m4 0h1m2 0h1m1 0h1m2 0h1m2 0h1m1 0h5m2 0h1m4 0h5m2 0h1m5 0h4m1 0h2m1 0h2m5 0h2m1 0h1m1 0h2m1 0h1m1 0h1m1 0h1m1 0h2m1 0h3m2 0h2m7 0h2m2 0h1m1 0h2m2 0h1m1 0h2m2 0h3M4 165.5h2m1 0h1m1 0h1m3 0h1m1 0h1m1 0h1m1 0h2m1 0h2m1 0h1m1 0h1m5 0h1m1 0h2m1 0h3m5 0h1m1 0h1m1 0h2m1 0h6m1 0h1m1 0h2m4 0h1m2 0h5m1 0h2m4 0h1m1 0h3m3 0h6m2 0h1m1 0h1m1 0h1m2 0h1m1 0h2m1 0h1m2 0h3m4 0h6m4 0h1m2 0h1m1 0h5m1 0h1m2 0h1m1 0h1m2 0h1m1 0h2m2 0h1m5 0h3m1 0h1m1 0h3m1 0h1m1 0h3M4 166.5h1m1 0h1m1 0h1m1 0h1m1 0h1m1 0h1m1 0h4m4 0h3m2 0h3m1 0h1m1 0h1m1 0h3m1 0h1m5 0h1m1 0h2m1 0h1m2 0h3m1 0h1m1 0h1m1 0h1m5 0h2m1 0h2m3 0h1m2 0h3m1 0h1m4 0h2m4 0h2m1 0h1m3 0h1m1 0h1m2 0h5m7 0h1m1 0h1m3 0h5m3 0h6m1 0h3m1 0h6m1 0h1m8 0h1m4 0h1m1 0h1m3 0h1m1 0h1m1 0h1M7 167.5h2m2 0h3m2 0h1m1 0h1m4 0h3m1 0h2m1 0h4m3 0h2m4 0h2m1 0h2m7 0h2m1 0h1m2 0h4m1 0h2m6 0h1m1 0h4m3 0h3m2 0h2m1 0h1m2 0h1m1 0h4m1 0h1m1 0h3m1 0h4m4 0h4m1 0h4m1 0h1m1 0h1m2 0h3m1 0h2m6 0h4m1 0h2m2 0h1m1 0h4m2 0h3m4 0h2m1 0h1m6 0h1M6 168.5h1m1 0h6m5 0h1m2 0h5m1 0h5m1 0h1m1 0h2m1 0h3m2 0h2m1 0h4m1 0h9m1 0h1m3 0h1m2 0h2m2 0h2m1 0h2m4 0h1m1 0h5m1 0h1m4 0h1m2 0h1m1 0h2m4 0h1m2 0h2m1 0h10m1 0h1m4 0h3m1 0h1m2 0h1m3 0h10m1 0h1m1 0h1m4 0h6m1 0h1m3 0h8M12 169.5h2m7 0h2m2 0h2m1 0h1m3 0h1m5 0h1m1 0h5m4 0h3m3 0h2m3 0h4m1 0h1m1 0h1m2 0h2m4 0h1m2 0h2m1 0h3m3 0h2m1 0h1m2 0h2m4 0h2m4 0h1m2 0h1m2 0h1m3 0h1m2 0h1m1 0h6m6 0h1m2 0h1m1 0h1m1 0h1m3 0h1m1 0h1m2 0h1m2 0h2m2 0h1m2 0h1m1 0h4m3 0h1m3 0h2m1 0h2M4 170.5h7m1 0h1m1 0h3m6 0h2m1 0h1m1 0h1m1 0h1m1 0h1m1 0h3m2 0h1m5 0h1m1 0h3m2 0h2m1 0h2m1 0h1m1 0h1m1 0h1m5 0h3m1 0h2m1 0h1m5 0h4m1 0h1m1 0h3m1 0h2m1 0h2m1 0h3m1 0h4m1 0h1m2 0h3m1 0h1m1 0h2m3 0h1m3 0h1m3 0h1m1 0h1m1 0h1m2 0h5m1 0h1m1 0h2m2 0h2m4 0h2m1 0h2m1 0h1m2 0h1m2 0h1m1 0h1m1 0h1m1 0h1M4 171.5h1m5 0h1m3 0h1m2 0h1m2 0h1m2 0h1m1 0h4m3 0h2m1 0h4m2 0h1m2 0h3m1 0h1m4 0h1m2 0h1m3 0h2m1 0h2m1 0h2m6 0h3m1 0h1m4 0h2m3 0h1m3 0h1m2 0h2m2 0h1m4 0h1m1 0h4m1 0h2m3 0h1m3 0h1m1 0h2m1 0h1m3 0h2m1 0h1m2 0h1m1 0h1m1 0h2m3 0h1m3 0h1m2 0h1m1 0h2m4 0h1m1 0h1m1 0h2m1 0h3m3 0h1M4 172.5h1m1 0h3m1 0h1m1 0h3m5 0h2m3 0h2m1 0h5m1 0h1m1 0h4m1 0h4m2 0h14m1 0h2m1 0h1m2 0h4m4 0h2m6 0h5m2 0h1m1 0h1m5 0h4m4 0h1m1 0h10m1 0h1m4 0h1m2 0h1m1 0h3m4 0h1m1 0h6m1 0h1m3 0h2m3 0h1m2 0h2m2 0h1m1 0h1m3 0h5m1 0h2M4 173.5h1m1 0h3m1 0h1m1 0h2m3 0h1m1 0h3m1 0h2m3 0h2m2 0h1m1 0h1m7 0h4m1 0h2m1 0h1m2 0h3m3 0h5m2 0h5m1 0h1m1 0h1m2 0h1m4 0h4m2 0h1m3 0h1m1 0h4m2 0h2m2 0h1m1 0h1m2 0h1m2 0h1m1 0h2m1 0h1m1 0h1m2 0h1m1 0h3m2 0h1m1 0h1m2 0h5m1 0h1m2 0h3m3 0h6m1 0h3m2 0h1m1 0h2m2 0h2m2 0h1m1 0h3M4 174.5h1m1 0h3m1 0h1m1 0h1m2 0h1m1 0h3m5 0h2m1 0h2m1 0h4m3 0h5m2 0h3m1 0h2m1 0h1m2 0h2m1 0h3m4 0h1m1 0h4m1 0h2m5 0h2m1 0h1m2 0h2m3 0h3m4 0h4m1 0h2m3 0h1m2 0h1m1 0h4m1 0h1m1 0h1m2 0h3m4 0h1m1 0h1m1 0h5m1 0h1m2 0h1m2 0h2m1 0h1m2 0h1m2 0h1m2 0h1m1 0h2m4 0h3m1 0h1m2 0h1m2 0h1M4 175.5h1m5 0h1m1 0h1m1 0h2m2 0h1m1 0h2m1 0h3m1 0h1m1 0h4m1 0h3m2 0h3m3 0h3m3 0h2m6 0h1m1 0h2m1 0h1m1 0h2m5 0h4m1 0h1m5 0h1m1 0h1m4 0h2m3 0h4m1 0h1m1 0h3m2 0h2m7 0h2m2 0h1m1 0h2m1 0h3m1 0h2m1 0h1m1 0h3m3 0h2m2 0h1m3 0h1m1 0h1m1 0h4m3 0h2m3 0h4m6 0h1M4 176.5h7m1 0h1m1 0h1m1 0h2m1 0h2m1 0h5m1 0h3m2 0h3m2 0h1m3 0h1m4 0h1m1 0h2m2 0h2m4 0h1m3 0h1m2 0h6m2 0h1m1 0h3m7 0h4m4 0h1m2 0h1m2 0h3m6 0h1m3 0h1m2 0h1m1 0h1m1 0h1m2 0h1m3 0h5m7 0h2m2 0h2m1 0h1m1 0h6m2 0h1m1 0h2m3 0h3m2 0h1m1 0h1m1 0h3"/></svg>
