<?xml version="1.0" encoding="utf-8"?><!DOCTYPE svg PUBLIC "-//W3C//DTD SVG 1.1//EN" "http://www.w3.org/Graphics/SVG/1.1/DTD/svg11.dtd"><svg xmlns="http://www.w3.org/2000/svg" viewBox="0 0 177 177" shape-rendering="crispEdges"><path fill="#ffffff" d="M0 0h177v177H0z"/><path stroke="#000000" d="M4 4.5h7m2 0h1m1 0h2m1 0h2m2 0h1m1 0h3m7 0h2m4 0h4m1 0h2m1 0h1m1 0h2m1 0h1m3 0h1m3 0h4m1 0h1m1 0h3m1 0h3m1 0h2m1 0h1m1 0h3m1 0h1m1 0h3m1 0h1m1 0h2m1 0h1m2 0h3m1 0h1m1 0h1m1 0h1m1 0h2m1 0h1m3 0h1m2 0h1m2 0h1m1 0h1m1 0h2m5 0h1m4 0h3m1 0h4m1 0h1m1 0h1m1 0h1m6 0h1m2 0h1m2 0h1m1 0h7M4 5.5h1m5 0h1m1 0h8m2 0h3m2 0h1m2 0h1m2 0h1m5 0h1m1 0h1m1 0h4m5 0h1m5 0h3m1 0h1m1 0h7m9 0h2m3 0h2m3 0h1m1 0h1m4 0h2m2 0h4m1 0h2m1 0h1m1 0h1m3 0h1m1 0h2m2 0h3m1 0h1m3 0h3m1 0h1m2 0h2m1 0h1m1 0h3m4 0h1m1 0h2m2 0h1m4 0h2m3 0h1m1 0h1m5 0h1M4 6.5h1m1 0h3m1 0h1m2 0h4m1 0h1m1 0h2m1 0h1m2 0h1m2 0h1m1 0h8m1 0h5m1 0h1m2 0h1m1 0h1m1 0h1m1 0h1m5 0h1m6 0h1m2 0h1m1 0h2m1 0h1m1 0h2m2 0h1m1 0h3m4 0h1m1 0h2m1 0h1m6 0h3m4 0h1m3 0h1m3 0h2m2 0h1m3 0h2m1 0h7m1 0h1m1 0h1m2 0h1m2 0h1m2 0h1m1 0h3m2 0h1m3 0h1m1 0h2m3 0h1m1 0h3m1 0h1M4 7.5h1m1 0h3m1 0h1m1 0h1m4 0h4m1 0h2m1 0h2m3 0h1m3 0h2m1 0h1m9 0h1m2 0h1m2 0h1m2 0h1m3 0h1m4 0h5m2 0h2m2 0h1m2 0h1m1 0h3m1 0h1m2 0h1m1 0h1m2 0h2m4 0h5m2 0h4m1 0h8m1 0h2m4 0h1m3 0h1m5 0h4m1 0h1m2 0h3m1 0h1m6 0h1m1 0h1m1 0h1m2 0h1m1 0h1m1 0h1m1 0h3m1 0h1M4 8.5h1m1 0h3m1 0h1m3 0h1m1 0h1m1 0h3m1 0h3m2 0h1m6 0h5m1 0h6m2 0h1m1 0h1m3 0h1m1 0h3m1 0h7m1 0h1m3 0h1m3 0h3m1 0h4m1 0h8m1 0h2m1 0h1m3 0h1m6 0h2m2 0h5m2 0h1m2 0h3m1 0h1m4 0h4m2 0h6m1 0h4m1 0h1m1 0h4m1 0h1m1 0h1m4 0h2m1 0h1m1 0h3m1 0h1M4 9.5h1m5 0h1m1 0h1m2 0h1m2 0h1m3 0h1m2 0h1m3 0h1m3 0h2m3 0h1m1 0h1m1 0h6m1 0h1m1 0h5m1 0h1m1 0h2m3 0h2m1 0h4m2 0h1m1 0h1m4 0h1m3 0h1m1 0h1m3 0h1m1 0h2m1 0h2m1 0h3m1 0h1m5 0h5m3 0h1m2 0h1m1 0h1m2 0h2m1 0h1m3 0h1m2 0h1m3 0h1m3 0h2m4 0h2m1 0h1m1 0h3m5 0h1m2 0h1m1 0h1m5 0h1M4 10.5h7m1 0h1m1 0h1m1 0h1m1 0h1m1 0h1m1 0h1m1 0h1m1 0h1m1 0h1m1 0h1m1 0h1m1 0h1m1 0h1m1 0h1m1 0h1m1 0h1m1 0h1m1 0h1m1 0h1m1 0h1m1 0h1m1 0h1m1 0h1m1 0h1m1 0h1m1 0h1m1 0h1m1 0h1m1 0h1m1 0h1m1 0h1m1 0h1m1 0h1m1 0h1m1 0h1m1 0h1m1 0h1m1 0h1m1 0h1m1 0h1m1 0h1m1 0h1m1 0h1m1 0h1m1 0h1m1 0h1m1 0h1m1 0h1m1 0h1m1 0h1m1 0h1m1 0h1m1 0h1m1 0h1m1 0h1m1 0h1m1 0h1m1 0h1m1 0h1m1 0h1m1 0h1m1 0h1m1 0h1m1 0h1m1 0h1m1 0h1m1 0h1m1 0h1m1 0h1m1 0h1m1 0h1m1 0h1m1 0h1m1 0h1m1 0h1m1 0h1m1 0h1m1 0h7M13 11.5h1m1 0h2m1 0h1m1 0h5m1 0h1m1 0h4m1 0h2m3 0h2m1 0h2m1 0h1m1 0h2m4 0h2m2 0h1m3 0h1m3 0h1m1 0h3m2 0h1m1 0h2m1 0h1m1 0h2m2 0h1m1 0h1m1 0h1m3 0h3m3 0h2m1 0h1m1 0h2m2 0h2m4 0h2m3 0h4m1 0h1m1 0h3m2 0h4m1 0h3m2 0h1m3 0h2m1 0h1m2 0h1m5 0h1m1 0h2m2 0h2m1 0h1M4 12.5h5m1 0h5m1 0h1m1 0h1m2 0h1m1 0h1m1 0h1m2 0h1m1 0h11m2 0h2m2 0h1m2 0h1m3 0h1m3 0h1m1 0h8m1 0h1m2 0h2m2 0h2m1 0h4m2 0h8m1 0h1m4 0h2m4 0h2m2 0h1m2 0h5m1 0h1m2 0h1m4 0h1m1 0h1m8 0h11m3 0h1m2 0h6m2 0h2m1 0h1m1 0h1m1 0h1m1 0h1M5 13.5h3m3 0h1m1 0h4m3 0h2m1 0h1m2 0h2m4 0h3m3 0h1m1 0h2m1 0h3m3 0h3m1 0h7m1 0h5m2 0h3m1 0h1m2 0h1m1 0h1m1 0h1m1 0h1m5 0h1m1 0h1m1 0h1m1 0h2m2 0h1m2 0h1m1 0h2m2 0h1m2 0h1m3 0h1m2 0h1m2 0h1m2 0h1m1 0h1m2 0h1m2 0h1m1 0h3m1 0h2m1 0h4m1 0h1m4 0h5m2 0h1m1 0h1m2 0h1m1 0h2m1 0h1m5 0h1M7 14.5h1m1 0h2m2 0h1m2 0h1m1 0h2m1 0h1m1 0h5m3 0h3m3 0h5m1 0h2m2 0h2m2 0h2m5 0h1m3 0h4m1 0h2m1 0h1m1 0h2m1 0h1m3 0h2m2 0h3m1 0h2m1 0h1m1 0h2m2 0h1m1 0h1m3 0h1m1 0h1m1 0h2m1 0h4m3 0h3m2 0h5m1 0h1m1 0h3m3 0h3m4 0h1m2 0h1m2 0h2m1 0h1m2 0h1m1 0h2m2 0h1m1 0h3m2 0h1M4 15.5h3m1 0h2m5 0h2m1 0h3m5 0h2m1 0h1m2 0h4m2 0h1m2 0h1m1 0h2m1 0h1m1 0h2m1 0h3m1 0h2m2 0h3m9 0h1m2 0h1m1 0h1m1 0h2m3 0h1m1 0h1m2 0h4m1 0h1m1 0h2m1 0h2m1 0h2m1 0h3m1 0h2m1 0h2m1 0h1m2 0h4m1 0h1m2 0h2m2 0h3m3 0h2m4 0h2m1 0h2m1 0h2m2 0h2m1 0h1m4 0h2m4 0h2m1 0h3M4 16.5h4m1 0h2m1 0h2m1 0h3m5 0h4m2 0h1m1 0h2m1 0h1m1 0h2m1 0h2m1 0h1m4 0h4m3 0h1m1 0h1m1 0h1m4 0h1m2 0h1m1 0h3m2 0h6m2 0h1m3 0h2m2 0h4m2 0h1m1 0h1m2 0h1m1 0h2m3 0h1m1 0h1m1 0h8m1 0h1m2 0h1m1 0h5m2 0h2m2 0h2m1 0h2m2 0h4m3 0h3m2 0h6m1 0h3m2 0h1m1 0h1m1 0h1M5 17.5h2m1 0h2m4 0h1m6 0h2m1 0h3m2 0h4m2 0h1m7 0h3m4 0h1m1 0h2m3 0h2m1 0h1m3 0h1m2 0h2m1 0h4m3 0h1m1 0h5m2 0h1m2 0h1m4 0h1m5 0h2m3 0h1m1 0h3m6 0h2m5 0h2m5 0h1m2 0h2m6 0h1m1 0h2m4 0h1m1 0h3m2 0h3m1 0h1m3 0h3m1 0h1M4 18.5h3m1 0h1m1 0h1m3 0h2m1 0h2m2 0h3m2 0h2m5 0h1m1 0h1m1 0h1m1 0h3m1 0h1m4 0h2m1 0h3m3 0h6m4 0h2m1 0h1m7 0h1m4 0h5m2 0h1m2 0h1m2 0h3m1 0h1m2 0h1m2 0h6m1 0h1m2 0h2m1 0h1m2 0h1m2 0h1m1 0h1m1 0h1m4 0h3m1 0h1m3 0h2m1 0h2m1 0h1m1 0h2m2 0h1m2 0h3m1 0h1m5 0h1M4 19.5h1m1 0h2m3 0h3m1 0h2m6 0h1m3 0h1m2 0h3m4 0h1m1 0h2m4 0h3m4 0h1m1 0h1m5 0h2m1 0h1m2 0h2m3 0h2m2 0h2m1 0h1m9 0h5m1 0h1m1 0h1m1 0h2m1 0h1m2 0h3m1 0h1m1 0h3m1 0h1m3 0h1m1 0h2m1 0h1m1 0h3m1 0h8m2 0h2m1 0h2m1 0h1m2 0h1m2 0h2m1 0h1m1 0h2m1 0h3m3 0h1m2 0h5M4 20.5h1m1 0h2m2 0h2m1 0h4m1 0h5m1 0h1m1 0h1m1 0h2m1 0h1m1 0h2m2 0h6m2 0h1m1 0h1m1 0h3m2 0h1m1 0h1m1 0h1m2 0h1m5 0h2m3 0h1m2 0h1m1 0h1m3 0h3m1 0h3m2 0h4m1 0h1m1 0h1m2 0h2m4 0h1m2 0h1m1 0h1m1 0h2m3 0h3m3 0h1m1 0h1m1 0h1m2 0h3m3 0h1m2 0h2m2 0h2m4 0h3m2 0h1m2 0h3m1 0h2m2 0h2m1 0h1m1 0h2M4 21.5h1m1 0h2m5 0h1m4 0h1m1 0h1m1 0h1m5 0h9m3 0h4m4 0h1m1 0h1m1 0h2m2 0h3m2 0h2m1 0h1m1 0h1m3 0h5m2 0h1m1 0h4m2 0h1m2 0h1m4 0h2m4 0h2m1 0h1m2 0h3m6 0h4m1 0h1m1 0h4m1 0h2m2 0h1m2 0h2m4 0h3m2 0h3m2 0h1m1 0h4m1 0h1m1 0h1m1 0h2m2 0h1m1 0h1m3 0h1m1 0h1M5 22.5h1m4 0h1m1 0h1m1 0h1m1 0h1m1 0h1m2 0h1m1 0h3m1 0h3m1 0h1m1 0h1m2 0h1m1 0h1m1 0h1m1 0h2m2 0h1m3 0h3m1 0h2m3 0h1m2 0h1m1 0h1m2 0h4m1 0h1m2 0h1m3 0h2m1 0h1m1 0h5m1 0h1m4 0h5m6 0h1m1 0h3m2 0h2m3 0h1m1 0h1m3 0h3m1 0h2m3 0h2m1 0h4m1 0h2m2 0h5m1 0h1m1 0h2m1 0h3m1 0h1m2 0h2m2 0h1m1 0h1M5 23.5h2m2 0h1m2 0h1m1 0h1m1 0h2m2 0h2m2 0h2m1 0h2m3 0h10m1 0h2m1 0h1m1 0h2m2 0h1m2 0h1m4 0h2m2 0h1m1 0h3m1 0h2m1 0h2m1 0h1m2 0h1m2 0h1m2 0h1m4 0h3m5 0h1m2 0h5m2 0h1m3 0h1m1 0h1m2 0h4m1 0h3m2 0h1m3 0h3m1 0h1m5 0h3m1 0h2m1 0h1m2 0h6m2 0h1m3 0h1m2 0h1m2 0h4M4 24.5h3m2 0h2m1 0h3m3 0h3m1 0h1m3 0h2m6 0h2m2 0h5m4 0h1m1 0h3m2 0h1m3 0h1m4 0h1m1 0h5m2 0h1m2 0h4m2 0h3m2 0h1m1 0h1m2 0h3m2 0h1m1 0h1m1 0h1m1 0h2m1 0h2m4 0h1m1 0h1m1 0h1m2 0h1m1 0h3m3 0h3m1 0h1m1 0h2m2 0h5m2 0h4m4 0h1m1 0h1m1 0h2m1 0h7m1 0h1m1 0h5M6 25.5h1m2 0h1m2 0h2m6 0h1m1 0h3m2 0h2m1 0h1m3 0h1m1 0h1m1 0h1m1 0h5m1 0h1m2 0h1m3 0h1m1 0h4m2 0h1m1 0h2m5 0h4m1 0h1m2 0h1m2 0h7m5 0h4m2 0h2m1 0h1m2 0h1m2 0h2m2 0h2m1 0h3m1 0h1m1 0h4m1 0h1m2 0h1m3 0h2m1 0h1m3 0h3m1 0h1m5 0h1m1 0h3m1 0h2m3 0h2m2 0h2m5 0h1M5 26.5h6m2 0h4m1 0h1m6 0h5m1 0h2m3 0h1m5 0h1m1 0h2m1 0h1m1 0h7m3 0h1m3 0h1m1 0h1m1 0h4m1 0h2m2 0h2m2 0h1m1 0h1m1 0h2m1 0h2m1 0h1m1 0h1m2 0h1m1 0h4m2 0h1m2 0h1m1 0h5m4 0h2m1 0h1m2 0h3m2 0h2m2 0h8m2 0h2m1 0h2m1 0h1m1 0h2m1 0h2m2 0h2m3 0h3m2 0h2M4 27.5h3m2 0h1m1 0h2m1 0h1m3 0h1m1 0h1m3 0h1m1 0h1m3 0h1m2 0h4m2 0h3m1 0h1m2 0h4m1 0h3m3 0h2m1 0h3m1 0h2m7 0h4m1 0h2m5 0h1m2 0h2m1 0h3m2 0h1m1 0h1m1 0h2m1 0h4m1 0h1m17 0h1m2 0h1m1 0h2m2 0h5m2 0h1m1 0h2m1 0h1m4 0h1m1 0h3m3 0h2m1 0h1m1 0h2m3 0h3M4 28.5h1m1 0h3m1 0h1m1 0h1m5 0h2m1 0h3m1 0h2m1 0h1m2 0h1m2 0h1m3 0h3m1 0h1m1 0h1m2 0h1m2 0h3m1 0h3m4 0h1m4 0h1m2 0h3m4 0h4m2 0h1m2 0h2m2 0h6m1 0h1m2 0h2m1 0h1m3 0h1m4 0h4m2 0h2m2 0h2m3 0h8m2 0h1m3 0h1m4 0h1m5 0h3m5 0h1m2 0h3m1 0h2m1 0h1m1 0h2M4 29.5h2m1 0h3m1 0h1m2 0h1m4 0h1m1 0h1m1 0h3m1 0h3m5 0h3m3 0h3m1 0h2m2 0h1m2 0h10m2 0h3m3 0h2m1 0h1m1 0h1m4 0h4m2 0h3m2 0h1m2 0h4m5 0h1m2 0h2m1 0h1m3 0h1m5 0h1m1 0h2m1 0h1m1 0h2m5 0h2m2 0h1m4 0h1m1 0h1m1 0h2m1 0h2m1 0h1m2 0h3m2 0h4m1 0h2m1 0h1m1 0h1M4 30.5h2m3 0h3m2 0h1m1 0h1m4 0h2m3 0h2m2 0h1m3 0h1m1 0h2m1 0h3m1 0h1m1 0h1m2 0h1m2 0h1m2 0h1m2 0h3m2 0h3m2 0h1m2 0h1m4 0h1m2 0h3m1 0h9m1 0h1m2 0h1m1 0h1m1 0h1m2 0h3m4 0h2m2 0h1m1 0h3m7 0h4m1 0h2m1 0h1m4 0h1m4 0h1m3 0h3m1 0h1m2 0h1m7 0h3m2 0h1m2 0h1m1 0h1M5 31.5h2m2 0h1m1 0h2m1 0h2m1 0h2m6 0h1m1 0h3m2 0h1m1 0h1m2 0h4m5 0h2m1 0h1m4 0h1m1 0h1m4 0h1m3 0h2m1 0h2m1 0h3m1 0h2m1 0h2m1 0h3m1 0h1m4 0h4m7 0h1m2 0h2m1 0h1m2 0h2m2 0h2m2 0h3m2 0h1m2 0h1m1 0h3m2 0h3m1 0h1m1 0h1m2 0h1m2 0h1m2 0h4m1 0h3m3 0h3m9 0h2M7 32.5h7m1 0h2m2 0h2m1 0h1m1 0h2m1 0h1m2 0h1m2 0h1m1 0h3m1 0h4m4 0h1m1 0h3m4 0h1m1 0h2m1 0h1m3 0h2m3 0h1m2 0h2m1 0h2m1 0h2m1 0h2m2 0h1m2 0h1m1 0h1m2 0h1m1 0h6m1 0h1m1 0h3m3 0h5m2 0h1m1 0h2m4 0h3m1 0h3m5 0h1m1 0h1m4 0h2m5 0h2m4 0h4m1 0h1m1 0h1m3 0h2m1 0h1M6 33.5h2m1 0h1m1 0h1m1 0h1m2 0h1m1 0h2m1 0h2m1 0h1m2 0h4m2 0h4m1 0h1m5 0h2m7 0h1m1 0h2m1 0h1m2 0h5m2 0h1m1 0h2m1 0h3m1 0h2m1 0h2m3 0h1m2 0h1m4 0h3m1 0h1m1 0h1m5 0h3m7 0h2m3 0h3m1 0h1m1 0h1m4 0h1m1 0h1m3 0h1m1 0h4m1 0h1m4 0h1m2 0h2m1 0h1m1 0h1m3 0h2m3 0h4M4 34.5h1m1 0h1m1 0h8m1 0h3m3 0h2m1 0h2m2 0h9m1 0h1m1 0h2m1 0h2m1 0h1m3 0h2m1 0h1m1 0h2m1 0h6m1 0h2m1 0h1m1 0h1m3 0h1m3 0h1m1 0h1m1 0h7m2 0h3m1 0h3m2 0h4m5 0h6m2 0h2m4 0h3m1 0h1m1 0h4m1 0h1m1 0h6m3 0h2m2 0h1m3 0h1m4 0h1m2 0h6m1 0h1m1 0h1M7 35.5h2m3 0h2m2 0h2m2 0h2m1 0h1m2 0h2m1 0h2m1 0h1m1 0h1m3 0h2m3 0h1m1 0h2m1 0h5m1 0h1m1 0h1m1 0h3m3 0h2m1 0h2m4 0h3m7 0h1m2 0h1m3 0h4m7 0h1m1 0h2m3 0h2m2 0h1m3 0h1m1 0h3m1 0h2m4 0h5m1 0h2m2 0h1m3 0h1m1 0h6m2 0h1m1 0h2m8 0h1m3 0h1M8 36.5h1m1 0h1m1 0h1m2 0h7m1 0h1m1 0h1m4 0h2m1 0h2m1 0h1m1 0h3m1 0h3m2 0h3m1 0h1m5 0h2m1 0h1m1 0h1m1 0h1m2 0h3m1 0h1m2 0h1m2 0h1m2 0h2m1 0h4m1 0h1m1 0h3m3 0h1m2 0h5m1 0h3m2 0h1m1 0h1m1 0h1m1 0h3m1 0h3m2 0h1m2 0h1m1 0h3m5 0h1m1 0h1m1 0h4m5 0h2m5 0h5m1 0h1m1 0h1m1 0h4M6 37.5h3m3 0h1m1 0h3m1 0h3m1 0h1m3 0h1m2 0h3m2 0h1m3 0h1m2 0h4m3 0h1m1 0h1m2 0h1m1 0h3m1 0h2m3 0h3m4 0h1m3 0h1m1 0h1m1 0h1m1 0h2m1 0h1m1 0h1m3 0h2m1 0h3m1 0h1m2 0h1m1 0h5m2 0h1m2 0h1m3 0h1m4 0h4m4 0h1m3 0h2m1 0h3m3 0h1m6 0h2m1 0h7m2 0h4m3 0h1m1 0h1M5 38.5h13m2 0h1m2 0h3m1 0h1m5 0h6m1 0h2m1 0h1m2 0h2m1 0h1m2 0h3m3 0h1m1 0h6m1 0h2m1 0h1m3 0h1m1 0h1m1 0h1m1 0h3m3 0h5m1 0h2m1 0h1m1 0h3m2 0h1m1 0h2m1 0h1m1 0h9m1 0h2m1 0h5m2 0h3m2 0h1m3 0h6m2 0h1m1 0h1m1 0h2m2 0h2m2 0h3m2 0h6m3 0h1M6 39.5h1m2 0h1m1 0h3m1 0h1m1 0h3m2 0h1m1 0h3m1 0h2m1 0h1m1 0h2m3 0h2m6 0h2m1 0h2m3 0h1m1 0h3m4 0h5m1 0h1m2 0h5m2 0h1m3 0h1m2 0h2m2 0h3m1 0h1m3 0h1m1 0h5m1 0h3m1 0h2m2 0h4m1 0h1m1 0h6m2 0h2m2 0h7m1 0h2m1 0h1m1 0h1m1 0h2m1 0h2m1 0h1m2 0h1m1 0h3m2 0h2m1 0h1m3 0h1M4 40.5h1m3 0h3m1 0h1m1 0h2m1 0h1m3 0h1m1 0h4m2 0h2m3 0h1m2 0h2m1 0h3m4 0h1m1 0h1m1 0h2m1 0h1m1 0h1m1 0h1m1 0h1m4 0h1m1 0h1m1 0h1m1 0h1m1 0h2m1 0h2m6 0h1m1 0h1m4 0h2m1 0h1m1 0h1m3 0h2m1 0h1m1 0h2m4 0h2m4 0h2m2 0h3m1 0h1m1 0h2m1 0h1m5 0h1m5 0h4m3 0h3m1 0h1m1 0h1m1 0h4m1 0h1m2 0h2m1 0h1m2 0h2M4 41.5h3m1 0h1m3 0h2m2 0h3m1 0h1m3 0h2m1 0h1m2 0h1m2 0h2m1 0h1m1 0h1m4 0h2m3 0h1m4 0h1m1 0h2m1 0h1m1 0h3m3 0h1m2 0h1m2 0h1m2 0h3m2 0h1m1 0h5m2 0h1m1 0h1m2 0h2m2 0h3m2 0h1m2 0h2m1 0h1m3 0h2m5 0h2m2 0h1m1 0h1m4 0h1m2 0h3m2 0h2m3 0h1m2 0h1m4 0h4m5 0h3m2 0h1m2 0h3M4 42.5h4m1 0h2m1 0h2m1 0h1m3 0h1m1 0h1m2 0h2m6 0h1m3 0h1m3 0h1m1 0h1m3 0h3m3 0h2m1 0h1m1 0h3m1 0h5m1 0h4m1 0h2m2 0h1m1 0h3m1 0h3m1 0h1m1 0h1m2 0h2m1 0h2m1 0h1m1 0h2m1 0h1m1 0h1m5 0h1m1 0h1m1 0h6m7 0h2m1 0h1m2 0h2m1 0h7m1 0h1m2 0h2m1 0h2m2 0h2m4 0h1m3 0h4m2 0h1m1 0h1M7 43.5h3m5 0h7m2 0h2m1 0h3m1 0h1m1 0h1m1 0h3m1 0h3m4 0h1m1 0h4m2 0h5m5 0h1m1 0h2m4 0h3m4 0h1m1 0h1m3 0h3m1 0h5m2 0h1m3 0h3m1 0h2m1 0h2m3 0h2m1 0h3m1 0h1m1 0h3m1 0h2m1 0h4m1 0h1m1 0h1m1 0h1m3 0h1m4 0h1m1 0h2m3 0h2m8 0h2m1 0h2m4 0h1M4 44.5h3m2 0h4m2 0h3m1 0h1m3 0h3m1 0h2m2 0h1m1 0h1m1 0h1m2 0h2m2 0h1m1 0h1m2 0h3m1 0h1m3 0h1m3 0h1m1 0h5m1 0h1m1 0h3m2 0h1m4 0h1m5 0h2m6 0h8m1 0h2m1 0h2m4 0h2m1 0h1m5 0h1m1 0h1m2 0h1m1 0h4m1 0h2m2 0h1m6 0h3m4 0h1m1 0h1m3 0h1m2 0h2m1 0h2m5 0h2M6 45.5h1m4 0h1m1 0h2m1 0h1m4 0h1m5 0h1m4 0h1m1 0h2m1 0h2m3 0h3m1 0h1m1 0h1m4 0h3m5 0h1m5 0h5m1 0h1m1 0h3m1 0h3m1 0h3m5 0h2m1 0h2m4 0h1m3 0h1m1 0h1m7 0h1m3 0h2m1 0h6m7 0h4m2 0h1m6 0h3m2 0h1m1 0h1m1 0h1m1 0h1m2 0h1m1 0h1m1 0h1m4 0h1M10 46.5h3m1 0h4m2 0h2m2 0h2m2 0h2m1 0h2m1 0h1m2 0h1m2 0h2m3 0h1m1 0h1m1 0h1m4 0h1m1 0h4m1 0h1m1 0h2m2 0h2m1 0h1m1 0h2m5 0h5m3 0h3m2 0h1m1 0h2m1 0h4m1 0h1m4 0h1m1 0h1m2 0h1m3 0h2m1 0h2m1 0h1m1 0h1m1 0h2m1 0h2m1 0h3m1 0h1m1 0h2m1 0h1m1 0h1m3 0h3m1 0h1m1 0h3m1 0h1m2 0h2m3 0h4m1 0h3M4 47.5h6m1 0h3m1 0h5m4 0h3m5 0h1m2 0h4m1 0h1m2 0h1m2 0h1m1 0h1m1 0h1m1 0h2m1 0h2m1 0h1m4 0h2m1 0h2m2 0h5m1 0h2m5 0h1m6 0h1m1 0h3m5 0h2m1 0h2m1 0h3m1 0h2m3 0h2m1 0h2m1 0h3m1 0h5m5 0h1m1 0h1m1 0h2m1 0h1m1 0h3m1 0h1m5 0h1m5 0h1m1 0h1m1 0h1m3 0h2m2 0h1M4 48.5h1m2 0h1m2 0h2m1 0h1m1 0h1m1 0h2m1 0h4m2 0h2m2 0h2m2 0h1m1 0h1m4 0h2m1 0h2m1 0h1m1 0h1m1 0h1m4 0h1m2 0h5m1 0h2m2 0h1m1 0h1m3 0h5m1 0h2m2 0h2m1 0h1m1 0h2m1 0h2m1 0h3m1 0h2m9 0h5m5 0h2m1 0h2m2 0h3m1 0h2m1 0h1m1 0h1m5 0h1m1 0h1m1 0h2m1 0h3m3 0h3m1 0h1m2 0h1m5 0h3M4 49.5h2m3 0h1m1 0h3m2 0h2m2 0h6m1 0h1m1 0h1m1 0h1m1 0h4m4 0h1m2 0h5m6 0h1m2 0h4m1 0h2m6 0h2m2 0h3m2 0h7m2 0h1m3 0h2m1 0h1m2 0h3m2 0h1m1 0h2m8 0h1m2 0h3m1 0h1m7 0h1m1 0h2m1 0h1m3 0h1m4 0h2m1 0h5m1 0h1m1 0h1m1 0h1m2 0h1m1 0h1m1 0h2M5 50.5h1m2 0h6m2 0h2m1 0h1m1 0h1m1 0h3m1 0h1m2 0h1m3 0h1m1 0h3m1 0h4m1 0h2m5 0h2m3 0h1m1 0h4m1 0h1m3 0h1m4 0h2m1 0h1m2 0h1m2 0h3m3 0h1m2 0h1m2 0h2m1 0h1m1 0h4m8 0h2m4 0h1m1 0h1m2 0h3m1 0h3m2 0h1m2 0h2m1 0h8m2 0h3m3 0h3m1 0h1m2 0h2m1 0h2m1 0h1m1 0h1m1 0h1m1 0h1M4 51.5h2m2 0h2m3 0h3m1 0h3m5 0h4m11 0h1m2 0h1m2 0h2m1 0h3m3 0h1m1 0h2m4 0h4m3 0h1m1 0h2m4 0h1m1 0h2m1 0h1m1 0h2m2 0h2m1 0h3m5 0h6m1 0h2m2 0h1m4 0h1m1 0h2m3 0h1m1 0h2m1 0h1m1 0h1m1 0h3m1 0h1m2 0h2m7 0h1m2 0h1m2 0h1m4 0h2m2 0h2m2 0h1m3 0h2M5 52.5h2m2 0h3m1 0h1m4 0h4m1 0h2m3 0h1m1 0h3m1 0h4m1 0h6m2 0h3m1 0h3m3 0h1m1 0h2m3 0h1m1 0h2m1 0h1m1 0h1m3 0h6m1 0h1m1 0h4m3 0h1m4 0h2m3 0h1m3 0h2m2 0h1m4 0h1m2 0h1m2 0h1m3 0h1m2 0h4m1 0h2m1 0h1m2 0h2m1 0h2m1 0h1m2 0h4m1 0h1m3 0h2m1 0h1m3 0h1m2 0h1m1 0h5M5 53.5h4m2 0h1m3 0h1m2 0h1m1 0h1m2 0h4m1 0h3m2 0h4m1 0h1m2 0h2m1 0h1m3 0h3m2 0h5m1 0h1m4 0h1m1 0h1m1 0h1m1 0h1m1 0h5m1 0h1m1 0h1m2 0h4m3 0h6m1 0h1m1 0h3m1 0h1m1 0h2m2 0h1m2 0h3m3 0h1m2 0h4m1 0h1m3 0h2m1 0h2m1 0h2m2 0h1m1 0h1m1 0h1m4 0h2m1 0h1m2 0h2m1 0h1m2 0h1m1 0h6M5 54.5h4m1 0h3m3 0h2m3 0h5m1 0h1m3 0h4m2 0h1m2 0h1m1 0h1m2 0h2m3 0h1m1 0h1m1 0h2m3 0h1m1 0h2m4 0h2m1 0h1m1 0h1m3 0h2m1 0h2m1 0h6m3 0h1m2 0h2m1 0h1m1 0h2m1 0h1m1 0h2m2 0h4m2 0h1m2 0h1m4 0h1m3 0h1m1 0h1m2 0h1m2 0h2m2 0h2m1 0h1m1 0h3m1 0h2m1 0h1m2 0h1m1 0h1m1 0h1m1 0h2m1 0h1m1 0h4m2 0h3M4 55.5h1m1 0h1m2 0h1m3 0h4m1 0h9m1 0h1m2 0h1m1 0h3m2 0h2m1 0h1m1 0h1m2 0h3m2 0h3m4 0h1m1 0h1m2 0h2m1 0h1m4 0h1m1 0h1m3 0h1m1 0h1m1 0h1m1 0h1m2 0h2m2 0h4m2 0h3m1 0h4m1 0h1m4 0h1m1 0h1m2 0h7m1 0h5m1 0h6m4 0h2m2 0h1m1 0h1m1 0h3m1 0h1m1 0h2m7 0h7m2 0h2M6 56.5h1m1 0h3m8 0h1m1 0h1m1 0h2m5 0h2m1 0h5m1 0h3m5 0h5m2 0h1m4 0h1m3 0h4m1 0h3m3 0h5m3 0h1m8 0h1m1 0h2m7 0h2m2 0h2m1 0h1m1 0h1m2 0h2m1 0h1m6 0h1m2 0h4m1 0h2m3 0h1m3 0h3m1 0h3m1 0h1m1 0h1m1 0h3m1 0h1m1 0h1m2 0h2m2 0h1m1 0h4M4 57.5h2m1 0h3m1 0h3m2 0h1m1 0h3m2 0h1m1 0h2m1 0h2m2 0h1m1 0h1m1 0h4m1 0h2m1 0h1m7 0h5m4 0h2m4 0h6m2 0h2m1 0h1m4 0h2m1 0h3m4 0h1m3 0h4m4 0h2m1 0h1m4 0h3m2 0h3m1 0h1m3 0h1m4 0h1m1 0h2m1 0h2m4 0h1m6 0h6m1 0h1m4 0h3m3 0h1m2 0h2M4 58.5h1m2 0h1m2 0h1m1 0h1m4 0h2m1 0h7m1 0h1m1 0h1m1 0h1m1 0h2m2 0h1m1 0h1m1 0h2m1 0h1m1 0h1m1 0h3m1 0h1m1 0h2m1 0h4m2 0h1m5 0h1m1 0h3m1 0h1m2 0h1m2 0h1m8 0h1m3 0h6m1 0h1m1 0h1m2 0h2m2 0h1m2 0h7m1 0h4m1 0h2m1 0h1m1 0h1m1 0h4m1 0h1m1 0h2m1 0h2m3 0h1m4 0h1m2 0h2m1 0h1m2 0h2m1 0h1m1 0h2m1 0h2M4 59.5h1m1 0h3m3 0h2m3 0h2m2 0h1m2 0h1m1 0h3m4 0h2m1 0h1m2 0h3m3 0h2m2 0h1m1 0h2m2 0h1m2 0h1m3 0h1m3 0h1m3 0h2m1 0h2m1 0h1m1 0h1m1 0h1m2 0h1m2 0h2m2 0h1m1 0h2m1 0h2m1 0h1m2 0h4m1 0h1m1 0h1m1 0h1m4 0h5m1 0h4m1 0h2m3 0h3m1 0h2m2 0h2m2 0h1m3 0h1m1 0h1m2 0h3m2 0h3m2 0h1m1 0h1m2 0h1m1 0h1M4 60.5h2m2 0h5m1 0h1m2 0h4m1 0h1m2 0h4m1 0h2m2 0h5m1 0h1m1 0h2m2 0h7m1 0h3m2 0h7m1 0h1m1 0h2m2 0h1m1 0h3m1 0h3m1 0h1m2 0h5m2 0h2m3 0h1m3 0h5m4 0h6m1 0h1m1 0h1m4 0h1m1 0h1m2 0h4m1 0h1m1 0h7m2 0h3m3 0h1m2 0h3m4 0h1m1 0h5m1 0h2M4 61.5h2m1 0h2m3 0h1m1 0h1m3 0h1m1 0h1m2 0h2m2 0h1m1 0h4m1 0h1m3 0h1m1 0h1m3 0h2m2 0h1m1 0h1m3 0h3m3 0h1m3 0h2m2 0h3m1 0h1m2 0h2m6 0h4m3 0h1m4 0h1m1 0h1m1 0h1m1 0h1m1 0h1m2 0h2m4 0h1m3 0h1m4 0h1m4 0h1m2 0h1m4 0h1m1 0h1m1 0h1m3 0h1m1 0h1m1 0h1m4 0h1m1 0h1m2 0h1m4 0h1m1 0h2m3 0h1m1 0h1M4 62.5h2m1 0h2m1 0h1m1 0h4m1 0h3m3 0h3m1 0h2m1 0h3m1 0h1m1 0h1m1 0h3m5 0h1m3 0h3m2 0h1m1 0h2m1 0h1m1 0h1m1 0h1m1 0h1m1 0h1m2 0h3m3 0h1m1 0h2m1 0h1m1 0h3m1 0h1m1 0h1m1 0h1m2 0h5m2 0h1m1 0h1m4 0h1m2 0h1m1 0h1m1 0h2m2 0h1m1 0h1m1 0h3m1 0h1m1 0h2m3 0h2m1 0h1m1 0h1m1 0h1m1 0h2m2 0h2m3 0h2m2 0h5m2 0h1m1 0h1m1 0h5M4 63.5h3m1 0h1m3 0h1m2 0h2m1 0h1m5 0h2m1 0h1m1 0h1m1 0h1m2 0h1m3 0h3m3 0h1m2 0h1m4 0h2m4 0h1m1 0h1m3 0h1m2 0h1m2 0h1m6 0h4m2 0h1m1 0h2m3 0h1m1 0h3m1 0h1m1 0h1m1 0h2m1 0h3m1 0h2m2 0h2m3 0h4m1 0h3m8 0h1m1 0h1m2 0h2m3 0h1m4 0h2m5 0h1m1 0h2m2 0h1m2 0h2m3 0h1m2 0h2M4 64.5h9m1 0h2m1 0h5m8 0h1m1 0h8m2 0h1m1 0h1m2 0h1m1 0h1m3 0h1m5 0h16m1 0h3m6 0h7m5 0h3m1 0h2m2 0h2m5 0h7m1 0h2m2 0h1m2 0h2m1 0h1m1 0h4m1 0h15m3 0h6m1 0h11M4 65.5h3m1 0h1m2 0h4m1 0h1m2 0h2m5 0h1m2 0h2m1 0h1m2 0h1m1 0h1m3 0h2m1 0h1m2 0h1m1 0h1m1 0h2m1 0h2m1 0h2m4 0h2m4 0h2m1 0h1m2 0h1m2 0h1m2 0h7m1 0h2m2 0h4m2 0h2m2 0h2m1 0h2m1 0h1m2 0h1m1 0h2m2 0h1m2 0h2m1 0h3m1 0h1m2 0h1m1 0h4m4 0h2m1 0h1m3 0h1m2 0h2m1 0h1m1 0h1m1 0h1m2 0h1m3 0h2m1 0h2m2 0h1M6 66.5h2m1 0h2m1 0h3m7 0h1m3 0h1m2 0h3m1 0h3m2 0h3m1 0h2m1 0h3m3 0h7m3 0h1m2 0h3m3 0h4m2 0h1m2 0h1m2 0h1m3 0h1m1 0h1m3 0h1m1 0h1m3 0h3m1 0h1m4 0h1m1 0h3m3 0h1m1 0h3m2 0h6m1 0h2m4 0h2m1 0h1m3 0h2m5 0h1m1 0h1m2 0h1m2 0h4m1 0h1m2 0h3m3 0h2M4 67.5h3m1 0h2m2 0h1m2 0h2m1 0h1m5 0h2m2 0h1m2 0h3m1 0h4m3 0h1m4 0h1m1 0h1m2 0h2m4 0h2m1 0h2m3 0h1m3 0h1m2 0h3m2 0h2m3 0h3m1 0h3m1 0h3m1 0h1m2 0h1m2 0h1m1 0h1m1 0h1m1 0h2m1 0h1m1 0h1m1 0h5m1 0h5m1 0h1m1 0h1m2 0h2m2 0h2m1 0h8m8 0h1m1 0h1m4 0h1m1 0h2m1 0h4M4 68.5h1m1 0h1m3 0h2m2 0h1m1 0h1m1 0h2m1 0h2m2 0h2m2 0h4m3 0h1m2 0h1m3 0h2m1 0h3m5 0h1m7 0h1m2 0h1m3 0h3m1 0h4m7 0h2m2 0h1m1 0h2m2 0h2m3 0h1m1 0h1m1 0h2m1 0h2m3 0h1m4 0h2m2 0h1m3 0h1m2 0h2m1 0h1m2 0h2m2 0h11m2 0h1m1 0h1m4 0h3m2 0h3m2 0h2m1 0h2M4 69.5h1m1 0h1m1 0h2m3 0h2m14 0h1m2 0h2m1 0h2m2 0h7m1 0h3m1 0h1m1 0h4m2 0h5m2 0h1m1 0h3m7 0h1m3 0h6m2 0h1m1 0h1m2 0h2m2 0h1m1 0h1m4 0h1m3 0h2m2 0h2m2 0h2m1 0h2m1 0h1m1 0h3m2 0h1m1 0h2m1 0h1m6 0h4m1 0h1m2 0h1m4 0h1m1 0h2m1 0h2m2 0h5m1 0h1M6 70.5h3m1 0h2m1 0h2m1 0h1m1 0h2m4 0h2m5 0h2m1 0h1m3 0h1m1 0h1m2 0h1m1 0h1m1 0h1m4 0h1m2 0h1m2 0h1m1 0h1m1 0h1m1 0h2m1 0h2m3 0h2m1 0h1m3 0h1m1 0h2m5 0h4m5 0h4m1 0h1m2 0h1m1 0h3m1 0h1m2 0h2m3 0h2m1 0h2m1 0h1m1 0h3m5 0h2m3 0h1m1 0h1m4 0h1m2 0h1m1 0h1m2 0h1m1 0h4m1 0h1m2 0h2m2 0h4M4 71.5h1m1 0h1m1 0h2m1 0h3m1 0h1m2 0h2m1 0h1m2 0h3m1 0h1m1 0h1m1 0h3m1 0h1m1 0h3m1 0h3m1 0h2m3 0h3m4 0h4m4 0h1m3 0h1m3 0h9m4 0h2m1 0h2m1 0h2m1 0h5m1 0h2m1 0h1m2 0h1m3 0h1m2 0h4m1 0h2m3 0h1m9 0h5m1 0h1m3 0h1m1 0h1m5 0h3m1 0h1m1 0h2m1 0h8M6 72.5h2m2 0h1m4 0h2m2 0h1m3 0h1m1 0h1m2 0h2m1 0h1m1 0h4m3 0h1m1 0h1m1 0h1m2 0h1m2 0h2m1 0h1m6 0h1m2 0h3m1 0h1m1 0h1m1 0h1m1 0h1m1 0h2m1 0h1m2 0h1m1 0h1m1 0h2m1 0h2m3 0h2m4 0h6m1 0h1m1 0h3m2 0h1m1 0h6m4 0h1m1 0h1m1 0h5m3 0h2m1 0h3m2 0h6m4 0h6m2 0h1m2 0h1m1 0h4M4 73.5h1m1 0h1m1 0h2m1 0h2m1 0h1m3 0h1m3 0h3m4 0h1m1 0h2m3 0h1m4 0h1m1 0h4m1 0h2m1 0h2m2 0h3m5 0h3m2 0h1m1 0h1m4 0h1m6 0h2m1 0h1m3 0h3m1 0h1m1 0h1m1 0h1m1 0h1m5 0h2m2 0h1m2 0h1m1 0h2m1 0h1m3 0h2m4 0h1m2 0h1m2 0h1m2 0h1m4 0h1m1 0h2m3 0h4m1 0h2m1 0h1m4 0h1m1 0h1m1 0h4m1 0h2M4 74.5h2m3 0h2m1 0h1m4 0h1m2 0h1m3 0h1m2 0h1m1 0h2m1 0h2m1 0h1m4 0h1m1 0h2m1 0h1m4 0h3m2 0h1m1 0h3m4 0h1m1 0h1m5 0h1m6 0h4m4 0h2m1 0h1m1 0h1m3 0h3m1 0h1m1 0h1m4 0h3m4 0h1m1 0h3m3 0h1m1 0h2m4 0h2m3 0h3m13 0h1m1 0h3m4 0h2m3 0h2m5 0h1M5 75.5h2m6 0h4m1 0h1m1 0h1m2 0h2m4 0h5m3 0h4m2 0h2m1 0h4m1 0h3m1 0h1m2 0h2m1 0h2m10 0h6m2 0h4m4 0h5m4 0h1m2 0h1m1 0h1m1 0h1m5 0h3m1 0h1m3 0h3m1 0h1m5 0h1m2 0h1m2 0h1m1 0h3m1 0h1m1 0h1m3 0h3m5 0h3m3 0h1m1 0h2m2 0h2m3 0h1M5 76.5h1m2 0h3m5 0h2m2 0h2m2 0h1m2 0h4m4 0h1m2 0h3m3 0h1m2 0h2m1 0h1m2 0h1m3 0h1m3 0h5m4 0h3m2 0h2m1 0h4m3 0h4m1 0h2m2 0h2m1 0h2m1 0h4m2 0h3m7 0h3m1 0h1m4 0h1m1 0h2m1 0h1m2 0h1m3 0h1m7 0h4m1 0h1m1 0h1m1 0h2m1 0h3m1 0h3m2 0h1m1 0h3m1 0h1M4 77.5h3m5 0h1m1 0h1m1 0h5m1 0h2m8 0h2m1 0h1m2 0h1m1 0h2m2 0h1m2 0h3m5 0h1m1 0h1m2 0h2m1 0h2m1 0h1m1 0h4m5 0h2m1 0h1m1 0h1m1 0h2m2 0h2m1 0h1m2 0h1m4 0h2m2 0h5m1 0h1m1 0h1m2 0h2m5 0h2m1 0h2m1 0h3m3 0h2m1 0h1m2 0h2m2 0h4m3 0h2m1 0h2m1 0h1m1 0h2m2 0h1m2 0h2m1 0h1m1 0h1M4 78.5h4m1 0h3m3 0h6m2 0h2m1 0h1m1 0h1m3 0h1m3 0h1m1 0h1m2 0h1m1 0h1m1 0h2m5 0h5m1 0h2m1 0h1m5 0h2m1 0h1m1 0h1m2 0h1m1 0h1m1 0h2m1 0h1m4 0h3m6 0h1m1 0h1m1 0h1m1 0h1m2 0h5m3 0h3m1 0h1m1 0h1m3 0h5m1 0h1m2 0h1m9 0h1m2 0h1m7 0h1m1 0h1m1 0h1m1 0h3m1 0h1m5 0h1m1 0h2M5 79.5h1m2 0h1m2 0h1m1 0h2m4 0h2m3 0h1m1 0h4m2 0h1m2 0h1m3 0h2m1 0h1m2 0h3m1 0h1m1 0h1m6 0h2m1 0h2m1 0h1m1 0h1m2 0h3m4 0h2m1 0h1m1 0h1m2 0h3m1 0h1m2 0h4m1 0h1m4 0h3m1 0h2m3 0h4m4 0h2m2 0h1m2 0h2m1 0h1m1 0h6m1 0h4m4 0h1m1 0h1m3 0h2m1 0h2m2 0h1m1 0h1m2 0h2m1 0h1M5 80.5h6m1 0h2m2 0h2m3 0h2m1 0h1m1 0h1m1 0h1m2 0h2m1 0h1m1 0h1m1 0h3m3 0h1m2 0h2m1 0h3m1 0h1m2 0h1m2 0h1m1 0h6m2 0h1m3 0h1m1 0h3m2 0h3m3 0h2m1 0h2m2 0h2m4 0h1m2 0h3m2 0h1m4 0h1m1 0h4m1 0h1m2 0h1m1 0h1m1 0h2m4 0h1m3 0h2m1 0h1m1 0h9m4 0h3m1 0h1m2 0h1m3 0h2m1 0h2m1 0h1M5 81.5h2m1 0h2m7 0h3m1 0h1m3 0h4m4 0h1m1 0h1m1 0h2m1 0h2m1 0h2m1 0h1m1 0h1m1 0h1m3 0h4m2 0h5m1 0h1m4 0h2m2 0h1m4 0h1m1 0h2m1 0h2m2 0h1m1 0h1m2 0h1m2 0h1m1 0h2m5 0h2m2 0h2m2 0h1m1 0h4m1 0h2m1 0h1m1 0h3m2 0h7m3 0h2m1 0h1m1 0h2m2 0h2m1 0h2m1 0h1m4 0h3m1 0h7M4 82.5h1m1 0h1m2 0h2m1 0h4m2 0h1m1 0h3m1 0h1m2 0h1m8 0h2m2 0h1m1 0h1m2 0h2m5 0h2m1 0h1m2 0h2m1 0h1m2 0h1m1 0h1m1 0h1m1 0h2m1 0h1m1 0h1m3 0h4m1 0h1m2 0h3m2 0h1m3 0h3m2 0h2m4 0h1m1 0h1m3 0h2m2 0h1m2 0h1m1 0h3m3 0h2m1 0h1m4 0h1m4 0h1m3 0h2m1 0h1m3 0h3m1 0h1m2 0h2m3 0h3m4 0h2M5 83.5h4m2 0h2m1 0h1m4 0h1m1 0h1m4 0h1m3 0h1m7 0h3m1 0h1m3 0h1m1 0h2m2 0h2m4 0h2m1 0h3m3 0h1m1 0h1m1 0h1m2 0h1m1 0h3m8 0h1m2 0h4m2 0h1m2 0h1m2 0h2m6 0h1m1 0h1m3 0h1m2 0h3m3 0h2m2 0h3m6 0h7m2 0h1m5 0h1m1 0h1m1 0h1m1 0h2m2 0h2m4 0h1M4 84.5h1m2 0h4m5 0h1m1 0h2m1 0h2m1 0h1m1 0h1m1 0h1m1 0h3m5 0h3m1 0h1m1 0h9m1 0h4m2 0h1m1 0h4m2 0h4m1 0h1m6 0h1m1 0h2m1 0h1m11 0h1m2 0h5m1 0h1m1 0h2m2 0h1m2 0h1m2 0h1m1 0h1m2 0h1m3 0h2m1 0h1m2 0h1m3 0h3m2 0h1m2 0h2m2 0h2m1 0h1m2 0h4m2 0h3m5 0h4M5 85.5h1m1 0h2m3 0h1m2 0h1m1 0h1m1 0h1m1 0h3m1 0h3m1 0h1m1 0h1m3 0h1m2 0h1m1 0h2m3 0h1m1 0h2m4 0h1m2 0h1m4 0h1m1 0h1m1 0h1m1 0h1m2 0h2m1 0h2m1 0h1m1 0h1m2 0h3m1 0h2m2 0h1m1 0h1m1 0h5m2 0h1m2 0h2m2 0h1m1 0h1m1 0h4m2 0h1m6 0h1m1 0h1m5 0h5m5 0h4m1 0h1m1 0h3m1 0h1m2 0h1m2 0h2m4 0h6m1 0h1M5 86.5h1m2 0h6m2 0h1m2 0h1m1 0h3m4 0h4m2 0h8m1 0h1m2 0h1m4 0h3m1 0h1m1 0h1m2 0h6m1 0h2m1 0h1m1 0h2m1 0h1m4 0h3m1 0h1m1 0h5m1 0h1m2 0h1m2 0h2m1 0h2m1 0h1m1 0h1m1 0h9m1 0h1m2 0h1m3 0h5m1 0h1m3 0h2m1 0h6m1 0h2m1 0h2m8 0h5m1 0h6m1 0h2M5 87.5h1m1 0h2m3 0h1m1 0h7m3 0h1m1 0h3m2 0h4m3 0h1m3 0h1m2 0h3m1 0h1m1 0h1m3 0h1m2 0h3m3 0h1m1 0h1m7 0h1m1 0h1m1 0h2m2 0h1m1 0h1m1 0h1m3 0h1m1 0h1m2 0h2m1 0h1m2 0h6m1 0h1m2 0h2m3 0h2m2 0h1m3 0h5m1 0h2m3 0h1m1 0h2m3 0h2m1 0h1m2 0h2m6 0h6m1 0h2m3 0h1m3 0h1M7 88.5h2m1 0h1m1 0h2m2 0h3m2 0h1m1 0h1m1 0h1m2 0h3m2 0h2m1 0h1m1 0h3m2 0h1m5 0h2m1 0h1m1 0h1m1 0h2m1 0h2m1 0h1m1 0h4m1 0h1m1 0h1m2 0h1m1 0h1m4 0h1m3 0h2m1 0h1m1 0h2m2 0h1m3 0h4m3 0h4m3 0h1m1 0h1m1 0h6m1 0h2m2 0h1m4 0h2m4 0h1m1 0h1m1 0h1m3 0h1m1 0h3m3 0h5m1 0h3m1 0h1m1 0h1m1 0h4M4 89.5h1m3 0h1m3 0h3m2 0h1m2 0h7m1 0h2m1 0h1m2 0h1m3 0h1m2 0h1m1 0h1m1 0h1m2 0h1m1 0h2m1 0h1m2 0h3m1 0h1m3 0h2m3 0h3m1 0h1m1 0h1m1 0h1m2 0h5m1 0h1m3 0h5m1 0h1m2 0h1m1 0h1m1 0h2m1 0h2m1 0h2m1 0h1m3 0h2m1 0h1m1 0h4m1 0h1m6 0h1m1 0h2m1 0h1m3 0h6m1 0h1m1 0h1m1 0h1m3 0h3m1 0h1m2 0h1m3 0h1m3 0h1M4 90.5h2m2 0h10m2 0h3m1 0h1m1 0h3m1 0h2m1 0h6m3 0h3m1 0h2m4 0h1m2 0h1m1 0h2m1 0h7m2 0h4m2 0h1m3 0h4m2 0h7m6 0h2m2 0h2m2 0h4m2 0h7m2 0h1m1 0h1m1 0h5m1 0h2m1 0h1m1 0h7m3 0h1m1 0h2m1 0h2m1 0h2m1 0h1m2 0h2m1 0h8m1 0h1M4 91.5h1m1 0h4m1 0h1m1 0h3m2 0h1m3 0h2m1 0h1m2 0h1m1 0h2m1 0h1m4 0h1m1 0h3m2 0h2m4 0h1m3 0h1m2 0h1m5 0h1m2 0h1m3 0h1m1 0h6m9 0h9m1 0h1m2 0h1m1 0h3m4 0h1m2 0h3m1 0h3m1 0h2m7 0h2m3 0h1m3 0h1m10 0h1m5 0h1m2 0h1m3 0h1m1 0h3m1 0h1m1 0h2M5 92.5h1m1 0h1m2 0h1m2 0h1m2 0h1m3 0h1m2 0h2m4 0h1m1 0h5m1 0h3m5 0h1m2 0h3m1 0h1m1 0h1m1 0h1m1 0h5m6 0h1m3 0h2m1 0h1m1 0h1m1 0h2m1 0h1m1 0h1m4 0h2m1 0h3m1 0h4m2 0h1m2 0h3m2 0h1m1 0h1m3 0h5m1 0h2m3 0h1m4 0h1m2 0h1m1 0h1m1 0h1m2 0h6m6 0h2m1 0h1m3 0h3m2 0h1m1 0h1m1 0h2M4 93.5h1m1 0h2m4 0h1m1 0h1m1 0h3m2 0h1m1 0h1m6 0h1m3 0h3m3 0h4m1 0h1m1 0h2m3 0h6m2 0h1m2 0h3m1 0h1m2 0h2m3 0h6m1 0h3m1 0h2m2 0h2m1 0h2m1 0h1m2 0h2m6 0h1m2 0h2m3 0h1m3 0h1m2 0h6m4 0h6m1 0h1m1 0h2m1 0h1m1 0h2m1 0h1m1 0h3m2 0h1m1 0h1m3 0h1m3 0h2M4 94.5h1m1 0h3m1 0h2m6 0h1m5 0h2m1 0h2m3 0h2m3 0h3m3 0h2m1 0h1m4 0h3m1 0h1m2 0h1m2 0h1m1 0h2m2 0h4m1 0h1m2 0h1m3 0h2m1 0h1m1 0h1m1 0h2m1 0h1m5 0h2m1 0h3m1 0h1m1 0h1m2 0h1m1 0h2m3 0h1m1 0h1m2 0h3m2 0h2m1 0h1m1 0h3m2 0h1m1 0h2m3 0h3m1 0h1m2 0h1m1 0h3m1 0h1m1 0h1m3 0h1m3 0h3m1 0h1m1 0h1M4 95.5h1m4 0h1m3 0h1m2 0h1m2 0h2m2 0h4m1 0h1m1 0h3m1 0h4m2 0h1m1 0h1m3 0h4m2 0h2m5 0h1m1 0h1m3 0h1m2 0h1m4 0h2m1 0h1m1 0h2m4 0h3m1 0h1m1 0h9m4 0h4m1 0h1m1 0h1m2 0h3m2 0h1m4 0h1m1 0h1m2 0h4m2 0h6m3 0h3m1 0h4m1 0h1m1 0h2m1 0h1m2 0h1m2 0h4m2 0h2M4 96.5h1m1 0h1m2 0h3m1 0h1m1 0h2m1 0h1m1 0h5m1 0h1m3 0h2m1 0h5m1 0h2m1 0h1m4 0h1m1 0h3m1 0h1m1 0h2m1 0h2m1 0h2m1 0h1m4 0h2m2 0h2m1 0h3m2 0h2m4 0h1m5 0h2m2 0h5m3 0h2m2 0h2m1 0h5m1 0h1m1 0h2m1 0h1m2 0h3m11 0h2m1 0h1m2 0h2m7 0h6m1 0h3m2 0h1m1 0h4M4 97.5h4m4 0h3m1 0h1m1 0h3m1 0h1m1 0h1m2 0h1m1 0h1m2 0h1m1 0h1m3 0h1m1 0h1m2 0h2m8 0h2m1 0h3m1 0h1m1 0h2m1 0h2m1 0h1m2 0h1m3 0h1m3 0h2m2 0h4m3 0h2m1 0h4m2 0h3m1 0h1m2 0h2m1 0h1m5 0h1m1 0h1m1 0h1m2 0h3m2 0h1m2 0h10m1 0h4m1 0h1m2 0h6m1 0h1m1 0h1m1 0h3m1 0h1m1 0h1m3 0h1M5 98.5h1m3 0h3m1 0h1m3 0h2m1 0h2m1 0h2m1 0h1m3 0h1m1 0h1m1 0h2m4 0h2m1 0h1m2 0h2m4 0h1m1 0h2m3 0h1m1 0h1m2 0h2m1 0h1m1 0h2m1 0h2m3 0h1m2 0h4m1 0h1m3 0h1m2 0h5m1 0h1m3 0h1m1 0h1m1 0h2m1 0h1m1 0h1m2 0h4m2 0h1m2 0h4m2 0h3m4 0h2m1 0h2m1 0h1m2 0h1m2 0h1m1 0h1m2 0h2m1 0h2m4 0h1m2 0h5m1 0h1M4 99.5h1m2 0h2m2 0h1m3 0h3m1 0h1m1 0h5m2 0h5m1 0h3m6 0h2m1 0h2m3 0h2m2 0h1m1 0h2m2 0h1m3 0h3m5 0h2m1 0h2m1 0h1m2 0h1m1 0h1m1 0h1m1 0h1m1 0h3m1 0h1m1 0h1m4 0h1m1 0h4m1 0h2m3 0h2m3 0h1m2 0h1m2 0h1m2 0h5m3 0h1m2 0h2m3 0h3m2 0h1m1 0h1m2 0h1m5 0h3m1 0h5m1 0h2M5 100.5h3m2 0h1m4 0h2m2 0h1m2 0h2m1 0h1m1 0h2m1 0h1m3 0h1m1 0h4m1 0h1m5 0h1m1 0h3m2 0h3m2 0h2m1 0h1m1 0h3m2 0h1m2 0h1m2 0h3m1 0h5m11 0h1m2 0h4m1 0h1m1 0h1m1 0h3m2 0h2m3 0h2m1 0h2m6 0h1m1 0h1m1 0h1m6 0h3m1 0h2m1 0h1m5 0h1m1 0h3m2 0h1m2 0h2m5 0h4M6 101.5h3m2 0h7m2 0h1m1 0h1m3 0h1m1 0h2m1 0h1m2 0h1m2 0h2m2 0h5m1 0h1m2 0h1m2 0h6m1 0h1m3 0h2m4 0h1m2 0h2m3 0h2m1 0h1m1 0h5m2 0h1m3 0h1m2 0h1m1 0h1m2 0h1m3 0h1m1 0h1m2 0h2m2 0h1m1 0h2m2 0h2m1 0h1m1 0h2m2 0h1m3 0h3m1 0h1m5 0h3m2 0h2m1 0h2m8 0h2m2 0h2M4 102.5h2m1 0h1m2 0h1m1 0h4m1 0h3m2 0h1m1 0h1m1 0h2m2 0h2m3 0h4m1 0h1m1 0h2m5 0h1m2 0h4m1 0h3m2 0h1m2 0h1m1 0h4m1 0h2m4 0h4m2 0h2m1 0h1m1 0h2m1 0h1m2 0h1m1 0h4m1 0h1m1 0h1m1 0h5m3 0h1m1 0h4m1 0h1m1 0h1m1 0h5m1 0h1m2 0h1m2 0h1m2 0h3m5 0h2m6 0h1m2 0h3m2 0h2m1 0h1m2 0h1M7 103.5h1m7 0h1m2 0h1m3 0h1m5 0h4m1 0h2m1 0h2m2 0h2m1 0h5m4 0h2m4 0h1m2 0h1m4 0h3m1 0h1m2 0h2m1 0h1m2 0h1m2 0h2m1 0h9m1 0h5m1 0h1m1 0h4m1 0h4m5 0h1m2 0h1m1 0h6m2 0h2m1 0h1m1 0h2m1 0h3m3 0h2m1 0h2m1 0h2m1 0h2m1 0h2m3 0h1m1 0h3m1 0h1m1 0h1m1 0h1M4 104.5h7m2 0h3m1 0h2m4 0h3m1 0h3m2 0h1m1 0h3m2 0h1m1 0h2m2 0h1m4 0h1m3 0h1m1 0h1m1 0h5m1 0h3m1 0h1m2 0h1m2 0h5m1 0h4m1 0h1m7 0h3m4 0h2m3 0h1m1 0h1m3 0h4m1 0h1m1 0h1m1 0h2m3 0h1m1 0h2m1 0h1m9 0h7m1 0h1m1 0h1m1 0h1m1 0h3m1 0h7m1 0h1m1 0h2m1 0h2M11 105.5h2m2 0h2m3 0h2m1 0h5m1 0h1m1 0h3m1 0h5m1 0h1m1 0h2m8 0h1m2 0h3m1 0h1m1 0h3m1 0h1m2 0h3m3 0h2m4 0h2m1 0h4m2 0h6m1 0h1m3 0h1m1 0h1m2 0h1m2 0h1m1 0h1m1 0h1m1 0h1m6 0h1m1 0h1m1 0h2m4 0h1m1 0h6m1 0h2m1 0h1m2 0h1m1 0h1m2 0h2m4 0h1m2 0h1m5 0h2m3 0h1M6 106.5h7m2 0h1m2 0h1m1 0h1m1 0h7m2 0h3m1 0h2m3 0h2m1 0h1m1 0h1m1 0h1m1 0h2m1 0h1m1 0h2m5 0h3m1 0h1m1 0h1m2 0h2m1 0h1m5 0h2m1 0h1m1 0h3m2 0h2m4 0h1m2 0h1m1 0h1m2 0h2m2 0h4m3 0h3m1 0h2m2 0h1m1 0h2m1 0h3m1 0h1m2 0h1m2 0h2m1 0h1m1 0h1m4 0h3m4 0h1m1 0h1m3 0h3m1 0h1m1 0h1m1 0h5M5 107.5h1m2 0h1m5 0h2m3 0h8m1 0h1m1 0h2m2 0h1m2 0h1m1 0h1m4 0h3m2 0h1m1 0h3m5 0h2m4 0h3m5 0h4m1 0h2m2 0h2m4 0h2m1 0h3m2 0h1m1 0h2m2 0h5m1 0h1m1 0h1m2 0h1m3 0h3m1 0h2m1 0h3m1 0h1m1 0h2m1 0h4m1 0h2m1 0h1m3 0h2m3 0h2m2 0h2m1 0h1m1 0h1m1 0h1m1 0h1m1 0h2m2 0h1m1 0h1M4 108.5h4m2 0h6m1 0h1m1 0h3m4 0h7m1 0h1m1 0h2m2 0h3m4 0h1m1 0h2m3 0h3m1 0h1m2 0h2m1 0h1m1 0h1m3 0h2m2 0h2m1 0h2m1 0h2m1 0h2m7 0h1m1 0h1m2 0h2m1 0h2m3 0h2m2 0h1m2 0h2m2 0h1m1 0h1m1 0h2m1 0h1m1 0h2m1 0h1m1 0h1m1 0h1m3 0h1m1 0h5m1 0h2m6 0h2m1 0h1m1 0h3m2 0h3m1 0h5M4 109.5h1m1 0h1m2 0h1m2 0h2m2 0h1m1 0h5m5 0h5m1 0h1m1 0h3m2 0h1m1 0h1m5 0h2m2 0h1m2 0h1m3 0h1m3 0h1m9 0h2m3 0h2m1 0h1m1 0h2m2 0h1m1 0h5m1 0h2m1 0h2m2 0h2m4 0h1m1 0h2m2 0h3m1 0h1m1 0h4m2 0h1m5 0h3m1 0h1m1 0h1m2 0h3m4 0h1m2 0h3m1 0h1m5 0h2m1 0h1m2 0h1m3 0h1M5 110.5h1m1 0h4m1 0h1m4 0h8m3 0h2m1 0h1m2 0h3m2 0h2m4 0h2m1 0h2m2 0h2m1 0h1m1 0h1m1 0h1m3 0h3m1 0h2m1 0h1m1 0h1m2 0h1m7 0h1m1 0h2m2 0h1m2 0h1m4 0h2m3 0h1m1 0h1m1 0h1m1 0h5m4 0h3m2 0h1m2 0h1m1 0h1m1 0h1m4 0h4m4 0h2m3 0h3m1 0h1m2 0h1m2 0h1m2 0h3m3 0h1m1 0h1m3 0h1M4 111.5h1m3 0h1m3 0h1m1 0h1m1 0h1m2 0h1m2 0h1m1 0h2m1 0h6m1 0h2m7 0h2m1 0h2m1 0h1m1 0h2m1 0h1m4 0h3m3 0h4m3 0h1m1 0h1m1 0h1m1 0h1m4 0h1m4 0h1m1 0h3m1 0h1m1 0h2m3 0h1m1 0h3m3 0h2m2 0h1m2 0h2m5 0h1m1 0h1m2 0h1m1 0h1m2 0h3m1 0h1m1 0h3m1 0h1m1 0h1m7 0h3m1 0h1m3 0h1m1 0h1m1 0h3M4 112.5h1m2 0h6m2 0h1m1 0h1m1 0h1m3 0h1m10 0h5m1 0h1m1 0h1m4 0h1m1 0h2m4 0h1m4 0h5m2 0h3m2 0h1m1 0h2m1 0h1m1 0h1m1 0h1m1 0h1m2 0h5m2 0h3m2 0h4m4 0h2m3 0h6m1 0h3m1 0h1m2 0h1m1 0h2m1 0h1m1 0h2m2 0h8m1 0h1m1 0h1m4 0h1m1 0h2m1 0h4m1 0h1m1 0h9M5 113.5h1m2 0h1m3 0h1m4 0h1m1 0h3m1 0h3m1 0h1m1 0h3m2 0h1m3 0h4m1 0h2m3 0h3m3 0h7m3 0h1m1 0h1m4 0h2m3 0h2m2 0h2m2 0h3m3 0h1m1 0h1m1 0h3m5 0h1m1 0h1m4 0h1m2 0h1m3 0h1m2 0h1m1 0h1m1 0h2m1 0h1m6 0h2m3 0h1m3 0h3m4 0h1m3 0h1m1 0h2m3 0h3m1 0h1m3 0h1m1 0h1m1 0h1M7 114.5h2m1 0h1m1 0h1m1 0h1m2 0h1m1 0h3m1 0h1m1 0h1m4 0h1m3 0h1m1 0h1m1 0h4m1 0h1m2 0h1m1 0h2m1 0h2m1 0h2m1 0h4m1 0h1m1 0h2m1 0h2m1 0h1m1 0h2m4 0h3m2 0h1m2 0h1m1 0h1m1 0h1m1 0h1m2 0h1m1 0h3m3 0h2m1 0h1m1 0h1m1 0h3m1 0h1m1 0h2m1 0h4m2 0h1m3 0h2m1 0h1m1 0h3m1 0h1m1 0h1m1 0h1m3 0h4m3 0h2m3 0h3m3 0h1m1 0h1m1 0h2m1 0h1M4 115.5h5m3 0h2m1 0h6m1 0h1m3 0h1m2 0h4m1 0h1m3 0h1m1 0h1m2 0h1m1 0h5m3 0h1m6 0h1m3 0h1m1 0h2m3 0h1m2 0h1m1 0h1m2 0h1m3 0h1m1 0h2m3 0h4m2 0h1m2 0h1m1 0h1m1 0h3m1 0h4m1 0h1m3 0h2m4 0h4m1 0h1m3 0h3m1 0h4m3 0h1m1 0h1m1 0h1m1 0h1m2 0h1m2 0h1m6 0h1m1 0h2m3 0h1M4 116.5h1m1 0h7m1 0h2m1 0h1m1 0h2m1 0h1m2 0h2m2 0h2m3 0h5m1 0h1m1 0h1m1 0h3m1 0h3m1 0h1m1 0h1m3 0h7m7 0h1m2 0h3m2 0h2m4 0h6m2 0h1m1 0h1m1 0h1m1 0h1m1 0h1m3 0h1m5 0h7m7 0h7m3 0h7m2 0h2m3 0h1m1 0h2m1 0h5m2 0h1m1 0h6m1 0h1M4 117.5h1m4 0h1m4 0h1m1 0h1m1 0h2m1 0h1m1 0h3m3 0h7m1 0h1m3 0h3m4 0h1m1 0h8m1 0h2m1 0h1m1 0h2m3 0h3m5 0h1m1 0h1m4 0h2m5 0h1m1 0h4m2 0h3m1 0h4m1 0h2m1 0h3m3 0h1m2 0h2m2 0h1m2 0h1m5 0h2m2 0h1m2 0h3m1 0h1m1 0h1m2 0h1m1 0h4m1 0h2m4 0h1m2 0h2m1 0h1m2 0h1M9 118.5h4m5 0h4m1 0h1m2 0h1m1 0h5m7 0h1m1 0h1m1 0h1m1 0h1m2 0h1m2 0h1m4 0h2m8 0h4m2 0h1m4 0h4m2 0h3m1 0h1m1 0h1m1 0h4m1 0h1m1 0h1m4 0h1m4 0h3m1 0h1m1 0h5m5 0h3m4 0h6m1 0h1m8 0h4m2 0h1m2 0h2m1 0h4m1 0h1m1 0h3m2 0h1M4 119.5h1m2 0h1m3 0h6m3 0h1m3 0h3m4 0h1m3 0h1m1 0h3m1 0h1m1 0h1m2 0h2m3 0h2m1 0h6m1 0h1m2 0h4m1 0h6m1 0h1m2 0h1m2 0h2m1 0h1m3 0h1m1 0h1m2 0h1m6 0h1m2 0h1m1 0h1m1 0h3m3 0h1m1 0h1m1 0h2m3 0h1m1 0h1m1 0h4m2 0h1m1 0h2m2 0h1m2 0h2m2 0h2m1 0h1m1 0h2m1 0h1m4 0h2m3 0h2m1 0h2m3 0h1M6 120.5h6m1 0h1m1 0h3m2 0h1m1 0h5m5 0h5m1 0h3m1 0h3m2 0h1m1 0h2m1 0h1m1 0h2m2 0h1m2 0h1m3 0h1m3 0h1m4 0h2m1 0h1m1 0h1m1 0h1m2 0h1m1 0h3m2 0h1m1 0h1m5 0h3m1 0h1m2 0h2m2 0h5m3 0h1m1 0h3m3 0h3m1 0h1m1 0h1m3 0h1m1 0h1m1 0h1m2 0h1m1 0h3m4 0h1m2 0h8m1 0h1m1 0h1m2 0h3M4 121.5h1m1 0h2m3 0h1m6 0h1m1 0h2m2 0h1m1 0h3m1 0h1m1 0h2m2 0h1m5 0h1m1 0h3m3 0h1m2 0h2m2 0h1m1 0h8m1 0h1m1 0h2m3 0h3m1 0h2m1 0h1m2 0h1m2 0h1m5 0h3m2 0h1m2 0h1m3 0h4m4 0h1m1 0h1m4 0h1m2 0h1m1 0h2m1 0h1m1 0h1m1 0h2m2 0h1m1 0h2m1 0h1m2 0h2m2 0h5m1 0h2m3 0h1m1 0h2m2 0h1m2 0h1M6 122.5h2m2 0h4m2 0h1m2 0h2m1 0h1m4 0h1m2 0h3m1 0h4m1 0h2m2 0h1m5 0h1m1 0h3m5 0h1m1 0h2m4 0h2m1 0h1m2 0h4m1 0h1m1 0h5m1 0h2m2 0h1m2 0h1m1 0h1m1 0h2m1 0h1m2 0h1m4 0h1m1 0h2m3 0h2m1 0h2m4 0h4m1 0h1m2 0h1m4 0h1m3 0h4m2 0h5m5 0h1m2 0h1m4 0h1m2 0h1m2 0h2M4 123.5h2m1 0h1m1 0h1m1 0h1m4 0h2m1 0h2m1 0h4m1 0h1m1 0h4m1 0h1m1 0h2m3 0h1m1 0h1m2 0h2m1 0h1m4 0h1m2 0h1m1 0h1m2 0h1m1 0h1m1 0h4m1 0h4m1 0h1m4 0h1m4 0h1m1 0h4m4 0h1m4 0h1m1 0h3m1 0h4m6 0h1m1 0h1m5 0h1m5 0h1m1 0h3m6 0h2m1 0h2m2 0h1m1 0h6m2 0h2m6 0h2m3 0h1M4 124.5h3m1 0h1m1 0h2m1 0h1m3 0h1m2 0h2m1 0h1m1 0h1m1 0h2m2 0h5m1 0h1m4 0h1m1 0h1m2 0h1m1 0h3m2 0h1m1 0h1m1 0h4m3 0h1m1 0h3m1 0h1m3 0h2m1 0h3m1 0h1m1 0h3m1 0h3m1 0h2m6 0h4m1 0h3m5 0h2m1 0h3m2 0h2m3 0h2m1 0h4m2 0h1m2 0h1m1 0h1m2 0h1m1 0h1m1 0h2m7 0h5m1 0h6m1 0h2M5 125.5h2m2 0h1m1 0h3m2 0h1m2 0h1m1 0h1m2 0h2m2 0h1m1 0h1m1 0h1m1 0h1m1 0h1m1 0h1m5 0h1m5 0h1m1 0h6m1 0h1m2 0h1m1 0h1m4 0h4m3 0h1m3 0h4m1 0h1m3 0h1m3 0h3m1 0h1m1 0h6m1 0h2m1 0h1m1 0h1m2 0h1m1 0h1m4 0h4m5 0h1m2 0h4m3 0h1m1 0h1m2 0h2m2 0h1m2 0h2m2 0h3m1 0h1m2 0h1m1 0h2m1 0h3M4 126.5h1m5 0h3m2 0h1m1 0h3m1 0h3m2 0h1m1 0h1m1 0h1m3 0h4m1 0h2m5 0h1m2 0h2m1 0h2m3 0h3m1 0h2m1 0h2m2 0h1m1 0h1m3 0h1m1 0h1m1 0h1m1 0h3m1 0h4m1 0h2m1 0h1m2 0h1m1 0h1m6 0h1m4 0h4m1 0h4m1 0h2m2 0h3m1 0h1m5 0h1m1 0h1m1 0h1m1 0h1m1 0h2m1 0h2m2 0h1m4 0h3m3 0h1m1 0h1m2 0h1m2 0h2m1 0h3M4 127.5h1m1 0h2m5 0h1m3 0h4m3 0h1m2 0h1m1 0h2m2 0h3m1 0h2m4 0h1m1 0h4m2 0h5m2 0h2m5 0h2m2 0h1m2 0h3m1 0h1m1 0h2m1 0h1m4 0h1m1 0h3m1 0h1m3 0h1m3 0h5m3 0h2m5 0h1m2 0h2m3 0h2m4 0h5m8 0h1m1 0h1m1 0h1m2 0h1m1 0h1m1 0h3m7 0h1m1 0h1m1 0h3m2 0h1M5 128.5h1m4 0h1m3 0h1m1 0h1m1 0h3m1 0h1m1 0h1m2 0h1m5 0h1m4 0h2m1 0h2m1 0h1m3 0h2m1 0h2m1 0h1m2 0h1m1 0h3m1 0h1m1 0h3m1 0h3m3 0h4m2 0h1m2 0h2m1 0h1m2 0h3m8 0h1m1 0h1m2 0h2m1 0h1m1 0h3m1 0h1m1 0h1m2 0h4m1 0h1m2 0h1m1 0h3m5 0h1m1 0h2m1 0h3m2 0h1m1 0h1m1 0h1m3 0h1m2 0h1m2 0h1m1 0h1m2 0h1m2 0h2M4 129.5h4m1 0h1m1 0h1m3 0h2m1 0h1m1 0h2m4 0h2m3 0h3m8 0h3m3 0h1m5 0h4m2 0h1m1 0h1m1 0h8m3 0h3m3 0h4m3 0h1m2 0h5m1 0h2m1 0h1m1 0h1m2 0h5m2 0h5m1 0h2m1 0h1m2 0h4m1 0h1m1 0h1m2 0h1m1 0h2m1 0h3m4 0h2m1 0h1m2 0h1m3 0h1m2 0h1m1 0h1m4 0h2m3 0h1M4 130.5h3m1 0h1m1 0h3m1 0h1m4 0h1m1 0h3m4 0h1m2 0h1m1 0h2m2 0h5m1 0h1m1 0h2m4 0h1m1 0h1m7 0h1m1 0h1m1 0h1m2 0h1m1 0h1m2 0h1m2 0h2m1 0h4m1 0h5m1 0h1m4 0h3m1 0h1m5 0h1m2 0h1m1 0h2m2 0h4m2 0h1m2 0h2m4 0h3m3 0h3m1 0h1m2 0h1m2 0h7m2 0h1m3 0h4m1 0h2m7 0h1M4 131.5h5m2 0h1m3 0h1m2 0h1m1 0h1m1 0h1m1 0h1m1 0h1m3 0h1m1 0h1m6 0h1m1 0h1m4 0h1m2 0h3m2 0h1m2 0h4m1 0h1m1 0h4m3 0h1m1 0h2m10 0h1m3 0h6m1 0h1m4 0h2m5 0h1m5 0h2m1 0h3m6 0h1m1 0h1m1 0h2m6 0h1m3 0h2m3 0h3m4 0h1m4 0h1m2 0h3m1 0h1m1 0h2M4 132.5h1m1 0h1m2 0h2m1 0h1m1 0h1m1 0h1m4 0h1m1 0h4m1 0h1m3 0h4m6 0h2m3 0h6m3 0h1m2 0h1m1 0h1m4 0h5m1 0h1m2 0h5m1 0h2m2 0h4m1 0h2m1 0h1m1 0h6m5 0h2m1 0h1m1 0h7m2 0h3m2 0h1m1 0h7m7 0h1m1 0h1m1 0h4m1 0h1m4 0h1m1 0h2m3 0h2m1 0h7M9 133.5h1m2 0h2m1 0h2m4 0h1m2 0h2m1 0h1m1 0h2m1 0h1m2 0h2m2 0h1m1 0h1m1 0h4m1 0h1m3 0h3m5 0h8m3 0h1m3 0h2m1 0h1m2 0h3m8 0h1m2 0h1m1 0h3m1 0h1m1 0h1m2 0h1m4 0h1m3 0h1m5 0h1m1 0h1m2 0h2m3 0h1m1 0h2m1 0h4m1 0h1m3 0h9m2 0h1m1 0h2m2 0h1m1 0h4m1 0h2M5 134.5h2m1 0h8m2 0h2m2 0h1m2 0h1m2 0h5m1 0h1m1 0h1m3 0h2m1 0h1m1 0h1m1 0h1m1 0h1m2 0h1m2 0h1m1 0h3m3 0h2m3 0h3m1 0h3m1 0h5m1 0h1m1 0h1m1 0h3m1 0h3m2 0h3m1 0h1m2 0h1m1 0h1m2 0h5m2 0h1m1 0h2m1 0h2m1 0h5m4 0h7m4 0h1m4 0h2m1 0h2m2 0h1m2 0h2m1 0h2m3 0h1m1 0h3m2 0h1M7 135.5h1m4 0h3m1 0h1m1 0h1m1 0h2m1 0h6m1 0h2m3 0h1m3 0h1m6 0h2m2 0h3m1 0h1m3 0h1m1 0h1m2 0h5m2 0h4m1 0h1m3 0h1m5 0h1m2 0h3m1 0h2m6 0h2m1 0h3m1 0h2m1 0h3m1 0h2m1 0h3m1 0h3m2 0h2m2 0h3m5 0h2m2 0h2m1 0h3m1 0h1m3 0h3m4 0h3m5 0h1m2 0h2M5 136.5h1m1 0h2m1 0h3m3 0h1m1 0h2m7 0h1m2 0h4m1 0h5m2 0h3m2 0h1m1 0h1m1 0h2m1 0h2m4 0h2m3 0h1m3 0h1m1 0h1m2 0h1m2 0h2m1 0h2m1 0h1m1 0h2m2 0h1m1 0h1m1 0h1m1 0h4m7 0h1m4 0h5m4 0h1m7 0h3m1 0h1m2 0h1m4 0h2m1 0h1m1 0h2m1 0h1m1 0h1m8 0h1m3 0h2m1 0h5M6 137.5h1m1 0h2m1 0h1m1 0h1m1 0h4m2 0h2m1 0h2m1 0h2m1 0h2m3 0h2m1 0h1m2 0h2m1 0h3m1 0h1m1 0h1m1 0h4m1 0h6m1 0h4m1 0h4m2 0h2m2 0h1m1 0h2m1 0h2m3 0h1m4 0h2m3 0h3m1 0h2m1 0h2m4 0h1m3 0h1m1 0h2m1 0h2m3 0h2m1 0h1m1 0h1m1 0h2m1 0h2m1 0h3m3 0h1m2 0h6m2 0h1m2 0h3m1 0h2m1 0h1m1 0h4M4 138.5h3m1 0h7m1 0h1m2 0h1m4 0h1m3 0h3m1 0h7m1 0h2m1 0h1m1 0h2m2 0h1m1 0h1m2 0h2m2 0h1m1 0h6m1 0h2m1 0h1m2 0h1m2 0h2m4 0h3m1 0h5m1 0h1m1 0h2m1 0h1m6 0h2m5 0h7m1 0h1m4 0h3m2 0h1m1 0h1m1 0h4m1 0h8m2 0h1m1 0h2m2 0h1m2 0h1m1 0h3m1 0h6m2 0h2M4 139.5h2m1 0h2m3 0h2m6 0h3m1 0h2m1 0h3m3 0h2m3 0h4m1 0h2m2 0h1m1 0h1m1 0h1m1 0h2m2 0h2m1 0h1m3 0h2m1 0h1m2 0h1m1 0h3m2 0h3m5 0h2m3 0h1m1 0h3m5 0h2m1 0h2m1 0h1m3 0h3m3 0h1m2 0h3m1 0h1m4 0h1m2 0h1m1 0h1m1 0h1m1 0h2m3 0h2m5 0h1m3 0h5m5 0h2m3 0h1m3 0h1M4 140.5h1m1 0h3m1 0h1m1 0h1m1 0h5m5 0h2m2 0h1m3 0h1m1 0h1m1 0h1m1 0h4m2 0h1m1 0h1m2 0h4m4 0h1m2 0h1m1 0h1m1 0h3m2 0h1m1 0h1m9 0h3m2 0h1m1 0h1m1 0h2m1 0h2m2 0h1m2 0h2m1 0h1m2 0h2m1 0h1m2 0h1m1 0h1m1 0h1m3 0h1m3 0h1m3 0h1m1 0h4m1 0h2m1 0h1m1 0h1m1 0h4m1 0h2m2 0h2m4 0h2m1 0h1m1 0h3m1 0h1m1 0h3M5 141.5h4m3 0h2m1 0h3m1 0h3m7 0h1m1 0h1m1 0h2m3 0h2m2 0h1m1 0h2m1 0h1m7 0h3m1 0h2m3 0h2m2 0h1m1 0h2m3 0h1m3 0h1m1 0h4m1 0h1m3 0h1m1 0h1m3 0h1m2 0h1m6 0h1m2 0h1m1 0h2m3 0h1m2 0h1m1 0h1m1 0h2m1 0h1m7 0h3m1 0h1m3 0h1m2 0h2m1 0h1m1 0h3m1 0h1m1 0h2m3 0h1m2 0h1m3 0h4M4 142.5h1m1 0h9m1 0h2m9 0h1m3 0h8m1 0h3m2 0h3m1 0h2m2 0h2m5 0h6m2 0h1m3 0h3m1 0h2m1 0h2m1 0h1m1 0h9m2 0h1m1 0h1m1 0h5m3 0h2m1 0h1m1 0h10m3 0h5m2 0h3m1 0h7m1 0h2m3 0h1m4 0h2m2 0h4m1 0h6m3 0h1M4 143.5h1m2 0h2m3 0h1m1 0h1m1 0h1m4 0h1m1 0h1m1 0h1m1 0h3m2 0h1m3 0h5m3 0h1m2 0h1m1 0h1m1 0h1m1 0h1m1 0h4m3 0h1m1 0h4m5 0h1m2 0h1m2 0h1m1 0h1m3 0h1m1 0h3m2 0h3m1 0h1m4 0h5m1 0h2m3 0h1m1 0h1m1 0h4m2 0h3m1 0h1m2 0h2m1 0h2m1 0h1m3 0h1m2 0h1m2 0h1m1 0h2m2 0h2m1 0h2m1 0h1m1 0h2m1 0h1m1 0h2m1 0h1m4 0h1M8 144.5h3m2 0h3m1 0h1m1 0h1m3 0h3m1 0h2m6 0h2m1 0h1m2 0h3m4 0h2m1 0h4m4 0h1m1 0h1m1 0h4m2 0h4m1 0h1m3 0h1m4 0h1m4 0h4m1 0h3m4 0h1m1 0h1m3 0h1m2 0h1m2 0h1m1 0h2m2 0h1m1 0h1m4 0h1m1 0h4m1 0h2m1 0h1m2 0h2m2 0h1m1 0h5m1 0h1m1 0h1m3 0h3m4 0h1m1 0h1m3 0h3M5 145.5h1m1 0h1m1 0h1m2 0h2m2 0h1m2 0h1m1 0h1m1 0h2m2 0h3m3 0h2m1 0h4m3 0h4m1 0h1m5 0h2m1 0h1m7 0h1m1 0h2m6 0h2m4 0h2m1 0h3m1 0h1m2 0h1m2 0h4m2 0h1m2 0h1m2 0h2m1 0h1m1 0h1m1 0h4m3 0h5m1 0h1m6 0h4m1 0h2m1 0h1m3 0h2m1 0h5m3 0h1m4 0h1m2 0h4m1 0h2M4 146.5h1m1 0h1m2 0h3m1 0h4m1 0h1m2 0h5m1 0h1m2 0h2m5 0h1m2 0h2m3 0h1m3 0h4m2 0h2m1 0h1m2 0h1m1 0h2m2 0h4m1 0h1m1 0h1m2 0h1m1 0h2m1 0h4m1 0h3m2 0h1m2 0h5m2 0h4m1 0h4m2 0h2m2 0h5m3 0h1m2 0h1m3 0h3m1 0h1m2 0h2m5 0h1m2 0h1m4 0h1m5 0h2m1 0h1m2 0h1m1 0h1m1 0h1m1 0h1M5 147.5h1m2 0h2m2 0h3m3 0h3m2 0h7m2 0h1m1 0h1m1 0h6m1 0h1m1 0h1m1 0h1m1 0h4m5 0h2m2 0h2m1 0h3m2 0h1m2 0h2m2 0h1m7 0h1m1 0h2m2 0h6m1 0h1m2 0h1m1 0h1m4 0h3m1 0h1m2 0h1m1 0h3m2 0h4m2 0h1m1 0h4m1 0h1m3 0h1m2 0h1m1 0h1m7 0h1m1 0h2m1 0h1m1 0h2m1 0h1m2 0h1m1 0h1m3 0h2M4 148.5h3m2 0h2m1 0h1m3 0h1m1 0h1m1 0h2m2 0h1m1 0h7m3 0h1m1 0h1m2 0h2m1 0h1m1 0h1m1 0h4m2 0h1m2 0h1m1 0h1m1 0h1m2 0h2m6 0h1m1 0h3m12 0h1m3 0h2m2 0h1m2 0h2m1 0h1m2 0h2m2 0h1m3 0h1m5 0h1m3 0h2m1 0h2m1 0h1m1 0h2m3 0h7m1 0h3m2 0h2m1 0h1m2 0h3m1 0h1m3 0h1m3 0h4M5 149.5h1m1 0h1m1 0h1m3 0h1m2 0h1m2 0h1m2 0h1m1 0h2m1 0h5m1 0h1m3 0h1m3 0h6m1 0h1m1 0h1m1 0h1m2 0h1m1 0h1m2 0h2m1 0h1m2 0h5m2 0h4m1 0h1m2 0h1m1 0h1m1 0h2m3 0h1m3 0h2m3 0h2m4 0h2m2 0h1m1 0h1m1 0h3m2 0h1m2 0h2m3 0h2m6 0h1m1 0h2m1 0h1m1 0h2m1 0h1m1 0h1m2 0h1m1 0h2m3 0h1m3 0h2m1 0h4M4 150.5h3m3 0h1m1 0h4m2 0h1m2 0h2m2 0h1m1 0h4m1 0h2m1 0h1m2 0h1m1 0h1m4 0h1m1 0h1m1 0h1m3 0h2m1 0h1m1 0h1m1 0h5m2 0h2m2 0h1m2 0h1m2 0h1m1 0h2m1 0h1m1 0h1m1 0h1m1 0h1m2 0h1m2 0h1m1 0h1m1 0h3m1 0h1m4 0h6m2 0h1m1 0h2m1 0h1m1 0h1m2 0h2m1 0h1m2 0h1m3 0h3m1 0h3m2 0h2m1 0h2m1 0h2m1 0h2m2 0h5m3 0h4m1 0h3M4 151.5h1m1 0h1m4 0h2m1 0h2m1 0h3m1 0h1m1 0h2m2 0h2m1 0h1m4 0h1m2 0h2m3 0h2m4 0h4m2 0h4m1 0h1m2 0h2m5 0h2m1 0h1m1 0h1m2 0h1m1 0h1m4 0h3m1 0h7m4 0h4m1 0h1m1 0h2m1 0h1m2 0h1m2 0h4m1 0h3m1 0h1m2 0h1m1 0h2m1 0h2m10 0h1m5 0h1m2 0h1m2 0h4m1 0h1m4 0h1M6 152.5h1m1 0h1m1 0h1m2 0h2m1 0h2m4 0h3m1 0h1m1 0h1m3 0h3m2 0h1m1 0h4m4 0h6m1 0h1m5 0h1m3 0h1m1 0h2m1 0h1m4 0h1m1 0h5m5 0h1m1 0h2m1 0h1m3 0h1m1 0h1m2 0h1m2 0h2m1 0h2m1 0h3m2 0h2m2 0h1m1 0h1m3 0h2m1 0h1m1 0h2m1 0h2m4 0h2m1 0h8m1 0h1m1 0h1m3 0h5m3 0h1m1 0h1m2 0h2m1 0h1M5 153.5h3m1 0h1m3 0h1m8 0h1m1 0h3m2 0h2m1 0h1m1 0h5m2 0h1m1 0h6m1 0h1m2 0h1m1 0h2m4 0h1m6 0h2m1 0h3m1 0h1m2 0h1m1 0h1m1 0h1m1 0h1m4 0h1m1 0h2m2 0h1m3 0h2m5 0h1m5 0h1m3 0h1m1 0h2m1 0h2m2 0h2m6 0h1m1 0h4m3 0h1m1 0h1m1 0h1m2 0h4m2 0h1m5 0h1m2 0h3m1 0h1m1 0h2M4 154.5h1m1 0h1m1 0h6m1 0h2m2 0h1m1 0h4m1 0h1m1 0h5m1 0h5m1 0h2m1 0h1m1 0h2m2 0h2m1 0h2m1 0h1m1 0h2m2 0h4m1 0h1m1 0h1m1 0h3m2 0h1m1 0h1m1 0h1m1 0h2m3 0h4m5 0h8m4 0h5m3 0h1m1 0h1m1 0h1m4 0h6m4 0h1m4 0h5m1 0h1m2 0h1m3 0h4m2 0h1m1 0h2m1 0h1m2 0h2m4 0h1M5 155.5h1m6 0h3m6 0h1m1 0h1m3 0h1m1 0h1m1 0h2m1 0h1m1 0h1m1 0h1m1 0h1m1 0h2m2 0h1m3 0h3m4 0h4m2 0h2m1 0h2m5 0h1m1 0h2m1 0h1m1 0h1m1 0h1m2 0h4m1 0h1m1 0h6m2 0h1m1 0h3m1 0h1m1 0h1m1 0h1m7 0h3m2 0h2m1 0h1m1 0h1m1 0h2m1 0h1m1 0h1m1 0h1m1 0h1m1 0h2m2 0h1m2 0h1m2 0h1m2 0h2m1 0h4m1 0h2m1 0h1m1 0h1m1 0h1m1 0h2M4 156.5h2m1 0h5m2 0h3m1 0h1m1 0h1m1 0h1m1 0h1m2 0h2m2 0h3m2 0h1m2 0h2m5 0h2m1 0h1m1 0h2m1 0h1m2 0h4m1 0h4m1 0h2m5 0h1m1 0h1m2 0h1m6 0h1m1 0h1m1 0h2m1 0h2m5 0h2m1 0h3m3 0h1m2 0h1m1 0h1m2 0h5m3 0h1m1 0h2m1 0h1m1 0h4m2 0h1m1 0h8m1 0h2m1 0h1m2 0h6m3 0h2m4 0h2M4 157.5h6m6 0h2m1 0h1m5 0h3m1 0h2m1 0h7m1 0h2m1 0h2m3 0h1m2 0h1m2 0h4m3 0h1m2 0h1m1 0h3m1 0h3m3 0h2m1 0h3m4 0h1m1 0h3m1 0h2m5 0h3m1 0h5m1 0h2m1 0h3m3 0h1m2 0h2m4 0h1m1 0h1m3 0h5m2 0h1m2 0h2m1 0h1m4 0h1m1 0h4m1 0h1m2 0h4m1 0h2m1 0h3M7 158.5h1m2 0h2m1 0h1m1 0h1m1 0h1m1 0h2m3 0h1m1 0h3m1 0h3m5 0h2m1 0h1m1 0h1m1 0h1m1 0h1m1 0h1m2 0h2m2 0h1m2 0h5m1 0h5m2 0h2m1 0h1m3 0h1m2 0h1m1 0h1m1 0h1m1 0h2m2 0h1m1 0h3m1 0h2m2 0h1m2 0h3m1 0h3m4 0h1m1 0h2m2 0h2m1 0h1m1 0h2m2 0h2m3 0h2m1 0h4m2 0h1m4 0h1m1 0h3m2 0h7m1 0h2m1 0h3m1 0h1M6 159.5h2m3 0h3m2 0h1m4 0h1m3 0h3m1 0h3m1 0h1m4 0h1m4 0h4m4 0h1m3 0h2m1 0h3m1 0h1m3 0h1m3 0h2m2 0h1m1 0h4m1 0h1m2 0h1m2 0h2m1 0h4m2 0h1m1 0h1m3 0h5m5 0h2m1 0h2m1 0h1m1 0h2m1 0h2m6 0h1m9 0h1m2 0h1m3 0h1m5 0h1m1 0h3m4 0h3m1 0h1m3 0h2M4 160.5h1m4 0h3m1 0h3m1 0h3m3 0h2m1 0h4m1 0h2m1 0h1m1 0h4m4 0h1m2 0h1m1 0h2m2 0h2m2 0h1m1 0h2m2 0h1m1 0h1m3 0h1m5 0h2m2 0h2m4 0h1m1 0h5m5 0h1m1 0h7m3 0h2m2 0h2m2 0h2m1 0h1m3 0h2m1 0h1m2 0h3m1 0h2m1 0h2m2 0h2m4 0h1m1 0h2m6 0h3m2 0h2m1 0h1m3 0h3M4 161.5h1m1 0h2m1 0h1m1 0h1m1 0h2m1 0h1m1 0h2m3 0h2m1 0h3m2 0h1m2 0h2m4 0h2m1 0h5m2 0h1m2 0h6m3 0h1m1 0h1m1 0h3m1 0h3m3 0h1m4 0h1m1 0h2m8 0h2m5 0h1m2 0h1m2 0h1m1 0h2m1 0h7m5 0h1m2 0h1m1 0h1m2 0h1m1 0h1m2 0h3m1 0h1m1 0h5m4 0h2m3 0h1m5 0h1m1 0h3m1 0h1m1 0h3M6 162.5h2m2 0h1m1 0h1m1 0h1m2 0h1m2 0h2m1 0h1m3 0h3m2 0h1m1 0h5m1 0h1m2 0h1m3 0h1m4 0h2m1 0h2m1 0h4m1 0h2m3 0h1m3 0h2m5 0h1m2 0h1m3 0h3m3 0h1m2 0h1m1 0h1m1 0h1m2 0h1m1 0h1m2 0h3m1 0h2m1 0h1m1 0h1m1 0h1m2 0h7m1 0h2m3 0h1m2 0h1m1 0h1m1 0h1m6 0h2m3 0h1m1 0h1m4 0h1m5 0h2m1 0h4M8 163.5h1m2 0h3m3 0h1m3 0h1m3 0h2m1 0h1m1 0h1m3 0h4m1 0h6m1 0h1m2 0h1m1 0h2m3 0h1m1 0h5m1 0h1m2 0h1m2 0h2m2 0h1m1 0h1m1 0h1m2 0h1m2 0h1m4 0h2m1 0h2m1 0h2m6 0h1m1 0h2m1 0h1m6 0h4m1 0h1m2 0h1m1 0h1m1 0h3m1 0h1m2 0h4m1 0h2m1 0h1m1 0h1m2 0h2m2 0h1m2 0h1m1 0h3m2 0h1m5 0h1m4 0h1M4 164.5h2m1 0h5m2 0h1m1 0h1m1 0h3m2 0h2m1 0h3m1 0h2m2 0h7m3 0h1m2 0h2m1 0h2m2 0h1m5 0h6m3 0h1m2 0h2m1 0h1m3 0h1m1 0h3m1 0h6m3 0h1m4 0h2m2 0h2m2 0h2m2 0h10m6 0h2m1 0h1m1 0h3m2 0h6m2 0h6m1 0h1m1 0h4m1 0h1m1 0h2m1 0h5m2 0h1M12 165.5h2m1 0h1m1 0h1m1 0h1m2 0h1m1 0h2m1 0h3m1 0h2m1 0h1m3 0h1m2 0h2m1 0h5m1 0h1m1 0h4m4 0h1m3 0h1m1 0h1m4 0h2m1 0h1m2 0h2m1 0h4m1 0h2m3 0h1m1 0h3m2 0h1m2 0h2m4 0h1m1 0h1m1 0h3m3 0h2m4 0h1m1 0h1m1 0h3m2 0h1m1 0h2m1 0h3m3 0h5m1 0h1m2 0h4m1 0h1m1 0h1m2 0h4m3 0h1M4 166.5h7m1 0h1m1 0h1m7 0h3m2 0h2m2 0h1m2 0h1m1 0h1m1 0h1m1 0h1m2 0h1m1 0h2m4 0h2m2 0h4m1 0h1m1 0h1m1 0h1m1 0h1m1 0h2m2 0h1m4 0h1m1 0h1m2 0h1m1 0h3m1 0h1m1 0h2m3 0h1m1 0h3m1 0h1m3 0h1m1 0h3m1 0h2m1 0h1m1 0h4m1 0h5m2 0h3m1 0h1m3 0h1m1 0h1m1 0h1m1 0h1m4 0h3m5 0h1m4 0h1m2 0h2m1 0h1m1 0h1m1 0h1m1 0h1M4 167.5h1m5 0h1m2 0h3m1 0h2m1 0h2m1 0h1m2 0h5m1 0h1m1 0h1m3 0h3m1 0h3m1 0h1m2 0h1m2 0h2m1 0h2m1 0h3m3 0h1m1 0h1m3 0h1m3 0h1m1 0h3m1 0h2m4 0h1m3 0h3m3 0h1m1 0h1m4 0h2m3 0h1m3 0h1m3 0h3m5 0h1m1 0h1m2 0h1m1 0h4m3 0h1m3 0h2m1 0h1m1 0h1m6 0h1m3 0h4m2 0h1m3 0h2m2 0h1M4 168.5h1m1 0h3m1 0h1m1 0h1m1 0h6m1 0h2m1 0h3m4 0h10m1 0h1m5 0h3m2 0h1m2 0h1m3 0h6m3 0h1m4 0h3m6 0h1m2 0h6m2 0h1m2 0h1m2 0h1m1 0h2m2 0h1m1 0h2m2 0h5m1 0h1m1 0h1m4 0h1m1 0h2m9 0h5m2 0h2m2 0h2m4 0h1m1 0h2m3 0h1m1 0h7M4 169.5h1m1 0h3m1 0h1m1 0h1m6 0h1m3 0h1m5 0h2m3 0h2m1 0h1m2 0h2m1 0h3m2 0h1m1 0h1m2 0h5m3 0h1m1 0h3m1 0h1m1 0h6m2 0h1m4 0h2m1 0h1m3 0h2m3 0h1m1 0h2m1 0h1m3 0h1m2 0h1m2 0h1m1 0h2m1 0h2m3 0h1m1 0h2m1 0h2m1 0h1m3 0h4m1 0h5m1 0h3m6 0h4m4 0h1m1 0h1m2 0h1m5 0h1m1 0h1M4 170.5h1m1 0h3m1 0h1m1 0h1m1 0h3m5 0h3m2 0h1m1 0h5m2 0h2m3 0h1m7 0h1m1 0h2m1 0h2m1 0h2m1 0h3m3 0h1m2 0h4m2 0h1m3 0h2m1 0h1m1 0h2m1 0h2m9 0h5m1 0h1m3 0h2m2 0h4m1 0h1m4 0h1m1 0h3m2 0h3m3 0h2m3 0h1m4 0h1m2 0h2m1 0h1m1 0h1m1 0h1m3 0h4m5 0h2m2 0h1M4 171.5h1m5 0h1m1 0h3m1 0h2m1 0h1m1 0h1m1 0h3m3 0h3m1 0h1m1 0h1m2 0h3m1 0h1m2 0h1m7 0h1m2 0h3m1 0h3m11 0h1m1 0h1m1 0h1m1 0h2m3 0h5m1 0h5m2 0h1m4 0h3m5 0h1m2 0h1m2 0h2m1 0h1m1 0h1m6 0h1m1 0h1m3 0h1m3 0h1m1 0h3m7 0h1m2 0h1m2 0h2m1 0h1m2 0h1m1 0h3m4 0h1M4 172.5h7m1 0h1m1 0h1m2 0h1m1 0h1m2 0h1m1 0h1m2 0h1m1 0h7m2 0h1m7 0h3m1 0h1m3 0h2m6 0h1m2 0h1m1 0h1m1 0h1m1 0h1m4 0h3m3 0h1m3 0h1m3 0h1m4 0h1m4 0h1m2 0h1m2 0h1m1 0h1m6 0h2m1 0h1m1 0h2m1 0h1m3 0h2m3 0h2m1 0h1m3 0h1m1 0h1m1 0h1m1 0h8m2 0h1m1 0h1m1 0h6m2 0h1m1 0h4"/></svg>
