<?xml version="1.0" encoding="utf-8"?><!DOCTYPE svg PUBLIC "-//W3C//DTD SVG 1.1//EN" "http://www.w3.org/Graphics/SVG/1.1/DTD/svg11.dtd"><svg xmlns="http://www.w3.org/2000/svg" viewBox="0 0 185 185" shape-rendering="crispEdges"><path fill="#ffffff" d="M0 0h185v185H0z"/><path stroke="#000000" d="M4 4.5h7m2 0h4m4 0h2m1 0h1m7 0h1m2 0h4m1 0h3m1 0h3m1 0h3m2 0h5m1 0h7m1 0h2m1 0h3m2 0h1m1 0h1m2 0h2m2 0h2m1 0h1m1 0h1m1 0h2m1 0h2m3 0h2m2 0h2m1 0h2m3 0h1m1 0h1m1 0h1m2 0h1m1 0h5m1 0h2m3 0h1m3 0h2m1 0h2m3 0h1m4 0h2m1 0h2m2 0h2m5 0h1m1 0h1m2 0h2m1 0h1m3 0h7M4 5.5h1m5 0h1m1 0h1m3 0h3m1 0h1m1 0h2m1 0h3m1 0h3m1 0h1m1 0h1m2 0h1m1 0h1m2 0h1m1 0h2m5 0h2m4 0h1m3 0h4m1 0h4m2 0h1m1 0h1m1 0h1m1 0h2m1 0h1m1 0h1m6 0h1m5 0h2m1 0h3m4 0h7m2 0h3m1 0h3m4 0h1m1 0h1m1 0h1m1 0h1m7 0h3m1 0h1m2 0h3m4 0h1m4 0h2m1 0h1m2 0h2m1 0h2m1 0h1m1 0h1m5 0h1M4 6.5h1m1 0h3m1 0h1m3 0h1m2 0h2m2 0h1m2 0h2m1 0h1m3 0h3m1 0h1m1 0h1m3 0h1m1 0h1m1 0h2m1 0h2m3 0h1m3 0h3m1 0h1m4 0h2m1 0h3m2 0h1m1 0h1m2 0h1m5 0h4m2 0h3m2 0h2m6 0h1m1 0h1m1 0h3m4 0h4m5 0h1m1 0h1m2 0h1m1 0h2m2 0h8m2 0h2m5 0h1m1 0h1m2 0h1m6 0h1m1 0h1m2 0h2m3 0h1m1 0h3m1 0h1M4 7.5h1m1 0h3m1 0h1m1 0h2m1 0h1m2 0h4m1 0h2m2 0h3m1 0h1m1 0h1m1 0h1m3 0h2m3 0h1m2 0h1m1 0h3m2 0h1m1 0h1m2 0h1m5 0h2m4 0h1m2 0h4m2 0h2m3 0h3m2 0h1m3 0h2m1 0h1m1 0h2m2 0h1m3 0h1m4 0h2m1 0h1m1 0h1m1 0h1m1 0h1m5 0h4m1 0h2m3 0h1m1 0h2m1 0h1m1 0h1m1 0h1m1 0h1m1 0h1m4 0h2m1 0h2m2 0h3m3 0h1m2 0h2m1 0h1m1 0h3m1 0h1M4 8.5h1m1 0h3m1 0h1m4 0h3m2 0h1m4 0h2m1 0h2m1 0h6m3 0h2m1 0h2m3 0h3m3 0h1m1 0h1m2 0h6m1 0h1m3 0h4m1 0h1m1 0h3m1 0h1m3 0h1m1 0h8m1 0h2m1 0h1m1 0h1m1 0h1m2 0h1m1 0h2m1 0h1m1 0h1m2 0h7m1 0h1m1 0h1m7 0h6m3 0h6m4 0h2m1 0h3m3 0h1m1 0h2m2 0h2m4 0h1m1 0h3m1 0h1M4 9.5h1m5 0h1m1 0h1m2 0h1m2 0h2m1 0h1m1 0h3m1 0h1m1 0h4m3 0h1m2 0h2m4 0h1m1 0h1m4 0h2m1 0h1m2 0h3m3 0h2m2 0h1m1 0h1m1 0h1m2 0h2m2 0h2m1 0h1m1 0h2m1 0h2m3 0h1m1 0h1m2 0h2m3 0h1m1 0h2m1 0h1m1 0h2m1 0h1m1 0h3m3 0h3m1 0h1m1 0h2m2 0h1m2 0h1m2 0h3m2 0h1m2 0h1m3 0h1m1 0h1m6 0h1m2 0h3m6 0h2m1 0h1m1 0h1m5 0h1M4 10.5h7m1 0h1m1 0h1m1 0h1m1 0h1m1 0h1m1 0h1m1 0h1m1 0h1m1 0h1m1 0h1m1 0h1m1 0h1m1 0h1m1 0h1m1 0h1m1 0h1m1 0h1m1 0h1m1 0h1m1 0h1m1 0h1m1 0h1m1 0h1m1 0h1m1 0h1m1 0h1m1 0h1m1 0h1m1 0h1m1 0h1m1 0h1m1 0h1m1 0h1m1 0h1m1 0h1m1 0h1m1 0h1m1 0h1m1 0h1m1 0h1m1 0h1m1 0h1m1 0h1m1 0h1m1 0h1m1 0h1m1 0h1m1 0h1m1 0h1m1 0h1m1 0h1m1 0h1m1 0h1m1 0h1m1 0h1m1 0h1m1 0h1m1 0h1m1 0h1m1 0h1m1 0h1m1 0h1m1 0h1m1 0h1m1 0h1m1 0h1m1 0h1m1 0h1m1 0h1m1 0h1m1 0h1m1 0h1m1 0h1m1 0h1m1 0h1m1 0h1m1 0h1m1 0h1m1 0h1m1 0h1m1 0h1m1 0h7M14 11.5h4m1 0h3m2 0h1m1 0h1m2 0h2m1 0h1m3 0h3m1 0h2m4 0h2m1 0h1m1 0h2m4 0h2m1 0h1m3 0h1m1 0h2m3 0h1m2 0h3m1 0h1m2 0h1m4 0h3m3 0h1m4 0h2m3 0h4m2 0h1m1 0h2m4 0h1m3 0h1m3 0h2m1 0h3m2 0h3m2 0h2m2 0h1m2 0h1m3 0h2m2 0h1m1 0h2m7 0h2m1 0h2m1 0h1m2 0h1M4 12.5h5m1 0h5m1 0h1m2 0h1m6 0h1m3 0h1m1 0h5m1 0h2m2 0h1m5 0h3m3 0h1m1 0h3m1 0h5m4 0h1m6 0h3m3 0h1m3 0h7m1 0h2m2 0h3m6 0h1m1 0h2m1 0h3m1 0h5m7 0h3m1 0h2m1 0h1m1 0h1m1 0h4m1 0h5m1 0h3m2 0h1m1 0h3m1 0h2m1 0h1m2 0h1m1 0h5m1 0h1m1 0h1m1 0h1M4 13.5h1m3 0h1m5 0h4m4 0h1m3 0h1m9 0h1m1 0h2m1 0h2m1 0h2m1 0h1m1 0h2m3 0h1m1 0h2m1 0h1m2 0h1m1 0h1m1 0h3m2 0h2m1 0h2m7 0h1m1 0h1m1 0h3m2 0h1m1 0h1m5 0h1m2 0h1m1 0h2m1 0h1m6 0h2m2 0h1m1 0h6m7 0h3m1 0h2m3 0h1m1 0h1m6 0h1m3 0h2m1 0h1m1 0h5m1 0h2m8 0h4M6 14.5h6m2 0h1m5 0h2m1 0h2m4 0h1m2 0h1m1 0h4m1 0h1m2 0h2m2 0h2m1 0h1m1 0h5m2 0h2m1 0h4m4 0h2m1 0h1m7 0h3m1 0h1m2 0h1m2 0h1m5 0h1m1 0h3m1 0h1m1 0h1m2 0h5m1 0h3m1 0h2m2 0h2m2 0h1m1 0h4m3 0h1m1 0h2m4 0h3m1 0h2m5 0h3m4 0h1m2 0h1m3 0h1m5 0h2m1 0h1M4 15.5h1m3 0h2m2 0h2m2 0h1m1 0h4m1 0h2m3 0h1m1 0h1m2 0h1m1 0h1m1 0h1m2 0h3m2 0h3m1 0h1m2 0h2m1 0h1m1 0h4m2 0h2m1 0h1m2 0h2m2 0h2m1 0h1m1 0h2m5 0h3m1 0h1m6 0h1m1 0h1m2 0h5m1 0h3m5 0h1m3 0h1m1 0h1m2 0h1m3 0h2m1 0h1m1 0h3m1 0h1m1 0h1m1 0h2m2 0h2m5 0h4m1 0h1m2 0h2m1 0h1m2 0h1m1 0h2m2 0h5m1 0h2M4 16.5h2m2 0h1m1 0h1m1 0h1m1 0h2m2 0h3m1 0h1m1 0h1m1 0h1m3 0h2m1 0h4m1 0h1m1 0h1m2 0h1m1 0h8m1 0h2m2 0h1m2 0h1m1 0h1m2 0h2m5 0h1m1 0h2m1 0h1m2 0h2m2 0h2m3 0h1m3 0h2m1 0h1m1 0h2m4 0h3m1 0h2m1 0h6m3 0h1m2 0h2m2 0h3m1 0h1m4 0h1m1 0h2m1 0h1m2 0h1m1 0h2m1 0h7m1 0h2m4 0h1m2 0h4m1 0h1m2 0h1M5 17.5h1m1 0h2m3 0h3m1 0h4m1 0h1m2 0h3m4 0h2m1 0h2m1 0h1m1 0h2m2 0h2m2 0h3m4 0h1m4 0h8m3 0h2m8 0h3m1 0h1m3 0h2m1 0h2m1 0h1m1 0h1m6 0h1m2 0h1m1 0h2m1 0h2m2 0h10m1 0h2m3 0h1m1 0h2m1 0h1m1 0h2m1 0h1m2 0h1m2 0h2m1 0h2m2 0h5m2 0h1m2 0h1m3 0h1m1 0h1m1 0h2m2 0h1m3 0h1M4 18.5h2m4 0h1m2 0h1m3 0h1m2 0h1m3 0h2m1 0h1m1 0h1m1 0h6m2 0h1m1 0h2m2 0h2m4 0h2m5 0h2m1 0h2m1 0h1m2 0h2m1 0h1m1 0h2m5 0h1m2 0h1m2 0h1m1 0h2m6 0h8m1 0h2m1 0h2m1 0h1m3 0h2m1 0h5m4 0h2m1 0h1m2 0h1m1 0h5m1 0h3m1 0h1m1 0h1m12 0h3m1 0h1m1 0h2m7 0h2m2 0h2M7 19.5h1m1 0h1m1 0h2m2 0h1m3 0h4m2 0h3m2 0h1m1 0h1m1 0h7m3 0h1m1 0h4m1 0h2m2 0h1m2 0h1m1 0h1m1 0h2m1 0h3m3 0h1m1 0h2m1 0h1m1 0h1m4 0h1m1 0h2m4 0h2m3 0h2m1 0h3m1 0h6m1 0h2m1 0h1m3 0h2m2 0h2m1 0h2m1 0h1m2 0h3m4 0h1m1 0h1m1 0h3m3 0h1m1 0h1m1 0h1m2 0h2m7 0h1m1 0h2m2 0h1m2 0h2m2 0h3M5 20.5h1m1 0h1m1 0h2m1 0h1m3 0h2m2 0h4m1 0h1m1 0h1m2 0h1m3 0h2m1 0h2m1 0h3m1 0h1m3 0h1m5 0h1m1 0h1m2 0h1m6 0h1m1 0h2m1 0h1m2 0h6m2 0h1m3 0h2m2 0h1m1 0h2m3 0h5m3 0h3m1 0h4m1 0h1m4 0h2m4 0h1m1 0h4m1 0h1m2 0h1m3 0h1m2 0h2m2 0h3m3 0h1m4 0h2m1 0h1m1 0h4m1 0h1m2 0h3m2 0h1m3 0h2M4 21.5h1m1 0h1m2 0h1m1 0h3m2 0h1m1 0h2m2 0h1m1 0h3m1 0h1m1 0h3m3 0h1m2 0h1m3 0h2m1 0h1m1 0h2m5 0h2m2 0h1m1 0h5m1 0h1m1 0h5m3 0h1m2 0h1m1 0h2m1 0h8m1 0h4m2 0h2m4 0h1m1 0h2m1 0h3m1 0h2m1 0h5m1 0h1m1 0h1m2 0h1m1 0h1m1 0h2m1 0h3m4 0h1m1 0h1m1 0h8m1 0h1m1 0h1m2 0h1m2 0h1m3 0h1m1 0h1m1 0h1m2 0h1m1 0h1m2 0h1M5 22.5h1m3 0h2m2 0h3m2 0h1m2 0h1m1 0h3m2 0h4m2 0h1m1 0h2m2 0h2m1 0h1m6 0h4m3 0h2m1 0h1m4 0h1m2 0h1m1 0h1m1 0h1m2 0h1m6 0h4m2 0h2m1 0h1m5 0h3m2 0h3m2 0h5m2 0h2m1 0h2m2 0h1m1 0h2m4 0h3m1 0h2m1 0h4m1 0h6m1 0h1m1 0h2m2 0h1m2 0h1m2 0h2m1 0h1m1 0h3m1 0h1m1 0h4m1 0h3M4 23.5h2m1 0h3m2 0h2m7 0h4m1 0h2m2 0h1m1 0h2m1 0h2m4 0h1m4 0h2m7 0h4m1 0h4m1 0h3m7 0h4m6 0h3m5 0h1m2 0h3m5 0h1m1 0h1m1 0h1m1 0h1m8 0h1m3 0h4m2 0h3m3 0h1m3 0h3m1 0h1m2 0h2m1 0h1m1 0h4m5 0h1m4 0h2m1 0h1m2 0h2m1 0h1m1 0h3m1 0h1M9 24.5h6m1 0h1m2 0h1m1 0h2m1 0h4m1 0h1m3 0h4m2 0h1m2 0h1m4 0h1m2 0h2m2 0h2m1 0h1m7 0h1m1 0h1m1 0h3m1 0h1m1 0h2m1 0h2m2 0h1m1 0h1m1 0h1m3 0h1m3 0h2m4 0h2m1 0h1m5 0h2m1 0h2m5 0h1m3 0h1m3 0h2m1 0h1m1 0h2m3 0h1m1 0h2m1 0h1m2 0h1m1 0h2m1 0h1m2 0h3m1 0h1m1 0h1m1 0h3m5 0h2m4 0h1M4 25.5h1m2 0h2m3 0h1m1 0h3m1 0h2m2 0h1m1 0h2m1 0h1m1 0h3m1 0h1m1 0h1m4 0h6m2 0h2m5 0h3m4 0h3m2 0h2m3 0h3m1 0h3m1 0h6m2 0h2m1 0h6m2 0h3m4 0h4m1 0h3m2 0h2m1 0h2m1 0h1m1 0h1m1 0h2m6 0h1m1 0h1m1 0h2m1 0h1m2 0h2m1 0h3m1 0h1m1 0h1m1 0h2m2 0h1m1 0h1m1 0h2m3 0h1m1 0h1m1 0h2m5 0h2M7 26.5h2m1 0h1m1 0h1m2 0h2m2 0h4m2 0h1m4 0h2m2 0h2m2 0h2m1 0h1m4 0h2m3 0h2m1 0h1m3 0h1m2 0h1m1 0h1m4 0h3m1 0h1m2 0h1m1 0h1m1 0h2m1 0h3m2 0h2m6 0h2m2 0h4m4 0h1m1 0h6m3 0h7m1 0h1m2 0h1m3 0h2m2 0h1m3 0h2m1 0h1m1 0h1m1 0h1m9 0h3m2 0h1m2 0h1m4 0h1m2 0h1m1 0h4M4 27.5h1m3 0h1m4 0h1m3 0h4m4 0h2m3 0h1m1 0h1m2 0h6m2 0h1m1 0h2m2 0h1m2 0h1m3 0h5m1 0h3m1 0h2m5 0h4m1 0h1m2 0h1m4 0h1m4 0h1m2 0h1m1 0h2m3 0h4m3 0h1m1 0h2m9 0h1m2 0h2m6 0h1m3 0h1m2 0h4m6 0h1m1 0h1m2 0h2m4 0h2m4 0h2m4 0h1m1 0h1m1 0h1m1 0h1M4 28.5h1m1 0h1m3 0h11m3 0h1m1 0h3m4 0h1m2 0h2m3 0h3m3 0h5m1 0h3m2 0h2m3 0h1m1 0h3m1 0h1m2 0h5m2 0h1m1 0h1m6 0h1m1 0h1m1 0h2m1 0h1m3 0h2m1 0h2m1 0h1m6 0h2m4 0h1m2 0h1m3 0h1m2 0h3m1 0h2m1 0h1m1 0h1m2 0h1m1 0h1m2 0h1m1 0h3m1 0h1m3 0h5m1 0h1m2 0h1m3 0h1m1 0h3m2 0h1m1 0h1m1 0h2M4 29.5h2m1 0h1m3 0h2m2 0h3m1 0h2m3 0h1m1 0h1m4 0h2m1 0h1m1 0h1m1 0h2m2 0h1m1 0h8m2 0h1m1 0h1m1 0h1m2 0h2m1 0h1m1 0h1m1 0h3m4 0h1m2 0h6m3 0h8m2 0h1m5 0h2m1 0h2m1 0h1m2 0h1m3 0h1m1 0h2m2 0h1m1 0h4m3 0h1m1 0h2m1 0h4m4 0h1m3 0h2m1 0h3m1 0h2m4 0h3m1 0h1m2 0h4m1 0h1m2 0h1m2 0h1M4 30.5h1m1 0h2m2 0h1m4 0h1m2 0h2m1 0h2m4 0h4m1 0h2m4 0h1m1 0h1m2 0h1m1 0h1m3 0h2m1 0h2m1 0h1m2 0h4m1 0h3m1 0h2m1 0h1m1 0h2m1 0h1m1 0h1m1 0h4m1 0h2m2 0h2m5 0h2m1 0h1m1 0h1m1 0h4m3 0h3m2 0h1m2 0h2m1 0h1m1 0h7m1 0h1m1 0h8m1 0h2m1 0h3m1 0h1m1 0h2m2 0h1m4 0h2m1 0h1m7 0h2m3 0h5M4 31.5h1m2 0h2m2 0h1m1 0h1m3 0h1m2 0h2m1 0h4m1 0h3m3 0h1m1 0h2m3 0h1m4 0h2m1 0h1m1 0h2m4 0h4m1 0h6m1 0h1m4 0h1m1 0h1m1 0h1m6 0h4m6 0h2m4 0h1m2 0h2m1 0h2m1 0h2m1 0h3m5 0h1m1 0h3m1 0h6m2 0h2m3 0h2m1 0h1m1 0h1m1 0h1m1 0h1m1 0h1m1 0h2m1 0h2m1 0h1m3 0h1m1 0h2m5 0h3m3 0h2M4 32.5h11m7 0h3m1 0h5m1 0h5m1 0h1m1 0h1m1 0h2m3 0h2m1 0h3m1 0h2m2 0h9m3 0h1m1 0h3m1 0h1m1 0h1m4 0h1m1 0h8m1 0h1m4 0h2m1 0h2m2 0h2m1 0h1m2 0h1m3 0h5m6 0h4m1 0h2m1 0h1m1 0h1m2 0h1m1 0h7m1 0h3m4 0h4m1 0h1m2 0h1m1 0h1m2 0h1m1 0h5m2 0h1M6 33.5h3m3 0h1m1 0h1m1 0h2m3 0h1m1 0h1m1 0h5m1 0h2m3 0h2m2 0h1m3 0h2m1 0h1m1 0h1m6 0h2m2 0h1m3 0h1m1 0h7m1 0h4m1 0h3m2 0h2m1 0h2m3 0h1m1 0h2m1 0h1m2 0h2m1 0h1m1 0h3m3 0h2m2 0h2m3 0h1m1 0h1m1 0h1m1 0h1m2 0h2m2 0h2m1 0h2m1 0h1m3 0h2m3 0h2m2 0h1m1 0h6m2 0h1m1 0h1m1 0h4m1 0h2m3 0h1m2 0h1M4 34.5h1m2 0h2m1 0h1m1 0h1m1 0h1m1 0h1m1 0h2m1 0h1m2 0h2m2 0h5m1 0h1m1 0h1m1 0h1m1 0h1m1 0h2m1 0h3m2 0h1m1 0h1m2 0h1m1 0h4m1 0h1m1 0h1m2 0h2m1 0h1m1 0h1m7 0h3m1 0h2m2 0h1m1 0h1m1 0h2m3 0h3m1 0h2m1 0h1m3 0h1m1 0h1m2 0h2m1 0h1m1 0h1m1 0h1m2 0h2m1 0h1m1 0h2m1 0h1m2 0h5m4 0h2m1 0h1m1 0h2m1 0h1m1 0h1m1 0h1m2 0h1m1 0h1m1 0h2m1 0h3m2 0h1m1 0h1m1 0h1m1 0h4M4 35.5h3m1 0h1m3 0h4m1 0h1m2 0h1m1 0h1m1 0h1m2 0h4m1 0h1m3 0h1m1 0h2m6 0h2m3 0h2m2 0h6m3 0h1m1 0h1m6 0h2m1 0h1m1 0h2m1 0h1m3 0h2m1 0h1m3 0h2m1 0h2m4 0h2m5 0h1m1 0h2m1 0h2m1 0h1m3 0h2m1 0h2m5 0h2m1 0h5m5 0h2m3 0h1m3 0h4m3 0h3m4 0h1m2 0h1m2 0h1m3 0h1m1 0h1M7 36.5h7m1 0h1m1 0h1m1 0h1m1 0h9m2 0h5m2 0h1m2 0h1m1 0h2m1 0h2m1 0h1m3 0h1m2 0h2m1 0h6m1 0h1m1 0h3m1 0h2m1 0h2m1 0h1m1 0h1m1 0h1m2 0h1m1 0h5m1 0h1m4 0h2m1 0h1m2 0h3m3 0h2m3 0h6m1 0h1m3 0h2m1 0h3m7 0h1m1 0h7m1 0h5m2 0h2m3 0h2m1 0h1m1 0h4m1 0h5m2 0h2M4 37.5h5m3 0h1m3 0h4m1 0h4m1 0h2m3 0h1m2 0h2m2 0h2m2 0h5m1 0h1m1 0h2m1 0h3m1 0h1m1 0h1m1 0h1m1 0h1m1 0h1m1 0h2m1 0h2m3 0h4m1 0h1m1 0h1m4 0h2m1 0h1m2 0h4m6 0h1m2 0h1m1 0h1m2 0h3m1 0h5m2 0h1m1 0h4m1 0h1m3 0h2m1 0h1m1 0h2m4 0h1m2 0h2m3 0h2m2 0h1m1 0h2m1 0h2m1 0h2m1 0h1m1 0h4m6 0h2M6 38.5h2m2 0h2m1 0h1m2 0h1m1 0h1m3 0h1m2 0h1m1 0h1m3 0h1m1 0h1m1 0h1m1 0h5m3 0h3m1 0h2m1 0h2m1 0h1m3 0h1m1 0h2m1 0h2m2 0h1m1 0h1m1 0h2m1 0h1m1 0h1m1 0h4m1 0h1m5 0h2m4 0h1m3 0h1m1 0h3m4 0h2m1 0h3m3 0h2m2 0h7m1 0h7m2 0h4m2 0h1m1 0h1m2 0h2m2 0h2m1 0h1m1 0h3m3 0h3m1 0h2m2 0h1m1 0h3M4 39.5h6m5 0h1m2 0h1m2 0h1m2 0h9m1 0h4m2 0h2m1 0h2m1 0h2m1 0h1m1 0h1m3 0h4m1 0h1m1 0h1m1 0h4m5 0h2m1 0h1m1 0h2m1 0h1m5 0h4m3 0h3m1 0h1m2 0h1m1 0h3m1 0h3m1 0h1m1 0h4m1 0h2m2 0h3m2 0h1m2 0h1m1 0h1m2 0h1m1 0h1m1 0h4m1 0h1m1 0h1m1 0h1m4 0h5m1 0h1m1 0h1m4 0h2m1 0h1m2 0h1m2 0h1m2 0h2M4 40.5h1m1 0h1m2 0h2m1 0h1m1 0h3m3 0h2m2 0h2m2 0h7m2 0h3m2 0h2m1 0h1m1 0h1m1 0h2m2 0h2m1 0h2m5 0h1m2 0h1m1 0h4m1 0h1m2 0h2m2 0h4m2 0h1m2 0h1m1 0h1m5 0h2m1 0h1m1 0h2m2 0h2m3 0h2m3 0h1m2 0h1m1 0h1m3 0h1m1 0h2m1 0h1m1 0h1m2 0h1m3 0h5m1 0h1m3 0h2m1 0h1m1 0h1m1 0h1m1 0h1m3 0h1m2 0h1m1 0h5m1 0h1m2 0h2M4 41.5h1m3 0h1m2 0h1m5 0h1m1 0h1m2 0h1m7 0h2m2 0h1m2 0h1m1 0h4m1 0h3m2 0h1m3 0h5m1 0h2m2 0h6m1 0h1m1 0h2m1 0h3m3 0h2m1 0h3m3 0h1m1 0h4m3 0h1m1 0h1m3 0h2m2 0h1m2 0h2m1 0h1m1 0h1m1 0h1m2 0h1m1 0h3m9 0h4m1 0h1m1 0h3m1 0h2m2 0h4m1 0h1m1 0h2m1 0h1m2 0h1m2 0h2m2 0h3m4 0h1m1 0h1M4 42.5h1m1 0h1m1 0h5m1 0h1m4 0h2m1 0h1m1 0h1m1 0h1m2 0h1m2 0h2m6 0h1m1 0h2m1 0h4m3 0h1m1 0h2m3 0h2m2 0h2m2 0h7m6 0h1m1 0h1m1 0h1m4 0h4m4 0h2m1 0h1m1 0h2m1 0h1m1 0h4m3 0h2m2 0h2m2 0h8m1 0h6m1 0h1m1 0h2m2 0h2m5 0h1m1 0h1m3 0h1m2 0h1m4 0h2m2 0h1m5 0h1M4 43.5h2m1 0h2m2 0h2m2 0h1m2 0h3m1 0h1m1 0h1m5 0h2m2 0h2m2 0h4m2 0h1m1 0h1m1 0h2m7 0h2m2 0h1m1 0h4m6 0h4m1 0h2m3 0h1m1 0h4m2 0h1m2 0h1m1 0h2m3 0h2m1 0h1m3 0h1m5 0h1m2 0h2m1 0h2m2 0h1m1 0h1m3 0h2m1 0h1m1 0h1m1 0h1m4 0h1m2 0h5m1 0h2m1 0h1m8 0h1m2 0h1m5 0h1m1 0h1m3 0h3M7 44.5h2m1 0h1m1 0h2m1 0h1m1 0h2m1 0h2m2 0h1m3 0h3m2 0h1m2 0h1m1 0h1m1 0h5m2 0h2m1 0h1m1 0h1m1 0h3m3 0h1m1 0h1m2 0h5m1 0h1m1 0h2m2 0h1m1 0h1m1 0h1m2 0h1m7 0h1m4 0h1m2 0h1m1 0h1m3 0h1m5 0h1m1 0h1m2 0h3m3 0h1m1 0h1m2 0h3m1 0h2m1 0h1m4 0h1m1 0h2m1 0h1m1 0h1m4 0h2m1 0h1m1 0h1m2 0h1m1 0h1m6 0h2m1 0h2m2 0h1M4 45.5h3m1 0h2m2 0h4m1 0h1m7 0h1m2 0h4m2 0h2m1 0h3m1 0h5m1 0h3m1 0h1m1 0h1m1 0h2m1 0h2m1 0h1m8 0h1m1 0h2m1 0h1m6 0h3m2 0h1m1 0h3m2 0h1m1 0h1m2 0h3m2 0h1m1 0h4m1 0h1m1 0h1m1 0h1m3 0h4m1 0h1m1 0h1m6 0h4m1 0h2m1 0h1m1 0h2m2 0h6m3 0h2m4 0h3m1 0h1m1 0h1m2 0h1m3 0h1m1 0h1M5 46.5h1m1 0h1m1 0h3m1 0h1m4 0h3m3 0h4m2 0h1m6 0h3m5 0h3m4 0h1m1 0h2m2 0h8m1 0h2m1 0h3m7 0h1m1 0h1m1 0h2m1 0h2m1 0h3m4 0h2m2 0h4m4 0h4m1 0h2m2 0h1m3 0h6m2 0h2m1 0h2m3 0h3m4 0h1m1 0h1m1 0h1m3 0h3m1 0h2m1 0h3m3 0h1m2 0h1m3 0h1m1 0h2m1 0h2M4 47.5h1m1 0h2m4 0h2m1 0h1m2 0h2m1 0h1m3 0h1m3 0h3m1 0h4m1 0h4m1 0h1m1 0h5m2 0h1m4 0h2m3 0h5m2 0h1m3 0h2m1 0h1m1 0h2m6 0h1m2 0h1m1 0h1m1 0h1m2 0h3m2 0h6m1 0h4m1 0h6m1 0h1m1 0h3m1 0h1m3 0h1m1 0h2m1 0h1m1 0h1m1 0h1m2 0h1m1 0h3m1 0h2m2 0h1m1 0h1m1 0h2m5 0h1m2 0h1m4 0h1m2 0h2m1 0h3M5 48.5h1m1 0h2m1 0h1m2 0h2m1 0h1m3 0h2m5 0h1m1 0h3m1 0h1m1 0h5m2 0h1m1 0h9m1 0h1m5 0h4m2 0h4m1 0h2m2 0h5m2 0h2m2 0h1m6 0h2m4 0h2m2 0h1m1 0h1m1 0h1m1 0h1m2 0h1m1 0h1m10 0h1m1 0h7m1 0h1m4 0h3m1 0h1m1 0h1m2 0h5m3 0h8m3 0h2m3 0h2m1 0h1m2 0h2M4 49.5h1m4 0h1m2 0h1m1 0h4m1 0h3m7 0h3m1 0h1m2 0h5m4 0h2m1 0h1m2 0h1m1 0h1m2 0h2m1 0h1m7 0h1m1 0h2m3 0h2m5 0h5m1 0h1m2 0h1m1 0h6m3 0h1m4 0h2m1 0h1m5 0h2m4 0h6m2 0h2m2 0h2m1 0h1m1 0h2m3 0h1m1 0h1m1 0h3m1 0h2m3 0h1m1 0h1m4 0h3m1 0h2m1 0h2m2 0h1m2 0h1m2 0h1M9 50.5h2m2 0h3m1 0h3m1 0h2m1 0h1m1 0h1m1 0h1m2 0h1m2 0h4m3 0h1m3 0h1m6 0h2m1 0h1m1 0h4m1 0h3m2 0h7m5 0h4m1 0h1m3 0h7m1 0h4m2 0h3m3 0h3m1 0h5m1 0h1m1 0h1m1 0h3m1 0h3m1 0h2m2 0h1m5 0h1m1 0h1m6 0h3m1 0h2m2 0h1m2 0h1m1 0h2m1 0h2m5 0h2m1 0h1m1 0h2M5 51.5h4m3 0h1m3 0h4m2 0h3m1 0h1m1 0h2m7 0h2m1 0h2m1 0h1m1 0h2m1 0h1m2 0h2m4 0h2m2 0h2m3 0h1m4 0h1m1 0h6m2 0h1m4 0h2m6 0h1m1 0h1m6 0h1m1 0h2m1 0h1m2 0h1m2 0h1m3 0h4m1 0h1m1 0h1m3 0h2m1 0h4m1 0h1m1 0h2m3 0h3m1 0h1m2 0h1m2 0h2m3 0h2m4 0h5m4 0h3m1 0h1m1 0h1M8 52.5h1m1 0h1m2 0h3m1 0h2m1 0h1m4 0h1m1 0h2m1 0h1m4 0h2m1 0h1m2 0h5m4 0h1m1 0h4m1 0h2m1 0h2m3 0h4m1 0h1m2 0h2m1 0h1m2 0h3m4 0h1m4 0h1m1 0h3m4 0h1m4 0h2m2 0h1m1 0h2m1 0h1m6 0h1m3 0h1m2 0h4m1 0h1m3 0h1m2 0h1m1 0h2m1 0h1m1 0h1m2 0h4m1 0h2m1 0h8m2 0h1m1 0h3m1 0h4m1 0h1M4 53.5h2m1 0h2m2 0h1m2 0h2m1 0h1m5 0h2m1 0h2m2 0h1m5 0h1m2 0h1m1 0h1m1 0h2m1 0h2m1 0h2m2 0h2m2 0h2m1 0h2m4 0h1m1 0h1m2 0h1m3 0h1m2 0h1m3 0h1m4 0h1m2 0h3m1 0h1m4 0h3m1 0h1m2 0h2m4 0h2m1 0h2m1 0h1m3 0h1m1 0h1m1 0h2m1 0h3m1 0h7m3 0h8m1 0h2m2 0h3m3 0h2m2 0h8m3 0h1m2 0h1M6 54.5h5m1 0h4m1 0h1m3 0h1m2 0h1m3 0h1m4 0h1m2 0h1m1 0h1m3 0h2m1 0h1m1 0h1m2 0h1m1 0h3m3 0h2m1 0h2m1 0h2m1 0h2m1 0h4m6 0h3m1 0h2m1 0h1m1 0h2m1 0h2m1 0h2m1 0h4m2 0h1m3 0h3m3 0h3m1 0h5m1 0h6m1 0h1m4 0h1m1 0h4m2 0h2m2 0h1m1 0h2m5 0h1m2 0h3m3 0h1m8 0h1m1 0h1M5 55.5h1m3 0h1m1 0h1m1 0h1m1 0h3m1 0h1m2 0h2m2 0h1m2 0h2m9 0h2m1 0h2m1 0h1m2 0h1m1 0h2m2 0h4m3 0h3m1 0h2m5 0h2m1 0h1m1 0h1m6 0h7m1 0h1m1 0h2m1 0h2m1 0h1m2 0h2m2 0h2m3 0h3m2 0h1m1 0h1m7 0h4m3 0h1m6 0h3m1 0h1m6 0h2m4 0h2m2 0h1m2 0h1m2 0h1m4 0h1m1 0h3m1 0h1M4 56.5h4m1 0h3m1 0h3m6 0h1m1 0h1m1 0h1m1 0h3m3 0h4m1 0h2m1 0h1m5 0h1m1 0h1m1 0h1m1 0h1m2 0h1m3 0h1m2 0h2m2 0h1m1 0h3m1 0h1m1 0h2m2 0h1m4 0h2m2 0h1m3 0h1m3 0h1m1 0h2m1 0h2m1 0h1m1 0h1m2 0h5m1 0h1m4 0h1m3 0h1m1 0h2m1 0h1m1 0h2m5 0h2m1 0h2m1 0h2m2 0h2m5 0h7m1 0h1m3 0h3m3 0h3m2 0h1M4 57.5h2m5 0h4m1 0h1m2 0h3m2 0h1m3 0h1m1 0h1m1 0h1m1 0h1m2 0h1m2 0h1m1 0h4m2 0h1m1 0h1m2 0h1m1 0h2m8 0h1m5 0h2m1 0h1m1 0h2m2 0h3m1 0h1m1 0h1m2 0h2m1 0h1m1 0h3m3 0h2m2 0h1m1 0h1m4 0h3m1 0h1m1 0h1m1 0h1m1 0h2m1 0h3m4 0h1m2 0h1m1 0h1m1 0h1m2 0h1m1 0h1m4 0h3m1 0h2m2 0h1m1 0h1m2 0h3m2 0h3m1 0h2m5 0h2m1 0h1M4 58.5h2m1 0h5m2 0h7m3 0h2m2 0h2m2 0h3m1 0h1m1 0h1m2 0h2m3 0h2m3 0h2m4 0h1m1 0h6m2 0h4m1 0h1m2 0h1m3 0h2m1 0h1m1 0h1m4 0h1m1 0h2m3 0h1m1 0h2m1 0h1m1 0h3m2 0h1m3 0h1m1 0h3m1 0h1m1 0h1m1 0h3m3 0h1m2 0h2m1 0h1m1 0h1m2 0h1m1 0h2m1 0h2m4 0h2m2 0h1m3 0h1m1 0h1m4 0h1m4 0h1m2 0h1m1 0h1m2 0h2M4 59.5h1m1 0h4m1 0h1m1 0h3m1 0h1m2 0h2m3 0h1m2 0h8m2 0h1m1 0h2m1 0h2m1 0h1m1 0h1m6 0h1m1 0h2m1 0h1m3 0h1m1 0h1m6 0h7m3 0h1m1 0h2m8 0h4m2 0h3m1 0h1m1 0h2m5 0h1m3 0h1m1 0h3m1 0h2m3 0h1m2 0h2m3 0h1m4 0h2m1 0h5m2 0h4m3 0h1m1 0h1m1 0h1m2 0h2m3 0h6m1 0h1m1 0h1M4 60.5h1m1 0h1m1 0h7m1 0h1m1 0h1m2 0h1m1 0h2m1 0h2m2 0h7m1 0h1m5 0h2m3 0h1m1 0h1m2 0h1m5 0h6m1 0h1m1 0h2m1 0h1m1 0h1m1 0h3m2 0h1m2 0h1m3 0h7m3 0h1m1 0h1m4 0h1m6 0h2m2 0h6m1 0h1m1 0h1m1 0h4m1 0h2m1 0h1m5 0h2m1 0h5m1 0h2m3 0h1m2 0h2m1 0h1m2 0h1m2 0h1m1 0h2m1 0h5m2 0h1M4 61.5h1m1 0h3m3 0h1m5 0h2m1 0h1m1 0h1m2 0h7m3 0h1m2 0h1m2 0h9m3 0h3m1 0h1m1 0h1m3 0h2m3 0h1m2 0h2m1 0h1m1 0h1m4 0h3m3 0h1m3 0h4m3 0h3m1 0h1m1 0h3m1 0h1m1 0h2m2 0h2m3 0h3m1 0h4m5 0h2m1 0h3m2 0h1m2 0h1m3 0h2m2 0h3m1 0h1m1 0h2m1 0h1m5 0h2m3 0h1m3 0h2m2 0h1M4 62.5h1m1 0h3m1 0h1m1 0h2m7 0h1m2 0h1m4 0h1m1 0h2m1 0h1m1 0h3m2 0h1m1 0h1m1 0h2m3 0h6m1 0h4m1 0h1m1 0h2m1 0h2m1 0h1m1 0h1m7 0h3m1 0h2m2 0h1m1 0h1m1 0h1m2 0h4m1 0h2m5 0h1m2 0h2m2 0h3m1 0h1m1 0h1m1 0h1m3 0h2m1 0h1m1 0h2m4 0h1m1 0h1m1 0h1m2 0h1m1 0h1m1 0h2m1 0h1m1 0h2m2 0h1m1 0h3m3 0h2m2 0h1m1 0h2m1 0h1m1 0h1m1 0h1M4 63.5h1m1 0h3m3 0h1m2 0h1m4 0h2m4 0h1m1 0h2m1 0h2m3 0h1m1 0h4m1 0h1m1 0h3m3 0h1m5 0h2m1 0h1m3 0h1m1 0h2m5 0h1m1 0h2m1 0h1m2 0h2m3 0h1m1 0h1m3 0h1m2 0h5m4 0h1m3 0h3m3 0h1m1 0h1m3 0h1m3 0h5m1 0h2m1 0h1m2 0h1m3 0h1m2 0h2m3 0h1m2 0h5m3 0h1m6 0h1m2 0h1m1 0h2m3 0h4M4 64.5h3m1 0h5m1 0h2m2 0h5m3 0h1m2 0h9m2 0h1m1 0h4m1 0h1m1 0h2m2 0h2m2 0h1m1 0h8m8 0h1m5 0h2m1 0h1m2 0h9m3 0h2m1 0h2m1 0h2m2 0h1m1 0h4m1 0h5m4 0h1m1 0h4m1 0h2m5 0h2m1 0h1m1 0h7m1 0h2m1 0h1m1 0h1m1 0h1m2 0h1m1 0h1m2 0h4m1 0h6m2 0h1M4 65.5h2m1 0h1m4 0h1m3 0h2m1 0h1m1 0h3m4 0h2m2 0h1m1 0h2m1 0h2m5 0h1m1 0h1m1 0h3m1 0h1m1 0h3m1 0h2m3 0h1m1 0h2m2 0h1m1 0h1m4 0h1m3 0h1m11 0h1m1 0h2m1 0h1m2 0h1m5 0h1m1 0h2m3 0h1m1 0h1m7 0h2m1 0h2m1 0h2m2 0h2m1 0h3m2 0h1m3 0h1m2 0h6m1 0h2m4 0h1m2 0h1m1 0h1m1 0h3m5 0h1m2 0h2M4 66.5h2m1 0h1m1 0h6m2 0h1m3 0h1m5 0h1m4 0h3m1 0h1m2 0h1m1 0h1m1 0h1m1 0h3m1 0h5m3 0h2m1 0h2m3 0h1m2 0h6m6 0h3m1 0h1m3 0h6m1 0h1m1 0h3m1 0h2m1 0h1m3 0h4m2 0h6m2 0h2m2 0h2m2 0h1m1 0h1m1 0h1m3 0h2m1 0h4m2 0h2m1 0h2m2 0h1m3 0h1m1 0h2m4 0h1m2 0h2m1 0h4m1 0h2M5 67.5h3m1 0h1m2 0h9m1 0h5m2 0h1m4 0h2m1 0h3m1 0h1m4 0h3m3 0h1m5 0h2m1 0h2m1 0h4m1 0h1m1 0h1m1 0h2m1 0h1m1 0h2m3 0h1m1 0h4m1 0h1m1 0h4m1 0h2m2 0h6m1 0h2m4 0h2m2 0h2m1 0h1m2 0h2m4 0h5m1 0h1m2 0h4m1 0h1m3 0h2m2 0h3m2 0h1m1 0h3m1 0h1m2 0h2m5 0h1m2 0h4M4 68.5h1m2 0h2m1 0h3m3 0h3m1 0h8m7 0h2m1 0h4m2 0h3m2 0h3m2 0h1m1 0h2m2 0h1m1 0h3m4 0h1m4 0h1m2 0h2m1 0h2m3 0h1m1 0h1m1 0h1m1 0h1m3 0h1m4 0h1m5 0h1m2 0h4m2 0h1m2 0h3m4 0h1m1 0h5m3 0h1m4 0h3m4 0h1m1 0h2m4 0h4m2 0h4m2 0h2m3 0h5m2 0h1M5 69.5h3m1 0h1m6 0h2m4 0h2m1 0h1m2 0h1m1 0h4m3 0h4m2 0h3m2 0h2m3 0h2m1 0h1m4 0h4m2 0h2m1 0h1m1 0h1m3 0h1m5 0h1m1 0h3m7 0h1m4 0h1m3 0h2m1 0h2m1 0h1m2 0h2m1 0h2m5 0h3m1 0h2m2 0h2m1 0h2m1 0h1m1 0h2m2 0h1m2 0h3m2 0h1m1 0h3m1 0h1m1 0h1m4 0h2m2 0h2m2 0h2m7 0h1M6 70.5h2m1 0h3m1 0h1m2 0h1m2 0h4m2 0h1m4 0h1m1 0h3m1 0h1m1 0h2m1 0h3m3 0h1m1 0h1m2 0h1m1 0h2m1 0h2m6 0h1m1 0h5m3 0h1m1 0h1m1 0h4m1 0h2m1 0h2m1 0h2m3 0h2m1 0h5m1 0h1m3 0h1m1 0h2m2 0h3m2 0h2m3 0h3m2 0h1m1 0h1m1 0h3m4 0h2m6 0h1m1 0h2m8 0h1m1 0h1m2 0h1m3 0h1m4 0h1m3 0h2M5 71.5h1m2 0h1m2 0h4m1 0h7m2 0h2m2 0h1m1 0h3m1 0h1m1 0h2m6 0h2m5 0h4m2 0h2m2 0h4m5 0h1m1 0h2m1 0h1m1 0h1m2 0h2m2 0h2m1 0h1m3 0h1m3 0h1m1 0h1m3 0h5m1 0h4m1 0h1m1 0h1m2 0h2m2 0h2m2 0h8m2 0h1m2 0h2m3 0h2m1 0h1m1 0h1m1 0h1m1 0h3m1 0h1m1 0h3m1 0h1m2 0h2m1 0h1m1 0h1m1 0h1m3 0h2M5 72.5h1m1 0h1m1 0h2m1 0h1m1 0h2m1 0h1m1 0h4m1 0h3m1 0h2m1 0h1m3 0h2m2 0h2m1 0h2m1 0h1m1 0h2m6 0h3m2 0h2m4 0h1m1 0h1m2 0h1m1 0h2m6 0h1m1 0h2m4 0h1m1 0h1m1 0h3m1 0h1m1 0h5m1 0h1m6 0h1m3 0h1m1 0h1m1 0h2m1 0h1m1 0h1m2 0h3m1 0h1m8 0h2m2 0h2m5 0h1m3 0h3m1 0h1m4 0h1m3 0h2m1 0h1m1 0h1m1 0h2m1 0h1M5 73.5h5m4 0h2m4 0h4m3 0h2m1 0h1m1 0h2m1 0h2m1 0h1m1 0h1m4 0h2m1 0h7m1 0h2m5 0h1m1 0h1m1 0h2m1 0h4m1 0h5m2 0h1m3 0h1m7 0h2m3 0h1m3 0h1m1 0h2m2 0h1m2 0h1m2 0h1m3 0h1m1 0h7m5 0h2m1 0h1m1 0h1m7 0h1m2 0h1m2 0h3m3 0h2m1 0h1m2 0h1m2 0h4m3 0h1m2 0h4M4 74.5h2m4 0h7m2 0h1m3 0h2m2 0h1m1 0h2m1 0h2m2 0h1m1 0h1m1 0h1m1 0h1m2 0h1m3 0h1m1 0h3m1 0h1m2 0h1m1 0h2m5 0h4m1 0h1m6 0h7m2 0h4m4 0h10m2 0h3m1 0h6m1 0h1m1 0h2m1 0h1m1 0h1m1 0h1m2 0h2m1 0h2m2 0h2m2 0h1m1 0h3m1 0h4m2 0h2m4 0h1m1 0h1m2 0h2m2 0h1m1 0h4M4 75.5h2m1 0h1m1 0h1m1 0h3m3 0h2m1 0h1m1 0h7m3 0h2m3 0h2m1 0h1m2 0h2m1 0h1m1 0h2m1 0h3m1 0h1m1 0h4m1 0h6m3 0h1m1 0h2m1 0h4m1 0h1m1 0h1m1 0h2m4 0h3m2 0h1m1 0h2m3 0h2m1 0h1m1 0h3m2 0h1m1 0h1m1 0h1m1 0h3m3 0h1m1 0h2m1 0h2m3 0h5m1 0h1m2 0h1m2 0h2m4 0h4m2 0h1m5 0h2m4 0h1m1 0h1m1 0h1m1 0h3M5 76.5h1m1 0h4m5 0h1m1 0h1m1 0h1m4 0h1m2 0h1m1 0h1m1 0h1m2 0h2m2 0h4m1 0h1m2 0h1m1 0h4m1 0h1m1 0h3m1 0h3m1 0h1m1 0h2m6 0h8m1 0h1m1 0h1m2 0h1m4 0h2m2 0h1m2 0h2m3 0h1m4 0h1m1 0h1m4 0h4m4 0h1m1 0h6m4 0h1m1 0h5m1 0h7m3 0h5m2 0h3m2 0h2m1 0h3m1 0h1m1 0h1m2 0h1M4 77.5h1m1 0h2m1 0h1m3 0h4m4 0h2m1 0h1m2 0h3m3 0h3m1 0h1m3 0h1m1 0h3m4 0h1m2 0h2m1 0h1m1 0h1m8 0h2m1 0h1m1 0h1m2 0h4m3 0h1m1 0h1m2 0h1m3 0h2m1 0h1m1 0h2m1 0h1m3 0h5m3 0h2m3 0h1m4 0h2m1 0h1m1 0h2m5 0h1m2 0h1m1 0h2m1 0h1m5 0h1m2 0h3m3 0h1m2 0h1m2 0h3m3 0h1m2 0h2m3 0h5M4 78.5h1m1 0h2m2 0h4m1 0h1m2 0h1m1 0h1m9 0h2m2 0h1m1 0h1m4 0h1m1 0h1m3 0h1m3 0h3m1 0h1m5 0h1m5 0h7m3 0h1m2 0h3m1 0h2m2 0h1m1 0h1m2 0h1m1 0h1m1 0h6m2 0h1m2 0h5m1 0h3m1 0h1m3 0h3m2 0h1m1 0h4m1 0h1m1 0h1m6 0h1m1 0h1m2 0h2m4 0h1m5 0h2m1 0h1m1 0h1m3 0h5m3 0h3M7 79.5h1m4 0h3m1 0h2m4 0h2m2 0h4m2 0h2m2 0h5m5 0h1m2 0h1m2 0h1m5 0h1m1 0h3m1 0h1m1 0h2m6 0h1m1 0h1m1 0h1m4 0h1m2 0h2m2 0h2m1 0h1m5 0h1m1 0h5m1 0h1m1 0h1m1 0h1m2 0h2m1 0h1m2 0h1m2 0h1m2 0h5m1 0h1m4 0h1m1 0h3m1 0h2m2 0h1m6 0h2m1 0h1m2 0h2m1 0h1m1 0h2m1 0h2m1 0h1m1 0h1m1 0h2m1 0h3M4 80.5h1m1 0h1m1 0h3m3 0h3m2 0h1m1 0h1m1 0h2m2 0h1m3 0h1m4 0h5m1 0h1m1 0h1m2 0h2m1 0h2m1 0h2m1 0h1m2 0h2m3 0h1m2 0h2m3 0h6m1 0h1m2 0h2m1 0h1m2 0h2m4 0h2m4 0h1m5 0h2m2 0h1m1 0h2m4 0h1m1 0h1m6 0h4m1 0h2m6 0h3m2 0h2m3 0h3m3 0h3m3 0h4m3 0h5m2 0h1m3 0h1M4 81.5h1m1 0h1m2 0h1m2 0h3m1 0h1m1 0h7m2 0h1m5 0h1m2 0h2m3 0h1m2 0h3m1 0h1m1 0h2m2 0h1m1 0h1m1 0h1m2 0h5m2 0h1m1 0h1m1 0h3m1 0h2m2 0h1m1 0h1m1 0h1m2 0h1m1 0h1m3 0h2m1 0h1m2 0h3m1 0h1m1 0h2m4 0h3m3 0h1m3 0h4m1 0h1m7 0h1m1 0h1m1 0h1m5 0h1m4 0h1m2 0h1m1 0h1m2 0h1m3 0h2m1 0h2m2 0h1m4 0h1m1 0h2m3 0h1M4 82.5h3m1 0h1m1 0h1m1 0h1m5 0h4m2 0h2m1 0h1m1 0h3m1 0h3m3 0h1m1 0h1m1 0h1m1 0h2m2 0h1m1 0h3m1 0h1m1 0h1m3 0h1m1 0h1m4 0h1m1 0h1m1 0h2m1 0h1m3 0h6m3 0h1m1 0h1m1 0h1m2 0h5m1 0h2m1 0h2m1 0h2m2 0h2m1 0h3m4 0h1m2 0h4m4 0h3m1 0h3m1 0h1m6 0h3m1 0h1m1 0h1m1 0h1m1 0h4m2 0h1m2 0h1m2 0h2m2 0h1m1 0h1m2 0h1M4 83.5h1m1 0h2m1 0h1m3 0h1m1 0h2m1 0h1m3 0h1m1 0h2m3 0h2m3 0h1m2 0h4m2 0h2m1 0h2m1 0h1m3 0h1m3 0h3m1 0h2m1 0h1m1 0h1m4 0h1m1 0h4m1 0h2m1 0h2m2 0h2m3 0h4m2 0h4m1 0h4m1 0h3m1 0h1m2 0h1m1 0h1m1 0h2m1 0h4m4 0h1m1 0h1m3 0h1m1 0h1m2 0h1m2 0h3m2 0h2m3 0h1m1 0h1m4 0h3m3 0h2m1 0h2m1 0h3m1 0h1m1 0h2m1 0h1M5 84.5h1m2 0h1m1 0h1m1 0h1m2 0h1m1 0h1m1 0h8m1 0h4m4 0h1m1 0h1m1 0h1m1 0h4m1 0h1m1 0h2m3 0h1m1 0h1m2 0h1m1 0h1m1 0h2m1 0h2m1 0h1m1 0h2m8 0h2m3 0h1m1 0h1m2 0h1m1 0h1m6 0h2m4 0h2m4 0h1m2 0h1m2 0h1m1 0h2m3 0h1m2 0h3m1 0h1m4 0h1m1 0h4m2 0h2m3 0h2m1 0h1m1 0h4m1 0h2m2 0h1m1 0h1m1 0h5m1 0h1m4 0h2M4 85.5h2m1 0h2m2 0h3m1 0h2m2 0h1m1 0h4m1 0h2m5 0h5m1 0h1m1 0h1m1 0h2m2 0h1m5 0h5m1 0h1m2 0h2m1 0h1m2 0h1m1 0h1m1 0h2m1 0h4m2 0h1m1 0h3m1 0h3m1 0h7m2 0h1m2 0h1m1 0h4m6 0h1m6 0h3m4 0h3m2 0h4m3 0h1m1 0h2m2 0h1m1 0h5m3 0h1m3 0h6m1 0h1m3 0h1m2 0h3m2 0h1M4 86.5h2m1 0h1m2 0h4m1 0h2m1 0h7m2 0h1m2 0h2m1 0h1m2 0h1m1 0h1m3 0h1m2 0h3m3 0h4m3 0h1m1 0h2m1 0h1m3 0h5m8 0h1m1 0h3m2 0h2m1 0h1m2 0h1m1 0h5m2 0h1m1 0h1m1 0h3m1 0h2m2 0h3m2 0h2m1 0h1m1 0h1m1 0h2m1 0h2m2 0h1m2 0h3m3 0h1m2 0h1m1 0h2m1 0h1m3 0h2m4 0h1m4 0h3m3 0h1m1 0h3m1 0h2M4 87.5h6m7 0h1m1 0h1m1 0h3m1 0h1m1 0h2m1 0h4m4 0h1m4 0h2m1 0h1m2 0h1m1 0h1m1 0h1m1 0h1m2 0h10m2 0h2m1 0h2m1 0h4m5 0h2m3 0h3m3 0h2m1 0h1m1 0h4m3 0h2m2 0h1m1 0h1m3 0h4m2 0h2m2 0h3m1 0h1m2 0h1m3 0h3m2 0h1m2 0h1m1 0h1m1 0h1m2 0h3m3 0h1m4 0h3m1 0h1m1 0h1m3 0h1m1 0h3M6 88.5h1m1 0h6m1 0h1m1 0h2m1 0h4m1 0h1m1 0h1m1 0h2m1 0h8m2 0h2m1 0h1m1 0h2m1 0h2m2 0h4m2 0h7m2 0h3m2 0h3m1 0h1m9 0h5m1 0h2m2 0h1m1 0h2m3 0h1m1 0h1m1 0h5m2 0h6m1 0h1m1 0h1m1 0h2m1 0h1m1 0h2m1 0h1m3 0h1m1 0h8m1 0h4m1 0h3m2 0h3m1 0h2m1 0h2m1 0h1m1 0h5m1 0h2M4 89.5h3m1 0h1m3 0h1m4 0h2m2 0h2m2 0h1m2 0h1m2 0h2m3 0h1m2 0h1m1 0h1m1 0h1m1 0h1m1 0h2m3 0h2m1 0h6m3 0h1m4 0h2m1 0h2m3 0h1m1 0h4m1 0h2m1 0h2m3 0h5m4 0h1m3 0h2m9 0h1m3 0h1m1 0h3m1 0h2m1 0h1m4 0h1m1 0h1m1 0h1m2 0h2m1 0h1m3 0h5m1 0h1m9 0h2m2 0h2m2 0h1m3 0h1m3 0h1M4 90.5h1m1 0h3m1 0h1m1 0h3m1 0h1m2 0h2m2 0h3m3 0h1m1 0h2m1 0h1m1 0h3m2 0h1m3 0h3m3 0h1m2 0h2m2 0h1m1 0h1m1 0h1m1 0h2m1 0h2m1 0h1m1 0h1m2 0h1m3 0h4m1 0h2m2 0h1m1 0h1m1 0h1m5 0h1m1 0h1m1 0h1m1 0h1m1 0h2m1 0h3m2 0h3m1 0h1m1 0h1m3 0h1m1 0h1m3 0h2m2 0h2m1 0h3m1 0h4m1 0h1m1 0h1m2 0h1m2 0h2m1 0h1m1 0h3m1 0h1m1 0h1m3 0h2m1 0h1m1 0h1m1 0h2m1 0h1M6 91.5h1m1 0h1m3 0h3m1 0h1m2 0h4m1 0h3m2 0h4m3 0h1m3 0h1m2 0h1m2 0h1m2 0h1m5 0h1m1 0h2m1 0h1m3 0h1m1 0h2m6 0h1m1 0h1m1 0h2m3 0h1m1 0h4m3 0h3m1 0h3m2 0h1m1 0h2m3 0h1m1 0h2m1 0h2m1 0h1m3 0h1m2 0h4m5 0h2m1 0h2m3 0h3m1 0h1m3 0h1m2 0h2m1 0h1m2 0h1m1 0h2m4 0h2m1 0h2m2 0h1m3 0h1m1 0h1M4 92.5h2m2 0h5m3 0h1m3 0h1m2 0h1m2 0h1m2 0h1m1 0h6m1 0h1m1 0h1m1 0h1m1 0h1m2 0h5m1 0h2m2 0h1m2 0h7m4 0h1m2 0h1m1 0h3m2 0h1m1 0h2m1 0h1m1 0h7m5 0h4m1 0h1m3 0h1m2 0h1m2 0h6m4 0h1m2 0h3m1 0h1m6 0h2m1 0h1m1 0h8m1 0h1m1 0h8m6 0h9m1 0h2M6 93.5h1m2 0h1m2 0h3m1 0h4m2 0h1m1 0h2m1 0h1m2 0h1m1 0h2m1 0h2m3 0h2m6 0h1m5 0h1m1 0h1m3 0h4m1 0h1m4 0h2m1 0h1m1 0h1m2 0h1m1 0h1m2 0h1m1 0h1m3 0h3m2 0h1m1 0h1m2 0h2m4 0h5m1 0h1m1 0h1m1 0h2m1 0h1m1 0h3m1 0h1m1 0h1m4 0h1m1 0h2m1 0h3m2 0h1m1 0h2m1 0h2m2 0h1m2 0h1m1 0h2m6 0h4m1 0h4m2 0h5m1 0h1M4 94.5h2m4 0h1m4 0h2m3 0h1m2 0h2m1 0h2m2 0h2m1 0h1m7 0h1m1 0h1m1 0h1m6 0h4m1 0h1m5 0h1m1 0h1m2 0h5m4 0h1m1 0h2m1 0h1m1 0h1m6 0h1m4 0h3m2 0h3m1 0h2m3 0h1m2 0h3m6 0h1m1 0h2m6 0h3m3 0h2m1 0h1m1 0h5m12 0h2m1 0h1m2 0h2m2 0h1m2 0h1m1 0h3M5 95.5h2m4 0h1m2 0h1m2 0h1m1 0h1m1 0h1m1 0h1m1 0h1m1 0h1m5 0h1m1 0h1m2 0h1m7 0h2m1 0h1m3 0h1m1 0h1m1 0h5m1 0h1m1 0h1m4 0h1m2 0h1m1 0h4m2 0h1m1 0h1m1 0h1m2 0h4m4 0h1m2 0h1m1 0h1m1 0h4m1 0h1m4 0h4m1 0h2m2 0h2m3 0h1m1 0h2m2 0h3m1 0h1m2 0h3m1 0h1m3 0h1m4 0h2m2 0h1m5 0h1m1 0h2m2 0h1m5 0h1m1 0h4M5 96.5h2m2 0h2m3 0h6m2 0h1m1 0h2m1 0h3m1 0h1m1 0h3m3 0h1m2 0h2m1 0h1m2 0h1m1 0h1m3 0h2m1 0h1m3 0h2m1 0h1m1 0h1m4 0h1m1 0h7m1 0h1m1 0h1m3 0h2m2 0h2m1 0h1m5 0h4m1 0h2m2 0h1m1 0h2m1 0h2m3 0h2m6 0h2m1 0h1m1 0h2m1 0h1m3 0h4m1 0h1m3 0h1m1 0h1m1 0h1m3 0h1m1 0h2m1 0h2m1 0h1m3 0h1m1 0h1m2 0h1M4 97.5h3m2 0h1m1 0h1m1 0h5m1 0h4m1 0h1m3 0h1m4 0h1m1 0h5m1 0h6m1 0h1m1 0h1m1 0h6m1 0h1m2 0h6m1 0h1m1 0h2m1 0h2m2 0h1m1 0h1m1 0h1m3 0h1m1 0h1m1 0h2m2 0h1m1 0h1m2 0h1m3 0h2m1 0h1m1 0h2m1 0h2m3 0h7m1 0h4m3 0h1m2 0h1m1 0h1m1 0h1m2 0h6m5 0h1m5 0h1m3 0h4m2 0h1m1 0h2m2 0h1m3 0h3M7 98.5h1m1 0h2m1 0h1m1 0h3m5 0h1m1 0h3m1 0h1m2 0h3m1 0h3m1 0h1m2 0h1m3 0h1m2 0h1m1 0h2m2 0h1m8 0h2m1 0h2m1 0h1m1 0h2m3 0h1m3 0h2m1 0h1m2 0h1m3 0h1m5 0h2m1 0h1m1 0h2m3 0h6m1 0h3m2 0h1m1 0h1m1 0h2m2 0h1m4 0h1m1 0h1m1 0h8m6 0h1m2 0h3m1 0h2m1 0h3m3 0h1m2 0h1m1 0h2m1 0h1m1 0h1M4 99.5h3m1 0h2m2 0h1m1 0h1m1 0h1m5 0h1m2 0h2m1 0h1m2 0h1m1 0h2m1 0h1m2 0h3m3 0h4m3 0h2m3 0h3m3 0h5m6 0h1m1 0h1m1 0h1m6 0h4m1 0h1m2 0h2m1 0h4m4 0h5m1 0h1m2 0h3m1 0h1m2 0h4m1 0h1m1 0h4m2 0h3m3 0h1m1 0h2m1 0h2m1 0h2m5 0h1m2 0h1m2 0h2m1 0h1m1 0h2m1 0h2m7 0h3M5 100.5h1m4 0h1m1 0h1m1 0h1m1 0h1m2 0h1m1 0h2m3 0h1m3 0h2m1 0h4m1 0h1m1 0h3m2 0h1m2 0h1m1 0h2m2 0h2m1 0h1m2 0h8m1 0h1m1 0h1m1 0h1m1 0h4m2 0h1m5 0h3m2 0h3m3 0h1m1 0h1m4 0h2m5 0h1m3 0h1m3 0h2m6 0h1m1 0h1m1 0h1m2 0h1m4 0h1m1 0h2m4 0h1m1 0h1m4 0h6m1 0h1m1 0h1m1 0h3m1 0h1m6 0h2M4 101.5h2m2 0h1m2 0h1m6 0h1m3 0h3m1 0h3m1 0h3m1 0h2m1 0h1m1 0h3m1 0h2m3 0h1m1 0h1m3 0h1m1 0h2m2 0h1m1 0h1m1 0h1m2 0h8m1 0h1m3 0h1m1 0h4m3 0h1m1 0h1m1 0h3m1 0h1m2 0h1m2 0h1m1 0h2m2 0h1m2 0h2m3 0h6m1 0h3m4 0h1m1 0h2m1 0h3m5 0h1m1 0h2m2 0h1m3 0h1m1 0h1m1 0h1m4 0h2m3 0h1m1 0h1m1 0h1m1 0h2m1 0h1m1 0h2M4 102.5h3m1 0h1m1 0h2m1 0h1m1 0h2m1 0h1m3 0h1m2 0h1m2 0h1m1 0h1m1 0h2m1 0h2m1 0h1m1 0h1m1 0h2m1 0h3m1 0h2m1 0h2m1 0h1m1 0h2m4 0h1m1 0h1m1 0h1m1 0h2m1 0h2m1 0h1m1 0h1m2 0h1m1 0h1m1 0h1m4 0h1m2 0h2m2 0h3m3 0h2m3 0h2m1 0h1m1 0h1m2 0h3m1 0h1m1 0h2m2 0h2m1 0h1m1 0h1m1 0h1m1 0h1m1 0h8m1 0h1m1 0h1m1 0h1m3 0h1m3 0h4m1 0h2m5 0h1m1 0h3m1 0h2m1 0h1M4 103.5h1m2 0h3m1 0h2m1 0h1m1 0h2m1 0h2m1 0h1m1 0h5m2 0h2m2 0h1m2 0h1m1 0h1m4 0h2m4 0h1m1 0h1m1 0h1m2 0h2m1 0h1m1 0h1m2 0h1m7 0h1m1 0h4m1 0h1m4 0h1m1 0h3m1 0h2m2 0h1m4 0h1m2 0h2m1 0h1m6 0h1m1 0h2m1 0h1m4 0h1m3 0h3m4 0h1m4 0h2m5 0h3m4 0h2m1 0h1m1 0h2m3 0h1m1 0h2m9 0h4M7 104.5h1m2 0h3m2 0h2m1 0h1m2 0h1m2 0h1m1 0h2m1 0h1m1 0h1m1 0h1m1 0h1m1 0h1m1 0h2m1 0h5m1 0h3m1 0h1m1 0h1m1 0h2m2 0h1m1 0h5m1 0h3m1 0h1m1 0h3m2 0h2m2 0h2m2 0h4m1 0h1m1 0h2m3 0h3m1 0h1m2 0h2m3 0h2m1 0h1m1 0h1m2 0h2m2 0h1m4 0h3m1 0h1m2 0h1m1 0h1m1 0h5m3 0h2m1 0h1m1 0h1m2 0h1m1 0h3m2 0h1m4 0h1m1 0h2m2 0h1m3 0h1m2 0h1M4 105.5h1m7 0h3m1 0h2m1 0h1m1 0h2m5 0h1m1 0h1m1 0h3m1 0h2m1 0h10m1 0h1m2 0h2m1 0h2m5 0h1m1 0h1m3 0h2m2 0h7m1 0h2m1 0h1m1 0h1m3 0h1m2 0h2m2 0h1m2 0h1m2 0h1m1 0h3m1 0h1m2 0h1m4 0h2m1 0h1m1 0h6m1 0h1m1 0h1m4 0h1m2 0h1m6 0h1m1 0h5m3 0h1m1 0h1m2 0h4m3 0h1m1 0h3m1 0h4m2 0h1M8 106.5h3m1 0h2m1 0h1m1 0h1m1 0h2m1 0h5m1 0h2m1 0h1m4 0h1m2 0h1m2 0h2m1 0h2m2 0h1m2 0h4m3 0h1m3 0h1m1 0h1m1 0h2m1 0h3m2 0h1m3 0h7m1 0h1m4 0h2m1 0h2m1 0h2m2 0h1m1 0h2m3 0h3m1 0h3m6 0h2m2 0h1m1 0h3m1 0h1m2 0h1m1 0h1m3 0h1m1 0h3m4 0h1m3 0h1m5 0h1m2 0h1m1 0h2m2 0h1m1 0h8M5 107.5h1m6 0h1m1 0h1m1 0h1m1 0h1m5 0h1m1 0h1m1 0h1m1 0h1m2 0h2m1 0h2m2 0h1m2 0h1m2 0h2m7 0h1m2 0h2m1 0h1m4 0h1m2 0h1m3 0h2m1 0h1m1 0h1m6 0h4m1 0h2m1 0h1m1 0h2m1 0h1m2 0h1m1 0h2m1 0h6m1 0h2m3 0h2m1 0h1m2 0h1m2 0h2m1 0h1m3 0h3m2 0h2m1 0h1m2 0h2m1 0h2m3 0h3m1 0h1m2 0h2m3 0h2m6 0h1m1 0h1m1 0h2m1 0h1M5 108.5h1m2 0h4m2 0h1m1 0h1m1 0h2m1 0h2m2 0h1m1 0h2m6 0h3m2 0h1m1 0h3m5 0h2m1 0h4m4 0h2m1 0h3m1 0h2m1 0h4m2 0h3m2 0h4m1 0h2m1 0h2m3 0h1m1 0h1m2 0h2m1 0h1m1 0h3m3 0h2m1 0h2m1 0h1m5 0h1m1 0h1m1 0h4m2 0h1m3 0h1m2 0h1m1 0h1m6 0h2m4 0h1m2 0h1m2 0h2m2 0h1m1 0h1m11 0h1M6 109.5h2m1 0h1m2 0h1m3 0h2m2 0h5m1 0h2m2 0h9m2 0h4m3 0h1m1 0h2m1 0h2m3 0h1m12 0h1m1 0h1m2 0h1m1 0h1m1 0h1m3 0h2m3 0h2m3 0h1m2 0h1m1 0h2m3 0h1m1 0h2m1 0h1m1 0h2m3 0h1m1 0h1m1 0h1m1 0h1m1 0h2m1 0h1m1 0h1m1 0h1m1 0h2m1 0h4m1 0h1m2 0h1m1 0h1m1 0h3m1 0h1m3 0h1m1 0h1m2 0h2m1 0h2m1 0h2m1 0h1m1 0h1m1 0h2m4 0h1M5 110.5h1m2 0h1m1 0h1m1 0h2m1 0h2m1 0h2m4 0h2m2 0h2m1 0h1m1 0h1m3 0h6m2 0h3m1 0h1m2 0h1m4 0h1m5 0h3m1 0h2m1 0h1m1 0h2m3 0h1m1 0h2m1 0h4m1 0h2m6 0h2m1 0h1m3 0h4m1 0h1m1 0h3m1 0h3m5 0h1m4 0h2m2 0h1m1 0h2m1 0h3m1 0h1m1 0h3m2 0h1m1 0h1m1 0h1m2 0h3m1 0h2m1 0h2m1 0h1m5 0h1m1 0h1m3 0h5M4 111.5h3m4 0h1m2 0h1m4 0h1m2 0h1m4 0h1m2 0h1m1 0h2m2 0h1m1 0h1m2 0h1m3 0h5m1 0h3m1 0h1m2 0h2m6 0h2m5 0h2m1 0h1m1 0h1m6 0h2m1 0h3m1 0h2m2 0h2m1 0h1m1 0h6m1 0h2m3 0h1m1 0h3m3 0h1m3 0h2m1 0h6m2 0h1m2 0h2m3 0h1m2 0h2m2 0h2m1 0h2m1 0h1m2 0h2m3 0h3m6 0h2m2 0h1M6 112.5h1m1 0h1m1 0h2m4 0h1m2 0h1m2 0h3m1 0h2m1 0h1m1 0h4m1 0h1m2 0h1m1 0h2m1 0h1m1 0h2m2 0h2m2 0h2m4 0h1m2 0h2m2 0h1m2 0h1m1 0h1m2 0h2m1 0h2m1 0h1m1 0h3m1 0h2m3 0h1m4 0h4m1 0h2m1 0h2m3 0h1m1 0h1m2 0h1m1 0h3m1 0h1m1 0h1m1 0h1m1 0h7m3 0h1m1 0h4m2 0h1m2 0h1m1 0h1m1 0h1m2 0h4m3 0h1m1 0h1m2 0h1m2 0h1m4 0h3m2 0h1M5 113.5h3m1 0h1m1 0h1m1 0h5m3 0h3m2 0h1m1 0h1m1 0h1m1 0h1m1 0h4m1 0h2m3 0h1m1 0h1m1 0h2m6 0h2m3 0h1m5 0h2m6 0h1m3 0h1m2 0h1m1 0h1m5 0h1m3 0h1m1 0h2m1 0h1m3 0h1m1 0h2m1 0h1m2 0h1m6 0h9m7 0h1m1 0h3m2 0h2m2 0h3m1 0h2m1 0h2m1 0h3m5 0h2m3 0h1m1 0h2m2 0h1m2 0h1m1 0h2M4 114.5h3m1 0h4m1 0h1m1 0h1m1 0h2m1 0h3m1 0h3m1 0h1m1 0h1m6 0h1m3 0h1m1 0h1m3 0h1m1 0h5m1 0h1m3 0h1m2 0h2m1 0h1m2 0h1m1 0h1m1 0h2m6 0h3m1 0h2m1 0h3m1 0h1m4 0h3m1 0h1m1 0h1m4 0h2m1 0h1m3 0h3m4 0h2m1 0h2m4 0h4m1 0h5m1 0h4m5 0h1m2 0h2m2 0h1m2 0h1m1 0h2m1 0h3m1 0h1m1 0h2m2 0h2m1 0h1M4 115.5h2m1 0h1m8 0h1m1 0h2m7 0h1m1 0h1m1 0h1m6 0h1m1 0h1m5 0h1m1 0h1m3 0h1m5 0h4m4 0h2m3 0h1m2 0h1m1 0h1m1 0h2m5 0h2m1 0h1m1 0h1m1 0h1m1 0h1m1 0h2m5 0h2m1 0h4m4 0h2m1 0h3m3 0h3m1 0h2m8 0h1m2 0h1m3 0h2m2 0h2m1 0h2m1 0h1m1 0h2m2 0h1m5 0h3m5 0h2m2 0h1M5 116.5h1m2 0h6m2 0h3m2 0h1m3 0h1m3 0h13m1 0h1m3 0h1m1 0h2m2 0h2m1 0h1m3 0h8m6 0h1m1 0h3m7 0h7m2 0h1m3 0h5m1 0h2m4 0h3m2 0h5m2 0h1m4 0h1m1 0h1m1 0h1m4 0h1m2 0h1m1 0h1m1 0h7m1 0h1m5 0h3m1 0h2m3 0h10m2 0h2M5 117.5h1m2 0h1m3 0h2m1 0h3m2 0h4m1 0h2m1 0h1m3 0h1m3 0h10m2 0h1m1 0h1m2 0h4m2 0h2m3 0h2m2 0h6m1 0h2m1 0h1m2 0h3m1 0h1m1 0h2m3 0h3m2 0h1m8 0h2m1 0h1m2 0h1m3 0h1m3 0h1m1 0h3m1 0h2m5 0h2m1 0h1m1 0h2m3 0h2m3 0h2m1 0h2m2 0h2m2 0h1m1 0h4m1 0h3m1 0h3m3 0h2m2 0h1M4 118.5h1m1 0h1m1 0h1m1 0h1m1 0h2m1 0h2m1 0h2m1 0h5m1 0h1m4 0h1m1 0h1m1 0h3m1 0h1m4 0h2m2 0h4m1 0h2m1 0h2m1 0h1m1 0h1m1 0h1m2 0h2m1 0h4m5 0h2m1 0h3m3 0h1m1 0h1m1 0h1m3 0h4m2 0h4m1 0h5m2 0h1m1 0h1m1 0h1m1 0h1m1 0h2m1 0h1m6 0h1m1 0h2m1 0h2m4 0h2m1 0h1m1 0h4m2 0h1m3 0h1m1 0h1m2 0h1m3 0h1m4 0h1m1 0h1m1 0h1m1 0h1M4 119.5h1m1 0h3m3 0h1m1 0h1m2 0h3m2 0h6m1 0h1m2 0h1m3 0h2m1 0h1m3 0h1m1 0h2m1 0h1m1 0h3m4 0h4m3 0h1m1 0h1m2 0h1m4 0h1m1 0h1m1 0h2m3 0h1m4 0h1m3 0h1m1 0h3m1 0h1m2 0h4m2 0h5m1 0h2m1 0h1m3 0h1m1 0h2m2 0h1m1 0h1m1 0h5m1 0h2m3 0h4m3 0h1m5 0h1m9 0h3m2 0h1m2 0h1m3 0h3M6 120.5h1m1 0h6m2 0h2m2 0h3m1 0h2m2 0h1m3 0h5m1 0h1m2 0h2m1 0h2m1 0h3m1 0h1m1 0h5m1 0h9m1 0h1m1 0h1m1 0h2m2 0h2m1 0h2m1 0h1m2 0h7m2 0h1m1 0h1m1 0h2m1 0h1m2 0h2m2 0h1m2 0h9m6 0h2m1 0h3m4 0h1m1 0h2m1 0h7m1 0h1m1 0h1m3 0h3m1 0h5m3 0h1m1 0h7M4 121.5h3m1 0h1m4 0h1m1 0h1m1 0h1m1 0h1m2 0h2m3 0h2m1 0h1m1 0h1m1 0h2m1 0h1m1 0h3m1 0h3m2 0h1m4 0h2m1 0h1m1 0h1m1 0h3m1 0h2m2 0h1m1 0h4m1 0h2m1 0h2m2 0h2m1 0h2m1 0h1m1 0h1m1 0h1m1 0h1m1 0h2m2 0h2m1 0h2m1 0h2m3 0h3m3 0h1m1 0h1m1 0h6m4 0h1m1 0h2m1 0h1m1 0h2m3 0h1m5 0h1m2 0h1m2 0h3m1 0h1m1 0h5m1 0h3m2 0h1m2 0h6M5 122.5h1m2 0h1m1 0h2m7 0h1m1 0h2m1 0h1m2 0h1m3 0h4m1 0h1m1 0h1m8 0h1m3 0h3m4 0h2m2 0h3m3 0h3m1 0h2m3 0h1m1 0h2m1 0h1m1 0h1m4 0h1m8 0h2m1 0h2m1 0h1m2 0h10m1 0h1m1 0h1m3 0h1m1 0h2m5 0h2m2 0h1m1 0h1m1 0h1m2 0h1m1 0h1m1 0h2m3 0h1m6 0h2m5 0h1m1 0h2m2 0h2m3 0h2M4 123.5h1m2 0h1m1 0h1m1 0h8m2 0h1m1 0h1m1 0h1m2 0h6m3 0h1m1 0h3m3 0h2m1 0h1m3 0h2m1 0h1m1 0h2m2 0h1m1 0h2m1 0h2m5 0h7m1 0h1m3 0h5m1 0h4m1 0h1m1 0h1m3 0h3m2 0h2m1 0h1m4 0h3m3 0h1m3 0h8m1 0h1m1 0h2m3 0h1m1 0h2m1 0h4m4 0h2m1 0h1m2 0h1m3 0h3m1 0h1m2 0h3m2 0h3M4 124.5h2m1 0h2m1 0h2m1 0h1m3 0h1m3 0h1m2 0h1m2 0h2m2 0h1m2 0h1m3 0h1m2 0h2m1 0h1m2 0h5m1 0h2m2 0h1m1 0h1m5 0h5m1 0h3m2 0h2m10 0h1m1 0h1m1 0h1m2 0h1m3 0h3m4 0h2m1 0h4m1 0h2m3 0h2m2 0h1m4 0h1m1 0h3m2 0h1m3 0h4m1 0h7m1 0h2m3 0h3m1 0h4m4 0h3m3 0h1m4 0h1M4 125.5h2m1 0h2m2 0h2m1 0h1m4 0h2m7 0h1m2 0h1m1 0h1m3 0h1m1 0h2m1 0h1m1 0h1m3 0h1m1 0h1m3 0h1m1 0h1m3 0h3m1 0h1m3 0h2m5 0h8m1 0h2m1 0h6m1 0h2m1 0h1m7 0h3m4 0h2m4 0h2m1 0h2m1 0h4m3 0h1m1 0h2m1 0h4m1 0h1m1 0h1m1 0h1m2 0h3m4 0h2m4 0h2m5 0h2m2 0h1m2 0h1m2 0h1m1 0h1M5 126.5h1m4 0h1m1 0h6m6 0h2m1 0h1m2 0h1m2 0h1m2 0h1m4 0h1m4 0h2m1 0h1m2 0h1m4 0h3m3 0h3m1 0h4m4 0h1m3 0h2m1 0h4m4 0h1m4 0h5m1 0h4m1 0h2m1 0h3m1 0h2m1 0h1m1 0h1m1 0h1m1 0h1m1 0h1m2 0h1m2 0h2m2 0h1m3 0h2m1 0h1m3 0h3m1 0h1m4 0h1m5 0h2m3 0h2m3 0h1m1 0h3m1 0h3M8 127.5h1m2 0h2m1 0h2m1 0h1m3 0h2m3 0h1m4 0h2m2 0h1m3 0h1m3 0h1m1 0h3m3 0h2m2 0h2m1 0h1m5 0h1m1 0h2m1 0h1m1 0h1m1 0h2m1 0h1m1 0h2m1 0h1m3 0h2m1 0h2m1 0h1m2 0h1m1 0h2m1 0h1m1 0h2m1 0h1m1 0h1m1 0h2m3 0h4m6 0h1m3 0h1m5 0h1m3 0h1m3 0h3m1 0h2m6 0h4m9 0h3m3 0h5m1 0h2M4 128.5h3m1 0h4m8 0h1m1 0h1m6 0h7m1 0h1m4 0h1m1 0h1m3 0h1m1 0h1m3 0h1m1 0h1m2 0h3m1 0h1m1 0h1m1 0h4m3 0h1m2 0h1m4 0h2m1 0h4m1 0h1m1 0h3m2 0h1m1 0h2m6 0h1m1 0h2m1 0h1m5 0h1m6 0h1m1 0h4m1 0h1m4 0h1m1 0h4m1 0h1m3 0h1m1 0h3m3 0h2m2 0h1m1 0h3m4 0h2m4 0h1m3 0h2M4 129.5h1m3 0h1m2 0h1m2 0h5m1 0h3m2 0h1m1 0h2m1 0h1m1 0h1m2 0h2m2 0h2m1 0h1m1 0h1m2 0h2m1 0h1m2 0h3m4 0h1m1 0h4m1 0h1m1 0h4m2 0h1m1 0h1m2 0h3m2 0h1m1 0h4m1 0h4m1 0h1m1 0h1m1 0h1m4 0h1m4 0h1m3 0h1m4 0h1m2 0h5m6 0h3m1 0h2m3 0h1m3 0h1m1 0h4m1 0h3m1 0h2m1 0h2m1 0h1m1 0h3m2 0h2m4 0h2m1 0h1M6 130.5h5m1 0h3m3 0h3m1 0h1m2 0h1m1 0h2m1 0h1m1 0h1m2 0h3m2 0h1m2 0h1m2 0h1m4 0h2m4 0h3m1 0h1m2 0h2m4 0h1m2 0h1m5 0h4m1 0h1m11 0h3m1 0h1m1 0h1m1 0h2m1 0h10m1 0h1m1 0h1m2 0h2m1 0h4m4 0h3m1 0h1m1 0h2m3 0h7m1 0h1m3 0h1m1 0h2m1 0h1m3 0h2m1 0h1m3 0h2m4 0h1M4 131.5h1m1 0h1m1 0h2m1 0h3m2 0h2m5 0h1m5 0h4m1 0h4m1 0h3m4 0h2m3 0h1m1 0h1m1 0h1m2 0h6m2 0h1m4 0h1m2 0h5m2 0h1m3 0h2m1 0h2m1 0h1m2 0h1m1 0h3m4 0h3m2 0h1m6 0h1m3 0h1m1 0h1m5 0h4m1 0h2m1 0h1m1 0h1m4 0h4m3 0h1m3 0h3m1 0h1m7 0h2m2 0h1m3 0h4m1 0h1m1 0h1M4 132.5h5m1 0h1m3 0h1m1 0h1m1 0h1m7 0h3m2 0h1m1 0h1m2 0h2m2 0h1m1 0h2m1 0h1m1 0h1m1 0h4m1 0h1m1 0h1m2 0h1m1 0h1m1 0h1m1 0h3m1 0h1m2 0h2m1 0h5m2 0h1m3 0h2m1 0h2m1 0h1m1 0h2m1 0h2m1 0h4m3 0h1m1 0h1m2 0h2m4 0h3m4 0h1m1 0h2m1 0h1m1 0h1m6 0h4m1 0h3m1 0h3m7 0h2m2 0h1m2 0h1m1 0h5m1 0h1m1 0h1m3 0h2M4 133.5h2m1 0h1m1 0h1m7 0h2m2 0h1m3 0h1m1 0h2m1 0h1m1 0h1m1 0h1m1 0h3m1 0h2m2 0h1m1 0h3m2 0h4m1 0h4m1 0h2m1 0h1m1 0h1m1 0h1m1 0h3m2 0h1m6 0h1m1 0h2m2 0h1m2 0h2m1 0h1m4 0h3m1 0h2m1 0h1m2 0h1m1 0h2m2 0h1m1 0h2m1 0h5m1 0h1m4 0h1m2 0h5m6 0h1m2 0h1m1 0h5m1 0h2m2 0h2m2 0h1m1 0h1m1 0h1m1 0h4m3 0h2m1 0h1M4 134.5h2m1 0h2m1 0h2m4 0h1m2 0h3m2 0h2m1 0h1m2 0h3m1 0h1m2 0h7m1 0h1m3 0h1m1 0h2m4 0h1m1 0h1m2 0h1m4 0h4m1 0h2m3 0h1m1 0h2m1 0h1m1 0h2m3 0h1m5 0h4m3 0h2m1 0h1m1 0h1m1 0h2m1 0h7m1 0h1m1 0h2m1 0h1m4 0h1m3 0h1m1 0h1m1 0h2m1 0h1m4 0h1m2 0h1m1 0h1m2 0h2m3 0h3m1 0h1m1 0h1m3 0h1m2 0h1m1 0h1M5 135.5h2m4 0h2m4 0h2m1 0h1m4 0h1m1 0h1m1 0h1m3 0h1m7 0h1m4 0h1m1 0h1m2 0h3m1 0h1m2 0h1m2 0h1m1 0h1m2 0h2m1 0h1m1 0h1m1 0h2m1 0h1m1 0h2m1 0h1m1 0h1m2 0h4m2 0h4m1 0h1m3 0h5m1 0h2m1 0h1m3 0h4m6 0h2m9 0h1m2 0h1m1 0h1m2 0h1m1 0h1m7 0h2m2 0h1m2 0h1m2 0h1m2 0h2m1 0h1m1 0h1m2 0h1m1 0h1m1 0h1M7 136.5h2m1 0h2m4 0h2m5 0h4m1 0h1m1 0h2m1 0h1m2 0h1m1 0h2m2 0h1m5 0h1m1 0h1m3 0h1m1 0h1m3 0h1m5 0h3m2 0h1m2 0h1m2 0h1m4 0h1m5 0h8m2 0h3m1 0h2m2 0h2m1 0h5m5 0h1m3 0h1m6 0h1m1 0h1m3 0h1m3 0h1m1 0h1m1 0h5m1 0h1m2 0h3m1 0h3m2 0h1m1 0h2m1 0h1m2 0h2m1 0h1m1 0h1m4 0h1M8 137.5h1m5 0h2m2 0h3m2 0h1m2 0h1m1 0h3m2 0h3m1 0h2m2 0h2m1 0h2m2 0h1m1 0h3m3 0h1m1 0h1m1 0h1m1 0h1m1 0h2m1 0h1m2 0h4m3 0h1m1 0h1m3 0h3m1 0h1m1 0h4m1 0h1m9 0h4m7 0h1m1 0h1m1 0h2m3 0h1m1 0h1m2 0h1m3 0h4m1 0h2m1 0h1m1 0h1m1 0h1m1 0h1m5 0h5m1 0h1m1 0h4m1 0h5m1 0h2m3 0h2m1 0h1M4 138.5h2m1 0h1m1 0h2m1 0h1m1 0h6m4 0h2m4 0h1m4 0h2m1 0h1m1 0h1m1 0h1m4 0h1m1 0h7m1 0h1m12 0h1m1 0h2m3 0h1m2 0h1m1 0h1m1 0h2m1 0h1m3 0h1m1 0h1m1 0h4m3 0h1m1 0h1m4 0h2m1 0h1m1 0h1m1 0h1m1 0h1m2 0h4m2 0h1m1 0h1m1 0h1m2 0h3m3 0h1m4 0h4m4 0h2m2 0h4m5 0h1m2 0h1m2 0h1m1 0h1m1 0h3M9 139.5h1m1 0h2m1 0h1m1 0h1m1 0h1m1 0h1m1 0h1m1 0h1m3 0h1m2 0h5m3 0h4m2 0h3m1 0h1m5 0h1m1 0h2m4 0h2m1 0h1m7 0h3m2 0h1m5 0h5m1 0h7m1 0h1m2 0h1m1 0h1m3 0h3m2 0h2m1 0h2m1 0h1m2 0h1m1 0h1m3 0h1m6 0h1m1 0h1m4 0h2m1 0h3m3 0h1m2 0h2m1 0h1m5 0h2m1 0h2m1 0h1m3 0h1m1 0h2m1 0h1m1 0h1M6 140.5h1m1 0h3m3 0h1m2 0h3m3 0h1m3 0h2m1 0h1m2 0h2m5 0h1m2 0h1m3 0h4m1 0h1m1 0h1m2 0h1m3 0h1m3 0h2m2 0h2m2 0h1m1 0h1m2 0h1m1 0h1m2 0h1m3 0h1m2 0h1m1 0h3m4 0h3m1 0h1m2 0h1m5 0h1m1 0h1m2 0h1m9 0h7m1 0h1m3 0h1m1 0h2m1 0h2m2 0h4m1 0h1m2 0h1m1 0h2m2 0h1m1 0h2m1 0h1m1 0h3m2 0h2m1 0h1m1 0h2M4 141.5h1m1 0h2m3 0h2m5 0h7m1 0h1m1 0h1m1 0h9m2 0h1m5 0h1m1 0h3m1 0h12m3 0h3m1 0h3m3 0h2m1 0h1m1 0h1m2 0h1m1 0h1m1 0h5m1 0h1m3 0h2m1 0h1m2 0h2m1 0h1m3 0h1m2 0h1m1 0h7m1 0h1m4 0h1m1 0h2m1 0h3m2 0h1m1 0h1m1 0h1m1 0h3m1 0h2m1 0h6m2 0h1m1 0h2m1 0h2m3 0h2m3 0h1m2 0h1M5 142.5h9m1 0h1m3 0h2m3 0h2m1 0h4m2 0h2m1 0h4m5 0h2m3 0h1m1 0h1m2 0h1m1 0h2m2 0h4m2 0h2m1 0h1m1 0h2m3 0h1m2 0h1m1 0h1m1 0h1m2 0h1m9 0h4m1 0h1m1 0h1m2 0h1m2 0h1m1 0h1m1 0h2m2 0h4m1 0h3m1 0h2m1 0h2m2 0h6m2 0h1m1 0h1m1 0h1m1 0h1m2 0h1m1 0h3m2 0h1m1 0h1m5 0h1m5 0h2m1 0h1m2 0h2M5 143.5h1m1 0h3m2 0h8m3 0h1m1 0h1m4 0h1m9 0h1m1 0h3m1 0h2m4 0h1m5 0h3m5 0h1m7 0h1m1 0h1m1 0h2m1 0h1m3 0h2m1 0h2m1 0h1m1 0h1m1 0h2m5 0h1m1 0h1m2 0h4m1 0h2m1 0h2m6 0h1m2 0h1m1 0h4m1 0h6m1 0h1m4 0h1m1 0h1m1 0h1m1 0h4m2 0h1m7 0h2m4 0h1m1 0h1m2 0h3m1 0h1M4 144.5h1m1 0h7m3 0h3m1 0h2m4 0h1m1 0h1m1 0h7m4 0h3m5 0h2m3 0h1m1 0h1m2 0h6m3 0h1m2 0h1m1 0h2m2 0h2m1 0h1m3 0h1m1 0h1m1 0h5m1 0h2m4 0h1m2 0h1m1 0h2m4 0h3m2 0h5m2 0h1m1 0h1m1 0h2m1 0h1m1 0h2m6 0h1m1 0h1m1 0h5m1 0h1m1 0h3m1 0h3m1 0h1m1 0h1m3 0h1m1 0h1m1 0h1m1 0h6M4 145.5h3m1 0h1m3 0h1m1 0h1m1 0h1m1 0h2m1 0h1m5 0h1m1 0h2m1 0h1m3 0h1m1 0h1m1 0h2m1 0h2m3 0h1m2 0h1m1 0h1m1 0h3m1 0h2m3 0h1m2 0h4m4 0h1m1 0h1m1 0h2m1 0h1m5 0h1m3 0h3m2 0h1m1 0h2m2 0h2m1 0h1m2 0h1m2 0h1m2 0h2m3 0h5m1 0h2m1 0h1m3 0h7m1 0h1m1 0h2m3 0h1m1 0h4m1 0h4m1 0h1m1 0h4m2 0h2m1 0h2m3 0h5M5 146.5h2m1 0h1m1 0h1m1 0h1m1 0h1m1 0h1m5 0h3m1 0h1m1 0h1m1 0h3m1 0h1m1 0h1m2 0h4m2 0h1m1 0h1m1 0h2m1 0h1m1 0h1m5 0h1m1 0h1m1 0h1m3 0h1m1 0h3m2 0h1m3 0h6m3 0h1m1 0h1m1 0h7m3 0h1m4 0h2m1 0h2m2 0h1m1 0h1m1 0h1m1 0h1m3 0h1m2 0h1m1 0h3m2 0h3m1 0h2m1 0h4m1 0h1m1 0h1m1 0h1m2 0h3m1 0h1m1 0h2m5 0h1m3 0h1m1 0h1m1 0h1m1 0h1m1 0h1M7 147.5h2m3 0h2m6 0h2m1 0h1m1 0h3m1 0h1m2 0h1m3 0h5m2 0h2m1 0h2m1 0h1m2 0h1m2 0h1m2 0h3m3 0h1m1 0h1m6 0h6m4 0h1m3 0h2m3 0h1m3 0h1m1 0h1m3 0h3m3 0h1m1 0h2m3 0h2m3 0h1m2 0h1m1 0h7m1 0h1m1 0h2m3 0h3m1 0h1m3 0h1m2 0h1m2 0h3m3 0h1m2 0h1m1 0h2m1 0h1m3 0h1m3 0h3M4 148.5h3m1 0h7m1 0h1m2 0h1m1 0h6m1 0h1m1 0h7m1 0h1m3 0h1m1 0h2m1 0h5m2 0h4m2 0h9m5 0h4m4 0h2m3 0h7m3 0h1m2 0h2m1 0h1m1 0h1m1 0h1m1 0h2m1 0h2m2 0h6m1 0h1m1 0h1m2 0h3m1 0h2m1 0h1m6 0h1m1 0h5m1 0h1m1 0h2m2 0h3m2 0h2m1 0h2m2 0h9m2 0h2M7 149.5h1m3 0h1m1 0h1m4 0h1m4 0h2m1 0h3m1 0h1m1 0h5m2 0h11m3 0h2m1 0h1m11 0h1m2 0h3m3 0h2m3 0h1m1 0h2m1 0h2m1 0h7m4 0h1m4 0h1m2 0h1m2 0h1m2 0h1m6 0h1m1 0h3m7 0h1m1 0h1m1 0h1m5 0h1m2 0h4m1 0h2m1 0h1m5 0h4m1 0h1m1 0h2m5 0h1m1 0h1m2 0h1M4 150.5h2m1 0h1m2 0h1m1 0h1m2 0h4m1 0h2m3 0h1m2 0h2m2 0h3m1 0h2m2 0h4m1 0h2m2 0h2m1 0h2m1 0h1m1 0h1m3 0h5m1 0h2m1 0h1m1 0h1m4 0h1m1 0h7m4 0h3m3 0h2m1 0h1m1 0h2m2 0h1m1 0h1m1 0h3m2 0h1m2 0h1m2 0h2m3 0h5m4 0h4m2 0h1m2 0h1m1 0h1m1 0h1m5 0h3m1 0h1m1 0h3m1 0h1m5 0h2m2 0h1M6 151.5h2m1 0h1m3 0h1m1 0h1m1 0h1m1 0h6m4 0h1m4 0h2m1 0h1m3 0h1m2 0h3m11 0h2m1 0h1m1 0h5m3 0h1m1 0h5m3 0h1m3 0h2m1 0h1m2 0h1m2 0h1m1 0h1m1 0h1m2 0h5m2 0h1m4 0h1m1 0h1m2 0h3m1 0h1m3 0h1m1 0h4m1 0h2m4 0h2m1 0h3m1 0h1m1 0h1m2 0h1m2 0h2m1 0h1m2 0h1m5 0h4m1 0h2m1 0h1m2 0h2M4 152.5h1m1 0h2m1 0h2m1 0h2m2 0h1m5 0h2m1 0h1m1 0h1m2 0h1m3 0h3m1 0h1m2 0h1m2 0h1m2 0h1m3 0h1m2 0h1m1 0h2m1 0h1m2 0h1m1 0h1m2 0h3m2 0h1m1 0h1m3 0h2m1 0h1m4 0h1m1 0h1m2 0h3m3 0h1m1 0h3m1 0h1m2 0h2m1 0h1m2 0h2m1 0h1m3 0h1m8 0h1m1 0h4m3 0h1m2 0h1m1 0h1m4 0h4m1 0h2m2 0h5m1 0h1m2 0h1m4 0h1m2 0h1m1 0h2m2 0h1M5 153.5h1m2 0h2m1 0h4m2 0h1m3 0h3m2 0h3m2 0h4m1 0h1m2 0h1m1 0h1m1 0h3m2 0h1m1 0h1m3 0h5m1 0h1m4 0h2m1 0h6m1 0h2m3 0h6m1 0h2m1 0h2m2 0h1m5 0h1m4 0h2m9 0h3m5 0h4m5 0h4m1 0h2m1 0h1m1 0h1m3 0h2m2 0h2m1 0h3m1 0h1m2 0h5m2 0h1m1 0h3m2 0h1m1 0h1m2 0h1M5 154.5h1m2 0h1m1 0h1m1 0h2m4 0h1m1 0h1m2 0h3m7 0h1m3 0h1m4 0h2m1 0h2m4 0h2m2 0h1m2 0h1m3 0h4m3 0h2m1 0h1m2 0h3m1 0h2m1 0h1m1 0h1m5 0h1m1 0h2m4 0h1m3 0h3m2 0h3m2 0h1m1 0h1m1 0h3m3 0h3m4 0h1m4 0h5m3 0h1m1 0h2m9 0h1m1 0h5m1 0h1m2 0h1m4 0h2m4 0h3M4 155.5h5m2 0h1m1 0h2m3 0h1m1 0h1m2 0h1m3 0h1m5 0h1m5 0h1m1 0h1m4 0h1m2 0h1m1 0h1m3 0h5m2 0h1m1 0h1m1 0h1m8 0h4m4 0h1m4 0h1m4 0h1m1 0h1m5 0h2m3 0h1m1 0h3m2 0h1m1 0h1m1 0h2m2 0h1m3 0h4m1 0h3m6 0h1m1 0h1m1 0h5m3 0h1m1 0h2m1 0h1m3 0h1m4 0h2m1 0h1m2 0h1m1 0h4m1 0h2M4 156.5h1m3 0h1m1 0h1m1 0h1m1 0h1m1 0h1m2 0h4m2 0h7m1 0h2m1 0h1m2 0h1m1 0h5m4 0h1m3 0h1m4 0h1m1 0h1m1 0h2m1 0h1m3 0h2m2 0h1m1 0h6m3 0h1m1 0h3m4 0h2m1 0h1m2 0h2m5 0h1m2 0h4m1 0h2m2 0h1m3 0h1m1 0h1m1 0h5m1 0h1m5 0h1m2 0h1m1 0h1m1 0h2m1 0h2m4 0h4m1 0h1m1 0h1m1 0h1m2 0h1m6 0h1m1 0h1m3 0h1M5 157.5h1m3 0h1m1 0h1m3 0h3m1 0h2m3 0h2m1 0h1m3 0h2m1 0h1m3 0h2m1 0h4m1 0h3m1 0h1m2 0h4m1 0h1m1 0h1m2 0h1m1 0h1m2 0h3m1 0h1m1 0h1m2 0h1m4 0h3m2 0h1m2 0h2m1 0h3m1 0h1m1 0h2m3 0h1m1 0h1m2 0h1m1 0h2m3 0h1m4 0h1m2 0h1m1 0h1m2 0h3m1 0h2m1 0h3m8 0h3m2 0h3m1 0h2m4 0h4m2 0h3m1 0h2m1 0h1m4 0h1M4 158.5h2m2 0h1m1 0h1m1 0h1m1 0h1m1 0h1m1 0h1m4 0h1m2 0h1m2 0h1m3 0h1m3 0h2m2 0h3m1 0h1m1 0h1m1 0h1m1 0h2m4 0h2m2 0h1m2 0h1m3 0h3m1 0h1m4 0h1m2 0h3m1 0h2m2 0h2m1 0h2m2 0h4m3 0h2m3 0h2m1 0h2m2 0h7m1 0h1m4 0h5m2 0h1m3 0h1m11 0h2m1 0h1m1 0h1m2 0h3m2 0h1m2 0h2m2 0h2m4 0h1m2 0h1M4 159.5h1m1 0h3m3 0h3m1 0h2m3 0h1m3 0h2m1 0h2m2 0h3m1 0h1m1 0h1m1 0h1m1 0h3m1 0h2m1 0h1m5 0h2m1 0h2m5 0h2m2 0h1m4 0h1m1 0h1m1 0h2m1 0h2m2 0h3m1 0h3m1 0h1m2 0h1m3 0h2m2 0h2m1 0h3m1 0h1m1 0h3m2 0h1m1 0h2m2 0h4m3 0h2m1 0h1m6 0h7m1 0h1m4 0h1m1 0h1m3 0h1m4 0h4m2 0h2m1 0h3m1 0h1m1 0h1M5 160.5h1m1 0h2m1 0h3m1 0h1m2 0h2m1 0h2m3 0h1m1 0h4m2 0h1m1 0h2m4 0h1m1 0h1m5 0h3m1 0h2m1 0h2m1 0h2m1 0h1m1 0h1m4 0h1m3 0h4m4 0h3m2 0h3m6 0h1m3 0h2m1 0h1m7 0h1m1 0h1m2 0h2m2 0h1m3 0h1m4 0h5m2 0h1m3 0h2m1 0h1m1 0h1m1 0h1m3 0h1m1 0h2m1 0h5m1 0h4m4 0h2m3 0h3m2 0h2M4 161.5h5m2 0h1m1 0h2m1 0h1m2 0h1m1 0h3m4 0h2m1 0h3m2 0h5m1 0h3m1 0h1m1 0h2m3 0h1m1 0h4m2 0h1m3 0h3m2 0h1m1 0h3m2 0h1m1 0h1m2 0h1m1 0h1m2 0h1m2 0h3m1 0h1m2 0h1m2 0h1m2 0h2m1 0h2m1 0h1m5 0h1m3 0h2m3 0h1m1 0h1m4 0h1m1 0h2m1 0h1m1 0h2m4 0h2m1 0h8m1 0h1m5 0h1m1 0h1m3 0h3m2 0h1m6 0h1M5 162.5h2m3 0h2m3 0h2m1 0h2m1 0h3m1 0h2m1 0h1m1 0h2m1 0h3m1 0h1m1 0h2m4 0h1m1 0h1m4 0h1m1 0h1m3 0h5m1 0h2m2 0h6m2 0h1m2 0h2m1 0h1m1 0h1m3 0h1m3 0h2m1 0h5m2 0h1m1 0h1m4 0h3m1 0h2m1 0h2m2 0h1m1 0h1m1 0h2m1 0h1m3 0h1m1 0h4m4 0h1m1 0h1m1 0h1m3 0h1m4 0h2m1 0h4m1 0h2m1 0h2m2 0h1m1 0h2m5 0h1M5 163.5h2m2 0h1m2 0h1m1 0h1m7 0h1m1 0h6m1 0h3m1 0h1m1 0h2m2 0h1m1 0h1m1 0h5m1 0h2m3 0h5m1 0h5m2 0h1m4 0h6m1 0h1m3 0h2m3 0h1m5 0h1m1 0h1m2 0h2m1 0h2m2 0h1m1 0h1m2 0h1m1 0h2m1 0h1m1 0h1m1 0h2m1 0h1m2 0h4m1 0h1m2 0h5m1 0h3m1 0h2m1 0h1m1 0h1m1 0h2m1 0h2m5 0h1m2 0h1m2 0h1m1 0h1m2 0h3m1 0h2M5 164.5h3m1 0h2m1 0h1m1 0h4m5 0h1m4 0h1m2 0h2m1 0h2m4 0h1m6 0h1m1 0h4m1 0h2m3 0h1m1 0h1m1 0h1m3 0h1m1 0h3m1 0h2m1 0h1m1 0h3m3 0h1m1 0h2m3 0h1m1 0h1m1 0h1m1 0h1m2 0h1m2 0h1m2 0h2m1 0h2m1 0h1m1 0h4m1 0h1m1 0h1m2 0h2m1 0h1m2 0h1m1 0h2m2 0h1m2 0h4m3 0h4m2 0h2m1 0h6m1 0h3m3 0h3m5 0h1m2 0h1M6 165.5h1m1 0h2m1 0h2m1 0h1m8 0h4m4 0h3m1 0h3m1 0h1m1 0h1m3 0h1m1 0h2m2 0h1m1 0h2m1 0h2m2 0h2m4 0h1m1 0h1m6 0h3m3 0h10m1 0h3m1 0h1m2 0h3m3 0h2m1 0h2m3 0h1m4 0h2m1 0h6m4 0h1m1 0h4m1 0h2m3 0h1m2 0h4m2 0h2m2 0h1m1 0h1m5 0h2m1 0h1m3 0h1m1 0h1m1 0h1m1 0h1m2 0h1M5 166.5h2m3 0h2m2 0h1m3 0h2m1 0h4m1 0h1m2 0h6m1 0h2m3 0h2m4 0h1m1 0h2m1 0h1m2 0h1m1 0h2m1 0h3m1 0h1m2 0h4m1 0h2m6 0h3m1 0h1m3 0h5m2 0h3m4 0h3m1 0h1m1 0h4m1 0h2m2 0h2m2 0h1m2 0h4m1 0h3m1 0h1m2 0h4m1 0h2m1 0h2m1 0h4m2 0h1m3 0h1m2 0h1m1 0h1m2 0h1m1 0h1m4 0h1m2 0h2m1 0h2M4 167.5h2m1 0h1m1 0h1m1 0h4m3 0h1m2 0h4m2 0h2m1 0h1m1 0h5m1 0h1m6 0h1m1 0h1m1 0h1m3 0h1m1 0h2m1 0h2m1 0h4m1 0h2m6 0h1m1 0h1m1 0h2m5 0h2m4 0h1m1 0h1m2 0h1m1 0h3m2 0h3m2 0h1m1 0h1m2 0h1m1 0h6m1 0h1m5 0h1m1 0h4m1 0h1m2 0h1m2 0h3m2 0h2m1 0h1m4 0h1m1 0h2m2 0h2m3 0h3m1 0h1m1 0h1m1 0h3m1 0h3M4 168.5h2m1 0h4m3 0h2m6 0h1m2 0h1m1 0h2m2 0h1m1 0h1m3 0h2m1 0h1m2 0h1m2 0h6m1 0h1m1 0h3m1 0h2m1 0h5m2 0h4m2 0h1m1 0h1m1 0h1m2 0h1m1 0h1m1 0h2m1 0h1m4 0h2m3 0h3m1 0h1m2 0h1m5 0h2m1 0h1m5 0h1m1 0h1m1 0h1m1 0h6m2 0h1m5 0h2m3 0h2m2 0h1m2 0h1m1 0h1m2 0h1m1 0h1m1 0h1m6 0h2m2 0h1m1 0h2M5 169.5h1m1 0h1m1 0h1m1 0h1m4 0h1m2 0h1m2 0h1m2 0h5m6 0h2m1 0h1m4 0h3m1 0h1m1 0h1m4 0h3m2 0h1m4 0h1m4 0h5m2 0h8m2 0h2m1 0h2m2 0h1m4 0h2m2 0h5m4 0h1m3 0h1m2 0h1m2 0h1m1 0h1m1 0h2m6 0h1m1 0h1m1 0h1m5 0h2m1 0h3m1 0h3m2 0h4m2 0h1m1 0h1m1 0h1m1 0h3m2 0h3m2 0h1m1 0h1M4 170.5h3m2 0h2m1 0h1m1 0h1m1 0h1m1 0h2m2 0h2m4 0h1m1 0h5m3 0h1m4 0h1m2 0h2m4 0h2m3 0h4m1 0h1m1 0h1m2 0h6m2 0h1m3 0h2m1 0h3m3 0h1m1 0h4m1 0h2m2 0h1m2 0h2m5 0h4m1 0h1m2 0h2m3 0h3m4 0h1m2 0h1m2 0h4m2 0h3m3 0h1m3 0h1m1 0h1m6 0h1m4 0h3m2 0h1m2 0h1m1 0h1m1 0h1m1 0h1M7 171.5h1m4 0h1m2 0h13m2 0h1m4 0h1m2 0h4m1 0h2m1 0h4m1 0h2m2 0h1m1 0h2m3 0h5m6 0h2m1 0h1m1 0h1m2 0h1m3 0h2m6 0h1m1 0h2m1 0h1m4 0h4m1 0h8m1 0h2m1 0h2m2 0h3m2 0h3m4 0h1m3 0h2m1 0h1m4 0h2m3 0h2m1 0h2m3 0h1m1 0h1m2 0h1m4 0h1m2 0h1m1 0h1m1 0h1m1 0h1M5 172.5h1m1 0h1m1 0h3m2 0h2m1 0h3m2 0h1m2 0h2m3 0h8m1 0h1m4 0h1m3 0h4m1 0h1m3 0h12m1 0h1m2 0h2m1 0h1m1 0h1m3 0h1m3 0h7m1 0h2m2 0h3m1 0h2m1 0h2m2 0h1m1 0h3m1 0h7m3 0h1m3 0h5m1 0h3m2 0h1m1 0h1m1 0h6m1 0h3m3 0h4m1 0h4m1 0h2m1 0h1m1 0h6m1 0h2M12 173.5h4m4 0h1m2 0h5m3 0h2m3 0h2m2 0h1m1 0h1m1 0h2m2 0h3m2 0h1m1 0h2m1 0h1m1 0h1m3 0h2m2 0h2m1 0h1m1 0h1m1 0h1m1 0h1m2 0h1m2 0h3m1 0h2m3 0h1m1 0h1m4 0h2m3 0h4m4 0h1m3 0h1m3 0h1m1 0h5m6 0h7m3 0h2m3 0h1m3 0h1m1 0h1m3 0h1m2 0h6m1 0h1m3 0h1m3 0h2m2 0h1M4 174.5h7m1 0h3m2 0h1m1 0h3m3 0h1m1 0h1m1 0h1m1 0h2m1 0h1m1 0h2m3 0h3m3 0h1m3 0h2m2 0h1m1 0h2m1 0h1m1 0h1m1 0h2m1 0h4m1 0h2m5 0h2m1 0h1m1 0h2m2 0h1m1 0h1m1 0h2m1 0h1m1 0h2m1 0h3m4 0h1m2 0h2m1 0h2m1 0h1m1 0h1m1 0h1m2 0h1m1 0h2m2 0h3m2 0h1m1 0h1m3 0h3m1 0h1m1 0h1m1 0h1m1 0h2m1 0h3m1 0h1m1 0h2m4 0h2m2 0h1m2 0h1m1 0h1m1 0h4M4 175.5h1m5 0h1m3 0h2m1 0h7m1 0h4m3 0h1m3 0h2m1 0h1m2 0h1m2 0h3m1 0h1m1 0h1m1 0h1m1 0h1m2 0h1m1 0h1m3 0h1m2 0h1m5 0h4m1 0h1m7 0h3m3 0h1m1 0h2m2 0h2m1 0h1m1 0h2m1 0h1m1 0h1m5 0h3m3 0h5m1 0h1m1 0h1m3 0h1m4 0h1m1 0h2m1 0h3m3 0h1m2 0h2m1 0h1m2 0h1m1 0h2m3 0h1m1 0h4m1 0h2m3 0h4M4 176.5h1m1 0h3m1 0h1m1 0h3m3 0h1m1 0h1m1 0h2m3 0h1m2 0h7m3 0h1m3 0h2m1 0h4m3 0h2m3 0h6m1 0h6m2 0h8m3 0h1m2 0h5m1 0h2m1 0h1m2 0h1m5 0h1m2 0h4m3 0h5m2 0h3m1 0h2m1 0h2m1 0h1m5 0h10m1 0h2m3 0h1m2 0h2m1 0h3m1 0h1m4 0h1m1 0h9M4 177.5h1m1 0h3m1 0h1m1 0h1m1 0h1m5 0h1m1 0h1m3 0h1m1 0h1m1 0h2m1 0h1m4 0h6m4 0h2m6 0h1m2 0h1m1 0h5m1 0h1m1 0h2m2 0h3m2 0h4m1 0h7m1 0h1m2 0h1m9 0h4m4 0h1m2 0h1m1 0h1m3 0h5m1 0h1m3 0h1m1 0h2m1 0h4m1 0h1m1 0h3m3 0h5m2 0h4m1 0h4m1 0h2m1 0h2m2 0h5M4 178.5h1m1 0h3m1 0h1m1 0h2m2 0h2m1 0h1m1 0h6m3 0h1m1 0h2m1 0h1m1 0h2m2 0h1m4 0h1m2 0h2m1 0h1m1 0h2m1 0h1m1 0h3m1 0h1m3 0h2m1 0h3m4 0h1m1 0h4m1 0h2m3 0h1m3 0h1m1 0h5m2 0h1m1 0h1m3 0h3m1 0h1m1 0h4m8 0h2m1 0h1m1 0h2m1 0h1m1 0h4m1 0h3m1 0h4m2 0h1m2 0h1m5 0h2m1 0h1m3 0h1m1 0h2m1 0h1m2 0h1M4 179.5h1m5 0h1m1 0h1m1 0h1m1 0h2m1 0h1m1 0h2m2 0h2m2 0h2m1 0h3m1 0h1m2 0h1m2 0h1m2 0h3m1 0h1m8 0h2m1 0h2m1 0h1m1 0h2m3 0h1m2 0h3m2 0h1m3 0h1m1 0h2m5 0h3m1 0h1m2 0h1m2 0h3m1 0h1m1 0h1m1 0h1m2 0h4m1 0h1m1 0h2m1 0h3m4 0h1m2 0h2m4 0h4m2 0h1m2 0h2m4 0h2m1 0h1m1 0h1m1 0h1m1 0h2m1 0h1m1 0h1m4 0h1m3 0h2M4 180.5h7m1 0h1m4 0h5m4 0h4m1 0h3m2 0h2m6 0h2m2 0h1m1 0h2m2 0h1m2 0h1m1 0h1m4 0h6m4 0h1m1 0h3m2 0h1m2 0h1m1 0h1m1 0h1m1 0h2m1 0h3m4 0h1m1 0h2m7 0h2m3 0h1m1 0h1m1 0h2m5 0h5m3 0h1m5 0h4m1 0h1m1 0h6m1 0h1m1 0h2m3 0h2m3 0h1m1 0h2m4 0h1m3 0h1"/></svg>
