<?xml version="1.0" encoding="utf-8"?><!DOCTYPE svg PUBLIC "-//W3C//DTD SVG 1.1//EN" "http://www.w3.org/Graphics/SVG/1.1/DTD/svg11.dtd"><svg xmlns="http://www.w3.org/2000/svg" viewBox="0 0 185 185" shape-rendering="crispEdges"><path fill="#ffffff" d="M0 0h185v185H0z"/><path stroke="#000000" d="M4 4.5h7m2 0h7m1 0h2m1 0h2m1 0h7m3 0h12m1 0h1m4 0h2m2 0h1m1 0h2m1 0h1m2 0h7m7 0h2m1 0h2m1 0h1m2 0h1m3 0h1m2 0h1m1 0h3m3 0h3m1 0h1m3 0h1m1 0h12m3 0h2m3 0h4m6 0h1m1 0h2m1 0h4m1 0h2m1 0h1m3 0h1m1 0h1m3 0h1m1 0h1m3 0h7M4 5.5h1m5 0h1m1 0h2m1 0h2m3 0h1m1 0h2m1 0h4m3 0h1m3 0h1m4 0h3m5 0h2m1 0h1m1 0h2m1 0h1m1 0h1m1 0h1m1 0h1m3 0h5m1 0h1m5 0h4m1 0h1m3 0h1m2 0h1m5 0h2m1 0h1m1 0h2m4 0h6m2 0h5m4 0h2m2 0h1m3 0h2m2 0h4m2 0h1m1 0h6m3 0h1m2 0h2m1 0h3m2 0h2m3 0h1m1 0h1m1 0h1m5 0h1M4 6.5h1m1 0h3m1 0h1m2 0h1m1 0h1m3 0h3m2 0h1m2 0h3m6 0h3m2 0h1m4 0h1m6 0h1m1 0h2m1 0h2m1 0h3m2 0h2m2 0h2m1 0h4m1 0h2m6 0h2m5 0h1m2 0h1m5 0h3m3 0h1m1 0h1m3 0h3m7 0h2m1 0h1m1 0h1m2 0h1m2 0h1m2 0h1m1 0h1m1 0h1m1 0h1m1 0h2m1 0h1m1 0h2m1 0h1m1 0h1m2 0h2m3 0h3m3 0h1m3 0h1m1 0h3m1 0h1M4 7.5h1m1 0h3m1 0h1m1 0h1m4 0h2m1 0h1m1 0h3m1 0h2m1 0h2m2 0h1m3 0h2m3 0h2m3 0h3m3 0h3m1 0h1m2 0h2m4 0h1m7 0h2m1 0h1m6 0h1m5 0h2m1 0h1m5 0h2m2 0h1m1 0h3m3 0h2m2 0h1m1 0h1m1 0h2m2 0h1m5 0h2m1 0h1m2 0h1m1 0h1m4 0h1m1 0h1m3 0h1m1 0h2m1 0h1m1 0h2m1 0h1m2 0h4m3 0h1m2 0h2m1 0h1m1 0h3m1 0h1M4 8.5h1m1 0h3m1 0h1m3 0h3m6 0h3m2 0h2m2 0h8m3 0h3m1 0h4m4 0h2m1 0h1m1 0h5m3 0h6m1 0h1m2 0h1m1 0h3m2 0h1m1 0h9m3 0h2m5 0h2m3 0h3m1 0h6m1 0h5m9 0h1m1 0h1m5 0h10m2 0h1m1 0h1m2 0h9m4 0h1m1 0h3m1 0h1M4 9.5h1m5 0h1m1 0h1m2 0h4m1 0h1m3 0h5m3 0h1m3 0h2m1 0h1m2 0h2m2 0h1m4 0h3m1 0h1m1 0h4m3 0h1m2 0h2m1 0h3m4 0h1m4 0h3m2 0h2m3 0h2m1 0h3m3 0h3m3 0h4m3 0h1m1 0h1m3 0h4m3 0h5m1 0h1m2 0h4m1 0h1m2 0h1m3 0h2m3 0h1m3 0h1m2 0h1m5 0h1m2 0h2m1 0h1m1 0h1m5 0h1M4 10.5h7m1 0h1m1 0h1m1 0h1m1 0h1m1 0h1m1 0h1m1 0h1m1 0h1m1 0h1m1 0h1m1 0h1m1 0h1m1 0h1m1 0h1m1 0h1m1 0h1m1 0h1m1 0h1m1 0h1m1 0h1m1 0h1m1 0h1m1 0h1m1 0h1m1 0h1m1 0h1m1 0h1m1 0h1m1 0h1m1 0h1m1 0h1m1 0h1m1 0h1m1 0h1m1 0h1m1 0h1m1 0h1m1 0h1m1 0h1m1 0h1m1 0h1m1 0h1m1 0h1m1 0h1m1 0h1m1 0h1m1 0h1m1 0h1m1 0h1m1 0h1m1 0h1m1 0h1m1 0h1m1 0h1m1 0h1m1 0h1m1 0h1m1 0h1m1 0h1m1 0h1m1 0h1m1 0h1m1 0h1m1 0h1m1 0h1m1 0h1m1 0h1m1 0h1m1 0h1m1 0h1m1 0h1m1 0h1m1 0h1m1 0h1m1 0h1m1 0h1m1 0h1m1 0h1m1 0h1m1 0h1m1 0h1m1 0h7M13 11.5h2m1 0h3m1 0h5m2 0h2m2 0h2m3 0h2m1 0h1m6 0h1m1 0h2m6 0h3m1 0h1m3 0h1m1 0h1m2 0h1m1 0h1m2 0h1m1 0h1m1 0h2m5 0h1m1 0h2m3 0h2m1 0h3m1 0h1m1 0h4m1 0h1m1 0h1m1 0h1m2 0h2m1 0h1m3 0h2m2 0h2m2 0h1m1 0h2m1 0h2m2 0h2m1 0h1m1 0h1m1 0h1m3 0h1m3 0h1m1 0h1m1 0h1m2 0h3m4 0h1m5 0h1M4 12.5h5m1 0h4m2 0h2m2 0h1m3 0h1m1 0h1m4 0h8m3 0h4m1 0h1m1 0h3m2 0h2m4 0h6m4 0h1m2 0h1m1 0h2m4 0h2m1 0h9m1 0h2m3 0h3m1 0h1m2 0h1m2 0h2m1 0h2m2 0h5m6 0h2m1 0h1m1 0h2m1 0h1m1 0h1m1 0h2m1 0h9m1 0h1m2 0h1m2 0h1m2 0h2m1 0h2m2 0h1m3 0h2m1 0h1m1 0h1m1 0h1M7 13.5h3m1 0h3m4 0h3m2 0h2m7 0h2m1 0h1m1 0h1m1 0h4m1 0h1m2 0h1m1 0h1m1 0h1m1 0h2m1 0h2m2 0h5m4 0h1m1 0h2m5 0h2m1 0h2m2 0h1m1 0h8m2 0h1m7 0h3m1 0h1m2 0h1m2 0h4m1 0h7m7 0h1m1 0h1m1 0h2m1 0h1m1 0h1m1 0h1m1 0h2m1 0h3m1 0h1m1 0h5m1 0h1m1 0h1m1 0h1m1 0h1m6 0h1m1 0h2m1 0h1M5 14.5h4m1 0h1m3 0h2m2 0h1m1 0h2m2 0h1m3 0h1m6 0h1m4 0h1m1 0h2m2 0h2m4 0h1m2 0h1m1 0h2m3 0h2m4 0h3m2 0h1m1 0h1m3 0h2m1 0h4m1 0h2m1 0h2m2 0h3m1 0h2m1 0h2m2 0h1m1 0h1m1 0h2m3 0h1m2 0h4m2 0h1m3 0h5m3 0h3m2 0h2m1 0h4m4 0h1m3 0h1m3 0h2m2 0h1m3 0h1m6 0h5M5 15.5h2m1 0h1m3 0h1m3 0h1m1 0h4m1 0h1m1 0h2m1 0h1m1 0h1m2 0h2m2 0h1m1 0h4m3 0h1m1 0h1m2 0h2m2 0h1m2 0h2m2 0h1m2 0h2m2 0h1m1 0h4m1 0h3m2 0h1m4 0h4m1 0h1m4 0h1m1 0h1m3 0h1m1 0h1m3 0h1m1 0h1m4 0h1m2 0h2m4 0h3m1 0h5m3 0h1m2 0h1m1 0h3m2 0h1m2 0h1m1 0h1m1 0h2m2 0h1m1 0h3m4 0h2m1 0h1m1 0h2m1 0h1m1 0h1m1 0h1m1 0h1M4 16.5h2m1 0h4m4 0h1m1 0h3m8 0h1m1 0h1m2 0h1m2 0h1m2 0h1m4 0h1m2 0h2m1 0h2m1 0h2m1 0h1m2 0h1m5 0h1m3 0h2m1 0h2m1 0h2m1 0h2m1 0h1m1 0h2m1 0h1m3 0h6m3 0h2m2 0h1m1 0h2m5 0h2m2 0h1m4 0h1m5 0h1m1 0h2m1 0h2m3 0h1m1 0h2m1 0h2m1 0h2m1 0h2m2 0h1m3 0h3m1 0h4m1 0h1m1 0h1m2 0h1m1 0h2m1 0h1m3 0h1M5 17.5h3m1 0h1m1 0h3m2 0h3m5 0h3m2 0h8m1 0h2m1 0h1m1 0h4m1 0h2m1 0h1m1 0h1m1 0h5m2 0h4m2 0h5m4 0h1m6 0h2m2 0h1m1 0h1m3 0h4m1 0h3m3 0h2m5 0h1m3 0h1m1 0h1m1 0h1m1 0h5m2 0h1m3 0h4m1 0h1m2 0h1m1 0h1m1 0h1m4 0h4m1 0h2m1 0h2m4 0h2m2 0h1m2 0h3m1 0h1m4 0h1M5 18.5h1m1 0h1m1 0h2m2 0h2m3 0h3m1 0h1m1 0h1m1 0h1m2 0h2m2 0h3m2 0h1m1 0h1m2 0h1m1 0h2m5 0h2m1 0h1m2 0h3m1 0h1m1 0h1m2 0h2m1 0h1m1 0h2m1 0h2m2 0h2m1 0h4m1 0h3m8 0h3m1 0h1m1 0h3m1 0h1m3 0h1m1 0h2m1 0h2m1 0h1m4 0h2m9 0h1m2 0h2m3 0h1m1 0h1m1 0h1m8 0h5m1 0h1m1 0h2m2 0h1m4 0h1m1 0h2m1 0h1M4 19.5h2m1 0h1m1 0h1m1 0h1m3 0h1m1 0h2m1 0h1m1 0h1m1 0h2m1 0h1m1 0h2m1 0h1m1 0h4m1 0h2m2 0h2m1 0h2m1 0h1m5 0h4m1 0h4m2 0h2m6 0h6m5 0h3m1 0h1m1 0h3m2 0h1m4 0h4m1 0h1m1 0h1m1 0h2m1 0h2m8 0h1m3 0h4m1 0h1m2 0h2m2 0h1m1 0h1m1 0h1m2 0h1m4 0h2m1 0h1m6 0h1m3 0h2m2 0h1m2 0h1m2 0h2m1 0h2M4 20.5h2m1 0h1m1 0h2m2 0h1m3 0h6m1 0h1m3 0h4m2 0h1m1 0h5m1 0h2m1 0h1m2 0h1m3 0h1m1 0h1m1 0h2m1 0h1m6 0h2m2 0h2m1 0h8m2 0h1m2 0h5m6 0h1m2 0h3m2 0h2m2 0h2m1 0h1m2 0h4m2 0h1m3 0h1m1 0h4m1 0h2m3 0h1m2 0h1m1 0h1m2 0h1m2 0h1m1 0h2m3 0h5m1 0h1m4 0h2m2 0h5m2 0h1m2 0h1M5 21.5h1m1 0h3m5 0h1m3 0h1m2 0h1m1 0h1m3 0h4m3 0h1m3 0h2m2 0h2m3 0h1m1 0h2m1 0h2m1 0h2m2 0h10m2 0h1m2 0h2m3 0h3m2 0h5m3 0h1m1 0h1m1 0h1m3 0h1m1 0h1m2 0h1m1 0h2m1 0h1m3 0h2m1 0h2m1 0h4m1 0h2m5 0h6m2 0h1m1 0h2m3 0h3m1 0h3m1 0h3m2 0h1m1 0h2m1 0h3m1 0h1m2 0h1m1 0h1m1 0h1m2 0h1M4 22.5h1m1 0h1m2 0h8m1 0h1m3 0h1m1 0h1m4 0h1m2 0h2m4 0h3m1 0h1m2 0h3m4 0h2m1 0h1m3 0h1m1 0h5m1 0h2m1 0h1m2 0h1m1 0h2m3 0h1m1 0h1m1 0h2m2 0h1m5 0h2m1 0h3m1 0h2m1 0h2m1 0h4m2 0h2m2 0h2m1 0h3m4 0h4m1 0h1m1 0h3m1 0h1m1 0h1m4 0h2m4 0h1m2 0h2m1 0h2m1 0h2m4 0h2m5 0h1m2 0h1M4 23.5h1m2 0h1m3 0h1m2 0h3m2 0h2m2 0h2m1 0h3m1 0h2m2 0h3m1 0h2m1 0h1m3 0h2m1 0h1m3 0h2m2 0h2m1 0h2m4 0h3m3 0h1m2 0h6m3 0h1m2 0h1m1 0h1m2 0h1m1 0h1m1 0h3m5 0h2m3 0h2m3 0h2m1 0h1m2 0h1m3 0h2m1 0h1m1 0h2m1 0h2m2 0h1m1 0h1m1 0h1m1 0h1m1 0h1m1 0h1m3 0h1m4 0h1m1 0h1m3 0h1m2 0h2m1 0h4m2 0h5m1 0h3M4 24.5h4m1 0h2m1 0h1m2 0h2m1 0h3m2 0h1m2 0h1m2 0h2m3 0h2m1 0h2m1 0h1m1 0h1m1 0h1m2 0h5m1 0h2m3 0h1m2 0h1m1 0h1m2 0h1m2 0h1m1 0h2m1 0h3m1 0h2m1 0h4m1 0h1m3 0h2m2 0h1m5 0h2m4 0h2m1 0h5m1 0h1m2 0h4m3 0h1m1 0h2m1 0h2m3 0h1m3 0h2m1 0h2m1 0h1m2 0h1m1 0h1m2 0h1m1 0h1m1 0h3m2 0h1m7 0h2m5 0h1M5 25.5h1m2 0h1m2 0h2m2 0h1m1 0h1m2 0h1m2 0h1m3 0h1m1 0h2m3 0h4m1 0h4m1 0h1m1 0h6m1 0h2m1 0h2m3 0h2m1 0h1m2 0h1m1 0h2m1 0h2m1 0h1m1 0h1m1 0h5m1 0h1m1 0h3m1 0h7m2 0h1m5 0h2m4 0h1m3 0h1m2 0h6m1 0h2m3 0h1m1 0h2m1 0h3m2 0h1m1 0h3m3 0h3m2 0h1m1 0h1m1 0h1m2 0h2m1 0h2m1 0h3m1 0h1m1 0h1m2 0h1m1 0h3M4 26.5h5m1 0h3m1 0h2m2 0h1m4 0h2m2 0h1m2 0h2m2 0h3m1 0h1m2 0h1m1 0h1m1 0h1m1 0h1m1 0h1m2 0h1m5 0h1m1 0h2m1 0h2m3 0h1m1 0h4m5 0h2m1 0h1m1 0h1m3 0h2m1 0h1m3 0h1m2 0h1m1 0h2m2 0h2m3 0h6m3 0h12m4 0h1m1 0h4m1 0h1m1 0h4m1 0h1m10 0h2m2 0h1m1 0h3m2 0h2m1 0h2m2 0h2M4 27.5h1m3 0h2m1 0h1m1 0h5m1 0h2m1 0h1m2 0h1m3 0h1m1 0h2m6 0h1m3 0h1m2 0h1m1 0h2m2 0h2m3 0h2m1 0h1m2 0h2m1 0h2m1 0h1m3 0h4m1 0h2m7 0h1m3 0h2m1 0h1m1 0h4m4 0h2m2 0h1m1 0h2m1 0h2m2 0h1m3 0h1m1 0h1m5 0h2m2 0h1m4 0h1m3 0h2m7 0h1m1 0h2m2 0h1m2 0h2m3 0h5m2 0h1m1 0h1m1 0h1m1 0h2M5 28.5h3m1 0h3m1 0h1m1 0h1m2 0h4m1 0h1m1 0h1m1 0h1m2 0h1m2 0h13m1 0h2m1 0h2m3 0h1m2 0h2m1 0h1m1 0h1m3 0h1m1 0h6m3 0h3m1 0h2m1 0h2m3 0h2m8 0h1m1 0h2m2 0h1m2 0h2m1 0h1m1 0h1m2 0h2m2 0h1m1 0h1m1 0h1m1 0h4m1 0h1m7 0h4m1 0h1m1 0h5m4 0h1m1 0h2m2 0h2m2 0h2m1 0h2m1 0h4m3 0h2M5 29.5h3m1 0h1m3 0h2m1 0h2m2 0h3m1 0h1m1 0h1m3 0h4m1 0h1m5 0h2m1 0h1m2 0h1m1 0h1m5 0h3m2 0h1m3 0h1m3 0h3m4 0h1m1 0h1m2 0h2m2 0h1m3 0h3m1 0h1m1 0h1m2 0h1m2 0h1m5 0h2m2 0h1m1 0h2m1 0h1m2 0h2m1 0h2m1 0h1m1 0h1m4 0h1m1 0h2m1 0h1m1 0h2m1 0h2m2 0h1m1 0h2m1 0h3m1 0h3m1 0h2m1 0h8m1 0h2m1 0h1m1 0h1m1 0h2m1 0h1M5 30.5h1m2 0h3m4 0h1m3 0h5m2 0h1m4 0h2m1 0h4m1 0h1m2 0h1m2 0h3m2 0h6m2 0h2m1 0h1m1 0h1m4 0h3m1 0h2m1 0h1m3 0h2m1 0h3m2 0h2m1 0h2m1 0h1m2 0h1m1 0h2m2 0h3m4 0h1m1 0h1m1 0h1m2 0h6m1 0h1m4 0h2m3 0h1m2 0h3m1 0h2m3 0h2m12 0h2m1 0h1m3 0h1m2 0h1m1 0h1m2 0h1m1 0h4M5 31.5h1m1 0h1m3 0h3m1 0h2m8 0h2m1 0h1m1 0h1m1 0h1m2 0h4m2 0h1m4 0h1m4 0h2m2 0h7m1 0h1m2 0h2m3 0h1m1 0h4m1 0h2m1 0h1m3 0h2m2 0h1m2 0h2m1 0h2m1 0h1m4 0h3m1 0h1m2 0h1m4 0h3m1 0h1m6 0h1m5 0h2m1 0h2m1 0h3m1 0h2m1 0h1m5 0h2m1 0h2m1 0h1m1 0h3m1 0h1m2 0h1m5 0h1m1 0h3m1 0h1M5 32.5h2m1 0h5m2 0h2m1 0h1m4 0h2m4 0h2m1 0h12m1 0h1m1 0h5m1 0h3m1 0h1m2 0h8m1 0h1m3 0h1m1 0h3m1 0h1m6 0h1m1 0h5m1 0h2m3 0h5m1 0h2m2 0h1m2 0h2m2 0h5m8 0h4m6 0h4m1 0h5m1 0h1m1 0h1m4 0h2m2 0h2m1 0h1m2 0h2m3 0h5m2 0h2M5 33.5h4m3 0h3m1 0h1m1 0h5m1 0h1m1 0h2m2 0h1m1 0h1m3 0h1m4 0h4m2 0h2m1 0h2m1 0h1m1 0h3m2 0h1m3 0h1m5 0h1m1 0h4m3 0h2m3 0h5m3 0h1m1 0h2m4 0h1m4 0h3m3 0h2m3 0h1m3 0h1m1 0h1m1 0h1m1 0h1m7 0h1m1 0h1m1 0h2m4 0h1m3 0h2m1 0h2m1 0h1m3 0h3m1 0h1m1 0h1m3 0h1m1 0h1m1 0h1m3 0h1m2 0h1M6 34.5h3m1 0h1m1 0h1m1 0h2m2 0h1m1 0h1m1 0h1m4 0h1m1 0h4m1 0h1m1 0h5m2 0h1m1 0h3m1 0h1m1 0h4m2 0h1m2 0h1m1 0h1m1 0h1m3 0h1m1 0h1m1 0h2m3 0h1m1 0h2m1 0h4m2 0h1m1 0h1m1 0h1m2 0h1m1 0h3m2 0h4m4 0h2m2 0h3m1 0h1m1 0h2m5 0h2m2 0h1m1 0h4m1 0h1m2 0h4m1 0h1m1 0h2m3 0h1m1 0h1m1 0h5m1 0h1m1 0h1m3 0h4m1 0h1m1 0h4M4 35.5h5m3 0h1m1 0h1m1 0h3m1 0h2m1 0h1m1 0h2m1 0h2m1 0h2m3 0h4m1 0h1m4 0h2m1 0h1m2 0h1m2 0h1m2 0h1m1 0h1m3 0h1m1 0h2m6 0h1m1 0h1m1 0h1m6 0h2m1 0h1m3 0h1m2 0h2m3 0h5m1 0h3m2 0h1m1 0h1m2 0h1m3 0h1m2 0h1m2 0h1m1 0h2m1 0h3m1 0h3m1 0h6m3 0h1m4 0h2m2 0h1m2 0h1m2 0h2m1 0h2m3 0h2m3 0h1m1 0h1M4 36.5h2m2 0h5m6 0h2m2 0h3m4 0h1m1 0h7m1 0h2m7 0h4m1 0h1m2 0h1m1 0h6m4 0h3m1 0h5m1 0h1m1 0h1m1 0h12m4 0h1m3 0h1m2 0h2m4 0h2m1 0h7m3 0h1m1 0h2m1 0h3m4 0h1m1 0h4m1 0h13m1 0h2m1 0h2m1 0h2m2 0h9m2 0h2M5 37.5h1m6 0h2m2 0h2m2 0h2m1 0h1m1 0h1m1 0h2m2 0h2m2 0h1m2 0h1m2 0h1m1 0h2m3 0h1m1 0h1m2 0h1m3 0h2m2 0h1m4 0h2m2 0h1m1 0h1m4 0h2m1 0h1m1 0h1m1 0h1m3 0h1m1 0h3m1 0h1m2 0h1m3 0h1m4 0h2m3 0h3m1 0h2m1 0h1m2 0h4m1 0h2m1 0h1m3 0h4m1 0h2m3 0h1m1 0h2m1 0h3m3 0h3m1 0h1m2 0h2m5 0h2m1 0h2m4 0h4M5 38.5h1m1 0h1m2 0h2m2 0h4m2 0h1m1 0h2m1 0h1m5 0h1m1 0h1m1 0h1m1 0h1m1 0h3m3 0h2m5 0h2m1 0h1m1 0h3m1 0h5m1 0h2m1 0h1m1 0h2m6 0h3m1 0h1m2 0h2m2 0h3m1 0h2m1 0h2m1 0h1m1 0h1m3 0h1m1 0h2m1 0h4m5 0h1m1 0h5m3 0h2m1 0h2m2 0h2m1 0h2m2 0h1m2 0h1m6 0h1m2 0h4m3 0h1m3 0h2m1 0h1m4 0h2M5 39.5h2m4 0h2m1 0h2m3 0h1m3 0h1m6 0h6m2 0h1m1 0h2m2 0h3m2 0h1m2 0h1m5 0h1m1 0h1m1 0h1m3 0h1m4 0h1m2 0h1m1 0h4m5 0h3m1 0h3m1 0h1m1 0h4m3 0h1m1 0h3m1 0h2m4 0h1m1 0h5m2 0h2m3 0h1m1 0h3m4 0h2m3 0h3m1 0h1m2 0h1m1 0h1m2 0h1m2 0h1m2 0h2m4 0h1m1 0h1m5 0h5M5 40.5h1m1 0h1m1 0h3m1 0h3m1 0h1m1 0h1m5 0h1m1 0h4m2 0h2m2 0h2m1 0h2m3 0h3m2 0h1m3 0h2m4 0h3m1 0h3m3 0h3m2 0h1m8 0h2m2 0h1m8 0h1m2 0h1m1 0h2m1 0h2m2 0h2m1 0h2m3 0h3m1 0h1m1 0h1m1 0h1m2 0h3m1 0h2m3 0h1m1 0h5m2 0h1m2 0h1m2 0h1m2 0h2m1 0h2m2 0h3m2 0h1m1 0h2m2 0h2m1 0h1m2 0h2M6 41.5h1m1 0h1m3 0h3m2 0h4m3 0h2m5 0h2m1 0h5m5 0h2m4 0h1m2 0h1m2 0h2m1 0h1m6 0h1m5 0h2m1 0h3m3 0h1m1 0h2m5 0h2m2 0h2m1 0h1m5 0h1m2 0h1m1 0h2m1 0h1m3 0h1m3 0h1m1 0h2m1 0h1m1 0h1m6 0h2m1 0h1m1 0h2m3 0h2m2 0h2m2 0h3m2 0h2m6 0h2m2 0h1m2 0h1m3 0h1m2 0h1m1 0h1M4 42.5h1m2 0h4m1 0h4m3 0h2m1 0h1m2 0h5m5 0h4m1 0h2m4 0h4m2 0h2m1 0h1m1 0h3m4 0h3m1 0h1m1 0h3m6 0h2m1 0h1m1 0h2m1 0h1m4 0h1m4 0h2m1 0h3m1 0h1m2 0h1m1 0h2m1 0h4m1 0h1m2 0h1m3 0h3m1 0h1m1 0h2m1 0h2m4 0h1m1 0h2m1 0h2m2 0h4m1 0h3m4 0h1m1 0h2m1 0h1m1 0h1m1 0h1m3 0h1m1 0h1m1 0h1M5 43.5h5m4 0h5m2 0h1m1 0h2m1 0h1m2 0h1m1 0h1m1 0h2m1 0h2m1 0h2m2 0h1m1 0h2m1 0h2m1 0h2m5 0h1m1 0h1m1 0h1m4 0h1m5 0h2m1 0h4m3 0h1m2 0h2m2 0h2m2 0h1m1 0h7m1 0h2m1 0h5m1 0h2m3 0h1m1 0h1m3 0h2m1 0h1m1 0h3m1 0h1m2 0h2m2 0h3m1 0h1m1 0h1m6 0h3m1 0h1m2 0h2m1 0h4m1 0h1m2 0h1m2 0h2m1 0h3M8 44.5h3m1 0h3m1 0h1m1 0h2m1 0h1m3 0h4m9 0h1m1 0h1m1 0h1m1 0h2m1 0h2m1 0h1m3 0h1m5 0h1m1 0h5m4 0h1m1 0h1m7 0h2m1 0h1m1 0h1m1 0h1m4 0h1m1 0h1m3 0h2m2 0h1m3 0h1m3 0h2m3 0h2m1 0h1m3 0h1m3 0h2m1 0h3m4 0h1m1 0h5m2 0h1m3 0h1m2 0h3m2 0h3m1 0h1m1 0h1m2 0h1m1 0h3m1 0h1m2 0h2M5 45.5h3m1 0h1m2 0h1m4 0h4m1 0h3m3 0h1m1 0h2m2 0h1m1 0h2m1 0h4m1 0h1m1 0h1m1 0h6m1 0h2m1 0h1m10 0h2m5 0h1m1 0h1m2 0h4m1 0h1m1 0h1m1 0h1m2 0h3m5 0h1m2 0h3m5 0h1m2 0h3m2 0h1m3 0h4m5 0h2m1 0h1m1 0h1m2 0h1m2 0h1m3 0h2m2 0h1m2 0h2m1 0h1m2 0h1m2 0h2m1 0h2m1 0h1m4 0h1m4 0h1M5 46.5h1m1 0h5m1 0h2m5 0h1m1 0h2m3 0h2m3 0h8m1 0h1m1 0h1m1 0h1m1 0h1m1 0h1m1 0h2m2 0h1m3 0h1m2 0h1m1 0h2m1 0h2m1 0h1m1 0h2m5 0h2m1 0h3m3 0h2m1 0h3m2 0h1m1 0h3m1 0h3m2 0h5m1 0h2m1 0h5m1 0h1m1 0h1m1 0h2m4 0h1m1 0h1m1 0h4m2 0h1m2 0h1m1 0h1m1 0h1m4 0h2m1 0h1m1 0h2m1 0h2m2 0h1m2 0h1m2 0h2m1 0h1m2 0h1M4 47.5h1m2 0h3m1 0h2m2 0h1m1 0h3m1 0h1m3 0h1m2 0h4m3 0h2m3 0h1m4 0h3m1 0h1m2 0h1m2 0h2m1 0h1m3 0h1m3 0h2m1 0h1m6 0h4m3 0h1m1 0h3m1 0h1m3 0h1m1 0h4m1 0h2m1 0h2m1 0h1m1 0h3m2 0h1m4 0h4m3 0h1m1 0h1m1 0h2m2 0h1m1 0h3m2 0h3m1 0h1m1 0h3m4 0h3m4 0h1m4 0h3m4 0h1m1 0h1m1 0h3m1 0h1M4 48.5h2m3 0h2m2 0h2m1 0h1m1 0h1m1 0h1m2 0h2m4 0h1m2 0h7m1 0h3m1 0h3m1 0h4m2 0h1m1 0h2m3 0h4m2 0h2m2 0h1m1 0h2m2 0h3m1 0h1m1 0h1m1 0h1m3 0h1m1 0h1m2 0h1m3 0h4m10 0h1m3 0h2m1 0h1m10 0h1m1 0h2m1 0h1m4 0h1m1 0h1m1 0h1m1 0h1m3 0h1m2 0h1m1 0h2m1 0h2m2 0h2m2 0h1m2 0h5m1 0h2m2 0h2M4 49.5h4m1 0h1m1 0h4m1 0h1m2 0h1m1 0h2m1 0h9m3 0h2m1 0h2m1 0h1m1 0h2m1 0h2m1 0h1m3 0h3m4 0h1m3 0h1m2 0h3m1 0h1m2 0h1m2 0h1m10 0h2m1 0h3m2 0h1m2 0h2m3 0h3m1 0h1m5 0h2m4 0h2m1 0h1m1 0h1m4 0h1m2 0h1m1 0h4m1 0h1m1 0h1m3 0h2m1 0h1m3 0h1m1 0h2m1 0h7m2 0h2m1 0h2m2 0h1m2 0h1m1 0h1M8 50.5h6m1 0h1m1 0h2m1 0h3m3 0h6m1 0h4m3 0h2m1 0h1m3 0h1m3 0h5m2 0h2m1 0h2m1 0h2m1 0h4m1 0h2m1 0h1m1 0h1m1 0h1m1 0h1m1 0h3m1 0h1m1 0h4m2 0h5m1 0h4m2 0h1m2 0h3m1 0h1m1 0h2m2 0h1m1 0h6m1 0h1m3 0h1m4 0h1m1 0h2m11 0h1m1 0h1m1 0h4m1 0h2m2 0h1m5 0h2m1 0h2M5 51.5h1m1 0h1m1 0h1m1 0h2m2 0h1m1 0h3m4 0h1m1 0h1m1 0h2m1 0h2m1 0h1m1 0h1m1 0h3m2 0h1m1 0h2m1 0h2m5 0h1m1 0h2m1 0h8m3 0h1m1 0h4m1 0h1m3 0h2m2 0h1m4 0h1m1 0h1m2 0h1m6 0h2m3 0h3m2 0h2m2 0h8m3 0h1m1 0h2m1 0h3m3 0h2m1 0h1m1 0h2m1 0h1m1 0h1m3 0h3m1 0h1m1 0h2m4 0h3m1 0h1m1 0h1m2 0h1m2 0h2M9 52.5h2m1 0h2m1 0h1m3 0h3m1 0h1m1 0h1m1 0h1m3 0h5m2 0h3m1 0h1m1 0h1m2 0h10m6 0h1m2 0h2m2 0h1m4 0h1m1 0h1m3 0h1m2 0h1m3 0h2m2 0h2m1 0h1m1 0h1m2 0h1m1 0h2m2 0h1m4 0h3m5 0h1m1 0h1m6 0h3m1 0h2m5 0h7m1 0h1m2 0h4m1 0h2m1 0h2m2 0h1m5 0h1m1 0h1m3 0h1m1 0h1M4 53.5h3m4 0h1m14 0h2m5 0h1m1 0h1m2 0h2m4 0h2m2 0h3m5 0h1m2 0h1m1 0h1m1 0h1m5 0h1m2 0h2m1 0h1m1 0h1m2 0h1m1 0h3m2 0h3m1 0h1m1 0h2m4 0h3m1 0h4m2 0h1m1 0h1m1 0h1m1 0h4m2 0h4m1 0h2m1 0h1m4 0h3m1 0h2m3 0h3m1 0h7m1 0h2m1 0h1m3 0h1m1 0h2m2 0h1m1 0h3m2 0h1m1 0h2m1 0h1M4 54.5h1m1 0h1m1 0h3m1 0h1m3 0h2m1 0h3m2 0h2m1 0h2m2 0h1m1 0h1m2 0h2m2 0h1m1 0h2m2 0h1m2 0h1m2 0h4m1 0h6m1 0h1m2 0h2m1 0h4m3 0h1m1 0h4m1 0h2m1 0h2m1 0h4m1 0h1m3 0h2m7 0h5m1 0h2m1 0h1m1 0h1m2 0h1m2 0h5m1 0h1m1 0h2m1 0h1m1 0h3m3 0h2m2 0h1m2 0h1m5 0h1m2 0h1m1 0h1m2 0h2m11 0h2M5 55.5h1m1 0h3m1 0h5m3 0h1m1 0h2m2 0h1m2 0h3m1 0h3m1 0h1m1 0h1m1 0h1m2 0h5m3 0h2m2 0h1m1 0h2m3 0h3m1 0h1m4 0h1m1 0h5m7 0h4m2 0h1m2 0h1m1 0h1m1 0h1m2 0h2m1 0h2m2 0h3m3 0h1m3 0h1m1 0h1m1 0h3m3 0h1m1 0h1m1 0h1m7 0h1m1 0h1m3 0h1m4 0h1m1 0h3m3 0h2m4 0h2m4 0h2m1 0h5M4 56.5h3m2 0h3m5 0h1m1 0h1m3 0h1m2 0h2m7 0h1m2 0h2m1 0h3m1 0h1m1 0h1m6 0h1m1 0h1m5 0h3m1 0h2m2 0h1m1 0h2m3 0h2m1 0h5m1 0h1m2 0h1m2 0h4m1 0h1m1 0h2m8 0h1m2 0h2m11 0h1m2 0h3m1 0h1m4 0h1m1 0h1m1 0h2m2 0h3m1 0h4m2 0h6m1 0h1m1 0h1m2 0h4m1 0h2m5 0h2M5 57.5h4m7 0h3m1 0h1m1 0h2m1 0h6m1 0h2m1 0h2m5 0h3m1 0h1m1 0h1m1 0h1m3 0h1m2 0h2m2 0h1m7 0h2m2 0h2m1 0h2m4 0h2m1 0h1m4 0h3m1 0h1m1 0h2m2 0h1m4 0h3m5 0h1m1 0h2m1 0h1m1 0h1m1 0h6m1 0h2m2 0h2m1 0h1m1 0h1m4 0h1m1 0h1m1 0h6m2 0h5m1 0h5m2 0h1m2 0h1m1 0h1m6 0h1M4 58.5h1m2 0h1m1 0h3m2 0h1m1 0h1m1 0h1m1 0h1m1 0h4m2 0h2m1 0h3m2 0h2m1 0h1m1 0h1m1 0h1m1 0h1m4 0h3m4 0h3m2 0h4m1 0h4m1 0h2m1 0h1m1 0h1m1 0h5m7 0h2m2 0h1m2 0h1m2 0h2m4 0h2m1 0h1m1 0h3m1 0h1m3 0h1m1 0h1m1 0h1m3 0h4m2 0h1m1 0h3m3 0h1m5 0h2m1 0h1m2 0h2m2 0h1m1 0h1m5 0h1m5 0h1m5 0h2M5 59.5h1m1 0h1m1 0h1m1 0h2m2 0h2m2 0h1m1 0h1m3 0h1m1 0h2m1 0h1m2 0h1m1 0h4m2 0h1m3 0h2m1 0h1m2 0h3m2 0h3m1 0h1m3 0h2m5 0h1m1 0h4m1 0h2m5 0h1m1 0h2m1 0h1m3 0h1m1 0h2m2 0h4m3 0h4m2 0h2m3 0h1m1 0h1m4 0h9m2 0h2m2 0h1m1 0h1m1 0h5m2 0h2m1 0h1m1 0h2m7 0h4m2 0h1m1 0h4m1 0h2M4 60.5h2m1 0h6m3 0h2m3 0h1m2 0h1m1 0h1m1 0h3m1 0h5m2 0h3m1 0h1m1 0h1m1 0h2m1 0h2m1 0h3m3 0h8m7 0h1m1 0h8m4 0h6m4 0h4m3 0h3m1 0h2m1 0h1m3 0h5m7 0h1m1 0h1m1 0h2m6 0h9m1 0h1m2 0h1m1 0h2m1 0h2m2 0h3m6 0h7m1 0h1M4 61.5h1m2 0h2m3 0h1m1 0h4m2 0h2m1 0h1m2 0h2m4 0h1m3 0h1m2 0h1m3 0h3m2 0h3m2 0h2m1 0h1m3 0h1m3 0h1m1 0h1m1 0h1m1 0h1m1 0h4m4 0h1m1 0h1m4 0h2m3 0h1m1 0h1m2 0h1m3 0h1m1 0h1m2 0h1m1 0h1m2 0h3m2 0h1m3 0h1m1 0h1m1 0h3m2 0h1m3 0h2m1 0h4m1 0h1m2 0h1m3 0h1m2 0h2m3 0h3m2 0h1m2 0h1m1 0h1m1 0h1m3 0h1m3 0h2m2 0h1M6 62.5h3m1 0h1m1 0h1m1 0h2m3 0h2m1 0h3m3 0h5m1 0h1m1 0h4m1 0h1m5 0h1m2 0h1m1 0h1m1 0h1m2 0h1m1 0h2m1 0h1m1 0h1m2 0h4m1 0h2m2 0h2m2 0h3m1 0h2m1 0h2m1 0h1m1 0h2m1 0h1m2 0h2m2 0h1m2 0h1m1 0h1m3 0h2m1 0h3m1 0h1m1 0h2m1 0h4m2 0h1m2 0h3m3 0h1m2 0h1m1 0h2m1 0h1m1 0h1m1 0h1m3 0h1m2 0h1m2 0h1m2 0h1m1 0h1m5 0h2m1 0h1m1 0h1M5 63.5h1m1 0h2m3 0h1m1 0h1m2 0h1m2 0h2m5 0h1m1 0h1m2 0h1m3 0h4m3 0h1m2 0h1m1 0h2m7 0h2m1 0h1m3 0h1m1 0h2m5 0h3m2 0h2m3 0h1m1 0h2m1 0h1m3 0h7m3 0h5m1 0h1m1 0h1m3 0h1m1 0h1m3 0h2m1 0h1m5 0h3m1 0h1m2 0h1m2 0h1m4 0h1m3 0h2m1 0h2m1 0h1m4 0h1m6 0h2m1 0h1m1 0h2m3 0h4M5 64.5h8m4 0h3m1 0h1m1 0h3m1 0h1m2 0h13m1 0h2m1 0h1m2 0h1m1 0h1m1 0h1m4 0h7m1 0h2m5 0h1m2 0h3m1 0h2m1 0h3m1 0h5m2 0h1m2 0h1m1 0h1m5 0h1m2 0h1m1 0h2m1 0h8m3 0h1m2 0h3m1 0h2m3 0h1m1 0h2m1 0h1m1 0h5m1 0h2m4 0h3m1 0h3m2 0h1m2 0h3m1 0h6m1 0h1M4 65.5h1m1 0h2m1 0h1m2 0h1m1 0h1m2 0h2m1 0h1m3 0h5m2 0h1m2 0h2m1 0h1m2 0h1m5 0h3m1 0h1m2 0h2m1 0h2m3 0h1m1 0h1m1 0h1m1 0h1m1 0h2m1 0h4m4 0h3m1 0h2m1 0h1m3 0h1m1 0h3m1 0h1m1 0h2m5 0h1m1 0h1m6 0h3m1 0h1m1 0h4m2 0h1m1 0h1m1 0h1m1 0h2m1 0h1m1 0h1m2 0h1m1 0h1m2 0h1m3 0h1m1 0h8m1 0h1m1 0h4m1 0h2m1 0h1m3 0h2m1 0h3M4 66.5h1m2 0h1m2 0h1m1 0h3m2 0h1m5 0h1m1 0h2m1 0h2m2 0h1m3 0h2m2 0h1m1 0h1m2 0h2m2 0h1m2 0h2m1 0h1m2 0h1m2 0h1m3 0h1m4 0h3m7 0h1m1 0h4m2 0h1m1 0h1m5 0h1m1 0h7m2 0h2m2 0h2m1 0h1m1 0h1m1 0h1m3 0h1m2 0h1m2 0h2m1 0h4m2 0h2m3 0h4m1 0h3m1 0h1m2 0h1m3 0h1m1 0h4m1 0h3m1 0h1m4 0h1m2 0h1m1 0h1M5 67.5h3m3 0h1m1 0h1m1 0h2m1 0h1m2 0h1m1 0h2m2 0h1m1 0h3m1 0h1m6 0h2m1 0h1m2 0h1m1 0h1m2 0h1m6 0h1m1 0h1m1 0h4m1 0h1m1 0h1m1 0h1m2 0h6m5 0h2m2 0h6m1 0h1m1 0h1m3 0h3m3 0h1m1 0h1m1 0h2m1 0h1m1 0h4m1 0h2m3 0h1m2 0h1m1 0h2m2 0h1m3 0h2m1 0h3m1 0h1m5 0h2m5 0h1m2 0h1m2 0h1m2 0h1m2 0h2m1 0h1m1 0h2M4 68.5h1m1 0h2m2 0h1m7 0h1m5 0h2m1 0h1m1 0h2m1 0h1m1 0h2m1 0h1m1 0h1m2 0h1m1 0h3m3 0h1m1 0h1m1 0h1m2 0h1m1 0h3m1 0h1m2 0h1m4 0h2m1 0h1m1 0h4m1 0h1m1 0h1m1 0h1m2 0h1m2 0h1m1 0h2m2 0h1m2 0h3m2 0h3m1 0h1m1 0h2m1 0h5m5 0h2m1 0h4m1 0h2m1 0h1m1 0h1m2 0h3m3 0h3m1 0h1m1 0h1m4 0h3m2 0h3m2 0h6m1 0h1m1 0h2m2 0h1M4 69.5h1m1 0h3m6 0h2m2 0h2m3 0h4m2 0h2m4 0h3m2 0h1m2 0h2m1 0h5m1 0h5m7 0h1m1 0h1m2 0h4m1 0h1m1 0h1m2 0h1m3 0h1m1 0h1m4 0h2m1 0h1m6 0h1m1 0h1m2 0h2m1 0h1m1 0h1m4 0h1m2 0h1m3 0h5m5 0h7m3 0h1m2 0h1m3 0h5m1 0h3m2 0h6m1 0h3m2 0h2m2 0h2m1 0h1M4 70.5h2m2 0h1m1 0h4m1 0h3m2 0h1m3 0h2m4 0h1m1 0h3m3 0h4m1 0h1m2 0h1m5 0h1m1 0h1m3 0h4m1 0h1m1 0h1m1 0h2m1 0h4m3 0h1m2 0h1m1 0h1m1 0h1m2 0h5m4 0h1m1 0h3m1 0h1m1 0h2m2 0h1m1 0h1m3 0h3m6 0h1m1 0h2m4 0h1m3 0h2m1 0h2m1 0h6m1 0h4m2 0h1m2 0h2m1 0h2m12 0h1m2 0h3M4 71.5h1m1 0h1m2 0h1m3 0h1m1 0h2m4 0h1m1 0h1m1 0h1m1 0h1m2 0h1m1 0h1m2 0h1m2 0h2m5 0h2m2 0h1m1 0h5m1 0h2m1 0h5m1 0h1m2 0h1m4 0h1m1 0h2m1 0h1m5 0h2m1 0h1m2 0h1m2 0h1m1 0h2m1 0h1m1 0h4m1 0h3m1 0h1m2 0h3m1 0h3m6 0h5m5 0h2m1 0h1m1 0h2m1 0h2m1 0h2m5 0h4m1 0h2m2 0h1m1 0h3m1 0h1m2 0h1m4 0h2m1 0h1M4 72.5h4m2 0h5m1 0h2m8 0h2m1 0h2m1 0h1m1 0h2m1 0h1m1 0h1m2 0h1m3 0h1m1 0h3m4 0h3m1 0h3m2 0h6m1 0h2m1 0h3m2 0h1m2 0h2m4 0h2m10 0h1m2 0h1m1 0h1m5 0h5m2 0h3m2 0h1m4 0h1m1 0h1m1 0h2m5 0h2m1 0h2m1 0h2m1 0h6m3 0h2m3 0h1m6 0h4m1 0h1m1 0h1m2 0h2M7 73.5h2m2 0h1m2 0h1m1 0h2m1 0h3m4 0h1m2 0h1m3 0h1m3 0h3m1 0h6m1 0h2m3 0h2m1 0h2m10 0h1m1 0h1m1 0h2m1 0h3m2 0h5m2 0h1m1 0h1m1 0h1m2 0h2m1 0h1m1 0h2m4 0h2m2 0h1m1 0h3m8 0h1m1 0h1m1 0h1m6 0h2m1 0h1m1 0h1m2 0h1m2 0h3m2 0h1m1 0h4m2 0h2m3 0h1m1 0h2m1 0h1m1 0h2m1 0h1m1 0h4m1 0h2M7 74.5h2m1 0h3m1 0h3m2 0h2m1 0h1m3 0h1m3 0h2m2 0h2m2 0h2m2 0h1m3 0h1m2 0h2m1 0h4m2 0h2m3 0h3m1 0h4m1 0h1m2 0h1m4 0h1m1 0h1m1 0h2m2 0h3m1 0h2m1 0h1m4 0h5m5 0h3m1 0h3m2 0h2m1 0h1m1 0h2m3 0h1m1 0h1m1 0h2m1 0h1m1 0h1m1 0h2m6 0h1m6 0h1m2 0h3m5 0h2m1 0h3m1 0h3m2 0h2M4 75.5h1m1 0h3m2 0h1m3 0h3m2 0h1m1 0h2m2 0h1m5 0h1m4 0h1m1 0h3m1 0h1m1 0h3m3 0h3m2 0h3m2 0h4m1 0h2m5 0h2m1 0h1m1 0h1m2 0h1m1 0h1m2 0h1m2 0h6m1 0h1m1 0h2m1 0h2m1 0h2m2 0h3m2 0h2m4 0h3m1 0h1m3 0h1m1 0h2m4 0h3m5 0h3m3 0h1m1 0h1m2 0h4m2 0h1m4 0h2m2 0h1m5 0h1m2 0h3M8 76.5h1m1 0h3m1 0h1m1 0h2m2 0h1m2 0h3m9 0h1m1 0h3m2 0h1m1 0h1m4 0h4m1 0h2m4 0h3m1 0h1m1 0h1m2 0h3m1 0h1m1 0h2m1 0h1m2 0h1m4 0h1m1 0h1m1 0h2m1 0h1m1 0h1m2 0h1m1 0h1m11 0h1m2 0h1m2 0h3m7 0h1m1 0h1m1 0h2m5 0h2m1 0h2m1 0h2m1 0h1m1 0h1m1 0h1m2 0h2m1 0h1m2 0h3m3 0h11M5 77.5h1m1 0h3m1 0h1m2 0h1m1 0h1m1 0h1m4 0h2m1 0h2m2 0h4m1 0h2m1 0h1m1 0h1m3 0h3m1 0h1m2 0h1m2 0h1m1 0h2m1 0h1m1 0h3m5 0h6m1 0h4m1 0h5m2 0h1m2 0h2m1 0h1m2 0h1m2 0h2m3 0h1m1 0h1m1 0h1m1 0h3m2 0h2m4 0h3m1 0h2m1 0h1m1 0h1m2 0h1m1 0h1m1 0h2m3 0h1m3 0h1m3 0h4m1 0h1m1 0h4m1 0h7m1 0h4m1 0h1M6 78.5h2m2 0h3m2 0h1m1 0h1m2 0h2m1 0h2m1 0h1m1 0h2m3 0h1m3 0h1m4 0h2m1 0h2m2 0h4m1 0h2m1 0h2m1 0h1m4 0h1m2 0h1m1 0h2m1 0h1m3 0h1m1 0h4m1 0h2m1 0h5m3 0h4m4 0h1m2 0h2m1 0h5m1 0h2m1 0h4m4 0h5m1 0h3m2 0h3m5 0h1m2 0h1m1 0h2m2 0h1m4 0h2m1 0h1m4 0h1m1 0h4m4 0h1m1 0h1M4 79.5h1m2 0h3m1 0h1m1 0h2m2 0h1m1 0h1m1 0h2m1 0h1m1 0h1m3 0h1m2 0h2m1 0h5m5 0h2m5 0h1m2 0h1m1 0h3m1 0h1m1 0h1m6 0h1m1 0h2m1 0h4m2 0h2m1 0h2m1 0h1m1 0h4m1 0h1m1 0h1m1 0h1m2 0h1m1 0h2m2 0h2m1 0h2m4 0h1m5 0h1m1 0h1m1 0h6m2 0h1m1 0h1m1 0h2m2 0h2m2 0h3m4 0h3m2 0h1m6 0h1m2 0h1m1 0h1m3 0h1m2 0h3M5 80.5h2m1 0h4m3 0h1m2 0h1m3 0h1m1 0h2m1 0h3m1 0h2m4 0h1m2 0h1m1 0h1m1 0h2m3 0h3m1 0h1m1 0h2m5 0h3m2 0h1m1 0h2m4 0h5m1 0h1m3 0h2m1 0h1m1 0h2m3 0h1m1 0h1m1 0h2m1 0h1m3 0h1m2 0h1m2 0h2m1 0h2m1 0h3m4 0h1m1 0h2m1 0h4m3 0h1m1 0h2m1 0h2m1 0h2m1 0h1m1 0h1m5 0h1m2 0h2m1 0h1m2 0h1m1 0h6m1 0h1m5 0h1M4 81.5h1m1 0h2m3 0h2m1 0h1m1 0h1m1 0h1m3 0h1m1 0h3m1 0h1m1 0h2m3 0h1m1 0h1m6 0h6m1 0h1m1 0h1m1 0h5m1 0h1m1 0h2m1 0h1m1 0h1m1 0h1m4 0h2m1 0h3m1 0h3m1 0h1m2 0h1m4 0h1m2 0h1m2 0h1m2 0h1m1 0h5m1 0h2m3 0h1m6 0h2m1 0h2m5 0h2m1 0h1m1 0h2m1 0h1m2 0h1m2 0h1m1 0h1m1 0h2m3 0h1m1 0h1m2 0h1m1 0h8m3 0h4m1 0h2M6 82.5h1m2 0h2m1 0h2m1 0h4m2 0h1m2 0h1m3 0h4m2 0h3m1 0h1m3 0h2m2 0h1m4 0h2m2 0h1m1 0h2m9 0h1m1 0h3m3 0h2m1 0h4m1 0h1m3 0h1m1 0h1m1 0h2m1 0h5m1 0h2m1 0h1m2 0h1m1 0h2m1 0h2m1 0h5m4 0h1m1 0h2m1 0h1m2 0h1m1 0h3m1 0h2m1 0h3m2 0h1m1 0h2m1 0h1m6 0h1m1 0h2m1 0h1m1 0h2m6 0h2m3 0h2M4 83.5h1m3 0h1m2 0h2m4 0h4m1 0h2m1 0h2m1 0h1m4 0h2m4 0h1m6 0h1m2 0h1m2 0h2m4 0h3m3 0h4m6 0h3m1 0h1m2 0h3m2 0h1m2 0h6m1 0h1m1 0h2m3 0h1m1 0h1m2 0h2m3 0h1m5 0h1m3 0h3m3 0h3m3 0h3m1 0h2m1 0h1m1 0h1m2 0h1m6 0h1m5 0h1m4 0h3m5 0h1m3 0h2m1 0h1M5 84.5h2m1 0h1m1 0h1m5 0h1m2 0h4m2 0h1m2 0h2m1 0h3m1 0h1m2 0h1m2 0h2m4 0h5m2 0h2m4 0h3m1 0h3m2 0h3m1 0h2m2 0h1m1 0h1m1 0h2m2 0h1m1 0h1m6 0h1m2 0h1m2 0h2m2 0h1m7 0h1m2 0h2m1 0h1m6 0h1m2 0h1m1 0h1m4 0h1m1 0h1m1 0h4m2 0h2m1 0h1m1 0h3m3 0h5m1 0h1m1 0h1m2 0h1m4 0h2m1 0h1m3 0h2M4 85.5h2m8 0h3m1 0h4m1 0h3m1 0h4m1 0h2m6 0h2m2 0h3m2 0h1m3 0h2m1 0h1m1 0h1m2 0h1m1 0h1m3 0h1m1 0h1m4 0h1m2 0h1m1 0h4m1 0h1m4 0h1m1 0h2m1 0h1m5 0h1m2 0h4m1 0h1m3 0h1m2 0h2m2 0h1m1 0h2m1 0h2m5 0h1m1 0h2m1 0h1m1 0h2m3 0h1m2 0h12m3 0h4m1 0h2m1 0h4m1 0h3m1 0h1m1 0h1M4 86.5h1m5 0h1m1 0h1m1 0h1m1 0h2m1 0h4m4 0h1m6 0h3m3 0h2m5 0h1m1 0h1m1 0h3m1 0h1m2 0h2m7 0h2m1 0h2m7 0h7m1 0h2m1 0h1m1 0h1m2 0h2m1 0h1m3 0h1m1 0h2m2 0h1m1 0h1m3 0h5m3 0h6m1 0h1m2 0h1m1 0h3m2 0h1m4 0h2m1 0h3m1 0h1m1 0h2m5 0h3m3 0h2m1 0h1m1 0h1m1 0h3m3 0h1M4 87.5h2m1 0h1m1 0h1m3 0h1m1 0h1m2 0h2m1 0h5m1 0h1m1 0h3m2 0h1m1 0h2m5 0h7m1 0h2m5 0h1m1 0h8m3 0h1m1 0h2m1 0h1m1 0h2m2 0h1m2 0h3m1 0h3m1 0h1m1 0h1m2 0h2m2 0h4m2 0h1m1 0h1m6 0h1m2 0h1m1 0h3m3 0h1m2 0h3m1 0h3m3 0h2m1 0h1m3 0h2m2 0h1m1 0h1m4 0h3m3 0h2m6 0h1m4 0h1m1 0h1M4 88.5h1m2 0h10m2 0h2m1 0h1m1 0h1m1 0h11m1 0h1m2 0h2m1 0h1m2 0h1m1 0h4m1 0h1m5 0h5m1 0h1m2 0h1m1 0h1m2 0h1m2 0h7m1 0h8m4 0h2m1 0h1m6 0h1m4 0h9m6 0h2m1 0h1m1 0h2m3 0h1m1 0h2m1 0h1m1 0h5m3 0h1m2 0h3m1 0h4m1 0h1m2 0h2m3 0h6M7 89.5h2m3 0h2m1 0h2m1 0h2m2 0h1m4 0h1m3 0h2m3 0h2m2 0h1m1 0h2m1 0h1m2 0h1m3 0h9m3 0h2m4 0h3m2 0h1m2 0h2m3 0h2m1 0h1m1 0h1m3 0h4m1 0h1m1 0h2m2 0h1m1 0h5m2 0h2m1 0h2m3 0h1m1 0h5m4 0h1m2 0h5m5 0h1m3 0h1m1 0h5m1 0h1m4 0h2m1 0h2m1 0h2m3 0h1m3 0h1m3 0h1M5 90.5h1m1 0h2m1 0h1m1 0h1m1 0h1m1 0h7m3 0h4m2 0h1m1 0h1m1 0h1m2 0h4m3 0h2m2 0h2m2 0h1m2 0h2m1 0h1m1 0h1m1 0h1m2 0h7m1 0h1m3 0h2m1 0h1m1 0h2m2 0h1m1 0h1m1 0h1m4 0h2m1 0h1m1 0h1m5 0h1m1 0h1m2 0h2m1 0h1m1 0h1m1 0h1m1 0h1m2 0h1m1 0h1m1 0h1m2 0h2m1 0h6m1 0h1m1 0h1m1 0h1m1 0h2m1 0h1m2 0h1m2 0h5m1 0h1m1 0h1m6 0h1m1 0h1m1 0h2M4 91.5h1m1 0h3m3 0h1m5 0h2m1 0h1m1 0h1m2 0h2m1 0h1m1 0h2m3 0h3m1 0h1m5 0h1m1 0h2m3 0h1m1 0h1m2 0h1m1 0h1m3 0h1m1 0h1m3 0h1m2 0h2m1 0h1m1 0h2m1 0h1m4 0h3m3 0h3m1 0h2m1 0h1m1 0h4m2 0h5m1 0h2m1 0h1m3 0h2m1 0h1m2 0h3m1 0h2m6 0h1m1 0h3m1 0h1m3 0h2m1 0h1m2 0h1m1 0h1m2 0h2m3 0h4m1 0h1m1 0h2m3 0h1m1 0h2M6 92.5h1m1 0h6m6 0h2m1 0h2m2 0h1m1 0h1m2 0h5m4 0h2m1 0h2m1 0h5m2 0h1m1 0h1m2 0h6m3 0h1m1 0h1m2 0h5m4 0h1m3 0h1m1 0h7m3 0h1m1 0h1m1 0h2m1 0h2m5 0h2m2 0h5m7 0h1m1 0h1m1 0h1m7 0h1m1 0h1m1 0h5m1 0h4m1 0h4m2 0h4m2 0h2m1 0h8m2 0h1M4 93.5h2m2 0h1m4 0h1m6 0h1m1 0h2m1 0h1m2 0h1m2 0h1m3 0h2m2 0h1m1 0h2m4 0h3m5 0h2m2 0h1m1 0h3m2 0h1m1 0h3m3 0h1m1 0h2m3 0h2m1 0h2m2 0h2m4 0h2m3 0h1m1 0h1m2 0h6m2 0h1m4 0h2m1 0h5m1 0h2m1 0h1m1 0h1m2 0h3m1 0h1m2 0h1m4 0h4m1 0h6m1 0h1m4 0h3m1 0h2m1 0h3m1 0h1m1 0h1m1 0h1m1 0h1M7 94.5h1m2 0h1m4 0h1m1 0h1m1 0h3m1 0h1m2 0h3m1 0h1m1 0h2m1 0h3m2 0h1m2 0h1m3 0h1m1 0h1m1 0h2m1 0h2m1 0h1m2 0h2m2 0h1m3 0h1m1 0h1m1 0h1m2 0h1m3 0h1m2 0h4m1 0h2m2 0h1m1 0h1m1 0h1m2 0h1m2 0h5m3 0h2m1 0h4m1 0h1m6 0h3m4 0h2m1 0h3m1 0h6m3 0h1m3 0h1m3 0h1m4 0h2m1 0h1m6 0h5m1 0h4M4 95.5h2m1 0h1m3 0h1m1 0h3m4 0h2m2 0h1m2 0h1m1 0h5m1 0h1m1 0h1m3 0h1m4 0h2m1 0h1m1 0h2m3 0h1m1 0h1m2 0h1m4 0h2m1 0h3m1 0h4m1 0h1m2 0h1m4 0h1m1 0h7m1 0h1m2 0h1m2 0h4m1 0h4m2 0h1m1 0h1m1 0h1m1 0h2m2 0h1m4 0h3m1 0h2m1 0h1m1 0h1m2 0h1m1 0h1m5 0h1m3 0h1m1 0h2m1 0h1m5 0h1m1 0h2m1 0h2m8 0h1M4 96.5h3m1 0h3m3 0h1m1 0h2m1 0h1m1 0h1m2 0h1m1 0h1m2 0h3m1 0h2m3 0h1m3 0h2m3 0h2m1 0h2m1 0h2m2 0h1m2 0h3m1 0h4m1 0h3m2 0h1m1 0h4m1 0h3m1 0h1m3 0h2m3 0h1m2 0h1m2 0h1m2 0h1m3 0h1m1 0h1m2 0h2m3 0h3m1 0h1m3 0h1m1 0h2m1 0h1m1 0h2m1 0h1m3 0h4m2 0h1m1 0h5m4 0h7m1 0h2m4 0h1m6 0h1m2 0h1M4 97.5h1m1 0h1m1 0h1m2 0h1m1 0h1m1 0h5m1 0h3m1 0h1m1 0h2m1 0h1m2 0h2m1 0h1m1 0h2m1 0h4m3 0h1m5 0h1m1 0h1m5 0h1m1 0h1m1 0h1m1 0h4m1 0h1m1 0h1m2 0h1m1 0h1m1 0h1m3 0h1m1 0h1m5 0h2m4 0h2m1 0h4m1 0h2m8 0h5m1 0h1m1 0h1m4 0h1m2 0h1m1 0h1m1 0h1m3 0h2m1 0h4m1 0h1m1 0h3m2 0h2m2 0h1m1 0h5m2 0h1m2 0h3m2 0h1m1 0h1M4 98.5h2m2 0h1m1 0h4m3 0h2m1 0h3m4 0h1m1 0h3m1 0h1m2 0h2m1 0h2m2 0h1m1 0h1m6 0h2m1 0h1m2 0h1m1 0h2m3 0h1m1 0h2m1 0h1m1 0h1m4 0h4m1 0h1m1 0h1m4 0h1m5 0h3m1 0h1m2 0h1m1 0h1m2 0h5m2 0h2m5 0h1m1 0h2m1 0h2m1 0h1m2 0h2m1 0h2m1 0h3m2 0h1m1 0h3m1 0h3m3 0h1m4 0h1m1 0h2m2 0h2m1 0h1m1 0h2m3 0h1m1 0h2M4 99.5h3m1 0h1m2 0h1m2 0h2m1 0h1m1 0h2m1 0h1m1 0h2m1 0h1m1 0h2m1 0h3m4 0h3m1 0h1m1 0h2m1 0h2m1 0h2m2 0h1m1 0h4m2 0h1m2 0h2m8 0h1m4 0h1m3 0h4m1 0h1m1 0h2m1 0h2m5 0h3m1 0h1m1 0h1m1 0h1m1 0h4m1 0h7m1 0h2m1 0h1m4 0h3m1 0h3m1 0h2m1 0h1m3 0h2m1 0h1m2 0h1m1 0h2m1 0h2m5 0h1m5 0h2m4 0h3M4 100.5h1m3 0h1m1 0h1m3 0h1m5 0h1m1 0h1m2 0h1m5 0h2m6 0h1m3 0h1m5 0h2m1 0h1m1 0h1m1 0h1m3 0h5m1 0h1m2 0h3m2 0h7m2 0h1m1 0h1m1 0h2m2 0h2m1 0h1m3 0h4m1 0h1m1 0h2m3 0h3m1 0h1m3 0h1m1 0h1m7 0h3m1 0h2m5 0h2m1 0h1m1 0h1m2 0h2m1 0h3m3 0h4m2 0h1m1 0h1m2 0h4m9 0h1M7 101.5h3m3 0h7m3 0h1m1 0h3m2 0h2m1 0h1m2 0h2m1 0h6m1 0h1m2 0h3m2 0h1m1 0h2m1 0h1m1 0h1m2 0h1m4 0h1m1 0h1m2 0h1m5 0h1m1 0h1m1 0h1m8 0h4m2 0h1m3 0h4m4 0h2m3 0h1m1 0h1m1 0h8m3 0h1m1 0h2m1 0h3m5 0h1m1 0h2m1 0h1m2 0h1m3 0h1m1 0h1m4 0h3m1 0h5m1 0h3m1 0h1m2 0h1M5 102.5h2m1 0h1m1 0h1m1 0h2m2 0h5m1 0h2m1 0h1m1 0h1m1 0h1m1 0h1m1 0h1m6 0h1m4 0h3m1 0h1m2 0h1m4 0h2m1 0h4m1 0h1m1 0h2m1 0h3m4 0h1m2 0h1m1 0h1m1 0h2m3 0h1m5 0h10m3 0h4m2 0h2m1 0h1m1 0h1m1 0h2m4 0h2m3 0h3m1 0h1m1 0h1m2 0h1m1 0h1m2 0h2m1 0h1m3 0h2m2 0h1m2 0h1m1 0h2m3 0h1m1 0h1m4 0h3m1 0h1M5 103.5h1m1 0h1m3 0h4m1 0h2m2 0h1m2 0h1m4 0h1m1 0h1m1 0h1m3 0h2m1 0h1m3 0h2m1 0h1m2 0h1m1 0h3m4 0h4m2 0h1m1 0h1m2 0h1m4 0h5m4 0h1m4 0h2m5 0h5m1 0h5m2 0h3m2 0h1m1 0h3m1 0h1m3 0h1m2 0h1m1 0h3m3 0h1m2 0h2m3 0h1m1 0h3m1 0h2m1 0h2m1 0h2m5 0h1m3 0h2m2 0h1m3 0h2m3 0h2M7 104.5h1m2 0h1m1 0h5m2 0h1m2 0h3m1 0h2m1 0h4m4 0h1m3 0h3m4 0h4m2 0h2m4 0h4m2 0h2m1 0h1m4 0h1m1 0h1m1 0h2m1 0h1m2 0h2m4 0h5m4 0h2m1 0h1m4 0h1m1 0h1m1 0h2m2 0h1m4 0h1m2 0h1m1 0h1m1 0h2m1 0h1m1 0h2m6 0h3m1 0h1m2 0h1m2 0h1m1 0h1m2 0h1m1 0h3m2 0h1m2 0h1m1 0h1m2 0h1m1 0h2m3 0h1m1 0h2M4 105.5h3m1 0h2m1 0h6m2 0h1m1 0h1m1 0h1m2 0h2m1 0h3m2 0h1m2 0h1m4 0h3m3 0h3m5 0h1m1 0h1m6 0h2m1 0h9m2 0h6m1 0h1m1 0h1m5 0h1m2 0h1m2 0h1m2 0h1m1 0h3m3 0h2m3 0h5m1 0h3m1 0h1m7 0h3m1 0h2m1 0h1m5 0h3m1 0h2m1 0h3m4 0h5m2 0h1m1 0h1m1 0h1m1 0h4m1 0h1M4 106.5h2m1 0h2m1 0h2m1 0h1m5 0h1m2 0h1m5 0h1m2 0h3m2 0h1m3 0h3m3 0h1m3 0h3m1 0h1m4 0h1m2 0h2m3 0h4m1 0h1m6 0h4m2 0h1m3 0h1m1 0h2m2 0h2m1 0h2m1 0h2m4 0h4m3 0h2m7 0h1m1 0h6m2 0h5m5 0h5m2 0h1m2 0h2m2 0h1m2 0h2m1 0h1m2 0h2m3 0h1m1 0h1m1 0h2m2 0h1M4 107.5h2m3 0h1m2 0h1m1 0h3m1 0h7m2 0h1m1 0h2m2 0h1m1 0h3m2 0h2m1 0h1m1 0h3m1 0h1m2 0h2m2 0h1m1 0h4m1 0h1m1 0h3m5 0h4m1 0h1m4 0h1m1 0h3m2 0h1m1 0h1m1 0h2m7 0h3m1 0h3m3 0h1m1 0h6m1 0h1m1 0h1m1 0h1m1 0h1m1 0h2m1 0h1m1 0h1m4 0h3m1 0h2m2 0h2m1 0h2m1 0h2m1 0h1m2 0h1m4 0h2m5 0h2m1 0h1m1 0h3M4 108.5h1m2 0h1m2 0h1m5 0h3m1 0h2m3 0h1m2 0h1m1 0h4m2 0h2m1 0h1m2 0h1m1 0h3m1 0h4m2 0h1m1 0h2m2 0h5m1 0h1m2 0h1m1 0h1m1 0h7m1 0h1m3 0h1m1 0h1m1 0h4m1 0h2m1 0h1m1 0h2m1 0h1m3 0h1m4 0h3m6 0h2m3 0h1m1 0h4m1 0h2m1 0h1m1 0h1m1 0h2m1 0h1m1 0h1m3 0h1m1 0h1m1 0h2m1 0h1m1 0h4m1 0h1m4 0h1m2 0h1m1 0h1m2 0h1m3 0h2M7 109.5h1m1 0h1m1 0h1m2 0h1m2 0h1m1 0h3m2 0h3m1 0h1m1 0h1m3 0h2m1 0h8m1 0h3m1 0h2m2 0h1m1 0h1m1 0h1m1 0h1m3 0h2m1 0h1m1 0h2m1 0h1m2 0h1m4 0h1m1 0h3m1 0h1m2 0h1m1 0h1m1 0h3m3 0h2m2 0h1m2 0h2m4 0h2m2 0h3m1 0h7m2 0h1m1 0h1m1 0h2m1 0h1m2 0h1m3 0h1m1 0h2m2 0h1m1 0h2m3 0h1m4 0h1m2 0h2m1 0h2m2 0h1m1 0h2m2 0h1m1 0h2M5 110.5h1m3 0h4m2 0h1m2 0h6m3 0h1m3 0h1m2 0h3m2 0h1m3 0h1m1 0h2m2 0h1m2 0h2m1 0h1m1 0h1m5 0h2m2 0h1m2 0h1m1 0h1m4 0h1m1 0h1m1 0h4m6 0h4m2 0h6m1 0h2m2 0h1m1 0h3m1 0h2m3 0h1m3 0h1m1 0h2m3 0h2m1 0h1m3 0h1m5 0h1m1 0h2m2 0h1m4 0h1m2 0h1m2 0h4m1 0h2m2 0h4m5 0h1M4 111.5h1m1 0h1m4 0h6m1 0h2m1 0h3m2 0h1m2 0h1m1 0h1m1 0h2m2 0h3m1 0h1m4 0h2m3 0h2m3 0h4m1 0h1m4 0h1m2 0h1m3 0h2m1 0h1m1 0h1m1 0h1m4 0h2m1 0h3m1 0h1m1 0h1m1 0h2m3 0h1m1 0h4m3 0h1m3 0h1m1 0h2m2 0h1m3 0h2m2 0h1m2 0h3m1 0h1m5 0h1m3 0h1m2 0h1m2 0h4m5 0h2m4 0h4m2 0h1m4 0h3M5 112.5h1m4 0h3m1 0h2m2 0h1m1 0h3m3 0h1m3 0h2m1 0h1m1 0h2m8 0h1m3 0h1m1 0h1m1 0h2m1 0h1m3 0h3m1 0h2m2 0h4m1 0h10m3 0h3m1 0h4m3 0h4m4 0h3m1 0h2m1 0h3m1 0h1m1 0h4m1 0h1m1 0h1m1 0h2m1 0h2m1 0h1m3 0h1m2 0h3m2 0h1m2 0h1m1 0h2m1 0h1m3 0h2m3 0h1m5 0h5m2 0h1m3 0h1M5 113.5h3m1 0h1m2 0h1m3 0h1m1 0h4m4 0h1m1 0h1m2 0h3m1 0h1m4 0h1m4 0h1m2 0h2m1 0h1m3 0h2m3 0h2m4 0h1m3 0h3m2 0h3m2 0h2m1 0h2m3 0h4m2 0h2m1 0h1m1 0h3m3 0h2m1 0h1m3 0h1m4 0h2m1 0h5m1 0h2m3 0h1m1 0h7m3 0h1m1 0h2m1 0h1m2 0h4m1 0h1m1 0h2m4 0h1m3 0h2m2 0h1m1 0h1m1 0h2m2 0h1M5 114.5h6m5 0h3m1 0h1m3 0h3m1 0h1m1 0h1m7 0h1m1 0h2m4 0h1m2 0h2m1 0h4m1 0h2m3 0h2m1 0h1m2 0h1m1 0h2m8 0h1m1 0h2m11 0h1m2 0h4m2 0h2m1 0h5m1 0h4m5 0h1m2 0h1m1 0h3m1 0h1m1 0h3m1 0h1m1 0h1m2 0h2m2 0h1m4 0h1m1 0h2m2 0h1m2 0h1m1 0h2m2 0h2m2 0h3m1 0h3m1 0h2M5 115.5h2m2 0h1m3 0h1m3 0h1m1 0h3m1 0h3m2 0h1m2 0h3m1 0h1m2 0h1m1 0h1m2 0h1m1 0h2m1 0h1m4 0h1m1 0h1m2 0h2m5 0h1m1 0h1m6 0h1m1 0h1m1 0h1m4 0h1m1 0h1m3 0h3m1 0h1m1 0h3m3 0h1m2 0h2m2 0h4m2 0h7m2 0h5m1 0h4m4 0h1m2 0h1m3 0h5m4 0h3m3 0h1m3 0h1m2 0h2m1 0h1m3 0h1m1 0h1m2 0h1M4 116.5h1m1 0h1m1 0h5m3 0h4m1 0h4m3 0h1m1 0h8m1 0h1m1 0h1m1 0h1m1 0h1m1 0h4m1 0h2m6 0h5m1 0h2m1 0h1m1 0h1m4 0h4m1 0h1m1 0h2m1 0h1m1 0h5m1 0h2m2 0h4m1 0h1m1 0h2m3 0h1m1 0h2m2 0h5m6 0h2m1 0h4m2 0h2m2 0h1m1 0h1m1 0h5m1 0h4m1 0h1m2 0h3m1 0h3m2 0h4m1 0h6M5 117.5h1m2 0h1m3 0h1m4 0h2m1 0h5m1 0h2m1 0h4m3 0h3m1 0h2m2 0h2m1 0h2m1 0h2m1 0h4m2 0h2m3 0h1m2 0h2m1 0h1m4 0h3m2 0h1m3 0h3m1 0h1m3 0h3m2 0h1m8 0h1m5 0h1m2 0h2m3 0h1m1 0h1m1 0h1m1 0h2m5 0h6m2 0h1m1 0h2m3 0h3m1 0h2m2 0h2m3 0h4m2 0h2m1 0h1m1 0h1m3 0h1m1 0h1m1 0h1M6 118.5h1m1 0h1m1 0h1m1 0h2m3 0h2m2 0h2m1 0h3m2 0h1m2 0h1m1 0h1m1 0h2m3 0h1m3 0h2m2 0h2m1 0h2m1 0h1m1 0h4m1 0h1m1 0h1m2 0h2m1 0h1m1 0h2m1 0h1m3 0h2m1 0h4m2 0h1m1 0h1m1 0h5m1 0h1m1 0h1m1 0h3m2 0h2m1 0h2m2 0h1m1 0h1m1 0h1m1 0h3m2 0h1m2 0h2m1 0h1m1 0h4m5 0h3m1 0h1m1 0h1m1 0h1m7 0h4m4 0h2m3 0h2m1 0h1m1 0h1m2 0h1M8 119.5h1m3 0h1m1 0h3m2 0h1m1 0h1m1 0h3m3 0h1m1 0h2m3 0h2m2 0h1m3 0h1m1 0h2m2 0h1m2 0h1m1 0h6m3 0h1m1 0h2m1 0h1m3 0h2m1 0h4m5 0h4m3 0h1m1 0h1m3 0h1m2 0h1m1 0h3m2 0h1m1 0h1m4 0h2m3 0h1m2 0h3m1 0h2m1 0h4m1 0h2m1 0h1m5 0h1m3 0h1m2 0h1m1 0h3m3 0h2m5 0h1m4 0h2m3 0h1m1 0h1M4 120.5h2m1 0h10m2 0h2m1 0h1m1 0h1m3 0h3m1 0h5m2 0h1m2 0h4m3 0h1m2 0h3m1 0h1m3 0h5m2 0h1m1 0h1m4 0h1m1 0h1m2 0h1m1 0h1m4 0h1m1 0h8m1 0h1m2 0h4m2 0h1m2 0h2m1 0h1m1 0h8m5 0h4m1 0h1m2 0h1m1 0h1m2 0h1m1 0h9m2 0h1m3 0h2m1 0h3m1 0h1m3 0h1m2 0h7m1 0h2M4 121.5h1m10 0h2m4 0h2m1 0h1m1 0h1m1 0h1m1 0h1m1 0h2m1 0h2m1 0h2m2 0h4m2 0h1m4 0h1m1 0h1m2 0h11m3 0h1m2 0h1m1 0h1m1 0h2m1 0h3m3 0h1m2 0h2m1 0h1m2 0h1m2 0h2m1 0h2m1 0h1m1 0h2m1 0h2m2 0h1m2 0h1m2 0h6m6 0h2m1 0h1m1 0h1m4 0h1m3 0h1m1 0h3m2 0h1m1 0h1m2 0h1m2 0h3m2 0h2m1 0h4m2 0h1m1 0h2M6 122.5h1m1 0h7m1 0h3m1 0h1m3 0h4m1 0h1m5 0h2m2 0h1m1 0h2m2 0h2m5 0h1m4 0h3m8 0h6m1 0h2m3 0h3m1 0h2m4 0h2m1 0h4m1 0h1m3 0h1m2 0h1m1 0h4m1 0h5m1 0h3m1 0h4m1 0h1m6 0h1m1 0h5m1 0h1m1 0h3m2 0h1m5 0h1m1 0h2m1 0h3m3 0h2m1 0h3m2 0h2m1 0h3M8 123.5h2m1 0h1m1 0h1m1 0h1m1 0h1m4 0h6m3 0h3m2 0h2m1 0h2m2 0h1m1 0h2m1 0h1m2 0h3m1 0h1m2 0h7m1 0h2m3 0h1m2 0h6m3 0h1m1 0h5m2 0h6m1 0h1m1 0h2m1 0h1m1 0h1m1 0h1m1 0h1m1 0h1m2 0h2m4 0h1m3 0h1m2 0h1m1 0h1m1 0h2m1 0h1m1 0h1m2 0h2m2 0h1m2 0h2m2 0h1m1 0h3m1 0h1m2 0h2m3 0h3m5 0h1m1 0h2m1 0h1M5 124.5h1m1 0h1m1 0h6m1 0h1m1 0h1m4 0h5m5 0h2m1 0h4m2 0h1m1 0h1m4 0h4m1 0h1m1 0h5m5 0h3m1 0h1m1 0h8m1 0h1m1 0h1m1 0h2m2 0h3m5 0h1m2 0h1m1 0h2m1 0h3m3 0h2m1 0h2m1 0h1m1 0h2m4 0h1m2 0h5m7 0h1m1 0h1m1 0h1m2 0h2m1 0h1m1 0h8m2 0h5m1 0h1m1 0h2m8 0h1M9 125.5h1m2 0h1m2 0h1m2 0h1m1 0h1m1 0h1m1 0h2m1 0h1m2 0h3m2 0h1m7 0h4m1 0h1m1 0h1m2 0h1m1 0h11m1 0h1m2 0h4m1 0h1m1 0h4m1 0h1m2 0h2m1 0h5m1 0h1m2 0h1m2 0h5m1 0h3m3 0h1m4 0h4m2 0h5m1 0h2m2 0h6m4 0h1m1 0h1m1 0h3m5 0h2m4 0h2m1 0h1m3 0h1m1 0h3m2 0h6M9 126.5h5m2 0h1m1 0h1m1 0h1m2 0h1m1 0h2m2 0h1m1 0h1m1 0h2m1 0h8m1 0h1m6 0h2m4 0h1m2 0h2m1 0h1m3 0h1m1 0h3m6 0h4m1 0h2m1 0h2m1 0h1m4 0h2m1 0h1m6 0h1m3 0h2m1 0h1m1 0h3m1 0h3m1 0h3m4 0h4m1 0h1m1 0h3m1 0h8m5 0h1m3 0h1m1 0h3m1 0h1m2 0h2m1 0h1m2 0h3M6 127.5h1m2 0h1m4 0h3m8 0h1m1 0h3m1 0h2m1 0h2m1 0h1m1 0h2m2 0h2m1 0h1m1 0h1m3 0h1m5 0h2m1 0h1m1 0h1m2 0h2m1 0h1m3 0h7m1 0h1m4 0h6m1 0h1m2 0h1m1 0h1m2 0h2m1 0h1m1 0h1m1 0h2m4 0h3m4 0h1m1 0h3m1 0h1m1 0h2m1 0h5m1 0h2m1 0h3m2 0h1m2 0h1m3 0h2m1 0h2m3 0h1m1 0h1m2 0h1m1 0h1m2 0h2m2 0h2m1 0h2M4 128.5h1m2 0h1m2 0h6m1 0h5m1 0h1m1 0h3m1 0h3m5 0h2m3 0h3m2 0h3m1 0h2m1 0h1m1 0h2m1 0h1m4 0h3m7 0h1m1 0h6m1 0h2m2 0h2m3 0h3m5 0h1m4 0h3m4 0h4m1 0h2m4 0h2m5 0h1m1 0h1m2 0h1m3 0h2m1 0h1m1 0h1m2 0h3m1 0h2m4 0h2m1 0h1m1 0h1m1 0h1m4 0h2m8 0h1M4 129.5h1m3 0h2m5 0h5m1 0h6m4 0h3m1 0h2m1 0h1m2 0h1m1 0h2m3 0h3m2 0h1m2 0h1m1 0h1m1 0h5m1 0h2m1 0h5m6 0h6m2 0h4m1 0h2m1 0h1m3 0h2m2 0h1m1 0h1m2 0h1m2 0h1m4 0h2m1 0h5m1 0h1m2 0h1m3 0h4m1 0h2m8 0h1m1 0h4m1 0h2m1 0h1m2 0h1m1 0h2m3 0h5m7 0h1M5 130.5h1m1 0h4m4 0h3m1 0h1m1 0h4m1 0h1m5 0h1m7 0h2m3 0h1m6 0h4m1 0h3m1 0h2m2 0h1m2 0h3m1 0h1m2 0h1m1 0h1m1 0h4m1 0h1m2 0h1m4 0h3m1 0h3m1 0h1m1 0h1m1 0h2m1 0h2m4 0h3m2 0h1m2 0h1m2 0h1m1 0h6m1 0h2m2 0h2m4 0h1m1 0h3m1 0h1m1 0h1m2 0h1m2 0h1m2 0h1m2 0h1m1 0h1m4 0h1m1 0h1m1 0h4M6 131.5h4m2 0h3m1 0h3m1 0h2m1 0h1m6 0h3m2 0h7m1 0h4m1 0h1m2 0h2m5 0h1m2 0h1m4 0h1m6 0h2m1 0h3m2 0h3m2 0h4m1 0h3m2 0h1m1 0h1m3 0h3m6 0h4m1 0h2m1 0h1m1 0h7m1 0h3m3 0h1m2 0h1m2 0h2m1 0h4m3 0h1m1 0h4m2 0h1m1 0h1m1 0h1m2 0h4m1 0h1m1 0h2m1 0h1m1 0h1M5 132.5h1m2 0h1m1 0h4m1 0h4m2 0h1m5 0h3m1 0h2m2 0h2m1 0h2m1 0h1m3 0h1m1 0h4m3 0h1m1 0h2m1 0h2m2 0h1m1 0h4m3 0h3m1 0h1m3 0h1m5 0h1m3 0h1m1 0h1m1 0h2m2 0h1m1 0h1m2 0h1m1 0h5m1 0h2m12 0h1m2 0h3m1 0h1m6 0h6m3 0h3m3 0h1m1 0h1m3 0h3m2 0h1m4 0h1m4 0h1m1 0h1M4 133.5h2m2 0h1m2 0h2m2 0h1m2 0h1m1 0h3m1 0h2m1 0h4m1 0h1m2 0h1m1 0h1m1 0h1m2 0h2m1 0h1m2 0h1m1 0h1m2 0h5m1 0h4m1 0h1m1 0h1m1 0h1m1 0h1m2 0h1m3 0h1m1 0h2m1 0h2m1 0h2m2 0h1m1 0h4m1 0h2m1 0h2m2 0h1m2 0h1m1 0h2m1 0h2m2 0h10m1 0h2m1 0h1m3 0h4m1 0h2m8 0h3m1 0h3m1 0h1m1 0h1m3 0h3m1 0h1m1 0h2m1 0h2m2 0h2m3 0h1M5 134.5h1m2 0h3m2 0h1m2 0h1m1 0h1m2 0h4m2 0h1m9 0h1m1 0h1m1 0h1m4 0h2m1 0h4m4 0h2m2 0h1m1 0h2m2 0h4m1 0h2m5 0h2m1 0h2m5 0h3m3 0h4m2 0h3m1 0h1m1 0h4m1 0h3m3 0h1m1 0h3m1 0h2m3 0h1m1 0h1m5 0h1m1 0h1m1 0h1m1 0h1m5 0h1m4 0h1m5 0h1m1 0h2m2 0h1m4 0h5m1 0h2M6 135.5h4m4 0h2m1 0h2m2 0h1m1 0h3m1 0h1m1 0h1m5 0h1m4 0h1m2 0h1m1 0h3m1 0h1m3 0h1m3 0h2m2 0h2m3 0h1m6 0h2m1 0h1m1 0h2m3 0h1m4 0h2m3 0h1m2 0h1m2 0h2m3 0h1m2 0h2m1 0h1m2 0h1m1 0h2m6 0h1m1 0h2m1 0h4m1 0h1m1 0h1m3 0h2m3 0h1m1 0h3m4 0h3m1 0h1m1 0h3m1 0h1m2 0h1m1 0h1m2 0h1m1 0h1m1 0h2m1 0h2M5 136.5h2m1 0h3m1 0h1m3 0h1m1 0h1m3 0h1m2 0h1m2 0h1m1 0h1m1 0h1m1 0h1m2 0h3m2 0h1m1 0h1m2 0h5m2 0h1m1 0h1m1 0h3m4 0h2m1 0h2m1 0h2m1 0h2m1 0h1m1 0h1m3 0h1m2 0h3m1 0h5m3 0h1m1 0h2m1 0h1m1 0h3m1 0h6m3 0h1m1 0h2m1 0h1m1 0h1m1 0h2m1 0h1m1 0h1m2 0h1m1 0h1m1 0h4m1 0h2m1 0h4m2 0h2m1 0h1m1 0h3m1 0h3m2 0h2m1 0h2m2 0h2m3 0h2M4 137.5h1m1 0h4m4 0h1m3 0h5m1 0h1m1 0h3m1 0h1m1 0h1m1 0h1m1 0h1m2 0h7m1 0h2m1 0h1m2 0h3m4 0h2m2 0h5m1 0h2m4 0h1m1 0h1m4 0h2m2 0h4m1 0h1m1 0h2m1 0h1m1 0h2m2 0h6m3 0h1m2 0h1m1 0h2m1 0h8m1 0h1m5 0h4m4 0h1m1 0h1m2 0h1m2 0h2m3 0h2m3 0h4m3 0h1m3 0h1m2 0h1m2 0h1m1 0h1M8 138.5h3m2 0h1m1 0h5m4 0h3m1 0h1m1 0h1m1 0h9m1 0h1m2 0h3m1 0h2m1 0h1m3 0h4m3 0h3m1 0h2m1 0h4m1 0h1m1 0h1m1 0h2m1 0h1m1 0h1m4 0h1m3 0h1m2 0h3m1 0h1m1 0h1m4 0h3m1 0h1m2 0h1m1 0h1m1 0h3m1 0h3m1 0h3m1 0h2m1 0h2m4 0h1m6 0h1m2 0h1m1 0h1m1 0h2m2 0h2m1 0h1m2 0h1m1 0h1m3 0h1m1 0h2m1 0h2m1 0h1M4 139.5h1m1 0h2m4 0h2m1 0h1m1 0h5m2 0h1m7 0h1m1 0h2m3 0h1m1 0h2m3 0h1m1 0h1m2 0h3m1 0h2m1 0h2m3 0h1m2 0h1m2 0h1m1 0h1m2 0h1m1 0h2m7 0h2m1 0h1m2 0h1m1 0h1m1 0h4m2 0h4m2 0h5m2 0h2m3 0h1m1 0h1m2 0h2m1 0h1m1 0h3m3 0h1m1 0h1m2 0h1m1 0h1m4 0h2m5 0h2m1 0h1m1 0h2m3 0h1m1 0h1m5 0h1m1 0h5m1 0h1M4 140.5h1m1 0h3m1 0h2m1 0h2m1 0h1m3 0h3m1 0h1m1 0h1m1 0h1m2 0h2m1 0h1m2 0h1m1 0h1m3 0h1m3 0h2m2 0h4m1 0h1m2 0h3m5 0h1m4 0h1m2 0h3m2 0h1m6 0h2m1 0h1m1 0h1m7 0h2m4 0h2m1 0h1m2 0h4m2 0h1m4 0h1m6 0h1m1 0h2m5 0h2m1 0h1m1 0h5m1 0h1m1 0h1m3 0h3m1 0h1m1 0h1m1 0h1m2 0h1m1 0h2m2 0h3m1 0h1M4 141.5h4m3 0h1m1 0h1m2 0h2m2 0h2m4 0h4m3 0h1m2 0h3m4 0h2m1 0h2m1 0h1m3 0h4m3 0h6m1 0h2m1 0h3m4 0h2m3 0h1m1 0h1m2 0h1m2 0h1m1 0h1m1 0h1m1 0h2m7 0h2m1 0h2m1 0h3m1 0h6m3 0h1m1 0h1m4 0h1m1 0h6m9 0h5m1 0h6m3 0h4m1 0h1m3 0h1m2 0h1m1 0h2m1 0h1M5 142.5h2m1 0h1m1 0h1m1 0h2m3 0h7m1 0h2m4 0h1m2 0h2m2 0h1m2 0h1m1 0h1m1 0h2m2 0h2m1 0h1m5 0h2m2 0h1m1 0h1m3 0h6m1 0h2m2 0h2m1 0h1m1 0h2m5 0h1m5 0h3m2 0h1m1 0h1m2 0h6m1 0h1m1 0h3m6 0h3m3 0h1m1 0h3m1 0h1m1 0h1m1 0h3m1 0h3m5 0h1m1 0h1m3 0h5m1 0h3m3 0h6m1 0h2M5 143.5h1m1 0h1m1 0h1m1 0h1m1 0h1m1 0h4m8 0h2m1 0h5m2 0h1m2 0h1m2 0h1m2 0h2m1 0h1m1 0h1m3 0h1m2 0h2m1 0h3m1 0h1m1 0h1m1 0h2m2 0h4m1 0h1m6 0h2m1 0h2m2 0h3m1 0h1m1 0h2m1 0h2m2 0h2m1 0h1m1 0h2m3 0h3m1 0h1m2 0h2m1 0h1m2 0h2m4 0h5m1 0h1m1 0h3m1 0h2m4 0h3m2 0h1m2 0h2m1 0h1m2 0h3m4 0h1m3 0h2M4 144.5h1m3 0h5m1 0h2m1 0h1m1 0h2m6 0h1m3 0h6m1 0h1m4 0h1m1 0h1m4 0h5m1 0h1m2 0h6m1 0h3m5 0h1m4 0h2m1 0h1m1 0h1m3 0h5m1 0h1m4 0h2m4 0h2m2 0h1m1 0h3m1 0h6m2 0h1m1 0h1m1 0h2m1 0h4m1 0h1m1 0h1m1 0h4m1 0h7m2 0h1m1 0h2m1 0h2m2 0h4m2 0h1m1 0h8m1 0h2M6 145.5h3m3 0h2m3 0h3m1 0h2m1 0h2m1 0h1m2 0h3m3 0h2m3 0h2m1 0h1m3 0h1m1 0h1m4 0h2m1 0h1m1 0h1m3 0h4m1 0h1m1 0h5m4 0h1m2 0h6m3 0h4m1 0h1m1 0h1m1 0h1m1 0h1m2 0h1m4 0h2m2 0h2m3 0h3m1 0h3m4 0h1m1 0h4m1 0h2m1 0h1m1 0h2m3 0h3m1 0h1m2 0h4m2 0h2m1 0h1m1 0h3m2 0h2m3 0h3m1 0h1M6 146.5h3m1 0h1m1 0h1m3 0h3m3 0h1m5 0h5m1 0h1m1 0h2m5 0h1m1 0h1m1 0h1m1 0h2m1 0h1m2 0h1m1 0h1m1 0h2m1 0h1m1 0h1m2 0h4m1 0h1m1 0h1m5 0h1m1 0h1m1 0h1m2 0h2m1 0h1m1 0h1m3 0h3m2 0h1m2 0h1m2 0h1m1 0h2m3 0h1m1 0h1m1 0h1m1 0h1m1 0h1m1 0h2m3 0h1m3 0h1m2 0h1m4 0h2m1 0h1m1 0h1m1 0h2m4 0h1m5 0h1m2 0h1m8 0h1m1 0h1m1 0h1m1 0h2M5 147.5h4m3 0h1m4 0h1m1 0h2m2 0h1m1 0h8m3 0h1m1 0h1m3 0h2m2 0h4m1 0h3m1 0h1m2 0h3m3 0h1m1 0h2m1 0h1m3 0h1m2 0h4m3 0h1m3 0h2m3 0h2m2 0h3m2 0h1m1 0h1m2 0h1m1 0h1m1 0h2m2 0h3m3 0h4m2 0h3m1 0h3m1 0h1m7 0h1m1 0h1m3 0h1m2 0h1m2 0h1m1 0h1m2 0h2m2 0h1m2 0h1m5 0h1m3 0h5M6 148.5h1m1 0h6m1 0h1m4 0h2m3 0h1m3 0h2m1 0h6m1 0h1m2 0h4m1 0h1m1 0h3m1 0h5m1 0h7m1 0h1m1 0h1m1 0h1m2 0h1m1 0h2m2 0h1m1 0h2m4 0h5m1 0h1m2 0h1m2 0h1m1 0h1m2 0h3m4 0h2m1 0h6m6 0h4m1 0h1m2 0h1m3 0h2m1 0h1m1 0h7m6 0h2m2 0h2m1 0h1m2 0h10m3 0h1M5 149.5h1m2 0h2m2 0h1m1 0h1m1 0h1m1 0h1m1 0h1m1 0h1m2 0h1m2 0h1m2 0h5m1 0h1m3 0h5m2 0h1m1 0h1m4 0h3m2 0h1m2 0h1m3 0h2m2 0h3m3 0h1m1 0h9m3 0h2m1 0h1m4 0h3m1 0h1m1 0h5m1 0h2m5 0h1m4 0h2m1 0h2m1 0h3m4 0h4m4 0h2m1 0h11m1 0h1m2 0h3m1 0h1m1 0h1m1 0h1m1 0h1m4 0h4M4 150.5h1m1 0h3m1 0h1m3 0h3m1 0h2m3 0h2m4 0h1m2 0h2m1 0h2m1 0h1m2 0h3m1 0h2m4 0h2m2 0h1m1 0h1m4 0h1m1 0h2m1 0h4m1 0h1m4 0h1m2 0h1m1 0h1m1 0h2m2 0h1m1 0h4m2 0h4m2 0h1m4 0h1m2 0h1m1 0h1m1 0h1m1 0h1m5 0h1m2 0h2m2 0h2m3 0h3m1 0h7m2 0h1m3 0h1m2 0h1m2 0h1m2 0h1m4 0h2m5 0h1m4 0h2M12 151.5h1m1 0h6m5 0h1m2 0h2m1 0h1m2 0h1m2 0h1m4 0h2m1 0h3m1 0h1m1 0h1m1 0h1m1 0h1m2 0h2m2 0h3m1 0h2m5 0h1m1 0h2m1 0h2m1 0h3m1 0h3m1 0h1m4 0h6m2 0h1m1 0h3m1 0h1m1 0h1m4 0h1m2 0h4m1 0h1m1 0h5m1 0h2m7 0h2m1 0h1m1 0h3m1 0h1m1 0h5m1 0h1m1 0h3m1 0h1m1 0h2m4 0h1m2 0h1m2 0h2M4 152.5h5m1 0h1m1 0h1m1 0h7m1 0h2m2 0h1m1 0h1m2 0h1m4 0h2m4 0h1m4 0h1m2 0h1m2 0h1m1 0h2m2 0h4m1 0h5m2 0h1m1 0h1m1 0h1m3 0h1m2 0h6m3 0h1m3 0h1m2 0h1m1 0h1m2 0h1m1 0h3m1 0h1m1 0h3m1 0h3m1 0h1m5 0h1m2 0h1m1 0h1m1 0h2m5 0h1m1 0h2m3 0h1m3 0h2m1 0h1m1 0h1m2 0h7m3 0h1m3 0h1m2 0h2m3 0h1M4 153.5h1m1 0h2m1 0h1m1 0h2m2 0h1m1 0h3m3 0h1m1 0h1m4 0h1m1 0h1m1 0h1m4 0h1m2 0h1m1 0h3m1 0h1m1 0h2m2 0h5m1 0h1m1 0h1m3 0h1m1 0h1m1 0h2m1 0h3m1 0h2m2 0h1m1 0h2m2 0h1m2 0h1m1 0h1m1 0h2m1 0h1m1 0h3m4 0h1m4 0h3m1 0h1m1 0h2m3 0h6m6 0h3m1 0h1m4 0h1m1 0h1m1 0h2m3 0h5m1 0h2m2 0h1m1 0h2m2 0h2m1 0h1m1 0h3m1 0h1m2 0h1M5 154.5h1m3 0h2m4 0h6m1 0h1m2 0h1m1 0h1m5 0h1m2 0h1m1 0h3m1 0h2m2 0h2m2 0h4m1 0h1m4 0h2m2 0h2m2 0h3m1 0h2m1 0h1m1 0h1m1 0h2m1 0h1m1 0h2m3 0h1m8 0h3m1 0h2m3 0h1m5 0h2m1 0h1m1 0h1m2 0h1m1 0h1m6 0h1m3 0h2m3 0h1m1 0h4m2 0h1m1 0h3m1 0h2m2 0h1m2 0h1m2 0h1m8 0h2m1 0h1m1 0h1M4 155.5h2m5 0h1m2 0h2m4 0h1m2 0h5m1 0h1m1 0h1m2 0h2m1 0h2m2 0h2m1 0h1m1 0h1m2 0h1m1 0h2m4 0h2m1 0h1m1 0h3m1 0h1m4 0h1m1 0h2m1 0h1m1 0h1m4 0h1m1 0h2m1 0h2m6 0h2m5 0h2m1 0h3m2 0h2m1 0h2m1 0h6m2 0h4m3 0h2m2 0h2m2 0h9m2 0h2m1 0h2m5 0h1m3 0h2m1 0h1m2 0h2m1 0h2m1 0h3M4 156.5h4m2 0h4m3 0h3m1 0h1m2 0h2m2 0h4m1 0h1m5 0h6m3 0h3m1 0h1m1 0h2m3 0h1m1 0h1m7 0h3m2 0h1m6 0h2m4 0h3m1 0h1m2 0h2m1 0h1m2 0h1m4 0h2m2 0h1m1 0h5m3 0h1m1 0h1m3 0h1m2 0h1m1 0h2m8 0h1m1 0h1m1 0h2m3 0h3m4 0h4m1 0h2m7 0h1m1 0h5m2 0h2M4 157.5h1m7 0h1m1 0h2m1 0h1m5 0h2m1 0h1m3 0h3m1 0h1m2 0h1m6 0h3m1 0h2m1 0h1m1 0h1m1 0h4m1 0h1m5 0h2m1 0h2m2 0h1m2 0h2m1 0h1m1 0h4m2 0h4m2 0h5m5 0h4m1 0h2m2 0h2m1 0h3m1 0h1m1 0h2m1 0h1m1 0h2m3 0h1m1 0h2m1 0h1m1 0h2m1 0h1m2 0h2m2 0h6m2 0h4m1 0h5m1 0h3m2 0h1m1 0h1m2 0h1m2 0h1M5 158.5h1m3 0h2m1 0h1m1 0h1m2 0h2m1 0h1m1 0h3m1 0h2m1 0h1m2 0h1m3 0h1m1 0h3m1 0h2m2 0h1m2 0h2m1 0h1m5 0h2m1 0h1m1 0h2m2 0h1m2 0h1m1 0h1m4 0h1m1 0h4m2 0h1m3 0h4m3 0h3m1 0h1m1 0h1m1 0h2m4 0h1m3 0h1m2 0h2m1 0h2m1 0h1m1 0h2m2 0h1m4 0h1m5 0h1m1 0h1m2 0h1m1 0h2m2 0h1m1 0h2m2 0h1m2 0h1m1 0h1m3 0h1m3 0h1m1 0h1m2 0h1m1 0h3M5 159.5h1m1 0h3m1 0h1m1 0h1m1 0h1m1 0h1m1 0h2m3 0h2m1 0h1m1 0h2m2 0h4m1 0h2m1 0h3m1 0h2m1 0h2m5 0h1m1 0h3m1 0h1m1 0h2m1 0h1m4 0h1m1 0h1m2 0h4m1 0h1m1 0h4m3 0h1m2 0h4m1 0h2m3 0h2m8 0h1m1 0h2m1 0h1m1 0h3m1 0h2m1 0h4m3 0h1m1 0h1m1 0h1m3 0h3m1 0h4m1 0h2m1 0h2m1 0h1m1 0h2m3 0h4m3 0h1m2 0h1m1 0h1m1 0h1m1 0h1M5 160.5h1m3 0h2m3 0h1m8 0h6m1 0h1m3 0h1m1 0h1m1 0h2m1 0h2m1 0h2m1 0h5m1 0h2m1 0h1m1 0h2m1 0h1m2 0h3m2 0h1m4 0h2m1 0h1m1 0h2m3 0h3m1 0h2m1 0h1m2 0h2m4 0h2m5 0h1m3 0h5m7 0h3m1 0h4m1 0h1m2 0h1m3 0h4m1 0h3m2 0h2m2 0h1m1 0h1m2 0h3m1 0h2m3 0h2m1 0h1m1 0h2m2 0h2M6 161.5h2m3 0h2m4 0h5m8 0h1m1 0h1m1 0h1m1 0h3m2 0h1m2 0h1m3 0h2m2 0h5m1 0h1m4 0h2m1 0h1m1 0h2m1 0h1m1 0h4m3 0h1m1 0h4m1 0h4m1 0h3m4 0h3m1 0h1m1 0h2m1 0h2m8 0h1m2 0h4m1 0h1m4 0h1m1 0h2m1 0h3m5 0h1m3 0h3m1 0h2m5 0h1m4 0h1m3 0h3m2 0h1m1 0h1m2 0h1m1 0h1M4 162.5h3m2 0h3m1 0h1m1 0h1m1 0h1m2 0h1m1 0h1m7 0h4m1 0h1m3 0h1m2 0h2m5 0h4m1 0h1m2 0h2m1 0h2m1 0h3m1 0h4m1 0h1m2 0h2m2 0h2m1 0h4m2 0h1m1 0h5m1 0h4m2 0h1m4 0h5m1 0h2m5 0h1m1 0h4m2 0h1m3 0h2m1 0h1m1 0h1m1 0h1m1 0h1m1 0h1m1 0h1m1 0h2m1 0h1m3 0h2m4 0h1m2 0h1m1 0h2m4 0h1m5 0h1m1 0h1M4 163.5h1m1 0h1m1 0h1m2 0h4m2 0h1m1 0h4m3 0h2m5 0h2m1 0h1m2 0h6m1 0h1m1 0h2m2 0h2m1 0h1m2 0h1m1 0h2m2 0h1m1 0h1m6 0h2m1 0h1m1 0h2m3 0h1m1 0h2m6 0h1m2 0h2m3 0h1m1 0h2m3 0h2m4 0h2m2 0h1m1 0h2m2 0h1m1 0h3m1 0h1m1 0h6m2 0h1m1 0h6m3 0h1m1 0h3m1 0h1m1 0h3m1 0h1m1 0h5m1 0h4m1 0h5M4 164.5h1m2 0h1m2 0h3m2 0h1m1 0h1m1 0h1m2 0h1m1 0h2m2 0h9m2 0h4m1 0h2m1 0h1m2 0h2m4 0h1m2 0h2m1 0h2m1 0h3m2 0h1m2 0h1m1 0h2m3 0h1m2 0h1m2 0h1m1 0h1m4 0h1m1 0h1m1 0h1m1 0h3m3 0h1m3 0h4m6 0h1m1 0h1m6 0h1m1 0h4m5 0h4m2 0h2m3 0h4m1 0h5m1 0h1m2 0h7m4 0h3m2 0h1M6 165.5h1m2 0h1m1 0h2m1 0h1m1 0h2m2 0h1m3 0h5m5 0h1m3 0h1m4 0h3m1 0h3m1 0h1m4 0h1m1 0h1m1 0h2m2 0h2m2 0h3m1 0h3m1 0h1m2 0h1m1 0h2m1 0h1m2 0h1m2 0h1m1 0h3m5 0h1m2 0h4m1 0h2m5 0h1m1 0h1m1 0h1m2 0h6m6 0h5m4 0h2m1 0h10m2 0h1m3 0h3m3 0h1m1 0h1m1 0h2m1 0h1m1 0h2m1 0h1M4 166.5h2m1 0h1m1 0h4m2 0h3m1 0h1m2 0h1m2 0h4m5 0h2m2 0h1m2 0h1m1 0h1m3 0h1m1 0h2m1 0h1m1 0h2m1 0h2m1 0h5m2 0h1m2 0h1m1 0h1m6 0h2m1 0h1m1 0h2m2 0h2m1 0h3m1 0h2m2 0h2m1 0h1m4 0h5m2 0h1m1 0h4m3 0h2m1 0h1m9 0h2m3 0h1m1 0h1m7 0h1m1 0h3m1 0h2m1 0h1m1 0h2m5 0h1m2 0h1m5 0h1M4 167.5h1m8 0h1m3 0h2m2 0h1m2 0h1m2 0h7m2 0h1m1 0h2m1 0h2m2 0h1m1 0h3m1 0h3m4 0h2m2 0h1m1 0h1m1 0h1m1 0h1m2 0h1m1 0h2m1 0h1m1 0h2m6 0h1m2 0h2m5 0h2m1 0h2m2 0h2m2 0h3m1 0h1m2 0h2m1 0h2m1 0h1m1 0h1m2 0h1m1 0h2m1 0h2m1 0h1m1 0h1m3 0h3m1 0h1m1 0h3m1 0h1m1 0h1m1 0h2m2 0h1m1 0h3m1 0h1m1 0h2m1 0h2m1 0h6m1 0h1m1 0h1M4 168.5h2m2 0h5m2 0h3m3 0h1m1 0h3m1 0h2m2 0h1m1 0h1m2 0h1m2 0h1m1 0h4m1 0h1m1 0h1m1 0h3m1 0h2m1 0h1m1 0h1m1 0h3m1 0h1m1 0h3m2 0h2m1 0h2m1 0h2m1 0h1m1 0h2m8 0h2m3 0h4m1 0h1m3 0h1m3 0h2m2 0h2m4 0h1m1 0h3m1 0h2m1 0h1m1 0h1m2 0h1m4 0h3m3 0h1m3 0h1m1 0h2m1 0h6m1 0h1m3 0h1m3 0h1m1 0h2m2 0h1m2 0h2M6 169.5h1m2 0h1m1 0h2m2 0h2m3 0h1m2 0h2m1 0h2m6 0h1m1 0h1m1 0h1m1 0h3m1 0h1m2 0h2m1 0h1m4 0h4m1 0h2m1 0h4m1 0h4m1 0h2m2 0h4m6 0h2m1 0h1m3 0h1m4 0h1m5 0h2m2 0h1m3 0h1m4 0h1m1 0h5m1 0h2m3 0h1m2 0h1m1 0h1m1 0h2m3 0h1m4 0h2m1 0h3m1 0h4m2 0h2m1 0h1m1 0h1m1 0h1m1 0h2m1 0h1m1 0h1m1 0h2m1 0h1M4 170.5h3m2 0h2m1 0h2m1 0h1m3 0h1m1 0h1m3 0h2m3 0h1m1 0h1m1 0h1m1 0h1m1 0h3m1 0h2m1 0h2m2 0h1m2 0h2m3 0h1m1 0h1m1 0h5m1 0h5m1 0h1m5 0h5m1 0h1m4 0h1m1 0h1m2 0h1m1 0h2m3 0h1m1 0h1m1 0h3m1 0h2m1 0h2m1 0h3m2 0h1m2 0h5m5 0h5m2 0h1m2 0h1m2 0h3m1 0h1m1 0h3m1 0h1m1 0h2m1 0h1m2 0h1m1 0h1m1 0h1m1 0h3m3 0h3M7 171.5h1m3 0h2m2 0h1m2 0h2m1 0h3m3 0h4m2 0h2m2 0h2m1 0h1m2 0h2m1 0h1m4 0h2m2 0h1m2 0h2m2 0h2m2 0h2m3 0h1m2 0h6m3 0h1m1 0h2m1 0h4m2 0h1m1 0h1m1 0h2m3 0h7m4 0h2m2 0h3m1 0h1m3 0h1m4 0h1m1 0h2m1 0h1m3 0h3m1 0h3m4 0h5m1 0h1m3 0h1m1 0h1m1 0h4m2 0h1m3 0h1m2 0h2M5 172.5h1m1 0h1m1 0h2m1 0h1m3 0h4m1 0h1m1 0h3m1 0h3m2 0h6m1 0h3m1 0h1m1 0h1m1 0h7m2 0h1m3 0h8m9 0h3m2 0h2m2 0h1m1 0h5m1 0h2m1 0h2m1 0h1m1 0h2m1 0h2m2 0h1m1 0h2m1 0h1m1 0h5m6 0h2m1 0h1m1 0h1m2 0h1m1 0h1m2 0h1m1 0h1m1 0h7m3 0h1m2 0h3m2 0h5m1 0h3m1 0h6M12 173.5h1m7 0h1m1 0h1m2 0h3m1 0h1m1 0h2m3 0h1m3 0h5m2 0h3m6 0h1m1 0h3m3 0h1m4 0h7m3 0h4m4 0h2m3 0h1m1 0h1m1 0h1m1 0h2m5 0h2m1 0h2m6 0h1m3 0h1m1 0h1m1 0h1m1 0h1m4 0h1m1 0h6m2 0h1m1 0h2m3 0h5m8 0h1m1 0h2m3 0h5m3 0h1m1 0h1m1 0h1M4 174.5h7m1 0h2m1 0h1m2 0h5m1 0h3m3 0h3m1 0h1m1 0h1m1 0h1m1 0h1m1 0h1m3 0h2m3 0h5m1 0h2m1 0h1m1 0h1m1 0h1m2 0h1m1 0h3m1 0h1m1 0h1m1 0h1m1 0h2m1 0h1m1 0h2m1 0h2m1 0h1m1 0h2m1 0h3m3 0h2m7 0h1m1 0h1m1 0h1m1 0h1m1 0h1m1 0h2m1 0h2m1 0h3m1 0h3m1 0h1m2 0h5m1 0h2m1 0h1m1 0h3m3 0h2m1 0h2m1 0h3m2 0h1m5 0h2m1 0h1m1 0h1m1 0h2M4 175.5h1m5 0h1m2 0h1m4 0h7m3 0h3m1 0h1m3 0h1m1 0h2m2 0h1m3 0h1m5 0h2m1 0h1m1 0h4m3 0h3m4 0h1m2 0h1m1 0h1m1 0h1m2 0h1m3 0h2m1 0h1m3 0h1m1 0h1m1 0h1m1 0h1m3 0h3m1 0h1m1 0h1m1 0h1m3 0h3m3 0h3m1 0h1m3 0h1m3 0h1m3 0h1m3 0h1m3 0h1m3 0h2m1 0h1m1 0h2m2 0h1m5 0h1m2 0h2m1 0h1m1 0h2m3 0h1m1 0h1m1 0h1M4 176.5h1m1 0h3m1 0h1m1 0h2m1 0h1m2 0h1m1 0h2m6 0h1m3 0h6m3 0h1m1 0h2m2 0h2m1 0h1m2 0h2m1 0h1m3 0h5m2 0h1m1 0h1m1 0h1m2 0h1m1 0h1m2 0h1m3 0h1m1 0h2m1 0h5m1 0h1m2 0h1m1 0h2m1 0h1m2 0h3m1 0h1m1 0h3m2 0h6m3 0h1m1 0h2m1 0h1m1 0h2m3 0h1m1 0h4m1 0h7m1 0h4m1 0h2m1 0h3m1 0h2m1 0h10m2 0h2M4 177.5h1m1 0h3m1 0h1m1 0h5m1 0h1m2 0h1m3 0h3m1 0h3m2 0h5m1 0h1m1 0h1m1 0h2m1 0h2m4 0h1m1 0h2m1 0h4m2 0h5m1 0h1m2 0h1m1 0h1m1 0h2m3 0h1m1 0h2m2 0h1m2 0h1m1 0h2m5 0h1m2 0h2m1 0h1m5 0h1m2 0h1m1 0h1m1 0h1m1 0h2m1 0h1m2 0h1m3 0h1m2 0h6m1 0h1m2 0h3m2 0h2m2 0h1m2 0h4m1 0h4m3 0h3m3 0h3M4 178.5h1m1 0h3m1 0h1m1 0h1m1 0h1m5 0h4m1 0h2m2 0h1m1 0h1m1 0h2m3 0h2m3 0h1m1 0h2m5 0h4m1 0h3m5 0h1m1 0h2m1 0h1m1 0h1m6 0h2m1 0h1m1 0h2m3 0h2m1 0h1m1 0h2m1 0h3m2 0h1m2 0h3m1 0h1m2 0h1m1 0h4m2 0h1m1 0h1m2 0h1m1 0h3m1 0h1m2 0h2m1 0h3m1 0h1m4 0h5m3 0h2m4 0h2m3 0h2m2 0h1m2 0h2m1 0h1m1 0h1M4 179.5h1m5 0h1m1 0h2m1 0h5m1 0h1m1 0h2m2 0h1m2 0h1m1 0h2m1 0h4m6 0h2m2 0h1m2 0h1m5 0h2m3 0h2m1 0h2m1 0h1m3 0h4m1 0h2m5 0h2m2 0h4m1 0h1m1 0h3m4 0h3m1 0h1m2 0h1m1 0h5m1 0h3m3 0h1m2 0h2m1 0h1m1 0h2m1 0h1m3 0h6m3 0h2m4 0h4m2 0h2m3 0h3m4 0h1m2 0h2m1 0h1M4 180.5h7m1 0h1m2 0h1m1 0h1m1 0h1m2 0h1m1 0h1m4 0h1m4 0h1m3 0h1m2 0h1m1 0h2m2 0h2m1 0h1m3 0h4m1 0h1m2 0h2m1 0h2m4 0h2m2 0h1m3 0h1m3 0h1m4 0h1m1 0h2m1 0h2m5 0h1m2 0h1m3 0h1m1 0h1m1 0h1m2 0h5m1 0h2m1 0h1m1 0h1m2 0h4m5 0h1m1 0h2m1 0h1m1 0h1m1 0h1m1 0h1m1 0h1m1 0h2m3 0h3m1 0h2m1 0h9m1 0h1m1 0h1m2 0h1"/></svg>
