<?xml version="1.0" encoding="utf-8"?><!DOCTYPE svg PUBLIC "-//W3C//DTD SVG 1.1//EN" "http://www.w3.org/Graphics/SVG/1.1/DTD/svg11.dtd"><svg xmlns="http://www.w3.org/2000/svg" viewBox="0 0 113 113" shape-rendering="crispEdges"><path fill="#ffffff" d="M0 0h113v113H0z"/><path stroke="#000000" d="M4 4.5h7m7 0h2m1 0h1m1 0h1m1 0h3m7 0h2m5 0h1m1 0h4m2 0h1m1 0h1m1 0h1m2 0h1m2 0h2m1 0h3m2 0h4m2 0h3m2 0h1m1 0h1m1 0h4m1 0h1m3 0h1m1 0h1m1 0h1m1 0h1m3 0h7M4 5.5h1m5 0h1m1 0h4m1 0h2m1 0h1m3 0h1m1 0h2m3 0h4m8 0h4m1 0h1m4 0h1m2 0h6m5 0h2m1 0h3m4 0h1m1 0h4m1 0h1m7 0h1m1 0h3m1 0h1m3 0h1m5 0h1M4 6.5h1m1 0h3m1 0h1m3 0h3m1 0h3m3 0h2m2 0h1m1 0h1m4 0h4m1 0h1m1 0h1m6 0h4m1 0h1m2 0h1m1 0h1m1 0h4m1 0h2m5 0h4m1 0h1m4 0h1m3 0h4m7 0h2m2 0h1m1 0h3m1 0h1M4 7.5h1m1 0h3m1 0h1m1 0h3m1 0h1m1 0h1m1 0h1m5 0h1m1 0h4m1 0h1m2 0h1m3 0h2m1 0h1m1 0h1m3 0h2m1 0h4m1 0h1m3 0h2m1 0h1m1 0h1m3 0h2m2 0h3m1 0h1m1 0h1m4 0h2m1 0h2m5 0h1m4 0h1m1 0h1m1 0h3m1 0h1M4 8.5h1m1 0h3m1 0h1m5 0h5m1 0h1m1 0h1m1 0h8m1 0h2m7 0h1m1 0h1m1 0h1m2 0h6m3 0h2m1 0h1m5 0h3m1 0h12m6 0h2m1 0h1m1 0h2m1 0h2m1 0h1m1 0h3m1 0h1M4 9.5h1m5 0h1m1 0h1m2 0h1m1 0h5m2 0h1m2 0h2m3 0h3m1 0h2m1 0h1m4 0h3m1 0h1m2 0h2m3 0h3m1 0h2m1 0h1m3 0h1m2 0h1m1 0h2m2 0h1m3 0h1m1 0h1m1 0h2m5 0h2m1 0h3m2 0h1m2 0h1m5 0h1M4 10.5h7m1 0h1m1 0h1m1 0h1m1 0h1m1 0h1m1 0h1m1 0h1m1 0h1m1 0h1m1 0h1m1 0h1m1 0h1m1 0h1m1 0h1m1 0h1m1 0h1m1 0h1m1 0h1m1 0h1m1 0h1m1 0h1m1 0h1m1 0h1m1 0h1m1 0h1m1 0h1m1 0h1m1 0h1m1 0h1m1 0h1m1 0h1m1 0h1m1 0h1m1 0h1m1 0h1m1 0h1m1 0h1m1 0h1m1 0h1m1 0h1m1 0h1m1 0h1m1 0h1m1 0h1m1 0h1m1 0h7M13 11.5h1m1 0h2m3 0h1m3 0h1m1 0h3m3 0h1m2 0h1m2 0h3m1 0h2m3 0h1m1 0h4m3 0h1m2 0h1m1 0h4m1 0h1m4 0h1m2 0h1m1 0h1m3 0h2m4 0h6m3 0h1m1 0h2M4 12.5h5m1 0h4m1 0h1m2 0h1m2 0h1m1 0h2m2 0h7m3 0h1m1 0h3m1 0h1m1 0h1m1 0h1m3 0h9m1 0h1m1 0h1m2 0h4m2 0h1m2 0h7m1 0h1m1 0h1m2 0h1m1 0h1m1 0h2m1 0h1m1 0h1m1 0h3m1 0h1m1 0h1m1 0h1M6 13.5h1m1 0h2m1 0h1m1 0h1m2 0h1m1 0h3m3 0h1m2 0h2m4 0h3m2 0h3m7 0h1m2 0h2m1 0h1m3 0h2m1 0h2m1 0h1m1 0h2m2 0h3m1 0h4m2 0h1m1 0h1m1 0h2m1 0h2m4 0h1m2 0h5m1 0h3m3 0h1M9 14.5h2m2 0h2m2 0h1m2 0h2m5 0h3m4 0h2m4 0h1m3 0h1m1 0h3m2 0h1m1 0h1m1 0h4m1 0h1m4 0h1m2 0h1m1 0h1m1 0h1m2 0h1m1 0h1m2 0h3m1 0h2m3 0h1m2 0h3m1 0h2m1 0h1m1 0h1m4 0h1M5 15.5h1m1 0h1m1 0h1m4 0h1m1 0h1m2 0h1m3 0h4m1 0h4m1 0h1m1 0h1m2 0h2m1 0h3m2 0h2m1 0h3m1 0h3m1 0h1m3 0h2m1 0h1m1 0h2m1 0h1m3 0h4m1 0h1m7 0h5m6 0h2m2 0h1m4 0h1M8 16.5h1m1 0h3m1 0h7m3 0h2m3 0h2m5 0h2m4 0h2m2 0h2m1 0h2m2 0h3m4 0h1m1 0h3m1 0h3m1 0h1m7 0h1m2 0h1m6 0h4m1 0h1m2 0h1m2 0h2m1 0h1m4 0h2M4 17.5h1m1 0h1m2 0h1m1 0h3m2 0h3m1 0h1m3 0h1m3 0h1m1 0h2m2 0h6m4 0h3m1 0h2m2 0h1m2 0h10m2 0h1m2 0h2m2 0h3m2 0h1m3 0h1m1 0h3m3 0h1m2 0h1m3 0h1m3 0h1m1 0h5M5 18.5h1m2 0h3m2 0h1m3 0h2m1 0h2m2 0h2m2 0h1m2 0h2m1 0h4m2 0h2m2 0h3m1 0h2m3 0h1m1 0h4m1 0h1m6 0h4m1 0h1m3 0h1m3 0h3m1 0h1m9 0h3m3 0h2m1 0h1m1 0h3M6 19.5h2m3 0h1m3 0h5m3 0h1m2 0h1m3 0h2m6 0h3m1 0h2m1 0h1m1 0h1m1 0h3m2 0h2m3 0h1m1 0h4m1 0h2m1 0h1m3 0h3m2 0h2m1 0h3m2 0h5m4 0h1m1 0h2m7 0h1m1 0h1M7 20.5h1m2 0h3m2 0h1m10 0h2m3 0h1m2 0h1m3 0h1m1 0h1m2 0h4m1 0h1m4 0h1m3 0h1m1 0h1m4 0h1m1 0h2m1 0h6m8 0h1m2 0h4m1 0h1m1 0h1m1 0h1m1 0h1m2 0h1m1 0h1m1 0h1m2 0h2M5 21.5h5m1 0h6m3 0h2m3 0h1m2 0h2m1 0h1m3 0h1m1 0h5m1 0h2m2 0h3m2 0h5m1 0h4m1 0h3m4 0h2m3 0h8m1 0h1m1 0h2m1 0h2m2 0h1m1 0h2m1 0h4m1 0h4m1 0h1M4 22.5h2m1 0h2m1 0h3m4 0h1m1 0h2m7 0h1m2 0h4m1 0h1m6 0h1m1 0h4m3 0h2m1 0h2m1 0h1m1 0h1m2 0h1m1 0h1m1 0h7m2 0h2m1 0h4m1 0h1m4 0h1m1 0h4m1 0h1m3 0h3m3 0h2M5 23.5h3m1 0h1m2 0h1m1 0h2m4 0h1m1 0h1m1 0h3m1 0h4m1 0h1m3 0h2m1 0h2m2 0h1m2 0h1m1 0h2m3 0h1m2 0h1m3 0h4m1 0h1m4 0h1m1 0h4m1 0h1m4 0h1m2 0h3m6 0h1m2 0h1m2 0h1m3 0h3M6 24.5h1m1 0h3m1 0h1m1 0h1m2 0h4m1 0h1m1 0h2m1 0h1m1 0h1m1 0h1m1 0h1m1 0h1m1 0h2m4 0h2m3 0h1m1 0h2m1 0h2m1 0h3m2 0h2m1 0h1m3 0h2m2 0h3m2 0h2m1 0h2m2 0h2m4 0h5m1 0h1m2 0h2m1 0h2M11 25.5h1m1 0h3m2 0h1m1 0h2m2 0h5m2 0h6m2 0h1m4 0h1m1 0h4m1 0h3m3 0h2m2 0h1m1 0h2m6 0h3m1 0h2m1 0h4m1 0h2m2 0h3m2 0h2m3 0h2m5 0h3m1 0h1M5 26.5h2m1 0h5m1 0h2m2 0h1m2 0h3m3 0h1m1 0h1m1 0h4m1 0h1m2 0h1m3 0h4m1 0h1m2 0h1m4 0h3m1 0h2m3 0h1m1 0h6m2 0h1m3 0h4m1 0h1m4 0h1m1 0h6m2 0h1m1 0h1m4 0h2M7 27.5h2m4 0h1m6 0h3m1 0h7m6 0h2m1 0h4m3 0h1m1 0h2m1 0h1m1 0h1m4 0h1m1 0h2m1 0h3m4 0h1m1 0h2m3 0h1m7 0h4m1 0h1m5 0h2m2 0h1m1 0h4M5 28.5h1m1 0h6m1 0h2m1 0h1m1 0h2m3 0h2m2 0h5m1 0h1m1 0h2m2 0h1m3 0h1m2 0h1m2 0h1m1 0h6m1 0h1m2 0h1m4 0h1m3 0h1m2 0h7m1 0h1m8 0h1m7 0h6m2 0h2M4 29.5h1m2 0h2m3 0h2m1 0h1m1 0h1m1 0h3m5 0h2m3 0h1m1 0h1m4 0h1m5 0h1m1 0h6m3 0h1m2 0h1m1 0h3m2 0h1m1 0h1m1 0h1m1 0h2m1 0h2m3 0h1m1 0h1m1 0h1m2 0h1m6 0h5m1 0h1m3 0h5M4 30.5h2m1 0h2m1 0h1m1 0h1m2 0h4m1 0h1m1 0h4m1 0h2m1 0h1m1 0h6m1 0h2m2 0h6m2 0h2m1 0h1m1 0h3m1 0h1m2 0h1m1 0h1m1 0h2m1 0h1m1 0h1m2 0h2m1 0h1m1 0h3m1 0h1m2 0h1m1 0h1m1 0h2m1 0h1m1 0h1m3 0h1m1 0h1m1 0h1m1 0h2M4 31.5h1m1 0h1m1 0h1m3 0h1m1 0h2m3 0h2m1 0h2m1 0h2m1 0h1m3 0h1m2 0h1m3 0h2m1 0h1m6 0h2m1 0h1m3 0h1m2 0h1m1 0h4m1 0h2m1 0h1m6 0h1m3 0h1m4 0h2m1 0h1m1 0h1m4 0h1m1 0h4m3 0h1m1 0h1m1 0h1M5 32.5h1m1 0h6m1 0h1m3 0h1m1 0h2m2 0h2m2 0h5m1 0h3m3 0h3m2 0h2m5 0h5m2 0h1m6 0h1m3 0h1m2 0h8m5 0h1m2 0h2m1 0h2m1 0h1m2 0h7m2 0h2M4 33.5h1m1 0h1m4 0h1m3 0h2m3 0h2m1 0h2m5 0h1m2 0h2m2 0h1m1 0h1m1 0h1m3 0h1m1 0h1m1 0h1m3 0h1m3 0h2m1 0h1m2 0h1m5 0h2m6 0h1m2 0h3m1 0h1m3 0h1m1 0h1m2 0h7m1 0h6m1 0h1M5 34.5h2m3 0h3m1 0h1m2 0h1m1 0h2m1 0h4m2 0h2m1 0h4m1 0h2m3 0h1m2 0h3m1 0h1m3 0h2m2 0h3m1 0h1m4 0h1m1 0h4m1 0h1m2 0h3m1 0h2m1 0h1m1 0h1m4 0h1m2 0h1m1 0h1m1 0h2m1 0h1m1 0h4m1 0h2M4 35.5h6m1 0h2m2 0h2m2 0h1m2 0h2m3 0h2m3 0h2m1 0h1m1 0h4m1 0h2m3 0h1m1 0h3m1 0h1m2 0h1m2 0h1m1 0h4m1 0h2m3 0h1m1 0h3m9 0h2m1 0h1m1 0h1m7 0h1m4 0h1m2 0h3M4 36.5h1m2 0h6m1 0h2m3 0h1m1 0h5m2 0h1m1 0h2m2 0h3m1 0h1m1 0h3m1 0h1m2 0h3m2 0h2m3 0h3m4 0h6m3 0h1m2 0h3m4 0h1m1 0h2m1 0h1m1 0h2m3 0h1m1 0h1m2 0h2m3 0h1m1 0h2M13 37.5h1m1 0h3m2 0h1m1 0h1m1 0h3m2 0h3m1 0h2m2 0h3m3 0h1m1 0h4m1 0h7m1 0h3m2 0h2m1 0h2m1 0h4m1 0h2m2 0h1m2 0h3m3 0h2m1 0h2m1 0h1m1 0h2m2 0h1m2 0h5m1 0h1M4 38.5h2m2 0h3m1 0h1m2 0h1m1 0h1m2 0h1m1 0h2m1 0h2m1 0h1m2 0h2m1 0h1m1 0h1m4 0h1m1 0h4m9 0h1m1 0h3m2 0h1m1 0h1m2 0h3m1 0h1m2 0h1m1 0h2m3 0h1m1 0h1m2 0h1m1 0h1m1 0h4m1 0h1m2 0h1m1 0h1m1 0h2m1 0h2M4 39.5h3m1 0h1m2 0h2m1 0h1m4 0h4m2 0h3m3 0h4m2 0h5m3 0h1m1 0h1m1 0h3m1 0h1m1 0h2m5 0h6m3 0h1m2 0h4m1 0h2m2 0h1m1 0h4m1 0h2m3 0h1m1 0h2m1 0h1m4 0h2m1 0h1M5 40.5h1m1 0h2m1 0h7m1 0h4m2 0h2m3 0h3m2 0h1m4 0h5m1 0h1m1 0h3m2 0h4m1 0h2m3 0h1m1 0h1m2 0h1m3 0h2m5 0h2m1 0h2m1 0h1m2 0h2m2 0h3m1 0h1m1 0h1m1 0h1m1 0h1m5 0h2M4 41.5h1m1 0h1m1 0h2m2 0h1m1 0h1m1 0h1m1 0h1m2 0h4m1 0h1m2 0h5m1 0h1m2 0h3m1 0h1m1 0h1m2 0h1m2 0h1m3 0h1m3 0h2m1 0h1m3 0h1m3 0h1m2 0h1m3 0h2m1 0h1m2 0h1m3 0h4m1 0h1m3 0h2m2 0h2m1 0h1m1 0h3m1 0h1M5 42.5h1m2 0h4m1 0h1m2 0h4m4 0h3m3 0h1m1 0h4m5 0h1m1 0h4m1 0h1m4 0h1m1 0h2m1 0h1m1 0h1m6 0h2m1 0h1m1 0h2m1 0h8m1 0h1m6 0h4m1 0h1m2 0h6m1 0h2M12 43.5h1m5 0h3m1 0h1m2 0h1m2 0h6m3 0h4m1 0h1m7 0h2m3 0h2m2 0h1m1 0h6m2 0h1m1 0h1m1 0h3m1 0h1m1 0h3m3 0h6m6 0h2m3 0h1m2 0h2M4 44.5h1m2 0h1m1 0h2m1 0h2m2 0h3m2 0h3m1 0h1m5 0h1m1 0h1m1 0h1m2 0h5m2 0h2m3 0h1m2 0h3m1 0h4m1 0h2m1 0h1m1 0h1m6 0h1m8 0h1m1 0h3m1 0h2m1 0h1m4 0h5m3 0h1m2 0h1M11 45.5h3m1 0h9m1 0h1m2 0h2m9 0h1m3 0h7m1 0h1m2 0h1m2 0h3m1 0h1m6 0h2m1 0h3m2 0h1m4 0h1m4 0h1m1 0h2m1 0h1m1 0h2m1 0h2m2 0h5m1 0h1m1 0h1M5 46.5h1m1 0h1m2 0h2m4 0h1m2 0h2m2 0h2m3 0h2m1 0h4m9 0h1m1 0h1m1 0h1m2 0h3m3 0h2m1 0h1m4 0h1m2 0h3m1 0h1m3 0h1m1 0h1m2 0h2m4 0h1m4 0h1m1 0h1m1 0h1m2 0h6m1 0h2M7 47.5h1m1 0h1m4 0h2m2 0h2m4 0h2m1 0h3m2 0h2m1 0h1m1 0h6m4 0h1m1 0h4m2 0h3m1 0h1m1 0h6m4 0h1m2 0h2m1 0h1m1 0h3m1 0h1m1 0h1m1 0h2m1 0h1m7 0h1m1 0h1m1 0h2m2 0h2M4 48.5h1m1 0h5m1 0h1m2 0h1m1 0h1m1 0h1m3 0h2m1 0h1m8 0h1m4 0h4m1 0h1m1 0h1m6 0h1m2 0h2m4 0h1m2 0h1m3 0h2m4 0h1m1 0h2m1 0h2m5 0h2m2 0h2m3 0h2m2 0h1m3 0h1m1 0h2M5 49.5h1m2 0h2m1 0h2m1 0h3m2 0h2m2 0h1m2 0h1m1 0h1m1 0h2m1 0h1m1 0h1m1 0h1m1 0h1m1 0h1m1 0h2m2 0h1m4 0h2m2 0h1m1 0h1m1 0h1m2 0h1m6 0h2m3 0h2m1 0h5m9 0h2m2 0h1m3 0h3m2 0h1m2 0h1M4 50.5h4m2 0h1m1 0h1m2 0h3m1 0h1m1 0h5m2 0h1m2 0h4m1 0h1m2 0h2m2 0h3m2 0h1m2 0h2m1 0h1m1 0h3m1 0h1m6 0h2m1 0h3m4 0h1m1 0h1m2 0h4m6 0h6m1 0h1m1 0h4M4 51.5h1m1 0h3m3 0h1m1 0h3m2 0h3m2 0h4m4 0h1m2 0h1m2 0h1m1 0h1m1 0h2m2 0h1m2 0h3m1 0h1m1 0h2m2 0h1m1 0h4m1 0h2m3 0h1m2 0h2m3 0h2m2 0h1m1 0h4m1 0h1m2 0h1m1 0h1m2 0h1m3 0h2m1 0h4M4 52.5h2m2 0h5m2 0h4m3 0h1m2 0h2m1 0h8m1 0h1m1 0h5m2 0h1m3 0h1m1 0h8m1 0h1m2 0h4m1 0h6m1 0h5m1 0h2m10 0h2m1 0h2m1 0h5m2 0h1M6 53.5h3m3 0h3m1 0h2m10 0h1m3 0h1m1 0h1m1 0h1m3 0h1m1 0h2m4 0h1m1 0h3m3 0h2m2 0h1m2 0h1m2 0h3m1 0h1m5 0h1m3 0h1m1 0h2m4 0h1m2 0h1m1 0h3m4 0h1m3 0h2m2 0h1M4 54.5h2m1 0h2m1 0h1m1 0h1m1 0h2m4 0h1m1 0h2m1 0h4m1 0h1m1 0h3m1 0h2m1 0h1m4 0h3m1 0h2m1 0h2m1 0h1m1 0h3m1 0h1m2 0h1m1 0h1m2 0h1m1 0h3m2 0h2m1 0h1m1 0h3m1 0h1m3 0h1m4 0h4m2 0h2m1 0h1m1 0h1m1 0h2M4 55.5h2m1 0h2m3 0h1m2 0h1m1 0h2m1 0h1m1 0h2m2 0h3m3 0h2m1 0h1m2 0h3m1 0h2m6 0h3m3 0h1m2 0h1m2 0h5m2 0h1m1 0h1m1 0h4m3 0h1m1 0h2m1 0h4m1 0h1m3 0h1m2 0h4m3 0h4M4 56.5h2m1 0h7m1 0h1m1 0h2m5 0h2m1 0h6m1 0h1m2 0h1m1 0h6m1 0h1m2 0h8m1 0h2m1 0h2m1 0h2m3 0h4m1 0h8m3 0h1m3 0h1m2 0h3m4 0h6m2 0h1M6 57.5h2m1 0h1m1 0h1m1 0h2m1 0h2m3 0h1m1 0h2m1 0h2m2 0h1m4 0h6m1 0h1m1 0h3m1 0h1m4 0h2m3 0h2m1 0h1m1 0h2m4 0h6m2 0h3m1 0h3m1 0h2m2 0h1m1 0h1m2 0h1m1 0h2m1 0h3m4 0h1m1 0h1M4 58.5h2m1 0h2m1 0h1m1 0h1m1 0h4m4 0h1m1 0h1m3 0h2m3 0h4m4 0h2m2 0h2m1 0h1m2 0h3m2 0h1m1 0h4m3 0h1m2 0h3m1 0h1m2 0h3m1 0h1m1 0h2m1 0h2m3 0h1m1 0h4m1 0h1m4 0h2m1 0h4M6 59.5h1m1 0h1m6 0h1m3 0h1m2 0h1m1 0h1m1 0h2m1 0h3m5 0h4m2 0h1m1 0h1m1 0h1m1 0h2m1 0h3m1 0h1m4 0h6m2 0h1m1 0h1m2 0h5m1 0h1m4 0h4m1 0h1m2 0h1m1 0h1m1 0h3m3 0h4m1 0h1M5 60.5h1m1 0h2m1 0h1m1 0h1m4 0h2m1 0h2m1 0h5m1 0h1m1 0h1m3 0h1m2 0h1m1 0h1m1 0h1m2 0h3m1 0h3m1 0h1m1 0h3m4 0h4m1 0h2m2 0h4m2 0h1m1 0h3m2 0h1m2 0h1m8 0h4m5 0h1m1 0h2M7 61.5h2m2 0h1m1 0h2m1 0h1m1 0h1m1 0h1m1 0h3m1 0h1m3 0h1m1 0h1m1 0h2m3 0h1m1 0h3m1 0h2m2 0h1m4 0h2m4 0h2m6 0h5m2 0h1m2 0h1m4 0h3m5 0h6m3 0h1m2 0h2m1 0h1m1 0h1M4 62.5h2m1 0h1m1 0h3m3 0h2m2 0h4m3 0h1m1 0h5m1 0h1m1 0h1m6 0h4m1 0h2m1 0h3m3 0h2m1 0h1m6 0h4m1 0h1m2 0h2m1 0h3m1 0h1m1 0h1m2 0h1m1 0h1m1 0h4m1 0h1m2 0h1m2 0h1m2 0h2M4 63.5h3m2 0h1m9 0h1m3 0h4m1 0h1m1 0h1m1 0h1m2 0h1m1 0h2m1 0h1m1 0h1m4 0h1m1 0h2m1 0h1m1 0h4m1 0h1m1 0h2m1 0h4m3 0h1m1 0h3m1 0h1m1 0h1m3 0h1m1 0h2m1 0h1m8 0h3m4 0h4M6 64.5h1m1 0h1m1 0h1m3 0h2m1 0h2m1 0h1m2 0h2m2 0h1m1 0h1m2 0h1m1 0h3m1 0h2m2 0h1m1 0h1m3 0h1m2 0h3m1 0h2m4 0h2m2 0h1m1 0h1m2 0h1m1 0h2m1 0h1m3 0h4m4 0h3m1 0h1m2 0h1m2 0h2m3 0h2m1 0h1m2 0h1M4 65.5h1m2 0h2m3 0h1m1 0h1m2 0h1m5 0h1m1 0h1m4 0h2m1 0h3m1 0h2m1 0h2m2 0h3m2 0h2m2 0h3m1 0h2m1 0h2m1 0h1m6 0h1m3 0h2m1 0h3m1 0h3m1 0h1m1 0h1m1 0h1m2 0h1m2 0h2m3 0h1m7 0h1M4 66.5h2m1 0h1m2 0h4m5 0h2m1 0h2m1 0h1m1 0h2m2 0h1m1 0h4m1 0h1m4 0h2m1 0h3m2 0h2m1 0h2m1 0h2m1 0h1m7 0h1m1 0h3m2 0h5m2 0h1m1 0h2m1 0h1m1 0h1m1 0h4m1 0h1m5 0h3m1 0h2M4 67.5h2m3 0h1m2 0h2m4 0h3m1 0h2m1 0h1m3 0h1m1 0h3m3 0h1m1 0h2m1 0h1m4 0h1m1 0h2m2 0h1m5 0h1m1 0h2m1 0h1m1 0h2m6 0h1m2 0h1m1 0h3m1 0h1m2 0h1m1 0h1m1 0h1m2 0h1m1 0h1m1 0h3m2 0h3m1 0h2M4 68.5h1m2 0h2m1 0h1m2 0h1m6 0h2m1 0h2m3 0h1m2 0h7m2 0h2m1 0h1m5 0h3m1 0h1m1 0h6m1 0h1m2 0h1m1 0h2m1 0h1m4 0h1m1 0h1m2 0h2m4 0h1m1 0h1m1 0h1m4 0h2m10 0h1M6 69.5h2m1 0h1m2 0h2m1 0h2m4 0h5m3 0h3m2 0h4m1 0h1m1 0h1m2 0h1m1 0h1m2 0h1m1 0h1m2 0h1m2 0h1m1 0h1m3 0h1m1 0h1m2 0h1m2 0h3m1 0h1m2 0h2m2 0h2m1 0h1m1 0h1m1 0h1m1 0h2m1 0h1m5 0h2m2 0h2M9 70.5h2m2 0h2m3 0h3m3 0h1m1 0h4m1 0h1m1 0h2m9 0h3m1 0h1m2 0h2m1 0h1m2 0h4m2 0h1m1 0h1m1 0h4m1 0h1m3 0h4m1 0h2m1 0h2m3 0h1m1 0h2m1 0h1m1 0h2m1 0h5m1 0h4M5 71.5h1m2 0h2m3 0h3m1 0h1m4 0h2m1 0h2m4 0h2m2 0h1m1 0h4m1 0h2m1 0h1m1 0h1m1 0h2m1 0h2m1 0h1m5 0h4m1 0h1m7 0h1m1 0h1m1 0h2m1 0h1m1 0h1m2 0h3m1 0h2m1 0h1m1 0h1m1 0h2m2 0h1m2 0h1m1 0h3M5 72.5h2m3 0h1m1 0h1m2 0h1m2 0h1m6 0h3m1 0h1m1 0h3m5 0h2m2 0h3m1 0h2m1 0h4m10 0h2m2 0h1m1 0h1m4 0h3m2 0h2m4 0h1m1 0h2m1 0h1m1 0h1m1 0h2m1 0h1m4 0h1M4 73.5h3m1 0h1m2 0h1m1 0h1m9 0h1m2 0h1m3 0h1m4 0h1m2 0h1m2 0h3m1 0h2m3 0h2m2 0h1m2 0h2m1 0h2m1 0h4m3 0h1m2 0h1m4 0h1m5 0h2m1 0h1m1 0h1m4 0h8m3 0h2m1 0h1M4 74.5h5m1 0h1m1 0h1m1 0h2m2 0h1m1 0h1m1 0h2m1 0h6m1 0h2m1 0h2m4 0h1m1 0h2m1 0h1m1 0h1m2 0h2m3 0h6m3 0h1m1 0h7m2 0h3m2 0h2m1 0h1m7 0h5m3 0h1m1 0h2m2 0h1M4 75.5h1m1 0h2m1 0h1m4 0h1m1 0h4m1 0h1m1 0h1m10 0h2m1 0h7m3 0h1m1 0h3m1 0h3m1 0h1m1 0h1m1 0h4m1 0h1m2 0h1m3 0h4m2 0h2m2 0h1m1 0h4m1 0h2m5 0h3m2 0h6M4 76.5h2m2 0h5m2 0h1m1 0h1m1 0h1m2 0h1m5 0h5m1 0h2m1 0h2m1 0h2m4 0h1m1 0h2m2 0h6m2 0h4m5 0h1m3 0h8m4 0h2m3 0h1m9 0h5m1 0h1m1 0h1M5 77.5h2m1 0h1m3 0h1m1 0h4m4 0h1m1 0h2m2 0h1m3 0h1m2 0h3m4 0h9m1 0h1m3 0h1m2 0h3m1 0h3m3 0h2m1 0h2m2 0h1m3 0h5m2 0h1m1 0h1m1 0h1m2 0h3m1 0h3m3 0h1m1 0h1m1 0h1M4 78.5h1m1 0h3m1 0h1m1 0h1m1 0h3m1 0h1m2 0h5m2 0h1m1 0h1m1 0h3m4 0h1m1 0h1m1 0h4m1 0h1m2 0h2m1 0h1m1 0h3m1 0h2m1 0h1m3 0h2m1 0h1m1 0h1m2 0h2m1 0h1m1 0h1m1 0h3m3 0h1m3 0h3m1 0h1m3 0h1m1 0h1m1 0h2M8 79.5h1m3 0h1m1 0h1m4 0h1m1 0h1m1 0h6m3 0h1m2 0h2m1 0h1m1 0h1m1 0h1m4 0h1m1 0h4m3 0h1m2 0h1m1 0h2m1 0h1m1 0h2m1 0h1m1 0h1m1 0h4m3 0h2m3 0h6m6 0h2m1 0h1m3 0h5M4 80.5h1m1 0h8m3 0h2m3 0h2m1 0h1m1 0h8m1 0h2m5 0h3m5 0h9m3 0h2m1 0h2m1 0h1m1 0h1m1 0h1m1 0h9m2 0h1m1 0h1m1 0h1m8 0h8M5 81.5h3m1 0h1m3 0h1m3 0h1m6 0h3m1 0h2m1 0h2m1 0h4m1 0h1m2 0h1m4 0h2m4 0h1m1 0h3m2 0h1m4 0h3m2 0h1m1 0h1m1 0h1m1 0h2m1 0h2m6 0h2m6 0h3m3 0h1m1 0h1m2 0h3M4 82.5h1m4 0h3m3 0h1m5 0h4m5 0h2m1 0h2m1 0h1m6 0h4m1 0h2m1 0h2m1 0h2m2 0h1m1 0h2m3 0h1m1 0h2m1 0h1m7 0h1m2 0h3m7 0h4m1 0h1M4 83.5h5m5 0h5m1 0h2m1 0h6m2 0h2m2 0h1m2 0h5m4 0h1m2 0h1m1 0h2m1 0h1m3 0h1m1 0h5m5 0h1m1 0h2m1 0h3m1 0h1m2 0h1m1 0h4m1 0h1m6 0h3m2 0h2m2 0h2M4 84.5h5m1 0h7m4 0h1m1 0h4m4 0h1m1 0h7m4 0h1m1 0h1m3 0h3m2 0h2m3 0h2m2 0h6m1 0h2m2 0h1m2 0h1m2 0h1m2 0h3m1 0h4m1 0h2m2 0h2m2 0h1m1 0h1m1 0h1M4 85.5h4m3 0h4m1 0h2m2 0h1m1 0h1m2 0h1m1 0h2m2 0h2m1 0h2m5 0h1m3 0h2m1 0h3m1 0h1m2 0h2m1 0h3m1 0h3m1 0h1m1 0h1m1 0h2m1 0h1m5 0h2m2 0h2m3 0h3m3 0h3m1 0h1m1 0h2m5 0h2M4 86.5h2m1 0h1m1 0h2m1 0h2m1 0h1m3 0h2m1 0h1m1 0h2m1 0h1m2 0h2m2 0h1m1 0h1m3 0h1m3 0h1m1 0h1m1 0h1m5 0h2m2 0h1m1 0h1m4 0h1m1 0h4m1 0h1m5 0h2m1 0h2m1 0h2m5 0h4m1 0h1m4 0h1m2 0h1m1 0h1M5 87.5h4m4 0h4m1 0h2m1 0h1m1 0h2m2 0h1m4 0h1m2 0h1m1 0h3m1 0h3m1 0h2m2 0h1m1 0h2m1 0h2m1 0h1m4 0h1m1 0h4m3 0h1m1 0h1m1 0h1m2 0h1m1 0h1m2 0h1m1 0h6m4 0h1m2 0h2m1 0h7M5 88.5h2m3 0h1m2 0h1m1 0h1m1 0h1m2 0h1m2 0h7m1 0h2m2 0h4m2 0h3m1 0h2m1 0h2m1 0h4m6 0h1m2 0h2m1 0h1m1 0h1m1 0h1m2 0h2m1 0h1m1 0h2m5 0h9m1 0h1m3 0h2m1 0h2m3 0h1M4 89.5h2m1 0h1m1 0h1m2 0h1m1 0h1m1 0h4m1 0h1m1 0h1m2 0h1m1 0h1m2 0h3m1 0h1m3 0h1m2 0h4m1 0h2m1 0h1m1 0h1m2 0h2m1 0h2m1 0h2m2 0h2m4 0h1m1 0h2m1 0h2m1 0h8m1 0h1m3 0h1m1 0h4m2 0h1m1 0h1m3 0h1m1 0h1M8 90.5h3m2 0h1m1 0h3m3 0h1m1 0h1m1 0h1m3 0h1m1 0h1m1 0h2m1 0h2m3 0h1m1 0h4m1 0h2m2 0h3m2 0h4m4 0h1m1 0h4m1 0h1m2 0h1m2 0h1m3 0h3m6 0h1m1 0h2m1 0h1m2 0h3m3 0h3M4 91.5h1m1 0h1m1 0h2m1 0h1m2 0h1m1 0h1m1 0h1m2 0h2m4 0h3m1 0h1m1 0h2m2 0h4m1 0h1m4 0h1m1 0h6m2 0h1m1 0h1m1 0h4m1 0h1m4 0h1m1 0h7m1 0h1m1 0h1m1 0h2m1 0h3m3 0h2m2 0h2m2 0h1m3 0h2M6 92.5h2m2 0h1m1 0h1m1 0h2m2 0h2m2 0h1m2 0h5m1 0h5m3 0h1m6 0h1m3 0h2m2 0h1m1 0h2m1 0h2m1 0h4m1 0h1m5 0h1m1 0h6m1 0h5m2 0h2m1 0h1m7 0h1m1 0h1m1 0h1m2 0h2M9 93.5h1m3 0h3m1 0h5m2 0h1m3 0h2m2 0h2m2 0h1m2 0h3m1 0h3m1 0h2m1 0h1m2 0h1m1 0h1m2 0h2m2 0h1m5 0h1m1 0h2m1 0h2m1 0h2m2 0h3m2 0h1m2 0h1m1 0h1m1 0h4m3 0h1m1 0h3m1 0h2m1 0h1M4 94.5h1m2 0h1m1 0h7m3 0h3m1 0h1m2 0h2m2 0h1m2 0h2m1 0h1m6 0h1m2 0h1m1 0h1m4 0h2m2 0h2m1 0h1m4 0h1m1 0h4m1 0h1m3 0h1m1 0h1m2 0h2m1 0h1m2 0h1m1 0h1m1 0h2m1 0h1m1 0h1m2 0h3m1 0h1m2 0h1M5 95.5h1m2 0h1m4 0h2m1 0h2m3 0h1m1 0h1m1 0h4m6 0h1m1 0h2m1 0h2m2 0h1m2 0h1m1 0h4m2 0h1m5 0h4m1 0h2m1 0h1m1 0h1m1 0h6m4 0h1m1 0h2m1 0h1m1 0h1m6 0h4m1 0h2m1 0h4M4 96.5h1m3 0h1m1 0h2m2 0h4m1 0h3m3 0h4m1 0h1m2 0h1m3 0h1m1 0h2m2 0h2m2 0h2m1 0h6m1 0h2m2 0h3m1 0h2m2 0h1m1 0h2m1 0h2m1 0h1m1 0h1m5 0h2m1 0h2m1 0h1m1 0h1m4 0h1m1 0h2m2 0h1m2 0h1M4 97.5h1m2 0h1m5 0h2m1 0h1m2 0h1m1 0h2m2 0h1m2 0h1m2 0h2m2 0h2m3 0h1m1 0h1m1 0h3m2 0h2m1 0h2m1 0h2m1 0h2m1 0h1m1 0h3m7 0h2m1 0h2m2 0h1m1 0h4m3 0h1m1 0h2m2 0h1m1 0h1m2 0h1m4 0h2m1 0h1M4 98.5h3m3 0h1m2 0h1m2 0h4m1 0h1m1 0h1m2 0h1m1 0h3m2 0h2m1 0h1m2 0h1m3 0h4m1 0h1m3 0h1m1 0h1m2 0h2m1 0h2m3 0h1m1 0h6m2 0h1m2 0h2m2 0h4m1 0h1m3 0h4m1 0h1m2 0h3m4 0h1M6 99.5h1m1 0h2m1 0h2m2 0h5m2 0h2m2 0h3m1 0h1m2 0h1m1 0h1m1 0h2m1 0h3m6 0h2m3 0h4m1 0h1m1 0h2m1 0h1m1 0h1m4 0h1m1 0h2m1 0h1m1 0h3m2 0h1m1 0h2m1 0h1m1 0h2m3 0h1m1 0h4m3 0h3m1 0h1M7 100.5h2m1 0h2m1 0h1m1 0h1m2 0h1m1 0h15m1 0h2m1 0h5m1 0h1m1 0h1m1 0h9m2 0h1m2 0h1m5 0h1m1 0h2m2 0h7m1 0h1m2 0h6m2 0h2m2 0h1m1 0h5M12 101.5h4m2 0h1m1 0h3m1 0h3m1 0h1m3 0h1m1 0h1m4 0h2m3 0h1m2 0h2m2 0h2m3 0h5m5 0h1m1 0h1m1 0h1m2 0h1m1 0h2m3 0h3m7 0h1m1 0h1m2 0h3m2 0h1m3 0h1m1 0h1m1 0h1M4 102.5h7m1 0h3m1 0h2m4 0h1m1 0h1m1 0h1m1 0h1m1 0h1m1 0h3m1 0h2m3 0h1m1 0h6m3 0h1m1 0h1m1 0h5m6 0h2m1 0h1m1 0h1m3 0h1m1 0h1m1 0h1m1 0h4m3 0h1m1 0h5m4 0h1m1 0h1m1 0h1m2 0h1M4 103.5h1m5 0h1m3 0h3m2 0h1m2 0h2m1 0h1m2 0h1m3 0h1m6 0h2m1 0h1m4 0h1m1 0h2m1 0h1m3 0h1m2 0h1m1 0h4m1 0h2m1 0h1m4 0h3m3 0h2m1 0h1m1 0h2m1 0h1m1 0h1m4 0h1m1 0h4m3 0h4M4 104.5h1m1 0h3m1 0h1m1 0h1m3 0h1m3 0h1m2 0h1m1 0h1m1 0h6m1 0h1m4 0h9m1 0h2m1 0h5m3 0h1m3 0h1m1 0h1m2 0h1m5 0h8m3 0h2m1 0h2m3 0h2m2 0h1m1 0h5m2 0h2M4 105.5h1m1 0h3m1 0h1m1 0h1m1 0h2m2 0h2m1 0h1m1 0h3m2 0h2m3 0h3m6 0h2m2 0h1m1 0h1m2 0h3m1 0h1m2 0h3m2 0h1m1 0h1m1 0h1m2 0h1m1 0h2m1 0h1m4 0h1m1 0h2m1 0h4m1 0h1m2 0h3m1 0h1m3 0h2m1 0h1M4 106.5h1m1 0h3m1 0h1m1 0h1m1 0h7m3 0h1m2 0h1m1 0h1m4 0h4m1 0h1m1 0h1m2 0h1m1 0h3m4 0h1m1 0h4m1 0h1m4 0h1m1 0h6m2 0h1m1 0h1m2 0h1m1 0h1m1 0h2m3 0h1m2 0h1m1 0h1m1 0h1m2 0h2m5 0h1M4 107.5h1m5 0h1m1 0h3m1 0h1m2 0h1m1 0h3m2 0h3m1 0h2m3 0h1m2 0h3m1 0h2m3 0h1m1 0h4m1 0h2m1 0h1m1 0h1m1 0h4m1 0h1m6 0h2m1 0h3m7 0h1m1 0h1m1 0h1m2 0h1m1 0h1m1 0h2m1 0h2m4 0h1M4 108.5h7m1 0h1m1 0h6m2 0h3m2 0h2m5 0h2m4 0h2m1 0h1m4 0h1m1 0h4m3 0h1m3 0h1m1 0h2m1 0h3m1 0h1m2 0h7m1 0h2m10 0h2m4 0h1m2 0h1m4 0h1"/></svg>
