<?xml version="1.0" encoding="utf-8"?><!DOCTYPE svg PUBLIC "-//W3C//DTD SVG 1.1//EN" "http://www.w3.org/Graphics/SVG/1.1/DTD/svg11.dtd"><svg xmlns="http://www.w3.org/2000/svg" viewBox="0 0 153 153" shape-rendering="crispEdges"><path fill="#ffffff" d="M0 0h153v153H0z"/><path stroke="#000000" d="M4 4.5h7m2 0h1m1 0h1m2 0h2m1 0h1m2 0h1m2 0h4m1 0h3m1 0h2m2 0h1m1 0h1m4 0h1m1 0h2m1 0h1m1 0h1m6 0h1m3 0h1m3 0h4m1 0h4m2 0h1m1 0h4m1 0h2m1 0h1m3 0h4m3 0h3m4 0h2m3 0h1m1 0h1m1 0h1m2 0h3m1 0h1m7 0h5m1 0h1m1 0h1m1 0h7M4 5.5h1m5 0h1m1 0h1m1 0h2m2 0h4m1 0h1m2 0h1m3 0h1m1 0h2m4 0h1m6 0h2m1 0h1m1 0h1m1 0h1m1 0h1m8 0h5m1 0h1m2 0h2m5 0h3m2 0h1m4 0h1m1 0h2m2 0h1m1 0h4m4 0h3m4 0h1m1 0h3m2 0h6m3 0h1m1 0h2m1 0h4m2 0h1m2 0h1m5 0h1M4 6.5h1m1 0h3m1 0h1m3 0h1m1 0h4m1 0h2m1 0h1m2 0h1m3 0h1m1 0h1m5 0h1m3 0h5m2 0h3m4 0h2m2 0h4m2 0h1m1 0h2m2 0h3m2 0h1m1 0h1m1 0h1m1 0h3m1 0h1m1 0h1m1 0h1m1 0h1m4 0h2m2 0h1m2 0h1m2 0h1m2 0h2m3 0h2m1 0h1m3 0h2m1 0h3m2 0h1m4 0h4m1 0h1m1 0h3m1 0h1M4 7.5h1m1 0h3m1 0h1m1 0h2m1 0h1m3 0h1m1 0h1m4 0h1m1 0h1m2 0h1m1 0h5m2 0h1m3 0h1m1 0h1m1 0h1m3 0h1m2 0h2m1 0h1m1 0h3m1 0h3m4 0h1m2 0h1m1 0h4m1 0h2m3 0h3m2 0h3m1 0h5m1 0h2m2 0h1m1 0h1m2 0h1m1 0h1m3 0h5m2 0h1m1 0h1m1 0h2m2 0h1m2 0h1m2 0h1m2 0h1m1 0h1m1 0h3m1 0h1M4 8.5h1m1 0h3m1 0h1m3 0h1m1 0h1m2 0h4m2 0h4m1 0h3m3 0h5m1 0h2m1 0h1m1 0h1m1 0h3m2 0h1m4 0h1m1 0h6m2 0h3m3 0h1m4 0h4m1 0h8m2 0h2m1 0h2m2 0h1m1 0h3m1 0h1m2 0h1m2 0h6m3 0h2m1 0h2m1 0h1m2 0h1m3 0h2m4 0h1m1 0h3m1 0h1M4 9.5h1m5 0h1m1 0h1m5 0h1m1 0h5m3 0h1m3 0h5m3 0h1m2 0h1m5 0h2m2 0h1m3 0h1m1 0h4m3 0h2m6 0h1m1 0h1m1 0h2m2 0h1m2 0h4m3 0h3m2 0h1m2 0h1m5 0h1m2 0h1m2 0h3m3 0h4m1 0h1m4 0h1m2 0h6m3 0h1m1 0h1m5 0h1M4 10.5h7m1 0h1m1 0h1m1 0h1m1 0h1m1 0h1m1 0h1m1 0h1m1 0h1m1 0h1m1 0h1m1 0h1m1 0h1m1 0h1m1 0h1m1 0h1m1 0h1m1 0h1m1 0h1m1 0h1m1 0h1m1 0h1m1 0h1m1 0h1m1 0h1m1 0h1m1 0h1m1 0h1m1 0h1m1 0h1m1 0h1m1 0h1m1 0h1m1 0h1m1 0h1m1 0h1m1 0h1m1 0h1m1 0h1m1 0h1m1 0h1m1 0h1m1 0h1m1 0h1m1 0h1m1 0h1m1 0h1m1 0h1m1 0h1m1 0h1m1 0h1m1 0h1m1 0h1m1 0h1m1 0h1m1 0h1m1 0h1m1 0h1m1 0h1m1 0h1m1 0h1m1 0h1m1 0h1m1 0h1m1 0h1m1 0h1m1 0h7M13 11.5h5m1 0h7m1 0h1m2 0h1m1 0h1m3 0h1m3 0h1m1 0h1m1 0h3m1 0h2m1 0h1m3 0h2m3 0h3m3 0h3m1 0h5m1 0h1m5 0h5m1 0h1m3 0h4m4 0h2m1 0h1m1 0h2m1 0h1m3 0h3m3 0h1m1 0h1m1 0h1m2 0h1m1 0h1m1 0h2m1 0h1m1 0h1m1 0h3m1 0h1M4 12.5h5m1 0h3m5 0h5m2 0h6m3 0h1m1 0h5m2 0h2m1 0h3m4 0h1m3 0h4m1 0h6m1 0h1m1 0h2m1 0h1m2 0h1m1 0h1m1 0h3m3 0h6m4 0h3m2 0h1m1 0h1m1 0h5m3 0h5m1 0h1m2 0h3m1 0h4m2 0h1m2 0h2m1 0h3m1 0h1m1 0h1m1 0h1M7 13.5h1m5 0h1m2 0h2m1 0h1m1 0h1m1 0h3m1 0h1m2 0h2m1 0h1m1 0h1m4 0h4m6 0h1m1 0h3m4 0h1m1 0h1m1 0h1m2 0h1m1 0h6m1 0h1m6 0h1m1 0h1m5 0h2m1 0h5m1 0h1m2 0h4m2 0h1m1 0h2m1 0h4m1 0h2m2 0h1m1 0h1m2 0h1m2 0h1m2 0h1m1 0h2M9 14.5h2m3 0h2m3 0h2m5 0h1m1 0h1m2 0h1m2 0h4m1 0h2m2 0h1m5 0h6m6 0h1m1 0h2m1 0h3m1 0h1m5 0h1m1 0h2m1 0h2m5 0h2m1 0h3m3 0h6m2 0h1m1 0h1m4 0h1m3 0h1m1 0h6m7 0h5m2 0h1m1 0h1m1 0h1m1 0h1m1 0h1m1 0h1M4 15.5h1m4 0h1m4 0h1m1 0h1m3 0h1m1 0h4m2 0h1m1 0h1m3 0h1m3 0h1m5 0h2m1 0h3m1 0h2m1 0h1m2 0h1m2 0h2m1 0h1m3 0h2m3 0h3m1 0h1m1 0h3m3 0h4m5 0h3m1 0h1m2 0h1m4 0h2m2 0h1m1 0h1m1 0h6m1 0h1m3 0h2m1 0h3m4 0h1m2 0h1m2 0h2m5 0h2M4 16.5h9m4 0h2m2 0h1m2 0h7m2 0h1m1 0h1m1 0h1m2 0h1m2 0h2m1 0h3m2 0h1m1 0h6m1 0h1m3 0h2m3 0h2m3 0h6m1 0h2m1 0h1m1 0h1m1 0h1m3 0h1m3 0h1m1 0h1m2 0h2m1 0h1m4 0h4m1 0h1m3 0h2m1 0h3m1 0h1m1 0h1m1 0h5m1 0h1m3 0h2m1 0h5m1 0h1M4 17.5h1m1 0h2m1 0h1m1 0h1m3 0h2m4 0h2m2 0h2m1 0h4m1 0h2m2 0h1m2 0h1m1 0h1m2 0h1m1 0h1m2 0h3m2 0h1m1 0h1m6 0h2m1 0h2m2 0h5m4 0h5m1 0h6m1 0h1m1 0h2m2 0h1m2 0h3m1 0h3m2 0h1m2 0h5m3 0h3m6 0h1m1 0h1m1 0h1m1 0h4m2 0h1m1 0h1M7 18.5h1m2 0h2m2 0h5m2 0h1m1 0h2m2 0h3m2 0h1m2 0h2m1 0h5m1 0h10m4 0h2m1 0h3m5 0h1m2 0h3m4 0h1m1 0h1m4 0h1m1 0h4m1 0h3m1 0h1m1 0h2m2 0h1m2 0h2m1 0h4m1 0h2m2 0h6m6 0h2m1 0h3m2 0h3m1 0h1m4 0h2M4 19.5h5m2 0h1m1 0h2m1 0h1m1 0h5m1 0h2m2 0h1m1 0h5m1 0h3m1 0h1m1 0h1m2 0h1m3 0h1m2 0h1m2 0h2m2 0h1m1 0h3m4 0h1m3 0h2m8 0h4m1 0h1m1 0h1m2 0h3m5 0h2m3 0h2m4 0h3m1 0h4m1 0h1m1 0h1m2 0h1m1 0h1m1 0h1m6 0h2m3 0h2m5 0h1M4 20.5h3m3 0h2m2 0h2m5 0h2m1 0h1m1 0h2m4 0h1m3 0h1m2 0h2m2 0h2m1 0h1m1 0h2m5 0h4m1 0h1m4 0h1m3 0h1m2 0h1m1 0h4m3 0h1m1 0h1m2 0h1m4 0h2m3 0h4m2 0h4m1 0h2m1 0h1m1 0h1m3 0h1m3 0h2m5 0h2m1 0h1m1 0h3m2 0h1m1 0h1m2 0h1m1 0h5M6 21.5h1m1 0h2m1 0h8m4 0h1m1 0h3m1 0h1m1 0h2m1 0h1m1 0h2m4 0h1m4 0h1m1 0h2m1 0h1m1 0h2m3 0h1m4 0h1m4 0h3m2 0h2m2 0h1m3 0h2m3 0h1m1 0h3m2 0h1m1 0h3m5 0h3m1 0h2m4 0h6m1 0h2m1 0h2m1 0h1m1 0h1m1 0h2m1 0h1m4 0h1m1 0h1m3 0h1M4 22.5h1m1 0h1m3 0h1m1 0h1m2 0h2m1 0h5m1 0h3m1 0h2m2 0h1m1 0h2m2 0h2m2 0h2m2 0h2m3 0h4m3 0h3m1 0h1m1 0h5m5 0h1m1 0h1m1 0h2m1 0h1m3 0h4m3 0h2m5 0h2m1 0h1m3 0h1m2 0h1m2 0h1m2 0h2m2 0h3m1 0h1m2 0h1m3 0h2m1 0h3m4 0h1m1 0h2m1 0h1m1 0h2M4 23.5h1m1 0h1m1 0h2m1 0h1m1 0h3m4 0h2m7 0h1m1 0h1m1 0h2m1 0h1m4 0h1m2 0h4m3 0h1m2 0h3m3 0h2m1 0h1m2 0h3m3 0h1m6 0h2m3 0h5m1 0h1m2 0h3m1 0h1m2 0h1m2 0h1m2 0h2m3 0h1m1 0h2m2 0h1m2 0h1m1 0h1m1 0h1m1 0h2m1 0h1m6 0h2m2 0h2m2 0h2m1 0h1M4 24.5h1m1 0h1m1 0h1m1 0h2m1 0h1m1 0h1m2 0h1m3 0h1m2 0h1m3 0h1m3 0h3m1 0h1m1 0h2m2 0h2m1 0h1m2 0h1m1 0h1m1 0h1m2 0h3m1 0h1m3 0h6m1 0h1m1 0h7m1 0h3m4 0h1m2 0h3m2 0h4m2 0h2m5 0h1m1 0h4m3 0h1m3 0h1m1 0h1m1 0h2m1 0h2m5 0h1m1 0h5m1 0h3M5 25.5h1m1 0h2m2 0h1m3 0h1m4 0h1m1 0h2m1 0h6m1 0h2m2 0h2m4 0h1m2 0h1m1 0h2m1 0h3m1 0h1m4 0h1m1 0h1m3 0h1m2 0h4m3 0h1m1 0h8m2 0h1m1 0h3m1 0h1m1 0h2m1 0h2m3 0h2m3 0h2m2 0h2m1 0h1m2 0h2m10 0h2m1 0h3m3 0h2m6 0h1M4 26.5h1m2 0h4m2 0h3m1 0h1m2 0h1m2 0h1m2 0h2m2 0h1m2 0h3m1 0h4m1 0h1m3 0h1m1 0h1m3 0h1m1 0h2m1 0h2m1 0h1m1 0h2m1 0h1m1 0h2m1 0h1m3 0h1m1 0h4m6 0h4m3 0h1m3 0h5m4 0h1m4 0h2m1 0h1m4 0h1m1 0h3m4 0h1m2 0h6m2 0h1m1 0h1m1 0h1m1 0h4M5 27.5h4m3 0h1m7 0h2m1 0h3m1 0h2m2 0h2m1 0h1m3 0h1m2 0h1m5 0h3m1 0h3m1 0h1m1 0h5m1 0h2m2 0h1m5 0h1m2 0h1m2 0h2m1 0h1m1 0h5m2 0h4m4 0h2m2 0h2m1 0h1m6 0h6m5 0h4m1 0h1m2 0h1m4 0h2m1 0h3m5 0h1M4 28.5h1m1 0h3m1 0h2m2 0h1m1 0h3m1 0h1m2 0h4m3 0h2m1 0h3m1 0h1m1 0h3m2 0h1m1 0h1m1 0h1m6 0h2m1 0h1m1 0h1m1 0h1m2 0h2m2 0h3m2 0h5m2 0h3m5 0h1m1 0h2m2 0h4m3 0h2m3 0h2m1 0h1m6 0h1m1 0h1m2 0h1m5 0h1m2 0h1m2 0h3m2 0h1m1 0h2m1 0h5M9 29.5h1m1 0h1m2 0h3m1 0h1m1 0h2m1 0h2m2 0h2m3 0h1m1 0h1m1 0h1m2 0h5m1 0h1m1 0h1m1 0h7m5 0h1m3 0h1m2 0h2m1 0h1m1 0h3m1 0h2m1 0h2m1 0h2m3 0h1m1 0h2m1 0h1m2 0h2m3 0h1m2 0h3m1 0h1m1 0h1m2 0h4m1 0h1m4 0h2m1 0h1m4 0h2m1 0h5m1 0h1m2 0h1m1 0h2M4 30.5h2m1 0h2m1 0h1m3 0h1m4 0h2m1 0h2m2 0h1m2 0h1m2 0h1m1 0h2m2 0h7m1 0h2m1 0h2m1 0h1m1 0h1m1 0h2m1 0h3m1 0h1m2 0h4m6 0h1m1 0h2m4 0h4m2 0h6m1 0h6m3 0h1m2 0h2m1 0h1m1 0h3m2 0h6m3 0h1m2 0h3m4 0h1m3 0h1m2 0h1m2 0h1M4 31.5h1m2 0h1m3 0h1m2 0h1m2 0h4m1 0h1m2 0h1m1 0h4m1 0h3m1 0h2m2 0h1m5 0h1m1 0h1m2 0h2m2 0h1m5 0h1m1 0h1m3 0h2m1 0h1m2 0h1m1 0h1m2 0h3m1 0h1m1 0h2m1 0h5m1 0h3m3 0h1m4 0h1m1 0h1m2 0h1m2 0h2m3 0h1m2 0h1m3 0h2m1 0h3m4 0h1m1 0h2m2 0h3m1 0h2m1 0h2M8 32.5h1m1 0h2m1 0h3m1 0h3m1 0h1m1 0h3m2 0h2m1 0h2m3 0h1m1 0h2m1 0h1m1 0h1m2 0h1m1 0h2m1 0h1m1 0h1m1 0h3m2 0h1m3 0h3m4 0h1m3 0h5m1 0h1m2 0h1m1 0h1m1 0h2m2 0h1m3 0h4m2 0h3m3 0h1m1 0h3m3 0h1m1 0h1m1 0h1m7 0h1m1 0h1m2 0h1m3 0h1m1 0h4m1 0h1m1 0h1M5 33.5h5m3 0h1m7 0h4m3 0h1m1 0h1m2 0h5m3 0h2m4 0h1m1 0h2m1 0h1m1 0h2m2 0h1m9 0h1m2 0h1m1 0h3m4 0h1m1 0h5m2 0h1m1 0h1m1 0h2m1 0h1m1 0h1m3 0h1m1 0h2m2 0h1m2 0h3m1 0h3m3 0h1m2 0h1m1 0h2m1 0h1m1 0h1m1 0h1m2 0h2m5 0h1m2 0h1M5 34.5h1m2 0h1m1 0h2m1 0h5m1 0h1m2 0h1m1 0h2m1 0h1m1 0h2m2 0h1m1 0h5m3 0h2m1 0h2m2 0h1m1 0h3m3 0h2m2 0h1m2 0h4m3 0h3m4 0h1m1 0h2m3 0h2m3 0h1m1 0h2m2 0h5m7 0h1m1 0h2m2 0h2m2 0h6m6 0h1m1 0h3m2 0h3m2 0h2m3 0h1M6 35.5h1m6 0h3m8 0h3m3 0h5m1 0h1m2 0h1m1 0h1m2 0h1m2 0h4m3 0h2m3 0h2m2 0h1m2 0h2m2 0h1m2 0h2m3 0h1m1 0h1m1 0h1m2 0h3m1 0h2m2 0h2m4 0h3m3 0h3m5 0h3m1 0h2m1 0h1m1 0h1m2 0h5m2 0h1m4 0h1m3 0h3M6 36.5h10m2 0h2m1 0h3m3 0h2m1 0h2m2 0h7m2 0h2m1 0h1m1 0h2m1 0h1m1 0h1m1 0h2m1 0h1m1 0h1m1 0h5m1 0h1m2 0h1m4 0h2m3 0h1m1 0h2m3 0h6m1 0h1m2 0h1m1 0h1m1 0h1m1 0h2m2 0h1m1 0h1m1 0h1m1 0h5m2 0h1m2 0h1m1 0h1m2 0h2m1 0h1m1 0h2m1 0h12M8 37.5h1m3 0h1m1 0h6m2 0h1m2 0h9m1 0h2m3 0h2m5 0h1m2 0h1m1 0h2m3 0h1m1 0h1m1 0h2m3 0h1m2 0h3m3 0h1m1 0h1m2 0h1m1 0h3m1 0h1m1 0h1m3 0h1m2 0h2m1 0h1m2 0h5m2 0h2m1 0h1m2 0h1m3 0h2m3 0h5m3 0h3m1 0h3m1 0h2m3 0h1M4 38.5h2m2 0h1m1 0h1m1 0h1m1 0h1m2 0h3m1 0h1m1 0h1m1 0h3m1 0h3m1 0h1m1 0h2m1 0h1m1 0h3m3 0h2m1 0h7m1 0h2m2 0h2m1 0h1m1 0h4m3 0h1m5 0h1m4 0h2m2 0h1m1 0h1m1 0h2m3 0h1m1 0h2m2 0h1m2 0h1m2 0h6m1 0h1m1 0h2m1 0h3m2 0h1m1 0h1m1 0h2m1 0h4m1 0h3m1 0h1m1 0h3m1 0h1M5 39.5h1m1 0h2m3 0h3m2 0h1m2 0h4m4 0h1m3 0h1m1 0h3m3 0h1m4 0h1m2 0h1m3 0h1m2 0h2m1 0h3m1 0h1m3 0h1m1 0h1m1 0h1m2 0h3m2 0h1m4 0h3m1 0h2m3 0h4m1 0h1m1 0h1m3 0h1m2 0h2m1 0h1m2 0h1m1 0h1m3 0h1m5 0h2m1 0h1m1 0h2m6 0h2m1 0h1m3 0h1m2 0h2M5 40.5h1m1 0h9m1 0h2m1 0h2m3 0h1m3 0h3m1 0h2m1 0h6m1 0h1m1 0h2m1 0h2m3 0h1m1 0h2m1 0h1m1 0h7m1 0h5m1 0h1m1 0h6m2 0h1m2 0h7m2 0h3m2 0h2m2 0h1m1 0h1m2 0h2m2 0h5m6 0h1m1 0h2m1 0h1m1 0h1m3 0h3m1 0h7m1 0h1M4 41.5h2m2 0h2m1 0h1m1 0h2m1 0h4m1 0h1m2 0h1m1 0h3m5 0h2m2 0h1m1 0h1m1 0h1m1 0h1m2 0h1m1 0h2m1 0h1m1 0h1m10 0h1m2 0h2m1 0h2m2 0h1m2 0h1m3 0h4m3 0h1m1 0h3m2 0h1m6 0h2m3 0h1m7 0h1m1 0h4m1 0h2m4 0h4m1 0h2m4 0h1m1 0h1m1 0h1M7 42.5h4m1 0h1m3 0h1m1 0h1m8 0h1m1 0h1m1 0h1m1 0h3m3 0h2m2 0h5m1 0h1m2 0h3m9 0h1m2 0h1m4 0h2m2 0h2m1 0h2m3 0h1m2 0h5m2 0h2m2 0h5m3 0h1m3 0h3m1 0h6m1 0h3m4 0h1m1 0h4m1 0h2m2 0h1m5 0h1m1 0h2M4 43.5h1m1 0h2m1 0h1m2 0h1m1 0h1m1 0h1m2 0h1m1 0h1m1 0h4m3 0h5m1 0h1m1 0h1m1 0h3m1 0h5m6 0h2m1 0h1m2 0h4m1 0h2m2 0h1m1 0h3m4 0h1m2 0h1m2 0h2m1 0h3m2 0h2m4 0h2m3 0h3m4 0h1m1 0h3m4 0h1m1 0h1m2 0h5m6 0h4m2 0h1m1 0h1m3 0h1M4 44.5h1m2 0h2m1 0h1m3 0h2m4 0h1m1 0h2m2 0h1m5 0h3m1 0h1m1 0h1m2 0h1m1 0h5m1 0h1m5 0h5m1 0h3m4 0h2m4 0h9m4 0h1m2 0h3m2 0h6m1 0h1m2 0h1m2 0h4m2 0h1m2 0h2m6 0h3m2 0h3m5 0h2m1 0h2m2 0h2M6 45.5h3m2 0h2m2 0h4m1 0h6m1 0h2m2 0h1m2 0h2m1 0h2m1 0h1m1 0h2m3 0h1m2 0h1m1 0h3m2 0h1m3 0h1m2 0h2m3 0h1m1 0h3m1 0h2m3 0h4m1 0h1m1 0h1m3 0h3m2 0h1m1 0h2m4 0h1m2 0h5m1 0h1m3 0h1m2 0h3m1 0h1m6 0h1m1 0h4m1 0h3m1 0h3m1 0h1M5 46.5h1m4 0h1m1 0h1m3 0h6m2 0h2m2 0h1m1 0h1m1 0h4m4 0h3m2 0h2m2 0h2m3 0h3m2 0h1m1 0h1m5 0h2m3 0h1m3 0h1m1 0h4m2 0h1m3 0h1m1 0h1m4 0h1m1 0h4m1 0h1m2 0h1m1 0h1m4 0h2m1 0h1m2 0h2m1 0h1m1 0h2m3 0h1m1 0h4m1 0h2m2 0h1m1 0h1m1 0h1m1 0h4M6 47.5h1m5 0h1m1 0h1m2 0h1m3 0h1m2 0h1m1 0h2m1 0h2m3 0h1m3 0h1m2 0h1m1 0h3m1 0h3m1 0h1m4 0h3m2 0h5m1 0h1m2 0h1m2 0h1m2 0h1m1 0h2m2 0h1m2 0h1m2 0h1m1 0h2m1 0h3m3 0h3m1 0h1m2 0h2m1 0h1m1 0h5m4 0h1m1 0h1m2 0h3m1 0h2m3 0h1m1 0h2m1 0h1m2 0h4m2 0h1M4 48.5h3m1 0h3m2 0h2m2 0h3m1 0h1m1 0h1m2 0h1m1 0h1m1 0h2m2 0h1m1 0h3m2 0h1m1 0h7m3 0h1m1 0h2m1 0h1m1 0h1m1 0h2m3 0h1m1 0h1m1 0h1m2 0h5m2 0h1m1 0h1m5 0h1m1 0h2m4 0h1m1 0h2m1 0h1m1 0h2m1 0h1m2 0h1m3 0h1m1 0h2m3 0h2m1 0h1m1 0h1m3 0h1m1 0h2m5 0h1m1 0h1m1 0h5M5 49.5h1m1 0h3m1 0h2m1 0h1m2 0h5m2 0h2m1 0h1m2 0h1m2 0h1m6 0h4m6 0h6m3 0h1m5 0h1m3 0h1m1 0h1m3 0h2m1 0h1m4 0h1m2 0h1m2 0h1m1 0h2m1 0h1m1 0h2m3 0h1m2 0h2m2 0h1m1 0h2m1 0h1m2 0h2m4 0h3m1 0h3m6 0h3m2 0h1m1 0h3m1 0h1m1 0h1M4 50.5h1m1 0h2m1 0h6m1 0h6m3 0h1m2 0h1m2 0h2m1 0h4m2 0h1m1 0h1m1 0h1m1 0h1m2 0h2m7 0h1m2 0h1m1 0h1m1 0h1m1 0h1m2 0h1m2 0h2m2 0h1m1 0h1m5 0h4m1 0h2m3 0h1m1 0h1m2 0h4m3 0h1m3 0h2m1 0h2m1 0h1m1 0h6m1 0h1m1 0h1m2 0h1m1 0h1m1 0h2m2 0h1m5 0h1m1 0h2M4 51.5h1m1 0h2m1 0h1m2 0h1m1 0h5m1 0h1m1 0h1m1 0h1m4 0h6m1 0h6m1 0h1m1 0h4m2 0h1m1 0h2m4 0h4m2 0h4m3 0h2m2 0h1m1 0h3m3 0h2m1 0h1m2 0h3m1 0h2m4 0h2m1 0h1m1 0h2m4 0h2m1 0h3m8 0h6m6 0h1m1 0h1m1 0h1m5 0h2M10 52.5h1m3 0h1m3 0h1m1 0h2m1 0h1m1 0h1m3 0h2m2 0h1m1 0h3m3 0h1m1 0h2m1 0h3m6 0h5m4 0h1m1 0h2m1 0h2m1 0h1m2 0h3m1 0h3m4 0h1m1 0h2m2 0h2m1 0h2m1 0h2m1 0h2m1 0h1m2 0h1m1 0h5m3 0h1m2 0h2m2 0h3m3 0h1m2 0h1m1 0h2m1 0h2m1 0h8M5 53.5h4m3 0h3m1 0h3m1 0h3m1 0h2m1 0h3m1 0h1m1 0h3m3 0h2m1 0h2m1 0h2m2 0h6m4 0h1m1 0h1m3 0h2m3 0h2m4 0h2m2 0h5m4 0h1m1 0h2m3 0h1m6 0h3m1 0h2m1 0h1m2 0h1m2 0h6m1 0h3m1 0h1m2 0h2m1 0h2m1 0h1m1 0h1m2 0h4m1 0h1M4 54.5h3m1 0h3m2 0h1m2 0h1m1 0h1m2 0h2m1 0h2m1 0h1m3 0h1m1 0h1m1 0h3m3 0h1m4 0h1m3 0h1m1 0h3m2 0h2m5 0h1m2 0h2m1 0h1m2 0h1m2 0h1m1 0h2m1 0h1m4 0h5m2 0h3m1 0h1m2 0h1m2 0h1m2 0h1m2 0h1m2 0h1m1 0h2m3 0h1m1 0h3m2 0h3m1 0h4m1 0h1m2 0h1m4 0h1m1 0h1m1 0h2M5 55.5h2m1 0h2m2 0h2m1 0h6m1 0h3m1 0h1m2 0h1m1 0h1m4 0h1m1 0h1m1 0h2m1 0h1m1 0h6m1 0h1m3 0h1m2 0h4m2 0h1m1 0h2m1 0h1m2 0h1m1 0h1m4 0h1m3 0h2m2 0h5m1 0h2m1 0h1m1 0h2m5 0h1m2 0h1m2 0h1m2 0h2m5 0h1m2 0h1m1 0h4m3 0h1m2 0h1m1 0h1m2 0h2m1 0h1m1 0h2M5 56.5h3m1 0h2m2 0h3m3 0h3m1 0h1m1 0h10m1 0h2m1 0h1m1 0h1m1 0h4m1 0h1m4 0h1m2 0h5m2 0h2m2 0h1m1 0h4m2 0h4m1 0h2m1 0h1m2 0h2m1 0h1m2 0h1m2 0h1m1 0h4m1 0h1m2 0h1m2 0h1m1 0h4m2 0h2m1 0h1m2 0h1m1 0h3m1 0h5m6 0h2m5 0h1M4 57.5h1m2 0h1m1 0h1m2 0h1m2 0h2m1 0h1m1 0h1m1 0h2m1 0h4m1 0h5m5 0h4m1 0h1m1 0h1m2 0h5m4 0h1m4 0h2m2 0h5m1 0h2m7 0h1m3 0h3m2 0h5m2 0h1m1 0h4m1 0h4m3 0h1m2 0h3m3 0h2m1 0h1m3 0h1m1 0h1m1 0h1m1 0h1m1 0h1m2 0h1m1 0h1m1 0h1m1 0h2M4 58.5h1m1 0h2m1 0h6m2 0h2m2 0h1m1 0h1m2 0h3m1 0h3m1 0h2m1 0h1m2 0h1m1 0h3m1 0h1m1 0h2m2 0h1m1 0h1m2 0h1m1 0h1m1 0h1m3 0h1m1 0h3m3 0h1m2 0h5m3 0h1m1 0h3m1 0h1m3 0h2m2 0h3m1 0h2m1 0h1m1 0h1m1 0h4m1 0h3m3 0h2m1 0h1m2 0h1m1 0h1m1 0h2m1 0h4m1 0h1m4 0h1m1 0h1m2 0h1M4 59.5h3m2 0h1m1 0h2m3 0h2m1 0h1m1 0h1m4 0h3m1 0h2m1 0h1m2 0h1m3 0h2m2 0h1m3 0h6m4 0h1m2 0h5m1 0h1m2 0h4m1 0h1m2 0h2m2 0h4m1 0h2m2 0h1m2 0h2m1 0h1m1 0h3m1 0h2m1 0h2m3 0h4m1 0h1m1 0h1m3 0h1m2 0h1m1 0h1m1 0h1m2 0h1m1 0h1m1 0h3m2 0h1m3 0h1m2 0h1M4 60.5h1m4 0h4m3 0h1m3 0h1m1 0h1m1 0h9m1 0h1m1 0h1m1 0h1m2 0h1m2 0h4m9 0h4m2 0h1m2 0h2m1 0h1m1 0h1m3 0h3m1 0h1m1 0h2m1 0h1m2 0h2m7 0h1m1 0h1m1 0h1m1 0h1m1 0h1m5 0h2m4 0h2m3 0h1m3 0h6m7 0h1m3 0h2m2 0h2M5 61.5h3m3 0h1m1 0h1m2 0h1m1 0h3m4 0h4m3 0h1m2 0h1m1 0h2m1 0h1m1 0h2m3 0h1m1 0h4m1 0h2m3 0h1m1 0h1m2 0h3m1 0h4m1 0h1m1 0h1m1 0h1m2 0h1m2 0h3m3 0h1m2 0h1m3 0h1m2 0h1m6 0h1m1 0h1m8 0h1m1 0h1m1 0h1m1 0h2m1 0h2m2 0h2m2 0h7m1 0h1m1 0h1m1 0h1M4 62.5h1m1 0h9m3 0h2m4 0h1m1 0h1m2 0h2m1 0h1m3 0h7m3 0h1m3 0h2m1 0h1m3 0h3m1 0h7m2 0h1m2 0h2m1 0h1m2 0h1m1 0h2m1 0h1m1 0h8m1 0h1m1 0h1m2 0h2m5 0h1m1 0h11m1 0h3m6 0h4m1 0h1m3 0h7m2 0h1M6 63.5h3m3 0h2m3 0h1m1 0h3m1 0h1m3 0h7m2 0h1m3 0h1m1 0h2m1 0h2m1 0h8m2 0h1m1 0h3m3 0h3m2 0h1m1 0h1m1 0h1m2 0h1m5 0h3m1 0h1m3 0h3m1 0h2m3 0h1m4 0h1m1 0h1m2 0h1m1 0h2m3 0h1m1 0h1m1 0h1m1 0h4m1 0h1m2 0h1m1 0h1m2 0h4m3 0h1m2 0h2M5 64.5h1m1 0h2m1 0h1m1 0h5m5 0h1m1 0h1m1 0h2m2 0h1m2 0h4m1 0h1m1 0h2m2 0h1m1 0h1m1 0h1m4 0h1m1 0h2m1 0h1m1 0h1m1 0h1m1 0h1m1 0h2m1 0h1m5 0h3m1 0h3m4 0h1m1 0h1m1 0h1m1 0h1m5 0h1m1 0h3m1 0h1m9 0h1m1 0h1m1 0h2m2 0h1m2 0h2m3 0h3m1 0h1m4 0h2m1 0h1m1 0h1m1 0h3M6 65.5h3m3 0h1m1 0h1m4 0h1m2 0h2m3 0h2m1 0h4m2 0h1m3 0h4m5 0h2m1 0h1m1 0h1m7 0h1m3 0h1m1 0h1m1 0h4m1 0h1m1 0h1m3 0h3m2 0h3m3 0h3m1 0h2m5 0h3m1 0h2m1 0h2m2 0h1m3 0h2m1 0h1m1 0h1m3 0h1m4 0h2m1 0h1m3 0h2m3 0h2M4 66.5h1m2 0h7m1 0h1m2 0h3m3 0h1m3 0h1m1 0h11m2 0h1m1 0h3m1 0h1m1 0h1m1 0h2m2 0h1m3 0h8m1 0h1m1 0h2m2 0h1m2 0h3m2 0h1m1 0h7m2 0h1m1 0h2m1 0h3m4 0h1m3 0h2m1 0h6m1 0h4m3 0h1m1 0h2m1 0h4m3 0h5m1 0h3M4 67.5h3m1 0h1m5 0h1m2 0h2m2 0h1m2 0h2m2 0h2m1 0h1m3 0h1m3 0h2m1 0h1m1 0h3m4 0h2m2 0h2m1 0h6m1 0h1m1 0h2m1 0h1m2 0h4m1 0h2m2 0h1m1 0h2m1 0h1m2 0h1m3 0h4m1 0h3m1 0h2m1 0h4m1 0h1m3 0h3m4 0h1m2 0h1m1 0h1m1 0h1m6 0h2m1 0h1m1 0h1M4 68.5h1m1 0h5m3 0h1m6 0h2m1 0h5m1 0h5m3 0h1m5 0h1m1 0h1m1 0h2m2 0h2m1 0h7m1 0h2m6 0h2m1 0h1m1 0h4m1 0h1m4 0h2m2 0h1m4 0h1m2 0h1m3 0h1m1 0h1m5 0h1m1 0h4m2 0h2m2 0h1m1 0h1m2 0h1m2 0h1m1 0h1m1 0h1m1 0h2m2 0h1m3 0h1m2 0h1M4 69.5h1m1 0h3m3 0h2m2 0h1m1 0h1m1 0h1m3 0h2m1 0h1m2 0h2m5 0h1m1 0h1m1 0h2m4 0h1m3 0h2m1 0h2m6 0h3m4 0h2m2 0h5m2 0h2m1 0h2m3 0h2m1 0h1m2 0h3m2 0h1m3 0h2m3 0h4m4 0h2m1 0h1m1 0h1m1 0h4m4 0h1m1 0h1m5 0h1m1 0h3m3 0h1M5 70.5h3m2 0h1m1 0h1m4 0h6m2 0h1m1 0h3m1 0h2m1 0h2m4 0h2m1 0h1m1 0h1m1 0h2m1 0h1m1 0h4m3 0h1m1 0h1m3 0h4m3 0h2m5 0h2m1 0h1m1 0h2m1 0h1m4 0h1m1 0h1m2 0h7m1 0h2m2 0h1m2 0h3m1 0h7m3 0h1m3 0h7m2 0h4m1 0h1m3 0h1M4 71.5h1m3 0h1m2 0h3m2 0h1m2 0h2m1 0h1m2 0h1m2 0h2m1 0h5m3 0h4m1 0h2m2 0h3m1 0h1m1 0h1m3 0h7m2 0h2m4 0h1m5 0h2m3 0h2m1 0h5m2 0h1m2 0h1m2 0h2m1 0h4m2 0h1m2 0h1m2 0h1m8 0h4m4 0h1m4 0h4m2 0h1m1 0h1m2 0h1M8 72.5h1m1 0h1m1 0h1m3 0h2m1 0h2m1 0h1m1 0h1m3 0h2m1 0h1m1 0h1m4 0h2m1 0h1m1 0h4m1 0h1m2 0h1m1 0h1m1 0h10m2 0h1m1 0h1m5 0h1m1 0h3m1 0h1m1 0h1m3 0h1m1 0h3m4 0h5m1 0h1m5 0h1m1 0h2m1 0h1m2 0h1m1 0h1m1 0h3m1 0h2m1 0h2m4 0h1m1 0h2m1 0h1m2 0h1m2 0h4M4 73.5h1m1 0h2m1 0h1m1 0h1m4 0h1m2 0h1m1 0h2m7 0h3m1 0h1m3 0h1m3 0h1m2 0h1m1 0h1m1 0h6m2 0h1m1 0h1m2 0h2m2 0h1m1 0h1m1 0h1m1 0h2m1 0h2m1 0h1m1 0h6m4 0h1m1 0h1m1 0h1m1 0h3m2 0h1m1 0h3m1 0h2m2 0h4m1 0h4m1 0h1m2 0h1m6 0h3m1 0h1m2 0h3m1 0h3m1 0h1M8 74.5h6m1 0h2m3 0h1m1 0h1m3 0h2m1 0h1m1 0h1m2 0h3m3 0h1m1 0h1m2 0h1m1 0h2m2 0h4m2 0h1m6 0h1m2 0h1m2 0h1m1 0h2m2 0h5m1 0h1m2 0h2m2 0h1m1 0h4m5 0h3m2 0h3m1 0h1m1 0h2m3 0h2m1 0h3m1 0h1m2 0h1m1 0h1m1 0h2m1 0h4m1 0h2m1 0h4m1 0h3M4 75.5h2m3 0h1m2 0h1m1 0h1m1 0h1m1 0h1m4 0h2m2 0h1m2 0h5m5 0h1m5 0h1m1 0h4m2 0h1m1 0h1m1 0h5m1 0h1m1 0h3m2 0h3m1 0h2m1 0h2m2 0h1m2 0h4m1 0h2m2 0h2m3 0h2m2 0h2m1 0h4m2 0h1m1 0h2m1 0h2m3 0h1m2 0h3m1 0h1m6 0h2m5 0h1m3 0h1M7 76.5h1m1 0h3m2 0h1m1 0h1m1 0h1m2 0h2m2 0h1m1 0h1m1 0h2m1 0h1m3 0h6m1 0h4m1 0h1m2 0h2m2 0h2m1 0h5m4 0h2m1 0h1m3 0h1m2 0h2m1 0h4m2 0h2m3 0h1m1 0h1m2 0h3m2 0h2m1 0h2m4 0h2m1 0h3m4 0h2m3 0h2m2 0h2m1 0h1m1 0h1m1 0h1m6 0h1m2 0h1m1 0h1M4 77.5h3m4 0h4m2 0h2m4 0h2m6 0h1m1 0h1m4 0h1m2 0h3m5 0h2m1 0h1m1 0h1m2 0h1m4 0h3m1 0h1m1 0h1m2 0h2m1 0h1m2 0h1m2 0h4m6 0h1m2 0h1m1 0h2m4 0h1m2 0h1m1 0h1m1 0h3m4 0h1m1 0h2m4 0h1m2 0h3m2 0h1m1 0h1m2 0h1m1 0h2m2 0h1m1 0h1m1 0h2M6 78.5h2m1 0h2m3 0h4m1 0h6m3 0h1m3 0h1m1 0h1m1 0h1m1 0h1m1 0h1m2 0h1m4 0h1m2 0h3m1 0h3m1 0h1m1 0h1m3 0h4m3 0h1m3 0h1m2 0h1m1 0h1m4 0h2m4 0h1m7 0h2m1 0h1m1 0h2m4 0h2m3 0h1m1 0h1m1 0h2m1 0h1m4 0h1m1 0h7m1 0h8m1 0h2M4 79.5h3m1 0h1m2 0h1m1 0h2m1 0h1m3 0h3m6 0h1m1 0h3m1 0h1m1 0h1m1 0h1m1 0h1m1 0h5m1 0h1m2 0h1m5 0h1m1 0h1m3 0h1m1 0h3m2 0h5m2 0h3m1 0h4m1 0h5m1 0h2m1 0h2m2 0h2m1 0h4m5 0h1m1 0h3m1 0h1m3 0h1m2 0h1m1 0h4m6 0h3m3 0h1m1 0h1m1 0h1M5 80.5h1m1 0h1m1 0h2m1 0h2m1 0h3m3 0h1m1 0h3m1 0h5m6 0h1m1 0h1m2 0h4m1 0h2m3 0h1m1 0h4m1 0h2m5 0h1m1 0h4m1 0h4m1 0h6m1 0h1m2 0h2m2 0h2m2 0h4m1 0h1m1 0h1m2 0h7m5 0h1m7 0h1m1 0h1m2 0h3m2 0h2m1 0h2m2 0h1m1 0h3M6 81.5h1m2 0h1m1 0h1m1 0h1m2 0h1m1 0h1m1 0h1m2 0h3m3 0h4m1 0h1m1 0h1m1 0h2m1 0h2m2 0h1m3 0h4m1 0h1m4 0h1m3 0h2m3 0h2m1 0h3m1 0h2m3 0h6m5 0h1m2 0h1m1 0h2m5 0h4m1 0h4m4 0h2m1 0h1m1 0h2m1 0h2m1 0h1m1 0h1m4 0h3m1 0h2m2 0h3m2 0h1M5 82.5h2m1 0h1m1 0h1m4 0h1m1 0h2m2 0h5m1 0h1m1 0h1m3 0h3m3 0h5m2 0h2m4 0h1m2 0h6m4 0h3m1 0h2m1 0h3m1 0h4m2 0h1m1 0h5m2 0h2m4 0h4m1 0h1m3 0h1m2 0h1m2 0h2m5 0h6m5 0h2m1 0h3m4 0h6m2 0h1M6 83.5h2m1 0h1m1 0h1m5 0h1m7 0h6m1 0h1m1 0h4m1 0h2m3 0h1m2 0h1m1 0h1m1 0h1m1 0h1m2 0h1m1 0h2m1 0h2m1 0h2m5 0h1m1 0h1m2 0h1m1 0h1m1 0h1m1 0h1m1 0h7m3 0h2m1 0h1m1 0h1m5 0h2m1 0h1m3 0h1m2 0h1m1 0h1m2 0h1m3 0h5m3 0h1m1 0h1m2 0h2m1 0h1m6 0h2M6 84.5h1m3 0h3m1 0h3m1 0h1m3 0h2m1 0h1m1 0h2m1 0h2m4 0h1m1 0h3m3 0h1m1 0h1m1 0h2m6 0h1m1 0h1m1 0h2m2 0h1m1 0h4m2 0h1m1 0h1m1 0h3m11 0h1m5 0h10m1 0h5m1 0h1m1 0h2m2 0h2m1 0h2m1 0h5m1 0h3m1 0h4m2 0h2m2 0h2M4 85.5h2m1 0h3m1 0h1m5 0h2m7 0h1m2 0h1m1 0h1m2 0h5m2 0h2m2 0h1m1 0h1m2 0h4m1 0h1m3 0h1m2 0h3m2 0h1m1 0h5m1 0h2m4 0h1m1 0h3m3 0h1m2 0h3m1 0h3m2 0h1m1 0h2m1 0h1m1 0h1m3 0h1m1 0h1m2 0h3m1 0h1m1 0h1m2 0h3m9 0h3m1 0h1m1 0h1m1 0h1M5 86.5h2m1 0h1m1 0h4m1 0h1m1 0h1m10 0h1m1 0h5m1 0h1m1 0h8m1 0h4m4 0h1m1 0h2m3 0h1m2 0h4m1 0h1m5 0h1m2 0h2m1 0h1m1 0h4m1 0h1m1 0h2m4 0h1m2 0h1m5 0h1m4 0h2m1 0h1m2 0h7m4 0h1m1 0h4m1 0h1m3 0h1m2 0h7M6 87.5h4m1 0h2m3 0h2m1 0h1m1 0h4m2 0h1m1 0h1m1 0h6m3 0h1m1 0h1m1 0h1m4 0h1m1 0h1m4 0h2m2 0h2m5 0h1m3 0h3m6 0h1m1 0h1m1 0h3m3 0h2m1 0h5m1 0h2m3 0h4m4 0h1m1 0h4m4 0h1m1 0h7m1 0h1m4 0h1m3 0h1M4 88.5h1m3 0h5m4 0h1m1 0h2m1 0h1m1 0h1m2 0h1m1 0h2m2 0h2m1 0h6m1 0h4m1 0h2m1 0h3m2 0h5m1 0h6m1 0h1m4 0h1m1 0h2m1 0h3m2 0h1m1 0h8m1 0h1m1 0h3m2 0h3m2 0h12m1 0h2m1 0h1m5 0h2m3 0h5m1 0h5m1 0h2M6 89.5h1m1 0h1m3 0h1m2 0h2m6 0h1m1 0h1m1 0h1m3 0h1m4 0h1m3 0h1m1 0h1m4 0h1m1 0h4m1 0h2m1 0h1m3 0h2m3 0h1m1 0h1m1 0h2m1 0h1m1 0h2m3 0h4m2 0h3m3 0h3m1 0h1m1 0h1m2 0h5m1 0h5m1 0h2m3 0h1m2 0h2m3 0h1m3 0h2m2 0h1m1 0h2m2 0h1m3 0h3M4 90.5h1m3 0h1m1 0h1m1 0h2m3 0h3m1 0h1m2 0h2m6 0h1m3 0h1m1 0h1m1 0h1m1 0h2m4 0h1m1 0h2m1 0h1m3 0h3m1 0h2m1 0h1m1 0h4m3 0h1m3 0h1m1 0h1m1 0h1m2 0h3m1 0h1m1 0h1m1 0h1m1 0h1m2 0h1m1 0h2m2 0h1m2 0h1m5 0h1m1 0h1m1 0h1m1 0h4m6 0h1m2 0h1m1 0h1m1 0h1m2 0h3m1 0h1m1 0h1m2 0h2M4 91.5h1m2 0h2m3 0h2m1 0h2m3 0h3m1 0h1m3 0h3m2 0h1m1 0h2m3 0h2m1 0h4m5 0h2m2 0h3m3 0h1m3 0h1m1 0h1m1 0h1m2 0h2m1 0h1m1 0h2m2 0h2m1 0h1m1 0h2m3 0h1m1 0h1m4 0h3m1 0h2m1 0h1m1 0h2m1 0h4m3 0h1m1 0h1m1 0h1m1 0h1m1 0h2m1 0h1m2 0h1m1 0h1m2 0h4m3 0h2m1 0h1M5 92.5h1m2 0h5m1 0h2m1 0h1m1 0h1m1 0h4m1 0h2m1 0h1m4 0h1m1 0h5m2 0h2m1 0h2m1 0h1m1 0h1m1 0h1m1 0h4m1 0h8m1 0h3m1 0h1m1 0h2m1 0h1m2 0h1m1 0h1m2 0h1m1 0h5m2 0h1m2 0h1m2 0h1m2 0h2m1 0h1m2 0h1m3 0h8m1 0h1m1 0h7m1 0h3m1 0h11M5 93.5h1m9 0h1m1 0h4m3 0h2m2 0h1m1 0h2m1 0h1m2 0h5m1 0h1m7 0h6m5 0h2m1 0h3m2 0h3m1 0h4m1 0h1m2 0h4m3 0h1m1 0h1m2 0h1m2 0h2m3 0h2m1 0h2m2 0h1m9 0h1m2 0h1m1 0h2m1 0h1m2 0h2m1 0h2m1 0h2m9 0h2M4 94.5h2m1 0h1m2 0h1m6 0h3m1 0h7m1 0h2m1 0h4m1 0h3m1 0h3m2 0h2m1 0h1m1 0h1m1 0h3m1 0h1m3 0h1m1 0h1m2 0h2m1 0h2m6 0h1m1 0h2m1 0h1m2 0h1m6 0h2m3 0h4m5 0h2m4 0h1m2 0h3m1 0h1m1 0h4m3 0h1m2 0h6m1 0h6m1 0h1m1 0h2M6 95.5h2m3 0h1m2 0h1m2 0h5m1 0h2m5 0h1m3 0h2m3 0h3m1 0h4m5 0h2m5 0h2m3 0h4m5 0h3m2 0h2m3 0h1m1 0h4m3 0h5m8 0h2m5 0h1m1 0h5m1 0h1m4 0h3m1 0h1m6 0h2m1 0h1m2 0h3M4 96.5h5m1 0h3m1 0h3m2 0h1m3 0h2m2 0h3m2 0h1m1 0h3m3 0h2m1 0h2m1 0h1m1 0h1m2 0h1m3 0h6m1 0h1m2 0h1m2 0h2m1 0h2m1 0h1m1 0h3m1 0h3m4 0h2m1 0h2m1 0h1m3 0h2m1 0h4m3 0h6m2 0h2m1 0h1m1 0h1m1 0h1m1 0h1m2 0h1m1 0h1m1 0h5m2 0h1m1 0h1m4 0h3M4 97.5h1m3 0h2m4 0h2m2 0h1m2 0h1m1 0h1m1 0h2m1 0h1m1 0h1m2 0h6m1 0h3m2 0h1m1 0h1m2 0h5m2 0h1m4 0h3m1 0h1m3 0h2m1 0h4m1 0h1m1 0h7m3 0h1m2 0h2m1 0h1m1 0h1m3 0h1m1 0h1m1 0h1m1 0h1m1 0h2m1 0h4m1 0h1m1 0h1m2 0h1m1 0h1m3 0h1m1 0h2m2 0h1m3 0h1m1 0h1m3 0h1M4 98.5h1m1 0h2m1 0h3m1 0h2m1 0h1m1 0h1m1 0h1m1 0h1m3 0h1m2 0h1m3 0h2m2 0h1m1 0h1m1 0h1m1 0h1m3 0h1m2 0h1m1 0h2m1 0h1m2 0h6m3 0h2m1 0h1m1 0h1m3 0h4m4 0h3m2 0h1m1 0h1m1 0h3m1 0h4m5 0h2m1 0h1m1 0h2m2 0h3m1 0h5m4 0h1m1 0h4m1 0h1m3 0h1m2 0h3m3 0h1M5 99.5h2m1 0h1m2 0h1m1 0h1m2 0h1m1 0h2m1 0h5m1 0h1m2 0h4m1 0h1m3 0h3m2 0h1m1 0h2m1 0h1m1 0h3m2 0h6m2 0h5m1 0h1m2 0h1m6 0h1m1 0h1m1 0h3m1 0h2m1 0h2m1 0h3m2 0h3m3 0h2m2 0h1m2 0h1m1 0h1m3 0h1m1 0h1m3 0h2m1 0h3m2 0h1m1 0h1m1 0h1m1 0h1m3 0h1m1 0h2M4 100.5h2m1 0h1m1 0h2m1 0h3m2 0h1m1 0h1m2 0h1m1 0h2m1 0h2m1 0h1m1 0h3m2 0h1m2 0h1m2 0h2m1 0h1m1 0h1m4 0h1m2 0h1m1 0h6m1 0h1m1 0h1m1 0h1m4 0h5m2 0h3m2 0h1m2 0h1m1 0h1m3 0h1m1 0h2m2 0h1m1 0h3m1 0h4m2 0h3m2 0h3m3 0h1m2 0h1m1 0h2m1 0h2m1 0h1m1 0h1m1 0h1m1 0h1m4 0h3M6 101.5h1m1 0h1m3 0h1m1 0h1m5 0h1m3 0h1m4 0h4m1 0h3m1 0h1m3 0h1m2 0h1m1 0h1m1 0h2m1 0h1m1 0h2m1 0h2m2 0h4m3 0h4m3 0h1m1 0h2m3 0h2m1 0h1m1 0h1m5 0h4m4 0h4m1 0h6m3 0h2m5 0h2m2 0h1m3 0h1m1 0h5m5 0h1m4 0h1M4 102.5h1m2 0h6m1 0h1m2 0h3m1 0h1m2 0h1m4 0h1m3 0h2m2 0h3m1 0h2m4 0h1m1 0h2m1 0h1m2 0h1m3 0h2m2 0h1m3 0h1m2 0h1m2 0h2m1 0h1m1 0h2m1 0h2m1 0h3m3 0h3m1 0h2m1 0h1m1 0h2m1 0h2m1 0h1m1 0h1m3 0h3m3 0h5m1 0h2m3 0h1m2 0h1m1 0h1m1 0h1m3 0h3m1 0h1m2 0h1m1 0h1M8 103.5h2m1 0h1m5 0h1m1 0h2m1 0h1m1 0h2m2 0h1m1 0h1m1 0h3m3 0h1m1 0h1m1 0h1m3 0h2m1 0h1m2 0h1m3 0h2m6 0h2m1 0h2m3 0h2m2 0h1m2 0h2m4 0h2m1 0h1m3 0h1m1 0h1m4 0h3m1 0h5m1 0h1m1 0h2m1 0h1m1 0h2m4 0h1m2 0h3m1 0h1m2 0h1m4 0h1m4 0h1m1 0h2m1 0h2M5 104.5h2m1 0h1m1 0h1m3 0h1m2 0h2m1 0h1m1 0h1m2 0h1m5 0h1m1 0h2m1 0h1m2 0h5m1 0h2m1 0h2m1 0h1m1 0h1m1 0h4m1 0h3m4 0h1m1 0h1m4 0h2m1 0h7m4 0h3m5 0h1m1 0h2m1 0h1m2 0h1m4 0h8m3 0h1m1 0h4m4 0h1m1 0h1m1 0h1m1 0h1m1 0h1m2 0h1m3 0h2m1 0h1M5 105.5h1m1 0h1m3 0h1m1 0h1m1 0h2m3 0h3m5 0h1m3 0h3m1 0h4m5 0h3m2 0h1m1 0h1m1 0h2m6 0h1m1 0h1m1 0h1m2 0h3m1 0h1m1 0h1m4 0h5m4 0h1m2 0h3m1 0h1m1 0h2m4 0h1m1 0h3m1 0h1m3 0h2m2 0h1m2 0h1m2 0h4m2 0h1m2 0h4m1 0h1m2 0h1m1 0h1m2 0h2M5 106.5h4m1 0h2m1 0h1m2 0h2m3 0h1m1 0h1m2 0h3m3 0h1m5 0h2m1 0h1m3 0h2m3 0h4m1 0h3m1 0h1m1 0h1m1 0h2m1 0h3m1 0h1m2 0h2m1 0h1m2 0h2m11 0h1m4 0h4m1 0h2m8 0h2m1 0h3m1 0h1m1 0h1m1 0h2m6 0h1m1 0h1m1 0h2m2 0h2m1 0h1m3 0h1m1 0h1M5 107.5h4m7 0h2m1 0h1m2 0h2m1 0h2m2 0h3m2 0h4m1 0h3m3 0h5m1 0h1m1 0h1m1 0h1m2 0h1m2 0h1m4 0h1m1 0h1m1 0h4m1 0h1m7 0h1m1 0h2m1 0h1m2 0h5m3 0h2m5 0h1m4 0h4m3 0h1m2 0h2m2 0h3m6 0h1m2 0h1m3 0h2m1 0h1M8 108.5h3m4 0h4m4 0h1m2 0h1m3 0h3m8 0h1m4 0h4m3 0h1m1 0h6m1 0h1m1 0h1m4 0h2m3 0h6m1 0h1m5 0h1m1 0h2m4 0h1m2 0h1m2 0h3m1 0h1m7 0h4m5 0h1m1 0h1m1 0h2m2 0h1m1 0h3m1 0h1m1 0h1m4 0h1m2 0h1m1 0h1M4 109.5h1m2 0h1m1 0h1m1 0h5m3 0h3m2 0h3m1 0h1m1 0h1m1 0h3m1 0h1m1 0h2m2 0h2m6 0h1m1 0h3m6 0h1m1 0h1m1 0h2m4 0h8m2 0h4m1 0h1m1 0h1m1 0h2m1 0h2m1 0h1m5 0h5m1 0h3m2 0h3m3 0h5m2 0h2m3 0h1m1 0h1m2 0h1m1 0h5m2 0h1M4 110.5h4m1 0h4m2 0h3m2 0h9m3 0h1m2 0h1m9 0h1m1 0h1m8 0h3m1 0h1m2 0h2m1 0h2m1 0h1m2 0h1m1 0h1m1 0h5m1 0h1m2 0h2m5 0h4m3 0h3m4 0h2m3 0h3m1 0h5m1 0h1m6 0h1m1 0h2m1 0h1m1 0h2m2 0h2m2 0h1m4 0h1M4 111.5h1m2 0h3m5 0h2m1 0h2m1 0h6m2 0h1m2 0h2m2 0h1m2 0h3m1 0h1m3 0h1m1 0h5m4 0h1m1 0h2m2 0h2m1 0h1m3 0h4m1 0h1m1 0h3m2 0h4m1 0h1m3 0h1m1 0h1m1 0h1m2 0h2m5 0h1m7 0h1m2 0h2m1 0h1m3 0h2m1 0h3m2 0h3m1 0h2m1 0h1m1 0h2m1 0h1M5 112.5h1m1 0h1m2 0h1m1 0h1m1 0h2m2 0h3m1 0h5m2 0h7m1 0h1m1 0h3m1 0h4m1 0h2m5 0h2m1 0h1m6 0h1m1 0h4m3 0h1m1 0h3m2 0h1m1 0h1m6 0h1m4 0h2m2 0h1m2 0h1m4 0h1m1 0h2m1 0h4m1 0h1m1 0h1m1 0h1m2 0h1m3 0h5m1 0h1m1 0h2m1 0h1m1 0h1m4 0h1m1 0h1M4 113.5h5m2 0h3m1 0h5m1 0h1m2 0h4m1 0h1m1 0h2m2 0h5m2 0h2m1 0h1m4 0h3m1 0h2m3 0h2m1 0h1m1 0h1m5 0h4m1 0h3m5 0h1m1 0h2m1 0h1m1 0h1m2 0h2m1 0h1m2 0h1m1 0h1m1 0h2m1 0h1m1 0h4m2 0h3m1 0h3m3 0h1m1 0h3m1 0h1m1 0h2m1 0h2m2 0h1m1 0h2m1 0h3M4 114.5h2m1 0h6m3 0h1m1 0h1m3 0h1m2 0h1m1 0h4m3 0h1m1 0h6m1 0h1m4 0h1m1 0h1m1 0h1m3 0h2m2 0h1m1 0h9m1 0h3m1 0h1m2 0h2m4 0h1m2 0h5m1 0h2m1 0h5m1 0h1m1 0h1m1 0h1m2 0h3m1 0h6m1 0h3m6 0h6m2 0h1m1 0h5m1 0h1m1 0h1M7 115.5h2m3 0h3m1 0h2m1 0h1m1 0h1m1 0h1m1 0h1m6 0h2m2 0h1m3 0h1m5 0h1m4 0h1m2 0h1m3 0h5m3 0h3m2 0h4m7 0h1m1 0h2m1 0h2m3 0h3m1 0h1m3 0h2m4 0h1m5 0h3m3 0h1m1 0h1m4 0h1m1 0h1m1 0h2m1 0h1m1 0h1m2 0h1m2 0h1m3 0h2m1 0h2M4 116.5h1m3 0h1m1 0h1m1 0h1m2 0h5m2 0h2m2 0h3m2 0h1m2 0h3m1 0h1m1 0h1m3 0h3m1 0h2m5 0h4m1 0h3m1 0h1m1 0h1m1 0h3m1 0h1m1 0h1m2 0h5m2 0h1m3 0h1m1 0h1m1 0h1m5 0h7m2 0h8m1 0h1m1 0h1m1 0h1m2 0h2m1 0h1m2 0h3m2 0h3m1 0h3m1 0h1m1 0h1m1 0h2M6 117.5h1m1 0h1m3 0h3m2 0h1m2 0h2m1 0h1m3 0h1m2 0h1m1 0h1m2 0h2m3 0h3m2 0h1m4 0h1m1 0h1m1 0h1m6 0h2m3 0h1m1 0h5m2 0h1m1 0h2m1 0h1m2 0h1m2 0h1m1 0h1m3 0h1m1 0h1m1 0h1m4 0h1m1 0h2m1 0h4m4 0h1m3 0h2m1 0h1m1 0h7m3 0h3m1 0h1m1 0h2m3 0h1M6 118.5h1m1 0h5m2 0h2m3 0h4m3 0h8m1 0h6m1 0h1m1 0h1m1 0h1m2 0h6m1 0h2m3 0h6m6 0h1m1 0h1m2 0h2m3 0h12m1 0h1m1 0h3m1 0h1m3 0h1m3 0h2m1 0h8m1 0h1m2 0h1m1 0h1m1 0h2m1 0h1m1 0h1m3 0h6m2 0h2M4 119.5h1m3 0h2m1 0h6m2 0h2m3 0h1m1 0h3m3 0h3m3 0h5m6 0h1m3 0h1m2 0h3m3 0h2m2 0h2m2 0h1m2 0h1m8 0h1m2 0h1m3 0h3m2 0h4m2 0h2m3 0h2m8 0h1m1 0h1m3 0h2m1 0h2m1 0h3m4 0h1m1 0h2m4 0h1m4 0h1M5 120.5h1m2 0h1m1 0h1m1 0h2m1 0h5m4 0h3m4 0h1m1 0h1m1 0h3m2 0h2m2 0h2m2 0h1m4 0h1m2 0h3m1 0h3m2 0h1m2 0h2m1 0h1m2 0h1m2 0h1m3 0h2m4 0h1m4 0h2m4 0h2m2 0h3m2 0h1m2 0h1m1 0h1m3 0h7m4 0h1m1 0h1m7 0h8m1 0h3M4 121.5h6m1 0h2m1 0h2m2 0h2m4 0h1m1 0h1m1 0h2m1 0h1m2 0h1m1 0h2m1 0h2m1 0h2m2 0h1m2 0h2m1 0h1m1 0h2m3 0h1m1 0h1m2 0h2m3 0h1m1 0h2m2 0h2m1 0h1m1 0h1m2 0h1m1 0h1m1 0h2m1 0h1m2 0h1m2 0h4m2 0h1m1 0h1m1 0h4m1 0h1m2 0h2m3 0h7m7 0h3m4 0h1m2 0h1m1 0h1M5 122.5h1m1 0h1m1 0h5m1 0h3m5 0h2m3 0h1m1 0h2m2 0h1m1 0h1m1 0h1m1 0h2m1 0h1m1 0h2m2 0h1m2 0h1m3 0h2m4 0h3m1 0h3m4 0h2m1 0h7m2 0h1m2 0h2m1 0h1m2 0h2m1 0h1m2 0h1m2 0h1m5 0h5m1 0h1m2 0h2m1 0h1m1 0h1m3 0h2m1 0h2m1 0h4m2 0h1m1 0h1m2 0h1m1 0h1m1 0h1M4 123.5h2m1 0h1m1 0h1m2 0h4m3 0h2m1 0h2m3 0h2m1 0h2m1 0h3m3 0h1m3 0h2m1 0h1m1 0h1m1 0h5m2 0h1m1 0h2m2 0h2m2 0h1m2 0h1m1 0h3m3 0h3m3 0h4m3 0h1m2 0h1m1 0h1m2 0h2m5 0h4m1 0h4m2 0h2m1 0h1m1 0h1m2 0h1m1 0h1m1 0h2m3 0h1m1 0h2m1 0h2m1 0h4m1 0h1M4 124.5h3m1 0h1m1 0h1m1 0h1m1 0h2m1 0h2m1 0h1m1 0h1m1 0h3m4 0h1m1 0h1m1 0h1m4 0h1m2 0h4m1 0h1m2 0h1m3 0h4m1 0h3m2 0h1m3 0h1m4 0h1m1 0h2m1 0h3m4 0h4m1 0h1m1 0h1m3 0h2m1 0h1m1 0h1m2 0h1m2 0h1m1 0h3m3 0h1m2 0h1m1 0h1m1 0h1m1 0h1m1 0h2m3 0h1m5 0h1m1 0h7M4 125.5h1m1 0h2m3 0h8m1 0h2m2 0h1m2 0h1m1 0h1m2 0h1m3 0h1m3 0h1m1 0h2m5 0h4m1 0h1m2 0h1m1 0h1m1 0h1m2 0h3m1 0h1m1 0h2m3 0h3m3 0h7m2 0h1m5 0h1m1 0h1m3 0h4m2 0h2m1 0h1m1 0h3m2 0h3m5 0h3m1 0h1m2 0h4m1 0h1m3 0h1m2 0h1m1 0h1M6 126.5h6m1 0h1m2 0h2m4 0h3m1 0h2m2 0h5m1 0h3m2 0h1m2 0h3m1 0h1m2 0h5m4 0h1m1 0h3m1 0h5m1 0h3m2 0h3m1 0h2m2 0h1m2 0h4m1 0h2m4 0h3m4 0h2m1 0h4m3 0h1m1 0h2m1 0h4m1 0h1m1 0h1m2 0h1m1 0h1m1 0h2m2 0h2m2 0h1m1 0h2m1 0h1M4 127.5h1m1 0h2m4 0h2m1 0h2m1 0h1m1 0h7m1 0h3m3 0h1m1 0h2m5 0h4m3 0h1m1 0h1m3 0h5m2 0h2m1 0h3m2 0h4m1 0h1m2 0h1m3 0h1m1 0h1m1 0h1m2 0h8m2 0h2m3 0h2m1 0h1m2 0h4m2 0h2m3 0h1m1 0h2m1 0h1m1 0h1m4 0h1m2 0h4m4 0h1m2 0h1M4 128.5h2m1 0h1m1 0h4m1 0h5m4 0h1m1 0h1m1 0h2m1 0h1m1 0h1m2 0h1m2 0h1m1 0h2m2 0h3m1 0h1m4 0h1m1 0h1m2 0h1m1 0h2m2 0h2m2 0h2m5 0h4m2 0h1m1 0h1m2 0h4m1 0h4m2 0h2m1 0h1m1 0h3m2 0h4m3 0h1m1 0h3m1 0h3m1 0h1m1 0h3m4 0h1m7 0h2m1 0h1m1 0h3M4 129.5h1m1 0h1m1 0h1m3 0h1m1 0h1m1 0h3m4 0h1m1 0h2m1 0h1m2 0h1m2 0h1m4 0h1m1 0h3m6 0h4m2 0h1m4 0h1m1 0h1m1 0h2m1 0h2m1 0h1m2 0h2m1 0h1m2 0h2m1 0h6m1 0h1m2 0h1m1 0h2m1 0h2m1 0h1m2 0h1m3 0h1m1 0h2m1 0h3m4 0h1m2 0h2m2 0h2m4 0h2m1 0h1m1 0h1m2 0h1m1 0h1m3 0h1M4 130.5h3m2 0h6m1 0h1m1 0h1m1 0h2m1 0h1m1 0h1m1 0h1m2 0h3m5 0h1m1 0h1m6 0h6m1 0h3m6 0h2m1 0h3m4 0h2m3 0h2m1 0h1m3 0h2m1 0h4m3 0h1m4 0h1m2 0h1m2 0h2m3 0h2m2 0h2m3 0h2m1 0h2m3 0h1m2 0h3m1 0h1m2 0h3m1 0h3m2 0h2M4 131.5h2m2 0h2m2 0h3m1 0h1m3 0h4m1 0h1m1 0h4m7 0h2m3 0h1m1 0h2m2 0h1m3 0h1m2 0h4m3 0h1m3 0h1m2 0h1m1 0h3m5 0h1m3 0h3m1 0h1m1 0h1m3 0h1m4 0h1m1 0h1m1 0h1m2 0h4m1 0h2m1 0h2m1 0h2m1 0h1m1 0h1m2 0h1m1 0h3m2 0h1m1 0h1m2 0h2m4 0h3m2 0h1M4 132.5h1m1 0h1m2 0h2m1 0h1m3 0h2m3 0h1m1 0h6m2 0h1m2 0h2m1 0h1m1 0h3m1 0h2m1 0h1m1 0h1m2 0h1m1 0h1m1 0h2m1 0h1m1 0h3m1 0h2m1 0h3m2 0h1m4 0h2m1 0h2m2 0h1m1 0h1m2 0h1m1 0h3m4 0h1m3 0h1m4 0h4m3 0h1m2 0h1m6 0h2m1 0h2m1 0h1m1 0h1m3 0h2m1 0h1m2 0h1m1 0h4M4 133.5h1m4 0h1m1 0h1m3 0h1m1 0h2m1 0h2m3 0h4m1 0h1m1 0h2m2 0h1m3 0h4m3 0h1m1 0h4m1 0h1m4 0h1m1 0h1m1 0h3m4 0h6m1 0h1m4 0h4m1 0h2m1 0h2m1 0h1m2 0h1m6 0h3m1 0h3m3 0h1m1 0h1m1 0h1m1 0h1m3 0h1m3 0h1m2 0h1m2 0h3m2 0h1m1 0h1m2 0h1m2 0h1M4 134.5h5m1 0h3m4 0h2m5 0h1m3 0h1m1 0h6m2 0h2m1 0h1m1 0h1m1 0h1m4 0h1m2 0h2m1 0h3m3 0h1m1 0h7m2 0h2m1 0h4m4 0h2m3 0h3m2 0h2m4 0h4m3 0h1m1 0h4m1 0h1m3 0h2m1 0h1m1 0h1m7 0h1m1 0h4m2 0h1m1 0h2m5 0h1M4 135.5h2m2 0h2m1 0h5m1 0h2m2 0h1m1 0h1m1 0h1m1 0h3m3 0h1m2 0h1m2 0h1m1 0h1m5 0h1m1 0h3m5 0h4m6 0h1m4 0h2m5 0h2m1 0h2m1 0h2m2 0h1m1 0h2m1 0h2m1 0h1m1 0h3m3 0h3m1 0h1m5 0h4m3 0h1m2 0h1m1 0h4m1 0h1m4 0h2m1 0h2m1 0h3m2 0h1M4 136.5h2m2 0h1m1 0h1m1 0h1m3 0h1m1 0h1m3 0h5m2 0h2m4 0h2m2 0h2m2 0h6m1 0h1m2 0h1m2 0h3m1 0h6m1 0h1m1 0h2m3 0h1m2 0h2m2 0h4m1 0h1m1 0h1m2 0h3m1 0h1m2 0h1m1 0h3m4 0h1m1 0h3m2 0h1m3 0h3m3 0h2m1 0h1m1 0h2m1 0h1m1 0h1m5 0h1m1 0h1m1 0h3M4 137.5h1m1 0h3m4 0h1m1 0h1m4 0h2m1 0h2m1 0h1m1 0h1m1 0h1m5 0h2m1 0h5m5 0h1m2 0h2m3 0h1m3 0h3m1 0h1m2 0h1m1 0h1m1 0h1m2 0h1m4 0h1m1 0h2m3 0h1m1 0h2m5 0h4m2 0h1m1 0h2m2 0h2m3 0h1m1 0h1m17 0h4m1 0h1m1 0h1m2 0h1m1 0h2M4 138.5h1m1 0h1m3 0h2m1 0h4m2 0h1m1 0h9m3 0h2m2 0h2m1 0h1m1 0h1m3 0h1m2 0h1m1 0h1m1 0h1m2 0h5m1 0h3m2 0h1m2 0h2m1 0h2m3 0h2m1 0h1m2 0h2m3 0h1m4 0h1m2 0h1m1 0h2m2 0h1m1 0h1m6 0h1m1 0h1m1 0h1m2 0h1m1 0h2m3 0h1m1 0h1m2 0h3m1 0h2m2 0h2m3 0h2m2 0h1M5 139.5h2m7 0h2m1 0h4m1 0h1m1 0h1m1 0h1m1 0h1m2 0h2m5 0h2m3 0h2m5 0h3m2 0h1m2 0h1m2 0h1m1 0h2m2 0h1m3 0h3m5 0h1m5 0h2m1 0h1m4 0h3m3 0h1m1 0h1m3 0h3m1 0h1m2 0h1m1 0h1m2 0h1m4 0h1m2 0h3m1 0h2m1 0h3m1 0h2m1 0h2m1 0h2m1 0h1m2 0h1M4 140.5h1m1 0h2m1 0h2m2 0h1m4 0h1m3 0h2m1 0h1m2 0h2m1 0h3m1 0h7m1 0h2m1 0h3m2 0h1m1 0h1m1 0h2m1 0h1m1 0h7m1 0h2m1 0h2m2 0h1m1 0h1m3 0h1m1 0h1m3 0h7m1 0h1m1 0h2m1 0h1m1 0h1m4 0h2m1 0h1m2 0h6m3 0h1m1 0h2m1 0h7m3 0h1m1 0h8m1 0h1M12 141.5h3m1 0h1m1 0h4m1 0h3m3 0h5m2 0h1m3 0h3m7 0h1m1 0h3m6 0h2m3 0h1m1 0h5m1 0h4m2 0h3m1 0h1m1 0h3m3 0h3m1 0h1m1 0h1m4 0h3m2 0h2m4 0h1m3 0h2m1 0h1m1 0h2m1 0h1m3 0h1m3 0h1m2 0h2m1 0h1m3 0h1M4 142.5h7m1 0h1m1 0h3m2 0h3m1 0h4m2 0h1m1 0h2m3 0h1m1 0h1m1 0h2m1 0h1m1 0h3m3 0h4m2 0h3m2 0h1m1 0h1m1 0h2m1 0h1m2 0h3m1 0h1m2 0h3m3 0h4m1 0h1m1 0h1m4 0h2m1 0h2m5 0h1m1 0h1m2 0h3m1 0h1m1 0h4m1 0h2m1 0h1m1 0h1m1 0h2m1 0h1m1 0h2m3 0h1m1 0h1m1 0h1m1 0h3M4 143.5h1m5 0h1m2 0h4m1 0h1m1 0h4m1 0h1m2 0h3m1 0h2m1 0h2m3 0h1m2 0h3m2 0h5m1 0h1m3 0h1m1 0h3m3 0h5m2 0h2m4 0h2m1 0h2m1 0h2m1 0h1m3 0h1m1 0h1m4 0h3m3 0h2m1 0h1m2 0h4m3 0h1m3 0h1m1 0h4m1 0h2m5 0h3m1 0h1m3 0h2M4 144.5h1m1 0h3m1 0h1m1 0h1m5 0h2m2 0h2m2 0h5m1 0h1m2 0h6m3 0h1m1 0h1m1 0h1m3 0h1m2 0h2m1 0h1m1 0h8m6 0h9m3 0h1m1 0h5m3 0h3m2 0h1m3 0h1m1 0h2m5 0h7m1 0h1m1 0h2m2 0h1m6 0h2m1 0h9m1 0h1M4 145.5h1m1 0h3m1 0h1m1 0h1m1 0h1m1 0h7m4 0h3m2 0h2m3 0h2m1 0h1m1 0h2m3 0h1m2 0h2m2 0h1m6 0h2m3 0h1m1 0h6m1 0h1m1 0h2m1 0h2m1 0h1m1 0h1m1 0h3m1 0h2m1 0h3m1 0h2m2 0h1m1 0h2m2 0h1m1 0h2m2 0h1m1 0h1m1 0h2m1 0h6m3 0h2m1 0h2m3 0h2m1 0h4m3 0h1M4 146.5h1m1 0h3m1 0h1m1 0h1m2 0h1m4 0h1m4 0h3m1 0h1m1 0h2m3 0h1m1 0h1m2 0h1m1 0h3m1 0h1m2 0h1m3 0h3m2 0h1m1 0h3m1 0h3m4 0h3m3 0h4m4 0h2m2 0h2m2 0h1m2 0h1m2 0h2m1 0h1m6 0h3m2 0h1m1 0h3m1 0h1m1 0h1m4 0h1m3 0h2m1 0h2m4 0h1m1 0h1m1 0h1m2 0h1M4 147.5h1m5 0h1m1 0h1m3 0h2m1 0h2m4 0h2m4 0h1m5 0h1m2 0h2m1 0h1m2 0h4m1 0h1m4 0h3m1 0h1m3 0h1m1 0h3m4 0h2m1 0h1m5 0h1m2 0h3m2 0h2m1 0h2m4 0h1m1 0h1m3 0h2m5 0h1m2 0h2m5 0h1m1 0h2m1 0h1m1 0h2m1 0h1m1 0h1m3 0h1m1 0h1m1 0h2m1 0h1m2 0h1M4 148.5h7m1 0h3m1 0h1m2 0h3m1 0h1m1 0h1m2 0h3m2 0h2m9 0h3m1 0h1m6 0h4m1 0h1m2 0h2m4 0h7m1 0h3m1 0h3m2 0h1m1 0h2m1 0h2m2 0h4m1 0h1m1 0h3m2 0h6m1 0h2m1 0h3m1 0h1m1 0h2m2 0h1m4 0h2m1 0h2m2 0h1m1 0h2m3 0h3"/></svg>
