<?xml version="1.0" encoding="utf-8"?><!DOCTYPE svg PUBLIC "-//W3C//DTD SVG 1.1//EN" "http://www.w3.org/Graphics/SVG/1.1/DTD/svg11.dtd"><svg xmlns="http://www.w3.org/2000/svg" viewBox="0 0 169 169" shape-rendering="crispEdges"><path fill="#ffffff" d="M0 0h169v169H0z"/><path stroke="#000000" d="M4 4.5h7m4 0h2m1 0h4m1 0h1m1 0h3m1 0h1m2 0h1m2 0h1m1 0h2m4 0h2m2 0h4m2 0h3m2 0h1m1 0h1m1 0h1m3 0h2m1 0h2m1 0h2m1 0h2m2 0h1m2 0h2m4 0h2m1 0h1m2 0h2m1 0h1m2 0h1m2 0h6m1 0h1m1 0h4m1 0h1m3 0h2m1 0h1m1 0h2m4 0h4m4 0h2m1 0h2m1 0h1m2 0h1m3 0h3m2 0h7M4 5.5h1m5 0h1m1 0h1m1 0h3m4 0h1m1 0h2m2 0h2m5 0h2m4 0h4m2 0h2m1 0h1m1 0h2m2 0h1m1 0h4m7 0h1m1 0h4m4 0h3m4 0h3m1 0h4m3 0h1m1 0h2m2 0h2m1 0h4m1 0h1m1 0h2m1 0h1m2 0h1m2 0h1m1 0h4m3 0h2m4 0h4m3 0h1m1 0h6m3 0h1m3 0h1m5 0h1M4 6.5h1m1 0h3m1 0h1m4 0h4m2 0h2m1 0h1m1 0h3m1 0h1m5 0h1m2 0h2m5 0h2m3 0h3m5 0h1m1 0h2m1 0h1m1 0h2m3 0h1m1 0h2m1 0h2m6 0h3m3 0h4m2 0h1m1 0h2m2 0h1m4 0h1m3 0h1m4 0h1m3 0h1m1 0h1m4 0h2m1 0h1m2 0h1m2 0h2m3 0h2m5 0h2m6 0h1m1 0h1m1 0h3m1 0h1M4 7.5h1m1 0h3m1 0h1m1 0h4m1 0h1m2 0h1m1 0h4m1 0h1m1 0h2m1 0h2m6 0h1m1 0h1m9 0h1m11 0h4m2 0h2m4 0h1m4 0h1m6 0h2m1 0h1m2 0h2m1 0h1m2 0h1m6 0h1m1 0h1m1 0h2m2 0h2m1 0h4m1 0h1m1 0h1m1 0h3m1 0h1m1 0h2m1 0h1m1 0h2m1 0h1m1 0h2m1 0h5m3 0h1m1 0h1m1 0h1m1 0h3m1 0h1M4 8.5h1m1 0h3m1 0h1m4 0h1m1 0h1m1 0h1m1 0h1m3 0h6m1 0h2m2 0h3m3 0h1m2 0h1m2 0h2m1 0h6m1 0h1m1 0h1m2 0h2m2 0h2m2 0h2m1 0h3m1 0h6m1 0h1m2 0h1m5 0h2m1 0h1m1 0h1m4 0h12m1 0h1m4 0h1m1 0h2m1 0h1m2 0h5m2 0h5m2 0h1m2 0h1m1 0h2m1 0h1m3 0h1m1 0h1m1 0h3m1 0h1M4 9.5h1m5 0h1m1 0h1m4 0h1m1 0h3m1 0h4m3 0h1m2 0h1m6 0h3m2 0h2m2 0h1m1 0h2m3 0h3m1 0h2m8 0h1m1 0h2m3 0h2m3 0h1m1 0h10m1 0h2m1 0h1m2 0h4m3 0h3m1 0h3m3 0h2m2 0h5m1 0h3m3 0h1m1 0h1m1 0h2m6 0h1m1 0h1m1 0h2m4 0h1m1 0h1m5 0h1M4 10.5h7m1 0h1m1 0h1m1 0h1m1 0h1m1 0h1m1 0h1m1 0h1m1 0h1m1 0h1m1 0h1m1 0h1m1 0h1m1 0h1m1 0h1m1 0h1m1 0h1m1 0h1m1 0h1m1 0h1m1 0h1m1 0h1m1 0h1m1 0h1m1 0h1m1 0h1m1 0h1m1 0h1m1 0h1m1 0h1m1 0h1m1 0h1m1 0h1m1 0h1m1 0h1m1 0h1m1 0h1m1 0h1m1 0h1m1 0h1m1 0h1m1 0h1m1 0h1m1 0h1m1 0h1m1 0h1m1 0h1m1 0h1m1 0h1m1 0h1m1 0h1m1 0h1m1 0h1m1 0h1m1 0h1m1 0h1m1 0h1m1 0h1m1 0h1m1 0h1m1 0h1m1 0h1m1 0h1m1 0h1m1 0h1m1 0h1m1 0h1m1 0h1m1 0h1m1 0h1m1 0h1m1 0h1m1 0h1m1 0h1m1 0h7M16 11.5h1m1 0h1m1 0h1m2 0h1m2 0h1m3 0h1m3 0h2m8 0h3m2 0h1m2 0h1m3 0h2m3 0h6m4 0h1m1 0h6m3 0h1m1 0h1m1 0h2m1 0h1m1 0h2m3 0h1m1 0h2m1 0h4m3 0h1m2 0h1m2 0h1m2 0h1m1 0h2m3 0h1m4 0h2m3 0h1m1 0h2m3 0h3m4 0h1m2 0h1m2 0h1M4 12.5h5m1 0h3m2 0h1m2 0h2m1 0h1m2 0h7m2 0h1m4 0h2m1 0h4m5 0h1m1 0h5m2 0h1m1 0h7m2 0h2m1 0h4m1 0h5m2 0h2m1 0h2m4 0h1m3 0h3m1 0h1m1 0h5m2 0h1m4 0h3m1 0h1m4 0h1m2 0h1m1 0h12m2 0h1m1 0h2m2 0h1m1 0h1m3 0h2m1 0h1m1 0h1m1 0h1M4 13.5h1m1 0h2m4 0h1m1 0h4m1 0h3m1 0h2m1 0h1m1 0h1m8 0h1m5 0h2m3 0h1m1 0h1m1 0h1m1 0h1m2 0h3m7 0h2m1 0h2m1 0h1m3 0h1m2 0h1m1 0h2m3 0h3m1 0h1m2 0h2m4 0h2m2 0h4m2 0h1m1 0h1m1 0h2m1 0h1m3 0h4m1 0h2m2 0h1m1 0h2m1 0h1m3 0h3m1 0h3m1 0h2m1 0h2m2 0h3m2 0h4m1 0h1M4 14.5h3m1 0h1m1 0h1m2 0h1m1 0h3m1 0h1m1 0h2m1 0h4m2 0h3m3 0h6m1 0h1m1 0h2m2 0h1m1 0h1m1 0h1m1 0h1m2 0h1m1 0h2m3 0h1m1 0h4m2 0h1m1 0h1m1 0h1m1 0h3m2 0h3m2 0h2m1 0h1m4 0h2m3 0h1m3 0h5m1 0h2m2 0h1m2 0h1m1 0h1m2 0h2m1 0h1m6 0h1m1 0h4m1 0h2m4 0h2m7 0h1m1 0h1m1 0h2M4 15.5h4m1 0h1m1 0h1m6 0h1m1 0h1m1 0h1m1 0h3m1 0h1m1 0h2m1 0h2m2 0h1m1 0h1m3 0h2m1 0h1m2 0h1m6 0h1m4 0h2m1 0h1m1 0h2m1 0h3m1 0h2m1 0h2m1 0h2m1 0h1m1 0h2m1 0h1m1 0h2m1 0h2m1 0h2m2 0h1m1 0h5m1 0h1m3 0h1m1 0h1m1 0h2m1 0h1m1 0h4m4 0h1m2 0h1m4 0h1m2 0h5m4 0h1m2 0h1m1 0h3m2 0h1m5 0h1M5 16.5h1m1 0h4m2 0h2m1 0h4m1 0h1m2 0h1m1 0h2m4 0h1m1 0h2m2 0h1m2 0h2m7 0h1m1 0h2m1 0h5m1 0h2m2 0h1m1 0h1m1 0h2m1 0h1m1 0h3m1 0h2m3 0h1m2 0h4m1 0h1m6 0h1m1 0h1m1 0h2m3 0h2m4 0h1m2 0h1m1 0h1m1 0h1m6 0h1m1 0h1m3 0h3m2 0h2m3 0h2m1 0h2m2 0h1m1 0h1m3 0h2m2 0h1m1 0h2M4 17.5h3m1 0h2m2 0h1m2 0h1m2 0h1m1 0h6m1 0h1m3 0h1m2 0h1m3 0h2m1 0h2m1 0h2m1 0h6m1 0h1m2 0h2m1 0h1m2 0h1m3 0h4m1 0h4m2 0h2m2 0h1m1 0h1m2 0h1m1 0h1m3 0h2m4 0h2m3 0h3m1 0h5m1 0h1m6 0h2m1 0h1m1 0h1m3 0h1m1 0h1m2 0h1m1 0h4m3 0h4m2 0h1m1 0h5m3 0h1m2 0h2M4 18.5h2m1 0h1m2 0h1m1 0h1m2 0h3m2 0h5m5 0h1m1 0h1m1 0h1m2 0h1m2 0h1m2 0h1m2 0h2m1 0h1m5 0h6m2 0h1m1 0h1m1 0h4m1 0h1m2 0h1m1 0h1m1 0h1m3 0h2m1 0h1m1 0h1m1 0h1m2 0h1m4 0h1m3 0h2m1 0h2m1 0h1m1 0h1m1 0h2m1 0h2m2 0h6m4 0h1m6 0h1m5 0h1m5 0h1m2 0h1m2 0h5m4 0h1M4 19.5h3m1 0h2m1 0h2m1 0h3m8 0h1m1 0h1m1 0h2m1 0h1m1 0h1m4 0h2m2 0h2m1 0h1m2 0h1m3 0h3m5 0h2m1 0h4m3 0h1m1 0h4m3 0h2m1 0h3m1 0h1m1 0h4m1 0h3m1 0h2m2 0h1m4 0h1m1 0h3m1 0h1m2 0h4m2 0h1m1 0h1m12 0h1m1 0h1m1 0h2m2 0h1m1 0h1m1 0h1m4 0h1m4 0h2m2 0h1M5 20.5h2m3 0h1m3 0h2m1 0h1m1 0h2m1 0h1m2 0h3m1 0h2m1 0h1m1 0h1m2 0h3m1 0h3m1 0h1m2 0h1m1 0h4m1 0h3m1 0h1m2 0h4m3 0h1m3 0h2m1 0h1m1 0h2m6 0h4m3 0h2m2 0h1m1 0h5m1 0h1m1 0h1m1 0h1m3 0h1m2 0h5m4 0h1m1 0h5m1 0h2m1 0h1m1 0h1m1 0h2m1 0h2m1 0h1m1 0h4m6 0h3m1 0h1M4 21.5h1m2 0h3m3 0h1m1 0h1m1 0h1m2 0h11m2 0h1m1 0h1m1 0h1m3 0h1m2 0h1m2 0h3m2 0h4m1 0h2m2 0h2m1 0h5m3 0h2m3 0h3m2 0h4m2 0h2m1 0h5m1 0h1m1 0h1m1 0h1m2 0h4m1 0h2m1 0h1m1 0h2m6 0h3m4 0h7m1 0h6m1 0h3m1 0h2m1 0h2m1 0h1m1 0h1m2 0h2m1 0h2M7 22.5h1m1 0h6m6 0h1m1 0h2m2 0h1m1 0h4m2 0h2m1 0h1m1 0h1m1 0h2m1 0h3m1 0h1m1 0h1m2 0h1m2 0h2m4 0h1m1 0h1m2 0h1m1 0h3m2 0h1m2 0h1m1 0h1m3 0h3m3 0h1m1 0h2m3 0h2m3 0h2m2 0h9m2 0h1m1 0h1m2 0h1m1 0h4m7 0h2m5 0h2m1 0h1m1 0h2m2 0h1m4 0h4m2 0h1M5 23.5h2m1 0h2m1 0h1m3 0h4m1 0h3m4 0h1m1 0h2m1 0h1m6 0h3m1 0h1m1 0h2m1 0h1m6 0h2m2 0h1m2 0h1m1 0h4m3 0h1m2 0h1m1 0h2m2 0h3m1 0h1m1 0h1m3 0h8m3 0h3m1 0h1m9 0h2m1 0h4m2 0h1m2 0h2m1 0h2m1 0h1m1 0h3m1 0h1m2 0h3m3 0h1m5 0h2m1 0h3m1 0h1m1 0h1M7 24.5h1m2 0h1m1 0h1m3 0h2m1 0h1m1 0h2m1 0h4m2 0h1m1 0h1m1 0h2m2 0h1m3 0h4m1 0h3m1 0h2m2 0h3m2 0h1m2 0h2m1 0h2m5 0h1m1 0h2m1 0h2m1 0h3m4 0h2m1 0h1m1 0h3m2 0h1m1 0h2m5 0h3m1 0h1m1 0h1m2 0h3m1 0h2m1 0h1m3 0h2m5 0h5m4 0h1m1 0h4m1 0h1m2 0h1m5 0h2m1 0h3M7 25.5h1m1 0h1m2 0h1m2 0h6m3 0h1m3 0h1m2 0h1m1 0h1m2 0h2m1 0h1m1 0h1m1 0h2m2 0h2m1 0h3m1 0h2m3 0h2m4 0h1m2 0h2m2 0h2m7 0h3m1 0h1m1 0h1m1 0h1m3 0h2m2 0h1m2 0h2m1 0h3m3 0h4m1 0h1m2 0h1m4 0h1m1 0h3m3 0h1m1 0h1m1 0h1m5 0h6m3 0h4m2 0h1m1 0h1m4 0h3M4 26.5h1m3 0h7m1 0h2m3 0h1m1 0h1m2 0h9m2 0h4m5 0h2m2 0h7m1 0h1m1 0h1m4 0h1m1 0h4m1 0h1m4 0h10m1 0h1m1 0h3m2 0h1m1 0h2m3 0h7m1 0h3m1 0h1m1 0h1m6 0h2m1 0h1m2 0h6m1 0h4m1 0h2m2 0h4m4 0h9m1 0h1M6 27.5h1m1 0h1m3 0h2m1 0h2m2 0h1m1 0h3m2 0h1m3 0h2m1 0h2m4 0h2m3 0h3m1 0h1m3 0h1m3 0h1m2 0h1m1 0h4m1 0h2m5 0h1m2 0h3m3 0h1m1 0h3m3 0h3m4 0h2m4 0h2m3 0h1m2 0h4m1 0h2m2 0h2m1 0h1m1 0h1m2 0h1m1 0h1m3 0h3m5 0h2m1 0h1m2 0h2m1 0h2m1 0h3m3 0h1m3 0h1M6 28.5h1m1 0h1m1 0h1m1 0h1m1 0h4m1 0h1m1 0h2m2 0h2m1 0h1m1 0h4m1 0h1m1 0h2m1 0h1m1 0h2m1 0h1m1 0h4m1 0h1m1 0h1m1 0h1m1 0h3m1 0h1m4 0h1m3 0h3m1 0h2m1 0h1m1 0h1m1 0h2m1 0h1m1 0h2m5 0h2m4 0h1m1 0h3m1 0h1m1 0h2m1 0h1m1 0h1m1 0h4m1 0h2m1 0h1m1 0h1m1 0h4m1 0h1m1 0h5m2 0h1m1 0h1m2 0h2m8 0h1m1 0h1m1 0h3m1 0h1M4 29.5h3m1 0h1m3 0h1m4 0h2m1 0h1m1 0h1m2 0h2m3 0h1m1 0h1m4 0h2m1 0h2m2 0h1m1 0h3m1 0h3m3 0h2m1 0h2m2 0h1m1 0h1m4 0h1m2 0h1m2 0h1m1 0h1m3 0h1m5 0h1m2 0h1m1 0h2m2 0h1m5 0h2m3 0h5m1 0h1m4 0h1m1 0h2m1 0h3m2 0h2m3 0h2m2 0h1m1 0h6m1 0h1m1 0h2m1 0h3m1 0h1m3 0h3M4 30.5h2m1 0h6m1 0h2m4 0h3m1 0h1m1 0h6m3 0h1m3 0h1m1 0h1m1 0h1m1 0h1m1 0h1m3 0h6m1 0h3m2 0h1m1 0h1m1 0h2m1 0h3m4 0h8m1 0h2m2 0h1m1 0h2m1 0h5m1 0h2m1 0h6m1 0h2m2 0h2m3 0h2m2 0h3m3 0h5m1 0h2m1 0h1m1 0h2m2 0h2m1 0h1m1 0h2m1 0h9M6 31.5h2m3 0h2m3 0h2m2 0h4m1 0h1m1 0h1m2 0h1m1 0h2m1 0h1m5 0h1m1 0h1m2 0h3m3 0h1m6 0h1m1 0h2m1 0h3m6 0h5m1 0h2m3 0h3m2 0h1m1 0h2m2 0h2m1 0h1m3 0h3m1 0h1m1 0h1m1 0h4m2 0h1m1 0h3m1 0h3m5 0h1m6 0h1m1 0h5m3 0h2m4 0h3m1 0h3m1 0h1m1 0h1M4 32.5h2m1 0h1m2 0h1m7 0h1m1 0h3m2 0h1m2 0h2m1 0h2m2 0h5m2 0h1m6 0h2m3 0h1m4 0h2m1 0h3m2 0h1m2 0h1m1 0h2m4 0h1m1 0h4m1 0h1m1 0h3m3 0h1m1 0h1m1 0h8m4 0h1m6 0h6m1 0h1m5 0h1m3 0h1m1 0h1m1 0h2m1 0h1m2 0h1m1 0h2m1 0h1m1 0h1m4 0h1m1 0h2m3 0h2M5 33.5h1m3 0h1m1 0h1m1 0h1m1 0h2m6 0h1m3 0h1m1 0h1m1 0h1m1 0h1m2 0h1m1 0h1m2 0h4m1 0h3m2 0h1m4 0h2m3 0h1m1 0h3m2 0h1m3 0h3m1 0h1m2 0h1m1 0h2m2 0h1m1 0h1m3 0h4m4 0h1m3 0h5m1 0h4m1 0h2m1 0h1m3 0h2m1 0h3m2 0h3m2 0h1m2 0h1m1 0h2m3 0h1m2 0h1m3 0h2m1 0h2m3 0h2M4 34.5h7m2 0h1m1 0h1m4 0h1m1 0h2m2 0h3m2 0h4m1 0h2m2 0h1m5 0h2m1 0h1m1 0h4m3 0h1m1 0h1m6 0h2m1 0h1m1 0h2m2 0h4m2 0h1m2 0h2m3 0h2m2 0h1m1 0h1m2 0h1m1 0h2m2 0h2m1 0h1m3 0h2m2 0h2m1 0h2m3 0h1m1 0h1m2 0h1m1 0h2m3 0h3m3 0h2m3 0h2m1 0h1m2 0h1m2 0h2m1 0h1m2 0h1M4 35.5h1m1 0h1m1 0h1m2 0h2m3 0h1m2 0h1m2 0h2m1 0h2m3 0h2m7 0h3m3 0h2m8 0h3m3 0h1m1 0h4m2 0h1m1 0h1m2 0h4m1 0h2m3 0h1m4 0h1m1 0h7m1 0h1m5 0h2m1 0h2m1 0h1m1 0h1m5 0h1m3 0h1m4 0h1m1 0h1m5 0h1m3 0h1m1 0h1m1 0h2m1 0h1m4 0h1m1 0h1m2 0h4M4 36.5h1m2 0h1m2 0h2m1 0h2m2 0h2m1 0h1m2 0h1m1 0h2m5 0h1m1 0h1m2 0h4m1 0h6m1 0h5m3 0h1m1 0h1m2 0h5m1 0h1m2 0h1m4 0h2m1 0h2m1 0h2m2 0h1m1 0h2m4 0h2m3 0h3m2 0h1m2 0h1m3 0h1m1 0h1m1 0h4m1 0h2m6 0h4m1 0h1m4 0h1m2 0h1m1 0h5m2 0h1m4 0h5m1 0h2M4 37.5h1m3 0h1m2 0h1m1 0h5m6 0h2m1 0h1m1 0h1m2 0h1m1 0h2m1 0h2m2 0h2m1 0h3m1 0h1m1 0h3m3 0h1m1 0h1m2 0h1m2 0h1m1 0h1m1 0h1m1 0h3m2 0h2m1 0h2m1 0h3m1 0h1m1 0h2m2 0h2m1 0h1m1 0h2m1 0h1m3 0h3m1 0h1m1 0h5m1 0h1m3 0h1m1 0h4m1 0h1m6 0h2m2 0h1m1 0h4m1 0h2m1 0h1m4 0h1m2 0h1m1 0h1m1 0h3m1 0h2M5 38.5h1m1 0h1m2 0h1m1 0h1m1 0h2m2 0h8m5 0h1m3 0h2m1 0h4m1 0h1m1 0h2m2 0h1m1 0h2m1 0h1m3 0h1m1 0h1m4 0h1m2 0h1m1 0h2m5 0h3m2 0h1m1 0h1m1 0h1m3 0h1m1 0h2m1 0h2m1 0h1m1 0h3m1 0h1m1 0h8m3 0h3m2 0h1m2 0h1m5 0h2m1 0h3m2 0h1m2 0h1m5 0h2m3 0h2m1 0h1M8 39.5h2m3 0h2m2 0h1m2 0h1m2 0h1m2 0h4m1 0h1m3 0h1m4 0h2m1 0h1m1 0h2m2 0h1m3 0h1m3 0h1m1 0h1m1 0h4m6 0h1m1 0h4m6 0h2m7 0h2m1 0h3m1 0h1m1 0h1m1 0h2m1 0h3m3 0h2m4 0h1m1 0h1m1 0h2m1 0h3m2 0h1m2 0h2m1 0h1m2 0h2m1 0h2m1 0h1m8 0h1m4 0h1m3 0h1M5 40.5h3m2 0h2m3 0h3m2 0h1m2 0h4m1 0h2m1 0h2m1 0h5m2 0h2m1 0h2m1 0h4m1 0h1m2 0h1m1 0h1m1 0h1m1 0h2m3 0h1m1 0h4m3 0h2m1 0h3m2 0h1m1 0h1m1 0h5m1 0h1m4 0h3m4 0h1m5 0h1m1 0h1m1 0h6m4 0h1m1 0h3m5 0h2m1 0h2m1 0h1m2 0h1m1 0h1m1 0h3m5 0h1m1 0h1m3 0h1m1 0h1M4 41.5h3m1 0h2m1 0h1m7 0h1m2 0h2m1 0h4m2 0h2m1 0h3m1 0h1m2 0h5m2 0h3m1 0h2m1 0h2m4 0h1m1 0h1m4 0h1m1 0h2m1 0h2m3 0h2m1 0h2m1 0h2m8 0h1m2 0h1m1 0h2m2 0h1m1 0h1m1 0h1m2 0h3m1 0h1m4 0h1m2 0h1m1 0h1m1 0h1m2 0h1m1 0h4m4 0h3m2 0h1m1 0h1m3 0h6m1 0h1m1 0h2m1 0h3M4 42.5h2m1 0h4m2 0h1m2 0h3m2 0h2m2 0h2m2 0h2m1 0h1m1 0h4m2 0h1m2 0h1m2 0h1m2 0h1m1 0h2m5 0h1m1 0h1m2 0h1m4 0h3m1 0h1m4 0h4m1 0h6m1 0h5m1 0h4m3 0h6m4 0h2m2 0h2m6 0h3m1 0h1m1 0h1m1 0h2m2 0h1m4 0h1m1 0h1m1 0h1m1 0h2m4 0h2m1 0h1m3 0h2m1 0h1M6 43.5h2m7 0h1m1 0h3m1 0h1m3 0h6m1 0h1m2 0h1m3 0h2m2 0h2m1 0h4m2 0h1m1 0h3m4 0h2m1 0h1m1 0h2m3 0h1m2 0h1m1 0h1m2 0h2m3 0h2m4 0h1m1 0h1m1 0h1m1 0h2m1 0h1m2 0h3m1 0h4m2 0h1m2 0h1m2 0h2m1 0h3m1 0h1m2 0h1m2 0h1m4 0h2m2 0h3m1 0h2m2 0h2m1 0h5m1 0h4m2 0h2M7 44.5h2m1 0h1m1 0h1m2 0h2m1 0h1m2 0h2m2 0h1m1 0h2m1 0h2m4 0h2m3 0h2m1 0h2m4 0h1m2 0h1m2 0h2m1 0h3m2 0h1m4 0h1m3 0h3m1 0h1m1 0h3m3 0h1m2 0h4m6 0h3m4 0h1m1 0h1m1 0h1m1 0h1m4 0h3m1 0h1m4 0h1m1 0h5m1 0h1m1 0h2m2 0h1m2 0h1m1 0h1m1 0h1m1 0h4m1 0h1m2 0h4m2 0h2M4 45.5h1m1 0h1m2 0h1m2 0h3m2 0h2m3 0h1m1 0h1m3 0h1m2 0h1m3 0h2m1 0h1m2 0h4m3 0h1m3 0h1m2 0h2m1 0h2m1 0h1m3 0h2m1 0h2m2 0h1m3 0h1m5 0h1m5 0h2m4 0h2m3 0h2m2 0h2m2 0h1m2 0h5m4 0h1m1 0h4m1 0h2m2 0h1m1 0h4m2 0h1m3 0h1m3 0h1m2 0h1m1 0h3m1 0h2m1 0h3m1 0h1m1 0h1M8 46.5h3m2 0h1m2 0h1m1 0h2m2 0h1m1 0h2m5 0h1m1 0h2m2 0h1m2 0h1m1 0h2m1 0h2m4 0h1m2 0h1m3 0h1m1 0h2m5 0h2m1 0h4m3 0h3m2 0h1m1 0h2m1 0h2m1 0h3m2 0h1m1 0h4m1 0h5m4 0h1m3 0h1m6 0h2m1 0h1m1 0h1m4 0h7m4 0h1m1 0h1m2 0h1m5 0h1m5 0h2m1 0h1M4 47.5h1m1 0h2m4 0h2m2 0h1m2 0h1m7 0h3m3 0h2m4 0h2m3 0h4m7 0h1m1 0h1m3 0h2m1 0h4m3 0h1m1 0h5m1 0h3m2 0h1m2 0h1m2 0h1m1 0h1m1 0h1m1 0h3m7 0h4m3 0h3m1 0h2m1 0h1m1 0h1m5 0h1m2 0h1m4 0h1m4 0h2m5 0h2m2 0h3m1 0h1m1 0h2m3 0h1M6 48.5h2m1 0h3m3 0h1m1 0h1m1 0h2m1 0h2m1 0h2m3 0h1m1 0h1m3 0h3m3 0h1m2 0h1m1 0h1m1 0h2m7 0h1m1 0h1m2 0h1m1 0h1m1 0h2m1 0h3m1 0h3m1 0h1m1 0h2m3 0h1m1 0h5m1 0h1m1 0h1m1 0h1m1 0h2m1 0h1m4 0h1m1 0h1m3 0h1m1 0h2m1 0h1m1 0h1m4 0h1m2 0h4m1 0h1m4 0h3m2 0h1m1 0h3m2 0h1m1 0h1m4 0h2m3 0h1m1 0h1M5 49.5h1m3 0h1m1 0h1m1 0h1m3 0h3m3 0h2m4 0h1m1 0h1m1 0h1m2 0h4m4 0h2m2 0h1m1 0h4m1 0h2m2 0h2m1 0h1m5 0h2m6 0h1m5 0h3m3 0h2m4 0h1m2 0h1m1 0h2m2 0h1m6 0h5m2 0h1m1 0h1m1 0h6m2 0h2m1 0h3m3 0h2m1 0h1m1 0h3m1 0h1m2 0h1m1 0h2m1 0h2m1 0h3m1 0h3M4 50.5h2m1 0h4m1 0h1m1 0h1m1 0h4m6 0h1m1 0h3m1 0h3m1 0h1m3 0h4m2 0h2m1 0h1m1 0h4m2 0h2m1 0h1m4 0h1m2 0h3m1 0h1m3 0h4m2 0h1m2 0h2m2 0h2m1 0h2m1 0h5m1 0h2m2 0h1m3 0h1m2 0h1m1 0h4m1 0h1m4 0h1m2 0h1m2 0h1m1 0h1m2 0h2m1 0h1m3 0h1m2 0h2m1 0h1m2 0h1m1 0h1m2 0h1m2 0h1m1 0h2M7 51.5h1m1 0h1m1 0h1m3 0h2m1 0h4m2 0h1m1 0h1m1 0h2m1 0h1m1 0h2m1 0h2m1 0h2m3 0h1m1 0h1m6 0h4m4 0h1m2 0h1m1 0h2m5 0h4m2 0h3m2 0h1m1 0h2m3 0h1m1 0h4m2 0h1m1 0h6m1 0h4m1 0h1m4 0h1m2 0h1m1 0h2m3 0h1m4 0h1m2 0h2m1 0h1m1 0h2m5 0h2m1 0h1m1 0h3m1 0h2m4 0h1M4 52.5h2m1 0h6m2 0h6m2 0h1m2 0h6m1 0h1m1 0h1m1 0h2m3 0h2m1 0h1m1 0h4m1 0h5m2 0h1m2 0h1m1 0h3m3 0h1m2 0h1m3 0h6m2 0h2m1 0h1m1 0h1m3 0h1m5 0h2m2 0h6m1 0h1m3 0h4m1 0h1m4 0h1m2 0h1m1 0h6m4 0h1m2 0h5m1 0h4m3 0h7m1 0h1M5 53.5h1m1 0h2m3 0h2m2 0h1m1 0h1m5 0h1m1 0h1m3 0h1m1 0h2m3 0h2m2 0h4m1 0h1m1 0h1m1 0h1m1 0h1m3 0h3m1 0h1m2 0h2m1 0h1m1 0h3m1 0h1m3 0h1m1 0h1m3 0h3m2 0h1m1 0h1m1 0h1m2 0h1m5 0h2m2 0h1m3 0h7m6 0h1m1 0h4m2 0h2m3 0h2m2 0h1m1 0h2m1 0h2m5 0h1m2 0h2m1 0h1m3 0h1m1 0h3M4 54.5h1m1 0h1m1 0h1m1 0h1m1 0h2m2 0h1m2 0h1m3 0h1m2 0h1m1 0h1m1 0h3m1 0h1m1 0h2m2 0h2m1 0h1m5 0h1m1 0h2m1 0h1m1 0h3m1 0h1m4 0h1m2 0h5m2 0h1m2 0h1m1 0h1m1 0h3m1 0h1m3 0h1m1 0h2m1 0h5m2 0h3m1 0h1m1 0h1m3 0h5m1 0h1m1 0h1m3 0h1m1 0h2m1 0h2m1 0h1m1 0h1m1 0h2m1 0h1m6 0h4m4 0h3m1 0h1m1 0h2m1 0h1M4 55.5h5m3 0h1m2 0h2m4 0h3m1 0h2m3 0h2m2 0h1m4 0h3m1 0h1m1 0h2m1 0h1m3 0h1m3 0h2m3 0h2m1 0h1m2 0h1m1 0h1m3 0h2m1 0h1m1 0h1m3 0h1m1 0h1m1 0h2m1 0h1m2 0h5m1 0h1m2 0h1m2 0h1m3 0h1m2 0h3m2 0h5m2 0h1m1 0h3m2 0h1m3 0h1m1 0h2m2 0h3m2 0h1m2 0h2m1 0h1m1 0h4m3 0h2M5 56.5h2m1 0h6m1 0h1m4 0h1m1 0h1m1 0h1m1 0h5m6 0h2m3 0h1m4 0h10m1 0h1m3 0h4m1 0h1m2 0h1m5 0h1m1 0h5m2 0h1m2 0h1m2 0h1m2 0h1m2 0h5m1 0h7m1 0h1m4 0h3m1 0h2m1 0h1m3 0h9m2 0h2m3 0h5m2 0h1m1 0h1m3 0h5m1 0h3M5 57.5h3m1 0h1m3 0h3m1 0h2m1 0h1m1 0h5m1 0h3m1 0h1m4 0h1m3 0h2m1 0h1m1 0h3m1 0h4m2 0h1m2 0h1m5 0h1m2 0h1m1 0h3m1 0h1m3 0h3m10 0h1m2 0h2m5 0h1m5 0h1m1 0h2m1 0h1m1 0h2m1 0h2m3 0h1m1 0h4m9 0h6m1 0h4m3 0h5m7 0h2M4 58.5h4m2 0h1m1 0h1m2 0h6m1 0h2m2 0h1m2 0h1m3 0h1m5 0h2m1 0h1m4 0h1m1 0h1m2 0h1m2 0h6m4 0h1m1 0h2m1 0h1m1 0h1m2 0h3m1 0h1m1 0h3m1 0h2m1 0h1m1 0h3m2 0h2m1 0h1m2 0h2m1 0h2m3 0h1m2 0h1m1 0h1m2 0h3m2 0h1m1 0h1m1 0h1m1 0h4m1 0h5m1 0h1m1 0h3m3 0h5m2 0h1m1 0h1m2 0h2m1 0h2M4 59.5h1m2 0h1m5 0h2m2 0h2m1 0h1m4 0h1m2 0h1m1 0h1m1 0h4m1 0h1m2 0h1m2 0h4m2 0h1m1 0h1m1 0h3m3 0h1m2 0h5m6 0h5m1 0h1m2 0h3m1 0h1m2 0h1m2 0h3m1 0h1m1 0h2m3 0h1m4 0h4m1 0h1m4 0h2m3 0h1m1 0h1m2 0h1m3 0h1m1 0h4m2 0h4m1 0h1m1 0h2m2 0h1m2 0h1m1 0h2m1 0h1M4 60.5h2m1 0h6m3 0h1m1 0h2m2 0h2m1 0h2m1 0h1m1 0h2m3 0h2m2 0h2m6 0h1m1 0h3m3 0h4m4 0h7m4 0h1m2 0h1m2 0h2m3 0h2m1 0h2m1 0h1m2 0h1m2 0h2m1 0h4m2 0h3m2 0h3m1 0h5m3 0h1m1 0h1m1 0h3m1 0h1m1 0h7m1 0h6m1 0h1m1 0h3m2 0h1m1 0h3m1 0h3M7 61.5h3m1 0h2m1 0h3m2 0h2m1 0h2m2 0h4m2 0h2m2 0h1m1 0h2m4 0h3m1 0h1m2 0h3m1 0h1m3 0h1m3 0h2m3 0h1m1 0h1m1 0h2m1 0h1m2 0h3m1 0h1m1 0h2m8 0h1m1 0h1m3 0h1m2 0h2m4 0h1m1 0h2m1 0h2m3 0h1m2 0h3m1 0h2m1 0h3m4 0h3m1 0h2m1 0h2m2 0h1m1 0h5m4 0h1m2 0h4M6 62.5h2m1 0h3m2 0h2m1 0h5m2 0h3m2 0h1m3 0h1m1 0h1m3 0h3m4 0h1m4 0h1m1 0h1m1 0h4m1 0h1m4 0h1m1 0h6m5 0h2m5 0h2m1 0h1m1 0h2m6 0h1m3 0h1m2 0h3m4 0h1m6 0h1m3 0h2m3 0h9m2 0h1m1 0h2m5 0h4m1 0h3m2 0h3m2 0h1M4 63.5h1m1 0h1m2 0h1m4 0h1m3 0h7m2 0h1m1 0h2m2 0h3m1 0h1m2 0h2m2 0h1m1 0h3m3 0h4m6 0h3m1 0h1m4 0h1m2 0h1m1 0h1m4 0h6m1 0h1m1 0h7m1 0h2m1 0h2m4 0h3m1 0h2m1 0h1m2 0h4m2 0h3m2 0h1m4 0h2m1 0h2m4 0h1m1 0h1m4 0h1m3 0h2m1 0h2m2 0h1m2 0h1M4 64.5h2m2 0h1m1 0h1m1 0h1m5 0h1m2 0h1m2 0h1m2 0h1m1 0h1m1 0h1m1 0h1m1 0h6m1 0h3m3 0h3m3 0h2m1 0h1m4 0h1m4 0h5m2 0h1m5 0h1m2 0h1m3 0h2m5 0h2m1 0h4m2 0h2m1 0h1m1 0h2m2 0h1m2 0h2m1 0h1m1 0h2m5 0h2m1 0h2m1 0h1m1 0h1m2 0h2m1 0h1m4 0h1m1 0h5m4 0h3m2 0h1M5 65.5h2m1 0h2m1 0h2m2 0h3m1 0h1m6 0h2m1 0h3m1 0h1m1 0h2m2 0h2m2 0h4m1 0h1m1 0h4m3 0h2m1 0h1m3 0h2m4 0h1m1 0h1m2 0h1m2 0h1m1 0h2m1 0h3m2 0h2m1 0h1m1 0h2m1 0h1m3 0h2m2 0h1m4 0h4m1 0h2m1 0h1m3 0h2m1 0h1m1 0h2m1 0h2m2 0h1m5 0h8m2 0h2m1 0h1m2 0h5m1 0h1m2 0h1M5 66.5h1m2 0h1m1 0h4m1 0h1m1 0h1m2 0h2m2 0h3m4 0h1m1 0h1m5 0h2m8 0h5m1 0h6m6 0h2m1 0h1m1 0h2m4 0h1m3 0h1m1 0h3m1 0h3m4 0h1m2 0h3m1 0h1m1 0h1m1 0h2m1 0h2m1 0h4m2 0h2m1 0h6m3 0h1m2 0h2m1 0h2m1 0h1m1 0h2m5 0h1m1 0h2m1 0h2m3 0h1m1 0h2M4 67.5h3m1 0h1m3 0h2m3 0h4m2 0h1m1 0h1m2 0h4m1 0h1m1 0h1m1 0h1m2 0h1m2 0h4m4 0h2m1 0h2m3 0h1m2 0h3m1 0h1m7 0h1m1 0h2m3 0h4m2 0h1m3 0h4m1 0h1m4 0h3m3 0h1m2 0h2m5 0h2m1 0h1m3 0h1m4 0h1m2 0h1m1 0h2m5 0h3m5 0h1m2 0h5m3 0h1M4 68.5h4m2 0h3m1 0h1m1 0h2m3 0h1m1 0h1m5 0h2m3 0h2m1 0h3m2 0h1m1 0h1m2 0h1m1 0h1m9 0h1m1 0h1m1 0h6m1 0h1m1 0h1m2 0h1m1 0h1m1 0h1m3 0h1m1 0h1m1 0h3m5 0h1m1 0h1m2 0h1m2 0h4m1 0h2m3 0h1m1 0h2m1 0h1m1 0h2m1 0h1m1 0h1m1 0h5m1 0h1m2 0h1m1 0h3m1 0h1m2 0h2m1 0h4m1 0h1m3 0h2m2 0h2M4 69.5h1m2 0h2m2 0h2m2 0h1m1 0h9m1 0h1m1 0h5m1 0h3m3 0h6m1 0h1m1 0h9m1 0h1m2 0h2m2 0h1m1 0h1m1 0h3m2 0h2m2 0h1m3 0h2m2 0h2m4 0h1m1 0h2m1 0h2m2 0h1m5 0h2m1 0h1m1 0h1m2 0h1m1 0h1m2 0h3m1 0h2m2 0h3m4 0h4m3 0h1m6 0h2m2 0h2m1 0h2m4 0h1M6 70.5h2m2 0h1m1 0h4m2 0h3m1 0h3m4 0h2m5 0h1m3 0h2m1 0h1m2 0h1m3 0h4m2 0h1m1 0h4m3 0h1m2 0h1m1 0h4m3 0h1m3 0h3m1 0h6m4 0h12m2 0h1m2 0h2m1 0h2m1 0h1m1 0h6m1 0h2m1 0h5m1 0h2m1 0h1m1 0h1m3 0h1m2 0h1m1 0h2m2 0h4m1 0h4M4 71.5h1m1 0h3m2 0h1m3 0h1m1 0h1m3 0h4m1 0h3m4 0h5m2 0h1m2 0h1m2 0h1m6 0h2m2 0h1m1 0h1m2 0h1m1 0h2m5 0h1m2 0h1m1 0h5m1 0h1m1 0h1m4 0h1m2 0h3m1 0h1m8 0h3m7 0h1m2 0h2m1 0h1m6 0h1m2 0h2m3 0h1m5 0h2m10 0h1m1 0h2m1 0h3m2 0h1M6 72.5h2m1 0h5m6 0h2m1 0h3m7 0h1m1 0h1m2 0h1m1 0h1m1 0h2m5 0h2m6 0h1m2 0h10m1 0h3m6 0h1m2 0h1m1 0h1m1 0h3m3 0h3m2 0h3m1 0h1m3 0h1m1 0h1m7 0h3m1 0h1m2 0h1m1 0h1m2 0h2m4 0h2m2 0h1m2 0h1m1 0h1m3 0h1m1 0h2m1 0h2m1 0h1m1 0h2m2 0h4M4 73.5h1m1 0h4m1 0h1m4 0h1m1 0h2m2 0h1m1 0h3m2 0h1m2 0h1m1 0h2m3 0h1m1 0h2m1 0h2m2 0h1m1 0h1m1 0h1m1 0h1m2 0h3m1 0h1m1 0h1m2 0h1m1 0h4m3 0h1m1 0h5m1 0h2m9 0h2m1 0h1m11 0h6m2 0h2m2 0h4m1 0h1m3 0h1m2 0h1m1 0h1m1 0h2m1 0h1m1 0h1m1 0h1m4 0h4m3 0h2m1 0h1m1 0h1m2 0h1M7 74.5h2m1 0h2m4 0h1m1 0h1m1 0h1m1 0h1m2 0h2m2 0h3m1 0h1m4 0h1m1 0h1m2 0h1m2 0h1m2 0h1m3 0h1m1 0h4m1 0h1m4 0h1m1 0h6m2 0h1m2 0h2m1 0h4m1 0h2m2 0h3m2 0h1m1 0h2m1 0h1m1 0h1m1 0h1m1 0h1m1 0h2m2 0h1m2 0h3m1 0h1m2 0h1m1 0h2m1 0h1m1 0h9m5 0h1m2 0h4m1 0h1m2 0h1m2 0h7M4 75.5h1m3 0h1m3 0h1m2 0h3m1 0h2m3 0h1m1 0h3m2 0h2m1 0h4m2 0h2m1 0h1m2 0h2m3 0h1m2 0h1m2 0h1m3 0h2m1 0h4m5 0h2m1 0h4m2 0h1m1 0h3m2 0h1m1 0h3m2 0h1m8 0h3m1 0h4m1 0h1m3 0h2m1 0h1m1 0h4m1 0h1m3 0h3m4 0h1m2 0h2m1 0h1m5 0h1m2 0h4m1 0h2M4 76.5h2m1 0h2m1 0h2m2 0h2m2 0h1m1 0h1m2 0h1m5 0h1m3 0h1m3 0h3m2 0h4m3 0h1m3 0h1m1 0h1m1 0h1m4 0h1m4 0h4m3 0h1m2 0h1m3 0h1m1 0h1m2 0h4m4 0h1m2 0h1m1 0h2m1 0h1m3 0h1m1 0h2m5 0h4m1 0h2m1 0h1m3 0h2m1 0h1m3 0h5m2 0h1m1 0h1m1 0h3m2 0h1m2 0h1m3 0h2m3 0h1M4 77.5h1m1 0h4m2 0h1m1 0h1m2 0h2m3 0h1m3 0h1m1 0h1m5 0h1m1 0h1m6 0h3m1 0h3m2 0h2m1 0h2m3 0h3m1 0h4m2 0h2m1 0h2m1 0h1m1 0h1m1 0h1m2 0h2m6 0h2m1 0h1m2 0h1m1 0h3m1 0h3m1 0h1m2 0h1m1 0h3m2 0h1m1 0h1m1 0h6m2 0h1m2 0h2m3 0h5m2 0h2m5 0h2m1 0h1m1 0h2m3 0h4M5 78.5h1m2 0h5m5 0h1m1 0h2m1 0h2m1 0h6m1 0h3m1 0h1m2 0h4m2 0h1m4 0h8m1 0h1m2 0h1m1 0h1m1 0h4m1 0h1m2 0h2m1 0h6m1 0h2m1 0h1m1 0h2m1 0h1m3 0h2m3 0h7m3 0h3m1 0h1m1 0h1m1 0h5m1 0h1m3 0h7m2 0h1m2 0h2m1 0h4m1 0h2m3 0h6m2 0h1M4 79.5h1m2 0h2m3 0h1m1 0h1m1 0h1m1 0h3m1 0h1m1 0h1m1 0h1m3 0h1m2 0h2m1 0h1m2 0h2m2 0h1m1 0h2m2 0h1m1 0h2m3 0h1m4 0h2m1 0h4m3 0h1m1 0h4m1 0h1m3 0h2m2 0h1m2 0h5m2 0h1m4 0h2m1 0h1m3 0h1m1 0h1m5 0h6m5 0h2m1 0h1m3 0h4m3 0h3m1 0h1m5 0h2m1 0h1m1 0h1m3 0h2m1 0h2M4 80.5h2m2 0h1m1 0h1m1 0h1m1 0h1m4 0h4m3 0h1m1 0h1m1 0h2m1 0h2m1 0h1m1 0h1m3 0h1m4 0h2m1 0h1m1 0h1m1 0h1m1 0h1m1 0h7m1 0h1m6 0h2m1 0h3m1 0h1m1 0h2m1 0h1m2 0h1m2 0h1m2 0h1m2 0h1m2 0h2m1 0h2m1 0h1m1 0h2m2 0h1m3 0h1m1 0h4m1 0h1m1 0h1m1 0h4m1 0h1m1 0h1m2 0h1m2 0h1m1 0h2m2 0h1m1 0h3m1 0h2m1 0h2m1 0h1m1 0h1m1 0h2M4 81.5h1m3 0h1m3 0h1m1 0h2m1 0h2m2 0h1m2 0h1m1 0h1m3 0h6m2 0h2m1 0h2m1 0h5m3 0h1m3 0h2m1 0h1m4 0h2m3 0h4m2 0h1m2 0h1m3 0h1m5 0h2m1 0h1m2 0h4m5 0h2m3 0h8m1 0h1m3 0h2m1 0h4m1 0h2m3 0h1m4 0h4m1 0h3m2 0h1m1 0h3m1 0h2m3 0h1m1 0h1m1 0h1M4 82.5h1m2 0h6m1 0h2m2 0h3m2 0h9m1 0h1m1 0h2m1 0h1m1 0h1m2 0h1m2 0h1m3 0h1m1 0h5m1 0h1m1 0h2m1 0h1m4 0h1m1 0h4m1 0h1m2 0h5m1 0h3m2 0h2m6 0h4m1 0h8m2 0h1m5 0h1m1 0h7m2 0h6m1 0h1m8 0h1m1 0h4m3 0h1m1 0h6M4 83.5h1m4 0h1m1 0h1m2 0h2m2 0h5m2 0h2m2 0h2m1 0h1m2 0h2m2 0h1m1 0h1m3 0h2m1 0h1m2 0h3m2 0h1m4 0h2m1 0h4m3 0h1m1 0h5m1 0h1m2 0h4m3 0h1m1 0h2m2 0h4m2 0h2m1 0h2m3 0h3m2 0h2m1 0h2m5 0h1m2 0h3m3 0h4m5 0h2m1 0h1m1 0h3m1 0h4m1 0h1m2 0h2M10 84.5h1m1 0h2m1 0h1m2 0h4m2 0h1m4 0h1m2 0h1m3 0h3m1 0h1m1 0h1m6 0h2m3 0h2m1 0h1m2 0h1m2 0h2m1 0h2m3 0h1m1 0h1m1 0h3m1 0h1m2 0h1m2 0h2m1 0h1m2 0h1m1 0h2m2 0h1m2 0h2m4 0h1m2 0h1m5 0h2m1 0h1m1 0h2m1 0h1m4 0h1m1 0h1m1 0h1m3 0h1m1 0h3m2 0h2m1 0h3m1 0h2m5 0h1m1 0h2m1 0h3M6 85.5h2m1 0h1m1 0h1m2 0h1m1 0h4m2 0h2m1 0h3m2 0h4m2 0h1m1 0h2m1 0h5m2 0h4m1 0h3m2 0h1m2 0h2m3 0h3m1 0h4m1 0h2m1 0h1m1 0h1m3 0h2m2 0h1m3 0h1m1 0h2m1 0h1m1 0h2m3 0h4m2 0h1m1 0h4m1 0h1m3 0h2m1 0h4m1 0h1m1 0h1m2 0h2m1 0h1m2 0h1m1 0h1m1 0h1m2 0h1m1 0h1m1 0h3m2 0h1m1 0h1m3 0h1m1 0h1M4 86.5h1m3 0h1m1 0h1m2 0h3m1 0h1m2 0h2m2 0h3m4 0h1m2 0h1m1 0h1m1 0h1m1 0h1m5 0h2m2 0h1m5 0h3m1 0h1m4 0h1m2 0h1m1 0h3m6 0h2m1 0h1m2 0h4m1 0h1m6 0h2m2 0h4m1 0h2m1 0h2m1 0h1m7 0h2m2 0h1m4 0h3m1 0h1m2 0h2m1 0h1m1 0h1m3 0h1m1 0h3m5 0h3m3 0h3M4 87.5h1m2 0h2m2 0h3m1 0h6m1 0h3m1 0h1m1 0h1m1 0h1m1 0h3m1 0h1m3 0h1m2 0h1m2 0h1m2 0h1m1 0h2m2 0h2m4 0h4m1 0h2m5 0h5m1 0h1m1 0h2m1 0h1m1 0h2m2 0h3m1 0h1m1 0h2m5 0h2m2 0h1m1 0h1m1 0h2m2 0h1m2 0h2m1 0h1m1 0h1m1 0h2m1 0h1m1 0h5m6 0h2m1 0h1m3 0h2m1 0h4m1 0h1m1 0h1m1 0h1m2 0h1M4 88.5h1m1 0h2m1 0h2m1 0h4m1 0h2m1 0h4m3 0h1m4 0h3m2 0h3m1 0h5m1 0h1m2 0h1m2 0h2m2 0h3m1 0h2m2 0h1m1 0h3m3 0h2m2 0h4m1 0h2m1 0h1m1 0h5m5 0h2m1 0h1m1 0h2m1 0h1m2 0h2m6 0h1m1 0h1m1 0h2m1 0h1m8 0h2m2 0h1m1 0h2m6 0h3m1 0h1m1 0h1m3 0h1m3 0h3m1 0h1M6 89.5h1m2 0h1m4 0h2m2 0h1m1 0h6m7 0h4m1 0h1m2 0h2m1 0h7m3 0h2m2 0h3m4 0h2m1 0h6m3 0h1m2 0h2m6 0h2m1 0h1m2 0h1m2 0h1m2 0h1m4 0h6m1 0h1m1 0h2m5 0h2m1 0h1m1 0h1m2 0h3m3 0h1m3 0h4m1 0h1m4 0h4m3 0h1m1 0h1m1 0h2m1 0h2M4 90.5h1m3 0h5m1 0h1m1 0h4m2 0h2m1 0h2m2 0h3m4 0h2m2 0h2m1 0h1m6 0h4m4 0h4m5 0h2m1 0h3m5 0h7m1 0h1m6 0h1m1 0h1m2 0h2m1 0h4m4 0h4m2 0h1m1 0h2m1 0h1m2 0h5m1 0h2m2 0h1m1 0h5m2 0h1m5 0h1m1 0h2m2 0h3m6 0h1M4 91.5h3m2 0h1m3 0h2m3 0h3m2 0h2m2 0h3m1 0h3m3 0h1m8 0h1m4 0h2m2 0h2m2 0h1m1 0h4m1 0h2m1 0h1m1 0h1m2 0h4m1 0h1m1 0h1m1 0h3m3 0h1m1 0h2m2 0h2m1 0h1m6 0h1m4 0h1m5 0h1m1 0h1m2 0h3m4 0h1m1 0h2m2 0h1m1 0h2m1 0h1m1 0h2m4 0h1m1 0h1m1 0h4m5 0h2M7 92.5h6m1 0h2m2 0h3m1 0h2m2 0h3m1 0h6m1 0h3m1 0h5m1 0h2m1 0h1m3 0h1m2 0h1m4 0h1m3 0h1m1 0h2m4 0h1m2 0h1m2 0h1m1 0h2m1 0h1m2 0h1m2 0h1m1 0h2m2 0h2m1 0h4m3 0h1m5 0h1m3 0h2m1 0h1m6 0h2m3 0h3m3 0h4m1 0h1m1 0h2m1 0h1m1 0h1m2 0h4m3 0h4M4 93.5h1m3 0h2m1 0h2m1 0h2m2 0h1m1 0h4m4 0h2m1 0h1m5 0h3m1 0h1m1 0h3m1 0h3m3 0h1m2 0h1m1 0h1m1 0h2m2 0h2m1 0h1m1 0h5m1 0h1m3 0h1m3 0h1m3 0h3m3 0h2m2 0h1m1 0h3m2 0h3m1 0h2m2 0h1m9 0h1m1 0h1m1 0h2m1 0h1m8 0h5m1 0h2m3 0h8m1 0h1m1 0h1m1 0h1m1 0h1M4 94.5h1m3 0h3m1 0h5m1 0h4m3 0h2m2 0h2m2 0h2m5 0h1m1 0h1m3 0h1m3 0h6m1 0h2m1 0h1m6 0h2m1 0h1m1 0h2m1 0h1m2 0h3m2 0h2m1 0h1m2 0h5m1 0h4m2 0h3m3 0h1m2 0h1m2 0h3m3 0h2m1 0h6m2 0h1m2 0h1m2 0h2m3 0h2m2 0h2m1 0h1m1 0h2m1 0h4M5 95.5h1m5 0h2m7 0h5m7 0h4m3 0h2m2 0h1m1 0h2m2 0h1m1 0h1m1 0h1m2 0h2m3 0h1m1 0h2m1 0h1m7 0h1m1 0h3m3 0h1m1 0h1m2 0h3m2 0h5m2 0h1m1 0h7m2 0h1m1 0h1m1 0h5m3 0h2m2 0h3m1 0h2m1 0h2m1 0h2m1 0h1m1 0h2m4 0h2m2 0h4m1 0h1m1 0h1m1 0h2m1 0h2M4 96.5h4m1 0h4m1 0h2m4 0h1m1 0h3m2 0h1m3 0h2m1 0h5m2 0h2m1 0h2m2 0h3m2 0h2m2 0h1m1 0h1m1 0h1m1 0h2m2 0h1m1 0h1m3 0h1m1 0h6m1 0h2m1 0h1m1 0h2m1 0h2m2 0h1m5 0h1m1 0h1m1 0h1m1 0h2m5 0h1m1 0h6m4 0h1m1 0h2m2 0h2m1 0h5m1 0h1m2 0h1m1 0h2m3 0h2m4 0h1m2 0h2m1 0h1m1 0h1M4 97.5h3m6 0h2m1 0h1m1 0h2m2 0h1m2 0h1m2 0h4m2 0h1m4 0h1m2 0h3m1 0h1m1 0h2m10 0h2m3 0h2m2 0h3m4 0h1m2 0h1m3 0h1m4 0h2m1 0h4m1 0h1m2 0h3m4 0h1m1 0h5m1 0h1m2 0h1m1 0h1m1 0h6m2 0h2m4 0h1m1 0h6m1 0h1m1 0h2m1 0h1m2 0h1m1 0h2m1 0h6m1 0h1M5 98.5h3m2 0h1m2 0h1m1 0h1m3 0h3m1 0h1m2 0h1m3 0h5m5 0h1m10 0h2m1 0h2m1 0h4m2 0h1m1 0h1m1 0h4m1 0h1m5 0h1m1 0h2m2 0h4m1 0h3m1 0h1m3 0h2m1 0h1m1 0h2m6 0h2m5 0h1m1 0h1m4 0h2m2 0h2m3 0h1m2 0h1m1 0h2m2 0h2m4 0h1m2 0h1m2 0h2m1 0h4M5 99.5h2m1 0h1m4 0h4m3 0h7m2 0h4m1 0h2m1 0h1m1 0h2m2 0h1m2 0h1m1 0h2m1 0h2m2 0h1m6 0h1m1 0h2m1 0h1m6 0h5m2 0h2m1 0h3m2 0h1m1 0h2m1 0h3m1 0h2m2 0h5m1 0h3m1 0h5m1 0h2m3 0h2m5 0h3m1 0h2m6 0h1m2 0h1m2 0h1m2 0h1m1 0h2m3 0h3m2 0h1M6 100.5h1m1 0h5m1 0h3m1 0h3m2 0h4m3 0h2m1 0h6m3 0h1m1 0h2m4 0h1m3 0h1m2 0h2m5 0h2m2 0h2m1 0h1m3 0h1m4 0h3m5 0h2m1 0h1m5 0h2m1 0h5m1 0h4m3 0h1m1 0h4m1 0h2m5 0h2m3 0h2m4 0h3m2 0h2m1 0h2m2 0h1m1 0h2m1 0h3m1 0h6M5 101.5h1m2 0h2m2 0h2m2 0h1m1 0h1m1 0h1m3 0h2m1 0h2m1 0h1m3 0h1m1 0h1m1 0h1m3 0h3m3 0h2m2 0h3m1 0h1m2 0h3m3 0h1m1 0h1m4 0h1m2 0h5m4 0h1m2 0h1m1 0h1m3 0h3m1 0h1m6 0h1m1 0h9m6 0h2m1 0h1m1 0h2m1 0h2m3 0h1m5 0h2m2 0h2m1 0h1m2 0h1m1 0h1m2 0h1m2 0h4m1 0h2M4 102.5h1m4 0h2m1 0h1m1 0h2m1 0h1m2 0h3m1 0h3m2 0h1m2 0h4m1 0h2m1 0h2m1 0h1m1 0h1m1 0h1m2 0h4m1 0h6m2 0h1m1 0h1m1 0h4m1 0h2m4 0h4m1 0h2m1 0h1m1 0h1m1 0h1m4 0h6m1 0h3m4 0h3m2 0h1m1 0h1m1 0h1m1 0h1m3 0h1m2 0h2m1 0h2m1 0h1m1 0h2m1 0h1m3 0h2m2 0h4m4 0h2m1 0h2m4 0h1M4 103.5h1m1 0h3m8 0h2m2 0h2m7 0h1m1 0h2m3 0h1m2 0h2m2 0h4m1 0h1m1 0h2m2 0h3m4 0h3m1 0h2m5 0h2m1 0h4m2 0h6m1 0h2m1 0h2m2 0h3m2 0h1m1 0h1m1 0h2m1 0h2m3 0h1m1 0h2m2 0h3m1 0h3m1 0h1m1 0h1m2 0h3m7 0h2m1 0h1m1 0h2m2 0h1m2 0h1m1 0h1m3 0h2m1 0h2M5 104.5h1m1 0h10m1 0h5m2 0h6m6 0h2m1 0h1m1 0h2m1 0h1m3 0h2m1 0h6m1 0h1m1 0h1m2 0h3m2 0h1m1 0h2m2 0h2m1 0h5m2 0h1m2 0h3m4 0h1m3 0h3m1 0h7m5 0h2m1 0h1m1 0h2m1 0h1m4 0h1m1 0h6m2 0h2m1 0h1m3 0h4m1 0h1m1 0h1m3 0h5m1 0h1M4 105.5h1m1 0h1m1 0h1m3 0h1m1 0h3m1 0h1m2 0h1m2 0h1m1 0h1m3 0h3m1 0h5m2 0h6m1 0h1m1 0h3m3 0h1m2 0h2m1 0h2m7 0h1m3 0h4m3 0h1m2 0h1m1 0h1m1 0h1m3 0h3m3 0h3m2 0h1m3 0h1m1 0h3m1 0h1m7 0h1m1 0h4m2 0h1m3 0h1m3 0h3m1 0h1m1 0h3m3 0h4m1 0h2m3 0h1m1 0h3M4 106.5h1m3 0h1m1 0h1m1 0h1m2 0h2m2 0h2m1 0h1m2 0h2m1 0h1m1 0h1m2 0h1m1 0h2m1 0h3m1 0h1m3 0h2m1 0h2m1 0h1m1 0h1m1 0h1m1 0h1m6 0h1m1 0h2m1 0h1m1 0h2m3 0h2m1 0h1m1 0h2m1 0h3m2 0h1m1 0h1m3 0h1m1 0h2m2 0h1m1 0h1m1 0h1m1 0h1m1 0h1m1 0h8m1 0h1m1 0h2m1 0h1m1 0h1m1 0h1m1 0h1m1 0h4m3 0h1m1 0h1m1 0h1m1 0h3m4 0h1m1 0h1m1 0h1m1 0h3M4 107.5h1m1 0h3m3 0h3m1 0h1m1 0h2m1 0h1m1 0h2m1 0h1m3 0h1m1 0h1m1 0h4m3 0h1m1 0h2m1 0h2m1 0h1m1 0h2m3 0h1m2 0h1m2 0h3m1 0h1m4 0h1m1 0h4m1 0h1m3 0h1m1 0h1m5 0h5m1 0h3m2 0h1m1 0h2m3 0h2m1 0h1m5 0h5m2 0h3m1 0h3m3 0h2m4 0h1m1 0h1m2 0h1m2 0h1m3 0h1m1 0h1m1 0h1m3 0h2m1 0h1M4 108.5h1m1 0h1m1 0h5m2 0h2m1 0h1m1 0h11m1 0h5m1 0h6m3 0h1m1 0h2m1 0h5m6 0h2m2 0h1m1 0h1m3 0h1m2 0h1m1 0h5m2 0h1m2 0h2m1 0h1m2 0h1m5 0h9m6 0h2m1 0h1m1 0h1m2 0h1m1 0h1m1 0h2m1 0h5m3 0h3m4 0h2m3 0h4m1 0h6m1 0h1m1 0h1M5 109.5h1m2 0h2m8 0h1m1 0h1m1 0h1m3 0h1m1 0h1m1 0h1m1 0h1m1 0h1m2 0h6m1 0h1m3 0h1m5 0h1m2 0h2m4 0h1m2 0h1m1 0h1m2 0h2m2 0h1m1 0h1m2 0h1m1 0h2m1 0h1m5 0h1m2 0h2m1 0h1m7 0h8m1 0h2m3 0h1m1 0h4m1 0h1m2 0h1m1 0h4m2 0h5m1 0h2m2 0h1m1 0h2m1 0h1m1 0h1m2 0h1m1 0h2m1 0h3M4 110.5h3m1 0h3m1 0h2m2 0h1m1 0h1m1 0h2m6 0h1m1 0h1m1 0h1m1 0h4m2 0h1m1 0h1m2 0h3m3 0h2m1 0h1m2 0h2m1 0h1m4 0h1m1 0h2m1 0h3m2 0h1m3 0h1m1 0h1m1 0h6m1 0h2m4 0h4m2 0h2m2 0h1m1 0h1m1 0h1m2 0h2m1 0h4m1 0h2m1 0h2m1 0h1m1 0h1m1 0h1m4 0h2m8 0h1m1 0h1m1 0h2m1 0h1m1 0h4m4 0h1M4 111.5h4m6 0h1m1 0h1m2 0h4m1 0h1m1 0h2m4 0h2m3 0h1m1 0h3m1 0h1m1 0h4m8 0h1m1 0h1m1 0h4m1 0h1m7 0h4m2 0h1m1 0h1m1 0h1m1 0h2m1 0h2m1 0h1m2 0h4m5 0h1m2 0h1m1 0h1m1 0h1m6 0h1m1 0h1m6 0h7m2 0h2m1 0h1m1 0h2m1 0h1m6 0h4m8 0h2M5 112.5h6m1 0h2m1 0h4m10 0h1m2 0h4m1 0h2m1 0h1m1 0h2m1 0h1m3 0h4m2 0h2m1 0h1m1 0h1m3 0h1m3 0h3m1 0h2m1 0h2m1 0h1m2 0h2m2 0h1m2 0h1m2 0h1m1 0h3m2 0h3m4 0h1m3 0h1m3 0h1m2 0h1m1 0h4m6 0h1m4 0h2m3 0h1m1 0h2m4 0h1m1 0h1m1 0h2m1 0h1m1 0h3m1 0h2m1 0h1m1 0h1M8 113.5h1m3 0h2m1 0h1m1 0h2m1 0h4m1 0h2m1 0h1m1 0h1m1 0h1m1 0h2m2 0h1m2 0h1m1 0h1m2 0h1m1 0h3m3 0h2m1 0h1m1 0h2m3 0h11m1 0h2m1 0h1m2 0h1m2 0h1m1 0h2m2 0h2m1 0h2m1 0h1m1 0h1m1 0h1m2 0h5m1 0h1m1 0h1m1 0h1m6 0h2m1 0h4m3 0h2m4 0h2m3 0h1m1 0h3m3 0h1m1 0h1m2 0h1m4 0h5M4 114.5h2m2 0h4m3 0h4m1 0h1m3 0h1m6 0h1m1 0h1m2 0h6m5 0h1m3 0h3m4 0h1m2 0h1m5 0h2m1 0h1m1 0h2m1 0h1m2 0h1m2 0h1m1 0h1m2 0h1m2 0h3m3 0h1m2 0h1m1 0h2m1 0h2m1 0h5m1 0h2m1 0h1m1 0h1m3 0h2m1 0h1m1 0h1m1 0h1m1 0h1m4 0h2m5 0h2m2 0h3m4 0h2m2 0h5M6 115.5h1m1 0h2m2 0h1m1 0h1m2 0h2m1 0h2m3 0h4m2 0h4m3 0h2m4 0h1m1 0h1m1 0h1m2 0h3m1 0h2m2 0h1m1 0h6m2 0h1m1 0h1m2 0h3m1 0h1m1 0h1m2 0h3m1 0h1m2 0h5m1 0h3m5 0h2m3 0h1m1 0h4m1 0h1m1 0h3m2 0h2m2 0h1m2 0h1m2 0h1m2 0h1m2 0h2m1 0h2m4 0h2m4 0h2m2 0h1m2 0h1m2 0h1M4 116.5h1m2 0h5m5 0h5m1 0h2m1 0h1m1 0h1m2 0h1m2 0h1m1 0h2m1 0h2m1 0h1m4 0h7m2 0h1m1 0h1m6 0h1m5 0h1m1 0h1m1 0h1m1 0h1m1 0h1m2 0h2m1 0h4m2 0h1m3 0h1m3 0h3m3 0h2m1 0h2m3 0h1m1 0h4m1 0h1m4 0h1m1 0h2m3 0h8m4 0h5m1 0h1m1 0h1m2 0h1m4 0h1m1 0h3M6 117.5h1m2 0h1m1 0h4m1 0h3m3 0h1m1 0h3m2 0h1m4 0h1m1 0h3m2 0h1m1 0h4m1 0h3m6 0h1m2 0h1m3 0h2m1 0h2m1 0h1m1 0h1m3 0h2m2 0h1m1 0h1m2 0h1m2 0h2m1 0h1m2 0h2m1 0h1m1 0h1m3 0h1m1 0h1m4 0h3m1 0h1m4 0h1m2 0h5m2 0h4m1 0h2m2 0h1m1 0h3m1 0h3m4 0h3m1 0h1m1 0h1m1 0h2m2 0h2M5 118.5h1m1 0h1m1 0h4m1 0h2m2 0h1m5 0h1m1 0h3m1 0h4m2 0h1m3 0h1m2 0h1m2 0h2m3 0h2m5 0h1m1 0h2m5 0h4m1 0h1m4 0h3m3 0h1m1 0h6m4 0h1m2 0h2m1 0h6m1 0h2m3 0h3m1 0h2m4 0h2m1 0h3m2 0h1m1 0h4m2 0h1m8 0h2m4 0h1m2 0h3M5 119.5h1m1 0h2m3 0h1m1 0h3m1 0h1m2 0h2m4 0h1m3 0h4m2 0h4m2 0h1m2 0h4m1 0h2m1 0h2m3 0h1m1 0h4m1 0h1m4 0h1m1 0h5m1 0h2m1 0h1m1 0h1m1 0h1m3 0h4m2 0h1m1 0h1m5 0h1m2 0h1m2 0h3m1 0h3m1 0h1m1 0h1m1 0h4m2 0h1m1 0h1m4 0h2m5 0h1m1 0h2m2 0h1m2 0h1m1 0h2m1 0h4m1 0h1M5 120.5h1m2 0h4m1 0h1m2 0h1m2 0h1m3 0h2m3 0h1m4 0h1m2 0h2m4 0h1m5 0h1m1 0h4m1 0h3m2 0h1m1 0h3m1 0h1m1 0h1m2 0h2m4 0h1m1 0h1m2 0h1m2 0h1m1 0h5m1 0h2m3 0h1m1 0h1m5 0h1m4 0h1m1 0h1m2 0h3m1 0h2m1 0h1m1 0h1m1 0h2m2 0h4m1 0h3m1 0h1m5 0h1m2 0h2m2 0h2m1 0h1m3 0h5M9 121.5h1m1 0h1m3 0h1m3 0h2m3 0h1m8 0h1m1 0h1m1 0h1m4 0h3m1 0h4m1 0h1m2 0h2m3 0h4m2 0h1m2 0h4m3 0h1m4 0h6m1 0h3m1 0h1m1 0h2m2 0h1m2 0h2m1 0h2m1 0h2m2 0h5m3 0h2m1 0h2m1 0h1m1 0h1m2 0h1m1 0h5m1 0h1m1 0h2m1 0h3m1 0h2m1 0h1m1 0h2m7 0h3m1 0h1M4 122.5h1m1 0h1m2 0h4m2 0h2m2 0h2m2 0h1m1 0h1m1 0h2m2 0h1m2 0h2m1 0h2m1 0h1m2 0h1m3 0h1m4 0h3m2 0h5m1 0h1m1 0h1m1 0h4m1 0h1m2 0h1m2 0h2m1 0h3m1 0h2m2 0h1m1 0h1m1 0h1m1 0h1m2 0h1m1 0h1m1 0h1m1 0h1m1 0h3m1 0h6m1 0h4m1 0h1m3 0h3m1 0h1m3 0h4m3 0h1m3 0h1m1 0h2m2 0h1m2 0h2m1 0h4m2 0h1M4 123.5h1m2 0h3m2 0h2m3 0h3m2 0h6m2 0h3m2 0h2m2 0h1m3 0h1m2 0h1m2 0h1m1 0h2m1 0h3m4 0h2m1 0h4m5 0h2m1 0h6m2 0h2m1 0h1m1 0h5m2 0h3m4 0h3m3 0h1m3 0h1m2 0h5m1 0h2m1 0h1m1 0h1m1 0h2m5 0h1m3 0h4m1 0h1m1 0h1m1 0h1m3 0h2m3 0h1m2 0h1m2 0h1M9 124.5h2m1 0h5m5 0h2m4 0h1m1 0h3m2 0h1m1 0h1m2 0h6m1 0h1m2 0h1m2 0h1m1 0h2m1 0h3m1 0h1m1 0h2m3 0h1m2 0h1m1 0h2m2 0h2m7 0h2m2 0h1m2 0h2m3 0h2m1 0h1m3 0h2m3 0h1m3 0h4m1 0h1m2 0h1m3 0h2m2 0h3m1 0h1m2 0h1m1 0h3m1 0h3m1 0h1m1 0h1m1 0h2m2 0h2m2 0h1m3 0h1M5 125.5h1m1 0h3m3 0h1m1 0h4m1 0h1m4 0h2m1 0h2m2 0h1m2 0h4m2 0h2m1 0h2m1 0h2m1 0h2m2 0h1m2 0h2m2 0h1m1 0h1m1 0h2m3 0h1m2 0h1m5 0h5m1 0h1m1 0h3m1 0h4m1 0h1m4 0h1m1 0h2m2 0h2m1 0h1m1 0h4m1 0h1m4 0h1m1 0h1m1 0h1m4 0h4m6 0h1m3 0h1m4 0h6m3 0h6M5 126.5h4m1 0h2m1 0h2m2 0h3m1 0h1m1 0h3m2 0h1m1 0h1m2 0h3m1 0h1m2 0h1m1 0h2m1 0h2m2 0h2m1 0h1m2 0h1m2 0h1m1 0h2m5 0h4m1 0h1m5 0h1m1 0h1m2 0h2m1 0h3m1 0h2m4 0h1m1 0h1m1 0h3m1 0h1m1 0h1m1 0h1m1 0h1m1 0h1m2 0h1m1 0h1m2 0h2m1 0h2m1 0h2m1 0h2m2 0h1m1 0h2m1 0h1m3 0h2m3 0h3m1 0h1m1 0h2m4 0h2m1 0h2M5 127.5h1m1 0h2m3 0h2m1 0h3m3 0h1m1 0h2m7 0h5m2 0h3m1 0h2m1 0h2m3 0h2m3 0h1m5 0h3m1 0h1m4 0h1m4 0h2m2 0h2m1 0h2m1 0h1m2 0h1m1 0h2m1 0h1m1 0h4m4 0h2m3 0h2m1 0h1m1 0h1m6 0h2m2 0h1m2 0h1m1 0h2m1 0h1m2 0h1m2 0h1m1 0h3m3 0h3m1 0h1m2 0h3m1 0h1m2 0h1m1 0h1M5 128.5h1m2 0h7m1 0h3m3 0h1m2 0h1m3 0h1m1 0h4m2 0h2m2 0h3m3 0h1m2 0h1m1 0h1m2 0h3m5 0h1m2 0h1m1 0h2m2 0h2m1 0h3m1 0h1m6 0h1m1 0h4m2 0h1m2 0h1m2 0h1m4 0h4m3 0h2m2 0h1m1 0h1m1 0h1m6 0h2m4 0h2m1 0h1m1 0h1m7 0h2m1 0h2m2 0h1m1 0h3m1 0h2m1 0h1M5 129.5h1m1 0h1m1 0h1m4 0h1m2 0h5m1 0h1m2 0h1m2 0h1m1 0h3m1 0h1m2 0h1m3 0h5m1 0h1m2 0h1m1 0h2m3 0h3m7 0h5m2 0h1m1 0h1m1 0h5m5 0h1m1 0h1m2 0h1m5 0h1m2 0h1m2 0h1m2 0h4m1 0h1m2 0h1m1 0h1m1 0h7m1 0h1m1 0h4m2 0h6m1 0h1m4 0h1m1 0h3m9 0h2M8 130.5h6m1 0h1m3 0h2m2 0h1m1 0h9m1 0h2m1 0h3m1 0h1m2 0h1m1 0h1m3 0h8m1 0h1m2 0h1m1 0h1m2 0h3m1 0h1m2 0h1m1 0h8m1 0h1m1 0h1m1 0h1m2 0h1m1 0h1m2 0h2m1 0h9m2 0h1m1 0h1m2 0h2m1 0h2m8 0h5m1 0h2m1 0h1m1 0h1m3 0h1m2 0h1m2 0h1m4 0h6M6 131.5h3m3 0h1m1 0h1m1 0h2m1 0h1m1 0h3m1 0h2m3 0h2m1 0h1m1 0h2m2 0h1m1 0h1m1 0h1m2 0h4m2 0h1m3 0h1m2 0h1m1 0h4m1 0h2m3 0h1m1 0h6m3 0h1m1 0h2m3 0h4m3 0h1m1 0h1m2 0h1m1 0h2m3 0h2m1 0h4m3 0h3m1 0h2m3 0h2m1 0h1m3 0h1m1 0h2m4 0h2m1 0h1m1 0h2m3 0h5m3 0h1m2 0h2M4 132.5h1m2 0h2m1 0h1m1 0h3m1 0h1m1 0h1m6 0h2m1 0h1m1 0h1m2 0h1m3 0h2m2 0h3m1 0h1m2 0h3m1 0h1m1 0h1m1 0h2m6 0h2m3 0h4m1 0h2m1 0h2m1 0h1m1 0h2m2 0h1m1 0h4m1 0h1m6 0h1m3 0h1m1 0h1m1 0h1m4 0h1m1 0h2m1 0h1m1 0h1m4 0h1m1 0h2m1 0h1m1 0h1m1 0h1m1 0h1m1 0h4m3 0h4m1 0h2m1 0h1m2 0h1m1 0h1m1 0h1m1 0h1m1 0h1M5 133.5h4m3 0h2m1 0h5m6 0h1m3 0h2m1 0h1m10 0h1m1 0h1m1 0h1m1 0h1m1 0h1m3 0h5m5 0h1m3 0h1m2 0h3m1 0h2m3 0h1m5 0h2m3 0h3m3 0h3m2 0h1m3 0h7m4 0h1m1 0h2m1 0h1m1 0h2m1 0h2m3 0h1m2 0h1m2 0h3m1 0h1m1 0h1m2 0h4m3 0h1m3 0h5M4 134.5h3m1 0h8m1 0h1m1 0h1m1 0h1m2 0h8m2 0h1m3 0h4m3 0h3m1 0h2m1 0h5m1 0h4m3 0h1m1 0h4m1 0h1m5 0h7m1 0h3m1 0h4m3 0h4m1 0h7m1 0h3m1 0h1m2 0h1m1 0h2m3 0h1m1 0h9m1 0h1m2 0h1m1 0h2m2 0h2m1 0h1m1 0h2m2 0h1m1 0h5m1 0h1M6 135.5h1m4 0h1m1 0h2m1 0h1m1 0h5m2 0h6m2 0h2m1 0h1m1 0h1m1 0h2m1 0h1m1 0h5m1 0h2m1 0h1m2 0h1m1 0h1m1 0h2m1 0h4m5 0h2m1 0h1m1 0h1m1 0h1m2 0h2m2 0h1m4 0h1m2 0h1m3 0h1m1 0h1m1 0h7m5 0h4m1 0h5m3 0h2m3 0h1m1 0h3m1 0h1m1 0h2m4 0h1m1 0h1m4 0h3m1 0h2m1 0h1m1 0h1M5 136.5h2m1 0h3m2 0h2m5 0h2m1 0h3m3 0h1m2 0h8m2 0h4m1 0h5m1 0h1m2 0h3m4 0h3m2 0h1m1 0h1m2 0h6m1 0h2m6 0h1m1 0h2m2 0h2m1 0h1m2 0h1m5 0h1m6 0h1m2 0h1m1 0h1m2 0h1m5 0h3m6 0h3m1 0h2m1 0h5m2 0h4m2 0h3m3 0h1m1 0h1M5 137.5h1m1 0h3m1 0h4m7 0h2m2 0h4m2 0h6m1 0h1m1 0h4m2 0h2m1 0h1m4 0h4m1 0h2m5 0h1m4 0h1m4 0h1m4 0h3m2 0h2m2 0h1m2 0h2m3 0h3m2 0h1m1 0h5m1 0h4m3 0h1m1 0h2m1 0h3m3 0h3m1 0h2m2 0h1m1 0h2m2 0h1m1 0h1m2 0h5m4 0h1m1 0h1m3 0h1M4 138.5h1m3 0h1m1 0h2m2 0h2m2 0h3m2 0h1m2 0h1m1 0h1m1 0h1m1 0h1m2 0h2m2 0h2m1 0h1m2 0h3m2 0h1m3 0h1m2 0h5m1 0h1m3 0h2m1 0h1m1 0h1m4 0h3m2 0h1m3 0h1m1 0h1m1 0h3m4 0h3m4 0h8m1 0h2m1 0h2m7 0h1m1 0h1m1 0h1m2 0h2m1 0h3m3 0h3m1 0h1m1 0h2m2 0h1m2 0h2m1 0h1m1 0h3m1 0h1M4 139.5h6m1 0h1m1 0h6m1 0h2m4 0h1m2 0h2m1 0h1m1 0h1m1 0h1m1 0h2m1 0h2m2 0h2m1 0h1m3 0h1m1 0h3m2 0h1m1 0h4m1 0h2m1 0h1m1 0h1m1 0h4m1 0h4m1 0h5m1 0h2m1 0h1m2 0h2m2 0h1m2 0h3m1 0h4m1 0h1m2 0h4m1 0h2m1 0h1m1 0h3m1 0h3m3 0h1m4 0h1m2 0h2m1 0h1m5 0h1m2 0h1m1 0h5m2 0h1M4 140.5h1m3 0h9m1 0h1m2 0h1m3 0h1m1 0h1m5 0h1m3 0h2m1 0h1m3 0h2m1 0h2m1 0h1m2 0h1m2 0h3m1 0h1m2 0h1m2 0h5m2 0h1m1 0h3m1 0h3m5 0h2m2 0h1m2 0h2m1 0h1m2 0h1m2 0h3m5 0h1m1 0h1m1 0h6m4 0h1m1 0h5m3 0h2m1 0h1m4 0h1m2 0h2m1 0h2m2 0h1m5 0h1m1 0h2m1 0h1M4 141.5h1m1 0h4m2 0h2m2 0h2m1 0h3m2 0h2m5 0h1m3 0h3m1 0h1m1 0h2m1 0h1m3 0h1m1 0h1m1 0h2m1 0h2m2 0h2m1 0h3m3 0h1m2 0h1m1 0h2m2 0h1m1 0h1m2 0h3m3 0h2m1 0h1m2 0h1m2 0h1m2 0h1m2 0h1m3 0h1m1 0h2m1 0h1m1 0h1m2 0h1m3 0h4m1 0h1m4 0h1m2 0h1m2 0h1m2 0h1m1 0h3m2 0h1m3 0h3m2 0h1m2 0h2m3 0h1M4 142.5h1m1 0h1m1 0h1m1 0h4m2 0h1m2 0h2m1 0h1m1 0h1m1 0h2m1 0h6m2 0h4m1 0h1m3 0h2m6 0h1m2 0h2m1 0h2m1 0h2m2 0h2m1 0h1m1 0h2m4 0h5m1 0h1m1 0h2m2 0h1m1 0h2m1 0h5m2 0h1m1 0h3m2 0h1m1 0h2m1 0h2m4 0h1m1 0h1m1 0h4m1 0h1m3 0h2m1 0h1m1 0h2m2 0h1m2 0h1m2 0h1m1 0h2m1 0h1m2 0h2m1 0h3M5 143.5h2m1 0h2m1 0h2m2 0h3m1 0h1m1 0h1m1 0h6m2 0h3m1 0h1m3 0h1m1 0h1m4 0h1m4 0h4m2 0h1m3 0h6m6 0h4m6 0h2m1 0h1m5 0h1m3 0h1m2 0h1m1 0h1m1 0h1m2 0h1m1 0h2m1 0h1m4 0h2m1 0h3m1 0h1m4 0h4m3 0h2m2 0h1m2 0h1m2 0h1m2 0h1m3 0h1m1 0h3m1 0h1m1 0h1m2 0h2M4 144.5h9m2 0h1m2 0h2m1 0h2m2 0h1m2 0h4m1 0h6m1 0h5m4 0h4m5 0h1m5 0h1m1 0h4m4 0h2m1 0h4m1 0h2m1 0h1m2 0h1m1 0h1m3 0h2m2 0h3m1 0h3m2 0h1m5 0h1m2 0h3m1 0h1m2 0h1m1 0h1m2 0h2m7 0h2m1 0h2m1 0h4m3 0h2m1 0h1m7 0h2m1 0h1M5 145.5h2m2 0h1m1 0h1m5 0h2m1 0h3m2 0h3m5 0h1m1 0h1m1 0h1m3 0h4m1 0h4m3 0h1m2 0h4m1 0h1m1 0h1m1 0h1m2 0h1m1 0h1m1 0h4m1 0h1m3 0h1m1 0h1m8 0h1m1 0h2m9 0h1m2 0h1m1 0h1m1 0h1m1 0h1m6 0h1m2 0h1m1 0h2m6 0h1m3 0h7m1 0h2m4 0h2m2 0h1m3 0h5M4 146.5h1m2 0h2m1 0h2m2 0h2m2 0h2m1 0h2m1 0h1m4 0h1m1 0h1m1 0h3m1 0h4m2 0h1m1 0h3m2 0h3m1 0h1m2 0h2m1 0h2m6 0h3m1 0h1m3 0h1m2 0h2m1 0h1m1 0h4m2 0h2m1 0h1m1 0h5m1 0h2m3 0h10m1 0h2m1 0h1m1 0h4m3 0h1m2 0h5m2 0h1m2 0h1m4 0h2m2 0h1m2 0h1m1 0h2m2 0h2M4 147.5h1m2 0h2m4 0h1m1 0h1m1 0h1m1 0h1m7 0h1m1 0h4m1 0h3m1 0h1m1 0h1m2 0h1m1 0h2m5 0h2m2 0h2m4 0h3m1 0h1m7 0h3m1 0h1m1 0h1m3 0h1m1 0h2m4 0h1m3 0h4m1 0h6m1 0h1m1 0h1m3 0h3m2 0h1m5 0h1m1 0h1m6 0h1m1 0h2m2 0h4m4 0h2m1 0h1m1 0h6m1 0h2m1 0h1M5 148.5h1m1 0h1m2 0h1m1 0h1m3 0h1m2 0h1m1 0h2m2 0h1m1 0h1m1 0h2m1 0h2m1 0h1m1 0h1m1 0h1m1 0h2m2 0h1m2 0h4m3 0h1m1 0h5m1 0h2m4 0h1m4 0h2m1 0h7m1 0h1m1 0h2m1 0h1m2 0h2m3 0h4m1 0h1m1 0h2m2 0h1m8 0h1m1 0h1m4 0h1m1 0h2m1 0h4m4 0h2m3 0h5m1 0h2m1 0h2m4 0h1m2 0h2m1 0h1M6 149.5h1m5 0h1m1 0h1m1 0h1m5 0h3m4 0h1m2 0h2m3 0h3m2 0h1m1 0h1m2 0h2m1 0h1m1 0h1m2 0h3m3 0h3m1 0h3m1 0h1m1 0h2m4 0h1m1 0h1m1 0h1m1 0h1m5 0h1m2 0h3m1 0h2m2 0h2m3 0h2m1 0h3m1 0h3m2 0h1m1 0h1m1 0h2m1 0h3m5 0h1m1 0h1m3 0h3m1 0h1m3 0h1m3 0h1m1 0h4m1 0h1m2 0h2m2 0h1M5 150.5h4m1 0h5m1 0h2m2 0h1m1 0h1m2 0h1m2 0h2m2 0h1m2 0h2m1 0h1m1 0h1m2 0h1m1 0h2m3 0h2m1 0h3m2 0h1m1 0h2m1 0h1m3 0h2m1 0h1m1 0h1m9 0h6m2 0h1m2 0h1m1 0h2m1 0h1m3 0h1m1 0h1m2 0h2m1 0h1m1 0h1m1 0h2m1 0h2m1 0h1m1 0h1m1 0h1m3 0h2m2 0h1m1 0h3m6 0h1m3 0h2m2 0h1m1 0h3m3 0h2M7 151.5h3m3 0h4m1 0h1m2 0h2m1 0h1m1 0h1m1 0h1m1 0h1m1 0h1m1 0h1m2 0h2m1 0h1m3 0h1m1 0h1m4 0h1m7 0h1m1 0h4m1 0h1m2 0h1m1 0h1m2 0h1m1 0h1m3 0h2m2 0h2m5 0h3m2 0h1m1 0h2m1 0h6m1 0h1m2 0h2m3 0h7m2 0h1m2 0h1m1 0h2m4 0h2m1 0h1m2 0h1m1 0h2m2 0h1m2 0h2m1 0h8m1 0h2M4 152.5h7m1 0h1m1 0h1m2 0h3m1 0h2m2 0h1m1 0h1m1 0h2m1 0h4m3 0h1m2 0h1m7 0h2m1 0h1m5 0h1m1 0h1m1 0h2m5 0h1m1 0h1m4 0h5m1 0h1m1 0h4m1 0h2m2 0h2m1 0h1m1 0h2m3 0h2m5 0h1m1 0h1m1 0h4m1 0h1m2 0h1m1 0h1m1 0h3m2 0h1m2 0h1m1 0h1m2 0h1m2 0h5m2 0h2m6 0h1m2 0h2m1 0h1M5 153.5h5m1 0h1m1 0h1m1 0h1m3 0h1m6 0h4m1 0h2m5 0h1m2 0h1m1 0h2m1 0h3m6 0h6m2 0h1m1 0h2m2 0h2m4 0h1m1 0h1m3 0h3m3 0h2m3 0h1m1 0h2m1 0h1m1 0h2m3 0h2m1 0h2m1 0h3m6 0h1m1 0h7m2 0h1m1 0h3m5 0h1m1 0h5m3 0h1m1 0h2m2 0h2m1 0h2m1 0h1m1 0h1M4 154.5h2m1 0h1m2 0h1m3 0h1m1 0h2m1 0h2m3 0h1m1 0h2m1 0h2m1 0h3m1 0h2m2 0h1m2 0h1m2 0h1m2 0h1m1 0h1m1 0h2m3 0h1m1 0h2m3 0h1m1 0h7m1 0h1m2 0h2m2 0h1m1 0h5m1 0h2m1 0h1m1 0h2m1 0h1m1 0h3m3 0h1m2 0h1m1 0h1m5 0h7m1 0h1m3 0h5m1 0h3m5 0h1m1 0h1m2 0h1m4 0h3m1 0h1M4 155.5h1m7 0h5m2 0h4m1 0h2m2 0h6m1 0h1m1 0h1m1 0h2m2 0h2m1 0h1m2 0h1m2 0h1m2 0h1m5 0h4m1 0h1m2 0h1m4 0h1m1 0h1m1 0h1m1 0h2m2 0h4m1 0h2m1 0h1m1 0h5m4 0h1m2 0h3m3 0h1m1 0h1m1 0h2m2 0h1m1 0h1m1 0h1m1 0h4m3 0h4m2 0h2m1 0h3m7 0h1m1 0h2m2 0h1m1 0h1m2 0h1M6 156.5h5m1 0h1m2 0h1m1 0h2m1 0h1m2 0h1m2 0h5m1 0h1m2 0h1m2 0h1m1 0h1m1 0h1m4 0h13m3 0h3m1 0h1m1 0h3m1 0h1m4 0h6m3 0h2m4 0h3m3 0h3m1 0h7m5 0h2m1 0h1m1 0h2m3 0h1m1 0h2m1 0h6m1 0h2m1 0h1m2 0h1m2 0h2m2 0h2m1 0h1m2 0h5m1 0h1m1 0h1M12 157.5h1m1 0h1m2 0h3m2 0h2m2 0h1m3 0h3m1 0h1m2 0h3m2 0h1m1 0h5m2 0h2m3 0h2m1 0h2m1 0h2m4 0h3m3 0h1m1 0h3m3 0h1m1 0h2m1 0h3m2 0h1m1 0h1m2 0h1m2 0h2m2 0h1m3 0h1m1 0h1m1 0h3m4 0h1m2 0h1m1 0h2m4 0h1m3 0h1m2 0h1m3 0h1m2 0h2m1 0h1m1 0h1m1 0h2m1 0h3m3 0h1m2 0h2M4 158.5h7m1 0h2m1 0h3m2 0h4m1 0h2m1 0h1m1 0h2m1 0h4m1 0h1m1 0h1m4 0h1m3 0h2m1 0h1m1 0h1m1 0h4m1 0h1m1 0h1m1 0h1m2 0h3m1 0h1m5 0h1m1 0h1m1 0h1m3 0h3m1 0h3m4 0h6m1 0h1m1 0h1m1 0h5m4 0h3m2 0h1m1 0h2m1 0h4m1 0h1m1 0h5m2 0h3m1 0h1m1 0h2m2 0h1m1 0h2m1 0h1m1 0h1m1 0h2m1 0h1M4 159.5h1m5 0h1m3 0h4m1 0h2m2 0h2m1 0h1m3 0h2m3 0h1m3 0h1m4 0h1m1 0h1m2 0h1m2 0h1m3 0h1m2 0h1m1 0h2m1 0h4m1 0h1m3 0h2m1 0h1m1 0h1m3 0h1m1 0h1m1 0h1m2 0h1m2 0h2m1 0h2m1 0h2m1 0h2m1 0h1m3 0h2m4 0h4m1 0h1m1 0h1m8 0h1m3 0h1m1 0h1m3 0h1m1 0h2m1 0h1m1 0h2m3 0h1m1 0h1m1 0h1m3 0h1m3 0h1M4 160.5h1m1 0h3m1 0h1m1 0h1m2 0h1m1 0h2m1 0h2m1 0h1m1 0h6m3 0h2m4 0h1m1 0h3m2 0h1m1 0h2m1 0h6m4 0h1m1 0h2m8 0h9m2 0h2m1 0h4m1 0h2m2 0h1m2 0h1m3 0h5m7 0h1m1 0h3m2 0h1m3 0h2m1 0h6m2 0h2m3 0h2m1 0h1m1 0h6m1 0h6m1 0h2M4 161.5h1m1 0h3m1 0h1m1 0h1m2 0h2m2 0h1m3 0h4m1 0h1m3 0h1m2 0h3m1 0h1m2 0h1m1 0h1m1 0h3m2 0h2m1 0h1m1 0h1m1 0h4m1 0h1m1 0h1m1 0h1m2 0h2m1 0h1m3 0h1m2 0h6m1 0h2m2 0h1m2 0h1m4 0h3m5 0h1m2 0h1m1 0h1m1 0h2m5 0h2m1 0h1m1 0h2m3 0h2m2 0h1m1 0h4m2 0h1m2 0h1m3 0h1m1 0h1m2 0h1m2 0h1m3 0h2M4 162.5h1m1 0h3m1 0h1m1 0h1m2 0h2m5 0h1m1 0h3m1 0h1m1 0h3m1 0h1m1 0h2m2 0h2m1 0h1m1 0h2m6 0h1m2 0h5m7 0h1m1 0h3m6 0h1m1 0h3m1 0h3m2 0h2m1 0h1m1 0h1m1 0h2m1 0h1m1 0h1m1 0h1m2 0h1m1 0h1m1 0h2m2 0h1m1 0h2m3 0h1m1 0h2m1 0h2m1 0h1m2 0h2m1 0h1m5 0h2m3 0h3m3 0h3m1 0h1m2 0h1m2 0h1M4 163.5h1m5 0h1m1 0h2m2 0h2m1 0h2m2 0h2m2 0h1m2 0h3m1 0h3m1 0h3m2 0h2m1 0h1m1 0h1m2 0h2m1 0h1m4 0h1m1 0h2m1 0h1m1 0h2m5 0h4m1 0h1m2 0h4m1 0h2m1 0h2m2 0h1m1 0h2m1 0h2m6 0h1m1 0h1m4 0h1m2 0h1m2 0h3m9 0h1m2 0h1m1 0h1m2 0h1m2 0h4m1 0h3m3 0h3m1 0h1m1 0h1m3 0h1M4 164.5h7m1 0h5m1 0h1m1 0h1m1 0h2m1 0h1m1 0h1m1 0h3m3 0h3m2 0h1m1 0h2m5 0h1m1 0h1m1 0h2m2 0h4m1 0h1m1 0h2m1 0h3m2 0h2m2 0h3m2 0h1m6 0h2m4 0h1m2 0h1m2 0h2m1 0h2m1 0h4m1 0h1m4 0h1m1 0h3m6 0h2m1 0h2m1 0h2m2 0h2m1 0h2m4 0h2m2 0h2m3 0h1m2 0h1m1 0h3"/></svg>
