<?xml version="1.0" encoding="utf-8"?><!DOCTYPE svg PUBLIC "-//W3C//DTD SVG 1.1//EN" "http://www.w3.org/Graphics/SVG/1.1/DTD/svg11.dtd"><svg xmlns="http://www.w3.org/2000/svg" viewBox="0 0 185 185" shape-rendering="crispEdges"><path fill="#ffffff" d="M0 0h185v185H0z"/><path stroke="#000000" d="M4 4.5h7m4 0h10m1 0h3m2 0h1m3 0h1m1 0h2m3 0h3m1 0h1m1 0h4m3 0h3m2 0h6m1 0h2m1 0h2m2 0h3m2 0h4m1 0h2m1 0h1m1 0h1m2 0h1m1 0h2m3 0h2m5 0h2m1 0h1m1 0h2m8 0h4m1 0h2m5 0h2m1 0h1m1 0h1m2 0h3m1 0h1m2 0h1m2 0h1m1 0h1m1 0h2m1 0h1m2 0h1m1 0h3m2 0h1m1 0h1m3 0h7M4 5.5h1m5 0h1m1 0h2m1 0h3m1 0h1m7 0h6m2 0h2m1 0h1m2 0h1m1 0h1m3 0h1m4 0h2m3 0h3m1 0h5m1 0h2m1 0h3m4 0h1m1 0h4m1 0h1m5 0h1m2 0h1m1 0h5m2 0h1m4 0h1m2 0h2m2 0h1m1 0h1m1 0h4m3 0h3m1 0h1m2 0h5m2 0h5m2 0h2m2 0h1m3 0h2m1 0h1m1 0h3m1 0h1m3 0h1m1 0h2m1 0h1m1 0h1m5 0h1M4 6.5h1m1 0h3m1 0h1m3 0h2m2 0h1m1 0h1m1 0h3m1 0h1m5 0h1m3 0h1m6 0h1m2 0h1m2 0h1m1 0h3m4 0h1m7 0h2m3 0h1m1 0h1m1 0h2m2 0h1m5 0h4m2 0h1m1 0h2m1 0h1m1 0h2m1 0h2m1 0h2m2 0h4m2 0h3m2 0h1m2 0h1m1 0h1m1 0h4m6 0h2m1 0h1m1 0h5m5 0h1m1 0h4m9 0h2m2 0h1m3 0h1m1 0h3m1 0h1M4 7.5h1m1 0h3m1 0h1m1 0h3m1 0h2m3 0h8m1 0h1m2 0h3m2 0h3m1 0h1m2 0h1m1 0h4m2 0h2m1 0h1m2 0h1m6 0h1m4 0h1m1 0h1m3 0h2m1 0h1m1 0h1m1 0h1m1 0h1m3 0h2m1 0h1m3 0h1m1 0h2m2 0h1m3 0h1m1 0h1m1 0h2m1 0h2m1 0h5m6 0h3m1 0h2m1 0h1m1 0h1m1 0h5m3 0h2m1 0h1m1 0h6m1 0h1m2 0h1m5 0h1m2 0h2m1 0h1m1 0h3m1 0h1M4 8.5h1m1 0h3m1 0h1m4 0h2m1 0h1m1 0h1m1 0h1m1 0h1m1 0h2m2 0h1m1 0h6m2 0h1m1 0h5m1 0h2m4 0h1m1 0h1m3 0h5m4 0h1m4 0h2m1 0h1m3 0h2m2 0h1m1 0h6m1 0h2m9 0h2m2 0h1m3 0h1m1 0h6m1 0h3m1 0h2m6 0h1m1 0h4m1 0h8m3 0h2m1 0h2m1 0h1m2 0h5m1 0h3m4 0h1m1 0h3m1 0h1M4 9.5h1m5 0h1m1 0h1m2 0h2m2 0h1m3 0h1m3 0h1m3 0h2m3 0h4m1 0h1m1 0h1m2 0h1m4 0h3m1 0h1m1 0h1m1 0h2m3 0h1m3 0h3m1 0h2m2 0h1m5 0h1m1 0h2m1 0h2m3 0h1m3 0h2m1 0h5m3 0h5m1 0h1m2 0h1m3 0h3m1 0h1m1 0h2m1 0h1m3 0h6m1 0h1m1 0h1m1 0h1m3 0h1m5 0h1m5 0h2m7 0h2m1 0h1m1 0h1m5 0h1M4 10.5h7m1 0h1m1 0h1m1 0h1m1 0h1m1 0h1m1 0h1m1 0h1m1 0h1m1 0h1m1 0h1m1 0h1m1 0h1m1 0h1m1 0h1m1 0h1m1 0h1m1 0h1m1 0h1m1 0h1m1 0h1m1 0h1m1 0h1m1 0h1m1 0h1m1 0h1m1 0h1m1 0h1m1 0h1m1 0h1m1 0h1m1 0h1m1 0h1m1 0h1m1 0h1m1 0h1m1 0h1m1 0h1m1 0h1m1 0h1m1 0h1m1 0h1m1 0h1m1 0h1m1 0h1m1 0h1m1 0h1m1 0h1m1 0h1m1 0h1m1 0h1m1 0h1m1 0h1m1 0h1m1 0h1m1 0h1m1 0h1m1 0h1m1 0h1m1 0h1m1 0h1m1 0h1m1 0h1m1 0h1m1 0h1m1 0h1m1 0h1m1 0h1m1 0h1m1 0h1m1 0h1m1 0h1m1 0h1m1 0h1m1 0h1m1 0h1m1 0h1m1 0h1m1 0h1m1 0h1m1 0h1m1 0h1m1 0h7M13 11.5h1m1 0h2m1 0h1m1 0h2m4 0h2m1 0h1m2 0h1m3 0h1m1 0h2m3 0h1m1 0h2m1 0h2m1 0h3m3 0h4m3 0h4m3 0h1m1 0h6m7 0h1m1 0h1m3 0h8m2 0h3m3 0h1m1 0h1m2 0h1m2 0h1m3 0h1m2 0h1m4 0h1m2 0h1m2 0h1m1 0h3m5 0h1m3 0h2m2 0h3m4 0h2m5 0h1m1 0h1m3 0h1M4 12.5h5m1 0h3m1 0h3m5 0h1m2 0h1m6 0h6m4 0h1m2 0h1m1 0h5m3 0h2m3 0h7m3 0h1m2 0h1m1 0h5m1 0h1m4 0h10m3 0h2m2 0h1m2 0h2m1 0h1m2 0h1m3 0h6m1 0h1m3 0h6m2 0h1m1 0h1m2 0h1m1 0h8m1 0h1m2 0h1m1 0h1m4 0h2m1 0h1m2 0h1m1 0h2m1 0h2m1 0h1m1 0h1m1 0h1M6 13.5h1m5 0h4m3 0h1m1 0h3m1 0h2m2 0h6m1 0h1m4 0h5m1 0h1m5 0h4m3 0h1m1 0h1m1 0h2m2 0h1m1 0h3m2 0h1m2 0h6m2 0h3m2 0h2m1 0h1m1 0h2m1 0h1m1 0h1m1 0h2m1 0h2m4 0h2m1 0h4m3 0h6m1 0h1m3 0h1m2 0h1m1 0h2m1 0h1m1 0h1m1 0h1m1 0h7m2 0h1m1 0h1m3 0h3m2 0h3m7 0h2m1 0h1M4 14.5h1m2 0h1m2 0h3m1 0h4m1 0h3m1 0h4m1 0h2m3 0h4m1 0h3m1 0h1m2 0h3m3 0h2m1 0h2m1 0h6m5 0h5m3 0h1m2 0h2m1 0h1m4 0h5m3 0h5m2 0h1m4 0h9m2 0h1m2 0h3m1 0h2m2 0h1m3 0h1m1 0h3m3 0h4m1 0h2m3 0h1m2 0h2m1 0h1m2 0h1m4 0h1m1 0h1m6 0h5M5 15.5h2m1 0h2m2 0h2m1 0h1m1 0h1m2 0h1m2 0h2m1 0h1m2 0h1m1 0h3m1 0h2m2 0h1m1 0h3m2 0h1m2 0h1m1 0h3m1 0h1m2 0h3m2 0h2m1 0h2m3 0h1m2 0h3m1 0h1m2 0h1m1 0h1m1 0h3m3 0h1m1 0h1m1 0h4m3 0h3m1 0h1m1 0h3m2 0h2m4 0h1m3 0h3m1 0h6m2 0h3m4 0h1m2 0h1m3 0h1m1 0h1m2 0h1m2 0h1m3 0h1m1 0h5m1 0h1m2 0h5m1 0h1M4 16.5h3m1 0h1m1 0h2m1 0h3m5 0h1m3 0h1m1 0h4m3 0h2m4 0h1m3 0h1m2 0h2m1 0h1m3 0h2m5 0h1m1 0h1m1 0h2m1 0h1m2 0h2m1 0h3m2 0h3m3 0h3m2 0h2m3 0h1m3 0h2m4 0h3m1 0h2m1 0h1m5 0h2m5 0h1m1 0h2m1 0h4m3 0h1m2 0h1m1 0h2m4 0h3m1 0h2m1 0h2m1 0h3m4 0h1m1 0h1m1 0h5m1 0h1m3 0h1M4 17.5h2m1 0h1m1 0h1m2 0h2m1 0h2m4 0h1m1 0h1m2 0h2m1 0h1m3 0h1m2 0h1m1 0h4m2 0h1m3 0h2m3 0h6m1 0h1m1 0h1m1 0h1m1 0h1m1 0h1m4 0h1m8 0h3m3 0h7m1 0h1m2 0h3m1 0h1m2 0h1m2 0h1m1 0h3m1 0h2m2 0h6m1 0h2m6 0h1m1 0h1m1 0h2m3 0h3m1 0h3m1 0h2m3 0h3m4 0h3m2 0h1m2 0h2m2 0h1m1 0h1m2 0h1M5 18.5h1m2 0h4m1 0h2m2 0h2m1 0h2m2 0h2m2 0h1m1 0h1m1 0h1m1 0h1m1 0h1m1 0h2m1 0h1m4 0h2m4 0h2m1 0h1m2 0h1m2 0h1m2 0h2m1 0h4m1 0h2m5 0h2m1 0h4m4 0h1m2 0h1m1 0h2m2 0h2m1 0h3m2 0h4m3 0h2m1 0h2m1 0h1m1 0h1m1 0h2m3 0h1m1 0h1m3 0h2m1 0h7m1 0h3m4 0h3m1 0h2m1 0h2m1 0h1m2 0h1m6 0h4m1 0h1M8 19.5h1m2 0h1m1 0h1m1 0h1m1 0h3m2 0h1m1 0h2m2 0h2m1 0h5m2 0h2m5 0h2m2 0h1m1 0h2m2 0h9m1 0h2m2 0h2m3 0h1m1 0h1m1 0h1m2 0h1m1 0h1m1 0h5m1 0h1m3 0h2m1 0h1m2 0h1m2 0h2m1 0h2m1 0h1m2 0h6m2 0h1m1 0h1m1 0h2m9 0h4m7 0h1m1 0h1m4 0h1m1 0h1m6 0h4m2 0h1m2 0h3m1 0h1m1 0h2M4 20.5h1m4 0h4m2 0h2m1 0h1m2 0h1m1 0h1m1 0h3m1 0h1m1 0h2m1 0h2m5 0h4m3 0h1m3 0h1m1 0h1m1 0h1m2 0h1m1 0h1m3 0h1m1 0h3m1 0h1m1 0h4m1 0h2m1 0h1m3 0h2m3 0h1m1 0h3m4 0h4m3 0h1m3 0h4m2 0h1m1 0h3m6 0h4m1 0h2m1 0h1m1 0h1m1 0h1m2 0h2m4 0h2m2 0h1m2 0h1m2 0h1m1 0h4m1 0h3m2 0h3m1 0h2m1 0h1m2 0h1M5 21.5h1m3 0h1m3 0h8m1 0h2m2 0h4m7 0h5m1 0h3m4 0h1m3 0h1m1 0h2m1 0h1m1 0h4m2 0h1m4 0h1m1 0h4m1 0h2m1 0h3m3 0h3m1 0h1m1 0h2m1 0h1m1 0h3m1 0h2m1 0h1m2 0h1m3 0h1m1 0h1m1 0h1m2 0h1m3 0h4m3 0h1m1 0h2m1 0h1m1 0h1m4 0h3m1 0h1m4 0h5m1 0h1m2 0h1m1 0h3m1 0h1m2 0h1m1 0h2m2 0h1m3 0h1M5 22.5h1m2 0h4m1 0h2m1 0h1m3 0h1m2 0h2m5 0h1m5 0h2m1 0h1m3 0h1m2 0h2m3 0h3m1 0h1m3 0h2m2 0h3m1 0h2m1 0h1m1 0h2m1 0h1m1 0h1m1 0h1m1 0h5m1 0h2m1 0h2m3 0h1m1 0h3m2 0h2m1 0h1m2 0h1m1 0h2m2 0h1m3 0h2m3 0h5m1 0h1m4 0h1m2 0h3m1 0h1m2 0h4m1 0h1m4 0h1m5 0h4m2 0h2m3 0h1m2 0h3m1 0h1M5 23.5h5m2 0h1m1 0h2m2 0h2m1 0h4m3 0h8m2 0h2m1 0h1m1 0h1m2 0h3m3 0h1m4 0h1m2 0h1m2 0h1m3 0h1m6 0h1m1 0h1m1 0h1m2 0h3m1 0h2m5 0h2m1 0h2m1 0h1m4 0h2m3 0h4m2 0h2m3 0h1m3 0h2m1 0h8m2 0h1m1 0h2m2 0h2m2 0h1m5 0h1m1 0h1m2 0h1m2 0h2m3 0h2m2 0h1m1 0h2m3 0h4M4 24.5h2m1 0h1m1 0h2m2 0h1m4 0h1m2 0h2m2 0h1m6 0h1m1 0h1m2 0h2m3 0h1m1 0h2m2 0h4m2 0h1m3 0h2m3 0h1m1 0h2m2 0h1m1 0h1m2 0h6m1 0h1m1 0h4m3 0h3m1 0h1m5 0h1m1 0h1m2 0h1m1 0h1m1 0h1m1 0h2m3 0h3m6 0h1m1 0h2m1 0h1m1 0h1m4 0h1m1 0h6m2 0h5m3 0h2m1 0h2m1 0h3m3 0h2m1 0h1m1 0h1m1 0h2m1 0h1m1 0h2M4 25.5h2m1 0h3m1 0h2m1 0h1m1 0h2m1 0h1m4 0h2m1 0h5m6 0h1m1 0h1m1 0h1m1 0h1m1 0h1m1 0h4m1 0h2m1 0h2m4 0h1m1 0h1m3 0h2m1 0h1m1 0h1m4 0h1m1 0h1m1 0h3m1 0h3m1 0h8m1 0h2m5 0h4m1 0h3m2 0h3m1 0h3m1 0h3m2 0h1m3 0h2m1 0h1m1 0h2m1 0h1m2 0h2m2 0h1m2 0h1m3 0h2m1 0h1m2 0h4m3 0h1m2 0h1m3 0h1m1 0h2m1 0h1M4 26.5h1m1 0h1m3 0h2m2 0h5m1 0h3m3 0h1m3 0h2m5 0h1m1 0h3m1 0h1m1 0h2m2 0h6m3 0h4m2 0h1m3 0h1m1 0h1m1 0h1m2 0h1m3 0h6m3 0h1m4 0h1m1 0h2m1 0h1m1 0h1m1 0h1m1 0h2m1 0h6m4 0h4m3 0h1m2 0h1m1 0h2m1 0h1m2 0h1m1 0h4m1 0h1m1 0h1m1 0h2m1 0h1m4 0h1m5 0h2m4 0h1m2 0h2m1 0h1m1 0h6M6 27.5h1m4 0h2m1 0h7m1 0h4m3 0h1m6 0h3m7 0h2m1 0h1m2 0h2m1 0h1m1 0h2m1 0h1m5 0h2m1 0h1m4 0h1m1 0h1m1 0h1m3 0h1m2 0h4m4 0h1m7 0h5m2 0h3m2 0h2m2 0h1m3 0h2m2 0h1m3 0h2m2 0h1m3 0h1m1 0h1m2 0h1m8 0h1m1 0h3m1 0h1m1 0h3m4 0h1m1 0h2m1 0h2m1 0h1m1 0h1m1 0h1m1 0h1M5 28.5h6m2 0h1m1 0h2m1 0h1m1 0h4m2 0h1m3 0h2m2 0h3m2 0h1m1 0h2m1 0h2m1 0h1m2 0h2m2 0h4m3 0h1m1 0h1m1 0h2m2 0h1m4 0h1m2 0h1m1 0h1m1 0h1m1 0h2m2 0h1m2 0h1m4 0h1m3 0h2m1 0h2m2 0h1m4 0h2m4 0h2m2 0h1m1 0h2m3 0h5m6 0h2m1 0h2m3 0h5m2 0h1m2 0h2m2 0h4m4 0h2m1 0h1m2 0h1m1 0h1m2 0h1M4 29.5h1m7 0h3m1 0h7m2 0h1m2 0h1m6 0h1m3 0h2m2 0h2m1 0h1m1 0h1m2 0h1m1 0h5m2 0h1m3 0h1m1 0h1m1 0h1m2 0h1m1 0h1m3 0h4m1 0h4m1 0h2m1 0h1m1 0h6m1 0h2m2 0h1m1 0h3m1 0h1m2 0h1m3 0h1m2 0h1m2 0h5m7 0h3m1 0h1m4 0h1m1 0h1m2 0h2m1 0h2m1 0h1m1 0h3m4 0h3m2 0h4m5 0h1m2 0h1M5 30.5h3m1 0h2m1 0h1m1 0h2m3 0h1m1 0h1m1 0h1m1 0h2m1 0h2m1 0h1m5 0h2m3 0h2m1 0h1m3 0h1m2 0h1m2 0h1m2 0h1m5 0h1m2 0h2m1 0h1m1 0h1m4 0h1m1 0h2m1 0h4m2 0h2m1 0h1m1 0h1m1 0h1m2 0h3m1 0h4m4 0h2m1 0h2m2 0h2m1 0h1m1 0h1m1 0h2m1 0h1m2 0h1m2 0h2m1 0h2m1 0h3m2 0h1m1 0h2m3 0h1m3 0h1m1 0h1m2 0h4m2 0h1m4 0h1m2 0h1m4 0h1M6 31.5h1m2 0h1m1 0h3m1 0h1m3 0h1m2 0h1m1 0h2m4 0h2m2 0h1m1 0h3m1 0h2m2 0h1m1 0h1m1 0h2m1 0h2m2 0h9m2 0h1m2 0h1m3 0h4m1 0h2m1 0h1m3 0h3m3 0h1m1 0h1m1 0h4m5 0h3m1 0h1m1 0h2m1 0h2m1 0h1m2 0h1m1 0h3m2 0h4m1 0h3m1 0h3m2 0h1m5 0h1m6 0h4m2 0h2m2 0h1m2 0h1m1 0h2m2 0h5m1 0h1M6 32.5h1m1 0h5m2 0h2m1 0h2m1 0h6m2 0h1m2 0h5m1 0h1m3 0h2m3 0h2m1 0h1m1 0h1m1 0h2m2 0h1m1 0h5m1 0h3m3 0h3m1 0h1m1 0h1m3 0h1m1 0h3m1 0h7m2 0h1m1 0h5m1 0h3m1 0h1m2 0h2m1 0h6m4 0h1m1 0h6m6 0h10m1 0h3m2 0h4m3 0h4m1 0h1m1 0h8m2 0h2M6 33.5h3m3 0h2m1 0h2m2 0h1m2 0h2m2 0h1m1 0h2m2 0h1m3 0h2m3 0h2m1 0h1m2 0h2m2 0h1m3 0h2m3 0h1m3 0h2m2 0h5m1 0h3m2 0h2m1 0h2m1 0h1m1 0h2m3 0h1m1 0h3m3 0h2m4 0h1m5 0h2m1 0h2m3 0h3m1 0h1m1 0h1m6 0h2m1 0h3m5 0h1m3 0h5m1 0h3m4 0h1m1 0h3m2 0h1m2 0h2m3 0h1m2 0h2M4 34.5h1m2 0h2m1 0h1m1 0h4m2 0h2m1 0h2m1 0h2m2 0h1m3 0h1m1 0h1m1 0h1m2 0h2m2 0h1m2 0h2m1 0h1m2 0h3m2 0h2m1 0h1m1 0h1m1 0h1m3 0h1m1 0h4m1 0h1m3 0h4m1 0h1m2 0h2m1 0h1m1 0h2m1 0h1m1 0h3m1 0h3m1 0h1m1 0h2m1 0h2m2 0h3m1 0h1m1 0h1m1 0h2m2 0h2m1 0h3m1 0h1m3 0h2m2 0h1m1 0h2m1 0h1m1 0h1m2 0h1m1 0h1m3 0h1m2 0h1m1 0h2m1 0h2m4 0h2m1 0h1m1 0h1m1 0h1M6 35.5h1m1 0h1m3 0h2m1 0h1m1 0h1m3 0h2m2 0h1m2 0h3m1 0h1m3 0h6m1 0h1m1 0h2m1 0h2m1 0h1m3 0h1m2 0h3m3 0h1m1 0h2m3 0h1m2 0h3m1 0h2m1 0h1m4 0h1m1 0h1m3 0h5m1 0h1m2 0h2m1 0h5m2 0h1m4 0h1m3 0h7m1 0h2m1 0h2m2 0h1m1 0h1m1 0h2m1 0h1m1 0h1m3 0h1m2 0h4m1 0h2m3 0h1m4 0h1m1 0h2m1 0h2m3 0h4M6 36.5h1m1 0h7m1 0h3m6 0h1m1 0h2m3 0h7m5 0h1m2 0h4m3 0h1m5 0h5m3 0h2m1 0h1m2 0h3m1 0h1m2 0h1m1 0h1m1 0h2m1 0h5m1 0h1m4 0h2m2 0h1m1 0h1m1 0h1m4 0h1m1 0h7m6 0h6m2 0h1m1 0h1m1 0h2m1 0h1m1 0h7m1 0h3m2 0h3m2 0h1m2 0h1m1 0h11M7 37.5h1m4 0h2m1 0h4m2 0h2m1 0h1m1 0h1m1 0h3m1 0h1m2 0h1m1 0h2m3 0h1m1 0h2m2 0h3m6 0h2m2 0h1m4 0h2m2 0h1m2 0h1m1 0h2m2 0h6m2 0h4m1 0h1m1 0h2m1 0h1m3 0h1m3 0h3m3 0h1m3 0h2m3 0h7m6 0h2m1 0h1m1 0h2m1 0h1m1 0h1m1 0h1m2 0h1m1 0h4m1 0h3m3 0h5m2 0h3m4 0h1m4 0h1M5 38.5h1m4 0h1m3 0h1m1 0h1m1 0h1m3 0h1m1 0h1m1 0h2m1 0h2m5 0h1m2 0h5m2 0h1m4 0h3m1 0h1m2 0h2m1 0h5m1 0h4m1 0h1m2 0h1m4 0h3m1 0h2m2 0h2m2 0h1m4 0h3m2 0h2m3 0h1m2 0h1m3 0h1m2 0h1m3 0h1m4 0h6m1 0h6m5 0h2m3 0h1m1 0h1m1 0h3m3 0h3m1 0h1m2 0h2m1 0h2m1 0h2m1 0h1m2 0h1M7 39.5h2m4 0h1m4 0h2m2 0h1m2 0h1m2 0h1m1 0h1m1 0h1m1 0h2m7 0h1m2 0h1m2 0h1m3 0h1m3 0h2m3 0h1m1 0h1m1 0h2m5 0h1m2 0h1m1 0h2m3 0h1m2 0h3m1 0h1m3 0h1m1 0h1m4 0h4m1 0h1m1 0h3m1 0h1m1 0h2m2 0h1m1 0h2m1 0h2m1 0h1m1 0h1m4 0h1m1 0h1m1 0h3m2 0h1m1 0h1m1 0h2m1 0h1m3 0h5m1 0h3m4 0h1m8 0h6M4 40.5h1m5 0h1m1 0h2m1 0h1m2 0h2m3 0h1m2 0h1m3 0h2m2 0h1m2 0h3m1 0h2m1 0h2m1 0h1m2 0h2m2 0h2m1 0h1m3 0h3m1 0h1m3 0h1m1 0h1m1 0h2m2 0h2m1 0h1m2 0h1m1 0h2m2 0h1m2 0h1m1 0h1m2 0h1m2 0h2m1 0h1m3 0h1m3 0h3m3 0h1m1 0h1m1 0h1m5 0h2m1 0h1m1 0h2m3 0h1m1 0h5m1 0h2m3 0h1m2 0h1m2 0h1m1 0h3m1 0h1m1 0h2m2 0h6M6 41.5h2m1 0h1m1 0h1m1 0h1m2 0h1m2 0h1m3 0h1m2 0h2m2 0h1m3 0h1m1 0h2m2 0h1m2 0h3m3 0h1m5 0h2m2 0h1m3 0h1m4 0h1m1 0h2m4 0h1m2 0h8m2 0h3m1 0h2m2 0h1m2 0h1m2 0h2m1 0h1m1 0h2m1 0h2m2 0h2m2 0h1m1 0h2m1 0h1m1 0h1m4 0h1m2 0h5m2 0h1m1 0h2m3 0h2m1 0h3m2 0h1m1 0h2m4 0h1m1 0h1m1 0h1m2 0h1m1 0h1m6 0h1M4 42.5h1m1 0h1m3 0h7m3 0h2m3 0h1m8 0h2m1 0h1m1 0h1m2 0h2m3 0h2m1 0h3m2 0h1m2 0h3m3 0h1m2 0h4m1 0h1m4 0h1m1 0h2m1 0h1m1 0h1m4 0h1m1 0h2m4 0h3m2 0h1m5 0h5m1 0h2m2 0h2m1 0h1m1 0h1m1 0h1m1 0h1m1 0h3m2 0h5m2 0h2m1 0h2m1 0h3m3 0h3m4 0h1m1 0h2m2 0h1m2 0h1m2 0h2m4 0h1M4 43.5h1m1 0h1m2 0h1m4 0h2m2 0h1m2 0h1m1 0h3m2 0h1m1 0h1m3 0h1m1 0h3m1 0h1m2 0h1m1 0h2m1 0h1m2 0h2m2 0h4m1 0h4m1 0h2m2 0h2m3 0h3m1 0h2m6 0h4m3 0h1m2 0h3m5 0h2m2 0h1m1 0h2m1 0h2m3 0h1m1 0h1m3 0h3m1 0h1m1 0h4m5 0h9m3 0h1m2 0h1m2 0h1m2 0h1m3 0h1m1 0h1m4 0h1m1 0h3m2 0h1m1 0h1M4 44.5h5m1 0h1m2 0h1m3 0h2m1 0h2m3 0h4m2 0h2m1 0h2m1 0h3m1 0h4m2 0h5m2 0h1m1 0h1m3 0h2m3 0h2m1 0h1m2 0h1m2 0h4m3 0h3m2 0h1m2 0h1m1 0h1m1 0h2m5 0h4m2 0h1m2 0h2m1 0h3m1 0h1m4 0h1m6 0h3m1 0h1m4 0h1m1 0h2m1 0h1m2 0h2m3 0h3m2 0h2m1 0h2m1 0h4m2 0h7m1 0h2m2 0h2M5 45.5h2m2 0h1m2 0h2m1 0h1m1 0h1m1 0h2m1 0h1m1 0h1m5 0h1m1 0h2m1 0h2m1 0h1m3 0h1m1 0h3m1 0h2m3 0h1m1 0h2m1 0h2m7 0h1m1 0h1m3 0h1m1 0h2m2 0h1m1 0h4m2 0h2m1 0h1m3 0h1m2 0h1m1 0h2m2 0h1m1 0h3m3 0h2m2 0h1m1 0h1m1 0h1m1 0h2m1 0h1m1 0h1m2 0h3m1 0h1m2 0h1m1 0h2m1 0h1m1 0h2m2 0h3m1 0h4m1 0h1m1 0h1m2 0h1m1 0h2m1 0h3m1 0h3m4 0h2m1 0h1M4 46.5h1m1 0h1m3 0h3m1 0h1m4 0h2m2 0h2m2 0h1m2 0h2m2 0h2m2 0h1m1 0h2m1 0h1m1 0h3m1 0h1m1 0h3m4 0h2m2 0h1m1 0h2m1 0h4m1 0h2m3 0h1m2 0h3m2 0h1m3 0h2m1 0h2m1 0h1m1 0h2m3 0h1m1 0h2m1 0h1m1 0h2m1 0h1m1 0h5m2 0h1m2 0h4m1 0h2m5 0h7m1 0h2m3 0h3m5 0h2m1 0h1m2 0h1m1 0h2m3 0h1m2 0h1m2 0h1m1 0h1M6 47.5h1m2 0h1m1 0h1m1 0h1m1 0h2m1 0h1m1 0h4m4 0h1m5 0h1m2 0h2m1 0h1m3 0h1m1 0h1m2 0h1m5 0h1m2 0h1m1 0h3m1 0h4m5 0h2m1 0h2m1 0h1m1 0h1m1 0h1m2 0h3m1 0h2m5 0h3m1 0h2m1 0h4m1 0h2m2 0h1m2 0h3m1 0h1m1 0h1m3 0h1m1 0h6m3 0h1m2 0h1m1 0h1m1 0h4m5 0h2m2 0h1m1 0h2m2 0h1m1 0h2m4 0h1m2 0h5m1 0h1M4 48.5h1m1 0h1m2 0h3m1 0h3m3 0h1m2 0h1m1 0h5m1 0h1m1 0h3m2 0h3m2 0h3m2 0h1m2 0h2m2 0h4m1 0h1m2 0h3m2 0h1m1 0h1m1 0h3m2 0h1m2 0h1m6 0h1m4 0h1m1 0h1m1 0h1m4 0h1m1 0h2m2 0h2m3 0h3m3 0h1m7 0h1m1 0h2m1 0h1m1 0h2m1 0h1m4 0h3m1 0h1m1 0h2m2 0h1m1 0h1m3 0h1m1 0h1m1 0h1m1 0h2m1 0h7m1 0h1m2 0h1m3 0h1M4 49.5h1m1 0h1m1 0h2m5 0h1m3 0h1m4 0h1m1 0h3m2 0h3m2 0h1m1 0h1m3 0h1m1 0h1m2 0h2m1 0h1m1 0h2m1 0h2m1 0h1m4 0h1m1 0h1m1 0h2m1 0h1m2 0h4m1 0h1m1 0h6m1 0h2m1 0h6m1 0h1m1 0h3m3 0h3m1 0h1m2 0h1m2 0h2m1 0h3m3 0h1m1 0h2m1 0h1m3 0h2m1 0h1m1 0h2m3 0h1m3 0h2m1 0h4m1 0h3m4 0h1m1 0h2m2 0h1m2 0h3m1 0h1m1 0h2m1 0h1M10 50.5h1m2 0h1m1 0h1m3 0h1m3 0h1m4 0h1m2 0h4m2 0h3m1 0h1m1 0h1m2 0h1m2 0h1m1 0h2m1 0h2m3 0h4m1 0h1m3 0h3m1 0h2m1 0h1m3 0h5m3 0h2m1 0h1m1 0h1m2 0h4m1 0h4m3 0h5m1 0h3m3 0h1m1 0h3m4 0h2m1 0h1m1 0h1m3 0h3m1 0h2m2 0h1m1 0h2m1 0h1m3 0h2m2 0h1m1 0h1m2 0h1m1 0h1m1 0h1m4 0h2m2 0h3M6 51.5h3m2 0h1m1 0h1m6 0h2m1 0h1m2 0h2m1 0h2m3 0h1m1 0h1m1 0h1m6 0h2m2 0h1m1 0h1m1 0h1m1 0h2m1 0h1m1 0h1m1 0h1m1 0h3m2 0h1m1 0h1m1 0h2m1 0h3m4 0h1m3 0h1m3 0h1m1 0h2m1 0h1m1 0h1m2 0h5m2 0h1m4 0h1m1 0h1m2 0h4m2 0h4m2 0h1m1 0h4m1 0h1m2 0h1m1 0h1m1 0h3m1 0h1m2 0h5m1 0h1m1 0h2m2 0h1m2 0h1m1 0h2m1 0h5m2 0h1M4 52.5h1m2 0h1m1 0h3m1 0h1m2 0h4m4 0h1m2 0h3m4 0h1m2 0h4m1 0h1m1 0h1m2 0h4m2 0h4m2 0h1m1 0h1m6 0h4m1 0h1m3 0h5m3 0h2m4 0h4m3 0h1m1 0h1m1 0h1m2 0h2m2 0h1m1 0h2m12 0h1m2 0h5m7 0h1m1 0h3m1 0h2m2 0h1m2 0h2m3 0h1m1 0h1m1 0h1m1 0h1m2 0h2m1 0h1m1 0h1m3 0h1m2 0h1M4 53.5h2m5 0h4m1 0h6m2 0h1m1 0h1m2 0h3m5 0h1m1 0h2m3 0h1m2 0h3m1 0h1m3 0h5m3 0h1m1 0h3m1 0h1m2 0h3m2 0h2m1 0h1m1 0h3m4 0h3m1 0h2m5 0h2m4 0h1m2 0h1m1 0h1m1 0h1m1 0h1m1 0h1m1 0h1m4 0h4m1 0h3m1 0h4m1 0h2m3 0h1m3 0h3m1 0h2m1 0h1m6 0h2m1 0h3m1 0h1m1 0h2m1 0h1m6 0h1M4 54.5h1m1 0h6m1 0h3m1 0h2m1 0h1m1 0h2m2 0h4m1 0h3m1 0h1m1 0h1m1 0h2m1 0h2m1 0h3m1 0h1m2 0h2m3 0h1m1 0h2m3 0h2m2 0h3m1 0h2m1 0h2m2 0h4m1 0h1m6 0h3m1 0h4m3 0h4m2 0h3m1 0h3m4 0h1m1 0h2m1 0h5m1 0h3m1 0h4m2 0h2m2 0h1m3 0h2m5 0h1m3 0h3m1 0h1m1 0h3m1 0h1m2 0h1m5 0h1M4 55.5h2m1 0h1m1 0h1m9 0h1m3 0h4m3 0h1m3 0h1m2 0h2m1 0h1m2 0h1m2 0h1m2 0h1m2 0h1m2 0h1m1 0h2m1 0h5m1 0h1m4 0h1m2 0h6m5 0h6m2 0h2m1 0h1m1 0h1m2 0h1m2 0h2m2 0h4m3 0h2m1 0h3m7 0h1m2 0h4m4 0h2m3 0h1m7 0h1m1 0h1m2 0h1m8 0h2m4 0h4m2 0h1m1 0h1M6 56.5h2m2 0h3m2 0h2m1 0h1m1 0h1m1 0h4m4 0h1m1 0h1m1 0h1m1 0h1m1 0h1m1 0h3m1 0h1m3 0h3m2 0h2m1 0h1m7 0h2m1 0h3m1 0h1m2 0h1m1 0h2m1 0h1m2 0h3m1 0h1m7 0h2m1 0h1m2 0h4m1 0h2m4 0h4m1 0h2m1 0h1m1 0h1m3 0h1m2 0h1m1 0h1m1 0h2m1 0h2m4 0h2m2 0h1m1 0h1m2 0h1m1 0h1m2 0h2m1 0h2m1 0h4m3 0h1m2 0h3m2 0h1M7 57.5h3m8 0h1m3 0h1m2 0h2m1 0h1m2 0h1m1 0h1m9 0h2m1 0h1m1 0h1m5 0h2m1 0h2m2 0h1m2 0h1m3 0h1m6 0h1m4 0h1m1 0h1m7 0h2m2 0h1m1 0h2m1 0h3m2 0h1m1 0h1m5 0h2m1 0h1m1 0h2m2 0h2m1 0h3m7 0h3m1 0h1m2 0h1m1 0h1m1 0h6m1 0h3m1 0h1m1 0h2m3 0h1m1 0h2m1 0h1m1 0h2m2 0h2m4 0h1M6 58.5h2m1 0h3m1 0h1m4 0h1m1 0h1m1 0h4m1 0h1m3 0h2m2 0h1m2 0h1m1 0h1m1 0h2m1 0h1m3 0h2m1 0h1m4 0h1m1 0h7m2 0h3m1 0h2m3 0h1m2 0h1m1 0h1m1 0h2m2 0h5m2 0h2m1 0h1m3 0h1m4 0h5m2 0h2m2 0h1m1 0h3m1 0h1m2 0h3m1 0h1m2 0h3m4 0h1m2 0h1m3 0h4m2 0h2m1 0h1m2 0h1m4 0h3m5 0h1m1 0h1m1 0h1m1 0h1M4 59.5h1m3 0h1m5 0h4m2 0h4m1 0h1m1 0h1m3 0h1m1 0h3m2 0h1m5 0h1m1 0h4m1 0h1m1 0h1m1 0h4m1 0h3m1 0h3m7 0h6m1 0h1m1 0h1m2 0h3m2 0h1m1 0h1m2 0h3m2 0h1m2 0h1m2 0h2m1 0h1m2 0h2m1 0h1m1 0h1m1 0h4m2 0h1m1 0h1m1 0h4m1 0h2m1 0h2m1 0h3m1 0h5m1 0h4m2 0h1m1 0h2m5 0h1m2 0h1m1 0h2m1 0h1m1 0h3m1 0h1M4 60.5h13m1 0h3m1 0h2m1 0h5m1 0h6m1 0h2m2 0h2m3 0h1m1 0h2m1 0h1m1 0h1m1 0h1m3 0h5m1 0h2m1 0h1m3 0h2m1 0h1m4 0h1m6 0h7m2 0h1m2 0h1m1 0h2m1 0h1m1 0h1m1 0h1m2 0h1m1 0h1m1 0h5m2 0h1m3 0h4m1 0h2m1 0h1m6 0h1m1 0h5m1 0h2m3 0h2m1 0h2m2 0h1m1 0h1m2 0h4m1 0h5m1 0h3M5 61.5h1m1 0h2m3 0h2m2 0h1m1 0h1m1 0h1m1 0h2m3 0h1m3 0h2m3 0h3m4 0h4m1 0h1m2 0h1m1 0h1m1 0h2m1 0h1m1 0h1m3 0h1m3 0h1m1 0h1m4 0h1m1 0h2m1 0h2m2 0h2m1 0h2m3 0h1m1 0h2m1 0h1m1 0h2m5 0h2m1 0h1m1 0h3m2 0h1m3 0h3m1 0h1m1 0h2m1 0h1m1 0h1m1 0h6m4 0h2m3 0h3m1 0h2m2 0h1m1 0h1m3 0h1m1 0h1m1 0h1m4 0h2m3 0h3m1 0h1M6 62.5h1m1 0h1m1 0h1m1 0h1m3 0h2m2 0h1m3 0h1m1 0h1m1 0h1m3 0h1m1 0h1m1 0h1m2 0h1m2 0h2m1 0h3m4 0h2m3 0h4m1 0h1m1 0h2m1 0h7m1 0h1m4 0h1m1 0h1m1 0h2m1 0h2m1 0h1m1 0h1m2 0h1m1 0h2m3 0h1m1 0h2m4 0h3m1 0h3m1 0h1m1 0h1m1 0h1m1 0h2m1 0h3m1 0h3m2 0h4m1 0h1m1 0h2m1 0h1m1 0h1m2 0h1m2 0h2m1 0h1m1 0h3m1 0h1m1 0h3m3 0h2m1 0h1m1 0h4M4 63.5h1m2 0h2m3 0h1m1 0h6m1 0h1m1 0h1m5 0h4m3 0h4m1 0h1m1 0h1m2 0h1m1 0h1m6 0h2m1 0h3m3 0h2m1 0h1m6 0h1m1 0h4m1 0h1m1 0h1m2 0h1m1 0h1m3 0h1m2 0h2m1 0h1m4 0h1m4 0h1m6 0h2m3 0h4m4 0h8m2 0h1m5 0h1m3 0h2m2 0h1m1 0h1m1 0h1m3 0h1m2 0h1m2 0h1m2 0h1m2 0h1m3 0h1m1 0h3M4 64.5h1m2 0h7m3 0h2m1 0h1m1 0h1m2 0h1m2 0h2m1 0h6m2 0h1m1 0h1m1 0h2m2 0h1m4 0h1m1 0h2m3 0h8m2 0h1m1 0h1m3 0h1m2 0h2m3 0h2m2 0h7m3 0h1m2 0h1m4 0h2m2 0h2m1 0h3m1 0h6m1 0h1m3 0h1m2 0h3m4 0h1m2 0h1m1 0h1m1 0h5m1 0h2m1 0h1m1 0h3m1 0h1m2 0h4m1 0h4m1 0h5m3 0h1M4 65.5h1m1 0h1m2 0h1m1 0h4m3 0h1m2 0h1m1 0h3m1 0h2m1 0h1m5 0h3m3 0h1m1 0h1m1 0h1m1 0h4m4 0h1m5 0h5m3 0h1m1 0h1m1 0h1m2 0h1m2 0h1m1 0h1m1 0h2m5 0h2m1 0h2m3 0h2m2 0h2m1 0h2m1 0h1m2 0h1m3 0h1m5 0h1m1 0h1m1 0h1m2 0h1m1 0h1m1 0h2m1 0h2m1 0h1m1 0h1m1 0h4m2 0h5m1 0h1m1 0h1m1 0h1m3 0h2m2 0h3m1 0h1m1 0h2m1 0h5M4 66.5h1m1 0h5m2 0h1m1 0h1m2 0h3m1 0h1m2 0h1m1 0h1m1 0h1m2 0h1m2 0h3m3 0h3m1 0h3m3 0h2m1 0h2m1 0h3m1 0h1m3 0h1m2 0h1m1 0h1m1 0h1m6 0h4m1 0h2m2 0h4m1 0h1m2 0h2m1 0h2m1 0h1m1 0h1m3 0h3m1 0h3m1 0h2m1 0h1m1 0h2m1 0h4m2 0h4m2 0h2m3 0h1m3 0h1m2 0h1m1 0h1m4 0h1m4 0h2m1 0h1m1 0h2m2 0h5m1 0h1m1 0h3M5 67.5h1m6 0h4m2 0h2m1 0h1m2 0h1m3 0h1m3 0h1m1 0h6m4 0h1m1 0h2m7 0h2m1 0h1m3 0h5m2 0h1m3 0h2m1 0h4m6 0h3m2 0h3m1 0h1m1 0h2m2 0h2m1 0h1m2 0h1m7 0h1m2 0h1m1 0h4m4 0h3m1 0h2m2 0h2m1 0h1m2 0h1m1 0h2m3 0h1m1 0h1m2 0h2m1 0h1m1 0h2m2 0h1m2 0h2m1 0h1m7 0h2m1 0h1M4 68.5h1m4 0h2m3 0h1m1 0h6m4 0h1m3 0h1m6 0h1m3 0h8m2 0h1m2 0h2m3 0h4m2 0h3m1 0h1m1 0h1m2 0h1m1 0h1m4 0h4m2 0h1m1 0h1m4 0h2m1 0h1m1 0h2m4 0h3m1 0h1m2 0h2m3 0h2m1 0h1m2 0h3m1 0h2m1 0h4m1 0h1m3 0h5m1 0h4m1 0h1m2 0h1m4 0h1m2 0h4m4 0h4m1 0h1m4 0h2M4 69.5h1m1 0h1m1 0h2m1 0h2m2 0h4m1 0h4m5 0h1m1 0h2m1 0h2m2 0h2m1 0h1m1 0h3m2 0h2m3 0h4m2 0h1m1 0h1m1 0h1m3 0h1m2 0h1m1 0h1m5 0h5m3 0h1m5 0h1m1 0h1m1 0h1m3 0h1m5 0h2m3 0h2m2 0h1m2 0h1m2 0h5m7 0h2m1 0h3m6 0h3m1 0h8m1 0h2m2 0h5m1 0h2m2 0h1m1 0h1m1 0h2m2 0h1M4 70.5h1m2 0h1m2 0h1m2 0h2m1 0h2m3 0h2m1 0h1m3 0h1m1 0h3m1 0h2m6 0h1m3 0h1m5 0h1m1 0h1m2 0h2m4 0h3m1 0h4m1 0h2m5 0h2m1 0h1m1 0h2m2 0h1m1 0h4m1 0h5m1 0h4m2 0h6m1 0h2m1 0h1m1 0h1m4 0h2m1 0h1m1 0h3m2 0h1m1 0h1m1 0h3m1 0h3m3 0h1m5 0h1m2 0h2m1 0h1m4 0h2m4 0h1m1 0h1M4 71.5h1m1 0h1m4 0h8m1 0h1m3 0h4m3 0h3m1 0h1m1 0h2m1 0h1m2 0h1m1 0h3m4 0h3m1 0h10m1 0h1m6 0h1m1 0h4m1 0h1m1 0h1m1 0h2m1 0h6m1 0h1m1 0h1m4 0h3m3 0h2m3 0h2m3 0h1m1 0h1m2 0h1m2 0h1m1 0h3m2 0h3m1 0h2m4 0h3m5 0h1m2 0h3m3 0h1m2 0h1m2 0h1m2 0h1m1 0h1m1 0h1m3 0h3M5 72.5h1m2 0h3m1 0h2m4 0h1m1 0h6m3 0h1m1 0h6m2 0h4m1 0h4m2 0h3m2 0h4m1 0h8m1 0h3m3 0h4m2 0h1m3 0h4m2 0h1m2 0h2m1 0h2m1 0h2m1 0h1m1 0h3m1 0h4m2 0h4m1 0h2m3 0h1m4 0h3m7 0h1m1 0h1m2 0h2m1 0h5m2 0h1m2 0h2m2 0h1m2 0h1m4 0h1m1 0h4m1 0h1m1 0h2M4 73.5h1m3 0h2m1 0h1m3 0h3m1 0h4m3 0h1m3 0h2m1 0h1m4 0h2m1 0h1m1 0h2m1 0h1m1 0h2m1 0h1m1 0h2m1 0h1m6 0h1m1 0h1m1 0h4m1 0h2m6 0h1m3 0h2m3 0h1m4 0h1m1 0h1m2 0h2m2 0h1m1 0h3m1 0h1m3 0h1m1 0h5m1 0h2m1 0h1m1 0h1m2 0h1m1 0h1m2 0h6m3 0h1m1 0h3m1 0h4m1 0h1m3 0h2m1 0h5m1 0h2m1 0h1m4 0h3m2 0h1M4 74.5h4m2 0h2m2 0h1m1 0h2m3 0h4m3 0h1m1 0h3m1 0h5m1 0h1m2 0h1m5 0h6m2 0h3m5 0h1m1 0h4m1 0h1m4 0h1m1 0h2m1 0h1m1 0h1m3 0h1m1 0h1m2 0h1m1 0h4m1 0h1m1 0h1m7 0h2m2 0h6m2 0h1m1 0h1m1 0h1m2 0h2m1 0h1m1 0h1m1 0h2m2 0h1m6 0h2m1 0h2m1 0h3m4 0h1m8 0h1m2 0h1m1 0h1m3 0h2M4 75.5h1m2 0h1m5 0h2m4 0h1m2 0h4m1 0h2m5 0h2m3 0h2m4 0h2m1 0h2m2 0h2m3 0h8m9 0h1m1 0h1m1 0h2m1 0h1m3 0h4m3 0h3m3 0h1m4 0h3m2 0h3m3 0h2m2 0h4m2 0h2m2 0h1m2 0h4m1 0h2m4 0h3m2 0h2m2 0h2m1 0h4m1 0h3m1 0h1m1 0h4m4 0h1m1 0h1m2 0h1m1 0h1M7 76.5h2m1 0h2m2 0h2m2 0h1m1 0h2m1 0h1m1 0h2m2 0h1m1 0h3m3 0h8m2 0h1m2 0h1m3 0h1m1 0h1m1 0h3m1 0h1m1 0h2m1 0h1m1 0h1m1 0h11m2 0h1m2 0h2m1 0h1m2 0h3m1 0h1m1 0h2m4 0h1m1 0h1m4 0h2m4 0h1m1 0h2m3 0h1m1 0h2m1 0h1m1 0h1m9 0h1m2 0h3m2 0h2m1 0h1m1 0h2m1 0h1m1 0h3m1 0h1m3 0h1m1 0h5m1 0h2m1 0h2M4 77.5h6m1 0h2m5 0h2m2 0h1m2 0h1m3 0h2m2 0h1m1 0h1m4 0h3m1 0h2m1 0h3m1 0h2m1 0h3m1 0h2m1 0h1m3 0h2m1 0h1m1 0h1m2 0h1m1 0h2m3 0h1m1 0h3m4 0h1m1 0h1m2 0h1m2 0h1m2 0h1m3 0h4m3 0h3m1 0h1m6 0h5m4 0h1m1 0h2m1 0h1m1 0h1m8 0h1m1 0h6m1 0h3m2 0h2m1 0h3m1 0h1m1 0h2m4 0h1m2 0h2M4 78.5h1m1 0h1m1 0h1m1 0h3m3 0h3m1 0h3m1 0h2m2 0h2m3 0h1m3 0h2m8 0h1m3 0h2m1 0h2m2 0h4m3 0h1m1 0h4m1 0h2m3 0h1m2 0h3m1 0h2m2 0h1m1 0h1m1 0h1m2 0h6m1 0h2m3 0h1m3 0h4m1 0h1m1 0h3m2 0h3m1 0h2m1 0h1m1 0h1m2 0h3m1 0h1m3 0h1m1 0h1m2 0h1m1 0h2m3 0h1m4 0h1m2 0h1m8 0h3m3 0h2M4 79.5h1m3 0h2m1 0h1m1 0h2m2 0h1m1 0h1m1 0h1m1 0h1m1 0h2m3 0h1m1 0h1m4 0h2m4 0h1m2 0h1m2 0h1m2 0h2m4 0h1m3 0h1m1 0h1m1 0h1m2 0h1m1 0h1m2 0h1m1 0h1m1 0h1m2 0h1m3 0h5m2 0h3m1 0h1m1 0h1m3 0h4m2 0h1m1 0h2m3 0h1m1 0h1m2 0h2m3 0h1m2 0h6m2 0h2m2 0h3m1 0h1m2 0h3m1 0h1m1 0h2m1 0h2m5 0h1m2 0h2m3 0h1m6 0h3M4 80.5h2m2 0h1m1 0h1m1 0h1m2 0h1m4 0h2m3 0h2m3 0h5m2 0h2m1 0h3m5 0h1m1 0h2m1 0h5m2 0h2m1 0h2m2 0h1m1 0h1m4 0h1m1 0h2m1 0h3m2 0h2m3 0h1m1 0h1m1 0h3m1 0h5m4 0h1m2 0h4m3 0h1m1 0h3m2 0h1m4 0h1m1 0h1m1 0h1m4 0h1m2 0h1m1 0h1m2 0h6m1 0h7m1 0h3m1 0h1m2 0h1m1 0h4m1 0h4m2 0h1M4 81.5h1m1 0h1m2 0h1m3 0h4m1 0h1m4 0h4m5 0h1m1 0h1m2 0h9m1 0h5m2 0h4m3 0h2m5 0h1m1 0h3m2 0h3m2 0h3m2 0h2m4 0h5m4 0h1m2 0h1m1 0h2m1 0h2m1 0h3m2 0h1m2 0h1m1 0h4m1 0h2m1 0h1m1 0h1m1 0h1m1 0h3m1 0h1m3 0h2m2 0h1m1 0h1m2 0h3m1 0h1m1 0h4m2 0h2m2 0h3m4 0h3m2 0h1M4 82.5h1m1 0h1m1 0h5m3 0h1m4 0h2m1 0h1m3 0h2m2 0h1m1 0h4m1 0h3m1 0h1m7 0h2m1 0h1m3 0h2m1 0h1m5 0h2m1 0h1m1 0h1m2 0h1m3 0h4m1 0h2m1 0h2m1 0h1m1 0h1m4 0h1m1 0h2m1 0h1m1 0h1m3 0h1m1 0h1m1 0h1m1 0h3m5 0h1m1 0h1m1 0h2m1 0h1m2 0h5m1 0h3m2 0h1m1 0h1m2 0h2m1 0h1m1 0h2m2 0h1m1 0h2m1 0h2m2 0h1m3 0h1M4 83.5h2m6 0h3m2 0h1m6 0h1m1 0h1m1 0h1m6 0h1m1 0h5m3 0h2m5 0h1m2 0h1m1 0h2m1 0h7m2 0h1m3 0h4m1 0h1m3 0h1m2 0h3m3 0h2m1 0h1m1 0h4m1 0h7m2 0h1m2 0h1m1 0h1m2 0h4m1 0h1m4 0h1m1 0h2m1 0h2m2 0h1m1 0h4m1 0h1m3 0h1m3 0h1m1 0h1m1 0h1m3 0h2m3 0h2m2 0h1m1 0h1m3 0h5M4 84.5h1m2 0h2m1 0h1m1 0h4m1 0h2m6 0h4m2 0h2m4 0h2m1 0h1m1 0h1m2 0h1m1 0h5m2 0h1m1 0h1m3 0h4m2 0h2m4 0h1m3 0h2m2 0h1m1 0h2m1 0h4m2 0h1m8 0h4m3 0h1m4 0h1m4 0h5m5 0h6m6 0h4m2 0h4m1 0h3m5 0h3m1 0h3m5 0h3m1 0h1m1 0h1m2 0h1M4 85.5h2m6 0h1m2 0h4m1 0h1m3 0h4m2 0h3m1 0h2m1 0h1m2 0h5m3 0h1m4 0h6m2 0h1m1 0h1m4 0h2m5 0h1m1 0h4m3 0h1m2 0h1m3 0h2m1 0h3m2 0h3m2 0h3m2 0h1m1 0h2m9 0h6m2 0h1m5 0h1m1 0h2m1 0h1m1 0h3m1 0h1m4 0h1m1 0h2m1 0h1m1 0h1m1 0h5m2 0h6m1 0h1m1 0h1m2 0h1M4 86.5h2m3 0h2m1 0h1m1 0h1m1 0h4m2 0h2m1 0h1m3 0h3m1 0h3m3 0h1m1 0h1m3 0h1m5 0h3m1 0h1m1 0h3m8 0h1m1 0h1m1 0h2m5 0h2m1 0h1m1 0h1m2 0h2m1 0h1m1 0h1m2 0h2m1 0h1m1 0h1m1 0h3m2 0h6m1 0h4m2 0h3m1 0h1m1 0h1m1 0h2m1 0h1m2 0h2m2 0h3m1 0h1m2 0h1m2 0h1m1 0h2m3 0h1m4 0h1m4 0h1m4 0h1m7 0h2M4 87.5h3m1 0h2m1 0h1m1 0h1m2 0h1m3 0h1m4 0h1m5 0h4m1 0h1m3 0h1m2 0h2m1 0h1m2 0h1m1 0h3m1 0h1m1 0h2m1 0h3m1 0h1m1 0h1m2 0h1m1 0h1m1 0h2m1 0h1m1 0h1m6 0h2m4 0h6m2 0h2m3 0h1m1 0h1m1 0h3m2 0h1m1 0h1m2 0h2m3 0h3m1 0h1m1 0h2m1 0h1m3 0h2m2 0h2m1 0h2m2 0h3m1 0h1m2 0h1m4 0h2m2 0h2m1 0h2m5 0h1m1 0h1m2 0h1M6 88.5h1m1 0h6m2 0h2m1 0h3m2 0h4m2 0h9m2 0h2m1 0h1m2 0h1m1 0h4m2 0h2m3 0h6m2 0h2m2 0h1m1 0h5m2 0h3m2 0h8m1 0h1m3 0h4m3 0h1m4 0h3m1 0h7m6 0h3m1 0h1m4 0h1m2 0h1m1 0h1m1 0h5m1 0h1m1 0h2m1 0h3m3 0h3m4 0h10m2 0h1M4 89.5h2m2 0h1m3 0h1m3 0h3m1 0h3m3 0h3m3 0h1m3 0h2m3 0h4m3 0h3m1 0h3m2 0h4m3 0h2m1 0h1m2 0h1m4 0h3m1 0h2m1 0h1m1 0h2m1 0h2m3 0h1m1 0h1m2 0h1m2 0h1m3 0h1m1 0h1m1 0h1m2 0h2m3 0h1m3 0h5m1 0h2m7 0h2m1 0h1m5 0h1m3 0h2m2 0h2m2 0h3m3 0h1m1 0h2m2 0h2m2 0h1m3 0h2m2 0h1M6 90.5h1m1 0h1m1 0h1m1 0h3m1 0h1m2 0h1m1 0h6m2 0h1m1 0h2m1 0h1m1 0h5m4 0h2m2 0h1m1 0h1m2 0h1m3 0h1m1 0h1m1 0h1m1 0h2m2 0h3m1 0h1m4 0h1m4 0h1m1 0h1m2 0h2m1 0h1m1 0h1m2 0h1m2 0h1m3 0h1m1 0h1m4 0h3m1 0h4m1 0h1m1 0h3m1 0h1m1 0h2m2 0h1m2 0h2m1 0h1m2 0h1m1 0h1m2 0h1m1 0h1m1 0h2m1 0h1m1 0h1m6 0h1m2 0h1m1 0h1m3 0h2m1 0h1m1 0h1m1 0h3M5 91.5h4m3 0h1m2 0h1m1 0h1m1 0h2m7 0h1m3 0h1m3 0h6m4 0h3m6 0h1m1 0h2m1 0h1m3 0h1m1 0h2m1 0h2m2 0h2m1 0h1m1 0h1m2 0h1m3 0h4m3 0h1m1 0h3m2 0h1m1 0h1m1 0h3m2 0h1m1 0h1m2 0h4m3 0h1m2 0h1m1 0h1m2 0h1m1 0h1m3 0h2m2 0h1m5 0h1m3 0h1m4 0h5m1 0h1m1 0h1m2 0h4m1 0h1m2 0h1m3 0h1m1 0h3M7 92.5h7m1 0h2m1 0h1m1 0h1m3 0h2m2 0h9m4 0h2m1 0h1m5 0h2m2 0h2m3 0h6m1 0h1m3 0h2m2 0h1m2 0h1m1 0h3m3 0h2m1 0h5m5 0h1m1 0h2m1 0h1m2 0h2m1 0h1m1 0h2m1 0h8m1 0h1m4 0h1m1 0h4m1 0h1m3 0h12m1 0h2m3 0h5m1 0h2m2 0h4m1 0h6m1 0h1M7 93.5h2m2 0h1m2 0h2m2 0h2m1 0h3m2 0h2m1 0h1m1 0h1m4 0h3m2 0h1m5 0h1m6 0h5m3 0h1m2 0h2m4 0h1m1 0h2m1 0h1m3 0h1m1 0h1m1 0h1m3 0h2m3 0h3m4 0h2m1 0h2m1 0h1m5 0h1m5 0h1m1 0h5m1 0h2m6 0h1m1 0h3m2 0h1m1 0h2m1 0h1m1 0h1m1 0h3m1 0h1m1 0h1m1 0h1m2 0h1m1 0h2m3 0h2m1 0h2m1 0h1m1 0h1m3 0h1M4 94.5h1m1 0h1m1 0h1m1 0h2m3 0h1m1 0h2m1 0h2m2 0h1m1 0h2m1 0h2m7 0h2m3 0h1m1 0h3m3 0h2m1 0h2m1 0h4m2 0h1m1 0h1m3 0h3m1 0h1m3 0h1m1 0h2m1 0h1m1 0h2m3 0h1m1 0h1m3 0h6m1 0h3m2 0h1m1 0h3m2 0h2m1 0h1m1 0h1m4 0h1m1 0h2m2 0h1m3 0h5m3 0h2m2 0h1m4 0h1m1 0h2m2 0h1m2 0h2m1 0h1m2 0h1m4 0h2m1 0h6M5 95.5h1m1 0h1m1 0h1m1 0h2m1 0h1m4 0h3m1 0h2m1 0h2m1 0h2m1 0h1m3 0h2m1 0h1m1 0h1m4 0h2m1 0h1m2 0h2m1 0h1m2 0h1m2 0h1m4 0h1m4 0h1m1 0h4m1 0h2m5 0h2m1 0h5m1 0h1m1 0h2m3 0h6m1 0h1m1 0h1m3 0h1m2 0h1m5 0h4m2 0h1m1 0h2m1 0h2m1 0h1m2 0h1m1 0h1m1 0h2m2 0h1m2 0h2m1 0h2m1 0h1m2 0h1m2 0h1m1 0h2m1 0h2m2 0h2m3 0h2M4 96.5h1m2 0h1m1 0h2m2 0h2m2 0h3m2 0h2m3 0h2m1 0h4m2 0h1m1 0h1m1 0h1m1 0h2m1 0h1m3 0h2m2 0h1m1 0h1m4 0h1m1 0h1m1 0h1m1 0h1m5 0h1m1 0h1m2 0h1m1 0h1m1 0h1m1 0h1m3 0h3m1 0h2m2 0h1m1 0h2m1 0h1m2 0h1m1 0h2m2 0h1m2 0h2m1 0h1m3 0h2m4 0h1m1 0h2m1 0h1m1 0h1m2 0h1m3 0h2m1 0h1m2 0h1m2 0h1m1 0h4m4 0h1m1 0h3m2 0h1m3 0h3m1 0h1m2 0h5M4 97.5h1m1 0h1m2 0h1m2 0h5m1 0h1m1 0h3m1 0h2m4 0h1m2 0h1m1 0h2m1 0h2m1 0h5m2 0h1m2 0h1m1 0h1m1 0h4m6 0h1m1 0h3m1 0h2m1 0h5m1 0h1m1 0h1m1 0h1m6 0h1m1 0h2m2 0h1m2 0h2m2 0h1m1 0h3m2 0h2m3 0h4m1 0h2m1 0h1m1 0h2m3 0h1m4 0h3m2 0h1m3 0h5m2 0h1m1 0h1m1 0h1m1 0h2m1 0h1m1 0h3m2 0h1m1 0h1m2 0h1m4 0h1m1 0h1M4 98.5h2m1 0h5m4 0h1m3 0h3m2 0h1m1 0h2m1 0h1m2 0h3m1 0h2m4 0h1m3 0h1m4 0h4m1 0h2m5 0h1m2 0h2m1 0h4m2 0h1m3 0h1m1 0h4m1 0h3m1 0h2m3 0h3m1 0h1m1 0h1m2 0h1m1 0h5m2 0h4m1 0h1m3 0h2m2 0h2m2 0h1m2 0h3m1 0h3m2 0h1m2 0h1m4 0h1m2 0h1m2 0h1m2 0h2m1 0h1m1 0h2m2 0h1m6 0h4M9 99.5h1m1 0h2m2 0h1m1 0h2m1 0h2m1 0h1m2 0h4m1 0h1m5 0h3m1 0h1m4 0h2m1 0h1m1 0h2m3 0h1m1 0h4m1 0h1m2 0h1m4 0h1m1 0h4m1 0h2m1 0h1m3 0h2m1 0h1m1 0h1m5 0h1m6 0h3m2 0h2m1 0h1m1 0h3m1 0h2m5 0h2m4 0h1m2 0h1m5 0h1m1 0h2m2 0h2m1 0h1m2 0h1m2 0h2m3 0h2m2 0h1m1 0h2m1 0h1m3 0h2m4 0h2M5 100.5h1m2 0h1m1 0h3m1 0h2m2 0h2m1 0h1m1 0h4m1 0h2m1 0h1m3 0h1m3 0h2m1 0h3m3 0h5m1 0h4m2 0h1m1 0h6m1 0h2m1 0h1m3 0h3m4 0h1m3 0h2m2 0h3m1 0h1m2 0h1m1 0h2m1 0h1m6 0h3m1 0h1m3 0h4m2 0h1m2 0h2m1 0h1m1 0h2m3 0h1m1 0h4m2 0h1m2 0h1m1 0h1m5 0h2m1 0h2m1 0h1m1 0h6m1 0h1m7 0h2M6 101.5h1m1 0h1m5 0h1m6 0h1m3 0h2m2 0h1m1 0h2m2 0h3m4 0h4m1 0h2m1 0h1m2 0h4m3 0h2m2 0h1m3 0h1m1 0h3m2 0h1m6 0h1m2 0h1m8 0h1m2 0h1m2 0h1m5 0h3m2 0h2m4 0h2m1 0h1m1 0h5m4 0h1m2 0h1m1 0h1m1 0h1m2 0h2m2 0h2m2 0h1m2 0h1m1 0h1m1 0h1m4 0h5m2 0h3m1 0h4m1 0h1m2 0h1M4 102.5h1m1 0h1m1 0h3m2 0h2m2 0h1m1 0h1m1 0h1m3 0h1m1 0h2m2 0h1m1 0h4m1 0h2m1 0h1m1 0h1m1 0h1m6 0h1m4 0h2m2 0h1m1 0h1m3 0h7m1 0h1m1 0h1m1 0h4m1 0h1m7 0h2m1 0h2m1 0h1m1 0h1m1 0h1m4 0h1m1 0h2m1 0h1m1 0h3m2 0h1m1 0h2m1 0h1m1 0h1m2 0h1m2 0h1m1 0h1m1 0h3m2 0h1m1 0h1m1 0h2m3 0h2m1 0h2m2 0h2m1 0h1m5 0h1m3 0h7m1 0h1M4 103.5h2m1 0h1m5 0h2m1 0h3m1 0h2m2 0h4m1 0h2m2 0h1m4 0h1m5 0h1m1 0h4m1 0h2m2 0h1m1 0h3m1 0h1m2 0h3m7 0h6m3 0h1m1 0h1m2 0h1m1 0h3m2 0h1m1 0h3m1 0h4m2 0h3m4 0h2m1 0h1m1 0h2m2 0h1m1 0h1m2 0h1m1 0h1m2 0h1m1 0h4m1 0h3m2 0h4m2 0h2m1 0h2m4 0h2m1 0h4m1 0h2m3 0h1m3 0h2M5 104.5h2m1 0h1m1 0h1m1 0h1m1 0h1m3 0h1m1 0h1m1 0h4m1 0h1m2 0h1m1 0h1m2 0h1m4 0h1m1 0h2m4 0h1m1 0h3m1 0h1m5 0h4m1 0h1m2 0h1m2 0h1m1 0h5m2 0h3m2 0h3m1 0h5m1 0h1m4 0h2m3 0h3m4 0h1m2 0h1m4 0h1m2 0h1m3 0h4m1 0h2m1 0h1m1 0h1m2 0h3m1 0h2m1 0h2m1 0h1m1 0h1m3 0h3m1 0h1m1 0h2m3 0h2m1 0h1m4 0h3m1 0h2M4 105.5h2m6 0h2m1 0h2m2 0h1m1 0h2m3 0h2m5 0h2m4 0h4m1 0h1m1 0h1m1 0h1m1 0h1m2 0h1m2 0h1m2 0h1m2 0h1m8 0h1m4 0h2m1 0h1m1 0h5m2 0h1m1 0h1m2 0h2m5 0h2m1 0h1m2 0h1m2 0h1m2 0h2m2 0h5m1 0h3m1 0h2m1 0h2m3 0h1m1 0h1m1 0h1m2 0h6m1 0h1m1 0h3m1 0h3m5 0h4m1 0h6m1 0h2m1 0h1m2 0h1M4 106.5h1m5 0h1m1 0h1m1 0h1m1 0h1m3 0h3m2 0h4m1 0h1m1 0h1m1 0h1m1 0h1m2 0h2m2 0h1m5 0h1m2 0h1m2 0h1m2 0h1m4 0h1m1 0h1m1 0h1m1 0h2m1 0h1m6 0h2m1 0h4m3 0h1m1 0h1m3 0h1m1 0h4m1 0h1m5 0h1m1 0h2m2 0h3m2 0h1m2 0h2m1 0h6m2 0h2m4 0h1m1 0h1m1 0h1m1 0h1m5 0h1m1 0h2m2 0h1m2 0h1m1 0h1m4 0h1m3 0h1m1 0h4m1 0h1M4 107.5h3m1 0h1m4 0h1m1 0h2m1 0h2m4 0h4m5 0h2m1 0h1m2 0h1m1 0h1m4 0h1m4 0h1m1 0h1m1 0h1m1 0h3m1 0h1m1 0h1m1 0h2m2 0h3m1 0h4m1 0h1m2 0h1m1 0h1m1 0h4m1 0h1m5 0h1m7 0h1m3 0h3m4 0h1m1 0h2m5 0h1m3 0h1m1 0h1m3 0h1m1 0h1m1 0h1m2 0h2m2 0h2m1 0h2m2 0h1m1 0h1m2 0h1m1 0h1m5 0h2m2 0h1m2 0h1m2 0h1m1 0h4M6 108.5h1m1 0h5m2 0h1m4 0h2m2 0h1m2 0h1m5 0h1m1 0h1m2 0h3m1 0h2m1 0h1m3 0h2m1 0h1m1 0h1m5 0h1m1 0h3m1 0h2m1 0h3m2 0h1m1 0h4m1 0h1m1 0h3m1 0h2m2 0h2m1 0h1m2 0h1m2 0h2m1 0h1m2 0h1m2 0h1m1 0h2m1 0h1m2 0h1m7 0h1m1 0h6m4 0h1m1 0h1m2 0h1m1 0h2m2 0h4m5 0h2m1 0h1m1 0h1m4 0h1m1 0h4m5 0h2M12 109.5h2m1 0h1m3 0h3m1 0h5m2 0h2m2 0h2m2 0h1m1 0h1m1 0h1m1 0h3m1 0h1m1 0h1m2 0h2m1 0h1m1 0h1m1 0h1m1 0h2m1 0h11m2 0h1m1 0h1m1 0h4m2 0h1m1 0h2m1 0h3m1 0h1m5 0h1m1 0h3m3 0h2m5 0h1m1 0h1m2 0h2m2 0h1m1 0h1m1 0h1m1 0h4m1 0h1m4 0h5m1 0h4m1 0h4m3 0h1m1 0h3m3 0h1m3 0h5m2 0h1M5 110.5h1m4 0h3m1 0h1m1 0h2m1 0h1m2 0h2m2 0h1m1 0h2m2 0h1m1 0h4m1 0h3m4 0h1m2 0h1m1 0h2m2 0h1m1 0h2m1 0h4m1 0h1m2 0h1m1 0h1m1 0h1m6 0h7m2 0h1m2 0h2m2 0h1m1 0h6m1 0h1m4 0h1m2 0h1m1 0h3m2 0h1m2 0h3m2 0h1m1 0h4m1 0h1m1 0h2m1 0h1m1 0h3m2 0h2m1 0h1m3 0h1m3 0h2m1 0h4m3 0h1m2 0h1m2 0h2m1 0h1m1 0h2M5 111.5h1m1 0h1m1 0h1m1 0h2m2 0h1m4 0h1m1 0h1m2 0h1m1 0h1m1 0h1m3 0h3m2 0h2m3 0h1m1 0h2m4 0h2m5 0h2m1 0h1m1 0h1m1 0h3m5 0h2m1 0h1m1 0h2m2 0h1m2 0h2m1 0h3m1 0h1m3 0h1m1 0h1m2 0h1m1 0h2m2 0h2m2 0h1m1 0h1m3 0h2m1 0h1m6 0h1m5 0h2m5 0h1m1 0h1m5 0h1m5 0h1m2 0h1m1 0h2m2 0h1m1 0h2m2 0h1m2 0h2m1 0h1m1 0h2M6 112.5h7m2 0h3m1 0h2m1 0h1m4 0h3m1 0h1m1 0h1m1 0h2m1 0h1m3 0h1m1 0h1m3 0h3m1 0h1m1 0h2m4 0h3m1 0h3m3 0h1m2 0h1m3 0h3m2 0h2m2 0h3m1 0h4m3 0h1m1 0h3m3 0h2m3 0h1m1 0h1m3 0h1m1 0h1m2 0h1m5 0h4m1 0h2m3 0h1m1 0h2m1 0h1m1 0h1m2 0h1m2 0h1m4 0h6m1 0h1m2 0h1m1 0h2m1 0h1m2 0h1m5 0h2M4 113.5h1m1 0h1m4 0h1m1 0h1m1 0h1m1 0h1m1 0h1m3 0h2m2 0h6m2 0h2m2 0h1m3 0h3m2 0h1m1 0h1m2 0h2m1 0h2m1 0h3m2 0h1m4 0h2m2 0h2m3 0h1m7 0h1m1 0h2m1 0h1m2 0h3m6 0h1m2 0h3m2 0h1m1 0h1m4 0h3m1 0h3m1 0h2m5 0h6m2 0h1m1 0h4m1 0h1m1 0h5m1 0h2m1 0h1m3 0h2m1 0h1m1 0h6m2 0h2m1 0h2M4 114.5h3m2 0h3m2 0h2m1 0h1m2 0h1m1 0h1m1 0h1m1 0h1m2 0h1m1 0h1m3 0h1m2 0h1m1 0h2m1 0h1m2 0h1m4 0h2m2 0h1m2 0h1m1 0h2m1 0h2m2 0h4m1 0h2m5 0h2m1 0h1m1 0h1m6 0h3m3 0h4m1 0h3m3 0h3m3 0h2m3 0h1m2 0h1m2 0h3m3 0h1m1 0h1m1 0h4m5 0h1m1 0h2m2 0h1m3 0h1m2 0h2m1 0h2m4 0h2m1 0h1m1 0h2m3 0h1m1 0h1M5 115.5h3m3 0h2m2 0h3m5 0h4m1 0h5m1 0h1m1 0h2m1 0h2m4 0h3m1 0h1m2 0h2m1 0h7m1 0h1m1 0h2m2 0h1m1 0h1m1 0h2m1 0h1m1 0h2m1 0h1m4 0h1m1 0h1m1 0h2m4 0h1m1 0h1m4 0h2m3 0h3m2 0h1m2 0h1m2 0h1m1 0h1m2 0h1m5 0h1m2 0h1m1 0h1m2 0h1m1 0h1m1 0h1m2 0h1m2 0h1m2 0h1m2 0h1m1 0h2m1 0h2m2 0h1m2 0h1m10 0h4M4 116.5h2m2 0h9m1 0h1m1 0h1m2 0h3m2 0h1m2 0h6m1 0h1m1 0h2m2 0h1m2 0h2m1 0h2m2 0h2m2 0h1m1 0h5m2 0h1m2 0h4m1 0h6m1 0h2m2 0h8m5 0h5m2 0h2m1 0h1m2 0h1m2 0h6m6 0h4m1 0h2m3 0h1m2 0h1m1 0h9m1 0h2m2 0h1m1 0h3m1 0h1m1 0h1m2 0h1m1 0h1m2 0h5m1 0h2M5 117.5h1m2 0h1m3 0h1m2 0h1m1 0h1m1 0h1m1 0h1m1 0h2m1 0h1m1 0h3m1 0h1m3 0h1m3 0h2m1 0h1m4 0h1m1 0h8m1 0h2m3 0h1m1 0h1m1 0h1m6 0h1m2 0h1m2 0h2m1 0h2m1 0h2m3 0h1m1 0h4m3 0h1m3 0h3m3 0h2m2 0h2m3 0h3m1 0h1m1 0h1m6 0h7m3 0h2m3 0h3m1 0h3m1 0h2m5 0h1m3 0h3m2 0h1m3 0h1m3 0h1M5 118.5h1m1 0h2m1 0h1m1 0h1m2 0h1m1 0h2m2 0h1m2 0h1m1 0h1m2 0h4m1 0h1m1 0h1m1 0h2m1 0h1m3 0h2m2 0h4m2 0h1m1 0h1m2 0h1m1 0h1m1 0h2m2 0h1m1 0h1m1 0h2m3 0h1m1 0h2m1 0h1m1 0h1m3 0h1m1 0h1m1 0h1m4 0h2m1 0h1m1 0h1m5 0h3m3 0h1m1 0h1m1 0h1m1 0h2m1 0h3m1 0h5m1 0h3m1 0h1m1 0h1m1 0h2m1 0h1m1 0h1m1 0h2m1 0h1m3 0h1m2 0h1m1 0h2m5 0h1m2 0h3m1 0h1m1 0h3M6 119.5h3m3 0h2m3 0h2m1 0h1m1 0h1m1 0h1m1 0h3m1 0h3m3 0h2m1 0h1m3 0h1m2 0h1m1 0h1m1 0h1m1 0h2m1 0h1m1 0h2m1 0h1m3 0h1m1 0h1m7 0h3m1 0h2m5 0h1m1 0h2m3 0h2m1 0h2m1 0h2m1 0h4m1 0h1m1 0h1m1 0h1m4 0h2m3 0h5m2 0h2m2 0h2m4 0h1m2 0h1m3 0h1m3 0h1m2 0h1m2 0h4m2 0h1m2 0h1m2 0h1m2 0h1m2 0h1m3 0h1m1 0h1m1 0h1M4 120.5h3m1 0h6m6 0h1m1 0h2m1 0h1m1 0h2m1 0h7m4 0h2m1 0h1m2 0h3m1 0h1m2 0h1m1 0h2m2 0h5m2 0h2m1 0h2m2 0h1m1 0h2m1 0h2m1 0h2m2 0h1m1 0h5m4 0h1m2 0h1m1 0h1m7 0h1m1 0h2m1 0h6m6 0h4m1 0h1m2 0h1m1 0h1m1 0h2m1 0h7m1 0h3m3 0h7m1 0h2m2 0h9m2 0h1M4 121.5h1m1 0h2m1 0h1m1 0h2m3 0h2m1 0h1m2 0h2m1 0h1m2 0h1m1 0h2m1 0h2m2 0h2m4 0h2m2 0h2m4 0h4m1 0h1m1 0h6m2 0h3m1 0h1m2 0h1m2 0h5m1 0h2m1 0h2m3 0h4m10 0h1m1 0h1m2 0h1m1 0h1m1 0h1m2 0h2m1 0h4m1 0h2m6 0h6m9 0h1m1 0h2m3 0h1m1 0h2m1 0h1m2 0h3m1 0h5m2 0h1m1 0h3M6 122.5h1m1 0h1m1 0h1m1 0h1m1 0h3m1 0h1m2 0h2m5 0h2m1 0h1m8 0h2m1 0h1m2 0h2m3 0h2m4 0h3m4 0h2m1 0h1m2 0h1m1 0h2m1 0h1m3 0h2m1 0h1m1 0h1m2 0h1m2 0h1m11 0h2m1 0h1m2 0h1m1 0h1m1 0h1m1 0h3m1 0h1m1 0h1m1 0h1m1 0h1m2 0h3m1 0h1m4 0h2m1 0h1m2 0h1m1 0h3m1 0h1m1 0h1m3 0h1m2 0h2m1 0h2m1 0h1m2 0h1m5 0h1m1 0h1m1 0h1m1 0h2M4 123.5h2m2 0h1m2 0h7m2 0h3m3 0h2m1 0h3m4 0h2m2 0h1m5 0h1m1 0h1m4 0h1m1 0h1m2 0h1m2 0h3m2 0h1m2 0h1m1 0h1m1 0h2m1 0h1m1 0h2m3 0h1m1 0h1m2 0h1m5 0h1m1 0h2m3 0h4m4 0h1m1 0h1m1 0h4m2 0h1m1 0h2m2 0h2m1 0h1m2 0h3m3 0h1m1 0h2m2 0h1m3 0h1m3 0h2m1 0h2m4 0h2m1 0h2m1 0h1m1 0h2m1 0h1m3 0h4M5 124.5h1m4 0h1m1 0h1m1 0h4m2 0h2m3 0h2m1 0h1m1 0h3m2 0h1m2 0h1m1 0h1m1 0h2m1 0h1m1 0h5m1 0h1m2 0h3m1 0h2m3 0h2m3 0h1m2 0h1m2 0h1m1 0h1m5 0h8m1 0h1m3 0h1m1 0h2m4 0h3m1 0h2m1 0h1m4 0h3m3 0h1m1 0h1m2 0h3m1 0h2m6 0h1m1 0h3m3 0h3m1 0h2m2 0h1m2 0h1m2 0h1m2 0h1m3 0h2m2 0h2m4 0h1M5 125.5h2m1 0h1m4 0h2m4 0h3m4 0h5m3 0h1m5 0h5m3 0h1m1 0h1m2 0h1m1 0h2m2 0h4m1 0h1m3 0h2m2 0h3m2 0h1m1 0h3m1 0h1m3 0h1m3 0h2m1 0h1m1 0h2m2 0h2m2 0h1m1 0h1m8 0h1m2 0h1m1 0h3m1 0h1m1 0h1m2 0h2m2 0h4m1 0h2m1 0h1m3 0h1m2 0h1m1 0h1m3 0h3m1 0h1m2 0h1m1 0h2m2 0h6m2 0h3m2 0h1M5 126.5h1m4 0h2m1 0h2m1 0h2m8 0h1m1 0h2m1 0h6m6 0h1m1 0h3m4 0h2m1 0h1m2 0h1m3 0h2m1 0h1m2 0h1m1 0h3m2 0h1m1 0h1m1 0h2m1 0h1m1 0h2m1 0h1m10 0h2m1 0h3m5 0h2m1 0h1m1 0h3m1 0h3m1 0h1m2 0h1m1 0h1m1 0h1m5 0h1m2 0h2m3 0h1m1 0h3m5 0h1m3 0h1m2 0h1m2 0h1m2 0h1m2 0h1m2 0h1m1 0h1m1 0h3M4 127.5h1m6 0h1m1 0h2m2 0h5m1 0h2m1 0h4m1 0h2m1 0h2m1 0h5m4 0h1m4 0h1m6 0h1m4 0h1m2 0h2m3 0h1m1 0h7m3 0h1m1 0h2m1 0h2m1 0h1m1 0h2m1 0h1m1 0h1m2 0h4m3 0h3m4 0h2m2 0h1m4 0h2m5 0h1m1 0h1m6 0h3m11 0h1m1 0h1m3 0h1m5 0h4m1 0h1m2 0h3m1 0h1m1 0h1M5 128.5h1m4 0h2m3 0h3m1 0h1m3 0h1m3 0h4m1 0h4m2 0h3m1 0h1m2 0h1m1 0h2m3 0h3m1 0h2m1 0h2m5 0h1m2 0h1m3 0h1m2 0h1m1 0h1m9 0h1m1 0h1m1 0h1m2 0h1m3 0h2m2 0h1m3 0h1m1 0h2m1 0h2m1 0h1m1 0h1m1 0h1m7 0h4m1 0h1m6 0h2m1 0h3m1 0h1m1 0h1m1 0h3m9 0h3m2 0h1m1 0h2m1 0h2m1 0h1m1 0h1M5 129.5h2m2 0h1m1 0h1m2 0h1m2 0h1m1 0h2m1 0h2m2 0h1m3 0h2m1 0h2m3 0h1m1 0h1m1 0h1m1 0h2m2 0h1m1 0h2m1 0h1m2 0h3m1 0h6m1 0h1m1 0h4m2 0h1m1 0h1m4 0h6m1 0h2m1 0h3m1 0h2m1 0h3m2 0h1m1 0h1m4 0h2m2 0h1m2 0h2m1 0h4m1 0h2m1 0h1m3 0h4m1 0h1m6 0h1m2 0h1m1 0h1m1 0h2m2 0h3m2 0h2m1 0h1m1 0h1m1 0h1m1 0h3m7 0h1M4 130.5h1m1 0h2m1 0h3m1 0h4m1 0h1m1 0h1m7 0h2m1 0h1m3 0h2m3 0h1m1 0h2m2 0h1m5 0h1m2 0h1m2 0h1m2 0h2m4 0h4m1 0h2m1 0h1m1 0h1m1 0h2m1 0h4m9 0h8m1 0h2m1 0h4m2 0h6m1 0h1m1 0h1m1 0h1m1 0h1m1 0h2m1 0h1m2 0h5m2 0h1m1 0h2m1 0h1m6 0h1m1 0h1m4 0h1m2 0h1m1 0h2m2 0h1m1 0h1m2 0h1m2 0h2M4 131.5h1m6 0h5m1 0h6m4 0h1m3 0h1m1 0h1m2 0h2m8 0h1m2 0h1m2 0h1m5 0h1m3 0h2m2 0h2m1 0h3m1 0h4m1 0h2m1 0h1m1 0h1m1 0h2m1 0h2m3 0h1m1 0h4m5 0h2m2 0h1m5 0h6m1 0h3m1 0h1m1 0h1m1 0h1m1 0h1m2 0h1m1 0h2m1 0h2m1 0h1m4 0h1m3 0h1m1 0h2m2 0h1m1 0h1m3 0h2m1 0h1m7 0h1m1 0h1m1 0h2M7 132.5h1m2 0h1m1 0h2m1 0h1m2 0h1m3 0h2m1 0h2m1 0h1m1 0h3m2 0h2m5 0h1m1 0h1m3 0h3m3 0h1m1 0h2m1 0h2m4 0h3m1 0h1m3 0h1m2 0h1m1 0h1m5 0h1m2 0h2m1 0h2m1 0h2m5 0h1m1 0h2m1 0h3m1 0h1m2 0h1m2 0h1m3 0h1m3 0h1m1 0h1m1 0h1m1 0h4m4 0h1m2 0h3m1 0h1m1 0h1m1 0h3m6 0h2m1 0h4m1 0h1m1 0h4m2 0h1m1 0h1m3 0h2M6 133.5h2m3 0h1m2 0h4m1 0h2m3 0h2m1 0h1m2 0h1m6 0h1m1 0h6m1 0h1m1 0h10m2 0h3m1 0h1m2 0h1m2 0h3m1 0h4m3 0h3m1 0h1m2 0h1m1 0h5m1 0h1m4 0h1m3 0h2m1 0h2m2 0h1m4 0h1m1 0h1m1 0h2m1 0h1m1 0h1m2 0h1m3 0h2m1 0h1m1 0h1m6 0h1m1 0h2m2 0h6m1 0h1m2 0h1m1 0h2m1 0h1m1 0h3m1 0h1m2 0h1m4 0h1M4 134.5h1m1 0h1m1 0h1m1 0h2m1 0h1m1 0h3m3 0h1m1 0h1m1 0h1m1 0h3m1 0h4m2 0h1m1 0h1m3 0h1m1 0h2m4 0h3m3 0h2m3 0h3m3 0h6m5 0h7m1 0h1m3 0h1m1 0h6m1 0h1m1 0h1m1 0h3m2 0h4m1 0h8m2 0h1m2 0h1m5 0h1m3 0h1m1 0h1m3 0h1m1 0h2m1 0h2m1 0h1m2 0h1m2 0h1m1 0h3m3 0h1m4 0h1m1 0h1m1 0h1m1 0h4M4 135.5h1m2 0h2m3 0h3m2 0h3m1 0h1m4 0h1m1 0h1m2 0h1m6 0h1m1 0h2m3 0h2m1 0h2m1 0h2m4 0h4m2 0h4m4 0h1m1 0h4m1 0h2m5 0h4m2 0h2m3 0h3m2 0h2m1 0h3m1 0h1m2 0h6m6 0h1m2 0h1m2 0h2m1 0h1m1 0h2m2 0h1m1 0h1m1 0h1m1 0h1m2 0h1m3 0h1m1 0h5m1 0h1m3 0h1m2 0h1m1 0h2m2 0h5m1 0h1M6 136.5h1m1 0h1m1 0h2m5 0h1m2 0h2m1 0h1m2 0h4m3 0h2m5 0h2m1 0h1m5 0h3m1 0h2m1 0h1m1 0h1m6 0h3m3 0h1m5 0h3m1 0h7m1 0h3m2 0h2m1 0h1m2 0h4m1 0h3m2 0h4m3 0h3m3 0h1m3 0h6m2 0h1m3 0h2m1 0h1m1 0h3m1 0h3m1 0h3m1 0h1m1 0h1m3 0h4m1 0h2m1 0h1m2 0h1m1 0h1m3 0h2M4 137.5h2m2 0h1m4 0h3m1 0h4m4 0h1m1 0h1m2 0h1m1 0h1m7 0h5m1 0h3m1 0h1m2 0h1m1 0h1m3 0h4m1 0h2m2 0h1m1 0h2m2 0h1m1 0h1m1 0h5m1 0h1m1 0h1m1 0h2m1 0h2m1 0h3m3 0h1m2 0h1m1 0h5m2 0h1m2 0h1m1 0h1m1 0h1m2 0h6m6 0h1m1 0h1m1 0h1m4 0h1m1 0h1m1 0h3m2 0h1m2 0h1m1 0h1m3 0h3m2 0h1m1 0h1m3 0h1m3 0h5M4 138.5h1m1 0h2m1 0h2m2 0h2m1 0h1m2 0h5m2 0h1m2 0h2m3 0h2m6 0h2m1 0h3m4 0h2m2 0h4m2 0h1m1 0h2m2 0h1m1 0h4m8 0h3m5 0h2m4 0h1m1 0h1m3 0h1m1 0h3m1 0h3m2 0h2m1 0h5m1 0h3m1 0h2m3 0h6m3 0h1m1 0h1m2 0h3m1 0h1m1 0h1m2 0h2m1 0h1m1 0h2m4 0h3m3 0h4m1 0h3M5 139.5h2m1 0h2m1 0h2m1 0h5m6 0h1m1 0h2m1 0h3m1 0h1m1 0h1m1 0h6m2 0h1m1 0h2m2 0h1m2 0h4m2 0h1m2 0h1m1 0h1m2 0h1m3 0h6m6 0h2m1 0h2m2 0h1m1 0h5m2 0h2m1 0h2m1 0h2m1 0h1m2 0h2m1 0h1m2 0h1m1 0h2m1 0h1m2 0h1m1 0h2m1 0h1m5 0h3m1 0h1m1 0h5m2 0h1m2 0h1m2 0h1m1 0h2m5 0h1m2 0h1m3 0h1m1 0h2m1 0h2M6 140.5h2m1 0h2m2 0h1m1 0h2m1 0h2m2 0h4m2 0h2m3 0h3m2 0h2m3 0h1m1 0h1m1 0h2m1 0h1m1 0h3m1 0h1m2 0h3m1 0h1m1 0h3m2 0h1m1 0h1m1 0h1m1 0h2m1 0h1m1 0h1m2 0h2m1 0h2m1 0h2m1 0h2m3 0h1m1 0h1m2 0h1m5 0h1m1 0h2m7 0h1m2 0h1m1 0h1m1 0h6m6 0h4m1 0h1m2 0h6m3 0h1m1 0h2m2 0h1m1 0h2m1 0h4m2 0h1m1 0h1m3 0h1M11 141.5h1m2 0h1m1 0h1m1 0h1m2 0h1m1 0h5m2 0h2m1 0h1m4 0h1m1 0h8m1 0h2m3 0h7m1 0h1m1 0h1m1 0h2m2 0h3m6 0h2m1 0h3m1 0h1m2 0h9m3 0h1m3 0h2m4 0h1m1 0h1m4 0h3m1 0h1m1 0h1m1 0h1m3 0h1m5 0h1m1 0h1m2 0h1m1 0h1m1 0h1m2 0h6m2 0h1m1 0h1m9 0h1m2 0h2m2 0h1m2 0h1m1 0h1M4 142.5h5m1 0h4m2 0h1m1 0h1m1 0h1m1 0h1m1 0h1m1 0h3m3 0h2m2 0h1m3 0h1m1 0h1m2 0h2m5 0h2m3 0h2m2 0h1m5 0h2m1 0h4m6 0h6m1 0h1m2 0h2m1 0h1m2 0h1m1 0h1m1 0h1m1 0h2m3 0h1m1 0h1m1 0h2m2 0h4m1 0h3m1 0h1m1 0h1m2 0h1m1 0h9m1 0h2m1 0h4m1 0h1m1 0h1m2 0h1m2 0h2m1 0h1m1 0h1m2 0h3m4 0h3m4 0h1M6 143.5h4m1 0h1m5 0h1m1 0h2m3 0h6m1 0h1m3 0h2m1 0h1m1 0h1m2 0h1m2 0h2m4 0h1m3 0h1m1 0h2m2 0h1m10 0h4m1 0h2m5 0h5m4 0h3m1 0h1m2 0h4m3 0h1m2 0h1m2 0h1m1 0h1m6 0h1m3 0h4m4 0h1m1 0h9m3 0h1m1 0h5m3 0h3m4 0h3m2 0h1m1 0h1m1 0h4M6 144.5h1m1 0h5m1 0h1m1 0h2m2 0h1m2 0h2m2 0h1m1 0h2m1 0h5m4 0h2m1 0h1m4 0h2m3 0h1m4 0h7m1 0h2m2 0h1m2 0h1m2 0h3m4 0h1m2 0h6m1 0h2m1 0h1m2 0h1m1 0h2m1 0h3m1 0h2m1 0h1m3 0h6m3 0h1m1 0h2m1 0h1m1 0h2m5 0h2m1 0h7m1 0h1m3 0h1m1 0h1m1 0h3m1 0h1m1 0h1m2 0h2m1 0h1m1 0h6m1 0h2M8 145.5h1m3 0h1m1 0h2m3 0h1m2 0h2m3 0h3m1 0h2m3 0h4m1 0h2m5 0h1m5 0h4m1 0h2m3 0h3m1 0h3m1 0h1m1 0h1m1 0h2m2 0h3m2 0h1m1 0h2m3 0h1m1 0h1m4 0h3m1 0h6m2 0h1m3 0h2m3 0h1m1 0h1m1 0h1m1 0h2m1 0h1m4 0h1m1 0h4m3 0h2m3 0h3m4 0h2m1 0h1m1 0h3m1 0h2m2 0h1m1 0h3m3 0h3M4 146.5h1m2 0h2m1 0h1m1 0h1m1 0h3m1 0h1m1 0h1m1 0h1m1 0h5m2 0h2m1 0h1m1 0h6m3 0h3m3 0h3m1 0h1m1 0h4m1 0h1m1 0h1m2 0h2m1 0h3m2 0h1m1 0h1m2 0h1m1 0h1m1 0h2m1 0h2m1 0h1m1 0h2m1 0h3m1 0h2m1 0h1m1 0h1m4 0h2m3 0h3m1 0h1m1 0h1m1 0h1m8 0h1m2 0h1m1 0h1m2 0h4m1 0h1m1 0h1m1 0h1m4 0h2m4 0h2m4 0h2m2 0h2m1 0h1m1 0h1m1 0h1m1 0h2M5 147.5h1m2 0h1m3 0h1m2 0h1m1 0h1m1 0h5m7 0h2m3 0h1m2 0h2m4 0h2m1 0h1m2 0h2m3 0h1m1 0h3m3 0h1m1 0h1m2 0h1m1 0h1m2 0h4m1 0h1m5 0h4m3 0h1m1 0h3m1 0h2m2 0h1m1 0h5m1 0h1m2 0h1m1 0h2m3 0h1m4 0h1m6 0h2m1 0h3m2 0h3m1 0h1m3 0h2m1 0h4m1 0h1m3 0h1m2 0h2m1 0h1m1 0h1m3 0h1m3 0h3M5 148.5h10m1 0h1m1 0h2m3 0h2m1 0h1m1 0h1m2 0h6m2 0h1m3 0h3m1 0h2m5 0h1m2 0h1m2 0h8m2 0h1m3 0h1m3 0h1m2 0h1m2 0h3m1 0h7m2 0h1m2 0h4m1 0h2m2 0h1m2 0h3m1 0h6m1 0h1m1 0h1m2 0h3m1 0h1m2 0h1m3 0h2m1 0h1m1 0h5m1 0h1m7 0h2m1 0h4m2 0h1m2 0h7m2 0h2M7 149.5h1m1 0h1m1 0h2m2 0h2m1 0h3m1 0h1m1 0h2m1 0h1m2 0h4m1 0h1m1 0h1m1 0h3m2 0h3m1 0h1m2 0h2m2 0h3m7 0h1m7 0h1m1 0h1m6 0h1m3 0h2m2 0h1m3 0h2m4 0h2m1 0h1m2 0h2m4 0h1m2 0h1m1 0h6m1 0h3m2 0h1m3 0h2m1 0h4m1 0h1m2 0h1m3 0h5m1 0h1m1 0h1m2 0h1m2 0h4m2 0h1m5 0h2m1 0h1m1 0h2M9 150.5h2m2 0h5m1 0h1m4 0h1m2 0h4m2 0h1m2 0h4m2 0h2m1 0h2m2 0h1m1 0h2m1 0h1m3 0h2m1 0h5m2 0h3m1 0h1m2 0h1m3 0h4m1 0h2m2 0h1m1 0h1m1 0h1m2 0h1m1 0h1m1 0h1m2 0h1m1 0h1m2 0h1m1 0h1m4 0h1m3 0h1m2 0h2m1 0h2m9 0h4m1 0h1m4 0h1m2 0h1m1 0h1m4 0h1m2 0h1m1 0h1m2 0h1m2 0h2m3 0h2m2 0h2M4 151.5h2m2 0h1m2 0h1m2 0h2m6 0h1m2 0h2m1 0h2m3 0h6m4 0h1m2 0h2m1 0h1m2 0h2m1 0h1m2 0h1m3 0h1m1 0h2m5 0h1m2 0h3m1 0h2m6 0h1m7 0h1m1 0h1m1 0h2m1 0h1m1 0h2m1 0h1m1 0h1m1 0h2m3 0h9m3 0h1m1 0h1m2 0h1m6 0h1m1 0h4m1 0h1m1 0h1m2 0h4m1 0h2m2 0h2m1 0h1m1 0h3m1 0h1m1 0h2m1 0h7M4 152.5h8m4 0h1m5 0h1m1 0h5m5 0h1m1 0h1m2 0h1m2 0h3m3 0h3m3 0h1m1 0h2m1 0h1m1 0h4m1 0h5m3 0h1m1 0h1m3 0h2m1 0h1m5 0h1m1 0h2m4 0h1m2 0h2m3 0h2m2 0h1m1 0h2m1 0h1m3 0h2m1 0h1m3 0h1m2 0h1m1 0h1m1 0h1m9 0h1m2 0h2m2 0h2m1 0h1m2 0h5m2 0h1m2 0h1m1 0h4m2 0h4M7 153.5h1m1 0h1m1 0h2m1 0h1m2 0h1m3 0h1m2 0h3m6 0h1m2 0h1m1 0h1m1 0h2m1 0h3m2 0h1m1 0h1m2 0h4m3 0h1m1 0h1m2 0h1m2 0h5m5 0h2m1 0h2m1 0h5m4 0h3m10 0h2m5 0h1m1 0h1m1 0h1m3 0h2m1 0h4m1 0h1m1 0h1m1 0h4m1 0h1m4 0h1m2 0h1m1 0h5m3 0h1m1 0h1m2 0h4m2 0h3m2 0h1m6 0h1M4 154.5h1m1 0h3m1 0h1m1 0h3m2 0h1m2 0h6m2 0h1m1 0h3m1 0h3m2 0h1m2 0h2m1 0h2m2 0h1m2 0h2m1 0h1m2 0h1m2 0h1m2 0h2m1 0h2m1 0h1m1 0h1m6 0h2m1 0h1m1 0h1m3 0h5m1 0h1m1 0h3m1 0h1m1 0h1m4 0h5m2 0h1m2 0h1m4 0h2m8 0h4m1 0h3m2 0h1m4 0h2m5 0h1m2 0h4m1 0h2m2 0h2m2 0h1m1 0h1m3 0h4M5 155.5h2m1 0h2m2 0h1m8 0h1m3 0h1m2 0h1m5 0h2m3 0h1m1 0h3m2 0h4m1 0h2m4 0h2m1 0h1m1 0h1m1 0h1m1 0h2m3 0h1m1 0h1m2 0h1m1 0h1m4 0h1m1 0h2m4 0h1m4 0h2m4 0h1m1 0h1m3 0h1m1 0h1m2 0h1m1 0h4m1 0h2m3 0h4m1 0h2m1 0h4m3 0h2m2 0h3m4 0h1m1 0h3m1 0h1m2 0h2m3 0h2m4 0h1m1 0h3m2 0h2M6 156.5h1m1 0h3m2 0h3m1 0h1m5 0h2m1 0h1m2 0h1m1 0h1m1 0h3m4 0h6m1 0h1m2 0h1m1 0h3m2 0h1m1 0h3m2 0h1m2 0h5m1 0h1m1 0h2m4 0h1m3 0h1m1 0h3m4 0h2m2 0h1m1 0h1m5 0h1m2 0h2m1 0h2m1 0h3m6 0h2m1 0h5m1 0h1m5 0h4m1 0h2m3 0h4m1 0h1m1 0h1m1 0h1m8 0h2m1 0h1m1 0h2m2 0h1m2 0h2M5 157.5h3m4 0h3m1 0h6m1 0h1m3 0h1m1 0h3m1 0h2m1 0h3m1 0h3m1 0h2m4 0h2m1 0h1m1 0h4m7 0h2m1 0h4m5 0h1m1 0h6m1 0h2m2 0h1m2 0h1m1 0h2m3 0h1m1 0h1m1 0h3m1 0h1m1 0h2m2 0h2m1 0h2m1 0h4m1 0h2m2 0h2m2 0h5m2 0h1m2 0h1m3 0h3m1 0h1m1 0h1m1 0h1m4 0h2m1 0h2m2 0h3m2 0h3m2 0h1m1 0h1M6 158.5h1m2 0h2m7 0h1m1 0h3m2 0h2m1 0h2m1 0h2m1 0h1m1 0h1m3 0h2m4 0h2m1 0h1m2 0h3m2 0h3m1 0h1m1 0h3m1 0h6m4 0h1m2 0h3m1 0h2m3 0h1m2 0h1m2 0h2m1 0h5m1 0h2m1 0h1m1 0h4m1 0h1m4 0h2m3 0h1m1 0h1m1 0h1m2 0h2m1 0h2m4 0h1m1 0h1m2 0h1m2 0h1m1 0h2m1 0h3m1 0h1m2 0h1m2 0h1m1 0h1m3 0h1m1 0h1m3 0h1m1 0h1M5 159.5h1m1 0h1m1 0h1m1 0h2m1 0h4m5 0h1m1 0h3m1 0h1m4 0h2m1 0h1m1 0h2m2 0h1m2 0h1m1 0h1m2 0h1m1 0h1m2 0h6m2 0h1m1 0h2m1 0h2m2 0h2m1 0h1m1 0h2m1 0h3m1 0h2m1 0h1m1 0h1m5 0h4m1 0h2m1 0h1m3 0h1m1 0h1m2 0h3m2 0h1m1 0h1m2 0h1m1 0h1m8 0h1m4 0h2m2 0h4m2 0h1m2 0h4m1 0h1m2 0h1m4 0h2m1 0h2m1 0h2m1 0h1m1 0h1m1 0h3M7 160.5h1m1 0h5m1 0h7m1 0h1m2 0h2m1 0h4m1 0h1m1 0h2m3 0h2m1 0h2m1 0h2m2 0h1m2 0h1m1 0h1m1 0h2m1 0h1m1 0h1m3 0h1m1 0h3m2 0h4m3 0h1m1 0h2m1 0h3m5 0h2m4 0h1m2 0h1m2 0h2m3 0h3m1 0h3m1 0h1m1 0h1m5 0h2m1 0h3m7 0h3m1 0h1m1 0h2m1 0h2m1 0h1m3 0h7m2 0h1m3 0h2m1 0h1m3 0h1M4 161.5h1m3 0h1m3 0h1m1 0h1m4 0h1m2 0h3m3 0h2m1 0h3m1 0h4m1 0h1m1 0h1m5 0h1m2 0h1m2 0h1m1 0h1m10 0h2m1 0h3m4 0h6m4 0h1m1 0h2m3 0h1m2 0h1m2 0h1m5 0h1m6 0h1m2 0h2m1 0h1m1 0h2m1 0h1m1 0h2m1 0h1m3 0h2m1 0h3m5 0h2m1 0h2m3 0h1m1 0h1m1 0h2m3 0h2m1 0h1m1 0h1m1 0h3m2 0h3m4 0h1M4 162.5h1m1 0h1m3 0h1m2 0h5m1 0h6m1 0h1m1 0h2m1 0h1m1 0h2m1 0h1m1 0h2m1 0h1m4 0h2m2 0h1m1 0h3m2 0h1m2 0h2m2 0h1m3 0h1m1 0h1m1 0h2m1 0h1m3 0h4m1 0h2m2 0h1m1 0h1m1 0h1m2 0h5m1 0h5m1 0h2m2 0h1m2 0h3m1 0h4m1 0h1m1 0h5m2 0h2m1 0h2m1 0h1m1 0h2m1 0h1m3 0h5m1 0h2m5 0h1m2 0h1m1 0h1m3 0h1m1 0h3m2 0h1m1 0h2M6 163.5h2m3 0h1m1 0h1m1 0h2m1 0h1m1 0h1m3 0h3m3 0h1m1 0h2m3 0h3m3 0h2m1 0h1m5 0h1m5 0h1m2 0h4m1 0h1m7 0h1m1 0h1m1 0h2m3 0h1m1 0h2m2 0h1m3 0h2m1 0h1m4 0h2m1 0h2m2 0h5m1 0h2m1 0h2m1 0h1m2 0h2m3 0h3m3 0h3m1 0h3m1 0h4m3 0h1m1 0h1m2 0h4m1 0h3m2 0h1m1 0h2m1 0h1m1 0h2m1 0h3m1 0h3M4 164.5h1m1 0h2m2 0h1m2 0h1m1 0h1m3 0h2m1 0h1m1 0h1m1 0h3m3 0h2m1 0h1m2 0h2m1 0h1m2 0h1m3 0h4m1 0h2m1 0h1m2 0h4m4 0h1m2 0h1m2 0h4m1 0h1m2 0h2m1 0h2m1 0h3m2 0h1m1 0h2m2 0h3m2 0h1m2 0h1m2 0h5m1 0h1m3 0h1m1 0h1m3 0h1m1 0h5m3 0h1m3 0h4m3 0h2m2 0h1m1 0h2m3 0h2m2 0h4m4 0h2m1 0h1m3 0h1m2 0h2M6 165.5h1m5 0h2m1 0h1m1 0h1m1 0h2m1 0h1m5 0h2m1 0h1m2 0h1m1 0h1m3 0h2m3 0h1m1 0h4m2 0h2m1 0h2m2 0h2m1 0h1m1 0h2m1 0h2m2 0h1m4 0h9m1 0h1m2 0h1m1 0h1m1 0h1m2 0h1m1 0h2m4 0h2m5 0h2m4 0h1m2 0h2m1 0h1m1 0h2m1 0h3m1 0h2m1 0h1m1 0h1m5 0h2m2 0h2m2 0h2m1 0h4m4 0h3m2 0h3m2 0h1m1 0h1m1 0h1m1 0h2M5 166.5h3m1 0h3m1 0h1m1 0h2m1 0h3m8 0h1m1 0h6m1 0h1m1 0h3m7 0h1m1 0h1m2 0h1m2 0h1m1 0h5m3 0h1m1 0h1m1 0h1m4 0h1m4 0h4m3 0h2m1 0h1m3 0h3m2 0h2m1 0h1m3 0h2m1 0h1m1 0h1m5 0h2m2 0h2m4 0h1m1 0h1m2 0h1m2 0h2m1 0h4m1 0h1m1 0h3m3 0h2m4 0h5m2 0h1m2 0h2m4 0h1m2 0h1M7 167.5h1m3 0h1m3 0h2m1 0h1m2 0h3m1 0h1m1 0h2m1 0h1m1 0h2m1 0h1m1 0h2m1 0h3m2 0h1m1 0h3m5 0h1m1 0h3m3 0h1m2 0h1m2 0h1m3 0h2m1 0h3m6 0h2m1 0h1m1 0h2m2 0h1m1 0h1m6 0h3m1 0h3m4 0h3m1 0h1m1 0h1m3 0h5m1 0h1m1 0h2m1 0h1m1 0h1m1 0h4m1 0h1m1 0h2m5 0h5m1 0h2m2 0h1m1 0h2m4 0h1m1 0h3m1 0h3M8 168.5h1m1 0h2m1 0h3m1 0h1m1 0h3m3 0h2m1 0h2m2 0h2m2 0h1m2 0h2m1 0h1m1 0h1m1 0h1m1 0h1m1 0h1m1 0h1m1 0h1m1 0h5m3 0h1m1 0h1m2 0h1m3 0h1m1 0h2m2 0h1m1 0h1m4 0h1m1 0h2m1 0h1m1 0h3m4 0h2m1 0h1m2 0h1m4 0h3m1 0h1m3 0h1m1 0h1m3 0h1m1 0h6m6 0h4m2 0h1m3 0h2m1 0h2m1 0h1m2 0h2m1 0h2m2 0h6m1 0h2m2 0h1m2 0h2M5 169.5h2m1 0h1m2 0h3m1 0h1m2 0h1m3 0h3m2 0h1m1 0h2m1 0h3m1 0h4m1 0h1m1 0h2m1 0h1m1 0h2m1 0h1m3 0h2m3 0h1m2 0h1m3 0h2m3 0h6m1 0h7m1 0h3m2 0h1m1 0h2m1 0h1m1 0h2m2 0h1m1 0h2m8 0h1m1 0h1m3 0h2m1 0h4m5 0h1m2 0h1m1 0h1m5 0h5m2 0h5m5 0h2m1 0h2m1 0h1m1 0h2m1 0h1m2 0h1m2 0h1m1 0h1M4 170.5h3m2 0h2m3 0h2m1 0h2m2 0h2m1 0h5m2 0h1m1 0h1m1 0h4m1 0h4m1 0h1m1 0h1m1 0h5m1 0h1m1 0h1m2 0h1m3 0h1m2 0h4m1 0h2m5 0h1m2 0h1m1 0h1m4 0h1m2 0h2m2 0h1m1 0h7m3 0h1m1 0h2m2 0h1m3 0h7m1 0h1m2 0h3m1 0h3m1 0h2m1 0h1m2 0h3m1 0h3m1 0h1m1 0h3m1 0h1m2 0h1m1 0h1m2 0h3m4 0h2m3 0h1m1 0h1M7 171.5h1m3 0h1m2 0h1m1 0h1m1 0h1m2 0h2m12 0h1m3 0h1m1 0h1m4 0h3m9 0h1m1 0h2m3 0h3m6 0h1m1 0h3m2 0h1m3 0h7m1 0h4m1 0h1m2 0h2m1 0h3m1 0h2m4 0h3m1 0h4m3 0h1m1 0h3m1 0h2m1 0h4m1 0h2m1 0h2m2 0h3m2 0h2m1 0h1m5 0h1m2 0h1m1 0h2m8 0h1m1 0h4M5 172.5h1m1 0h1m1 0h2m2 0h4m7 0h1m2 0h1m1 0h1m2 0h5m6 0h3m3 0h3m1 0h1m3 0h1m1 0h7m3 0h2m4 0h4m3 0h1m1 0h2m1 0h8m3 0h3m5 0h2m1 0h5m2 0h6m1 0h3m2 0h1m1 0h1m1 0h1m2 0h1m1 0h1m2 0h1m1 0h1m1 0h8m1 0h1m1 0h2m1 0h1m1 0h7m1 0h1m3 0h6m1 0h2M12 173.5h1m1 0h3m5 0h1m1 0h2m6 0h1m3 0h1m1 0h7m1 0h1m1 0h2m6 0h2m2 0h1m3 0h2m3 0h3m3 0h2m1 0h1m1 0h3m1 0h1m1 0h3m3 0h1m1 0h2m4 0h1m2 0h1m1 0h3m1 0h1m1 0h2m2 0h2m3 0h5m1 0h2m7 0h2m1 0h1m5 0h1m3 0h3m1 0h3m4 0h1m1 0h1m1 0h2m1 0h1m1 0h2m2 0h1m3 0h1m1 0h3M4 174.5h7m1 0h2m1 0h1m2 0h2m2 0h1m1 0h1m2 0h6m1 0h1m1 0h1m2 0h2m2 0h1m1 0h2m3 0h1m1 0h4m4 0h1m1 0h1m1 0h1m2 0h6m4 0h1m1 0h1m2 0h1m1 0h2m2 0h1m1 0h1m1 0h2m1 0h4m2 0h2m1 0h1m2 0h2m1 0h2m1 0h4m1 0h1m1 0h2m2 0h1m4 0h1m1 0h2m2 0h2m1 0h2m1 0h1m2 0h1m1 0h1m1 0h1m1 0h2m1 0h3m1 0h1m2 0h1m2 0h1m1 0h2m3 0h1m1 0h1m1 0h1m1 0h1M4 175.5h1m5 0h1m2 0h1m1 0h2m2 0h4m1 0h5m2 0h2m3 0h1m4 0h3m1 0h2m1 0h2m2 0h2m4 0h3m3 0h1m1 0h2m1 0h1m1 0h1m2 0h3m1 0h1m4 0h1m1 0h4m3 0h1m3 0h1m1 0h2m1 0h2m1 0h1m1 0h1m1 0h1m1 0h1m2 0h2m1 0h1m3 0h4m1 0h2m3 0h2m3 0h1m4 0h1m2 0h2m3 0h2m1 0h1m2 0h1m2 0h1m7 0h3m1 0h1m1 0h2m3 0h1m1 0h2M4 176.5h1m1 0h3m1 0h1m1 0h1m2 0h1m3 0h1m1 0h2m1 0h4m1 0h9m2 0h1m2 0h2m2 0h1m2 0h1m2 0h2m5 0h6m1 0h2m1 0h1m1 0h1m1 0h1m1 0h4m1 0h6m1 0h5m4 0h1m1 0h2m4 0h1m1 0h1m3 0h3m2 0h6m3 0h1m1 0h4m1 0h2m1 0h3m1 0h2m1 0h7m2 0h1m3 0h1m1 0h2m1 0h1m1 0h4m3 0h9m1 0h2M4 177.5h1m1 0h3m1 0h1m1 0h1m3 0h2m2 0h3m1 0h1m1 0h1m2 0h2m2 0h1m3 0h1m2 0h3m1 0h2m2 0h1m6 0h2m1 0h1m4 0h1m1 0h1m6 0h1m4 0h1m1 0h2m1 0h4m1 0h1m5 0h3m3 0h1m1 0h1m1 0h4m2 0h1m2 0h2m1 0h1m1 0h1m3 0h7m2 0h1m2 0h7m4 0h3m4 0h2m3 0h1m1 0h2m3 0h2m2 0h3m3 0h4m1 0h1M4 178.5h1m1 0h3m1 0h1m1 0h2m4 0h2m1 0h1m2 0h1m1 0h2m1 0h7m2 0h2m1 0h2m9 0h2m1 0h1m2 0h1m1 0h2m3 0h1m1 0h2m1 0h1m1 0h1m2 0h1m1 0h1m1 0h2m1 0h4m1 0h4m1 0h2m1 0h5m2 0h1m4 0h4m1 0h2m3 0h2m1 0h1m2 0h2m1 0h1m1 0h1m3 0h1m3 0h2m3 0h1m4 0h6m1 0h1m3 0h1m1 0h5m2 0h1m4 0h3m4 0h1M4 179.5h1m5 0h1m1 0h1m1 0h1m2 0h1m4 0h3m3 0h2m1 0h1m1 0h1m1 0h2m1 0h3m3 0h4m1 0h1m1 0h2m2 0h1m2 0h1m3 0h6m6 0h6m5 0h3m1 0h5m2 0h2m1 0h1m1 0h4m2 0h2m1 0h1m2 0h2m1 0h1m1 0h1m4 0h1m1 0h1m1 0h1m2 0h1m4 0h1m1 0h2m1 0h1m1 0h2m1 0h1m2 0h2m3 0h2m4 0h1m5 0h2m4 0h2m2 0h1m2 0h1M4 180.5h7m1 0h1m3 0h3m1 0h2m1 0h3m1 0h1m2 0h5m1 0h1m3 0h2m1 0h1m3 0h1m1 0h2m3 0h1m1 0h1m2 0h1m1 0h3m2 0h1m1 0h1m1 0h1m1 0h1m1 0h1m1 0h3m2 0h4m1 0h4m5 0h1m2 0h3m2 0h1m1 0h3m3 0h2m2 0h2m1 0h3m6 0h2m1 0h3m4 0h1m1 0h1m1 0h3m2 0h1m1 0h7m1 0h2m1 0h1m1 0h4m3 0h1m1 0h1m2 0h2m4 0h1"/></svg>
