<?xml version="1.0" encoding="utf-8"?><!DOCTYPE svg PUBLIC "-//W3C//DTD SVG 1.1//EN" "http://www.w3.org/Graphics/SVG/1.1/DTD/svg11.dtd"><svg xmlns="http://www.w3.org/2000/svg" viewBox="0 0 185 185" shape-rendering="crispEdges"><path fill="#ffffff" d="M0 0h185v185H0z"/><path stroke="#000000" d="M4 4.5h7m3 0h3m1 0h3m2 0h2m2 0h1m1 0h10m3 0h3m3 0h1m1 0h2m3 0h4m1 0h1m1 0h1m1 0h1m3 0h1m1 0h2m1 0h1m1 0h1m3 0h2m1 0h1m1 0h2m1 0h1m1 0h1m1 0h1m1 0h3m3 0h3m4 0h3m3 0h1m8 0h7m5 0h2m1 0h1m1 0h2m5 0h1m2 0h1m2 0h1m4 0h1m1 0h1m5 0h2m2 0h1m1 0h1m3 0h7M4 5.5h1m5 0h1m1 0h1m3 0h1m1 0h5m1 0h4m2 0h3m5 0h1m2 0h1m3 0h3m1 0h1m2 0h2m3 0h2m5 0h2m1 0h2m1 0h3m4 0h1m1 0h4m1 0h1m2 0h2m1 0h1m1 0h2m3 0h2m3 0h1m1 0h1m3 0h1m1 0h2m2 0h1m1 0h1m1 0h4m3 0h5m1 0h1m1 0h1m7 0h1m3 0h4m1 0h1m3 0h1m2 0h1m1 0h2m1 0h2m3 0h1m1 0h2m1 0h1m1 0h1m5 0h1M4 6.5h1m1 0h3m1 0h1m2 0h1m2 0h2m1 0h1m4 0h1m2 0h1m1 0h1m1 0h3m1 0h2m6 0h1m2 0h2m3 0h1m6 0h3m2 0h1m2 0h2m3 0h1m1 0h2m1 0h1m2 0h1m5 0h2m1 0h1m2 0h2m3 0h2m1 0h1m2 0h4m2 0h1m2 0h1m2 0h3m2 0h1m2 0h1m1 0h1m2 0h1m1 0h1m2 0h1m2 0h1m2 0h3m1 0h5m4 0h1m2 0h3m4 0h1m1 0h1m2 0h2m2 0h1m3 0h1m1 0h3m1 0h1M4 7.5h1m1 0h3m1 0h1m1 0h1m1 0h1m2 0h2m2 0h1m2 0h2m4 0h3m5 0h3m1 0h3m3 0h3m1 0h1m1 0h4m1 0h1m1 0h1m4 0h1m4 0h1m1 0h1m3 0h2m2 0h3m2 0h3m1 0h1m1 0h4m3 0h3m4 0h2m1 0h2m1 0h1m1 0h2m1 0h5m2 0h2m1 0h7m5 0h2m1 0h3m1 0h1m1 0h1m1 0h1m1 0h1m4 0h1m1 0h1m2 0h1m1 0h1m3 0h1m2 0h2m1 0h1m1 0h3m1 0h1M4 8.5h1m1 0h3m1 0h1m2 0h1m2 0h3m4 0h1m3 0h1m4 0h5m1 0h2m2 0h5m1 0h1m2 0h1m4 0h1m3 0h6m3 0h1m3 0h1m1 0h3m2 0h1m1 0h1m1 0h2m2 0h5m1 0h2m1 0h1m5 0h4m4 0h3m1 0h6m1 0h3m1 0h1m4 0h1m2 0h3m1 0h1m2 0h1m2 0h5m1 0h1m1 0h2m2 0h1m1 0h1m5 0h2m1 0h3m4 0h1m1 0h3m1 0h1M4 9.5h1m5 0h1m1 0h1m2 0h5m1 0h1m1 0h4m3 0h1m1 0h1m3 0h5m1 0h1m2 0h1m6 0h1m1 0h2m1 0h4m3 0h2m2 0h6m1 0h1m3 0h1m1 0h5m2 0h1m3 0h1m2 0h2m1 0h3m1 0h2m1 0h1m1 0h5m1 0h1m2 0h1m3 0h3m1 0h1m1 0h1m2 0h1m1 0h2m1 0h6m4 0h1m3 0h1m5 0h1m5 0h1m1 0h2m5 0h2m1 0h1m1 0h1m5 0h1M4 10.5h7m1 0h1m1 0h1m1 0h1m1 0h1m1 0h1m1 0h1m1 0h1m1 0h1m1 0h1m1 0h1m1 0h1m1 0h1m1 0h1m1 0h1m1 0h1m1 0h1m1 0h1m1 0h1m1 0h1m1 0h1m1 0h1m1 0h1m1 0h1m1 0h1m1 0h1m1 0h1m1 0h1m1 0h1m1 0h1m1 0h1m1 0h1m1 0h1m1 0h1m1 0h1m1 0h1m1 0h1m1 0h1m1 0h1m1 0h1m1 0h1m1 0h1m1 0h1m1 0h1m1 0h1m1 0h1m1 0h1m1 0h1m1 0h1m1 0h1m1 0h1m1 0h1m1 0h1m1 0h1m1 0h1m1 0h1m1 0h1m1 0h1m1 0h1m1 0h1m1 0h1m1 0h1m1 0h1m1 0h1m1 0h1m1 0h1m1 0h1m1 0h1m1 0h1m1 0h1m1 0h1m1 0h1m1 0h1m1 0h1m1 0h1m1 0h1m1 0h1m1 0h1m1 0h1m1 0h1m1 0h1m1 0h1m1 0h7M13 11.5h1m1 0h1m2 0h1m2 0h1m1 0h1m1 0h1m5 0h2m3 0h2m1 0h1m1 0h1m1 0h1m2 0h3m2 0h2m5 0h3m3 0h1m1 0h2m3 0h1m1 0h2m1 0h3m1 0h1m5 0h1m1 0h1m3 0h6m1 0h1m1 0h2m3 0h1m1 0h1m1 0h1m2 0h1m2 0h1m3 0h1m2 0h3m5 0h3m1 0h1m1 0h2m1 0h1m1 0h1m1 0h1m3 0h1m3 0h1m1 0h1m4 0h3m4 0h1m1 0h1m3 0h1M4 12.5h5m1 0h4m1 0h3m4 0h2m1 0h5m1 0h6m1 0h1m3 0h3m4 0h8m3 0h5m5 0h1m2 0h1m1 0h1m1 0h4m1 0h1m1 0h1m1 0h9m4 0h3m3 0h3m1 0h5m2 0h6m5 0h4m1 0h1m4 0h1m1 0h2m1 0h1m1 0h5m1 0h2m1 0h1m2 0h1m5 0h1m1 0h1m2 0h1m1 0h5m1 0h1m1 0h1m1 0h1M4 13.5h2m5 0h1m7 0h1m3 0h2m1 0h2m3 0h1m1 0h2m1 0h1m1 0h1m5 0h2m1 0h1m2 0h1m4 0h2m1 0h2m1 0h2m1 0h2m1 0h1m2 0h3m1 0h1m1 0h1m1 0h1m1 0h2m4 0h1m1 0h1m2 0h2m1 0h1m1 0h2m1 0h1m3 0h1m2 0h2m5 0h1m1 0h4m3 0h1m1 0h1m1 0h2m1 0h1m4 0h1m1 0h1m1 0h2m3 0h1m1 0h1m1 0h1m1 0h6m1 0h3m3 0h3m2 0h3m1 0h2m4 0h1m2 0h1M5 14.5h1m3 0h2m1 0h1m2 0h2m3 0h3m1 0h2m1 0h2m6 0h1m2 0h1m1 0h2m1 0h1m2 0h2m3 0h5m1 0h1m4 0h1m1 0h1m2 0h5m1 0h1m6 0h1m1 0h3m3 0h3m4 0h2m1 0h2m1 0h2m1 0h2m1 0h3m2 0h4m2 0h1m2 0h2m2 0h3m1 0h1m1 0h3m1 0h3m3 0h1m1 0h2m1 0h1m1 0h1m2 0h1m6 0h1m1 0h2m3 0h1m1 0h1m6 0h2m2 0h1M6 15.5h2m1 0h1m1 0h2m1 0h2m1 0h2m1 0h1m1 0h1m1 0h1m2 0h5m1 0h2m3 0h3m2 0h4m6 0h1m1 0h1m1 0h2m1 0h2m4 0h2m5 0h2m1 0h1m1 0h1m2 0h1m1 0h1m1 0h2m4 0h1m1 0h1m2 0h2m3 0h4m1 0h1m1 0h1m1 0h2m7 0h1m3 0h1m1 0h1m1 0h5m1 0h1m1 0h3m3 0h2m2 0h1m3 0h1m1 0h1m1 0h3m1 0h1m5 0h5m1 0h1m1 0h2m1 0h6M4 16.5h1m3 0h4m2 0h1m1 0h1m2 0h1m3 0h2m1 0h1m1 0h1m1 0h1m2 0h1m3 0h1m3 0h1m1 0h1m3 0h7m1 0h1m1 0h1m3 0h1m3 0h1m1 0h2m2 0h1m3 0h2m2 0h1m1 0h1m1 0h5m2 0h1m1 0h1m1 0h1m2 0h1m1 0h2m6 0h1m4 0h1m1 0h1m4 0h1m3 0h1m1 0h1m2 0h1m1 0h1m1 0h2m1 0h1m1 0h1m2 0h1m1 0h2m4 0h1m1 0h1m1 0h2m2 0h1m1 0h3m1 0h1m1 0h2m1 0h1m1 0h2m1 0h1m2 0h1m4 0h1M4 17.5h1m1 0h1m2 0h1m1 0h1m1 0h1m1 0h2m3 0h1m1 0h2m1 0h1m1 0h1m1 0h1m1 0h1m2 0h2m2 0h1m1 0h2m1 0h2m1 0h1m1 0h1m1 0h1m2 0h1m1 0h2m1 0h1m3 0h1m1 0h1m3 0h1m5 0h1m6 0h1m1 0h2m3 0h7m2 0h1m1 0h2m2 0h1m2 0h1m4 0h1m1 0h1m1 0h8m1 0h4m5 0h2m1 0h1m1 0h1m2 0h1m1 0h3m3 0h1m1 0h2m2 0h2m1 0h1m4 0h2m1 0h1m1 0h3m6 0h3M5 18.5h2m3 0h1m1 0h2m1 0h3m1 0h3m3 0h1m2 0h3m1 0h2m2 0h6m1 0h1m3 0h1m1 0h2m1 0h1m1 0h2m2 0h1m1 0h1m1 0h3m3 0h6m1 0h2m3 0h1m1 0h4m1 0h1m2 0h2m1 0h4m1 0h5m1 0h2m1 0h6m1 0h2m1 0h2m1 0h1m1 0h1m1 0h1m1 0h2m1 0h1m1 0h2m2 0h2m1 0h2m1 0h1m1 0h1m2 0h1m2 0h2m2 0h2m5 0h1m1 0h1m6 0h1m1 0h1m2 0h1m2 0h3M4 19.5h1m2 0h1m1 0h1m2 0h1m1 0h1m3 0h2m2 0h1m1 0h1m2 0h2m3 0h1m1 0h3m1 0h1m1 0h1m2 0h1m2 0h1m3 0h1m2 0h1m1 0h2m1 0h1m2 0h1m1 0h5m1 0h2m2 0h4m1 0h2m1 0h1m3 0h2m2 0h1m2 0h1m1 0h1m1 0h3m4 0h8m2 0h4m4 0h1m1 0h1m1 0h3m5 0h1m3 0h2m1 0h4m2 0h2m6 0h2m1 0h1m5 0h2m1 0h1m2 0h1m1 0h6m1 0h2M6 20.5h1m1 0h1m1 0h1m2 0h4m1 0h1m1 0h3m3 0h1m1 0h2m2 0h1m1 0h1m1 0h1m1 0h1m1 0h3m5 0h2m2 0h1m1 0h1m1 0h2m1 0h1m3 0h1m3 0h1m1 0h1m1 0h1m2 0h2m2 0h2m3 0h5m2 0h1m2 0h2m3 0h3m1 0h2m2 0h1m3 0h1m1 0h1m3 0h1m1 0h3m4 0h1m2 0h3m1 0h1m4 0h1m2 0h3m2 0h1m2 0h3m1 0h1m4 0h2m1 0h6m1 0h1m1 0h3m1 0h1m1 0h1m3 0h2M5 21.5h3m3 0h3m1 0h1m2 0h1m1 0h1m1 0h1m1 0h3m1 0h6m1 0h1m1 0h5m1 0h2m5 0h1m2 0h2m1 0h1m1 0h1m2 0h1m2 0h2m2 0h1m2 0h1m1 0h2m2 0h1m2 0h1m1 0h1m4 0h4m1 0h1m1 0h2m1 0h1m1 0h3m1 0h1m1 0h2m2 0h1m5 0h1m2 0h1m1 0h1m3 0h1m1 0h2m5 0h4m1 0h1m4 0h2m3 0h3m1 0h3m1 0h1m1 0h1m2 0h2m1 0h2m2 0h1m2 0h1m5 0h1m2 0h1M5 22.5h4m1 0h1m1 0h1m1 0h6m2 0h1m1 0h2m3 0h2m2 0h1m3 0h1m2 0h1m2 0h1m1 0h3m4 0h2m1 0h1m1 0h6m1 0h1m3 0h1m1 0h1m1 0h1m4 0h1m1 0h4m1 0h2m2 0h1m1 0h2m1 0h3m2 0h2m2 0h3m3 0h1m1 0h3m1 0h1m3 0h2m3 0h4m2 0h1m1 0h4m2 0h3m1 0h1m2 0h6m3 0h1m1 0h1m1 0h1m2 0h1m2 0h1m2 0h1m4 0h1m2 0h1m4 0h1M4 23.5h2m6 0h1m3 0h1m1 0h1m3 0h3m2 0h2m1 0h3m1 0h2m1 0h1m2 0h2m1 0h1m2 0h3m3 0h2m4 0h3m4 0h3m5 0h2m1 0h1m1 0h2m5 0h3m3 0h1m1 0h1m2 0h1m1 0h1m2 0h1m1 0h3m2 0h8m3 0h1m7 0h1m1 0h8m1 0h1m1 0h1m1 0h2m1 0h1m3 0h1m2 0h1m1 0h1m5 0h2m1 0h1m2 0h1m1 0h2m1 0h3m1 0h5M4 24.5h1m1 0h6m2 0h2m4 0h1m4 0h4m1 0h1m1 0h3m2 0h1m2 0h1m1 0h1m1 0h1m3 0h3m3 0h1m2 0h2m4 0h1m1 0h1m1 0h1m1 0h4m2 0h5m1 0h1m1 0h1m1 0h3m2 0h1m1 0h1m1 0h1m2 0h1m2 0h1m2 0h1m2 0h2m3 0h2m3 0h1m6 0h1m4 0h1m1 0h4m3 0h1m1 0h6m2 0h5m3 0h5m2 0h2m6 0h1m1 0h2M5 25.5h5m1 0h1m1 0h5m2 0h2m2 0h3m2 0h3m8 0h1m1 0h4m2 0h3m5 0h2m3 0h2m1 0h2m2 0h1m1 0h1m2 0h4m1 0h1m3 0h1m1 0h1m1 0h3m1 0h6m3 0h2m4 0h5m2 0h2m2 0h2m2 0h3m1 0h3m2 0h1m1 0h1m2 0h1m1 0h1m1 0h1m5 0h1m3 0h2m1 0h1m1 0h1m2 0h1m1 0h1m2 0h4m1 0h1m1 0h4m6 0h1m1 0h1M4 26.5h2m1 0h2m1 0h2m2 0h1m1 0h3m1 0h3m2 0h2m1 0h1m1 0h2m2 0h1m2 0h1m1 0h1m1 0h1m3 0h1m3 0h6m3 0h3m1 0h3m4 0h4m2 0h1m3 0h4m1 0h1m8 0h1m1 0h1m2 0h1m2 0h2m4 0h6m1 0h1m3 0h3m2 0h10m1 0h1m1 0h4m2 0h1m1 0h1m1 0h2m1 0h2m2 0h2m4 0h2m2 0h1m1 0h1m5 0h1m2 0h2m1 0h3M6 27.5h3m5 0h5m4 0h8m2 0h1m2 0h1m1 0h1m7 0h2m1 0h1m1 0h2m2 0h1m1 0h6m1 0h3m9 0h1m1 0h2m2 0h2m1 0h3m5 0h1m2 0h2m3 0h4m1 0h1m1 0h1m1 0h1m2 0h2m6 0h3m1 0h1m2 0h3m2 0h1m2 0h2m2 0h1m1 0h1m3 0h1m2 0h1m1 0h1m1 0h5m2 0h2m4 0h1m1 0h2m2 0h1m2 0h2m1 0h2M6 28.5h2m1 0h2m1 0h1m2 0h2m1 0h6m1 0h1m1 0h1m1 0h3m1 0h4m2 0h1m1 0h3m3 0h1m2 0h2m2 0h4m4 0h1m4 0h2m1 0h1m3 0h1m2 0h8m2 0h2m1 0h1m4 0h1m3 0h2m1 0h2m5 0h1m2 0h1m4 0h1m3 0h1m3 0h1m1 0h4m1 0h2m6 0h4m1 0h1m1 0h3m1 0h1m4 0h4m2 0h3m4 0h2m2 0h2m2 0h1m1 0h1M4 29.5h6m2 0h2m2 0h3m1 0h1m1 0h1m2 0h3m6 0h2m7 0h4m1 0h1m5 0h4m3 0h1m1 0h3m4 0h1m1 0h3m6 0h3m1 0h1m1 0h2m2 0h5m3 0h2m5 0h2m1 0h1m1 0h3m4 0h2m2 0h3m1 0h1m7 0h3m1 0h2m1 0h1m1 0h1m4 0h9m1 0h1m2 0h2m1 0h1m1 0h4m6 0h2m2 0h1M4 30.5h3m1 0h1m1 0h2m1 0h3m7 0h1m1 0h3m4 0h2m3 0h2m3 0h2m1 0h2m2 0h1m2 0h1m2 0h1m2 0h2m3 0h2m3 0h1m1 0h1m1 0h1m2 0h1m4 0h1m1 0h4m1 0h3m3 0h1m1 0h2m2 0h2m1 0h2m4 0h3m1 0h1m1 0h1m2 0h2m1 0h1m3 0h1m1 0h2m2 0h1m1 0h1m1 0h1m1 0h2m1 0h1m2 0h1m1 0h2m1 0h1m1 0h2m3 0h1m2 0h1m2 0h2m1 0h1m3 0h1m3 0h2m1 0h2m2 0h1M4 31.5h3m4 0h2m2 0h1m4 0h1m3 0h2m1 0h3m1 0h1m5 0h3m1 0h1m1 0h1m2 0h1m1 0h2m1 0h1m3 0h4m1 0h4m1 0h2m6 0h1m1 0h5m5 0h3m3 0h1m1 0h1m2 0h1m1 0h2m4 0h5m1 0h3m2 0h1m1 0h3m1 0h1m1 0h3m1 0h3m1 0h1m2 0h4m2 0h3m6 0h1m1 0h1m1 0h2m8 0h1m2 0h4m1 0h3m1 0h5M4 32.5h13m1 0h1m4 0h1m1 0h3m1 0h2m1 0h6m1 0h2m1 0h1m2 0h1m1 0h2m1 0h1m3 0h2m2 0h1m1 0h7m5 0h1m4 0h2m2 0h1m2 0h12m1 0h1m1 0h5m1 0h3m1 0h1m1 0h2m1 0h7m4 0h1m1 0h4m1 0h1m6 0h2m1 0h10m3 0h2m3 0h3m1 0h2m1 0h2m1 0h7m3 0h1M5 33.5h2m1 0h1m3 0h5m3 0h1m3 0h1m1 0h1m3 0h3m3 0h4m1 0h5m1 0h2m6 0h2m3 0h1m3 0h1m1 0h1m3 0h2m1 0h1m1 0h1m1 0h5m1 0h1m1 0h1m2 0h1m3 0h1m1 0h1m1 0h2m2 0h2m1 0h1m2 0h3m2 0h3m2 0h1m3 0h3m1 0h1m1 0h1m6 0h2m1 0h4m1 0h1m2 0h1m3 0h1m2 0h2m1 0h3m6 0h2m3 0h1m1 0h1m1 0h1m3 0h2m1 0h2M4 34.5h1m3 0h1m1 0h1m1 0h1m1 0h2m3 0h2m4 0h1m1 0h1m2 0h3m1 0h1m1 0h4m3 0h1m3 0h1m1 0h1m1 0h4m2 0h2m1 0h1m1 0h1m1 0h2m1 0h2m1 0h1m1 0h2m1 0h1m1 0h1m1 0h2m1 0h1m1 0h1m2 0h2m1 0h1m1 0h2m1 0h1m1 0h3m1 0h2m1 0h2m4 0h1m1 0h1m1 0h3m1 0h1m1 0h8m1 0h1m3 0h1m3 0h3m1 0h1m1 0h2m1 0h1m1 0h1m1 0h1m2 0h1m5 0h5m1 0h3m2 0h1m1 0h1m1 0h1m1 0h1m1 0h1M4 35.5h1m2 0h2m3 0h4m1 0h4m3 0h2m1 0h1m2 0h1m1 0h1m3 0h3m1 0h2m3 0h2m1 0h2m2 0h1m2 0h1m2 0h3m3 0h1m2 0h1m3 0h1m1 0h7m5 0h2m1 0h1m3 0h5m2 0h4m4 0h1m3 0h2m3 0h1m3 0h2m6 0h2m5 0h1m1 0h1m3 0h2m1 0h1m3 0h1m3 0h6m1 0h1m1 0h1m1 0h1m2 0h1m4 0h2m3 0h3m1 0h1M4 36.5h3m1 0h5m1 0h2m2 0h1m2 0h3m1 0h1m3 0h9m1 0h1m3 0h3m1 0h5m2 0h1m4 0h6m3 0h2m1 0h2m1 0h3m1 0h1m4 0h1m2 0h1m1 0h5m1 0h1m5 0h1m5 0h2m3 0h2m3 0h6m5 0h2m1 0h1m1 0h1m2 0h1m1 0h1m4 0h1m1 0h5m1 0h5m1 0h1m1 0h1m1 0h4m4 0h1m1 0h7M5 37.5h1m1 0h2m2 0h1m2 0h2m1 0h1m1 0h2m1 0h2m2 0h1m1 0h1m2 0h2m1 0h1m3 0h1m4 0h2m3 0h4m3 0h1m1 0h2m2 0h1m3 0h1m2 0h1m1 0h1m2 0h1m1 0h5m2 0h5m2 0h2m1 0h1m1 0h2m1 0h1m1 0h3m1 0h2m1 0h1m4 0h2m2 0h1m3 0h1m1 0h2m1 0h1m1 0h1m2 0h1m4 0h1m1 0h1m1 0h1m4 0h1m1 0h2m1 0h3m1 0h2m2 0h1m4 0h5m1 0h7m1 0h1m3 0h2M5 38.5h1m4 0h1m2 0h1m4 0h1m4 0h4m4 0h1m1 0h1m2 0h2m2 0h1m5 0h1m5 0h2m2 0h1m1 0h2m1 0h5m1 0h2m1 0h3m2 0h1m4 0h3m1 0h2m1 0h3m1 0h2m4 0h2m1 0h1m1 0h2m1 0h1m1 0h2m1 0h3m1 0h1m1 0h2m2 0h1m2 0h2m2 0h2m5 0h5m5 0h1m5 0h2m1 0h2m5 0h2m1 0h1m2 0h1m5 0h2m2 0h1m1 0h2M5 39.5h1m1 0h1m1 0h1m1 0h3m6 0h1m2 0h1m1 0h1m2 0h1m1 0h1m3 0h1m1 0h3m4 0h4m2 0h1m3 0h1m1 0h4m3 0h1m1 0h4m1 0h1m1 0h1m1 0h1m2 0h4m3 0h1m1 0h4m1 0h2m2 0h1m1 0h1m2 0h1m1 0h4m3 0h3m7 0h1m1 0h2m3 0h2m1 0h6m1 0h1m1 0h1m3 0h2m1 0h4m1 0h1m2 0h4m1 0h1m1 0h3m3 0h2m4 0h4m1 0h1m1 0h3M5 40.5h1m3 0h5m1 0h1m5 0h13m1 0h2m1 0h2m1 0h2m1 0h2m1 0h1m2 0h5m1 0h2m3 0h3m6 0h1m1 0h1m6 0h1m2 0h2m1 0h1m2 0h2m1 0h2m1 0h1m4 0h3m1 0h1m1 0h1m1 0h1m4 0h2m1 0h3m1 0h1m1 0h1m1 0h1m3 0h2m1 0h1m1 0h1m6 0h2m1 0h2m1 0h1m4 0h4m1 0h2m1 0h3m1 0h3m3 0h3m1 0h3m1 0h1m2 0h2M6 41.5h3m2 0h1m3 0h1m3 0h1m4 0h1m1 0h1m5 0h1m2 0h1m1 0h1m1 0h1m4 0h4m1 0h1m2 0h3m1 0h1m2 0h2m2 0h1m1 0h1m2 0h1m2 0h3m2 0h1m3 0h7m2 0h3m1 0h3m1 0h1m1 0h2m2 0h2m1 0h1m2 0h1m5 0h1m2 0h1m3 0h3m1 0h1m6 0h7m3 0h2m3 0h6m2 0h1m2 0h1m3 0h3m2 0h1m2 0h2m6 0h2M4 42.5h1m1 0h1m1 0h4m1 0h1m1 0h1m5 0h1m2 0h5m1 0h1m3 0h1m1 0h4m2 0h1m3 0h1m3 0h3m5 0h2m4 0h1m2 0h2m1 0h3m4 0h1m2 0h1m1 0h1m1 0h2m3 0h2m1 0h1m3 0h3m3 0h2m1 0h1m1 0h6m1 0h3m1 0h1m1 0h3m2 0h1m1 0h1m1 0h1m1 0h8m2 0h2m1 0h2m1 0h2m4 0h2m5 0h1m1 0h2m3 0h1m1 0h1m2 0h2m3 0h3M6 43.5h1m6 0h1m2 0h2m2 0h3m1 0h2m1 0h1m3 0h2m1 0h5m6 0h3m4 0h1m3 0h3m2 0h5m3 0h1m4 0h3m1 0h2m6 0h3m1 0h2m1 0h1m2 0h1m1 0h1m5 0h1m3 0h1m1 0h1m2 0h2m3 0h6m2 0h1m1 0h1m1 0h1m2 0h1m3 0h1m3 0h4m1 0h2m3 0h1m2 0h3m2 0h1m6 0h1m5 0h1m1 0h1m1 0h4M4 44.5h1m3 0h5m1 0h1m1 0h1m2 0h2m1 0h1m2 0h7m1 0h3m1 0h3m1 0h2m6 0h2m2 0h2m1 0h1m4 0h1m3 0h2m1 0h3m3 0h3m2 0h3m1 0h1m1 0h2m2 0h1m1 0h1m1 0h3m1 0h1m1 0h5m2 0h2m1 0h2m1 0h2m14 0h3m1 0h1m6 0h2m1 0h1m3 0h1m2 0h4m2 0h1m1 0h2m1 0h3m1 0h2m1 0h1m1 0h2m1 0h2m2 0h2M4 45.5h3m1 0h1m4 0h1m4 0h1m3 0h1m1 0h1m2 0h1m3 0h1m3 0h2m1 0h2m1 0h4m1 0h1m1 0h2m1 0h1m1 0h6m1 0h1m6 0h1m2 0h7m1 0h1m1 0h1m2 0h2m5 0h1m1 0h1m1 0h1m2 0h1m2 0h1m2 0h2m1 0h1m4 0h2m2 0h4m3 0h1m1 0h1m1 0h1m4 0h1m1 0h2m1 0h3m4 0h6m3 0h3m1 0h3m2 0h1m1 0h3m2 0h1m1 0h3m2 0h1m1 0h3M5 46.5h4m1 0h3m1 0h2m1 0h2m2 0h1m3 0h3m2 0h1m1 0h5m1 0h1m3 0h2m3 0h1m1 0h1m2 0h1m4 0h3m2 0h1m1 0h2m1 0h2m1 0h1m1 0h1m1 0h1m4 0h4m2 0h1m1 0h1m1 0h5m1 0h2m1 0h2m2 0h2m3 0h4m2 0h3m2 0h6m1 0h1m1 0h1m8 0h3m1 0h1m3 0h1m4 0h1m8 0h1m1 0h1m2 0h1m6 0h1m1 0h2m3 0h3M6 47.5h4m1 0h1m3 0h1m3 0h1m2 0h1m1 0h1m1 0h2m1 0h1m1 0h1m1 0h4m1 0h1m7 0h1m2 0h1m1 0h1m1 0h1m2 0h1m1 0h1m2 0h3m1 0h3m3 0h1m1 0h1m2 0h4m3 0h1m1 0h4m7 0h1m4 0h5m2 0h3m2 0h1m2 0h1m1 0h1m1 0h1m3 0h1m3 0h1m1 0h3m5 0h1m1 0h1m3 0h4m4 0h3m2 0h1m1 0h2m4 0h3m4 0h1m1 0h2m1 0h2m1 0h1M4 48.5h2m1 0h1m2 0h2m4 0h4m2 0h1m6 0h1m1 0h1m1 0h2m3 0h1m3 0h1m2 0h1m1 0h1m2 0h1m5 0h2m2 0h1m1 0h1m1 0h1m2 0h1m1 0h3m1 0h1m2 0h1m2 0h1m2 0h1m5 0h1m2 0h3m6 0h1m1 0h2m2 0h1m4 0h3m5 0h1m1 0h1m1 0h1m1 0h1m1 0h2m1 0h4m1 0h1m3 0h2m1 0h1m1 0h1m1 0h2m2 0h2m6 0h3m1 0h1m5 0h3m2 0h1m1 0h2m2 0h2M4 49.5h1m2 0h3m4 0h1m1 0h1m1 0h1m1 0h2m6 0h2m4 0h4m3 0h1m1 0h2m3 0h1m1 0h2m1 0h4m1 0h2m3 0h3m1 0h4m1 0h5m1 0h9m3 0h1m1 0h4m1 0h1m1 0h3m2 0h1m1 0h2m1 0h1m1 0h2m2 0h3m1 0h1m1 0h2m1 0h1m1 0h2m1 0h1m3 0h2m1 0h4m3 0h1m1 0h1m1 0h2m1 0h4m1 0h3m4 0h1m1 0h2m2 0h1m2 0h3m1 0h1m1 0h2m1 0h1M6 50.5h5m1 0h1m2 0h3m1 0h1m1 0h1m2 0h5m2 0h2m7 0h2m1 0h1m1 0h2m4 0h3m5 0h1m1 0h4m3 0h1m1 0h1m1 0h2m1 0h1m3 0h2m1 0h2m1 0h1m1 0h3m2 0h1m2 0h4m2 0h2m1 0h2m1 0h1m1 0h2m3 0h3m1 0h5m1 0h1m3 0h1m1 0h2m1 0h2m2 0h1m2 0h2m3 0h1m1 0h2m5 0h2m2 0h3m2 0h1m1 0h1m6 0h2m1 0h1m1 0h2M4 51.5h2m1 0h3m9 0h1m3 0h1m1 0h1m1 0h1m1 0h2m2 0h1m1 0h5m1 0h1m4 0h1m8 0h1m2 0h1m3 0h1m1 0h3m2 0h1m1 0h1m1 0h2m1 0h1m1 0h1m2 0h3m2 0h4m1 0h1m1 0h1m2 0h1m1 0h1m2 0h6m1 0h1m9 0h1m1 0h2m5 0h1m2 0h4m1 0h1m4 0h1m1 0h1m1 0h1m1 0h1m1 0h2m1 0h1m1 0h3m1 0h1m2 0h1m2 0h1m2 0h2m1 0h1m1 0h4m1 0h1m1 0h1M4 52.5h1m2 0h2m1 0h2m3 0h3m4 0h2m1 0h4m2 0h3m2 0h3m5 0h1m3 0h1m1 0h1m3 0h3m3 0h2m1 0h1m4 0h1m2 0h1m1 0h1m3 0h2m2 0h1m4 0h1m1 0h1m4 0h2m2 0h2m1 0h1m1 0h2m1 0h2m2 0h1m1 0h3m2 0h2m3 0h1m1 0h3m2 0h1m1 0h1m1 0h2m8 0h2m2 0h2m1 0h1m2 0h3m3 0h3m1 0h1m1 0h1m3 0h1m1 0h1m1 0h1m3 0h1m2 0h1M4 53.5h1m3 0h1m2 0h4m1 0h2m3 0h3m4 0h3m1 0h3m1 0h3m1 0h1m1 0h1m1 0h1m3 0h1m4 0h2m1 0h2m1 0h1m5 0h3m1 0h1m2 0h3m2 0h1m1 0h2m1 0h4m1 0h2m1 0h1m1 0h3m4 0h3m2 0h1m1 0h2m1 0h1m1 0h1m3 0h2m2 0h1m1 0h4m1 0h2m3 0h1m1 0h4m1 0h1m2 0h1m1 0h6m1 0h3m1 0h1m4 0h1m1 0h2m1 0h1m1 0h3m1 0h2m1 0h1m1 0h1m4 0h1M4 54.5h1m3 0h4m1 0h3m2 0h1m2 0h2m5 0h1m1 0h1m1 0h3m1 0h1m4 0h3m1 0h2m3 0h3m1 0h2m4 0h1m2 0h3m2 0h1m1 0h1m1 0h2m1 0h2m2 0h4m1 0h2m1 0h2m1 0h3m4 0h2m3 0h1m4 0h4m1 0h4m2 0h2m1 0h8m1 0h4m3 0h3m5 0h1m2 0h1m2 0h1m3 0h1m1 0h1m1 0h3m1 0h1m1 0h2m2 0h1m2 0h1m2 0h1m2 0h1M4 55.5h1m1 0h1m1 0h1m6 0h1m1 0h7m4 0h1m2 0h2m2 0h1m1 0h1m1 0h3m4 0h3m8 0h2m1 0h2m1 0h1m2 0h1m2 0h1m4 0h6m6 0h2m1 0h2m2 0h1m1 0h2m1 0h1m2 0h2m1 0h2m2 0h4m1 0h1m1 0h1m1 0h2m3 0h2m4 0h3m1 0h4m1 0h1m4 0h1m1 0h3m5 0h1m1 0h1m4 0h2m5 0h3m3 0h5m1 0h1m1 0h1M4 56.5h1m3 0h5m1 0h2m1 0h4m1 0h1m2 0h2m1 0h1m1 0h2m1 0h1m1 0h1m1 0h1m1 0h1m2 0h3m4 0h3m1 0h2m1 0h1m3 0h1m4 0h1m1 0h5m2 0h1m1 0h2m1 0h1m2 0h3m6 0h1m2 0h1m2 0h1m1 0h2m1 0h2m2 0h2m3 0h3m2 0h2m1 0h1m1 0h1m3 0h1m2 0h1m1 0h2m5 0h1m1 0h2m1 0h2m1 0h1m1 0h1m2 0h3m2 0h4m1 0h6m2 0h1m2 0h3m1 0h1M4 57.5h2m1 0h1m5 0h1m2 0h2m2 0h1m1 0h1m2 0h3m1 0h3m4 0h3m2 0h5m2 0h1m2 0h1m1 0h1m3 0h2m2 0h1m6 0h3m1 0h1m2 0h1m1 0h1m2 0h1m1 0h1m2 0h6m1 0h3m6 0h1m2 0h3m5 0h1m2 0h1m1 0h2m1 0h1m1 0h1m1 0h3m4 0h1m1 0h2m1 0h2m5 0h1m4 0h7m1 0h1m1 0h2m3 0h1m1 0h1m2 0h1m1 0h2m2 0h1m5 0h1M4 58.5h4m1 0h3m3 0h2m4 0h1m2 0h1m6 0h1m3 0h1m4 0h1m8 0h1m2 0h2m4 0h2m1 0h5m2 0h1m1 0h1m1 0h2m6 0h1m1 0h1m4 0h2m3 0h1m1 0h2m1 0h1m1 0h1m2 0h1m4 0h1m1 0h3m2 0h1m1 0h1m2 0h3m5 0h1m2 0h1m3 0h3m1 0h2m1 0h1m2 0h2m1 0h5m2 0h2m2 0h1m1 0h1m5 0h2m5 0h1m1 0h1m1 0h1m1 0h1M6 59.5h2m1 0h1m4 0h2m1 0h3m2 0h6m6 0h4m3 0h1m2 0h1m1 0h1m2 0h1m2 0h1m4 0h2m1 0h7m4 0h1m2 0h6m1 0h1m1 0h6m2 0h1m1 0h1m2 0h1m1 0h1m3 0h1m1 0h2m2 0h1m4 0h2m1 0h1m1 0h1m1 0h1m2 0h1m2 0h2m3 0h3m1 0h2m3 0h2m2 0h3m6 0h2m5 0h1m4 0h2m2 0h1m1 0h2m1 0h1m1 0h3m1 0h1M4 60.5h1m1 0h11m3 0h1m1 0h1m2 0h1m1 0h3m1 0h6m3 0h2m7 0h4m1 0h3m3 0h5m1 0h2m1 0h1m1 0h1m1 0h2m1 0h4m1 0h1m2 0h1m1 0h1m1 0h5m1 0h1m2 0h1m1 0h2m2 0h1m2 0h1m2 0h1m2 0h2m2 0h6m5 0h2m1 0h1m1 0h2m5 0h4m1 0h5m1 0h2m3 0h2m1 0h2m2 0h1m1 0h1m1 0h1m1 0h3m1 0h5m1 0h3M5 61.5h2m1 0h1m3 0h1m1 0h2m1 0h7m2 0h1m1 0h5m3 0h9m2 0h3m1 0h1m2 0h3m2 0h2m3 0h1m3 0h1m6 0h1m3 0h1m1 0h1m1 0h3m2 0h1m3 0h4m3 0h1m5 0h3m3 0h3m1 0h2m3 0h1m1 0h3m1 0h1m2 0h1m1 0h1m1 0h4m1 0h2m4 0h1m3 0h2m2 0h2m2 0h3m3 0h1m1 0h2m2 0h1m2 0h2m3 0h3m1 0h1M5 62.5h1m2 0h1m1 0h1m1 0h1m3 0h3m1 0h1m1 0h2m3 0h1m1 0h1m1 0h2m1 0h1m1 0h2m1 0h3m1 0h1m1 0h2m2 0h1m2 0h4m2 0h1m1 0h1m1 0h1m1 0h2m1 0h4m1 0h2m1 0h2m3 0h1m1 0h1m1 0h1m3 0h1m1 0h1m1 0h4m1 0h3m2 0h1m1 0h2m2 0h1m1 0h3m1 0h3m1 0h1m1 0h1m1 0h1m1 0h2m3 0h1m3 0h1m1 0h1m1 0h1m1 0h1m1 0h1m1 0h2m1 0h1m1 0h1m2 0h1m2 0h2m4 0h2m1 0h1m2 0h2m3 0h2m1 0h1m1 0h4M4 63.5h1m3 0h1m3 0h1m2 0h3m1 0h1m1 0h3m1 0h1m1 0h1m2 0h3m3 0h2m2 0h2m1 0h1m1 0h2m1 0h2m3 0h1m1 0h6m3 0h2m1 0h1m6 0h1m1 0h4m1 0h1m3 0h2m1 0h1m3 0h2m1 0h4m2 0h1m1 0h1m1 0h1m2 0h1m1 0h1m4 0h2m3 0h2m7 0h1m1 0h7m1 0h2m3 0h1m3 0h2m1 0h1m2 0h1m1 0h2m1 0h2m2 0h1m1 0h3m1 0h1m2 0h1m3 0h1m1 0h3M7 64.5h11m2 0h4m1 0h1m4 0h1m1 0h9m1 0h3m4 0h2m1 0h1m1 0h2m3 0h8m1 0h1m1 0h1m4 0h3m1 0h1m5 0h2m1 0h5m1 0h1m2 0h2m1 0h2m3 0h2m2 0h1m2 0h9m7 0h1m1 0h1m1 0h1m7 0h1m1 0h1m1 0h5m1 0h1m1 0h2m1 0h4m3 0h3m1 0h1m1 0h3m1 0h5m3 0h1M12 65.5h1m2 0h2m3 0h4m2 0h1m1 0h3m1 0h3m1 0h1m1 0h1m1 0h3m1 0h2m1 0h1m2 0h2m1 0h1m1 0h2m1 0h1m3 0h2m1 0h4m2 0h2m1 0h1m1 0h1m1 0h1m1 0h1m1 0h1m1 0h2m1 0h1m6 0h2m1 0h1m5 0h2m1 0h3m3 0h1m3 0h1m5 0h1m1 0h1m1 0h2m5 0h2m1 0h4m1 0h1m1 0h1m2 0h1m2 0h1m2 0h1m2 0h1m5 0h6m1 0h2m1 0h1m1 0h2m1 0h5M5 66.5h1m1 0h1m2 0h1m3 0h2m2 0h1m3 0h3m2 0h2m1 0h1m2 0h4m4 0h1m1 0h1m3 0h1m1 0h1m1 0h3m1 0h1m3 0h1m1 0h1m1 0h1m1 0h1m1 0h1m2 0h3m2 0h1m3 0h4m1 0h2m2 0h1m1 0h2m1 0h1m3 0h6m1 0h1m2 0h4m1 0h1m1 0h3m1 0h2m1 0h1m3 0h2m1 0h2m1 0h1m1 0h1m1 0h1m2 0h1m2 0h1m2 0h2m2 0h2m1 0h1m3 0h1m1 0h1m1 0h2m2 0h1m1 0h2m2 0h5m1 0h1m1 0h3M5 67.5h1m6 0h7m4 0h2m2 0h1m3 0h1m1 0h3m3 0h1m4 0h2m3 0h1m3 0h1m4 0h1m3 0h5m1 0h1m4 0h4m1 0h2m3 0h1m2 0h3m2 0h1m1 0h1m1 0h1m1 0h2m2 0h2m1 0h1m1 0h1m1 0h1m1 0h1m2 0h2m2 0h1m1 0h1m1 0h2m1 0h1m2 0h2m1 0h1m1 0h2m1 0h2m2 0h2m1 0h1m1 0h2m7 0h3m4 0h2m1 0h1m2 0h2m1 0h1m7 0h2m1 0h1M5 68.5h3m1 0h2m1 0h2m1 0h1m3 0h5m2 0h3m3 0h2m1 0h1m2 0h1m1 0h1m1 0h3m1 0h6m2 0h1m2 0h1m1 0h3m2 0h7m3 0h2m5 0h2m2 0h1m2 0h1m1 0h1m3 0h2m1 0h4m4 0h2m2 0h1m2 0h1m4 0h4m2 0h1m1 0h1m2 0h3m1 0h2m3 0h1m2 0h4m2 0h3m1 0h1m2 0h1m5 0h1m1 0h1m1 0h2m2 0h6m1 0h1m4 0h2M4 69.5h2m5 0h2m3 0h3m1 0h1m2 0h3m1 0h2m1 0h1m4 0h1m2 0h1m3 0h1m1 0h2m2 0h1m1 0h1m4 0h5m2 0h2m4 0h1m1 0h1m1 0h1m3 0h2m1 0h1m1 0h4m2 0h1m3 0h1m1 0h2m1 0h1m4 0h1m4 0h1m4 0h3m1 0h2m2 0h1m1 0h2m1 0h2m1 0h1m3 0h1m1 0h2m1 0h1m2 0h1m11 0h2m2 0h2m1 0h1m2 0h6m1 0h2m2 0h1m1 0h1m1 0h2m2 0h1M5 70.5h2m3 0h1m2 0h1m1 0h2m1 0h2m1 0h1m1 0h1m2 0h1m1 0h2m3 0h2m2 0h1m1 0h3m4 0h1m5 0h2m4 0h1m2 0h1m1 0h3m1 0h2m1 0h1m1 0h2m8 0h1m1 0h2m2 0h1m1 0h1m1 0h1m1 0h6m2 0h3m2 0h1m3 0h2m1 0h3m5 0h1m1 0h2m1 0h1m1 0h1m1 0h2m1 0h4m2 0h1m1 0h5m1 0h4m2 0h1m2 0h1m1 0h2m4 0h2m4 0h1m1 0h1M5 71.5h2m2 0h1m4 0h4m1 0h1m2 0h1m1 0h5m1 0h1m2 0h1m2 0h3m2 0h1m1 0h1m1 0h3m4 0h1m3 0h1m1 0h3m1 0h4m3 0h1m4 0h1m1 0h3m2 0h1m4 0h2m1 0h2m3 0h2m2 0h1m2 0h6m1 0h1m4 0h1m1 0h1m1 0h1m2 0h2m1 0h1m2 0h1m1 0h3m1 0h3m2 0h3m4 0h1m2 0h2m3 0h1m1 0h4m1 0h3m1 0h1m2 0h1m2 0h1m1 0h1m1 0h1m3 0h3M5 72.5h1m4 0h1m1 0h2m2 0h2m1 0h1m6 0h1m5 0h1m1 0h1m1 0h1m1 0h1m3 0h1m1 0h1m1 0h1m2 0h5m1 0h1m4 0h2m1 0h4m2 0h2m4 0h2m1 0h2m1 0h1m2 0h3m1 0h2m4 0h2m1 0h5m1 0h1m1 0h2m3 0h6m2 0h1m1 0h1m4 0h1m1 0h4m1 0h1m2 0h1m1 0h1m2 0h1m1 0h2m1 0h2m1 0h1m1 0h2m3 0h1m2 0h1m3 0h1m7 0h1m1 0h4m1 0h1m1 0h2M4 73.5h3m1 0h1m3 0h2m2 0h1m4 0h2m3 0h1m3 0h2m1 0h1m2 0h3m2 0h4m1 0h1m1 0h1m1 0h2m1 0h2m1 0h1m6 0h1m1 0h2m1 0h3m1 0h2m3 0h1m2 0h1m2 0h1m3 0h1m3 0h1m2 0h1m1 0h1m1 0h3m2 0h1m2 0h1m1 0h1m7 0h2m6 0h1m1 0h1m2 0h1m1 0h1m2 0h3m1 0h2m3 0h1m1 0h3m1 0h1m2 0h3m4 0h1m1 0h2m1 0h1m1 0h3m1 0h1m4 0h3m2 0h1M4 74.5h1m3 0h1m1 0h1m3 0h1m1 0h3m3 0h2m1 0h2m1 0h1m2 0h2m1 0h1m1 0h1m2 0h1m3 0h1m6 0h6m1 0h3m7 0h2m1 0h3m2 0h1m3 0h2m1 0h1m1 0h2m2 0h5m2 0h3m4 0h1m5 0h4m2 0h1m1 0h3m1 0h1m1 0h1m3 0h2m1 0h1m4 0h5m1 0h1m3 0h3m1 0h2m4 0h2m4 0h1m4 0h1m3 0h1m2 0h1m1 0h1m3 0h2M6 75.5h1m2 0h1m2 0h3m2 0h1m5 0h1m3 0h2m1 0h1m1 0h1m1 0h1m1 0h2m3 0h1m3 0h5m2 0h2m1 0h1m2 0h10m1 0h1m4 0h1m1 0h1m1 0h1m2 0h1m1 0h1m1 0h10m2 0h1m4 0h3m1 0h1m1 0h3m2 0h1m1 0h1m3 0h1m1 0h1m1 0h1m1 0h1m2 0h1m1 0h1m1 0h5m5 0h1m1 0h1m4 0h1m4 0h4m2 0h1m2 0h7m3 0h1m1 0h1m2 0h1m1 0h1M9 76.5h2m1 0h1m1 0h4m2 0h1m1 0h2m2 0h1m2 0h1m5 0h2m1 0h1m3 0h3m4 0h2m3 0h1m1 0h1m2 0h4m1 0h2m1 0h4m1 0h1m2 0h2m2 0h3m6 0h1m1 0h2m1 0h3m1 0h4m6 0h1m2 0h1m1 0h1m4 0h2m1 0h1m2 0h1m1 0h1m1 0h2m1 0h1m1 0h1m4 0h1m4 0h1m2 0h2m1 0h3m1 0h1m2 0h5m1 0h2m1 0h1m3 0h1m1 0h5m1 0h2m1 0h2M5 77.5h3m4 0h1m2 0h2m2 0h1m1 0h1m2 0h1m1 0h1m6 0h1m3 0h3m1 0h2m1 0h2m1 0h2m1 0h3m1 0h3m2 0h1m8 0h1m2 0h1m2 0h2m1 0h1m4 0h4m8 0h1m2 0h1m2 0h1m3 0h6m1 0h3m1 0h3m3 0h6m2 0h1m1 0h1m1 0h4m1 0h1m4 0h1m5 0h4m1 0h1m1 0h2m6 0h5m1 0h2m4 0h1m2 0h1M5 78.5h3m2 0h1m1 0h1m2 0h1m2 0h1m1 0h3m1 0h1m3 0h1m1 0h1m1 0h1m1 0h1m1 0h5m8 0h4m1 0h2m2 0h3m4 0h1m2 0h1m1 0h2m7 0h7m2 0h6m1 0h5m2 0h2m6 0h3m1 0h1m1 0h2m1 0h1m1 0h2m1 0h1m1 0h3m3 0h1m6 0h1m3 0h1m1 0h1m1 0h2m4 0h3m1 0h1m2 0h2m1 0h1m2 0h1m2 0h1m2 0h3m3 0h2M12 79.5h5m1 0h2m1 0h1m3 0h2m3 0h2m1 0h1m2 0h1m1 0h4m1 0h1m2 0h2m1 0h1m2 0h2m1 0h2m1 0h1m5 0h1m2 0h1m3 0h1m1 0h2m1 0h1m1 0h1m2 0h1m3 0h2m1 0h1m3 0h3m1 0h1m1 0h1m1 0h6m1 0h2m1 0h2m1 0h1m1 0h1m2 0h2m3 0h4m1 0h1m1 0h4m1 0h1m1 0h2m1 0h5m2 0h1m1 0h1m1 0h2m1 0h1m1 0h2m1 0h2m5 0h1m4 0h1m6 0h3M4 80.5h2m3 0h2m1 0h1m2 0h1m2 0h1m1 0h2m1 0h2m2 0h1m2 0h1m1 0h2m2 0h1m1 0h1m3 0h1m7 0h2m1 0h5m2 0h8m6 0h1m3 0h2m3 0h1m1 0h2m2 0h3m1 0h3m1 0h4m5 0h1m2 0h1m2 0h4m1 0h2m1 0h1m2 0h1m4 0h3m1 0h1m7 0h1m1 0h1m2 0h3m2 0h1m2 0h1m3 0h3m1 0h2m2 0h1m1 0h6m1 0h3m3 0h1M6 81.5h2m1 0h1m3 0h4m1 0h1m8 0h3m3 0h6m2 0h5m5 0h1m2 0h1m1 0h2m4 0h1m2 0h1m2 0h1m1 0h3m2 0h1m4 0h1m1 0h1m3 0h1m1 0h1m2 0h1m2 0h2m4 0h2m1 0h1m1 0h4m2 0h1m3 0h2m4 0h4m1 0h2m3 0h1m1 0h1m2 0h4m3 0h2m4 0h1m2 0h1m2 0h2m2 0h7m1 0h3m4 0h5m1 0h1M4 82.5h1m1 0h5m1 0h2m1 0h1m2 0h1m2 0h4m1 0h1m2 0h1m1 0h2m1 0h1m1 0h4m2 0h2m3 0h1m1 0h1m1 0h2m1 0h2m1 0h3m1 0h1m3 0h1m1 0h2m1 0h3m2 0h1m3 0h4m1 0h2m1 0h6m4 0h1m1 0h1m4 0h1m3 0h3m3 0h1m1 0h4m2 0h1m1 0h2m3 0h2m1 0h9m3 0h2m2 0h2m1 0h1m1 0h1m5 0h2m2 0h1m2 0h2m1 0h2m3 0h1m3 0h2M4 83.5h2m1 0h1m8 0h3m4 0h3m1 0h2m2 0h2m1 0h4m2 0h2m3 0h2m1 0h2m2 0h1m2 0h1m1 0h2m1 0h1m1 0h4m3 0h1m1 0h1m1 0h2m1 0h1m1 0h1m2 0h1m4 0h1m2 0h1m1 0h3m2 0h3m3 0h1m1 0h3m1 0h1m1 0h1m2 0h1m3 0h3m3 0h1m1 0h2m3 0h2m1 0h3m2 0h7m6 0h1m2 0h2m1 0h1m1 0h2m5 0h1m2 0h1m5 0h4m1 0h1M4 84.5h1m3 0h1m1 0h1m4 0h2m2 0h2m5 0h1m7 0h1m3 0h1m1 0h3m2 0h1m2 0h4m2 0h1m1 0h2m2 0h1m1 0h2m1 0h1m1 0h3m4 0h1m1 0h1m1 0h1m1 0h1m2 0h1m4 0h2m1 0h1m2 0h1m5 0h3m9 0h1m5 0h4m3 0h1m1 0h6m2 0h1m1 0h1m1 0h4m2 0h2m1 0h1m1 0h1m1 0h1m2 0h2m1 0h1m2 0h3m3 0h2m1 0h3m1 0h1m1 0h1m2 0h2M4 85.5h2m1 0h1m3 0h4m1 0h1m2 0h2m3 0h3m3 0h1m2 0h3m1 0h1m1 0h1m1 0h4m3 0h3m2 0h2m1 0h3m2 0h1m1 0h1m1 0h1m2 0h1m1 0h2m1 0h1m1 0h8m2 0h1m1 0h1m5 0h2m5 0h1m2 0h1m1 0h3m1 0h1m2 0h1m2 0h1m5 0h4m1 0h2m2 0h1m4 0h2m1 0h2m1 0h1m3 0h1m5 0h2m1 0h1m2 0h1m4 0h4m2 0h1m1 0h1m1 0h1m2 0h1m2 0h1m1 0h1M4 86.5h2m1 0h1m1 0h4m2 0h2m1 0h1m1 0h2m2 0h1m1 0h2m1 0h2m1 0h1m1 0h1m1 0h1m3 0h2m3 0h1m5 0h3m1 0h1m1 0h1m1 0h1m1 0h1m3 0h1m2 0h1m1 0h1m1 0h2m3 0h1m1 0h2m1 0h1m1 0h1m2 0h6m2 0h2m1 0h1m1 0h4m3 0h4m3 0h3m1 0h3m1 0h1m1 0h2m3 0h1m1 0h1m2 0h2m1 0h4m1 0h4m1 0h2m1 0h2m1 0h3m4 0h4m2 0h2m3 0h2M4 87.5h2m2 0h2m1 0h3m1 0h4m1 0h3m3 0h2m5 0h1m1 0h2m1 0h1m4 0h2m1 0h2m1 0h1m1 0h3m1 0h2m1 0h1m1 0h1m1 0h1m1 0h2m1 0h1m3 0h1m2 0h1m1 0h1m1 0h1m2 0h1m4 0h1m4 0h2m6 0h2m1 0h1m1 0h1m1 0h5m2 0h1m1 0h1m1 0h1m3 0h1m1 0h2m1 0h1m3 0h1m1 0h1m1 0h1m5 0h2m2 0h1m3 0h2m2 0h3m4 0h3m3 0h2m2 0h1m5 0h1m2 0h2M7 88.5h9m1 0h1m3 0h1m2 0h2m4 0h9m1 0h3m1 0h1m4 0h4m2 0h3m2 0h5m3 0h2m2 0h4m5 0h3m1 0h1m1 0h6m2 0h2m2 0h3m4 0h2m4 0h2m2 0h5m6 0h4m1 0h1m2 0h1m1 0h1m2 0h1m1 0h1m1 0h5m1 0h2m3 0h3m4 0h15m2 0h1M4 89.5h2m1 0h2m3 0h1m1 0h2m1 0h2m1 0h4m1 0h2m1 0h1m2 0h2m3 0h2m1 0h1m2 0h3m1 0h11m1 0h3m3 0h1m1 0h5m3 0h1m1 0h5m1 0h1m2 0h4m3 0h1m1 0h1m1 0h2m1 0h2m2 0h2m1 0h1m2 0h1m1 0h2m2 0h2m3 0h1m1 0h3m1 0h2m1 0h1m4 0h5m5 0h1m3 0h2m2 0h1m1 0h1m1 0h3m1 0h3m1 0h2m1 0h2m1 0h1m1 0h1m3 0h1m1 0h1m1 0h1M8 90.5h1m1 0h1m1 0h2m1 0h1m2 0h1m1 0h1m1 0h1m2 0h1m2 0h1m3 0h1m1 0h1m1 0h1m2 0h1m5 0h2m5 0h1m1 0h1m2 0h1m2 0h1m1 0h1m1 0h1m3 0h1m1 0h1m1 0h2m1 0h1m5 0h2m1 0h2m1 0h2m1 0h1m1 0h1m2 0h2m1 0h1m1 0h1m1 0h2m3 0h1m1 0h6m1 0h1m1 0h1m1 0h1m3 0h1m1 0h1m2 0h1m4 0h1m1 0h2m1 0h1m1 0h1m2 0h1m1 0h1m1 0h2m1 0h1m1 0h2m4 0h5m1 0h1m6 0h1m1 0h1m1 0h1M6 91.5h1m1 0h1m3 0h1m1 0h2m1 0h1m2 0h1m2 0h1m2 0h1m1 0h1m2 0h2m3 0h1m1 0h1m2 0h1m4 0h4m1 0h2m3 0h1m1 0h1m1 0h1m3 0h4m6 0h1m1 0h1m1 0h1m2 0h2m2 0h4m3 0h2m2 0h1m2 0h1m3 0h3m1 0h2m4 0h2m1 0h1m3 0h2m1 0h1m1 0h2m3 0h1m2 0h1m1 0h2m4 0h1m1 0h2m3 0h1m2 0h1m2 0h1m2 0h1m1 0h2m4 0h2m2 0h1m2 0h1m3 0h1m1 0h2M5 92.5h1m2 0h7m1 0h2m2 0h3m1 0h2m1 0h1m1 0h1m1 0h7m1 0h3m2 0h1m2 0h4m1 0h1m1 0h3m2 0h11m1 0h1m2 0h1m1 0h1m1 0h3m1 0h2m4 0h7m3 0h1m1 0h4m2 0h1m2 0h1m1 0h2m1 0h8m1 0h1m1 0h1m2 0h5m2 0h1m3 0h2m1 0h1m1 0h9m3 0h4m2 0h2m3 0h2m1 0h7M5 93.5h1m1 0h2m2 0h1m4 0h4m1 0h2m1 0h3m1 0h3m1 0h2m2 0h1m4 0h1m1 0h1m4 0h3m3 0h1m1 0h2m1 0h1m1 0h2m3 0h2m3 0h1m1 0h1m1 0h1m1 0h1m2 0h1m5 0h1m1 0h2m4 0h1m1 0h1m2 0h2m3 0h1m1 0h1m1 0h2m2 0h1m3 0h1m1 0h2m2 0h3m1 0h2m1 0h1m3 0h2m1 0h1m1 0h1m2 0h1m4 0h2m2 0h4m2 0h1m1 0h3m2 0h2m3 0h1m3 0h1m1 0h1m1 0h2m2 0h1M5 94.5h1m2 0h1m1 0h1m1 0h1m1 0h1m3 0h4m1 0h1m1 0h1m1 0h2m1 0h4m1 0h1m1 0h2m2 0h1m2 0h3m5 0h1m1 0h2m2 0h1m3 0h2m1 0h1m3 0h1m1 0h1m1 0h1m2 0h1m2 0h2m1 0h4m5 0h3m3 0h3m1 0h3m5 0h2m3 0h2m3 0h1m1 0h1m2 0h3m6 0h2m1 0h1m1 0h1m2 0h4m1 0h2m3 0h1m1 0h3m1 0h1m1 0h3m1 0h1m2 0h1m2 0h1m1 0h1m2 0h3m1 0h1M5 95.5h3m1 0h1m1 0h2m1 0h4m1 0h3m1 0h1m1 0h1m2 0h1m6 0h4m4 0h2m1 0h1m1 0h1m3 0h2m1 0h1m2 0h1m1 0h1m4 0h1m4 0h2m1 0h4m1 0h2m6 0h1m1 0h1m1 0h1m1 0h1m3 0h2m1 0h1m3 0h6m2 0h1m2 0h1m1 0h3m2 0h4m1 0h1m3 0h6m1 0h1m2 0h3m2 0h1m2 0h1m5 0h4m1 0h3m1 0h4m1 0h1m3 0h1m4 0h3M6 96.5h1m3 0h1m1 0h1m2 0h1m1 0h2m1 0h4m1 0h3m1 0h1m3 0h2m4 0h4m1 0h2m2 0h3m2 0h1m2 0h2m1 0h1m1 0h1m2 0h1m2 0h1m2 0h1m1 0h1m3 0h1m2 0h1m2 0h1m2 0h4m1 0h3m1 0h2m1 0h2m1 0h2m1 0h1m1 0h2m5 0h2m3 0h5m5 0h4m1 0h1m6 0h2m1 0h4m4 0h4m2 0h1m1 0h2m2 0h1m2 0h1m3 0h2m2 0h1m2 0h1m3 0h1M4 97.5h1m1 0h1m2 0h1m3 0h4m3 0h1m2 0h3m2 0h2m1 0h3m1 0h1m1 0h1m1 0h2m1 0h1m1 0h2m1 0h2m1 0h1m2 0h1m2 0h2m1 0h2m7 0h1m1 0h3m2 0h1m1 0h1m2 0h5m4 0h1m1 0h1m2 0h1m2 0h1m2 0h1m5 0h4m1 0h2m2 0h2m1 0h2m1 0h2m1 0h4m3 0h1m2 0h1m1 0h1m1 0h1m4 0h1m1 0h2m1 0h2m2 0h2m2 0h1m1 0h2m4 0h2m2 0h1m2 0h3m3 0h4M4 98.5h1m2 0h2m1 0h2m2 0h2m1 0h1m1 0h2m1 0h2m1 0h3m8 0h2m5 0h1m2 0h1m4 0h5m3 0h2m1 0h1m1 0h1m2 0h2m1 0h4m1 0h1m4 0h1m1 0h4m1 0h2m2 0h2m3 0h4m2 0h4m2 0h4m2 0h4m1 0h1m1 0h1m1 0h2m2 0h5m3 0h2m1 0h4m1 0h2m1 0h2m3 0h1m2 0h1m2 0h1m2 0h1m1 0h1m2 0h2m2 0h1m1 0h3m2 0h3M4 99.5h1m1 0h4m5 0h1m5 0h3m1 0h4m1 0h2m1 0h1m2 0h1m2 0h1m1 0h1m1 0h2m1 0h2m7 0h1m1 0h3m1 0h1m1 0h1m2 0h1m4 0h1m1 0h2m1 0h2m1 0h1m1 0h1m1 0h1m1 0h2m1 0h1m1 0h1m2 0h1m1 0h2m2 0h1m1 0h1m1 0h3m2 0h1m4 0h3m1 0h1m1 0h1m2 0h1m2 0h3m1 0h2m2 0h1m4 0h2m1 0h2m1 0h5m2 0h2m1 0h2m3 0h1m3 0h4m1 0h1m9 0h1M4 100.5h1m2 0h1m2 0h4m1 0h4m1 0h1m6 0h2m1 0h1m4 0h2m2 0h2m1 0h1m1 0h1m7 0h1m1 0h1m1 0h2m4 0h3m1 0h1m1 0h3m1 0h1m3 0h3m2 0h1m1 0h1m2 0h3m1 0h4m1 0h1m2 0h1m1 0h2m8 0h3m1 0h1m1 0h1m1 0h1m5 0h2m1 0h4m1 0h2m5 0h4m2 0h1m1 0h1m2 0h2m1 0h1m3 0h1m3 0h2m1 0h7m1 0h1m4 0h1m1 0h2M13 101.5h1m2 0h1m2 0h2m2 0h6m2 0h1m1 0h1m3 0h1m3 0h1m1 0h1m1 0h1m2 0h1m1 0h1m2 0h1m1 0h3m1 0h1m1 0h2m1 0h2m4 0h6m6 0h5m6 0h2m2 0h1m2 0h1m2 0h1m2 0h1m2 0h1m2 0h1m3 0h3m1 0h8m1 0h1m1 0h1m1 0h4m1 0h2m2 0h5m2 0h1m2 0h1m3 0h1m5 0h1m1 0h2m2 0h5m1 0h2m1 0h2m1 0h1M4 102.5h4m2 0h3m2 0h1m1 0h2m1 0h3m1 0h1m1 0h3m1 0h2m1 0h2m3 0h2m1 0h1m3 0h3m4 0h3m3 0h3m2 0h1m1 0h1m1 0h7m1 0h1m1 0h1m1 0h2m1 0h1m1 0h1m1 0h1m2 0h1m2 0h1m3 0h1m1 0h2m2 0h1m1 0h1m3 0h3m3 0h3m4 0h2m1 0h1m1 0h1m2 0h1m2 0h4m2 0h1m1 0h1m2 0h1m1 0h2m3 0h2m1 0h2m2 0h2m1 0h1m5 0h1m4 0h1m2 0h4M5 103.5h1m3 0h1m1 0h2m5 0h2m3 0h3m2 0h2m3 0h1m1 0h2m1 0h1m4 0h7m2 0h2m1 0h1m2 0h4m1 0h5m5 0h2m1 0h4m1 0h1m3 0h1m2 0h1m1 0h3m1 0h1m1 0h1m4 0h1m2 0h1m3 0h1m1 0h2m2 0h2m1 0h1m1 0h1m3 0h1m9 0h1m3 0h1m1 0h2m1 0h1m1 0h3m1 0h1m2 0h2m1 0h2m4 0h1m2 0h4m1 0h2m4 0h1m2 0h2m1 0h1M4 104.5h3m3 0h1m1 0h1m1 0h1m2 0h2m1 0h1m1 0h2m2 0h3m1 0h3m7 0h1m1 0h1m1 0h1m3 0h5m1 0h1m2 0h1m3 0h2m1 0h2m2 0h1m2 0h1m2 0h4m4 0h1m1 0h4m1 0h4m2 0h1m2 0h4m1 0h1m1 0h3m1 0h1m1 0h2m2 0h1m4 0h1m2 0h1m4 0h6m2 0h1m2 0h4m1 0h2m1 0h1m2 0h1m1 0h1m2 0h1m1 0h2m1 0h3m1 0h1m2 0h4M4 105.5h1m1 0h2m3 0h1m5 0h4m1 0h2m3 0h1m3 0h1m1 0h3m3 0h2m1 0h4m3 0h4m1 0h4m1 0h2m2 0h2m2 0h1m3 0h1m2 0h1m2 0h1m1 0h4m2 0h1m2 0h2m3 0h3m3 0h2m5 0h1m2 0h1m1 0h1m1 0h1m2 0h3m1 0h1m1 0h3m1 0h2m3 0h1m1 0h4m1 0h2m1 0h2m1 0h5m1 0h3m3 0h1m4 0h5m1 0h2m1 0h3m1 0h1m3 0h3M4 106.5h1m3 0h3m3 0h2m1 0h1m1 0h1m1 0h1m3 0h1m1 0h3m4 0h1m1 0h1m2 0h3m1 0h1m2 0h2m3 0h2m4 0h3m4 0h1m2 0h4m1 0h2m5 0h7m3 0h1m1 0h1m3 0h8m5 0h3m1 0h1m1 0h2m6 0h2m1 0h2m2 0h2m3 0h5m4 0h1m1 0h1m5 0h1m1 0h3m1 0h1m2 0h4m3 0h1m1 0h1m1 0h2m1 0h3M5 107.5h2m2 0h1m2 0h1m2 0h1m3 0h2m1 0h2m3 0h1m1 0h3m1 0h4m2 0h1m1 0h1m2 0h1m1 0h1m2 0h1m2 0h2m3 0h3m1 0h1m4 0h1m2 0h3m2 0h1m1 0h1m1 0h1m6 0h4m1 0h1m2 0h1m2 0h1m4 0h2m1 0h1m1 0h1m1 0h1m7 0h4m4 0h1m3 0h1m1 0h2m1 0h1m6 0h3m2 0h5m2 0h1m1 0h1m2 0h1m1 0h1m1 0h1m2 0h3m11 0h2M6 108.5h9m1 0h2m2 0h1m2 0h2m1 0h1m4 0h3m1 0h1m2 0h5m2 0h1m1 0h1m1 0h3m1 0h1m8 0h4m1 0h5m1 0h2m1 0h4m1 0h2m2 0h1m1 0h3m1 0h4m2 0h2m1 0h1m11 0h1m1 0h1m2 0h1m2 0h1m4 0h1m1 0h4m1 0h1m4 0h1m1 0h2m1 0h2m1 0h1m3 0h3m4 0h3m1 0h3m4 0h1m1 0h2m5 0h1M4 109.5h2m3 0h1m1 0h1m2 0h2m1 0h1m1 0h1m3 0h3m3 0h3m2 0h1m2 0h1m3 0h5m1 0h3m3 0h2m1 0h2m2 0h1m1 0h2m3 0h1m1 0h4m3 0h1m1 0h1m1 0h3m2 0h1m2 0h1m1 0h2m2 0h2m1 0h1m3 0h1m4 0h2m1 0h1m2 0h1m5 0h2m1 0h1m1 0h2m1 0h1m2 0h1m1 0h1m1 0h2m1 0h4m5 0h2m1 0h5m1 0h1m1 0h2m3 0h1m1 0h3m3 0h1m1 0h1m2 0h4m2 0h1M4 110.5h4m2 0h2m2 0h1m2 0h8m1 0h3m1 0h5m1 0h1m1 0h1m1 0h2m1 0h1m2 0h1m3 0h6m2 0h1m4 0h3m2 0h1m1 0h1m1 0h2m1 0h1m6 0h4m2 0h1m2 0h3m1 0h6m1 0h1m1 0h2m2 0h4m2 0h2m3 0h1m2 0h1m2 0h7m1 0h1m1 0h3m5 0h1m1 0h1m8 0h2m1 0h2m1 0h2m1 0h1m3 0h1m3 0h4m1 0h1m1 0h2M7 111.5h1m1 0h1m5 0h2m3 0h1m1 0h3m3 0h6m4 0h4m1 0h2m1 0h3m2 0h1m1 0h1m3 0h5m3 0h3m5 0h2m1 0h1m1 0h2m5 0h2m1 0h1m1 0h1m1 0h1m3 0h2m5 0h6m2 0h1m3 0h1m1 0h2m4 0h1m3 0h1m3 0h6m2 0h2m4 0h1m2 0h1m5 0h1m2 0h1m1 0h3m1 0h4m6 0h1m1 0h1m1 0h4M5 112.5h1m4 0h4m1 0h2m6 0h3m2 0h1m3 0h4m2 0h1m3 0h4m1 0h2m1 0h3m1 0h2m2 0h1m3 0h1m1 0h1m1 0h1m3 0h2m2 0h5m2 0h2m3 0h3m1 0h5m3 0h4m1 0h1m6 0h3m1 0h3m1 0h4m5 0h4m4 0h1m1 0h1m1 0h2m1 0h1m1 0h1m4 0h2m4 0h9m1 0h1m1 0h4m1 0h2m1 0h1m1 0h1M4 113.5h4m1 0h1m1 0h2m2 0h1m1 0h1m2 0h2m1 0h4m3 0h1m1 0h1m2 0h1m1 0h6m1 0h1m3 0h2m3 0h2m1 0h3m1 0h1m1 0h3m3 0h4m1 0h2m1 0h1m1 0h2m1 0h1m1 0h2m1 0h1m1 0h1m2 0h1m2 0h1m2 0h1m8 0h4m1 0h3m4 0h1m1 0h1m1 0h3m1 0h2m3 0h1m1 0h2m1 0h3m9 0h7m1 0h2m1 0h1m1 0h6m1 0h1m1 0h1m1 0h1m1 0h1m1 0h1m1 0h1m1 0h1M5 114.5h1m4 0h2m4 0h1m1 0h1m1 0h2m1 0h1m3 0h1m3 0h4m1 0h1m3 0h1m1 0h2m2 0h1m4 0h3m1 0h1m2 0h1m1 0h2m3 0h1m1 0h4m8 0h2m1 0h1m1 0h1m4 0h1m1 0h2m3 0h1m1 0h7m3 0h4m1 0h1m1 0h1m3 0h1m2 0h2m10 0h5m1 0h1m1 0h1m1 0h1m1 0h1m3 0h1m2 0h2m5 0h3m2 0h3m1 0h1m1 0h2m2 0h4M5 115.5h1m5 0h5m3 0h2m2 0h1m1 0h2m2 0h2m1 0h2m1 0h3m3 0h3m2 0h2m7 0h5m1 0h1m4 0h2m1 0h1m1 0h4m1 0h1m1 0h1m4 0h1m2 0h1m1 0h1m1 0h2m1 0h1m2 0h3m4 0h2m3 0h1m2 0h1m4 0h1m2 0h1m1 0h1m1 0h4m1 0h1m1 0h4m4 0h1m3 0h1m2 0h1m1 0h2m2 0h1m1 0h2m2 0h1m1 0h3m4 0h1m2 0h1m2 0h1m1 0h1m2 0h2M5 116.5h1m2 0h5m1 0h1m1 0h2m5 0h8m1 0h5m1 0h2m4 0h1m2 0h5m2 0h2m1 0h1m2 0h5m1 0h3m1 0h1m1 0h1m1 0h5m1 0h1m1 0h1m1 0h1m1 0h1m1 0h6m4 0h6m2 0h2m4 0h9m7 0h6m3 0h1m1 0h2m1 0h1m1 0h7m1 0h1m5 0h5m4 0h1m2 0h8m2 0h1M4 117.5h3m1 0h1m3 0h1m3 0h2m1 0h2m11 0h1m3 0h1m1 0h2m4 0h2m2 0h2m1 0h1m1 0h4m3 0h1m3 0h1m3 0h1m2 0h3m1 0h2m1 0h1m1 0h1m2 0h1m1 0h1m1 0h2m3 0h1m1 0h3m9 0h2m1 0h1m2 0h1m2 0h2m3 0h3m1 0h1m1 0h2m6 0h6m3 0h2m3 0h2m2 0h2m2 0h3m3 0h7m1 0h3m3 0h2m1 0h2M5 118.5h2m1 0h1m1 0h1m1 0h1m2 0h3m2 0h3m1 0h3m1 0h1m1 0h1m1 0h1m1 0h1m1 0h1m2 0h1m1 0h2m2 0h2m5 0h4m1 0h1m1 0h2m1 0h1m1 0h2m1 0h2m1 0h1m1 0h2m1 0h3m1 0h2m1 0h3m2 0h2m1 0h1m1 0h1m4 0h2m1 0h1m1 0h3m3 0h4m2 0h1m1 0h1m1 0h1m1 0h2m1 0h2m1 0h1m2 0h7m1 0h1m4 0h3m1 0h1m1 0h2m1 0h1m2 0h1m2 0h1m2 0h1m2 0h1m1 0h3m4 0h1m1 0h1m1 0h1m1 0h1M7 119.5h2m3 0h3m1 0h1m1 0h3m2 0h4m2 0h4m3 0h2m5 0h1m2 0h1m1 0h2m2 0h2m1 0h1m1 0h2m1 0h1m3 0h4m3 0h1m2 0h3m1 0h2m1 0h1m3 0h1m2 0h1m3 0h2m2 0h2m1 0h1m1 0h1m1 0h2m3 0h1m2 0h1m2 0h3m3 0h3m1 0h2m2 0h1m3 0h2m3 0h1m3 0h4m3 0h1m2 0h1m1 0h3m1 0h1m2 0h1m5 0h1m2 0h1m2 0h1m3 0h1m1 0h1M4 120.5h1m1 0h1m1 0h5m1 0h2m2 0h1m1 0h1m1 0h1m2 0h1m3 0h9m1 0h2m1 0h4m1 0h2m2 0h1m1 0h2m1 0h2m2 0h6m1 0h2m1 0h1m6 0h1m2 0h2m4 0h7m2 0h1m4 0h2m4 0h1m5 0h1m2 0h6m4 0h1m2 0h3m1 0h2m3 0h1m2 0h9m1 0h3m2 0h6m1 0h1m2 0h1m2 0h9m3 0h1M6 121.5h2m1 0h1m2 0h1m2 0h3m1 0h1m2 0h4m2 0h4m1 0h1m1 0h4m2 0h1m1 0h3m1 0h2m4 0h5m2 0h1m1 0h1m1 0h2m3 0h8m1 0h2m2 0h4m1 0h1m1 0h1m2 0h2m1 0h2m4 0h1m1 0h1m2 0h1m1 0h2m2 0h2m1 0h1m2 0h5m1 0h1m1 0h2m3 0h1m2 0h5m4 0h1m4 0h2m1 0h2m3 0h1m2 0h1m1 0h2m1 0h2m2 0h1m1 0h4m1 0h1m1 0h1m2 0h1M4 122.5h8m1 0h1m3 0h2m4 0h1m2 0h1m2 0h1m1 0h1m1 0h2m1 0h1m3 0h2m1 0h1m2 0h2m4 0h1m1 0h1m4 0h1m1 0h1m2 0h1m2 0h2m1 0h1m4 0h1m4 0h4m6 0h1m3 0h3m4 0h2m1 0h2m2 0h1m1 0h4m1 0h2m1 0h1m1 0h1m1 0h1m6 0h1m4 0h2m1 0h1m2 0h1m5 0h1m7 0h1m5 0h2m1 0h1m2 0h1m4 0h9M4 123.5h2m1 0h2m2 0h2m1 0h2m1 0h1m5 0h1m3 0h1m1 0h1m1 0h2m3 0h1m2 0h2m4 0h2m1 0h1m2 0h2m2 0h1m1 0h1m1 0h3m3 0h3m1 0h1m1 0h1m1 0h2m1 0h1m1 0h1m4 0h1m1 0h1m2 0h2m4 0h1m1 0h2m3 0h4m1 0h1m2 0h3m2 0h3m2 0h1m1 0h3m2 0h1m1 0h1m2 0h2m4 0h1m3 0h8m2 0h4m2 0h1m2 0h1m4 0h2m1 0h1m2 0h2m1 0h1m2 0h3M4 124.5h2m1 0h6m1 0h1m1 0h1m1 0h1m6 0h1m2 0h3m1 0h2m2 0h1m2 0h1m2 0h1m3 0h7m1 0h1m1 0h1m1 0h1m6 0h2m1 0h1m5 0h3m1 0h1m3 0h1m1 0h2m1 0h2m1 0h2m1 0h1m1 0h1m3 0h2m1 0h1m2 0h3m4 0h2m3 0h3m7 0h6m2 0h1m3 0h6m2 0h2m1 0h1m1 0h1m5 0h2m2 0h1m1 0h2m1 0h2m10 0h2M4 125.5h1m1 0h3m3 0h1m2 0h1m1 0h1m2 0h3m2 0h3m4 0h1m3 0h1m1 0h1m2 0h4m3 0h1m1 0h1m3 0h3m2 0h2m2 0h3m4 0h1m1 0h1m3 0h2m2 0h5m2 0h2m2 0h2m1 0h2m1 0h1m2 0h1m2 0h1m1 0h2m2 0h1m3 0h1m1 0h1m2 0h1m2 0h7m1 0h3m1 0h4m1 0h2m5 0h1m2 0h3m2 0h2m1 0h1m1 0h1m3 0h1m1 0h1m3 0h1m1 0h1m1 0h2m4 0h1m1 0h1M4 126.5h2m2 0h3m1 0h4m1 0h1m1 0h4m2 0h2m2 0h2m3 0h1m1 0h5m5 0h2m4 0h1m1 0h2m2 0h1m2 0h1m1 0h1m1 0h1m2 0h1m1 0h1m1 0h2m1 0h1m1 0h1m4 0h1m1 0h2m3 0h1m5 0h1m1 0h3m4 0h3m2 0h4m1 0h3m1 0h3m1 0h2m1 0h2m1 0h2m1 0h1m1 0h1m1 0h1m2 0h1m3 0h1m1 0h4m1 0h1m3 0h2m2 0h1m1 0h2m1 0h2m1 0h2m2 0h1m1 0h1m2 0h4m1 0h1M4 127.5h1m1 0h4m4 0h1m1 0h3m3 0h3m1 0h2m2 0h5m1 0h2m1 0h3m1 0h2m1 0h1m4 0h3m4 0h2m1 0h3m2 0h2m1 0h1m3 0h6m4 0h1m1 0h2m1 0h1m2 0h1m1 0h2m1 0h1m1 0h1m2 0h3m4 0h1m1 0h1m3 0h3m2 0h1m5 0h2m4 0h1m1 0h1m7 0h1m2 0h4m6 0h2m3 0h2m5 0h1m1 0h1m3 0h1m1 0h1m1 0h1m1 0h1M6 128.5h2m2 0h3m2 0h3m1 0h1m1 0h3m1 0h1m2 0h4m7 0h1m2 0h2m3 0h2m2 0h2m1 0h1m1 0h2m3 0h1m6 0h2m3 0h2m1 0h6m1 0h1m3 0h3m2 0h1m6 0h2m6 0h1m2 0h3m2 0h1m1 0h1m1 0h1m3 0h1m1 0h1m1 0h4m1 0h2m5 0h2m1 0h1m1 0h1m3 0h1m1 0h3m3 0h1m1 0h1m3 0h2m3 0h4m6 0h1m1 0h2M4 129.5h2m3 0h1m2 0h1m1 0h1m2 0h1m1 0h3m1 0h1m2 0h2m1 0h2m1 0h2m1 0h1m1 0h1m1 0h4m1 0h3m1 0h1m1 0h1m2 0h2m1 0h3m1 0h1m1 0h1m1 0h1m1 0h1m4 0h1m5 0h1m4 0h1m1 0h7m2 0h2m2 0h1m1 0h3m2 0h3m5 0h1m2 0h1m2 0h2m1 0h4m1 0h2m1 0h1m3 0h4m1 0h2m5 0h1m1 0h2m3 0h1m3 0h3m2 0h4m1 0h3m1 0h4m3 0h1m2 0h1M4 130.5h2m2 0h9m1 0h1m2 0h2m6 0h2m3 0h2m3 0h3m1 0h1m1 0h1m6 0h1m1 0h2m2 0h1m3 0h3m3 0h3m1 0h2m3 0h1m2 0h1m1 0h4m5 0h1m3 0h1m1 0h4m1 0h3m2 0h2m1 0h1m3 0h5m1 0h7m1 0h2m2 0h1m2 0h4m4 0h1m1 0h3m2 0h1m2 0h2m3 0h1m1 0h1m1 0h2m1 0h2m4 0h1m2 0h2m1 0h2M5 131.5h1m1 0h3m3 0h3m1 0h3m1 0h2m6 0h3m2 0h1m6 0h1m2 0h1m1 0h1m2 0h1m1 0h2m5 0h1m1 0h2m1 0h4m2 0h1m3 0h2m1 0h1m2 0h1m1 0h1m1 0h1m1 0h2m1 0h2m3 0h1m2 0h1m1 0h1m4 0h3m2 0h1m6 0h5m1 0h1m2 0h2m1 0h1m1 0h1m1 0h1m4 0h2m1 0h1m1 0h5m1 0h1m4 0h3m2 0h1m1 0h1m1 0h1m1 0h2m1 0h1m4 0h1m1 0h2m1 0h1m1 0h1M5 132.5h1m1 0h9m2 0h1m6 0h2m1 0h1m2 0h2m2 0h7m1 0h2m3 0h3m1 0h3m1 0h2m1 0h1m3 0h1m1 0h1m1 0h1m1 0h1m1 0h1m2 0h3m4 0h2m1 0h1m2 0h2m1 0h2m1 0h3m1 0h1m2 0h1m1 0h2m1 0h3m1 0h1m1 0h5m3 0h1m1 0h1m3 0h1m1 0h1m1 0h5m3 0h1m1 0h2m1 0h1m1 0h1m2 0h2m1 0h2m1 0h1m4 0h1m2 0h2m2 0h1m1 0h4m4 0h1m4 0h1M6 133.5h3m2 0h1m3 0h3m3 0h1m1 0h1m1 0h1m4 0h1m5 0h1m3 0h1m2 0h4m1 0h3m3 0h4m2 0h5m1 0h2m2 0h1m1 0h2m1 0h2m1 0h2m3 0h1m6 0h5m4 0h1m1 0h1m3 0h5m1 0h2m4 0h1m1 0h1m2 0h1m1 0h1m1 0h1m2 0h1m3 0h2m1 0h1m1 0h1m2 0h1m3 0h1m3 0h6m1 0h3m2 0h1m2 0h2m2 0h1m3 0h1m6 0h2M5 134.5h1m2 0h6m1 0h4m2 0h2m1 0h2m1 0h1m1 0h6m1 0h2m1 0h1m1 0h1m1 0h1m2 0h1m5 0h1m1 0h1m2 0h2m2 0h1m2 0h1m2 0h2m1 0h1m1 0h1m6 0h1m2 0h3m6 0h1m1 0h4m1 0h2m2 0h5m2 0h3m2 0h11m1 0h2m1 0h1m7 0h1m1 0h1m1 0h1m1 0h1m2 0h1m2 0h2m3 0h1m3 0h3m2 0h1m2 0h1m3 0h5m1 0h3M4 135.5h1m1 0h1m1 0h2m7 0h2m1 0h2m1 0h2m1 0h2m2 0h2m5 0h5m3 0h2m1 0h2m1 0h3m3 0h4m1 0h1m1 0h1m1 0h1m2 0h1m1 0h1m3 0h2m1 0h1m6 0h4m7 0h3m1 0h3m1 0h1m1 0h1m1 0h1m4 0h5m5 0h3m3 0h4m2 0h1m2 0h1m1 0h1m3 0h1m1 0h2m3 0h4m5 0h2m1 0h1m2 0h1m1 0h1m5 0h3m1 0h3M4 136.5h1m1 0h1m2 0h2m5 0h2m1 0h1m2 0h1m1 0h1m1 0h3m4 0h2m5 0h1m1 0h4m3 0h4m1 0h1m1 0h1m1 0h2m1 0h1m8 0h1m2 0h1m5 0h1m2 0h3m1 0h7m1 0h1m2 0h1m1 0h1m3 0h1m2 0h1m3 0h3m4 0h1m1 0h1m1 0h1m3 0h1m1 0h4m1 0h1m2 0h1m3 0h2m1 0h1m1 0h1m2 0h4m1 0h4m1 0h2m2 0h2m1 0h2m2 0h4m8 0h1M5 137.5h1m2 0h2m1 0h2m1 0h2m1 0h1m3 0h1m3 0h1m1 0h1m2 0h1m1 0h3m1 0h4m3 0h2m1 0h3m1 0h1m2 0h1m6 0h1m1 0h3m1 0h1m1 0h7m1 0h1m1 0h1m1 0h3m1 0h6m1 0h1m2 0h1m9 0h1m1 0h2m1 0h1m5 0h1m3 0h1m1 0h2m1 0h4m1 0h2m2 0h2m1 0h1m1 0h1m2 0h1m1 0h1m1 0h1m1 0h3m1 0h2m5 0h1m2 0h4m2 0h2m1 0h4m1 0h1m2 0h1m1 0h1M5 138.5h6m1 0h3m1 0h1m3 0h1m1 0h1m2 0h2m6 0h1m1 0h1m1 0h2m2 0h1m1 0h1m1 0h1m1 0h1m3 0h2m1 0h2m1 0h3m1 0h1m2 0h2m2 0h1m1 0h1m1 0h2m5 0h2m1 0h4m1 0h1m2 0h1m4 0h5m2 0h3m3 0h4m1 0h2m1 0h7m1 0h4m4 0h1m1 0h8m4 0h2m3 0h1m2 0h2m3 0h2m2 0h1m1 0h2m3 0h1m1 0h1m6 0h1M5 139.5h2m1 0h1m2 0h1m2 0h2m1 0h2m3 0h1m1 0h1m1 0h1m4 0h3m1 0h1m3 0h2m3 0h3m1 0h2m2 0h2m3 0h2m3 0h2m2 0h1m2 0h1m1 0h1m1 0h7m1 0h1m3 0h2m1 0h2m1 0h1m2 0h1m1 0h1m1 0h1m2 0h2m1 0h1m1 0h1m1 0h1m1 0h1m1 0h5m2 0h1m2 0h1m1 0h1m2 0h1m1 0h1m1 0h4m3 0h1m1 0h1m1 0h1m1 0h1m1 0h2m1 0h1m4 0h2m1 0h1m2 0h1m3 0h1m1 0h3m2 0h1m1 0h6m1 0h1M4 140.5h1m1 0h2m2 0h1m3 0h1m3 0h2m1 0h1m1 0h2m4 0h1m1 0h1m2 0h2m1 0h1m2 0h2m1 0h1m3 0h2m1 0h2m2 0h2m3 0h3m3 0h3m2 0h5m1 0h3m2 0h1m2 0h5m1 0h1m1 0h3m3 0h3m2 0h1m1 0h1m3 0h1m1 0h2m2 0h1m1 0h1m2 0h1m2 0h1m1 0h1m1 0h2m1 0h4m3 0h1m1 0h4m1 0h3m1 0h3m4 0h2m1 0h1m3 0h2m1 0h1m2 0h4m7 0h1M4 141.5h2m2 0h1m2 0h1m1 0h2m1 0h1m1 0h1m1 0h2m1 0h1m3 0h3m1 0h3m3 0h2m5 0h3m2 0h2m2 0h1m1 0h5m1 0h4m1 0h2m1 0h4m4 0h2m3 0h4m1 0h9m3 0h1m1 0h1m4 0h2m3 0h1m3 0h1m3 0h4m1 0h1m1 0h1m2 0h1m3 0h2m1 0h3m4 0h1m3 0h2m2 0h3m1 0h2m2 0h1m5 0h4m3 0h2m4 0h1m1 0h1M6 142.5h5m1 0h1m1 0h1m5 0h1m1 0h1m1 0h1m1 0h2m2 0h4m1 0h2m1 0h1m2 0h1m1 0h1m1 0h4m3 0h3m2 0h3m2 0h1m1 0h5m1 0h1m1 0h1m4 0h1m1 0h2m1 0h4m4 0h2m1 0h1m1 0h4m1 0h1m1 0h1m1 0h1m4 0h1m3 0h2m2 0h2m1 0h2m1 0h4m4 0h1m3 0h2m3 0h1m3 0h3m1 0h4m2 0h1m2 0h1m2 0h1m1 0h1m2 0h1m1 0h1m4 0h1m1 0h3m1 0h2M5 143.5h5m1 0h2m2 0h1m1 0h2m2 0h1m1 0h4m1 0h1m4 0h1m1 0h2m6 0h4m1 0h1m6 0h1m2 0h2m1 0h4m4 0h1m3 0h4m1 0h2m1 0h1m3 0h2m1 0h2m1 0h1m2 0h4m3 0h2m1 0h1m3 0h1m7 0h1m5 0h3m2 0h6m2 0h1m6 0h3m8 0h2m1 0h2m2 0h2m4 0h1m4 0h1m1 0h6M4 144.5h10m1 0h3m2 0h1m2 0h1m3 0h2m1 0h1m1 0h6m1 0h2m1 0h2m1 0h1m1 0h4m1 0h1m1 0h1m4 0h7m1 0h2m4 0h1m5 0h2m1 0h1m1 0h9m1 0h1m5 0h1m1 0h2m1 0h2m2 0h13m1 0h1m1 0h1m1 0h2m1 0h1m1 0h2m5 0h12m1 0h1m1 0h3m1 0h2m2 0h1m2 0h1m2 0h1m1 0h8m1 0h1M6 145.5h1m1 0h1m3 0h1m3 0h1m1 0h1m2 0h1m1 0h1m2 0h2m1 0h1m1 0h2m3 0h1m1 0h1m2 0h1m1 0h2m2 0h2m2 0h2m2 0h3m1 0h2m3 0h3m1 0h1m1 0h1m1 0h1m3 0h2m1 0h2m7 0h1m3 0h1m1 0h2m1 0h1m1 0h3m1 0h1m2 0h2m4 0h1m2 0h2m3 0h3m1 0h1m1 0h2m1 0h1m3 0h2m1 0h3m4 0h2m3 0h1m1 0h3m2 0h2m4 0h2m1 0h3m1 0h1m1 0h3m3 0h3m1 0h1M5 146.5h1m1 0h2m1 0h1m1 0h2m6 0h1m1 0h1m5 0h1m2 0h2m1 0h1m1 0h2m1 0h2m5 0h2m3 0h4m2 0h2m1 0h1m1 0h1m1 0h1m2 0h2m1 0h1m1 0h2m1 0h1m3 0h4m1 0h1m3 0h1m1 0h1m1 0h2m2 0h1m1 0h1m3 0h1m1 0h1m3 0h3m3 0h1m1 0h1m1 0h1m1 0h1m1 0h5m2 0h1m3 0h2m1 0h1m1 0h2m4 0h1m1 0h1m1 0h2m3 0h2m2 0h1m1 0h2m4 0h1m3 0h2m1 0h1m1 0h1m1 0h1m1 0h1M5 147.5h4m3 0h1m1 0h1m2 0h1m1 0h4m2 0h2m1 0h1m3 0h1m3 0h1m3 0h1m2 0h1m2 0h3m3 0h1m2 0h2m1 0h3m3 0h1m1 0h1m4 0h1m3 0h4m6 0h4m3 0h1m2 0h1m2 0h1m3 0h2m4 0h1m1 0h1m2 0h4m3 0h1m2 0h1m1 0h2m2 0h2m4 0h2m3 0h1m1 0h1m1 0h1m3 0h1m2 0h7m5 0h5m4 0h1m3 0h3m1 0h1M4 148.5h3m1 0h7m1 0h2m7 0h1m1 0h2m2 0h8m1 0h3m1 0h1m6 0h1m2 0h2m1 0h1m2 0h8m1 0h1m4 0h1m2 0h3m1 0h1m2 0h2m1 0h9m2 0h1m1 0h3m2 0h3m1 0h1m1 0h3m2 0h5m4 0h1m2 0h6m1 0h1m3 0h1m1 0h2m1 0h7m1 0h1m5 0h1m1 0h5m1 0h1m1 0h1m1 0h7m2 0h2M4 149.5h3m1 0h1m3 0h1m2 0h2m2 0h2m1 0h1m1 0h1m3 0h2m1 0h1m1 0h1m1 0h1m1 0h1m1 0h2m1 0h1m2 0h1m2 0h2m1 0h1m1 0h5m3 0h1m1 0h1m1 0h1m3 0h5m1 0h1m4 0h1m6 0h2m1 0h3m1 0h2m1 0h1m2 0h2m1 0h2m1 0h1m4 0h1m7 0h1m1 0h2m1 0h3m3 0h1m2 0h2m1 0h3m5 0h1m1 0h1m1 0h1m1 0h3m1 0h1m1 0h1m2 0h1m2 0h4m2 0h1m2 0h2m4 0h1m1 0h2M7 150.5h6m2 0h1m2 0h5m3 0h4m1 0h2m3 0h4m1 0h1m4 0h1m2 0h2m1 0h1m2 0h1m2 0h3m1 0h1m1 0h2m2 0h1m1 0h3m2 0h1m3 0h3m2 0h2m2 0h1m1 0h1m1 0h1m3 0h5m1 0h3m3 0h2m1 0h4m2 0h1m2 0h3m1 0h2m3 0h1m1 0h1m1 0h1m1 0h4m3 0h1m4 0h5m3 0h1m2 0h3m2 0h1m1 0h1m5 0h1m1 0h1m1 0h2M6 151.5h2m1 0h1m2 0h2m3 0h2m2 0h1m2 0h3m1 0h1m1 0h3m1 0h4m1 0h4m1 0h3m2 0h1m1 0h3m2 0h1m1 0h4m1 0h1m1 0h1m5 0h1m2 0h5m3 0h1m2 0h2m8 0h2m4 0h1m3 0h1m1 0h2m1 0h2m3 0h2m1 0h3m2 0h3m1 0h1m3 0h1m1 0h2m5 0h2m1 0h3m1 0h2m4 0h2m1 0h2m1 0h1m1 0h1m1 0h1m2 0h2m1 0h1m1 0h2m1 0h1m1 0h5M5 152.5h4m1 0h1m1 0h1m1 0h1m2 0h2m2 0h2m2 0h3m1 0h2m1 0h1m3 0h3m1 0h4m3 0h1m1 0h4m1 0h1m2 0h1m1 0h1m6 0h4m4 0h1m1 0h1m4 0h3m1 0h1m1 0h3m2 0h3m5 0h2m3 0h3m1 0h1m1 0h3m1 0h1m3 0h1m1 0h1m1 0h1m1 0h1m2 0h5m4 0h1m2 0h1m1 0h1m2 0h1m3 0h4m2 0h4m1 0h1m1 0h1m2 0h1m1 0h1m1 0h2m1 0h1m1 0h1M5 153.5h2m1 0h1m3 0h2m2 0h1m1 0h4m3 0h2m1 0h1m2 0h1m2 0h1m1 0h1m1 0h4m1 0h3m1 0h2m7 0h1m4 0h1m1 0h1m1 0h1m2 0h5m4 0h1m2 0h2m2 0h1m2 0h2m4 0h2m2 0h1m8 0h2m10 0h1m2 0h2m1 0h1m1 0h2m1 0h1m3 0h2m1 0h1m1 0h2m3 0h1m2 0h1m1 0h1m1 0h2m4 0h1m4 0h6m1 0h2m3 0h1m5 0h1M5 154.5h3m1 0h3m2 0h2m1 0h1m3 0h1m2 0h1m10 0h3m2 0h1m1 0h2m2 0h1m5 0h1m2 0h1m2 0h2m4 0h2m1 0h4m1 0h1m7 0h1m1 0h1m1 0h2m2 0h5m2 0h2m1 0h2m2 0h1m1 0h2m2 0h4m2 0h1m1 0h1m1 0h1m2 0h1m1 0h2m9 0h1m1 0h4m5 0h1m1 0h3m4 0h1m4 0h2m1 0h2m1 0h2m3 0h2m5 0h3M5 155.5h5m1 0h2m2 0h1m1 0h10m1 0h1m2 0h3m1 0h1m3 0h4m2 0h2m5 0h1m4 0h2m3 0h2m2 0h2m1 0h1m1 0h1m1 0h1m2 0h4m3 0h1m2 0h2m3 0h1m1 0h7m2 0h1m1 0h5m1 0h1m2 0h4m1 0h1m1 0h10m1 0h2m1 0h1m2 0h1m2 0h3m1 0h3m4 0h1m1 0h3m1 0h1m2 0h2m4 0h1m4 0h2m1 0h1m3 0h2M5 156.5h1m2 0h1m1 0h2m2 0h2m3 0h4m3 0h1m2 0h1m1 0h1m2 0h1m2 0h1m2 0h4m2 0h3m1 0h1m1 0h1m1 0h1m4 0h1m1 0h1m2 0h1m2 0h2m2 0h3m1 0h2m1 0h1m2 0h1m4 0h4m4 0h2m4 0h1m5 0h2m1 0h2m1 0h1m6 0h1m1 0h1m2 0h2m2 0h1m1 0h1m1 0h1m2 0h2m2 0h4m1 0h2m4 0h1m1 0h1m1 0h1m1 0h5m4 0h1m1 0h1m2 0h1m1 0h1m1 0h1m4 0h2M4 157.5h1m1 0h1m2 0h1m2 0h2m2 0h1m5 0h2m3 0h2m4 0h3m1 0h1m1 0h1m1 0h5m1 0h5m1 0h2m1 0h1m1 0h1m7 0h2m2 0h1m1 0h1m4 0h2m2 0h4m1 0h3m5 0h1m2 0h1m1 0h3m1 0h1m1 0h2m2 0h1m1 0h3m2 0h1m1 0h1m3 0h3m1 0h1m2 0h1m3 0h4m1 0h2m1 0h1m2 0h1m3 0h3m3 0h1m1 0h2m3 0h2m1 0h1m1 0h1m1 0h3m1 0h2m4 0h1m1 0h1M4 158.5h3m1 0h1m1 0h1m3 0h1m1 0h5m4 0h4m2 0h1m2 0h2m1 0h1m3 0h1m9 0h2m2 0h1m1 0h2m1 0h1m3 0h2m1 0h4m1 0h1m4 0h1m2 0h4m5 0h1m2 0h1m3 0h1m1 0h2m2 0h1m1 0h1m3 0h6m4 0h1m1 0h2m1 0h2m1 0h1m3 0h2m2 0h1m1 0h1m1 0h1m3 0h1m5 0h3m2 0h3m1 0h2m1 0h1m2 0h1m1 0h1m3 0h1m1 0h1m1 0h1m3 0h1M4 159.5h4m1 0h1m4 0h1m5 0h1m1 0h4m2 0h5m3 0h1m1 0h1m1 0h1m5 0h2m1 0h1m2 0h2m1 0h1m1 0h2m2 0h1m1 0h2m1 0h2m1 0h1m1 0h1m1 0h2m1 0h1m1 0h2m2 0h1m3 0h2m2 0h1m5 0h1m1 0h1m3 0h1m1 0h5m4 0h1m1 0h4m1 0h1m4 0h1m1 0h1m4 0h1m1 0h2m1 0h1m1 0h3m1 0h2m1 0h1m4 0h1m1 0h3m4 0h1m5 0h2m1 0h1m1 0h2m1 0h1m1 0h1m1 0h3M4 160.5h3m1 0h5m2 0h1m2 0h2m1 0h2m2 0h2m2 0h1m2 0h2m1 0h2m1 0h1m2 0h3m5 0h2m2 0h5m1 0h1m1 0h1m5 0h1m1 0h2m3 0h3m2 0h3m1 0h1m1 0h2m4 0h3m1 0h1m3 0h3m1 0h1m2 0h1m2 0h1m1 0h3m1 0h1m1 0h2m2 0h1m5 0h2m1 0h1m1 0h1m6 0h4m1 0h2m1 0h1m1 0h2m1 0h1m3 0h3m1 0h3m4 0h4m1 0h1m3 0h1M4 161.5h1m1 0h2m3 0h1m2 0h1m1 0h1m3 0h1m1 0h3m4 0h1m2 0h4m2 0h1m4 0h3m1 0h2m1 0h2m1 0h1m1 0h2m3 0h1m6 0h4m1 0h1m4 0h1m1 0h1m1 0h2m4 0h1m1 0h4m1 0h1m2 0h1m8 0h1m10 0h1m4 0h1m1 0h1m1 0h1m2 0h1m3 0h7m4 0h5m1 0h3m1 0h1m1 0h3m2 0h2m1 0h1m1 0h1m1 0h3m2 0h1m1 0h1m4 0h1M5 162.5h1m1 0h2m1 0h3m3 0h1m1 0h1m2 0h1m6 0h3m2 0h1m2 0h2m2 0h2m1 0h1m1 0h1m3 0h1m2 0h2m1 0h1m1 0h2m1 0h2m2 0h1m2 0h4m1 0h2m2 0h1m2 0h7m3 0h1m1 0h3m1 0h4m3 0h3m2 0h5m2 0h1m1 0h1m2 0h4m1 0h3m1 0h2m1 0h1m1 0h1m2 0h3m2 0h1m1 0h1m1 0h1m1 0h3m1 0h1m6 0h1m1 0h1m2 0h1m1 0h1m1 0h1m1 0h1m1 0h3m1 0h2m1 0h2M6 163.5h4m3 0h1m10 0h1m2 0h1m3 0h2m1 0h5m1 0h1m1 0h2m1 0h5m2 0h2m2 0h1m1 0h2m1 0h2m3 0h1m2 0h2m3 0h2m2 0h2m3 0h1m2 0h1m2 0h1m1 0h1m4 0h3m1 0h1m3 0h1m6 0h2m1 0h2m1 0h2m1 0h1m2 0h2m2 0h1m2 0h1m1 0h1m1 0h1m2 0h1m2 0h1m1 0h5m2 0h1m4 0h4m1 0h3m2 0h1m1 0h1m2 0h1m1 0h4m1 0h1m1 0h3M4 164.5h1m2 0h5m1 0h1m5 0h4m1 0h1m1 0h2m1 0h1m1 0h1m2 0h1m4 0h2m1 0h1m5 0h1m1 0h2m1 0h1m1 0h1m1 0h1m1 0h4m4 0h1m3 0h1m1 0h2m3 0h2m1 0h2m2 0h1m1 0h1m1 0h1m2 0h2m1 0h1m1 0h1m1 0h5m2 0h2m1 0h1m1 0h3m9 0h1m1 0h1m1 0h4m1 0h1m3 0h1m2 0h4m4 0h1m2 0h2m1 0h1m4 0h3m1 0h3m3 0h3m1 0h1m3 0h1m2 0h2M5 165.5h1m2 0h1m2 0h1m4 0h2m1 0h1m1 0h1m1 0h1m2 0h1m1 0h1m1 0h1m2 0h1m5 0h3m4 0h1m1 0h3m5 0h1m1 0h1m1 0h2m1 0h1m1 0h2m1 0h3m1 0h1m2 0h1m1 0h1m3 0h5m1 0h1m1 0h2m2 0h2m5 0h1m4 0h2m2 0h1m2 0h1m2 0h1m1 0h1m2 0h3m1 0h1m1 0h2m1 0h1m3 0h6m4 0h1m4 0h1m1 0h1m1 0h1m1 0h3m1 0h1m3 0h4m1 0h4m2 0h1m1 0h1m1 0h1m1 0h2M6 166.5h1m2 0h2m1 0h1m1 0h3m4 0h1m1 0h1m2 0h5m2 0h2m4 0h4m2 0h3m1 0h1m2 0h4m1 0h6m1 0h1m5 0h1m1 0h1m2 0h1m3 0h2m1 0h1m1 0h2m2 0h2m1 0h2m3 0h3m3 0h1m1 0h2m1 0h5m1 0h2m1 0h1m1 0h1m5 0h1m4 0h4m1 0h1m1 0h2m1 0h1m1 0h2m2 0h1m1 0h5m1 0h1m5 0h2m1 0h2m1 0h2m2 0h2m4 0h1m2 0h1M6 167.5h1m4 0h4m3 0h1m1 0h2m1 0h1m1 0h1m1 0h2m1 0h1m2 0h1m1 0h1m1 0h1m3 0h1m4 0h1m6 0h1m4 0h1m5 0h1m1 0h2m5 0h4m1 0h1m6 0h3m6 0h1m1 0h1m5 0h4m2 0h3m3 0h3m1 0h3m4 0h2m2 0h2m2 0h1m1 0h1m1 0h1m2 0h8m3 0h2m1 0h4m5 0h1m1 0h3m3 0h1m1 0h2m1 0h4M4 168.5h2m3 0h3m3 0h2m1 0h1m1 0h1m4 0h1m2 0h1m4 0h2m1 0h4m1 0h2m1 0h5m3 0h1m1 0h2m4 0h1m2 0h2m1 0h1m2 0h1m3 0h1m4 0h2m1 0h1m2 0h1m1 0h2m3 0h1m3 0h1m3 0h3m1 0h1m2 0h2m2 0h3m1 0h4m3 0h1m1 0h1m1 0h1m1 0h6m6 0h4m2 0h2m2 0h3m3 0h1m2 0h1m1 0h3m4 0h1m1 0h2m1 0h2m1 0h1m3 0h2M4 169.5h1m3 0h2m1 0h2m2 0h3m3 0h3m1 0h1m4 0h1m1 0h2m1 0h1m2 0h2m1 0h4m2 0h1m2 0h2m1 0h2m1 0h1m3 0h1m6 0h1m1 0h3m1 0h3m1 0h1m1 0h4m3 0h1m3 0h3m1 0h2m1 0h1m1 0h2m2 0h1m2 0h1m2 0h1m8 0h2m1 0h2m1 0h4m5 0h1m1 0h2m1 0h1m5 0h2m1 0h5m1 0h1m1 0h1m1 0h1m3 0h1m2 0h2m1 0h4m1 0h1m5 0h1m1 0h1M4 170.5h3m2 0h2m1 0h5m2 0h2m4 0h1m2 0h1m9 0h1m2 0h3m1 0h3m2 0h3m1 0h1m2 0h2m1 0h1m3 0h1m2 0h2m1 0h4m5 0h2m1 0h1m1 0h1m3 0h5m3 0h4m1 0h5m1 0h2m1 0h2m2 0h1m2 0h2m1 0h2m1 0h2m1 0h2m1 0h2m2 0h2m1 0h1m1 0h1m5 0h2m1 0h2m6 0h1m3 0h2m5 0h1m5 0h2m1 0h1m1 0h1m1 0h1M7 171.5h1m3 0h2m1 0h2m3 0h1m1 0h1m2 0h4m1 0h2m4 0h1m1 0h1m2 0h1m1 0h1m3 0h1m2 0h1m3 0h4m1 0h4m1 0h4m7 0h1m1 0h1m1 0h2m1 0h1m4 0h1m1 0h1m2 0h1m3 0h3m1 0h1m1 0h2m1 0h1m4 0h2m3 0h3m1 0h1m1 0h1m4 0h1m4 0h3m1 0h2m1 0h1m2 0h1m1 0h2m2 0h4m1 0h1m2 0h1m2 0h1m2 0h1m2 0h1m2 0h2m1 0h1m5 0h6M5 172.5h1m1 0h1m1 0h2m3 0h1m2 0h1m1 0h4m2 0h1m1 0h1m2 0h9m1 0h1m2 0h3m1 0h5m4 0h2m1 0h6m2 0h3m1 0h1m3 0h4m3 0h1m1 0h1m1 0h9m4 0h2m5 0h2m3 0h2m2 0h7m2 0h2m1 0h4m1 0h1m4 0h1m2 0h1m1 0h1m1 0h5m1 0h1m1 0h2m1 0h2m1 0h2m1 0h5m3 0h2m1 0h6m1 0h2M12 173.5h1m2 0h1m2 0h1m3 0h1m1 0h1m1 0h1m2 0h1m1 0h2m3 0h1m2 0h1m2 0h3m1 0h1m3 0h1m4 0h3m2 0h1m3 0h4m1 0h2m9 0h4m1 0h1m1 0h2m3 0h1m1 0h2m1 0h1m2 0h2m1 0h1m2 0h1m4 0h3m2 0h1m3 0h5m1 0h2m7 0h2m1 0h1m5 0h1m3 0h1m1 0h1m1 0h2m3 0h3m3 0h5m1 0h1m2 0h1m3 0h1m1 0h3M4 174.5h7m1 0h2m2 0h3m4 0h3m1 0h3m1 0h2m1 0h1m1 0h1m1 0h1m1 0h1m1 0h2m1 0h3m1 0h1m2 0h4m2 0h1m1 0h1m1 0h1m1 0h1m2 0h6m4 0h1m1 0h2m1 0h1m1 0h1m2 0h2m1 0h1m1 0h1m2 0h2m2 0h1m2 0h1m1 0h1m2 0h5m2 0h3m1 0h1m1 0h2m1 0h2m2 0h2m1 0h1m1 0h1m5 0h2m1 0h1m1 0h2m1 0h1m1 0h2m1 0h1m2 0h2m4 0h1m2 0h1m1 0h3m1 0h1m2 0h1m1 0h1m1 0h1M4 175.5h1m5 0h1m2 0h1m1 0h2m1 0h1m1 0h2m1 0h1m2 0h4m2 0h1m3 0h3m1 0h4m1 0h2m2 0h1m2 0h2m1 0h1m1 0h4m3 0h1m1 0h2m1 0h2m3 0h1m1 0h1m11 0h1m3 0h2m2 0h1m1 0h1m2 0h2m1 0h1m2 0h3m3 0h1m1 0h2m3 0h1m4 0h3m8 0h1m3 0h1m2 0h2m3 0h1m4 0h2m2 0h1m1 0h2m3 0h1m1 0h1m2 0h1m1 0h2m3 0h1m1 0h2M4 176.5h1m1 0h3m1 0h1m1 0h1m3 0h1m2 0h1m1 0h1m3 0h3m2 0h1m1 0h5m2 0h1m3 0h2m2 0h2m1 0h1m2 0h2m2 0h1m2 0h5m1 0h3m2 0h1m1 0h2m2 0h2m1 0h7m1 0h7m2 0h1m2 0h1m4 0h3m3 0h3m2 0h5m4 0h1m1 0h2m1 0h1m1 0h2m1 0h1m3 0h2m1 0h1m1 0h5m1 0h1m2 0h1m1 0h1m1 0h2m3 0h1m4 0h11m1 0h2M4 177.5h1m1 0h3m1 0h1m1 0h1m2 0h3m2 0h6m3 0h5m3 0h2m3 0h1m1 0h2m1 0h2m6 0h2m1 0h1m4 0h1m1 0h1m2 0h1m1 0h1m4 0h1m3 0h2m1 0h1m2 0h1m2 0h1m2 0h1m1 0h3m7 0h4m5 0h1m4 0h1m1 0h1m1 0h6m2 0h1m3 0h2m1 0h4m4 0h2m5 0h4m1 0h2m1 0h3m1 0h2m3 0h1m1 0h1m2 0h4M4 178.5h1m1 0h3m1 0h1m1 0h2m1 0h2m1 0h2m1 0h1m2 0h1m2 0h1m3 0h1m1 0h1m6 0h2m7 0h1m2 0h2m1 0h1m2 0h1m1 0h2m1 0h3m1 0h4m1 0h1m6 0h2m1 0h3m2 0h1m1 0h2m4 0h4m1 0h3m2 0h1m1 0h2m3 0h1m1 0h2m2 0h1m3 0h3m1 0h1m2 0h1m2 0h1m2 0h2m1 0h1m2 0h1m3 0h1m1 0h3m3 0h2m2 0h4m8 0h1m1 0h3m1 0h1m1 0h2M4 179.5h1m5 0h1m1 0h1m1 0h1m1 0h2m4 0h1m1 0h1m3 0h3m6 0h1m1 0h4m1 0h4m1 0h1m1 0h2m2 0h2m1 0h1m3 0h3m1 0h2m5 0h2m1 0h4m5 0h1m1 0h1m1 0h4m3 0h2m5 0h2m1 0h1m1 0h4m2 0h4m2 0h1m1 0h1m2 0h1m1 0h1m7 0h3m2 0h1m1 0h2m4 0h2m4 0h2m1 0h1m2 0h1m2 0h1m1 0h2m1 0h2m1 0h2m5 0h1M4 180.5h7m1 0h1m4 0h1m2 0h2m1 0h1m1 0h3m9 0h3m1 0h1m1 0h1m3 0h4m3 0h2m3 0h1m1 0h6m2 0h2m1 0h1m1 0h1m2 0h3m1 0h3m1 0h1m2 0h2m1 0h1m1 0h3m2 0h1m1 0h2m1 0h1m1 0h2m2 0h1m2 0h2m1 0h2m1 0h1m1 0h1m6 0h6m2 0h3m1 0h1m1 0h2m1 0h1m1 0h1m1 0h5m2 0h2m1 0h1m2 0h4m4 0h2m2 0h3m3 0h1"/></svg>
