<?xml version="1.0" encoding="utf-8"?><!DOCTYPE svg PUBLIC "-//W3C//DTD SVG 1.1//EN" "http://www.w3.org/Graphics/SVG/1.1/DTD/svg11.dtd"><svg xmlns="http://www.w3.org/2000/svg" viewBox="0 0 185 185" shape-rendering="crispEdges"><path fill="#ffffff" d="M0 0h185v185H0z"/><path stroke="#000000" d="M4 4.5h7m2 0h4m1 0h5m2 0h1m4 0h1m1 0h1m1 0h1m1 0h1m6 0h2m3 0h4m1 0h4m1 0h2m1 0h5m2 0h1m2 0h2m1 0h3m2 0h2m1 0h4m1 0h1m1 0h1m3 0h2m4 0h2m4 0h5m3 0h1m1 0h1m1 0h8m1 0h1m4 0h1m1 0h2m1 0h1m1 0h2m1 0h1m3 0h1m1 0h2m2 0h3m2 0h2m3 0h2m1 0h1m1 0h1m1 0h3m3 0h7M4 5.5h1m5 0h1m1 0h1m1 0h4m1 0h1m1 0h1m1 0h1m2 0h2m2 0h1m4 0h1m2 0h2m2 0h1m3 0h1m5 0h2m5 0h1m2 0h1m1 0h1m2 0h2m1 0h3m2 0h1m1 0h1m1 0h2m1 0h1m1 0h1m3 0h1m1 0h2m3 0h4m3 0h1m6 0h6m1 0h1m1 0h1m1 0h2m4 0h1m1 0h2m1 0h2m2 0h3m1 0h2m1 0h1m1 0h6m1 0h1m1 0h2m3 0h6m1 0h1m4 0h1m1 0h1m1 0h1m5 0h1M4 6.5h1m1 0h3m1 0h1m2 0h2m2 0h6m1 0h1m5 0h1m2 0h1m1 0h1m1 0h1m3 0h1m1 0h1m1 0h3m1 0h1m1 0h3m3 0h3m1 0h3m1 0h3m3 0h1m1 0h2m1 0h1m2 0h1m5 0h3m5 0h1m2 0h1m1 0h2m1 0h5m1 0h4m5 0h1m5 0h1m1 0h6m3 0h1m1 0h1m5 0h3m3 0h1m1 0h1m1 0h2m1 0h2m1 0h1m1 0h3m1 0h1m2 0h2m1 0h2m3 0h1m1 0h3m1 0h1M4 7.5h1m1 0h3m1 0h1m1 0h1m3 0h1m2 0h1m3 0h1m3 0h3m1 0h1m6 0h1m3 0h1m1 0h3m2 0h3m2 0h3m2 0h2m2 0h1m1 0h1m1 0h1m1 0h1m1 0h1m2 0h4m2 0h4m2 0h1m3 0h2m1 0h3m1 0h1m2 0h2m1 0h1m2 0h1m4 0h3m1 0h1m1 0h1m1 0h1m1 0h1m2 0h2m2 0h3m1 0h2m5 0h2m1 0h1m1 0h3m1 0h3m1 0h2m2 0h7m1 0h1m2 0h1m3 0h2m1 0h1m1 0h3m1 0h1M4 8.5h1m1 0h3m1 0h1m6 0h3m3 0h1m3 0h3m2 0h5m1 0h1m1 0h1m1 0h3m3 0h2m1 0h1m1 0h1m2 0h2m1 0h7m1 0h1m1 0h1m3 0h5m4 0h1m2 0h1m1 0h6m1 0h1m2 0h1m7 0h3m3 0h3m1 0h6m1 0h2m3 0h1m6 0h3m1 0h2m1 0h1m2 0h5m1 0h4m2 0h3m2 0h2m1 0h1m1 0h4m4 0h1m1 0h3m1 0h1M4 9.5h1m5 0h1m1 0h1m1 0h1m2 0h1m2 0h2m1 0h1m1 0h2m2 0h4m3 0h1m4 0h1m3 0h2m3 0h1m1 0h1m2 0h1m2 0h3m3 0h2m1 0h4m1 0h1m8 0h5m1 0h2m3 0h2m1 0h1m2 0h7m2 0h4m3 0h1m1 0h1m3 0h1m1 0h1m3 0h2m1 0h1m1 0h1m3 0h1m1 0h3m1 0h2m1 0h1m3 0h1m2 0h1m1 0h2m3 0h3m1 0h2m2 0h1m3 0h1m1 0h1m1 0h1m5 0h1M4 10.5h7m1 0h1m1 0h1m1 0h1m1 0h1m1 0h1m1 0h1m1 0h1m1 0h1m1 0h1m1 0h1m1 0h1m1 0h1m1 0h1m1 0h1m1 0h1m1 0h1m1 0h1m1 0h1m1 0h1m1 0h1m1 0h1m1 0h1m1 0h1m1 0h1m1 0h1m1 0h1m1 0h1m1 0h1m1 0h1m1 0h1m1 0h1m1 0h1m1 0h1m1 0h1m1 0h1m1 0h1m1 0h1m1 0h1m1 0h1m1 0h1m1 0h1m1 0h1m1 0h1m1 0h1m1 0h1m1 0h1m1 0h1m1 0h1m1 0h1m1 0h1m1 0h1m1 0h1m1 0h1m1 0h1m1 0h1m1 0h1m1 0h1m1 0h1m1 0h1m1 0h1m1 0h1m1 0h1m1 0h1m1 0h1m1 0h1m1 0h1m1 0h1m1 0h1m1 0h1m1 0h1m1 0h1m1 0h1m1 0h1m1 0h1m1 0h1m1 0h1m1 0h1m1 0h1m1 0h1m1 0h1m1 0h1m1 0h7M14 11.5h6m1 0h1m1 0h1m2 0h1m1 0h2m2 0h1m3 0h4m1 0h1m1 0h1m1 0h4m9 0h1m1 0h1m3 0h1m1 0h1m4 0h1m1 0h7m1 0h1m4 0h1m1 0h1m3 0h1m3 0h1m1 0h2m3 0h2m3 0h3m2 0h1m1 0h2m3 0h4m2 0h1m1 0h1m3 0h2m3 0h2m3 0h3m3 0h1m4 0h2m2 0h1m2 0h1m2 0h2m1 0h2m1 0h1m1 0h2M4 12.5h5m1 0h6m1 0h1m1 0h3m1 0h2m2 0h4m1 0h5m1 0h3m1 0h3m5 0h1m1 0h4m1 0h1m2 0h5m2 0h1m5 0h2m1 0h3m3 0h1m4 0h8m2 0h2m1 0h2m1 0h1m1 0h1m1 0h1m1 0h1m2 0h2m2 0h6m1 0h1m1 0h1m2 0h3m1 0h2m1 0h1m1 0h1m1 0h2m1 0h1m1 0h5m1 0h1m5 0h4m2 0h1m1 0h1m2 0h1m1 0h2m1 0h2m1 0h1m1 0h1m1 0h1M4 13.5h1m3 0h1m3 0h4m1 0h2m2 0h1m1 0h1m3 0h1m1 0h5m1 0h4m2 0h5m1 0h3m1 0h1m2 0h5m1 0h5m3 0h6m4 0h2m1 0h1m1 0h2m3 0h1m3 0h1m1 0h2m1 0h1m8 0h1m1 0h1m2 0h3m1 0h2m1 0h2m1 0h4m1 0h2m1 0h1m1 0h1m1 0h4m1 0h2m3 0h2m2 0h6m1 0h1m1 0h4m2 0h1m1 0h1m2 0h2m9 0h1m1 0h1M5 14.5h3m1 0h2m1 0h2m2 0h1m1 0h1m1 0h3m1 0h3m2 0h3m1 0h3m2 0h3m1 0h1m3 0h1m2 0h1m1 0h2m1 0h1m3 0h1m2 0h2m4 0h2m1 0h1m2 0h1m1 0h1m1 0h1m1 0h2m1 0h4m3 0h2m4 0h1m1 0h9m3 0h6m2 0h2m1 0h1m2 0h1m1 0h4m1 0h1m3 0h2m1 0h1m4 0h3m2 0h2m2 0h1m1 0h2m3 0h1m1 0h1m2 0h1m2 0h2m2 0h1m3 0h2m1 0h1m1 0h1M14 15.5h1m2 0h2m2 0h1m2 0h1m3 0h2m1 0h1m1 0h1m4 0h2m1 0h2m2 0h2m1 0h2m1 0h3m1 0h1m1 0h2m1 0h2m1 0h1m2 0h2m3 0h2m1 0h1m1 0h4m1 0h1m1 0h1m2 0h1m1 0h1m5 0h4m6 0h5m9 0h1m4 0h1m2 0h2m1 0h2m1 0h1m4 0h1m1 0h2m8 0h1m4 0h2m1 0h1m3 0h1m3 0h3m1 0h1m2 0h2m1 0h2m1 0h1M4 16.5h3m1 0h3m2 0h8m1 0h1m5 0h1m1 0h2m1 0h1m1 0h1m1 0h2m1 0h1m3 0h1m4 0h3m1 0h2m1 0h2m3 0h1m3 0h2m3 0h1m1 0h1m1 0h1m1 0h4m2 0h2m2 0h2m2 0h3m2 0h1m3 0h5m1 0h1m6 0h2m1 0h2m4 0h1m1 0h1m6 0h4m1 0h1m1 0h1m1 0h2m1 0h2m4 0h1m1 0h1m1 0h2m1 0h1m2 0h3m3 0h2m1 0h1m1 0h3m3 0h1m1 0h1m1 0h2M5 17.5h2m1 0h2m1 0h1m3 0h1m4 0h1m1 0h4m2 0h5m2 0h3m1 0h1m1 0h1m1 0h2m2 0h3m1 0h1m2 0h1m1 0h2m1 0h1m2 0h1m1 0h1m1 0h1m1 0h1m1 0h4m1 0h1m2 0h8m2 0h8m1 0h1m2 0h1m4 0h2m2 0h1m3 0h1m1 0h4m2 0h2m1 0h3m4 0h1m2 0h1m1 0h1m1 0h1m4 0h3m3 0h1m1 0h3m2 0h1m1 0h1m2 0h1m2 0h1m1 0h1m1 0h1m2 0h1m1 0h1m3 0h1m2 0h1M9 18.5h5m1 0h4m1 0h1m1 0h1m2 0h1m2 0h1m1 0h2m1 0h1m1 0h1m1 0h3m1 0h1m1 0h1m1 0h3m4 0h1m4 0h3m1 0h1m1 0h3m1 0h2m1 0h4m1 0h3m1 0h7m1 0h1m10 0h3m1 0h1m4 0h1m1 0h2m1 0h4m1 0h2m1 0h1m1 0h1m1 0h4m1 0h2m2 0h1m1 0h2m1 0h1m2 0h3m1 0h2m3 0h1m3 0h2m1 0h1m2 0h3m6 0h1m1 0h1m2 0h1m2 0h2M5 19.5h2m5 0h2m3 0h2m1 0h1m1 0h3m3 0h2m1 0h4m2 0h2m1 0h1m3 0h1m1 0h1m1 0h2m1 0h3m1 0h4m1 0h1m1 0h3m1 0h2m1 0h1m1 0h1m2 0h4m1 0h1m1 0h1m3 0h5m1 0h1m1 0h1m2 0h3m3 0h3m3 0h1m4 0h2m1 0h1m4 0h5m1 0h2m1 0h3m3 0h1m2 0h5m2 0h2m1 0h1m2 0h4m1 0h1m3 0h1m1 0h1m2 0h1m2 0h1m2 0h3m1 0h1m1 0h1M6 20.5h3m1 0h1m1 0h1m2 0h2m1 0h1m1 0h2m2 0h5m1 0h1m1 0h1m2 0h1m1 0h1m3 0h3m3 0h2m2 0h2m1 0h1m1 0h1m2 0h1m1 0h1m3 0h1m2 0h3m3 0h1m1 0h3m1 0h1m1 0h3m1 0h1m4 0h2m7 0h2m1 0h1m2 0h2m3 0h2m1 0h1m2 0h1m1 0h1m1 0h1m1 0h1m1 0h1m2 0h3m1 0h2m5 0h2m1 0h1m2 0h1m2 0h2m7 0h2m1 0h1m1 0h1m1 0h2m1 0h1m1 0h2m1 0h1M4 21.5h1m2 0h2m2 0h1m1 0h3m1 0h2m1 0h1m1 0h1m1 0h2m1 0h2m2 0h1m1 0h4m1 0h1m2 0h1m2 0h3m1 0h1m1 0h2m2 0h4m1 0h6m2 0h5m1 0h1m3 0h1m1 0h1m3 0h1m1 0h2m1 0h6m1 0h3m7 0h2m2 0h1m1 0h1m1 0h1m1 0h1m2 0h2m1 0h4m1 0h2m1 0h1m3 0h7m1 0h1m1 0h3m2 0h1m1 0h1m1 0h1m3 0h3m2 0h1m1 0h3m2 0h2m2 0h1m2 0h1m4 0h1M4 22.5h3m2 0h6m1 0h3m1 0h3m1 0h1m3 0h3m3 0h1m1 0h1m6 0h1m1 0h3m4 0h3m9 0h1m2 0h4m1 0h2m2 0h1m2 0h2m1 0h2m4 0h2m1 0h1m2 0h2m1 0h3m2 0h1m1 0h5m1 0h5m2 0h3m1 0h1m2 0h3m2 0h1m1 0h1m2 0h1m4 0h2m3 0h1m1 0h5m3 0h1m2 0h1m2 0h4m1 0h1m1 0h1m2 0h1m2 0h2m1 0h3M6 23.5h2m3 0h2m2 0h1m1 0h1m2 0h1m1 0h3m2 0h1m1 0h1m1 0h1m1 0h2m3 0h1m2 0h1m1 0h2m1 0h1m1 0h1m2 0h2m2 0h1m1 0h1m1 0h2m2 0h5m1 0h1m4 0h3m1 0h1m2 0h1m1 0h1m3 0h1m3 0h3m2 0h3m4 0h2m1 0h1m1 0h5m1 0h2m1 0h3m1 0h3m4 0h1m1 0h2m1 0h1m1 0h2m2 0h1m1 0h1m5 0h1m4 0h3m1 0h1m3 0h1m2 0h2m1 0h1m1 0h2m2 0h3m1 0h3M5 24.5h3m1 0h5m1 0h2m1 0h1m1 0h2m1 0h1m1 0h1m4 0h3m1 0h7m1 0h2m3 0h5m1 0h2m1 0h1m1 0h1m2 0h1m1 0h1m1 0h1m1 0h1m1 0h2m2 0h1m1 0h2m1 0h1m1 0h1m1 0h1m1 0h3m3 0h1m3 0h1m2 0h2m1 0h2m3 0h3m1 0h1m1 0h3m2 0h1m4 0h1m1 0h1m1 0h1m2 0h3m1 0h2m1 0h1m3 0h2m1 0h5m1 0h4m4 0h4m2 0h3m4 0h2m4 0h1M4 25.5h4m3 0h1m2 0h2m1 0h3m2 0h1m2 0h1m4 0h2m2 0h1m5 0h2m1 0h4m1 0h3m2 0h5m1 0h1m2 0h1m1 0h1m1 0h1m3 0h3m2 0h1m1 0h1m1 0h2m2 0h2m1 0h1m1 0h8m1 0h1m5 0h1m2 0h3m3 0h1m3 0h3m1 0h5m6 0h1m2 0h1m1 0h1m1 0h1m2 0h1m2 0h2m4 0h2m1 0h1m1 0h3m3 0h1m1 0h2m1 0h1m1 0h1m1 0h1m1 0h2m2 0h1m1 0h1m1 0h1M4 26.5h3m3 0h1m2 0h2m1 0h1m1 0h1m1 0h2m3 0h3m1 0h2m1 0h3m1 0h5m1 0h2m2 0h2m1 0h2m1 0h2m1 0h1m2 0h4m1 0h1m4 0h6m2 0h1m2 0h2m1 0h1m1 0h1m4 0h1m1 0h1m1 0h1m1 0h1m2 0h1m1 0h2m1 0h3m1 0h5m1 0h2m3 0h5m1 0h6m4 0h1m3 0h2m2 0h2m1 0h3m1 0h1m3 0h2m2 0h2m1 0h1m4 0h3m1 0h1m4 0h3M4 27.5h1m3 0h1m2 0h2m1 0h1m2 0h1m2 0h1m2 0h1m6 0h1m1 0h1m1 0h1m1 0h1m2 0h3m4 0h4m2 0h1m2 0h1m1 0h3m3 0h1m2 0h1m7 0h5m2 0h1m1 0h1m1 0h2m1 0h2m1 0h3m2 0h1m4 0h4m3 0h1m1 0h1m10 0h1m1 0h1m2 0h1m1 0h1m1 0h8m3 0h1m1 0h1m1 0h1m5 0h1m2 0h1m2 0h1m2 0h1m3 0h1m1 0h4m1 0h2m1 0h1m1 0h1m1 0h3M4 28.5h2m4 0h3m3 0h2m1 0h1m1 0h2m3 0h1m1 0h2m1 0h4m4 0h2m1 0h4m2 0h1m1 0h2m1 0h5m1 0h1m1 0h1m4 0h4m1 0h2m3 0h5m2 0h2m5 0h1m1 0h1m2 0h1m2 0h3m1 0h1m3 0h1m2 0h2m1 0h3m3 0h1m6 0h1m1 0h4m1 0h1m7 0h1m1 0h1m2 0h2m1 0h1m1 0h2m1 0h1m1 0h2m1 0h1m3 0h3m3 0h3m1 0h1m2 0h1m1 0h1M7 29.5h1m3 0h3m1 0h4m1 0h1m3 0h2m4 0h1m1 0h1m1 0h1m1 0h1m2 0h1m1 0h8m2 0h1m3 0h3m5 0h3m1 0h2m1 0h3m4 0h2m1 0h4m1 0h4m1 0h1m1 0h3m1 0h2m1 0h2m5 0h2m2 0h1m1 0h2m1 0h1m1 0h3m2 0h3m1 0h1m7 0h6m3 0h3m1 0h4m1 0h3m1 0h2m3 0h2m1 0h2m1 0h5m1 0h1m3 0h2m1 0h1M4 30.5h1m3 0h3m1 0h1m3 0h2m2 0h2m2 0h1m2 0h1m1 0h1m2 0h1m1 0h5m2 0h1m1 0h1m1 0h1m1 0h1m4 0h2m1 0h1m2 0h3m3 0h1m2 0h6m2 0h1m4 0h1m1 0h4m3 0h1m1 0h1m1 0h1m4 0h3m1 0h1m6 0h1m3 0h1m2 0h1m1 0h2m3 0h2m2 0h4m1 0h3m2 0h1m3 0h2m1 0h1m1 0h3m5 0h2m2 0h1m1 0h4m1 0h2m4 0h1m2 0h1m2 0h1M6 31.5h2m3 0h1m1 0h2m5 0h2m1 0h3m1 0h1m2 0h2m1 0h1m1 0h4m4 0h1m2 0h1m1 0h2m1 0h2m2 0h4m1 0h4m2 0h2m1 0h1m1 0h1m1 0h7m3 0h1m1 0h3m5 0h1m2 0h1m7 0h1m2 0h1m2 0h2m2 0h3m4 0h1m1 0h2m1 0h1m1 0h3m1 0h2m1 0h2m3 0h1m1 0h1m2 0h3m5 0h2m1 0h2m3 0h1m1 0h1m2 0h1m2 0h1m2 0h1m2 0h2m1 0h2M4 32.5h2m2 0h6m2 0h2m1 0h3m2 0h1m2 0h1m1 0h1m1 0h7m2 0h1m1 0h1m2 0h1m1 0h4m1 0h4m2 0h1m1 0h5m2 0h2m3 0h1m1 0h1m2 0h1m6 0h3m1 0h6m5 0h5m2 0h1m2 0h1m2 0h1m3 0h5m4 0h1m1 0h2m1 0h1m1 0h2m3 0h1m2 0h3m1 0h8m1 0h1m1 0h1m2 0h1m1 0h5m2 0h10m2 0h2M4 33.5h1m2 0h2m3 0h1m1 0h1m1 0h1m1 0h2m1 0h2m1 0h2m3 0h1m1 0h2m3 0h1m1 0h3m1 0h2m1 0h1m1 0h2m4 0h1m1 0h3m2 0h1m3 0h2m2 0h1m1 0h4m1 0h1m2 0h1m3 0h4m1 0h2m3 0h3m1 0h1m3 0h2m1 0h2m1 0h2m3 0h1m1 0h1m2 0h1m3 0h3m1 0h1m1 0h1m4 0h1m1 0h2m1 0h1m1 0h2m1 0h1m1 0h2m3 0h1m2 0h2m1 0h4m4 0h1m1 0h2m2 0h2m2 0h1m3 0h1m3 0h1M5 34.5h1m1 0h2m1 0h1m1 0h1m2 0h1m2 0h2m4 0h1m2 0h1m2 0h3m1 0h1m1 0h3m1 0h2m4 0h2m1 0h1m1 0h3m4 0h1m1 0h1m1 0h1m1 0h1m2 0h2m1 0h3m4 0h1m2 0h1m1 0h3m3 0h1m1 0h1m1 0h1m4 0h3m1 0h2m1 0h1m5 0h1m2 0h1m1 0h2m1 0h1m1 0h5m2 0h1m2 0h1m1 0h3m1 0h1m1 0h1m1 0h1m1 0h3m1 0h1m1 0h2m1 0h1m1 0h1m6 0h3m3 0h2m3 0h2m1 0h1m1 0h4M6 35.5h3m3 0h1m3 0h1m2 0h1m5 0h2m1 0h3m1 0h1m3 0h4m1 0h1m1 0h1m1 0h2m1 0h1m3 0h1m2 0h1m1 0h2m1 0h1m3 0h1m1 0h2m1 0h1m3 0h4m1 0h2m5 0h2m1 0h1m3 0h1m3 0h2m2 0h3m2 0h1m2 0h1m2 0h1m2 0h1m1 0h1m3 0h1m1 0h2m1 0h1m5 0h1m1 0h1m2 0h5m2 0h2m3 0h1m2 0h7m1 0h2m5 0h4m1 0h2m3 0h1m1 0h1M6 36.5h9m1 0h2m3 0h2m3 0h1m1 0h1m3 0h5m2 0h4m1 0h1m1 0h3m1 0h2m2 0h1m3 0h1m1 0h6m1 0h3m1 0h1m1 0h3m2 0h2m5 0h2m1 0h7m2 0h3m5 0h1m1 0h1m3 0h2m3 0h6m1 0h1m3 0h2m1 0h4m3 0h1m1 0h13m1 0h2m3 0h3m1 0h2m1 0h1m3 0h8m2 0h1M5 37.5h4m3 0h1m3 0h3m1 0h1m1 0h1m1 0h5m1 0h1m1 0h2m2 0h1m2 0h2m1 0h1m1 0h3m1 0h3m3 0h1m6 0h1m5 0h1m2 0h1m2 0h2m2 0h1m2 0h4m1 0h1m1 0h4m3 0h1m2 0h1m3 0h1m3 0h2m1 0h1m2 0h1m3 0h2m1 0h2m1 0h4m1 0h1m2 0h1m4 0h3m1 0h2m3 0h1m4 0h1m2 0h3m2 0h2m1 0h1m1 0h5m1 0h3m1 0h4m2 0h4M5 38.5h1m3 0h2m3 0h1m2 0h1m1 0h1m4 0h3m7 0h1m1 0h1m1 0h2m3 0h1m1 0h2m5 0h1m2 0h1m2 0h8m1 0h4m1 0h2m6 0h1m1 0h1m1 0h2m2 0h2m1 0h2m4 0h3m3 0h2m2 0h2m1 0h2m2 0h1m1 0h3m2 0h2m1 0h3m6 0h6m3 0h1m1 0h1m2 0h1m1 0h1m1 0h1m1 0h2m2 0h1m2 0h2m1 0h1m1 0h2m5 0h1m2 0h1m1 0h2M4 39.5h1m1 0h1m1 0h1m5 0h1m2 0h1m1 0h4m3 0h1m1 0h1m3 0h2m1 0h2m1 0h4m4 0h1m2 0h1m2 0h2m3 0h2m1 0h1m1 0h1m2 0h2m6 0h4m1 0h2m1 0h1m1 0h1m1 0h2m2 0h1m1 0h1m4 0h2m1 0h4m1 0h1m1 0h1m1 0h1m3 0h1m1 0h2m2 0h1m1 0h5m4 0h1m1 0h2m4 0h1m4 0h1m2 0h4m3 0h3m2 0h1m2 0h2m4 0h3m5 0h1m1 0h3m1 0h1M6 40.5h10m1 0h2m3 0h1m1 0h4m3 0h1m1 0h1m5 0h2m1 0h1m2 0h1m1 0h1m1 0h2m2 0h3m1 0h1m2 0h4m1 0h5m1 0h1m2 0h3m1 0h2m1 0h1m2 0h3m1 0h1m4 0h2m2 0h1m1 0h2m1 0h2m1 0h1m3 0h1m1 0h3m3 0h1m1 0h1m3 0h1m1 0h1m2 0h3m1 0h1m7 0h1m1 0h2m5 0h3m1 0h1m1 0h1m1 0h3m2 0h3m5 0h3m3 0h1M4 41.5h3m1 0h2m1 0h3m2 0h1m1 0h1m3 0h2m1 0h1m1 0h1m2 0h2m4 0h3m1 0h7m4 0h2m1 0h6m6 0h2m1 0h3m1 0h2m2 0h1m2 0h1m1 0h1m2 0h1m4 0h1m3 0h2m1 0h1m2 0h2m1 0h2m1 0h1m1 0h2m2 0h2m1 0h1m3 0h1m1 0h2m1 0h1m1 0h2m3 0h1m1 0h2m1 0h4m3 0h1m4 0h1m1 0h4m2 0h1m1 0h2m3 0h2m3 0h1m2 0h1m1 0h3m2 0h1m1 0h1M4 42.5h1m3 0h5m1 0h4m1 0h2m2 0h1m1 0h1m1 0h3m1 0h5m2 0h2m6 0h3m2 0h2m5 0h3m2 0h8m1 0h1m6 0h2m1 0h4m1 0h6m3 0h4m3 0h1m5 0h4m1 0h1m2 0h3m3 0h4m2 0h1m1 0h1m3 0h4m2 0h1m2 0h1m4 0h3m6 0h1m1 0h1m1 0h2m2 0h2m1 0h1m2 0h2m2 0h1M5 43.5h1m1 0h3m1 0h1m1 0h3m2 0h2m1 0h1m1 0h4m4 0h3m2 0h6m1 0h2m1 0h1m1 0h2m1 0h3m2 0h1m1 0h1m2 0h3m3 0h1m1 0h2m2 0h4m1 0h2m1 0h1m1 0h1m1 0h4m1 0h1m4 0h3m3 0h2m1 0h3m1 0h3m2 0h3m2 0h1m1 0h2m2 0h1m4 0h4m2 0h3m1 0h1m4 0h1m2 0h1m1 0h1m3 0h4m2 0h1m6 0h1m1 0h1m2 0h1m1 0h8M4 44.5h1m1 0h2m1 0h2m1 0h1m1 0h4m2 0h1m2 0h3m1 0h4m1 0h1m1 0h1m2 0h1m1 0h3m2 0h1m2 0h4m2 0h1m5 0h1m1 0h1m3 0h2m4 0h1m1 0h1m2 0h1m1 0h1m1 0h2m2 0h1m4 0h1m1 0h1m2 0h1m2 0h2m1 0h1m1 0h1m3 0h1m4 0h2m8 0h1m1 0h1m1 0h1m2 0h6m6 0h4m2 0h2m2 0h1m4 0h1m2 0h1m2 0h2m1 0h1m2 0h7m1 0h2m2 0h2M6 45.5h1m2 0h1m1 0h2m4 0h1m3 0h1m2 0h3m2 0h1m4 0h3m1 0h1m1 0h3m5 0h5m1 0h3m6 0h2m5 0h3m2 0h5m2 0h4m2 0h1m1 0h3m1 0h2m4 0h2m4 0h3m3 0h2m1 0h1m1 0h1m1 0h4m1 0h1m1 0h1m6 0h2m1 0h4m3 0h3m1 0h2m3 0h2m2 0h2m5 0h6m1 0h3m2 0h1m2 0h2M10 46.5h1m3 0h3m1 0h3m1 0h2m1 0h1m3 0h2m1 0h3m1 0h1m1 0h1m1 0h1m1 0h1m2 0h2m4 0h2m5 0h2m2 0h4m1 0h2m1 0h1m1 0h2m1 0h1m3 0h7m2 0h1m1 0h1m1 0h1m4 0h5m1 0h1m3 0h1m2 0h1m3 0h3m4 0h2m3 0h3m4 0h2m1 0h2m2 0h1m3 0h1m3 0h1m2 0h1m1 0h2m5 0h2m1 0h1m1 0h2m3 0h1m1 0h2m1 0h2m2 0h1M4 47.5h3m4 0h3m2 0h1m1 0h2m3 0h1m3 0h1m1 0h1m1 0h4m1 0h2m1 0h1m5 0h5m2 0h1m3 0h3m5 0h4m3 0h1m3 0h5m3 0h1m1 0h3m1 0h1m1 0h1m1 0h6m2 0h3m1 0h1m1 0h2m1 0h1m3 0h1m1 0h1m1 0h1m1 0h1m1 0h2m4 0h1m1 0h1m1 0h1m5 0h2m2 0h1m1 0h2m1 0h2m2 0h1m2 0h1m2 0h1m1 0h3m1 0h1m2 0h1m5 0h1m1 0h2m1 0h2m1 0h1M5 48.5h2m2 0h2m1 0h3m3 0h2m1 0h1m1 0h1m4 0h2m3 0h1m1 0h3m4 0h6m2 0h2m2 0h3m6 0h1m5 0h1m1 0h1m1 0h1m3 0h1m2 0h2m4 0h1m4 0h1m6 0h5m3 0h1m2 0h5m2 0h1m4 0h1m5 0h4m1 0h2m1 0h1m4 0h3m1 0h4m2 0h1m1 0h1m5 0h2m1 0h1m1 0h1m1 0h1m1 0h4m2 0h1m2 0h1m2 0h2M4 49.5h3m4 0h1m1 0h2m2 0h1m1 0h1m2 0h2m6 0h4m3 0h1m1 0h1m3 0h3m2 0h1m1 0h1m2 0h1m1 0h3m1 0h3m1 0h1m1 0h1m2 0h2m1 0h5m2 0h2m4 0h2m4 0h1m1 0h3m2 0h1m2 0h2m1 0h5m3 0h2m2 0h3m1 0h1m2 0h1m1 0h1m1 0h2m5 0h2m1 0h1m1 0h2m3 0h1m2 0h5m1 0h2m1 0h3m1 0h1m1 0h6m1 0h6m1 0h1m1 0h3M4 50.5h1m3 0h1m1 0h4m4 0h1m5 0h1m3 0h1m2 0h4m1 0h1m2 0h2m5 0h1m5 0h2m1 0h1m1 0h3m2 0h1m1 0h1m3 0h1m1 0h1m1 0h2m3 0h1m1 0h1m1 0h1m1 0h1m1 0h1m1 0h3m2 0h2m1 0h2m1 0h2m1 0h4m4 0h1m4 0h2m2 0h2m1 0h2m5 0h2m2 0h3m2 0h1m4 0h1m2 0h1m1 0h2m9 0h1m1 0h1m1 0h2m1 0h3m1 0h1m2 0h2m1 0h5M4 51.5h1m1 0h3m2 0h4m3 0h1m3 0h2m2 0h5m1 0h1m1 0h1m3 0h1m1 0h1m3 0h1m1 0h1m1 0h1m2 0h1m3 0h1m1 0h2m3 0h1m1 0h3m2 0h1m1 0h1m1 0h2m1 0h1m1 0h1m3 0h2m2 0h4m1 0h1m1 0h1m1 0h4m2 0h1m1 0h3m1 0h2m1 0h1m2 0h1m3 0h2m1 0h2m2 0h1m2 0h1m2 0h4m1 0h1m2 0h2m1 0h1m2 0h1m1 0h1m1 0h2m2 0h1m1 0h4m2 0h2m4 0h1m1 0h2m1 0h5m2 0h2M4 52.5h1m2 0h1m2 0h4m1 0h2m6 0h1m8 0h2m1 0h2m1 0h2m2 0h1m4 0h4m3 0h5m2 0h2m3 0h1m1 0h2m1 0h1m1 0h1m4 0h1m1 0h2m4 0h1m4 0h1m1 0h2m4 0h5m1 0h3m1 0h1m2 0h1m3 0h1m1 0h1m6 0h1m2 0h1m1 0h4m1 0h1m1 0h1m2 0h1m1 0h2m1 0h3m2 0h1m1 0h1m2 0h1m2 0h2m2 0h3m2 0h2m1 0h1m4 0h2m2 0h2M5 53.5h2m1 0h2m1 0h1m1 0h1m1 0h1m1 0h1m1 0h2m1 0h1m1 0h2m2 0h1m1 0h2m4 0h1m1 0h3m1 0h1m2 0h2m1 0h1m3 0h2m1 0h3m3 0h1m3 0h1m1 0h1m2 0h1m1 0h3m1 0h2m4 0h4m2 0h3m2 0h2m5 0h1m3 0h3m1 0h1m2 0h3m1 0h2m4 0h1m2 0h4m1 0h1m3 0h2m1 0h2m1 0h1m3 0h2m1 0h8m2 0h4m1 0h5m2 0h1m1 0h2m1 0h1m1 0h1m4 0h1M4 54.5h2m2 0h1m1 0h4m1 0h1m1 0h1m2 0h2m1 0h2m1 0h1m1 0h2m1 0h6m1 0h1m1 0h3m2 0h3m1 0h1m1 0h3m5 0h6m2 0h2m1 0h1m1 0h2m1 0h3m1 0h4m1 0h2m2 0h3m1 0h1m2 0h2m1 0h1m3 0h1m2 0h1m1 0h1m1 0h4m1 0h2m2 0h3m1 0h7m1 0h1m1 0h6m6 0h1m3 0h1m2 0h1m2 0h1m2 0h2m1 0h1m4 0h2m11 0h1M5 55.5h2m1 0h1m3 0h1m1 0h3m1 0h1m1 0h4m2 0h1m3 0h3m1 0h1m1 0h4m3 0h1m2 0h1m4 0h2m2 0h1m1 0h2m1 0h2m2 0h1m1 0h2m1 0h1m4 0h3m1 0h1m7 0h2m3 0h1m2 0h3m4 0h2m1 0h1m1 0h5m5 0h1m1 0h1m2 0h1m6 0h1m1 0h1m3 0h1m2 0h3m1 0h1m1 0h1m1 0h2m6 0h3m1 0h1m3 0h1m4 0h1m4 0h6m1 0h2M6 56.5h1m2 0h2m3 0h1m1 0h1m1 0h1m1 0h3m1 0h1m2 0h1m2 0h5m3 0h1m2 0h2m1 0h1m3 0h7m4 0h2m1 0h2m1 0h1m3 0h3m2 0h1m1 0h1m1 0h2m2 0h4m2 0h2m1 0h1m2 0h1m5 0h1m1 0h1m6 0h2m1 0h1m1 0h1m1 0h1m2 0h1m5 0h1m2 0h1m1 0h1m1 0h2m6 0h3m2 0h2m2 0h3m2 0h1m1 0h3m1 0h1m1 0h4m1 0h1m1 0h1m2 0h1m1 0h2m4 0h1M4 57.5h1m1 0h2m1 0h1m1 0h1m1 0h2m1 0h1m1 0h2m3 0h2m1 0h3m1 0h2m4 0h2m1 0h1m2 0h1m1 0h2m2 0h4m1 0h2m1 0h3m4 0h2m2 0h2m1 0h2m1 0h3m1 0h1m2 0h1m1 0h1m6 0h2m3 0h1m2 0h1m1 0h3m1 0h1m1 0h3m3 0h3m1 0h1m1 0h2m3 0h1m1 0h3m2 0h1m4 0h1m1 0h1m1 0h2m3 0h2m2 0h2m2 0h3m2 0h2m1 0h1m1 0h6m1 0h6m3 0h1m2 0h1M5 58.5h1m1 0h4m2 0h2m1 0h3m3 0h1m1 0h4m1 0h1m1 0h6m1 0h1m1 0h2m1 0h1m6 0h1m1 0h1m2 0h1m1 0h3m1 0h5m2 0h3m1 0h1m4 0h1m1 0h2m1 0h2m3 0h1m1 0h2m1 0h1m2 0h1m1 0h4m1 0h3m2 0h1m4 0h1m1 0h1m1 0h1m1 0h2m2 0h1m6 0h1m4 0h4m2 0h1m4 0h1m1 0h4m2 0h2m5 0h1m2 0h1m1 0h3m4 0h2m1 0h1m2 0h2M6 59.5h1m4 0h3m1 0h1m7 0h1m1 0h6m9 0h2m1 0h1m2 0h2m1 0h1m2 0h1m4 0h2m1 0h1m1 0h5m2 0h1m4 0h3m1 0h1m2 0h1m3 0h4m2 0h1m2 0h1m1 0h1m4 0h5m2 0h1m2 0h1m1 0h2m1 0h1m1 0h1m1 0h2m2 0h1m1 0h3m2 0h1m1 0h1m1 0h2m1 0h1m3 0h8m1 0h4m2 0h1m2 0h2m2 0h1m1 0h2m1 0h1m4 0h1m1 0h5M4 60.5h1m2 0h6m2 0h3m6 0h2m1 0h1m3 0h7m1 0h1m2 0h1m1 0h1m3 0h7m2 0h1m2 0h5m1 0h2m1 0h1m2 0h2m2 0h3m4 0h1m2 0h1m1 0h5m1 0h1m3 0h1m1 0h2m3 0h2m2 0h1m2 0h2m2 0h6m1 0h2m2 0h4m1 0h2m5 0h10m1 0h1m1 0h3m1 0h1m1 0h2m2 0h2m1 0h1m1 0h2m1 0h1m1 0h7M5 61.5h1m2 0h1m3 0h1m4 0h1m1 0h1m1 0h1m2 0h2m5 0h2m3 0h1m1 0h1m1 0h1m1 0h4m1 0h3m1 0h1m1 0h1m2 0h1m2 0h2m3 0h1m3 0h1m5 0h2m2 0h3m4 0h1m1 0h2m3 0h1m1 0h1m1 0h2m1 0h2m2 0h2m1 0h2m3 0h3m2 0h1m3 0h1m1 0h3m1 0h2m1 0h2m2 0h2m1 0h1m1 0h2m3 0h2m3 0h1m3 0h2m1 0h4m3 0h1m1 0h1m3 0h1m1 0h1m1 0h1m3 0h2m1 0h2M4 62.5h1m1 0h3m1 0h1m1 0h2m1 0h3m1 0h2m2 0h2m5 0h3m1 0h1m1 0h1m1 0h6m5 0h1m2 0h2m3 0h1m2 0h1m1 0h1m1 0h2m1 0h2m1 0h3m3 0h2m4 0h1m1 0h1m3 0h1m1 0h1m1 0h1m2 0h1m1 0h4m1 0h1m2 0h1m2 0h1m1 0h2m2 0h3m1 0h1m1 0h1m3 0h1m1 0h1m3 0h1m2 0h1m1 0h3m3 0h1m1 0h2m1 0h1m1 0h4m2 0h2m1 0h1m1 0h5m1 0h3m1 0h1m1 0h2m1 0h1m1 0h3M4 63.5h1m3 0h1m3 0h1m2 0h2m1 0h1m1 0h2m2 0h2m1 0h1m4 0h1m3 0h1m1 0h1m4 0h1m1 0h2m2 0h1m1 0h3m1 0h1m1 0h4m3 0h1m1 0h2m6 0h2m2 0h1m2 0h1m3 0h1m2 0h1m3 0h3m1 0h4m1 0h1m1 0h2m3 0h2m4 0h1m1 0h1m3 0h2m1 0h1m1 0h3m2 0h8m6 0h1m3 0h1m2 0h1m2 0h2m4 0h2m2 0h1m1 0h1m1 0h2m2 0h1m3 0h1m1 0h1m1 0h1M4 64.5h1m1 0h1m1 0h6m1 0h5m2 0h1m2 0h4m1 0h1m1 0h5m3 0h6m2 0h3m1 0h2m1 0h1m3 0h6m1 0h1m2 0h1m2 0h3m2 0h3m1 0h3m2 0h1m1 0h5m1 0h1m2 0h1m1 0h2m5 0h2m4 0h10m1 0h1m1 0h1m1 0h2m1 0h3m7 0h1m1 0h1m1 0h7m1 0h2m2 0h4m2 0h1m4 0h1m2 0h1m1 0h5M7 65.5h2m2 0h1m2 0h6m6 0h2m1 0h2m1 0h1m2 0h1m2 0h2m3 0h2m1 0h5m3 0h4m5 0h1m2 0h1m3 0h1m2 0h1m1 0h1m4 0h1m1 0h1m1 0h2m3 0h1m4 0h2m5 0h1m3 0h2m2 0h1m2 0h2m1 0h1m3 0h1m1 0h5m1 0h1m5 0h4m1 0h2m1 0h1m5 0h1m2 0h1m1 0h1m2 0h4m2 0h5m1 0h3m1 0h4m1 0h3m1 0h1M6 66.5h1m2 0h3m1 0h1m2 0h3m1 0h2m1 0h1m2 0h1m1 0h3m1 0h1m1 0h3m2 0h1m1 0h1m1 0h1m1 0h3m2 0h4m1 0h1m4 0h2m1 0h1m1 0h1m4 0h2m1 0h1m3 0h1m1 0h2m1 0h1m1 0h1m3 0h2m3 0h1m1 0h1m1 0h3m2 0h4m1 0h4m3 0h3m1 0h1m6 0h5m1 0h1m2 0h1m1 0h1m4 0h1m1 0h4m1 0h4m5 0h1m1 0h2m2 0h1m1 0h2m4 0h2m1 0h2m1 0h3M4 67.5h3m5 0h4m1 0h2m3 0h2m1 0h1m3 0h3m1 0h1m3 0h1m1 0h3m4 0h4m1 0h1m1 0h1m1 0h2m1 0h2m1 0h5m1 0h1m1 0h1m1 0h1m1 0h2m1 0h1m1 0h2m5 0h2m1 0h1m3 0h2m2 0h2m1 0h1m4 0h2m1 0h5m1 0h1m1 0h1m1 0h1m1 0h2m4 0h1m4 0h1m2 0h1m5 0h1m2 0h1m1 0h2m1 0h2m4 0h3m1 0h1m3 0h1m1 0h1m1 0h2m4 0h1m4 0h1m1 0h1M5 68.5h3m1 0h3m2 0h4m1 0h1m4 0h1m1 0h2m2 0h1m3 0h2m3 0h4m1 0h3m3 0h2m2 0h1m1 0h2m2 0h2m2 0h3m6 0h2m1 0h1m2 0h1m1 0h2m1 0h3m1 0h1m2 0h1m2 0h1m5 0h1m1 0h2m2 0h2m3 0h2m2 0h1m1 0h5m1 0h1m1 0h1m1 0h2m1 0h3m2 0h1m4 0h3m3 0h2m1 0h2m2 0h1m1 0h2m1 0h4m1 0h2m2 0h2m1 0h1m1 0h1m1 0h2m3 0h2M5 69.5h1m1 0h2m2 0h2m4 0h3m1 0h4m3 0h1m1 0h1m3 0h3m2 0h7m1 0h4m2 0h6m3 0h2m2 0h2m1 0h3m5 0h1m3 0h2m4 0h1m6 0h4m2 0h1m5 0h1m1 0h1m3 0h1m2 0h2m2 0h1m2 0h1m1 0h1m2 0h1m6 0h3m1 0h2m6 0h2m1 0h2m1 0h1m2 0h3m1 0h1m1 0h4m2 0h1m3 0h4m2 0h1m2 0h1M10 70.5h1m2 0h1m1 0h1m1 0h2m1 0h4m1 0h1m3 0h1m2 0h2m1 0h1m1 0h1m2 0h2m1 0h1m2 0h1m5 0h1m1 0h2m1 0h5m1 0h1m4 0h1m1 0h1m1 0h1m6 0h4m1 0h2m2 0h3m1 0h2m3 0h2m3 0h1m1 0h2m3 0h3m2 0h4m2 0h2m1 0h2m3 0h1m1 0h3m1 0h1m1 0h1m1 0h3m2 0h1m4 0h1m2 0h1m1 0h2m5 0h1m4 0h3m3 0h2m1 0h1m3 0h1M8 71.5h2m1 0h2m2 0h1m2 0h2m4 0h3m1 0h2m2 0h4m1 0h2m4 0h4m1 0h1m3 0h7m3 0h3m1 0h1m6 0h7m3 0h1m2 0h2m1 0h5m2 0h2m1 0h1m1 0h6m1 0h2m4 0h2m3 0h5m1 0h3m1 0h1m1 0h3m2 0h2m3 0h2m1 0h1m3 0h2m4 0h4m1 0h3m1 0h1m1 0h3m1 0h1m1 0h1m5 0h3M6 72.5h1m3 0h1m1 0h2m2 0h2m3 0h2m3 0h2m1 0h1m4 0h1m2 0h1m1 0h1m1 0h2m1 0h3m2 0h1m9 0h3m2 0h3m1 0h1m5 0h1m1 0h1m3 0h1m5 0h1m2 0h1m1 0h1m2 0h1m5 0h2m1 0h1m2 0h2m1 0h4m4 0h4m3 0h2m1 0h2m1 0h3m2 0h1m1 0h1m1 0h5m1 0h3m2 0h1m1 0h2m1 0h1m2 0h1m1 0h1m1 0h1m2 0h2m3 0h1m1 0h1m1 0h1m1 0h2m1 0h2M4 73.5h1m1 0h1m1 0h2m1 0h1m3 0h3m1 0h5m1 0h1m8 0h1m5 0h2m1 0h2m1 0h1m1 0h1m2 0h1m1 0h5m1 0h1m1 0h1m2 0h4m1 0h3m1 0h3m2 0h2m1 0h1m2 0h3m6 0h3m1 0h1m1 0h1m5 0h3m1 0h1m3 0h1m1 0h2m4 0h6m4 0h1m1 0h2m1 0h4m3 0h1m2 0h1m5 0h3m2 0h3m3 0h6m1 0h2m3 0h2m3 0h1M4 74.5h4m2 0h3m1 0h1m1 0h1m1 0h3m1 0h2m1 0h4m1 0h1m1 0h2m2 0h2m2 0h3m8 0h4m2 0h1m2 0h2m5 0h1m2 0h4m5 0h4m1 0h2m2 0h3m1 0h1m2 0h1m3 0h1m2 0h1m1 0h1m2 0h5m2 0h3m1 0h3m1 0h4m1 0h1m1 0h2m3 0h1m1 0h1m4 0h1m1 0h1m1 0h2m1 0h1m2 0h1m2 0h2m4 0h1m4 0h2m2 0h1m4 0h2m1 0h1m1 0h1M4 75.5h1m1 0h2m4 0h3m3 0h7m6 0h3m1 0h1m3 0h2m2 0h1m1 0h3m1 0h1m1 0h1m1 0h1m4 0h9m2 0h1m3 0h2m1 0h3m6 0h2m1 0h6m2 0h1m1 0h1m1 0h6m2 0h2m3 0h2m2 0h2m1 0h3m2 0h1m2 0h3m1 0h4m1 0h1m1 0h6m2 0h2m2 0h1m1 0h5m2 0h1m3 0h1m1 0h2m1 0h1m5 0h2m1 0h1m1 0h1M8 76.5h1m1 0h4m1 0h1m3 0h5m1 0h1m2 0h2m1 0h1m1 0h2m1 0h2m2 0h1m1 0h1m1 0h1m2 0h1m2 0h1m1 0h1m1 0h4m2 0h2m3 0h6m1 0h1m3 0h3m1 0h4m2 0h2m1 0h1m1 0h1m2 0h2m1 0h1m1 0h3m7 0h2m1 0h1m1 0h5m1 0h2m1 0h1m1 0h1m2 0h1m1 0h3m6 0h2m1 0h1m2 0h2m1 0h1m1 0h1m1 0h8m2 0h2m6 0h3m1 0h1m1 0h2m1 0h2M4 77.5h6m1 0h3m2 0h4m3 0h3m3 0h2m1 0h1m2 0h1m1 0h1m2 0h1m1 0h1m1 0h1m2 0h4m3 0h1m1 0h2m5 0h1m4 0h1m1 0h3m1 0h4m1 0h2m1 0h2m1 0h1m7 0h2m2 0h1m1 0h1m1 0h1m2 0h2m2 0h2m1 0h2m3 0h1m5 0h3m1 0h1m4 0h1m1 0h2m1 0h3m2 0h1m5 0h1m3 0h3m2 0h1m1 0h2m1 0h1m1 0h2m1 0h2m3 0h1m1 0h1m1 0h4M4 78.5h2m3 0h2m2 0h1m1 0h2m3 0h2m2 0h1m2 0h6m4 0h2m2 0h2m2 0h1m5 0h2m1 0h2m2 0h1m1 0h2m3 0h1m1 0h4m1 0h1m2 0h1m1 0h1m1 0h2m1 0h3m3 0h1m1 0h1m1 0h2m1 0h9m2 0h1m1 0h1m1 0h3m1 0h4m1 0h1m4 0h1m2 0h1m3 0h2m2 0h3m3 0h1m1 0h3m2 0h1m2 0h1m1 0h1m1 0h1m1 0h1m2 0h2m3 0h1m1 0h1m1 0h1m2 0h1m2 0h1m3 0h1M7 79.5h1m5 0h5m3 0h2m1 0h1m1 0h7m1 0h1m1 0h2m7 0h2m2 0h1m3 0h1m3 0h3m2 0h1m1 0h1m1 0h1m2 0h1m3 0h5m7 0h1m2 0h1m2 0h3m2 0h1m1 0h2m1 0h1m1 0h3m2 0h1m1 0h3m2 0h1m2 0h3m2 0h4m1 0h1m1 0h1m1 0h1m2 0h2m1 0h2m3 0h2m2 0h3m1 0h1m1 0h5m1 0h2m2 0h1m2 0h2m3 0h1m3 0h2m1 0h3M4 80.5h3m1 0h1m1 0h2m4 0h1m2 0h1m2 0h1m4 0h2m1 0h1m3 0h1m1 0h1m1 0h1m1 0h5m1 0h3m1 0h2m1 0h3m1 0h1m2 0h1m1 0h1m1 0h1m2 0h3m1 0h1m1 0h3m3 0h1m3 0h1m3 0h2m5 0h2m1 0h2m1 0h2m4 0h2m1 0h1m2 0h2m1 0h4m1 0h1m4 0h1m1 0h2m1 0h1m8 0h2m1 0h2m1 0h3m1 0h2m2 0h1m1 0h5m2 0h1m5 0h5m1 0h1m1 0h1m3 0h1M4 81.5h2m5 0h3m6 0h1m1 0h2m3 0h2m2 0h1m1 0h1m3 0h3m2 0h7m1 0h2m1 0h2m1 0h3m4 0h1m1 0h5m2 0h1m1 0h4m2 0h1m1 0h3m3 0h1m2 0h1m1 0h3m7 0h1m1 0h3m3 0h2m2 0h2m5 0h1m1 0h1m1 0h1m4 0h1m1 0h2m1 0h1m1 0h2m4 0h1m4 0h1m1 0h2m1 0h3m1 0h2m3 0h4m1 0h2m3 0h1m2 0h2m2 0h1M7 82.5h4m3 0h3m1 0h4m5 0h3m2 0h2m1 0h1m3 0h3m3 0h2m4 0h2m1 0h2m2 0h2m7 0h7m1 0h1m1 0h1m1 0h1m1 0h5m1 0h2m1 0h1m1 0h1m4 0h1m1 0h1m1 0h2m1 0h1m2 0h4m1 0h2m1 0h2m2 0h1m1 0h1m1 0h1m1 0h1m1 0h1m1 0h1m4 0h2m1 0h2m3 0h4m2 0h2m7 0h2m1 0h2m1 0h1m1 0h3m5 0h2m3 0h1M6 83.5h2m3 0h1m4 0h2m1 0h3m5 0h3m1 0h1m1 0h1m1 0h2m6 0h2m1 0h1m2 0h1m2 0h1m5 0h1m1 0h2m1 0h2m1 0h2m1 0h1m1 0h1m1 0h2m1 0h3m2 0h1m4 0h1m4 0h2m3 0h1m1 0h2m2 0h2m1 0h4m1 0h1m2 0h1m1 0h1m1 0h1m2 0h3m1 0h3m1 0h4m4 0h3m2 0h2m1 0h1m2 0h2m2 0h1m2 0h2m3 0h2m2 0h1m1 0h2m2 0h1m5 0h1m1 0h3M4 84.5h2m1 0h2m1 0h1m1 0h2m3 0h2m1 0h2m1 0h2m1 0h5m1 0h3m3 0h1m1 0h1m1 0h1m1 0h1m2 0h2m1 0h2m2 0h1m5 0h2m2 0h1m1 0h1m2 0h1m4 0h7m7 0h2m1 0h1m1 0h2m2 0h5m2 0h1m5 0h1m1 0h1m2 0h1m1 0h2m1 0h2m1 0h1m1 0h1m1 0h4m1 0h1m4 0h1m4 0h2m1 0h2m3 0h4m1 0h1m1 0h2m1 0h1m1 0h1m1 0h2m1 0h1m2 0h3m1 0h1m2 0h1m1 0h2M4 85.5h1m7 0h1m1 0h1m1 0h3m7 0h2m1 0h2m3 0h1m2 0h2m2 0h1m1 0h6m1 0h1m2 0h1m1 0h2m1 0h1m2 0h1m1 0h1m1 0h1m1 0h2m2 0h1m1 0h1m2 0h1m1 0h1m3 0h1m1 0h3m4 0h1m2 0h3m3 0h2m1 0h4m2 0h1m2 0h1m2 0h2m2 0h1m1 0h4m1 0h2m1 0h1m1 0h1m1 0h2m1 0h3m2 0h1m1 0h1m1 0h2m9 0h2m4 0h4m2 0h2m2 0h4m4 0h1M5 86.5h1m1 0h1m2 0h1m3 0h2m1 0h1m1 0h1m1 0h4m4 0h2m1 0h1m1 0h1m1 0h3m2 0h1m3 0h2m4 0h3m1 0h1m1 0h1m1 0h1m1 0h1m6 0h1m1 0h1m1 0h2m6 0h1m1 0h4m2 0h1m1 0h1m4 0h5m2 0h1m1 0h1m2 0h2m1 0h2m2 0h1m1 0h1m2 0h1m1 0h4m4 0h1m1 0h1m2 0h2m1 0h2m1 0h2m2 0h1m1 0h1m1 0h1m1 0h1m3 0h1m5 0h1m5 0h2m1 0h1m1 0h1m6 0h2M4 87.5h4m1 0h1m1 0h1m2 0h1m1 0h4m1 0h3m1 0h2m5 0h2m5 0h1m3 0h4m1 0h1m2 0h2m5 0h1m1 0h3m1 0h1m1 0h2m3 0h1m1 0h2m1 0h1m1 0h2m5 0h4m2 0h3m1 0h1m2 0h2m2 0h3m1 0h1m1 0h1m2 0h1m1 0h1m1 0h1m1 0h4m2 0h3m1 0h2m1 0h1m1 0h1m1 0h7m1 0h3m2 0h3m1 0h1m1 0h2m1 0h1m3 0h2m1 0h1m1 0h2m2 0h1m1 0h3m1 0h1m2 0h2M8 88.5h6m1 0h6m2 0h1m1 0h3m4 0h7m2 0h2m1 0h1m5 0h3m1 0h3m3 0h5m1 0h2m4 0h5m1 0h1m1 0h5m3 0h5m1 0h1m2 0h2m1 0h1m2 0h1m1 0h2m5 0h2m1 0h7m5 0h6m6 0h1m1 0h8m1 0h1m1 0h3m2 0h1m3 0h1m2 0h1m2 0h2m1 0h7m2 0h2M5 89.5h4m3 0h4m2 0h1m1 0h2m1 0h1m1 0h1m2 0h2m1 0h2m3 0h1m1 0h7m1 0h1m1 0h1m3 0h1m1 0h7m3 0h1m3 0h3m2 0h1m1 0h3m1 0h4m1 0h3m1 0h1m3 0h4m1 0h1m1 0h1m1 0h1m1 0h1m2 0h1m4 0h1m3 0h2m3 0h1m1 0h1m1 0h4m1 0h1m1 0h1m2 0h5m2 0h1m2 0h1m3 0h1m4 0h2m1 0h3m1 0h1m2 0h3m1 0h4m1 0h1m3 0h1m3 0h1M6 90.5h1m1 0h1m1 0h1m1 0h5m1 0h2m1 0h2m1 0h1m2 0h6m1 0h1m1 0h1m1 0h1m3 0h1m2 0h1m5 0h1m1 0h3m1 0h2m1 0h1m1 0h1m1 0h1m2 0h2m1 0h4m5 0h2m1 0h1m1 0h2m1 0h2m1 0h1m1 0h1m4 0h2m2 0h4m3 0h1m4 0h2m1 0h1m1 0h1m1 0h2m2 0h1m1 0h1m2 0h4m1 0h6m4 0h1m1 0h1m1 0h1m1 0h1m2 0h2m4 0h3m3 0h1m5 0h2m1 0h1m1 0h1m1 0h1M4 91.5h1m1 0h1m1 0h1m3 0h4m1 0h1m1 0h4m2 0h4m1 0h1m1 0h1m3 0h1m4 0h1m3 0h2m2 0h1m3 0h1m1 0h1m2 0h1m1 0h1m3 0h1m1 0h2m3 0h1m1 0h2m1 0h1m1 0h1m4 0h1m1 0h4m3 0h8m1 0h1m2 0h2m2 0h1m1 0h1m3 0h1m1 0h1m3 0h3m2 0h2m3 0h1m2 0h1m1 0h1m1 0h2m1 0h1m3 0h1m3 0h1m2 0h2m1 0h2m1 0h1m1 0h2m2 0h1m1 0h2m5 0h1m3 0h1m1 0h3M6 92.5h8m4 0h7m1 0h2m2 0h7m5 0h1m1 0h1m3 0h4m7 0h6m1 0h1m1 0h1m1 0h1m2 0h4m1 0h1m2 0h2m1 0h2m2 0h5m1 0h2m1 0h1m2 0h4m1 0h3m1 0h4m2 0h7m3 0h1m1 0h2m1 0h1m1 0h2m3 0h1m1 0h2m1 0h1m1 0h5m1 0h1m1 0h2m2 0h4m2 0h1m1 0h1m2 0h2m2 0h7M5 93.5h1m2 0h1m2 0h2m2 0h1m2 0h1m1 0h2m3 0h1m1 0h4m1 0h3m2 0h2m2 0h1m4 0h1m1 0h2m1 0h1m2 0h3m4 0h2m1 0h1m2 0h1m1 0h2m1 0h1m3 0h2m1 0h2m1 0h2m1 0h2m1 0h3m2 0h2m1 0h2m5 0h1m1 0h3m3 0h1m6 0h1m1 0h8m3 0h1m2 0h3m1 0h1m2 0h1m1 0h1m1 0h2m3 0h4m1 0h2m1 0h7m3 0h5m1 0h1m1 0h2m2 0h1M4 94.5h2m1 0h1m1 0h3m1 0h3m3 0h2m1 0h4m4 0h2m3 0h2m1 0h4m1 0h1m2 0h1m2 0h1m2 0h4m1 0h4m2 0h1m4 0h1m1 0h1m1 0h2m6 0h1m1 0h4m2 0h1m2 0h2m4 0h2m1 0h1m1 0h1m1 0h1m4 0h8m7 0h4m1 0h2m5 0h3m2 0h3m2 0h1m4 0h1m1 0h2m4 0h2m1 0h2m2 0h1m2 0h3m1 0h1m1 0h2m1 0h2M4 95.5h1m1 0h1m1 0h2m5 0h1m1 0h1m2 0h2m2 0h1m1 0h2m1 0h2m6 0h1m2 0h1m5 0h2m7 0h2m1 0h1m2 0h1m4 0h2m1 0h2m2 0h4m1 0h2m5 0h2m3 0h1m1 0h2m2 0h1m1 0h1m2 0h2m1 0h3m1 0h3m2 0h3m1 0h2m6 0h9m1 0h1m4 0h3m1 0h5m4 0h2m4 0h3m1 0h1m1 0h2m5 0h2m3 0h2M5 96.5h2m3 0h1m5 0h3m1 0h1m1 0h1m1 0h2m2 0h1m1 0h4m2 0h1m1 0h6m1 0h1m1 0h4m2 0h3m4 0h1m1 0h1m1 0h2m1 0h1m5 0h2m1 0h3m2 0h2m3 0h7m1 0h1m4 0h2m2 0h1m1 0h2m2 0h1m2 0h1m2 0h1m2 0h1m1 0h1m4 0h1m1 0h2m1 0h1m1 0h1m2 0h3m1 0h2m1 0h1m7 0h4m1 0h5m1 0h5m1 0h1m1 0h2m5 0h1m2 0h2M4 97.5h1m1 0h2m4 0h1m1 0h1m3 0h1m1 0h1m2 0h1m2 0h1m1 0h1m1 0h1m2 0h1m3 0h1m3 0h1m2 0h2m2 0h1m7 0h3m6 0h1m2 0h2m5 0h1m2 0h1m1 0h2m1 0h3m3 0h1m3 0h3m4 0h2m3 0h2m4 0h3m3 0h4m1 0h1m1 0h1m1 0h2m3 0h1m3 0h2m8 0h3m2 0h1m1 0h2m2 0h1m1 0h1m2 0h3m1 0h5m1 0h4m4 0h2M4 98.5h2m1 0h5m2 0h1m1 0h1m2 0h6m2 0h6m2 0h2m2 0h1m1 0h1m4 0h2m2 0h3m1 0h2m2 0h1m5 0h1m2 0h2m1 0h1m1 0h2m3 0h6m1 0h1m6 0h1m3 0h1m1 0h2m5 0h1m2 0h1m3 0h1m2 0h2m5 0h1m2 0h1m3 0h1m2 0h1m1 0h1m2 0h1m1 0h3m1 0h3m1 0h2m1 0h1m1 0h1m2 0h1m2 0h1m1 0h3m7 0h1m1 0h4m1 0h1m1 0h1M8 99.5h2m3 0h5m2 0h1m1 0h1m5 0h1m2 0h1m5 0h2m1 0h1m2 0h1m1 0h2m2 0h1m1 0h2m2 0h1m2 0h4m1 0h1m2 0h1m4 0h1m2 0h3m4 0h3m3 0h4m1 0h3m1 0h1m1 0h1m2 0h2m1 0h2m2 0h1m4 0h3m1 0h1m7 0h3m1 0h2m4 0h1m3 0h1m1 0h2m1 0h1m2 0h2m2 0h2m1 0h2m1 0h1m3 0h1m1 0h1m2 0h1m2 0h1m7 0h4M5 100.5h1m1 0h1m1 0h2m1 0h1m1 0h3m1 0h1m2 0h3m1 0h2m3 0h1m2 0h1m1 0h2m2 0h2m1 0h1m2 0h8m1 0h1m1 0h2m4 0h5m2 0h2m1 0h1m1 0h5m5 0h2m1 0h8m2 0h2m1 0h1m2 0h1m7 0h3m1 0h1m3 0h3m2 0h2m2 0h1m1 0h1m1 0h1m2 0h1m1 0h1m1 0h2m1 0h1m2 0h1m2 0h1m1 0h2m1 0h1m1 0h1m1 0h2m2 0h2m1 0h1m2 0h4m1 0h2m6 0h1M5 101.5h1m2 0h1m4 0h4m3 0h4m1 0h1m3 0h2m1 0h4m1 0h3m4 0h1m3 0h1m1 0h1m2 0h1m1 0h2m2 0h1m2 0h1m1 0h1m3 0h1m1 0h1m8 0h1m1 0h1m1 0h2m4 0h1m4 0h2m3 0h3m3 0h2m2 0h1m2 0h2m2 0h2m2 0h1m2 0h3m1 0h1m3 0h1m4 0h1m1 0h1m2 0h1m2 0h4m1 0h5m2 0h2m2 0h1m1 0h1m1 0h1m5 0h2m2 0h2m1 0h1m2 0h1M7 102.5h1m1 0h2m1 0h3m2 0h1m1 0h1m1 0h4m2 0h2m1 0h2m5 0h2m2 0h1m4 0h1m2 0h2m1 0h3m2 0h1m2 0h2m1 0h1m1 0h1m2 0h3m1 0h2m3 0h1m1 0h2m1 0h1m1 0h2m5 0h1m1 0h1m2 0h3m3 0h4m2 0h5m1 0h2m2 0h2m1 0h2m1 0h2m4 0h1m1 0h1m1 0h1m2 0h1m1 0h1m3 0h1m1 0h3m2 0h1m3 0h1m3 0h3m2 0h1m1 0h3m1 0h1m1 0h2m3 0h1m1 0h2M6 103.5h2m1 0h1m3 0h1m1 0h1m2 0h1m1 0h1m1 0h3m1 0h2m2 0h1m1 0h1m1 0h1m1 0h1m9 0h1m2 0h1m2 0h2m4 0h4m2 0h4m3 0h1m2 0h6m3 0h1m4 0h3m1 0h1m1 0h1m1 0h1m5 0h3m2 0h4m2 0h1m2 0h2m1 0h2m2 0h1m2 0h4m3 0h1m2 0h1m1 0h1m1 0h1m1 0h1m4 0h2m2 0h4m5 0h1m2 0h1m2 0h1m1 0h1m5 0h1m2 0h2m1 0h1M4 104.5h4m1 0h2m2 0h1m5 0h2m1 0h1m5 0h1m1 0h1m2 0h1m2 0h1m5 0h2m1 0h1m2 0h1m1 0h3m1 0h4m2 0h4m3 0h1m3 0h1m3 0h3m2 0h2m1 0h1m1 0h3m2 0h1m1 0h3m3 0h3m4 0h3m1 0h1m2 0h1m7 0h1m2 0h1m1 0h1m2 0h5m2 0h3m1 0h2m1 0h1m5 0h1m1 0h1m1 0h1m1 0h3m1 0h1m2 0h3m3 0h2m1 0h1m2 0h1m3 0h1m1 0h1M4 105.5h4m1 0h1m2 0h1m2 0h1m1 0h1m1 0h5m1 0h1m2 0h1m6 0h1m1 0h2m1 0h2m1 0h2m3 0h1m1 0h2m3 0h5m2 0h1m2 0h4m1 0h1m1 0h1m3 0h2m1 0h1m1 0h1m1 0h3m3 0h1m1 0h1m2 0h1m4 0h3m3 0h2m1 0h1m7 0h3m1 0h1m1 0h3m1 0h2m1 0h1m1 0h1m3 0h2m1 0h2m4 0h1m1 0h2m1 0h1m1 0h4m1 0h1m1 0h1m4 0h3m2 0h1m1 0h1m2 0h1m1 0h3m1 0h1M4 106.5h2m2 0h1m1 0h1m6 0h1m2 0h2m3 0h1m2 0h2m5 0h2m1 0h2m1 0h3m1 0h1m1 0h1m1 0h1m2 0h2m3 0h2m4 0h1m4 0h3m1 0h2m5 0h2m1 0h1m1 0h2m6 0h1m2 0h1m1 0h4m1 0h1m1 0h1m2 0h6m1 0h2m6 0h2m2 0h1m2 0h5m1 0h2m1 0h1m5 0h2m5 0h1m1 0h1m3 0h1m1 0h3m1 0h1m3 0h1m2 0h2m2 0h1m1 0h1m1 0h2M9 107.5h1m1 0h1m2 0h3m2 0h3m1 0h4m2 0h1m2 0h4m4 0h2m1 0h1m1 0h2m4 0h3m4 0h2m6 0h2m1 0h1m1 0h1m1 0h4m1 0h1m2 0h1m1 0h1m1 0h4m1 0h3m3 0h2m1 0h1m1 0h5m1 0h2m1 0h1m2 0h1m2 0h4m4 0h5m1 0h3m1 0h3m2 0h2m1 0h1m2 0h2m1 0h2m1 0h1m2 0h1m9 0h3m2 0h1m2 0h1m4 0h3M7 108.5h1m1 0h3m3 0h1m1 0h4m1 0h5m3 0h3m1 0h2m1 0h6m3 0h2m1 0h1m1 0h2m1 0h1m5 0h1m1 0h4m1 0h1m3 0h1m3 0h3m1 0h1m2 0h4m1 0h2m1 0h1m1 0h1m1 0h2m3 0h2m1 0h2m2 0h1m3 0h4m3 0h1m2 0h1m3 0h1m2 0h4m1 0h2m1 0h3m1 0h2m1 0h1m1 0h2m4 0h3m2 0h1m1 0h1m2 0h1m1 0h1m5 0h3m1 0h1m2 0h1m3 0h1M6 109.5h1m1 0h1m4 0h4m5 0h2m3 0h1m1 0h2m1 0h3m1 0h3m1 0h6m1 0h2m2 0h1m2 0h1m1 0h1m1 0h1m1 0h1m3 0h2m2 0h2m1 0h2m2 0h1m4 0h1m3 0h2m2 0h2m1 0h1m2 0h1m2 0h1m2 0h2m4 0h2m4 0h1m3 0h1m1 0h1m1 0h1m3 0h1m1 0h2m1 0h1m3 0h5m1 0h1m3 0h12m1 0h3m3 0h4m1 0h5m2 0h1m5 0h1M6 110.5h1m2 0h2m6 0h1m4 0h2m1 0h2m3 0h1m1 0h2m1 0h2m1 0h3m8 0h1m2 0h4m1 0h2m1 0h1m2 0h1m3 0h4m1 0h1m6 0h1m1 0h2m1 0h2m2 0h1m2 0h2m2 0h2m1 0h2m5 0h1m2 0h3m3 0h3m5 0h1m2 0h1m3 0h3m1 0h5m1 0h1m3 0h1m1 0h1m9 0h1m3 0h2m5 0h1m2 0h8m1 0h2M4 111.5h1m1 0h4m3 0h1m5 0h1m3 0h2m2 0h1m6 0h5m2 0h1m1 0h1m1 0h5m3 0h1m4 0h4m2 0h1m1 0h1m9 0h1m1 0h1m1 0h1m4 0h2m1 0h1m1 0h4m2 0h1m1 0h1m2 0h1m1 0h2m1 0h1m1 0h1m6 0h2m2 0h1m1 0h3m1 0h1m1 0h1m3 0h3m1 0h1m4 0h1m1 0h1m1 0h2m2 0h1m2 0h2m1 0h1m2 0h1m1 0h3m1 0h1m1 0h2m2 0h1m3 0h1m1 0h1m2 0h1M5 112.5h1m2 0h5m1 0h2m2 0h1m1 0h2m2 0h1m2 0h6m2 0h1m1 0h2m1 0h1m1 0h3m2 0h4m1 0h1m1 0h2m1 0h1m2 0h1m1 0h5m2 0h1m3 0h2m3 0h6m2 0h4m1 0h2m1 0h2m1 0h1m1 0h2m2 0h1m1 0h3m3 0h2m1 0h1m2 0h2m1 0h2m6 0h3m1 0h2m1 0h3m1 0h2m1 0h2m3 0h4m1 0h1m2 0h4m5 0h1m1 0h5m4 0h2m2 0h2M5 113.5h2m4 0h1m2 0h1m2 0h2m3 0h4m1 0h3m4 0h2m1 0h1m1 0h1m3 0h2m2 0h3m5 0h2m1 0h1m1 0h1m1 0h1m1 0h1m3 0h1m1 0h1m3 0h1m1 0h3m1 0h2m1 0h1m4 0h2m1 0h1m1 0h2m1 0h2m2 0h1m5 0h1m1 0h2m1 0h3m4 0h1m1 0h5m1 0h2m5 0h7m1 0h1m1 0h2m4 0h2m1 0h1m1 0h1m1 0h2m2 0h3m1 0h1m1 0h1m1 0h1m1 0h6m1 0h1m2 0h1M10 114.5h1m1 0h2m3 0h1m2 0h6m1 0h2m1 0h1m6 0h1m2 0h2m4 0h1m2 0h7m3 0h3m1 0h1m1 0h1m1 0h1m1 0h3m5 0h1m1 0h2m1 0h1m1 0h2m5 0h2m1 0h3m1 0h1m3 0h1m2 0h1m1 0h4m2 0h1m1 0h2m2 0h1m1 0h4m2 0h1m4 0h1m1 0h1m1 0h3m2 0h1m1 0h1m2 0h2m2 0h2m3 0h1m3 0h2m2 0h1m2 0h2m1 0h1m1 0h1m3 0h4M6 115.5h3m5 0h4m2 0h1m2 0h5m1 0h1m2 0h3m1 0h2m1 0h2m2 0h1m2 0h1m2 0h1m1 0h2m4 0h3m6 0h1m3 0h1m3 0h1m1 0h1m1 0h2m6 0h1m3 0h2m1 0h2m1 0h1m2 0h1m2 0h1m1 0h3m1 0h5m2 0h3m1 0h1m3 0h1m1 0h1m2 0h3m7 0h1m3 0h1m1 0h2m2 0h1m2 0h1m2 0h2m1 0h1m2 0h1m5 0h1m2 0h1m2 0h1m1 0h2m1 0h4M4 116.5h1m1 0h7m1 0h1m3 0h2m2 0h2m1 0h5m2 0h6m2 0h2m2 0h1m2 0h4m3 0h3m3 0h6m3 0h1m1 0h1m1 0h1m2 0h1m5 0h3m1 0h1m1 0h8m1 0h5m1 0h1m1 0h2m4 0h2m1 0h8m1 0h1m6 0h1m1 0h1m4 0h1m1 0h2m1 0h1m1 0h7m2 0h1m1 0h1m2 0h2m2 0h3m2 0h1m2 0h7M5 117.5h2m1 0h1m3 0h1m1 0h1m1 0h1m1 0h4m1 0h3m1 0h1m4 0h1m3 0h1m1 0h1m2 0h3m1 0h1m2 0h1m1 0h2m4 0h1m1 0h3m3 0h1m1 0h1m1 0h3m3 0h3m8 0h2m1 0h1m3 0h3m2 0h1m1 0h2m4 0h2m2 0h1m1 0h3m1 0h2m3 0h3m1 0h1m1 0h1m2 0h1m5 0h4m2 0h1m2 0h1m3 0h1m1 0h5m1 0h3m2 0h1m1 0h2m1 0h5m1 0h1m3 0h2m1 0h2M4 118.5h1m1 0h1m1 0h1m1 0h1m1 0h2m2 0h3m1 0h2m2 0h2m1 0h3m2 0h1m1 0h1m1 0h2m1 0h3m4 0h1m2 0h2m1 0h2m1 0h1m1 0h2m1 0h1m1 0h1m1 0h2m1 0h1m1 0h2m1 0h2m3 0h1m2 0h1m1 0h4m2 0h1m1 0h1m1 0h2m1 0h1m1 0h2m1 0h1m1 0h2m2 0h6m2 0h3m1 0h1m1 0h1m1 0h1m1 0h2m2 0h1m2 0h2m1 0h2m1 0h3m1 0h1m2 0h1m1 0h1m1 0h3m2 0h1m1 0h1m1 0h1m2 0h2m1 0h1m1 0h3m1 0h1m2 0h1m1 0h1m1 0h1m1 0h1M4 119.5h3m1 0h1m3 0h1m2 0h5m2 0h3m1 0h2m1 0h1m2 0h1m3 0h1m1 0h4m1 0h1m1 0h2m1 0h1m1 0h1m6 0h4m3 0h1m1 0h1m4 0h1m2 0h1m1 0h1m1 0h2m5 0h4m3 0h1m1 0h3m1 0h1m3 0h3m3 0h2m6 0h1m3 0h4m4 0h3m2 0h1m3 0h1m3 0h4m3 0h2m1 0h2m1 0h1m2 0h1m2 0h1m2 0h1m2 0h1m5 0h1m3 0h1m1 0h1M8 120.5h6m5 0h1m2 0h2m1 0h1m1 0h1m1 0h10m2 0h1m2 0h3m2 0h1m2 0h1m1 0h1m1 0h2m2 0h6m3 0h5m2 0h4m2 0h1m2 0h1m2 0h7m2 0h1m2 0h2m1 0h1m1 0h1m5 0h2m2 0h7m6 0h3m1 0h1m7 0h1m1 0h1m1 0h8m4 0h8m1 0h1m2 0h1m2 0h7m2 0h1M6 121.5h2m1 0h1m2 0h4m1 0h1m5 0h1m1 0h1m1 0h1m2 0h1m2 0h2m2 0h4m1 0h1m1 0h2m2 0h1m4 0h4m1 0h1m1 0h3m1 0h1m1 0h3m1 0h5m3 0h1m1 0h3m1 0h2m2 0h1m1 0h1m1 0h1m1 0h4m2 0h1m5 0h4m1 0h3m1 0h1m3 0h4m1 0h1m1 0h2m3 0h1m1 0h4m1 0h1m4 0h1m3 0h2m2 0h4m1 0h1m2 0h1m2 0h4m2 0h1m1 0h1m1 0h1m4 0h1m1 0h2M4 122.5h2m2 0h3m2 0h1m4 0h1m2 0h1m1 0h1m6 0h5m1 0h2m1 0h1m1 0h1m1 0h1m2 0h1m5 0h2m1 0h1m1 0h2m4 0h1m1 0h1m1 0h4m1 0h2m1 0h1m3 0h2m1 0h1m1 0h2m4 0h1m2 0h2m3 0h1m3 0h2m1 0h1m1 0h4m1 0h3m1 0h3m1 0h1m1 0h3m3 0h2m5 0h1m1 0h3m1 0h1m4 0h1m1 0h1m1 0h1m2 0h3m4 0h1m5 0h2m1 0h1m1 0h2m1 0h1m3 0h1M4 123.5h1m3 0h1m2 0h2m4 0h2m1 0h2m4 0h3m1 0h2m1 0h4m2 0h2m2 0h1m1 0h4m2 0h2m5 0h2m1 0h1m1 0h1m1 0h1m3 0h1m4 0h1m1 0h4m1 0h1m3 0h2m1 0h2m4 0h1m1 0h1m1 0h9m7 0h3m4 0h1m3 0h4m1 0h1m1 0h1m1 0h1m3 0h1m1 0h4m2 0h1m4 0h2m1 0h1m2 0h1m2 0h2m1 0h1m1 0h2m1 0h2m1 0h2m1 0h5m1 0h1M10 124.5h2m5 0h11m2 0h1m1 0h1m1 0h7m1 0h1m1 0h1m4 0h13m3 0h1m5 0h2m3 0h4m1 0h2m1 0h5m1 0h2m1 0h1m1 0h1m3 0h2m1 0h1m3 0h2m4 0h3m4 0h1m7 0h4m1 0h2m1 0h1m1 0h1m2 0h5m2 0h4m1 0h1m2 0h5m2 0h1m1 0h2m2 0h1m1 0h1m2 0h1m1 0h1M5 125.5h2m1 0h2m1 0h3m5 0h1m3 0h2m1 0h3m1 0h3m1 0h6m1 0h6m1 0h1m1 0h1m3 0h3m3 0h1m1 0h3m1 0h1m1 0h1m1 0h1m4 0h2m4 0h4m2 0h6m1 0h1m2 0h1m1 0h5m2 0h1m2 0h1m1 0h3m1 0h4m1 0h1m3 0h1m1 0h2m1 0h2m3 0h3m1 0h1m2 0h1m3 0h1m1 0h1m5 0h1m2 0h4m2 0h1m1 0h2m2 0h1m2 0h3m1 0h1m2 0h1m1 0h1M4 126.5h2m4 0h1m3 0h2m2 0h4m2 0h2m2 0h2m1 0h1m2 0h3m2 0h1m3 0h1m3 0h1m4 0h2m1 0h1m2 0h2m1 0h1m2 0h1m2 0h2m1 0h1m1 0h2m3 0h1m1 0h2m1 0h1m1 0h2m1 0h1m2 0h1m4 0h2m1 0h2m10 0h2m2 0h1m3 0h3m4 0h1m2 0h1m2 0h1m1 0h1m2 0h3m1 0h2m2 0h1m1 0h2m9 0h1m1 0h2m2 0h1m3 0h1m1 0h1m2 0h1m1 0h3m2 0h1M4 127.5h2m1 0h2m4 0h2m3 0h5m1 0h1m1 0h2m7 0h1m1 0h1m1 0h2m2 0h1m2 0h3m2 0h1m6 0h3m1 0h1m3 0h2m1 0h1m1 0h1m1 0h2m1 0h4m1 0h1m1 0h1m2 0h1m1 0h4m1 0h2m1 0h1m4 0h4m3 0h2m3 0h3m6 0h2m1 0h1m3 0h2m1 0h1m1 0h2m1 0h1m1 0h1m2 0h1m1 0h1m1 0h2m1 0h1m3 0h3m1 0h1m2 0h2m2 0h3m1 0h2m1 0h1m1 0h2m3 0h1m1 0h1M4 128.5h1m1 0h2m1 0h2m8 0h1m1 0h2m1 0h1m4 0h3m1 0h1m1 0h1m1 0h3m1 0h4m2 0h2m3 0h1m1 0h1m1 0h2m1 0h2m4 0h2m4 0h1m2 0h1m2 0h5m1 0h1m3 0h1m4 0h1m2 0h1m3 0h2m4 0h3m3 0h3m5 0h1m1 0h1m1 0h1m3 0h4m4 0h1m4 0h3m1 0h2m2 0h1m1 0h4m3 0h3m2 0h1m1 0h1m4 0h3m1 0h2m2 0h1M6 129.5h4m2 0h2m1 0h1m8 0h2m2 0h2m4 0h4m3 0h1m1 0h9m1 0h1m2 0h7m1 0h1m6 0h2m3 0h2m2 0h1m1 0h1m1 0h3m2 0h3m1 0h3m1 0h1m1 0h3m1 0h1m2 0h1m2 0h1m2 0h1m2 0h1m2 0h2m1 0h4m1 0h2m1 0h1m1 0h1m1 0h7m5 0h1m1 0h2m2 0h2m3 0h3m2 0h1m2 0h2m2 0h1m1 0h1m1 0h2m1 0h1m3 0h1M7 130.5h5m1 0h6m1 0h1m1 0h1m1 0h1m1 0h1m4 0h1m2 0h1m3 0h1m2 0h1m4 0h1m5 0h2m1 0h1m2 0h2m3 0h3m1 0h2m1 0h1m1 0h1m4 0h1m1 0h6m7 0h1m4 0h6m1 0h1m2 0h2m2 0h1m2 0h1m1 0h3m1 0h6m1 0h2m4 0h5m1 0h1m1 0h3m2 0h1m1 0h1m1 0h1m2 0h3m4 0h4m2 0h1m2 0h1m3 0h2m1 0h1m1 0h2M4 131.5h1m1 0h1m5 0h1m2 0h2m2 0h6m2 0h2m3 0h2m1 0h1m1 0h1m1 0h1m1 0h1m1 0h1m2 0h2m1 0h1m2 0h1m5 0h1m1 0h1m2 0h1m5 0h1m1 0h1m1 0h2m1 0h1m8 0h1m1 0h3m1 0h3m1 0h2m1 0h1m4 0h2m6 0h2m1 0h3m2 0h1m1 0h1m2 0h2m1 0h1m3 0h2m2 0h2m2 0h2m1 0h5m4 0h2m1 0h2m1 0h1m3 0h1m2 0h4m4 0h3m1 0h4M5 132.5h3m1 0h2m4 0h3m2 0h2m1 0h1m2 0h1m4 0h4m1 0h2m1 0h1m2 0h1m1 0h1m2 0h2m1 0h2m2 0h1m1 0h2m1 0h3m4 0h1m4 0h1m1 0h1m1 0h5m1 0h1m1 0h1m4 0h1m1 0h1m1 0h2m1 0h1m1 0h2m1 0h1m1 0h1m2 0h5m1 0h3m1 0h1m4 0h2m1 0h1m1 0h1m2 0h6m1 0h3m1 0h4m1 0h1m1 0h1m1 0h3m1 0h1m3 0h4m2 0h5m2 0h3m3 0h1M4 133.5h1m1 0h2m3 0h1m1 0h3m1 0h1m1 0h2m1 0h1m4 0h1m1 0h4m3 0h2m2 0h2m1 0h3m2 0h2m4 0h4m2 0h1m1 0h4m2 0h4m1 0h8m3 0h1m2 0h1m2 0h5m1 0h1m4 0h1m1 0h1m2 0h1m1 0h2m2 0h1m4 0h4m1 0h1m1 0h3m2 0h3m1 0h4m2 0h1m3 0h1m4 0h1m2 0h6m6 0h3m2 0h3m1 0h1m4 0h1m1 0h2M6 134.5h2m1 0h4m1 0h4m1 0h3m1 0h1m1 0h1m1 0h2m1 0h1m2 0h2m2 0h1m2 0h2m1 0h1m1 0h2m2 0h4m4 0h1m3 0h3m4 0h1m1 0h4m3 0h1m1 0h2m1 0h1m4 0h1m5 0h1m2 0h3m1 0h1m1 0h1m1 0h1m2 0h5m2 0h3m1 0h2m1 0h3m1 0h2m1 0h2m1 0h1m7 0h1m1 0h2m4 0h2m2 0h1m2 0h1m2 0h4m1 0h1m2 0h3m1 0h1m1 0h1m2 0h2m2 0h2M4 135.5h1m1 0h1m1 0h1m6 0h2m1 0h2m3 0h2m1 0h2m5 0h1m2 0h2m1 0h1m6 0h1m1 0h1m3 0h2m4 0h4m1 0h1m2 0h1m2 0h1m4 0h1m1 0h4m3 0h1m1 0h4m3 0h2m1 0h2m1 0h5m1 0h2m1 0h2m5 0h4m1 0h1m1 0h1m5 0h1m1 0h2m4 0h1m1 0h2m2 0h2m1 0h4m4 0h3m2 0h1m1 0h1m5 0h2m2 0h1m3 0h1m1 0h4M4 136.5h1m3 0h1m1 0h1m1 0h2m1 0h4m1 0h1m2 0h1m1 0h2m1 0h1m3 0h1m2 0h1m4 0h5m4 0h3m1 0h2m1 0h2m3 0h1m4 0h1m2 0h2m2 0h2m1 0h3m2 0h1m4 0h1m1 0h4m2 0h1m5 0h1m2 0h1m1 0h1m4 0h4m3 0h1m3 0h1m1 0h1m1 0h1m1 0h4m1 0h2m5 0h4m1 0h1m2 0h10m1 0h1m1 0h1m1 0h1m1 0h1m3 0h3m2 0h1m4 0h2M4 137.5h1m1 0h3m2 0h4m1 0h1m1 0h1m1 0h1m1 0h1m2 0h2m1 0h6m4 0h2m1 0h8m1 0h2m1 0h1m1 0h1m1 0h2m1 0h1m1 0h4m2 0h6m1 0h2m4 0h7m1 0h7m3 0h2m2 0h1m1 0h3m1 0h1m3 0h1m1 0h1m3 0h6m1 0h1m2 0h2m2 0h4m1 0h1m2 0h1m3 0h1m1 0h2m3 0h1m2 0h4m2 0h4m2 0h4m1 0h2m1 0h3m1 0h2M4 138.5h1m5 0h1m5 0h1m1 0h1m1 0h1m1 0h2m3 0h1m1 0h1m1 0h1m1 0h1m4 0h1m3 0h1m2 0h3m1 0h1m2 0h1m3 0h1m1 0h1m3 0h1m1 0h2m2 0h1m1 0h3m4 0h1m1 0h4m1 0h2m3 0h1m1 0h1m5 0h2m1 0h3m1 0h2m1 0h8m1 0h3m1 0h1m4 0h4m1 0h1m6 0h2m1 0h1m2 0h1m1 0h3m3 0h1m2 0h2m4 0h1m2 0h1m1 0h2m4 0h4m1 0h1M5 139.5h1m5 0h1m1 0h1m6 0h1m1 0h1m5 0h1m2 0h4m1 0h3m1 0h3m1 0h1m1 0h1m1 0h1m4 0h1m1 0h2m1 0h2m1 0h3m2 0h1m6 0h1m2 0h4m1 0h1m1 0h1m1 0h4m2 0h3m1 0h2m1 0h1m2 0h2m1 0h1m3 0h1m1 0h2m1 0h2m4 0h1m3 0h1m2 0h2m1 0h3m3 0h2m1 0h2m1 0h5m1 0h1m4 0h1m1 0h1m2 0h1m1 0h2m3 0h1m1 0h2m1 0h1m1 0h1m3 0h4m1 0h1M6 140.5h5m2 0h4m1 0h4m5 0h1m1 0h9m6 0h1m2 0h3m2 0h1m1 0h1m1 0h1m3 0h1m2 0h1m5 0h1m1 0h1m1 0h1m1 0h6m1 0h1m1 0h1m1 0h1m2 0h3m2 0h1m2 0h1m2 0h4m2 0h2m1 0h1m1 0h3m1 0h1m2 0h1m1 0h2m1 0h1m3 0h2m1 0h4m3 0h1m2 0h1m1 0h1m1 0h3m1 0h1m1 0h3m2 0h6m1 0h2m6 0h2m2 0h2m1 0h1M4 141.5h1m1 0h2m4 0h2m2 0h4m2 0h1m2 0h1m1 0h2m1 0h2m4 0h1m1 0h1m2 0h4m1 0h2m1 0h2m3 0h3m2 0h2m1 0h4m3 0h3m1 0h2m1 0h1m2 0h1m1 0h1m1 0h5m2 0h1m1 0h4m1 0h1m1 0h2m2 0h4m4 0h3m4 0h5m1 0h1m1 0h1m6 0h7m5 0h1m1 0h2m2 0h2m1 0h4m1 0h2m4 0h1m2 0h1m3 0h1m4 0h2m1 0h1M9 142.5h2m1 0h1m1 0h1m1 0h1m1 0h1m1 0h1m2 0h3m4 0h1m1 0h1m1 0h3m2 0h3m1 0h1m5 0h6m2 0h2m3 0h2m3 0h2m1 0h2m3 0h1m1 0h1m2 0h1m1 0h1m1 0h2m1 0h1m3 0h1m2 0h1m3 0h1m3 0h2m3 0h6m1 0h2m2 0h1m1 0h5m2 0h1m1 0h2m2 0h2m1 0h1m5 0h1m3 0h1m1 0h2m4 0h1m2 0h4m1 0h1m3 0h1m4 0h6m1 0h2M4 143.5h1m1 0h4m1 0h2m4 0h2m1 0h1m1 0h1m2 0h4m2 0h1m1 0h3m1 0h2m2 0h1m1 0h1m2 0h2m3 0h2m2 0h2m1 0h2m5 0h1m5 0h1m1 0h4m9 0h1m1 0h2m1 0h1m3 0h2m1 0h1m4 0h2m3 0h1m1 0h1m3 0h1m1 0h1m6 0h1m2 0h1m1 0h4m2 0h1m5 0h2m2 0h3m4 0h1m1 0h2m1 0h2m1 0h3m4 0h1m1 0h1m3 0h1m2 0h4M6 144.5h9m2 0h2m1 0h2m1 0h1m2 0h1m1 0h2m2 0h6m1 0h2m1 0h2m7 0h1m1 0h3m1 0h1m1 0h7m1 0h1m3 0h1m2 0h3m2 0h1m1 0h2m1 0h1m1 0h9m3 0h1m1 0h1m4 0h1m1 0h1m4 0h1m3 0h6m6 0h1m1 0h1m1 0h2m6 0h3m1 0h10m1 0h5m2 0h4m4 0h1m1 0h5m2 0h2M5 145.5h1m2 0h1m3 0h1m2 0h2m1 0h4m1 0h1m1 0h2m2 0h1m1 0h2m3 0h3m2 0h5m1 0h1m7 0h2m2 0h2m3 0h3m1 0h1m3 0h3m1 0h2m1 0h1m3 0h3m2 0h1m3 0h1m1 0h1m5 0h2m1 0h1m2 0h1m2 0h1m1 0h1m3 0h2m3 0h3m1 0h1m1 0h2m1 0h1m4 0h1m1 0h4m1 0h1m1 0h2m3 0h1m1 0h4m1 0h2m1 0h1m2 0h2m1 0h2m2 0h1m1 0h3m3 0h3m1 0h1M4 146.5h1m2 0h2m1 0h1m1 0h4m1 0h1m2 0h2m1 0h1m2 0h3m1 0h3m1 0h1m1 0h2m2 0h2m3 0h3m2 0h1m1 0h1m4 0h4m1 0h1m1 0h1m3 0h1m1 0h3m1 0h1m4 0h1m1 0h2m1 0h1m2 0h2m1 0h1m1 0h1m2 0h2m1 0h2m2 0h1m2 0h1m1 0h4m1 0h3m1 0h1m1 0h1m1 0h2m1 0h1m6 0h2m2 0h1m1 0h2m3 0h1m2 0h1m1 0h1m1 0h2m1 0h1m2 0h1m5 0h2m3 0h2m2 0h2m1 0h1m1 0h1m1 0h1m1 0h1M6 147.5h1m1 0h1m3 0h1m5 0h1m1 0h8m2 0h3m3 0h5m5 0h1m2 0h1m1 0h3m2 0h1m1 0h3m3 0h1m1 0h2m5 0h1m2 0h3m7 0h3m3 0h3m1 0h1m1 0h1m4 0h2m1 0h1m1 0h2m3 0h2m1 0h1m3 0h2m4 0h1m1 0h4m1 0h1m1 0h2m1 0h2m1 0h2m1 0h1m3 0h1m2 0h1m1 0h4m3 0h1m2 0h5m4 0h1m3 0h3m1 0h1M4 148.5h1m1 0h8m2 0h1m1 0h1m1 0h3m1 0h2m2 0h1m1 0h11m3 0h1m2 0h4m5 0h1m3 0h9m1 0h1m1 0h1m1 0h6m2 0h1m1 0h2m2 0h5m7 0h1m1 0h2m1 0h3m2 0h3m3 0h6m1 0h1m1 0h1m2 0h1m1 0h1m1 0h1m2 0h1m1 0h1m2 0h9m1 0h5m2 0h2m3 0h3m3 0h1m1 0h7m2 0h2M4 149.5h1m2 0h2m3 0h2m1 0h1m1 0h2m1 0h1m2 0h1m3 0h7m1 0h1m1 0h1m2 0h2m3 0h2m1 0h1m1 0h1m2 0h2m1 0h1m4 0h1m1 0h3m2 0h1m3 0h2m1 0h4m1 0h5m2 0h2m1 0h1m1 0h1m1 0h1m4 0h2m2 0h4m2 0h1m1 0h1m1 0h1m3 0h1m1 0h6m1 0h1m2 0h1m3 0h1m2 0h2m1 0h1m4 0h2m1 0h2m1 0h4m1 0h2m4 0h1m1 0h2m3 0h1m2 0h3m1 0h1m1 0h1m1 0h2M8 150.5h1m1 0h1m1 0h6m1 0h2m1 0h2m1 0h2m1 0h2m2 0h5m1 0h2m1 0h2m3 0h1m2 0h1m2 0h1m2 0h1m1 0h1m2 0h6m4 0h1m1 0h1m2 0h3m2 0h1m1 0h1m1 0h2m3 0h1m1 0h3m3 0h2m3 0h1m4 0h10m1 0h1m2 0h2m1 0h2m4 0h1m1 0h9m3 0h1m2 0h3m1 0h1m3 0h1m2 0h1m1 0h1m1 0h2m1 0h3m1 0h1m2 0h1M5 151.5h1m2 0h2m2 0h1m1 0h2m1 0h5m1 0h3m7 0h3m2 0h5m3 0h1m2 0h1m1 0h2m2 0h2m1 0h3m1 0h1m1 0h2m5 0h1m2 0h5m2 0h2m3 0h1m1 0h2m6 0h1m1 0h1m3 0h1m3 0h1m3 0h2m1 0h1m1 0h1m1 0h4m1 0h2m3 0h1m3 0h2m4 0h1m1 0h1m1 0h6m1 0h2m4 0h1m2 0h1m1 0h3m1 0h1m2 0h1m2 0h1m1 0h2m1 0h1m2 0h2M6 152.5h6m2 0h1m2 0h1m3 0h1m1 0h1m2 0h1m2 0h1m2 0h4m5 0h2m5 0h3m1 0h4m1 0h1m1 0h5m1 0h2m3 0h3m1 0h1m2 0h1m3 0h1m1 0h1m3 0h1m3 0h1m1 0h2m5 0h2m5 0h1m1 0h5m1 0h5m1 0h1m6 0h1m1 0h3m4 0h1m2 0h1m1 0h1m1 0h3m3 0h3m2 0h4m1 0h1m1 0h1m5 0h3m1 0h2m1 0h2m3 0h1M6 153.5h4m1 0h1m1 0h2m2 0h2m2 0h2m3 0h2m2 0h3m2 0h4m1 0h1m2 0h3m2 0h2m3 0h4m5 0h1m2 0h1m4 0h2m5 0h1m1 0h1m1 0h2m1 0h1m2 0h4m1 0h3m1 0h2m7 0h2m1 0h2m1 0h1m5 0h1m3 0h2m1 0h4m1 0h1m4 0h1m1 0h2m1 0h1m4 0h1m1 0h4m2 0h2m2 0h1m1 0h2m1 0h4m1 0h1m1 0h1m2 0h1m1 0h1m6 0h1M4 154.5h1m2 0h1m2 0h1m1 0h2m1 0h4m1 0h2m2 0h1m3 0h2m1 0h1m2 0h1m1 0h1m4 0h3m2 0h1m4 0h3m4 0h4m2 0h2m1 0h2m1 0h1m8 0h2m1 0h1m1 0h2m2 0h5m2 0h1m1 0h2m1 0h1m1 0h1m1 0h1m2 0h4m3 0h1m3 0h1m2 0h2m1 0h1m4 0h2m3 0h2m1 0h3m1 0h2m8 0h1m1 0h1m3 0h2m1 0h1m4 0h1m1 0h1m1 0h3m4 0h3M4 155.5h3m1 0h2m1 0h1m3 0h1m2 0h2m2 0h3m2 0h4m3 0h7m1 0h1m2 0h2m1 0h1m2 0h1m1 0h1m1 0h1m1 0h3m2 0h1m4 0h1m3 0h1m1 0h1m2 0h4m3 0h1m2 0h1m2 0h1m3 0h1m1 0h2m1 0h1m3 0h3m1 0h1m1 0h2m3 0h1m1 0h2m1 0h1m2 0h2m2 0h4m1 0h4m1 0h2m3 0h3m1 0h4m3 0h1m2 0h2m1 0h1m1 0h1m1 0h1m1 0h2m1 0h1m2 0h1m1 0h2m1 0h2m2 0h2M5 156.5h1m1 0h2m1 0h1m1 0h3m4 0h1m2 0h1m3 0h1m6 0h1m1 0h3m2 0h1m2 0h1m1 0h1m4 0h3m1 0h1m1 0h1m2 0h1m1 0h1m2 0h1m1 0h5m2 0h1m1 0h7m5 0h2m5 0h2m1 0h1m1 0h2m2 0h1m1 0h3m1 0h5m1 0h1m1 0h1m1 0h3m1 0h1m1 0h1m1 0h2m1 0h4m6 0h3m1 0h1m3 0h1m1 0h1m1 0h1m5 0h2m1 0h1m3 0h1m1 0h4m1 0h1m1 0h3m3 0h1M11 157.5h1m1 0h1m3 0h3m1 0h1m1 0h8m2 0h1m1 0h4m2 0h5m2 0h4m4 0h3m6 0h1m1 0h2m1 0h1m1 0h1m1 0h1m2 0h1m1 0h1m1 0h4m2 0h4m1 0h3m6 0h1m1 0h4m1 0h2m2 0h1m2 0h1m1 0h2m1 0h1m1 0h3m1 0h1m6 0h7m1 0h1m2 0h1m2 0h3m1 0h2m1 0h1m1 0h2m4 0h2m1 0h1m2 0h1m1 0h1m1 0h2m1 0h1m2 0h3M6 158.5h1m1 0h6m1 0h5m2 0h2m3 0h2m6 0h1m1 0h4m2 0h1m7 0h5m2 0h1m1 0h2m1 0h3m1 0h6m4 0h1m1 0h4m2 0h1m4 0h3m1 0h1m1 0h1m1 0h3m1 0h1m1 0h1m2 0h5m2 0h1m2 0h1m1 0h3m1 0h1m2 0h3m2 0h2m1 0h1m1 0h4m5 0h1m2 0h2m1 0h1m6 0h1m1 0h1m1 0h1m8 0h1m1 0h1m3 0h1m1 0h1M5 159.5h2m1 0h2m1 0h1m1 0h2m2 0h1m3 0h2m5 0h1m1 0h2m2 0h2m1 0h1m2 0h4m1 0h2m5 0h1m4 0h5m2 0h1m1 0h2m3 0h1m1 0h2m1 0h1m1 0h2m1 0h4m1 0h1m1 0h3m5 0h3m3 0h3m1 0h1m1 0h1m2 0h1m3 0h2m1 0h1m1 0h1m2 0h1m1 0h1m1 0h1m1 0h2m1 0h1m1 0h3m3 0h8m4 0h1m1 0h1m2 0h1m2 0h1m2 0h1m2 0h1m2 0h1m1 0h8M8 160.5h1m1 0h1m1 0h9m1 0h3m1 0h1m1 0h2m1 0h1m2 0h1m1 0h1m1 0h1m1 0h1m1 0h2m5 0h1m3 0h3m2 0h2m1 0h1m1 0h1m1 0h1m1 0h1m1 0h1m2 0h1m2 0h4m1 0h2m2 0h2m1 0h1m1 0h1m3 0h2m2 0h1m1 0h2m4 0h1m3 0h1m2 0h2m2 0h1m2 0h1m1 0h1m8 0h1m1 0h1m6 0h4m1 0h1m5 0h2m3 0h1m1 0h2m1 0h1m1 0h1m1 0h2m1 0h1m2 0h1m1 0h1m4 0h1M5 161.5h2m1 0h2m2 0h5m1 0h1m3 0h1m2 0h1m1 0h1m2 0h1m1 0h10m1 0h2m1 0h3m1 0h2m4 0h1m1 0h1m1 0h1m2 0h1m1 0h1m1 0h2m1 0h4m5 0h6m1 0h3m1 0h1m3 0h2m3 0h2m3 0h1m1 0h1m4 0h3m3 0h1m1 0h4m1 0h1m1 0h1m6 0h6m5 0h1m1 0h1m1 0h2m1 0h2m1 0h1m1 0h1m5 0h1m1 0h1m3 0h2M4 162.5h2m4 0h4m2 0h1m1 0h2m2 0h5m2 0h1m1 0h1m1 0h1m2 0h2m1 0h1m3 0h1m1 0h1m3 0h2m1 0h1m1 0h1m2 0h2m1 0h2m2 0h1m3 0h1m1 0h3m2 0h3m1 0h2m1 0h1m1 0h2m3 0h1m1 0h2m2 0h1m2 0h1m1 0h1m1 0h3m3 0h7m1 0h1m1 0h1m2 0h5m1 0h1m1 0h1m1 0h1m1 0h1m1 0h2m1 0h1m2 0h1m1 0h1m7 0h1m8 0h4m1 0h3m1 0h1m1 0h1m1 0h1m4 0h2M5 163.5h1m5 0h5m1 0h1m4 0h2m1 0h2m1 0h2m1 0h2m5 0h3m2 0h1m1 0h2m5 0h2m1 0h1m2 0h2m1 0h4m1 0h1m7 0h1m1 0h1m1 0h2m1 0h1m3 0h2m1 0h2m1 0h1m4 0h3m4 0h2m3 0h1m1 0h1m2 0h1m1 0h1m1 0h7m4 0h1m1 0h3m1 0h2m1 0h1m2 0h1m1 0h1m1 0h4m1 0h1m4 0h1m8 0h1m2 0h1m2 0h1m1 0h1m2 0h3m1 0h1M6 164.5h1m1 0h4m2 0h1m4 0h1m2 0h3m1 0h4m1 0h1m2 0h2m3 0h2m1 0h1m2 0h1m1 0h5m2 0h4m1 0h4m4 0h1m2 0h2m1 0h5m6 0h1m3 0h2m3 0h3m1 0h1m2 0h2m3 0h2m2 0h1m2 0h3m1 0h1m1 0h1m4 0h1m4 0h1m1 0h1m1 0h1m6 0h4m2 0h1m3 0h1m1 0h1m1 0h1m2 0h3m3 0h1m1 0h1m2 0h4m1 0h1m3 0h1m2 0h2M6 165.5h1m5 0h1m1 0h1m1 0h4m2 0h1m1 0h1m2 0h2m1 0h1m1 0h1m1 0h4m3 0h1m3 0h1m2 0h2m3 0h3m5 0h1m4 0h1m1 0h1m1 0h4m2 0h1m3 0h3m1 0h1m2 0h4m2 0h3m3 0h1m4 0h1m1 0h3m3 0h1m3 0h2m3 0h1m2 0h1m1 0h2m1 0h1m3 0h2m1 0h1m1 0h1m5 0h1m1 0h1m1 0h1m2 0h2m1 0h3m5 0h3m1 0h1m1 0h2m1 0h1m1 0h1m1 0h1m4 0h1M4 166.5h1m4 0h5m1 0h5m6 0h3m1 0h1m1 0h2m1 0h1m3 0h1m1 0h2m4 0h1m1 0h1m1 0h2m1 0h1m3 0h5m1 0h1m2 0h1m2 0h3m2 0h1m4 0h1m1 0h1m1 0h2m2 0h7m1 0h3m1 0h1m1 0h1m4 0h5m1 0h2m3 0h3m2 0h3m2 0h1m2 0h1m6 0h2m1 0h2m2 0h1m2 0h1m1 0h1m2 0h1m5 0h3m1 0h1m1 0h2m2 0h3m6 0h2M4 167.5h3m1 0h2m1 0h1m6 0h4m1 0h1m1 0h2m1 0h2m1 0h1m3 0h2m1 0h1m1 0h3m2 0h1m1 0h1m3 0h2m2 0h1m2 0h2m2 0h3m1 0h1m1 0h1m6 0h2m1 0h2m1 0h1m1 0h1m2 0h1m1 0h1m2 0h1m5 0h3m1 0h2m1 0h1m1 0h1m1 0h1m1 0h1m3 0h5m1 0h1m1 0h3m1 0h3m2 0h3m2 0h2m2 0h4m1 0h2m4 0h1m2 0h2m1 0h1m1 0h1m3 0h1m1 0h3m3 0h1m1 0h2m1 0h1m1 0h2M4 168.5h3m2 0h2m2 0h5m1 0h1m1 0h2m6 0h1m3 0h2m1 0h4m1 0h2m3 0h1m4 0h1m1 0h2m1 0h2m2 0h1m6 0h3m6 0h1m1 0h1m2 0h2m2 0h2m1 0h2m1 0h1m2 0h2m1 0h1m2 0h1m2 0h1m1 0h1m1 0h1m4 0h1m2 0h2m1 0h2m1 0h1m1 0h2m3 0h1m1 0h1m1 0h2m5 0h4m1 0h2m3 0h2m4 0h1m1 0h2m2 0h2m2 0h1m4 0h1m1 0h2m2 0h1m3 0h1M5 169.5h1m2 0h2m2 0h2m4 0h1m4 0h3m1 0h2m1 0h1m1 0h1m4 0h1m1 0h2m1 0h3m1 0h5m4 0h2m1 0h1m1 0h1m4 0h1m2 0h1m1 0h6m1 0h1m2 0h2m1 0h2m1 0h2m1 0h1m1 0h4m2 0h1m2 0h1m5 0h2m4 0h2m1 0h1m2 0h2m1 0h4m1 0h2m3 0h1m1 0h2m1 0h1m1 0h1m5 0h1m2 0h2m2 0h3m1 0h1m1 0h2m2 0h1m2 0h2m1 0h3m1 0h1m3 0h1m1 0h2m1 0h1M4 170.5h3m2 0h2m1 0h3m1 0h1m1 0h1m2 0h3m2 0h2m1 0h5m3 0h3m2 0h1m2 0h1m4 0h1m1 0h2m1 0h1m1 0h1m2 0h2m1 0h2m3 0h3m1 0h2m6 0h3m1 0h1m4 0h2m1 0h3m1 0h4m1 0h2m6 0h2m1 0h1m1 0h1m1 0h2m1 0h3m2 0h2m1 0h1m3 0h1m2 0h1m7 0h1m2 0h1m1 0h2m1 0h2m1 0h3m1 0h1m2 0h1m4 0h2m3 0h4m1 0h1m1 0h3M7 171.5h1m3 0h3m1 0h2m2 0h5m3 0h2m3 0h2m1 0h3m1 0h1m1 0h2m3 0h1m2 0h1m5 0h6m1 0h1m1 0h3m3 0h2m1 0h2m1 0h3m7 0h4m1 0h1m2 0h1m1 0h1m1 0h1m2 0h2m1 0h3m1 0h3m2 0h1m1 0h1m2 0h1m1 0h1m2 0h2m3 0h1m2 0h3m1 0h1m1 0h2m1 0h1m1 0h2m1 0h4m2 0h1m2 0h1m2 0h1m2 0h1m2 0h1m2 0h4m1 0h1m4 0h1m1 0h3M5 172.5h1m1 0h1m1 0h2m3 0h1m2 0h2m4 0h5m2 0h8m1 0h1m1 0h1m1 0h3m1 0h4m2 0h1m3 0h1m2 0h5m2 0h2m1 0h1m2 0h5m1 0h2m3 0h12m1 0h2m1 0h1m4 0h3m1 0h1m1 0h3m1 0h6m6 0h4m1 0h1m6 0h2m1 0h1m1 0h5m1 0h1m1 0h2m1 0h5m1 0h4m3 0h3m1 0h6m1 0h2M12 173.5h1m4 0h4m1 0h1m1 0h2m1 0h1m2 0h1m1 0h1m3 0h6m1 0h2m1 0h1m1 0h1m1 0h2m4 0h1m2 0h2m3 0h3m1 0h5m4 0h1m1 0h5m1 0h1m1 0h2m3 0h1m1 0h1m1 0h1m1 0h1m2 0h1m4 0h3m2 0h2m3 0h1m3 0h3m1 0h1m1 0h2m8 0h4m3 0h2m3 0h1m2 0h3m4 0h1m3 0h3m3 0h2m2 0h1m3 0h1m1 0h3M4 174.5h7m1 0h1m1 0h1m1 0h3m1 0h13m1 0h1m1 0h2m7 0h3m3 0h4m2 0h1m2 0h1m1 0h1m1 0h1m2 0h2m1 0h1m1 0h1m2 0h1m4 0h1m1 0h2m3 0h2m1 0h1m1 0h2m1 0h3m2 0h2m1 0h2m4 0h1m1 0h1m2 0h1m1 0h1m1 0h1m1 0h1m4 0h3m4 0h1m4 0h1m1 0h1m1 0h1m2 0h1m1 0h1m1 0h1m1 0h2m1 0h3m1 0h1m2 0h1m4 0h3m1 0h1m1 0h2m1 0h1m1 0h1M4 175.5h1m5 0h1m3 0h3m2 0h2m2 0h2m1 0h3m3 0h1m3 0h1m1 0h2m1 0h3m1 0h5m3 0h1m1 0h1m1 0h2m1 0h1m3 0h1m1 0h2m6 0h1m1 0h4m3 0h1m4 0h1m3 0h3m1 0h1m1 0h1m3 0h1m1 0h1m1 0h2m1 0h1m5 0h2m3 0h1m2 0h2m1 0h1m3 0h1m2 0h2m1 0h2m1 0h1m4 0h1m3 0h1m2 0h1m2 0h1m5 0h1m3 0h1m1 0h4m1 0h2m3 0h1m1 0h2M4 176.5h1m1 0h3m1 0h1m1 0h1m1 0h1m2 0h1m1 0h1m2 0h1m3 0h1m2 0h9m3 0h2m1 0h1m5 0h2m1 0h2m1 0h1m3 0h9m1 0h1m2 0h4m1 0h1m2 0h2m1 0h1m1 0h1m1 0h5m1 0h2m1 0h1m1 0h2m1 0h1m2 0h3m1 0h4m1 0h1m1 0h6m3 0h1m2 0h1m1 0h1m1 0h1m6 0h13m3 0h1m1 0h1m2 0h1m1 0h1m1 0h1m3 0h10m1 0h2M4 177.5h1m1 0h3m1 0h1m1 0h2m1 0h1m1 0h1m3 0h1m2 0h2m2 0h4m3 0h1m1 0h4m2 0h2m1 0h1m1 0h2m6 0h1m1 0h6m2 0h1m1 0h2m2 0h1m2 0h1m1 0h4m2 0h1m2 0h2m1 0h1m2 0h3m1 0h1m6 0h2m1 0h2m1 0h1m2 0h1m6 0h1m1 0h4m1 0h1m6 0h6m2 0h1m2 0h1m7 0h1m1 0h1m1 0h4m1 0h4m2 0h3m3 0h4M4 178.5h1m1 0h3m1 0h1m1 0h1m1 0h1m2 0h2m3 0h1m2 0h2m1 0h5m1 0h3m1 0h1m1 0h2m1 0h1m1 0h1m6 0h2m1 0h1m3 0h3m6 0h1m1 0h1m1 0h1m6 0h2m1 0h1m1 0h2m5 0h2m2 0h1m1 0h3m2 0h1m2 0h6m1 0h1m1 0h2m5 0h1m1 0h5m4 0h1m1 0h1m2 0h2m2 0h1m3 0h4m2 0h1m3 0h1m1 0h1m2 0h1m4 0h2m4 0h3m1 0h1m1 0h2M4 179.5h1m5 0h1m1 0h1m1 0h3m1 0h1m2 0h1m2 0h1m1 0h2m1 0h1m1 0h2m4 0h1m1 0h5m2 0h4m5 0h1m1 0h3m1 0h2m1 0h4m5 0h7m5 0h2m2 0h1m1 0h4m1 0h2m3 0h4m3 0h1m3 0h3m1 0h5m1 0h1m2 0h2m1 0h4m1 0h2m1 0h1m3 0h1m7 0h2m4 0h1m1 0h1m2 0h1m6 0h3m3 0h2m2 0h1m1 0h1M4 180.5h7m1 0h1m5 0h2m1 0h1m2 0h3m2 0h3m1 0h1m2 0h1m3 0h5m4 0h3m2 0h3m2 0h2m1 0h3m1 0h2m1 0h2m2 0h2m4 0h1m1 0h3m2 0h1m1 0h1m4 0h3m2 0h1m1 0h2m1 0h1m1 0h2m4 0h1m2 0h3m1 0h3m2 0h1m1 0h1m1 0h2m1 0h3m3 0h2m1 0h6m1 0h1m1 0h1m1 0h2m5 0h2m2 0h4m5 0h2m1 0h1m1 0h1m3 0h1"/></svg>
