<?xml version="1.0" encoding="utf-8"?><!DOCTYPE svg PUBLIC "-//W3C//DTD SVG 1.1//EN" "http://www.w3.org/Graphics/SVG/1.1/DTD/svg11.dtd"><svg xmlns="http://www.w3.org/2000/svg" viewBox="0 0 185 185" shape-rendering="crispEdges"><path fill="#ffffff" d="M0 0h185v185H0z"/><path stroke="#000000" d="M4 4.5h7m2 0h1m1 0h2m3 0h1m2 0h1m2 0h4m4 0h1m3 0h1m1 0h3m1 0h3m1 0h1m1 0h1m5 0h2m1 0h2m2 0h2m2 0h1m1 0h1m1 0h2m2 0h3m2 0h1m3 0h2m1 0h1m1 0h1m1 0h1m1 0h2m2 0h1m7 0h3m1 0h1m3 0h1m1 0h1m1 0h3m1 0h7m3 0h1m2 0h1m1 0h1m1 0h1m9 0h1m1 0h1m1 0h1m3 0h2m1 0h1m4 0h1m3 0h1m1 0h1m3 0h7M4 5.5h1m5 0h1m1 0h1m2 0h1m3 0h1m1 0h1m1 0h1m1 0h4m1 0h2m2 0h3m1 0h1m1 0h1m2 0h1m1 0h3m2 0h3m1 0h1m2 0h2m3 0h3m2 0h4m2 0h1m1 0h1m1 0h1m1 0h2m1 0h1m1 0h1m3 0h1m2 0h1m3 0h2m1 0h1m1 0h1m1 0h1m2 0h8m1 0h1m1 0h3m1 0h3m2 0h3m1 0h1m1 0h3m3 0h2m4 0h4m3 0h2m1 0h2m4 0h5m1 0h2m2 0h2m1 0h1m1 0h1m5 0h1M4 6.5h1m1 0h3m1 0h1m2 0h2m2 0h1m1 0h1m1 0h1m2 0h1m2 0h2m2 0h2m1 0h3m1 0h1m1 0h2m2 0h3m5 0h1m2 0h1m1 0h3m1 0h1m1 0h1m2 0h2m1 0h1m1 0h1m2 0h1m1 0h1m2 0h1m5 0h3m3 0h2m2 0h3m3 0h6m1 0h1m2 0h1m4 0h1m7 0h1m3 0h2m6 0h1m3 0h2m1 0h1m7 0h1m2 0h3m3 0h1m2 0h2m1 0h1m2 0h2m3 0h1m1 0h3m1 0h1M4 7.5h1m1 0h3m1 0h1m1 0h4m1 0h3m1 0h1m1 0h3m1 0h1m4 0h2m1 0h4m1 0h1m2 0h2m2 0h3m1 0h1m2 0h1m4 0h1m5 0h2m3 0h2m4 0h1m3 0h2m3 0h2m3 0h1m1 0h1m1 0h1m3 0h3m2 0h1m1 0h2m2 0h4m4 0h1m1 0h1m1 0h1m3 0h1m1 0h4m1 0h2m3 0h1m1 0h4m1 0h3m1 0h1m1 0h3m2 0h1m2 0h5m1 0h2m2 0h1m2 0h2m1 0h1m1 0h3m1 0h1M4 8.5h1m1 0h3m1 0h1m4 0h2m4 0h4m1 0h1m3 0h1m1 0h7m1 0h2m1 0h2m3 0h1m1 0h2m1 0h1m2 0h2m1 0h7m1 0h3m1 0h2m1 0h2m2 0h2m1 0h1m1 0h1m1 0h1m1 0h9m1 0h1m2 0h2m4 0h1m1 0h1m3 0h2m1 0h13m5 0h4m1 0h2m3 0h6m2 0h2m3 0h2m1 0h1m3 0h3m2 0h2m4 0h1m1 0h3m1 0h1M4 9.5h1m5 0h1m1 0h1m2 0h1m1 0h2m1 0h2m1 0h1m2 0h1m2 0h1m2 0h1m3 0h1m1 0h1m3 0h2m2 0h2m1 0h1m2 0h1m1 0h1m2 0h4m3 0h1m3 0h3m1 0h1m2 0h2m5 0h1m1 0h2m1 0h2m3 0h4m2 0h1m2 0h2m1 0h2m4 0h2m1 0h1m2 0h1m3 0h1m2 0h1m1 0h2m3 0h2m1 0h3m1 0h2m2 0h2m1 0h1m3 0h1m1 0h1m2 0h2m2 0h4m2 0h1m6 0h1m1 0h1m1 0h1m5 0h1M4 10.5h7m1 0h1m1 0h1m1 0h1m1 0h1m1 0h1m1 0h1m1 0h1m1 0h1m1 0h1m1 0h1m1 0h1m1 0h1m1 0h1m1 0h1m1 0h1m1 0h1m1 0h1m1 0h1m1 0h1m1 0h1m1 0h1m1 0h1m1 0h1m1 0h1m1 0h1m1 0h1m1 0h1m1 0h1m1 0h1m1 0h1m1 0h1m1 0h1m1 0h1m1 0h1m1 0h1m1 0h1m1 0h1m1 0h1m1 0h1m1 0h1m1 0h1m1 0h1m1 0h1m1 0h1m1 0h1m1 0h1m1 0h1m1 0h1m1 0h1m1 0h1m1 0h1m1 0h1m1 0h1m1 0h1m1 0h1m1 0h1m1 0h1m1 0h1m1 0h1m1 0h1m1 0h1m1 0h1m1 0h1m1 0h1m1 0h1m1 0h1m1 0h1m1 0h1m1 0h1m1 0h1m1 0h1m1 0h1m1 0h1m1 0h1m1 0h1m1 0h1m1 0h1m1 0h1m1 0h1m1 0h1m1 0h1m1 0h7M13 11.5h3m2 0h1m2 0h2m4 0h2m1 0h1m1 0h1m3 0h2m1 0h1m6 0h1m1 0h1m3 0h1m2 0h2m1 0h1m1 0h1m3 0h4m1 0h1m1 0h1m1 0h4m1 0h2m1 0h1m1 0h1m2 0h1m1 0h1m3 0h2m2 0h2m3 0h4m1 0h1m1 0h2m3 0h2m1 0h1m3 0h1m2 0h1m3 0h1m1 0h1m2 0h2m2 0h4m1 0h4m3 0h1m5 0h2m5 0h1m2 0h3m2 0h1m2 0h1M4 12.5h5m1 0h4m2 0h2m2 0h2m3 0h2m1 0h3m1 0h9m1 0h1m4 0h3m4 0h1m1 0h2m2 0h11m3 0h4m3 0h2m3 0h7m1 0h2m1 0h2m1 0h1m1 0h2m2 0h2m4 0h1m3 0h6m1 0h1m1 0h1m2 0h3m1 0h2m1 0h1m1 0h1m1 0h4m1 0h5m1 0h3m2 0h1m2 0h2m1 0h2m4 0h1m1 0h2m1 0h2m1 0h1m1 0h1m1 0h1M5 13.5h5m2 0h1m2 0h1m1 0h1m1 0h1m4 0h1m1 0h4m2 0h2m1 0h1m1 0h3m1 0h2m1 0h7m3 0h3m4 0h2m1 0h1m1 0h2m1 0h6m2 0h1m1 0h1m2 0h1m1 0h1m3 0h2m1 0h4m2 0h1m2 0h1m3 0h1m1 0h1m1 0h2m1 0h1m4 0h1m1 0h2m1 0h6m6 0h2m1 0h1m1 0h2m1 0h4m2 0h4m2 0h1m1 0h2m1 0h1m3 0h1m1 0h2m1 0h2m1 0h2m3 0h2m1 0h1m1 0h1M6 14.5h2m2 0h1m1 0h1m2 0h1m1 0h4m1 0h1m1 0h2m4 0h2m2 0h1m1 0h2m1 0h1m2 0h2m2 0h1m5 0h1m5 0h1m1 0h1m2 0h1m3 0h2m1 0h1m8 0h4m4 0h2m1 0h2m2 0h2m1 0h4m1 0h2m5 0h7m1 0h2m1 0h4m2 0h1m2 0h1m2 0h1m1 0h4m1 0h2m3 0h1m4 0h2m3 0h1m5 0h1m2 0h1m2 0h2m1 0h1m1 0h1m2 0h1m2 0h1M6 15.5h1m2 0h1m5 0h1m5 0h2m1 0h1m3 0h3m1 0h1m3 0h1m3 0h3m1 0h4m1 0h1m2 0h2m4 0h1m1 0h2m1 0h1m2 0h2m3 0h6m1 0h1m2 0h1m1 0h1m5 0h1m6 0h1m5 0h3m3 0h1m4 0h2m2 0h1m1 0h1m1 0h1m1 0h1m2 0h2m1 0h2m1 0h1m3 0h2m1 0h5m1 0h1m1 0h1m3 0h1m2 0h4m1 0h2m2 0h1m1 0h2m1 0h1m2 0h2m1 0h3m1 0h1M4 16.5h9m1 0h4m3 0h2m1 0h2m1 0h5m2 0h1m1 0h3m1 0h1m2 0h2m2 0h4m1 0h2m1 0h2m2 0h1m1 0h1m7 0h1m2 0h1m1 0h4m4 0h2m2 0h1m1 0h1m1 0h3m1 0h1m4 0h2m2 0h1m1 0h1m1 0h1m3 0h4m1 0h1m1 0h1m1 0h2m3 0h1m1 0h2m1 0h1m1 0h1m4 0h1m2 0h1m1 0h1m5 0h1m1 0h1m1 0h2m1 0h1m1 0h3m2 0h1m1 0h1m2 0h2m1 0h2m3 0h1M6 17.5h1m5 0h1m2 0h4m1 0h1m5 0h5m3 0h3m2 0h1m3 0h3m2 0h2m3 0h4m2 0h1m1 0h4m2 0h1m3 0h3m1 0h1m1 0h1m3 0h1m1 0h3m1 0h6m1 0h1m2 0h1m8 0h1m2 0h1m1 0h1m4 0h1m2 0h4m1 0h1m1 0h1m6 0h4m1 0h1m2 0h1m1 0h3m1 0h1m1 0h4m3 0h1m1 0h1m3 0h1m1 0h3m1 0h1m2 0h1m1 0h1m5 0h2M4 18.5h2m1 0h1m2 0h4m3 0h1m3 0h1m2 0h5m1 0h9m1 0h3m2 0h3m3 0h2m2 0h1m1 0h2m1 0h3m4 0h2m1 0h1m1 0h1m4 0h1m1 0h2m1 0h1m1 0h1m3 0h2m1 0h1m6 0h2m2 0h1m1 0h1m2 0h6m1 0h2m2 0h1m1 0h1m1 0h5m2 0h1m1 0h1m3 0h2m2 0h1m3 0h2m1 0h2m6 0h1m2 0h7m1 0h2m3 0h1m4 0h5M4 19.5h1m1 0h1m7 0h1m1 0h1m2 0h1m1 0h6m1 0h2m2 0h1m3 0h1m2 0h2m2 0h1m2 0h4m2 0h2m1 0h4m1 0h1m2 0h1m1 0h3m1 0h1m1 0h1m2 0h3m1 0h2m1 0h1m3 0h1m1 0h1m8 0h1m1 0h1m1 0h1m1 0h3m1 0h1m1 0h1m2 0h1m1 0h1m3 0h1m1 0h1m1 0h2m3 0h3m1 0h1m1 0h1m5 0h2m1 0h2m2 0h1m1 0h1m1 0h1m4 0h2m9 0h2m2 0h1m2 0h1m3 0h1m1 0h2M5 20.5h2m1 0h3m3 0h1m2 0h1m1 0h3m4 0h5m1 0h4m2 0h1m2 0h2m1 0h1m9 0h2m1 0h1m3 0h1m3 0h3m3 0h2m4 0h2m4 0h1m6 0h1m2 0h2m2 0h1m1 0h4m4 0h1m1 0h2m1 0h1m1 0h1m1 0h2m3 0h1m1 0h1m3 0h2m1 0h1m1 0h2m3 0h1m2 0h1m1 0h1m1 0h3m1 0h2m1 0h2m2 0h1m2 0h1m1 0h4m1 0h1m1 0h1m1 0h7m3 0h2M4 21.5h4m1 0h1m2 0h4m2 0h2m1 0h1m1 0h1m1 0h2m1 0h1m2 0h1m2 0h3m1 0h2m3 0h2m1 0h1m1 0h2m4 0h4m2 0h5m2 0h3m7 0h6m5 0h1m1 0h1m1 0h4m3 0h3m1 0h1m2 0h1m1 0h2m1 0h1m3 0h2m2 0h9m3 0h1m2 0h1m1 0h1m1 0h2m5 0h1m1 0h2m2 0h2m1 0h5m3 0h5m1 0h2m6 0h3m1 0h1M4 22.5h1m5 0h1m5 0h1m4 0h1m1 0h1m1 0h1m1 0h2m1 0h1m5 0h2m1 0h3m1 0h1m3 0h1m2 0h1m1 0h3m4 0h1m1 0h1m3 0h1m1 0h2m1 0h1m1 0h2m1 0h1m1 0h1m1 0h2m1 0h4m1 0h1m3 0h1m1 0h1m1 0h1m2 0h2m2 0h3m2 0h2m1 0h6m2 0h1m5 0h1m1 0h1m1 0h1m4 0h1m1 0h2m1 0h2m1 0h3m2 0h1m2 0h1m1 0h1m1 0h1m3 0h1m2 0h2m3 0h1m1 0h1m2 0h1m3 0h5M6 23.5h2m1 0h1m1 0h1m1 0h2m1 0h2m2 0h5m1 0h1m1 0h1m4 0h1m5 0h1m1 0h1m1 0h1m2 0h2m7 0h1m1 0h1m3 0h2m1 0h3m2 0h1m3 0h2m1 0h4m1 0h1m1 0h1m1 0h2m1 0h1m4 0h1m2 0h1m1 0h2m2 0h1m1 0h1m1 0h1m1 0h2m1 0h1m7 0h1m1 0h1m1 0h1m2 0h1m1 0h1m1 0h3m2 0h1m1 0h1m2 0h2m1 0h1m2 0h2m1 0h1m1 0h5m1 0h1m2 0h1m4 0h2m1 0h2m2 0h1m3 0h3M4 24.5h4m1 0h3m2 0h1m5 0h2m1 0h1m1 0h2m3 0h1m5 0h1m3 0h1m1 0h1m1 0h1m2 0h1m2 0h7m1 0h2m5 0h2m1 0h4m1 0h1m2 0h1m2 0h1m6 0h1m3 0h2m2 0h2m3 0h3m1 0h1m1 0h2m2 0h2m1 0h2m4 0h2m5 0h1m2 0h1m1 0h4m1 0h1m3 0h2m1 0h2m1 0h6m6 0h3m2 0h3m5 0h4m3 0h1M4 25.5h1m3 0h2m2 0h1m2 0h2m1 0h1m2 0h5m1 0h1m5 0h1m1 0h1m1 0h2m1 0h1m1 0h1m1 0h1m1 0h4m1 0h1m4 0h2m3 0h5m1 0h3m5 0h1m3 0h6m3 0h3m2 0h2m1 0h2m2 0h1m5 0h4m1 0h2m3 0h2m1 0h3m2 0h1m1 0h2m3 0h1m1 0h2m1 0h1m1 0h2m7 0h1m2 0h2m1 0h2m1 0h2m1 0h1m1 0h1m2 0h1m4 0h2m1 0h1m2 0h3m2 0h1M5 26.5h2m3 0h1m2 0h2m7 0h3m1 0h1m4 0h1m2 0h3m10 0h1m4 0h1m1 0h2m2 0h4m2 0h2m1 0h4m1 0h2m3 0h1m1 0h2m1 0h3m5 0h1m6 0h3m1 0h2m1 0h2m1 0h1m1 0h3m2 0h1m3 0h7m1 0h1m1 0h1m1 0h1m5 0h4m4 0h1m1 0h1m6 0h3m1 0h1m2 0h1m2 0h1m1 0h3m1 0h3m2 0h1m1 0h1m1 0h1M4 27.5h1m3 0h1m5 0h1m3 0h1m2 0h4m3 0h2m2 0h1m1 0h2m1 0h3m1 0h1m1 0h1m2 0h1m2 0h1m1 0h3m3 0h2m1 0h1m2 0h1m2 0h2m6 0h1m1 0h2m7 0h3m3 0h2m1 0h5m2 0h4m3 0h2m1 0h1m2 0h1m7 0h1m4 0h1m3 0h2m5 0h2m1 0h1m1 0h1m2 0h2m3 0h1m1 0h4m7 0h1m1 0h1m1 0h2m2 0h2m1 0h2m1 0h2M4 28.5h2m2 0h1m1 0h2m3 0h3m2 0h8m1 0h2m1 0h2m1 0h5m1 0h2m1 0h2m1 0h1m1 0h2m1 0h1m1 0h1m3 0h1m2 0h1m1 0h1m2 0h1m3 0h1m1 0h2m1 0h4m2 0h3m1 0h3m2 0h1m2 0h1m4 0h3m1 0h1m2 0h1m4 0h1m1 0h1m4 0h2m2 0h1m2 0h1m3 0h1m1 0h1m1 0h2m1 0h1m1 0h1m2 0h1m1 0h1m1 0h1m3 0h1m1 0h2m1 0h5m4 0h2m1 0h1m1 0h4m1 0h2m1 0h1m1 0h1m2 0h1M5 29.5h1m7 0h1m1 0h1m2 0h1m2 0h4m2 0h3m2 0h7m1 0h2m3 0h6m2 0h2m1 0h1m1 0h2m4 0h4m2 0h2m2 0h1m2 0h2m1 0h6m2 0h9m7 0h1m1 0h2m4 0h2m1 0h5m2 0h6m6 0h5m2 0h1m1 0h2m2 0h2m3 0h3m1 0h4m2 0h3m1 0h4m1 0h1m3 0h1m3 0h2M7 30.5h1m2 0h1m2 0h2m4 0h7m4 0h1m2 0h2m1 0h2m1 0h3m4 0h1m2 0h5m1 0h1m2 0h2m1 0h1m1 0h3m2 0h1m1 0h1m1 0h2m1 0h1m1 0h1m2 0h1m1 0h1m1 0h1m2 0h2m1 0h1m4 0h4m1 0h1m1 0h4m3 0h3m1 0h1m4 0h1m1 0h1m3 0h2m1 0h2m1 0h1m1 0h1m1 0h3m1 0h2m1 0h2m1 0h4m1 0h1m3 0h2m3 0h3m4 0h2m2 0h3m2 0h1m1 0h1m1 0h1M4 31.5h4m7 0h2m1 0h1m4 0h2m2 0h1m1 0h3m1 0h2m1 0h2m2 0h1m2 0h1m2 0h2m1 0h1m2 0h1m4 0h3m2 0h6m1 0h1m3 0h2m1 0h4m1 0h1m3 0h3m1 0h1m1 0h3m2 0h1m4 0h1m2 0h1m1 0h1m1 0h1m1 0h2m1 0h3m3 0h1m3 0h3m2 0h4m1 0h1m2 0h2m2 0h3m2 0h2m1 0h1m2 0h1m2 0h2m1 0h1m2 0h1m2 0h1m1 0h5m2 0h1m1 0h1m1 0h4M5 32.5h2m1 0h7m3 0h4m2 0h3m2 0h1m2 0h5m1 0h3m1 0h1m1 0h2m1 0h1m2 0h2m1 0h3m2 0h7m2 0h1m1 0h2m1 0h1m1 0h5m3 0h2m3 0h6m1 0h1m4 0h2m1 0h2m1 0h3m1 0h1m2 0h1m2 0h7m3 0h1m2 0h5m4 0h1m1 0h2m1 0h9m4 0h1m2 0h3m1 0h4m4 0h1m1 0h5m2 0h2M6 33.5h1m1 0h1m3 0h1m2 0h3m3 0h1m4 0h5m1 0h1m3 0h2m3 0h5m1 0h1m1 0h2m5 0h2m2 0h1m3 0h3m1 0h1m1 0h2m1 0h1m5 0h1m3 0h2m2 0h2m3 0h6m2 0h2m4 0h1m8 0h2m3 0h1m1 0h1m1 0h1m1 0h2m1 0h1m3 0h1m1 0h2m1 0h2m4 0h1m3 0h2m2 0h1m1 0h1m1 0h4m1 0h1m2 0h1m1 0h1m1 0h3m1 0h1m3 0h1m2 0h2M4 34.5h1m1 0h1m1 0h1m1 0h1m1 0h6m2 0h5m1 0h1m1 0h1m3 0h1m1 0h1m1 0h1m3 0h1m1 0h1m3 0h2m1 0h1m2 0h2m1 0h1m2 0h1m1 0h1m1 0h1m1 0h1m2 0h6m4 0h1m1 0h4m1 0h2m2 0h1m1 0h1m1 0h1m3 0h1m1 0h2m1 0h3m1 0h1m1 0h2m1 0h1m1 0h3m1 0h1m1 0h1m1 0h1m1 0h1m2 0h2m2 0h1m1 0h2m1 0h1m6 0h1m1 0h2m1 0h1m1 0h1m4 0h1m1 0h1m1 0h1m1 0h4m6 0h1m2 0h1m1 0h1m1 0h1M4 35.5h1m1 0h1m1 0h1m3 0h1m3 0h1m2 0h1m2 0h1m6 0h1m1 0h2m3 0h5m2 0h1m2 0h2m1 0h1m5 0h2m1 0h1m1 0h1m3 0h1m1 0h1m6 0h2m1 0h2m1 0h1m6 0h1m1 0h1m3 0h1m3 0h1m2 0h1m4 0h2m1 0h2m1 0h1m3 0h1m1 0h1m3 0h2m2 0h1m2 0h5m1 0h1m2 0h1m1 0h1m3 0h1m1 0h1m3 0h1m3 0h4m3 0h1m1 0h1m2 0h1m1 0h1m1 0h2m1 0h2m3 0h1m1 0h2M5 36.5h1m2 0h5m2 0h1m1 0h2m2 0h4m3 0h3m1 0h6m4 0h1m1 0h2m1 0h4m1 0h3m4 0h6m1 0h2m2 0h1m4 0h2m9 0h9m4 0h3m1 0h1m2 0h1m5 0h1m1 0h7m4 0h1m1 0h1m1 0h2m1 0h1m7 0h3m1 0h8m1 0h2m3 0h2m2 0h1m1 0h2m1 0h4m1 0h5M5 37.5h2m1 0h2m2 0h1m2 0h1m7 0h2m2 0h5m2 0h7m1 0h1m1 0h2m2 0h1m1 0h2m1 0h1m3 0h5m3 0h1m3 0h4m2 0h2m1 0h1m3 0h1m1 0h3m2 0h2m3 0h1m4 0h1m5 0h3m3 0h2m2 0h2m1 0h1m1 0h2m2 0h1m1 0h1m2 0h3m2 0h3m1 0h1m5 0h1m2 0h2m1 0h1m1 0h2m2 0h2m3 0h5m2 0h1m1 0h2m1 0h1m1 0h1m1 0h1m1 0h2M5 38.5h1m1 0h1m1 0h2m1 0h1m1 0h1m3 0h1m2 0h2m2 0h2m1 0h1m1 0h2m1 0h3m3 0h1m3 0h1m1 0h3m1 0h1m1 0h3m1 0h1m1 0h6m1 0h1m2 0h2m1 0h1m1 0h2m6 0h4m1 0h1m3 0h1m1 0h2m4 0h3m2 0h2m3 0h4m3 0h3m2 0h5m1 0h1m1 0h1m1 0h1m1 0h1m12 0h2m1 0h2m5 0h2m1 0h5m3 0h3m1 0h1m5 0h1m2 0h2M4 39.5h1m1 0h1m1 0h2m2 0h3m3 0h1m1 0h1m3 0h4m1 0h4m2 0h4m2 0h1m1 0h1m1 0h3m4 0h2m4 0h1m3 0h1m1 0h1m1 0h1m2 0h1m3 0h4m1 0h1m2 0h3m2 0h6m1 0h1m2 0h2m4 0h4m2 0h3m2 0h1m1 0h1m2 0h1m1 0h2m2 0h2m2 0h5m2 0h1m2 0h2m1 0h2m1 0h1m1 0h2m3 0h1m1 0h2m1 0h2m2 0h2m1 0h1m2 0h1m5 0h1m1 0h3m1 0h1m1 0h1M5 40.5h2m1 0h1m1 0h1m1 0h5m4 0h2m6 0h3m6 0h1m3 0h1m1 0h1m2 0h1m1 0h3m2 0h2m1 0h1m2 0h1m4 0h3m3 0h1m2 0h1m1 0h1m1 0h1m3 0h1m1 0h1m3 0h1m2 0h2m4 0h2m1 0h2m3 0h1m3 0h1m1 0h3m9 0h1m3 0h7m5 0h2m1 0h5m3 0h3m1 0h5m3 0h1m1 0h2m1 0h4m5 0h2m1 0h2M4 41.5h1m2 0h3m2 0h1m1 0h1m4 0h2m1 0h1m1 0h1m4 0h3m1 0h2m3 0h3m3 0h2m3 0h1m1 0h3m1 0h2m2 0h1m3 0h1m2 0h1m1 0h4m1 0h3m3 0h1m3 0h3m4 0h1m3 0h1m2 0h1m3 0h1m1 0h7m2 0h1m2 0h2m3 0h1m1 0h1m1 0h1m1 0h2m2 0h1m2 0h2m1 0h4m3 0h1m3 0h2m2 0h2m1 0h3m1 0h2m1 0h1m1 0h6m2 0h5m1 0h2m1 0h1M4 42.5h1m1 0h1m1 0h1m1 0h3m5 0h2m1 0h1m3 0h2m1 0h3m8 0h2m1 0h2m3 0h2m1 0h4m1 0h1m1 0h3m4 0h5m1 0h4m5 0h2m1 0h1m1 0h1m2 0h1m1 0h5m1 0h1m1 0h4m1 0h1m6 0h3m1 0h2m2 0h1m3 0h2m2 0h2m3 0h1m3 0h1m1 0h4m4 0h2m1 0h2m2 0h1m1 0h1m1 0h1m1 0h1m2 0h1m5 0h2m1 0h1m2 0h2m4 0h1M6 43.5h2m3 0h1m1 0h1m1 0h1m1 0h2m1 0h2m3 0h6m2 0h1m1 0h1m1 0h4m3 0h3m1 0h2m1 0h2m2 0h2m1 0h1m1 0h2m1 0h1m5 0h1m3 0h2m1 0h4m5 0h3m1 0h1m1 0h1m2 0h1m1 0h1m5 0h1m1 0h1m1 0h1m1 0h1m1 0h1m3 0h2m2 0h1m1 0h1m2 0h1m2 0h1m1 0h3m1 0h3m3 0h5m1 0h3m4 0h1m1 0h2m2 0h1m2 0h1m2 0h2m1 0h2m5 0h3m1 0h2M4 44.5h2m1 0h5m3 0h1m2 0h2m1 0h1m1 0h13m2 0h1m3 0h3m2 0h2m1 0h3m1 0h2m1 0h1m4 0h1m2 0h2m1 0h2m1 0h3m2 0h1m2 0h1m1 0h1m3 0h2m5 0h1m5 0h3m2 0h1m1 0h1m1 0h1m1 0h2m1 0h2m3 0h1m1 0h1m1 0h1m3 0h1m1 0h1m2 0h1m1 0h1m2 0h1m1 0h1m2 0h3m3 0h1m1 0h1m1 0h2m1 0h1m1 0h1m2 0h2m2 0h2m5 0h5m1 0h3m1 0h1M4 45.5h2m1 0h1m5 0h3m3 0h2m2 0h1m1 0h1m2 0h4m3 0h1m2 0h1m2 0h1m1 0h2m1 0h1m1 0h1m1 0h5m1 0h2m1 0h1m7 0h2m1 0h2m5 0h5m2 0h1m5 0h1m3 0h1m2 0h1m5 0h2m1 0h1m4 0h3m1 0h3m3 0h2m1 0h3m6 0h4m1 0h1m4 0h3m1 0h2m1 0h1m1 0h4m5 0h4m1 0h1m1 0h1m6 0h1m1 0h1m1 0h2M4 46.5h5m1 0h1m2 0h2m2 0h2m2 0h2m1 0h1m1 0h1m7 0h3m1 0h2m1 0h3m7 0h2m4 0h3m1 0h2m1 0h2m2 0h3m1 0h2m1 0h1m3 0h1m1 0h2m1 0h2m1 0h3m2 0h1m3 0h4m2 0h1m1 0h1m2 0h4m1 0h1m1 0h2m2 0h1m1 0h6m1 0h1m2 0h1m1 0h3m2 0h2m1 0h1m1 0h1m5 0h4m3 0h1m1 0h1m1 0h2m2 0h1m1 0h3m1 0h1m2 0h2M4 47.5h1m1 0h1m1 0h2m1 0h1m2 0h4m2 0h2m1 0h2m1 0h1m1 0h1m6 0h1m2 0h2m1 0h1m1 0h5m4 0h1m2 0h2m1 0h1m1 0h1m4 0h3m2 0h2m3 0h2m1 0h1m2 0h1m1 0h1m1 0h4m1 0h2m1 0h1m1 0h2m5 0h3m1 0h1m2 0h6m2 0h2m1 0h1m1 0h1m2 0h1m2 0h1m1 0h2m3 0h1m1 0h1m2 0h2m2 0h4m1 0h1m3 0h3m8 0h1m1 0h2m3 0h2m1 0h1m1 0h3M5 48.5h1m1 0h7m2 0h2m2 0h2m3 0h1m3 0h3m3 0h1m2 0h3m1 0h2m3 0h1m3 0h1m1 0h2m1 0h1m2 0h1m1 0h1m2 0h1m1 0h1m3 0h2m5 0h1m2 0h2m2 0h3m4 0h1m1 0h1m1 0h1m1 0h2m1 0h1m6 0h1m3 0h2m12 0h1m1 0h4m1 0h2m1 0h1m4 0h1m1 0h1m1 0h3m3 0h1m1 0h1m2 0h5m1 0h2m2 0h1m1 0h1m1 0h1m3 0h3m3 0h1M4 49.5h1m4 0h1m2 0h1m4 0h1m2 0h5m3 0h2m1 0h2m2 0h2m3 0h2m2 0h2m2 0h1m1 0h2m3 0h1m3 0h1m3 0h1m3 0h1m4 0h1m1 0h2m7 0h1m4 0h1m1 0h1m2 0h3m3 0h3m1 0h1m1 0h2m1 0h1m2 0h3m1 0h2m2 0h8m6 0h2m1 0h4m3 0h1m3 0h2m2 0h5m1 0h1m3 0h1m1 0h3m2 0h1m1 0h3m1 0h1m2 0h1m2 0h1M4 50.5h2m3 0h2m1 0h3m2 0h1m3 0h1m1 0h2m5 0h1m3 0h1m1 0h2m4 0h2m6 0h1m1 0h1m1 0h1m2 0h1m1 0h1m2 0h1m1 0h1m2 0h2m1 0h1m1 0h2m1 0h3m1 0h3m2 0h2m6 0h1m2 0h1m1 0h4m1 0h1m1 0h1m2 0h6m1 0h5m2 0h1m1 0h3m1 0h5m1 0h1m3 0h2m1 0h2m3 0h1m3 0h1m1 0h1m1 0h3m3 0h3m3 0h2m6 0h1m1 0h1m1 0h3M5 51.5h3m1 0h1m2 0h3m2 0h1m2 0h2m1 0h1m1 0h2m4 0h1m1 0h1m1 0h2m2 0h1m6 0h2m1 0h1m1 0h2m2 0h1m2 0h1m3 0h1m1 0h1m1 0h1m6 0h5m4 0h1m2 0h5m1 0h1m2 0h1m1 0h2m3 0h1m2 0h3m1 0h1m4 0h2m3 0h3m1 0h2m2 0h1m3 0h3m1 0h2m2 0h3m1 0h1m1 0h3m1 0h1m4 0h5m2 0h1m3 0h4m4 0h1m1 0h1m3 0h1m1 0h1M5 52.5h2m1 0h3m3 0h2m1 0h4m1 0h1m1 0h2m7 0h1m1 0h2m1 0h2m2 0h1m4 0h1m2 0h1m1 0h3m1 0h2m3 0h6m1 0h3m2 0h4m1 0h1m1 0h2m4 0h1m2 0h1m1 0h1m1 0h2m3 0h1m1 0h4m3 0h1m3 0h2m3 0h1m2 0h1m8 0h1m1 0h1m1 0h2m3 0h1m1 0h5m2 0h2m2 0h1m2 0h2m3 0h1m3 0h1m4 0h1m4 0h1m1 0h1m1 0h2M4 53.5h1m2 0h1m3 0h1m2 0h7m2 0h2m4 0h3m1 0h2m3 0h2m1 0h1m1 0h3m1 0h1m1 0h1m4 0h1m1 0h1m1 0h4m3 0h1m2 0h1m1 0h1m4 0h1m1 0h1m1 0h1m2 0h1m2 0h1m4 0h1m3 0h1m4 0h2m4 0h3m3 0h1m1 0h1m1 0h1m1 0h1m1 0h1m4 0h1m1 0h2m5 0h7m1 0h1m1 0h10m2 0h3m1 0h1m5 0h2m1 0h1m1 0h2m1 0h1m1 0h1m1 0h1m2 0h1M7 54.5h1m2 0h1m1 0h3m1 0h3m4 0h4m2 0h2m1 0h1m1 0h2m1 0h2m1 0h1m1 0h2m1 0h3m2 0h5m4 0h1m1 0h2m1 0h2m2 0h3m1 0h2m5 0h4m1 0h1m4 0h1m1 0h3m2 0h3m1 0h1m1 0h2m3 0h4m3 0h3m1 0h1m1 0h1m1 0h8m1 0h1m1 0h1m4 0h2m2 0h1m5 0h1m2 0h1m2 0h2m1 0h1m2 0h1m1 0h1m2 0h3m1 0h1m2 0h1m2 0h1m1 0h1M8 55.5h2m1 0h7m4 0h4m1 0h1m6 0h3m1 0h1m2 0h1m1 0h2m1 0h1m2 0h1m3 0h1m1 0h4m1 0h3m2 0h1m1 0h1m3 0h1m1 0h2m1 0h4m7 0h3m3 0h1m1 0h2m1 0h1m4 0h4m1 0h3m3 0h5m1 0h1m2 0h2m3 0h1m1 0h5m5 0h1m3 0h3m2 0h1m4 0h1m2 0h1m2 0h1m3 0h1m1 0h2m4 0h1m1 0h1m1 0h4M6 56.5h3m1 0h5m1 0h5m4 0h1m1 0h1m2 0h1m3 0h1m2 0h1m2 0h2m3 0h1m3 0h2m1 0h3m1 0h3m1 0h1m1 0h2m2 0h1m2 0h1m6 0h2m1 0h1m6 0h1m1 0h1m2 0h1m5 0h1m1 0h4m2 0h3m2 0h4m3 0h1m1 0h1m3 0h1m1 0h1m2 0h5m2 0h1m1 0h1m1 0h4m1 0h2m1 0h1m1 0h2m5 0h3m3 0h3m2 0h5m2 0h3m3 0h1M8 57.5h2m1 0h6m3 0h2m1 0h1m1 0h16m3 0h1m3 0h1m1 0h1m3 0h1m1 0h1m1 0h3m4 0h2m3 0h3m1 0h1m1 0h2m1 0h4m1 0h1m2 0h2m1 0h1m1 0h1m1 0h1m5 0h1m3 0h1m1 0h1m2 0h1m2 0h1m2 0h2m2 0h1m2 0h1m1 0h3m2 0h3m1 0h4m1 0h1m4 0h4m1 0h1m1 0h1m1 0h1m3 0h1m1 0h1m3 0h4m1 0h2m1 0h3m7 0h1M6 58.5h2m2 0h3m4 0h2m4 0h2m1 0h13m2 0h3m1 0h1m5 0h3m1 0h1m1 0h9m1 0h2m1 0h4m1 0h1m4 0h1m1 0h2m1 0h1m2 0h2m2 0h2m1 0h2m1 0h2m1 0h4m2 0h6m1 0h1m3 0h1m1 0h2m2 0h1m2 0h1m4 0h1m1 0h1m1 0h2m6 0h2m1 0h3m1 0h1m1 0h1m1 0h1m1 0h1m1 0h3m4 0h1m2 0h2m2 0h1m1 0h5M7 59.5h1m1 0h1m1 0h1m5 0h1m2 0h1m2 0h2m1 0h2m1 0h3m5 0h1m8 0h1m1 0h1m3 0h1m2 0h2m1 0h1m1 0h1m2 0h1m2 0h1m2 0h1m1 0h1m1 0h4m1 0h2m6 0h3m4 0h2m1 0h3m2 0h1m1 0h2m2 0h2m1 0h1m3 0h2m2 0h3m2 0h1m1 0h1m2 0h1m1 0h1m1 0h2m1 0h2m2 0h4m3 0h3m2 0h1m2 0h3m3 0h2m1 0h4m1 0h2m3 0h2m1 0h1m1 0h1m1 0h1M4 60.5h2m1 0h7m1 0h1m1 0h1m1 0h3m1 0h2m1 0h1m1 0h1m3 0h7m1 0h1m1 0h2m1 0h1m1 0h3m1 0h1m1 0h3m1 0h1m2 0h8m1 0h6m1 0h1m1 0h2m1 0h1m1 0h1m2 0h1m1 0h5m1 0h2m3 0h2m1 0h2m1 0h1m1 0h1m3 0h3m2 0h5m2 0h1m1 0h1m1 0h7m6 0h3m1 0h5m1 0h1m1 0h2m2 0h4m2 0h1m1 0h2m3 0h2m1 0h5m2 0h2M4 61.5h1m1 0h1m1 0h1m3 0h2m2 0h1m4 0h1m1 0h1m4 0h2m2 0h1m3 0h1m2 0h1m1 0h4m3 0h3m3 0h3m2 0h2m3 0h2m4 0h1m1 0h1m1 0h2m1 0h1m2 0h1m1 0h1m4 0h2m3 0h3m2 0h1m2 0h1m5 0h1m2 0h1m3 0h1m1 0h2m3 0h3m1 0h3m2 0h1m1 0h1m1 0h2m1 0h1m1 0h2m1 0h1m2 0h1m3 0h1m1 0h1m1 0h1m3 0h1m2 0h1m1 0h5m1 0h2m1 0h1m1 0h1m3 0h2m1 0h2M5 62.5h2m1 0h1m1 0h1m1 0h1m2 0h1m1 0h1m1 0h5m2 0h1m4 0h2m1 0h1m1 0h5m5 0h2m2 0h4m1 0h1m2 0h1m1 0h1m1 0h1m1 0h1m2 0h4m1 0h1m3 0h2m1 0h4m1 0h2m2 0h1m1 0h1m1 0h1m1 0h6m2 0h1m1 0h1m3 0h5m1 0h3m1 0h1m1 0h1m1 0h5m1 0h1m2 0h1m3 0h2m4 0h1m1 0h2m1 0h1m1 0h4m1 0h1m1 0h1m3 0h2m1 0h2m2 0h1m4 0h2m1 0h1m1 0h4M5 63.5h1m2 0h1m3 0h3m1 0h3m7 0h1m5 0h1m3 0h1m1 0h1m2 0h1m4 0h1m2 0h1m3 0h1m3 0h4m3 0h1m1 0h2m1 0h1m4 0h2m2 0h1m4 0h1m2 0h3m3 0h2m1 0h3m1 0h1m1 0h4m2 0h4m3 0h3m3 0h2m3 0h1m1 0h2m1 0h4m4 0h2m4 0h1m3 0h2m4 0h1m1 0h2m1 0h3m1 0h4m2 0h1m2 0h1m3 0h1m1 0h2M4 64.5h1m3 0h12m3 0h1m1 0h3m2 0h9m1 0h1m1 0h3m2 0h2m1 0h3m1 0h1m2 0h2m1 0h7m4 0h1m2 0h1m2 0h3m1 0h1m1 0h1m2 0h7m2 0h1m1 0h2m1 0h2m1 0h1m3 0h1m1 0h1m2 0h1m2 0h7m1 0h1m3 0h2m1 0h1m1 0h2m5 0h2m1 0h1m1 0h5m1 0h1m2 0h1m1 0h4m1 0h3m5 0h1m1 0h1m1 0h5m3 0h1M4 65.5h1m1 0h1m2 0h1m2 0h2m1 0h2m3 0h3m3 0h1m2 0h1m2 0h1m1 0h1m4 0h2m3 0h1m1 0h1m1 0h1m2 0h1m1 0h4m2 0h1m1 0h2m3 0h1m2 0h1m2 0h4m2 0h1m1 0h1m2 0h3m6 0h1m1 0h1m4 0h3m1 0h1m2 0h1m1 0h2m3 0h1m8 0h6m3 0h1m1 0h2m1 0h1m1 0h2m1 0h1m1 0h1m1 0h2m3 0h1m1 0h4m1 0h1m3 0h2m1 0h1m2 0h2m1 0h1m2 0h2m1 0h3m1 0h1M7 66.5h4m1 0h3m1 0h5m3 0h3m2 0h1m1 0h2m2 0h1m1 0h1m3 0h1m3 0h2m3 0h3m4 0h1m1 0h1m1 0h1m7 0h5m3 0h1m2 0h1m1 0h3m3 0h1m1 0h1m1 0h2m1 0h6m9 0h1m1 0h1m1 0h6m3 0h6m1 0h3m5 0h2m1 0h3m2 0h1m1 0h1m2 0h1m2 0h2m4 0h1m1 0h1m3 0h1m2 0h3m1 0h1m3 0h2M5 67.5h1m1 0h1m5 0h2m3 0h1m1 0h1m6 0h1m1 0h3m2 0h2m1 0h1m1 0h3m2 0h1m1 0h1m5 0h2m1 0h1m2 0h10m1 0h1m1 0h1m1 0h4m1 0h2m6 0h1m1 0h6m5 0h1m1 0h2m1 0h1m3 0h2m3 0h3m1 0h1m2 0h2m2 0h1m3 0h1m1 0h1m1 0h2m1 0h1m1 0h1m1 0h1m1 0h5m3 0h1m1 0h5m1 0h1m5 0h1m2 0h2m1 0h1m8 0h2M4 68.5h3m3 0h2m8 0h2m1 0h1m5 0h1m2 0h1m3 0h2m1 0h3m1 0h4m1 0h3m3 0h3m2 0h2m1 0h4m3 0h1m5 0h1m3 0h2m1 0h1m2 0h1m1 0h2m2 0h1m2 0h2m1 0h2m1 0h3m2 0h3m2 0h1m1 0h1m5 0h4m3 0h1m1 0h2m1 0h3m7 0h3m2 0h3m2 0h3m2 0h2m1 0h1m1 0h1m1 0h3m4 0h2m1 0h1m1 0h1m5 0h1M5 69.5h2m2 0h1m7 0h2m1 0h1m1 0h3m1 0h1m1 0h3m1 0h1m2 0h1m2 0h2m2 0h4m1 0h3m3 0h2m1 0h2m3 0h2m2 0h1m1 0h1m1 0h4m2 0h2m1 0h1m1 0h1m2 0h1m2 0h1m6 0h2m4 0h1m1 0h1m1 0h1m2 0h2m1 0h1m3 0h1m1 0h2m4 0h2m1 0h1m9 0h6m2 0h1m3 0h1m1 0h2m1 0h4m1 0h1m3 0h5m2 0h3m1 0h3m1 0h3m2 0h1M5 70.5h1m2 0h1m1 0h2m1 0h5m1 0h4m1 0h1m1 0h1m1 0h2m1 0h1m2 0h1m1 0h1m1 0h1m4 0h1m5 0h4m1 0h1m3 0h3m9 0h1m1 0h1m7 0h1m1 0h1m1 0h1m3 0h3m4 0h5m1 0h2m4 0h2m1 0h1m1 0h2m1 0h2m1 0h2m2 0h1m3 0h2m1 0h1m6 0h2m1 0h1m1 0h1m1 0h6m2 0h1m1 0h2m4 0h2m4 0h1m3 0h1m4 0h2m2 0h2M6 71.5h1m1 0h2m1 0h2m2 0h2m1 0h6m1 0h3m1 0h3m1 0h2m8 0h1m1 0h3m3 0h5m1 0h2m1 0h3m1 0h1m1 0h1m2 0h1m1 0h1m2 0h3m1 0h1m6 0h2m5 0h2m2 0h2m2 0h2m3 0h1m2 0h1m1 0h2m1 0h2m2 0h3m4 0h6m1 0h1m1 0h2m5 0h3m1 0h2m5 0h5m1 0h1m2 0h1m2 0h1m1 0h5m1 0h1m5 0h2M4 72.5h7m1 0h5m2 0h1m1 0h3m1 0h1m3 0h4m1 0h1m3 0h3m1 0h1m2 0h1m1 0h2m7 0h3m1 0h2m1 0h2m1 0h2m1 0h2m5 0h1m1 0h2m5 0h1m1 0h2m1 0h1m3 0h1m3 0h3m4 0h2m2 0h1m2 0h1m2 0h2m1 0h1m1 0h2m5 0h2m1 0h3m4 0h1m2 0h1m1 0h2m1 0h3m1 0h3m4 0h4m1 0h2m5 0h1m1 0h1m1 0h3m4 0h1M5 73.5h2m1 0h2m3 0h1m3 0h6m1 0h1m3 0h1m2 0h1m1 0h1m1 0h1m3 0h1m1 0h6m1 0h1m1 0h2m1 0h2m1 0h1m7 0h1m3 0h1m1 0h5m2 0h2m1 0h3m5 0h1m5 0h2m3 0h1m3 0h1m1 0h3m4 0h2m2 0h1m5 0h1m1 0h4m5 0h2m1 0h1m1 0h2m1 0h1m4 0h2m1 0h1m2 0h3m2 0h1m5 0h3m1 0h4m3 0h1m2 0h4M4 74.5h2m4 0h1m2 0h1m2 0h1m2 0h1m2 0h1m1 0h8m1 0h4m2 0h1m1 0h1m1 0h1m1 0h1m3 0h1m1 0h3m1 0h1m1 0h3m1 0h1m1 0h1m4 0h1m1 0h1m1 0h2m5 0h2m1 0h4m1 0h2m1 0h1m1 0h2m1 0h1m1 0h6m1 0h1m3 0h3m1 0h1m2 0h3m4 0h10m2 0h3m1 0h4m1 0h1m4 0h1m2 0h1m1 0h1m1 0h1m1 0h2m1 0h1m1 0h1m6 0h1m1 0h2m1 0h1m2 0h2M4 75.5h2m3 0h1m1 0h1m3 0h1m2 0h1m3 0h3m1 0h3m2 0h3m1 0h2m1 0h2m1 0h1m1 0h1m2 0h3m3 0h2m4 0h2m1 0h2m1 0h4m1 0h1m1 0h1m1 0h2m1 0h4m1 0h1m1 0h1m1 0h5m2 0h1m3 0h1m1 0h1m3 0h5m1 0h2m3 0h2m2 0h3m1 0h1m3 0h1m1 0h1m2 0h2m2 0h1m2 0h1m1 0h2m1 0h1m1 0h2m1 0h1m3 0h6m6 0h5m3 0h1m1 0h1m1 0h1m1 0h3M5 76.5h1m1 0h6m2 0h6m2 0h3m1 0h1m2 0h3m2 0h3m2 0h1m1 0h3m5 0h2m2 0h2m4 0h2m1 0h5m4 0h1m1 0h3m4 0h1m1 0h1m2 0h4m1 0h1m1 0h2m3 0h4m4 0h2m1 0h2m1 0h2m1 0h4m1 0h2m1 0h1m1 0h1m2 0h1m1 0h1m1 0h1m4 0h1m1 0h2m1 0h2m1 0h2m3 0h2m3 0h3m2 0h1m1 0h2m1 0h1m3 0h5m2 0h2m1 0h1M4 77.5h1m2 0h1m1 0h1m1 0h4m3 0h1m1 0h6m3 0h1m1 0h2m4 0h1m5 0h9m1 0h2m1 0h1m1 0h2m4 0h2m2 0h1m1 0h3m4 0h1m4 0h1m9 0h3m2 0h1m1 0h1m3 0h2m1 0h1m2 0h1m1 0h2m3 0h1m5 0h1m1 0h1m1 0h1m4 0h1m1 0h2m1 0h1m1 0h1m11 0h1m1 0h2m3 0h1m1 0h4m1 0h3m1 0h2m1 0h2m3 0h2m1 0h1M4 78.5h1m1 0h1m1 0h3m1 0h2m1 0h2m2 0h1m1 0h2m1 0h2m3 0h1m1 0h2m1 0h1m1 0h1m4 0h1m4 0h1m2 0h1m1 0h3m1 0h1m5 0h1m3 0h1m3 0h4m2 0h1m3 0h4m1 0h1m2 0h4m4 0h5m2 0h1m4 0h8m1 0h1m2 0h1m1 0h1m10 0h1m2 0h2m3 0h1m2 0h3m1 0h3m1 0h1m2 0h2m1 0h4m1 0h1m3 0h2m1 0h1m1 0h2m1 0h2m1 0h3M4 79.5h3m1 0h2m2 0h2m1 0h1m1 0h1m1 0h3m4 0h1m5 0h1m1 0h1m1 0h3m1 0h1m3 0h1m1 0h1m5 0h1m5 0h3m1 0h1m1 0h1m1 0h1m6 0h1m1 0h4m4 0h1m1 0h2m1 0h5m1 0h1m4 0h1m3 0h3m1 0h1m1 0h2m1 0h2m3 0h1m2 0h1m3 0h1m1 0h2m1 0h5m3 0h2m2 0h2m1 0h1m2 0h3m2 0h1m1 0h1m5 0h2m1 0h1m2 0h1m2 0h1m1 0h1m1 0h1m1 0h6M4 80.5h2m2 0h1m1 0h2m3 0h1m2 0h4m1 0h1m2 0h2m7 0h1m2 0h3m1 0h3m2 0h4m2 0h2m5 0h3m3 0h1m4 0h1m2 0h1m1 0h2m1 0h3m1 0h1m1 0h3m1 0h1m5 0h1m4 0h2m4 0h2m3 0h3m3 0h2m1 0h1m2 0h2m2 0h2m1 0h2m3 0h1m3 0h2m1 0h1m2 0h4m1 0h4m1 0h5m2 0h1m1 0h1m2 0h1m1 0h4m1 0h3m3 0h1M4 81.5h2m2 0h1m3 0h3m2 0h1m3 0h2m1 0h1m2 0h2m2 0h1m2 0h2m1 0h2m4 0h2m1 0h6m1 0h2m1 0h2m4 0h2m1 0h1m2 0h1m1 0h4m1 0h3m6 0h1m9 0h1m1 0h1m2 0h2m2 0h1m1 0h2m5 0h2m2 0h2m3 0h4m1 0h2m3 0h1m1 0h2m1 0h1m1 0h2m3 0h1m5 0h1m2 0h3m1 0h2m3 0h1m1 0h1m1 0h2m1 0h1m4 0h4m3 0h1M8 82.5h1m1 0h2m1 0h1m4 0h2m4 0h2m4 0h1m1 0h1m3 0h1m1 0h6m7 0h3m4 0h1m1 0h1m2 0h1m4 0h5m2 0h1m1 0h1m2 0h3m1 0h2m1 0h2m1 0h1m1 0h1m2 0h8m1 0h2m1 0h2m2 0h2m1 0h4m4 0h2m1 0h1m1 0h2m1 0h1m3 0h7m1 0h2m4 0h2m1 0h1m3 0h1m1 0h1m2 0h1m9 0h1m3 0h2m2 0h2M5 83.5h3m3 0h3m1 0h1m1 0h1m7 0h4m1 0h3m2 0h1m3 0h1m5 0h3m1 0h1m7 0h8m1 0h2m2 0h2m1 0h2m1 0h1m1 0h2m1 0h1m3 0h4m2 0h3m2 0h1m2 0h2m2 0h2m1 0h4m3 0h1m1 0h1m2 0h1m1 0h2m2 0h1m2 0h2m3 0h1m3 0h1m2 0h1m4 0h1m3 0h1m2 0h7m1 0h1m1 0h1m1 0h1m2 0h2m5 0h1m2 0h1m1 0h3M6 84.5h3m1 0h1m1 0h1m3 0h1m1 0h2m4 0h1m3 0h6m2 0h1m2 0h2m1 0h1m4 0h2m1 0h1m2 0h3m3 0h1m1 0h3m5 0h1m2 0h2m2 0h3m1 0h1m2 0h1m2 0h1m1 0h1m5 0h1m2 0h1m1 0h2m2 0h1m2 0h1m5 0h1m2 0h4m1 0h1m6 0h4m1 0h1m4 0h1m1 0h5m1 0h2m1 0h1m1 0h1m2 0h2m1 0h6m2 0h1m4 0h4m1 0h1m1 0h1m2 0h2M7 85.5h1m7 0h1m1 0h2m1 0h1m1 0h1m3 0h2m3 0h1m3 0h2m3 0h2m1 0h2m1 0h3m1 0h1m2 0h1m4 0h2m1 0h2m1 0h2m4 0h3m2 0h1m3 0h2m2 0h1m1 0h2m4 0h4m2 0h1m2 0h1m4 0h2m1 0h2m1 0h1m3 0h1m1 0h1m3 0h4m1 0h2m7 0h2m2 0h1m3 0h1m2 0h1m2 0h6m1 0h2m3 0h1m1 0h3m2 0h1m2 0h2m2 0h2m1 0h1m1 0h1M8 86.5h1m1 0h1m2 0h1m1 0h5m1 0h2m4 0h1m1 0h1m2 0h4m2 0h2m5 0h1m3 0h1m1 0h3m6 0h1m2 0h1m3 0h5m1 0h1m5 0h2m1 0h1m1 0h2m2 0h1m1 0h3m2 0h4m3 0h1m3 0h1m3 0h1m3 0h6m4 0h3m1 0h1m1 0h2m2 0h4m3 0h1m1 0h1m1 0h1m2 0h1m1 0h1m4 0h1m4 0h1m1 0h2m1 0h3m5 0h1m1 0h1m2 0h1M4 87.5h6m2 0h7m3 0h1m2 0h4m2 0h2m1 0h4m2 0h1m2 0h7m1 0h1m3 0h2m1 0h10m2 0h2m1 0h6m2 0h1m3 0h6m5 0h1m1 0h1m3 0h7m2 0h1m2 0h2m1 0h2m1 0h2m1 0h5m1 0h3m1 0h1m1 0h1m1 0h2m2 0h2m1 0h2m1 0h3m1 0h1m2 0h2m5 0h1m3 0h3m1 0h1m5 0h1m1 0h4M4 88.5h1m1 0h7m2 0h1m1 0h1m2 0h1m1 0h4m1 0h3m1 0h8m3 0h2m1 0h1m2 0h4m2 0h2m4 0h7m2 0h3m5 0h4m2 0h1m1 0h11m1 0h1m2 0h2m3 0h3m4 0h2m2 0h6m5 0h2m1 0h1m1 0h1m2 0h1m4 0h1m1 0h1m1 0h5m1 0h1m6 0h1m2 0h1m1 0h1m5 0h3m1 0h6M4 89.5h2m2 0h1m3 0h1m1 0h4m3 0h4m6 0h2m3 0h2m2 0h4m1 0h3m1 0h2m1 0h6m1 0h2m3 0h1m1 0h1m1 0h9m5 0h1m5 0h1m3 0h1m1 0h1m1 0h2m1 0h3m1 0h2m1 0h1m2 0h1m2 0h1m2 0h2m3 0h3m1 0h4m3 0h1m1 0h6m5 0h1m3 0h5m2 0h2m4 0h1m3 0h1m2 0h3m1 0h1m3 0h1m1 0h1m1 0h1M5 90.5h1m2 0h1m1 0h1m1 0h2m2 0h1m2 0h4m1 0h7m1 0h1m1 0h1m1 0h5m4 0h3m3 0h1m2 0h1m2 0h2m1 0h1m1 0h1m1 0h1m3 0h1m1 0h1m1 0h2m3 0h1m1 0h7m1 0h2m1 0h1m1 0h1m4 0h3m2 0h1m1 0h1m2 0h5m2 0h1m1 0h1m1 0h1m1 0h1m1 0h1m1 0h2m1 0h1m1 0h1m6 0h2m1 0h1m2 0h3m1 0h1m1 0h1m1 0h2m1 0h2m2 0h1m2 0h2m3 0h1m1 0h1m2 0h3m1 0h1m1 0h2m1 0h1M5 91.5h1m2 0h1m3 0h1m2 0h7m2 0h2m1 0h1m4 0h1m3 0h1m2 0h1m1 0h1m1 0h1m2 0h1m1 0h1m4 0h1m1 0h2m1 0h1m1 0h1m3 0h4m3 0h1m1 0h2m1 0h1m8 0h4m3 0h2m2 0h1m5 0h4m2 0h1m4 0h2m1 0h1m3 0h2m4 0h3m1 0h3m1 0h2m1 0h1m1 0h1m2 0h1m1 0h1m3 0h2m4 0h2m1 0h1m2 0h1m4 0h2m1 0h1m2 0h2m3 0h1m1 0h1M4 92.5h1m3 0h10m2 0h2m2 0h2m1 0h2m1 0h1m1 0h5m2 0h1m1 0h1m2 0h1m4 0h3m2 0h1m1 0h2m2 0h8m2 0h1m2 0h1m3 0h1m1 0h3m3 0h2m1 0h5m1 0h1m4 0h2m2 0h1m2 0h1m4 0h2m1 0h1m1 0h5m4 0h1m1 0h6m2 0h1m1 0h1m1 0h2m1 0h1m1 0h5m1 0h3m4 0h2m1 0h1m1 0h1m1 0h1m4 0h9m1 0h2M4 93.5h3m1 0h2m1 0h1m4 0h1m1 0h2m1 0h3m1 0h1m6 0h1m12 0h1m1 0h4m3 0h5m1 0h2m3 0h1m1 0h4m3 0h3m2 0h1m1 0h1m1 0h2m3 0h1m5 0h2m1 0h1m2 0h2m1 0h4m1 0h1m2 0h3m4 0h2m1 0h1m2 0h1m1 0h2m2 0h2m1 0h2m1 0h1m1 0h1m2 0h1m2 0h1m1 0h3m2 0h1m1 0h1m2 0h1m1 0h2m3 0h4m1 0h1m1 0h1m2 0h4m1 0h1m1 0h1M4 94.5h2m1 0h1m1 0h4m3 0h1m1 0h2m3 0h1m3 0h1m1 0h1m2 0h2m1 0h2m5 0h2m2 0h2m4 0h2m1 0h1m1 0h2m1 0h2m1 0h1m1 0h1m1 0h2m1 0h1m1 0h2m3 0h1m1 0h2m1 0h1m1 0h2m3 0h1m1 0h1m1 0h1m1 0h1m1 0h2m3 0h5m4 0h1m1 0h3m3 0h1m3 0h2m3 0h1m2 0h1m2 0h1m3 0h2m1 0h4m1 0h1m2 0h2m2 0h1m3 0h1m1 0h2m1 0h2m2 0h1m2 0h1m1 0h2m1 0h3m1 0h1M4 95.5h2m1 0h3m2 0h2m1 0h1m1 0h1m1 0h5m9 0h1m4 0h1m1 0h1m4 0h2m2 0h1m1 0h3m4 0h1m4 0h1m1 0h2m2 0h3m1 0h4m1 0h1m4 0h1m1 0h2m1 0h1m1 0h2m1 0h2m1 0h1m1 0h3m1 0h7m1 0h1m2 0h5m4 0h2m2 0h2m2 0h2m1 0h1m6 0h1m3 0h2m2 0h2m3 0h2m4 0h2m3 0h4m1 0h1m3 0h1m1 0h1m2 0h1M6 96.5h1m1 0h1m1 0h1m1 0h3m3 0h1m1 0h1m1 0h1m1 0h1m1 0h2m2 0h2m1 0h3m4 0h4m1 0h1m1 0h1m1 0h4m1 0h1m1 0h2m2 0h1m3 0h1m1 0h1m5 0h11m1 0h4m2 0h5m2 0h1m1 0h5m1 0h2m2 0h4m1 0h1m1 0h1m1 0h3m4 0h1m1 0h2m1 0h1m1 0h1m6 0h2m1 0h1m1 0h1m3 0h3m1 0h2m2 0h2m2 0h3m1 0h1m2 0h2m1 0h1m1 0h2m3 0h1M4 97.5h1m2 0h1m5 0h2m3 0h2m2 0h2m2 0h2m1 0h5m2 0h1m2 0h2m1 0h1m1 0h1m2 0h4m2 0h1m1 0h2m1 0h1m2 0h4m3 0h2m1 0h3m4 0h1m1 0h6m2 0h1m5 0h2m4 0h1m2 0h4m5 0h2m4 0h10m3 0h1m1 0h2m1 0h1m1 0h1m2 0h1m3 0h2m1 0h3m1 0h2m2 0h4m4 0h2m2 0h1m1 0h1m1 0h1m1 0h1m2 0h1m2 0h1M4 98.5h2m1 0h1m1 0h2m4 0h3m2 0h1m4 0h1m1 0h5m2 0h1m2 0h5m4 0h1m5 0h1m2 0h1m5 0h1m2 0h1m3 0h1m1 0h4m3 0h2m1 0h3m1 0h2m1 0h1m1 0h1m2 0h1m3 0h3m2 0h2m1 0h1m2 0h5m1 0h4m2 0h1m4 0h3m5 0h1m1 0h1m1 0h6m1 0h1m2 0h1m4 0h1m1 0h2m3 0h3m5 0h1m2 0h1m1 0h1m1 0h2m1 0h1m1 0h1M6 99.5h1m1 0h1m2 0h2m2 0h1m5 0h1m1 0h1m2 0h1m2 0h1m3 0h2m1 0h2m1 0h1m3 0h1m1 0h2m1 0h1m2 0h2m5 0h4m1 0h2m1 0h2m3 0h1m1 0h4m8 0h4m1 0h4m2 0h3m2 0h5m2 0h1m3 0h1m1 0h2m2 0h4m6 0h1m1 0h1m2 0h1m5 0h1m4 0h2m1 0h3m3 0h2m4 0h3m4 0h1m5 0h1m4 0h2M8 100.5h1m1 0h1m1 0h1m2 0h4m2 0h2m1 0h1m1 0h1m1 0h2m1 0h2m2 0h2m2 0h1m2 0h1m1 0h1m9 0h4m2 0h8m1 0h1m2 0h1m1 0h5m1 0h2m1 0h1m1 0h1m1 0h3m2 0h3m2 0h1m1 0h2m1 0h2m2 0h2m3 0h2m2 0h6m6 0h2m1 0h1m1 0h1m2 0h1m3 0h2m1 0h1m1 0h2m2 0h1m1 0h2m3 0h1m2 0h1m1 0h1m2 0h3m2 0h2m3 0h1m4 0h1m1 0h1M7 101.5h2m2 0h1m1 0h2m1 0h1m1 0h3m1 0h1m2 0h3m1 0h1m1 0h5m1 0h3m3 0h2m1 0h1m1 0h4m1 0h1m3 0h3m2 0h1m1 0h1m2 0h6m3 0h1m3 0h1m1 0h1m1 0h1m4 0h1m1 0h1m2 0h1m2 0h1m2 0h1m4 0h2m8 0h4m1 0h1m1 0h1m1 0h4m3 0h1m1 0h2m1 0h3m6 0h3m1 0h5m2 0h2m3 0h2m1 0h2m2 0h2m1 0h1m1 0h1m1 0h1m1 0h1m2 0h1M4 102.5h1m1 0h2m1 0h3m4 0h2m3 0h1m2 0h1m1 0h2m2 0h1m3 0h1m1 0h3m2 0h1m1 0h1m1 0h1m1 0h1m1 0h2m1 0h1m4 0h2m4 0h1m1 0h1m2 0h3m1 0h1m4 0h1m2 0h1m1 0h1m1 0h2m7 0h1m3 0h3m1 0h2m2 0h3m1 0h3m2 0h2m1 0h1m1 0h1m1 0h2m9 0h1m1 0h1m2 0h1m1 0h1m2 0h2m2 0h2m1 0h1m1 0h1m2 0h1m2 0h5m1 0h1m5 0h6m1 0h1m1 0h2M6 103.5h1m1 0h1m2 0h2m4 0h4m1 0h2m2 0h3m2 0h1m1 0h2m1 0h4m1 0h1m1 0h2m1 0h1m2 0h1m1 0h1m1 0h1m4 0h2m1 0h1m2 0h4m3 0h1m1 0h7m1 0h1m5 0h1m1 0h2m1 0h2m2 0h2m1 0h1m2 0h3m2 0h6m1 0h1m1 0h2m1 0h1m4 0h2m3 0h1m4 0h1m1 0h2m1 0h1m2 0h1m2 0h2m1 0h2m3 0h2m5 0h2m4 0h2m1 0h1m7 0h2M5 104.5h2m1 0h1m1 0h1m1 0h1m1 0h1m1 0h2m1 0h2m1 0h5m4 0h1m3 0h2m4 0h1m1 0h1m4 0h4m2 0h3m5 0h2m1 0h3m2 0h3m1 0h1m4 0h3m5 0h2m1 0h3m4 0h2m1 0h2m3 0h1m3 0h1m1 0h3m5 0h1m3 0h1m3 0h2m1 0h1m1 0h1m2 0h1m1 0h1m1 0h4m1 0h1m2 0h1m2 0h1m1 0h1m3 0h3m1 0h3m1 0h1m2 0h1m1 0h2m1 0h1m2 0h3m1 0h1M5 105.5h2m2 0h1m2 0h1m2 0h4m1 0h1m2 0h3m1 0h2m3 0h2m4 0h1m3 0h1m2 0h2m1 0h1m4 0h7m2 0h1m5 0h2m5 0h5m1 0h2m1 0h1m1 0h1m3 0h2m2 0h2m1 0h1m2 0h2m3 0h3m1 0h1m2 0h2m3 0h2m1 0h1m1 0h6m3 0h1m1 0h2m1 0h1m1 0h1m2 0h2m1 0h1m2 0h2m1 0h1m2 0h1m1 0h2m2 0h1m1 0h1m1 0h3m2 0h1m1 0h1m2 0h2m1 0h1m1 0h1m1 0h1M5 106.5h1m2 0h7m2 0h4m1 0h1m2 0h2m3 0h1m1 0h3m3 0h1m2 0h1m3 0h2m2 0h1m2 0h1m1 0h1m2 0h3m2 0h2m1 0h1m2 0h1m1 0h4m1 0h1m3 0h2m1 0h4m1 0h1m3 0h1m4 0h1m1 0h2m1 0h2m1 0h1m2 0h5m1 0h4m2 0h1m2 0h2m2 0h2m1 0h4m1 0h1m1 0h1m5 0h2m1 0h1m4 0h1m3 0h1m2 0h1m1 0h4m2 0h2m2 0h1m5 0h2M5 107.5h1m2 0h1m2 0h2m1 0h1m2 0h1m1 0h2m2 0h2m1 0h3m1 0h1m1 0h1m2 0h1m1 0h2m1 0h1m2 0h1m2 0h2m3 0h3m4 0h2m1 0h1m1 0h1m2 0h2m6 0h1m1 0h1m1 0h1m6 0h4m1 0h3m1 0h1m1 0h1m1 0h1m2 0h1m2 0h2m1 0h3m3 0h3m2 0h2m1 0h1m2 0h2m1 0h1m2 0h4m1 0h1m1 0h1m3 0h2m3 0h1m1 0h1m2 0h1m1 0h4m2 0h1m3 0h1m2 0h2m4 0h2m1 0h1m2 0h1M6 108.5h2m1 0h2m2 0h3m1 0h1m1 0h1m1 0h4m4 0h2m2 0h2m2 0h1m2 0h1m1 0h1m11 0h4m3 0h4m4 0h4m4 0h3m2 0h2m1 0h1m1 0h3m1 0h3m1 0h1m4 0h1m2 0h1m1 0h3m1 0h2m1 0h2m2 0h2m1 0h2m6 0h5m1 0h1m2 0h2m1 0h4m1 0h1m4 0h2m1 0h1m4 0h2m1 0h1m1 0h1m1 0h2m1 0h2m1 0h1m1 0h1m4 0h1m2 0h1M5 109.5h2m4 0h2m3 0h1m1 0h1m1 0h3m2 0h1m2 0h1m1 0h1m1 0h3m1 0h1m1 0h1m1 0h6m2 0h4m1 0h1m2 0h4m5 0h2m1 0h1m1 0h2m4 0h1m3 0h1m4 0h1m5 0h1m2 0h2m4 0h1m3 0h4m3 0h2m5 0h1m1 0h1m1 0h3m1 0h1m2 0h1m1 0h1m2 0h5m2 0h4m2 0h1m1 0h2m1 0h2m2 0h1m2 0h1m4 0h1m1 0h12m1 0h2M5 110.5h1m1 0h1m1 0h2m2 0h1m1 0h1m2 0h4m7 0h6m2 0h3m2 0h1m3 0h1m3 0h1m1 0h1m1 0h2m2 0h1m1 0h1m3 0h1m3 0h3m1 0h2m3 0h1m1 0h1m2 0h1m1 0h2m1 0h2m2 0h2m2 0h3m1 0h2m1 0h6m1 0h2m3 0h3m5 0h1m5 0h1m1 0h2m1 0h2m1 0h2m1 0h1m1 0h1m2 0h1m2 0h1m5 0h1m1 0h1m1 0h1m2 0h3m6 0h1m1 0h2m3 0h1m1 0h1M4 111.5h1m3 0h2m2 0h2m1 0h1m4 0h2m6 0h3m8 0h3m4 0h2m1 0h1m2 0h2m3 0h3m1 0h1m4 0h2m1 0h1m3 0h2m1 0h2m2 0h1m4 0h2m1 0h1m1 0h2m4 0h1m1 0h2m1 0h2m1 0h2m1 0h1m1 0h4m5 0h1m2 0h1m2 0h1m1 0h7m7 0h3m1 0h1m1 0h1m1 0h1m2 0h1m1 0h2m1 0h2m1 0h3m3 0h2m6 0h1m1 0h1m1 0h4M6 112.5h1m1 0h1m1 0h3m1 0h1m3 0h1m1 0h1m1 0h1m2 0h3m1 0h2m1 0h1m1 0h6m2 0h4m1 0h1m1 0h3m2 0h1m1 0h3m1 0h1m1 0h1m1 0h3m5 0h1m2 0h2m1 0h3m1 0h2m3 0h2m1 0h1m1 0h2m1 0h1m1 0h4m1 0h1m3 0h2m3 0h2m1 0h1m2 0h2m1 0h1m4 0h1m1 0h1m1 0h2m1 0h2m3 0h1m1 0h2m1 0h1m1 0h2m2 0h3m4 0h5m2 0h1m5 0h1m1 0h1m1 0h1m2 0h1m4 0h1M6 113.5h1m1 0h1m3 0h2m1 0h1m1 0h2m3 0h1m2 0h2m3 0h2m7 0h2m6 0h1m2 0h2m2 0h4m2 0h1m2 0h1m4 0h3m4 0h1m1 0h1m2 0h1m2 0h2m1 0h1m2 0h2m3 0h1m1 0h1m3 0h2m1 0h1m1 0h2m2 0h1m1 0h2m2 0h2m1 0h3m1 0h3m1 0h1m4 0h1m1 0h6m4 0h5m2 0h3m1 0h3m1 0h9m1 0h10m1 0h2M4 114.5h1m1 0h2m2 0h3m1 0h1m2 0h4m1 0h3m1 0h2m1 0h3m9 0h1m4 0h2m1 0h1m2 0h4m4 0h1m3 0h1m2 0h2m1 0h2m7 0h7m1 0h2m6 0h5m2 0h1m1 0h1m2 0h2m1 0h2m1 0h3m6 0h1m1 0h2m1 0h1m6 0h2m1 0h3m3 0h3m1 0h1m5 0h1m1 0h1m1 0h1m1 0h3m1 0h1m1 0h1m1 0h1m1 0h1m1 0h1m2 0h3m1 0h1M4 115.5h2m1 0h2m4 0h1m4 0h1m3 0h4m1 0h1m2 0h2m4 0h1m3 0h1m5 0h2m4 0h2m4 0h2m1 0h1m1 0h1m2 0h1m9 0h3m6 0h2m2 0h4m2 0h2m1 0h1m2 0h4m3 0h3m3 0h5m2 0h5m3 0h6m2 0h1m2 0h2m2 0h1m1 0h1m1 0h2m1 0h1m2 0h2m3 0h2m5 0h4m3 0h2m2 0h2M5 116.5h9m3 0h1m2 0h4m2 0h3m2 0h6m2 0h3m2 0h2m3 0h3m3 0h1m4 0h5m2 0h1m1 0h1m1 0h1m1 0h1m1 0h2m3 0h3m5 0h7m5 0h1m1 0h2m1 0h1m1 0h1m2 0h4m1 0h7m5 0h4m1 0h2m3 0h1m1 0h4m1 0h5m1 0h1m1 0h2m1 0h2m3 0h1m1 0h4m1 0h4m1 0h5m3 0h1M4 117.5h2m1 0h2m3 0h6m1 0h1m3 0h1m1 0h1m2 0h1m1 0h3m3 0h2m1 0h1m3 0h3m1 0h2m1 0h1m3 0h1m4 0h2m3 0h1m2 0h4m3 0h6m1 0h1m1 0h1m2 0h1m1 0h1m3 0h3m11 0h2m3 0h2m3 0h1m3 0h3m1 0h1m1 0h2m5 0h4m1 0h2m3 0h2m3 0h1m1 0h3m2 0h2m2 0h1m2 0h1m1 0h5m1 0h3m3 0h1m2 0h2M4 118.5h1m1 0h3m1 0h1m1 0h1m2 0h1m2 0h4m2 0h1m5 0h1m1 0h1m1 0h1m1 0h1m2 0h2m1 0h1m3 0h2m1 0h2m1 0h2m6 0h1m1 0h1m1 0h1m2 0h2m1 0h1m1 0h2m3 0h1m1 0h2m1 0h1m1 0h2m2 0h1m1 0h1m1 0h2m2 0h2m1 0h1m2 0h2m4 0h3m1 0h1m1 0h1m1 0h1m1 0h1m1 0h1m1 0h3m3 0h1m2 0h1m2 0h4m1 0h3m2 0h1m1 0h1m1 0h1m4 0h2m3 0h1m1 0h1m2 0h1m2 0h2m1 0h2m1 0h1m1 0h1m1 0h3M4 119.5h1m1 0h3m3 0h1m1 0h6m1 0h5m2 0h1m1 0h3m3 0h1m3 0h1m4 0h4m1 0h1m2 0h1m1 0h4m1 0h1m3 0h1m1 0h2m1 0h1m1 0h1m1 0h2m1 0h4m3 0h1m2 0h3m3 0h1m1 0h1m1 0h1m2 0h1m1 0h1m1 0h2m3 0h4m2 0h3m3 0h6m1 0h2m1 0h2m3 0h4m1 0h1m1 0h3m3 0h1m2 0h2m1 0h3m6 0h4m5 0h1m3 0h1m1 0h2M4 120.5h2m2 0h5m1 0h4m2 0h2m1 0h3m2 0h1m1 0h1m1 0h8m1 0h5m2 0h2m1 0h2m1 0h1m1 0h1m3 0h6m2 0h1m1 0h1m3 0h3m3 0h1m4 0h2m1 0h5m1 0h2m1 0h1m2 0h2m3 0h2m5 0h10m5 0h2m1 0h1m1 0h1m2 0h3m1 0h10m1 0h2m5 0h2m1 0h4m1 0h1m2 0h9m2 0h1M4 121.5h3m1 0h1m3 0h2m1 0h1m1 0h1m1 0h1m4 0h3m1 0h1m1 0h2m1 0h4m1 0h7m3 0h1m6 0h2m1 0h1m1 0h7m1 0h1m1 0h4m1 0h2m1 0h2m1 0h1m1 0h1m4 0h1m1 0h1m1 0h6m1 0h3m1 0h1m2 0h1m1 0h2m3 0h1m3 0h6m1 0h1m1 0h1m8 0h2m1 0h2m1 0h2m2 0h1m2 0h2m2 0h1m2 0h2m1 0h2m1 0h4m3 0h6m1 0h1m3 0h2M5 122.5h4m1 0h2m2 0h1m6 0h1m1 0h2m2 0h1m1 0h1m3 0h2m1 0h1m1 0h1m1 0h1m2 0h1m3 0h1m3 0h3m1 0h1m1 0h2m3 0h1m1 0h2m2 0h5m7 0h3m1 0h2m1 0h3m3 0h1m3 0h6m2 0h1m1 0h5m1 0h2m1 0h1m1 0h1m1 0h1m2 0h1m1 0h1m1 0h1m6 0h7m1 0h1m1 0h4m6 0h1m2 0h2m1 0h1m2 0h1m2 0h1m5 0h1m1 0h1m1 0h1m1 0h1M5 123.5h4m2 0h2m1 0h2m1 0h1m1 0h5m1 0h1m4 0h5m1 0h1m2 0h3m3 0h2m1 0h1m3 0h2m1 0h1m2 0h1m1 0h2m1 0h1m2 0h2m1 0h2m2 0h2m1 0h1m1 0h2m1 0h1m4 0h3m2 0h4m1 0h1m1 0h1m3 0h1m1 0h6m1 0h1m1 0h2m1 0h1m7 0h2m1 0h5m1 0h1m1 0h2m2 0h1m2 0h1m1 0h1m1 0h2m1 0h1m4 0h1m1 0h2m2 0h2m3 0h3m3 0h1m4 0h3M4 124.5h2m2 0h1m1 0h3m1 0h1m6 0h1m1 0h2m2 0h1m3 0h1m1 0h3m1 0h1m1 0h4m6 0h2m2 0h1m2 0h3m1 0h1m4 0h1m1 0h1m3 0h1m1 0h6m2 0h1m2 0h1m1 0h1m1 0h1m1 0h1m1 0h1m2 0h1m1 0h1m2 0h4m3 0h1m1 0h1m2 0h1m2 0h1m3 0h1m8 0h5m4 0h1m2 0h3m1 0h2m2 0h1m1 0h1m1 0h1m4 0h3m1 0h5m1 0h2m5 0h2m1 0h1m1 0h2M4 125.5h1m1 0h1m2 0h1m2 0h1m1 0h1m2 0h2m1 0h1m2 0h1m3 0h5m1 0h1m2 0h3m1 0h5m1 0h3m1 0h2m3 0h2m3 0h3m1 0h1m2 0h1m1 0h3m4 0h2m2 0h1m1 0h1m1 0h2m1 0h1m1 0h4m1 0h2m4 0h1m5 0h2m1 0h1m7 0h4m1 0h3m1 0h2m1 0h1m1 0h1m2 0h6m2 0h1m4 0h1m1 0h2m3 0h1m1 0h4m1 0h2m1 0h1m3 0h5m5 0h1m1 0h1M6 126.5h1m2 0h3m3 0h1m3 0h3m2 0h1m1 0h2m1 0h4m3 0h4m1 0h1m1 0h1m2 0h2m1 0h1m2 0h3m2 0h3m1 0h5m1 0h4m1 0h2m5 0h6m5 0h1m9 0h3m4 0h1m1 0h2m2 0h4m1 0h1m1 0h2m2 0h1m2 0h2m7 0h1m2 0h1m1 0h1m1 0h1m2 0h3m6 0h1m4 0h1m1 0h2m1 0h1m3 0h1m4 0h1M5 127.5h1m1 0h1m6 0h3m7 0h2m2 0h2m2 0h2m1 0h1m3 0h2m2 0h1m2 0h3m3 0h1m5 0h3m1 0h3m1 0h1m7 0h1m1 0h3m6 0h2m1 0h4m2 0h1m1 0h2m1 0h1m1 0h2m1 0h1m3 0h3m3 0h1m1 0h2m1 0h1m3 0h1m2 0h2m1 0h4m1 0h2m1 0h2m1 0h3m1 0h1m1 0h1m6 0h2m6 0h1m1 0h1m1 0h2m1 0h2m1 0h6m1 0h2M4 128.5h2m1 0h2m1 0h2m1 0h1m1 0h2m1 0h4m6 0h1m2 0h1m3 0h1m3 0h2m1 0h1m2 0h1m4 0h2m2 0h1m1 0h1m3 0h2m1 0h1m1 0h1m1 0h1m4 0h3m1 0h1m4 0h1m3 0h2m5 0h3m4 0h2m2 0h1m1 0h3m1 0h1m2 0h4m1 0h1m2 0h1m2 0h1m3 0h2m1 0h1m2 0h1m3 0h1m1 0h8m1 0h5m4 0h3m2 0h1m1 0h1m2 0h4m4 0h1m1 0h1m1 0h2M4 129.5h1m1 0h1m1 0h2m1 0h3m3 0h1m1 0h2m3 0h1m2 0h2m4 0h1m2 0h1m1 0h1m2 0h6m1 0h1m1 0h1m4 0h1m4 0h1m1 0h1m1 0h1m4 0h1m1 0h1m6 0h1m2 0h3m1 0h1m1 0h4m1 0h6m1 0h1m1 0h1m1 0h1m2 0h1m5 0h1m6 0h1m3 0h4m4 0h1m1 0h7m7 0h2m1 0h1m1 0h2m1 0h3m1 0h1m1 0h10m1 0h2m1 0h1m1 0h4M5 130.5h1m1 0h2m1 0h1m1 0h1m1 0h2m1 0h2m3 0h2m3 0h3m5 0h2m1 0h1m1 0h1m2 0h1m3 0h1m4 0h1m1 0h1m2 0h3m1 0h1m1 0h2m3 0h3m1 0h2m6 0h4m1 0h1m1 0h1m3 0h1m3 0h4m1 0h1m1 0h2m3 0h12m1 0h2m1 0h1m1 0h1m3 0h2m5 0h5m4 0h2m1 0h1m8 0h4m1 0h2m2 0h1m2 0h1m2 0h3m2 0h2M6 131.5h1m1 0h1m6 0h2m1 0h1m1 0h2m1 0h1m1 0h1m1 0h1m2 0h5m1 0h1m1 0h3m5 0h2m1 0h1m2 0h1m2 0h1m2 0h2m2 0h3m1 0h2m5 0h4m1 0h2m1 0h3m1 0h2m1 0h2m1 0h1m2 0h1m1 0h1m1 0h1m5 0h2m2 0h1m2 0h1m3 0h1m1 0h1m1 0h1m2 0h1m1 0h2m1 0h1m2 0h1m1 0h1m1 0h1m1 0h1m1 0h1m3 0h3m1 0h1m5 0h4m1 0h1m1 0h1m1 0h1m3 0h2m2 0h1m2 0h1m1 0h1m3 0h2M4 132.5h3m1 0h3m1 0h2m1 0h2m1 0h1m1 0h1m3 0h1m1 0h1m1 0h9m2 0h1m1 0h4m5 0h1m1 0h3m1 0h1m2 0h2m4 0h2m3 0h1m1 0h3m1 0h1m1 0h1m1 0h4m2 0h1m1 0h3m2 0h2m5 0h4m1 0h3m1 0h1m2 0h2m4 0h1m1 0h2m1 0h1m1 0h1m3 0h5m1 0h1m1 0h1m1 0h6m3 0h1m1 0h2m1 0h1m4 0h1m1 0h4m3 0h5M5 133.5h1m3 0h1m2 0h5m1 0h1m4 0h2m2 0h2m10 0h2m2 0h6m1 0h2m1 0h1m2 0h3m1 0h5m2 0h1m1 0h3m7 0h3m2 0h1m2 0h1m3 0h2m1 0h3m2 0h3m1 0h1m2 0h2m1 0h1m5 0h1m1 0h1m1 0h4m1 0h3m6 0h5m10 0h1m2 0h4m1 0h2m4 0h3m3 0h1m1 0h1m1 0h1m2 0h1m3 0h2M4 134.5h3m1 0h4m2 0h1m3 0h3m3 0h3m1 0h1m2 0h3m1 0h2m2 0h1m2 0h2m1 0h1m3 0h5m4 0h1m2 0h3m4 0h3m1 0h2m5 0h4m1 0h1m4 0h1m1 0h1m4 0h3m3 0h1m1 0h2m2 0h3m1 0h7m1 0h2m1 0h5m8 0h1m1 0h2m3 0h2m4 0h2m3 0h2m1 0h5m4 0h1m2 0h2m3 0h1m1 0h1m1 0h1M5 135.5h1m2 0h1m2 0h3m1 0h5m1 0h4m2 0h1m4 0h2m1 0h1m4 0h2m1 0h1m2 0h1m1 0h1m3 0h1m2 0h1m2 0h2m2 0h2m1 0h2m2 0h1m3 0h4m1 0h1m2 0h1m3 0h2m1 0h2m3 0h1m1 0h2m1 0h1m3 0h1m1 0h1m2 0h2m1 0h1m2 0h6m2 0h2m1 0h1m1 0h1m1 0h2m1 0h2m2 0h3m1 0h3m2 0h1m8 0h3m1 0h1m3 0h1m1 0h2m1 0h1m1 0h2m1 0h2m1 0h3m1 0h1M4 136.5h1m1 0h1m2 0h2m4 0h1m1 0h1m3 0h1m1 0h2m3 0h1m5 0h2m1 0h4m1 0h2m1 0h1m2 0h1m1 0h1m3 0h1m1 0h2m2 0h1m5 0h2m1 0h1m1 0h1m1 0h2m2 0h2m1 0h1m1 0h2m2 0h1m1 0h3m1 0h1m1 0h1m2 0h2m1 0h1m2 0h1m1 0h2m2 0h2m1 0h1m5 0h1m1 0h2m1 0h1m3 0h2m1 0h3m6 0h2m1 0h1m1 0h1m1 0h1m1 0h1m1 0h1m2 0h8m1 0h1m4 0h4m4 0h1m1 0h1m1 0h2M4 137.5h1m1 0h4m2 0h1m1 0h1m1 0h1m5 0h2m6 0h2m2 0h1m3 0h1m2 0h4m3 0h1m1 0h1m2 0h1m1 0h1m1 0h1m1 0h2m1 0h3m4 0h2m3 0h2m4 0h2m1 0h1m5 0h8m3 0h1m2 0h1m1 0h2m1 0h1m2 0h3m1 0h1m1 0h8m1 0h2m1 0h1m4 0h1m1 0h1m1 0h1m6 0h1m1 0h8m1 0h3m2 0h4m1 0h1m1 0h1m2 0h2m3 0h1m1 0h1m1 0h1M5 138.5h2m2 0h6m1 0h1m1 0h5m1 0h2m4 0h5m1 0h1m2 0h2m1 0h2m2 0h2m1 0h1m2 0h2m2 0h3m3 0h3m3 0h1m1 0h1m1 0h2m5 0h2m1 0h3m9 0h1m1 0h4m1 0h2m1 0h1m4 0h2m1 0h3m1 0h1m1 0h1m1 0h2m1 0h2m1 0h1m2 0h1m1 0h2m1 0h1m1 0h2m1 0h1m1 0h1m2 0h3m3 0h2m1 0h2m2 0h1m2 0h1m2 0h1m1 0h1m5 0h2m1 0h1m2 0h1M4 139.5h1m2 0h1m1 0h1m1 0h3m2 0h1m2 0h1m1 0h1m2 0h1m3 0h1m4 0h1m1 0h1m1 0h1m2 0h3m2 0h3m3 0h2m2 0h4m1 0h2m1 0h1m2 0h2m1 0h1m1 0h1m2 0h5m7 0h1m1 0h2m1 0h1m1 0h1m1 0h2m1 0h1m2 0h5m1 0h2m1 0h2m1 0h2m1 0h2m3 0h3m1 0h2m1 0h2m3 0h1m3 0h1m3 0h1m3 0h1m1 0h1m3 0h1m2 0h1m1 0h2m2 0h1m2 0h1m2 0h2m1 0h1m1 0h1m1 0h4m1 0h1m1 0h1M4 140.5h1m4 0h2m1 0h3m5 0h2m1 0h1m1 0h4m1 0h1m1 0h1m4 0h2m4 0h1m3 0h2m2 0h1m2 0h1m1 0h1m1 0h1m4 0h1m5 0h1m2 0h2m2 0h1m1 0h4m1 0h1m1 0h1m1 0h2m2 0h4m5 0h1m4 0h1m3 0h2m1 0h2m3 0h1m3 0h1m6 0h1m1 0h1m1 0h1m6 0h2m1 0h1m1 0h2m2 0h1m1 0h4m1 0h2m1 0h1m1 0h1m1 0h1m2 0h1m1 0h2m1 0h2m3 0h1M4 141.5h1m2 0h1m3 0h3m3 0h1m6 0h1m4 0h1m2 0h1m1 0h1m1 0h4m1 0h2m2 0h3m2 0h1m2 0h1m1 0h3m2 0h6m2 0h7m2 0h1m4 0h3m2 0h1m2 0h1m1 0h1m1 0h3m2 0h3m2 0h3m2 0h1m5 0h1m3 0h1m2 0h1m1 0h3m7 0h1m1 0h4m1 0h1m1 0h1m1 0h1m1 0h4m1 0h3m1 0h2m4 0h1m1 0h2m2 0h1m3 0h1m7 0h1M7 142.5h2m1 0h1m1 0h4m5 0h1m3 0h2m4 0h5m1 0h2m1 0h3m8 0h2m1 0h2m1 0h2m5 0h1m3 0h3m1 0h2m6 0h1m1 0h1m1 0h1m4 0h1m1 0h1m4 0h1m1 0h1m3 0h4m1 0h4m1 0h1m1 0h2m2 0h6m1 0h1m6 0h2m4 0h2m1 0h1m4 0h1m1 0h1m5 0h2m4 0h1m5 0h2m3 0h1m1 0h2m2 0h2M5 143.5h2m4 0h1m2 0h3m1 0h1m4 0h1m4 0h3m1 0h1m1 0h4m2 0h2m1 0h5m10 0h2m3 0h1m1 0h1m1 0h1m2 0h2m1 0h2m1 0h3m2 0h1m4 0h4m6 0h1m1 0h1m2 0h4m3 0h1m2 0h6m4 0h1m3 0h5m2 0h3m1 0h1m2 0h3m2 0h1m4 0h1m1 0h1m1 0h3m1 0h1m1 0h2m5 0h2m6 0h1m1 0h1m1 0h1m1 0h1M4 144.5h1m2 0h7m1 0h4m1 0h1m1 0h1m2 0h1m2 0h9m3 0h1m1 0h2m7 0h1m2 0h1m2 0h1m2 0h5m2 0h1m1 0h1m4 0h1m1 0h4m1 0h3m2 0h1m1 0h7m2 0h1m2 0h1m1 0h1m3 0h1m2 0h5m2 0h5m4 0h1m1 0h2m1 0h2m5 0h1m1 0h12m1 0h2m2 0h1m1 0h3m1 0h1m2 0h1m1 0h2m1 0h1m1 0h5m3 0h1M5 145.5h1m2 0h1m3 0h1m2 0h1m1 0h1m1 0h2m5 0h1m1 0h3m1 0h1m3 0h4m1 0h1m2 0h3m1 0h3m4 0h3m1 0h2m3 0h1m2 0h1m3 0h6m3 0h6m1 0h2m3 0h1m1 0h4m7 0h3m4 0h2m1 0h2m3 0h5m1 0h2m3 0h1m1 0h4m1 0h1m4 0h2m3 0h1m6 0h2m4 0h1m4 0h1m1 0h2m1 0h2m3 0h5M4 146.5h1m1 0h1m1 0h1m1 0h1m1 0h2m6 0h2m1 0h1m1 0h2m1 0h1m2 0h2m1 0h1m1 0h1m2 0h5m1 0h3m2 0h1m1 0h1m2 0h1m4 0h1m1 0h1m1 0h1m5 0h1m1 0h1m1 0h2m1 0h1m2 0h3m1 0h1m2 0h2m1 0h1m1 0h2m1 0h2m1 0h2m2 0h3m4 0h3m2 0h3m1 0h1m1 0h1m3 0h1m1 0h2m1 0h2m2 0h4m2 0h2m3 0h1m1 0h1m1 0h2m3 0h2m4 0h4m3 0h2m2 0h3m1 0h1m1 0h1m1 0h2M4 147.5h1m1 0h3m3 0h1m1 0h1m1 0h2m1 0h1m1 0h3m2 0h3m3 0h1m3 0h2m8 0h2m1 0h1m5 0h2m1 0h3m3 0h1m1 0h1m4 0h1m1 0h1m2 0h1m1 0h1m2 0h1m1 0h1m2 0h1m1 0h1m3 0h3m1 0h1m4 0h1m1 0h6m1 0h2m1 0h1m1 0h2m3 0h4m1 0h1m1 0h1m1 0h4m2 0h2m4 0h2m1 0h1m3 0h1m2 0h1m1 0h5m2 0h1m5 0h1m1 0h1m3 0h1m3 0h3M5 148.5h2m1 0h5m1 0h1m1 0h2m1 0h2m3 0h3m1 0h2m1 0h10m1 0h1m1 0h2m1 0h2m1 0h3m1 0h1m1 0h2m2 0h8m3 0h2m1 0h5m3 0h1m1 0h1m1 0h1m1 0h8m3 0h3m1 0h1m1 0h2m2 0h1m2 0h9m2 0h1m1 0h1m2 0h3m2 0h1m1 0h1m6 0h9m4 0h4m2 0h2m1 0h2m1 0h10m3 0h1M5 149.5h1m1 0h1m4 0h2m5 0h2m2 0h1m8 0h3m3 0h4m2 0h2m2 0h1m1 0h1m2 0h1m1 0h2m1 0h1m1 0h1m7 0h2m1 0h1m1 0h1m1 0h1m1 0h1m1 0h1m1 0h5m1 0h4m1 0h1m1 0h4m1 0h1m3 0h1m2 0h2m3 0h2m3 0h2m3 0h2m1 0h1m1 0h1m4 0h1m1 0h2m1 0h3m5 0h2m2 0h5m1 0h3m1 0h1m3 0h4m2 0h3m2 0h1m1 0h1m1 0h1m1 0h2M4 150.5h2m1 0h1m2 0h1m1 0h1m5 0h1m2 0h1m1 0h2m2 0h1m1 0h1m3 0h3m5 0h3m3 0h1m4 0h4m1 0h2m1 0h1m1 0h1m1 0h2m1 0h2m1 0h2m3 0h1m1 0h1m2 0h1m1 0h3m4 0h4m2 0h1m2 0h1m3 0h1m1 0h1m2 0h8m2 0h2m1 0h1m1 0h7m4 0h5m1 0h1m1 0h2m10 0h1m1 0h1m4 0h2m5 0h1m2 0h3m6 0h1M4 151.5h6m1 0h4m1 0h3m1 0h2m1 0h10m1 0h1m3 0h1m2 0h1m1 0h4m10 0h3m2 0h5m2 0h1m1 0h1m1 0h2m1 0h2m3 0h2m2 0h1m1 0h1m2 0h2m1 0h2m1 0h1m5 0h1m1 0h3m1 0h1m1 0h1m2 0h1m1 0h2m1 0h3m2 0h2m1 0h1m1 0h5m7 0h1m1 0h5m1 0h1m2 0h1m1 0h2m4 0h2m4 0h2m1 0h2m1 0h2m1 0h1m1 0h4M4 152.5h2m2 0h1m1 0h3m1 0h1m2 0h3m1 0h1m3 0h3m4 0h3m1 0h2m2 0h2m1 0h1m1 0h1m2 0h2m1 0h1m2 0h1m1 0h4m1 0h2m2 0h1m1 0h4m3 0h1m1 0h1m1 0h1m2 0h1m3 0h2m1 0h1m2 0h2m1 0h1m4 0h2m1 0h2m1 0h3m1 0h2m1 0h3m2 0h1m1 0h1m1 0h1m3 0h1m2 0h1m1 0h2m3 0h1m3 0h2m1 0h1m1 0h1m1 0h2m1 0h5m2 0h7m7 0h1m1 0h5m3 0h1M4 153.5h1m6 0h4m1 0h1m2 0h3m1 0h2m2 0h3m2 0h4m1 0h2m3 0h3m2 0h5m1 0h2m1 0h3m3 0h1m2 0h3m1 0h2m1 0h2m1 0h4m1 0h5m1 0h3m1 0h1m3 0h4m2 0h2m2 0h1m1 0h2m3 0h2m8 0h4m1 0h2m3 0h1m2 0h1m1 0h4m4 0h3m1 0h1m2 0h2m3 0h1m1 0h2m1 0h2m1 0h1m3 0h4m3 0h1m1 0h1m2 0h1M6 154.5h1m1 0h1m1 0h7m5 0h2m1 0h2m2 0h1m1 0h2m4 0h3m3 0h1m5 0h1m1 0h3m1 0h1m1 0h1m1 0h3m1 0h2m5 0h1m1 0h1m2 0h3m1 0h2m1 0h1m1 0h2m4 0h4m1 0h2m1 0h2m1 0h1m1 0h2m4 0h2m3 0h1m2 0h2m2 0h2m1 0h1m6 0h2m1 0h3m4 0h4m2 0h4m2 0h2m2 0h1m2 0h1m1 0h1m2 0h2m2 0h2m6 0h2M7 155.5h1m1 0h1m3 0h1m1 0h1m1 0h1m4 0h2m5 0h1m1 0h2m4 0h1m2 0h1m1 0h1m2 0h4m2 0h2m4 0h2m3 0h2m2 0h1m2 0h1m5 0h5m3 0h1m2 0h1m1 0h3m2 0h2m1 0h2m5 0h2m3 0h1m1 0h2m2 0h2m2 0h1m1 0h1m2 0h1m1 0h5m3 0h1m3 0h1m2 0h2m1 0h7m2 0h1m1 0h1m2 0h1m2 0h2m1 0h2m1 0h1m2 0h1m1 0h1m1 0h3m2 0h1m1 0h1M5 156.5h2m2 0h8m1 0h1m2 0h3m3 0h1m3 0h1m1 0h8m2 0h2m1 0h1m1 0h3m1 0h1m1 0h1m1 0h1m2 0h1m1 0h1m2 0h2m1 0h1m2 0h1m3 0h1m1 0h4m1 0h1m3 0h1m1 0h1m1 0h1m1 0h3m3 0h2m1 0h1m2 0h1m2 0h1m2 0h1m1 0h3m7 0h1m3 0h1m1 0h2m1 0h3m2 0h1m3 0h4m1 0h4m2 0h1m1 0h1m3 0h1m1 0h2m1 0h2m1 0h1m2 0h1m2 0h1m2 0h4m2 0h2M4 157.5h1m4 0h1m2 0h2m1 0h2m2 0h4m2 0h1m2 0h1m1 0h2m1 0h2m4 0h4m1 0h3m1 0h3m2 0h2m1 0h3m1 0h1m2 0h3m2 0h1m1 0h1m2 0h2m7 0h7m1 0h1m1 0h1m1 0h1m2 0h1m1 0h2m2 0h1m1 0h3m3 0h1m3 0h2m2 0h1m1 0h2m1 0h1m1 0h2m1 0h1m3 0h6m2 0h1m4 0h1m1 0h5m1 0h1m1 0h1m4 0h4m1 0h1m1 0h1m1 0h1m4 0h1m1 0h1m2 0h1M5 158.5h2m2 0h5m1 0h1m1 0h1m1 0h1m1 0h1m2 0h1m2 0h2m1 0h2m2 0h1m2 0h3m1 0h1m1 0h1m1 0h1m3 0h1m2 0h2m1 0h1m5 0h1m1 0h3m2 0h1m1 0h3m4 0h1m1 0h4m2 0h1m4 0h3m3 0h4m2 0h1m5 0h3m1 0h1m1 0h1m3 0h1m1 0h1m2 0h1m3 0h5m2 0h1m2 0h2m3 0h1m4 0h2m2 0h1m2 0h2m4 0h1m1 0h2m1 0h1m1 0h1m1 0h2m1 0h2m1 0h4M4 159.5h4m1 0h1m2 0h2m1 0h1m4 0h2m2 0h3m3 0h4m5 0h2m1 0h1m1 0h1m1 0h1m2 0h1m2 0h2m1 0h1m2 0h1m4 0h3m7 0h2m1 0h1m1 0h2m1 0h4m1 0h1m1 0h1m1 0h2m4 0h1m1 0h1m3 0h1m1 0h1m3 0h1m1 0h1m2 0h3m1 0h2m1 0h1m2 0h5m2 0h2m2 0h2m5 0h1m1 0h6m3 0h6m3 0h1m1 0h2m1 0h1m4 0h2m2 0h4m1 0h1M4 160.5h1m1 0h1m1 0h1m1 0h1m2 0h1m1 0h2m1 0h1m5 0h2m1 0h1m1 0h3m1 0h1m1 0h2m1 0h1m1 0h2m1 0h3m2 0h3m3 0h1m1 0h1m3 0h1m1 0h1m3 0h1m2 0h2m2 0h6m2 0h1m2 0h1m1 0h1m1 0h2m1 0h4m2 0h1m2 0h2m1 0h1m2 0h1m2 0h1m1 0h5m2 0h1m2 0h1m5 0h4m1 0h1m6 0h4m1 0h1m1 0h2m1 0h2m2 0h6m2 0h1m2 0h1m3 0h3m1 0h2m1 0h2m1 0h3M5 161.5h1m2 0h1m2 0h1m2 0h1m4 0h1m4 0h2m2 0h2m1 0h1m1 0h1m2 0h1m1 0h1m1 0h2m1 0h2m3 0h2m3 0h1m2 0h2m2 0h2m1 0h2m2 0h1m2 0h4m3 0h1m1 0h3m1 0h5m1 0h1m3 0h3m3 0h2m2 0h5m5 0h1m1 0h2m1 0h1m1 0h3m1 0h1m1 0h1m4 0h1m1 0h2m1 0h3m2 0h1m2 0h2m1 0h3m1 0h2m1 0h1m1 0h1m1 0h1m5 0h2m2 0h1m1 0h2m5 0h1m2 0h1M5 162.5h1m3 0h2m3 0h1m3 0h1m1 0h1m1 0h2m2 0h1m2 0h1m1 0h1m1 0h1m1 0h1m3 0h1m1 0h2m2 0h2m2 0h2m1 0h2m1 0h1m1 0h1m2 0h5m3 0h3m1 0h2m1 0h3m1 0h4m1 0h1m4 0h2m1 0h1m3 0h1m1 0h3m1 0h3m2 0h1m2 0h2m2 0h1m1 0h1m2 0h3m1 0h6m2 0h1m1 0h3m2 0h2m1 0h1m1 0h1m4 0h1m1 0h1m2 0h2m4 0h5m2 0h1m2 0h5m2 0h1m1 0h1M4 163.5h1m7 0h1m1 0h2m1 0h5m5 0h3m2 0h2m1 0h1m1 0h1m2 0h3m3 0h2m1 0h1m8 0h5m3 0h1m6 0h2m1 0h1m1 0h2m3 0h1m1 0h2m4 0h1m4 0h1m2 0h1m2 0h1m1 0h1m3 0h2m1 0h3m1 0h2m1 0h1m1 0h1m3 0h2m1 0h1m1 0h2m2 0h1m2 0h1m3 0h1m1 0h3m1 0h4m4 0h1m5 0h2m3 0h2m1 0h1m2 0h8M7 164.5h1m1 0h6m1 0h1m1 0h1m1 0h1m2 0h4m1 0h1m3 0h1m1 0h2m1 0h1m1 0h4m4 0h2m1 0h3m1 0h1m4 0h1m4 0h4m6 0h5m2 0h1m2 0h4m1 0h1m2 0h1m1 0h1m5 0h1m5 0h2m1 0h1m1 0h3m1 0h1m1 0h1m3 0h1m5 0h7m3 0h1m3 0h2m6 0h5m2 0h7m5 0h1m1 0h1m7 0h1m1 0h1M6 165.5h1m1 0h1m2 0h2m1 0h4m2 0h2m2 0h1m2 0h1m1 0h1m1 0h2m1 0h1m1 0h1m1 0h2m1 0h1m1 0h3m1 0h4m4 0h2m3 0h1m2 0h1m4 0h1m3 0h3m1 0h1m8 0h1m1 0h1m2 0h2m2 0h2m1 0h1m1 0h2m3 0h1m1 0h2m1 0h1m1 0h1m3 0h3m1 0h6m1 0h2m1 0h1m3 0h2m1 0h2m5 0h1m2 0h1m1 0h2m2 0h1m2 0h3m1 0h1m4 0h1m2 0h4m2 0h1m6 0h1M8 166.5h3m3 0h1m6 0h1m3 0h2m1 0h2m4 0h2m4 0h2m1 0h1m3 0h1m4 0h2m3 0h3m1 0h2m1 0h2m1 0h1m2 0h1m1 0h2m1 0h1m1 0h1m1 0h2m1 0h4m2 0h1m1 0h1m1 0h2m3 0h2m1 0h1m1 0h2m5 0h2m3 0h1m5 0h3m4 0h3m3 0h2m3 0h1m2 0h2m4 0h1m1 0h1m1 0h1m2 0h1m2 0h2m1 0h2m4 0h1m5 0h1m4 0h2M5 167.5h1m2 0h2m2 0h5m1 0h2m1 0h1m1 0h2m1 0h1m8 0h2m4 0h1m1 0h1m1 0h1m7 0h1m1 0h5m1 0h2m1 0h1m3 0h2m3 0h4m1 0h2m5 0h2m1 0h2m1 0h1m1 0h2m1 0h2m6 0h2m2 0h3m1 0h1m2 0h1m2 0h5m1 0h1m1 0h1m1 0h1m1 0h3m1 0h2m1 0h2m1 0h9m3 0h1m1 0h1m2 0h1m2 0h1m4 0h2m1 0h1m2 0h1m1 0h4m1 0h1m1 0h1M6 168.5h3m1 0h2m2 0h1m2 0h1m2 0h1m2 0h1m1 0h1m1 0h1m7 0h2m1 0h1m1 0h1m1 0h1m3 0h7m1 0h1m1 0h1m1 0h3m5 0h4m1 0h1m3 0h1m3 0h1m1 0h1m5 0h1m4 0h1m5 0h1m1 0h1m1 0h1m3 0h2m2 0h8m3 0h1m1 0h1m3 0h2m1 0h3m4 0h1m1 0h4m2 0h3m2 0h1m2 0h1m2 0h1m1 0h1m1 0h3m3 0h1m6 0h1m2 0h1m3 0h1M4 169.5h1m3 0h2m2 0h1m4 0h1m3 0h1m3 0h3m1 0h1m3 0h2m2 0h1m2 0h1m1 0h1m2 0h2m1 0h3m4 0h2m1 0h1m4 0h1m1 0h2m1 0h3m1 0h2m1 0h1m3 0h2m2 0h2m5 0h3m1 0h2m3 0h2m3 0h5m2 0h1m4 0h2m3 0h7m1 0h1m1 0h1m1 0h2m1 0h4m3 0h2m2 0h5m1 0h2m1 0h1m1 0h1m2 0h2m1 0h3m1 0h3m2 0h2m2 0h2m1 0h1M4 170.5h3m2 0h3m1 0h2m1 0h1m1 0h2m2 0h1m1 0h1m1 0h2m1 0h1m2 0h2m1 0h2m1 0h2m1 0h2m3 0h1m3 0h4m1 0h1m3 0h4m1 0h2m1 0h2m1 0h1m1 0h2m3 0h1m1 0h7m3 0h1m1 0h2m3 0h3m3 0h2m6 0h1m2 0h2m3 0h4m1 0h1m1 0h2m1 0h1m4 0h5m3 0h1m1 0h1m1 0h1m1 0h1m1 0h1m3 0h2m2 0h1m2 0h2m3 0h2m3 0h4m3 0h1m1 0h1M7 171.5h1m3 0h1m1 0h1m1 0h1m1 0h2m1 0h3m3 0h2m2 0h1m4 0h1m2 0h1m1 0h1m2 0h2m1 0h2m1 0h1m6 0h1m1 0h2m2 0h1m1 0h1m1 0h2m1 0h1m3 0h2m1 0h1m1 0h2m1 0h1m1 0h1m2 0h2m1 0h2m3 0h1m1 0h2m4 0h5m1 0h2m1 0h2m1 0h5m1 0h1m2 0h1m1 0h1m1 0h2m3 0h1m2 0h3m5 0h4m1 0h1m2 0h1m2 0h1m1 0h2m1 0h3m1 0h1m2 0h2m3 0h2m1 0h1m2 0h2m1 0h1M5 172.5h1m1 0h1m1 0h2m1 0h3m3 0h1m3 0h2m2 0h1m3 0h9m1 0h1m1 0h3m2 0h1m2 0h4m1 0h1m3 0h8m2 0h3m3 0h1m1 0h2m7 0h1m1 0h8m2 0h4m1 0h1m1 0h3m3 0h3m2 0h6m6 0h1m1 0h1m1 0h1m6 0h4m1 0h7m1 0h1m5 0h1m2 0h1m1 0h3m4 0h1m1 0h5m2 0h2M12 173.5h1m1 0h1m1 0h2m1 0h2m2 0h1m1 0h1m2 0h1m2 0h2m3 0h1m5 0h4m1 0h4m2 0h1m2 0h2m1 0h2m3 0h2m1 0h2m3 0h3m2 0h1m1 0h1m1 0h1m1 0h3m1 0h2m3 0h1m1 0h1m6 0h1m4 0h1m1 0h2m2 0h1m2 0h2m3 0h1m1 0h1m1 0h1m1 0h1m4 0h1m1 0h2m1 0h1m1 0h2m4 0h1m3 0h1m1 0h1m1 0h3m4 0h1m2 0h1m1 0h5m3 0h1m3 0h3m1 0h1M4 174.5h7m1 0h1m2 0h1m3 0h2m3 0h2m2 0h2m2 0h1m1 0h1m1 0h2m1 0h2m1 0h2m8 0h1m2 0h1m1 0h2m1 0h1m1 0h1m1 0h2m1 0h4m1 0h1m4 0h1m2 0h3m1 0h2m1 0h2m1 0h1m1 0h2m2 0h1m1 0h2m1 0h1m1 0h2m3 0h4m2 0h1m1 0h1m1 0h1m1 0h2m1 0h1m3 0h1m1 0h1m1 0h1m1 0h5m1 0h2m3 0h1m1 0h1m1 0h1m2 0h1m1 0h3m3 0h2m4 0h1m6 0h1m1 0h1m1 0h1m1 0h2M4 175.5h1m5 0h1m2 0h2m1 0h1m2 0h1m2 0h1m3 0h1m1 0h1m2 0h2m3 0h1m1 0h2m3 0h1m1 0h3m1 0h1m1 0h3m1 0h1m1 0h2m1 0h1m3 0h1m1 0h2m1 0h2m2 0h2m1 0h1m1 0h2m3 0h1m2 0h1m1 0h1m3 0h3m1 0h1m1 0h1m2 0h4m3 0h1m1 0h1m2 0h4m3 0h1m3 0h2m2 0h1m1 0h2m2 0h3m1 0h3m1 0h1m1 0h1m3 0h1m2 0h1m1 0h2m4 0h1m1 0h1m3 0h2m5 0h1m3 0h4M4 176.5h1m1 0h3m1 0h1m1 0h1m1 0h1m3 0h1m1 0h2m1 0h1m1 0h1m1 0h2m1 0h1m1 0h5m5 0h1m2 0h1m1 0h4m3 0h4m1 0h8m2 0h3m5 0h1m3 0h1m2 0h1m3 0h5m2 0h1m1 0h1m1 0h2m5 0h1m2 0h1m1 0h2m1 0h1m1 0h6m1 0h1m1 0h1m2 0h1m1 0h1m1 0h1m6 0h10m1 0h1m1 0h1m1 0h2m1 0h3m3 0h1m3 0h11m1 0h2M4 177.5h1m1 0h3m1 0h1m1 0h1m1 0h1m2 0h1m1 0h4m2 0h3m2 0h1m1 0h1m4 0h1m2 0h1m2 0h2m3 0h1m6 0h3m1 0h1m1 0h3m3 0h2m3 0h1m2 0h3m2 0h6m1 0h3m3 0h2m5 0h1m3 0h3m2 0h1m2 0h2m1 0h1m6 0h1m1 0h1m1 0h1m2 0h1m3 0h2m1 0h3m5 0h2m3 0h2m3 0h1m1 0h1m1 0h1m2 0h1m1 0h2m5 0h1m2 0h4M4 178.5h1m1 0h3m1 0h1m1 0h1m1 0h1m1 0h4m1 0h1m2 0h1m2 0h2m2 0h1m1 0h1m4 0h5m9 0h1m1 0h1m5 0h1m7 0h6m1 0h1m3 0h6m2 0h1m2 0h1m4 0h5m1 0h2m1 0h1m1 0h1m3 0h1m1 0h3m4 0h2m1 0h1m1 0h1m1 0h1m2 0h1m1 0h6m1 0h1m2 0h1m4 0h3m4 0h2m3 0h1m1 0h2m1 0h1m1 0h3m1 0h1m2 0h1m2 0h1m1 0h2M4 179.5h1m5 0h1m1 0h1m2 0h1m1 0h4m1 0h1m2 0h1m1 0h1m6 0h1m2 0h3m1 0h2m1 0h4m1 0h1m6 0h3m2 0h7m5 0h4m1 0h1m2 0h3m1 0h2m3 0h4m2 0h1m2 0h1m1 0h4m1 0h1m1 0h1m1 0h1m2 0h4m1 0h6m6 0h2m1 0h1m2 0h3m3 0h2m4 0h2m2 0h1m1 0h1m1 0h1m2 0h3m4 0h2m5 0h1m3 0h2M4 180.5h7m1 0h1m1 0h2m2 0h1m1 0h1m2 0h1m1 0h1m4 0h1m1 0h1m1 0h3m4 0h1m2 0h3m3 0h2m2 0h1m5 0h1m1 0h1m1 0h4m1 0h3m1 0h1m3 0h2m1 0h1m5 0h3m1 0h1m3 0h2m4 0h1m2 0h1m7 0h2m1 0h3m1 0h1m1 0h1m2 0h1m1 0h1m1 0h4m1 0h2m1 0h1m5 0h2m3 0h1m1 0h1m1 0h4m3 0h3m1 0h4m2 0h1m1 0h1m5 0h2m2 0h1"/></svg>
