<?xml version="1.0" encoding="utf-8"?><!DOCTYPE svg PUBLIC "-//W3C//DTD SVG 1.1//EN" "http://www.w3.org/Graphics/SVG/1.1/DTD/svg11.dtd"><svg xmlns="http://www.w3.org/2000/svg" viewBox="0 0 153 153" shape-rendering="crispEdges"><path fill="#ffffff" d="M0 0h153v153H0z"/><path stroke="#000000" d="M4 4.5h7m4 0h3m2 0h2m1 0h3m1 0h4m2 0h1m2 0h1m3 0h1m1 0h2m5 0h2m1 0h1m1 0h1m3 0h2m1 0h1m3 0h1m3 0h3m3 0h1m1 0h1m2 0h1m1 0h2m1 0h2m1 0h3m2 0h1m2 0h1m4 0h1m1 0h1m1 0h1m2 0h1m1 0h2m1 0h1m1 0h1m2 0h5m2 0h3m3 0h2m3 0h3m1 0h1m1 0h7M4 5.5h1m5 0h1m1 0h1m1 0h1m4 0h3m2 0h3m2 0h1m1 0h1m1 0h4m2 0h1m2 0h3m1 0h1m1 0h1m2 0h3m2 0h3m2 0h3m3 0h1m1 0h1m2 0h2m4 0h2m1 0h2m1 0h1m5 0h2m1 0h2m2 0h1m1 0h4m4 0h1m1 0h1m2 0h3m3 0h5m1 0h1m1 0h1m3 0h2m1 0h5m1 0h1m2 0h1m5 0h1M4 6.5h1m1 0h3m1 0h1m4 0h1m2 0h1m2 0h1m6 0h3m2 0h1m1 0h2m1 0h2m1 0h3m5 0h5m1 0h6m2 0h2m2 0h4m1 0h3m4 0h2m1 0h5m1 0h1m2 0h1m1 0h3m7 0h1m2 0h1m1 0h1m2 0h2m1 0h5m6 0h5m2 0h1m4 0h4m1 0h1m1 0h3m1 0h1M4 7.5h1m1 0h3m1 0h1m1 0h3m2 0h3m3 0h2m3 0h3m2 0h5m2 0h1m3 0h1m1 0h1m1 0h2m2 0h2m1 0h2m1 0h1m1 0h3m1 0h4m6 0h3m1 0h1m2 0h2m3 0h1m1 0h2m2 0h3m2 0h6m4 0h2m1 0h1m1 0h1m4 0h1m1 0h2m3 0h1m1 0h3m4 0h1m1 0h1m4 0h1m1 0h1m1 0h3m1 0h1M4 8.5h1m1 0h3m1 0h1m4 0h3m2 0h2m2 0h1m2 0h4m1 0h1m3 0h5m1 0h2m1 0h1m1 0h1m1 0h3m2 0h1m2 0h1m3 0h6m2 0h3m1 0h1m1 0h1m1 0h1m2 0h1m2 0h1m1 0h8m1 0h3m1 0h1m3 0h1m1 0h1m1 0h3m1 0h1m3 0h6m4 0h1m1 0h2m1 0h6m7 0h1m1 0h3m1 0h1M4 9.5h1m5 0h1m1 0h4m1 0h1m1 0h1m2 0h1m3 0h2m2 0h1m3 0h1m1 0h1m3 0h2m4 0h2m2 0h1m3 0h1m6 0h2m3 0h2m5 0h2m4 0h1m5 0h2m1 0h1m3 0h1m7 0h1m4 0h3m1 0h2m1 0h3m3 0h2m1 0h1m1 0h1m2 0h1m1 0h1m1 0h2m1 0h1m1 0h2m3 0h1m1 0h1m5 0h1M4 10.5h7m1 0h1m1 0h1m1 0h1m1 0h1m1 0h1m1 0h1m1 0h1m1 0h1m1 0h1m1 0h1m1 0h1m1 0h1m1 0h1m1 0h1m1 0h1m1 0h1m1 0h1m1 0h1m1 0h1m1 0h1m1 0h1m1 0h1m1 0h1m1 0h1m1 0h1m1 0h1m1 0h1m1 0h1m1 0h1m1 0h1m1 0h1m1 0h1m1 0h1m1 0h1m1 0h1m1 0h1m1 0h1m1 0h1m1 0h1m1 0h1m1 0h1m1 0h1m1 0h1m1 0h1m1 0h1m1 0h1m1 0h1m1 0h1m1 0h1m1 0h1m1 0h1m1 0h1m1 0h1m1 0h1m1 0h1m1 0h1m1 0h1m1 0h1m1 0h1m1 0h1m1 0h1m1 0h1m1 0h1m1 0h1m1 0h1m1 0h7M14 11.5h1m2 0h1m1 0h1m3 0h2m4 0h2m5 0h1m3 0h2m1 0h1m3 0h1m1 0h3m1 0h1m3 0h1m1 0h1m2 0h1m3 0h3m1 0h1m2 0h2m3 0h2m2 0h4m2 0h1m3 0h1m1 0h4m1 0h1m3 0h1m2 0h1m1 0h2m1 0h1m1 0h2m3 0h1m3 0h1m1 0h4m1 0h2m1 0h1m1 0h1m1 0h2m2 0h1M4 12.5h5m1 0h5m4 0h1m3 0h1m1 0h1m1 0h1m2 0h3m2 0h7m1 0h6m4 0h1m2 0h3m1 0h1m1 0h6m1 0h1m2 0h1m1 0h2m1 0h1m3 0h3m4 0h5m4 0h2m1 0h1m1 0h1m1 0h9m1 0h5m1 0h2m6 0h2m5 0h7m1 0h1m1 0h1m1 0h1M4 13.5h1m1 0h2m1 0h1m1 0h1m2 0h1m3 0h3m4 0h5m1 0h1m1 0h1m1 0h3m2 0h4m3 0h1m2 0h1m1 0h1m1 0h1m2 0h1m1 0h1m1 0h1m3 0h1m2 0h6m1 0h2m3 0h1m1 0h1m1 0h2m3 0h1m1 0h1m1 0h2m1 0h4m5 0h1m1 0h4m2 0h1m1 0h2m4 0h2m1 0h2m4 0h1m1 0h1m14 0h1M5 14.5h1m2 0h1m1 0h1m3 0h1m3 0h3m4 0h1m1 0h1m5 0h4m1 0h1m1 0h3m3 0h1m3 0h2m1 0h2m3 0h1m2 0h1m1 0h1m1 0h4m1 0h1m2 0h2m1 0h1m1 0h2m5 0h2m1 0h4m1 0h2m3 0h3m2 0h1m1 0h1m1 0h1m3 0h2m1 0h3m1 0h4m1 0h2m1 0h3m1 0h4m1 0h2m3 0h4m3 0h2M4 15.5h2m1 0h2m3 0h5m2 0h1m5 0h3m1 0h4m1 0h1m1 0h1m1 0h1m3 0h1m4 0h6m1 0h1m4 0h3m1 0h2m2 0h2m3 0h2m1 0h2m1 0h1m1 0h1m1 0h1m1 0h4m2 0h1m3 0h2m3 0h1m5 0h5m2 0h2m3 0h1m2 0h1m3 0h7m1 0h1m1 0h1m1 0h3m1 0h1m1 0h1m1 0h1M10 16.5h1m1 0h1m1 0h5m5 0h1m3 0h1m1 0h2m5 0h1m2 0h2m2 0h1m1 0h1m1 0h1m2 0h1m1 0h2m1 0h3m1 0h3m1 0h2m3 0h2m3 0h1m1 0h1m1 0h4m2 0h1m3 0h2m1 0h2m4 0h2m3 0h2m3 0h1m1 0h2m5 0h2m1 0h1m3 0h1m5 0h3m4 0h2m1 0h2m1 0h7M4 17.5h2m2 0h2m1 0h3m2 0h1m1 0h3m4 0h2m3 0h2m1 0h3m3 0h1m2 0h2m1 0h1m1 0h1m1 0h4m2 0h1m3 0h1m6 0h3m2 0h1m1 0h2m2 0h2m2 0h4m5 0h1m3 0h3m4 0h2m1 0h1m1 0h1m1 0h6m1 0h2m4 0h3m6 0h1m2 0h3m3 0h3m3 0h1m1 0h1M5 18.5h1m1 0h7m1 0h1m2 0h2m3 0h1m1 0h2m2 0h3m2 0h2m1 0h10m1 0h6m4 0h2m2 0h2m1 0h2m5 0h3m1 0h1m2 0h1m5 0h1m2 0h1m1 0h2m1 0h1m1 0h1m2 0h1m1 0h3m3 0h1m4 0h2m1 0h1m4 0h5m6 0h2m1 0h1m1 0h1m2 0h3m1 0h1m5 0h1M5 19.5h1m3 0h1m1 0h1m7 0h1m2 0h1m1 0h1m4 0h1m1 0h2m1 0h1m1 0h4m2 0h2m1 0h1m1 0h2m9 0h1m1 0h2m1 0h1m4 0h1m2 0h1m1 0h1m8 0h7m2 0h1m1 0h2m2 0h1m2 0h1m4 0h2m5 0h3m2 0h1m2 0h1m1 0h1m1 0h6m4 0h1m1 0h2m2 0h1m1 0h3m2 0h2M7 20.5h5m4 0h1m2 0h2m1 0h1m3 0h4m4 0h1m1 0h2m2 0h1m2 0h2m1 0h1m1 0h2m6 0h3m1 0h1m4 0h1m3 0h2m1 0h1m2 0h3m1 0h1m1 0h4m1 0h1m1 0h1m2 0h3m1 0h9m1 0h1m1 0h2m1 0h1m6 0h2m1 0h2m1 0h1m2 0h2m1 0h4m4 0h1m1 0h4m1 0h3M6 21.5h2m6 0h3m1 0h3m1 0h1m2 0h1m1 0h2m1 0h5m1 0h1m2 0h2m1 0h2m3 0h1m2 0h3m1 0h2m2 0h1m2 0h1m4 0h1m3 0h3m1 0h3m3 0h1m4 0h1m2 0h3m3 0h1m1 0h1m5 0h4m1 0h2m1 0h1m3 0h3m1 0h3m2 0h3m1 0h1m1 0h1m1 0h1m1 0h1m5 0h1m1 0h1m3 0h1m1 0h1M4 22.5h3m1 0h1m1 0h5m1 0h1m2 0h4m7 0h2m2 0h8m1 0h1m1 0h1m1 0h1m1 0h1m1 0h3m3 0h6m1 0h1m2 0h2m5 0h1m3 0h2m4 0h1m2 0h2m2 0h1m3 0h1m3 0h3m5 0h1m4 0h1m1 0h2m2 0h1m2 0h3m2 0h1m3 0h4m1 0h1m11 0h2M4 23.5h2m1 0h3m1 0h1m1 0h1m3 0h3m1 0h1m3 0h1m1 0h2m1 0h3m1 0h1m2 0h1m1 0h1m1 0h2m3 0h2m3 0h2m3 0h1m1 0h1m1 0h2m1 0h1m2 0h2m2 0h3m3 0h1m1 0h1m1 0h1m1 0h1m2 0h1m1 0h1m5 0h2m5 0h1m3 0h3m2 0h1m1 0h4m2 0h1m2 0h1m3 0h1m1 0h2m1 0h2m1 0h1m1 0h1m1 0h2m3 0h1m1 0h1M6 24.5h6m1 0h2m2 0h1m1 0h1m1 0h2m1 0h2m1 0h2m3 0h1m1 0h3m2 0h3m1 0h2m1 0h1m2 0h1m1 0h1m3 0h4m1 0h1m1 0h1m1 0h2m3 0h2m1 0h7m1 0h2m2 0h1m3 0h1m3 0h1m2 0h2m1 0h2m2 0h1m1 0h7m1 0h1m2 0h3m3 0h1m4 0h5m2 0h1m2 0h2m1 0h10M4 25.5h1m4 0h1m5 0h2m1 0h1m1 0h5m2 0h2m1 0h1m3 0h2m1 0h1m1 0h1m1 0h3m1 0h1m1 0h2m1 0h3m1 0h1m4 0h1m8 0h2m1 0h1m5 0h1m1 0h5m1 0h3m2 0h1m2 0h1m2 0h4m1 0h4m3 0h2m3 0h1m1 0h4m2 0h1m1 0h1m3 0h2m1 0h3m2 0h6m4 0h3M4 26.5h1m1 0h2m2 0h3m2 0h1m1 0h6m3 0h1m3 0h2m3 0h1m1 0h2m1 0h1m2 0h1m1 0h1m2 0h1m2 0h5m3 0h1m2 0h3m2 0h3m2 0h1m1 0h1m1 0h5m4 0h5m1 0h1m2 0h2m3 0h2m4 0h2m5 0h1m2 0h2m1 0h1m1 0h4m7 0h1m1 0h1m1 0h2m4 0h3m1 0h1m1 0h2M6 27.5h1m4 0h1m3 0h1m1 0h3m1 0h1m3 0h1m3 0h1m1 0h1m2 0h1m3 0h1m3 0h1m2 0h1m1 0h2m6 0h10m1 0h1m1 0h1m1 0h1m1 0h2m2 0h1m5 0h1m2 0h1m1 0h3m2 0h1m1 0h4m1 0h2m3 0h1m1 0h2m1 0h1m3 0h5m2 0h1m3 0h4m1 0h1m2 0h1m3 0h3m3 0h1m1 0h2m1 0h1M5 28.5h2m3 0h1m1 0h1m3 0h1m4 0h1m1 0h1m1 0h1m1 0h1m1 0h1m1 0h2m1 0h2m3 0h3m1 0h6m4 0h1m1 0h2m1 0h1m1 0h1m1 0h1m1 0h2m1 0h6m1 0h1m1 0h3m2 0h3m7 0h3m2 0h3m2 0h2m1 0h1m3 0h1m2 0h1m3 0h2m1 0h5m1 0h2m2 0h3m1 0h3m1 0h2m1 0h1m1 0h3m1 0h2m1 0h1M4 29.5h2m2 0h2m5 0h1m5 0h1m1 0h1m1 0h3m1 0h1m1 0h1m3 0h3m1 0h2m1 0h2m1 0h1m1 0h1m1 0h7m3 0h1m1 0h3m1 0h2m1 0h2m1 0h1m1 0h3m4 0h1m2 0h1m2 0h3m1 0h2m1 0h1m1 0h3m1 0h3m2 0h1m3 0h1m1 0h1m4 0h2m5 0h2m1 0h2m4 0h1m3 0h1m1 0h2m1 0h1m2 0h1m1 0h4M8 30.5h3m2 0h3m1 0h2m1 0h3m2 0h4m4 0h3m2 0h3m6 0h1m1 0h1m3 0h1m3 0h1m1 0h2m3 0h1m1 0h2m8 0h1m1 0h2m2 0h1m2 0h2m3 0h3m2 0h1m2 0h1m1 0h2m3 0h3m1 0h2m1 0h1m1 0h1m4 0h5m4 0h1m2 0h3m1 0h1m4 0h4m1 0h1m1 0h2M5 31.5h2m6 0h9m1 0h4m2 0h3m1 0h2m1 0h1m3 0h2m1 0h3m3 0h2m1 0h5m2 0h1m1 0h3m2 0h1m1 0h1m2 0h1m1 0h1m4 0h3m1 0h8m1 0h1m1 0h1m2 0h1m2 0h2m2 0h2m1 0h1m2 0h1m1 0h1m5 0h2m3 0h1m1 0h4m1 0h1m2 0h1m3 0h2m2 0h1m1 0h1m1 0h2m1 0h1M5 32.5h1m1 0h1m2 0h1m1 0h1m1 0h1m4 0h1m1 0h1m5 0h2m1 0h1m2 0h1m5 0h1m1 0h1m1 0h4m1 0h2m5 0h3m2 0h1m4 0h1m1 0h1m1 0h1m2 0h1m2 0h1m1 0h3m1 0h3m2 0h1m1 0h1m3 0h1m1 0h5m1 0h3m1 0h1m5 0h3m1 0h1m3 0h2m1 0h1m4 0h1m1 0h1m1 0h3m1 0h2m1 0h3m2 0h3m1 0h1m1 0h1M4 33.5h1m2 0h1m4 0h3m1 0h3m2 0h1m1 0h2m3 0h2m1 0h1m2 0h1m7 0h1m2 0h3m2 0h1m1 0h1m1 0h1m3 0h2m3 0h1m2 0h1m3 0h2m2 0h3m3 0h1m1 0h3m2 0h2m1 0h2m1 0h4m1 0h1m2 0h5m2 0h1m4 0h1m1 0h1m1 0h2m1 0h1m1 0h3m4 0h2m3 0h2m3 0h2m4 0h2M5 34.5h1m1 0h1m2 0h1m1 0h1m2 0h2m1 0h1m4 0h2m1 0h2m1 0h3m1 0h1m1 0h1m1 0h3m4 0h1m1 0h1m1 0h1m1 0h4m2 0h1m1 0h1m3 0h1m1 0h1m2 0h2m3 0h1m1 0h1m1 0h1m2 0h1m1 0h2m2 0h2m1 0h3m2 0h2m4 0h2m4 0h2m2 0h1m2 0h1m6 0h3m1 0h2m1 0h1m1 0h1m2 0h1m1 0h3m3 0h1m1 0h3m2 0h1m1 0h1M7 35.5h2m4 0h2m1 0h2m4 0h4m1 0h2m1 0h2m1 0h1m2 0h1m4 0h1m2 0h2m1 0h3m1 0h3m1 0h1m3 0h2m2 0h1m3 0h1m4 0h2m1 0h2m1 0h1m1 0h1m4 0h1m1 0h2m1 0h1m2 0h2m4 0h3m1 0h1m2 0h1m4 0h5m1 0h2m5 0h4m1 0h1m2 0h1m1 0h1m2 0h2m1 0h5M5 36.5h2m1 0h5m1 0h3m3 0h3m1 0h1m1 0h2m1 0h2m1 0h1m3 0h5m2 0h4m1 0h1m7 0h1m1 0h1m1 0h1m1 0h5m4 0h2m1 0h1m1 0h2m2 0h4m4 0h6m1 0h4m1 0h3m1 0h1m3 0h1m1 0h1m3 0h7m2 0h3m3 0h2m1 0h2m2 0h2m1 0h8m1 0h1M6 37.5h3m3 0h4m3 0h1m3 0h1m1 0h3m1 0h1m1 0h4m1 0h1m3 0h2m3 0h1m4 0h1m1 0h1m1 0h2m1 0h1m1 0h1m1 0h2m3 0h1m1 0h1m1 0h2m1 0h1m1 0h1m1 0h3m1 0h3m1 0h4m3 0h1m2 0h4m5 0h2m2 0h1m1 0h1m1 0h1m1 0h1m3 0h2m1 0h1m2 0h1m3 0h1m2 0h2m2 0h2m3 0h1m3 0h1m2 0h1M6 38.5h3m1 0h1m1 0h1m2 0h1m1 0h2m1 0h2m1 0h1m1 0h3m2 0h1m1 0h1m1 0h3m1 0h1m1 0h3m2 0h1m2 0h1m1 0h1m1 0h1m2 0h3m3 0h2m1 0h1m1 0h2m1 0h2m1 0h3m2 0h4m1 0h1m2 0h2m1 0h1m1 0h1m1 0h2m6 0h1m5 0h1m4 0h4m1 0h1m1 0h4m1 0h2m1 0h1m1 0h1m1 0h2m1 0h2m3 0h3m1 0h1m1 0h1m1 0h1m1 0h1M4 39.5h1m1 0h3m3 0h5m1 0h3m1 0h2m3 0h1m2 0h2m1 0h1m2 0h1m3 0h1m6 0h2m3 0h2m1 0h1m1 0h1m1 0h2m1 0h1m3 0h3m1 0h2m1 0h1m2 0h2m1 0h1m2 0h1m1 0h3m1 0h1m3 0h4m4 0h1m5 0h2m6 0h1m3 0h1m1 0h1m4 0h1m1 0h4m6 0h1m2 0h1m3 0h2m2 0h1M5 40.5h11m1 0h5m2 0h1m3 0h1m2 0h1m2 0h8m1 0h1m2 0h1m1 0h2m6 0h1m1 0h1m1 0h8m1 0h3m2 0h3m1 0h6m1 0h2m1 0h6m2 0h1m1 0h1m3 0h1m1 0h2m2 0h3m2 0h6m5 0h1m2 0h2m1 0h1m1 0h1m6 0h9M4 41.5h1m2 0h1m1 0h1m2 0h2m3 0h2m1 0h4m1 0h2m1 0h1m1 0h1m2 0h1m5 0h2m1 0h1m1 0h1m2 0h1m2 0h1m1 0h4m8 0h2m2 0h1m2 0h6m4 0h2m1 0h1m1 0h1m6 0h2m1 0h1m2 0h1m2 0h4m4 0h1m8 0h3m1 0h3m2 0h5m2 0h3m2 0h1m1 0h5M6 42.5h3m1 0h2m1 0h2m2 0h3m2 0h1m1 0h1m1 0h1m3 0h1m2 0h1m3 0h1m1 0h3m1 0h4m1 0h3m1 0h3m2 0h1m7 0h3m1 0h2m1 0h3m1 0h2m1 0h1m2 0h1m2 0h4m1 0h2m1 0h1m1 0h1m2 0h6m2 0h2m3 0h2m1 0h2m1 0h3m1 0h3m6 0h6m3 0h1m3 0h1m4 0h1M8 43.5h2m2 0h3m2 0h5m4 0h1m2 0h1m2 0h1m1 0h2m1 0h3m2 0h1m1 0h5m1 0h1m5 0h3m2 0h6m1 0h1m1 0h6m3 0h2m1 0h4m3 0h2m3 0h1m4 0h2m5 0h1m4 0h1m4 0h1m1 0h1m1 0h1m3 0h2m1 0h3m2 0h1m1 0h1m2 0h1m2 0h1m1 0h1m2 0h1m2 0h1M4 44.5h3m1 0h4m1 0h5m1 0h1m2 0h5m5 0h2m1 0h2m1 0h2m1 0h1m1 0h1m1 0h5m1 0h1m1 0h1m2 0h1m1 0h2m1 0h1m1 0h1m2 0h5m1 0h1m2 0h4m1 0h5m2 0h1m2 0h2m1 0h1m1 0h4m3 0h1m2 0h1m1 0h2m1 0h2m1 0h2m1 0h4m1 0h1m1 0h2m2 0h2m1 0h3m3 0h4m1 0h2m1 0h3m1 0h1M6 45.5h1m1 0h2m2 0h5m1 0h2m2 0h3m1 0h2m1 0h2m2 0h1m1 0h1m1 0h4m1 0h1m2 0h1m1 0h1m1 0h2m1 0h1m1 0h1m2 0h1m6 0h3m4 0h1m1 0h4m3 0h4m2 0h1m2 0h1m1 0h5m2 0h2m1 0h1m1 0h4m1 0h1m1 0h2m4 0h11m4 0h1m3 0h1m1 0h1m2 0h1m1 0h1m1 0h1m1 0h1M4 46.5h3m1 0h1m1 0h1m3 0h2m2 0h1m1 0h1m6 0h1m2 0h5m4 0h5m1 0h2m4 0h1m1 0h2m1 0h1m2 0h1m1 0h1m3 0h3m4 0h3m1 0h1m1 0h4m3 0h1m2 0h2m1 0h1m1 0h1m3 0h4m4 0h2m2 0h1m2 0h4m3 0h1m1 0h3m2 0h1m1 0h1m2 0h6m1 0h2m1 0h1m1 0h1m4 0h1M4 47.5h2m1 0h1m1 0h1m2 0h1m1 0h2m1 0h1m3 0h1m6 0h2m3 0h1m1 0h2m1 0h1m6 0h3m2 0h1m5 0h3m2 0h4m5 0h1m2 0h2m1 0h1m1 0h1m1 0h1m1 0h1m1 0h2m1 0h5m1 0h3m2 0h1m2 0h1m2 0h1m1 0h2m1 0h1m1 0h2m1 0h3m1 0h1m1 0h1m3 0h2m1 0h3m2 0h1m1 0h1m2 0h3m2 0h1M6 48.5h5m1 0h1m1 0h4m1 0h1m8 0h1m3 0h1m3 0h3m2 0h1m2 0h3m1 0h1m4 0h1m1 0h4m1 0h1m1 0h2m2 0h2m1 0h3m2 0h6m1 0h1m5 0h2m2 0h1m5 0h1m1 0h1m1 0h5m1 0h1m2 0h1m6 0h1m3 0h1m1 0h1m1 0h1m2 0h2m7 0h5m1 0h6M5 49.5h1m1 0h1m3 0h1m5 0h2m1 0h3m4 0h2m1 0h1m1 0h4m1 0h6m4 0h1m1 0h7m3 0h1m1 0h2m2 0h2m4 0h2m1 0h3m1 0h1m3 0h2m5 0h1m1 0h3m2 0h2m1 0h1m2 0h4m2 0h1m1 0h1m1 0h2m2 0h1m1 0h1m2 0h3m4 0h2m1 0h1m1 0h1m1 0h1m1 0h2m1 0h1m1 0h3m1 0h1M4 50.5h3m1 0h3m1 0h2m2 0h4m1 0h1m1 0h1m2 0h2m1 0h5m2 0h1m2 0h6m1 0h1m1 0h1m1 0h1m1 0h2m3 0h1m1 0h1m1 0h1m1 0h1m1 0h1m1 0h1m2 0h1m2 0h1m3 0h1m1 0h1m2 0h1m2 0h1m1 0h4m3 0h1m2 0h1m2 0h4m2 0h1m2 0h3m2 0h2m1 0h5m1 0h2m3 0h1m1 0h7m2 0h1m3 0h1m3 0h2M5 51.5h1m2 0h2m2 0h1m1 0h1m1 0h1m6 0h3m3 0h2m1 0h2m3 0h4m2 0h1m1 0h3m4 0h2m3 0h1m1 0h4m4 0h1m4 0h3m1 0h1m1 0h1m1 0h1m3 0h2m1 0h4m2 0h4m3 0h2m2 0h5m4 0h4m7 0h2m1 0h4m5 0h3m3 0h2m1 0h1m2 0h1M4 52.5h2m2 0h1m1 0h1m1 0h6m3 0h4m2 0h1m1 0h2m2 0h1m1 0h3m3 0h1m1 0h2m1 0h1m1 0h1m2 0h1m3 0h2m1 0h1m1 0h3m1 0h1m2 0h5m2 0h2m1 0h1m2 0h3m1 0h1m5 0h3m2 0h1m2 0h1m1 0h1m1 0h2m2 0h6m5 0h1m8 0h1m3 0h5m2 0h1m1 0h1m1 0h1m4 0h2M4 53.5h1m1 0h2m1 0h1m1 0h1m4 0h5m2 0h1m4 0h1m1 0h1m2 0h1m5 0h2m1 0h1m2 0h2m2 0h2m1 0h1m1 0h1m4 0h1m1 0h1m3 0h2m4 0h2m3 0h1m3 0h2m1 0h3m1 0h1m1 0h6m1 0h1m4 0h4m1 0h1m1 0h4m4 0h1m1 0h2m1 0h3m3 0h1m1 0h1m3 0h4m2 0h2m1 0h4M4 54.5h4m2 0h1m2 0h1m2 0h1m2 0h1m4 0h1m1 0h1m2 0h2m9 0h1m2 0h2m1 0h1m2 0h1m2 0h1m2 0h1m3 0h1m4 0h1m2 0h1m5 0h2m3 0h2m1 0h1m4 0h3m4 0h3m1 0h1m1 0h2m1 0h2m2 0h1m2 0h1m2 0h4m1 0h1m1 0h1m1 0h1m1 0h2m2 0h2m2 0h1m1 0h1m1 0h2m1 0h2m3 0h1m1 0h4M6 55.5h3m3 0h3m1 0h2m6 0h2m2 0h1m1 0h2m2 0h3m1 0h1m4 0h1m1 0h3m2 0h2m1 0h1m2 0h2m4 0h1m1 0h1m1 0h3m3 0h2m2 0h1m1 0h1m1 0h3m1 0h2m1 0h1m1 0h2m1 0h3m1 0h2m2 0h1m5 0h1m5 0h1m2 0h2m4 0h2m2 0h5m4 0h1m1 0h3m2 0h1m1 0h1m1 0h1M6 56.5h1m1 0h1m1 0h7m1 0h1m1 0h1m2 0h2m1 0h2m3 0h1m1 0h1m2 0h2m1 0h1m1 0h1m1 0h6m7 0h1m1 0h1m1 0h4m2 0h1m2 0h1m1 0h1m2 0h1m2 0h3m6 0h1m2 0h1m2 0h2m1 0h5m2 0h2m4 0h1m1 0h5m2 0h1m1 0h1m1 0h3m1 0h2m1 0h5m8 0h1m4 0h2M5 57.5h1m1 0h3m2 0h1m1 0h3m2 0h1m1 0h3m1 0h7m2 0h2m3 0h2m1 0h1m2 0h1m4 0h1m1 0h3m9 0h3m1 0h3m1 0h2m1 0h2m1 0h1m3 0h2m3 0h1m1 0h1m1 0h3m2 0h1m1 0h2m1 0h1m1 0h2m1 0h5m4 0h2m4 0h4m1 0h1m1 0h4m1 0h1m2 0h1m2 0h4m1 0h4M4 58.5h1m1 0h6m1 0h2m1 0h1m1 0h1m1 0h5m3 0h2m1 0h2m2 0h1m1 0h1m1 0h1m1 0h1m2 0h4m1 0h1m2 0h3m2 0h1m2 0h2m3 0h1m1 0h1m2 0h1m2 0h2m1 0h1m2 0h2m4 0h1m2 0h1m1 0h2m2 0h2m1 0h1m2 0h3m2 0h3m2 0h1m1 0h1m1 0h1m4 0h1m1 0h1m6 0h1m2 0h1m1 0h4m2 0h1m3 0h1m1 0h1m2 0h1M7 59.5h3m3 0h2m1 0h3m1 0h1m5 0h1m3 0h4m2 0h1m2 0h3m2 0h3m3 0h1m8 0h2m1 0h3m2 0h2m1 0h1m1 0h2m4 0h3m1 0h1m2 0h3m5 0h2m1 0h2m1 0h3m1 0h1m2 0h2m1 0h1m1 0h1m1 0h1m2 0h1m3 0h1m1 0h1m1 0h2m1 0h4m1 0h1m1 0h1m1 0h1m1 0h2m2 0h1m2 0h1m1 0h1M4 60.5h1m2 0h4m3 0h1m4 0h5m1 0h1m3 0h1m1 0h3m2 0h1m1 0h2m3 0h6m8 0h4m1 0h2m2 0h6m3 0h1m1 0h1m2 0h4m2 0h1m4 0h2m2 0h2m1 0h1m1 0h1m3 0h2m4 0h1m1 0h1m4 0h1m2 0h1m1 0h6m7 0h1m1 0h1m1 0h2m2 0h1m1 0h2m1 0h1M5 61.5h1m2 0h2m1 0h2m2 0h5m1 0h3m1 0h1m1 0h2m2 0h2m1 0h2m1 0h2m1 0h4m1 0h1m4 0h6m1 0h1m1 0h1m1 0h2m1 0h3m3 0h2m1 0h1m1 0h1m1 0h2m5 0h1m1 0h1m2 0h1m2 0h1m3 0h2m1 0h1m1 0h2m1 0h3m1 0h1m1 0h1m2 0h1m2 0h4m2 0h2m2 0h1m1 0h1m2 0h1m1 0h4m2 0h2m1 0h1m1 0h1m1 0h1M4 62.5h1m3 0h5m1 0h4m1 0h2m1 0h4m2 0h1m1 0h2m1 0h1m1 0h6m1 0h5m3 0h1m7 0h2m1 0h10m2 0h1m2 0h7m1 0h2m1 0h9m1 0h2m1 0h1m1 0h2m1 0h3m1 0h1m2 0h10m1 0h1m2 0h3m1 0h2m1 0h4m3 0h5m2 0h2M4 63.5h1m3 0h1m3 0h1m5 0h2m2 0h1m1 0h2m1 0h1m6 0h1m1 0h1m3 0h2m2 0h1m1 0h6m2 0h2m1 0h2m2 0h2m3 0h2m3 0h1m1 0h3m2 0h3m3 0h2m2 0h1m3 0h1m1 0h4m1 0h1m1 0h3m1 0h2m1 0h1m2 0h2m1 0h1m3 0h1m1 0h1m3 0h2m1 0h3m2 0h1m1 0h1m2 0h1m1 0h2m3 0h1m3 0h1M5 64.5h4m1 0h1m1 0h2m1 0h5m3 0h1m4 0h3m2 0h1m1 0h2m1 0h1m1 0h1m2 0h2m1 0h3m2 0h1m1 0h1m1 0h2m1 0h3m1 0h1m1 0h1m1 0h2m1 0h2m4 0h1m1 0h3m1 0h1m2 0h1m2 0h2m1 0h1m1 0h1m5 0h1m1 0h1m2 0h2m4 0h2m1 0h3m1 0h1m1 0h1m5 0h1m2 0h3m2 0h1m4 0h1m2 0h1m1 0h1m1 0h1m1 0h3M4 65.5h2m1 0h2m3 0h2m1 0h1m1 0h3m1 0h4m2 0h1m1 0h4m2 0h2m3 0h1m1 0h1m4 0h1m2 0h1m1 0h1m1 0h1m4 0h1m2 0h1m3 0h1m2 0h4m1 0h2m1 0h2m2 0h4m2 0h2m3 0h1m2 0h2m1 0h3m2 0h2m1 0h1m3 0h1m3 0h1m3 0h2m1 0h1m1 0h1m3 0h1m3 0h4m1 0h1m1 0h3m3 0h1M4 66.5h3m1 0h5m1 0h1m5 0h10m2 0h1m1 0h1m1 0h6m1 0h1m4 0h2m1 0h4m1 0h1m2 0h1m1 0h7m2 0h1m1 0h1m1 0h1m2 0h4m1 0h1m1 0h2m1 0h8m2 0h1m1 0h5m1 0h1m1 0h3m2 0h1m1 0h6m1 0h1m1 0h2m1 0h1m1 0h1m2 0h1m1 0h3m2 0h8m1 0h2M5 67.5h4m2 0h1m9 0h2m2 0h1m2 0h3m1 0h2m1 0h2m3 0h1m3 0h3m4 0h1m2 0h1m2 0h2m1 0h1m1 0h1m2 0h1m1 0h1m2 0h1m2 0h3m3 0h2m2 0h1m1 0h2m1 0h1m1 0h2m2 0h1m4 0h3m3 0h2m1 0h2m4 0h4m4 0h1m2 0h3m1 0h1m7 0h1m5 0h1m4 0h1M4 68.5h1m1 0h1m1 0h1m1 0h4m3 0h1m1 0h2m2 0h1m1 0h1m4 0h3m1 0h1m1 0h1m1 0h3m2 0h7m3 0h1m1 0h2m1 0h1m1 0h3m2 0h1m3 0h4m3 0h4m1 0h4m2 0h1m1 0h1m2 0h1m4 0h2m3 0h1m1 0h2m1 0h2m1 0h2m1 0h1m1 0h1m1 0h2m5 0h3m2 0h1m2 0h1m4 0h2m1 0h1m1 0h2m2 0h3M4 69.5h1m1 0h1m2 0h1m4 0h1m4 0h5m3 0h7m2 0h2m1 0h1m1 0h2m8 0h4m4 0h1m3 0h1m2 0h1m1 0h3m4 0h1m5 0h1m1 0h1m4 0h2m1 0h1m3 0h2m1 0h2m4 0h1m1 0h1m1 0h1m6 0h1m6 0h6m1 0h3m2 0h1m1 0h1m2 0h6M5 70.5h2m1 0h1m1 0h9m1 0h2m4 0h2m3 0h2m1 0h1m2 0h2m1 0h1m1 0h2m6 0h1m1 0h1m1 0h5m2 0h1m3 0h1m1 0h1m2 0h1m1 0h3m1 0h1m2 0h1m1 0h1m4 0h1m1 0h1m3 0h3m3 0h5m2 0h1m1 0h1m1 0h1m2 0h3m1 0h4m8 0h1m2 0h1m1 0h1m1 0h1m3 0h1m2 0h3m2 0h2M5 71.5h1m1 0h3m2 0h4m1 0h2m1 0h1m1 0h1m1 0h1m2 0h3m4 0h2m5 0h1m2 0h1m1 0h6m6 0h1m3 0h3m1 0h1m1 0h1m1 0h1m2 0h1m4 0h1m3 0h1m1 0h1m2 0h1m1 0h3m2 0h3m2 0h3m1 0h1m1 0h2m2 0h1m2 0h1m2 0h2m3 0h3m1 0h4m1 0h1m4 0h1m1 0h3m2 0h1m1 0h1m3 0h1M4 72.5h1m1 0h1m3 0h2m1 0h1m1 0h1m2 0h4m1 0h1m2 0h2m3 0h2m4 0h4m3 0h5m7 0h1m1 0h1m1 0h3m1 0h1m3 0h3m3 0h1m2 0h1m1 0h1m1 0h1m1 0h5m2 0h1m1 0h1m5 0h1m1 0h1m1 0h1m1 0h2m1 0h2m1 0h1m1 0h5m1 0h2m1 0h1m2 0h1m5 0h1m1 0h1m2 0h2m1 0h1m2 0h1m1 0h1m1 0h2m1 0h1M4 73.5h1m1 0h1m10 0h3m1 0h4m1 0h2m1 0h2m1 0h2m4 0h1m3 0h2m3 0h1m1 0h4m1 0h1m8 0h2m1 0h1m1 0h1m3 0h1m1 0h4m4 0h4m5 0h1m3 0h3m3 0h5m2 0h2m1 0h1m5 0h2m2 0h1m2 0h1m1 0h2m2 0h1m2 0h1m2 0h1m1 0h6m1 0h2M4 74.5h2m2 0h1m1 0h1m2 0h2m2 0h1m1 0h2m2 0h2m1 0h2m2 0h1m3 0h3m3 0h1m1 0h2m2 0h3m1 0h5m2 0h1m1 0h1m2 0h1m1 0h1m2 0h1m2 0h1m3 0h1m3 0h3m3 0h3m4 0h3m5 0h3m5 0h1m2 0h1m1 0h1m3 0h2m1 0h1m1 0h1m4 0h1m1 0h1m1 0h2m1 0h1m1 0h1m6 0h3m1 0h3M5 75.5h3m1 0h1m4 0h2m2 0h1m1 0h2m2 0h2m1 0h1m1 0h1m2 0h1m4 0h1m2 0h1m3 0h1m1 0h4m1 0h1m2 0h5m1 0h2m4 0h3m3 0h4m2 0h3m2 0h9m2 0h1m2 0h1m1 0h1m1 0h1m1 0h5m1 0h1m2 0h1m1 0h5m3 0h9m3 0h1m2 0h1m1 0h1m3 0h1m3 0h1M5 76.5h7m4 0h1m3 0h1m2 0h6m1 0h1m1 0h2m2 0h1m1 0h3m3 0h1m1 0h1m1 0h1m2 0h3m1 0h2m1 0h7m3 0h1m1 0h3m1 0h2m1 0h1m3 0h3m2 0h2m1 0h1m2 0h2m1 0h4m2 0h1m2 0h1m2 0h1m1 0h3m1 0h1m1 0h1m5 0h1m1 0h1m6 0h4m7 0h1m1 0h4m1 0h1M5 77.5h4m2 0h1m2 0h2m4 0h2m3 0h1m5 0h3m4 0h1m2 0h3m1 0h1m1 0h1m1 0h2m1 0h3m2 0h1m5 0h2m1 0h1m1 0h1m2 0h2m2 0h3m3 0h1m1 0h2m4 0h1m1 0h3m1 0h2m1 0h1m3 0h1m1 0h2m2 0h1m1 0h2m2 0h1m2 0h3m3 0h1m1 0h1m4 0h2m1 0h4m2 0h1m1 0h2m2 0h1m2 0h1M8 78.5h1m1 0h1m1 0h1m3 0h1m1 0h7m1 0h3m2 0h4m2 0h2m1 0h2m1 0h1m2 0h1m4 0h4m3 0h2m4 0h5m3 0h3m1 0h1m1 0h5m3 0h2m3 0h2m1 0h1m2 0h1m1 0h3m1 0h1m5 0h2m1 0h2m1 0h2m1 0h4m1 0h1m2 0h1m3 0h6m5 0h2m1 0h5M4 79.5h5m6 0h1m2 0h1m1 0h1m2 0h1m1 0h1m1 0h1m1 0h1m1 0h3m1 0h2m2 0h2m3 0h3m1 0h1m3 0h1m1 0h1m1 0h1m4 0h3m2 0h3m3 0h3m4 0h1m4 0h2m1 0h5m2 0h2m4 0h1m2 0h3m1 0h1m4 0h1m2 0h4m3 0h1m2 0h3m1 0h2m3 0h1m1 0h2m1 0h1m1 0h1m1 0h1m3 0h1M5 80.5h1m4 0h1m3 0h1m3 0h1m1 0h1m4 0h1m3 0h1m1 0h1m1 0h1m2 0h1m1 0h2m3 0h4m1 0h2m1 0h1m1 0h1m2 0h3m1 0h5m2 0h1m1 0h4m1 0h2m2 0h2m1 0h4m1 0h1m2 0h3m1 0h1m1 0h5m1 0h2m1 0h1m1 0h2m1 0h3m1 0h1m1 0h2m1 0h2m3 0h1m1 0h3m1 0h1m2 0h3m8 0h6M4 81.5h3m4 0h1m2 0h1m1 0h1m4 0h1m1 0h1m3 0h1m1 0h1m1 0h1m1 0h1m3 0h2m3 0h1m2 0h1m3 0h4m1 0h1m8 0h1m4 0h2m1 0h3m1 0h4m1 0h1m1 0h3m2 0h3m1 0h2m2 0h2m2 0h1m1 0h3m1 0h2m1 0h3m2 0h2m2 0h2m2 0h1m1 0h2m1 0h1m1 0h1m1 0h3m1 0h3m1 0h2m1 0h4m3 0h1M4 82.5h1m2 0h2m1 0h1m1 0h14m4 0h2m2 0h2m2 0h1m1 0h1m2 0h1m2 0h2m3 0h1m3 0h1m1 0h3m1 0h1m2 0h4m1 0h2m5 0h1m1 0h3m1 0h1m1 0h4m3 0h2m1 0h1m4 0h2m3 0h1m1 0h2m4 0h1m5 0h4m1 0h2m1 0h1m5 0h2m1 0h1m2 0h2m2 0h1m1 0h2m1 0h2M4 83.5h6m6 0h1m1 0h4m1 0h1m3 0h2m1 0h3m2 0h1m3 0h3m1 0h5m3 0h1m1 0h1m3 0h1m1 0h4m1 0h2m5 0h4m1 0h1m1 0h2m4 0h2m1 0h5m2 0h4m5 0h4m1 0h2m5 0h4m1 0h1m3 0h7m5 0h2m1 0h2m2 0h1M5 84.5h2m2 0h2m2 0h1m1 0h2m2 0h7m1 0h1m4 0h3m2 0h2m1 0h2m2 0h1m1 0h1m1 0h1m6 0h4m1 0h5m1 0h4m1 0h2m2 0h3m2 0h2m4 0h2m1 0h1m3 0h1m2 0h4m1 0h2m1 0h2m3 0h2m1 0h2m1 0h2m2 0h3m2 0h1m2 0h1m2 0h1m6 0h1m5 0h1m1 0h3M4 85.5h1m1 0h1m2 0h1m2 0h2m1 0h1m2 0h1m1 0h1m1 0h1m1 0h1m3 0h3m2 0h3m1 0h1m3 0h3m1 0h1m1 0h1m2 0h4m3 0h1m1 0h1m2 0h3m2 0h1m1 0h2m1 0h2m1 0h4m4 0h2m1 0h1m1 0h2m2 0h5m1 0h2m1 0h4m1 0h1m1 0h1m1 0h1m2 0h1m1 0h3m1 0h1m1 0h1m1 0h2m1 0h1m1 0h1m2 0h1m1 0h1m1 0h1m2 0h3m1 0h1m1 0h1m1 0h1M4 86.5h1m1 0h1m1 0h1m1 0h1m2 0h2m2 0h1m3 0h1m1 0h4m1 0h1m3 0h1m5 0h1m1 0h1m2 0h1m1 0h1m1 0h1m1 0h2m1 0h1m3 0h4m1 0h2m2 0h4m1 0h1m3 0h1m4 0h1m1 0h2m1 0h1m1 0h1m2 0h1m2 0h1m1 0h2m1 0h1m2 0h2m4 0h1m5 0h1m5 0h6m7 0h5m3 0h1m2 0h5m1 0h1M6 87.5h1m1 0h2m6 0h1m1 0h1m2 0h1m1 0h1m1 0h1m1 0h2m2 0h1m2 0h2m8 0h1m1 0h3m1 0h2m3 0h2m1 0h2m4 0h1m2 0h1m2 0h1m2 0h1m2 0h1m1 0h3m3 0h2m1 0h1m1 0h2m2 0h3m1 0h1m2 0h2m1 0h4m1 0h1m2 0h2m2 0h1m2 0h1m3 0h1m2 0h1m1 0h1m1 0h2m6 0h2m4 0h1m4 0h1M5 88.5h1m2 0h7m1 0h2m3 0h2m1 0h2m1 0h1m1 0h3m1 0h1m2 0h6m2 0h1m1 0h1m1 0h1m4 0h1m1 0h2m1 0h1m1 0h1m1 0h6m1 0h2m4 0h3m3 0h2m3 0h7m3 0h1m1 0h1m3 0h2m5 0h3m1 0h6m1 0h1m1 0h1m3 0h1m2 0h2m1 0h2m1 0h3m2 0h5m1 0h1m1 0h1M4 89.5h1m1 0h3m3 0h2m1 0h1m1 0h1m4 0h2m3 0h3m2 0h1m1 0h3m3 0h3m2 0h1m1 0h1m1 0h7m5 0h2m3 0h1m1 0h2m1 0h3m1 0h4m1 0h2m2 0h2m1 0h2m3 0h3m1 0h1m4 0h4m1 0h1m1 0h2m4 0h1m3 0h1m2 0h1m2 0h1m1 0h4m1 0h1m1 0h2m1 0h3m1 0h1m3 0h1m1 0h1M5 90.5h1m2 0h1m1 0h1m1 0h2m1 0h4m2 0h2m1 0h1m3 0h1m2 0h1m2 0h3m1 0h1m1 0h2m6 0h3m2 0h2m2 0h3m1 0h2m1 0h1m1 0h2m4 0h2m2 0h4m2 0h2m4 0h1m1 0h1m1 0h4m1 0h1m1 0h2m1 0h1m3 0h1m4 0h4m1 0h1m1 0h1m1 0h4m4 0h1m1 0h6m3 0h2m1 0h1m1 0h5M5 91.5h2m1 0h1m3 0h3m3 0h2m1 0h1m1 0h1m2 0h1m4 0h1m1 0h2m1 0h1m3 0h2m3 0h2m5 0h1m5 0h1m1 0h1m1 0h1m3 0h3m2 0h1m1 0h4m3 0h1m1 0h7m3 0h3m2 0h1m1 0h3m3 0h3m1 0h1m2 0h1m1 0h1m3 0h2m6 0h4m2 0h1m4 0h4m3 0h1m2 0h2M4 92.5h2m2 0h5m2 0h2m1 0h1m1 0h3m2 0h2m2 0h2m1 0h1m3 0h6m2 0h1m1 0h2m1 0h1m3 0h1m1 0h12m1 0h2m1 0h3m2 0h3m1 0h4m4 0h5m3 0h3m3 0h3m1 0h3m1 0h12m2 0h7m1 0h2m1 0h1m3 0h6m1 0h2M6 93.5h1m1 0h2m1 0h1m1 0h1m4 0h2m2 0h2m2 0h1m1 0h1m4 0h2m1 0h1m1 0h1m1 0h1m1 0h1m7 0h1m1 0h1m1 0h2m2 0h1m3 0h3m1 0h1m1 0h2m1 0h1m1 0h4m3 0h1m2 0h1m2 0h1m1 0h1m1 0h3m1 0h3m1 0h1m4 0h3m2 0h1m1 0h1m2 0h1m1 0h2m2 0h1m2 0h3m1 0h2m4 0h6m3 0h1m1 0h2m1 0h2M10 94.5h2m1 0h2m2 0h4m2 0h1m2 0h1m2 0h2m1 0h4m1 0h1m1 0h1m1 0h1m1 0h1m2 0h2m3 0h1m1 0h1m1 0h1m5 0h4m1 0h2m4 0h1m6 0h1m1 0h2m1 0h3m2 0h2m1 0h1m1 0h1m2 0h1m1 0h3m4 0h1m2 0h2m1 0h1m4 0h5m1 0h2m5 0h2m1 0h1m1 0h2m1 0h3m1 0h1m1 0h5M7 95.5h2m2 0h1m1 0h1m2 0h1m1 0h1m1 0h1m2 0h8m1 0h5m3 0h2m1 0h2m4 0h1m2 0h1m4 0h5m2 0h5m2 0h5m2 0h1m1 0h1m1 0h2m1 0h1m2 0h1m3 0h1m1 0h2m1 0h1m5 0h5m2 0h1m3 0h1m10 0h3m1 0h1m2 0h1m3 0h4m1 0h2m1 0h1M4 96.5h2m1 0h1m1 0h4m3 0h1m2 0h1m1 0h1m2 0h1m2 0h1m1 0h3m1 0h2m1 0h2m1 0h3m1 0h2m1 0h3m2 0h1m3 0h2m1 0h5m6 0h1m1 0h2m1 0h1m1 0h3m1 0h3m3 0h2m1 0h2m5 0h1m1 0h1m1 0h4m1 0h1m1 0h1m1 0h1m1 0h1m1 0h3m1 0h5m1 0h2m2 0h1m2 0h1m3 0h1m1 0h2m1 0h1m1 0h2m2 0h3M4 97.5h3m2 0h1m1 0h2m1 0h1m1 0h3m1 0h7m1 0h1m1 0h2m1 0h2m1 0h4m1 0h3m3 0h1m1 0h1m1 0h2m1 0h2m1 0h1m1 0h1m1 0h2m1 0h3m1 0h2m1 0h1m1 0h3m1 0h2m1 0h2m1 0h1m1 0h1m3 0h3m2 0h1m1 0h1m1 0h1m1 0h6m2 0h1m1 0h2m2 0h2m3 0h4m1 0h1m1 0h1m3 0h2m1 0h1m1 0h1m3 0h3m1 0h1m2 0h2M6 98.5h2m2 0h4m2 0h2m1 0h1m1 0h5m7 0h1m1 0h1m1 0h1m3 0h2m4 0h1m1 0h1m2 0h3m1 0h1m1 0h2m3 0h2m1 0h4m6 0h1m1 0h2m5 0h1m5 0h1m1 0h2m2 0h1m1 0h1m6 0h1m2 0h1m2 0h2m1 0h10m3 0h1m2 0h3m1 0h2m3 0h1m1 0h2m3 0h2M4 99.5h1m1 0h1m2 0h1m2 0h2m2 0h1m2 0h6m2 0h3m1 0h2m2 0h1m3 0h2m1 0h2m1 0h1m1 0h1m1 0h2m1 0h1m1 0h2m1 0h4m3 0h2m1 0h2m1 0h1m1 0h2m2 0h1m1 0h1m1 0h1m1 0h5m1 0h2m1 0h2m1 0h1m10 0h2m2 0h1m1 0h4m3 0h1m1 0h1m1 0h1m2 0h5m7 0h1m1 0h1m2 0h1m1 0h1m3 0h1M4 100.5h1m1 0h1m1 0h6m2 0h1m2 0h2m3 0h2m2 0h1m1 0h1m1 0h4m1 0h1m1 0h3m1 0h1m2 0h1m1 0h2m3 0h1m1 0h1m2 0h1m1 0h3m1 0h2m3 0h3m2 0h2m1 0h2m2 0h3m2 0h3m1 0h2m1 0h3m1 0h3m1 0h2m3 0h2m1 0h2m2 0h4m1 0h1m3 0h1m1 0h1m2 0h1m2 0h3m5 0h2m1 0h1m4 0h3M4 101.5h2m2 0h1m2 0h1m2 0h2m1 0h6m1 0h3m1 0h1m7 0h4m2 0h1m4 0h1m2 0h3m1 0h1m2 0h2m4 0h3m1 0h2m1 0h2m1 0h1m1 0h3m3 0h1m1 0h1m1 0h1m1 0h2m2 0h1m1 0h2m1 0h1m6 0h2m2 0h4m4 0h1m5 0h1m1 0h1m2 0h1m2 0h4m1 0h3m1 0h4m1 0h1M4 102.5h1m4 0h3m2 0h1m1 0h2m4 0h1m1 0h2m2 0h4m1 0h1m7 0h3m1 0h3m1 0h1m1 0h1m1 0h3m3 0h1m2 0h2m2 0h3m3 0h3m1 0h1m2 0h2m1 0h1m2 0h1m1 0h3m4 0h1m2 0h4m2 0h1m2 0h1m5 0h2m3 0h1m1 0h1m1 0h4m1 0h1m4 0h1m1 0h1m1 0h2m1 0h5m1 0h1m2 0h2M4 103.5h1m2 0h3m1 0h1m1 0h5m1 0h3m1 0h1m7 0h1m2 0h1m4 0h2m1 0h2m2 0h2m1 0h1m5 0h3m1 0h3m2 0h3m3 0h1m1 0h3m3 0h3m2 0h6m3 0h1m1 0h1m1 0h1m2 0h2m5 0h1m1 0h2m1 0h2m1 0h1m1 0h1m1 0h1m1 0h1m3 0h2m1 0h1m1 0h1m2 0h1m3 0h2m3 0h5m1 0h2M4 104.5h2m2 0h3m1 0h2m1 0h2m1 0h1m1 0h1m1 0h1m1 0h1m1 0h1m1 0h1m1 0h1m3 0h1m1 0h2m1 0h5m1 0h2m1 0h2m1 0h1m1 0h1m1 0h4m1 0h4m1 0h1m2 0h2m2 0h1m2 0h3m1 0h1m1 0h2m5 0h3m4 0h1m2 0h2m2 0h3m4 0h2m2 0h3m1 0h1m2 0h1m4 0h2m1 0h1m3 0h1m3 0h2m2 0h1m4 0h3M7 105.5h1m1 0h1m1 0h6m1 0h1m1 0h1m5 0h4m1 0h1m2 0h6m9 0h4m2 0h1m6 0h2m4 0h1m1 0h1m1 0h2m1 0h1m2 0h10m1 0h3m1 0h2m1 0h3m3 0h3m1 0h1m1 0h2m4 0h3m2 0h2m1 0h2m3 0h2m1 0h1m2 0h1m1 0h1m4 0h4m1 0h2M4 106.5h5m1 0h2m1 0h5m2 0h1m3 0h3m1 0h1m2 0h1m6 0h1m2 0h1m3 0h1m3 0h2m1 0h1m3 0h2m3 0h1m1 0h2m2 0h2m1 0h1m2 0h2m7 0h1m3 0h2m10 0h1m1 0h2m1 0h1m1 0h3m4 0h3m2 0h5m1 0h1m7 0h1m1 0h1m1 0h2m1 0h1m1 0h6m2 0h1M5 107.5h2m6 0h1m2 0h1m2 0h1m3 0h1m2 0h1m1 0h2m3 0h2m1 0h2m1 0h3m6 0h1m2 0h1m1 0h1m1 0h2m1 0h3m4 0h2m6 0h1m1 0h1m2 0h1m1 0h1m3 0h3m1 0h1m2 0h4m4 0h2m5 0h1m9 0h1m1 0h1m6 0h3m5 0h2m2 0h1m3 0h2m1 0h1m3 0h1M8 108.5h3m2 0h3m3 0h1m1 0h3m2 0h2m1 0h6m2 0h1m1 0h1m1 0h1m3 0h2m1 0h2m1 0h1m4 0h7m1 0h1m2 0h1m1 0h3m2 0h1m1 0h1m4 0h1m1 0h1m2 0h1m2 0h3m3 0h1m1 0h3m1 0h4m2 0h2m1 0h1m1 0h6m2 0h1m1 0h1m2 0h1m1 0h2m1 0h1m1 0h1m1 0h1m5 0h4m1 0h4M4 109.5h3m1 0h1m2 0h1m2 0h5m4 0h1m1 0h1m1 0h1m3 0h6m1 0h1m1 0h1m1 0h2m3 0h1m1 0h2m1 0h4m1 0h1m3 0h1m1 0h4m1 0h1m2 0h3m1 0h4m2 0h1m1 0h1m1 0h1m2 0h1m1 0h1m3 0h1m1 0h1m5 0h3m1 0h1m1 0h3m2 0h2m1 0h1m1 0h1m2 0h4m2 0h2m2 0h1m1 0h1m2 0h1m2 0h1m3 0h5M6 110.5h6m1 0h2m2 0h1m1 0h1m5 0h4m1 0h1m3 0h1m2 0h1m3 0h1m4 0h2m1 0h4m3 0h2m2 0h1m2 0h1m3 0h4m1 0h3m1 0h5m6 0h1m1 0h1m2 0h4m4 0h1m10 0h3m1 0h5m1 0h1m1 0h2m5 0h2m1 0h1m1 0h1m2 0h1m1 0h3m1 0h1m2 0h2M4 111.5h1m2 0h2m2 0h1m1 0h1m3 0h1m1 0h1m1 0h2m6 0h1m1 0h2m1 0h2m1 0h4m1 0h2m3 0h1m2 0h1m1 0h2m2 0h3m1 0h2m2 0h2m4 0h1m2 0h3m2 0h3m1 0h4m2 0h1m3 0h3m1 0h2m2 0h1m2 0h1m2 0h2m1 0h1m4 0h1m2 0h2m2 0h2m2 0h1m1 0h3m6 0h2m3 0h2m1 0h2m2 0h1M4 112.5h2m1 0h5m1 0h1m1 0h3m1 0h5m1 0h2m1 0h1m1 0h1m2 0h1m1 0h3m1 0h3m2 0h1m1 0h1m1 0h2m1 0h3m1 0h2m1 0h1m4 0h2m1 0h1m1 0h3m2 0h7m1 0h4m5 0h1m2 0h6m2 0h5m2 0h3m1 0h5m8 0h1m2 0h1m1 0h1m1 0h1m5 0h3m5 0h2M4 113.5h4m3 0h2m1 0h6m3 0h1m1 0h2m2 0h1m2 0h5m1 0h2m1 0h2m6 0h4m1 0h1m4 0h2m1 0h3m5 0h8m2 0h1m1 0h2m2 0h5m6 0h1m6 0h2m1 0h3m1 0h1m2 0h2m2 0h1m1 0h2m2 0h1m6 0h1m2 0h1m3 0h1m3 0h2m1 0h1M6 114.5h10m2 0h2m2 0h1m2 0h2m4 0h2m3 0h5m1 0h1m1 0h3m2 0h1m2 0h2m1 0h1m1 0h1m2 0h1m1 0h6m1 0h2m2 0h2m1 0h1m2 0h1m2 0h1m1 0h3m1 0h9m3 0h4m1 0h2m2 0h4m1 0h6m1 0h1m1 0h2m3 0h1m1 0h4m1 0h2m2 0h6m2 0h2M5 115.5h1m2 0h1m3 0h1m1 0h1m1 0h2m2 0h2m1 0h2m1 0h1m3 0h1m1 0h1m1 0h1m1 0h1m3 0h2m1 0h1m1 0h2m1 0h3m2 0h1m5 0h4m3 0h3m4 0h1m11 0h1m1 0h2m3 0h3m1 0h2m1 0h3m1 0h1m2 0h1m2 0h1m2 0h3m3 0h1m1 0h3m1 0h5m8 0h1m2 0h1m3 0h2m2 0h1M7 116.5h2m1 0h1m1 0h1m1 0h6m2 0h1m1 0h5m1 0h1m3 0h3m1 0h1m1 0h1m2 0h4m1 0h2m1 0h1m3 0h4m1 0h3m1 0h1m1 0h1m1 0h3m6 0h3m1 0h1m2 0h1m2 0h2m1 0h1m1 0h1m2 0h2m2 0h1m1 0h1m1 0h1m1 0h1m4 0h5m1 0h1m1 0h2m2 0h1m1 0h2m3 0h4m2 0h2m3 0h1m1 0h1m1 0h4M4 117.5h1m1 0h3m3 0h1m1 0h4m1 0h1m1 0h2m3 0h2m3 0h6m3 0h4m1 0h1m1 0h1m1 0h4m1 0h1m6 0h2m3 0h1m1 0h1m1 0h2m3 0h1m1 0h2m4 0h1m2 0h1m1 0h1m3 0h3m1 0h1m2 0h1m1 0h1m2 0h3m1 0h1m2 0h2m1 0h1m3 0h2m1 0h4m2 0h2m1 0h2m3 0h3m1 0h2m3 0h2M4 118.5h2m2 0h5m1 0h2m2 0h1m1 0h2m4 0h1m7 0h1m1 0h5m2 0h1m1 0h1m1 0h1m3 0h5m1 0h1m1 0h1m2 0h6m2 0h1m1 0h3m1 0h1m2 0h1m2 0h1m1 0h1m1 0h10m1 0h1m2 0h2m1 0h1m2 0h2m4 0h8m1 0h1m1 0h2m1 0h1m1 0h1m1 0h7m1 0h1m1 0h5m3 0h1M4 119.5h2m1 0h1m6 0h1m1 0h1m4 0h5m1 0h1m6 0h2m2 0h7m3 0h4m1 0h1m1 0h2m1 0h1m3 0h2m2 0h3m1 0h1m1 0h3m5 0h1m4 0h1m2 0h1m2 0h1m1 0h2m2 0h1m1 0h2m5 0h1m2 0h1m1 0h2m1 0h1m1 0h2m4 0h1m2 0h1m1 0h3m6 0h5m1 0h2m1 0h1m2 0h1M4 120.5h1m1 0h1m3 0h7m9 0h2m6 0h2m4 0h1m3 0h2m1 0h2m6 0h4m1 0h3m2 0h1m3 0h3m2 0h1m1 0h2m3 0h2m4 0h1m1 0h1m1 0h3m2 0h1m1 0h1m1 0h1m1 0h1m5 0h3m1 0h1m1 0h1m5 0h3m1 0h1m1 0h2m1 0h4m1 0h2m1 0h2m2 0h4m1 0h3M6 121.5h4m1 0h2m1 0h1m1 0h1m2 0h1m4 0h1m1 0h1m5 0h3m1 0h1m2 0h4m3 0h1m3 0h1m1 0h4m3 0h1m1 0h1m2 0h1m1 0h1m2 0h1m1 0h1m8 0h1m2 0h2m2 0h2m1 0h1m2 0h2m1 0h3m5 0h2m2 0h1m4 0h1m1 0h2m1 0h1m1 0h1m2 0h2m5 0h2m1 0h2m1 0h1m1 0h1m2 0h1m3 0h1M4 122.5h2m1 0h5m2 0h3m2 0h3m1 0h2m1 0h1m3 0h3m1 0h1m2 0h2m1 0h2m3 0h2m6 0h1m1 0h2m3 0h1m1 0h3m1 0h4m3 0h5m1 0h2m1 0h1m1 0h2m2 0h1m2 0h1m2 0h1m2 0h1m1 0h2m2 0h1m2 0h2m1 0h1m1 0h5m2 0h2m1 0h4m2 0h2m1 0h2m1 0h2m4 0h2m2 0h2m2 0h2M4 123.5h2m1 0h1m1 0h1m3 0h2m1 0h2m1 0h2m3 0h2m2 0h1m1 0h3m2 0h4m2 0h1m1 0h1m2 0h4m2 0h1m2 0h1m1 0h4m2 0h2m2 0h2m1 0h1m2 0h3m3 0h2m4 0h2m1 0h1m2 0h1m2 0h1m4 0h1m1 0h1m1 0h1m1 0h2m2 0h1m1 0h5m1 0h2m3 0h1m1 0h2m1 0h1m1 0h1m2 0h1m1 0h1m1 0h3m3 0h1m1 0h2m1 0h2M4 124.5h1m1 0h3m1 0h1m1 0h3m2 0h3m1 0h1m1 0h1m1 0h2m7 0h3m2 0h2m2 0h7m5 0h4m1 0h2m3 0h1m1 0h3m1 0h1m3 0h2m1 0h1m3 0h3m1 0h4m1 0h1m4 0h1m1 0h1m5 0h1m2 0h1m1 0h4m1 0h1m1 0h3m2 0h2m3 0h3m2 0h1m7 0h4m1 0h1m1 0h1M4 125.5h1m2 0h1m3 0h1m2 0h3m1 0h1m2 0h2m1 0h1m1 0h1m1 0h2m1 0h3m5 0h4m6 0h2m1 0h1m1 0h1m2 0h3m1 0h4m3 0h4m3 0h7m1 0h1m6 0h1m1 0h1m3 0h1m2 0h1m2 0h3m1 0h1m1 0h2m1 0h1m1 0h1m1 0h5m4 0h2m1 0h1m2 0h2m1 0h4m1 0h1m2 0h1m3 0h2M5 126.5h7m1 0h1m3 0h2m1 0h1m1 0h3m2 0h4m2 0h2m1 0h1m1 0h1m2 0h1m3 0h3m3 0h3m1 0h1m1 0h4m1 0h1m1 0h2m1 0h2m1 0h1m1 0h2m5 0h1m1 0h2m5 0h1m2 0h2m1 0h2m4 0h2m1 0h1m2 0h2m1 0h4m2 0h1m2 0h7m1 0h1m1 0h1m3 0h2m1 0h1m2 0h2m3 0h1m3 0h2M4 127.5h1m8 0h1m3 0h4m6 0h4m5 0h1m4 0h1m1 0h3m1 0h3m1 0h1m1 0h1m2 0h1m1 0h7m2 0h1m5 0h1m2 0h1m1 0h3m2 0h1m1 0h2m5 0h1m1 0h2m1 0h1m1 0h3m4 0h1m1 0h2m2 0h1m4 0h1m3 0h2m1 0h2m1 0h1m1 0h2m3 0h1m1 0h2m1 0h2m3 0h2m1 0h2M4 128.5h1m1 0h3m1 0h1m4 0h1m1 0h1m1 0h3m1 0h1m1 0h2m2 0h4m2 0h1m1 0h1m1 0h2m2 0h2m1 0h1m1 0h1m6 0h1m2 0h1m1 0h3m2 0h1m1 0h3m1 0h1m2 0h1m1 0h2m2 0h2m4 0h1m2 0h1m2 0h1m2 0h1m2 0h2m2 0h3m2 0h2m1 0h3m1 0h1m3 0h1m1 0h1m1 0h1m2 0h1m7 0h1m3 0h1m2 0h3m1 0h1m1 0h2M6 129.5h1m1 0h1m2 0h2m3 0h2m1 0h1m1 0h1m2 0h1m1 0h1m2 0h5m2 0h1m2 0h1m2 0h2m5 0h6m1 0h2m1 0h1m1 0h1m2 0h2m3 0h1m1 0h1m1 0h1m1 0h1m5 0h4m1 0h3m1 0h2m1 0h1m2 0h1m1 0h1m4 0h3m2 0h1m2 0h1m1 0h1m1 0h2m2 0h1m2 0h1m4 0h1m1 0h2m3 0h2m4 0h2m1 0h1m2 0h2M5 130.5h1m4 0h3m1 0h1m2 0h1m1 0h1m1 0h2m3 0h1m1 0h2m4 0h1m1 0h1m1 0h1m1 0h6m2 0h2m1 0h6m3 0h1m2 0h6m1 0h1m3 0h1m2 0h1m1 0h1m1 0h1m2 0h2m2 0h1m2 0h1m2 0h2m3 0h3m1 0h1m1 0h3m4 0h4m4 0h2m1 0h1m4 0h1m1 0h1m1 0h5m1 0h2m2 0h1m1 0h1m2 0h2M7 131.5h2m5 0h2m2 0h1m2 0h2m1 0h1m3 0h1m1 0h4m10 0h1m1 0h1m2 0h2m3 0h1m1 0h2m1 0h2m1 0h2m2 0h3m3 0h2m9 0h3m2 0h1m1 0h1m1 0h4m3 0h2m4 0h4m3 0h1m4 0h2m3 0h1m2 0h1m1 0h3m2 0h1m4 0h1m1 0h2m2 0h1m1 0h1m2 0h1M4 132.5h1m2 0h1m2 0h1m2 0h1m1 0h2m1 0h3m1 0h3m3 0h3m4 0h2m2 0h2m2 0h2m1 0h3m2 0h1m1 0h1m2 0h1m1 0h1m1 0h1m3 0h3m2 0h1m2 0h1m3 0h2m1 0h3m2 0h1m6 0h2m3 0h1m1 0h2m1 0h1m5 0h2m1 0h1m6 0h1m2 0h1m7 0h3m4 0h1m1 0h2m3 0h1m1 0h5M4 133.5h1m1 0h2m1 0h1m1 0h1m3 0h3m3 0h4m2 0h4m1 0h1m1 0h1m1 0h2m1 0h4m2 0h1m1 0h1m1 0h2m1 0h1m1 0h1m2 0h1m3 0h5m3 0h1m1 0h2m2 0h1m5 0h3m6 0h1m4 0h2m2 0h1m4 0h4m1 0h1m3 0h1m1 0h1m4 0h2m3 0h1m1 0h2m1 0h2m1 0h1m3 0h1m5 0h1m1 0h1m1 0h1M5 134.5h1m2 0h9m3 0h3m3 0h3m5 0h6m2 0h2m1 0h3m2 0h4m2 0h2m4 0h1m1 0h1m2 0h2m1 0h1m2 0h2m1 0h1m1 0h3m3 0h3m5 0h3m2 0h2m1 0h4m2 0h1m5 0h1m5 0h2m1 0h3m3 0h2m2 0h1m1 0h1m1 0h1m2 0h3m3 0h5M8 135.5h2m1 0h6m3 0h1m1 0h1m1 0h2m1 0h1m1 0h1m1 0h2m1 0h1m6 0h1m1 0h3m3 0h2m4 0h2m1 0h1m1 0h1m6 0h1m4 0h2m1 0h2m1 0h2m3 0h1m1 0h1m3 0h1m3 0h2m1 0h2m1 0h1m1 0h1m1 0h1m1 0h3m1 0h1m1 0h1m3 0h3m4 0h1m2 0h3m1 0h2m1 0h1m3 0h4m2 0h2m3 0h2M4 136.5h5m1 0h1m8 0h2m1 0h2m1 0h1m2 0h6m2 0h2m2 0h2m1 0h4m1 0h1m1 0h1m2 0h1m2 0h3m1 0h1m2 0h3m3 0h2m3 0h1m2 0h6m2 0h3m3 0h2m4 0h2m1 0h4m1 0h1m4 0h1m3 0h1m3 0h1m1 0h2m2 0h1m2 0h5m6 0h1m3 0h1m1 0h3m1 0h1M4 137.5h1m1 0h1m1 0h1m3 0h1m1 0h1m1 0h2m4 0h5m3 0h2m9 0h1m1 0h1m5 0h1m2 0h3m3 0h1m2 0h3m1 0h1m4 0h1m1 0h1m2 0h1m1 0h2m2 0h1m1 0h1m1 0h3m1 0h1m3 0h1m3 0h1m4 0h5m1 0h2m1 0h1m1 0h3m3 0h3m3 0h2m1 0h1m3 0h2m1 0h1m2 0h1m1 0h2m1 0h1m2 0h1m1 0h1M4 138.5h1m1 0h1m3 0h1m3 0h3m1 0h2m3 0h1m2 0h1m2 0h14m2 0h1m1 0h3m1 0h1m1 0h2m7 0h6m2 0h2m1 0h2m2 0h1m1 0h2m1 0h1m2 0h1m3 0h1m4 0h2m1 0h4m2 0h1m2 0h1m2 0h1m2 0h3m1 0h1m3 0h3m5 0h1m1 0h2m1 0h1m1 0h1m3 0h1m1 0h1m2 0h5M5 139.5h2m7 0h2m2 0h2m1 0h2m2 0h2m1 0h3m2 0h3m2 0h1m4 0h2m1 0h2m2 0h1m1 0h1m1 0h1m3 0h2m1 0h1m1 0h2m2 0h2m1 0h7m1 0h3m3 0h3m4 0h4m2 0h1m2 0h2m3 0h3m4 0h1m1 0h1m1 0h2m3 0h1m3 0h5m2 0h1m1 0h1m2 0h1m2 0h2m1 0h1M4 140.5h1m1 0h2m1 0h4m1 0h3m1 0h5m1 0h3m3 0h2m1 0h1m1 0h7m1 0h4m1 0h1m2 0h1m1 0h1m1 0h4m1 0h8m1 0h3m4 0h2m2 0h2m3 0h1m1 0h6m4 0h4m1 0h3m6 0h1m2 0h5m1 0h1m1 0h1m1 0h2m1 0h1m1 0h2m1 0h2m2 0h2m2 0h8M12 141.5h1m2 0h3m3 0h2m1 0h2m4 0h2m2 0h3m3 0h1m2 0h1m3 0h1m2 0h1m1 0h4m5 0h2m3 0h1m2 0h3m2 0h2m1 0h4m1 0h3m1 0h1m1 0h1m3 0h1m1 0h1m1 0h4m2 0h7m1 0h1m3 0h1m3 0h2m1 0h1m1 0h2m1 0h3m2 0h1m1 0h2m2 0h4m3 0h1m1 0h1M4 142.5h7m1 0h4m1 0h1m3 0h6m1 0h2m2 0h3m1 0h1m1 0h1m1 0h1m4 0h2m1 0h1m3 0h2m1 0h1m2 0h1m2 0h2m1 0h1m1 0h2m1 0h1m2 0h1m1 0h1m4 0h1m1 0h2m2 0h4m1 0h1m1 0h3m5 0h3m3 0h2m2 0h1m1 0h3m1 0h1m1 0h4m2 0h1m1 0h1m1 0h1m2 0h6m3 0h1m1 0h1m1 0h2m1 0h2M4 143.5h1m5 0h1m3 0h1m2 0h2m4 0h1m3 0h1m3 0h1m1 0h1m1 0h2m3 0h2m3 0h3m2 0h3m2 0h2m1 0h1m1 0h3m3 0h2m1 0h2m2 0h1m1 0h2m2 0h2m3 0h3m1 0h1m3 0h1m1 0h4m2 0h1m4 0h2m1 0h2m2 0h3m3 0h1m3 0h1m1 0h7m1 0h1m3 0h5m3 0h1M4 144.5h1m1 0h3m1 0h1m1 0h1m1 0h1m1 0h8m2 0h1m3 0h2m1 0h2m1 0h5m2 0h2m1 0h1m2 0h1m2 0h2m1 0h2m1 0h3m1 0h6m3 0h2m2 0h3m1 0h1m1 0h2m3 0h1m1 0h6m3 0h3m1 0h2m2 0h1m1 0h1m2 0h1m3 0h5m1 0h1m1 0h2m3 0h1m4 0h2m1 0h1m1 0h10m1 0h1M4 145.5h1m1 0h3m1 0h1m1 0h3m1 0h1m2 0h2m4 0h2m1 0h1m1 0h1m1 0h4m1 0h7m3 0h1m2 0h2m5 0h1m6 0h3m1 0h6m1 0h1m4 0h4m1 0h1m1 0h3m1 0h2m1 0h5m2 0h2m1 0h1m1 0h1m1 0h2m3 0h3m1 0h2m1 0h5m1 0h1m4 0h1m4 0h1m2 0h7m2 0h1M4 146.5h1m1 0h3m1 0h1m1 0h1m4 0h1m1 0h1m1 0h2m2 0h1m3 0h4m3 0h1m1 0h1m4 0h2m3 0h3m2 0h1m3 0h2m4 0h3m1 0h1m4 0h3m2 0h1m1 0h1m1 0h2m3 0h2m2 0h2m1 0h2m5 0h2m1 0h1m1 0h3m4 0h6m1 0h1m1 0h1m1 0h1m4 0h1m1 0h2m1 0h4m1 0h1m2 0h1m1 0h1m4 0h1M4 147.5h1m5 0h1m1 0h1m1 0h2m1 0h1m2 0h2m2 0h3m1 0h4m1 0h2m2 0h1m2 0h1m4 0h2m2 0h1m1 0h1m5 0h6m1 0h5m4 0h4m1 0h3m3 0h4m1 0h2m3 0h4m2 0h1m5 0h1m4 0h3m1 0h1m2 0h1m3 0h1m2 0h1m1 0h1m1 0h2m1 0h1m4 0h1m2 0h2m1 0h1m4 0h1M4 148.5h7m1 0h7m1 0h3m2 0h2m1 0h3m2 0h2m4 0h1m1 0h1m1 0h2m1 0h1m1 0h1m4 0h1m2 0h4m3 0h1m5 0h3m2 0h4m1 0h1m1 0h2m3 0h1m1 0h1m1 0h2m1 0h1m2 0h3m1 0h9m1 0h6m1 0h1m1 0h1m1 0h1m1 0h1m1 0h1m1 0h4m5 0h2m1 0h1m1 0h1m3 0h4"/></svg>
